<svg xmlns="http://www.w3.org/2000/svg" width="1730.039" height="271.12" viewBox="0 0 1730.039 271.12"><g id="&#x30B0;&#x30EB;&#x30FC;&#x30D7;_20898" data-name="&#x30B0;&#x30EB;&#x30FC;&#x30D7; 20898" transform="translate(-98.462 -120.707)"><path id="&#x30D1;&#x30B9;_36612" data-name="&#x30D1;&#x30B9; 36612" d="M60.06-39.676a76.835,76.835,0,0,1-18.837,2.093H39.312c.364-3,.455-3.731.637-4.914a38.29,38.29,0,0,0,.637-4.459,135.485,135.485,0,0,0,14.924-.637c4.459-.364,4.459-.364,6.552-.546l.546-15.106c-5.551,1.365-10.829,2-19.747,2.275C44.135-69.342,44.5-71.344,45.5-74.256L28.665-75.621v1.274A80.194,80.194,0,0,1,27.3-61.334c-7.189-.728-12.467-1.729-16.471-3.094l-1,14.105c1.365.273,1.911.364,3.276.637a122.171,122.171,0,0,0,12.558,2.093c-.728,5.1-1.183,8.19-1.274,9.1-8.281-1-11.648-1.638-15.834-3.185L7.462-27.118a22.332,22.332,0,0,1,3.913.546,99.882,99.882,0,0,0,11.739,1.82c-.182,2.73-.273,4.732-.273,6.734,0,7.462,2,12.831,6.37,16.926C34.4,3.64,41.769,6.1,51.142,6.1c8.918,0,16.471-2.184,22.113-6.461a22.638,22.638,0,0,0,9.282-18.018c0-7.462-2.275-13.559-7.553-20.384a47.341,47.341,0,0,1-15.015,2.912Zm-.091,4.914c4.459,4.914,6.734,9.828,6.734,14.469,0,7.28-5.915,11.648-15.834,11.648-4.277,0-7.644-1-9.828-3-1.911-1.729-2.821-4.186-2.821-7.826,0-1.456.091-3.185.182-4.368,2.548.091,3.185.091,4.1.091a120.337,120.337,0,0,0,14.287-.91c1.911-.273,2-.273,2.912-.364ZM114.478-73.8a42.74,42.74,0,0,1,.455,6.916c0,3.549-.182,12.194-.364,21.385-.455,18.291-.455,18.291-.455,20.657,0,12.74,1.729,18.564,6.916,23.569,4.914,4.641,11.83,6.916,21.112,6.916,11.921,0,21.385-3.913,28.574-11.739,5.005-5.551,8.008-12.194,11.466-25.844-5.824-2.366-8.827-4.277-15.561-9.555a69.151,69.151,0,0,1-3.64,16.471c-3.549,9.828-10.829,15.379-20.2,15.379-5,0-8.918-1.638-10.647-4.368-1.547-2.457-1.911-5.187-1.911-14.287,0-15.2,1.092-39.494,2.093-45.227ZM252.525-52.962a20.034,20.034,0,0,1-1.183,5.187,34.347,34.347,0,0,0-4.277-.182,48.067,48.067,0,0,0-8.827.819c.091-1.911.091-2.184.091-2.73.091-1.547.091-1.547.182-2.457,9.1-.364,22.932-1.456,31.668-2.73,2.093-.273,2.457-.273,3.913-.364l-.637-14.742c-7.371,2.093-19.383,3.731-34.125,4.55.546-5.369.728-6.825,1.456-9.555L225.134-75.8a23.27,23.27,0,0,1,.182,3.822c0,1,0,2-.091,2.912-.182,2.73-.182,2.73-.273,3.913l-1.274.091h-.546a84.325,84.325,0,0,1-16.926-1.365l.182,14.378c1.274-.091,1.638-.091,2.912-.091,1.638,0,3.094,0,4.459.091,6.734.091,6.734.091,10.647.182-.091,3.913-.091,4.823-.091,7.917a35.558,35.558,0,0,0-12.649,8.281,29.777,29.777,0,0,0-9.1,21.112C202.566-3.185,209.391,4,220.129,4c6.916,0,14.833-3.549,21.112-9.464a49.159,49.159,0,0,1,5.1,12.012c8.463-.819,13.468-2,18.382-4.186,11.011-4.914,17.108-13.741,17.108-24.752a21.89,21.89,0,0,0-7.462-17.108,23.168,23.168,0,0,0-9.191-5.1,45.922,45.922,0,0,1,1.911-4.55Zm-7.917,44.5a71.651,71.651,0,0,0,15.925-23.751c4.1,2.093,5.824,4.641,5.824,8.736,0,5-3.367,9.737-8.645,12.194C254.254-9.646,250.614-8.918,244.608-8.463ZM224.5-28.756a103.47,103.47,0,0,0,1.365,16.471,8.545,8.545,0,0,1-5.005,1.729c-2.548,0-3.913-1.911-3.913-5.278C216.944-20.839,219.583-25.3,224.5-28.756Zm13.65-6.279a23.674,23.674,0,0,1,7.189-1,13.44,13.44,0,0,1,1.911.091,59.193,59.193,0,0,1-8.554,14.014A111.549,111.549,0,0,1,238.147-35.035Zm81.9-41.587a60.769,60.769,0,0,1-1.365,10.829,31.272,31.272,0,0,0-.819,3.822c-1.82.091-2.275.091-3.276.091a74.393,74.393,0,0,1-13.286-.91v14.56h3.549c2.093.091,2.093.091,4.186.091h5.1c-4.1,12.831-10.374,25.753-16.835,34.4l14.833,8.1a36.778,36.778,0,0,1,1.729-3.549c3.549-7.1,4.368-8.736,6.279-12.922a187.091,187.091,0,0,0,9.919-26.39c2.275-.182,7.28-.637,9.737-.91,4.55-.546,4.55-.546,6.734-.728l-.273-14.742A70.039,70.039,0,0,1,333.606-62.7c.455-2.093.637-2.912,1.092-5.1,1.092-5.642,1.183-5.642,1.729-7.28Zm63.063,22.2c-8.463-4.914-15.925-8.19-27.391-12.285l-7.553,12.558a128.753,128.753,0,0,1,28.3,13.1Zm-.819,41.678c-2.73-2.184-4.186-3.367-4.459-3.549a66.647,66.647,0,0,0-14.014-8.1,81.039,81.039,0,0,1-.728-10.556,42.285,42.285,0,0,1,1-10.283l-15.015-.637c-.364,4.1-.546,7.007-.546,10.738,0,2.093.091,3.822.364,7.28a37.247,37.247,0,0,0-6.37-.546c-12.649,0-21.476,7.371-21.476,17.927A15.894,15.894,0,0,0,325.6.819c3.731,3.822,9.919,6.006,17.2,6.006s13.65-2.093,17.2-5.642c2.457-2.548,3.549-5.187,3.822-9.464a48.734,48.734,0,0,1,11.739,9.919Zm-33.124-1.547a9.262,9.262,0,0,1,.182,2c0,3.822-2.366,5.824-6.916,5.824-3.913,0-6.461-1.729-6.461-4.368,0-2.821,2.73-4.641,7.007-4.641A15.819,15.819,0,0,1,349.167-14.287Zm97.461-50.05A102.813,102.813,0,0,1,431.7-61.971c.819-4.641,1.365-7.28,1.456-7.826a28.768,28.768,0,0,1,1.183-5.278l-17.017-1.274v1.365c0,2.821-.364,6.37-1.547,13.65H414.05a94.707,94.707,0,0,1-13.832-.91l-.273,14.833a18.339,18.339,0,0,1,2.093-.091h.91c3.913.182,5.824.273,8.736.273h1.456c-3.367,16.835-9.282,34.944-15.288,46.592L414.6,5.46c.637-2.184.637-2.184,2.093-6.552,3.913-11.739,4.459-13.741,6.734-21.749,2.548-9.464,4.186-16.2,5.733-24.752,2.821-.182,3.913-.273,8.281-.728l.91,12.922a122.134,122.134,0,0,1,25.571-2.275,82.006,82.006,0,0,1,11.921.637l-.273-15.379c-1.911-.091-3.822-.091-4.459-.091a154.711,154.711,0,0,0-24.115,1.365Zm-9.646,33.852c-5.005,7.28-7.1,12.376-7.1,17.654q0,17.2,26.754,17.2a111.464,111.464,0,0,0,17.745-1.456c2.184-.273,3-.364,4.823-.546l-1.092-15.925c-5.551,2.093-14.378,3.549-21.476,3.549-7.644,0-11.375-2-11.375-6.188,0-2.821,1.456-5.824,4.914-9.919Zm67.8-43.134a74.9,74.9,0,0,1-1.365,9.737,196.833,196.833,0,0,0-3.458,35.035A192.267,192.267,0,0,0,502.32-.091a36.565,36.565,0,0,1,.455,4.823L518.427,4a25.472,25.472,0,0,1-.273-4.459,89.792,89.792,0,0,1,3.549-25.48L514.7-28.3c.637-16.562,3.367-33.579,6.916-43.953Zm23.842,23.66c1.274.091,1.911.091,2.639.182a150.151,150.151,0,0,0,15.652.728c6.279,0,12.922-.364,19.2-1,5.005-.546,5.915-.637,6.734-.637l-.637-15.561c-6.1,1.547-15.015,2.275-27.118,2.275a76.011,76.011,0,0,1-16.2-1.365Zm5.369,12.1c-2.457,3.549-3,4.459-4.277,6.552a28.518,28.518,0,0,0-4.368,14.2,16.857,16.857,0,0,0,8.372,14.469C538.447,0,544.089,1.183,552.552,1.183A111.434,111.434,0,0,0,568.295,0c5.369-.819,5.369-.819,7.735-1.092L575.12-17.2a67.63,67.63,0,0,1-22.659,3.731c-7.735,0-11.83-2.275-11.83-6.461,0-3.276,1.911-7.189,6.1-12.558ZM687.2,3.5c-1.469-3.164-3.277-7.8-5.424-13.786L657.254-78.309a90.181,90.181,0,0,1-3.842-12.2H623.919a68.979,68.979,0,0,1-3.616,12.2L595.9-10.283C593.183-2.6,592.166.113,590.471,3.5h26.442a65.121,65.121,0,0,1,2.825-12.2l3.051-9.6h32.205l3.051,9.6a91.775,91.775,0,0,1,2.712,12.2ZM649.457-37.29H628.213l10.509-33.9Zm54.579-53.223a105.533,105.533,0,0,1,.9,16.724v60.568a108.294,108.294,0,0,1-.9,16.724H728.9a109.229,109.229,0,0,1-.9-16.724V-73.789c0-8.249.226-12.091.9-16.724ZM777.6-53.449v4.859a115.081,115.081,0,0,1,13.56-.678H805.4v10.4H790.933c-4.294,0-6.893-.113-9.605-.339.226,2.712.339,6.1.339,9.492V-2.6c0,3.842-.226,8.475-.452,12.317H798.5V4.972h31.979V9.718h17.854c-.339-3.39-.565-7.458-.565-12.2V-29.154a94.085,94.085,0,0,1,.452-10.057,91.409,91.409,0,0,1-9.266.339H822.912v-10.4h17.4a102.94,102.94,0,0,1,13.447.678v-17.4a112.427,112.427,0,0,1-13.56.678H822.912V-76.5c11.3-1.582,19.21-2.938,25.99-4.746a19.577,19.577,0,0,0,2.26-.452l-11.3-15.594c-4.407,2.034-6.893,2.712-15.933,4.407a279.52,279.52,0,0,1-44.974,4.633,47.625,47.625,0,0,1,5.763,15.142c9.153-.452,13.673-.678,20.679-1.469v9.266H791.046a113.026,113.026,0,0,1-13.447-.678v11.074A129.349,129.349,0,0,0,756.92-67.8l-9.718,13A143.006,143.006,0,0,1,768.672-40ZM798.617-23.5H830.6v12.882H798.617ZM750.14-84.072a137.4,137.4,0,0,1,20.792,15.707l10.4-13.56a157.449,157.449,0,0,0-20.566-14.69Zm13.447,46.556c-5.65,16.724-10.961,28.137-16.159,34.465L762.457,9.492c3.5-6.893,5.311-10.735,5.65-11.413A224.822,224.822,0,0,0,777.6-27.8ZM933.539-23.278h21.018v13.9c0,2.034-.9,2.486-4.972,2.486-3.164,0-7.571-.226-12.543-.678A56.131,56.131,0,0,1,941.562,8.7c4.407.226,8.475.339,12.317.339,13.673,0,17.967-3.277,17.967-13.786V-78.422a116.063,116.063,0,0,1,.565-14.464c-3.729.339-7.119.452-14.125.452H892.407c-6.441,0-9.266-.113-13.447-.452.339,4.294.565,8.814.565,15.481,0,48.251-1.808,61.133-10.4,75.484,6.215,3.729,9.04,6.1,15.368,12.882,6.1-10.4,9.04-20,10.622-34.239H916.7V-7.345a105.674,105.674,0,0,1-.678,14.351H934.1a113.843,113.843,0,0,1-.565-14.464Zm0-42.375V-76.275h21.018v10.622Zm-16.837,0H896.814V-76.275H916.7Zm16.837,15.707h21.018V-39.1H933.539Zm-16.837,0V-39.1H896.249c.226-4.972.226-6.215.339-10.848ZM1097.05-9.605c-17.628-16.837-22.261-20.792-35.934-30.623,6.328-8.475,10.622-16.385,16.611-30.51,1.7-3.842,2.373-4.972,4.068-6.667l-9.944-10.17c-3.051,1.13-3.729,1.13-9.04,1.243l-38.646.565c-3.277.113-5.424.113-6.328.113a83.714,83.714,0,0,1-11.865-.791l.565,20.114c4.633-.678,8.249-.9,17.967-1.13l29.38-.452a90.907,90.907,0,0,1-22.713,33.222,106.564,106.564,0,0,1-36.612,22.826c6.328,6.554,8.7,9.944,12.656,17.854,17.515-8.475,30.962-18.419,41.584-30.962A181.681,181.681,0,0,1,1081.23,7.119Zm54.466-62.828-15.707,2.373a113.543,113.543,0,0,1-16.611,1.808l3.051,19.323c4.633-1.243,7.232-1.695,16.837-3.164l15.594-2.486,2.6,14.238-21.583,3.39a132.3,132.3,0,0,1-16.159,1.808l3.051,19.21a120.78,120.78,0,0,1,15.481-3.164l22.374-3.5,2.938,16.272c1.582,8.588,2.034,11.865,2.034,15.707l21.47-3.5c-1.356-4.294-1.582-5.424-3.39-15.142l-3.164-16.385,21.357-3.277c9.492-1.356,9.492-1.356,15.933-2.034l-3.39-19.1a105.3,105.3,0,0,1-16.272,3.5l-20.905,3.164-2.712-14.238,17.628-2.712c12.2-1.808,12.2-1.808,16.046-2.147l-3.164-18.984c-4.972,1.469-8.136,2.034-16.159,3.277l-17.628,2.712-1.243-6.215a92.1,92.1,0,0,1-1.582-12.543l-20.792,3.164c1.13,3.277,1.7,5.65,2.938,12.769ZM1251.973-90.4a82.82,82.82,0,0,1,.452,10.4c0,29.267-1.808,43.279-7.119,54.353a50.471,50.471,0,0,1-13.447,17.967c7.232,5.085,10.4,8.249,16.159,15.82C1255.7,0,1260-6.1,1263.725-14.464c5.424-12.317,7.684-24.86,8.362-48.477.791-22.374.791-22.374,1.243-26.216Zm32.092-.565a67.156,67.156,0,0,1,.452,8.814v4.068l-.565,66.9c0,4.633-.226,6.554-1.243,9.492l9.718,10.17a25.288,25.288,0,0,1,5.537-2.373c11.413-4.181,16.95-7.119,23.73-12.882,8.588-7.345,14.464-16.046,19.549-28.7-6.441-4.972-9.379-7.91-15.029-14.916a57.223,57.223,0,0,1-8.814,19.323,43.674,43.674,0,0,1-13.56,12.43l.565-59.212a80.859,80.859,0,0,1,.9-13.108Zm130.022,39.55c5.1,7.1,10.465,21.567,12.376,33.124l14.924-7.1c-3-12.467-8.1-24.3-13.923-32.3Zm-57.421,12.1a119.944,119.944,0,0,1,14.2-2.639c-3.731,14.651-11.375,32.669-17.108,40.313l15.015,7.917c.546-1.365.728-1.638,1.456-3.367a215.77,215.77,0,0,0,16.107-46.046,33.041,33.041,0,0,1,3.64-.182c3.185,0,4.459.364,5.46,1.547,1.183,1.274,1.729,3.458,1.729,7.28,0,7.007-1.092,16.2-2.457,20.2-1,2.912-2.184,4.1-4.095,4.1-2.639,0-7.28-1.183-12.467-3.276a43.2,43.2,0,0,1,1.365,10.92,41.322,41.322,0,0,1-.273,5.278c6.188,1.729,10.283,2.366,14.469,2.366a17.379,17.379,0,0,0,7.1-1.274,15.052,15.052,0,0,0,5.824-5.369c3.64-6.37,5.733-18.109,5.733-32.305,0-10.283-1.82-15.834-6.461-19.565-3.094-2.457-7.28-3.64-12.922-3.64a30.188,30.188,0,0,0-3.913.182c.273-1.456.91-5.187,1.729-9.828l.637-3.276c.091-.546.182-1.365.273-1.638a9.418,9.418,0,0,1,.546-2.184l-16.471-1.547V-73.8c0,3.094-.637,8.463-2.093,17.927-6.006.819-14.651,1.547-17.563,1.547a3.135,3.135,0,0,1-.819-.091Zm62.608-35.854a62.1,62.1,0,0,1,8.918,13.013l8.372-4.095a63.978,63.978,0,0,0-9.1-12.649Zm-12.558,5.642a58.584,58.584,0,0,1,9.009,13.286l8.645-4.186a58.3,58.3,0,0,0-9.009-13.013ZM1506-52.962a20.033,20.033,0,0,1-1.183,5.187,34.346,34.346,0,0,0-4.277-.182,48.067,48.067,0,0,0-8.827.819c.091-1.911.091-2.184.091-2.73.091-1.547.091-1.547.182-2.457,9.1-.364,22.932-1.456,31.668-2.73,2.093-.273,2.457-.273,3.913-.364l-.637-14.742c-7.371,2.093-19.383,3.731-34.125,4.55.546-5.369.728-6.825,1.456-9.555l-15.652-.637a23.268,23.268,0,0,1,.182,3.822c0,1,0,2-.091,2.912-.182,2.73-.182,2.73-.273,3.913l-1.274.091h-.546a84.325,84.325,0,0,1-16.926-1.365l.182,14.378c1.274-.091,1.638-.091,2.912-.091,1.638,0,3.094,0,4.459.091,6.734.091,6.734.091,10.647.182-.091,3.913-.091,4.823-.091,7.917a35.559,35.559,0,0,0-12.649,8.281,29.777,29.777,0,0,0-9.1,21.112C1456.038-3.185,1462.863,4,1473.6,4c6.916,0,14.833-3.549,21.112-9.464a49.156,49.156,0,0,1,5.1,12.012c8.463-.819,13.468-2,18.382-4.186C1529.2-2.548,1535.3-11.375,1535.3-22.386a21.89,21.89,0,0,0-7.462-17.108,23.169,23.169,0,0,0-9.191-5.1,45.893,45.893,0,0,1,1.911-4.55Zm-7.917,44.5a71.651,71.651,0,0,0,15.925-23.751c4.095,2.093,5.824,4.641,5.824,8.736,0,5-3.367,9.737-8.645,12.194C1507.726-9.646,1504.086-8.918,1498.08-8.463Zm-20.111-20.293a103.466,103.466,0,0,0,1.365,16.471,8.545,8.545,0,0,1-5.005,1.729c-2.548,0-3.913-1.911-3.913-5.278C1470.416-20.839,1473.055-25.3,1477.969-28.756Zm13.65-6.279a23.674,23.674,0,0,1,7.189-1,13.44,13.44,0,0,1,1.911.091,59.2,59.2,0,0,1-8.554,14.014A111.529,111.529,0,0,1,1491.619-35.035Zm65.52,29.3c1.092-1.82,2.548-3.64,9.009-11.375v9.555a92.6,92.6,0,0,1-.819,13.923l16.471-.091c-.455-3.549-.728-12.831-.728-25.753,0-2.639,0-5.278.091-9.555a86.008,86.008,0,0,1,15.743-14.014c3.276-2.366,6.461-3.731,8.645-3.731a2.371,2.371,0,0,1,2.639,2.548,56.3,56.3,0,0,1-1.638,9.373c-3.094,13.65-4,19.11-4,24.206C1602.548-1.729,1608.1,4,1616.835,4s14.651-4.368,21.658-15.834a56.712,56.712,0,0,1-7.644-14.651,54.188,54.188,0,0,1-5.46,9.737c-1.729,2.548-3.64,4.095-5.005,4.095s-2.184-1-2.184-2.639c0-2.275,1.092-8.008,3.913-19.474,1.82-7.644,2.366-10.647,2.366-13.741,0-8.554-5.824-14.2-14.651-14.2-8.008,0-17.381,5.1-28.756,15.652a13.467,13.467,0,0,0,.091-2l.091-1.274a32.883,32.883,0,0,1,5.733-6.188l-5.005-4.732a129.676,129.676,0,0,1,1.092-13.468l-16.107-.364a39.392,39.392,0,0,1,.364,6.006c0,2.093-.091,4.368-.182,6.279a24.025,24.025,0,0,1-.091,2.912c-3.822.273-7.644.455-9.919.455-1.547,0-2.639-.091-4.732-.273l.728,14.378c3.367-.546,3.367-.546,13.559-1.183-.091,5.915-.182,8.554-.273,10.01-.455.546-3.822,3.822-9.919,10.01a69.372,69.372,0,0,1-6.37,5.551Zm143.6-67.431a20.691,20.691,0,0,1,.455,4.186v12.194c-2.821.182-4.459.182-6.279.182a82.3,82.3,0,0,1-17.29-1.456l-.182,14.651a5.222,5.222,0,0,1,1.092-.091,13.551,13.551,0,0,1,1.547.091c12.012.546,12.012.546,16.107.546,2.093,0,3.276,0,5.278-.091.091,3.276.091,3.822.182,7.553l.182,4.732.091,2.457a26.422,26.422,0,0,0-5.278-.455c-5.733,0-10.556,1.274-14.014,3.731a16.04,16.04,0,0,0-6.916,13.377c0,10.556,7.917,16.926,21.294,16.926,11.648,0,19.565-5.187,19.565-12.922v-.728c4.459,2.73,8.918,6.188,10.829,8.554l5.733-15.379c-.728-.455-1.274-.819-1.729-1.092a75.7,75.7,0,0,0-14.651-8.281c-.546-8.827-.728-13.468-.819-19.383,4.095-.455,8.463-1.092,11.466-1.729a14.778,14.778,0,0,1,3.367-.546l-.546-14.56c-3.094,1.092-7.644,2-14.742,2.912a126.086,126.086,0,0,1,.455-13.923,61.39,61.39,0,0,1,3.731,10.556l7.189-2.548a69.76,69.76,0,0,0-6.188-14.1l-7.007,2a17.572,17.572,0,0,1,1.547,2.639Zm1.547,60.151c0,3.64-2,5.278-6.37,5.278-3.64,0-6.006-1.547-6.006-3.913,0-2.548,2.548-4.186,6.643-4.186a16.439,16.439,0,0,1,5.642,1Zm-44.863-61.061v.455a57,57,0,0,1-1.092,7.917c-2.821,15.925-3.64,23.933-3.64,36.764,0,9.828.364,14.742,2,27.573l.455,3.458c.091.91.182,1.729.182,2,0,.546.091,1,.091,1.729l15.379-.637c-.182-2-.273-3.185-.273-3.731,0-11.557,1-18.837,3.822-27.755l-7.007-2.366c-.091-13.286,3.458-35.672,7.007-44.226Zm80.08,7.826a56.413,56.413,0,0,0-6.188-13.741l-6.734,2.093a79.21,79.21,0,0,1,6.188,14.2Z" transform="translate(91 218)"></path><path id="&#x30D1;&#x30B9;_36613" data-name="&#x30D1;&#x30B9; 36613" d="M67.952,3.844c8.8,0,14.012.248,21.2.868V-18.724a157.034,157.034,0,0,1-19.84.868H40.424c2.852-5.456,7.44-9.8,18.228-17.236C71.3-43.9,72.54-44.764,76.632-48.36,84.32-54.684,88.04-62.372,88.04-71.424a26.7,26.7,0,0,0-4.092-14.508c-6.2-10.044-18.972-15.624-35.712-15.624-14.508,0-25.792,4.464-32.86,12.772C10.416-82.956,8.184-77.5,6.324-66.712l26.04,2.728c.62-5.208,1.364-7.688,3.1-10.416,2.728-4.216,6.944-6.2,12.9-6.2,7.936,0,13.268,3.968,13.268,9.92,0,5.7-2.6,8.928-13.268,16.12C35.712-46,31-42.408,26.288-38.068A63.753,63.753,0,0,0,8.432-10.292,61.72,61.72,0,0,0,5.828,4.34c4.588-.372,7.44-.5,18.6-.5Zm104.523-39.88c5.551,0,8.008.091,11.284.364V-49.231a77.121,77.121,0,0,1-11.557.637H144.356a69.658,69.658,0,0,0,2.821-6.825c.546-1.456.728-1.82,1.365-3.276l-14.469-2.912c-2,11.284-8.827,22.568-19.11,31.577a42.057,42.057,0,0,1,11.375,8.645,61.142,61.142,0,0,0,11.921-14.651H152.91c-.637,8.372-2.184,13.1-5.915,18.018-4.368,5.733-9.828,9.373-19.565,12.74a38.116,38.116,0,0,1,9.282,12.194C142.9,4.1,146.267,2.275,149.725-.273a40.127,40.127,0,0,0,14.833-21.294c1.365-4.186,1.911-7.826,2.366-14.469Zm96.1,16.38V-7.644c0,1.638-.546,2-3.094,2a108.737,108.737,0,0,1-14.2-1.183,53.383,53.383,0,0,1,3.822,14.2c4.368.182,7.644.273,10.374.273,7.371,0,10.829-.637,13.377-2.366,2.821-1.911,4-5.1,4-11.011V-63.791a77.873,77.873,0,0,1,.455-11.193,88.415,88.415,0,0,1-11.466.455H230.806a110.228,110.228,0,0,1-11.921-.455,126.866,126.866,0,0,1,.546,14.1c0,24.843-.91,35.49-3.64,43.589a34.061,34.061,0,0,1-8.645,14.2A46.222,46.222,0,0,1,218.7,8.736c7.553-9.009,11.466-17.29,13.286-28.392ZM233.263-32.123c.273-3.458.364-5.1.546-8.827h34.762v8.827Zm.637-21.294v-7.917h34.671v7.917Zm74.62,3.549c3.913-.819,4.368-.819,12.831-1.729,17.017-1.365,20.2-1.638,22.2-1.82l4.277-.455c-4.368,3-6.552,4.823-8.918,7.735a31.153,31.153,0,0,0-7.735,20.566c0,11.557,5.551,19.929,16.289,24.934,5.824,2.639,12.649,4.186,23.023,5.1a23.274,23.274,0,0,1,3.367.455l2.093-17.29c-1.365.091-2,.091-2.73.091-5.733,0-13.741-1.456-17.381-3.276-5.187-2.457-7.644-6.006-7.644-11.284,0-7.462,5.369-15.106,14.469-20.657,6.279-3.913,14.469-6.37,20.839-6.37a13.838,13.838,0,0,1,2.548.182l-.819-16.471a7.674,7.674,0,0,1-2.093.364c-.455,0-1,.091-4.1.182l-3.822.182-9.373.364c-17.29.637-26.117,1.092-39.221,1.911-9.919.637-13.2.819-15.561.819-.728,0-1.911,0-3.458-.091Zm54.873,7.917a56.584,56.584,0,0,1,8.827,13.468l8.736-4a58.664,58.664,0,0,0-8.827-13.195Zm12.74-5.369c3.094,3.549,5.369,7.007,8.645,13.1l8.463-3.913a62.893,62.893,0,0,0-8.918-12.831ZM417.9-56.056c1.274.091,1.547.091,3.185.273a197.319,197.319,0,0,0,20.475,1.092,67.186,67.186,0,0,0,7.462-.364c-.728.455-.819.455-1.456.819a21.439,21.439,0,0,0-2.184,1.274c-4.368,2.639-4.55,2.73-7.189,4.55l11.193,7.735c8.19-6.1,19.656-13.377,25.3-16.107l-.364-13.923c-4.732,1.092-13.468,1.638-25.3,1.638-13.1,0-24.206-.91-30.121-2.457ZM425.91-38.22C416.9-31.031,412.9-24.388,412.9-16.289c0,7.644,4.1,13.195,12.194,16.471,5.551,2.275,12.831,3.276,23.114,3.276A174.24,174.24,0,0,0,470.864,2a77.143,77.143,0,0,1,9.009-.91L478.781-16.38c-6.006,2.366-19.019,4.186-29.757,4.186-13.832,0-19.747-2.093-19.747-6.825,0-3.276,2.821-7.1,8.19-11.193ZM519.094-61.7c14.469,3.367,28.21,5,46.683,5.551l2-15.47c-3.094.091-4.641.091-6.279.091-14.2,0-26.663-1.638-37.674-5Zm-6.643,31.759c9.282-3.458,27.209-6.552,37.856-6.552,7.553,0,11.557,2.821,11.557,8.281a13.563,13.563,0,0,1-1.729,6.188c-2.093,3.822-6.188,6.916-12.285,9.191-6.643,2.639-14.742,4-25.3,4.459A50.428,50.428,0,0,1,528.831,7.28c14.924-1.82,23.114-4,31.031-8.19,11.83-6.188,19.019-16.744,19.019-27.937a22.735,22.735,0,0,0-3.458-12.285c-4.277-6.825-12.012-10.01-23.933-10.01-9.464,0-17.745.728-30.576,2.821-9.191,1.547-9.191,1.547-12.012,1.547ZM628.476-58.695a28.52,28.52,0,0,1-1.456,9.555c-1.638,5.278-4.459,8.281-11.011,11.83a52.663,52.663,0,0,1,9.373,7.462,53.592,53.592,0,0,1-8.19,5.1,56.108,56.108,0,0,1-14.469,4.914,37.83,37.83,0,0,1,8.008,11.557,63.57,63.57,0,0,0,12.649-5.278,53.01,53.01,0,0,0,6.279,5.46A102.345,102.345,0,0,1,602.541-4.55H598.9a40.769,40.769,0,0,1,6.552,13.013C621.469,7.1,630.66,5.005,643.218-.182,653.41,4.277,663.6,6.734,679.527,8.827a62.16,62.16,0,0,1,6.552-14.2c-12.831-.182-19.656-.91-28.483-3.094a93.739,93.739,0,0,0,12.649-10.556c2.093-2,2.093-2,3.64-3.549l-7.644-8.19a48.452,48.452,0,0,1-7.553.455h-15.47c1.183-1.456,1.456-1.82,2.821-3.731h.455c5.551,0,7.644-.182,9.464-.728,3.094-1.092,4.368-3.094,4.368-7.189v-8.1c5.46,5.46,8.1,8.918,13.286,17.381l11.466-8.372A162.836,162.836,0,0,0,669.335-57.6l-9.009,5.46v-6.552H672.7a98.331,98.331,0,0,1,11.284.546V-71.526a104.786,104.786,0,0,1-11.739.546H649.952v-1.183a28.94,28.94,0,0,1,.455-5.187H634.573a28.7,28.7,0,0,1,.364,5.278v1.092H612.915a91.812,91.812,0,0,1-11.557-.546v13.377a80.96,80.96,0,0,1,10.374-.546Zm19.019,0v11.921c0,1-.364,1.274-1.638,1.274a32.32,32.32,0,0,1-5.733-.455,46.144,46.144,0,0,1,2.912,10.92l-7.371-2c3.913-5.46,5.551-11.375,6.006-21.658Zm4.914,38.584a41.48,41.48,0,0,1-9.1,6.461,45.274,45.274,0,0,1-9.737-6.461ZM613.552-58.6c-2.912,7.28-6.279,11.466-14.014,17.745,4.459,2.548,6.006,3.822,10.374,8.1,7.462-6.916,10.374-10.829,15.2-20.566Zm91.182,50.6a77.774,77.774,0,0,1,5.915-7.007c2.366-2.457,2.366-2.457,3.367-3.64-.182,3.64-.182,3.64-.182,4.823,0,15.743,0,16.289-.546,20.111h16.471c-.455-4.55-.819-18.382-.819-29.848,0-1.82,0-3.64.091-7.826a44.1,44.1,0,0,1,10.556-7.644c5.46-3.094,9.646-4.459,13.65-4.459,8.372,0,13.468,5.1,13.468,13.559,0,10.374-6.825,16.926-17.654,16.926-4.641,0-8.281-.728-14.924-2.821,2,6.188,2.457,8.918,2.639,16.016a48.015,48.015,0,0,0,12.74,1.638c19.929,0,32.942-12.376,32.942-31.486,0-16.835-11.193-28.483-27.482-28.483a38.761,38.761,0,0,0-16.2,3.913,59.48,59.48,0,0,0-9.828,6.006,6.905,6.905,0,0,0,.091-1.456,7.434,7.434,0,0,1,.091-1.274,44.965,44.965,0,0,1,5.733-5.915l-5.187-4.641a84.665,84.665,0,0,1,1.365-13.559l-16.2-.091c.182,2.184.273,3,.273,4.277v.637c0,1,0,2-.091,2.912a65.974,65.974,0,0,1-.182,7.1c-2.275.182-9.828.455-10.829.455-.637,0-.637,0-3.458-.182l.728,14.2c2.548-.455,2.548-.455,13.1-1.274,0,2,0,2-.091,5.005-.091,1.82-.091,2.821-.182,5.1-9.1,8.372-14.2,12.831-16.38,14.287ZM810.749-57.33c1.82-.182,3.549-.364,6.006-.455,12.831-.637,16.471-.819,21.294-1.365-11.284,11.193-30.485,26.117-38.857,30.03l8.463,13.832a67.672,67.672,0,0,1,8.736-6.825,52.33,52.33,0,0,1,28.028-8.372c10.1,0,16.289,3.913,16.289,10.283,0,4.641-2.275,7.735-7.189,9.919a21.407,21.407,0,0,0-4.186-7.189,21.344,21.344,0,0,0-16.289-7.007c-10.556,0-18.109,6.1-18.109,14.56,0,10.1,9.373,16.2,24.752,16.2,9.1,0,17.836-2.093,24.115-5.733,8.281-4.914,12.558-12.194,12.558-21.385,0-6.552-2.275-11.83-6.643-15.743-4.823-4.186-10.92-6.188-19.474-6.188a43.537,43.537,0,0,0-12.467,1.638c6.1-4.459,7.735-5.824,12.558-9.919,12.285-10.556,12.285-10.556,14.651-11.921l-7.462-11.011c-1.729.728-2.912,1-6.916,1.274-9.191.728-19.292,1.092-27.391,1.092a101.837,101.837,0,0,1-13.1-.637ZM839.96-6.188a13.811,13.811,0,0,1-3,.273c-4.914,0-7.826-1.547-7.826-4,0-1.82,1.456-3,3.549-3C836.229-12.922,838.777-10.556,839.96-6.188Z" transform="translate(517 383)"></path><path id="&#x7DDA;_31" data-name="&#x7DDA; 31" d="M755.212,3.5H0v-7H755.212Z" transform="translate(678.747 247.75)"></path></g></svg>