<svg xmlns="http://www.w3.org/2000/svg" width="1656" height="403" viewBox="0 0 1656 403"><g id="&#x30B0;&#x30EB;&#x30FC;&#x30D7;_19582" data-name="&#x30B0;&#x30EB;&#x30FC;&#x30D7; 19582" transform="translate(-132 -1145)"><rect id="&#x9577;&#x65B9;&#x5F62;_5019" data-name="&#x9577;&#x65B9;&#x5F62; 5019" width="775" height="403" transform="translate(132 1145)" fill="#4231a4"></rect><rect id="&#x9577;&#x65B9;&#x5F62;_5020" data-name="&#x9577;&#x65B9;&#x5F62; 5020" width="776" height="403" transform="translate(1012 1145)" fill="#4231a4"></rect><path id="&#x30D1;&#x30B9;_33830" data-name="&#x30D1;&#x30B9; 33830" d="M43.56-27.36,58.536-42.408l-7.344-7.344L36.144-34.632,20.88-49.9l-7.344,7.344L28.8-27.36,13.464-11.88l7.344,7.272L36.216-20.016,51.408-4.824l7.344-7.344Z" transform="translate(915.235 1338.938) rotate(45)" fill="#fff"></path><path id="&#x30D1;&#x30B9;_33828" data-name="&#x30D1;&#x30B9; 33828" d="M-116.014,1.806c-1.032-2.15-2.58-5.934-4.214-10.32l-18.92-50.654a58.23,58.23,0,0,1-2.924-8.944h-18.49a66.031,66.031,0,0,1-2.752,8.944L-182.062-8.514a79.942,79.942,0,0,1-4.386,10.32h17.028A42.941,42.941,0,0,1-167.1-7.31l2.924-8.342H-138.2l2.924,8.342a61.506,61.506,0,0,1,2.236,9.116Zm-25.8-29.584h-18.748l8.084-24.338c.6-1.72.688-2.15,1.2-3.956.688,2.322,1.032,3.182,1.29,3.956Zm36.636-40.334a71.8,71.8,0,0,1,.688,11.868v46.182a73.816,73.816,0,0,1-.688,11.868h15.824a72.467,72.467,0,0,1-.688-11.868V-56.244a71.143,71.143,0,0,1,.688-11.868ZM-32.422-38.1v9.546H-43.86c-3.182,0-4.988-.086-7.052-.258.172,2.15.258,4.644.258,7.31V-1.806c0,3.01-.172,6.794-.344,9.116h11.18V3.354h26.66V7.31h11.61a86.952,86.952,0,0,1-.43-9.03V-21.156a66.584,66.584,0,0,1,.344-7.654,67.619,67.619,0,0,1-6.966.258H-21.07V-38.1H-7.052a74.31,74.31,0,0,1,9.89.516V-49.02a75.209,75.209,0,0,1-9.89.516H-21.07V-58.566c4.9-.774,14.19-2.408,17.114-3.182,3.01-.688,3.01-.688,4.644-1.118l-7.4-10.148C-14.62-69.23-33.97-66.22-53.062-65.79a30.171,30.171,0,0,1,3.784,9.976c7.224-.344,9.976-.6,16.856-1.376V-48.5H-44.634a76.51,76.51,0,0,1-9.8-.516v11.438a83.917,83.917,0,0,1,9.89-.516Zm-7.31,19.522h26.66v11.7h-26.66ZM-74.82-64.414A101.4,101.4,0,0,1-59.168-52.46l6.708-8.858A108.962,108.962,0,0,0-67.94-72.5Zm-2.494,22.188A96.633,96.633,0,0,1-61.146-31.132l6.192-9.46A100.677,100.677,0,0,0-71.036-50.654ZM-64.07-27.262c-4.386,12.3-8.342,20.124-12.986,25.8l9.89,8C-62.78-.946-59.254-8.858-55.04-20.984ZM60.458-18.92h18.4v12.9c0,1.72-.688,2.064-4.042,2.064-2.58,0-6.278-.258-10.234-.6A37.689,37.689,0,0,1,67.51,6.02c2.666.172,6.966.344,9.374.344,10.234,0,13.158-2.15,13.158-9.718v-56.33A103.1,103.1,0,0,1,90.386-70a102,102,0,0,1-10.32.344H30.96c-4.644,0-6.88-.086-10.062-.344a103,103,0,0,1,.43,11.352c0,38.184-1.29,47.214-8.342,58.136A69.837,69.837,0,0,1,22.962,7.74C27.778-.172,30.014-7.31,31.39-18.92H49.536V-5.676A74.841,74.841,0,0,1,49.02,4.816H60.888a81.454,81.454,0,0,1-.43-10.578Zm0-30.358v-9.8h18.4v9.8Zm-10.922,0H32.508v-9.8H49.536ZM60.458-39.216h18.4v10.148h-18.4Zm-10.922,0v10.148H32.078c.172-4.558.258-6.45.258-10.148Zm102.426-15.05a16.728,16.728,0,0,1,8,2.752c5.848,3.87,9.2,10.32,9.2,17.974,0,9.116-4.472,17.114-11.868,21.156-4.042,2.15-9.374,3.526-17.028,4.128A35.262,35.262,0,0,1,146.63,3.956,61.391,61.391,0,0,0,160.3.43c13.76-5.418,21.586-17.544,21.586-33.2,0-20.124-13.76-33.024-35.346-33.024-12.3,0-22.876,4.3-30.272,12.384a37.1,37.1,0,0,0-9.632,25.542c0,14.792,7.568,25.2,18.232,25.2,7.4,0,13.072-5.074,17.888-16C147.232-28.638,150.242-40.076,151.962-54.266Zm-12.556.172a110.719,110.719,0,0,1-6.88,27.692c-2.752,6.966-5.418,10.32-7.912,10.32-3.354,0-6.106-5.246-6.106-11.7a28.2,28.2,0,0,1,10.578-22.016A19.326,19.326,0,0,1,139.406-54.094ZM-170.624,78.23a91.34,91.34,0,0,1-16.168,3.1V77.112a60.081,60.081,0,0,1,.516-9.976H-199a65.819,65.819,0,0,1,.516,10.664v4.3a8.438,8.438,0,0,1-1.72.086c-3.182.086-3.44.086-4.214.086a57.161,57.161,0,0,1-10.836-.774l.086,11.438c.946-.086,1.72-.086,2.15-.086h1.462c4.472.172,4.644.172,5.418.172,1.118,0,3.44-.086,7.74-.172v11.782c-5.676,2.494-9.546,4.73-12.642,7.4-4.9,4.3-7.654,9.2-7.654,13.588,0,4.558,2.494,8.686,7.224,11.868a28.567,28.567,0,0,0,15.308,4.9c3.44,0,6.45-1.29,7.912-3.526,1.2-1.72,1.462-3.526,1.462-9.976V112.716a48.658,48.658,0,0,1,14.878-2.322c9.03,0,14.62,4.3,14.62,11.094,0,4.9-3.182,8.428-7.482,8.428-3.956,0-5.676-2.666-5.676-8.858a25.9,25.9,0,0,1,.43-4.73,42.416,42.416,0,0,1-11.352,4.644,16.124,16.124,0,0,0-.086,1.806c0,12.384,5.762,19.264,16.168,19.264,11.782,0,20.468-8.686,20.468-20.554a20.591,20.591,0,0,0-8.686-17.028c-4.644-3.1-10.664-4.644-18.232-4.644a57.784,57.784,0,0,0-15.136,1.806V92.248c3.956-.43,6.278-.774,10.578-1.462a54.6,54.6,0,0,1,6.106-.946ZM-198.4,126.992c0,2.838-.344,3.526-1.634,3.526a9.769,9.769,0,0,1-4.73-1.634c-1.634-1.032-2.408-2.15-2.408-3.354,0-2.838,3.526-6.45,8.772-9.03Zm57.448-36.206c-4.644-7.138-9.546-12.384-17.2-18.49L-167.614,79A75.535,75.535,0,0,1-150.5,98.354Zm65.1,2.494a57.33,57.33,0,0,1-3.87,11.954c-2.494-2.322-4.042-3.7-8.17-7.138l-6.364,6.192A58.213,58.213,0,0,1-94,97.408h-11.266a57.326,57.326,0,0,1,.344,7.826v30.1c0,4.214-.172,7.654-.43,10.148h11.094v-3.44h30.1v3.44h11.18a91.167,91.167,0,0,1-.43-9.8v-30.53a48.782,48.782,0,0,1,.43-7.826H-64.414a75.684,75.684,0,0,1,.258,7.568v16.856c-4.042-4.816-5.246-6.192-8.428-9.46a100.162,100.162,0,0,0,4.9-11.782c.774-2.236.946-2.494,1.376-3.7Zm11.7,29.584v9.288h-30.1V124.5a38.113,38.113,0,0,1,7.568,6.966,69.2,69.2,0,0,0,8.944-10.492,101.706,101.706,0,0,1,7.138,9.46Zm-30.1-17.974a77.812,77.812,0,0,1,9.8,8.686,47.2,47.2,0,0,1-9.8,10.578Zm-15.91-21.414a74.681,74.681,0,0,1,4.3,13.244l6.278-2.924a90.049,90.049,0,0,0-5.246-13.072l-5.332,2.408V74.618a57.71,57.71,0,0,1,.516-9.288h-11.782a70.656,70.656,0,0,1,.516,9.288v59.6a106.338,106.338,0,0,1-.516,11.352h11.7a92.3,92.3,0,0,1-.43-10.75Zm-14.792,24.252c1.806-7.052,2.494-13.5,2.58-23.908l-7.052-1.462v2.064a72.205,72.205,0,0,1-2.58,20.3ZM-86.43,89.152A168.36,168.36,0,0,0-95.288,67.91l-9.546,3.87a139.849,139.849,0,0,1,8.858,21.586Zm23.736,6.966c3.956-6.45,6.622-12.384,11.868-25.886L-61.662,66.62c-3.7,12.126-5.5,16.34-10.922,25.112Zm-7.568-9.976c-3.7-11.782-4.9-15.05-7.654-20.984l-9.8,3.182A128.689,128.689,0,0,1-80.41,89.5Zm42.4-3.87c2.494-.258,4.472-.344,5.848-.43,8-.43,13.244-.688,15.48-.946-1.376,5.418-3.01,11.094-4.73,16.34-7.31.344-12.126,1.634-16.6,4.386a22.632,22.632,0,0,0-10.922,19.522c0,5.332,1.634,9.89,4.73,13.072a14.8,14.8,0,0,0,10.32,4.558c4.9,0,9.116-2.752,12.47-8.256,2.494-4.128,4.9-10.148,8.6-21.242a67.673,67.673,0,0,1,17.372,5.5,31.205,31.205,0,0,1-7.568,11.868c-3.44,3.44-6.536,5.5-12.9,8.6,3.87,3.1,5.074,4.3,9.116,9.374A53.079,53.079,0,0,0,16,135.248a40.825,40.825,0,0,0,9.632-14.878,72.174,72.174,0,0,1,11.266,7.568l4.472-13.588a24.618,24.618,0,0,1-3.526-1.72c-2.494-1.462-7.052-3.784-9.03-4.816A137.433,137.433,0,0,0,30.358,89.84a30.226,30.226,0,0,1,.516-6.02L18.06,83.3a26.543,26.543,0,0,1,.344,4.73,104.724,104.724,0,0,1-.774,15.05A73.521,73.521,0,0,0,.774,98.354c1.462-4.988,5.332-16.77,6.02-18.748a15.529,15.529,0,0,1,1.978-3.784l-8-6.794a7.736,7.736,0,0,1-3.44,1.032c-3.612.43-11.438.774-16.856.774a49.677,49.677,0,0,1-8.772-.43Zm13.416,26.058a114.141,114.141,0,0,1-4.988,12.642c-1.72,3.7-3.01,5.16-4.386,5.16-2.064,0-3.612-2.408-3.612-5.59a11.083,11.083,0,0,1,2.838-7.4C-22.1,110.222-19.006,108.76-14.448,108.33Zm97.18-38.614a18.138,18.138,0,0,1-4.386.344H70.52a29.6,29.6,0,0,1,1.72-3.87L61.318,64.3A41.244,41.244,0,0,1,49.106,86.916a26.316,26.316,0,0,1,5.16,4.644c.086,2.15.086,2.322.086,5.848,0,24.51-.946,32.078-4.9,39.388,3.44,2.494,4.9,4.042,8.084,8.17,3.1-6.536,4.3-11.008,5.16-20.468h16.6v8.514c0,1.548-.6,1.806-3.87,1.806a52.983,52.983,0,0,1-6.966-.516,28.756,28.756,0,0,1,2.408,10.062c3.784.172,3.784.172,4.988.172,4.73,0,7.224-.344,8.858-1.2,2.494-1.376,3.44-3.44,3.44-7.482V90.786a34.7,34.7,0,0,1,4.988,6.536,44.258,44.258,0,0,1-.6,5.418,40.84,40.84,0,0,1-4.128,11.868,39.332,39.332,0,0,1,8.944,4.472c1.032-2.924,1.376-3.7,2.15-6.02h6.02V119.6H97.868a52.511,52.511,0,0,1-8-.43V130a50.491,50.491,0,0,1,8-.43h7.654v6.966a62.078,62.078,0,0,1-.516,8.858h11.61a50.958,50.958,0,0,1-.516-8.858v-6.966h5.848a49.611,49.611,0,0,1,8.17.43V119.166a56.074,56.074,0,0,1-8.342.43H116.1V113.06H121a58.948,58.948,0,0,1,7.482.344V102.826a39.5,39.5,0,0,1-7.482.43h-4.9c0-3.01,0-3.784.172-6.278H105.178a31.525,31.525,0,0,1,.43,6.278h-3.784c.344-1.806.43-2.15.774-4.386L96.32,97.494A28.214,28.214,0,0,0,106.9,85.8a35.458,35.458,0,0,1,1.892,9.288c2.752.086,4.558.172,5.762.172a28.137,28.137,0,0,0,5.418-.344,8.165,8.165,0,0,0,4.472-2.494c1.634-2.064,2.408-6.536,3.182-16.942.344-4.214.516-6.192.688-7.912a59.576,59.576,0,0,1-7.568.344H98.814a69.371,69.371,0,0,1-9.2-.43V78.058a41.3,41.3,0,0,1,7.4-.43h1.548A14.434,14.434,0,0,1,93.31,86.4a22.46,22.46,0,0,1-5.16,3.268c0-2.236.086-3.01.172-4.472a43.955,43.955,0,0,1-6.794.344c.86-1.548,2.408-4.558,3.7-7.4a19.549,19.549,0,0,1,1.892-3.526ZM63.3,85.54a65.318,65.318,0,0,0,3.354-6.192h7.31a40.189,40.189,0,0,1-2.666,6.192Zm0,30.1.086-6.364h4.3v6.364Zm16,0H75.078v-6.364h4.214Zm0-14.878H75.078v-6.02h4.214Zm-11.61-6.02v6.02H63.554v-6.02ZM116.7,77.628a13.558,13.558,0,0,0-.086,1.634c-.172,1.29-.258,2.15-.258,2.322a16.752,16.752,0,0,1-.516,3.01c-.344.86-1.29,1.29-3.182,1.29a34.592,34.592,0,0,1-5.59-.516,34.651,34.651,0,0,0,2.408-7.74Zm94,34.314a81.877,81.877,0,0,1,9.89.516v-11.7a50.546,50.546,0,0,1-6.622.516V83.906a44.837,44.837,0,0,1,.344-6.708,60.788,60.788,0,0,1-8.17.344H193.07V73.414a38.988,38.988,0,0,1,.516-7.74H181.374a50.344,50.344,0,0,1,.516,8v3.87h-5.762c-3.784,0-6.708-.172-9.46-.43V88.378a92.326,92.326,0,0,1,9.46-.43h5.762c0,5.762-.172,9.46-.43,13.33h-8.428c-3.956,0-7.138-.172-9.89-.43v11.61a78.523,78.523,0,0,1,9.976-.516h6.966a31.34,31.34,0,0,1-5.246,11.524c-3.956,5.332-8.6,8.772-17.286,12.47a38.985,38.985,0,0,1,6.966,10.32c12.986-6.966,20.124-14.534,24.424-25.972,4.558,10.062,14.1,19.264,26.4,25.284a49.377,49.377,0,0,1,5.676-11.7,45.609,45.609,0,0,1-16.512-9.976,39.5,39.5,0,0,1-9.03-11.954Zm-18.232-10.664c.344-4.472.43-7.654.516-13.33h10.148v13.33ZM142.76,74.1a77.263,77.263,0,0,1,15.308,12.126l7.138-9.03a79.423,79.423,0,0,0-15.48-11.266Zm-2.838,21.672a95.449,95.449,0,0,1,15.738,11.7l6.45-9.374a89.2,89.2,0,0,0-15.738-10.664Zm12.556,15.136c-3.268,9.89-5.418,15.05-8.944,21.156a35.444,35.444,0,0,1-3.44,4.816l9.632,8.514a135.6,135.6,0,0,0,11.782-28.122Z" transform="translate(520 1309)" fill="#fff"></path><path id="&#x30D1;&#x30B9;_33829" data-name="&#x30D1;&#x30B9; 33829" d="M-258.86-50.4a13.694,13.694,0,0,1,2.322-.172h1.548c1.634.086,3.01.086,4.128.172,4.644.172,5.246.172,6.88.172h2.408q-.258,5.418-.258,9.03c-5.16,2.236-8.428,4.3-11.782,7.74a27.377,27.377,0,0,0-8.6,19.608c0,9.632,5.934,16.168,14.706,16.168,7.31,0,14.62-3.87,22.7-12.04,6.622-6.622,10.836-12.9,15.394-22.79,5.246,2.408,7.568,5.5,7.568,10.234,0,5.676-3.7,10.32-10.32,12.986-4.386,1.72-8.772,2.494-15.308,2.494a43.438,43.438,0,0,1,5.16,12.04c8.342-1.118,13.158-2.236,17.458-4.214,9.976-4.644,15.48-12.642,15.48-22.532a19.686,19.686,0,0,0-7.654-16.168,22.9,22.9,0,0,0-8.858-4.558,14.768,14.768,0,0,0,.946-2.408c.86-2.15.86-2.15,1.118-2.752l-11.61-3.268a33.091,33.091,0,0,1-1.462,6.02,23.509,23.509,0,0,0-3.01-.258,43.886,43.886,0,0,0-10.75,1.032c0-1.634,0-2.494.086-3.526a26.658,26.658,0,0,0,.172-3.182c7.4-.172,21.156-1.462,30.1-2.752,1.892-.258,2.322-.344,3.612-.43l-.6-11.782c-7.138,2.15-17.974,3.612-32.336,4.472.43-5.762.688-7.568,1.376-9.8l-12.556-.6a15.977,15.977,0,0,1,.086,2.236c0,2.408,0,2.58-.086,4.042-.258,3.182-.258,3.182-.344,4.472h-1.892a85.618,85.618,0,0,1-15.91-1.2Zm17.2,20.9A111.317,111.317,0,0,0-240.2-11.7c-2.236,1.72-4.128,2.494-6.192,2.494-2.752,0-4.3-2.15-4.3-5.762C-250.69-20.468-247.422-25.628-241.66-29.5Zm10.836-4.3a23.292,23.292,0,0,1,8.17-1.376,8.466,8.466,0,0,1,2.408.172c-2.58,5.848-4.644,9.116-9.89,15.566C-230.566-23.908-230.738-27.262-230.824-33.8Zm77.4-37.754c-.086,3.7-.774,7.912-2.322,14.362-1.634.086-3.268.172-3.784.172a64.1,64.1,0,0,1-12.04-.86v11.7h3.268c2.924.172,2.924.172,3.87.172h1.032c2.064-.086,2.064-.086,4.644-.086-4.128,13.072-9.976,25.112-16.168,33.282l11.782,6.536c.516-1.118.516-1.118,1.634-3.268,3.268-6.192,4.042-7.74,6.02-11.954a171.149,171.149,0,0,0,9.374-24.94c6.88-.6,10.406-.946,13.416-1.376a20.539,20.539,0,0,1,2.666-.344l-.258-11.868a61.171,61.171,0,0,1-12.986,2.236c.172-.86.172-.86.516-2.15.6-3.01,1.032-4.9,1.2-5.676.86-3.784.86-3.784,1.2-4.644ZM-96.148-49.88A133.02,133.02,0,0,0-121.174-61.4l-6.106,9.976a112.268,112.268,0,0,1,25.628,12.212Zm-.516,39.044c-.688-.516-.688-.516-1.462-1.118-1.462-1.2-2.236-1.806-3.354-2.58a59.05,59.05,0,0,0-12.986-7.482,82.867,82.867,0,0,1-.774-11.61,26.074,26.074,0,0,1,1.118-8.514l-11.954-.6a54.091,54.091,0,0,0-.688,9.546,78.35,78.35,0,0,0,.43,8.342,37.112,37.112,0,0,0-6.278-.516,25.481,25.481,0,0,0-9.2,1.29c-6.794,2.408-10.922,7.912-10.922,14.448,0,9.2,7.74,15.308,19.522,15.308,7.052,0,12.9-2.15,15.91-5.848,2.064-2.58,2.838-5.16,2.924-9.2A50.867,50.867,0,0,1-102.168.688Zm-29.412-3.1a13.033,13.033,0,0,1,.172,2.408c0,4.214-2.494,6.364-7.654,6.364-4.558,0-7.224-1.892-7.224-4.988,0-3.01,3.182-5.074,7.912-5.074A18.215,18.215,0,0,1-126.076-13.932ZM-80.84-46.01c.774,0,1.032-.086,1.634-.086l9.2.258H-67.6c-3.01,15.652-9.288,34.4-15.05,45.494l13.244,4.9c.43-1.548,1.118-3.526,1.978-5.934,3.956-11.352,4.9-14.19,7.482-23.564a207.5,207.5,0,0,0,4.988-21.328,97.2,97.2,0,0,0,12.126-1.29c3.1-.516,3.1-.516,4.73-.688l-.43-11.782A90.319,90.319,0,0,1-52.89-57.62c.258-1.72.344-1.892.688-4.214,1.118-6.278,1.118-6.278,1.72-8.342L-64.07-71.294v1.462A97.725,97.725,0,0,1-65.532-57.1c-2.15.086-2.236.086-2.838.086a67.793,67.793,0,0,1-12.3-.86Zm69.66.172c-5.418-.086-5.762-.086-7.912-.086-9.976,0-14.276.43-27.09,2.752l.86,11.266a104.562,104.562,0,0,1,23.306-2.322,91.884,91.884,0,0,1,11.094.6Zm-35,18.576C-51-20.64-52.8-16.254-52.8-11.61A12.784,12.784,0,0,0-46.44-.43c4.3,2.58,9.89,3.7,17.8,3.7A97.371,97.371,0,0,0-12.212,1.806c2.15-.258,2.838-.344,4.386-.516l-.86-12.728A62.785,62.785,0,0,1-27.95-8.084c-8.342,0-12.3-1.978-12.3-6.02,0-2.838.946-4.9,4.386-9.46Zm86-30.444v3.268h-17.2c-4.472,0-6.278-.086-8.6-.258a65.6,65.6,0,0,1,.344,7.224v16.34a64.587,64.587,0,0,1-.344,7.224c2.408-.172,4.3-.258,8.6-.258H58.91v3.44H16.77a56.194,56.194,0,0,1-9.546-.516v10.32c2.838-.258,6.278-.43,9.288-.43H29.24L21.672-5.676C26.746-1.892,29.154.43,34.056,6.192L42.828-.86a57.241,57.241,0,0,0-11.7-10.492H58.91v6.794c0,1.634-.516,1.892-3.7,1.892a82.355,82.355,0,0,1-9.632-.6,32.883,32.883,0,0,1,3.1,10.148c3.354.172,5.762.258,6.708.258,10.922,0,14.276-1.978,14.276-8.514v-9.976h5.676c3.182,0,6.364.172,9.288.43v-10.32a55.6,55.6,0,0,1-9.546.516H69.66v-3.44c4.558,0,5.676.086,8.084.258a61.655,61.655,0,0,1-.344-7.224v-16.34a61.655,61.655,0,0,1,.344-7.224c-2.322.172-4.128.258-8.6.258H50.568v-3.268H75.25a89.894,89.894,0,0,1,9.288.43V-67.51a55.594,55.594,0,0,1-9.546.516H50.568a33.838,33.838,0,0,1,.516-5.934H39.3a40.137,40.137,0,0,1,.516,5.934H16.77a56.193,56.193,0,0,1-9.546-.516v10.234a70.779,70.779,0,0,1,9.288-.43Zm0,11.008V-43H25.112v-3.7Zm10.75,0h16V-43h-16ZM39.818-35.776v3.87H25.112v-3.87Zm10.75,0h16v3.87h-16ZM141.986-18.92h18.4v12.9c0,1.72-.688,2.064-4.042,2.064-2.58,0-6.278-.258-10.234-.6A37.689,37.689,0,0,1,149.038,6.02c2.666.172,6.966.344,9.374.344,10.234,0,13.158-2.15,13.158-9.718v-56.33A103.1,103.1,0,0,1,171.914-70a102,102,0,0,1-10.32.344H112.488c-4.644,0-6.88-.086-10.062-.344a103,103,0,0,1,.43,11.352c0,38.184-1.29,47.214-8.342,58.136A69.837,69.837,0,0,1,104.49,7.74c4.816-7.912,7.052-15.05,8.428-26.66h18.146V-5.676a74.84,74.84,0,0,1-.516,10.492h11.868a81.454,81.454,0,0,1-.43-10.578Zm0-30.358v-9.8h18.4v9.8Zm-10.922,0H114.036v-9.8h17.028Zm10.922,10.062h18.4v10.148h-18.4Zm-10.922,0v10.148H113.606c.172-4.558.258-6.45.258-10.148ZM233.49-54.266a16.728,16.728,0,0,1,8,2.752c5.848,3.87,9.2,10.32,9.2,17.974,0,9.116-4.472,17.114-11.868,21.156-4.042,2.15-9.374,3.526-17.028,4.128a35.262,35.262,0,0,1,6.364,12.212A61.391,61.391,0,0,0,241.832.43c13.76-5.418,21.586-17.544,21.586-33.2,0-20.124-13.76-33.024-35.346-33.024-12.3,0-22.876,4.3-30.272,12.384a37.1,37.1,0,0,0-9.632,25.542c0,14.792,7.568,25.2,18.232,25.2,7.4,0,13.072-5.074,17.888-16C228.76-28.638,231.77-40.076,233.49-54.266Zm-12.556.172a110.719,110.719,0,0,1-6.88,27.692c-2.752,6.966-5.418,10.32-7.912,10.32-3.354,0-6.106-5.246-6.106-11.7a28.2,28.2,0,0,1,10.578-22.016A19.326,19.326,0,0,1,220.934-54.094ZM-297.818,78.058c-5.59,0-7.138-.086-10.406-.344a56.523,56.523,0,0,1,.344,7.138v8.686a38.462,38.462,0,0,1-.43,6.88h11.18V87.6h53.922v12.814h11.094a54.212,54.212,0,0,1-.43-6.794V84.852a53.972,53.972,0,0,1,.344-7.138,105.487,105.487,0,0,1-10.664.344h-2.752a103.108,103.108,0,0,0,5.59-9.718l-11.094-2.666A54.182,54.182,0,0,1-257.4,78.058h-6.192a75.323,75.323,0,0,0-5.5-12.814l-10.922,2.408A55.349,55.349,0,0,1-275.2,78.058h-7.482a76.076,76.076,0,0,0-7.31-11.868l-10.578,2.58a54.8,54.8,0,0,1,5.934,9.288Zm33.97,44.2h20.726a99.386,99.386,0,0,1,11.438.516V111.512a81.829,81.829,0,0,1-11.352.6h-19.178a132.441,132.441,0,0,0,15.308-11.954c.946-.86,1.29-1.2,2.236-1.978l-5.5-6.106a40.752,40.752,0,0,1-6.622.344h-27.176a85.938,85.938,0,0,1-8.944-.344v10.148a87.344,87.344,0,0,1,8.858-.344h20.726a40.562,40.562,0,0,1-7.912,5.59h-4.214a34.873,34.873,0,0,1,.258,4.644h-22.36a83.11,83.11,0,0,1-11.008-.6v11.266a94.846,94.846,0,0,1,11.094-.516H-275.2V132.84c0,1.548-.6,1.806-4.214,1.806-2.58,0-6.02-.258-10.578-.688a39.073,39.073,0,0,1,3.268,10.836c3.87.086,6.622.172,8.858.172,11.438,0,14.018-1.634,14.018-9.116Zm119.97-46.182a75.8,75.8,0,0,1,.344-9.03,75.852,75.852,0,0,1-8.256.344h-18.232a83.932,83.932,0,0,1-10.062-.516V77.2a54.382,54.382,0,0,1,6.278-.344l-4.73,5.5a58.858,58.858,0,0,1,11.008,7.74,68.258,68.258,0,0,1-12.556,3.44l2.15,6.622-4.644-.774a23.628,23.628,0,0,0,.344-4.472V75.822a72.6,72.6,0,0,1,.258-8.944,56.052,56.052,0,0,1-8.858.43h-18.06a80.364,80.364,0,0,1-9.8-.516V77.2a41.624,41.624,0,0,1,7.654-.43l-5.074,5.59a50.975,50.975,0,0,1,10.664,7.568,77.826,77.826,0,0,1-14.1,4.214L-216.2,104.2a20.327,20.327,0,0,1,4.042-1.72c3.956-1.548,6.622-2.58,11.18-4.644a26.044,26.044,0,0,1,1.2,6.364c1.806.086,4.3.172,6.192.172a30.25,30.25,0,0,0,6.192-.516c-1.032,1.806-1.376,2.236-2.15,3.44h-11.524c-5.074,0-6.622-.086-9.46-.258a91.261,91.261,0,0,1,.344,9.976v17.8a75.688,75.688,0,0,1-.516,10.492h11.352v-3.44h37.41v3.44H-150.5a75.985,75.985,0,0,1-.43-10.492V116.93a73.237,73.237,0,0,1,.344-9.89c-2.666.172-4.3.258-9.546.258h-17.716c1.29-1.892,1.634-2.408,2.838-4.386a20.96,20.96,0,0,1,2.838-1.118c2.924-1.118,4.644-1.806,8.6-3.526a33.844,33.844,0,0,1,1.032,6.02c2.58.086,5.16.172,6.45.172,5.848,0,8.514-.516,10.148-1.892,1.634-1.29,2.064-2.924,2.064-7.482Zm-54.61,7.052a63.592,63.592,0,0,0-9.8-6.364h15.91V93.194c0,1.634-.258,1.72-2.838,1.806l-.172-9.374c-4.558,2.15-6.192,2.838-8.772,3.87Zm37.324.172a59.72,59.72,0,0,0-9.976-6.536H-154.2V93.28c0,1.634-.172,1.72-2.838,1.806l-.172-9.46c-4.386,2.064-5.934,2.752-9.2,4.042Zm-38.184,32.508h37.5v4.472h-37.5Zm0,12.9h37.5v4.472h-37.5Zm88.064-53.922c-7.138,0-9.8-.086-13.5-.6V87.346a100.832,100.832,0,0,1,13.33-.516h37.668c-3.956,15.652-12.384,27.434-25.628,35.862a69.842,69.842,0,0,1-18.49,8.514c4.9,4.9,6.278,6.794,9.116,12.3,14.792-6.622,24.51-13.33,32.422-22.618,7.912-9.2,13.416-20.382,17.028-34.83l.344-1.2h.344a9.506,9.506,0,0,0,9.46-9.546,9.524,9.524,0,0,0-9.546-9.546,9.493,9.493,0,0,0-9.46,8.858,31.3,31.3,0,0,1-3.7.172Zm52.546-3.7a4.221,4.221,0,0,1,4.214,4.214,4.221,4.221,0,0,1-4.214,4.214,4.221,4.221,0,0,1-4.214-4.214A4.221,4.221,0,0,1-58.738,71.092Zm32.164,10.922c2.666-.258,6.106-.43,11.61-.43H13.674c7.31,0,8.6.086,11.524.43V69.544c-3.1.6-4.73.688-11.7.688H-14.706a67.306,67.306,0,0,1-11.868-.688ZM-33.8,103.17a109.911,109.911,0,0,1,12.814-.43h39.13c-3.44,8.342-7.31,13.674-13.588,18.662-6.364,4.988-12.9,8-23.306,10.664,4.558,5.074,5.762,6.88,8.084,11.954,11.782-4.644,17.63-7.654,23.478-12.384,8.514-6.88,15.136-16.77,19.522-29.412a26.078,26.078,0,0,1,2.408-5.418l-5.762-6.364c-2.494.774-3.354.86-8.342.86H-20.812c-7.654,0-9.288-.086-12.986-.6ZM56.416,83.132a90.86,90.86,0,0,1,22.618,17.8L87.72,89.668C80.84,83.3,75.938,79.692,64.844,72.984Zm4.128,57.276a31.378,31.378,0,0,1,4.3-1.2c1.634-.344,1.634-.344,3.784-.774a109.172,109.172,0,0,0,25.026-8.944c14.964-7.912,25.112-19.264,33.626-37.668a46.784,46.784,0,0,1-10.922-9.976,74.485,74.485,0,0,1-8.686,17.114c-6.708,10.062-14.362,16.512-25.284,21.07A82.215,82.215,0,0,1,56.76,126.3Zm127.366-9.546a18.881,18.881,0,0,1-6.278-5.332c.6-1.634,1.032-3.1,1.462-4.73.774-2.838,1.118-3.956,1.376-4.644l-10.75-2.15a40.665,40.665,0,0,1-3.182,12.212,35.921,35.921,0,0,1-8.858,12.47c4.644,3.354,5.246,3.87,8.342,7.482a51.567,51.567,0,0,0,7.74-11.438c7.482,7.482,14.362,9.546,31.648,9.546,1.634,0,5.848-.086,9.46-.086a46.308,46.308,0,0,1,2.58-10.836c-4.214.43-9.89.688-14.1.688a70.49,70.49,0,0,1-8.772-.43V126.3H208.98a64.406,64.406,0,0,1,7.74.344v-9.632a61.723,61.723,0,0,1-7.74.344H198.574v-5.676H211.56a54.612,54.612,0,0,1,8,.43v-10.32a51.829,51.829,0,0,1-8,.43H177.332a62.86,62.86,0,0,1-7.654-.344v10.148a43.928,43.928,0,0,1,6.45-.344H187.91ZM150.672,90.786v13.932a45.9,45.9,0,0,1-9.89,2.322l1.29,11.18c1.2-.43,2.322-.774,3.268-1.118,2.064-.6,2.064-.6,5.332-1.634v16.856c0,2.236-.516,2.666-3.182,2.666-1.72,0-3.784-.172-6.708-.43a32.2,32.2,0,0,1,2.322,10.406c2.666.172,4.9.258,6.88.258,9.03,0,11.61-2.064,11.61-9.546V111.6c1.892-.688,3.01-1.118,6.364-2.58V98.784c-3.182,1.29-3.784,1.548-6.364,2.494V90.786h2.58a37.887,37.887,0,0,1,4.472.258V80.466c-1.032.086-2.494.172-4.472.258h-2.58V74.36a58.215,58.215,0,0,1,.43-8.772H150.242a58.214,58.214,0,0,1,.43,8.772v6.364h-2.924a37.647,37.647,0,0,1-6.364-.43V91.13a53.692,53.692,0,0,1,6.192-.344ZM206.056,98.7c3.784,0,6.278.086,8.686.258a81.657,81.657,0,0,1-.344-8.772V75.994a69.81,69.81,0,0,1,.43-8.342,59.154,59.154,0,0,1-8.256.43H179.826a66.3,66.3,0,0,1-8.514-.43,73.415,73.415,0,0,1,.344,8.17v14.1c0,.946,0,2.15-.086,3.784a12.808,12.808,0,0,1-.086,2.064c0,1.806,0,1.806-.086,3.1,1.462-.086,4.214-.172,6.966-.172ZM182.148,76.6H203.82v3.44H182.148Zm0,10.75H203.82v3.44H182.148Zm50.826,4.816a80.384,80.384,0,0,1,9.8-.43h9.976a73.178,73.178,0,0,1-8.17,8.17c5.676.86,5.676.86,14.534,2.322a122.428,122.428,0,0,1-22.1,1.892h-3.1a25.93,25.93,0,0,1,4.214,8.772c11.438-.6,17.63-1.376,26.144-3.268a36.683,36.683,0,0,1,.43,5.762H241.832a76.413,76.413,0,0,1-9.632-.516v10.062a74.587,74.587,0,0,1,9.8-.43h13.932a80.664,80.664,0,0,1-26.4,11.094,31.894,31.894,0,0,1,5.934,9.89c7.826-2.666,12.04-4.472,16.77-7.138a57.2,57.2,0,0,0,12.556-8.944c0,1.548-.086,4.73-.086,6.106v3.268a37.314,37.314,0,0,1-.516,6.708h11.782a32.127,32.127,0,0,1-.43-6.708v-3.44c0-1.462-.086-3.956-.258-6.106a71.184,71.184,0,0,0,13.5,9.2,90.449,90.449,0,0,0,17.286,6.88,37.9,37.9,0,0,1,5.418-10.32c-12.04-2.408-18.4-4.9-27.434-10.492h15.566a75.9,75.9,0,0,1,9.976.43V114.866a77.587,77.587,0,0,1-9.976.516h-24.08a29.513,29.513,0,0,1,.43-5.848H264.45a66.854,66.854,0,0,0,11.008-3.44,172.941,172.941,0,0,1,23.564,8l6.794-8.084a190.744,190.744,0,0,0-20.382-5.848c3.268-2.666,4.558-4.042,7.912-8.428h5.762a76.2,76.2,0,0,1,9.8.43V82.874a11.878,11.878,0,0,1-2.15.258c-.086-1.118-.086-1.72-.086-3.01V76.166a48.368,48.368,0,0,1,.344-6.536,95.343,95.343,0,0,1-9.632.344H276.232a33.62,33.62,0,0,1,.43-5.332H264.278a41.73,41.73,0,0,1,.43,5.332H244.67c-3.956,0-6.708-.086-9.89-.344a52.16,52.16,0,0,1,.344,6.45v4.3c0,.86-.086,1.548-.086,2.752a15.029,15.029,0,0,1-2.064-.258Zm12.9-8.858V78.832h16A51.235,51.235,0,0,1,259.2,83.3Zm35,8.428a23.689,23.689,0,0,1-7.74,5.762c-4.386-.774-6.278-1.118-11.782-1.892,1.72-1.892,1.978-2.15,3.354-3.87ZM270.728,83.3c1.118-1.806,1.462-2.408,2.666-4.472h22.532V83.3Z" transform="translate(1400 1309)" fill="#fff"></path></g></svg>