<svg xmlns="http://www.w3.org/2000/svg" xmlns:xlink="http://www.w3.org/1999/xlink" width="1678" height="469" viewBox="0 0 1678 469"><defs><linearGradient id="linear-gradient" x2="1.421" y2="1.455" gradientUnits="objectBoundingBox"><stop offset="0" stop-color="#ff0058"></stop><stop offset="1" stop-color="#baff00"></stop></linearGradient><linearGradient id="linear-gradient-2" x1="0.018" x2="1.571" y2="1.444" xlink:href="#linear-gradient"></linearGradient></defs><g id="&#x30B0;&#x30EB;&#x30FC;&#x30D7;_19650" data-name="&#x30B0;&#x30EB;&#x30FC;&#x30D7; 19650" transform="translate(-95 -1625)"><g id="&#x30B0;&#x30EB;&#x30FC;&#x30D7;_19649" data-name="&#x30B0;&#x30EB;&#x30FC;&#x30D7; 19649"><rect id="&#x9577;&#x65B9;&#x5F62;_4998" data-name="&#x9577;&#x65B9;&#x5F62; 4998" width="1446" height="218" transform="translate(95 1625)" fill="#fff"></rect><path id="&#x30D1;&#x30B9;_33901" data-name="&#x30D1;&#x30B9; 33901" d="M55.49-99.355,33.945-96.1C23.1-94.4,17.98-93.775,11.16-93.62l4.185,26.5c6.355-1.705,9.92-2.325,23.095-4.34l21.39-3.41L63.4-55.335l-29.6,4.65A181.478,181.478,0,0,1,11.625-48.2l4.185,26.35a165.672,165.672,0,0,1,21.235-4.34L67.735-31l4.03,22.32c2.17,11.78,2.79,16.275,2.79,21.545L104,8.06c-1.86-5.89-2.17-7.44-4.65-20.77l-4.34-22.475L124.31-39.68c13.02-1.86,13.02-1.86,21.855-2.79l-4.65-26.2c-6.51,2.015-11.625,3.1-22.32,4.805L90.52-59.52,86.8-79.05l24.18-3.72c16.74-2.48,16.74-2.48,22.01-2.945l-4.34-26.04c-6.82,2.015-11.16,2.79-22.165,4.5l-24.18,3.72L80.6-112.065a126.336,126.336,0,0,1-2.17-17.205l-28.52,4.34c1.55,4.495,2.325,7.75,4.03,17.515ZM214.055-79.05l-9.3,1.55a141.1,141.1,0,0,1-16.43,1.705L192.51-52.08a118.328,118.328,0,0,1,15.345-3.565L217.93-57.35,226.3-8.99c1.86,10.385,2.48,15.345,2.79,21.545L256.06,7.9c-2.17-6.51-2.945-9.92-5.115-21.545L241.8-61.38l34.1-5.89a68.969,68.969,0,0,1-23.25,24.49c8.215,4.34,12.555,7.595,19.685,14.88,15.81-13.64,24.49-26.04,31-44.02,2.015-5.89,2.325-6.355,3.875-8.37L292.64-93.62c-2.325,1.55-4.03,2.17-9.145,2.945L237.77-83.08l-1.86-9.3a70.914,70.914,0,0,1-1.4-13.33l-25.42,3.72a70.629,70.629,0,0,1,3.255,13.175ZM367.2-124a155.188,155.188,0,0,1,.93,20.46v30.69c0,11.625-.155,17.05-.93,22.63h30.07c-.62-6.2-.775-11.16-.775-22.165V-103.23a186.666,186.666,0,0,1,.775-20.77Zm72.075,0c.775,6.665.93,9.92.93,21.235v16.12c0,13.485-.775,27.125-1.705,32.86-2.48,13.64-9.455,22.785-23.1,30.07-7.9,4.185-15.81,6.665-30.69,9.455,8.37,9.61,12.245,16.12,15.81,26.505,15.19-4.34,23.4-7.6,32.24-12.71C449.81-10.23,460.35-22.94,465-39.835c2.325-8.99,3.565-23.87,3.565-45.1v-18.135c0-9.92.155-12.245.775-20.925Zm205.995,2.17c-3.565,1.55-4.65,1.705-13.33,1.705h-81.22c-12.71,0-17.98-.31-25.11-1.395V-94.4A206.771,206.771,0,0,1,550.25-95.48h73.935a58.674,58.674,0,0,1-26.04,26.35,20.069,20.069,0,0,0-3.565,1.86c0-1.55.155-5.27.155-5.425.155-8.835.31-10.23.775-13.33H566.37a42.106,42.106,0,0,1,.93,10.695c0,20.615-2.635,31.62-10.075,41.23-7.285,9.3-18.445,16.12-35.495,21.545C530.72-3.41,533.2.31,539.4,12.555,549.63,7.75,554.9,4.96,561.255.62c10.7-7.44,18.755-16.275,24.18-26.2,5.425-10.23,8.06-21.545,8.99-37.665a81.371,81.371,0,0,1,17.36,16.9C631.78-58.745,645.11-74.4,655.03-97.65c2.015-4.805,2.48-5.58,4.8-8.06ZM696.1-91.14h2.325c2.17,0,3.255,0,5.425.155,6.665.155,6.665.155,13.33.155h4.96c-.62,1.085-.62,1.085-2.945,4.96-2.325,3.72-8.525,12.71-11.935,16.9a106.427,106.427,0,0,1-16.43,16.12l19.685,19.53A98.463,98.463,0,0,1,725.4-48.98c10.85-9.455,21.545-14.88,29.45-14.88a6.4,6.4,0,0,1,6.2,3.875c-6.2,2.79-7.75,3.41-11.47,5.27-9.61,4.8-16.585,9.92-22.32,16.585-5.27,6.355-7.6,12.245-7.6,19.53,0,9.3,4.5,17.515,12.245,22.01,8.37,4.96,19.375,7.13,36.89,7.13a305.9,305.9,0,0,0,37.355-2.325c9.3-1.24,9.3-1.24,13.795-1.395l-1.705-27.9c-13.175,4.96-31,7.75-49.6,7.75-15.035,0-20.77-2.325-20.77-8.215a10.7,10.7,0,0,1,4.03-7.9c2.79-2.48,3.72-3.1,10.85-6.51l1.4-.62c-.155,9.3-.31,14.105-.775,16.43l25.265-.775a96.167,96.167,0,0,1-.62-13.33c0-6.82,0-6.975-.155-11.16,14.88-5.115,31.465-9.455,39.525-10.54l-9.455-24.49c-2.48,1.4-3.565,1.7-12.4,4.65-4.96,1.55-9.145,2.945-9.61,3.1-8.215,2.79-8.215,2.79-10.85,3.72-3.1-10.075-10.85-15.035-23.715-15.035a45.737,45.737,0,0,0-19.685,4.65,83.972,83.972,0,0,0,7.44-11.47c15.81-.465,35.185-1.55,46.19-2.635q6.742-.7,13.95-1.4l-.93-24.645c-8.215,2.17-24.025,4.185-39.215,4.96-7.9.465-7.9.465-9.455.62.155-.31,1.085-2.79,3.1-7.285a45.049,45.049,0,0,1,3.255-7.285l-28.365-2.17c-.62,5.58-1.705,9.765-4.8,17.2H728.5c-16.12,0-25.42-.62-32.085-2.17ZM905.82-99.975c-.155,7.13-.775,11.315-2.48,16.275-2.79,8.99-7.6,14.105-18.755,20.15A89.7,89.7,0,0,1,900.55-50.84a91.279,91.279,0,0,1-13.95,8.68c-7.595,3.875-14.26,6.045-24.645,8.37,6.82,7.285,9.92,11.625,13.64,19.685A108.278,108.278,0,0,0,897.14-23.1a90.283,90.283,0,0,0,10.7,9.3,174.324,174.324,0,0,1-46.19,6.045h-6.2A69.442,69.442,0,0,1,866.6,14.415C893.885,12.09,909.54,8.525,930.93-.31c17.36,7.595,34.72,11.78,61.845,15.345a105.875,105.875,0,0,1,11.16-24.18c-21.855-.31-33.48-1.55-48.515-5.27A159.66,159.66,0,0,0,976.965-32.4c3.565-3.41,3.565-3.41,6.2-6.045l-13.02-13.95a82.53,82.53,0,0,1-12.865.775H930.93c2.015-2.48,2.48-3.1,4.8-6.355h.775c9.455,0,13.02-.31,16.12-1.24,5.27-1.86,7.44-5.27,7.44-12.245V-85.25c9.3,9.3,13.795,15.19,22.63,29.6l19.53-14.26a277.337,277.337,0,0,0-26.815-28.21l-15.345,9.3v-11.16h21.08a167.486,167.486,0,0,1,19.22.93V-121.83a178.481,178.481,0,0,1-19.995.93H942.4v-2.015a49.3,49.3,0,0,1,.775-8.835h-26.97a48.9,48.9,0,0,1,.62,8.99v1.86h-37.51a156.38,156.38,0,0,1-19.685-.93v22.785a137.9,137.9,0,0,1,17.67-.93Zm32.395,0V-79.67c0,1.7-.62,2.17-2.79,2.17a55.05,55.05,0,0,1-9.765-.775,78.6,78.6,0,0,1,4.96,18.6l-12.555-3.41c6.665-9.3,9.455-19.375,10.23-36.89Zm8.37,65.72a70.652,70.652,0,0,1-15.5,11.005A77.117,77.117,0,0,1,914.5-34.255ZM880.4-99.82c-4.96,12.4-10.7,19.53-23.87,30.225,7.595,4.34,10.23,6.51,17.67,13.795,12.71-11.78,17.67-18.445,25.885-35.03Zm178.25-6.51c21.39,4.96,36.115,6.51,70.99,7.905l3.875-24.18c-27.59,0-50.53-2.48-67.58-7.44Zm-11.47,43.71c4.34-.62,7.44-1.085,13.02-1.55,20.77-1.86,29.14-2.79,37.665-4.185-5.27,4.65-7.285,6.51-14.26,13.02-26.35,24.335-43.555,38.9-53.32,45.26l19.995,22.94a279.238,279.238,0,0,1,20.3-22.165c12.245-12.245,18.91-16.74,25.265-16.74a6.873,6.873,0,0,1,5.27,2.015c1.24,1.55,1.7,3.875,2.015,9.92.465,8.99,1.085,12.09,3.565,15.965,4.495,6.975,12.245,9.92,26.04,9.92,8.06,0,13.175-.465,23.56-2.015a129.723,129.723,0,0,1,14.57-1.55l-2.635-26.97c-8.06,3.72-21.39,6.355-32.085,6.355-6.045,0-8.06-2.325-8.68-10.075-.775-11.16-1.24-12.865-3.875-16.74s-7.285-6.045-13.02-6.045a16.336,16.336,0,0,0-6.2,1.085c3.41-2.635,18.29-15.5,24.49-21.08,7.44-6.82,9.92-8.68,12.865-10.54l-13.95-17.98c-3.1,1.085-6.51,1.705-14.415,2.48a545.61,545.61,0,0,1-58.28,3.565c-3.255,0-4.96-.155-9.3-.465Zm170.655-35.03c3.1-.31,6.045-.62,10.23-.775,21.855-1.085,28.055-1.4,36.27-2.325-19.22,19.065-51.925,44.485-66.185,51.15l14.415,23.56a115.261,115.261,0,0,1,14.88-11.625,89.134,89.134,0,0,1,47.74-14.26c17.205,0,27.745,6.665,27.745,17.515,0,7.9-3.875,13.175-12.245,16.9-2.325-5.735-4.03-8.835-7.13-12.245-6.665-7.595-16.585-11.935-27.745-11.935-17.98,0-30.845,10.385-30.845,24.8,0,17.205,15.965,27.59,42.16,27.59,15.5,0,30.38-3.565,41.075-9.765,14.1-8.37,21.39-20.77,21.39-36.425,0-11.16-3.875-20.15-11.315-26.815-8.215-7.13-18.6-10.54-33.17-10.54-8.06,0-12.555.62-21.235,2.79,10.385-7.6,13.175-9.92,21.39-16.9,20.925-17.98,20.925-17.98,24.955-20.3l-12.71-18.755c-2.945,1.24-4.96,1.705-11.78,2.17-15.655,1.24-32.86,1.86-46.655,1.86a173.459,173.459,0,0,1-22.32-1.085Zm49.755,87.11a23.524,23.524,0,0,1-5.115.465c-8.37,0-13.33-2.635-13.33-6.82,0-3.1,2.48-5.115,6.045-5.115C1261.235-22.01,1265.575-17.98,1267.59-10.54Z" transform="translate(146 1795.75)" fill="url(#linear-gradient)"></path></g><g id="&#x30B0;&#x30EB;&#x30FC;&#x30D7;_19648" data-name="&#x30B0;&#x30EB;&#x30FC;&#x30D7; 19648"><rect id="&#x9577;&#x65B9;&#x5F62;_5024" data-name="&#x9577;&#x65B9;&#x5F62; 5024" width="1678" height="218" transform="translate(95 1876)" fill="#fff"></rect><path id="&#x30D1;&#x30B9;_33902" data-name="&#x30D1;&#x30B9; 33902" d="M133.765,4.8C131.75.465,129.27-5.89,126.325-14.1L92.69-107.415a123.689,123.689,0,0,1-5.27-16.74H46.965c-.775,4.495-2.17,9.145-4.96,16.74L8.525-14.1C4.8-3.565,3.41.155,1.085,4.8h36.27a89.325,89.325,0,0,1,3.875-16.74L45.415-25.11H89.59l4.185,13.175A125.876,125.876,0,0,1,97.5,4.8ZM81.995-51.15H52.855L67.27-97.65Zm77.965-73c.93,6.82,1.24,11.315,1.24,22.94v83.08c0,10.385-.31,16.9-1.24,22.94h34.1c-.93-6.51-1.24-12.245-1.24-22.94v-83.08c0-11.315.31-16.585,1.24-22.94ZM367.35-13.175c-24.18-23.1-30.535-28.52-49.29-42.005,8.68-11.625,14.57-22.475,22.785-41.85,2.325-5.27,3.255-6.82,5.58-9.145l-13.64-13.95c-4.185,1.55-5.115,1.55-12.4,1.705l-53.01.775c-4.495.155-7.44.155-8.68.155a114.829,114.829,0,0,1-16.275-1.085l.775,27.59c6.355-.93,11.315-1.24,24.645-1.55l40.3-.62c-7.285,17.98-16.74,31.775-31.155,45.57-14.1,13.485-30.07,23.56-50.22,31.31,8.68,8.99,11.935,13.64,17.36,24.49C268.15-3.41,286.6-17.05,301.165-34.255A249.206,249.206,0,0,1,345.65,9.765Zm77.81-86.18L423.615-96.1c-10.85,1.7-15.965,2.325-22.785,2.48l4.185,26.5c6.355-1.705,9.92-2.325,23.1-4.34l21.39-3.41,3.565,19.53-29.6,4.65A181.479,181.479,0,0,1,401.3-48.2l4.185,26.35a165.672,165.672,0,0,1,21.235-4.34L457.405-31l4.03,22.32c2.17,11.78,2.79,16.275,2.79,21.545l29.45-4.8c-1.86-5.89-2.17-7.44-4.65-20.77l-4.34-22.475L513.98-39.68C527-41.54,527-41.54,535.835-42.47l-4.65-26.2c-6.51,2.015-11.625,3.1-22.32,4.805L480.19-59.52l-3.72-19.53,24.18-3.72c16.74-2.48,16.74-2.48,22.01-2.945l-4.34-26.04c-6.82,2.015-11.16,2.79-22.165,4.5l-24.18,3.72-1.7-8.525a126.336,126.336,0,0,1-2.17-17.205l-28.52,4.34c1.55,4.495,2.325,7.75,4.03,17.515ZM586.055-124a113.594,113.594,0,0,1,.62,14.26c0,40.145-2.48,59.365-9.765,74.555-4.8,10.23-9.61,16.74-18.445,24.645,9.92,6.975,14.26,11.315,22.165,21.7,10.54-11.16,16.43-19.53,21.545-31,7.44-16.9,10.54-34.1,11.47-66.495,1.085-30.69,1.085-30.69,1.705-35.96Zm44.02-.775a92.11,92.11,0,0,1,.62,12.09v5.58l-.775,91.76c0,6.355-.31,8.99-1.705,13.02l13.33,13.95c2.015-1.24,3.255-1.7,7.595-3.255C664.8,2.635,672.39-1.395,681.69-9.3c11.78-10.075,19.84-22.01,26.815-39.37-8.835-6.82-12.865-10.85-20.615-20.46A78.494,78.494,0,0,1,675.8-42.625c-5.27,7.285-10.23,11.78-18.6,17.05l.775-81.22c.155-9.145.31-11.625,1.24-17.98ZM740.125-91.14h2.325c2.17,0,3.255,0,5.425.155,6.665.155,6.665.155,13.33.155h4.96c-.62,1.085-.62,1.085-2.945,4.96-2.325,3.72-8.525,12.71-11.935,16.9a106.427,106.427,0,0,1-16.43,16.12l19.685,19.53A98.463,98.463,0,0,1,769.42-48.98c10.85-9.455,21.545-14.88,29.45-14.88a6.4,6.4,0,0,1,6.2,3.875c-6.2,2.79-7.75,3.41-11.47,5.27-9.61,4.8-16.585,9.92-22.32,16.585-5.27,6.355-7.6,12.245-7.6,19.53,0,9.3,4.5,17.515,12.245,22.01,8.37,4.96,19.375,7.13,36.89,7.13a305.9,305.9,0,0,0,37.355-2.325c9.3-1.24,9.3-1.24,13.795-1.395l-1.705-27.9c-13.175,4.96-31,7.75-49.6,7.75-15.035,0-20.77-2.325-20.77-8.215a10.7,10.7,0,0,1,4.03-7.9c2.79-2.48,3.72-3.1,10.85-6.51l1.4-.62c-.155,9.3-.31,14.105-.775,16.43l25.265-.775a96.167,96.167,0,0,1-.62-13.33c0-6.82,0-6.975-.155-11.16,14.88-5.115,31.465-9.455,39.525-10.54l-9.455-24.49c-2.48,1.4-3.565,1.7-12.4,4.65-4.96,1.55-9.145,2.945-9.61,3.1-8.215,2.79-8.215,2.79-10.85,3.72-3.1-10.075-10.85-15.035-23.715-15.035A45.737,45.737,0,0,0,785.7-79.36a83.972,83.972,0,0,0,7.44-11.47c15.81-.465,35.185-1.55,46.19-2.635q6.742-.7,13.95-1.4l-.93-24.645c-8.215,2.17-24.025,4.185-39.215,4.96-7.9.465-7.9.465-9.455.62.155-.31,1.085-2.79,3.1-7.285a45.049,45.049,0,0,1,3.255-7.285l-28.365-2.17c-.62,5.58-1.705,9.765-4.8,17.2h-4.34c-16.12,0-25.42-.62-32.085-2.17ZM927.83-97.96a82.262,82.262,0,0,1,10.54-1.085c9.92-.62,9.92-.62,12.09-.775,10.385-.62,10.385-.62,11.935-.775,3.875-.155,4.8-.31,13.175-1.24-17.515,16.12-26.505,23.25-39.06,31.31C923.025-68.975,912.8-68.2,907.835-68.2c-.775,0-2.015,0-3.72-.155L906.44-41.85c6.665-1.7,13.175-2.635,31.93-4.8,15.035-1.705,20.925-2.48,25.42-3.41-10.7,7.285-16.12,16.43-16.12,27.59,0,11.78,6.51,21.545,17.515,26.97,9.3,4.34,20.15,6.355,35.8,6.355,2.48,0,5.115,0,7.75-.155,7.285-.31,7.285-.31,9.145-.31a28.65,28.65,0,0,1,3.565.155L1020.21-16.9a86.56,86.56,0,0,1-19.375,1.86c-16.275,0-24.645-4.03-24.645-11.78,0-6.975,6.82-14.26,17.67-19.065,11.47-4.96,23.4-6.82,43.09-6.82,2.79,0,3.255,0,6.355.155l-1.085-26.04c-3.255.775-7.13,1.085-27.125,2.325-14.415,1.085-31.155,2.48-39.525,3.565a289.759,289.759,0,0,0,29.915-23.4c12.555-10.85,12.555-10.85,16.12-13.33l-13.485-17.825c-4.185,1.55-6.975,2.015-15.035,2.635-10.85.93-35.495,1.86-48.825,1.86a136.795,136.795,0,0,1-17.98-.775Zm232.81,2.015c5.58.93,8.99,2.325,13.02,5.425,8.99,6.82,13.64,17.36,13.64,30.535,0,16.585-6.665,29.605-18.6,35.96-8.37,4.34-17.98,6.82-32.55,7.9,6.51,8.68,9.455,14.26,13.175,25.42,21.7-3.41,33.945-8.37,44.485-17.825,13.02-11.625,20.615-29.915,20.615-50.065,0-17.515-5.27-32.55-15.19-43.09-11.47-12.09-29.76-19.065-50.53-19.065-22.785,0-42.47,7.9-56.11,22.785-11.625,12.71-17.825,29.14-17.825,47.275,0,28.365,14.57,48.2,35.34,48.2,14.1,0,24.49-8.68,33.48-28.52C1151.96-49.29,1157.23-69.285,1160.64-95.945Zm-26.815.31A200.971,200.971,0,0,1,1122.2-48.36c-4.65,11.78-8.68,17.2-12.555,17.2-5.425,0-9.61-8.68-9.61-19.685,0-13.8,6.665-28.21,16.9-36.89C1122.355-92.38,1127.315-94.705,1133.825-95.635Zm170.81,5.735H1274.41a194.8,194.8,0,0,1-22.165-.93v23.56c6.51-.465,13.8-.775,22.165-.775h30.225v13.33H1265.73a188.029,188.029,0,0,1-21.545-.93v23.87a193.717,193.717,0,0,1,21.545-.93h38.905v17.36c0,3.875-1.4,4.96-5.735,4.96a243.036,243.036,0,0,1-24.8-1.7c4.03,8.37,5.425,13.64,6.51,22.94,12.4.775,13.175.775,17.205.775,1.86,0,3.565.155,3.72.155h2.325c6.82,0,14.88-1.55,18.755-3.565,4.495-2.635,6.665-7.6,6.665-16.12V-32.7h35.03a193.006,193.006,0,0,1,21.7.93v-23.87a189.239,189.239,0,0,1-21.7.93h-35.03v-13.33h27.28c9.3,0,15.81.31,21.855.775V-90.83a196.686,196.686,0,0,1-22.165.93h-26.97v-14.26a438.307,438.307,0,0,0,46.655-6.665l-16.585-22.01c-8.215,2.79-11.005,3.565-21.39,5.27-19.84,3.41-48.05,5.425-76.415,5.425H1251.16a88.914,88.914,0,0,1,7.44,21.545c20.15-.31,32.55-.775,46.035-1.705Zm126.17-35.5c-.31,4.65-.465,5.735-2.325,16.585-4.03,22.32-5.89,41.85-5.89,59.675,0,14.725,1.085,28.21,4.03,48.98a62.282,62.282,0,0,1,.775,8.215l26.66-1.24a43.38,43.38,0,0,1-.465-7.6,152.942,152.942,0,0,1,6.045-43.4L1447.7-48.2c1.085-28.21,5.735-57.2,11.78-74.865Zm40.61,40.3c2.17.155,3.255.155,4.495.31a255.753,255.753,0,0,0,26.66,1.24c10.695,0,22.01-.62,32.7-1.705,8.525-.93,10.075-1.085,11.47-1.085l-1.085-26.5c-10.385,2.635-25.575,3.875-46.19,3.875-12.09,0-20.3-.775-27.59-2.325Zm9.145,20.615c-4.185,6.045-5.115,7.6-7.285,11.16-4.805,8.06-7.44,16.585-7.44,24.18a28.713,28.713,0,0,0,14.26,24.645c8.06,4.495,17.67,6.51,32.085,6.51A189.806,189.806,0,0,0,1538.995,0c9.145-1.395,9.145-1.395,13.175-1.86L1550.62-29.3a115.194,115.194,0,0,1-38.595,6.355c-13.175,0-20.15-3.875-20.15-11,0-5.58,3.255-12.245,10.385-21.39Z" transform="translate(151 2044.836)" fill="url(#linear-gradient-2)"></path></g></g></svg>