<svg xmlns="http://www.w3.org/2000/svg" xmlns:xlink="http://www.w3.org/1999/xlink" width="1735.938" height="286.789" viewBox="0 0 1735.938 286.789"><defs><linearGradient id="linear-gradient" x1="-0.086" y1="-0.144" x2="1.333" y2="1.383" gradientUnits="objectBoundingBox"><stop offset="0" stop-color="#ff0058"></stop><stop offset="1" stop-color="#baff00"></stop></linearGradient></defs><g id="&#x30B0;&#x30EB;&#x30FC;&#x30D7;_19645" data-name="&#x30B0;&#x30EB;&#x30FC;&#x30D7; 19645" transform="translate(-92 -468.822)"><path id="&#x5408;&#x4F53;_24" data-name="&#x5408;&#x4F53; 24" d="M1680.709,286.789H0L55.229,0H1735.938Z" transform="translate(92 468.822)" fill="url(#linear-gradient)"></path><path id="&#x30D1;&#x30B9;_33899" data-name="&#x30D1;&#x30B9; 33899" d="M30.78-119.34a89.156,89.156,0,0,1,5.94,13.86H27a153.919,153.919,0,0,1-17.64-.72c.54,6.84.72,10.44.72,17.1v14.58A98.633,98.633,0,0,1,9-59.22H32.22v10.8c5.94-.54,11.88-.72,18.54-.72H59.4L39.06-40.86c9.72,9.54,15.48,14.58,23.04,20.34C45.54-14.58,29.16-11.16,7.56-9.18c6.48,8.64,9.72,15.3,13.32,26.64C49.86,12.24,68.04,6.48,88.74-3.96c23.58,11.88,42.66,17.1,73.44,20.52A100.7,100.7,0,0,1,174.24-11.7c-24.12-1.26-41.76-3.96-58.68-9.18,9.72-7.56,15.48-12.96,25.56-24.12,4.86-5.58,5.4-6.12,8.64-9.36l-4.32-5.22H171a99.4,99.4,0,0,1-1.08-15.48V-89.64c0-7.74.18-11.7.54-16.56-5.04.54-7.92.72-18.54.72h-8.28c2.34-3.96,2.52-4.32,8.46-15.66l-14.76-4.32c6.84-.9,18.54-3.06,26.28-4.68L146.7-154.62c-20.88,6.66-60.48,10.44-111.96,10.44-5.76,0-10.8,0-21.24-.36a103.436,103.436,0,0,1,8.28,25.2Zm34.2,13.86c-1.8-5.04-3.06-8.46-5.58-14.22,8.28-.36,9.36-.36,13.68-.54,1.98,5.04,3.42,9,5.22,14.76Zm57.6-18.36a177.254,177.254,0,0,1-8.28,18.36h-9c-1.8-6.84-2.88-10.62-4.86-16.56ZM36.72-80.64H143.1v18.36l-9.36-11.16a105.859,105.859,0,0,1-15.12.72H50.76c-5.04,0-8.64-.18-14.04-.36Zm71.64,31.5c-7.74,7.74-12.6,11.52-20.52,16.38-9.9-5.76-15.12-9.72-22.14-16.38Zm188.1-30.42v5.22H276.3c-6.66,0-10.26-.18-14.22-.54.36,3.96.54,7.74.54,15.66v24.84a23.314,23.314,0,0,1-5.58-.54v23.58a38.911,38.911,0,0,1,5.58-.54v3.24c0,8.82-.18,14.58-.36,17.46-.36,4.5-.36,4.5-.54,7.02H288c-.9-5.58-1.08-9.9-1.08-24.48v-3.24h44.82v4.14c0,2.7-1.44,3.24-7.74,3.24-3.24,0-8.46-.36-14.4-.9a60.815,60.815,0,0,1,4.14,19.98c2.34,0,4.32.18,5.58.18,4.68.18,7.92.36,9,.36,8.28,0,17.82-1.26,21.06-2.88,4.86-2.34,6.66-6.84,6.66-15.84v-8.28c4.14.18,5.94.36,8.82.72V-35.1a41.494,41.494,0,0,1-8.82.72V-57.96a149.572,149.572,0,0,1,.72-17.1,118.994,118.994,0,0,1-16.02.72H322.02v-5.22h30.42a72.737,72.737,0,0,1,12.24.72V-99.18a88.332,88.332,0,0,1-12.24.54H340.92v-5.04h7.38a85.2,85.2,0,0,1,10.44.54V-119.7a64.838,64.838,0,0,1-10.08.54h-7.74v-5.04h10.62a104.277,104.277,0,0,1,10.98.54v-19.26a61.631,61.631,0,0,1-11.16.72H340.92c0-5.4.18-7.02,1.08-10.08H315.18c.72,3.24.9,4.32.9,10.08H300.06c0-5.04.18-7.02,1.08-10.08H274.32c.72,3.06.9,4.68.9,10.08H270a80.408,80.408,0,0,1-12.06-.72v19.26a104.276,104.276,0,0,1,10.98-.54h6.3v5.04h-3.96a81.2,81.2,0,0,1-10.44-.54v16.56a85.2,85.2,0,0,1,10.44-.54h3.96v5.04h-5.94a126.368,126.368,0,0,1-12.78-.54v20.34a87.587,87.587,0,0,1,12.78-.72Zm1.62,48.06H286.92v-6.48h11.16Zm22.5,0v-6.48h11.16v6.48Zm-22.5-19.98H286.92v-6.66h11.16Zm22.5,0v-6.66h11.16v6.66ZM300.06-98.64v-5.04h16.02v5.04Zm0-20.52v-5.04h16.02v5.04Zm-99.9-9.54c5.04-.36,8.82-.54,16.2-.54H236.7c7.56,0,11.7.18,16.2.54v-21.24a125.574,125.574,0,0,1-16.2.72H216.36a125.574,125.574,0,0,1-16.2-.72Zm-5.4,28.8a109.311,109.311,0,0,1,14.4-.72h31.86c8.64,0,10.08,0,14.04.54v-23.94a139.9,139.9,0,0,1-14.4.54h-31.5a107.579,107.579,0,0,1-14.4-.72Zm5.76,25.2c3.06-.18,5.4-.36,10.62-.36h31.32a77.185,77.185,0,0,1,10.08.36V-95.04a72.882,72.882,0,0,1-10.08.36H211.14c-5.22,0-7.56-.18-10.62-.36Zm0,25.56a81.743,81.743,0,0,1,10.26-.36h30.96a69.525,69.525,0,0,1,10.8.54v-20.7a77.307,77.307,0,0,1-10.26.36H211.14a88.108,88.108,0,0,1-10.62-.36Zm21.42,64.98V8.82h9.72V13.5H253.8c0-1.08-.18-4.68-.36-10.98v-34.2a105.627,105.627,0,0,1,.36-12.24,69.944,69.944,0,0,1-10.62.54H211.5c-5.76,0-7.2,0-12.96-.36a106.512,106.512,0,0,1,.72,13.68V-1.62c0,5.76-.36,12.06-.9,17.46Zm-.9-39.6h10.8v11.34h-10.8Zm239.4,11.52c3.78-1.26,7.2-1.98,17.46-4.14l32.22-6.66V-6.3c0,11.88-.18,16.2-1.08,23.04h29.7c-.9-6.66-1.08-11.16-1.08-22.86v-22.5c7.56-1.62,12.24-2.34,16.38-2.88l-1.8-28.08a123.724,123.724,0,0,1-14.58,3.96v-74.34c0-11.52.18-16.38,1.08-22.68h-29.7c.9,6.3,1.08,11.16,1.08,22.68v9.54c-7.74-7.56-13.86-12.42-27.72-21.96l-17.1,18.9c15.12,11.16,19.26,14.76,30.78,26.64l14.04-17.28v64.08l-34.74,7.2A137.6,137.6,0,0,1,459-40.68c1.26-2.88,1.8-4.14,3.6-8.1-9.18-6.84-15.66-13.14-21.06-20.7h5.94a82.441,82.441,0,0,1,14.76.9v-8.64c10.26,7.56,17.1,13.68,28.44,25.56L507.24-72c-9.72-9.9-17.1-16.02-30.6-25.56l-14.4,15.84V-95.04c-3.78.72-6.48.9-14.04.9h-8.46v-10.44L453.6-96.3c5.58-11.16,9.36-22.14,14.04-39.06l-18.72-9c-2.7,13.5-5.76,24.84-9.18,33.48v-26.1a115.97,115.97,0,0,1,.72-15.84h-27.9a124.228,124.228,0,0,1,.72,16.02v42.66H403.2c-8.82,0-12.6-.18-16.74-.9v26.46c4.86-.72,8.46-.9,16.92-.9h6.84A108.64,108.64,0,0,1,383.4-30.06,119.114,119.114,0,0,1,395.1-2.88c7.56-8.28,11.34-14.22,18.72-29.52-.36,4.32-.36,8.28-.36,14.76v16.2a127.947,127.947,0,0,1-1.08,18.18h28.26c-.72-4.86-.9-9-.9-17.46V-26.64a140.449,140.449,0,0,0-.54-14.04,81.887,81.887,0,0,0,13.68,17.64c1.98-6.66,2.88-9.54,4.86-14.94ZM384.84-135c4.68,12.6,7.02,21.96,9.72,38.34l18.54-9.36c-2.52-14.04-4.86-22.5-10.08-38.52ZM575.96-47.616a95.145,95.145,0,0,0,4.352,13.568C585.944-19.968,594.9-8.7,606.68-1.024c13.568,8.96,36.608,14.336,59.648,14.336,19.2,0,39.936-3.84,53.248-9.984a64.133,64.133,0,0,0,24.064-19.2c6.656-8.96,10.24-20.992,10.24-34.048a50.417,50.417,0,0,0-16.9-37.888c-8.96-7.68-17.408-11.264-33.024-13.568,29.44-6.912,44.032-23.808,44.032-50.944,0-14.592-4.864-26.88-14.336-36.352-14.592-14.08-37.632-21.76-65.536-21.76-31.232,0-54.784,8.7-70.4,25.6-8.192,8.96-12.288,16.64-17.152,32.512l55.3,7.936c3.84-16.384,13.056-23.552,31.232-23.552,16.9,0,26.624,7.936,26.624,21.76,0,16.384-12.032,24.576-36.352,24.576a224.889,224.889,0,0,1-27.136-1.536V-79.1c9.984-1.024,21.5-1.536,31.488-1.536s17.92,1.28,23.808,3.328c8.7,3.328,13.824,11.52,13.824,22.016,0,15.616-12.544,25.6-32.512,25.6-12.288,0-22.528-3.84-29.44-11.008-4.1-4.352-5.632-7.936-7.168-16.384ZM833.488-118.44c-.18,14.58-.54,20.52-1.8,29.88-2.7,22.32-9,40.14-19.44,54.54-7.56,10.62-14.76,17.1-29.34,26.1,8.28,7.56,13.32,14.04,19.62,24.48,18.54-12.42,28.8-23.22,39.24-41.22,8.1-14.22,13.14-28.62,16.38-47.16h47.88c-.72,27-3.42,48.24-6.66,54.72-1.98,3.6-5.4,5.04-12.24,5.04-6.48,0-17.82-1.26-27.54-3.06,3.78,8.82,5.58,16.2,6.66,27.54,9.54.72,15.84,1.08,21.6,1.08,23.76,0,32.22-4.14,37.8-18.72,4.14-10.98,7.56-36.9,8.46-66.6.72-21.42.72-21.42,1.44-26.28-6.66.72-13.68.9-25.2.9h-49.14c.54-6.3.72-10.8,1.08-21.24h62.1c9,0,18.36.36,26.46,1.08v-29.16c-8.46.72-16.74,1.08-26.82,1.08h-110.7c-10.44,0-19.08-.36-27-1.08v29.16c8.1-.72,17.82-1.08,27.18-1.08Zm174.6,69.3h98.1v33.3c0,3.24-1.44,3.96-8.46,3.96-5.4,0-13.5-.54-25.38-1.62a89.274,89.274,0,0,1,8.28,26.64c8.46.18,15.84.36,20.7.36,9.36,0,16.2-.54,20.16-1.8,8.1-2.34,12.42-9.18,12.42-19.62V-124.2c0-11.7.18-17.28.9-22.68-4.86.54-10.62.72-22.68.72h-109.08c-11.7,0-16.92-.18-23.58-.72a173.955,173.955,0,0,1,.72,18.54V-8.64a177.175,177.175,0,0,1-1.26,23.58h30.06c-.72-4.68-.9-10.8-.9-22.68Zm34.56-25.56h-34.56v-45.36h34.56Zm27.18,0v-45.36h36.36V-74.7Zm165.24-72.72c-44.28,0-72.72,30.42-72.72,77.94,0,47.7,28.44,78.48,72.54,78.48,43.74,0,72.72-31.5,72.72-79.02C1307.608-117.18,1279.348-147.42,1235.068-147.42Zm0,125.28c-21.96,0-35.46-18.18-35.46-47.52,0-28.98,13.5-46.8,35.46-46.8,21.78,0,35.1,17.64,35.1,46.8C1270.168-40.14,1256.848-22.14,1235.068-22.14Zm136.8-30.06h33.84c13.68,0,20.88.36,28.8,1.26v-33.3c-7.92.9-14.76,1.26-28.8,1.26h-33.84V-112.5h41.4c15.12,0,22.14.36,30.06,1.26v-34.2c-8.46,1.08-14.4,1.26-30.24,1.26h-52.02c-13.86,0-18.9-.18-26.28-.54a181.022,181.022,0,0,1,1.44,26.28V-25.2c0,15.66-.36,22.86-1.62,30.78h38.7c-1.26-7.92-1.44-14.4-1.44-31.32Zm132.84,0h33.84c13.68,0,20.88.36,28.8,1.26v-33.3c-7.92.9-14.76,1.26-28.8,1.26h-33.84V-112.5h41.4c15.12,0,22.14.36,30.06,1.26v-34.2c-8.46,1.08-14.4,1.26-30.24,1.26h-52.02c-13.86,0-18.9-.18-26.28-.54a181.022,181.022,0,0,1,1.44,26.28V-25.2c0,15.66-.36,22.86-1.62,30.78h38.7c-1.26-7.92-1.44-14.4-1.44-31.32Z" transform="translate(170 708.758)" fill="#fff"></path></g></svg>