<svg xmlns="http://www.w3.org/2000/svg" width="1556.505" height="414" viewBox="0 0 1556.505 414"><g id="&#x30B0;&#x30EB;&#x30FC;&#x30D7;_19612" data-name="&#x30B0;&#x30EB;&#x30FC;&#x30D7; 19612" transform="translate(-49.495 -21179)"><rect id="&#x9577;&#x65B9;&#x5F62;_5463" data-name="&#x9577;&#x65B9;&#x5F62; 5463" width="267" height="124" transform="translate(324 21179)"></rect><rect id="&#x9577;&#x65B9;&#x5F62;_5464" data-name="&#x9577;&#x65B9;&#x5F62; 5464" width="1282" height="124" transform="translate(324 21469)"></rect><path id="&#x30D1;&#x30B9;_33870" data-name="&#x30D1;&#x30B9; 33870" d="M37.765-4.615H27.95A46.235,46.235,0,0,1,21-4.94V4.615a59.258,59.258,0,0,1,8.32-.39H54.86a54.628,54.628,0,0,1,8.19.39V-4.94a50.6,50.6,0,0,1-7.41.325H46.93v-3.77h7.02a52.454,52.454,0,0,1,7.28.325v-9.3a50.051,50.051,0,0,1-7.41.325H46.93v-3.25h7.475c3.835,0,4.42,0,6.37.13a70.94,70.94,0,0,1-.325-9.1V-43.94c0-4.355.13-7.6.325-9.62a56.259,56.259,0,0,1-8.58.325H33.6a86.839,86.839,0,0,1-9.165-.325,77.51,77.51,0,0,1,.325,9.165v15.6c0,4.485-.065,6.89-.26,8.71,1.755-.13,3.12-.2,7.475-.2h5.785v3.25H31.72a53.367,53.367,0,0,1-7.15-.26v9.165a57.959,57.959,0,0,1,7.215-.26h5.98Zm0-39.715V-40.5H33.8V-44.33Zm9.165,0H50.9V-40.5H46.93ZM37.765-32.89v4.03H33.8v-4.03Zm9.165,0H50.9v4.03H46.93ZM8.45-43.55v10.14H7.865a32.973,32.973,0,0,1-4.745-.26v9.165a31.833,31.833,0,0,1,4.55-.26h.78v12.74A42.8,42.8,0,0,1,1.5-9.88L3.77.325c.91-.455.975-.455,1.43-.65,8.97-3.7,12.805-5.395,18.005-8l-.065-9.685c-2.34,1.17-2.99,1.43-5.135,2.34v-9.1h.39c1.43,0,2.47.065,3.965.2v-9.1a25.94,25.94,0,0,1-3.965.26h-.39V-43.55h.845a35.27,35.27,0,0,1,4.485.26v-9.555a51.156,51.156,0,0,1-6.175.325H8.58a54.025,54.025,0,0,1-6.24-.325v9.555a39.219,39.219,0,0,1,4.55-.26Zm97.24-1.885V-48.36a52.341,52.341,0,0,1,.39-6.955H95.03a55.233,55.233,0,0,1,.39,6.825v3.055H80.34a75.806,75.806,0,0,1-7.67-.26c.195,2.08.325,4.225.325,6.76V-3.7c0,3.77-.13,6.695-.39,9.75h10.01V3.38h36.14V6.045H128.83c-.26-3.38-.39-6.5-.39-9.62v-34.84a64.306,64.306,0,0,1,.325-7.345,70.445,70.445,0,0,1-8.125.325Zm0,39.65V-17.1h13.065v11.31Zm0-20.215V-36.27h13.065V-26ZM95.42-36.27V-26H82.615V-36.27Zm0,19.175v11.31H82.615V-17.1Z" transform="translate(48 21244)" fill="#533afc"></path><path id="&#x30D1;&#x30B9;_33871" data-name="&#x30D1;&#x30B9; 33871" d="M55.584,7.056c18.288,0,33.408-8.064,42.048-22.464C103.1-24.48,106.7-40.32,106.7-55.44a95.783,95.783,0,0,0-5.616-33.12,45.347,45.347,0,0,0-10.512-15.984c-8.784-8.64-21.024-13.392-34.992-13.392-18.144,0-33.12,8.064-41.9,22.752C8.208-86.112,4.608-70.416,4.608-55.3A95.552,95.552,0,0,0,10.224-22.32,45.347,45.347,0,0,0,20.736-6.336C29.52,2.448,41.472,7.056,55.584,7.056Zm0-100.656c13.968,0,21.456,12.96,21.456,37.584,0,25.632-7.2,38.592-21.312,38.592-14.256,0-21.6-13.248-21.6-39.024C34.128-79.92,42.048-93.6,55.584-93.6Zm96.624,1.44h33.408a233.264,233.264,0,0,1,23.472,1.008v-25.2c-5.76.72-11.088,1.008-23.76,1.008H142.272c-6.912,0-8.352,0-14.4-.288-.144,5.472-.288,8.928-.576,11.952l-3.888,44.928c-.432,4.032-.864,7.488-1.44,11.808l26.784,2.592c3.168-7.056,9.072-10.656,18.144-10.656,12.1,0,19.872,7.488,19.872,19.008s-8.064,19.152-20.16,19.152c-10.368,0-16.416-4.464-18.864-13.968L118.8-26.352c2.16,7.488,3.888,11.664,7.2,16.128C134.352,1.3,148.608,7.488,166.752,7.488c30.528,0,48.672-16.416,48.672-44.064,0-12.1-3.6-21.456-10.8-28.8-7.632-7.776-18.144-11.808-30.96-11.808-9.36,0-16.848,2.16-23.328,6.912.288-2.448.432-3.888.432-4.608Z" transform="translate(48 21404)" fill="#533afc"></path><path id="&#x30D1;&#x30B9;_33873" data-name="&#x30D1;&#x30B9; 33873" d="M19.224-87.588a50.724,50.724,0,0,1,.54,8.208c0,4.212-.216,14.472-.432,25.38-.54,21.708-.54,21.708-.54,24.516,0,15.12,2.052,22.032,8.208,27.972C32.832,4,41.04,6.7,52.056,6.7,66.2,6.7,77.436,2.052,85.968-7.236c5.94-6.588,9.5-14.472,13.608-30.672-6.912-2.808-10.476-5.076-18.468-11.34-.972,7.992-2.16,13.716-4.32,19.548C72.576-18.036,63.936-11.448,52.812-11.448c-5.94,0-10.584-1.944-12.636-5.184-1.836-2.916-2.268-6.156-2.268-16.956,0-18.036,1.3-46.872,2.484-53.676ZM176.9-76.356a122.021,122.021,0,0,1-17.712,2.808c.972-5.508,1.62-8.64,1.728-9.288a34.142,34.142,0,0,1,1.4-6.264l-20.2-1.512v1.62c0,3.348-.432,7.56-1.836,16.2H138.24a112.4,112.4,0,0,1-16.416-1.08l-.324,17.6a21.765,21.765,0,0,1,2.484-.108h1.08c4.644.216,6.912.324,10.368.324h1.728c-4,19.98-11.016,41.472-18.144,55.3L138.888,6.48c.756-2.592.756-2.592,2.484-7.776,4.644-13.932,5.292-16.308,7.992-25.812,3.024-11.232,4.968-19.224,6.8-29.376,3.348-.216,4.644-.324,9.828-.864l1.08,15.336a144.95,144.95,0,0,1,30.348-2.7,97.327,97.327,0,0,1,14.148.756l-.324-18.252c-2.268-.108-4.536-.108-5.292-.108-13.608,0-18.36.324-28.62,1.62ZM165.456-36.18c-5.94,8.64-8.424,14.688-8.424,20.952q0,20.412,31.752,20.412c6.588,0,10.908-.324,21.06-1.728,2.592-.324,3.564-.432,5.724-.648l-1.3-18.9c-6.588,2.484-17.064,4.212-25.488,4.212-9.072,0-13.5-2.376-13.5-7.344,0-3.348,1.728-6.912,5.832-11.772ZM254.34-75.492C266.976-69.66,281.448-65.34,301-61.344l5.724-17.388c-5.076-.756-14.364-2.7-21.708-4.644-10.26-2.7-16.74-4.968-22.032-7.668Zm-8.316,7.02a62.835,62.835,0,0,1-.648,6.912c-2.16,14.9-4.428,32.184-4.968,37.368a12.957,12.957,0,0,1-.324,2.16l17.928.756a18.792,18.792,0,0,1,6.048-4.86,46.725,46.725,0,0,1,23.652-6.48c9.72,0,15.336,3.348,15.336,9.072,0,7.668-9.5,12.744-23.76,12.744-8.1,0-18.144-1.728-28.836-5.076,1.728,6.8,2.16,10.26,2.484,19.224a115.394,115.394,0,0,0,27.108,3.24c13.284,0,23.112-2.484,30.888-7.776a27.307,27.307,0,0,0,12.2-22.9c0-15.336-12.744-25.38-31.968-25.38-12.312,0-21.816,2.592-30.888,8.424a237.179,237.179,0,0,1,4.644-26.244Zm130.788,27c-.432,7.02-1.62,11.448-4.644,16.848C367.416-15.984,359.64-9.828,347-4.752A65.354,65.354,0,0,1,357.7,9.936,63.585,63.585,0,0,0,368.5,4,59.773,59.773,0,0,0,385.56-13.932c5.076-8.424,7.452-15.876,8.64-27.54h16.416c0,12.2-.756,22.9-1.836,27.108-1.08,4.536-2.376,5.292-7.992,5.292a89.984,89.984,0,0,1-11.448-.972c2.916,7.344,3.888,10.908,4.644,17.28,6.588.108,6.588.108,7.668.108,13.392,0,18.576-2.052,21.492-8.316,2.7-5.832,4.212-20.52,4.32-42.228a97.33,97.33,0,0,0,9.18,7.452c4.428-8.1,5.724-10.044,10.908-16.524-12.312-7.56-21.384-16.956-27.864-28.836-2.7-4.968-3.564-7.02-4.428-9.936l-16.092,6.156c.648,1.512,1.4,3.024,2.052,4.644a105.66,105.66,0,0,0,13.932,23.76H374.436a140.967,140.967,0,0,0,13.716-22.68,42.647,42.647,0,0,1,2.808-5.508l-17.712-6.48c-.54,3.132-1.62,5.832-3.78,10.044-6.372,12.528-14.8,22.14-27.216,30.78A69.289,69.289,0,0,1,353.268-35.1,98.717,98.717,0,0,0,366.66-47.088v6.048A51.7,51.7,0,0,1,374-41.472Zm82.836-5.94A134.379,134.379,0,0,1,476.5-50.436C472.176-33.372,463.1-11.88,456.192-2.7l17.82,9.4c.648-1.512.864-2.052,1.728-3.888,6.264-13.5,7.992-17.82,11.448-27.864a214.146,214.146,0,0,0,7.668-26.892,39.213,39.213,0,0,1,4.32-.216c3.78,0,5.292.432,6.48,1.836,1.4,1.512,2.052,4.1,2.052,8.748,0,8.208-1.3,19.224-2.916,23.976-1.188,3.456-2.592,4.86-4.86,4.86-3.132,0-8.64-1.512-14.8-3.888a49.89,49.89,0,0,1,1.62,12.852,48.185,48.185,0,0,1-.324,6.264C493.776,4.536,498.636,5.4,503.6,5.4a20.627,20.627,0,0,0,8.424-1.512,17.35,17.35,0,0,0,6.912-6.48c4.32-7.452,6.8-21.492,6.8-38.34,0-12.2-2.16-18.792-7.668-23.22-3.672-2.916-8.64-4.32-15.336-4.32-1.512,0-2.808.108-4.644.216.432-2.484,1.188-6.588,2.052-11.556,1.08-6.372,1.08-6.372,1.728-8.532L482.328-90.18v1.836c0,3.672-.756,10.044-2.484,21.384-7.02.864-17.388,1.728-20.844,1.728h-.972Zm62.64-22.032c9.936,11.772,16.632,27.432,20.2,47.2L560.2-30.672c-4.32-18.144-11.232-32.616-22.032-46.116Zm64.908,1.4c2.16-.216,4.212-.432,7.128-.54,15.228-.756,19.548-.972,25.272-1.62-13.392,13.284-36.18,31-46.116,35.64l10.044,16.416a80.308,80.308,0,0,1,10.368-8.1,62.106,62.106,0,0,1,33.264-9.936c11.988,0,19.332,4.644,19.332,12.2,0,5.508-2.7,9.18-8.532,11.772-1.62-4-2.808-6.156-4.968-8.532a25.332,25.332,0,0,0-19.332-8.316c-12.528,0-21.492,7.236-21.492,17.28,0,11.988,11.124,19.224,29.376,19.224,10.8,0,21.168-2.484,28.62-6.8,9.828-5.832,14.9-14.472,14.9-25.38,0-7.776-2.7-14.04-7.884-18.684-5.724-4.968-12.96-7.344-23.112-7.344a51.67,51.67,0,0,0-14.8,1.944c7.236-5.292,9.18-6.912,14.9-11.772,14.58-12.528,14.58-12.528,17.388-14.148L642.708-87.8c-2.052.864-3.456,1.188-8.208,1.512-10.908.864-22.9,1.3-32.508,1.3a120.861,120.861,0,0,1-15.552-.756Zm34.668,60.7a16.391,16.391,0,0,1-3.564.324c-5.832,0-9.288-1.836-9.288-4.752,0-2.16,1.728-3.564,4.212-3.564C617.436-15.336,620.46-12.528,621.864-7.344Z" transform="translate(598 21282)"></path><path id="&#x30D1;&#x30B9;_33872" data-name="&#x30D1;&#x30B9; 33872" d="M30.456-45.252h12.1a68.111,68.111,0,0,1,10.908.54V-61.56a68.111,68.111,0,0,1-10.908.54h-12.1V-76.68a86.652,86.652,0,0,1,.648-13.5H12.636a86.652,86.652,0,0,1,.648,13.5V-9.5a48.247,48.247,0,0,1-10.152,1.3L5.724,9.828c1.62-.432,5.292-1.512,7.128-1.944,16.416-4,27-7.02,40.608-11.556L53.352-19.44c-9.072,2.7-14.364,4.1-22.9,6.156Zm42.228,5.184c10.476-5.184,24.192-13.284,29.268-17.28,1.836-1.512,2.592-1.944,3.564-2.7L94.392-73.872C90.72-69.444,82.3-63.18,72.684-57.78V-76.464c0-6.912.108-9.828.648-13.5H55.3c.54,3.672.648,6.48.648,13.5V-4.428c0,6.8,1.512,9.936,5.4,11.556,3.024,1.3,7.236,1.728,16.416,1.728,12.2,0,17.064-.864,20.52-3.672,4.752-4,6.048-9.72,6.912-30.456a51.217,51.217,0,0,1-16.308-6.264v4.1c0,10.692-.54,17.388-1.62,18.9C86.4-7.128,84.348-6.7,79.38-6.7c-5.616,0-6.7-.432-6.7-2.484ZM159.3-3.78c3.456,4,5.508,7.236,8.856,14.364A69.005,69.005,0,0,0,189.864-5.184c6.156,6.264,11.772,10.26,21.816,15.552A51.818,51.818,0,0,1,220.1-5.94c-9.5-3.672-14.688-6.7-20.628-12.2a73.791,73.791,0,0,0,7.776-18.792c1.512,1.512,2.16,2.16,4.32,4.212,2.052-5.508,4.212-9.072,8.64-14.688-7.452-6.588-11.988-12.2-15.66-19.44h2.376a91.4,91.4,0,0,1,11.124.54V-82.4a77.612,77.612,0,0,1-11.016.54h-8.424V-84.78a44.466,44.466,0,0,1,.432-7.344h-17.5a52.552,52.552,0,0,1,.432,7.668v2.592h-4.428a70.078,70.078,0,0,1-10.692-.54V-66.42a76.238,76.238,0,0,1,7.776-.432,55.558,55.558,0,0,1-10.26,16.308v-4.212c0-6.8,0-8.208.216-10.908a74.982,74.982,0,0,1-8.532.216h-5.94v-3.888h4.32a79.8,79.8,0,0,1,10.26.324v-14.58a62.3,62.3,0,0,1-10.26.54h-4.32v-.864a42.665,42.665,0,0,1,.648-7.992H134.46a46.97,46.97,0,0,1,.648,7.992v.864h-6.7a64.479,64.479,0,0,1-10.476-.54V-68.9a90.276,90.276,0,0,1,10.476-.432h6.7v3.888h-3.672a103.6,103.6,0,0,1-11.232-.324,120.415,120.415,0,0,1,.432,12.312v18.576c0,5.832-.108,9.5-.432,13.5,4.212-.216,6.048-.216,11.34-.216h3.564v3.78h-7.344a64.478,64.478,0,0,1-10.476-.54V-3.24a66.967,66.967,0,0,1,10.476-.54h7.344V-.216a70.267,70.267,0,0,1-.648,10.044h16.2A81.245,81.245,0,0,1,150.12.54V-3.78h9.18Zm7.128-14.58a51.9,51.9,0,0,1-8.748.54h-7.56V-21.6h5.4a87.037,87.037,0,0,1,9.072.216c-.108-3.564-.216-6.912-.216-12.528v-5.4a64.883,64.883,0,0,1,4.32,7.128q2.268-2.43,2.916-3.24a82.593,82.593,0,0,0,8.424,17.82A58.7,58.7,0,0,1,166.428-7.236Zm12.744-26.568c3.24-4.644,5.292-8.208,9.288-16.74l-9.612-5.184h21.384l-8.964,5.292c3.672,8.1,5.616,11.448,9.5,16.848l-6.7-2.16a58.441,58.441,0,0,1-4.644,15.444,53.98,53.98,0,0,1-5.4-15.228ZM148.284-33.156v-5.4h4.536v5.4Zm0-15.66v-5.076h4.536v5.076Zm-11.448-5.076v5.076H132.3v-5.076Zm0,15.336v5.4H132.3v-5.4Z" transform="translate(344 21282)" fill="#fff"></path><path id="&#x30D1;&#x30B9;_33874" data-name="&#x30D1;&#x30B9; 33874" d="M55.3-61.992v-6.372a74.574,74.574,0,0,1,.54-11.232H38.664a88.469,88.469,0,0,1,.54,11.88v10.26a43.125,43.125,0,0,1-6.7,1.3l.324,17.172A39.406,39.406,0,0,1,39.2-41.364V-4c0,9.612,5.184,11.88,27.216,11.88,19.764,0,27.864-1.08,31.968-4.32,3.348-2.592,4.968-8.748,5.724-20.736a80.438,80.438,0,0,1-16.524-4.1c-.324,8.1-.648,10.152-2.268,11.556-1.944,1.62-5.4,2.052-16.74,2.052-7.02,0-9.18-.108-11.448-.756A2.128,2.128,0,0,1,55.3-10.908V-46.116l6.48-1.944v20.2a86.707,86.707,0,0,1-.54,11.772H78.192a88.921,88.921,0,0,1-.54-11.232V-36.4A46.01,46.01,0,0,1,81-22.248a34.053,34.053,0,0,0,4.1.216c8.964,0,12.852-2.484,14.148-9.18,1.08-5.508,1.728-19.332,1.836-37.692,0-3.78.108-4.752.216-7.02a53.651,53.651,0,0,1-8.964,3.132l-14.688,4.32V-80.028A69.323,69.323,0,0,1,78.3-91.152H61.128a78.017,78.017,0,0,1,.648,11.772v15.444ZM77.652-52.7l7.884-2.268c0,14.148-.756,18.036-3.564,18.036a25.886,25.886,0,0,1-4.32-.54ZM14.148-3.456A109.592,109.592,0,0,1,13.5,9.828H31a131.87,131.87,0,0,1-.648-13.284V-65.772c3.672-7.236,4-8.208,8.856-22.572L22.356-93.2C20.52-80.028,10.584-60.7.972-51.84a101.45,101.45,0,0,1,6.7,19.44,96.515,96.515,0,0,0,6.7-8.532c-.108,2.484-.108,4.86-.216,7.128V-3.456ZM148.176-28.728A50.271,50.271,0,0,0,161.244-17.6a76.1,76.1,0,0,1,8.1-15.444c-7.56-3.78-12.528-7.56-17.28-12.96a88.949,88.949,0,0,0,9.72-17.6,36.887,36.887,0,0,1,2.484-5.076l-7.02-7.452a38.412,38.412,0,0,1-6.264.324h-2.916V-83.7a46.61,46.61,0,0,1,.54-8.316H131.436a50.549,50.549,0,0,1,.648,8.208v7.992h-4.86a56.537,56.537,0,0,1-8.316-.432v15.984a72.952,72.952,0,0,1,9.4-.432h15.228c-3.024,6.156-5.832,9.828-11.232,15.012a65.016,65.016,0,0,1-16.848,12.312,60.482,60.482,0,0,1,6.912,16.2,75.387,75.387,0,0,0,9.612-6.8V-2.052a82.407,82.407,0,0,1-.648,11.88h17.28a105.906,105.906,0,0,1-.432-11.448ZM195.8-48.708h8.532c3.78,0,7.128.216,10.692.54v-16.74a70.946,70.946,0,0,1-10.692.54H195.8v-14.58a88.427,88.427,0,0,1,.648-12.744H177.984a94.072,94.072,0,0,1,.756,12.744v14.58h-5.616a71.118,71.118,0,0,1-10.584-.54v16.74c3.456-.324,6.912-.54,10.584-.54h5.616V-9.18h-8.964a116.138,116.138,0,0,1-12.96-.54V7.236a123.768,123.768,0,0,1,12.636-.648h35.1c4.212,0,8.532.216,13.068.648V-9.72a114.385,114.385,0,0,1-13.176.54H195.8Zm46.872-38.664c-.216,3.24-.324,4-1.62,11.556a233.6,233.6,0,0,0-4.1,41.58c0,10.26.756,19.656,2.808,34.128a43.393,43.393,0,0,1,.54,5.724l18.576-.864a30.231,30.231,0,0,1-.324-5.292,106.566,106.566,0,0,1,4.212-30.24l-8.316-2.808c.756-19.656,4-39.852,8.208-52.164Zm28.3,28.08c1.512.108,2.268.108,3.132.216a178.2,178.2,0,0,0,18.576.864c7.452,0,15.336-.432,22.788-1.188,5.94-.648,7.02-.756,7.992-.756L322.7-78.624c-7.236,1.836-17.82,2.7-32.184,2.7a90.21,90.21,0,0,1-19.224-1.62Zm6.372,14.364c-2.916,4.212-3.564,5.292-5.076,7.776-3.348,5.616-5.184,11.556-5.184,16.848A20.006,20.006,0,0,0,277.02-3.132C282.636,0,289.332,1.4,299.376,1.4A132.253,132.253,0,0,0,318.06,0c6.372-.972,6.372-.972,9.18-1.3l-1.08-19.116a80.264,80.264,0,0,1-26.892,4.428c-9.18,0-14.04-2.7-14.04-7.668,0-3.888,2.268-8.532,7.236-14.9ZM378.756-51.84h1.3c.324,0,1.188,0,2.484.108,9.072.324,15.336.54,18.576.54,2.16,0,3.672,0,6.156-.108.108,3.78.108,5.292.216,8.964.216,5.076.216,5.616.324,8.64a31.648,31.648,0,0,0-6.264-.648c-6.8,0-12.528,1.512-16.632,4.428A19.036,19.036,0,0,0,376.7-14.04c0,12.528,9.4,20.088,25.272,20.088,13.824,0,23.22-6.156,23.22-15.336v-.864c6.156,3.888,10.368,7.236,12.852,10.26l6.8-18.36a13.874,13.874,0,0,1-2.052-1.3,86.737,86.737,0,0,0-17.388-9.828c-.756-12.42-.864-14.58-.972-23,5.4-.648,10.26-1.3,13.608-2.052a29.284,29.284,0,0,1,4-.648L441.4-72.252A100.658,100.658,0,0,1,424.224-68.9c0-10.692.324-15.444.864-18.9L406.4-87.7a29.709,29.709,0,0,1,.54,6.048v14.04c-3.672.108-5.508.108-7.776.108-8.208,0-15.768-.648-20.2-1.728ZM408.24-15.768c0,4.32-2.376,6.264-7.56,6.264-4.32,0-7.128-1.836-7.128-4.644,0-3.024,3.024-4.968,7.992-4.968a17.35,17.35,0,0,1,6.588,1.3ZM355-88.236v.54a67.638,67.638,0,0,1-1.3,9.4c-3.348,18.9-4.32,28.4-4.32,43.632,0,11.664.432,17.6,2.376,32.724.756,6.588.756,6.588.864,8.532l18.252-.756c-.216-2.376-.324-3.78-.324-4.32,0-13.716,1.188-22.464,4.536-32.94l-8.316-2.808a196.848,196.848,0,0,1,5.184-41.9,61.3,61.3,0,0,1,3.132-10.692Zm119.34,2.052a130.567,130.567,0,0,1-15.12-.648v14.8a135.816,135.816,0,0,1,15.12-.648h25.272v3.24h-17.28c-6.48,0-9.18-.108-13.176-.324.324,3.672.432,6.912.432,12.744v19.44c0,5.508-.216,8.856-.432,12.636,3.888-.216,7.668-.324,12.96-.324H533.3c5.616,0,8.964.108,13.176.324-.432-3.132-.432-6.156-.432-12.636v-19.44c0-6.588,0-9.612.432-12.744-3.78.216-6.7.324-13.176.324H516.132v-3.24H541.08a138.006,138.006,0,0,1,15.228.648v-14.8a135.329,135.329,0,0,1-15.228.648H516.132a34.218,34.218,0,0,1,.54-5.724H498.96a39.723,39.723,0,0,1,.54,5.724ZM485.46-59.292h44.712v3.24H485.46Zm0,10.368h44.712v3.24H485.46Zm0,10.368h44.712v3.132H485.46Zm-1.3,30.132c-7.128,2.916-16.092,4.86-26.784,5.94a49.085,49.085,0,0,1,8.424,13.5,85.761,85.761,0,0,0,13.5-2.808c9.288-2.592,14.364-4.86,23.436-10.26l-7.56-6.372h24.948l-7.56,6.372C525.42,5.184,534.6,8.532,549.72,11.232c4.536-7.776,5.076-8.532,8.856-13.608-10.8-.972-19.872-3.024-27.108-6.048H544.86a108.031,108.031,0,0,1,12.42.648V-22.9a120.185,120.185,0,0,1-14.256.648H471.636A108.87,108.87,0,0,1,458.46-22.9v15.12a115.958,115.958,0,0,1,13.068-.648ZM649.836-89.532a66.582,66.582,0,0,1,.324,7.56c0,15.444-1.08,28.4-3.132,37.908-3.132,14.472-9.072,23-21.708,31.428a92.808,92.808,0,0,1-17.712,8.964,50.185,50.185,0,0,1,10.584,13.824C632.124,3.564,638.928-1.08,646.92-9.72c4.86,8.424,9.288,13.608,17.712,20.412a68.019,68.019,0,0,1,9.5-15.876c-8.748-5.616-13.5-10.476-17.712-18.144A67.467,67.467,0,0,0,662.8-41.58a219.246,219.246,0,0,0,3.348-31.428c.432-12.312.432-13.608.864-16.416ZM603.5-25.164a58.151,58.151,0,0,1-6.8,2.052l1.944,17.82c1.728-.756,15.552-7.236,16.632-7.776,7.992-4,13.392-6.8,22.14-11.88l-.324-15.336A184.419,184.419,0,0,1,619.7-31.536V-76.788a70.476,70.476,0,0,1,.648-12.1h-17.5a71.23,71.23,0,0,1,.648,12.1ZM578.772-2.916a94.423,94.423,0,0,1-.648,12.528h16.848a117.094,117.094,0,0,1-.648-12.528V-65.664a128.78,128.78,0,0,0,4.752-14.58c.432-1.62,1.188-4.428,1.836-6.372L585.36-91.8a83.033,83.033,0,0,1-6.048,21.276A65.634,65.634,0,0,1,568.62-52.272c2.592,6.156,3.564,9.612,5.508,19.332a51.444,51.444,0,0,0,4.86-7.128c-.216,3.132-.216,5.616-.216,9.936Zm69.552-54.216a203.007,203.007,0,0,0-14.364-25.7L620.352-74.52c6.372,9.5,9.18,14.9,13.932,26.784Zm39.42-2.052c4.644-.972,5.184-.972,15.228-2.052,20.2-1.62,23.976-1.944,26.352-2.16l5.076-.54c-5.184,3.564-7.776,5.724-10.584,9.18a36.972,36.972,0,0,0-9.18,24.408c0,13.716,6.588,23.652,19.332,29.592,6.912,3.132,15.012,4.968,27.324,6.048a27.622,27.622,0,0,1,4,.54l2.484-20.52c-1.62.108-2.376.108-3.24.108-6.8,0-16.308-1.728-20.628-3.888-6.156-2.916-9.072-7.128-9.072-13.392,0-8.856,6.372-17.928,17.172-24.516,7.452-4.644,17.172-7.56,24.732-7.56a16.423,16.423,0,0,1,3.024.216l-.972-19.548a9.107,9.107,0,0,1-2.484.432c-.54,0-1.188.108-4.86.216l-4.536.216-11.124.432c-20.52.756-31,1.3-46.548,2.268-11.772.756-15.66.972-18.468.972-.864,0-2.268,0-4.1-.108Zm65.124,9.4A67.153,67.153,0,0,1,763.344-33.8l10.368-4.752a69.622,69.622,0,0,0-10.476-15.66Zm15.12-6.372c3.672,4.212,6.372,8.316,10.26,15.552l10.044-4.644A74.642,74.642,0,0,0,777.708-60.48Zm40.176-5.076c2.484-.108,3.24-.108,8.1-.216,13.716,0,18.684-.216,28.188-1.188,1.3,2.916,2.16,4.86,2.484,5.724A275.486,275.486,0,0,1,817.452-55.4a92.17,92.17,0,0,1-11.124-.432l.756,15.984a80.79,80.79,0,0,1,9.4-.54c15.552-.432,27.972-1.188,37.152-2.376,2.16,3.456,3.78,6.048,4.968,7.668a71.6,71.6,0,0,0-14.9-1.3c-9.4,0-16.74,1.3-23.112,4-7.884,3.348-12.852,10.26-12.852,17.82a20.154,20.154,0,0,0,4,11.88c5.292,6.8,16.308,10.26,32.724,10.26a138.738,138.738,0,0,0,30.24-3.348,70.762,70.762,0,0,1,7.56-1.512l-2.484-18.252c-8.64,4.1-21.924,6.7-34.344,6.7-11.448,0-17.064-1.944-17.064-5.94,0-4.536,6.588-7.02,18.576-7.02,9.4,0,16.308,1.4,22.68,4.752l15.876-8.208a122.559,122.559,0,0,1-13.824-19.872c1.4-.324,6.372-1.188,6.48-1.188,10.8-2.268,10.8-2.268,13.284-2.592L889.812-64.8c-4.968,1.836-10.152,3.024-25.164,5.724-.432-.756-1.62-3.564-2.484-5.616,10.8-1.728,10.908-1.836,17.172-3.132,5.94-1.188,5.94-1.188,7.992-1.62l-1.512-15.768c-6.264,2.052-18.9,4.644-29.268,6.048C854.5-84.456,853.74-86.94,853.2-90.4l-18.9,2.268c.972,1.944,2.268,4.86,4.536,10.8-4.86.432-13.176.756-19.332.756a104.238,104.238,0,0,1-12.312-.54Zm128.952-29.7a72.128,72.128,0,0,1-1.62,12.852,37.123,37.123,0,0,0-.972,4.536c-2.16.108-2.7.108-3.888.108a88.289,88.289,0,0,1-15.768-1.08v17.28h4.212c2.484.108,2.484.108,4.968.108H930.1c-4.86,15.228-12.312,30.564-19.98,40.824L927.72-6.7a43.659,43.659,0,0,1,2.052-4.212c4.212-8.424,5.184-10.368,7.452-15.336A222.045,222.045,0,0,0,949-57.564c2.7-.216,8.64-.756,11.556-1.08,5.4-.648,5.4-.648,7.992-.864L968.22-77c-3.456,1.08-8.1,1.836-15.012,2.592.54-2.484.756-3.456,1.3-6.048,1.3-6.7,1.4-6.7,2.052-8.64Zm74.844,26.352c-10.044-5.832-18.9-9.72-32.508-14.58l-8.964,14.9a152.805,152.805,0,0,1,33.588,15.552Zm-.972,49.464c-3.24-2.592-4.968-4-5.292-4.212a79.1,79.1,0,0,0-16.632-9.612,96.175,96.175,0,0,1-.864-12.528,50.186,50.186,0,0,1,1.188-12.2l-17.82-.756c-.432,4.86-.648,8.316-.648,12.744,0,2.484.108,4.536.432,8.64a44.206,44.206,0,0,0-7.56-.648C948.78-33.7,938.3-24.948,938.3-12.42A18.863,18.863,0,0,0,943.7.972C948.132,5.508,955.476,8.1,964.116,8.1s16.2-2.484,20.412-6.7c2.916-3.024,4.212-6.156,4.536-11.232A57.84,57.84,0,0,1,1003,1.944Zm-39.312-1.836a10.994,10.994,0,0,1,.216,2.376c0,4.536-2.808,6.912-8.208,6.912-4.644,0-7.668-2.052-7.668-5.184,0-3.348,3.24-5.508,8.316-5.508A18.774,18.774,0,0,1,971.676-16.956Zm57.456-64.908a75.819,75.819,0,0,1,.432,7.668c.216,15.012.648,24.084,1.188,31.644,1.4,17.172,4.32,27.972,9.936,35.964,4.212,6.156,9.4,9.288,15.444,9.288,6.588,0,12.42-3.888,16.416-11.016a91.16,91.16,0,0,0,8.208-20.844c-7.128-5.184-10.044-7.668-15.012-13.608a109.714,109.714,0,0,1-5.616,18.684c-1.08,2.808-2.268,4.212-3.456,4.212-4.536,0-7.992-18.252-7.992-42.444a134.706,134.706,0,0,1,1.188-19.548Zm54.108,11.448c13.392,16.956,20.844,38.232,22.032,62.424L1124.6-15.12c-3.024-26.136-10.908-45.9-24.948-62.856Z" transform="translate(324 21427)"></path><path id="&#x30D1;&#x30B9;_33875" data-name="&#x30D1;&#x30B9; 33875" d="M16.956-85.212A99.8,99.8,0,0,1,4.428-85.86v14.9a82.294,82.294,0,0,1,11.556-.54H92.232a84.786,84.786,0,0,1,11.772.54v-14.9a76.183,76.183,0,0,1-11.88.648H61.992v-.54a39.5,39.5,0,0,1,.54-6.156H44.388a31.111,31.111,0,0,1,.54,6.7ZM78.84-6.372V-19.224a52.493,52.493,0,0,1,.324-6.48,68.419,68.419,0,0,1-8.1.324H37.692c-3.888,0-6.156-.108-8.748-.324a49.9,49.9,0,0,1,.324,6.264V-4.428a58.659,58.659,0,0,1-.432,8.64H44.6V.108H73.116A37.3,37.3,0,0,1,74.2,8.856c2.916.108,6.372.216,8.424.216,7.452,0,12.2-.756,14.8-2.484,3.132-2.052,3.888-4.428,3.888-12.96V-31.536a87.651,87.651,0,0,1,.432-9.828,93.847,93.847,0,0,1-10.908.432H18.468c-4.86,0-8.1-.108-11.88-.432a98.278,98.278,0,0,1,.432,9.828V-3.024A99.535,99.535,0,0,1,6.372,9.828h17.28a97.831,97.831,0,0,1-.54-12.852V-28.3h62.1V-7.452c0,1.62-.54,2.052-2.484,2.052-.756,0-1.62,0-3.888-.108ZM44.6-14.9H64.368v3.888H44.6ZM19.44-50.976a51.318,51.318,0,0,1-.432,7.452c3.456-.216,6.156-.324,10.692-.324H79.056c4.752,0,7.236.108,10.584.324a46.779,46.779,0,0,1-.432-7.452V-61.452A48.539,48.539,0,0,1,89.64-68.9c-3.132.216-5.616.324-10.26.324H29.916c-5.184,0-7.668-.108-10.908-.324a49.769,49.769,0,0,1,.432,7.344ZM35.316-58.32h37.8V-54h-37.8Zm117.5-33.048c-.54,3.78-1.836,7.344-4.644,12.96-7.02,13.824-15.552,23.652-28.728,32.94,7.128,4.32,9.828,6.7,15.336,12.96A101.316,101.316,0,0,0,159.3-59.616l28.728-.324c-4,12.42-10.044,22.572-18.036,30.672-9.5,9.5-20.736,16.416-36.072,22.032A49.92,49.92,0,0,1,146.88,9.18c17.712-8.1,29.916-16.632,39.744-27.864,9.5-10.8,16.848-24.84,22.356-42.768,1.512-4.86,1.836-5.508,3.132-7.668l-8.964-8.856c-2.592.972-3.78,1.188-7.992,1.188l-27.108.324c.756-1.512.756-1.512,2.16-4.644q.324-.648.972-2.268c.324-.648.54-1.3.756-1.62a15.877,15.877,0,0,1,1.3-2.7Zm134.136,63.5.216,20.52v1.512a79.2,79.2,0,0,1-.864,13.176h20.736a143.725,143.725,0,0,1-.756-14.9l-.54-46.548h6.912a130.088,130.088,0,0,1,15.12.54V-72.036a93.336,93.336,0,0,1-15.444.864h-6.8v-7.236a96.43,96.43,0,0,1,.432-10.476h-20.2a111.032,111.032,0,0,1,.648,12.2l.108,5.4h-33.8a129.144,129.144,0,0,1-16.632-.864v18.576a156.534,156.534,0,0,1,16.308-.648h22.248c-9.936,15.444-23.436,26.46-45.252,36.828,6.48,5.94,9.072,9.288,12.744,16.308,20.2-11.016,34.344-23.436,44.928-39.312-.108,4-.108,5.508-.108,8.208Zm71.5-58.536a108.134,108.134,0,0,1,.648,14.256V-50.76c0,8.1-.108,11.88-.648,15.768H379.4a141.383,141.383,0,0,1-.54-15.444V-71.928A130.067,130.067,0,0,1,379.4-86.4Zm50.22,0a104.615,104.615,0,0,1,.648,14.8v11.232c0,9.4-.54,18.9-1.188,22.9-1.728,9.5-6.588,15.876-16.092,20.952-5.508,2.916-11.016,4.644-21.384,6.588,5.832,6.7,8.532,11.232,11.016,18.468C392.256,5.508,397.98,3.24,404.136-.324c11.88-6.8,19.224-15.66,22.464-27.432,1.62-6.264,2.484-16.632,2.484-31.428V-71.82c0-6.912.108-8.532.54-14.58Zm129.06,45.684c9.612,0,10.584,0,16.848.54V-58.212c-4.86.648-7.56.756-17.172.756H477.252c-8.964,0-11.988-.108-16.632-.864v18.144a144.852,144.852,0,0,1,16.308-.54h22.14c-.864,17.28-9.4,26.892-29.16,32.724,6.48,6.156,8.748,9.288,12.636,17.064,14.9-6.048,23-12.2,28.944-21.924,4.86-8.1,6.912-15.228,7.776-27.864Zm-66.1-27.108c4.1-.432,7.02-.54,16.416-.54H526.5c11.016,0,12.744.108,16.956.54V-86.076c-4.752.756-7.236.864-17.28.864h-37.8c-9.4,0-11.88-.108-16.74-.864ZM642.6-72.468c-3.348,5.508-10.908,12.744-20.088,19.332-12.744,9.18-27.108,15.876-43.74,20.52a53.58,53.58,0,0,1,9.18,15.336C603.5-23,606.96-24.516,616.14-30.024V-7.452a99.069,99.069,0,0,1-.756,14.9h19.224a107.263,107.263,0,0,1-.648-14.9V-40.716a121.379,121.379,0,0,0,19.98-17.6,29.514,29.514,0,0,1,3.78-3.78Zm36.072,56.484A139.889,139.889,0,0,1,704.16,9.72L717.876-4.212c-8.964-10.26-15.984-16.848-26.352-24.192ZM806.436-85.212a99.8,99.8,0,0,1-12.528-.648v14.9a82.3,82.3,0,0,1,11.556-.54h76.248a84.787,84.787,0,0,1,11.772.54v-14.9a76.184,76.184,0,0,1-11.88.648H851.472v-.54a39.5,39.5,0,0,1,.54-6.156H833.868a31.11,31.11,0,0,1,.54,6.7ZM868.32-6.372V-19.224a52.493,52.493,0,0,1,.324-6.48,68.419,68.419,0,0,1-8.1.324H827.172c-3.888,0-6.156-.108-8.748-.324a49.9,49.9,0,0,1,.324,6.264V-4.428a58.662,58.662,0,0,1-.432,8.64h15.768V.108H862.6a37.3,37.3,0,0,1,1.08,8.748c2.916.108,6.372.216,8.424.216,7.452,0,12.2-.756,14.8-2.484,3.132-2.052,3.888-4.428,3.888-12.96V-31.536a87.641,87.641,0,0,1,.432-9.828,93.847,93.847,0,0,1-10.908.432h-72.36c-4.86,0-8.1-.108-11.88-.432a98.285,98.285,0,0,1,.432,9.828V-3.024a99.533,99.533,0,0,1-.648,12.852h17.28a97.831,97.831,0,0,1-.54-12.852V-28.3h62.1V-7.452c0,1.62-.54,2.052-2.484,2.052-.756,0-1.62,0-3.888-.108ZM834.084-14.9h19.764v3.888H834.084ZM808.92-50.976a51.313,51.313,0,0,1-.432,7.452c3.456-.216,6.156-.324,10.692-.324h49.356c4.752,0,7.236.108,10.584.324a46.775,46.775,0,0,1-.432-7.452V-61.452a48.534,48.534,0,0,1,.432-7.452c-3.132.216-5.616.324-10.26.324H819.4c-5.184,0-7.668-.108-10.908-.324a49.764,49.764,0,0,1,.432,7.344ZM824.8-58.32h37.8V-54H824.8ZM977.4-2.484V3.888h20.3a163.038,163.038,0,0,1-.648-17.82V-70.308c0-5.4.108-7.236.324-11.016-3.132.216-6.156.324-11.988.324H935.82c-10.26,0-13.716-.216-18.9-.972v19.656c4.536-.432,8.64-.54,18.576-.54h41.9v42.228H934.2c-10.692,0-13.608-.108-18.792-.864V-1.836c4.86-.54,8.532-.648,18.468-.648Zm142.128-6.7c-16.848-16.092-21.276-19.872-34.344-29.268,6.048-8.1,10.152-15.66,15.876-29.16,1.62-3.672,2.268-4.752,3.888-6.372l-9.5-9.72c-2.916,1.08-3.564,1.08-8.64,1.188l-36.936.54c-3.132.108-5.184.108-6.048.108a80.013,80.013,0,0,1-11.34-.756l.54,19.224c4.428-.648,7.884-.864,17.172-1.08l28.08-.432a86.882,86.882,0,0,1-21.708,31.752,101.849,101.849,0,0,1-34.992,21.816c6.048,6.264,8.316,9.5,12.1,17.064,16.74-8.1,29.592-17.6,39.744-29.592a173.642,173.642,0,0,1,31,30.672Zm36.936-72.684c-.54,28.836-10.692,58.32-25.38,73.224a75.943,75.943,0,0,1,17.6,12.852c14.256-17.5,22.464-39.96,26.784-73.008l.432-2.484.324-2.16a15.328,15.328,0,0,1,.432-3.024,7.49,7.49,0,0,1,.324-1.728Zm33.156,3.456.432,1.3.108,1.08.756,4.1c0,.216.108.972.216,2.052,4.1,30.24,13.5,55.188,27.864,74.088A75.085,75.085,0,0,1,1236.06-9.4c-11.448-13.824-18.252-27.864-23.652-48.708-1.836-7.02-3.888-19.548-3.888-23.544v-.324Zm35.208-7.56a12.123,12.123,0,0,0-12.2,12.2,12.261,12.261,0,0,0,12.2,12.2,12.169,12.169,0,0,0,12.1-12.2A12.1,12.1,0,0,0,1224.828-85.968Zm0,6.048a6.2,6.2,0,0,1,6.048,6.156,6.2,6.2,0,0,1-6.156,6.048,6.181,6.181,0,0,1-6.048-6.048A6.224,6.224,0,0,1,1224.828-79.92Z" transform="translate(344 21572)" fill="#fff"></path></g></svg>