<svg xmlns="http://www.w3.org/2000/svg" width="1673.351" height="420.443" viewBox="0 0 1673.351 420.443"><g id="&#x30B0;&#x30EB;&#x30FC;&#x30D7;_19570" data-name="&#x30B0;&#x30EB;&#x30FC;&#x30D7; 19570" transform="translate(-129.027 -445.926)"><path id="&#x30D1;&#x30B9;_36624" data-name="&#x30D1;&#x30B9; 36624" d="M22.3-64.664H16.874a75.628,75.628,0,0,1-11.682-.59v17.7a78.477,78.477,0,0,1,11.682-.59H21v11.21h-2.36a73.779,73.779,0,0,1-11.682-.59V-20.06a56.971,56.971,0,0,1,9.912-.59h.944C13.806-11.446,10.5-6.49,3.894.118L18.408,11.21c7.08-8.26,10.266-13.806,15.1-25.724L21-20.65H95.226L84.37-15.458A131.591,131.591,0,0,1,98.412,10.5L114.46.59c-7.552-13.1-8.85-14.986-14.042-21.24a64.746,64.746,0,0,1,11.092.59V-37.406a80.059,80.059,0,0,1-11.21.472h-.944v-11.21h3.186a76.567,76.567,0,0,1,11.682.59v-17.7a75.628,75.628,0,0,1-11.682.59H99.356V-75.52a92,92,0,0,1,10.5.708v-17.7a121.19,121.19,0,0,1-15.1.708H40c1.062-1.534,2.124-3.068,2.832-4.366a18.239,18.239,0,0,1,2.124-3.186l-18.88-3.068a27.408,27.408,0,0,1-2.714,5.192C18.762-90.27,12.626-84.488,2.6-77.762A50.977,50.977,0,0,1,13.924-65.136,106.4,106.4,0,0,0,22.3-71.862ZM37.052-75.52H42.48v10.856H37.052Zm20.414,0h5.546v10.856H57.466ZM37.052-48.144H42.48v11.21H37.052Zm20.414,0h5.546v11.21H57.466ZM77.88-36.934v-11.21h5.664v11.21Zm0-27.73V-75.52h5.664v10.856Zm5.546,71.39A170.7,170.7,0,0,0,76.582-19l-16.4,3.422C62.54-7.2,63.6-1.18,65.254,10.384ZM55.578,9.44c-.236-9.322-.826-15.222-2.714-27.376L36.462-16.4A193.97,193.97,0,0,1,37.524,4.366c0,2.242,0,3.186-.236,6.372ZM183.844-8.024c2.478-.826,4.72-1.3,11.446-2.714L216.412-15.1V-4.13c0,7.788-.118,10.62-.708,15.1h19.47c-.59-4.366-.708-7.316-.708-14.986v-14.75c4.956-1.062,8.024-1.534,10.738-1.888l-1.18-18.408a81.108,81.108,0,0,1-9.558,2.6V-85.2c0-7.552.118-10.738.708-14.868H215.7c.59,4.13.708,7.316.708,14.868v6.254c-5.074-4.956-9.086-8.142-18.172-14.4l-11.21,12.39c9.912,7.316,12.626,9.676,20.178,17.464l9.2-11.328V-32.8l-22.774,4.72A90.2,90.2,0,0,1,182.9-26.668c.826-1.888,1.18-2.714,2.36-5.31a60.444,60.444,0,0,1-13.806-13.57h3.894a54.044,54.044,0,0,1,9.676.59v-5.664c6.726,4.956,11.21,8.968,18.644,16.756L214.524-47.2a128.687,128.687,0,0,0-20.06-16.756l-9.44,10.384V-62.3a43.388,43.388,0,0,1-9.2.59h-5.546v-6.844l9.086,5.428c3.658-7.316,6.136-14.514,9.2-25.606l-12.272-5.9a132.032,132.032,0,0,1-6.018,21.948V-89.8a76.022,76.022,0,0,1,.472-10.384h-18.29a81.442,81.442,0,0,1,.472,10.5v27.966H146.32c-5.782,0-8.26-.118-10.974-.59v17.346a67.334,67.334,0,0,1,11.092-.59h4.484A71.219,71.219,0,0,1,133.34-19.706a78.085,78.085,0,0,1,7.67,17.818c4.956-5.428,7.434-9.322,12.272-19.352-.236,2.832-.236,5.428-.236,9.676V-.944a83.876,83.876,0,0,1-.708,11.918h18.526a72.252,72.252,0,0,1-.59-11.446V-17.464a92.068,92.068,0,0,0-.354-9.2A53.682,53.682,0,0,0,178.888-15.1c1.3-4.366,1.888-6.254,3.186-9.794ZM134.284-88.5c3.068,8.26,4.6,14.4,6.372,25.134L152.81-69.5c-1.652-9.2-3.186-14.75-6.608-25.252ZM287.448-76.818c-8.378,0-10.5-.118-16.4-.944l.118,20.178a120.755,120.755,0,0,1,15.93-.708h14.75c-1.652,9.912-2.95,14.16-5.9,20.178-5.9,11.918-14.986,20.3-30.68,28.556C271.754-4.012,275.294,0,280.6,8.378,304.558-7.434,315.768-22.774,320.96-46.61a101.157,101.157,0,0,0,1.77-11.8h22.538a272.581,272.581,0,0,1-2.242,32.922c-1.534,10.266-2.95,12.154-8.614,12.154a67.591,67.591,0,0,1-15.34-2.36c2.714,7.434,3.54,11.328,4.012,20.768,9.086.826,10.856.944,15.458.944,13.1,0,18.762-3.776,22.184-14.75,2.36-7.788,4.13-27.494,4.956-52.746.118-5.428.354-6.372,1.652-8.732l-9.2-8.024c-2.6,1.062-4.012,1.3-7.906,1.3H324.5c.236-2.832.236-2.832.354-6.018.708-11.21.708-11.564,1.3-14.278l-22.184-.59a33.021,33.021,0,0,1,.354,5.9c0,3.658-.236,10.5-.59,15.1ZM458.548-80V-87.32a72.38,72.38,0,0,1,.472-10.738H436.364a78.652,78.652,0,0,1,.708,10.856V-80H415.95a118.835,118.835,0,0,1-14.75-.708c.354,4.6.59,7.906.59,12.744v16.4a104.813,104.813,0,0,1-.708,12.98h22.066a114.673,114.673,0,0,1-.472-12.39v-10.5H473.77c-1.652,14.514-6.726,25.252-15.812,33.866C449.344-19.47,437.9-14.16,420.2-10.148c6.608,7.316,9.44,11.564,13.216,19.942,11.092-3.894,16.992-6.372,23.6-10.266,13.806-7.906,23.718-18.29,30.326-31.742,4.484-8.968,7.08-18.29,9.086-32.8.59-4.366.826-5.192,2.006-7.2L489.464-81.3c-2.478,1.062-4.012,1.3-9.676,1.3Zm71.39,5.31a126.022,126.022,0,0,1,32.1,24.9L575.958-68.2c-9.912-8.968-17.582-14.4-32.45-23.128Zm7.316,79.3c3.186-.944,3.894-1.062,8.5-2.124,21.948-5.074,33.158-9.44,45.9-17.7,16.52-10.62,27.73-24.544,38.468-47.79-8.85-6.49-11.564-8.85-17.346-15.812A108.637,108.637,0,0,1,601.21-55.7c-9.086,14.16-19.706,23.01-34.574,29.146a118.4,118.4,0,0,1-35.518,8.5ZM679.208-70.092,670-69.03c-3.894.354-9.44.826-11.092.826-.59,0-2.124-.118-4.366-.236l2.006,20.3c4.6-1.18,6.136-1.416,15.576-2.478l7.08-.826v25.724c0,11.328.118,12.98,1.3,17.11A17.069,17.069,0,0,0,691.48,2.6c4.6,1.416,12.39,2.124,22.656,2.124,6.844,0,20.178-.826,31.506-1.888,2.478-.236,2.6-.354,5.546-.472h1.888l-.708-22.066c-10.266,3.186-23.6,4.956-38,4.956-6.962,0-11.21-.59-12.508-1.888-1.652-1.3-1.888-3.186-1.888-11.8V-53.69l32.332-3.776a39.8,39.8,0,0,1-8.614,10.856,61.953,61.953,0,0,1-12.39,9.086,62.254,62.254,0,0,1,16.52,13.334c8.26-6.372,12.508-10.384,16.992-16.166A112.159,112.159,0,0,0,757.56-61.242c2.006-4.484,2.006-4.484,3.894-6.49l-11.8-10.856c-2.36,1.062-3.658,1.416-8.378,1.888l-41.182,4.484v-9.44c0-6.962.236-10.266.944-14.16H678.382a97.891,97.891,0,0,1,.826,14.632ZM798.742-94.4a118.148,118.148,0,0,1,.708,15.576V-55.46c0,8.85-.118,12.98-.708,17.228h22.892a154.483,154.483,0,0,1-.59-16.874V-78.588a142.118,142.118,0,0,1,.59-15.812Zm54.87,0c.59,5.074.708,7.552.708,16.166v12.272c0,10.266-.59,20.65-1.3,25.016-1.888,10.384-7.2,17.346-17.582,22.892-6.018,3.186-12.036,5.074-23.364,7.2C818.448-3.54,821.4,1.416,824.112,9.322c11.564-3.3,17.818-5.782,24.544-9.676,12.98-7.434,21-17.11,24.544-29.972,1.77-6.844,2.714-18.172,2.714-34.338V-78.47c0-7.552.118-9.322.59-15.93Zm65.726,19.706a126.022,126.022,0,0,1,32.1,24.9L965.358-68.2c-9.912-8.968-17.582-14.4-32.45-23.128Zm7.316,79.3c3.186-.944,3.894-1.062,8.5-2.124,21.948-5.074,33.158-9.44,45.9-17.7,16.52-10.62,27.73-24.544,38.468-47.79-8.85-6.49-11.564-8.85-17.346-15.812A108.637,108.637,0,0,1,990.61-55.7c-9.086,14.16-19.706,23.01-34.574,29.146a118.4,118.4,0,0,1-35.518,8.5Zm209.214-83.544,3.658-1.3a69.846,69.846,0,0,0-9.794-18.054l-11.682,3.776a71.366,71.366,0,0,1,6.726,11.328h-2.6l-26.786.236a13.24,13.24,0,0,0,.944-2.006c.118-.118.59-1.3,1.416-3.068.118-.354.59-1.416,1.062-2.478.354-.826.708-1.534.826-1.888.708-1.534.826-1.652,1.416-2.832l-22.3-4.012c-.354,3.422-2.006,8.024-5.074,14.16a94.328,94.328,0,0,1-31.388,35.99c7.316,4.366,11.092,7.67,16.756,14.16a113.834,113.834,0,0,0,26.786-29.618l31.388-.354c-8.732,27.494-27.966,46.256-59.118,57.466a60.053,60.053,0,0,1,14.16,18.054c35.4-15.93,55.342-37.878,66.552-73.278a52.882,52.882,0,0,1,3.068-8.024Zm-.708-20.65c3.658,5.074,6.372,10.266,9.676,18.054l11.21-4.13a79.019,79.019,0,0,0-9.794-17.582ZM1234.4-54.4c10.384,12.626,24.662,21.476,42.716,26.314a52.256,52.256,0,0,1,6.962-16.756c-11.682-1.416-21.594-4.72-27.966-9.558h10.5a123.518,123.518,0,0,1,14.868.708V-69.738a116.944,116.944,0,0,1-15.222.708h-5.192l14.16-7.788A176.873,176.873,0,0,0,1250.21-100.3l-13.924,6.844c2.95,2.478,4.012,3.422,6.136,5.31-7.316.472-16.166.708-23.836.708,2.36-2.832,4.012-4.838,6.254-7.906,1.77-2.242,1.77-2.242,2.478-3.186l-19.352-3.422a78.778,78.778,0,0,1-9.676,14.4c-8.26,0-12.98-.236-16.874-.59l1.77,15.222c2.832-.236,4.248-.236,6.136-.236,11.564-.118,11.564-.118,23.718-.354a22.38,22.38,0,0,1-2.006,4.484h-22.656a124.341,124.341,0,0,1-14.986-.708V-53.69c4.484-.472,10.148-.708,15.222-.708h6.49c-7.2,4.13-12.98,6.018-25.134,8.26a51.32,51.32,0,0,1,8.142,14.75c4.366-1.3,6.49-1.888,9.086-2.832a34.046,34.046,0,0,1,6.018,11.21c12.508-2.242,19.706-4.248,28.084-8.024a107.425,107.425,0,0,0,20.65-11.918l-12.39-8.85a45.325,45.325,0,0,1-8.85,6.372c-7.788,4.366-16.992,7.434-27.848,9.2,12.272-4.956,20.414-10.266,27.848-18.172ZM1230.74-69.03c.826-1.534,1.3-2.832,2.36-5.31,8.024-.354,14.986-.826,21.122-1.416,1.534,1.77,1.534,1.77,5.546,6.726Zm28.438,39.648c-2.478,2.832-7.434,6.608-12.39,9.676-17.11,10.384-35.636,15.458-60.77,16.756a46.564,46.564,0,0,1,8.26,15.222c21.948-2.478,37.642-6.608,52.392-14.042,9.794-4.838,13.452-7.316,27.376-18.762ZM1243.956-40.12c-2.124,2.478-7.2,5.9-13.688,9.2-13.216,6.726-27.612,10.62-44.6,11.918a35.6,35.6,0,0,1,7.08,12.862c16.52-2.36,27.14-5.074,38.114-9.794,9.794-4.248,14.4-6.962,25.96-15.812ZM1336.35-81.3c.118-2.832.118-3.894.236-6.726,0-7.08.118-8.732.59-11.918H1318.06a102.728,102.728,0,0,1,.59,12.272V-81.3h-3.068a89.409,89.409,0,0,1-12.98-.59V-63.72a78.135,78.135,0,0,1,11.328-.59h4.012c-1.062,15.812-2.6,25.606-5.546,34.456A80.963,80.963,0,0,1,1299.77-6.136a64.648,64.648,0,0,1,13.452,17.464C1320.774.236,1325.14-8.614,1328.68-20.3c4.012-13.1,5.782-24.308,6.962-44.014h6.136c-.236,25.488-.708,36.462-2.36,47.672-1.062,7.434-1.77,8.5-5.428,8.5a60.189,60.189,0,0,1-8.968-1.18,63.147,63.147,0,0,1,3.068,17.464c4.13.354,7.2.472,9.794.472,18.762,0,20.886-7.552,21.476-78.47.118-6.254.118-8.142.472-11.918-3.894.354-7.552.472-14.042.472ZM1381.072.118h10.738v8.5h18.408c-.59-3.658-.708-7.67-.708-14.632V-77.762a93.535,93.535,0,0,1,.59-12.39,89.523,89.523,0,0,1-11.092.472h-24.9a99.81,99.81,0,0,1-11.092-.472,95.706,95.706,0,0,1,.59,12.39V-4.838A109.056,109.056,0,0,1,1362.9,8.85h18.172Zm0-73.042h10.738V-16.4h-10.738Zm52.644,25.248c3.741-.783,4.176-.783,12.267-1.653,16.269-1.305,19.314-1.566,21.228-1.74l4.089-.435c-4.176,2.871-6.264,4.611-8.526,7.4a29.783,29.783,0,0,0-7.4,19.662c0,11.049,5.307,19.053,15.573,23.838,5.568,2.523,12.093,4,22.011,4.872a22.249,22.249,0,0,1,3.219.435l2-16.53c-1.305.087-1.914.087-2.61.087-5.481,0-13.137-1.392-16.617-3.132-4.959-2.349-7.308-5.742-7.308-10.788,0-7.134,5.133-14.442,13.833-19.749,6-3.741,13.833-6.09,19.923-6.09a13.23,13.23,0,0,1,2.436.174l-.783-15.747a7.336,7.336,0,0,1-2,.348c-.435,0-.957.087-3.915.174l-3.654.174-8.961.348c-16.53.609-24.969,1.044-37.5,1.827-9.483.609-12.615.783-14.877.783-.7,0-1.827,0-3.306-.087Zm52.461,7.569a54.094,54.094,0,0,1,8.439,12.876l8.352-3.828a56.085,56.085,0,0,0-8.439-12.615Zm12.18-5.133a62.292,62.292,0,0,1,8.265,12.528l8.091-3.741a60.126,60.126,0,0,0-8.526-12.267Z" transform="translate(202.5 549.176)" fill="#fff"></path><path id="&#x30D1;&#x30B9;_36625" data-name="&#x30D1;&#x30B9; 36625" d="M121.44-87.216A15.46,15.46,0,0,0,136.9-102.81,15.491,15.491,0,0,0,121.3-118.4a15.314,15.314,0,0,0-15.456,14.9H35.466c-14.076,0-17.94-.276-23.184-1.1v24.84c4.83-.552,8.142-.69,22.77-.828H92.736C84.87-48.438,60.03-24.012,23.322-12.558,32.292-3.864,36.156,1.38,40.71,10.626c43.884-19.6,67.9-47.472,79.212-91.77l.828-3.588c.138-.414.276-.828.414-1.38l.138-.552Zm-.138-23.46a7.952,7.952,0,0,1,7.866,7.866,7.926,7.926,0,0,1-7.866,7.728,7.926,7.926,0,0,1-7.866-7.728A7.952,7.952,0,0,1,121.3-110.676Zm61,.138a109.891,109.891,0,0,1,.828,15.042v2.208l-.552,76.728c-.138,6.9-.276,8.418-1.656,11.316L193.2,9.108c2.346-1.38,3.174-1.518,8.28-2.484,40.71-7.038,66.24-23.046,86.25-53.958-8-6.072-12.282-10.764-18.63-19.872-12.558,24.978-33.258,40.71-61.134,46.92l.828-73.14a132.6,132.6,0,0,1,.966-16.974ZM376.05-83.766v-11.04c0-8.556.276-12.834,1.1-16.56h-26.5c.552,3.588.828,8.418.966,17.112v12.972L340.86-80.04c-4.554.414-11.04.966-12.972.966-.69,0-2.484-.138-5.106-.276l2.346,23.736c5.244-1.242,7.038-1.656,18.216-2.9l8.28-.966v30.084c0,13.248.138,15.18,1.518,20.01a19.963,19.963,0,0,0,12.834,13.11c5.382,1.656,14.49,2.484,26.5,2.484,8,0,23.6-.966,36.846-2.208,1.38-.138,2.346-.276,2.76-.276.552-.138,1.794-.138,3.726-.276h2.208l-.828-25.806c-11.73,3.588-27.462,5.8-42.918,5.8-7.452,0-11.316-.276-13.938-1.1-4-1.1-4.416-2.622-4.416-14.9V-62.1l37.812-4.416c-4.416,8.418-13.8,17.25-24.564,23.322A74.471,74.471,0,0,1,408.48-27.6c15.87-12.006,25.116-23.46,34.086-42.09,2.208-4.83,2.484-5.106,4.692-7.59l-14.352-12.7,3.45-1.656a98.585,98.585,0,0,0-13.662-19.734l-13.11,5.934A83.1,83.1,0,0,1,421.314-88.6Zm52.578-30.222a105.948,105.948,0,0,1,13.524,19.734l12.7-6.21a97.014,97.014,0,0,0-13.8-19.182Zm60.03,26.634c13.8,7.452,25.53,16.56,37.536,29.118l16.284-21.528c-11.592-10.488-20.562-16.836-37.95-27.048Zm8.556,92.736c3.726-1.1,4.554-1.242,9.936-2.484,25.668-5.934,38.778-11.04,53.682-20.7,19.32-12.42,32.43-28.7,44.988-55.89-10.35-7.59-13.524-10.35-20.286-18.492A127.05,127.05,0,0,1,572.01-65.136c-10.626,16.56-23.046,26.91-40.434,34.086a138.473,138.473,0,0,1-41.538,9.936Zm197.478,2.76a202.358,202.358,0,0,1-.828-21.114v-35.88c1.38.828,1.38.828,6.21,2.76a255.8,255.8,0,0,1,43.47,24.012l13.11-23.46a292.706,292.706,0,0,0-62.79-28.7V-93.15c0-9.246.138-16.146.69-20.148H667.92c.828,7.452.966,8.832.966,20.01v80.316a196.961,196.961,0,0,1-.828,21.114Zm135.24-39.33a60.293,60.293,0,0,1-.276-6.072c0-2.208.138-5.382.414-10.9l2.76-43.746c.552-7.452.966-13.248,1.656-18.63H802.332c.552,4.278,1.242,11.73,1.656,18.63l2.76,43.746c.552,8.28.552,8.28.552,9.8a62.381,62.381,0,0,1-.276,7.176Zm2.484,35.466V-21.8H804.678V4.278Z" transform="translate(967.892 801.664)" fill="#fff"></path><path id="&#x30D1;&#x30B9;_36623" data-name="&#x30D1;&#x30B9; 36623" d="M32.747-142.667a242.2,242.2,0,0,1,27.938-1.6h9.16V-27.48A262.8,262.8,0,0,1,68.013,7.1h49.922A265.053,265.053,0,0,1,116.1-27.48v-120a355.525,355.525,0,0,1,1.6-36.869c-9.16.916-12.137.916-28.4.916H60.227c-13.282,0-19.236-.229-27.48-1.6Zm209.306-3.893h53.128a370.955,370.955,0,0,1,37.327,1.6v-40.075c-9.16,1.145-17.633,1.6-37.785,1.6H226.252c-10.992,0-13.282,0-22.9-.458-.229,8.7-.458,14.2-.916,19.007l-6.183,71.448c-.687,6.412-1.374,11.908-2.29,18.778l42.594,4.122c5.038-11.221,14.427-16.946,28.854-16.946,19.236,0,31.6,11.908,31.6,30.228s-12.824,30.457-32.06,30.457c-16.488,0-26.106-7.1-30-22.213l-46.029,7.1c3.435,11.908,6.183,18.549,11.45,25.648,13.282,18.32,35.953,28.167,64.807,28.167,48.548,0,77.4-26.106,77.4-70.074,0-19.236-5.725-34.121-17.175-45.8-12.137-12.366-28.854-18.778-49.235-18.778-14.885,0-26.793,3.435-37.1,10.992.458-3.893.687-6.183.687-7.328ZM478.964-72.85a177.493,177.493,0,0,1,21.7.93V-97.96a203.984,203.984,0,0,1-21.855.93h-35.34v-5.27c.31-20.15.31-20.15,1.24-26.195H416.344a90.534,90.534,0,0,1,1.085,16.585c0,5.115,0,8.68-.155,14.88H383.949a191.113,191.113,0,0,1-21.7-.93v26.04c6.2-.775,10.23-.93,21.855-.93h31.155c-2.17,15.035-7.44,26.505-17.05,37.045C387.824-24.18,375.889-16.43,357.444-9.3a106.418,106.418,0,0,1,15.035,23.25A136.2,136.2,0,0,0,388.6,5.735a117.864,117.864,0,0,0,26.35-22.165,97.66,97.66,0,0,0,17.67-28.055A108.8,108.8,0,0,0,456.954-9.92c10.075,9.61,20,16.585,34.565,23.87a101.2,101.2,0,0,1,15.5-24.955c-17.2-6.82-29.45-14.57-40.145-25.265-10.385-10.54-18.445-23.56-22.63-36.58ZM595.989-36.27l-14.725,8.68A106.657,106.657,0,0,1,599.709-2.17l6.82-5.27c2.325,5.89,3.565,11.005,4.495,20.15,4.96.31,9.61.465,12.865.465,20.46,0,27.435-4.495,27.435-17.98V-36.27a97.078,97.078,0,0,1,14.26.93V-58.28c-3.255.465-6.2.62-14.26.62v-8.215c4.96,0,10.85.31,15.19.775V-87.575a181.849,181.849,0,0,1-19.065.775H632.1v-9.3h12.4a175.373,175.373,0,0,1,17.67.775V-118.42a139.6,139.6,0,0,1-17.67.93H632.1v-3.41a53.889,53.889,0,0,1,.775-10.7h-24.49a71.039,71.039,0,0,1,.775,10.85v3.255h-8.99a133.4,133.4,0,0,1-17.205-.93v23.095a169.763,169.763,0,0,1,17.205-.775h8.99v9.3h-12.09c-6.355,0-11.315-.155-16.74-.465v-16.12a51.683,51.683,0,0,1-11.005.775v-16.43a78.809,78.809,0,0,1,.93-12.71h-24.49a83.068,83.068,0,0,1,.93,12.71v16.43h-4.185v-3.565c.155-7.285.155-8.215.465-10.385l-18.135-2.015a51.659,51.659,0,0,1,.465,7.13c0,15.965-2.17,31.465-6.045,44.02,6.51,2.48,9.61,4.185,16.9,8.835a116.31,116.31,0,0,0,4.495-22.32H546.7v29.3c-13.795,3.565-18.6,4.5-25.42,5.27l4.185,24.335c4.185-1.7,4.185-1.7,12.555-4.03,2.79-.93,4.495-1.4,8.68-2.79V-5.115a171.459,171.459,0,0,1-.93,19.53h24.49a183.381,183.381,0,0,1-.93-19.53v-31.62c3.875-1.4,4.34-1.55,9.455-3.72v5.115a91.84,91.84,0,0,1,15.19-.93Zm32.55,0V-12.4c0,3.41-1.085,4.185-6.045,4.185A132.046,132.046,0,0,1,609.009-9.3l9.765-7.44a92.825,92.825,0,0,0-15.81-19.53Zm-59.21-44.64c3.565,0,3.565,0,8.525.31v15.5c4.65-.62,9.61-.775,19.22-.775h31.465v8.215H597.384a153.954,153.954,0,0,1-17.05-.62v-4.185c-7.285,2.635-7.285,2.635-11.005,4.03ZM729.6-115.63h-19.22c-6.355,0-10.54-.155-15.655-.62a122.875,122.875,0,0,1,.62,13.95v56.265c-4.495-.31-6.2-.465-9.765-.93V-23.56a171.351,171.351,0,0,1,20.3-.93h19.84c-12.245,8.835-22.94,13.175-42.935,17.36,6.045,7.285,8.99,11.78,14.1,21.855,12.09-3.565,17.825-5.89,26.35-10.54,8.835-4.8,14.26-8.525,24.645-17.2l-13.95-11.47h43.245L764.009-12.865c11.315,8.99,16.895,12.71,25.42,17.2,9.3,4.805,16.12,7.44,29.295,10.85,4.03-9.3,6.665-14.26,12.555-22.165-20.615-4.03-32.705-8.68-45.26-17.515h22.63a181,181,0,0,1,20.615.93V-46.965a65.216,65.216,0,0,1-9.765.93V-101.99a120.079,120.079,0,0,1,.62-14.26,134.687,134.687,0,0,1-15.655.62H785.089c0-8.37.155-10.54.93-15.345h-23.87c.62,4.03.62,5.115.775,15.345h-11.16v-2.015c0-6.975.155-9.3.775-13.33h-23.87c.775,3.875.93,6.51.93,14.57Zm0,69.595h-11.16V-60.45H729.6Zm22.165,0V-60.45h11.16v14.415Zm33.325,0V-60.45H796.4v14.415ZM729.6-81.685h-11.16v-12.4H729.6Zm22.165,0v-12.4h11.16v12.4Zm33.325,0v-12.4H796.4v12.4Z" transform="translate(109.108 807.986)" fill="#f6c44c"></path><path id="&#x7DDA;_30" data-name="&#x7DDA; 30" d="M813.408,7.5H0v-15H813.408Z" transform="translate(129.027 858.869)" fill="#f6c44c"></path></g></svg>