<svg xmlns="http://www.w3.org/2000/svg" width="223.15" height="189.314" viewBox="0 0 223.15 189.314"><path id="&#x30D1;&#x30B9;_33832" data-name="&#x30D1;&#x30B9; 33832" d="M142.611-106.869a174.46,174.46,0,0,1-6.791,47.537q-6.791,23.947-17.514,38.244Q100.316,2.621,72.438,2.621q-27.045,0-42.771-21.684Q14.059-40.746,14.059-78.156q0-45.869,20.73-77.2,20.969-31.334,51.23-31.334,25.854,0,41.223,21.684T142.611-106.869Zm-26.568-1.311q0-25.5-7.982-39.555Q100.078-162.15,86.02-162.15q-19.182,0-32.406,25.258Q40.508-111.635,40.508-74.82q0,24.781,8.1,38.959Q56.83-21.922,71.127-21.922q17.871,0,29.9-20.254,6.672-11.318,10.723-29.785A161.892,161.892,0,0,0,116.043-108.18Zm121.166-75.773L214.572,0H187.289l19.658-158.576H170.729l12.391-25.377Z" transform="translate(-14.059 186.693)" fill="#b9adff"></path></svg>