<svg xmlns="http://www.w3.org/2000/svg" width="302" height="302" viewBox="0 0 302 302"><g id="&#x30B0;&#x30EB;&#x30FC;&#x30D7;_19571" data-name="&#x30B0;&#x30EB;&#x30FC;&#x30D7; 19571" transform="translate(-811 -53)"><g id="&#x30B0;&#x30EB;&#x30FC;&#x30D7;_9002" data-name="&#x30B0;&#x30EB;&#x30FC;&#x30D7; 9002" transform="translate(811.483 53.121)"><g id="&#x6955;&#x5186;&#x5F62;_138" data-name="&#x6955;&#x5186;&#x5F62; 138" transform="translate(-0.483 -0.121)" fill="#533afc" stroke="#fff" stroke-width="10"><circle cx="151" cy="151" r="151" stroke="none"></circle><circle cx="151" cy="151" r="146" fill="none"></circle></g></g><path id="&#x30D1;&#x30B9;_33820" data-name="&#x30D1;&#x30B9; 33820" d="M19.05-32.625A60.837,60.837,0,0,1,26.925-33H47.85c2.925,0,5.625.15,8.1.375v-5.25a93.249,93.249,0,0,0,12.525,6.3,44.493,44.493,0,0,1,5.475-11.85,64.741,64.741,0,0,1-23.325-12.6,34.164,34.164,0,0,1-7.2-7.575H30.975a19.646,19.646,0,0,1-2.55,3.375,80.336,80.336,0,0,1-9.75,8.7A64.912,64.912,0,0,1,1.125-42.9a36.528,36.528,0,0,1,5.7,11.025A76.918,76.918,0,0,0,19.05-37.95ZM26.925-43.2A55.985,55.985,0,0,0,37.35-53.325,56.026,56.026,0,0,0,48.075-43.2ZM61.8-28.2c-1.5.375-3.225.45-7.2.45H19.575c-3.6,0-6.75-.15-10.05-.45v11.625c3.525-.3,6.675-.45,9.975-.45H50.325L40.2-4.275a53.428,53.428,0,0,1-5.55,6.15L46.2,8.25c1.95-3,2.85-4.275,4.575-6.525L64.725-16.65a44.853,44.853,0,0,1,3.525-4.2ZM95.775-63.15a50.084,50.084,0,0,1-1.125,8.925,25.774,25.774,0,0,0-.675,3.15c-1.5.075-1.875.075-2.7.075a61.312,61.312,0,0,1-10.95-.75v12H83.25c1.725.075,1.725.075,3.45.075h4.2C87.525-29.1,82.35-18.45,77.025-11.325L89.25-4.65a30.314,30.314,0,0,1,1.425-2.925c2.925-5.85,3.6-7.2,5.175-10.65a154.2,154.2,0,0,0,8.175-21.75c1.875-.15,6-.525,8.025-.75,3.75-.45,3.75-.45,5.55-.6l-.225-12.15a57.725,57.725,0,0,1-10.425,1.8c.375-1.725.525-2.4.9-4.2a32.781,32.781,0,0,1,1.425-6Zm51.975,18.3a125.136,125.136,0,0,0-22.575-10.125l-6.225,10.35a106.115,106.115,0,0,1,23.325,10.8Zm-.675,34.35c-2.25-1.8-3.45-2.775-3.675-2.925A54.928,54.928,0,0,0,131.85-20.1a66.787,66.787,0,0,1-.6-8.7,34.85,34.85,0,0,1,.825-8.475L119.7-37.8c-.3,3.375-.45,5.775-.45,8.85,0,1.725.075,3.15.3,6a30.7,30.7,0,0,0-5.25-.45c-10.425,0-17.7,6.075-17.7,14.775a13.1,13.1,0,0,0,3.75,9.3c3.075,3.15,8.175,4.95,14.175,4.95S125.775,3.9,128.7.975c2.025-2.1,2.925-4.275,3.15-7.8a40.166,40.166,0,0,1,9.675,8.175Zm-27.3-1.275a7.634,7.634,0,0,1,.15,1.65c0,3.15-1.95,4.8-5.7,4.8-3.225,0-5.325-1.425-5.325-3.6,0-2.325,2.25-3.825,5.775-3.825A13.037,13.037,0,0,1,119.775-11.775Zm49.35-40.65c8.775,4.05,18.825,7.05,32.4,9.825L205.5-54.675c-3.525-.525-9.975-1.875-15.075-3.225-7.125-1.875-11.625-3.45-15.3-5.325ZM163.35-47.55a43.634,43.634,0,0,1-.45,4.8c-1.5,10.35-3.075,22.35-3.45,25.95a9,9,0,0,1-.225,1.5l12.45.525a13.05,13.05,0,0,1,4.2-3.375,32.448,32.448,0,0,1,16.425-4.5c6.75,0,10.65,2.325,10.65,6.3,0,5.325-6.6,8.85-16.5,8.85a69.607,69.607,0,0,1-20.025-3.525,52.024,52.024,0,0,1,1.725,13.35,80.135,80.135,0,0,0,18.825,2.25c9.225,0,16.05-1.725,21.45-5.4a18.964,18.964,0,0,0,8.475-15.9c0-10.65-8.85-17.625-22.2-17.625-8.55,0-15.15,1.8-21.45,5.85a164.711,164.711,0,0,1,3.225-18.225Z" transform="translate(850 233)" fill="#fff"></path></g></svg>