<svg xmlns="http://www.w3.org/2000/svg" width="1669.505" height="414" viewBox="0 0 1669.505 414"><g id="&#x30B0;&#x30EB;&#x30FC;&#x30D7;_20893" data-name="&#x30B0;&#x30EB;&#x30FC;&#x30D7; 20893" transform="translate(-49.495 -6043)"><rect id="&#x9577;&#x65B9;&#x5F62;_5121" data-name="&#x9577;&#x65B9;&#x5F62; 5121" width="387" height="124" transform="translate(1122 6043)"></rect><path id="&#x30D1;&#x30B9;_36604" data-name="&#x30D1;&#x30B9; 36604" d="M32.292-24.408C29.7-12.96,21.708-7.452,3.24-4.1a61.457,61.457,0,0,1,8.748,14.8C29.376,6.156,40.068-1.188,45.9-12.636c2.052-3.888,2.7-6.156,3.564-11.772h6.48V-2.376c0,9.828,2.808,11.232,22.788,11.232,13.392,0,18.036-.756,21.06-3.24,3.564-3.024,4.86-7.776,5.832-21.06a64.566,64.566,0,0,1-15.444-5.94c-.108,6.588-.648,12.2-1.3,13.392-.864,1.4-2.808,1.836-9.4,1.836-6.048,0-7.02-.432-7.02-2.916V-24.408H81.54a106.242,106.242,0,0,1,11.34.432,83.839,83.839,0,0,1-.54-11.772V-76.464a91.514,91.514,0,0,1,.54-12.42,101.489,101.489,0,0,1-11.232.432H27.108a100.555,100.555,0,0,1-11.124-.432,118.313,118.313,0,0,1,.54,12.42v40.716a113.624,113.624,0,0,1-.54,11.772,97.813,97.813,0,0,1,11.232-.432ZM32.4-74.736H76.248V-70.2H32.4Zm0,16.2H76.248v4.644H32.4Zm0,16.308H76.248v4.644H32.4ZM217.836-77.112a105.513,105.513,0,0,1-12.852.648h-16.2c.756-2.916,1.188-4.428,1.836-7.56a34.6,34.6,0,0,1,1.4-5.4l-17.388-2.808c-.324,8.64-3.456,19.656-8.316,29.484V-77.976a68.368,68.368,0,0,1-10.692.54H151.2v-4.752a41.66,41.66,0,0,1,.648-8.964H134.136a43.964,43.964,0,0,1,.648,9.072v4.644h-5.292a64.946,64.946,0,0,1-11.664-.648v16.092a57.94,57.94,0,0,1,9.936-.54c-.108,15.66-.432,22.032-1.62,30.456-1.836,12.528-4.536,19.44-10.584,27.324,4.536,4.1,7.344,7.884,11.448,15.228a55.036,55.036,0,0,0,8.856-15.768A52.713,52.713,0,0,1,138.24,9.18c2.916.216,4.32.216,5.94.216,11.016,0,14.688-2.268,17.064-10.584a55.146,55.146,0,0,1,5.94,11.448A94.175,94.175,0,0,0,190.512-6.588,82.873,82.873,0,0,0,211.788,9.936c2.592-7.992,4.32-11.772,8.424-17.712-8.1-3.672-12.744-6.7-18.684-12.312a67.5,67.5,0,0,0,7.776-20.52c1.3-5.94,1.728-10.26,2.376-20.952,2.7.108,4.1.216,6.156.432ZM162.648-7.884c.972-7.884,1.3-15.12,1.3-33.48l1.08,1.728a35.943,35.943,0,0,0,2.592,4.212,52.331,52.331,0,0,0,3.672-4.536,93,93,0,0,0,9.18,20.2A74.361,74.361,0,0,1,162.648-7.884Zm32.94-53.676c-.54,14.472-1.512,19.98-5.184,27.756-4.752-8.208-6.8-13.5-8.748-23.436,1.08-2.268,1.188-2.592,1.944-4.32ZM148.932-39.2v5.4c0,14.04-.864,23-2.376,26.028-.756,1.4-1.836,1.836-4.536,1.836a36.471,36.471,0,0,1-5.724-.54c3.132-8.748,4.86-17.712,6.372-32.724ZM143.64-54l.216-8.532h12.312c2.916,0,5.616.108,9.828.432a48.2,48.2,0,0,1-5.076,7.992c-2.808.108-2.808.108-6.264.108ZM251.964-17.5a24.225,24.225,0,0,1-3.564-4.32c.216-3.132.324-4.644.324-6.7s0-2.268.108-3.78l-13.392-1.62c.108,1.3.216,2.268.216,3.024,0,3.672-.432,9.4-.756,12.1-1.08,7.236-2.916,12.528-6.156,17.5a51.624,51.624,0,0,1,11.34,10.908,50.989,50.989,0,0,0,6.048-15.768c5.616,6.588,11.88,10.584,19.332,12.312,7.452,1.62,16.632,2.16,36.828,2.16,3.132,0,3.132,0,16.956-.324,6.588-.108,9.828-.216,9.828-.216a62.756,62.756,0,0,1,4.1-16.524c-2.376.216-4,.432-4.968.54a57.531,57.531,0,0,1,5.076-6.7c-5.94-2.052-9.612-3.888-13.716-7.02a71.535,71.535,0,0,1,8.316.324,97.832,97.832,0,0,1-.432-10.152V-62.64c0-3.672.108-6.156.324-8.532a61.965,61.965,0,0,1-8.64.324h-7.128c.756-1.62,1.62-3.456,2.052-4.428h6.588a99.954,99.954,0,0,1,10.584.54V-88.992a104.633,104.633,0,0,1-12.312.54H293.436c-5.292,0-8.64-.108-12.2-.432v14.04c3.348-.324,7.02-.432,10.584-.432h6.8a43.24,43.24,0,0,1-1.944,4.428h-4.1a61.143,61.143,0,0,1-8.64-.324,69.732,69.732,0,0,1,.432,8.424V-29.7a61.113,61.113,0,0,1-.432,8.1,56.383,56.383,0,0,1,6.264-.324A37.871,37.871,0,0,1,275.94-13.5a52.045,52.045,0,0,1,5.832,6.372c-7.992-.432-10.692-.864-14.9-1.836v-7.668H271.4a66.307,66.307,0,0,1,8.748.432V-30.456c-2.916.216-5.076.324-8.748.324h-4.536v-5.94h5.076a78.557,78.557,0,0,1,9.828.324V-50a57.751,57.751,0,0,1-8.208.432H241.056A72.44,72.44,0,0,1,230.9-50V-35.64a73.449,73.449,0,0,1,10.152-.432h10.908Zm44.388-4.428h16.092l-7.02,4.968a46.271,46.271,0,0,0,11.016,9.5c-7.668.324-15.66.54-22.9.54a46.746,46.746,0,0,0,10.8-10.152Zm2.808-38.34h13.5v3.456h-13.5Zm0,11.988h13.5v3.564h-13.5Zm0,11.988h13.5v3.564h-13.5Zm-64.044-24.84a59,59,0,0,1-.432,8.964c3.348-.216,5.724-.324,9.18-.324h25.7c3.456,0,5.832.108,9.18.324a57.244,57.244,0,0,1-.324-8.856v-18.9a63.071,63.071,0,0,1,.324-9.072c-2.376.324-3.888.324-9.4.324H243.864a83.345,83.345,0,0,1-9.18-.324,72.83,72.83,0,0,1,.432,9.072Zm15.228-16.848H263.3V-74.3h-12.96Zm0,12.2H263.3V-62.1h-12.96Z" transform="translate(1141 6146)" fill="#fff"></path><g id="&#x30B0;&#x30EB;&#x30FC;&#x30D7;_19604" data-name="&#x30B0;&#x30EB;&#x30FC;&#x30D7; 19604"><rect id="&#x9577;&#x65B9;&#x5F62;_5122" data-name="&#x9577;&#x65B9;&#x5F62; 5122" width="1266" height="124" transform="translate(453 6333)"></rect><path id="&#x30D1;&#x30B9;_36601" data-name="&#x30D1;&#x30B9; 36601" d="M37.765-4.615H27.95A46.235,46.235,0,0,1,21-4.94V4.615a59.258,59.258,0,0,1,8.32-.39H54.86a54.628,54.628,0,0,1,8.19.39V-4.94a50.6,50.6,0,0,1-7.41.325H46.93v-3.77h7.02a52.454,52.454,0,0,1,7.28.325v-9.3a50.051,50.051,0,0,1-7.41.325H46.93v-3.25h7.475c3.835,0,4.42,0,6.37.13a70.94,70.94,0,0,1-.325-9.1V-43.94c0-4.355.13-7.6.325-9.62a56.259,56.259,0,0,1-8.58.325H33.6a86.839,86.839,0,0,1-9.165-.325,77.51,77.51,0,0,1,.325,9.165v15.6c0,4.485-.065,6.89-.26,8.71,1.755-.13,3.12-.2,7.475-.2h5.785v3.25H31.72a53.367,53.367,0,0,1-7.15-.26v9.165a57.959,57.959,0,0,1,7.215-.26h5.98Zm0-39.715V-40.5H33.8V-44.33Zm9.165,0H50.9V-40.5H46.93ZM37.765-32.89v4.03H33.8v-4.03Zm9.165,0H50.9v4.03H46.93ZM8.45-43.55v10.14H7.865a32.973,32.973,0,0,1-4.745-.26v9.165a31.833,31.833,0,0,1,4.55-.26h.78v12.74A42.8,42.8,0,0,1,1.5-9.88L3.77.325c.91-.455.975-.455,1.43-.65,8.97-3.7,12.805-5.395,18.005-8l-.065-9.685c-2.34,1.17-2.99,1.43-5.135,2.34v-9.1h.39c1.43,0,2.47.065,3.965.2v-9.1a25.94,25.94,0,0,1-3.965.26h-.39V-43.55h.845a35.27,35.27,0,0,1,4.485.26v-9.555a51.156,51.156,0,0,1-6.175.325H8.58a54.025,54.025,0,0,1-6.24-.325v9.555a39.219,39.219,0,0,1,4.55-.26Zm97.24-1.885V-48.36a52.341,52.341,0,0,1,.39-6.955H95.03a55.233,55.233,0,0,1,.39,6.825v3.055H80.34a75.806,75.806,0,0,1-7.67-.26c.195,2.08.325,4.225.325,6.76V-3.7c0,3.77-.13,6.695-.39,9.75h10.01V3.38h36.14V6.045H128.83c-.26-3.38-.39-6.5-.39-9.62v-34.84a64.306,64.306,0,0,1,.325-7.345,70.445,70.445,0,0,1-8.125.325Zm0,39.65V-17.1h13.065v11.31Zm0-20.215V-36.27h13.065V-26ZM95.42-36.27V-26H82.615V-36.27Zm0,19.175v11.31H82.615V-17.1Z" transform="translate(48 6108)" fill="#533afc"></path><path id="&#x30D1;&#x30B9;_36602" data-name="&#x30D1;&#x30B9; 36602" d="M55.584,7.056c18.288,0,33.408-8.064,42.048-22.464C103.1-24.48,106.7-40.32,106.7-55.44a95.783,95.783,0,0,0-5.616-33.12,45.347,45.347,0,0,0-10.512-15.984c-8.784-8.64-21.024-13.392-34.992-13.392-18.144,0-33.12,8.064-41.9,22.752C8.208-86.112,4.608-70.416,4.608-55.3A95.552,95.552,0,0,0,10.224-22.32,45.347,45.347,0,0,0,20.736-6.336C29.52,2.448,41.472,7.056,55.584,7.056Zm0-100.656c13.968,0,21.456,12.96,21.456,37.584,0,25.632-7.2,38.592-21.312,38.592-14.256,0-21.6-13.248-21.6-39.024C34.128-79.92,42.048-93.6,55.584-93.6ZM190.224,4.464c10.224,0,16.272.288,24.624,1.008V-21.744c-5.616.72-12.24,1.008-23.04,1.008H158.256c3.312-6.336,8.64-11.376,21.168-20.016,14.688-10.224,16.128-11.232,20.88-15.408,8.928-7.344,13.248-16.272,13.248-26.784A31.012,31.012,0,0,0,208.8-99.792c-7.2-11.664-22.032-18.144-41.472-18.144-16.848,0-29.952,5.184-38.16,14.832-5.76,6.768-8.352,13.1-10.512,25.632L148.9-74.3c.72-6.048,1.584-8.928,3.6-12.1,3.168-4.9,8.064-7.2,14.976-7.2,9.216,0,15.408,4.608,15.408,11.52,0,6.624-3.024,10.368-15.408,18.72-14.688,9.936-20.16,14.112-25.632,19.152A74.035,74.035,0,0,0,121.1-11.952,71.675,71.675,0,0,0,118.08,5.04c5.328-.432,8.64-.576,21.6-.576Z" transform="translate(48 6268)" fill="#533afc"></path><path id="&#x30D1;&#x30B9;_36603" data-name="&#x30D1;&#x30B9; 36603" d="M45.036-43.524v9.4H31.212A115.565,115.565,0,0,1,17.6-34.776v16.308a108.2,108.2,0,0,1,13.608-.648H45.036v10.8h-23A136.184,136.184,0,0,1,6.7-8.964V7.56a131.488,131.488,0,0,1,14.9-.648H85.968a141.071,141.071,0,0,1,15.444.648V-8.964a146.428,146.428,0,0,1-15.768.648H62.208v-10.8H77.22a112.122,112.122,0,0,1,13.824.648V-34.776a107.787,107.787,0,0,1-13.716.648H62.208v-9.4h12.96a106.92,106.92,0,0,1,13.068.648v-6.8A87.69,87.69,0,0,0,98.5-45.036,81.175,81.175,0,0,1,106.38-62.1,85.785,85.785,0,0,1,81.108-73.872,67.523,67.523,0,0,1,62.532-90.936H44.6c-4.536,6.8-9.936,11.988-18.144,17.6A82.817,82.817,0,0,1,1.836-61.344c4.1,6.156,5.292,8.532,8.424,15.984a101.031,101.031,0,0,0,9.612-4.428v6.912a107.023,107.023,0,0,1,13.608-.648ZM34.128-58.32c8.964-6.156,14.364-11.016,19.764-18.036C60.048-68.9,64.476-64.908,73.98-58.32Zm86.94-.648a64.1,64.1,0,0,1,9.288-1.4l37.368-3.348c-5.184,3.564-7.776,5.724-10.584,9.18a36.973,36.973,0,0,0-9.18,24.408c0,13.716,6.588,23.652,19.332,29.592C174.2,2.592,182.3,4.32,194.616,5.508a32.708,32.708,0,0,1,4,.54L201.1-14.58a18.654,18.654,0,0,1-3.24.216c-7.02,0-16.2-1.728-20.628-3.888-6.156-2.916-9.072-7.128-9.072-13.284,0-8.856,6.372-18.036,17.172-24.624,7.452-4.644,17.172-7.56,24.732-7.56a16.424,16.424,0,0,1,3.024.216l-.972-19.548c-1.944.432-2.916.54-11.88.864-32.94,1.188-40.824,1.62-57.672,2.7-11.772.756-15.66.972-18.468.972-.864,0-2.268,0-4.1-.108Zm170.964-7.884a18.1,18.1,0,0,1,9.072,3.78c6.264,4.752,9.5,12.1,9.5,21.276,0,11.556-4.644,20.628-12.96,25.056-5.832,3.024-12.528,4.752-22.68,5.508a53.064,53.064,0,0,1,9.18,17.712c15.12-2.376,23.652-5.832,31-12.42,9.072-8.1,14.364-20.844,14.364-34.884,0-12.2-3.672-22.68-10.584-30.024-7.992-8.424-20.736-13.284-35.208-13.284-15.876,0-29.592,5.508-39.1,15.876a48.011,48.011,0,0,0-12.42,32.94c0,19.764,10.152,33.588,24.624,33.588,9.828,0,17.064-6.048,23.328-19.872C285.984-34.344,289.656-48.276,292.032-66.852Zm-18.684.216a140.026,140.026,0,0,1-8.1,32.94c-3.24,8.208-6.048,11.988-8.748,11.988-3.78,0-6.7-6.048-6.7-13.716a34.943,34.943,0,0,1,11.772-25.7A21.592,21.592,0,0,1,273.348-66.636ZM414.72-2.484V3.888h20.3a163.028,163.028,0,0,1-.648-17.82V-70.308c0-5.4.108-7.236.324-11.016-3.132.216-6.156.324-11.988.324H373.14c-10.26,0-13.716-.216-18.9-.972v19.656c4.536-.432,8.64-.54,18.576-.54h41.9v42.228h-43.2c-10.692,0-13.608-.108-18.792-.864V-1.836c4.86-.54,8.532-.648,18.468-.648Zm44.928-28.3c6.588-.54,10.152-.648,22.248-.648H533.3c12.312,0,17.064.108,22.248.648V-51.624a177.2,177.2,0,0,1-22.14.972H481.788c-11.232,0-17.064-.216-22.14-.972Zm205.2,21.6C648-25.272,643.572-29.052,630.5-38.448c6.048-8.1,10.152-15.66,15.876-29.16,1.62-3.672,2.268-4.752,3.888-6.372l-9.5-9.72c-2.916,1.08-3.564,1.08-8.64,1.188l-36.936.54c-3.132.108-5.184.108-6.048.108a80.011,80.011,0,0,1-11.34-.756l.54,19.224c4.428-.648,7.884-.864,17.172-1.08l28.08-.432a86.883,86.883,0,0,1-21.708,31.752A101.848,101.848,0,0,1,566.892-11.34c6.048,6.264,8.316,9.5,12.1,17.064,16.74-8.1,29.592-17.6,39.744-29.592a173.639,173.639,0,0,1,31,30.672ZM748.98-61.02c6.048,8.424,12.42,25.6,14.688,39.312l17.712-8.424c-3.564-14.8-9.612-28.836-16.524-38.34ZM680.832-46.656c3.132-.972,10.044-2.16,16.848-3.132-4.428,17.388-13.5,38.772-20.3,47.844l17.82,9.4c.648-1.62.864-1.944,1.728-4A256.078,256.078,0,0,0,716.04-51.192a39.214,39.214,0,0,1,4.32-.216c3.78,0,5.292.432,6.48,1.836,1.4,1.512,2.052,4.1,2.052,8.64,0,8.316-1.3,19.224-2.916,23.976-1.188,3.456-2.592,4.86-4.86,4.86-3.132,0-8.64-1.4-14.8-3.888a51.273,51.273,0,0,1,1.62,12.96,49.027,49.027,0,0,1-.324,6.264c7.344,2.052,12.2,2.808,17.172,2.808a20.627,20.627,0,0,0,8.424-1.512,17.863,17.863,0,0,0,6.912-6.372c4.32-7.56,6.8-21.492,6.8-38.34,0-12.2-2.16-18.792-7.668-23.22-3.672-2.916-8.64-4.32-15.336-4.32a35.828,35.828,0,0,0-4.644.216c.324-1.728,1.08-6.156,2.052-11.664l.756-3.888c.108-.648.216-1.62.324-1.944a11.176,11.176,0,0,1,.648-2.592l-19.548-1.836v1.836c0,3.672-.756,10.044-2.484,21.276-7.128.972-17.388,1.836-20.844,1.836a3.72,3.72,0,0,1-.972-.108Zm74.3-42.552A73.7,73.7,0,0,1,765.72-73.764l9.936-4.86a75.927,75.927,0,0,0-10.8-15.012Zm-14.9,6.7a69.526,69.526,0,0,1,10.692,15.768l10.26-4.968a69.195,69.195,0,0,0-10.692-15.444Z" transform="translate(324 6146)"></path><path id="&#x30D1;&#x30B9;_36605" data-name="&#x30D1;&#x30B9; 36605" d="M86.616-59.508c-1.4-6.372-3.24-10.368-6.7-14.8C72.9-83.7,61.992-88.452,48.06-88.452c-12.636,0-23.544,4-31,11.232C8.532-68.8,4-56.376,4-41.688,4-27.216,8.532-14.58,16.524-6.48,24.192,1.3,35.316,5.4,48.492,5.4c13.068,0,23.544-4.1,30.24-11.772,4.536-5.292,6.912-10.584,8.964-19.764L65.232-29.484c-.648,4.536-1.4,6.7-3.24,9.288a17.02,17.02,0,0,1-14.148,6.8c-13.392,0-21.384-10.692-21.384-28.3,0-17.82,7.668-28.188,20.844-28.188,9.288,0,15.012,4.86,17.064,14.688Zm48.492,65.34c21.492,0,35.748-14.256,35.748-35.748,0-21.384-13.824-35.1-35.64-35.1S99.576-51.3,99.576-29.7C99.576-7.992,113.4,5.832,135.108,5.832Zm.216-54.648c9.18,0,14.688,7.128,14.688,19.224,0,11.988-5.4,19.008-14.8,19.008S120.2-17.82,120.2-29.808C120.2-41.688,125.82-48.816,135.324-48.816ZM207.144,22.9a112.85,112.85,0,0,1-.864-15.66V-.216c-.108-1.512-.108-2.916-.108-3.888,3.024,2.592,4.644,3.78,7.452,4.968A38.96,38.96,0,0,0,228.2,3.672c8.856,0,16.74-3.024,22.248-8.532,6.156-6.156,9.4-15.12,9.4-26.136,0-10.908-2.916-19.44-8.64-25.164-5.616-5.508-13.392-8.316-22.9-8.316-8.964,0-15.66,2.268-22.14,7.668,0-.54.108-1.4.108-2.052v-3.672H185a132.267,132.267,0,0,1,.864,16.956v52.7A138.707,138.707,0,0,1,185,22.9Zm16.308-35.532c-9.72,0-16.956-7.668-16.956-17.82,0-9.828,7.344-17.712,16.308-17.712,10.152,0,15.984,6.372,15.984,17.388,0,6.156-1.728,11.124-4.752,14.04A14.943,14.943,0,0,1,223.452-12.636Zm50.76-73.872v16.2h21.924v-16.2Zm-.324,23.976a115.8,115.8,0,0,1,.864,16.308V-12.96a120.81,120.81,0,0,1-.864,16.308H296.46A147.351,147.351,0,0,1,295.6-12.96V-46.224a107.329,107.329,0,0,1,.864-16.308Zm39.42-23.976c.648,4.1.864,8.64.864,16.308v57.24a109.151,109.151,0,0,1-.864,16.308H335.88a129.376,129.376,0,0,1-.864-16.308V-70.2a110.081,110.081,0,0,1,.864-16.308Zm72.036,92.34c21.492,0,35.748-14.256,35.748-35.748,0-21.384-13.824-35.1-35.64-35.1S349.812-51.3,349.812-29.7C349.812-7.992,363.636,5.832,385.344,5.832Zm.216-54.648c9.18,0,14.688,7.128,14.688,19.224,0,11.988-5.4,19.008-14.8,19.008S370.44-17.82,370.44-29.808C370.44-41.688,376.056-48.816,385.56-48.816Zm58.212-13.716h-3.888a65.123,65.123,0,0,1-9.612-.648v18.036a65.283,65.283,0,0,1,9.4-.648h4.1v33.048c0,7.344,1.512,11.016,5.616,14.148,3.456,2.592,8.532,3.78,15.876,3.78a46.46,46.46,0,0,0,14.9-2.16l-1.62-16.416a14.9,14.9,0,0,1-7.56,1.944,9.381,9.381,0,0,1-4.968-1.188c-1.4-.972-1.944-2.484-1.944-5.508V-45.792h4.536a69.768,69.768,0,0,1,9.936.648V-63.072a73.817,73.817,0,0,1-10.584.54h-3.888V-64.8a125.5,125.5,0,0,1,.864-14.8H442.908a110.08,110.08,0,0,1,.864,14.8Zm57.564-19.656c1.836,3.672,4,9.828,6.912,19.764-1.4.432-2.052.648-3.672,1.08-12.2,3.78-12.2,3.78-15.336,4.212l5.616,17.82c3.456-1.728,9.072-3.888,17.928-6.912,3.672,13.608,5.94,22.464,6.912,26.676C523.26-4,525.1,5.4,525.42,10.26l20.3-4.644a34.32,34.32,0,0,1-2.052-5.832c-5.4-21.924-10.584-41.9-13.284-51.084,13.824-3.888,22.572-5.616,28.836-5.616,7.56,0,11.772,3.024,11.772,8.532,0,6.264-5.724,10.26-14.688,10.26-4.968,0-9.828-.972-16.2-3.24a79,79,0,0,1,2.808,18.036,62.339,62.339,0,0,0,15.336,2.16c8.64,0,16.416-2.268,21.816-6.588A26.409,26.409,0,0,0,590.22-48.6a25.869,25.869,0,0,0-3.132-12.96c-4.212-7.452-12.96-11.88-23.328-11.88a41.2,41.2,0,0,0-4.644.216v-8.532a70,70,0,0,1,.54-8.1H540.432c.648,2.916.756,4.212.864,11.232.108,5.076.108,5.076.216,7.56-5.724,1.188-7.992,1.728-15.66,3.78-1.728-6.048-1.836-6.372-3.24-11.232a57.327,57.327,0,0,1-2.16-8.748ZM607.716-12.1a103.075,103.075,0,0,1-.864,15.768c4.536-.216,7.56-.324,15.876-.324h22.788c12.852,0,23.112-3.672,30.348-10.8,8.208-8.208,12.528-20.088,12.528-34.884,0-14.364-4-25.7-11.88-33.48-7.236-7.02-17.928-10.692-31.212-10.692H622.728c-8.964,0-11.664-.108-15.984-.324a92.764,92.764,0,0,1,.972,15.876ZM629.1-15.552V-67.608h14.148c7.776,0,12.96,1.728,16.74,5.508,4.212,4.212,6.264,10.908,6.264,20.088,0,8.964-2.376,16.2-6.8,20.736-3.888,3.888-8.856,5.724-15.876,5.724Zm74.844-70.956v16.2h21.924v-16.2Zm-.324,23.976a115.8,115.8,0,0,1,.864,16.308V-12.96a120.81,120.81,0,0,1-.864,16.308h22.572a147.336,147.336,0,0,1-.864-16.308V-46.224a107.324,107.324,0,0,1,.864-16.308ZM753.192-45.9v32.94a119.8,119.8,0,0,1-.864,16.308h22.464a115.8,115.8,0,0,1-.864-16.308V-45.9h3.348a107.392,107.392,0,0,1,14.148.756V-63.288c-4,.432-9.828.756-14.364.756h-3.132v-2.7c0-5.616,2.052-7.776,7.344-7.776a20.988,20.988,0,0,1,10.692,2.7l3.348-15.876A56.826,56.826,0,0,0,778.9-88.452c-17.6,0-25.7,6.588-25.7,20.844v5.076h-2.916a97.891,97.891,0,0,1-12.1-.756v18.144a77.707,77.707,0,0,1,12.1-.756ZM828.9-2.484,826.632,2.16c-1.62,3.24-4.644,5.076-8.748,5.076-2.808,0-4.86-.54-8.424-2.376l-2.376,17.172a64.927,64.927,0,0,0,14.8,1.836c12.312,0,20.088-4.644,24.408-14.8L871.02-48.06c3.78-8.856,3.78-8.856,6.48-14.472H854.064c-.648,3.78-1.62,6.912-4.644,14.364l-9.612,24.516L829.872-48.6a71.757,71.757,0,0,1-4.212-13.932H802.224c1.4,2.7,1.836,3.672,6.48,14.472Zm125.928-44.6A91.189,91.189,0,0,1,932.472-44.6H930.2c.432-3.564.54-4.428.756-5.832a45.429,45.429,0,0,0,.756-5.292,160.8,160.8,0,0,0,17.712-.756c5.292-.432,5.292-.432,7.776-.648l.648-17.928c-6.588,1.62-12.852,2.376-23.436,2.7,1.512-9.936,1.944-12.312,3.132-15.768l-19.98-1.62v1.512a95.176,95.176,0,0,1-1.62,15.444c-8.532-.864-14.8-2.052-19.548-3.672l-1.188,16.74c1.62.324,2.268.432,3.888.756A144.994,144.994,0,0,0,914-56.484c-.864,6.048-1.4,9.72-1.512,10.8-9.828-1.188-13.824-1.944-18.792-3.78l-1.3,17.28a26.5,26.5,0,0,1,4.644.648,118.54,118.54,0,0,0,13.932,2.16c-.216,3.24-.324,5.616-.324,7.992,0,8.856,2.376,15.228,7.56,20.088,6.156,5.616,14.9,8.532,26.028,8.532,10.584,0,19.548-2.592,26.244-7.668A26.867,26.867,0,0,0,981.5-21.816c0-8.856-2.7-16.092-8.964-24.192-7.128,2.376-9.828,2.916-17.82,3.456Zm-.108,5.832c5.292,5.832,7.992,11.664,7.992,17.172,0,8.64-7.02,13.824-18.792,13.824-5.076,0-9.072-1.188-11.664-3.564-2.268-2.052-3.348-4.968-3.348-9.288,0-1.728.108-3.78.216-5.184,3.024.108,3.78.108,4.86.108a142.817,142.817,0,0,0,16.956-1.08c2.268-.324,2.376-.324,3.456-.432Zm61.56-34.776c-6.588,0-9.4-.108-13.284-.432a70.637,70.637,0,0,1,.432,9.072v11.88a50.794,50.794,0,0,1-.54,8.964H1019.3V-61.776h64.584v15.228H1100.3a72.19,72.19,0,0,1-.54-8.856V-67.392a67.481,67.481,0,0,1,.432-9.072c-3.672.324-6.8.432-13.5.432h-2.16a120.841,120.841,0,0,0,6.048-11.448l-16.524-3.564a77,77,0,0,1-6.7,15.012h-6.372a90.384,90.384,0,0,0-6.372-15.444L1038.2-88.56a66.082,66.082,0,0,1,5.616,12.528h-7.236a113.592,113.592,0,0,0-8.208-14.364l-15.876,3.24a77.26,77.26,0,0,1,6.48,11.124Zm44.712,58h23.976a141.07,141.07,0,0,1,15.444.648V-33.8a139.288,139.288,0,0,1-15.228.756H1065.2a178.938,178.938,0,0,0,15.12-12.852c1.62-1.512,2.052-1.944,3.24-2.916l-7.884-8.964a53.43,53.43,0,0,1-8.532.432h-32.292a114.809,114.809,0,0,1-11.556-.432V-43.2a109.808,109.808,0,0,1,11.448-.432H1057.1a39.427,39.427,0,0,1-7.344,5.508h-5.94a33.323,33.323,0,0,1,.324,5.076h-26.568a119.8,119.8,0,0,1-14.688-.756v16.416a135.5,135.5,0,0,1,14.9-.648h26.352v10.26c0,1.944-.756,2.268-5.076,2.268-3.024,0-7.128-.324-13.068-.864A63.442,63.442,0,0,1,1030.752,9.5c5.076.216,7.992.324,9.828.324,16.74,0,20.412-2.376,20.412-12.852Zm63.288,1.188c.648-.648,1.08-1.188,1.3-1.4l1.728-2.16c.216-.216,1.188-1.3,2.7-3.024,3.672-4.1,11.232-13.5,15.012-18.792,7.344-10.044,7.452-10.152,9.18-10.152,1.62,0,2.484.756,6.048,4.968,17.712,21.492,29.376,34.128,42.768,46.224,2.052,1.836,2.484,2.268,3.888,3.672l9.5-21.168c-5.292-2.16-29.268-25.38-39.2-37.8-8.424-10.368-8.424-10.368-11.016-12.744A17.147,17.147,0,0,0,1154.2-74.3a17.939,17.939,0,0,0-12.1,4.86c-2.484,2.268-2.916,2.808-9.936,11.772-9.936,12.528-16.092,19.332-19.872,21.924Zm53.244-55.512a69.528,69.528,0,0,1,10.692,15.768l9.936-5.4a72.951,72.951,0,0,0-10.692-15.444Zm14.364-7.452a73.7,73.7,0,0,1,10.584,15.444l9.612-5.292a75.921,75.921,0,0,0-10.8-15.012Zm52.056,11.772c2.16-.216,4.212-.432,7.128-.54,15.228-.756,19.548-.972,25.272-1.62-13.392,13.284-36.18,31-46.116,35.64l10.044,16.416a80.3,80.3,0,0,1,10.368-8.1A62.107,62.107,0,0,1,1283.9-36.18c11.988,0,19.332,4.644,19.332,12.2,0,5.508-2.7,9.18-8.532,11.772-1.62-4-2.808-6.156-4.968-8.532a25.332,25.332,0,0,0-19.332-8.316c-12.528,0-21.492,7.236-21.492,17.28,0,11.988,11.124,19.224,29.376,19.224,10.8,0,21.168-2.484,28.62-6.8,9.828-5.832,14.9-14.472,14.9-25.38,0-7.776-2.7-14.04-7.884-18.684-5.724-4.968-12.96-7.344-23.112-7.344a51.67,51.67,0,0,0-14.8,1.944c7.236-5.292,9.18-6.912,14.9-11.772,14.58-12.528,14.58-12.528,17.388-14.148L1299.456-87.8c-2.052.864-3.456,1.188-8.208,1.512-10.908.864-22.9,1.3-32.508,1.3a120.863,120.863,0,0,1-15.552-.756Zm34.668,60.7a16.392,16.392,0,0,1-3.564.324c-5.832,0-9.288-1.836-9.288-4.752,0-2.16,1.728-3.564,4.212-3.564C1274.184-15.336,1277.208-12.528,1278.612-7.344Z" transform="translate(324 6291)"></path><path id="&#x30D1;&#x30B9;_36607" data-name="&#x30D1;&#x30B9; 36607" d="M45.036-43.524v9.4H31.212A115.565,115.565,0,0,1,17.6-34.776v16.308a108.2,108.2,0,0,1,13.608-.648H45.036v10.8h-23A136.184,136.184,0,0,1,6.7-8.964V7.56a131.488,131.488,0,0,1,14.9-.648H85.968a141.071,141.071,0,0,1,15.444.648V-8.964a146.428,146.428,0,0,1-15.768.648H62.208v-10.8H77.22a112.122,112.122,0,0,1,13.824.648V-34.776a107.787,107.787,0,0,1-13.716.648H62.208v-9.4h12.96a106.92,106.92,0,0,1,13.068.648v-6.8A87.69,87.69,0,0,0,98.5-45.036,81.175,81.175,0,0,1,106.38-62.1,85.785,85.785,0,0,1,81.108-73.872,67.523,67.523,0,0,1,62.532-90.936H44.6c-4.536,6.8-9.936,11.988-18.144,17.6A82.817,82.817,0,0,1,1.836-61.344c4.1,6.156,5.292,8.532,8.424,15.984a101.031,101.031,0,0,0,9.612-4.428v6.912a107.023,107.023,0,0,1,13.608-.648ZM34.128-58.32c8.964-6.156,14.364-11.016,19.764-18.036C60.048-68.9,64.476-64.908,73.98-58.32Z" transform="translate(324 6436)"></path><path id="&#x30D1;&#x30B9;_36606" data-name="&#x30D1;&#x30B9; 36606" d="M15.444-67.284A114.225,114.225,0,0,1,28.62-68.04h4.32v55.08a123.939,123.939,0,0,1-.864,16.308H55.62a125,125,0,0,1-.864-16.308V-69.552a167.671,167.671,0,0,1,.756-17.388c-4.32.432-5.724.432-13.392.432H28.4c-6.264,0-9.072-.108-12.96-.756ZM130.572,5.292c13.716,0,25.056-6.048,31.536-16.848,4.1-6.8,6.8-18.684,6.8-30.024A71.838,71.838,0,0,0,164.7-66.42a34.01,34.01,0,0,0-7.884-11.988c-6.588-6.48-15.768-10.044-26.244-10.044-13.608,0-24.84,6.048-31.428,17.064-4.1,6.8-6.8,18.576-6.8,29.916A71.664,71.664,0,0,0,96.552-16.74a34.01,34.01,0,0,0,7.884,11.988C111.024,1.836,119.988,5.292,130.572,5.292Zm0-75.492c10.476,0,16.092,9.72,16.092,28.188,0,19.224-5.4,28.944-15.984,28.944-10.692,0-16.2-9.936-16.2-29.268C114.48-59.94,120.42-70.2,130.572-70.2ZM252.288-2.484V3.888h20.3a163.028,163.028,0,0,1-.648-17.82V-70.308c0-5.4.108-7.236.324-11.016-3.132.216-6.156.324-11.988.324H210.708c-10.26,0-13.716-.216-18.9-.972v19.656c4.536-.432,8.64-.54,18.576-.54h41.9v42.228h-43.2c-10.692,0-13.608-.108-18.792-.864V-1.836c4.86-.54,8.532-.648,18.468-.648Zm44.928-28.3c6.588-.54,10.152-.648,22.248-.648h51.408c12.312,0,17.064.108,22.248.648V-51.624a177.2,177.2,0,0,1-22.14.972H319.356c-11.232,0-17.064-.216-22.14-.972Zm205.2,21.6c-16.848-16.092-21.276-19.872-34.344-29.268,6.048-8.1,10.152-15.66,15.876-29.16,1.62-3.672,2.268-4.752,3.888-6.372l-9.5-9.72c-2.916,1.08-3.564,1.08-8.64,1.188l-36.936.54c-3.132.108-5.184.108-6.048.108a80.011,80.011,0,0,1-11.34-.756l.54,19.224c4.428-.648,7.884-.864,17.172-1.08l28.08-.432a86.883,86.883,0,0,1-21.708,31.752A101.849,101.849,0,0,1,404.46-11.34c6.048,6.264,8.316,9.5,12.1,17.064,16.74-8.1,29.592-17.6,39.744-29.592A173.64,173.64,0,0,1,487.3,6.8ZM589.68-66.96c-2.268-5.616-4.1-8.748-7.236-12.1-5.832-6.156-14.688-9.5-25.272-9.5-13.5,0-23.436,4.752-30.456,14.472-5.616,7.776-8.964,20.412-8.964,34.02,0,14.688,3.78,26.784,11.016,34.776,6.264,7.128,15.768,10.908,27,10.908,21.276,0,35.964-13.068,35.964-31.752,0-18.576-12.312-30.24-31.86-30.24a32.8,32.8,0,0,0-14.364,2.808,19.482,19.482,0,0,0-6.8,4.86c.648-6.48,1.4-9.72,3.132-13.392,2.916-6.156,7.884-9.288,14.472-9.288s10.26,2.7,12.2,8.964ZM555.984-39.2c9.288,0,14.9,5.076,14.9,13.392,0,8.208-6.372,13.932-15.336,13.932-8.64,0-15.012-5.724-15.012-13.716C540.54-33.912,546.588-39.2,555.984-39.2Zm87.156,44.5c13.716,0,25.056-6.048,31.536-16.848,4.1-6.8,6.8-18.684,6.8-30.024a71.837,71.837,0,0,0-4.212-24.84,34.011,34.011,0,0,0-7.884-11.988c-6.588-6.48-15.768-10.044-26.244-10.044-13.608,0-24.84,6.048-31.428,17.064-4.1,6.8-6.8,18.576-6.8,29.916A71.663,71.663,0,0,0,609.12-16.74,34.01,34.01,0,0,0,617-4.752C623.592,1.836,632.556,5.292,643.14,5.292Zm0-75.492c10.476,0,16.092,9.72,16.092,28.188,0,19.224-5.4,28.944-15.984,28.944-10.692,0-16.2-9.936-16.2-29.268C627.048-59.94,632.988-70.2,643.14-70.2ZM732.024,5.292c13.716,0,25.056-6.048,31.536-16.848,4.1-6.8,6.8-18.684,6.8-30.024a71.837,71.837,0,0,0-4.212-24.84,34.01,34.01,0,0,0-7.884-11.988c-6.588-6.48-15.768-10.044-26.244-10.044-13.608,0-24.84,6.048-31.428,17.064-4.1,6.8-6.8,18.576-6.8,29.916A71.663,71.663,0,0,0,698-16.74a34.01,34.01,0,0,0,7.884,11.988C712.476,1.836,721.44,5.292,732.024,5.292Zm0-75.492c10.476,0,16.092,9.72,16.092,28.188,0,19.224-5.4,28.944-15.984,28.944-10.692,0-16.2-9.936-16.2-29.268C715.932-59.94,721.872-70.2,732.024-70.2Zm65.664-16.308a86,86,0,0,1,.648,11.772v1.728L797.9-12.96c-.108,5.4-.216,6.588-1.3,8.856L806.22,7.128c1.836-1.08,2.484-1.188,6.48-1.944,31.86-5.508,51.84-18.036,67.5-42.228-6.264-4.752-9.612-8.424-14.58-15.552-9.828,19.548-26.028,31.86-47.844,36.72l.648-57.24A103.774,103.774,0,0,1,819.18-86.4ZM905.9-60.372A137.768,137.768,0,0,1,915.516-32.4l16.848-5.076A136.06,136.06,0,0,0,921.888-64.8Zm23.976-4.644a127.07,127.07,0,0,1,9.72,27.108l16.524-5.076c-2.808-10.368-4.752-15.228-10.476-26.352Zm37.044-2.16c-.108,6.372-1.944,15.228-4.752,22.788C955.476-26.46,943.7-15.66,922-7.236c6.048,5.94,8.208,8.64,11.88,15.228A146.216,146.216,0,0,0,946.944.756a78.5,78.5,0,0,0,22.68-21.924c6.048-8.964,10.26-19.98,13.5-35.208a43.429,43.429,0,0,1,1.62-6.588Zm142.344,58c-16.848-16.092-21.276-19.872-34.344-29.268,6.048-8.1,10.152-15.66,15.876-29.16,1.62-3.672,2.268-4.752,3.888-6.372l-9.5-9.72c-2.916,1.08-3.564,1.08-8.64,1.188l-36.936.54c-3.132.108-5.184.108-6.048.108a80.011,80.011,0,0,1-11.34-.756l.54,19.224c4.428-.648,7.884-.864,17.172-1.08l28.08-.432A86.882,86.882,0,0,1,1046.3-33.156a101.849,101.849,0,0,1-34.992,21.816c6.048,6.264,8.316,9.5,12.1,17.064,16.74-8.1,29.592-17.6,39.744-29.592a173.642,173.642,0,0,1,31,30.672Zm19.98-59.184a115.342,115.342,0,0,1,29.376,22.788l12.744-16.848c-9.072-8.208-16.092-13.176-29.7-21.168Zm6.7,72.576c2.916-.864,3.564-.972,7.776-1.944,20.088-4.644,30.348-8.64,42.012-16.2,15.12-9.72,25.38-22.464,35.208-43.74-8.1-5.94-10.584-8.1-15.876-14.472a99.434,99.434,0,0,1-10.584,21.168c-8.316,12.96-18.036,21.06-31.644,26.676a108.371,108.371,0,0,1-32.508,7.776Z" transform="translate(473 6436)" fill="#fff"></path></g></g></svg>