<svg xmlns="http://www.w3.org/2000/svg" width="1322.66" height="522.18" viewBox="0 0 1322.66 522.18"><g id="&#x30B0;&#x30EB;&#x30FC;&#x30D7;_19558" data-name="&#x30B0;&#x30EB;&#x30FC;&#x30D7; 19558" transform="translate(-296.5 -141.724)"><path id="&#x30D1;&#x30B9;_33813" data-name="&#x30D1;&#x30B9; 33813" d="M53.2-61.752c0,3.1,0,3.1-.124,6.076H30.628a77.906,77.906,0,0,1-11.408-.5v13.888a80.144,80.144,0,0,1,11.408-.5H52.2a51.8,51.8,0,0,1-.992,6.076h-31.5a87.336,87.336,0,0,1-13.144-.62v14.88a129.783,129.783,0,0,1,14.136-.744H46C42.656-18.1,37.7-14.012,31.248-10.912c-7.316,3.72-14.136,5.456-26.784,6.82,4.34,6.2,5.456,8.68,7.564,15.376C25.668,8.8,33.852,5.952,42.656.62A49.644,49.644,0,0,0,60.512-17.36,62.64,62.64,0,0,0,82.46,1.24c9.052,4.588,15.872,6.944,30.256,10.044a64.174,64.174,0,0,1,7.44-15.872C103.044-7.316,93.868-9.92,85.932-14.136a34.2,34.2,0,0,1-11.408-9.052H103.54a128.789,128.789,0,0,1,14.26.744v-14.88a92.018,92.018,0,0,1-13.516.62H67.332c.5-2.728.62-3.72.868-6.076H92.876a80.347,80.347,0,0,1,11.284.5V-56.172a75.886,75.886,0,0,1-11.284.5H68.944c0-2.232,0-2.232.124-6.076H93.62a89.346,89.346,0,0,1,11.532.5V-66.34h11.656a74.64,74.64,0,0,1-.5-9.424V-86.18a79.982,79.982,0,0,1,.5-9.424c-4.34.372-7.688.5-14.26.5H69.44v-1.984a46.361,46.361,0,0,1,.62-7.812H52.2a38.9,38.9,0,0,1,.62,7.936v1.86H21.576c-6.572,0-10.044-.124-14.26-.5a88.689,88.689,0,0,1,.5,9.672v10.168a51.226,51.226,0,0,1-.62,9.424H18.848v5.084a83.172,83.172,0,0,1,11.656-.5Zm47.74-19.468V-74.9c-2.6.124-3.844.124-7.316.124H69.192a64.137,64.137,0,0,1,.124-6.448Zm-47.616,0v6.448H30.5c-3.472,0-5.332,0-7.192-.124V-81.22Zm106.516,68.7c-1.984.62-1.984.62-4.34,1.24V-39.308a93.782,93.782,0,0,1,.5-11.78H142.476a81.277,81.277,0,0,1,.62,12.4v30.5a35.494,35.494,0,0,1-5.58.992l2.976,16.864c3.844-1.364,5.208-1.86,10.044-3.472,12.648-4.092,19.1-6.324,27.032-9.3,2.976,3.968,4.092,5.952,7.316,13.02C199.764,5.7,209.56,1.612,219.356-4.464c7.068,9.424,15.252,14.88,22.568,14.88A10.549,10.549,0,0,0,251.1,5.828c2.976-4.216,3.968-7.936,4.96-18.476-4.712-2.108-7.44-4.092-11.9-8.556a60.727,60.727,0,0,1-1.24,12.028c-.372,2.232-1.116,3.224-2.232,3.224-1.984,0-5.208-2.728-8.928-7.44A176.6,176.6,0,0,0,245.4-25.544c2.108-1.984,2.108-2.108,2.976-2.852l-12.152-8.68c-1.984,3.1-4.96,5.952-11.16,10.912a49.883,49.883,0,0,1-2.6-9.548L241.8-37.944a95.247,95.247,0,0,1,11.78-.868l-1.488-14.136c-3.348.744-6.944,1.364-11.532,1.984l-20.212,2.232c-.372-2.852-.372-2.976-.62-6.448L235.1-56.916a105.638,105.638,0,0,1,10.788-.868h.992L245.4-70.928a66.77,66.77,0,0,1-11.78,1.86L218.86-67.332c-.124-1.612-.124-1.612-.372-6.324L237.46-75.64c4.712-.5,8.06-.744,10.54-.744a4.8,4.8,0,0,1,1.116.124l-1.364-14.012a100.83,100.83,0,0,1-11.284,1.736l8.06-6.82c-5.952-4.092-7.936-5.084-15.5-8.556l-8.8,7.936a72.141,72.141,0,0,1,13.02,7.688l-15.376,1.612c-.124-3.72-.124-4.588-.124-6.7,0-5.58.124-7.688.62-10.044H201.5c.62,3.72.744,4.712.868,11.656.248,5.7.248,5.7.248,6.572l-6.324.62a83.447,83.447,0,0,1-8.68.62,16.826,16.826,0,0,1-2.232-.124l1.364,13.888a100.046,100.046,0,0,1,10.416-1.364l6.076-.62c.124,1.736.124,1.736.5,6.448l-5.456.62c-3.6.372-6.324.62-8.432.62a3.988,3.988,0,0,1-.992-.124l1.488,13.268a75.576,75.576,0,0,1,9.424-1.488l4.836-.62c.372,2.976.372,3.1.744,6.448L197.408-46a75.239,75.239,0,0,1-10.912.744l1.24,14.136a107.041,107.041,0,0,1,11.284-1.86l8.432-.992c1.612,7.688,2.232,10.292,4.712,16.244A131.716,131.716,0,0,1,187.24-7.316l-.62-14.26c-5.952,2.232-6.572,2.48-12.4,4.464V-31.744h2.232a42.9,42.9,0,0,1,7.564.372v-14.88a28.309,28.309,0,0,1-7.564.62H174.22V-59.024a93.737,93.737,0,0,1,9.424.372c-.372-2.976-.372-4.588-.372-12.524V-88.66c0-5.332.124-8.308.5-12.524a86.917,86.917,0,0,1-11.532.5h-17.98a101.108,101.108,0,0,1-11.532-.5c.248,5.084.372,7.44.372,12.524v17.484c0,5.208-.124,7.936-.372,12.648a89.462,89.462,0,0,1,10.292-.5h6.82ZM157.6-86.3h12.028v13.392H157.6Zm129.456-.868c-7.068,0-7.688,0-10.788-.372a102.98,102.98,0,0,1,.5,12.9V-9.424a130.536,130.536,0,0,1-.744,16.492H291.9V-3.844h15V3.348h15.252C321.9-.124,321.78-4.34,321.78-8.68V-55.924a32,32,0,0,1,5.084,6.448A92.128,92.128,0,0,0,343.356-72.54h25.3c-.248,34.6-1.488,55.056-3.844,62.372-1.24,3.6-3.224,4.588-8.68,4.588-3.844,0-7.316-.372-15.128-1.612a60.388,60.388,0,0,1,4.092,16.616c4.712.248,8.68.372,10.292.372,7.812,0,13.516-.992,17.36-2.852,2.976-1.488,4.96-4.34,6.448-8.928,2.852-8.928,4.092-22.692,4.96-52.452.62-23.56.62-23.56.62-24.18.124-3.348.124-3.348.124-4.092.124-2.108.124-3.224.5-5.952a71.6,71.6,0,0,1-10.54.5H350.176c1.364-3.844,1.984-5.58,2.976-8.8.62-1.984,1.612-4.588,1.984-5.456l-16.74-2.6a56.094,56.094,0,0,1-2.356,9.548,89.768,89.768,0,0,1-14.26,27.032V-83.7c.248-2.728.248-2.728.372-3.844-1.488.124-5.084.248-10.54.372h-6.324a147.328,147.328,0,0,0,6.324-15.624l-16.74-2.108a95.9,95.9,0,0,1-5.208,17.732ZM291.9-72.788h15v19.344h-15Zm0,33.48h15v21.2h-15ZM361.584-28.4a184.54,184.54,0,0,0-16.12-30.752l-13.764,6.7a112.822,112.822,0,0,1,14.632,31.5Zm76.26-74.772c-.124,5.332-1.116,11.408-3.348,20.708-2.356.124-4.712.248-5.456.248a92.417,92.417,0,0,1-17.36-1.24v16.864h4.712c4.216.248,4.216.248,5.58.248h1.488c2.976-.124,2.976-.124,6.7-.124-5.952,18.848-14.384,36.208-23.312,47.988l16.988,9.424c.744-1.612.744-1.612,2.356-4.712,4.712-8.928,5.828-11.16,8.68-17.236,5.7-12.276,8.68-20.336,13.516-35.96,9.92-.868,15-1.364,19.344-1.984a29.614,29.614,0,0,1,3.844-.5L471.2-86.552c-4.464,1.488-10.664,2.48-18.724,3.224.248-1.24.248-1.24.744-3.1.868-4.34,1.488-7.068,1.736-8.184,1.24-5.456,1.24-5.456,1.736-6.7ZM520.428-71.92c-11.284-6.7-21.2-11.284-36.084-16.616l-8.8,14.384c14.384,4.96,25.668,10.292,36.952,17.608Zm-.744,56.3c-.992-.744-.992-.744-2.108-1.612-2.108-1.736-3.224-2.6-4.836-3.72a85.142,85.142,0,0,0-18.724-10.788,119.481,119.481,0,0,1-1.116-16.74,37.6,37.6,0,0,1,1.612-12.276l-17.236-.868a77.993,77.993,0,0,0-.992,13.764,112.975,112.975,0,0,0,.62,12.028,53.511,53.511,0,0,0-9.052-.744c-5.7,0-9.548.5-13.268,1.86-9.8,3.472-15.748,11.408-15.748,20.832C438.836-.62,450,8.184,466.984,8.184c10.168,0,18.6-3.1,22.94-8.432,2.976-3.72,4.092-7.44,4.216-13.268C500.96-9.424,507.9-3.72,511.748.992Zm-42.408-4.464a18.791,18.791,0,0,1,.248,3.472c0,6.076-3.6,9.176-11.036,9.176-6.572,0-10.416-2.728-10.416-7.192,0-4.34,4.588-7.316,11.408-7.316A26.264,26.264,0,0,1,477.276-20.088ZM638.352,2.6c-1.488-3.1-3.72-8.556-6.076-14.88L605-85.312a83.966,83.966,0,0,1-4.216-12.9H574.12a95.21,95.21,0,0,1-3.968,12.9L543.12-12.276A115.272,115.272,0,0,1,536.8,2.6h24.552A61.915,61.915,0,0,1,564.7-10.54l4.216-12.028H606.36l4.216,12.028A88.681,88.681,0,0,1,613.8,2.6Zm-37.2-42.656H574.12l11.656-35.092c.868-2.48.992-3.1,1.736-5.7.992,3.348,1.488,4.588,1.86,5.7ZM657.7-98.208a103.526,103.526,0,0,1,.992,17.112v66.588A106.43,106.43,0,0,1,657.7,2.6h22.816a104.485,104.485,0,0,1-.992-17.112V-81.1a102.575,102.575,0,0,1,.992-17.112ZM766.32-54.932v13.764H749.828c-4.588,0-7.192-.124-10.168-.372.248,3.1.372,6.7.372,10.54V-2.6c0,4.34-.248,9.8-.5,13.144h16.12v-5.7H794.1v5.7h16.74a125.385,125.385,0,0,1-.62-13.02V-30.5a96,96,0,0,1,.5-11.036,97.5,97.5,0,0,1-10.044.372h-17.98V-54.932H802.9a107.145,107.145,0,0,1,14.26.744V-70.68a108.442,108.442,0,0,1-14.26.744H782.688V-84.444c7.068-1.116,20.46-3.472,24.676-4.588,4.34-.992,4.34-.992,6.7-1.612L803.4-105.276c-11.408,5.456-39.308,9.8-66.836,10.416a43.5,43.5,0,0,1,5.456,14.384c10.416-.5,14.384-.868,24.3-1.984v12.524H748.712a110.316,110.316,0,0,1-14.136-.744v16.492a121,121,0,0,1,14.26-.744ZM755.78-26.784h38.44V-9.92H755.78ZM705.188-92.876A146.208,146.208,0,0,1,727.756-75.64l9.672-12.772c-8.432-7.068-11.656-9.424-22.32-16.12Zm-3.6,31.992a139.333,139.333,0,0,1,23.312,16l8.928-13.64a145.162,145.162,0,0,0-23.188-14.508Zm19.1,21.576c-6.324,17.732-12.028,29.016-18.724,37.2l14.26,11.532c6.324-10.788,11.408-22.2,17.484-39.68ZM903.96-27.28H930.5v18.6c0,2.48-.992,2.976-5.828,2.976-3.72,0-9.052-.372-14.756-.868A54.34,54.34,0,0,1,914.128,8.68c3.844.248,10.044.5,13.516.5,14.756,0,18.972-3.1,18.972-14.012v-81.22a148.653,148.653,0,0,1,.5-14.88,147.069,147.069,0,0,1-14.88.5h-70.8c-6.7,0-9.92-.124-14.508-.5a148.5,148.5,0,0,1,.62,16.368c0,55.056-1.86,68.076-12.028,83.824A100.693,100.693,0,0,1,849.9,11.16c6.944-11.408,10.168-21.7,12.152-38.44h26.164v19.1a107.915,107.915,0,0,1-.744,15.128H904.58a117.438,117.438,0,0,1-.62-15.252Zm0-43.772V-85.188H930.5v14.136Zm-15.748,0H863.66V-85.188h24.552ZM903.96-56.544H930.5v14.632H903.96Zm-15.748,0v14.632H863.04c.248-6.572.372-9.3.372-14.632ZM1031.556-81.1c.62-19.592.62-19.592,1.24-23.312h-20.212c.62,2.976.868,7.688.868,14.756,0,2.976,0,5.084-.124,8.556H992.5a114.946,114.946,0,0,1-15.872-.868v18.1a113.969,113.969,0,0,1,15.5-.868h20.088c-1.612,12.648-3.6,20.708-7.068,27.652-6.572,13.144-17.608,22.816-34.6,30.132A59.332,59.332,0,0,1,983.2,9.176C1000.8-.62,1012.088-11.16,1019.4-24.3c5.456-9.8,9.176-23.684,11.036-40.424H1060.7c-.124,22.568-1.116,40.3-2.6,47.12-1.116,5.456-3.6,7.564-8.8,7.564a108.594,108.594,0,0,1-19.84-2.232,73.374,73.374,0,0,1,4.092,18.352A159.118,159.118,0,0,0,1051.4,7.192c9.424,0,15.252-1.736,18.6-5.456,3.6-4.092,5.828-14.26,6.82-31.744.62-10.044,1.24-28.644,1.488-39.928,0-5.456.124-6.82.5-11.78a147.984,147.984,0,0,1-16.616.62Zm113.212,21.2a2.182,2.182,0,0,1,.744-.124c1.612,0,1.612,0,3.6.124,5.332.372,16.368.744,20.832.744,2.728,0,4.836,0,8.432-.124.372,13.144.62,18.724.744,22.94a37.187,37.187,0,0,0-8.928-.992c-16.368,0-27.156,8.8-27.156,22.2s10.416,21.576,27.528,21.576c15.748,0,25.668-6.944,25.668-17.856a14.334,14.334,0,0,0-.124-2.108c7.192,4.588,13.144,9.3,16,12.772l6.82-17.856c-1.364-.868-1.736-1.116-3.6-2.356-6.2-4.464-9.8-6.448-18.972-10.788-.992-15.872-1.116-18.6-1.24-28.644a141.681,141.681,0,0,0,15.748-2.48,30.479,30.479,0,0,1,4.836-.744l-.62-16.864a105.052,105.052,0,0,1-20.088,4.092c0-13.516.124-18.6.868-22.692H1177.5a31.654,31.654,0,0,1,.5,6.448c.124,8.308.124,8.308.124,17.484-4.216.124-6.448.124-9.92.124-10.168,0-17.732-.62-23.188-1.86Zm34.72,39.556a11.55,11.55,0,0,1,.124,2.6c0,6.2-3.1,8.928-10.292,8.928-6.076,0-9.8-2.48-9.8-6.448,0-4.216,4.34-6.944,10.912-6.944A22.336,22.336,0,0,1,1179.488-20.336Zm-60.512-79.236a69.227,69.227,0,0,1-1.488,10.54c-2.48,13.392-2.48,13.392-2.976,17.112a222.377,222.377,0,0,0-2.356,33.356c0,13.268.868,24.18,3.348,40.672.372,2.6.372,3.348.5,4.96l17.732-.868c-.124-2.232-.248-3.472-.248-3.968,0-9.424,4.588-24.8,11.16-37.82L1134.1-39.8c-1.984,3.968-2.852,6.2-5.58,12.9,0-1.984.124-6.82.124-9.3a237.38,237.38,0,0,1,1.612-23.932c1.86-14.88,5.58-32.488,8.184-37.7Z" transform="translate(348 247)"></path><path id="&#x30D1;&#x30B9;_33814" data-name="&#x30D1;&#x30B9; 33814" d="M21.948-84.568a153.545,153.545,0,0,1,34.224,17.36L65.6-83.328a194.926,194.926,0,0,0-34.224-16.12Zm-9.8,30.38A136.741,136.741,0,0,1,46.624-35.464L55.676-52.08C44.764-59.272,35.588-63.86,21.948-69.316ZM20.46,5.7a66.182,66.182,0,0,1,8.8-2.108C61.008-2.48,81.592-13.02,98.084-31.868c7.564-8.68,12.524-16.988,18.972-31.868-6.324-3.968-8.556-5.828-15.5-13.144C97.712-65.72,93.992-58.4,87.42-49.476,77.748-36.332,67.456-28.4,52.2-22.444c-13.02,5.084-25.792,7.936-36.952,8.184Zm126.6-84.816a131.008,131.008,0,0,1,32.612,25.668L192.2-69.688c-9.92-9.176-16.988-14.384-32.984-24.056Zm5.952,82.584a45.243,45.243,0,0,1,6.2-1.736c2.356-.5,2.356-.5,5.456-1.116a157.412,157.412,0,0,0,36.084-12.9c21.576-11.408,36.208-27.776,48.484-54.312-7.688-5.456-9.92-7.564-15.748-14.384A107.4,107.4,0,0,1,220.968-56.3c-9.672,14.508-20.708,23.808-36.456,30.38a118.542,118.542,0,0,1-36.952,9.052ZM299.584-91.14c-10.292,0-14.136-.124-19.468-.868v18.972c5.084-.62,9.052-.744,19.22-.744h54.312c-5.7,22.568-17.856,39.556-36.952,51.708A100.7,100.7,0,0,1,290.036-9.8C297.1-2.728,299.088,0,303.18,7.936c21.328-9.548,35.34-19.22,46.748-32.612,11.408-13.268,19.344-29.388,24.552-50.22l.5-1.736h.5A13.707,13.707,0,0,0,389.112-90.4a13.733,13.733,0,0,0-13.764-13.764,13.687,13.687,0,0,0-13.64,12.772,45.133,45.133,0,0,1-5.332.248Zm75.764-5.332a6.086,6.086,0,0,1,6.076,6.076,6.086,6.086,0,0,1-6.076,6.076,6.086,6.086,0,0,1-6.076-6.076A6.086,6.086,0,0,1,375.348-96.472Zm46.872-1.736a96.065,96.065,0,0,1,.5,12.524c0,6.7-.248,15.128-.5,21.2-.744,13.144-1.86,20.336-4.464,28.52-3.72,12.028-9.052,19.964-18.6,28.4,6.7,4.712,9.052,6.944,15,14.508,8.06-8.184,12.648-14.632,16.988-23.684,6.572-13.516,8.928-26.412,9.8-52.2.868-24.428.868-24.428,1.364-28.148Zm33.976-.868a89.626,89.626,0,0,1,.5,11.408V-84.2l-.5,69.688c-.124,5.952-.372,8.432-1.24,11.9l9.176,9.8a26.2,26.2,0,0,1,5.7-2.48C482.484,0,488.808-3.6,496-9.8c8.8-7.688,15.376-17.236,20.584-30.132-6.82-5.456-8.8-7.44-13.888-13.888A62,62,0,0,1,491.66-31.868c-4.712,5.952-9.3,9.672-16.988,13.888l.62-65.968c.124-8.432.248-9.92.992-15Zm109.368-4.092c-.124,5.332-1.116,11.408-3.348,20.708-2.356.124-4.712.248-5.456.248a92.418,92.418,0,0,1-17.36-1.24v16.864h4.712c4.216.248,4.216.248,5.58.248h1.488c2.976-.124,2.976-.124,6.7-.124-5.952,18.848-14.384,36.208-23.312,47.988l16.988,9.424c.744-1.612.744-1.612,2.356-4.712,4.712-8.928,5.828-11.16,8.68-17.236,5.7-12.276,8.68-20.336,13.516-35.96,9.92-.868,15-1.364,19.344-1.984a29.615,29.615,0,0,1,3.844-.5l-.372-17.112c-4.464,1.488-10.664,2.48-18.724,3.224.248-1.24.248-1.24.744-3.1.868-4.34,1.488-7.068,1.736-8.184,1.24-5.456,1.24-5.456,1.736-6.7ZM648.148-71.92c-11.284-6.7-21.2-11.284-36.084-16.616l-8.8,14.384c14.384,4.96,25.668,10.292,36.952,17.608Zm-.744,56.3c-.992-.744-.992-.744-2.108-1.612-2.108-1.736-3.224-2.6-4.836-3.72a85.142,85.142,0,0,0-18.724-10.788,119.485,119.485,0,0,1-1.116-16.74,37.6,37.6,0,0,1,1.612-12.276L605-61.628A77.99,77.99,0,0,0,604-47.864a112.975,112.975,0,0,0,.62,12.028,53.51,53.51,0,0,0-9.052-.744c-5.7,0-9.548.5-13.268,1.86-9.8,3.472-15.748,11.408-15.748,20.832,0,13.268,11.16,22.072,28.148,22.072,10.168,0,18.6-3.1,22.94-8.432,2.976-3.72,4.092-7.44,4.216-13.268,6.82,4.092,13.764,9.8,17.608,14.508ZM605-20.088a18.792,18.792,0,0,1,.248,3.472c0,6.076-3.6,9.176-11.036,9.176-6.572,0-10.416-2.728-10.416-7.192,0-4.34,4.588-7.316,11.408-7.316A26.264,26.264,0,0,1,605-20.088Zm110.856-67.7H685.6a122.057,122.057,0,0,1-16.244-.868V-71.3a155.79,155.79,0,0,1,16.244-.744h17.98a143.708,143.708,0,0,1-.868,14.88c-1.736,14.756-5.456,24.552-12.524,33.976C683.736-14.756,678.776-10.416,667-3.224a47.651,47.651,0,0,1,11.78,14.012c13.516-9.052,22.2-17.608,28.768-28.4a87.411,87.411,0,0,0,10.664-27.156h32.364c-.372,13.64-.992,22.072-2.232,28.4-1.364,8.06-2.852,9.672-8.68,9.672a112.362,112.362,0,0,1-18.228-1.612c2.852,7.192,3.72,10.788,4.216,16.988,9.8.62,12.772.744,16.244.744,12.9,0,17.856-3.1,20.832-13.268,2.48-8.184,3.72-18.848,4.712-39.556.248-5.828.62-10.912,1.116-14.756.124-1.612.124-1.612.248-2.48a105.573,105.573,0,0,1-12.9.5H720.316c.248-3.6.5-6.324.868-11.9h44.764A123.756,123.756,0,0,1,781.7-71.3V-88.66a115.651,115.651,0,0,1-16.368.868h-32.24v-6.7a54.459,54.459,0,0,1,.744-10.044H714.984a47.3,47.3,0,0,1,.868,10.044Zm102.3,15.128h-7.068a47.4,47.4,0,0,1-8.8-.62V-57.66a47.744,47.744,0,0,1,8.308-.62h5.952c-2.48,9.8-10.416,24.056-17.484,31.372A70.788,70.788,0,0,1,806-11.532,62.134,62.134,0,0,0,818.524-33.6c0,2.852-.248,9.672-.372,12.276V-3.72a124.034,124.034,0,0,1-.744,14.756h16.616a112.15,112.15,0,0,1-.62-14.88V-28.4c0-3.472-.248-8.308-.5-10.912a52.633,52.633,0,0,0,8.308,11.9,53.052,53.052,0,0,1,5.7-11.284,112.969,112.969,0,0,1,12.648-.5H871.6v8.308H860.188a102.159,102.159,0,0,1-12.648-.5V-16.12a115.833,115.833,0,0,1,12.648-.5H871.6V-7.44h-16c-7.068,0-10.912-.124-14.26-.62V7.564A113.813,113.813,0,0,1,855.6,6.82h46.252a115.207,115.207,0,0,1,14.26.744V-8.06a101.751,101.751,0,0,1-14.26.62H887.1v-9.176h12.152a117.294,117.294,0,0,1,12.648.5V-31.372a112.969,112.969,0,0,1-12.648.5H887.1v-8.308h13.02a112,112,0,0,1,14.26.62v-15.5a106.4,106.4,0,0,1-14.136.62H859.816a124.609,124.609,0,0,1-13.64-.5v11.656c-5.952-5.456-8.556-8.928-12.028-16h3.472a48.334,48.334,0,0,1,7.936.5V-73.16a42.7,42.7,0,0,1-7.564.5H833.4v-14.88c3.968-1.24,5.456-1.736,14.756-5.332l-9.672-13.144c-6.2,4.216-20.584,8.184-37.2,10.292a54.067,54.067,0,0,1,5.456,14.012c6.076-1.116,8.308-1.488,11.408-2.108Zm31.5,3.348a65.458,65.458,0,0,1-.5,9.8c2.852-.248,6.324-.372,10.54-.372h40.672c4.34,0,7.688.124,10.54.372a70.648,70.648,0,0,1-.5-9.92V-91.016a78.216,78.216,0,0,1,.5-9.8,79.556,79.556,0,0,1-10.54.5H859.692a81.981,81.981,0,0,1-10.54-.5,73.292,73.292,0,0,1,.5,9.8Zm15.376-17.112H894.66v13.02H865.024Zm170.128,1.86,9.92-6.82c-6.448-6.324-8.68-8.308-13.64-12.028L1019.9-95.852a76.134,76.134,0,0,1,12.4,11.284h-15.376c-.124-9.052-.124-9.052-.124-9.92a66.076,66.076,0,0,1,.5-8.8H999.812a86.435,86.435,0,0,1,.62,8.928c.124,4.464.124,4.464.248,9.8H952.816a127.258,127.258,0,0,1-15.252-.744v16.244a146.113,146.113,0,0,1,15.252-.744H1001.3c1.116,19.344,3.224,32.736,7.068,45.26C1011.22-15.624,1016.056-5.7,1020.644,0c4.464,5.58,10.292,9.3,14.756,9.3,3.72,0,7.068-2.232,9.548-6.076,3.348-5.208,5.332-12.152,7.068-24.428a58.274,58.274,0,0,1-13.392-8.06c-1.364,11.532-2.976,18.724-4.092,18.724-1.488,0-6.2-7.564-9.176-14.632-4.34-10.664-6.7-24.18-7.936-44.64h16.368a124.419,124.419,0,0,1,15.252.744v-16.12c-2.852.5-6.076.62-12.028.62ZM961.62-41.912v28.4c-13.516,1.86-19.22,2.48-24.056,2.48l2.48,16.616a73.037,73.037,0,0,1,8.184-1.364C964.1,1.86,979.1-1.116,1002.044-6.572v-15c-11.036,2.728-15.748,3.844-24.428,5.456V-41.912h6.944c4.712,0,9.176.124,13.02.5V-56.668a118.435,118.435,0,0,1-13.268.62H955.3a119.313,119.313,0,0,1-13.392-.62v15.252c3.844-.248,8.308-.5,13.02-.5Z" transform="translate(356.5 453)"></path><path id="&#x30D1;&#x30B9;_33816" data-name="&#x30D1;&#x30B9; 33816" d="M105.4-37.572a118.056,118.056,0,0,1,14.26.744V-53.692a72.882,72.882,0,0,1-9.548.744V-78a64.648,64.648,0,0,1,.5-9.672,87.649,87.649,0,0,1-11.78.5H79.98v-5.952a56.215,56.215,0,0,1,.744-11.16H63.116a72.589,72.589,0,0,1,.744,11.532v5.58H55.552c-5.456,0-9.672-.248-13.64-.62v16.244a133.121,133.121,0,0,1,13.64-.62H63.86c0,8.308-.248,13.64-.62,19.22H51.088c-5.7,0-10.292-.248-14.26-.62v16.74a113.219,113.219,0,0,1,14.384-.744H61.256a45.188,45.188,0,0,1-7.564,16.616c-5.7,7.688-12.4,12.648-24.924,17.98A56.211,56.211,0,0,1,38.812,11.9C57.536,1.86,67.828-9.052,74.028-25.544,80.6-11.036,94.364,2.232,112.1,10.912c2.728-7.44,4.588-11.408,8.184-16.864C109.988-9.8,103.416-13.888,96.472-20.336a56.956,56.956,0,0,1-13.02-17.236ZM79.112-52.948c.5-6.448.62-11.036.744-19.22H94.488v19.22ZM7.44-92.132c9.8,6.2,13.764,9.424,22.072,17.484L39.8-87.668c-8.556-7.564-13.392-11.16-22.32-16.244ZM3.348-60.884A137.624,137.624,0,0,1,26.04-44.02l9.3-13.516C26.288-64.852,21.7-67.952,12.648-72.912Zm18.1,21.824c-4.712,14.26-7.812,21.7-12.9,30.5A51.1,51.1,0,0,1,3.6-1.612L17.484,10.664A195.509,195.509,0,0,0,34.472-29.884ZM246.884-14.384c-1.86-1.116-2.6-1.612-4.588-2.976-13.764-9.424-22.32-13.764-33.976-17.236,0-1.86-.248-6.2-.372-12.9,4.96-.248,13.02-.868,18.972-1.488,7.44-.744,7.44-.744,9.176-.992,1.116,0,1.86-.124,2.108-.124a11.754,11.754,0,0,1,2.6-.248l-.5-16.244c-8.06,2.108-17.98,3.348-32.612,4.216,0-1.984,0-5.332-.124-10.168,8.432-.372,16.244-1.116,25.916-2.356,7.316-.992,7.316-.992,10.292-1.116l-.5-16.244c-8.556,2.232-18.848,3.6-35.588,4.464.248-9.548.248-10.54.992-14.012H189.968c.62,4.34.744,5.332.744,14.632-3.224.124-7.068.248-8.556.248-14.384,0-27.156-.992-33.976-2.728l-.248,16.492a13.7,13.7,0,0,1,1.984-.124c.5,0,1.612,0,3.1.124,16.12.868,26.66,1.24,31.372,1.24,1.86,0,3.348,0,6.572-.124v3.1l.124,7.192c-3.348.124-7.688.124-10.292.124-11.532,0-23.312-.744-28.768-1.984L151.9-47.74c2.108,0,3.224,0,4.96.124,11.284.62,15.5.744,23.56.744,2.6,0,7.44-.124,10.912-.124l.248,9.92c-2.6-.124-4.092-.248-6.2-.248-22.072,0-35.34,8.308-35.34,22.2,0,13.392,10.664,20.956,29.512,20.956,19.84,0,29.264-6.82,29.264-21.08a13.7,13.7,0,0,0-.124-1.984c7.068,2.976,15.252,8.308,22.32,14.26a50.537,50.537,0,0,1,5.828,5.7ZM191.7-21.328s.124,1.488.124,2.48c0,7.192-3.1,9.8-11.532,9.8-7.316,0-11.656-2.356-11.656-6.2,0-4.464,5.332-7.192,14.012-7.192A32.911,32.911,0,0,1,191.7-21.328Zm102.052-80.6a26.973,26.973,0,0,1-.248,4.34c-.248,2.232-.744,7.192-1.612,15-.992,8.928-1.736,22.568-1.736,33.108,0,2.6.124,6.324.248,10.788.124,6.572.124,6.572.124,7.068a12.852,12.852,0,0,1-.124,1.984l17.732-.248v-1.86c0-15.624,5.828-30.132,16-40.052,4.092-3.968,7.936-5.828,12.4-5.828,9.8,0,15.252,9.3,15.252,25.916,0,27.528-14.384,40.052-49.1,42.78a61.873,61.873,0,0,1,8.556,17.98,116.343,116.343,0,0,0,25.544-6.82c22.072-9.3,33.48-27.032,33.48-51.956,0-13.144-1.984-21.948-6.7-30.132-5.828-10.044-14.756-15.5-25.048-15.5A29.931,29.931,0,0,0,318.06-86.8c-4.34,4.092-7.316,8.556-11.036,16.368,2.48-18.848,3.6-25.048,5.456-30.628ZM514.724-14.384c-1.86-1.116-2.6-1.612-4.588-2.976-13.764-9.424-22.32-13.764-33.976-17.236,0-1.86-.248-6.2-.372-12.9,4.96-.248,13.02-.868,18.972-1.488,7.44-.744,7.44-.744,9.176-.992,1.116,0,1.86-.124,2.108-.124a11.754,11.754,0,0,1,2.6-.248l-.5-16.244c-8.06,2.108-17.98,3.348-32.612,4.216,0-1.984,0-5.332-.124-10.168,8.432-.372,16.244-1.116,25.916-2.356,7.316-.992,7.316-.992,10.292-1.116l-.5-16.244c-8.556,2.232-18.848,3.6-35.588,4.464.248-9.548.248-10.54.992-14.012H457.808c.62,4.34.744,5.332.744,14.632-3.224.124-7.068.248-8.556.248-14.384,0-27.156-.992-33.976-2.728l-.248,16.492a13.7,13.7,0,0,1,1.984-.124c.5,0,1.612,0,3.1.124,16.12.868,26.66,1.24,31.372,1.24,1.86,0,3.348,0,6.572-.124v3.1l.124,7.192c-3.348.124-7.688.124-10.292.124-11.532,0-23.312-.744-28.768-1.984L419.74-47.74c2.108,0,3.224,0,4.96.124,11.284.62,15.5.744,23.56.744,2.6,0,7.44-.124,10.912-.124l.248,9.92c-2.6-.124-4.092-.248-6.2-.248-22.072,0-35.34,8.308-35.34,22.2,0,13.392,10.664,20.956,29.512,20.956,19.84,0,29.264-6.82,29.264-21.08a13.7,13.7,0,0,0-.124-1.984c7.068,2.976,15.252,8.308,22.32,14.26a50.533,50.533,0,0,1,5.828,5.7Zm-55.18-6.944s.124,1.488.124,2.48c0,7.192-3.1,9.8-11.532,9.8-7.316,0-11.656-2.356-11.656-6.2,0-4.464,5.332-7.192,14.012-7.192A32.911,32.911,0,0,1,459.544-21.328Zm84.2-48.236c10.664-1.488,26.784-2.356,56.3-3.224v7.564a18.291,18.291,0,0,1,.124,1.984c-2.852-1.736-6.82-2.728-11.656-2.728-15.376,0-26.288,9.672-26.288,23.188a20.357,20.357,0,0,0,8.308,16.988,24.411,24.411,0,0,0,14.88,4.96c7.812,0,13.144-2.108,17.484-6.944-.868,3.968-2.852,6.944-6.7,10.168-6.2,5.332-14.88,8.68-28.024,10.912,5.084,5.58,6.7,8.308,10.292,16.74C589.5,6.7,595.82,3.968,602.02-.124c13.02-8.432,19.592-19.964,19.592-34.224a37.738,37.738,0,0,0-4.588-18.724v-2.852l.124-10.168v-4.092l-.124-2.852c6.324-.124,7.316-.124,13.888-.124,13.268,0,16.244.124,21.576.5l-.124-17.112c-4.96.5-14.508.744-35.464.868.124-8.184.124-8.432.744-13.764H598.92c.62,4.216.62,4.836.868,14.136-34.968.992-47.368,1.364-50.1,1.364a62.87,62.87,0,0,1-6.448-.248Zm46.624,17.112c5.828,0,9.672,3.1,9.672,7.564,0,5.208-4.712,9.3-10.788,9.3-5.456,0-9.424-3.472-9.424-8.184C579.824-48.732,584.288-52.452,590.364-52.452Z" transform="translate(630 652)"></path><path id="&#x30D1;&#x30B9;_33815" data-name="&#x30D1;&#x30B9; 33815" d="M105.276-50.344A66.461,66.461,0,0,0,94.86-67.084L84.32-62.372A79.3,79.3,0,0,1,94.612-45.136Zm14.384-6.82c-3.968-7.812-5.7-10.54-10.292-15.872L99.076-68.572A82.271,82.271,0,0,1,109.12-51.956ZM9.176-69.192A178.6,178.6,0,0,1,27.4-71.424c27.652-2.108,28.148-2.232,40.548-3.6C50.716-65.1,41.788-51.46,41.788-34.72c0,14.136,6.7,24.924,19.592,31.62C68.82.868,77.5,2.976,91.388,4.588a30.169,30.169,0,0,1,4.34.62l2.6-20.088c-1.488.124-2.356.124-3.1.124A80.911,80.911,0,0,1,76.88-17.608C66.464-20.584,60.76-27.28,60.76-36.456c0-11.284,8.432-22.816,22.444-30.752,8.308-4.712,18.352-7.564,26.412-7.564a27.056,27.056,0,0,1,2.976.124L111.6-93.62c-2.232.5-2.976.62-13.888,1.116-34.1,1.488-55.428,2.48-63.984,3.1C16.12-88.288,15.376-88.288,13.02-88.288c-.5,0-1.984,0-4.836-.124Z" transform="translate(1499.5 449)"></path><g id="&#x9577;&#x65B9;&#x5F62;_5002" data-name="&#x9577;&#x65B9;&#x5F62; 5002" transform="translate(296.5 315)" fill="none" stroke="#000" stroke-width="7"><rect width="1178" height="181" stroke="none"></rect><rect x="3.5" y="3.5" width="1171" height="174" fill="none"></rect></g></g></svg>