<svg xmlns="http://www.w3.org/2000/svg" width="1719.33" height="414" viewBox="0 0 1719.33 414"><g id="&#x30B0;&#x30EB;&#x30FC;&#x30D7;_20962" data-name="&#x30B0;&#x30EB;&#x30FC;&#x30D7; 20962" transform="translate(-49.494 -11985)"><path id="&#x30D1;&#x30B9;_36634" data-name="&#x30D1;&#x30B9; 36634" d="M37.765-4.615H27.95A46.235,46.235,0,0,1,21-4.94V4.615a59.258,59.258,0,0,1,8.32-.39H54.86a54.628,54.628,0,0,1,8.19.39V-4.94a50.6,50.6,0,0,1-7.41.325H46.93v-3.77h7.02a52.454,52.454,0,0,1,7.28.325v-9.3a50.051,50.051,0,0,1-7.41.325H46.93v-3.25h7.475c3.835,0,4.42,0,6.37.13a70.94,70.94,0,0,1-.325-9.1V-43.94c0-4.355.13-7.6.325-9.62a56.259,56.259,0,0,1-8.58.325H33.6a86.839,86.839,0,0,1-9.165-.325,77.51,77.51,0,0,1,.325,9.165v15.6c0,4.485-.065,6.89-.26,8.71,1.755-.13,3.12-.2,7.475-.2h5.785v3.25H31.72a53.367,53.367,0,0,1-7.15-.26v9.165a57.959,57.959,0,0,1,7.215-.26h5.98Zm0-39.715V-40.5H33.8V-44.33Zm9.165,0H50.9V-40.5H46.93ZM37.765-32.89v4.03H33.8v-4.03Zm9.165,0H50.9v4.03H46.93ZM8.45-43.55v10.14H7.865a32.973,32.973,0,0,1-4.745-.26v9.165a31.833,31.833,0,0,1,4.55-.26h.78v12.74A42.8,42.8,0,0,1,1.5-9.88L3.77.325c.91-.455.975-.455,1.43-.65,8.97-3.7,12.805-5.395,18.005-8l-.065-9.685c-2.34,1.17-2.99,1.43-5.135,2.34v-9.1h.39c1.43,0,2.47.065,3.965.2v-9.1a25.94,25.94,0,0,1-3.965.26h-.39V-43.55h.845a35.27,35.27,0,0,1,4.485.26v-9.555a51.156,51.156,0,0,1-6.175.325H8.58a54.025,54.025,0,0,1-6.24-.325v9.555a39.219,39.219,0,0,1,4.55-.26Zm97.24-1.885V-48.36a52.341,52.341,0,0,1,.39-6.955H95.03a55.233,55.233,0,0,1,.39,6.825v3.055H80.34a75.806,75.806,0,0,1-7.67-.26c.195,2.08.325,4.225.325,6.76V-3.7c0,3.77-.13,6.695-.39,9.75h10.01V3.38h36.14V6.045H128.83c-.26-3.38-.39-6.5-.39-9.62v-34.84a64.306,64.306,0,0,1,.325-7.345,70.445,70.445,0,0,1-8.125.325Zm0,39.65V-17.1h13.065v11.31Zm0-20.215V-36.27h13.065V-26ZM95.42-36.27V-26H82.615V-36.27Zm0,19.175v11.31H82.615V-17.1Z" transform="translate(48 12050)" fill="#533afc"></path><path id="&#x30D1;&#x30B9;_36635" data-name="&#x30D1;&#x30B9; 36635" d="M55.584,7.056c18.288,0,33.408-8.064,42.048-22.464C103.1-24.48,106.7-40.32,106.7-55.44a95.783,95.783,0,0,0-5.616-33.12,45.347,45.347,0,0,0-10.512-15.984c-8.784-8.64-21.024-13.392-34.992-13.392-18.144,0-33.12,8.064-41.9,22.752C8.208-86.112,4.608-70.416,4.608-55.3A95.552,95.552,0,0,0,10.224-22.32,45.347,45.347,0,0,0,20.736-6.336C29.52,2.448,41.472,7.056,55.584,7.056Zm0-100.656c13.968,0,21.456,12.96,21.456,37.584,0,25.632-7.2,38.592-21.312,38.592-14.256,0-21.6-13.248-21.6-39.024C34.128-79.92,42.048-93.6,55.584-93.6Zm60.768,66.816a53.52,53.52,0,0,0,2.448,7.632A38.986,38.986,0,0,0,133.632-.576c7.632,5.04,20.592,8.064,33.552,8.064,10.8,0,22.464-2.16,29.952-5.616a36.075,36.075,0,0,0,13.536-10.8c3.744-5.04,5.76-11.808,5.76-19.152a28.36,28.36,0,0,0-9.5-21.312c-5.04-4.32-9.792-6.336-18.576-7.632,16.56-3.888,24.768-13.392,24.768-28.656,0-8.208-2.736-15.12-8.064-20.448-8.208-7.92-21.168-12.24-36.864-12.24-17.568,0-30.816,4.9-39.6,14.4-4.608,5.04-6.912,9.36-9.648,18.288l31.1,4.464c2.16-9.216,7.344-13.248,17.568-13.248,9.5,0,14.976,4.464,14.976,12.24,0,9.216-6.768,13.824-20.448,13.824a126.5,126.5,0,0,1-15.264-.864V-44.5c5.616-.576,12.1-.864,17.712-.864a41.453,41.453,0,0,1,13.392,1.872c4.9,1.872,7.776,6.48,7.776,12.384,0,8.784-7.056,14.4-18.288,14.4-6.912,0-12.672-2.16-16.56-6.192-2.3-2.448-3.168-4.464-4.032-9.216Z" transform="translate(48 12210)" fill="#533afc"></path><path id="&#x30D1;&#x30B9;_36630" data-name="&#x30D1;&#x30B9; 36630" d="M93.2,3.348C91.8.324,90.072-4.1,88.02-9.828L64.584-74.844a86.182,86.182,0,0,1-3.672-11.664H32.724a65.926,65.926,0,0,1-3.456,11.664L5.94-9.828C3.348-2.484,2.376.108.756,3.348H26.028a62.239,62.239,0,0,1,2.7-11.664l2.916-9.18h30.78l2.916,9.18A87.708,87.708,0,0,1,67.932,3.348ZM57.132-35.64h-20.3l10.044-32.4Zm48.924-50.868a100.867,100.867,0,0,1,.864,15.984v57.888a103.507,103.507,0,0,1-.864,15.984h23.76a104.4,104.4,0,0,1-.864-15.984V-70.524a100,100,0,0,1,.864-15.984ZM245.16-9.18c-16.848-16.092-21.276-19.872-34.344-29.268,6.048-8.1,10.152-15.66,15.876-29.16,1.62-3.672,2.268-4.752,3.888-6.372l-9.5-9.72c-2.916,1.08-3.564,1.08-8.64,1.188l-36.936.54c-3.132.108-5.184.108-6.048.108a80.011,80.011,0,0,1-11.34-.756l.54,19.224c4.428-.648,7.884-.864,17.172-1.08l28.08-.432A86.883,86.883,0,0,1,182.2-33.156,101.848,101.848,0,0,1,147.2-11.34c6.048,6.264,8.316,9.5,12.1,17.064,16.74-8.1,29.592-17.6,39.744-29.592a173.641,173.641,0,0,1,31,30.672Zm46.332-82.188c-.54,3.78-1.836,7.344-4.644,12.96-7.02,13.824-15.552,23.652-28.728,32.94,7.128,4.32,9.828,6.7,15.336,12.96a101.317,101.317,0,0,0,24.516-27.108L326.7-59.94c-4,12.42-10.044,22.572-18.036,30.672-9.5,9.5-20.736,16.416-36.072,22.032A49.92,49.92,0,0,1,285.552,9.18c17.712-8.1,29.916-16.632,39.744-27.864,9.5-10.8,16.848-24.84,22.356-42.768,1.512-4.86,1.836-5.508,3.132-7.668l-8.964-8.856c-2.592.972-3.78,1.188-7.992,1.188l-27.108.324c.756-1.512.756-1.512,2.16-4.644q.324-.648.972-2.268c.324-.648.54-1.3.756-1.62a15.88,15.88,0,0,1,1.3-2.7ZM371.52-30.78c6.588-.54,10.152-.648,22.248-.648h51.408c12.312,0,17.064.108,22.248.648V-51.624a177.2,177.2,0,0,1-22.14.972H393.66c-11.232,0-17.064-.216-22.14-.972ZM500.148-86.4a79.153,79.153,0,0,1,.432,9.936c0,27.972-1.728,41.364-6.8,51.948A48.237,48.237,0,0,1,480.924-7.344c6.912,4.86,9.936,7.884,15.444,15.12C503.712,0,507.816-5.832,511.38-13.824c5.184-11.772,7.344-23.76,7.992-46.332.756-21.384.756-21.384,1.188-25.056Zm30.672-.54a64.188,64.188,0,0,1,.432,8.424v3.888l-.54,63.936c0,4.428-.216,6.264-1.188,9.072l9.288,9.72A24.168,24.168,0,0,1,544.1,5.832c10.908-4,16.2-6.8,22.68-12.312,8.208-7.02,13.824-15.336,18.684-27.432-6.156-4.752-8.964-7.56-14.364-14.256A54.692,54.692,0,0,1,562.68-29.7a41.741,41.741,0,0,1-12.96,11.88l.54-56.592a77.291,77.291,0,0,1,.864-12.528Z" transform="translate(324 12088)"></path><path id="&#x30D1;&#x30B9;_36632" data-name="&#x30D1;&#x30B9; 36632" d="M100.764-71.388a12.194,12.194,0,0,0,6.048-10.584,12.1,12.1,0,0,0-12.1-12.2,12.123,12.123,0,0,0-12.2,12.2A12.257,12.257,0,0,0,86.4-73.008H63.18v-4a82.4,82.4,0,0,1,.648-12.2H43.308a82.053,82.053,0,0,1,.648,11.988v4.212H24.192c-9.072,0-12.636-.216-16.524-.864V-55.4c3.888-.54,6.8-.648,16.308-.648h19.98v47.2A146.43,146.43,0,0,1,43.308,7.56H63.72c-.324-3.132-.54-8.964-.54-16.2V-56.052H84.132c9.4.108,13.068.216,16.632.648Zm-6.048-16.74a6.2,6.2,0,0,1,6.048,6.156,6.2,6.2,0,0,1-6.156,6.048,6.181,6.181,0,0,1-6.048-6.048A6.224,6.224,0,0,1,94.716-88.128ZM18.792-50.436c-1.3,13.824-8.1,30.78-16.74,42.012A76.067,76.067,0,0,1,19.872.432c7.992-11.88,13.608-26.028,16.74-42.66a35.5,35.5,0,0,1,.756-3.888Zm50.868,4.32a26.332,26.332,0,0,1,1.62,5.292C75.816-23,79.38-13.716,87.264.648A104.6,104.6,0,0,1,105.084-9.4c-7.02-9.828-14.364-27.216-17.5-41.256ZM119.448-30.78c6.588-.54,10.152-.648,22.248-.648H193.1c12.312,0,17.064.108,22.248.648V-51.624a177.2,177.2,0,0,1-22.14.972H141.588c-11.232,0-17.064-.216-22.14-.972ZM273.672,6.372a158.365,158.365,0,0,1-.648-16.524v-28.08c1.08.648,1.08.648,4.86,2.16A200.19,200.19,0,0,1,311.9-17.28l10.26-18.36A229.073,229.073,0,0,0,273.024-58.1V-72.9a139.653,139.653,0,0,1,.54-15.768H252.72a102.175,102.175,0,0,1,.756,15.66v62.856a154.142,154.142,0,0,1-.648,16.524Zm149.9-89.316c-2.376,1.08-4.32,1.4-7.884,1.4h-51.3c-10.584,0-13.824-.108-18.468-.864v19.548c5.724-.54,7.668-.648,18.144-.648h44.82c-3.348,12.96-8.856,22.788-17.928,31.968-9.5,9.5-20.844,16.092-36.4,21.168,7.128,7.02,9.4,9.936,13.608,18.144C387.18-.972,399.276-9.612,409.32-21.6c10.368-12.312,16.848-25.812,21.708-45.9.864-3.672,1.08-4.212,2.268-6.048Zm71.712,40.5c-3.456,5.508-7.884,10.368-14.364,15.66-6.48,5.4-12.528,9.072-22.032,13.5A47.828,47.828,0,0,1,469.908.756c12.2-6.7,20.3-12.636,27.756-20.412,3.672-3.78,7.56-8.64,8.64-11.016l.216,24.3v1.944a86.9,86.9,0,0,1-.648,12.1h18.036c-.54-3.78-.648-5.076-.756-14.364l-.324-35.748h6.156a115.032,115.032,0,0,1,11.88.432v-15.66a80.92,80.92,0,0,1-11.88.54H522.72l-.108-5.184v-.864c0-3.024.216-6.264.432-8.964h-17.5a71.087,71.087,0,0,1,.648,9.72v5.292h-27.54a88.881,88.881,0,0,1-13.716-.756V-41.9a115.475,115.475,0,0,1,13.716-.54ZM579.852-86.4a108.134,108.134,0,0,1,.648,14.256V-50.76c0,8.1-.108,11.88-.648,15.768H600.8a141.385,141.385,0,0,1-.54-15.444V-71.928A130.069,130.069,0,0,1,600.8-86.4Zm50.22,0a104.61,104.61,0,0,1,.648,14.8v11.232c0,9.4-.54,18.9-1.188,22.9-1.728,9.5-6.588,15.876-16.092,20.952-5.508,2.916-11.016,4.644-21.384,6.588,5.832,6.7,8.532,11.232,11.016,18.468C613.656,5.508,619.38,3.24,625.536-.324c11.88-6.8,19.224-15.66,22.464-27.432,1.62-6.264,2.484-16.632,2.484-31.428V-71.82c0-6.912.108-8.532.54-14.58ZM735.156-27.864l.216,20.52v1.512a79.2,79.2,0,0,1-.864,13.176h20.736a143.724,143.724,0,0,1-.756-14.9l-.54-46.548h6.912a130.088,130.088,0,0,1,15.12.54V-72.036a93.335,93.335,0,0,1-15.444.864h-6.8v-7.236a96.43,96.43,0,0,1,.432-10.476h-20.2a111.033,111.033,0,0,1,.648,12.2l.108,5.4h-33.8a129.143,129.143,0,0,1-16.632-.864v18.576a156.533,156.533,0,0,1,16.308-.648h22.248c-9.936,15.444-23.436,26.46-45.252,36.828,6.48,5.94,9.072,9.288,12.744,16.308,20.2-11.016,34.344-23.436,44.928-39.312-.108,4-.108,5.508-.108,8.208ZM798.228-63.5h1.62c1.512,0,2.268,0,3.78.108,4.644.108,4.644.108,9.288.108h3.456c-.432.756-.432.756-2.052,3.456C812.7-57.24,808.38-50.976,806-48.06a74.154,74.154,0,0,1-11.448,11.232L808.272-23.22A68.607,68.607,0,0,1,818.64-34.128C826.2-40.716,833.652-44.5,839.16-44.5a4.462,4.462,0,0,1,4.32,2.7c-4.32,1.944-5.4,2.376-7.992,3.672-6.7,3.348-11.556,6.912-15.552,11.556-3.672,4.428-5.292,8.532-5.292,13.608a17.364,17.364,0,0,0,8.532,15.336c5.832,3.456,13.5,4.968,25.7,4.968a213.145,213.145,0,0,0,26.028-1.62,69.759,69.759,0,0,1,9.612-.972l-1.188-19.44c-9.18,3.456-21.6,5.4-34.56,5.4-10.476,0-14.472-1.62-14.472-5.724a7.452,7.452,0,0,1,2.808-5.508c1.944-1.728,2.592-2.16,7.56-4.536l.972-.432c-.108,6.48-.216,9.828-.54,11.448l17.6-.54a67,67,0,0,1-.432-9.288c0-4.752,0-4.86-.108-7.776,10.368-3.564,21.924-6.588,27.54-7.344l-6.588-17.064c-1.728.972-2.484,1.188-8.64,3.24-3.456,1.08-6.372,2.052-6.7,2.16-5.724,1.944-5.724,1.944-7.56,2.592-2.16-7.02-7.56-10.476-16.524-10.476A31.868,31.868,0,0,0,829.98-55.3a58.512,58.512,0,0,0,5.184-7.992c11.016-.324,24.516-1.08,32.184-1.836q4.7-.486,9.72-.972l-.648-17.172c-5.724,1.512-16.74,2.916-27.324,3.456-5.508.324-5.508.324-6.588.432.108-.216.756-1.944,2.16-5.076a31.39,31.39,0,0,1,2.268-5.076l-19.764-1.512a39.082,39.082,0,0,1-3.348,11.988H820.8c-11.232,0-17.712-.432-22.356-1.512Zm122.8-24.084a50.724,50.724,0,0,1,.54,8.208c0,4.212-.216,14.472-.432,25.38-.54,21.708-.54,21.708-.54,24.516,0,15.12,2.052,22.032,8.208,27.972C934.632,4,942.84,6.7,953.856,6.7c14.148,0,25.38-4.644,33.912-13.932,5.94-6.588,9.5-14.472,13.608-30.672-6.912-2.808-10.476-5.076-18.468-11.34-.972,7.992-2.16,13.716-4.32,19.548-4.212,11.664-12.852,18.252-23.976,18.252-5.94,0-10.584-1.944-12.636-5.184-1.836-2.916-2.268-6.156-2.268-16.956,0-18.036,1.3-46.872,2.484-53.676Zm96.444,28.62a64.1,64.1,0,0,1,9.288-1.4l37.368-3.348c-5.184,3.564-7.776,5.724-10.584,9.18a36.972,36.972,0,0,0-9.18,24.408c0,13.716,6.588,23.652,19.332,29.592,6.912,3.132,15.012,4.86,27.324,6.048a32.708,32.708,0,0,1,4,.54L1097.5-14.58a18.654,18.654,0,0,1-3.24.216c-7.02,0-16.2-1.728-20.628-3.888-6.156-2.916-9.072-7.128-9.072-13.284,0-8.856,6.372-18.036,17.172-24.624,7.452-4.644,17.172-7.56,24.732-7.56a16.424,16.424,0,0,1,3.024.216l-.972-19.548c-1.944.432-2.916.54-11.88.864-32.94,1.188-40.824,1.62-57.672,2.7-11.772.756-15.66.972-18.468.972-.864,0-2.268,0-4.1-.108ZM1213.7-27.216a90.275,90.275,0,0,1,10.476.432,91.5,91.5,0,0,1-.432-10.908v-15.12a95.351,95.351,0,0,1,.432-10.8,89.406,89.406,0,0,1-10.368.432h-14.9v-4.752h17.5c4.428,0,7.56.108,11.448.432V-83.484a129.917,129.917,0,0,1-13.716.648h-15.228c.108-4.1.216-6.48.54-9.288h-16.956a53.362,53.362,0,0,1,.54,9.288H1169.1c-3.672,0-7.452-.108-10.908-.432l1.836-5.94-17.28-3.78a63.09,63.09,0,0,1-3.672,14.256c-3.672,10.368-8.424,18.468-14.364,24.732a99.75,99.75,0,0,1,5.4,19.872,53.158,53.158,0,0,0,5.508-7.236c-.108,6.8-.216,10.476-.216,11.124V-2.268a93.1,93.1,0,0,1-.648,12.312h17.172a95.7,95.7,0,0,1-.648-12.42V-3.564c2.808,3.564,4.752,7.128,7.344,13.392,9.936-2.916,15.444-5.616,22.248-10.908,12.528,6.588,23.544,9.4,42.768,10.8a59.629,59.629,0,0,1,5.94-16.956c-18.036,0-28.3-1.512-38.664-5.616a49.169,49.169,0,0,0,5.616-14.364Zm-42.768,0-12.528,5.94c.54.648,1.3,1.512,1.836,2.16a95.569,95.569,0,0,0,7.236,8.1c-5.076,2.916-8.316,4.1-16.2,5.94V-65.664A123.364,123.364,0,0,0,1156.14-77v9.5c3.888-.324,6.48-.432,10.8-.432h16.092v4.752H1167.48a87.364,87.364,0,0,1-10.26-.432,90.868,90.868,0,0,1,.432,10.692v15.444a96.924,96.924,0,0,1-.432,10.692,61.115,61.115,0,0,1,8.1-.432Zm9.612,0a25.58,25.58,0,0,1-2.7,6.588,23.187,23.187,0,0,1-5.94-6.588Zm2.16-21.492c-.108,3.888-.108,4.428-.324,7.128h-8.856v-7.128Zm25.056,0v7.128h-9.5c.216-3.888.216-4.1.324-7.128Zm53.676-25.38c14.9,3.456,25.164,4.536,49.464,5.508l2.7-16.848c-19.224,0-35.208-1.728-47.088-5.184Zm-7.992,30.456c3.024-.432,5.184-.756,9.072-1.08,14.472-1.3,20.3-1.944,26.244-2.916-3.672,3.24-5.076,4.536-9.936,9.072-18.36,16.956-30.348,27.108-37.152,31.536l13.932,15.984A194.555,194.555,0,0,1,1269.756-6.48c8.532-8.532,13.176-11.664,17.6-11.664a4.789,4.789,0,0,1,3.672,1.4c.864,1.08,1.188,2.7,1.4,6.912.324,6.264.756,8.424,2.484,11.124,3.132,4.86,8.532,6.912,18.144,6.912a96.06,96.06,0,0,0,16.416-1.4,90.385,90.385,0,0,1,10.152-1.08L1337.8-13.068c-5.616,2.592-14.9,4.428-22.356,4.428-4.212,0-5.616-1.62-6.048-7.02-.54-7.776-.864-8.964-2.7-11.664s-5.076-4.212-9.072-4.212a11.383,11.383,0,0,0-4.32.756c2.376-1.836,12.744-10.8,17.064-14.688,5.184-4.752,6.912-6.048,8.964-7.344l-9.72-12.528c-2.16.756-4.536,1.188-10.044,1.728a380.169,380.169,0,0,1-40.608,2.484c-2.268,0-3.456-.108-6.48-.324ZM1366.956-68.04c2.16-.216,4.212-.432,7.128-.54,15.228-.756,19.548-.972,25.272-1.62-13.392,13.284-36.18,31-46.116,35.64l10.044,16.416a80.3,80.3,0,0,1,10.368-8.1,62.107,62.107,0,0,1,33.264-9.936c11.988,0,19.332,4.644,19.332,12.2,0,5.508-2.7,9.18-8.532,11.772-1.62-4-2.808-6.156-4.968-8.532a25.332,25.332,0,0,0-19.332-8.316c-12.528,0-21.492,7.236-21.492,17.28,0,11.988,11.124,19.224,29.376,19.224,10.8,0,21.168-2.484,28.62-6.8,9.828-5.832,14.9-14.472,14.9-25.38,0-7.776-2.7-14.04-7.884-18.684-5.724-4.968-12.96-7.344-23.112-7.344a51.67,51.67,0,0,0-14.8,1.944c7.236-5.292,9.18-6.912,14.9-11.772,14.58-12.528,14.58-12.528,17.388-14.148L1422.468-87.8c-2.052.864-3.456,1.188-8.208,1.512-10.908.864-22.9,1.3-32.508,1.3a120.863,120.863,0,0,1-15.552-.756Zm34.668,60.7a16.392,16.392,0,0,1-3.564.324c-5.832,0-9.288-1.836-9.288-4.752,0-2.16,1.728-3.564,4.212-3.564C1397.2-15.336,1400.22-12.528,1401.624-7.344Z" transform="translate(324 12233)"></path><rect id="&#x9577;&#x65B9;&#x5F62;_5138" data-name="&#x9577;&#x65B9;&#x5F62; 5138" width="374" height="124" transform="translate(930 11985)"></rect><rect id="&#x9577;&#x65B9;&#x5F62;_5139" data-name="&#x9577;&#x65B9;&#x5F62; 5139" width="1206" height="124" transform="translate(324 12275)"></rect><path id="&#x30D1;&#x30B9;_36631" data-name="&#x30D1;&#x30B9; 36631" d="M45.252-46.872v3.348h-21.6a92.684,92.684,0,0,1-10.476-.432v11.448a93.913,93.913,0,0,1,10.476-.432h21.6v3.348H18.9A119.638,119.638,0,0,1,5.076-30.24v13.608a134.258,134.258,0,0,1,13.932-.648h15.12c-7.668,5.832-17.6,9.612-31.968,12.1A54.473,54.473,0,0,1,10.908,9.5,97.577,97.577,0,0,0,31,1.188c5.832-3.24,8.964-5.616,14.58-10.908-.108,3.024-.108,3.348-.108,6.048v3.24a62.917,62.917,0,0,1-.756,10.692H61.884a72.007,72.007,0,0,1-.54-10.584V-3.78c0-2.7-.108-3.24-.324-6.156C70.2-.972,81.432,4.968,97.632,9.5a61.82,61.82,0,0,1,8.1-15.336C90.72-8.1,80.244-11.772,72.9-17.28H89.532a134.4,134.4,0,0,1,13.716.648V-30.24a107.4,107.4,0,0,1-13.824.648H61.344V-32.94h23a97.294,97.294,0,0,1,10.584.432V-43.956a98.574,98.574,0,0,1-10.584.432h-23v-3.348h27.54a98.575,98.575,0,0,1,10.584.432V-58.86a94.789,94.789,0,0,1-10.584.432H78.732c.972-1.944,1.3-2.376,2.592-5.184h8.964c5.184,0,9.828.216,13.5.54V-77.436a85.816,85.816,0,0,1-12.42.648c1.944-2.808,3.24-4.86,5.4-8.64L81.432-90.72A66.691,66.691,0,0,1,74.52-76.788H71.28v-7.02a49.554,49.554,0,0,1,.432-7.776h-16.2a42.673,42.673,0,0,1,.432,7.02v7.776H51.516v-7.776a58.677,58.677,0,0,1,.324-7.02H35.64a52.6,52.6,0,0,1,.54,7.776v7.02H33.048A100.254,100.254,0,0,0,25.92-90.612L10.584-85.428a39.194,39.194,0,0,1,5.832,8.64,85.833,85.833,0,0,1-12.1-.648v14.364c3.672-.324,8.208-.54,13.392-.54h9.5a46.4,46.4,0,0,1,2.7,5.184h-10.8A90.275,90.275,0,0,1,8.64-58.86v12.42a96.424,96.424,0,0,1,10.476-.432ZM46.44-58.428a49.167,49.167,0,0,0-2.052-5.184H63.612c-.864,2.16-1.188,2.916-2.268,5.184Zm96.336,16.2c-6.264,5.94-14.472,9.936-27.324,13.284a67.781,67.781,0,0,1,7.884,15.552,86.855,86.855,0,0,0,21.6-11.232c-.432,6.264-2.484,10.692-6.588,13.824-4.536,3.564-9.4,5.4-18.9,7.452a61.423,61.423,0,0,1,9.612,14.04c11.232-2.916,17.928-6.372,23.328-12.2,6.048-6.264,8.748-14.148,9.288-25.92a24.18,24.18,0,0,1,.432-4.644h-7.884a62.974,62.974,0,0,0,8.964-10.152h8.532a65.713,65.713,0,0,0,9.5,10.26h-5.94c.216,2.376.324,5.076.324,8.748V-3.348c0,5.076-.216,9.072-.54,12.96H193a111.93,111.93,0,0,1-.648-12.852v-20.2a107.219,107.219,0,0,0,20.2,10.26,68.711,68.711,0,0,1,7.56-16.416c-11.34-2.808-21.276-7.344-27.756-12.636h5.4c5.724,0,9.4.108,12.852.324a74.869,74.869,0,0,1-.648-12.312V-76.68a76.23,76.23,0,0,1,.648-12.528c-3.564.324-6.8.432-12.852.432H138.024c-6.156,0-9.4-.108-12.96-.432a79.417,79.417,0,0,1,.648,12.528v22.464a77.242,77.242,0,0,1-.648,12.312c3.348-.216,7.02-.324,12.636-.324Zm-.756-33.264h17.5v4.644h-17.5Zm0,15.984h17.5v4.644h-17.5Zm33.372-15.984h18.144v4.644H175.392Zm0,15.984h18.144v4.644H175.392ZM311.9-70.524c0,28.836-.864,45.792-2.7,55.188-1.08,5.724-2.16,6.8-6.8,6.8A91.754,91.754,0,0,1,290.952-9.4a48.138,48.138,0,0,1,3.564,16.308c3.888.108,5.508.108,8.748.108,6.048,0,9.612-.432,12.42-1.4,4-1.3,6.8-4.536,8.208-9.072,2.7-8.964,4.1-29.916,4.32-61.668.108-16.2.216-16.74.648-20.736a70.3,70.3,0,0,1-10.044.54H286.524a127.774,127.774,0,0,1-13.608-.648v15.984c3.564-.324,7.56-.54,12.852-.54,0,5.94-.108,9.828-.108,11.772-.648,12.852-2.916,23-7.236,32.724a54.226,54.226,0,0,1-16.308,20.52A46.353,46.353,0,0,1,272.7,8.748c10.584-9.4,16.632-17.388,21.168-28.4,5.076-11.988,7.776-28.4,7.992-47.952v-2.916Zm-51.84,42.552a101.011,101.011,0,0,0,9.828,9.4A50.634,50.634,0,0,1,278.1-31c-2.484-1.728-3.24-2.376-5.4-3.888,3.78-4.212,6.048-7.344,10.584-14.364l-10.152-7.776a58.324,58.324,0,0,1-9.4,14.688,29.354,29.354,0,0,1-2.592-2.592A107.485,107.485,0,0,0,271.4-62.856a33.485,33.485,0,0,1,2.484-4.968l-6.48-8.532c-1.512.324-2.808.432-7.236.432V-82.4c0-4.644.108-6.912.648-9.072H243.756a59.755,59.755,0,0,1,.54,9.18v6.372h-2.484a64.423,64.423,0,0,1-9.936-.54V-60.7a84.225,84.225,0,0,1,9.612-.54h12.528a54.918,54.918,0,0,1-11.772,16.2A76.522,76.522,0,0,1,228.2-34.02c3.132,4.752,4.752,8.424,6.8,15.552a112.607,112.607,0,0,0,9.288-7.56c-.108,1.944-.108,4-.108,4.644v16.74a131.333,131.333,0,0,1-.648,13.932h17.172a127.09,127.09,0,0,1-.648-13.932Z" transform="translate(950 12088)" fill="#fff"></path><path id="&#x30D1;&#x30B9;_36633" data-name="&#x30D1;&#x30B9; 36633" d="M93.2,3.348C91.8.324,90.072-4.1,88.02-9.828L64.584-74.844a86.182,86.182,0,0,1-3.672-11.664H32.724a65.926,65.926,0,0,1-3.456,11.664L5.94-9.828C3.348-2.484,2.376.108.756,3.348H26.028a62.239,62.239,0,0,1,2.7-11.664l2.916-9.18h30.78l2.916,9.18A87.708,87.708,0,0,1,67.932,3.348ZM57.132-35.64h-20.3l10.044-32.4Zm48.924-50.868a100.867,100.867,0,0,1,.864,15.984v57.888a103.507,103.507,0,0,1-.864,15.984h23.76a104.4,104.4,0,0,1-.864-15.984V-70.524a100,100,0,0,1,.864-15.984Zm67.068,35.424v4.644a109.99,109.99,0,0,1,12.96-.648h13.608v9.936H185.868c-4.1,0-6.588-.108-9.18-.324.216,2.592.324,5.832.324,9.072v25.92c0,3.672-.216,8.1-.432,11.772H193.1V4.752h30.564V9.288h17.064c-.324-3.24-.54-7.128-.54-11.664V-27.864a89.922,89.922,0,0,1,.432-9.612,87.363,87.363,0,0,1-8.856.324H216.432v-9.936h16.632a98.387,98.387,0,0,1,12.852.648V-63.072a107.453,107.453,0,0,1-12.96.648H216.432V-73.116c10.8-1.512,18.36-2.808,24.84-4.536a18.713,18.713,0,0,0,2.16-.432l-10.8-14.9c-4.212,1.944-6.588,2.592-15.228,4.212a267.152,267.152,0,0,1-42.984,4.428,45.517,45.517,0,0,1,5.508,14.472c8.748-.432,13.068-.648,19.764-1.4v8.856H185.976a108.023,108.023,0,0,1-12.852-.648v10.584A123.626,123.626,0,0,0,153.36-64.8l-9.288,12.42a136.68,136.68,0,0,1,20.52,14.148Zm20.088,28.62h30.564v12.312H193.212ZM146.88-80.352A131.321,131.321,0,0,1,166.752-65.34l9.936-12.96a150.482,150.482,0,0,0-19.656-14.04Zm12.852,44.5c-5.4,15.984-10.476,26.892-15.444,32.94L158.652,9.072c3.348-6.588,5.076-10.26,5.4-10.908a214.891,214.891,0,0,0,9.072-24.732ZM318.924-22.248h20.088V-8.964c0,1.944-.864,2.376-4.752,2.376-3.024,0-7.236-.216-11.988-.648a53.646,53.646,0,0,1,4.32,15.552c4.212.216,8.1.324,11.772.324,13.068,0,17.172-3.132,17.172-13.176V-74.952a110.932,110.932,0,0,1,.54-13.824c-3.564.324-6.8.432-13.5.432H279.612c-6.156,0-8.856-.108-12.852-.432.324,4.1.54,8.424.54,14.8,0,46.116-1.728,58.428-9.936,72.144C263.3,1.728,266,4,272.052,10.476,277.884.54,280.692-8.64,282.2-22.248h20.628V-7.02A101,101,0,0,1,302.184,6.7h17.28a108.81,108.81,0,0,1-.54-13.824Zm0-40.5V-72.9h20.088v10.152Zm-16.092,0H283.824V-72.9h19.008Zm16.092,15.012h20.088v10.368H318.924Zm-16.092,0v10.368H283.284c.216-4.752.216-5.94.324-10.368ZM471.96-9.18c-16.848-16.092-21.276-19.872-34.344-29.268,6.048-8.1,10.152-15.66,15.876-29.16,1.62-3.672,2.268-4.752,3.888-6.372l-9.5-9.72c-2.916,1.08-3.564,1.08-8.64,1.188l-36.936.54c-3.132.108-5.184.108-6.048.108a80.011,80.011,0,0,1-11.34-.756l.54,19.224c4.428-.648,7.884-.864,17.172-1.08l28.08-.432A86.883,86.883,0,0,1,409-33.156,101.849,101.849,0,0,1,374-11.34c6.048,6.264,8.316,9.5,12.1,17.064,16.74-8.1,29.592-17.6,39.744-29.592a173.64,173.64,0,0,1,31,30.672Zm48.816-60.048L505.764-66.96a108.521,108.521,0,0,1-15.876,1.728L492.8-46.764c4.428-1.188,6.912-1.62,16.092-3.024l14.9-2.376,2.484,13.608-20.628,3.24a126.45,126.45,0,0,1-15.444,1.728l2.916,18.36a115.436,115.436,0,0,1,14.8-3.024L529.308-21.6l2.808,15.552c1.512,8.208,1.944,11.34,1.944,15.012l20.52-3.348c-1.3-4.1-1.512-5.184-3.24-14.472l-3.024-15.66,20.412-3.132c9.072-1.3,9.072-1.3,15.228-1.944l-3.24-18.252A100.644,100.644,0,0,1,565.164-44.5l-19.98,3.024L542.592-55.08l16.848-2.592C571.1-59.4,571.1-59.4,574.776-59.724l-3.024-18.144c-4.752,1.4-7.776,1.944-15.444,3.132L539.46-72.144l-1.188-5.94a88.029,88.029,0,0,1-1.512-11.988l-19.872,3.024c1.08,3.132,1.62,5.4,2.808,12.2ZM613.548-86.4a79.159,79.159,0,0,1,.432,9.936c0,27.972-1.728,41.364-6.8,51.948A48.237,48.237,0,0,1,594.324-7.344c6.912,4.86,9.936,7.884,15.444,15.12C617.112,0,621.216-5.832,624.78-13.824c5.184-11.772,7.344-23.76,7.992-46.332.756-21.384.756-21.384,1.188-25.056Zm30.672-.54a64.188,64.188,0,0,1,.432,8.424v3.888l-.54,63.936c0,4.428-.216,6.264-1.188,9.072l9.288,9.72A24.168,24.168,0,0,1,657.5,5.832c10.908-4,16.2-6.8,22.68-12.312,8.208-7.02,13.824-15.336,18.684-27.432-6.156-4.752-8.964-7.56-14.364-14.256A54.692,54.692,0,0,1,676.08-29.7a41.741,41.741,0,0,1-12.96,11.88l.54-56.592a77.284,77.284,0,0,1,.864-12.528ZM775.872-8.856h-5.94v-38.88a98.845,98.845,0,0,1,.54-12.852H754.056a104.07,104.07,0,0,1,.54,12.852v38.88c-1.836-.108-3.024-.216-4.536-.432V7.56a106.42,106.42,0,0,1,13.176-.648h33.912a120.085,120.085,0,0,1,13.5.648V-9.5a123.028,123.028,0,0,1-13.068.648h-5.832V-35.208H797.9a70.078,70.078,0,0,1,10.692.54V-51.3a68.368,68.368,0,0,1-10.692.54h-6.156V-72.684h4.644A116.85,116.85,0,0,1,810-72.036V-88.884a116.314,116.314,0,0,1-13.716.648H765.936a115.051,115.051,0,0,1-13.716-.648v16.848a118.89,118.89,0,0,1,13.716-.648h9.936Zm-63.828-68.58c2.808-.216,5.184-.324,9.828-.324h16.416c4.86,0,6.8.108,9.828.324V-90.072a76.16,76.16,0,0,1-9.828.432H721.872a76.16,76.16,0,0,1-9.828-.432ZM708.8-60.048a64.249,64.249,0,0,1,8.748-.432h24.192c5.292,0,6.372,0,8.532.324V-74.52a84.918,84.918,0,0,1-8.748.324H717.552a48.151,48.151,0,0,1-8.748-.54Zm3.564,15.228a51.089,51.089,0,0,1,6.48-.216h22.788a47.262,47.262,0,0,1,6.156.216v-12.2a44.654,44.654,0,0,1-6.156.216H718.848c-3.24,0-4.644-.108-6.48-.216Zm0,15.336a50.938,50.938,0,0,1,6.264-.216h22.68a50.175,50.175,0,0,1,6.48.216v-12.2a44.725,44.725,0,0,1-6.264.216h-22.68a53.88,53.88,0,0,1-6.48-.216Zm14.148,39.2V5.292h6.8V8.208h14.472a67.962,67.962,0,0,1-.216-7.884V-19.224a59.187,59.187,0,0,1,.216-7.128,32.432,32.432,0,0,1-6.588.324H719.388a79.859,79.859,0,0,1-7.992-.324,63.265,63.265,0,0,1,.432,8.1v17.5c0,3.348-.216,7.02-.54,10.476Zm-.324-24.084h7.128v7.02h-7.128Zm138.78-.54c-2.808,5.4-5.508,8.64-10.908,13.392a61.521,61.521,0,0,1,13.068,11.988c9.828-9.288,14.688-18.36,18.036-33.8H903.96V-9.4c0,2.16-.864,2.7-4.536,2.7-1.836,0-5.616-.216-9.828-.648a65.634,65.634,0,0,1,3.888,16.308h4.752c9.5,0,14.58-.864,17.5-2.808,3.24-2.268,4.752-6.048,4.752-11.988v-69.66a122.023,122.023,0,0,1,.432-13.284,92.758,92.758,0,0,1-12.96.54H884.844a114.784,114.784,0,0,1-13.5-.54c.432,4.644.648,9.936.648,19.44,0,16.092-.324,24.84-1.3,32.076a103.381,103.381,0,0,1-3.78,17.6c-.108-1.836-.108-2.916-.108-5.076V-76.68c0-4.1.108-6.8.324-9.4-2.916.216-4.968.324-9.072.324H835.7c-5.4,0-7.452-.108-10.152-.324.324,3.672.432,6.372.432,11.772v52.6a121.445,121.445,0,0,1-.648,14.256h16.416V-14.9ZM903.96-48.492v10.584H887.328c.432-4.644.432-6.048.648-10.584Zm0-14.472H888.3V-72.9h15.66ZM841.536-70.74H851.58v13.392H841.536Zm0,27.648H851.58v13.5H841.536ZM973.512-3.564a65.944,65.944,0,0,1,7.236,10.908C989.82.216,993.492-3.672,998.136-11.34a59.731,59.731,0,0,0-.216,6.48V-.108a65.492,65.492,0,0,1-.54,9.828h16.092a70.264,70.264,0,0,1-.648-10.044v-4.86c0-2.916,0-2.916-.216-6.372a50.485,50.485,0,0,0,7.56,9.612,90.514,90.514,0,0,0,10.584,9.18,77.076,77.076,0,0,1,7.992-15.768c-8.856-4.86-14.256-9.18-19.008-15.552h6.912a84.519,84.519,0,0,1,10.476.432V-38.88a76.206,76.206,0,0,1-11.34.54h-13.068v-4.212h11.124a97.294,97.294,0,0,1,10.584.432,89.1,89.1,0,0,1-.432-10.476V-79.272a81.451,81.451,0,0,1,.432-10.368c-2.16.216-4.752.324-8.964.324H987.228c-4.752,0-7.56-.108-10.26-.324A79.147,79.147,0,0,1,977.4-79.7v27.54a84.5,84.5,0,0,1-.432,10.044,78.939,78.939,0,0,1,9.612-.432h11.448v4.212h-11.34a76.205,76.205,0,0,1-11.34-.54v15.228a83.41,83.41,0,0,1,10.476-.432h4.536A51.207,51.207,0,0,1,973.512-7.992V-19.008a59.187,59.187,0,0,1,.216-7.128,55.692,55.692,0,0,1-6.588.324H946.512a72.448,72.448,0,0,1-8.1-.216,60.472,60.472,0,0,1,.432,7.992V-.648c0,3.348-.216,7.128-.54,10.476H953.64V5.4h5.832V8.316h14.364a52.015,52.015,0,0,1-.324-6.588Zm24.732-72.9v5.292h-6.7v-5.292Zm14.148,0h7.128v5.292h-7.128ZM998.244-60.048v5.292h-6.7v-5.292Zm14.148,0h7.236v5.292h-7.236ZM953.208-14.04h6.372v6.588h-6.372ZM939.168-77c2.7-.216,5.4-.324,9.612-.324h14.8c4.32,0,6.8.108,9.612.324V-89.748a74.54,74.54,0,0,1-9.612.432h-14.8a73.479,73.479,0,0,1-9.612-.432Zm-3.348,17.28a67.36,67.36,0,0,1,8.748-.432h21.276a53.929,53.929,0,0,1,8.532.324V-74.2c-2.7.216-4.32.324-8.748.324h-21.06a48.151,48.151,0,0,1-8.748-.54ZM939.168-44.5a51.933,51.933,0,0,1,6.372-.216h21.384a46.31,46.31,0,0,1,6.048.216V-56.7a42.049,42.049,0,0,1-6.048.216H945.54a51.935,51.935,0,0,1-6.372-.216Zm0,15.336a49.046,49.046,0,0,1,6.156-.216h21.168c3.348,0,4.86.108,6.48.216v-12.2a43.8,43.8,0,0,1-6.156.216H945.54a51.935,51.935,0,0,1-6.372-.216ZM1071.036-17.5a24.227,24.227,0,0,1-3.564-4.32c.216-3.132.324-4.644.324-6.7s0-2.268.108-3.78l-13.392-1.62c.108,1.3.216,2.268.216,3.024,0,3.672-.432,9.4-.756,12.1-1.08,7.236-2.916,12.528-6.156,17.5a51.623,51.623,0,0,1,11.34,10.908A50.993,50.993,0,0,0,1065.2-6.156c5.616,6.588,11.88,10.584,19.332,12.312,7.452,1.62,16.632,2.16,36.828,2.16,3.132,0,3.132,0,16.956-.324,6.588-.108,9.828-.216,9.828-.216a62.755,62.755,0,0,1,4.1-16.524c-2.376.216-4,.432-4.968.54a57.518,57.518,0,0,1,5.076-6.7c-5.94-2.052-9.612-3.888-13.716-7.02a71.537,71.537,0,0,1,8.316.324,97.84,97.84,0,0,1-.432-10.152V-62.64c0-3.672.108-6.156.324-8.532a61.965,61.965,0,0,1-8.64.324h-7.128c.756-1.62,1.62-3.456,2.052-4.428h6.588a99.955,99.955,0,0,1,10.584.54V-88.992a104.632,104.632,0,0,1-12.312.54h-25.488c-5.292,0-8.64-.108-12.2-.432v14.04c3.348-.324,7.02-.432,10.584-.432h6.8a43.212,43.212,0,0,1-1.944,4.428h-4.1a61.145,61.145,0,0,1-8.64-.324,69.713,69.713,0,0,1,.432,8.424V-29.7a61.1,61.1,0,0,1-.432,8.1,56.384,56.384,0,0,1,6.264-.324,37.87,37.87,0,0,1-14.256,8.424,52.05,52.05,0,0,1,5.832,6.372c-7.992-.432-10.692-.864-14.9-1.836v-7.668h4.536a66.307,66.307,0,0,1,8.748.432V-30.456c-2.916.216-5.076.324-8.748.324h-4.536v-5.94h5.076a78.557,78.557,0,0,1,9.828.324V-50a57.752,57.752,0,0,1-8.208.432h-32.508A72.441,72.441,0,0,1,1049.976-50V-35.64a73.448,73.448,0,0,1,10.152-.432h10.908Zm44.388-4.428h16.092l-7.02,4.968a46.27,46.27,0,0,0,11.016,9.5c-7.668.324-15.66.54-22.9.54a46.744,46.744,0,0,0,10.8-10.152Zm2.808-38.34h13.5v3.456h-13.5Zm0,11.988h13.5v3.564h-13.5Zm0,11.988h13.5v3.564h-13.5Zm-64.044-24.84a59.006,59.006,0,0,1-.432,8.964c3.348-.216,5.724-.324,9.18-.324h25.7c3.456,0,5.832.108,9.18.324a57.249,57.249,0,0,1-.324-8.856v-18.9a63.077,63.077,0,0,1,.324-9.072c-2.376.324-3.888.324-9.4.324h-25.488a83.343,83.343,0,0,1-9.18-.324,72.833,72.833,0,0,1,.432,9.072Zm15.228-16.848h12.96V-74.3h-12.96Zm0,12.2h12.96V-62.1h-12.96Z" transform="translate(344 12378)" fill="#fff"></path></g></svg>