<svg xmlns="http://www.w3.org/2000/svg" width="1390" height="565" viewBox="0 0 1390 565"><g id="&#x30B0;&#x30EB;&#x30FC;&#x30D7;_19577" data-name="&#x30B0;&#x30EB;&#x30FC;&#x30D7; 19577" transform="translate(-265 -474)"><rect id="&#x9577;&#x65B9;&#x5F62;_4998" data-name="&#x9577;&#x65B9;&#x5F62; 4998" width="1031" height="299" transform="translate(445 474)"></rect><rect id="&#x9577;&#x65B9;&#x5F62;_5018" data-name="&#x9577;&#x65B9;&#x5F62; 5018" width="1390" height="249" transform="translate(265 790)"></rect><path id="&#x30D1;&#x30B9;_33826" data-name="&#x30D1;&#x30B9; 33826" d="M174.216-151.28c-5.124-12.688-9.272-19.764-16.348-27.328-13.176-13.908-33.184-21.472-57.1-21.472-30.5,0-52.948,10.736-68.808,32.7-12.688,17.568-20.252,46.116-20.252,76.86,0,33.184,8.54,60.512,24.888,78.568,14.152,16.1,35.624,24.644,61,24.644,48.068,0,81.252-29.524,81.252-71.736,0-41.968-27.816-68.32-71.98-68.32-12.688,0-23.18,1.952-32.452,6.344-6.1,2.684-9.516,5.124-15.372,10.98,1.464-14.64,3.172-21.96,7.076-30.256,6.588-13.908,17.812-20.984,32.7-20.984s23.18,6.1,27.572,20.252ZM98.088-88.572c20.984,0,33.672,11.468,33.672,30.256,0,18.544-14.4,31.476-34.648,31.476C77.592-26.84,63.2-39.772,63.2-57.828,63.2-76.616,76.86-88.572,98.088-88.572ZM295,11.956c30.988,0,56.608-13.664,71.248-38.064,9.272-15.372,15.372-42.212,15.372-67.832a162.3,162.3,0,0,0-9.516-56.12,76.838,76.838,0,0,0-17.812-27.084C339.4-191.784,318.664-199.836,295-199.836c-30.744,0-56.12,13.664-71,38.552C214.72-145.912,208.62-119.316,208.62-93.7a161.907,161.907,0,0,0,9.516,55.876,76.838,76.838,0,0,0,17.812,27.084C250.832,4.148,271.084,11.956,295,11.956ZM295-158.6c23.668,0,36.356,21.96,36.356,63.684,0,43.432-12.2,65.392-36.112,65.392-24.156,0-36.6-22.448-36.6-66.124C258.64-135.42,272.06-158.6,295-158.6ZM456.881-62.592c-.652,10.595-2.445,17.278-7.009,25.428-7.172,13.04-18.908,22.331-37.979,29.992A98.637,98.637,0,0,1,428.03,15a95.967,95.967,0,0,0,16.3-8.965,90.214,90.214,0,0,0,25.754-27.058c7.661-12.714,11.247-23.961,13.04-41.565H507.9c0,18.419-1.141,34.556-2.771,40.913-1.63,6.846-3.586,7.987-12.062,7.987a135.81,135.81,0,0,1-17.278-1.467c4.4,11.084,5.868,16.463,7.009,26.08,9.943.163,9.943.163,11.573.163,20.212,0,28.036-3.1,32.437-12.551,4.075-8.8,6.357-30.97,6.52-63.733a146.906,146.906,0,0,0,13.855,11.247c6.683-12.225,8.639-15.159,16.463-24.939-18.582-11.41-32.274-25.591-42.054-43.521-4.075-7.5-5.379-10.6-6.683-15l-24.287,9.291c.978,2.282,2.119,4.564,3.1,7.009a159.467,159.467,0,0,0,21.027,35.86H453.295a212.76,212.76,0,0,0,20.7-34.23,64.364,64.364,0,0,1,4.238-8.313l-26.732-9.78c-.815,4.727-2.445,8.8-5.7,15.159C436.18-103.5,423.466-89,404.721-75.958a104.574,104.574,0,0,1,16.626,22.983,148.99,148.99,0,0,0,20.212-18.093v9.128a78.02,78.02,0,0,1,11.084-.652Zm146.7-26.732h-7.5a104.47,104.47,0,0,1-16.137-.815v24.45a108.4,108.4,0,0,1,16.137-.815h5.7v15.485h-3.26c-7.987,0-11.736-.163-16.137-.815V-27.71a78.7,78.7,0,0,1,13.692-.815h1.3C591.845-15.811,587.281-8.965,578.153.163L598.2,15.485c9.78-11.41,14.181-19.071,20.864-35.534l-17.278-8.476H704.315l-15,7.172a181.774,181.774,0,0,1,19.4,35.86L730.884.815c-10.432-18.093-12.225-20.7-19.4-29.34,7.987,0,11.084.163,15.322.815V-51.671c-3.586.489-7.172.652-15.485.652h-1.3V-66.5h4.4a105.766,105.766,0,0,1,16.137.815v-24.45a104.47,104.47,0,0,1-16.137.815h-4.4v-15a127.079,127.079,0,0,1,14.507.978v-24.45a167.407,167.407,0,0,1-20.864.978H628.031c1.467-2.119,2.934-4.238,3.912-6.031a25.194,25.194,0,0,1,2.934-4.4l-26.08-4.238a37.862,37.862,0,0,1-3.749,7.172c-6.357,9.617-14.833,17.6-28.688,26.895,6.683,5.379,10.432,9.78,15.648,17.441a146.979,146.979,0,0,0,11.573-9.291Zm20.375-15h7.5v15h-7.5Zm28.2,0h7.661v15h-7.661ZM623.956-66.5h7.5v15.485h-7.5Zm28.2,0h7.661v15.485h-7.661Zm28.2,15.485V-66.5h7.824v15.485Zm0-38.305v-15h7.824v15Zm7.661,98.615c-2.445-13.04-4.727-21.353-9.454-35.534L655.9-21.516c3.26,11.573,4.727,19.886,7.009,35.86ZM649.547,13.04C649.221.163,648.406-7.987,645.8-24.776l-22.657,2.119a267.935,267.935,0,0,1,1.467,28.688c0,3.1,0,4.4-.326,8.8ZM818.578-11.084c3.423-1.141,6.52-1.793,15.811-3.749l29.177-6.031V-5.7c0,10.758-.163,14.67-.978,20.864h26.9c-.815-6.031-.978-10.106-.978-20.7V-25.917c6.846-1.467,11.084-2.119,14.833-2.608l-1.63-25.428a112.041,112.041,0,0,1-13.2,3.586v-67.319c0-10.432.163-14.833.978-20.538h-26.9c.815,5.705.978,10.106.978,20.538v8.639c-7.009-6.846-12.551-11.247-25.1-19.886l-15.485,17.115c13.692,10.106,17.441,13.366,27.873,24.124l12.714-15.648v58.028l-31.459,6.52a124.6,124.6,0,0,1-14.833,1.956c1.141-2.608,1.63-3.749,3.26-7.335-8.313-6.194-14.181-11.9-19.071-18.745h5.379a74.654,74.654,0,0,1,13.366.815v-7.824c9.291,6.846,15.485,12.388,25.754,23.146l15-18.419c-8.8-8.965-15.485-14.507-27.71-23.146L820.208-74V-86.064c-3.423.652-5.868.815-12.714.815h-7.661V-94.7l12.551,7.5c5.053-10.106,8.476-20.049,12.714-35.371l-16.952-8.15c-2.445,12.225-5.216,22.494-8.313,30.318v-23.635a105.022,105.022,0,0,1,.652-14.344H775.22a112.507,112.507,0,0,1,.652,14.507v38.631h-9.128c-7.987,0-11.41-.163-15.159-.815V-62.1c4.4-.652,7.661-.815,15.322-.815H773.1a98.38,98.38,0,0,1-24.287,35.7A107.862,107.862,0,0,1,759.409-2.608c6.846-7.5,10.269-12.877,16.952-26.732-.326,3.912-.326,7.5-.326,13.366V-1.3a115.866,115.866,0,0,1-.978,16.463h25.591c-.652-4.4-.815-8.15-.815-15.811V-24.124a127.176,127.176,0,0,0-.489-12.714,74.155,74.155,0,0,0,12.388,15.974c1.793-6.031,2.608-8.639,4.4-13.529ZM750.118-122.25c4.238,11.41,6.357,19.886,8.8,34.719l16.789-8.476c-2.282-12.714-4.4-20.375-9.128-34.882Z" transform="translate(507 718)" fill="#fff"></path><path id="&#x30D1;&#x30B9;_33827" data-name="&#x30D1;&#x30B9; 33827" d="M41.3-113.925c-12.425,0-15.575-.175-24.325-1.4L17.15-85.4c8.225-.875,11.9-1.05,23.625-1.05H62.65c-2.45,14.7-4.375,21-8.75,29.925-8.75,17.675-22.225,30.1-45.5,42.35C18.025-5.95,23.275,0,31.15,12.425,66.675-11.025,83.3-33.775,91-69.125c1.225-5.95,1.225-5.95,2.625-17.5H127.05A404.251,404.251,0,0,1,123.725-37.8c-2.275,15.225-4.375,18.025-12.775,18.025-5.425,0-14-1.225-22.75-3.5,4.025,11.025,5.25,16.8,5.95,30.8,13.475,1.225,16.1,1.4,22.925,1.4,19.425,0,27.825-5.6,32.9-21.875,3.5-11.55,6.125-40.775,7.35-78.225.175-8.05.525-9.45,2.45-12.95l-13.65-11.9c-3.85,1.575-5.95,1.925-11.725,1.925H96.25c.35-4.2.35-4.2.525-8.925,1.05-16.625,1.05-17.15,1.925-21.175l-32.9-.875a48.971,48.971,0,0,1,.525,8.75c0,5.425-.35,15.575-.875,22.4Zm245-4.725V-129.5a107.348,107.348,0,0,1,.7-15.925H253.4a116.646,116.646,0,0,1,1.05,16.1v10.675H223.125a176.239,176.239,0,0,1-21.875-1.05c.525,6.825.875,11.725.875,18.9v24.325a155.438,155.438,0,0,1-1.05,19.25H233.8a170.066,170.066,0,0,1-.7-18.375V-91.175h75.775c-2.45,21.525-9.975,37.45-23.45,50.225-12.775,12.075-29.75,19.95-56,25.9,9.8,10.85,14,17.15,19.6,29.575,16.45-5.775,25.2-9.45,35-15.225C304.5-12.425,319.2-27.825,329-47.775c6.65-13.3,10.5-27.125,13.475-48.65.875-6.475,1.225-7.7,2.975-10.675l-13.3-13.475c-3.675,1.575-5.95,1.925-14.35,1.925Zm97.125,7.875c17.5,9.45,32.375,21,47.6,36.925l20.65-27.3c-14.7-13.3-26.075-21.35-48.125-34.3Zm10.85,117.6c4.725-1.4,5.775-1.575,12.6-3.15,32.55-7.525,49.175-14,68.075-26.25,24.5-15.75,41.125-36.4,57.05-70.875-13.125-9.625-17.15-13.125-25.725-23.45-5.075,13.475-9.8,23.1-17.15,34.3C475.65-61.6,459.9-48.475,437.85-39.375a175.6,175.6,0,0,1-52.675,12.6ZM596.05-103.95l-13.65,1.575c-5.775.525-14,1.225-16.45,1.225-.875,0-3.15-.175-6.475-.35l2.975,30.1c6.825-1.75,9.1-2.1,23.1-3.675l10.5-1.225v38.15c0,16.8.175,19.25,1.925,25.375A25.315,25.315,0,0,0,614.25,3.85C621.075,5.95,632.625,7,647.85,7,658,7,677.775,5.775,694.575,4.2c3.675-.35,3.85-.525,8.225-.7h2.8l-1.05-32.725c-15.225,4.725-35,7.35-56.35,7.35-10.325,0-16.625-.875-18.55-2.8-2.45-1.925-2.8-4.725-2.8-17.5v-37.45l47.95-5.6c-4.2,7.175-7.175,11.025-12.775,16.1A91.877,91.877,0,0,1,643.65-55.65c9.8,5.6,16.1,10.675,24.5,19.775,12.25-9.45,18.55-15.4,25.2-23.975a166.341,166.341,0,0,0,18.9-30.975c2.975-6.65,2.975-6.65,5.775-9.625l-17.5-16.1c-3.5,1.575-5.425,2.1-12.425,2.8l-61.075,6.65v-14c0-10.325.35-15.225,1.4-21h-33.6a145.171,145.171,0,0,1,1.225,21.7ZM764.575-140a175.211,175.211,0,0,1,1.05,23.1v34.65c0,13.125-.175,19.25-1.05,25.55h33.95c-.7-7-.875-12.6-.875-25.025V-116.55a210.758,210.758,0,0,1,.875-23.45Zm81.375,0c.875,7.525,1.05,11.2,1.05,23.975v18.2c0,15.225-.875,30.625-1.925,37.1C842.275-45.325,834.4-35,819-26.775c-8.925,4.725-17.85,7.525-34.65,10.675C793.8-5.25,798.175,2.1,802.2,13.825c17.15-4.9,26.425-8.575,36.4-14.35C857.85-11.55,869.75-25.9,875-44.975c2.625-10.15,4.025-26.95,4.025-50.925v-20.475c0-11.2.175-13.825.875-23.625Zm88.725,29.225c17.5,9.45,32.375,21,47.6,36.925l20.65-27.3c-14.7-13.3-26.075-21.35-48.125-34.3Zm10.85,117.6c4.725-1.4,5.775-1.575,12.6-3.15,32.55-7.525,49.175-14,68.075-26.25,24.5-15.75,41.125-36.4,57.05-70.875-13.125-9.625-17.15-13.125-25.725-23.45-5.075,13.475-9.8,23.1-17.15,34.3-13.475,21-29.225,34.125-51.275,43.225a175.6,175.6,0,0,1-52.675,12.6Zm301.525-123.9,5.425-1.925a103.587,103.587,0,0,0-14.525-26.775l-17.325,5.6a105.849,105.849,0,0,1,9.975,16.8h-3.85l-39.725.35a19.63,19.63,0,0,0,1.4-2.975c.175-.175.875-1.925,2.1-4.55.175-.525.875-2.1,1.575-3.675.525-1.225,1.05-2.275,1.225-2.8,1.05-2.275,1.225-2.45,2.1-4.2l-33.075-5.95c-.525,5.075-2.975,11.9-7.525,21a139.892,139.892,0,0,1-46.55,53.375c10.85,6.475,16.45,11.375,24.85,21a168.821,168.821,0,0,0,39.725-43.925l46.55-.525c-12.95,40.775-41.475,68.6-87.675,85.225a89.059,89.059,0,0,1,21,26.775c52.5-23.625,82.075-56.175,98.7-108.675,1.925-5.775,3.325-9.8,4.55-11.9ZM1246-147.7c5.425,7.525,9.45,15.225,14.35,26.775l16.625-6.125c-4.725-11.025-8.75-18.375-14.525-26.075Z" transform="translate(321 981)" fill="#fff"></path></g></svg>