<svg xmlns="http://www.w3.org/2000/svg" width="708.6" height="140" viewBox="0 0 708.6 140"><g id="&#x30B0;&#x30EB;&#x30FC;&#x30D7;_19613" data-name="&#x30B0;&#x30EB;&#x30FC;&#x30D7; 19613" transform="translate(-147.5 -3593.5)"><path id="&#x7DDA;_42" data-name="&#x7DDA; 42" d="M12.5,140h-25V0h25Z" transform="translate(160 3593.5)" fill="#533afc"></path><path id="&#x30D1;&#x30B9;_33841" data-name="&#x30D1;&#x30B9; 33841" d="M65.7-82.1c-1.5,7.9-7.2,21.4-13,30.7A229.219,229.219,0,0,0,29.1-67.1L16.8-55c8.1,4.6,13.6,8.4,26,17.8A100.8,100.8,0,0,1,32.1-26.1C24.2-19,17.4-14.6,5-8.7,11.2-3.3,14.2.4,17.6,6.4,34.6-3,46.8-13.1,56.3-25.4A153.87,153.87,0,0,1,75.2-4.9L88.8-19.1c-10-10.6-13.1-13.6-21.8-21A175.992,175.992,0,0,0,80.3-66.5a76.28,76.28,0,0,1,4.2-9.3Zm48.4,18.8a106.8,106.8,0,0,1,27.2,21.1l11.8-15.6c-8.4-7.6-14.9-12.2-27.5-19.6Zm6.2,67.2c2.7-.8,3.3-.9,7.2-1.8,18.6-4.3,28.1-8,38.9-15,14-9,23.5-20.8,32.6-40.5-7.5-5.5-9.8-7.5-14.7-13.4a92.065,92.065,0,0,1-9.8,19.6c-7.7,12-16.7,19.5-29.3,24.7a100.343,100.343,0,0,1-30.1,7.2ZM245.3-85a64.144,64.144,0,0,1-5.8,14c-5.9,11.1-13.1,19.4-24.9,28.7A48.809,48.809,0,0,1,229-31c10.1-8.9,17-17.1,22.8-27.1l27.7-.2A70.664,70.664,0,0,1,270.9-40a129.606,129.606,0,0,0-18.4-11.4L242-38.8a107.507,107.507,0,0,1,18.6,12.4c-9,9.2-18.7,15.1-33.9,20.5a55.87,55.87,0,0,1,11.7,15A116.407,116.407,0,0,0,255.6-.1a95.823,95.823,0,0,0,24.3-22.6c7.4-10,12.7-20.8,18.6-38.6.8-2.4,1.1-3,2.3-4.3l-8.9-8.8a11.061,11.061,0,0,1-6.1,1.3l-26.9.3c2.8-5.7,4.2-8.5,4.3-8.7Zm75.3,56.5c6.1-.5,9.4-.6,20.6-.6h47.6c11.4,0,15.8.1,20.6.6V-47.8a164.076,164.076,0,0,1-20.5.9H341.1c-10.4,0-15.8-.2-20.5-.9ZM476-82.3a116.687,116.687,0,0,1-12.1-.6v14.7a104.47,104.47,0,0,1,11-.5h.8a20.915,20.915,0,0,1-5.5,12.8c-2.4,2.5-4.6,3.9-9,5.9-1-2.6-1-2.6-2-5.1l-6.8,2.8c2.4-3.4,6.3-9.3,8.9-13.3,1.3-1.9,1.6-2.5,2.4-3.5l-12-6.5c-1.4,3.7-4.4,9.5-9,17.1-.9-1.2-1.3-1.7-2.6-3.3a139.621,139.621,0,0,0,9.2-16.5,23.5,23.5,0,0,1,1.8-3.1L438-86.3c-.8,3.7-3.2,9.5-6.2,14.9l-3-3.3-6.4,12.5A113.2,113.2,0,0,1,435-46.8c-1,1.3-1.1,1.5-2.2,3-6.9,0-7.3,0-9.5-.4L424.7-30c1.7-.4,2.2-.4,7.9-.7,2.5-.2,4.3-.3,5.5-.4V-1.8a63.351,63.351,0,0,1-.6,11h14.8a61.992,61.992,0,0,1-.6-11V-32l5-.4c.3,1.5.4,1.8.8,3.7l8.3-3.3c.1,2,.1,3.1.1,4.9V-1.9c0,4.4-.1,7.4-.4,10.8h15.2V4.8h17.7V9.1h15.2a103.8,103.8,0,0,1-.4-10.7V-27c0-4.2.1-6.9.3-9.7a59.732,59.732,0,0,1-8.9.4h-31c-3.6,0-5.5-.1-7.9-.3a126.944,126.944,0,0,0-4.2-12.8,44.96,44.96,0,0,1,9.1,11.7c7.5-4,12.2-8.4,15.6-15A43.659,43.659,0,0,1,489.4-40c4.1.1,5.6.2,7.1.2,10.5,0,14.8-2.2,16.4-8.4,1.3-4.8,2-12.8,2.4-24.1.3-8.1.3-8.3.6-10.4a83.052,83.052,0,0,1-9.9.4Zm24.4,13.6c-.3,7.8-.6,11.4-1.3,13.4-.5,1.5-1.5,2-4.2,2a58.61,58.61,0,0,1-8-.7,45.421,45.421,0,0,0,3.7-14.7ZM453.5-44.5c-2.7.2-3.5.3-7.2.4,1.8-2.3,1.8-2.3,5.1-6.8C452.8-46.9,452.9-46.6,453.5-44.5Zm27.1,22.1h17.8V-9H480.6Zm-55-5.6c-.3,13.1-1.3,20.9-3.5,27.5l10.4,5c2.2-9.4,3-17.5,3.2-31.1Zm28,1.5c.8,9,1.1,14.3,1.1,21.1,0,.9,0,2.5-.1,4.4l9.1-1.6c0-9.1-.1-10.6-1.6-25.4ZM553-49.1c9.9-7.3,15.8-13,22-21.4,6.3,8.5,11.7,13.7,22.5,21.4h-15a95.281,95.281,0,0,1,.6,11.7V-4.7a102.531,102.531,0,0,1-.7,13.1h17.4a106.922,106.922,0,0,1-.7-13.3V-37.2a94.847,94.847,0,0,1,.4-10.5,95.29,95.29,0,0,0,17,9.5,52.263,52.263,0,0,1,7.1-16.2,84.371,84.371,0,0,1-22.5-11.7c-8.1-5.8-13-10.8-17.8-18H566A65.732,65.732,0,0,1,549.3-66a83.576,83.576,0,0,1-22.2,12.3c4,5.6,5.7,9.1,7.3,15.7a111.347,111.347,0,0,0,16.2-9.4c.1,2.2.2,4.2.2,7.5,0,20.7-4.8,28.7-21.6,36.3A44.4,44.4,0,0,1,539.9,10C551,4.2,557.8-2.3,562-11c3.5-7.2,4.7-14.8,4.9-30.9a62.681,62.681,0,0,1,.4-7.2Z" transform="translate(232.5 3702)"></path></g></svg>