<svg xmlns="http://www.w3.org/2000/svg" width="1627.263" height="131.88" viewBox="0 0 1627.263 131.88"><g id="&#x30B0;&#x30EB;&#x30FC;&#x30D7;_19642" data-name="&#x30B0;&#x30EB;&#x30FC;&#x30D7; 19642" transform="translate(-146.5 -2754.388)"><path id="&#x30D1;&#x30B9;_33899" data-name="&#x30D1;&#x30B9; 33899" d="M20.71-67.144c1.526.109,1.853.109,3.815.327A236.351,236.351,0,0,0,49.05-65.509a80.475,80.475,0,0,0,8.938-.436c-.872.545-.981.545-1.744.981a25.684,25.684,0,0,0-2.616,1.526c-5.232,3.161-5.45,3.27-8.611,5.45l13.407,9.265c9.81-7.3,23.544-16.023,30.3-19.293L88.29-84.693c-5.668,1.308-16.132,1.962-30.3,1.962-15.7,0-28.994-1.09-36.079-2.943ZM30.3-45.78C19.511-37.169,14.715-29.212,14.715-19.511c0,9.156,4.905,15.8,14.606,19.729C35.97,2.943,44.69,4.142,57.007,4.142A208.7,208.7,0,0,0,84.148,2.4C92,1.417,92,1.417,94.939,1.308L93.631-19.62c-7.194,2.834-22.781,5.014-35.643,5.014-16.568,0-23.653-2.507-23.653-8.175,0-3.924,3.379-8.5,9.81-13.407ZM125.023-6.867c1.308-2.18,3.052-4.36,10.791-13.625V-9.047a110.917,110.917,0,0,1-.981,16.677l19.729-.109c-.545-4.251-.872-15.369-.872-30.847,0-3.161,0-6.322.109-11.445a103.018,103.018,0,0,1,18.857-16.786c3.924-2.834,7.739-4.469,10.355-4.469a2.84,2.84,0,0,1,3.161,3.052c0,1.744-.654,5.45-1.962,11.227-3.706,16.35-4.8,22.89-4.8,28.994,0,10.682,6.649,17.549,17.113,17.549S214.076-.436,222.469-14.17c-4.8-7.085-6.649-10.682-9.156-17.549a64.905,64.905,0,0,1-6.54,11.663c-2.071,3.052-4.36,4.9-5.995,4.9s-2.616-1.2-2.616-3.161c0-2.725,1.308-9.592,4.687-23.326,2.18-9.156,2.834-12.753,2.834-16.459,0-10.246-6.976-17-17.549-17-9.592,0-20.819,6.1-34.444,18.748a16.122,16.122,0,0,0,.109-2.4l.109-1.526c2.725-3.488,4.9-5.995,6.867-7.412l-5.995-5.668a155.321,155.321,0,0,1,1.308-16.132l-19.293-.436a47.176,47.176,0,0,1,.436,7.194c0,2.507-.109,5.232-.218,7.521a28.8,28.8,0,0,1-.109,3.488c-4.578.327-9.156.545-11.881.545-1.853,0-3.161-.109-5.668-.327l.872,17.222c4.033-.654,4.033-.654,16.241-1.417-.109,7.085-.218,10.246-.327,11.99-.545.654-4.578,4.578-11.881,11.99a83.113,83.113,0,0,1-7.63,6.649ZM235-47.851a135.624,135.624,0,0,1,17-3.052c-4.36,17.222-13.516,38.913-20.492,48.178L249.5,6.758c.654-1.526.872-2.071,1.744-3.924,6.322-13.625,8.066-17.985,11.554-28.122a216.132,216.132,0,0,0,7.739-27.141,39.577,39.577,0,0,1,4.36-.218c3.815,0,5.341.436,6.54,1.853,1.417,1.526,2.071,4.142,2.071,8.829,0,8.284-1.308,19.4-2.943,24.2-1.2,3.488-2.616,4.9-4.9,4.9-3.161,0-8.72-1.526-14.933-3.924a50.351,50.351,0,0,1,1.635,12.971,48.628,48.628,0,0,1-.327,6.322c7.412,2.071,12.317,2.943,17.331,2.943a20.818,20.818,0,0,0,8.5-1.526,17.511,17.511,0,0,0,6.976-6.54c4.36-7.521,6.867-21.691,6.867-38.7,0-12.317-2.18-18.966-7.739-23.435-3.706-2.943-8.72-4.36-15.478-4.36-1.526,0-2.834.109-4.687.218.436-2.507,1.2-6.649,2.071-11.663,1.09-6.431,1.09-6.431,1.744-8.611l-19.729-1.853v1.853c0,3.706-.763,10.137-2.507,21.582-7.085.872-17.549,1.744-21.037,1.744h-.981Zm63.22-22.236C308.252-58.206,315.01-42.4,318.607-22.454l17.876-8.5c-4.36-18.312-11.336-32.918-22.236-46.543Zm72.921-6.1C383.9-70.305,398.5-65.945,418.233-61.912l5.777-17.549c-5.123-.763-14.5-2.725-21.909-4.687-10.355-2.725-16.9-5.014-22.236-7.739Zm-8.393,7.085a63.417,63.417,0,0,1-.654,6.976c-2.18,15.042-4.469,32.482-5.014,37.714a13.079,13.079,0,0,1-.327,2.18l18.094.763a18.966,18.966,0,0,1,6.1-4.905,47.158,47.158,0,0,1,23.871-6.54c9.81,0,15.478,3.379,15.478,9.156,0,7.739-9.592,12.862-23.98,12.862-8.175,0-18.312-1.744-29.1-5.123,1.744,6.867,2.18,10.355,2.507,19.4a116.463,116.463,0,0,0,27.359,3.27c13.407,0,23.326-2.507,31.174-7.848a27.56,27.56,0,0,0,12.317-23.108c0-15.478-12.862-25.615-32.264-25.615-12.426,0-22.018,2.616-31.174,8.5a239.381,239.381,0,0,1,4.687-26.487ZM504.888-57.334v16.35H491.045a133.689,133.689,0,0,1-14.606-.545v16.35c4.687-.436,9.156-.654,14.933-.654h13.516V-8.066H481.017c-6.322,0-11.772-.218-17.331-.763v16.9c6.322-.545,11.772-.763,17.985-.763h63.547c5.995,0,10.573.218,16.786.763v-16.9a160.718,160.718,0,0,1-17.331.763H522.219V-25.833h16.132c5.777,0,10.246.218,15.151.654V-41.638a149.893,149.893,0,0,1-15.26.654H522.219v-16.35H541.73c5.886,0,11.009.218,16.459.654V-73.139c-5.232.436-10.573.654-17,.654H522.219V-77.5a100.445,100.445,0,0,1,.654-14.606H504.234a122.913,122.913,0,0,1,.654,14.606v5.014h-13.08c.763-2.4,1.308-4.033,1.853-6.213.872-2.943.872-2.943,2.18-6.649l-17-4.033c-.872,13.407-9.047,30.629-19.075,40.439a58.154,58.154,0,0,1,10.9,14.17A98.963,98.963,0,0,0,485.6-57.334ZM656.725-58.86c-.981,6.1-3.161,12.317-7.3,20.383a168.931,168.931,0,0,1-3.052-25.4h16.241a136.946,136.946,0,0,1,14.279.654V-79.679a65.656,65.656,0,0,1-10.791.545l6.431-5.341a79.572,79.572,0,0,0-13.843-10.137l-10.464,9.7a65.769,65.769,0,0,1,8.72,5.777H645.934v-5.123a55.393,55.393,0,0,1,.545-7.848H628.712c.327,2.4.436,3.924.654,12.971H598.519c-5.777,0-10.355-.218-14.824-.545a140.688,140.688,0,0,1,.654,14.388c0,19.947-1.09,34.553-3.161,44.254a50.565,50.565,0,0,1-7.194,17.876c5.232,4.251,7.848,6.976,13.08,13.516,5.014-7.3,7.957-14.933,10.137-25.615a70.243,70.243,0,0,1,2.507,11.99c1.744.109,2.834.109,3.924.109a53.954,53.954,0,0,0,11.336-1.2,64.625,64.625,0,0,1,8.066,13.08c9.374-5.45,15.369-9.919,21.8-16.241C652.365,3.27,659.123,8.611,665.336,8.611c6.649,0,10.9-7.085,13.734-23.435a58.418,58.418,0,0,1-12.535-9.81c-1.09,7.848-1.635,10.573-3.052,14.061-2.834-2.4-4.578-4.8-7.521-9.919a134.933,134.933,0,0,0,14.606-27.25,51.1,51.1,0,0,1,2.071-5.232ZM600.59-52.538c.109-3.6.109-5.341.109-11.336H630.02c1.2,19.184,3.052,29.43,7.412,41.856A80.093,80.093,0,0,1,622.5-10.246c1.853-4.033,2.943-11.663,3.379-22.672.654-16.9.654-16.9.872-19.947a60.017,60.017,0,0,1-7.194.327Zm9.592,14.824c-.327,10.791-.654,14.933-1.635,17.113-.763,1.744-1.635,2.18-4.251,2.18a37.434,37.434,0,0,1-6.431-.654c.872-5.777,1.526-11.227,2.071-18.639ZM780.767,3.379c-1.417-3.052-3.161-7.521-5.232-13.3L751.882-75.537a86.981,86.981,0,0,1-3.706-11.772H719.727a66.537,66.537,0,0,1-3.488,11.772L692.7-9.919c-2.616,7.412-3.6,10.028-5.232,13.3h25.506a62.82,62.82,0,0,1,2.725-11.772l2.943-9.265H749.7l2.943,9.265a88.517,88.517,0,0,1,2.616,11.772ZM744.361-35.97H723.869l10.137-32.7Zm49.377-51.339a101.8,101.8,0,0,1,.872,16.132v58.424a104.466,104.466,0,0,1-.872,16.132h23.98a105.371,105.371,0,0,1-.872-16.132V-71.177a100.93,100.93,0,0,1,.872-16.132ZM837.57-49.392h1.26c1.176,0,1.764,0,2.94.084,3.612.084,3.612.084,7.224.084h2.688c-.336.588-.336.588-1.6,2.688-1.26,2.016-4.62,6.888-6.468,9.156a57.675,57.675,0,0,1-8.9,8.736L845.382-18.06a53.361,53.361,0,0,1,8.064-8.484c5.88-5.124,11.676-8.064,15.96-8.064a3.47,3.47,0,0,1,3.36,2.1c-3.36,1.512-4.2,1.848-6.216,2.856a37,37,0,0,0-12.1,8.988c-2.856,3.444-4.116,6.636-4.116,10.584a13.505,13.505,0,0,0,6.636,11.928c4.536,2.688,10.5,3.864,19.992,3.864a165.779,165.779,0,0,0,20.244-1.26,54.257,54.257,0,0,1,7.476-.756l-.924-15.12c-7.14,2.688-16.8,4.2-26.88,4.2-8.148,0-11.256-1.26-11.256-4.452a5.8,5.8,0,0,1,2.184-4.284c1.512-1.344,2.016-1.68,5.88-3.528l.756-.336a68.954,68.954,0,0,1-.42,8.9l13.692-.42a52.116,52.116,0,0,1-.336-7.224c0-3.7,0-3.78-.084-6.048,8.064-2.772,17.052-5.124,21.42-5.712L903.594-43.6c-1.344.756-1.932.924-6.72,2.52-2.688.84-4.956,1.6-5.208,1.68-4.452,1.512-4.452,1.512-5.88,2.016-1.68-5.46-5.88-8.148-12.852-8.148a24.787,24.787,0,0,0-10.668,2.52,45.512,45.512,0,0,0,4.032-6.216c8.568-.252,19.068-.84,25.032-1.428q3.654-.378,7.56-.756l-.5-13.356c-4.452,1.176-13.02,2.268-21.252,2.688-4.284.252-4.284.252-5.124.336.084-.168.588-1.512,1.68-3.948a24.414,24.414,0,0,1,1.764-3.948l-15.372-1.176a30.4,30.4,0,0,1-2.6,9.324h-2.352c-8.736,0-13.776-.336-17.388-1.176ZM937.637-76.736c-6.649,0-9.483-.109-13.407-.436a71.294,71.294,0,0,1,.436,9.156v11.99a51.262,51.262,0,0,1-.545,9.047h16.568V-62.348h65.182v15.369h16.568a72.86,72.86,0,0,1-.545-8.938v-12.1a68.129,68.129,0,0,1,.436-9.156c-3.706.327-6.867.436-13.625.436h-2.18a121.961,121.961,0,0,0,6.1-11.554l-16.677-3.6a77.707,77.707,0,0,1-6.758,15.151h-6.431a91.229,91.229,0,0,0-6.431-15.587L959.764-89.38a66.7,66.7,0,0,1,5.668,12.644h-7.3a114.64,114.64,0,0,0-8.284-14.5l-16.023,3.27a77.978,77.978,0,0,1,6.54,11.227ZM982.763-18.2h24.2a142.376,142.376,0,0,1,15.587.654V-34.117a140.579,140.579,0,0,1-15.369.763H987.014a180.606,180.606,0,0,0,15.26-12.971c1.635-1.526,2.071-1.962,3.27-2.943l-7.957-9.047a53.926,53.926,0,0,1-8.611.436H956.385a115.87,115.87,0,0,1-11.663-.436V-43.6a110.825,110.825,0,0,1,11.554-.436h22.563a39.791,39.791,0,0,1-7.412,5.559h-5.995a33.647,33.647,0,0,1,.327,5.123H938.945a120.9,120.9,0,0,1-14.824-.763v16.568a136.756,136.756,0,0,1,15.042-.654h26.6V-7.848c0,1.962-.763,2.289-5.123,2.289-3.052,0-7.194-.327-13.189-.872a64.033,64.033,0,0,1,4.8,16.023c5.123.218,8.066.327,9.919.327,16.9,0,20.6-2.4,20.6-12.971Zm126.985-55.045.109-8.393a21.48,21.48,0,0,1-2.289.109c-7.739,0-22.345-2.071-31.283-4.469a63.165,63.165,0,0,1-13.407-4.9l-6.213,17.113c.872.218,1.526.436,1.853.545l1.962.654c10.355,3.488,15.042,4.687,22.89,5.559Q1071.6-57.879,1071.6-47.742c0,5.232,2.289,10.246,7.3,16.023,6.213,7.194,6.213,7.194,7.521,9.156a9.919,9.919,0,0,1,1.853,5.45c0,3.6-2.289,5.777-6.1,5.777-4.8,0-11.772-3.379-17.767-8.5-.763,8.284-1.308,11.118-3.6,18.421a58.063,58.063,0,0,0,7.63,4.36,40.133,40.133,0,0,0,16.677,3.924c13.843,0,23.98-9.265,23.98-21.909,0-7.412-2.616-12.862-9.919-20.6-4.687-5.014-5.559-5.886-6.322-6.867-1.744-2.289-2.507-3.924-2.507-5.668,0-6.1,10.464-14.715,19.184-15.7l.109-5.559a74.5,74.5,0,0,1,7.848,15.369l9.81-4.578a73.713,73.713,0,0,0-10.137-17.876Zm12.208-5.123a72.145,72.145,0,0,1,9.7,17.331l9.592-4.36a78.014,78.014,0,0,0-9.919-17.113Zm-74.447,33.463c-.981,10.9-6.867,28.994-12.971,40a67.164,67.164,0,0,1,17.44,7.957,163.477,163.477,0,0,0,13.407-42.51Zm58.969,3.6c6.431,9.374,12.753,26.16,15.7,42.292l17.876-8.393a137.583,137.583,0,0,0-16.568-40Zm107.583-22.127a24,24,0,0,1-1.417,6.213,41.142,41.142,0,0,0-5.123-.218,57.575,57.575,0,0,0-10.573.981c.109-2.289.109-2.616.109-3.27.109-1.853.109-1.853.218-2.943,10.9-.436,27.468-1.744,37.932-3.27,2.507-.327,2.943-.327,4.687-.436l-.763-17.658c-8.829,2.507-23.217,4.469-40.875,5.45.654-6.431.872-8.175,1.744-11.445l-18.748-.763a27.87,27.87,0,0,1,.218,4.578c0,1.2,0,2.4-.109,3.488-.218,3.27-.218,3.27-.327,4.687l-1.526.109h-.654a101.006,101.006,0,0,1-20.274-1.635l.218,17.222c1.526-.109,1.962-.109,3.488-.109,1.962,0,3.706,0,5.341.109,8.066.109,8.066.109,12.753.218-.109,4.687-.109,5.777-.109,9.483a42.591,42.591,0,0,0-15.151,9.919,35.667,35.667,0,0,0-10.9,25.288c0,13.625,8.175,22.236,21.037,22.236,8.284,0,17.767-4.251,25.288-11.336a58.885,58.885,0,0,1,6.1,14.388c10.137-.981,16.132-2.4,22.018-5.014,13.189-5.886,20.492-16.459,20.492-29.648,0-8.284-2.943-15.151-8.938-20.492a27.75,27.75,0,0,0-11.009-6.1,55.006,55.006,0,0,1,2.289-5.45Zm-9.483,53.3a85.821,85.821,0,0,0,19.075-28.449c4.905,2.507,6.976,5.559,6.976,10.464,0,5.995-4.033,11.663-10.355,14.606C1216.132-11.554,1211.772-10.682,1204.578-10.137Zm-24.089-24.307a123.928,123.928,0,0,0,1.635,19.729,10.235,10.235,0,0,1-5.995,2.071c-3.052,0-4.687-2.289-4.687-6.322C1171.442-24.961,1174.6-30.3,1180.489-34.444Zm16.35-7.521a28.357,28.357,0,0,1,8.611-1.2,16.1,16.1,0,0,1,2.289.109,70.9,70.9,0,0,1-10.246,16.786A133.6,133.6,0,0,1,1196.839-41.965Zm94.83-49.813a72.783,72.783,0,0,1-1.635,12.971,37.463,37.463,0,0,0-.981,4.578c-2.18.109-2.725.109-3.924.109a89.107,89.107,0,0,1-15.914-1.09v17.44h4.251c2.507.109,2.507.109,5.014.109h6.1c-4.905,15.369-12.426,30.847-20.165,41.2l17.767,9.7a44.078,44.078,0,0,1,2.071-4.251c4.251-8.5,5.232-10.464,7.521-15.478a224.087,224.087,0,0,0,11.881-31.61c2.725-.218,8.72-.763,11.663-1.09,5.45-.654,5.45-.654,8.066-.872l-.327-17.658c-3.488,1.09-8.175,1.853-15.151,2.616.545-2.507.763-3.488,1.308-6.1,1.308-6.758,1.417-6.758,2.071-8.72Zm75.537,26.6c-10.137-5.886-19.075-9.81-32.809-14.715l-9.047,15.042a154.221,154.221,0,0,1,33.9,15.7Zm-.981,49.922c-3.27-2.616-5.014-4.033-5.341-4.251a79.826,79.826,0,0,0-16.786-9.7,97.078,97.078,0,0,1-.872-12.644,50.651,50.651,0,0,1,1.2-12.317l-17.985-.763c-.436,4.905-.654,8.393-.654,12.862,0,2.507.109,4.578.436,8.72a44.614,44.614,0,0,0-7.63-.654c-15.151,0-25.724,8.829-25.724,21.473a19.037,19.037,0,0,0,5.45,13.516c4.469,4.578,11.881,7.194,20.6,7.194s16.35-2.507,20.6-6.758c2.943-3.052,4.251-6.213,4.578-11.336a58.374,58.374,0,0,1,14.061,11.881Zm-39.676-1.853a11.093,11.093,0,0,1,.218,2.4c0,4.578-2.834,6.976-8.284,6.976-4.687,0-7.739-2.071-7.739-5.232,0-3.379,3.27-5.559,8.393-5.559A18.948,18.948,0,0,1,1326.549-17.113Zm113.469-59.95a123.149,123.149,0,0,1-17.876,2.834c.981-5.559,1.635-8.72,1.744-9.374a34.467,34.467,0,0,1,1.417-6.322l-20.383-1.526v1.635c0,3.379-.436,7.63-1.853,16.35H1401a113.443,113.443,0,0,1-16.568-1.09l-.327,17.767a21.966,21.966,0,0,1,2.507-.109h1.09c4.687.218,6.976.327,10.464.327h1.744c-4.033,20.165-11.118,41.856-18.312,55.808l20.056,7.3c.763-2.616.763-2.616,2.507-7.848,4.687-14.061,5.341-16.459,8.066-26.051,3.052-11.336,5.014-19.4,6.867-29.648,3.379-.218,4.687-.327,9.919-.872L1430.1-42.4a146.293,146.293,0,0,1,30.629-2.725,98.229,98.229,0,0,1,14.279.763l-.327-18.421c-2.289-.109-4.578-.109-5.341-.109-13.734,0-18.53.327-28.885,1.635Zm-11.554,40.548c-5.995,8.72-8.5,14.824-8.5,21.146q0,20.6,32.046,20.6c6.649,0,11.009-.327,21.255-1.744,2.616-.327,3.6-.436,5.777-.654l-1.308-19.075c-6.649,2.507-17.222,4.251-25.724,4.251-9.156,0-13.625-2.4-13.625-7.412,0-3.379,1.744-6.976,5.886-11.881Zm73.03,18.094,1.962-2.4c1.417-1.635,1.417-1.635,3.815-4.36,4.142-4.578,10.9-13.08,15.151-18.857,7.412-10.137,7.521-10.246,9.265-10.246,1.635,0,2.507.763,6.1,5.014,19.947,23.98,28.449,33.136,43.164,46.543,1.853,1.744,2.507,2.289,3.924,3.706l9.592-21.364c-3.161-1.853-4.687-2.943-9.265-6.976a310.431,310.431,0,0,1-30.3-31.174c-8.5-10.355-8.5-10.355-11.118-12.753a17.363,17.363,0,0,0-12.208-5.123,17.841,17.841,0,0,0-12.1,4.9c-2.507,2.289-2.943,2.834-10.028,11.772-9.592,12.208-15.587,18.748-20.056,22.127Z" transform="translate(162 2849)"></path><path id="&#x7DDA;_31" data-name="&#x7DDA; 31" d="M1627.263,3H0V-3H1627.263Z" transform="translate(146.5 2883.268)"></path></g></svg>