<svg xmlns="http://www.w3.org/2000/svg" width="1510.673" height="414" viewBox="0 0 1510.673 414"><g id="&#x30B0;&#x30EB;&#x30FC;&#x30D7;_19603" data-name="&#x30B0;&#x30EB;&#x30FC;&#x30D7; 19603" transform="translate(-49.495 -2143)"><rect id="&#x9577;&#x65B9;&#x5F62;_5118" data-name="&#x9577;&#x65B9;&#x5F62; 5118" width="524" height="124" transform="translate(679 2143)"></rect><rect id="&#x9577;&#x65B9;&#x5F62;_5119" data-name="&#x9577;&#x65B9;&#x5F62; 5119" width="644" height="124" transform="translate(324 2433)"></rect><path id="&#x30D1;&#x30B9;_33842" data-name="&#x30D1;&#x30B9; 33842" d="M37.765-4.615H27.95A46.235,46.235,0,0,1,21-4.94V4.615a59.258,59.258,0,0,1,8.32-.39H54.86a54.628,54.628,0,0,1,8.19.39V-4.94a50.6,50.6,0,0,1-7.41.325H46.93v-3.77h7.02a52.454,52.454,0,0,1,7.28.325v-9.3a50.051,50.051,0,0,1-7.41.325H46.93v-3.25h7.475c3.835,0,4.42,0,6.37.13a70.94,70.94,0,0,1-.325-9.1V-43.94c0-4.355.13-7.6.325-9.62a56.259,56.259,0,0,1-8.58.325H33.6a86.839,86.839,0,0,1-9.165-.325,77.51,77.51,0,0,1,.325,9.165v15.6c0,4.485-.065,6.89-.26,8.71,1.755-.13,3.12-.2,7.475-.2h5.785v3.25H31.72a53.367,53.367,0,0,1-7.15-.26v9.165a57.959,57.959,0,0,1,7.215-.26h5.98Zm0-39.715V-40.5H33.8V-44.33Zm9.165,0H50.9V-40.5H46.93ZM37.765-32.89v4.03H33.8v-4.03Zm9.165,0H50.9v4.03H46.93ZM8.45-43.55v10.14H7.865a32.973,32.973,0,0,1-4.745-.26v9.165a31.833,31.833,0,0,1,4.55-.26h.78v12.74A42.8,42.8,0,0,1,1.5-9.88L3.77.325c.91-.455.975-.455,1.43-.65,8.97-3.7,12.805-5.395,18.005-8l-.065-9.685c-2.34,1.17-2.99,1.43-5.135,2.34v-9.1h.39c1.43,0,2.47.065,3.965.2v-9.1a25.94,25.94,0,0,1-3.965.26h-.39V-43.55h.845a35.27,35.27,0,0,1,4.485.26v-9.555a51.156,51.156,0,0,1-6.175.325H8.58a54.025,54.025,0,0,1-6.24-.325v9.555a39.219,39.219,0,0,1,4.55-.26Zm97.24-1.885V-48.36a52.341,52.341,0,0,1,.39-6.955H95.03a55.233,55.233,0,0,1,.39,6.825v3.055H80.34a75.806,75.806,0,0,1-7.67-.26c.195,2.08.325,4.225.325,6.76V-3.7c0,3.77-.13,6.695-.39,9.75h10.01V3.38h36.14V6.045H128.83c-.26-3.38-.39-6.5-.39-9.62v-34.84a64.306,64.306,0,0,1,.325-7.345,70.445,70.445,0,0,1-8.125.325Zm0,39.65V-17.1h13.065v11.31Zm0-20.215V-36.27h13.065V-26ZM95.42-36.27V-26H82.615V-36.27Zm0,19.175v11.31H82.615V-17.1Z" transform="translate(48 2208)" fill="#533afc"></path><path id="&#x30D1;&#x30B9;_33843" data-name="&#x30D1;&#x30B9; 33843" d="M55.584,7.056c18.288,0,33.408-8.064,42.048-22.464C103.1-24.48,106.7-40.32,106.7-55.44a95.783,95.783,0,0,0-5.616-33.12,45.347,45.347,0,0,0-10.512-15.984c-8.784-8.64-21.024-13.392-34.992-13.392-18.144,0-33.12,8.064-41.9,22.752C8.208-86.112,4.608-70.416,4.608-55.3A95.552,95.552,0,0,0,10.224-22.32,45.347,45.347,0,0,0,20.736-6.336C29.52,2.448,41.472,7.056,55.584,7.056Zm0-100.656c13.968,0,21.456,12.96,21.456,37.584,0,25.632-7.2,38.592-21.312,38.592-14.256,0-21.6-13.248-21.6-39.024C34.128-79.92,42.048-93.6,55.584-93.6Zm76.32,3.888a152.3,152.3,0,0,1,17.568-1.008h5.76v73.44A165.25,165.25,0,0,1,154.08,4.464h31.392A166.674,166.674,0,0,1,184.32-17.28V-92.736a223.562,223.562,0,0,1,1.008-23.184c-5.76.576-7.632.576-17.856.576H149.184c-8.352,0-12.1-.144-17.28-1.008Z" transform="translate(48 2368)" fill="#533afc"></path><path id="&#x30D1;&#x30B9;_33844" data-name="&#x30D1;&#x30B9; 33844" d="M54.432-27.108c-5.292,7.56-13.068,14.04-23.22,19.224a68.541,68.541,0,0,1,9.5,14.04c9.72-6.372,16.2-12.744,20.628-20.52-.216,3.672-.216,4.212-.216,6.264v6.48A106.566,106.566,0,0,1,60.48,9.936H77.652A94.152,94.152,0,0,1,77-1.62V-8.532a56.612,56.612,0,0,0-.216-5.94A59.4,59.4,0,0,0,99.576,6.264,75.981,75.981,0,0,1,106.812-9.72C96.66-14.256,88.776-20.088,83.376-27.108h9.072c3.672,0,7.344.216,11.016.54v-15.66c-3.564.324-7.128.54-11.016.54H77v-.972a32.608,32.608,0,0,1,.432-6.264H60.7a32.609,32.609,0,0,1,.432,6.264v.972H47.736c-4.644,0-7.452-.108-9.936-.324v-7.452c-3.24,1.188-4.428,1.62-6.8,2.484V-58.212h2.268A27.669,27.669,0,0,1,37.908-58v-3.24A111.325,111.325,0,0,1,43.956-44.82L58.1-50.22C54.972-59.292,53.46-62.748,49.9-69.336l-11.988,4.1V-73.44a31.8,31.8,0,0,1-4.752.324H31v-7.452a71.369,71.369,0,0,1,.54-11.016H14.364a72.233,72.233,0,0,1,.54,11.016v7.452H12.1a45.988,45.988,0,0,1-7.884-.54V-57.78a66.936,66.936,0,0,1,7.668-.432H14.9v15.876a93.638,93.638,0,0,1-11.34,2.052L5.076-23.76c2.052-.648,2.052-.648,9.828-2.808v17.5c0,2.916-.54,3.456-3.456,3.456a76.247,76.247,0,0,1-7.884-.432A49.761,49.761,0,0,1,7.02,9.288c3.24.108,4.86.216,7.128.216C27.648,9.5,31,6.8,31-4V-31.752c1.944-.756,1.944-.756,5.508-2.052v7.128a111.981,111.981,0,0,1,11.232-.432Zm24.3-26.136a91.516,91.516,0,0,0-5.4-18.252l-14.58,2.808A88.766,88.766,0,0,1,63.5-50.544ZM91.368-92.556c-9.612,4.32-31,7.02-55.836,7.128,2.592,4.968,3.456,7.344,5.508,14.58C62.316-71.82,83.484-74.3,95.9-77.328c5.184-1.188,5.184-1.188,6.912-1.512Zm1.3,48.924c5.076-8.1,7.452-12.96,11.664-23.436L88.884-72.684c-3.024,10.476-5.508,16.092-10.26,23.76Zm84.348,21.384H197.1V-8.964c0,1.944-.864,2.376-4.752,2.376-3.024,0-7.236-.216-11.988-.648a53.646,53.646,0,0,1,4.32,15.552c4.212.216,8.1.324,11.772.324,13.068,0,17.172-3.132,17.172-13.176V-74.952a110.931,110.931,0,0,1,.54-13.824c-3.564.324-6.8.432-13.5.432H137.7c-6.156,0-8.856-.108-12.852-.432.324,4.1.54,8.424.54,14.8,0,46.116-1.728,58.428-9.936,72.144,5.94,3.564,8.64,5.832,14.688,12.312C135.972.54,138.78-8.64,140.292-22.248H160.92V-7.02A101,101,0,0,1,160.272,6.7h17.28a108.809,108.809,0,0,1-.54-13.824Zm0-40.5V-72.9H197.1v10.152Zm-16.092,0H141.912V-72.9H160.92Zm16.092,15.012H197.1v10.368H177.012Zm-16.092,0v10.368H141.372c.216-4.752.216-5.94.324-10.368ZM332.208-37.044c-7.776-5.94-11.772-8.748-18.684-12.636a144.978,144.978,0,0,0,15.228-12.312l-10.044-8.532c5.4,0,8.532.108,12.1.432V-86.076a126.914,126.914,0,0,1-14.472.648H289.116a29.927,29.927,0,0,1,.648-6.48H271.62a39.268,39.268,0,0,1,.54,6.48h-25.7a128.778,128.778,0,0,1-14.364-.648v15.984c3.24-.324,4.752-.324,10.476-.432l-10.26,9.072A83.256,83.256,0,0,1,249.156-46.98a104.8,104.8,0,0,1-18.144,6.372L236.2-24.84c1.08-.432,1.08-.432,2.376-.972,2.268-.756,2.268-.864,4.428-1.728,6.156-2.7,8.1-3.672,12.528-5.94l.864,6.156a33.075,33.075,0,0,1,3.888-.216c1.4-.108,1.4-.108,3.888-.324l7.992-.54v4.86H243a87.2,87.2,0,0,1-12.312-.648V-7.884c5.076-.432,9.072-.648,14.148-.648H272.16V-1.4a73.143,73.143,0,0,1-.756,11.556h18.36A72.238,72.238,0,0,1,289.008-1.4V-8.532h28.728a142.44,142.44,0,0,1,14.256.648V-24.192a81.1,81.1,0,0,1-11.664.648h-31.32v-6.264a63.485,63.485,0,0,0,6.588-.648c.54,1.836.756,2.484,1.4,4.536l13.068-4.536c-2.7-5.4-2.7-5.4-3.348-6.8a88.4,88.4,0,0,1,14.8,12.852Zm-28.836-6.588c-1.188-2.052-1.188-2.052-5.184-8.424l-7.236,2.7c1.188-1.08,1.836-1.62,5.184-4.86.864-.756.864-.756,2.7-2.484l8.1,8.856Zm-12.852,1.62c-4.536.324-7.992.54-10.476.648,3.564-2.916,3.564-2.916,7.344-6.264C289.116-44.712,289.332-44.172,290.52-42.012Zm-29.592.864h-1.08l-3.564-9.072c-5.508,2.592-5.508,2.592-6.264,2.916l7.56-7.452a85.45,85.45,0,0,1,11.232,9.18c-2.268,1.944-2.376,2.052-5.292,4.428a1.9,1.9,0,0,0-.648-.108Zm54-29.376a89.547,89.547,0,0,1-12.42,10.152l-12.2-7.992A135.446,135.446,0,0,1,279.072-55.3c-1.512-1.512-1.62-1.512-2.7-2.592a91.418,91.418,0,0,0,9.72-12.636Zm-58.1,8.64c-4.32-3.672-8.424-7.02-10.8-8.64h23.544a41.487,41.487,0,0,1-3.24,4.644c-1.3-.864-1.836-1.188-3.456-2.268Z" transform="translate(324 2246)"></path><path id="&#x30D1;&#x30B9;_33845" data-name="&#x30D1;&#x30B9; 33845" d="M53.892,5.832c13.716,0,25.056-6.048,31.536-16.848,4.1-6.8,6.8-18.684,6.8-30.024A71.837,71.837,0,0,0,88.02-65.88a34.01,34.01,0,0,0-7.884-11.988c-6.588-6.48-15.768-10.044-26.244-10.044-13.608,0-24.84,6.048-31.428,17.064-4.1,6.8-6.8,18.576-6.8,29.916A71.664,71.664,0,0,0,19.872-16.2,34.01,34.01,0,0,0,27.756-4.212C34.344,2.376,43.308,5.832,53.892,5.832Zm0-75.492c10.476,0,16.092,9.72,16.092,28.188,0,19.224-5.4,28.944-15.984,28.944-10.692,0-16.2-9.936-16.2-29.268C37.8-59.4,43.74-69.66,53.892-69.66Zm65.016,51.192V3.348h21.816V-18.468ZM212.22-43.956c10.26-3.564,15.228-10.152,15.228-20.412,0-15.012-13.284-24.516-34.236-24.516-13.176,0-23.868,4-29.592,11.016-2.916,3.672-4.428,8.532-4.428,14.148A19.92,19.92,0,0,0,164.376-49.9c2.592,2.916,5.076,4.212,10.476,5.94-5.184,1.08-7.992,2.376-11.34,4.968C158-34.668,155.2-28.728,155.2-21.276c0,6.8,2.268,12.744,6.588,16.956,6.48,6.372,17.6,9.936,31.32,9.936,13.5,0,24.516-3.348,31.1-9.612a23.2,23.2,0,0,0,7.128-17.28c0-6.264-1.4-10.8-4.752-14.8C223.02-40.608,219.024-42.768,212.22-43.956ZM193.32-71.82c7.776,0,12.636,3.672,12.636,9.5,0,6.048-4.752,9.72-12.528,9.72-7.884,0-12.852-3.78-12.852-9.72C180.576-68.148,185.544-71.82,193.32-71.82Zm.108,37.044c9.72,0,15.552,4.212,15.552,11.448S203.256-11.88,193.212-11.88c-9.828,0-15.768-4.212-15.768-11.232C177.444-30.348,183.492-34.776,193.428-34.776Zm50.76,14.688a40.141,40.141,0,0,0,1.836,5.724A29.24,29.24,0,0,0,257.148-.432c5.724,3.78,15.444,6.048,25.164,6.048,8.1,0,16.848-1.62,22.464-4.212a27.056,27.056,0,0,0,10.152-8.1,24.091,24.091,0,0,0,4.32-14.364,21.27,21.27,0,0,0-7.128-15.984c-3.78-3.24-7.344-4.752-13.932-5.724,12.42-2.916,18.576-10.044,18.576-21.492A20.922,20.922,0,0,0,310.716-79.6c-6.156-5.94-15.876-9.18-27.648-9.18-13.176,0-23.112,3.672-29.7,10.8-3.456,3.78-5.184,7.02-7.236,13.716l23.328,3.348c1.62-6.912,5.508-9.936,13.176-9.936,7.128,0,11.232,3.348,11.232,9.18,0,6.912-5.076,10.368-15.336,10.368a94.874,94.874,0,0,1-11.448-.648v18.576c4.212-.432,9.072-.648,13.284-.648a31.09,31.09,0,0,1,10.044,1.4c3.672,1.4,5.832,4.86,5.832,9.288,0,6.588-5.292,10.8-13.716,10.8-5.184,0-9.5-1.62-12.42-4.644-1.728-1.836-2.376-3.348-3.024-6.912Zm112-17.6c6.7,0,12.636-2.16,16.632-6.156,4.32-4.212,6.588-10.8,6.588-19.224,0-8.208-2.16-14.688-6.48-19.008-4-4-9.828-6.156-16.74-6.156-6.8,0-12.636,2.16-16.74,6.156-4.32,4.32-6.588,10.908-6.588,19.116s2.268,14.9,6.48,19.008S349.272-37.692,356.184-37.692Zm0-38.88c5.4,0,8.208,4.536,8.208,13.5,0,9.18-2.808,13.824-8.208,13.824-5.508,0-8.316-4.752-8.316-13.824C347.868-71.928,350.784-76.572,356.184-76.572Zm53.46,81.756c6.8,0,12.744-2.16,16.74-6.156,4.32-4.212,6.588-10.908,6.588-19.224,0-15.876-8.532-25.164-23.22-25.164-6.912,0-12.744,2.16-16.848,6.156-4.32,4.32-6.588,10.908-6.588,19.008,0,8.316,2.268,15.012,6.48,19.116S402.84,5.184,409.644,5.184Zm.108-38.88c5.4,0,8.208,4.536,8.208,13.284,0,9.4-2.7,14.04-8.316,14.04-5.508,0-8.316-4.752-8.316-14.04C401.328-29.16,404.244-33.7,409.752-33.7ZM344.844,2.052l5.616,4.32L420.876-85l-5.724-4.32Z" transform="translate(694 2246)" fill="#fff"></path><path id="&#x30D1;&#x30B9;_33846" data-name="&#x30D1;&#x30B9; 33846" d="M20-16.6,5.84-30.8,4.52-29.48,18.72-15.2,4.52-1,5.84.32,20-13.76,34.2.32,35.48-1,21.28-15.2l14.2-14.28L34.2-30.8Zm.04-13.24a3.073,3.073,0,0,0-3.08,3.04,3.107,3.107,0,0,0,3.08,3.08,3.047,3.047,0,0,0,3.04-3.08A3.039,3.039,0,0,0,20.04-29.84ZM8.56-18.28a3.047,3.047,0,0,0-3.08,3.04,3.107,3.107,0,0,0,3.08,3.08,3.047,3.047,0,0,0,3.04-3.08A3.039,3.039,0,0,0,8.56-18.28Zm22.88.04A3.039,3.039,0,0,0,28.4-15.2a3.039,3.039,0,0,0,3.04,3.04,3.039,3.039,0,0,0,3.04-3.04A3.039,3.039,0,0,0,31.44-18.24ZM20-6.64l-.08.08c-.04,0-.04,0-.08-.04a.147.147,0,0,0-.12-.04,3.224,3.224,0,0,0-2.8,3.08A3.219,3.219,0,0,0,20-.48a3.1,3.1,0,0,0,3.04-3.08A3.047,3.047,0,0,0,20-6.64Z" transform="translate(1142 2247)" fill="#fff"></path><path id="&#x30D1;&#x30B9;_33847" data-name="&#x30D1;&#x30B9; 33847" d="M61.56-11.664A45.562,45.562,0,0,1,47.2-2.916C49.14-5.4,49.68-7.884,49.68-13.284V-34.992A92.665,92.665,0,0,1,50.112-45.9q-3.564.324-9.4.324H14.364a79.739,79.739,0,0,1-10.152-.432v15.66A55.756,55.756,0,0,1,12.1-30.78h2.7V-2.268A91.07,91.07,0,0,1,14.148,9.4H31a74.953,74.953,0,0,1-.54-11.664v-11.34C32.724-8.748,33.48-5.292,33.588.864,39.1.756,41.148.432,44.28-.864A47.909,47.909,0,0,1,52.7,11.016c9.828-4.32,15.552-8.1,23.22-15.66l-8.748-7.02H84.132l-8.1,7.236C83.916,3.24,87.7,5.94,96.984,10.584A57.072,57.072,0,0,1,106.6-2.16c-8.208-3.024-12.852-5.616-17.28-9.5H91.8c2.592,0,5.94.108,9.288.324-.324-3.348-.432-7.452-.432-11.988v-36.18a94.362,94.362,0,0,1,.432-10.044c-2.484.216-4.536.216-11.34.216H83.16c.972-2.16,1.188-2.808,1.944-4.644h5.832a121.907,121.907,0,0,1,12.744.432v-15.66a89.186,89.186,0,0,1-12.744.54H62.1a88.648,88.648,0,0,1-12.2-.648v14.8A41.865,41.865,0,0,1,37.26-90.072H20.844C16.74-80.136,11.016-73.548.972-67.284A59.175,59.175,0,0,1,6.7-51.948,51.566,51.566,0,0,0,14.04-57.24v7.56A76.92,76.92,0,0,1,22.032-50h14.9a67.889,67.889,0,0,1,7.884.324v-9.288a30.955,30.955,0,0,0,3.78,2.916c1.62-7.884,2.592-10.692,5.4-15.768-1.3-.756-1.62-1.08-2.808-1.836,3.348-.216,6.372-.324,11.34-.324H68.9a50.24,50.24,0,0,1-1.944,4.644H61.992a84.47,84.47,0,0,1-8.856-.216c.108,2.7.216,5.076.216,10.26v36.4c0,4.428-.108,8.532-.324,11.448,2.7-.108,4.428-.216,7.776-.216ZM21.168-63.72c3.564-4,5.292-6.588,8.64-12.636a45.668,45.668,0,0,0,9.5,12.636H21.168Zm9.288,32.94h4.968v14.688c0,1.188-.432,1.512-1.944,1.512a17.015,17.015,0,0,1-3.024-.324ZM68.58-57.348H85v3.888H68.58Zm0,14.8H85v4H68.58Zm0,14.58H85v4H68.58ZM149.472-31.1a51.12,51.12,0,0,1-.324,6.264c1.512-.108,3.78-.216,6.156-.216H174.42c2.16,0,4,.108,5.94.216-.108-.972-.108-.972-.216-6.588V-55.62a31.973,31.973,0,0,1,.216-3.672c-1.3.108-3.564.216-5.076.216H156.06c-2.916,0-5.616-.108-6.912-.216.108.648.216,2.916.324,6.7Zm12.2-15.228h6.048v8.424h-6.048Zm41.58-12.852a59.191,59.191,0,0,1-4.32,16.632c-.972-8.532-1.4-14.364-1.728-21.168h7.02c4.752,0,9.288.216,12.312.54V-79.7a51.9,51.9,0,0,1-8.748.54l7.668-3.348A56.959,56.959,0,0,0,209.2-92.664l-11.34,4.428a77.9,77.9,0,0,1,5.076,9.072h-5.94c0-6.912.108-9.5.648-12.312H180.792c.432,3.132.54,5.076.648,12.312H158.76a103.6,103.6,0,0,1-13.284-.648V-64.8c-1.728.108-2.052.216-4.32.216V-78.192A72.561,72.561,0,0,1,141.8-90.5H124.848a90.418,90.418,0,0,1,.648,12.312v13.608h-1.512a44.7,44.7,0,0,1-6.912-.432v15.768a40.38,40.38,0,0,1,6.8-.54h1.62v29.052c-6.264,2.376-7.56,2.7-9.828,3.024l3.024,17.5a38.826,38.826,0,0,1,4.752-2.376c9.072-4,11.124-4.86,18.792-8.748l1.3,9.612c1.188-.324,4.212-1.08,6.372-1.512,12.528-2.484,16.632-3.456,24.084-5.292a73.979,73.979,0,0,1-12.42,7.884A63.379,63.379,0,0,1,174.96,10.368,91.577,91.577,0,0,0,193-5.184c4.752,9.72,10.044,14.8,15.444,14.8,3.456,0,6.48-2.592,8.316-6.912,1.3-3.24,1.944-6.48,3.348-16.632a51.2,51.2,0,0,1-10.044-9.4,70.971,70.971,0,0,1-1.836,12.744A50.1,50.1,0,0,1,203.9-20.2c4.752-7.884,7.884-14.9,11.772-26.352,1.4-3.888,1.4-3.888,2.268-6.048ZM182.412-24.516c-15.228,3.24-24.3,4.752-35.64,6.156V-30.132c-2.7,1.4-3.564,1.836-5.616,2.808V-49.788a40.016,40.016,0,0,1,5.724.432V-63.288c3.456-.324,7.344-.432,11.448-.432h23.544c.864,16.848,2.592,30.132,5.4,41.8a69.339,69.339,0,0,1-4.86,5.832ZM256.068-45.36c-10.692,8.532-15.444,16.416-15.444,26.028,0,9.072,4.86,15.66,14.472,19.548,6.588,2.7,15.228,3.888,27.432,3.888A206.79,206.79,0,0,0,309.42,2.376l3.024-.432c1.62-.216,2.7-.324,3.348-.432,1.62-.108,2.268-.108,4.32-.216l-1.3-20.736c-7.128,2.808-22.572,4.968-35.316,4.968-16.416,0-23.436-2.484-23.436-8.1,0-3.888,3.348-8.424,9.72-13.284Zm-9.5-21.168c1.512.108,1.62.108,3.78.324a234.182,234.182,0,0,0,24.3,1.3,79.736,79.736,0,0,0,8.856-.432c-.648.324-1.08.648-1.3.756l-1.08.54c-.108.108-.864.54-1.62.972l-3.564,2.16c-1.62,1.08-3.024,1.944-5.292,3.456l13.284,9.18c7.776-6.048,23-15.66,30.024-19.116l-.432-16.524c-5.616,1.3-15.984,1.944-30.024,1.944-15.552,0-28.728-1.08-35.748-2.916Zm51.408,14.256A69.524,69.524,0,0,1,308.664-36.5l9.936-5.4a69.195,69.195,0,0,0-10.692-15.444Zm14.364-7.452A73.7,73.7,0,0,1,322.92-44.28l9.612-5.292a75.923,75.923,0,0,0-10.8-15.012Zm58.1-27.648c.54,1.512.648,2.16,1.728,7.128,3.24,16.416,3.78,19.008,6.372,28.4-6.588,3.348-9.72,5.184-13.5,8.208a28.94,28.94,0,0,0-11.124,22.248c0,8.532,3.78,16.308,9.936,20.3,7.128,4.536,18.036,6.8,33.588,6.8a240.892,240.892,0,0,0,27.216-1.836c5.508-.648,6.7-.756,9.4-.864l-1.4-20.52a47.147,47.147,0,0,1-5.724,1.62A157.7,157.7,0,0,1,395.28-12.42c-15.012,0-21.492-2.916-21.492-9.5,0-6.372,7.128-12.1,20.952-16.956,12.852-4.428,27.972-8.424,38.664-10.044l-6.156-19.224a21.788,21.788,0,0,1-4.428,1.62c-3.888,1.188-3.888,1.188-14.148,4.212-4.428,1.188-7.56,2.268-12.42,4-3.24-11.88-5.724-24.84-6.156-31.968Zm99.036,0c-.216,3.24-.324,4-1.62,11.556a233.6,233.6,0,0,0-4.1,41.58c0,10.26.756,19.656,2.808,34.128a43.391,43.391,0,0,1,.54,5.724l18.576-.864a30.234,30.234,0,0,1-.324-5.292,106.568,106.568,0,0,1,4.212-30.24l-8.316-2.808c.756-19.656,4-39.852,8.208-52.164Zm28.3,28.08c1.512.108,2.268.108,3.132.216a178.2,178.2,0,0,0,18.576.864c7.452,0,15.336-.432,22.788-1.188,5.94-.648,7.02-.756,7.992-.756L549.5-78.624c-7.236,1.836-17.82,2.7-32.184,2.7a90.209,90.209,0,0,1-19.224-1.62Zm6.372,14.364c-2.916,4.212-3.564,5.292-5.076,7.776-3.348,5.616-5.184,11.556-5.184,16.848A20.006,20.006,0,0,0,503.82-3.132C509.436,0,516.132,1.4,526.176,1.4A132.251,132.251,0,0,0,544.86,0c6.372-.972,6.372-.972,9.18-1.3l-1.08-19.116a80.265,80.265,0,0,1-26.892,4.428c-9.18,0-14.04-2.7-14.04-7.668,0-3.888,2.268-8.532,7.236-14.9Zm93.42,5.076c0-7.884,0-8.964.216-12.1a54.441,54.441,0,0,1-8.1.324H579.312a52.481,52.481,0,0,1-8.856-.54v16.308a37.97,37.97,0,0,1,6.7-.54h4.428v20.412c-5.616,4.428-9.936,7.128-13.068,8.208l7.02,17.388C583.308,4,585.252,2.484,589.9-1.728c3.78,4.212,6.912,6.372,11.232,7.884,5.184,1.836,11.448,2.376,27.324,2.376,16.308,0,31.644-.216,41.148-.54a69.542,69.542,0,0,1,4-16.956c-4.86.648-6.48.864-9.072,1.08,3.024-4.644,3.348-5.184,6.372-8.316a80.078,80.078,0,0,1-17.6-3.78h7.452a81.686,81.686,0,0,1,10.26.324V-31.968a77.935,77.935,0,0,1-10.26.324h-5.508V-36.4h3.456a72.619,72.619,0,0,1,10.044.432v-12.2a74.126,74.126,0,0,1-10.044.324h-3.564v-4c7.884-.216,10.368-.54,12.312-1.728,2.376-1.4,3.348-3.672,3.888-9.288a61.34,61.34,0,0,1-13.5-2.916v1.3c-.324,1.836-.324,1.836-.648,2.16-.432.432-2.052.648-3.888.648-2.916,0-3.672-.432-3.672-1.836v-2.484h11.448c2.484,0,4.644.108,7.236.216a44.724,44.724,0,0,1-.216-6.264V-85.86a19.187,19.187,0,0,1,.216-3.672c-2.376.216-4,.216-9.612.216H643.9c-3.456,0-6.48-.108-9.288-.324v12.1a66.442,66.442,0,0,1,9.072-.324h9.18v3.132h-9.828a81.563,81.563,0,0,1-8.208-.216,53.306,53.306,0,0,1,.324,7.02v8.748c0,3.456,1.4,5.616,4.644,6.7v4.644H628.344v-5.184c3.348-1.62,4.1-3.132,4.86-9.612a51.9,51.9,0,0,1-12.528-3.132v.648a4.753,4.753,0,0,1-.648,2.808,8.818,8.818,0,0,1-3.78.54c-3.024,0-3.348-.216-3.348-1.836v-2.376h11.664c2.484,0,4.644.108,7.236.216a45.587,45.587,0,0,1-.216-6.264V-83.592l-.108-2.16a12.207,12.207,0,0,1,.324-3.78c-2.376.216-4,.216-9.612.216H606.96c-3.456,0-6.48-.108-9.288-.324v12.1a66.443,66.443,0,0,1,9.072-.324H617v3.132h-9.936a75.585,75.585,0,0,1-7.884-.216,133.848,133.848,0,0,0-17.172-16.524L569.916-79.7c8.748,7.452,12.636,11.664,18.684,19.764l10.584-10.584v11.448c0,3.456,1.08,5.4,3.672,6.48,1.62.648,3.888.864,10.044.864v3.888h-.972a75.1,75.1,0,0,1-10.152-.324v12.2a72.441,72.441,0,0,1,10.152-.432h.972v4.752h-5.508a43.451,43.451,0,0,1-7.452-.432v12.528a45.521,45.521,0,0,1,7.668-.432h8.316a86.394,86.394,0,0,1-15.228,4,60.974,60.974,0,0,1,8.424,8.748c-5.4-.756-8.208-2.484-11.556-7.344ZM625.752-19.98h17.172l-6.912,4.86c6.7,4.32,10.908,6.372,16.2,8.1-5.832.324-17.928.648-23.76.648-4.86,0-9.72-.108-13.176-.216A80.249,80.249,0,0,0,633.2-15.12ZM628.344-36.4h11.448v4.752H628.344Zm58.536-29.16a48.945,48.945,0,0,1,5.832-.756,97.384,97.384,0,0,0,14.04-1.836,94.961,94.961,0,0,0-6.48,7.236c-7.668,10.044-11.88,21.384-11.88,32.508,0,12.312,5.4,23.652,14.04,29.484C707.832,4.752,715.5,6.8,723.384,6.8c11.988,0,22.68-5.184,29.268-14.364,5.4-7.56,8.1-16.848,8.1-28.62a73.5,73.5,0,0,0-.648-10.044A77.843,77.843,0,0,0,773.712-28.3l1.512,1.512.972.972,9.072-17.928c-12.42-8.532-23.76-25.164-27.972-40.824l-18.252,5.076c3.24,7.56,5.076,18.792,5.076,30.24,0,10.8-1.188,18.252-4,25.056-3.132,7.452-9.72,12.1-17.172,12.1-9.5,0-15.444-6.588-15.444-17.064,0-9.5,4.32-19.332,12.852-29.16a53.948,53.948,0,0,1,13.716-11.772L724.9-86.616c-5.292,1.944-19.44,3.456-32.94,3.456a29.645,29.645,0,0,1-5.508-.324Zm72.9-23.328a81.353,81.353,0,0,1,7.128,17.5l8.532-2.7a75.617,75.617,0,0,0-7.236-17.28Zm28.4,10.476a63.336,63.336,0,0,0-7.02-16.308l-8.316,2.268a71.462,71.462,0,0,1,6.912,16.74Zm99.252,22.356a52.731,52.731,0,0,1-8.424.432h-17.28c.432-3.132.432-3.564.756-6.912h22.788a99.8,99.8,0,0,1,12.528.648V-78.408a96.537,96.537,0,0,1-12.744.648H863.784c.108-3.24.108-3.24.216-4.644a66,66,0,0,1,.648-8.64H846.936a45.413,45.413,0,0,1,.54,6.7c0,2.592,0,3.024-.216,6.588a104.823,104.823,0,0,1-12.744-.648v5.616c-1.08,0-2.376.108-3.564.108h-5.184v-7.344a72.963,72.963,0,0,1,.54-11.124H809.136a61.123,61.123,0,0,1,.648,11.124v7.344h-3.456a45.741,45.741,0,0,1-7.992-.54v15.876a70.075,70.075,0,0,1,7.776-.432h3.672v15.336c-7.344,1.512-9.18,1.836-12.528,1.944l2.592,16.632a23.46,23.46,0,0,1,2.592-.756c2.592-.648,2.592-.648,3.78-.972l3.564-.972V-9.5c0,2.7-.54,3.348-2.916,3.348A78.462,78.462,0,0,1,797.58-6.8a63.251,63.251,0,0,1,3.456,16.092c3.456.216,5.184.216,7.56.216,8.1,0,11.988-1.08,14.688-4,1.512-1.836,2.16-3.78,2.376-7.884a62.82,62.82,0,0,1,8.316,11.664A93.112,93.112,0,0,0,843.156-2.7a64.167,64.167,0,0,1,7.668,12.744c8.64-4.752,14.04-8.64,20.3-14.8a74.187,74.187,0,0,0,20.3,14.688A77.242,77.242,0,0,1,900.4-6.372c-8.64-3.564-13.284-6.264-18.9-11.016,4.1-6.264,7.128-13.392,10.908-25.164a43.906,43.906,0,0,1,2.052-5.616ZM825.768-30.888c3.564-1.08,5.4-1.728,11.34-3.564v-14.9c-5.184,1.512-6.7,1.944-11.34,3.132V-57.78h5.184a26.155,26.155,0,0,1,4,.216,3.04,3.04,0,0,1,.864.108V-62.1a93.561,93.561,0,0,1,10.584-.432c-2.484,23.544-9.288,41.364-20.628,54.432Zm29.268,3.672a84.766,84.766,0,0,0,6.048,10.26,66.679,66.679,0,0,1-15.768,10.8A114.011,114.011,0,0,0,855.036-27.216ZM876.2-41.148a65.545,65.545,0,0,1-5.508,12.2,55.246,55.246,0,0,1-6.48-12.2Zm37.044-6.264A134.381,134.381,0,0,1,930.1-50.436C925.776-33.372,916.7-11.88,909.792-2.7l17.82,9.4c.648-1.512.864-2.052,1.728-3.888,6.264-13.5,7.992-17.82,11.448-27.864a214.145,214.145,0,0,0,7.668-26.892,39.214,39.214,0,0,1,4.32-.216c3.78,0,5.292.432,6.48,1.836,1.4,1.512,2.052,4.1,2.052,8.748,0,8.208-1.3,19.224-2.916,23.976-1.188,3.456-2.592,4.86-4.86,4.86-3.132,0-8.64-1.512-14.8-3.888a49.89,49.89,0,0,1,1.62,12.852,48.181,48.181,0,0,1-.324,6.264C947.376,4.536,952.236,5.4,957.2,5.4a20.627,20.627,0,0,0,8.424-1.512,17.35,17.35,0,0,0,6.912-6.48c4.32-7.452,6.8-21.492,6.8-38.34,0-12.2-2.16-18.792-7.668-23.22-3.672-2.916-8.64-4.32-15.336-4.32-1.512,0-2.808.108-4.644.216.432-2.484,1.188-6.588,2.052-11.556,1.08-6.372,1.08-6.372,1.728-8.532L935.928-90.18v1.836c0,3.672-.756,10.044-2.484,21.384-7.02.864-17.388,1.728-20.844,1.728h-.972Zm62.64-22.032c9.936,11.772,16.632,27.432,20.2,47.2l17.712-8.424c-4.32-18.144-11.232-32.616-22.032-46.116ZM1031.076-6.8c1.3-2.16,3.024-4.32,10.692-13.5v11.34A109.909,109.909,0,0,1,1040.8,7.56l19.548-.108c-.54-4.212-.864-15.228-.864-30.564,0-3.132,0-6.264.108-11.34a102.071,102.071,0,0,1,18.684-16.632c3.888-2.808,7.668-4.428,10.26-4.428a2.814,2.814,0,0,1,3.132,3.024c0,1.728-.648,5.4-1.944,11.124-3.672,16.2-4.752,22.68-4.752,28.728,0,10.584,6.588,17.388,16.956,17.388s17.388-5.184,25.7-18.792c-4.752-7.02-6.588-10.584-9.072-17.388a64.308,64.308,0,0,1-6.48,11.556c-2.052,3.024-4.32,4.86-5.94,4.86s-2.592-1.188-2.592-3.132c0-2.7,1.3-9.5,4.644-23.112,2.16-9.072,2.808-12.636,2.808-16.308,0-10.152-6.912-16.848-17.388-16.848-9.5,0-20.628,6.048-34.128,18.576a15.968,15.968,0,0,0,.108-2.376l.108-1.512c2.7-3.456,4.86-5.94,6.8-7.344l-5.94-5.616a153.912,153.912,0,0,1,1.3-15.984L1042.74-89.1a46.746,46.746,0,0,1,.432,7.128c0,2.484-.108,5.184-.216,7.452a28.557,28.557,0,0,1-.108,3.456c-4.536.324-9.072.54-11.772.54-1.836,0-3.132-.108-5.616-.324l.864,17.064c4-.648,4-.648,16.092-1.4-.108,7.02-.216,10.152-.324,11.88-.54.648-4.536,4.536-11.772,11.88a82.342,82.342,0,0,1-7.56,6.588ZM1197.5-76.356a122.022,122.022,0,0,1-17.712,2.808c.972-5.508,1.62-8.64,1.728-9.288a34.148,34.148,0,0,1,1.4-6.264l-20.2-1.512v1.62c0,3.348-.432,7.56-1.836,16.2h-2.052a112.4,112.4,0,0,1-16.416-1.08l-.324,17.6a21.765,21.765,0,0,1,2.484-.108h1.08c4.644.216,6.912.324,10.368.324h1.728c-4,19.98-11.016,41.472-18.144,55.3l19.872,7.236c.756-2.592.756-2.592,2.484-7.776,4.644-13.932,5.292-16.308,7.992-25.812,3.024-11.232,4.968-19.224,6.8-29.376,3.348-.216,4.644-.324,9.828-.864l1.08,15.336a144.95,144.95,0,0,1,30.348-2.7,97.326,97.326,0,0,1,14.148.756l-.324-18.252c-2.268-.108-4.536-.108-5.292-.108-13.608,0-18.36.324-28.62,1.62ZM1186.056-36.18c-5.94,8.64-8.424,14.688-8.424,20.952q0,20.412,31.752,20.412c6.588,0,10.908-.324,21.06-1.728,2.592-.324,3.564-.432,5.724-.648l-1.3-18.9c-6.588,2.484-17.064,4.212-25.488,4.212-9.072,0-13.5-2.376-13.5-7.344,0-3.348,1.728-6.912,5.832-11.772Z" transform="translate(324 2391)"></path><path id="&#x30D1;&#x30B9;_33849" data-name="&#x30D1;&#x30B9; 33849" d="M73.98-61.02c6.048,8.424,12.42,25.6,14.688,39.312l17.712-8.424c-3.564-14.8-9.612-28.836-16.524-38.34ZM5.832-46.656c3.132-.972,10.044-2.16,16.848-3.132C18.252-32.4,9.18-11.016,2.376-1.944l17.82,9.4c.648-1.62.864-1.944,1.728-4A256.077,256.077,0,0,0,41.04-51.192a39.214,39.214,0,0,1,4.32-.216c3.78,0,5.292.432,6.48,1.836,1.4,1.512,2.052,4.1,2.052,8.64,0,8.316-1.3,19.224-2.916,23.976-1.188,3.456-2.592,4.86-4.86,4.86-3.132,0-8.64-1.4-14.8-3.888a51.272,51.272,0,0,1,1.62,12.96,49.031,49.031,0,0,1-.324,6.264c7.344,2.052,12.2,2.808,17.172,2.808a20.627,20.627,0,0,0,8.424-1.512,17.863,17.863,0,0,0,6.912-6.372c4.32-7.56,6.8-21.492,6.8-38.34,0-12.2-2.16-18.792-7.668-23.22-3.672-2.916-8.64-4.32-15.336-4.32a35.829,35.829,0,0,0-4.644.216c.324-1.728,1.08-6.156,2.052-11.664l.756-3.888c.108-.648.216-1.62.324-1.944a11.174,11.174,0,0,1,.648-2.592L28.512-89.424v1.836c0,3.672-.756,10.044-2.484,21.276C18.9-65.34,8.64-64.476,5.184-64.476a3.72,3.72,0,0,1-.972-.108Zm74.3-42.552A73.7,73.7,0,0,1,90.72-73.764l9.936-4.86a75.924,75.924,0,0,0-10.8-15.012Zm-14.9,6.7A69.524,69.524,0,0,1,75.924-66.744l10.26-4.968A69.194,69.194,0,0,0,75.492-87.156ZM190.512-40.5h12.96c5.724,0,8.964.108,12.744.432V-56.592a57.716,57.716,0,0,1-9.5.54,212.086,212.086,0,0,0,12.2-25.272l-16.524-7.02a116.817,116.817,0,0,1-10.908,25.272l14.58,7.02H190.512v-22.14A89.911,89.911,0,0,1,191.16-91.8H172.476a86.254,86.254,0,0,1,.756,13.608v22.14H157.9a47.789,47.789,0,0,1-9.072-.54v16.524c3.564-.324,6.7-.432,12.312-.432h12.1v8.856h-13.5a98.124,98.124,0,0,1-13.392-.54v16.74c3.348-.324,7.128-.432,13.5-.432h13.392V-3.888a90.311,90.311,0,0,1-.756,13.824H191.16a94.877,94.877,0,0,1-.648-13.824V-15.876h15.444c5.832,0,8.856.108,12.636.432v-16.74a102,102,0,0,1-13.5.54h-14.58ZM171.72-62.856a179.772,179.772,0,0,0-10.908-25.056L150.12-83.16c.756-2.376.864-2.592,1.836-5.616l-17.5-3.888a65.456,65.456,0,0,1-3.78,14.472c-3.888,10.692-8.532,18.684-14.9,25.6a109.064,109.064,0,0,1,5.508,19.764c3.24-3.564,4.212-4.644,5.724-7.344-.108,4.428-.108,9.18-.108,11.124v26.46a115.055,115.055,0,0,1-.648,12.42h17.6a116.887,116.887,0,0,1-.54-12.42V-65.34c2.052-4.536,3.024-6.7,4.752-11.34,3.132,5.94,5.184,11.448,7.884,20.3Zm100.872,49.68c-5.94-3.348-9.72-7.128-12.528-12.42.648-2.916.648-3.024,2.484-12.528l-16.74-2.484a65.016,65.016,0,0,1-4.428,19.98,56.305,56.305,0,0,1-12.42,18.9,50.933,50.933,0,0,1,12.852,12.2C247.968,3.24,251.1-1.62,254.448-9.18,261.36.108,272.268,5.94,285.012,7.236c6.588.648,16.092,1.08,25.272,1.08,4.32,0,10.368-.108,17.28-.324a65.465,65.465,0,0,1,4.1-17.064c-9.288.864-16.848,1.188-25.488,1.188-6.7,0-12.636-.216-17.28-.648V-20.2h19.548a114.372,114.372,0,0,1,11.88.54V-35.748a69.914,69.914,0,0,1-11.88.648H288.9v-9.288h27.108a120.745,120.745,0,0,1,13.392.648V-59.724a107.889,107.889,0,0,1-13.392.648H288.684v-7.776h19.98a106.21,106.21,0,0,1,12.96.648V-82.188a84.7,84.7,0,0,1-12.96.648h-19.98a44.626,44.626,0,0,1,.756-10.044H271.3c.54,2.7.648,4.644.648,10.044H252.828a109.412,109.412,0,0,1-13.068-.648V-66.2a106.917,106.917,0,0,1,13.068-.648h19.116v7.776H245.376a113.38,113.38,0,0,1-13.284-.648V-43.74a117.327,117.327,0,0,1,13.284-.648h27.216Z" transform="translate(984 2536)"></path><path id="&#x30D1;&#x30B9;_33848" data-name="&#x30D1;&#x30B9; 33848" d="M93.2,3.348C91.8.324,90.072-4.1,88.02-9.828L64.584-74.844a86.182,86.182,0,0,1-3.672-11.664H32.724a65.926,65.926,0,0,1-3.456,11.664L5.94-9.828C3.348-2.484,2.376.108.756,3.348H26.028a62.239,62.239,0,0,1,2.7-11.664l2.916-9.18h30.78l2.916,9.18A87.708,87.708,0,0,1,67.932,3.348ZM57.132-35.64h-20.3l10.044-32.4Zm48.924-50.868a100.867,100.867,0,0,1,.864,15.984v57.888a103.507,103.507,0,0,1-.864,15.984h23.76a104.4,104.4,0,0,1-.864-15.984V-70.524a100,100,0,0,1,.864-15.984Zm106.812-2.16c-1.62,8.532-7.776,23.112-14.04,33.156-10.8-7.884-15.66-11.232-25.488-16.956L160.056-59.4c8.748,4.968,14.688,9.072,28.08,19.224A108.864,108.864,0,0,1,176.58-28.188C168.048-20.52,160.7-15.768,147.312-9.4c6.7,5.832,9.936,9.828,13.608,16.308,18.36-10.152,31.536-21.06,41.8-34.344a166.179,166.179,0,0,1,20.412,22.14l14.688-15.336c-10.8-11.448-14.148-14.688-23.544-22.68A190.072,190.072,0,0,0,228.636-71.82a82.383,82.383,0,0,1,4.536-10.044Zm52.272,20.3a115.343,115.343,0,0,1,29.376,22.788L307.26-62.424c-9.072-8.208-16.092-13.176-29.7-21.168Zm6.7,72.576c2.916-.864,3.564-.972,7.776-1.944,20.088-4.644,30.348-8.64,42.012-16.2,15.12-9.72,25.38-22.464,35.208-43.74-8.1-5.94-10.584-8.1-15.876-14.472a99.431,99.431,0,0,1-10.584,21.168c-8.316,12.96-18.036,21.06-31.644,26.676a108.371,108.371,0,0,1-32.508,7.776Zm135-96.012a69.274,69.274,0,0,1-6.264,15.12c-6.372,11.988-14.148,20.952-26.892,31a52.713,52.713,0,0,1,15.552,12.2c10.908-9.612,18.36-18.468,24.624-29.268l29.916-.216A76.318,76.318,0,0,1,434.484-43.2c-6.8-4.968-10.26-7.128-19.872-12.312L403.272-41.9A116.107,116.107,0,0,1,423.36-28.512c-9.72,9.936-20.2,16.308-36.612,22.14a60.34,60.34,0,0,1,12.636,16.2A125.721,125.721,0,0,0,417.96-.108,103.489,103.489,0,0,0,444.2-24.516C452.2-35.316,457.92-46.98,464.292-66.2c.864-2.592,1.188-3.24,2.484-4.644l-9.612-9.5c-2.052,1.08-3.456,1.4-6.588,1.4l-29.052.324c3.024-6.156,4.536-9.18,4.644-9.4ZM488.16-30.78c6.588-.54,10.152-.648,22.248-.648h51.408c12.312,0,17.064.108,22.248.648V-51.624a177.2,177.2,0,0,1-22.14.972H510.3c-11.232,0-17.064-.216-22.14-.972Z" transform="translate(347 2536)" fill="#fff"></path></g></svg>