<svg xmlns="http://www.w3.org/2000/svg" width="1474.568" height="898.345" viewBox="0 0 1474.568 898.345"><g id="&#x30B0;&#x30EB;&#x30FC;&#x30D7;_19536" data-name="&#x30B0;&#x30EB;&#x30FC;&#x30D7; 19536" transform="translate(20323.282 157.785)"><g id="&#x30B0;&#x30EB;&#x30FC;&#x30D7;_19503" data-name="&#x30B0;&#x30EB;&#x30FC;&#x30D7; 19503" transform="translate(-20044.959 -157.785)"><g id="&#x30B0;&#x30EB;&#x30FC;&#x30D7;_19483" data-name="&#x30B0;&#x30EB;&#x30FC;&#x30D7; 19483" transform="translate(0.001 0)"><g id="&#x30B0;&#x30EB;&#x30FC;&#x30D7;_18877" data-name="&#x30B0;&#x30EB;&#x30FC;&#x30D7; 18877" transform="translate(325.226)"><g id="&#x30B0;&#x30EB;&#x30FC;&#x30D7;_18876" data-name="&#x30B0;&#x30EB;&#x30FC;&#x30D7; 18876" transform="translate(0 27.264)"><path id="&#x30D1;&#x30B9;_33152" data-name="&#x30D1;&#x30B9; 33152" d="M446.9,633.764l8.286,16.79,18.529,2.692-13.408,13.069,3.165,18.454L446.9,676.057l-16.573,8.713,3.165-18.454-13.408-13.069,18.529-2.692Z" transform="translate(-193.209 -633.764)" fill="#f5c04b"></path><path id="&#x30D1;&#x30B9;_33153" data-name="&#x30D1;&#x30B9; 33153" d="M299.85,635.88l8.286,16.79,18.529,2.692-13.408,13.069,3.165,18.454-16.573-8.713-16.573,8.713,3.165-18.454-13.408-13.069,18.529-2.692Z" transform="translate(-273.035 -632.615)" fill="#f5c04b"></path></g><path id="&#x30D1;&#x30B9;_33154" data-name="&#x30D1;&#x30B9; 33154" d="M427.128,652.407l-15.547,32.662H356.356l-15.523-32.761a9.865,9.865,0,1,1,6.775-5.031l13.384,11.135L364,635.4a9.72,9.72,0,1,1,8.245-2.487l11.513,25.5,9.814-24.814a9.689,9.689,0,1,1,9.95.984l2.158,23.829,12.327-10.747a9.68,9.68,0,1,1,9.12,4.743Z" transform="translate(-242.451 -616.093)" fill="#f5c04b"></path></g><g id="&#x30B0;&#x30EB;&#x30FC;&#x30D7;_18912" data-name="&#x30B0;&#x30EB;&#x30FC;&#x30D7; 18912" transform="translate(0 83.854)"><g id="&#x30B0;&#x30EB;&#x30FC;&#x30D7;_18894" data-name="&#x30B0;&#x30EB;&#x30FC;&#x30D7; 18894"><g id="&#x30B0;&#x30EB;&#x30FC;&#x30D7;_18885" data-name="&#x30B0;&#x30EB;&#x30FC;&#x30D7; 18885" transform="translate(0 20.395)"><g id="&#x30B0;&#x30EB;&#x30FC;&#x30D7;_18878" data-name="&#x30B0;&#x30EB;&#x30FC;&#x30D7; 18878" transform="translate(37.053)"><path id="&#x30D1;&#x30B9;_33155" data-name="&#x30D1;&#x30B9; 33155" d="M189.011,683.662a45.5,45.5,0,0,1,8.7,6.543,42.309,42.309,0,0,1,6.511,7.77,32.263,32.263,0,0,1,4.332,10.277,30.444,30.444,0,0,1,.369,10.823,46.582,46.582,0,0,1-2.125,9.135,43.52,43.52,0,0,1-2.83,6.372c-.413.768-.744,1.381-.97,1.805l-.369.643a38.855,38.855,0,0,1-9.6-3.615,29.977,29.977,0,0,1-7.636-5.7,21.461,21.461,0,0,1-5.187-9.5,26.068,26.068,0,0,1-.1-11.36A72.493,72.493,0,0,1,183.921,696c1.48-3.72,2.842-6.77,3.738-8.93S189.011,683.662,189.011,683.662Z" transform="translate(-179.536 -683.662)" fill="#f5c04b"></path></g><g id="&#x30B0;&#x30EB;&#x30FC;&#x30D7;_18879" data-name="&#x30B0;&#x30EB;&#x30FC;&#x30D7; 18879" transform="translate(17.446 51.284)"><path id="&#x30D1;&#x30B9;_33156" data-name="&#x30D1;&#x30B9; 33156" d="M171.154,716.9a46.893,46.893,0,0,1,9.982,4.821c5.258,3.345,11.374,8.588,14.47,15.876a30.208,30.208,0,0,1,2.327,10.694,41.668,41.668,0,0,1-.412,9.519,40.661,40.661,0,0,1-2.692,9.536,40.082,40.082,0,0,1-10.3-1.973c-5.59-1.856-12.074-5.46-15.5-12.892a26.162,26.162,0,0,1-2.2-11.2,62.16,62.16,0,0,1,1.759-11.346c.862-3.9,1.45-7.173,1.841-9.464C170.924,718.206,171.154,716.9,171.154,716.9Z" transform="translate(-166.828 -716.902)" fill="#f5c04b"></path></g><g id="&#x30B0;&#x30EB;&#x30FC;&#x30D7;_18880" data-name="&#x30B0;&#x30EB;&#x30FC;&#x30D7; 18880" transform="translate(5.993 106.034)"><path id="&#x30D1;&#x30B9;_33157" data-name="&#x30D1;&#x30B9; 33157" d="M160.038,752.388a48.7,48.7,0,0,1,10.872,3.163c5.98,2.478,12.779,6.681,17.042,13.46a34.033,34.033,0,0,1,5.11,19.957,55.083,55.083,0,0,1-.538,7.205c-.268,1.786-.548,2.85-.548,2.85a40.684,40.684,0,0,1-10.684-.363c-5.938-.994-13.08-3.62-17.8-10.684-4.366-6.713-4.24-14.659-3.984-22.3l.082-2.864c.062-.91.12-1.773.174-2.581.079-1.623.145-3.033.2-4.192C160.047,753.713,160.038,752.388,160.038,752.388Z" transform="translate(-159.405 -752.388)" fill="#f5c04b"></path></g><g id="&#x30B0;&#x30EB;&#x30FC;&#x30D7;_18881" data-name="&#x30B0;&#x30EB;&#x30FC;&#x30D7; 18881" transform="translate(0 163.472)"><path id="&#x30D1;&#x30B9;_33158" data-name="&#x30D1;&#x30B9; 33158" d="M155.52,789.619a48.87,48.87,0,0,1,11.465,1.4c6.333,1.524,14.1,4.667,19.554,10.808a36.687,36.687,0,0,1,6.07,9.731,37.289,37.289,0,0,1,1.66,4.9,44.11,44.11,0,0,1,1.131,4.605,56.431,56.431,0,0,1,.824,7.333c.122,1.839.074,2.958.074,2.958a41.293,41.293,0,0,1-10.757,1.8c-6.1.2-13.983-.977-19.923-7.2-5.889-6.034-7.358-14.422-8.284-22.445-.438-4.2-.933-7.676-1.3-10.1C155.741,790.991,155.52,789.619,155.52,789.619Z" transform="translate(-155.52 -789.616)" fill="#f5c04b"></path></g><g id="&#x30B0;&#x30EB;&#x30FC;&#x30D7;_18882" data-name="&#x30B0;&#x30EB;&#x30FC;&#x30D7; 18882" transform="translate(4.443 222.998)"><path id="&#x30D1;&#x30B9;_33159" data-name="&#x30D1;&#x30B9; 33159" d="M158.4,829.181a49.573,49.573,0,0,1,11.758-.954,45.983,45.983,0,0,1,10.845,1.6,33.008,33.008,0,0,1,10.933,5.175,37.088,37.088,0,0,1,8.108,8.441,50.331,50.331,0,0,1,4.811,8.891,67.5,67.5,0,0,1,2.432,7.117c.486,1.816.662,2.947.662,2.947a42.324,42.324,0,0,1-10.345,4.112c-6.063,1.52-14.028,2-21.433-2.914a27.181,27.181,0,0,1-8.223-9.228,64.143,64.143,0,0,1-4.818-11.553C160.37,834.559,158.4,829.181,158.4,829.181Z" transform="translate(-158.4 -828.198)" fill="#f5c04b"></path></g><g id="&#x30B0;&#x30EB;&#x30FC;&#x30D7;_18883" data-name="&#x30B0;&#x30EB;&#x30FC;&#x30D7; 18883" transform="translate(21.813 279.435)"><path id="&#x30D1;&#x30B9;_33160" data-name="&#x30D1;&#x30B9; 33160" d="M169.658,869.112a50.693,50.693,0,0,1,11.53-3.5c6.781-1.256,15.324-1.456,23.186,2.023a41.352,41.352,0,0,1,16.618,14.447,52.775,52.775,0,0,1,5.287,9.33,43.235,43.235,0,0,1-9.416,6.351c-5.7,2.831-13.614,5.093-21.99,1.766a27.31,27.31,0,0,1-10.221-7.386,66.179,66.179,0,0,1-7.3-10.462c-2.263-3.82-4.209-6.947-5.527-9.155C170.476,870.333,169.658,869.112,169.658,869.112Z" transform="translate(-169.658 -864.777)" fill="#f5c04b"></path></g><g id="&#x30B0;&#x30EB;&#x30FC;&#x30D7;_18884" data-name="&#x30B0;&#x30EB;&#x30FC;&#x30D7; 18884" transform="translate(52.159 329.864)"><path id="&#x30D1;&#x30B9;_33161" data-name="&#x30D1;&#x30B9; 33161" d="M189.327,907.18a51.555,51.555,0,0,1,10.718-6.006c6.438-2.7,15-4.834,23.562-3.059s15.134,6.437,19.872,10.644a70.731,70.731,0,0,1,5.587,5.574c1.319,1.477,2.108,2.461,2.108,2.461s-.674,1.1-1.864,2.831a30.09,30.09,0,0,1-5.51,6.114c-5,4.227-12.587,8.2-22.024,6.623-9.174-1.543-15.987-7.873-21.961-14.262C193.548,911.416,189.327,907.18,189.327,907.18Z" transform="translate(-189.327 -897.463)" fill="#f5c04b"></path></g></g><g id="&#x30B0;&#x30EB;&#x30FC;&#x30D7;_18893" data-name="&#x30B0;&#x30EB;&#x30FC;&#x30D7; 18893" transform="translate(51.217 57.457)"><g id="&#x30B0;&#x30EB;&#x30FC;&#x30D7;_18886" data-name="&#x30B0;&#x30EB;&#x30FC;&#x30D7; 18886" transform="translate(22.146)"><path id="&#x30D1;&#x30B9;_33162" data-name="&#x30D1;&#x30B9; 33162" d="M250.48,715.368a57.112,57.112,0,0,0-9.7-4.869,41.73,41.73,0,0,0-9.612-2.556,23.328,23.328,0,0,0-10.542.782,24.788,24.788,0,0,0-8.716,5.141,27.874,27.874,0,0,0-5.385,6.982,39.534,39.534,0,0,0-2.771,6,13.456,13.456,0,0,0-.542,1.87l-.147.7a42.4,42.4,0,0,0,9.4,4.146,36.977,36.977,0,0,0,9.191,1.649,26.141,26.141,0,0,0,10.095-1.339,18.594,18.594,0,0,0,7.481-4.931,39.188,39.188,0,0,0,5.235-6.441,39.278,39.278,0,0,1,4.246-5.3C249.817,716.008,250.48,715.368,250.48,715.368Z" transform="translate(-203.07 -707.684)" fill="#f5c04b"></path></g><g id="&#x30B0;&#x30EB;&#x30FC;&#x30D7;_18887" data-name="&#x30B0;&#x30EB;&#x30FC;&#x30D7; 18887" transform="translate(7.46 40.464)"><path id="&#x30D1;&#x30B9;_33163" data-name="&#x30D1;&#x30B9; 33163" d="M238.8,737.6a57.523,57.523,0,0,0-10.7-2.967c-6.238-1.122-13.992-1.345-20.508,2.276a26,26,0,0,0-7.89,6.829A31.532,31.532,0,0,0,195.6,751.8a37.155,37.155,0,0,0-2.049,9.257,42.752,42.752,0,0,0,10.155,2.535c5.869.751,13.33.478,19.553-3.175a19.328,19.328,0,0,0,6.67-6.5,50.424,50.424,0,0,0,4.155-7.668c1.244-2.717,2.374-4.9,3.208-6.4C238.223,738.4,238.8,737.6,238.8,737.6Z" transform="translate(-193.551 -733.91)" fill="#f5c04b"></path></g><g id="&#x30B0;&#x30EB;&#x30FC;&#x30D7;_18888" data-name="&#x30B0;&#x30EB;&#x30FC;&#x30D7; 18888" transform="translate(0 83.973)"><path id="&#x30D1;&#x30B9;_33164" data-name="&#x30D1;&#x30B9; 33164" d="M230.827,763.281a57.435,57.435,0,0,0-11.249-1.169c-6.352-.032-14.432,1.015-20.466,5.761-5.878,4.772-8.575,11.548-9.785,17.024a34.707,34.707,0,0,0-.611,6.89,26.993,26.993,0,0,0,.131,2.768,43.8,43.8,0,0,0,10.641.952c6.025-.167,13.468-1.609,19.051-6.179,5.633-4.516,7.381-10.522,8.791-16.343q.292-1.136.557-2.169l.67-1.9c.43-1.183.827-2.2,1.163-3.039C230.393,764.208,230.827,763.281,230.827,763.281Z" transform="translate(-188.716 -762.111)" fill="#f5c04b"></path></g><g id="&#x30B0;&#x30EB;&#x30FC;&#x30D7;_18889" data-name="&#x30B0;&#x30EB;&#x30FC;&#x30D7; 18889" transform="translate(0.073 128.226)"><path id="&#x30D1;&#x30B9;_33165" data-name="&#x30D1;&#x30B9; 33165" d="M226.43,790.843a59.842,59.842,0,0,0-11.527.666c-6.5,1-14.233,3.351-19.491,9.114a23.786,23.786,0,0,0-5.3,9.39A33.327,33.327,0,0,0,189,814.835a36.355,36.355,0,0,0-.234,4.5,35.224,35.224,0,0,0,.69,7.017,27.934,27.934,0,0,0,.733,2.736,45.009,45.009,0,0,0,10.842-1.2c6.028-1.385,12.983-4.291,17.866-9.924,4.6-5.426,5.184-11.388,5.747-17.2.346-3.032.748-5.513,1.083-7.233C226.138,791.808,226.43,790.843,226.43,790.843Z" transform="translate(-188.764 -790.793)" fill="#f5c04b"></path></g><g id="&#x30B0;&#x30EB;&#x30FC;&#x30D7;_18890" data-name="&#x30B0;&#x30EB;&#x30FC;&#x30D7; 18890" transform="translate(9.082 170.616)"><path id="&#x30D1;&#x30B9;_33166" data-name="&#x30D1;&#x30B9; 33166" d="M227.025,818.268a61.51,61.51,0,0,0-11.375,3.03A45.2,45.2,0,0,0,206,826.161a26.345,26.345,0,0,0-7.946,8.253c-4.064,6.847-3.922,14.432-2.672,20.09a32.837,32.837,0,0,0,2.234,6.847,28.281,28.281,0,0,0,1.276,2.59,45.746,45.746,0,0,0,10.548-3.532c5.7-2.674,12.153-7.129,15.688-13.727a21.142,21.142,0,0,0,2.606-9.33,54.43,54.43,0,0,0-.46-8.935A52.691,52.691,0,0,1,227.025,818.268Z" transform="translate(-194.602 -818.268)" fill="#f5c04b"></path></g><g id="&#x30B0;&#x30EB;&#x30FC;&#x30D7;_18891" data-name="&#x30B0;&#x30EB;&#x30FC;&#x30D7; 18891" transform="translate(27.535 211.72)"><path id="&#x30D1;&#x30B9;_33167" data-name="&#x30D1;&#x30B9; 33167" d="M233.176,844.91a62.623,62.623,0,0,0-10.677,5.482c-5.664,3.635-12.218,9.219-14.691,16.9-2.573,7.727-.741,15.253,1.708,20.649a34.677,34.677,0,0,0,5.587,8.649,46.59,46.59,0,0,0,9.749-5.821c5.1-3.913,10.493-9.712,12.65-17.109a21.918,21.918,0,0,0,.538-9.868,54.636,54.636,0,0,0-2.4-8.823,56.483,56.483,0,0,1-1.961-7.272C233.321,845.927,233.176,844.91,233.176,844.91Z" transform="translate(-206.563 -844.91)" fill="#f5c04b"></path></g><g id="&#x30B0;&#x30EB;&#x30FC;&#x30D7;_18892" data-name="&#x30B0;&#x30EB;&#x30FC;&#x30D7; 18892" transform="translate(55.205 249.945)"><path id="&#x30D1;&#x30B9;_33168" data-name="&#x30D1;&#x30B9; 33168" d="M245.011,869.685a64.174,64.174,0,0,0-9.45,7.8c-4.9,4.894-10.118,11.821-10.94,20.051s2.637,15.351,6.35,20.085a34.139,34.139,0,0,0,5.193,5.329,19.341,19.341,0,0,0,2.361,1.7,23.134,23.134,0,0,0,2.455-2.3c1.452-1.5,3.313-3.717,5.4-6.215,4.084-5.091,8.254-11.9,8.895-19.411.633-7.245-2.566-12.457-5.659-17.646A55.352,55.352,0,0,1,245.011,869.685Z" transform="translate(-224.497 -869.685)" fill="#f5c04b"></path></g></g><path id="&#x30D1;&#x30B9;_33169" data-name="&#x30D1;&#x30B9; 33169" d="M245.094,670.443s-.413,1.592-.975,4.073l-.929,4.382c-.324,1.628-.68,3.421-1.055,5.312-.569,2.688-.927,5.712-1.737,8.438a18.337,18.337,0,0,1-3.836,7.744,24.808,24.808,0,0,1-7.822,6.275,35.235,35.235,0,0,1-8.276,3.377,62.663,62.663,0,0,1-6.719,1.39c-1.691.247-2.742.29-2.742.29a28.731,28.731,0,0,1-1.119-2.893,32.822,32.822,0,0,1-1.569-7.389,32.017,32.017,0,0,1,.478-10.038,25.209,25.209,0,0,1,5.118-10.314,23.121,23.121,0,0,1,9.145-6.435,38.957,38.957,0,0,1,5.079-1.609c1.75-.395,3.5-.687,5.2-.946C240.512,671.028,245.094,670.443,245.094,670.443Z" transform="translate(-126.961 -670.443)" fill="#f5c04b"></path></g><g id="&#x30B0;&#x30EB;&#x30FC;&#x30D7;_18911" data-name="&#x30B0;&#x30EB;&#x30FC;&#x30D7; 18911" transform="translate(793.682 0.298)"><g id="&#x30B0;&#x30EB;&#x30FC;&#x30D7;_18902" data-name="&#x30B0;&#x30EB;&#x30FC;&#x30D7; 18902" transform="translate(0 57.159)"><g id="&#x30B0;&#x30EB;&#x30FC;&#x30D7;_18895" data-name="&#x30B0;&#x30EB;&#x30FC;&#x30D7; 18895" transform="translate(16.501)"><path id="&#x30D1;&#x30B9;_33170" data-name="&#x30D1;&#x30B9; 33170" d="M494.079,715.368a57.093,57.093,0,0,1,9.7-4.869,41.7,41.7,0,0,1,9.61-2.556,23.335,23.335,0,0,1,10.544.782,24.78,24.78,0,0,1,8.714,5.141,27.875,27.875,0,0,1,5.385,6.982,39.231,39.231,0,0,1,2.771,6,13.723,13.723,0,0,1,.543,1.87l.147.7a42.435,42.435,0,0,1-9.4,4.146,36.977,36.977,0,0,1-9.191,1.649,26.133,26.133,0,0,1-10.093-1.339,18.594,18.594,0,0,1-7.481-4.931,39.027,39.027,0,0,1-5.235-6.441,39.391,39.391,0,0,0-4.247-5.3C494.742,716.008,494.079,715.368,494.079,715.368Z" transform="translate(-494.079 -707.684)" fill="#f5c04b"></path></g><g id="&#x30B0;&#x30EB;&#x30FC;&#x30D7;_18896" data-name="&#x30B0;&#x30EB;&#x30FC;&#x30D7; 18896" transform="translate(33.352 40.464)"><path id="&#x30D1;&#x30B9;_33171" data-name="&#x30D1;&#x30B9; 33171" d="M505,737.6a57.479,57.479,0,0,1,10.694-2.967c6.238-1.122,13.992-1.345,20.509,2.276a26,26,0,0,1,7.889,6.829A31.532,31.532,0,0,1,548.2,751.8a37.155,37.155,0,0,1,2.049,9.257,42.725,42.725,0,0,1-10.154,2.535c-5.869.751-13.33.478-19.554-3.175a19.328,19.328,0,0,1-6.67-6.5,50.419,50.419,0,0,1-4.155-7.668c-1.244-2.717-2.373-4.9-3.208-6.4C505.576,738.4,505,737.6,505,737.6Z" transform="translate(-505.001 -733.91)" fill="#f5c04b"></path></g><g id="&#x30B0;&#x30EB;&#x30FC;&#x30D7;_18897" data-name="&#x30B0;&#x30EB;&#x30FC;&#x30D7; 18897" transform="translate(43.947 83.973)"><path id="&#x30D1;&#x30B9;_33172" data-name="&#x30D1;&#x30B9; 33172" d="M511.868,763.281a57.435,57.435,0,0,1,11.249-1.169c6.352-.032,14.432,1.015,20.466,5.761,5.88,4.772,8.575,11.548,9.786,17.024a34.711,34.711,0,0,1,.609,6.89,27.011,27.011,0,0,1-.131,2.768,43.8,43.8,0,0,1-10.641.952c-6.023-.167-13.468-1.609-19.051-6.179-5.631-4.516-7.381-10.522-8.791-16.343q-.292-1.136-.555-2.169-.357-1-.671-1.9c-.43-1.183-.827-2.2-1.162-3.039C512.3,764.208,511.868,763.281,511.868,763.281Z" transform="translate(-511.868 -762.111)" fill="#f5c04b"></path></g><g id="&#x30B0;&#x30EB;&#x30FC;&#x30D7;_18898" data-name="&#x30B0;&#x30EB;&#x30FC;&#x30D7; 18898" transform="translate(48.318 128.226)"><path id="&#x30D1;&#x30B9;_33173" data-name="&#x30D1;&#x30B9; 33173" d="M514.7,790.843a59.859,59.859,0,0,1,11.528.666c6.5,1,14.231,3.351,19.491,9.114a23.8,23.8,0,0,1,5.3,9.39,33.1,33.1,0,0,1,1.111,4.823,36.358,36.358,0,0,1,.236,4.5,35.345,35.345,0,0,1-.69,7.017,28.176,28.176,0,0,1-.734,2.736,45.011,45.011,0,0,1-10.842-1.2c-6.028-1.385-12.983-4.291-17.866-9.924-4.6-5.426-5.183-11.388-5.747-17.2-.346-3.032-.748-5.513-1.082-7.233C514.993,791.808,514.7,790.843,514.7,790.843Z" transform="translate(-514.701 -790.793)" fill="#f5c04b"></path></g><g id="&#x30B0;&#x30EB;&#x30FC;&#x30D7;_18899" data-name="&#x30B0;&#x30EB;&#x30FC;&#x30D7; 18899" transform="translate(43.773 170.616)"><path id="&#x30D1;&#x30B9;_33174" data-name="&#x30D1;&#x30B9; 33174" d="M512.537,818.268a61.543,61.543,0,0,1,11.375,3.03,45.23,45.23,0,0,1,9.652,4.863,26.344,26.344,0,0,1,7.946,8.253c4.066,6.847,3.922,14.432,2.674,20.09a32.825,32.825,0,0,1-2.236,6.847,28.277,28.277,0,0,1-1.276,2.59,45.745,45.745,0,0,1-10.548-3.532c-5.695-2.674-12.153-7.129-15.688-13.727a21.166,21.166,0,0,1-2.606-9.33,54.609,54.609,0,0,1,.46-8.935A52.631,52.631,0,0,0,512.537,818.268Z" transform="translate(-511.756 -818.268)" fill="#f5c04b"></path></g><g id="&#x30B0;&#x30EB;&#x30FC;&#x30D7;_18900" data-name="&#x30B0;&#x30EB;&#x30FC;&#x30D7; 18900" transform="translate(26.715 211.72)"><path id="&#x30D1;&#x30B9;_33175" data-name="&#x30D1;&#x30B9; 33175" d="M505.9,844.91a62.647,62.647,0,0,1,10.675,5.482c5.664,3.635,12.219,9.219,14.691,16.9,2.573,7.727.741,15.253-1.706,20.649a34.707,34.707,0,0,1-5.588,8.649,46.588,46.588,0,0,1-9.749-5.821c-5.1-3.913-10.493-9.712-12.65-17.109a21.939,21.939,0,0,1-.538-9.868,54.8,54.8,0,0,1,2.4-8.823,56.49,56.49,0,0,0,1.961-7.272C505.749,845.927,505.9,844.91,505.9,844.91Z" transform="translate(-500.699 -844.91)" fill="#f5c04b"></path></g><g id="&#x30B0;&#x30EB;&#x30FC;&#x30D7;_18901" data-name="&#x30B0;&#x30EB;&#x30FC;&#x30D7; 18901" transform="translate(0 249.945)"><path id="&#x30D1;&#x30B9;_33176" data-name="&#x30D1;&#x30B9; 33176" d="M493.723,869.685a64.173,64.173,0,0,1,9.45,7.8c4.9,4.894,10.12,11.821,10.941,20.051s-2.637,15.351-6.35,20.085a34.14,34.14,0,0,1-5.193,5.329,19.2,19.2,0,0,1-2.361,1.7,23.121,23.121,0,0,1-2.455-2.3c-1.452-1.5-3.312-3.717-5.394-6.215-4.084-5.091-8.256-11.9-8.9-19.411-.631-7.245,2.566-12.457,5.661-17.646A55.4,55.4,0,0,0,493.723,869.685Z" transform="translate(-483.384 -869.685)" fill="#f5c04b"></path></g></g><g id="&#x30B0;&#x30EB;&#x30FC;&#x30D7;_18910" data-name="&#x30B0;&#x30EB;&#x30FC;&#x30D7; 18910" transform="translate(23.269 20.097)"><g id="&#x30B0;&#x30EB;&#x30FC;&#x30D7;_18903" data-name="&#x30B0;&#x30EB;&#x30FC;&#x30D7; 18903" transform="translate(47.246)"><path id="&#x30D1;&#x30B9;_33177" data-name="&#x30D1;&#x30B9; 33177" d="M549.319,683.662a45.5,45.5,0,0,0-8.7,6.543,42.374,42.374,0,0,0-6.511,7.77,32.3,32.3,0,0,0-4.332,10.277,30.517,30.517,0,0,0-.369,10.823,46.8,46.8,0,0,0,2.124,9.135,43.507,43.507,0,0,0,2.831,6.372c.412.768.742,1.381.969,1.805l.369.643a38.83,38.83,0,0,0,9.6-3.615,29.976,29.976,0,0,0,7.636-5.7,21.46,21.46,0,0,0,5.187-9.5,26.024,26.024,0,0,0,.1-11.36A72.312,72.312,0,0,0,554.409,696c-1.478-3.72-2.842-6.77-3.737-8.93S549.319,683.662,549.319,683.662Z" transform="translate(-529.088 -683.662)" fill="#f5c04b"></path></g><g id="&#x30B0;&#x30EB;&#x30FC;&#x30D7;_18904" data-name="&#x30B0;&#x30EB;&#x30FC;&#x30D7; 18904" transform="translate(65.351 51.284)"><path id="&#x30D1;&#x30B9;_33178" data-name="&#x30D1;&#x30B9; 33178" d="M567.7,716.9a46.866,46.866,0,0,0-9.981,4.821c-5.26,3.345-11.374,8.588-14.472,15.876a30.245,30.245,0,0,0-2.327,10.694,41.668,41.668,0,0,0,.412,9.519,40.707,40.707,0,0,0,2.694,9.536,40.094,40.094,0,0,0,10.3-1.973c5.59-1.856,12.073-5.46,15.5-12.892a26.116,26.116,0,0,0,2.2-11.2,62.157,62.157,0,0,0-1.759-11.346c-.862-3.9-1.45-7.173-1.841-9.464C567.934,718.206,567.7,716.9,567.7,716.9Z" transform="translate(-540.823 -716.902)" fill="#f5c04b"></path></g><g id="&#x30B0;&#x30EB;&#x30FC;&#x30D7;_18905" data-name="&#x30B0;&#x30EB;&#x30FC;&#x30D7; 18905" transform="translate(74.325 106.034)"><path id="&#x30D1;&#x30B9;_33179" data-name="&#x30D1;&#x30B9; 33179" d="M579.694,752.388a48.72,48.72,0,0,0-10.874,3.163c-5.98,2.478-12.78,6.681-17.041,13.46a34.023,34.023,0,0,0-5.111,19.957,55.046,55.046,0,0,0,.538,7.205c.268,1.786.548,2.85.548,2.85a40.7,40.7,0,0,0,10.686-.363c5.937-.994,13.079-3.62,17.8-10.684,4.366-6.713,4.241-14.659,3.984-22.3l-.082-2.864c-.062-.91-.119-1.773-.174-2.581-.077-1.623-.145-3.033-.2-4.192C579.684,753.713,579.694,752.388,579.694,752.388Z" transform="translate(-546.64 -752.388)" fill="#f5c04b"></path></g><g id="&#x30B0;&#x30EB;&#x30FC;&#x30D7;_18906" data-name="&#x30B0;&#x30EB;&#x30FC;&#x30D7; 18906" transform="translate(73.218 163.472)"><path id="&#x30D1;&#x30B9;_33180" data-name="&#x30D1;&#x30B9; 33180" d="M586.709,789.619a48.87,48.87,0,0,0-11.465,1.4c-6.333,1.524-14.1,4.667-19.554,10.808a36.726,36.726,0,0,0-6.07,9.731,37.31,37.31,0,0,0-1.66,4.9,44.875,44.875,0,0,0-1.131,4.605,56.715,56.715,0,0,0-.824,7.333c-.12,1.839-.074,2.958-.074,2.958a41.294,41.294,0,0,0,10.757,1.8c6.1.2,13.984-.977,19.923-7.2,5.889-6.034,7.359-14.422,8.285-22.445.437-4.2.932-7.676,1.3-10.1C586.488,790.991,586.709,789.619,586.709,789.619Z" transform="translate(-545.922 -789.616)" fill="#f5c04b"></path></g><g id="&#x30B0;&#x30EB;&#x30FC;&#x30D7;_18907" data-name="&#x30B0;&#x30EB;&#x30FC;&#x30D7; 18907" transform="translate(60.014 222.998)"><path id="&#x30D1;&#x30B9;_33181" data-name="&#x30D1;&#x30B9; 33181" d="M586.913,829.181a49.593,49.593,0,0,0-11.76-.954,45.972,45.972,0,0,0-10.843,1.6,33,33,0,0,0-10.934,5.175,37.087,37.087,0,0,0-8.108,8.441,50.322,50.322,0,0,0-4.811,8.891,67.82,67.82,0,0,0-2.432,7.117c-.486,1.816-.662,2.947-.662,2.947a42.358,42.358,0,0,0,10.345,4.112c6.064,1.52,14.028,2,21.433-2.914a27.183,27.183,0,0,0,8.223-9.228,64.14,64.14,0,0,0,4.818-11.553C584.941,834.559,586.913,829.181,586.913,829.181Z" transform="translate(-537.364 -828.198)" fill="#f5c04b"></path></g><g id="&#x30B0;&#x30EB;&#x30FC;&#x30D7;_18908" data-name="&#x30B0;&#x30EB;&#x30FC;&#x30D7; 18908" transform="translate(35.571 279.435)"><path id="&#x30D1;&#x30B9;_33182" data-name="&#x30D1;&#x30B9; 33182" d="M578.142,869.112a50.7,50.7,0,0,0-11.528-3.5c-6.781-1.256-15.325-1.456-23.187,2.023a41.361,41.361,0,0,0-16.618,14.447,52.774,52.774,0,0,0-5.287,9.33,43.234,43.234,0,0,0,9.416,6.351c5.7,2.831,13.614,5.093,21.992,1.766a27.317,27.317,0,0,0,10.22-7.386,66.188,66.188,0,0,0,7.3-10.462c2.262-3.82,4.207-6.947,5.525-9.155C577.325,870.333,578.142,869.112,578.142,869.112Z" transform="translate(-521.521 -864.777)" fill="#f5c04b"></path></g><g id="&#x30B0;&#x30EB;&#x30FC;&#x30D7;_18909" data-name="&#x30B0;&#x30EB;&#x30FC;&#x30D7; 18909" transform="translate(0 329.864)"><path id="&#x30D1;&#x30B9;_33183" data-name="&#x30D1;&#x30B9; 33183" d="M560.311,907.18a51.569,51.569,0,0,0-10.717-6.006c-6.438-2.7-15-4.834-23.564-3.059s-15.134,6.437-19.872,10.644a71,71,0,0,0-5.587,5.574c-1.319,1.477-2.106,2.461-2.106,2.461s.673,1.1,1.862,2.831a30.134,30.134,0,0,0,5.51,6.114c5,4.227,12.587,8.2,22.026,6.623,9.172-1.543,15.986-7.873,21.959-14.262C556.09,911.416,560.311,907.18,560.311,907.18Z" transform="translate(-498.466 -897.463)" fill="#f5c04b"></path></g></g><path id="&#x30D1;&#x30B9;_33184" data-name="&#x30D1;&#x30B9; 33184" d="M495.64,670.636s1.6.039,4.247.392c1.3.193,2.853.458,4.605.81,1.737.361,3.6.849,5.6,1.41a55.529,55.529,0,0,1,8.938,3.218,21.91,21.91,0,0,1,7.742,6.239,28.983,28.983,0,0,1,4.57,10.373,33.769,33.769,0,0,1,.359,9.549,30.015,30.015,0,0,1-1.45,6.816,25.188,25.188,0,0,1-1.014,2.617s-1.17-.048-3.021-.305a66.681,66.681,0,0,1-7.265-1.429,36.235,36.235,0,0,1-8.634-3.469,21.994,21.994,0,0,1-7.577-6.531,22.234,22.234,0,0,1-3.76-8.875,43.1,43.1,0,0,1-.7-4.806c-.187-1.591-.326-3.209-.471-4.838a56.578,56.578,0,0,0-1.308-8.139C496.035,671.724,495.64,670.636,495.64,670.636Z" transform="translate(-476.731 -670.636)" fill="#f5c04b"></path></g></g></g><path id="&#x30D1;&#x30B9;_24187" data-name="&#x30D1;&#x30B9; 24187" d="M20.491-384.738q0-13.06,10-22.7A33.173,33.173,0,0,1,54-417.073a32.52,32.52,0,0,1,23.6,9.728A31.041,31.041,0,0,1,87.5-384.288a31.141,31.141,0,0,1-9.908,23.148A33,33,0,0,1,53.726-351.5a32.072,32.072,0,0,1-23.508-9.818A32.116,32.116,0,0,1,20.491-384.738Zm15.672.27a17.394,17.394,0,0,0,5.224,12.79,17.287,17.287,0,0,0,12.7,5.224,17.078,17.078,0,0,0,12.52-5.224,17.182,17.182,0,0,0,5.224-12.61,17.078,17.078,0,0,0-5.224-12.52A17.182,17.182,0,0,0,54-402.032a17.182,17.182,0,0,0-12.61,5.224A16.873,16.873,0,0,0,36.163-384.468Zm96.824-33.6,9.817,5.584L63.183-274.314l-9.908-5.944Zm-24.5,109.524q0-12.97,10-22.607a33.173,33.173,0,0,1,23.508-9.637,32.626,32.626,0,0,1,23.688,9.727A31.041,31.041,0,0,1,175.589-308a30.822,30.822,0,0,1-10,23.148,32.963,32.963,0,0,1-23.868,9.547,32.221,32.221,0,0,1-23.508-9.727A32.027,32.027,0,0,1,108.488-308.54Zm15.762.36a17.551,17.551,0,0,0,5.134,12.79,17.287,17.287,0,0,0,12.7,5.224,16.887,16.887,0,0,0,12.52-5.224A17.182,17.182,0,0,0,159.827-308a17.182,17.182,0,0,0-5.224-12.61,16.992,16.992,0,0,0-12.61-5.224,17.078,17.078,0,0,0-12.52,5.224A16.975,16.975,0,0,0,124.25-308.18Z" transform="translate(555.331 619.971)"></path></g><g id="&#x30B0;&#x30EB;&#x30FC;&#x30D7;_19504" data-name="&#x30B0;&#x30EB;&#x30FC;&#x30D7; 19504" transform="translate(-20323.285 369.563)"><g id="&#x30B0;&#x30EB;&#x30FC;&#x30D7;_19483-2" data-name="&#x30B0;&#x30EB;&#x30FC;&#x30D7; 19483" transform="translate(0.001 0)"><g id="&#x30B0;&#x30EB;&#x30FC;&#x30D7;_18877-2" data-name="&#x30B0;&#x30EB;&#x30FC;&#x30D7; 18877" transform="translate(246.951)"><g id="&#x30B0;&#x30EB;&#x30FC;&#x30D7;_18876-2" data-name="&#x30B0;&#x30EB;&#x30FC;&#x30D7; 18876" transform="translate(0 20.702)"><path id="&#x30D1;&#x30B9;_33152-2" data-name="&#x30D1;&#x30B9; 33152" d="M440.444,633.764l6.292,12.749,14.07,2.044-10.181,9.924,2.4,14.013-12.584-6.616-12.584,6.616,2.4-14.013-10.181-9.924,14.07-2.044Z" transform="translate(-247.812 -633.764)" fill="#f5c04b"></path><path id="&#x30D1;&#x30B9;_33153-2" data-name="&#x30D1;&#x30B9; 33153" d="M293.4,635.88l6.292,12.749,14.07,2.044L303.577,660.6l2.4,14.013L293.4,667.994l-12.584,6.616,2.4-14.013-10.181-9.924,14.07-2.044Z" transform="translate(-273.035 -633.401)" fill="#f5c04b"></path></g><path id="&#x30D1;&#x30B9;_33154-2" data-name="&#x30D1;&#x30B9; 33154" d="M403.6,643.667l-11.805,24.8H349.862l-11.787-24.876a7.49,7.49,0,1,1,5.144-3.82l10.163,8.455,2.284-17.477a7.381,7.381,0,1,1,6.261-1.888l8.742,19.365,7.452-18.841a7.357,7.357,0,1,1,7.555.747l1.639,18.094,9.36-8.161a7.351,7.351,0,1,1,6.925,3.6Z" transform="translate(-263.371 -616.093)" fill="#f5c04b"></path></g><g id="&#x30B0;&#x30EB;&#x30FC;&#x30D7;_18912-2" data-name="&#x30B0;&#x30EB;&#x30FC;&#x30D7; 18912" transform="translate(0 63.672)"><g id="&#x30B0;&#x30EB;&#x30FC;&#x30D7;_18894-2" data-name="&#x30B0;&#x30EB;&#x30FC;&#x30D7; 18894"><g id="&#x30B0;&#x30EB;&#x30FC;&#x30D7;_18885-2" data-name="&#x30B0;&#x30EB;&#x30FC;&#x30D7; 18885" transform="translate(0 15.486)"><g id="&#x30B0;&#x30EB;&#x30FC;&#x30D7;_18878-2" data-name="&#x30B0;&#x30EB;&#x30FC;&#x30D7; 18878" transform="translate(28.135)"><path id="&#x30D1;&#x30B9;_33155-2" data-name="&#x30D1;&#x30B9; 33155" d="M186.73,683.662a34.548,34.548,0,0,1,6.609,4.968,32.121,32.121,0,0,1,4.944,5.9,24.5,24.5,0,0,1,3.29,7.8,23.117,23.117,0,0,1,.28,8.218,35.371,35.371,0,0,1-1.613,6.937,33.042,33.042,0,0,1-2.149,4.838c-.314.583-.565,1.048-.737,1.371l-.28.488a29.5,29.5,0,0,1-7.289-2.745,22.762,22.762,0,0,1-5.8-4.326,16.3,16.3,0,0,1-3.939-7.216,19.794,19.794,0,0,1-.073-8.626,55.046,55.046,0,0,1,2.89-8.241c1.123-2.824,2.158-5.141,2.839-6.781S186.73,683.662,186.73,683.662Z" transform="translate(-179.536 -683.662)" fill="#f5c04b"></path></g><g id="&#x30B0;&#x30EB;&#x30FC;&#x30D7;_18879-2" data-name="&#x30B0;&#x30EB;&#x30FC;&#x30D7; 18879" transform="translate(13.247 38.941)"><path id="&#x30D1;&#x30B9;_33156-2" data-name="&#x30D1;&#x30B9; 33156" d="M170.113,716.9a35.607,35.607,0,0,1,7.58,3.661c3.993,2.54,8.636,6.521,10.988,12.055a22.937,22.937,0,0,1,1.767,8.12,31.638,31.638,0,0,1-.313,7.228,30.873,30.873,0,0,1-2.044,7.241,30.435,30.435,0,0,1-7.818-1.5c-4.244-1.409-9.168-4.146-11.77-9.789a19.864,19.864,0,0,1-1.674-8.5,47.2,47.2,0,0,1,1.336-8.615c.655-2.965,1.1-5.446,1.4-7.186C169.938,717.892,170.113,716.9,170.113,716.9Z" transform="translate(-166.828 -716.902)" fill="#f5c04b"></path></g><g id="&#x30B0;&#x30EB;&#x30FC;&#x30D7;_18880-2" data-name="&#x30B0;&#x30EB;&#x30FC;&#x30D7; 18880" transform="translate(4.551 80.514)"><path id="&#x30D1;&#x30B9;_33157-2" data-name="&#x30D1;&#x30B9; 33157" d="M159.885,752.388a36.978,36.978,0,0,1,8.256,2.4c4.541,1.882,9.7,5.073,12.941,10.22a25.842,25.842,0,0,1,3.88,15.154,41.82,41.82,0,0,1-.409,5.471c-.2,1.357-.416,2.164-.416,2.164a30.892,30.892,0,0,1-8.113-.275c-4.509-.755-9.932-2.748-13.516-8.113-3.315-5.1-3.219-11.131-3.025-16.933l.062-2.174c.047-.691.091-1.346.132-1.96.06-1.232.11-2.3.153-3.183C159.892,753.394,159.885,752.388,159.885,752.388Z" transform="translate(-159.405 -752.388)" fill="#f5c04b"></path></g><g id="&#x30B0;&#x30EB;&#x30FC;&#x30D7;_18881-2" data-name="&#x30B0;&#x30EB;&#x30FC;&#x30D7; 18881" transform="translate(0 124.127)"><path id="&#x30D1;&#x30B9;_33158-2" data-name="&#x30D1;&#x30B9; 33158" d="M155.52,789.618a37.112,37.112,0,0,1,8.706,1.066c4.809,1.158,10.71,3.544,14.848,8.207a27.855,27.855,0,0,1,4.609,7.389A28.316,28.316,0,0,1,184.943,810a33.494,33.494,0,0,1,.859,3.5,42.849,42.849,0,0,1,.626,5.568c.093,1.4.056,2.246.056,2.246a31.357,31.357,0,0,1-8.168,1.364c-4.633.152-10.618-.742-15.128-5.469-4.472-4.582-5.587-10.951-6.29-17.043-.333-3.19-.709-5.828-.99-7.671C155.688,790.66,155.52,789.618,155.52,789.618Z" transform="translate(-155.52 -789.616)" fill="#f5c04b"></path></g><g id="&#x30B0;&#x30EB;&#x30FC;&#x30D7;_18882-2" data-name="&#x30B0;&#x30EB;&#x30FC;&#x30D7; 18882" transform="translate(3.374 169.327)"><path id="&#x30D1;&#x30B9;_33159-2" data-name="&#x30D1;&#x30B9; 33159" d="M158.4,828.944a37.641,37.641,0,0,1,8.928-.724,34.919,34.919,0,0,1,8.235,1.218,25.063,25.063,0,0,1,8.3,3.929,28.16,28.16,0,0,1,6.156,6.409,38.212,38.212,0,0,1,3.653,6.751,51.253,51.253,0,0,1,1.846,5.4c.369,1.379.5,2.238.5,2.238a32.136,32.136,0,0,1-7.855,3.122c-4.6,1.154-10.652,1.518-16.275-2.213a20.639,20.639,0,0,1-6.244-7.007,48.706,48.706,0,0,1-3.659-8.772C159.9,833.028,158.4,828.944,158.4,828.944Z" transform="translate(-158.4 -828.198)" fill="#f5c04b"></path></g><g id="&#x30B0;&#x30EB;&#x30FC;&#x30D7;_18883-2" data-name="&#x30B0;&#x30EB;&#x30FC;&#x30D7; 18883" transform="translate(16.563 212.18)"><path id="&#x30D1;&#x30B9;_33160-2" data-name="&#x30D1;&#x30B9; 33160" d="M169.658,868.069a38.5,38.5,0,0,1,8.755-2.659c5.149-.954,11.636-1.106,17.606,1.536a31.4,31.4,0,0,1,12.618,10.97A40.074,40.074,0,0,1,212.652,885a32.829,32.829,0,0,1-7.15,4.822c-4.329,2.15-10.338,3.867-16.7,1.341a20.738,20.738,0,0,1-7.761-5.608,50.252,50.252,0,0,1-5.544-7.944c-1.719-2.9-3.2-5.275-4.2-6.952C170.279,869,169.658,868.069,169.658,868.069Z" transform="translate(-169.658 -864.777)" fill="#f5c04b"></path></g><g id="&#x30B0;&#x30EB;&#x30FC;&#x30D7;_18884-2" data-name="&#x30B0;&#x30EB;&#x30FC;&#x30D7; 18884" transform="translate(39.606 250.472)"><path id="&#x30D1;&#x30B9;_33161-2" data-name="&#x30D1;&#x30B9; 33161" d="M189.327,904.841a39.147,39.147,0,0,1,8.139-4.561c4.889-2.052,11.393-3.67,17.892-2.323a33.008,33.008,0,0,1,15.089,8.082,53.724,53.724,0,0,1,4.242,4.233c1,1.121,1.6,1.869,1.6,1.869s-.512.839-1.415,2.15a22.848,22.848,0,0,1-4.184,4.643c-3.8,3.21-9.557,6.224-16.724,5.029-6.966-1.171-12.139-5.978-16.675-10.829C192.532,908.058,189.327,904.841,189.327,904.841Z" transform="translate(-189.327 -897.463)" fill="#f5c04b"></path></g></g><g id="&#x30B0;&#x30EB;&#x30FC;&#x30D7;_18893-2" data-name="&#x30B0;&#x30EB;&#x30FC;&#x30D7; 18893" transform="translate(38.89 43.628)"><g id="&#x30B0;&#x30EB;&#x30FC;&#x30D7;_18886-2" data-name="&#x30B0;&#x30EB;&#x30FC;&#x30D7; 18886" transform="translate(16.816)"><path id="&#x30D1;&#x30B9;_33162-2" data-name="&#x30D1;&#x30B9; 33162" d="M239.07,713.518a43.367,43.367,0,0,0-7.363-3.7,31.69,31.69,0,0,0-7.3-1.941,17.717,17.717,0,0,0-8.005.594,18.824,18.824,0,0,0-6.618,3.9,21.167,21.167,0,0,0-4.089,5.3,30.014,30.014,0,0,0-2.1,4.558,10.219,10.219,0,0,0-.411,1.42l-.111.528a32.2,32.2,0,0,0,7.135,3.148,28.079,28.079,0,0,0,6.979,1.252,19.852,19.852,0,0,0,7.665-1.017,14.12,14.12,0,0,0,5.681-3.744,29.759,29.759,0,0,0,3.975-4.891,29.826,29.826,0,0,1,3.224-4.022C238.566,714,239.07,713.518,239.07,713.518Z" transform="translate(-203.07 -707.684)" fill="#f5c04b"></path></g><g id="&#x30B0;&#x30EB;&#x30FC;&#x30D7;_18887-2" data-name="&#x30B0;&#x30EB;&#x30FC;&#x30D7; 18887" transform="translate(5.664 30.725)"><path id="&#x30D1;&#x30B9;_33163-2" data-name="&#x30D1;&#x30B9; 33163" d="M227.908,736.716a43.686,43.686,0,0,0-8.121-2.253c-4.736-.852-10.625-1.022-15.572,1.728a19.744,19.744,0,0,0-5.991,5.185,23.941,23.941,0,0,0-3.117,6.115,28.211,28.211,0,0,0-1.556,7.029,32.463,32.463,0,0,0,7.711,1.925c4.456.571,10.122.363,14.847-2.411a14.677,14.677,0,0,0,5.064-4.935,38.283,38.283,0,0,0,3.155-5.823c.944-2.063,1.8-3.724,2.436-4.862C227.471,737.317,227.908,736.716,227.908,736.716Z" transform="translate(-193.551 -733.91)" fill="#f5c04b"></path></g><g id="&#x30B0;&#x30EB;&#x30FC;&#x30D7;_18888-2" data-name="&#x30B0;&#x30EB;&#x30FC;&#x30D7; 18888" transform="translate(0 63.762)"><path id="&#x30D1;&#x30B9;_33164-2" data-name="&#x30D1;&#x30B9; 33164" d="M220.692,763a43.614,43.614,0,0,0-8.542-.888c-4.823-.025-10.958.771-15.54,4.374-4.464,3.623-6.511,8.769-7.43,12.927a26.353,26.353,0,0,0-.464,5.232,20.483,20.483,0,0,0,.1,2.1,33.256,33.256,0,0,0,8.08.723c4.575-.126,10.226-1.222,14.466-4.692,4.277-3.429,5.6-7.99,6.675-12.41q.221-.863.423-1.647l.508-1.441c.327-.9.628-1.674.883-2.308C220.362,763.7,220.692,763,220.692,763Z" transform="translate(-188.716 -762.111)" fill="#f5c04b"></path></g><g id="&#x30B0;&#x30EB;&#x30FC;&#x30D7;_18889-2" data-name="&#x30B0;&#x30EB;&#x30FC;&#x30D7; 18889" transform="translate(0.056 97.364)"><path id="&#x30D1;&#x30B9;_33165-2" data-name="&#x30D1;&#x30B9; 33165" d="M217.365,790.831a45.451,45.451,0,0,0-8.752.506c-4.934.756-10.807,2.545-14.8,6.92a18.062,18.062,0,0,0-4.027,7.13,25.305,25.305,0,0,0-.843,3.662,27.6,27.6,0,0,0-.178,3.42,26.743,26.743,0,0,0,.524,5.328,21.207,21.207,0,0,0,.556,2.077,34.176,34.176,0,0,0,8.232-.911c4.577-1.052,9.858-3.258,13.566-7.535,3.491-4.12,3.936-8.647,4.364-13.059.262-2.3.568-4.186.822-5.492C217.143,791.564,217.365,790.831,217.365,790.831Z" transform="translate(-188.764 -790.793)" fill="#f5c04b"></path></g><g id="&#x30B0;&#x30EB;&#x30FC;&#x30D7;_18890-2" data-name="&#x30B0;&#x30EB;&#x30FC;&#x30D7; 18890" transform="translate(6.896 129.552)"><path id="&#x30D1;&#x30B9;_33166-2" data-name="&#x30D1;&#x30B9; 33166" d="M219.222,818.268a46.7,46.7,0,0,0-8.638,2.3,34.327,34.327,0,0,0-7.33,3.693,20.005,20.005,0,0,0-6.033,6.266c-3.086,5.2-2.978,10.958-2.029,15.254a24.932,24.932,0,0,0,1.7,5.2,21.468,21.468,0,0,0,.969,1.967,34.734,34.734,0,0,0,8.01-2.682c4.325-2.03,9.228-5.414,11.912-10.423a16.054,16.054,0,0,0,1.979-7.084,41.333,41.333,0,0,0-.349-6.784A40.01,40.01,0,0,1,219.222,818.268Z" transform="translate(-194.602 -818.268)" fill="#f5c04b"></path></g><g id="&#x30B0;&#x30EB;&#x30FC;&#x30D7;_18891-2" data-name="&#x30B0;&#x30EB;&#x30FC;&#x30D7; 18891" transform="translate(20.908 160.764)"><path id="&#x30D1;&#x30B9;_33167-2" data-name="&#x30D1;&#x30B9; 33167" d="M226.771,844.91a47.548,47.548,0,0,0-8.107,4.162c-4.3,2.76-9.277,7-11.155,12.834-1.954,5.867-.562,11.582,1.3,15.679a26.333,26.333,0,0,0,4.242,6.568,35.377,35.377,0,0,0,7.4-4.42c3.875-2.971,7.968-7.375,9.605-12.991a16.642,16.642,0,0,0,.409-7.493,41.488,41.488,0,0,0-1.821-6.7,42.89,42.89,0,0,1-1.489-5.521C226.881,845.682,226.771,844.91,226.771,844.91Z" transform="translate(-206.563 -844.91)" fill="#f5c04b"></path></g><g id="&#x30B0;&#x30EB;&#x30FC;&#x30D7;_18892-2" data-name="&#x30B0;&#x30EB;&#x30FC;&#x30D7; 18892" transform="translate(41.918 189.788)"><path id="&#x30D1;&#x30B9;_33168-2" data-name="&#x30D1;&#x30B9; 33168" d="M240.074,869.685a48.723,48.723,0,0,0-7.176,5.925c-3.718,3.716-7.683,8.976-8.307,15.225a21.531,21.531,0,0,0,4.822,15.251,25.92,25.92,0,0,0,3.943,4.046,14.687,14.687,0,0,0,1.792,1.294,17.572,17.572,0,0,0,1.864-1.749c1.1-1.136,2.515-2.822,4.1-4.719,3.1-3.866,6.268-9.034,6.754-14.739.48-5.5-1.948-9.459-4.3-13.4A42.034,42.034,0,0,1,240.074,869.685Z" transform="translate(-224.497 -869.685)" fill="#f5c04b"></path></g></g><path id="&#x30D1;&#x30B9;_33169-2" data-name="&#x30D1;&#x30B9; 33169" d="M236.2,670.443s-.314,1.209-.74,3.093l-.705,3.327c-.246,1.236-.517,2.6-.8,4.034-.432,2.041-.7,4.337-1.319,6.407a13.924,13.924,0,0,1-2.912,5.88,18.839,18.839,0,0,1-5.94,4.765,26.758,26.758,0,0,1-6.284,2.564,47.563,47.563,0,0,1-5.1,1.055c-1.284.188-2.082.22-2.082.22a21.815,21.815,0,0,1-.849-2.2,24.922,24.922,0,0,1-1.191-5.61,24.311,24.311,0,0,1,.363-7.622,19.141,19.141,0,0,1,3.886-7.832,17.557,17.557,0,0,1,6.944-4.886,29.584,29.584,0,0,1,3.857-1.222c1.329-.3,2.655-.521,3.95-.718C232.718,670.887,236.2,670.443,236.2,670.443Z" transform="translate(-146.496 -670.443)" fill="#f5c04b"></path></g><g id="&#x30B0;&#x30EB;&#x30FC;&#x30D7;_18911-2" data-name="&#x30B0;&#x30EB;&#x30FC;&#x30D7; 18911" transform="translate(602.661 0.226)"><g id="&#x30B0;&#x30EB;&#x30FC;&#x30D7;_18902-2" data-name="&#x30B0;&#x30EB;&#x30FC;&#x30D7; 18902" transform="translate(0 43.402)"><g id="&#x30B0;&#x30EB;&#x30FC;&#x30D7;_18895-2" data-name="&#x30B0;&#x30EB;&#x30FC;&#x30D7; 18895" transform="translate(12.53)"><path id="&#x30D1;&#x30B9;_33170-2" data-name="&#x30D1;&#x30B9; 33170" d="M494.079,713.518a43.355,43.355,0,0,1,7.364-3.7,31.664,31.664,0,0,1,7.3-1.941,17.721,17.721,0,0,1,8.006.594,18.818,18.818,0,0,1,6.617,3.9,21.167,21.167,0,0,1,4.089,5.3,29.784,29.784,0,0,1,2.1,4.558,10.429,10.429,0,0,1,.412,1.42l.111.528a32.226,32.226,0,0,1-7.136,3.148,28.08,28.08,0,0,1-6.979,1.252,19.846,19.846,0,0,1-7.664-1.017,14.12,14.12,0,0,1-5.681-3.744,29.643,29.643,0,0,1-3.975-4.891,29.91,29.91,0,0,0-3.225-4.022C494.583,714,494.079,713.518,494.079,713.518Z" transform="translate(-494.079 -707.684)" fill="#f5c04b"></path></g><g id="&#x30B0;&#x30EB;&#x30FC;&#x30D7;_18896-2" data-name="&#x30B0;&#x30EB;&#x30FC;&#x30D7; 18896" transform="translate(25.325 30.725)"><path id="&#x30D1;&#x30B9;_33171-2" data-name="&#x30D1;&#x30B9; 33171" d="M505,736.716a43.654,43.654,0,0,1,8.12-2.253c4.736-.852,10.625-1.022,15.573,1.728a19.741,19.741,0,0,1,5.99,5.185,23.94,23.94,0,0,1,3.117,6.115,28.211,28.211,0,0,1,1.556,7.029,32.442,32.442,0,0,1-7.71,1.925c-4.456.571-10.122.363-14.848-2.411a14.676,14.676,0,0,1-5.064-4.935,38.282,38.282,0,0,1-3.155-5.823c-.944-2.063-1.8-3.724-2.436-4.862C505.438,737.317,505,736.716,505,736.716Z" transform="translate(-505.001 -733.91)" fill="#f5c04b"></path></g><g id="&#x30B0;&#x30EB;&#x30FC;&#x30D7;_18897-2" data-name="&#x30B0;&#x30EB;&#x30FC;&#x30D7; 18897" transform="translate(33.37 63.762)"><path id="&#x30D1;&#x30B9;_33172-2" data-name="&#x30D1;&#x30B9; 33172" d="M511.868,763a43.613,43.613,0,0,1,8.542-.888c4.823-.025,10.958.771,15.54,4.374,4.465,3.623,6.511,8.769,7.431,12.927a26.349,26.349,0,0,1,.463,5.232,20.511,20.511,0,0,1-.1,2.1,33.256,33.256,0,0,1-8.08.723c-4.574-.126-10.226-1.222-14.466-4.692-4.276-3.429-5.6-7.99-6.675-12.41q-.221-.863-.422-1.647-.271-.763-.51-1.441c-.327-.9-.628-1.674-.882-2.308C512.2,763.7,511.868,763,511.868,763Z" transform="translate(-511.868 -762.111)" fill="#f5c04b"></path></g><g id="&#x30B0;&#x30EB;&#x30FC;&#x30D7;_18898-2" data-name="&#x30B0;&#x30EB;&#x30FC;&#x30D7; 18898" transform="translate(36.689 97.364)"><path id="&#x30D1;&#x30B9;_33173-2" data-name="&#x30D1;&#x30B9; 33173" d="M514.7,790.831a45.464,45.464,0,0,1,8.754.506c4.933.756,10.806,2.545,14.8,6.92a18.074,18.074,0,0,1,4.025,7.13,25.151,25.151,0,0,1,.843,3.662,27.645,27.645,0,0,1,.179,3.42,26.845,26.845,0,0,1-.524,5.328,21.4,21.4,0,0,1-.558,2.077,34.178,34.178,0,0,1-8.232-.911c-4.577-1.052-9.858-3.258-13.566-7.535-3.491-4.12-3.935-8.647-4.364-13.059-.262-2.3-.568-4.186-.821-5.492C514.922,791.564,514.7,790.831,514.7,790.831Z" transform="translate(-514.701 -790.793)" fill="#f5c04b"></path></g><g id="&#x30B0;&#x30EB;&#x30FC;&#x30D7;_18899-2" data-name="&#x30B0;&#x30EB;&#x30FC;&#x30D7; 18899" transform="translate(33.238 129.552)"><path id="&#x30D1;&#x30B9;_33174-2" data-name="&#x30D1;&#x30B9; 33174" d="M512.349,818.268a46.728,46.728,0,0,1,8.638,2.3,34.343,34.343,0,0,1,7.329,3.693,20,20,0,0,1,6.033,6.266c3.087,5.2,2.978,10.958,2.03,15.254a24.927,24.927,0,0,1-1.7,5.2,21.47,21.47,0,0,1-.969,1.967,34.734,34.734,0,0,1-8.01-2.682c-4.324-2.03-9.228-5.414-11.912-10.423a16.071,16.071,0,0,1-1.979-7.084,41.472,41.472,0,0,1,.349-6.784A39.966,39.966,0,0,0,512.349,818.268Z" transform="translate(-511.756 -818.268)" fill="#f5c04b"></path></g><g id="&#x30B0;&#x30EB;&#x30FC;&#x30D7;_18900-2" data-name="&#x30B0;&#x30EB;&#x30FC;&#x30D7; 18900" transform="translate(20.285 160.764)"><path id="&#x30D1;&#x30B9;_33175-2" data-name="&#x30D1;&#x30B9; 33175" d="M504.645,844.91a47.566,47.566,0,0,1,8.106,4.162c4.3,2.76,9.278,7,11.155,12.834,1.954,5.867.562,11.582-1.3,15.679a26.354,26.354,0,0,1-4.243,6.568,35.378,35.378,0,0,1-7.4-4.42c-3.875-2.971-7.967-7.375-9.605-12.991a16.66,16.66,0,0,1-.409-7.493,41.623,41.623,0,0,1,1.821-6.7,42.892,42.892,0,0,0,1.489-5.521C504.533,845.682,504.645,844.91,504.645,844.91Z" transform="translate(-500.699 -844.91)" fill="#f5c04b"></path></g><g id="&#x30B0;&#x30EB;&#x30FC;&#x30D7;_18901-2" data-name="&#x30B0;&#x30EB;&#x30FC;&#x30D7; 18901" transform="translate(0 189.788)"><path id="&#x30D1;&#x30B9;_33176-2" data-name="&#x30D1;&#x30B9; 33176" d="M491.234,869.685a48.722,48.722,0,0,1,7.176,5.925c3.718,3.716,7.684,8.976,8.307,15.225a21.525,21.525,0,0,1-4.822,15.251,25.918,25.918,0,0,1-3.943,4.046,14.583,14.583,0,0,1-1.792,1.294,17.562,17.562,0,0,1-1.864-1.749c-1.1-1.136-2.515-2.822-4.1-4.719-3.1-3.866-6.269-9.034-6.755-14.739-.479-5.5,1.948-9.459,4.3-13.4A42.066,42.066,0,0,0,491.234,869.685Z" transform="translate(-483.384 -869.685)" fill="#f5c04b"></path></g></g><g id="&#x30B0;&#x30EB;&#x30FC;&#x30D7;_18910-2" data-name="&#x30B0;&#x30EB;&#x30FC;&#x30D7; 18910" transform="translate(17.669 15.26)"><g id="&#x30B0;&#x30EB;&#x30FC;&#x30D7;_18903-2" data-name="&#x30B0;&#x30EB;&#x30FC;&#x30D7; 18903" transform="translate(35.875)"><path id="&#x30D1;&#x30B9;_33177-2" data-name="&#x30D1;&#x30B9; 33177" d="M544.45,683.662a34.546,34.546,0,0,0-6.609,4.968,32.173,32.173,0,0,0-4.944,5.9,24.523,24.523,0,0,0-3.29,7.8,23.174,23.174,0,0,0-.28,8.218,35.543,35.543,0,0,0,1.613,6.937,33.041,33.041,0,0,0,2.15,4.838c.313.583.564,1.048.736,1.371l.28.488a29.482,29.482,0,0,0,7.289-2.745,22.761,22.761,0,0,0,5.8-4.326,16.294,16.294,0,0,0,3.939-7.216,19.76,19.76,0,0,0,.073-8.626,54.906,54.906,0,0,0-2.89-8.241c-1.122-2.824-2.158-5.141-2.837-6.781S544.45,683.662,544.45,683.662Z" transform="translate(-529.088 -683.662)" fill="#f5c04b"></path></g><g id="&#x30B0;&#x30EB;&#x30FC;&#x30D7;_18904-2" data-name="&#x30B0;&#x30EB;&#x30FC;&#x30D7; 18904" transform="translate(49.622 38.941)"><path id="&#x30D1;&#x30B9;_33178-2" data-name="&#x30D1;&#x30B9; 33178" d="M561.234,716.9a35.585,35.585,0,0,0-7.579,3.661c-3.994,2.54-8.636,6.521-10.989,12.055a22.967,22.967,0,0,0-1.767,8.12,31.643,31.643,0,0,0,.313,7.228,30.91,30.91,0,0,0,2.045,7.241,30.443,30.443,0,0,0,7.818-1.5c4.244-1.409,9.167-4.146,11.769-9.789a19.83,19.83,0,0,0,1.674-8.5,47.206,47.206,0,0,0-1.336-8.615c-.655-2.965-1.1-5.446-1.4-7.186C561.409,717.892,561.234,716.9,561.234,716.9Z" transform="translate(-540.823 -716.902)" fill="#f5c04b"></path></g><g id="&#x30B0;&#x30EB;&#x30FC;&#x30D7;_18905-2" data-name="&#x30B0;&#x30EB;&#x30FC;&#x30D7; 18905" transform="translate(56.436 80.514)"><path id="&#x30D1;&#x30B9;_33179-2" data-name="&#x30D1;&#x30B9; 33179" d="M571.739,752.388a37,37,0,0,0-8.257,2.4c-4.541,1.882-9.7,5.073-12.94,10.22a25.835,25.835,0,0,0-3.881,15.154,41.8,41.8,0,0,0,.409,5.471c.2,1.357.416,2.164.416,2.164a30.9,30.9,0,0,0,8.114-.275c4.508-.755,9.931-2.748,13.515-8.113,3.315-5.1,3.221-11.131,3.025-16.933l-.062-2.174c-.047-.691-.09-1.346-.132-1.96-.059-1.232-.11-2.3-.152-3.183C571.731,753.394,571.739,752.388,571.739,752.388Z" transform="translate(-546.64 -752.388)" fill="#f5c04b"></path></g><g id="&#x30B0;&#x30EB;&#x30FC;&#x30D7;_18906-2" data-name="&#x30B0;&#x30EB;&#x30FC;&#x30D7; 18906" transform="translate(55.596 124.127)"><path id="&#x30D1;&#x30B9;_33180-2" data-name="&#x30D1;&#x30B9; 33180" d="M576.892,789.618a37.112,37.112,0,0,0-8.706,1.066c-4.809,1.158-10.71,3.544-14.848,8.207a27.885,27.885,0,0,0-4.609,7.389A28.32,28.32,0,0,0,547.47,810a34.081,34.081,0,0,0-.859,3.5,43.054,43.054,0,0,0-.625,5.568c-.091,1.4-.056,2.246-.056,2.246a31.358,31.358,0,0,0,8.168,1.364c4.633.152,10.619-.742,15.128-5.469,4.472-4.582,5.588-10.951,6.291-17.043.332-3.19.708-5.828.989-7.671C576.725,790.66,576.892,789.618,576.892,789.618Z" transform="translate(-545.922 -789.616)" fill="#f5c04b"></path></g><g id="&#x30B0;&#x30EB;&#x30FC;&#x30D7;_18907-2" data-name="&#x30B0;&#x30EB;&#x30FC;&#x30D7; 18907" transform="translate(45.57 169.327)"><path id="&#x30D1;&#x30B9;_33181-2" data-name="&#x30D1;&#x30B9; 33181" d="M574.987,828.944a37.656,37.656,0,0,0-8.929-.724,34.911,34.911,0,0,0-8.234,1.218,25.058,25.058,0,0,0-8.3,3.929,28.156,28.156,0,0,0-6.156,6.409,38.207,38.207,0,0,0-3.653,6.751,51.469,51.469,0,0,0-1.846,5.4c-.369,1.379-.5,2.238-.5,2.238a32.16,32.16,0,0,0,7.855,3.122c4.6,1.154,10.651,1.518,16.275-2.213a20.642,20.642,0,0,0,6.244-7.007A48.7,48.7,0,0,0,571.4,839.3C573.49,833.028,574.987,828.944,574.987,828.944Z" transform="translate(-537.364 -828.198)" fill="#f5c04b"></path></g><g id="&#x30B0;&#x30EB;&#x30FC;&#x30D7;_18908-2" data-name="&#x30B0;&#x30EB;&#x30FC;&#x30D7; 18908" transform="translate(27.01 212.18)"><path id="&#x30D1;&#x30B9;_33182-2" data-name="&#x30D1;&#x30B9; 33182" d="M564.515,868.069a38.5,38.5,0,0,0-8.754-2.659c-5.149-.954-11.637-1.106-17.607,1.536a31.407,31.407,0,0,0-12.618,10.97A40.072,40.072,0,0,0,521.521,885a32.831,32.831,0,0,0,7.15,4.822c4.33,2.15,10.338,3.867,16.7,1.341a20.742,20.742,0,0,0,7.76-5.608,50.255,50.255,0,0,0,5.545-7.944c1.717-2.9,3.195-5.275,4.2-6.952C563.894,869,564.515,868.069,564.515,868.069Z" transform="translate(-521.521 -864.777)" fill="#f5c04b"></path></g><g id="&#x30B0;&#x30EB;&#x30FC;&#x30D7;_18909-2" data-name="&#x30B0;&#x30EB;&#x30FC;&#x30D7; 18909" transform="translate(0 250.472)"><path id="&#x30D1;&#x30B9;_33183-2" data-name="&#x30D1;&#x30B9; 33183" d="M545.427,904.841a39.156,39.156,0,0,0-8.137-4.561c-4.889-2.052-11.393-3.67-17.893-2.323a33.009,33.009,0,0,0-15.089,8.082,53.951,53.951,0,0,0-4.242,4.233c-1,1.121-1.6,1.869-1.6,1.869s.511.839,1.414,2.15a22.884,22.884,0,0,0,4.184,4.643c3.8,3.21,9.557,6.224,16.725,5.029,6.965-1.171,12.138-5.978,16.674-10.829C542.221,908.058,545.427,904.841,545.427,904.841Z" transform="translate(-498.466 -897.463)" fill="#f5c04b"></path></g></g><path id="&#x30D1;&#x30B9;_33184-2" data-name="&#x30D1;&#x30B9; 33184" d="M495.64,670.636s1.214.029,3.225.3c.986.146,2.166.348,3.5.615s2.732.644,4.254,1.071a42.172,42.172,0,0,1,6.787,2.444,16.638,16.638,0,0,1,5.879,4.738,22.008,22.008,0,0,1,3.47,7.876,25.646,25.646,0,0,1,.273,7.251,22.8,22.8,0,0,1-1.1,5.176,19.124,19.124,0,0,1-.77,1.987s-.888-.036-2.294-.232a50.612,50.612,0,0,1-5.517-1.085,27.509,27.509,0,0,1-6.556-2.634,16.7,16.7,0,0,1-5.753-4.959,16.882,16.882,0,0,1-2.855-6.739,32.722,32.722,0,0,1-.531-3.649c-.142-1.208-.247-2.437-.357-3.674a42.954,42.954,0,0,0-.993-6.18C495.94,671.462,495.64,670.636,495.64,670.636Z" transform="translate(-481.282 -670.636)" fill="#f5c04b"></path></g></g></g><path id="&#x30D1;&#x30B9;_24187-2" data-name="&#x30D1;&#x30B9; 24187" d="M20.491-397.443a18.884,18.884,0,0,1,6.186-14.045,20.526,20.526,0,0,1,14.546-5.963,20.123,20.123,0,0,1,14.6,6.019,19.207,19.207,0,0,1,6.131,14.267,19.27,19.27,0,0,1-6.131,14.323,20.418,20.418,0,0,1-14.769,5.963,19.846,19.846,0,0,1-14.546-6.075A19.873,19.873,0,0,1,20.491-397.443Zm9.7.167a10.763,10.763,0,0,0,3.232,7.914,10.7,10.7,0,0,0,7.858,3.232,10.568,10.568,0,0,0,7.747-3.232,10.632,10.632,0,0,0,3.232-7.8,10.568,10.568,0,0,0-3.232-7.747,10.632,10.632,0,0,0-7.8-3.232,10.632,10.632,0,0,0-7.8,3.232A10.441,10.441,0,0,0,30.188-397.276ZM90.1-418.064l6.075,3.455L46.908-329.115l-6.131-3.678ZM74.942-350.293a18.825,18.825,0,0,1,6.186-13.989,20.527,20.527,0,0,1,14.546-5.963,20.188,20.188,0,0,1,14.658,6.019,19.207,19.207,0,0,1,6.131,14.267,19.072,19.072,0,0,1-6.186,14.323,20.4,20.4,0,0,1-14.769,5.908,19.937,19.937,0,0,1-14.546-6.019A19.818,19.818,0,0,1,74.942-350.293Zm9.753.223a10.86,10.86,0,0,0,3.177,7.914,10.7,10.7,0,0,0,7.858,3.232,10.45,10.45,0,0,0,7.747-3.232,10.632,10.632,0,0,0,3.232-7.8,10.632,10.632,0,0,0-3.232-7.8,10.514,10.514,0,0,0-7.8-3.233,10.568,10.568,0,0,0-7.747,3.233A10.5,10.5,0,0,0,84.695-350.07Z" transform="translate(403.757 600.382)"></path></g><g id="&#x30B0;&#x30EB;&#x30FC;&#x30D7;_19505" data-name="&#x30B0;&#x30EB;&#x30FC;&#x30D7; 19505" transform="translate(-19555.611 369.563)"><g id="&#x30B0;&#x30EB;&#x30FC;&#x30D7;_19487" data-name="&#x30B0;&#x30EB;&#x30FC;&#x30D7; 19487" transform="translate(0.001 0)"><g id="&#x30B0;&#x30EB;&#x30FC;&#x30D7;_19483-3" data-name="&#x30B0;&#x30EB;&#x30FC;&#x30D7; 19483" transform="translate(0 0)"><g id="&#x30B0;&#x30EB;&#x30FC;&#x30D7;_18877-3" data-name="&#x30B0;&#x30EB;&#x30FC;&#x30D7; 18877" transform="translate(246.951)"><g id="&#x30B0;&#x30EB;&#x30FC;&#x30D7;_18876-3" data-name="&#x30B0;&#x30EB;&#x30FC;&#x30D7; 18876" transform="translate(0 20.702)"><path id="&#x30D1;&#x30B9;_33152-3" data-name="&#x30D1;&#x30B9; 33152" d="M440.444,633.764l6.292,12.749,14.07,2.044-10.181,9.924,2.4,14.013-12.584-6.616-12.584,6.616,2.4-14.013-10.181-9.924,14.07-2.044Z" transform="translate(-247.812 -633.764)" fill="#f5c04b"></path><path id="&#x30D1;&#x30B9;_33153-3" data-name="&#x30D1;&#x30B9; 33153" d="M293.4,635.88l6.292,12.749,14.07,2.044L303.577,660.6l2.4,14.013L293.4,667.994l-12.584,6.616,2.4-14.013-10.181-9.924,14.07-2.044Z" transform="translate(-273.035 -633.401)" fill="#f5c04b"></path></g><path id="&#x30D1;&#x30B9;_33154-3" data-name="&#x30D1;&#x30B9; 33154" d="M403.6,643.667l-11.805,24.8H349.862l-11.787-24.876a7.49,7.49,0,1,1,5.144-3.82l10.163,8.455,2.284-17.477a7.381,7.381,0,1,1,6.261-1.888l8.742,19.365,7.452-18.841a7.357,7.357,0,1,1,7.555.747l1.639,18.094,9.36-8.161a7.351,7.351,0,1,1,6.925,3.6Z" transform="translate(-263.371 -616.093)" fill="#f5c04b"></path></g><g id="&#x30B0;&#x30EB;&#x30FC;&#x30D7;_18912-3" data-name="&#x30B0;&#x30EB;&#x30FC;&#x30D7; 18912" transform="translate(0 63.672)"><g id="&#x30B0;&#x30EB;&#x30FC;&#x30D7;_18894-3" data-name="&#x30B0;&#x30EB;&#x30FC;&#x30D7; 18894"><g id="&#x30B0;&#x30EB;&#x30FC;&#x30D7;_18885-3" data-name="&#x30B0;&#x30EB;&#x30FC;&#x30D7; 18885" transform="translate(0 15.486)"><g id="&#x30B0;&#x30EB;&#x30FC;&#x30D7;_18878-3" data-name="&#x30B0;&#x30EB;&#x30FC;&#x30D7; 18878" transform="translate(28.135)"><path id="&#x30D1;&#x30B9;_33155-3" data-name="&#x30D1;&#x30B9; 33155" d="M186.73,683.662a34.548,34.548,0,0,1,6.609,4.968,32.121,32.121,0,0,1,4.944,5.9,24.5,24.5,0,0,1,3.29,7.8,23.117,23.117,0,0,1,.28,8.218,35.371,35.371,0,0,1-1.613,6.937,33.042,33.042,0,0,1-2.149,4.838c-.314.583-.565,1.048-.737,1.371l-.28.488a29.5,29.5,0,0,1-7.289-2.745,22.762,22.762,0,0,1-5.8-4.326,16.3,16.3,0,0,1-3.939-7.216,19.794,19.794,0,0,1-.073-8.626,55.046,55.046,0,0,1,2.89-8.241c1.123-2.824,2.158-5.141,2.839-6.781S186.73,683.662,186.73,683.662Z" transform="translate(-179.536 -683.662)" fill="#f5c04b"></path></g><g id="&#x30B0;&#x30EB;&#x30FC;&#x30D7;_18879-3" data-name="&#x30B0;&#x30EB;&#x30FC;&#x30D7; 18879" transform="translate(13.247 38.941)"><path id="&#x30D1;&#x30B9;_33156-3" data-name="&#x30D1;&#x30B9; 33156" d="M170.113,716.9a35.607,35.607,0,0,1,7.58,3.661c3.993,2.54,8.636,6.521,10.988,12.055a22.937,22.937,0,0,1,1.767,8.12,31.638,31.638,0,0,1-.313,7.228,30.873,30.873,0,0,1-2.044,7.241,30.435,30.435,0,0,1-7.818-1.5c-4.244-1.409-9.168-4.146-11.77-9.789a19.864,19.864,0,0,1-1.674-8.5,47.2,47.2,0,0,1,1.336-8.615c.655-2.965,1.1-5.446,1.4-7.186C169.938,717.892,170.113,716.9,170.113,716.9Z" transform="translate(-166.828 -716.902)" fill="#f5c04b"></path></g><g id="&#x30B0;&#x30EB;&#x30FC;&#x30D7;_18880-3" data-name="&#x30B0;&#x30EB;&#x30FC;&#x30D7; 18880" transform="translate(4.551 80.514)"><path id="&#x30D1;&#x30B9;_33157-3" data-name="&#x30D1;&#x30B9; 33157" d="M159.885,752.388a36.978,36.978,0,0,1,8.256,2.4c4.541,1.882,9.7,5.073,12.941,10.22a25.842,25.842,0,0,1,3.88,15.154,41.82,41.82,0,0,1-.409,5.471c-.2,1.357-.416,2.164-.416,2.164a30.892,30.892,0,0,1-8.113-.275c-4.509-.755-9.932-2.748-13.516-8.113-3.315-5.1-3.219-11.131-3.025-16.933l.062-2.174c.047-.691.091-1.346.132-1.96.06-1.232.11-2.3.153-3.183C159.892,753.394,159.885,752.388,159.885,752.388Z" transform="translate(-159.405 -752.388)" fill="#f5c04b"></path></g><g id="&#x30B0;&#x30EB;&#x30FC;&#x30D7;_18881-3" data-name="&#x30B0;&#x30EB;&#x30FC;&#x30D7; 18881" transform="translate(0 124.127)"><path id="&#x30D1;&#x30B9;_33158-3" data-name="&#x30D1;&#x30B9; 33158" d="M155.52,789.618a37.112,37.112,0,0,1,8.706,1.066c4.809,1.158,10.71,3.544,14.848,8.207a27.855,27.855,0,0,1,4.609,7.389A28.316,28.316,0,0,1,184.943,810a33.494,33.494,0,0,1,.859,3.5,42.849,42.849,0,0,1,.626,5.568c.093,1.4.056,2.246.056,2.246a31.357,31.357,0,0,1-8.168,1.364c-4.633.152-10.618-.742-15.128-5.469-4.472-4.582-5.587-10.951-6.29-17.043-.333-3.19-.709-5.828-.99-7.671C155.688,790.66,155.52,789.618,155.52,789.618Z" transform="translate(-155.52 -789.616)" fill="#f5c04b"></path></g><g id="&#x30B0;&#x30EB;&#x30FC;&#x30D7;_18882-3" data-name="&#x30B0;&#x30EB;&#x30FC;&#x30D7; 18882" transform="translate(3.374 169.327)"><path id="&#x30D1;&#x30B9;_33159-3" data-name="&#x30D1;&#x30B9; 33159" d="M158.4,828.944a37.641,37.641,0,0,1,8.928-.724,34.919,34.919,0,0,1,8.235,1.218,25.063,25.063,0,0,1,8.3,3.929,28.16,28.16,0,0,1,6.156,6.409,38.212,38.212,0,0,1,3.653,6.751,51.253,51.253,0,0,1,1.846,5.4c.369,1.379.5,2.238.5,2.238a32.136,32.136,0,0,1-7.855,3.122c-4.6,1.154-10.652,1.518-16.275-2.213a20.639,20.639,0,0,1-6.244-7.007,48.706,48.706,0,0,1-3.659-8.772C159.9,833.028,158.4,828.944,158.4,828.944Z" transform="translate(-158.4 -828.198)" fill="#f5c04b"></path></g><g id="&#x30B0;&#x30EB;&#x30FC;&#x30D7;_18883-3" data-name="&#x30B0;&#x30EB;&#x30FC;&#x30D7; 18883" transform="translate(16.563 212.18)"><path id="&#x30D1;&#x30B9;_33160-3" data-name="&#x30D1;&#x30B9; 33160" d="M169.658,868.069a38.5,38.5,0,0,1,8.755-2.659c5.149-.954,11.636-1.106,17.606,1.536a31.4,31.4,0,0,1,12.618,10.97A40.074,40.074,0,0,1,212.652,885a32.829,32.829,0,0,1-7.15,4.822c-4.329,2.15-10.338,3.867-16.7,1.341a20.738,20.738,0,0,1-7.761-5.608,50.252,50.252,0,0,1-5.544-7.944c-1.719-2.9-3.2-5.275-4.2-6.952C170.279,869,169.658,868.069,169.658,868.069Z" transform="translate(-169.658 -864.777)" fill="#f5c04b"></path></g><g id="&#x30B0;&#x30EB;&#x30FC;&#x30D7;_18884-3" data-name="&#x30B0;&#x30EB;&#x30FC;&#x30D7; 18884" transform="translate(39.606 250.472)"><path id="&#x30D1;&#x30B9;_33161-3" data-name="&#x30D1;&#x30B9; 33161" d="M189.327,904.841a39.147,39.147,0,0,1,8.139-4.561c4.889-2.052,11.393-3.67,17.892-2.323a33.008,33.008,0,0,1,15.089,8.082,53.724,53.724,0,0,1,4.242,4.233c1,1.121,1.6,1.869,1.6,1.869s-.512.839-1.415,2.15a22.848,22.848,0,0,1-4.184,4.643c-3.8,3.21-9.557,6.224-16.724,5.029-6.966-1.171-12.139-5.978-16.675-10.829C192.532,908.058,189.327,904.841,189.327,904.841Z" transform="translate(-189.327 -897.463)" fill="#f5c04b"></path></g></g><g id="&#x30B0;&#x30EB;&#x30FC;&#x30D7;_18893-3" data-name="&#x30B0;&#x30EB;&#x30FC;&#x30D7; 18893" transform="translate(38.89 43.628)"><g id="&#x30B0;&#x30EB;&#x30FC;&#x30D7;_18886-3" data-name="&#x30B0;&#x30EB;&#x30FC;&#x30D7; 18886" transform="translate(16.816)"><path id="&#x30D1;&#x30B9;_33162-3" data-name="&#x30D1;&#x30B9; 33162" d="M239.07,713.518a43.367,43.367,0,0,0-7.363-3.7,31.69,31.69,0,0,0-7.3-1.941,17.717,17.717,0,0,0-8.005.594,18.824,18.824,0,0,0-6.618,3.9,21.167,21.167,0,0,0-4.089,5.3,30.014,30.014,0,0,0-2.1,4.558,10.219,10.219,0,0,0-.411,1.42l-.111.528a32.2,32.2,0,0,0,7.135,3.148,28.079,28.079,0,0,0,6.979,1.252,19.852,19.852,0,0,0,7.665-1.017,14.12,14.12,0,0,0,5.681-3.744,29.759,29.759,0,0,0,3.975-4.891,29.826,29.826,0,0,1,3.224-4.022C238.566,714,239.07,713.518,239.07,713.518Z" transform="translate(-203.07 -707.684)" fill="#f5c04b"></path></g><g id="&#x30B0;&#x30EB;&#x30FC;&#x30D7;_18887-3" data-name="&#x30B0;&#x30EB;&#x30FC;&#x30D7; 18887" transform="translate(5.664 30.725)"><path id="&#x30D1;&#x30B9;_33163-3" data-name="&#x30D1;&#x30B9; 33163" d="M227.908,736.716a43.686,43.686,0,0,0-8.121-2.253c-4.736-.852-10.625-1.022-15.572,1.728a19.744,19.744,0,0,0-5.991,5.185,23.941,23.941,0,0,0-3.117,6.115,28.211,28.211,0,0,0-1.556,7.029,32.463,32.463,0,0,0,7.711,1.925c4.456.571,10.122.363,14.847-2.411a14.677,14.677,0,0,0,5.064-4.935,38.283,38.283,0,0,0,3.155-5.823c.944-2.063,1.8-3.724,2.436-4.862C227.471,737.317,227.908,736.716,227.908,736.716Z" transform="translate(-193.551 -733.91)" fill="#f5c04b"></path></g><g id="&#x30B0;&#x30EB;&#x30FC;&#x30D7;_18888-3" data-name="&#x30B0;&#x30EB;&#x30FC;&#x30D7; 18888" transform="translate(0 63.762)"><path id="&#x30D1;&#x30B9;_33164-3" data-name="&#x30D1;&#x30B9; 33164" d="M220.692,763a43.614,43.614,0,0,0-8.542-.888c-4.823-.025-10.958.771-15.54,4.374-4.464,3.623-6.511,8.769-7.43,12.927a26.353,26.353,0,0,0-.464,5.232,20.483,20.483,0,0,0,.1,2.1,33.256,33.256,0,0,0,8.08.723c4.575-.126,10.226-1.222,14.466-4.692,4.277-3.429,5.6-7.99,6.675-12.41q.221-.863.423-1.647l.508-1.441c.327-.9.628-1.674.883-2.308C220.362,763.7,220.692,763,220.692,763Z" transform="translate(-188.716 -762.111)" fill="#f5c04b"></path></g><g id="&#x30B0;&#x30EB;&#x30FC;&#x30D7;_18889-3" data-name="&#x30B0;&#x30EB;&#x30FC;&#x30D7; 18889" transform="translate(0.056 97.364)"><path id="&#x30D1;&#x30B9;_33165-3" data-name="&#x30D1;&#x30B9; 33165" d="M217.365,790.831a45.451,45.451,0,0,0-8.752.506c-4.934.756-10.807,2.545-14.8,6.92a18.062,18.062,0,0,0-4.027,7.13,25.305,25.305,0,0,0-.843,3.662,27.6,27.6,0,0,0-.178,3.42,26.743,26.743,0,0,0,.524,5.328,21.207,21.207,0,0,0,.556,2.077,34.176,34.176,0,0,0,8.232-.911c4.577-1.052,9.858-3.258,13.566-7.535,3.491-4.12,3.936-8.647,4.364-13.059.262-2.3.568-4.186.822-5.492C217.143,791.564,217.365,790.831,217.365,790.831Z" transform="translate(-188.764 -790.793)" fill="#f5c04b"></path></g><g id="&#x30B0;&#x30EB;&#x30FC;&#x30D7;_18890-3" data-name="&#x30B0;&#x30EB;&#x30FC;&#x30D7; 18890" transform="translate(6.896 129.552)"><path id="&#x30D1;&#x30B9;_33166-3" data-name="&#x30D1;&#x30B9; 33166" d="M219.222,818.268a46.7,46.7,0,0,0-8.638,2.3,34.327,34.327,0,0,0-7.33,3.693,20.005,20.005,0,0,0-6.033,6.266c-3.086,5.2-2.978,10.958-2.029,15.254a24.932,24.932,0,0,0,1.7,5.2,21.468,21.468,0,0,0,.969,1.967,34.734,34.734,0,0,0,8.01-2.682c4.325-2.03,9.228-5.414,11.912-10.423a16.054,16.054,0,0,0,1.979-7.084,41.333,41.333,0,0,0-.349-6.784A40.01,40.01,0,0,1,219.222,818.268Z" transform="translate(-194.602 -818.268)" fill="#f5c04b"></path></g><g id="&#x30B0;&#x30EB;&#x30FC;&#x30D7;_18891-3" data-name="&#x30B0;&#x30EB;&#x30FC;&#x30D7; 18891" transform="translate(20.908 160.764)"><path id="&#x30D1;&#x30B9;_33167-3" data-name="&#x30D1;&#x30B9; 33167" d="M226.771,844.91a47.548,47.548,0,0,0-8.107,4.162c-4.3,2.76-9.277,7-11.155,12.834-1.954,5.867-.562,11.582,1.3,15.679a26.333,26.333,0,0,0,4.242,6.568,35.377,35.377,0,0,0,7.4-4.42c3.875-2.971,7.968-7.375,9.605-12.991a16.642,16.642,0,0,0,.409-7.493,41.488,41.488,0,0,0-1.821-6.7,42.89,42.89,0,0,1-1.489-5.521C226.881,845.682,226.771,844.91,226.771,844.91Z" transform="translate(-206.563 -844.91)" fill="#f5c04b"></path></g><g id="&#x30B0;&#x30EB;&#x30FC;&#x30D7;_18892-3" data-name="&#x30B0;&#x30EB;&#x30FC;&#x30D7; 18892" transform="translate(41.918 189.788)"><path id="&#x30D1;&#x30B9;_33168-3" data-name="&#x30D1;&#x30B9; 33168" d="M240.074,869.685a48.723,48.723,0,0,0-7.176,5.925c-3.718,3.716-7.683,8.976-8.307,15.225a21.531,21.531,0,0,0,4.822,15.251,25.92,25.92,0,0,0,3.943,4.046,14.687,14.687,0,0,0,1.792,1.294,17.572,17.572,0,0,0,1.864-1.749c1.1-1.136,2.515-2.822,4.1-4.719,3.1-3.866,6.268-9.034,6.754-14.739.48-5.5-1.948-9.459-4.3-13.4A42.034,42.034,0,0,1,240.074,869.685Z" transform="translate(-224.497 -869.685)" fill="#f5c04b"></path></g></g><path id="&#x30D1;&#x30B9;_33169-3" data-name="&#x30D1;&#x30B9; 33169" d="M236.2,670.443s-.314,1.209-.74,3.093l-.705,3.327c-.246,1.236-.517,2.6-.8,4.034-.432,2.041-.7,4.337-1.319,6.407a13.924,13.924,0,0,1-2.912,5.88,18.839,18.839,0,0,1-5.94,4.765,26.758,26.758,0,0,1-6.284,2.564,47.563,47.563,0,0,1-5.1,1.055c-1.284.188-2.082.22-2.082.22a21.815,21.815,0,0,1-.849-2.2,24.922,24.922,0,0,1-1.191-5.61,24.311,24.311,0,0,1,.363-7.622,19.141,19.141,0,0,1,3.886-7.832,17.557,17.557,0,0,1,6.944-4.886,29.584,29.584,0,0,1,3.857-1.222c1.329-.3,2.655-.521,3.95-.718C232.718,670.887,236.2,670.443,236.2,670.443Z" transform="translate(-146.496 -670.443)" fill="#f5c04b"></path></g><g id="&#x30B0;&#x30EB;&#x30FC;&#x30D7;_18911-3" data-name="&#x30B0;&#x30EB;&#x30FC;&#x30D7; 18911" transform="translate(602.661 0.226)"><g id="&#x30B0;&#x30EB;&#x30FC;&#x30D7;_18902-3" data-name="&#x30B0;&#x30EB;&#x30FC;&#x30D7; 18902" transform="translate(0 43.402)"><g id="&#x30B0;&#x30EB;&#x30FC;&#x30D7;_18895-3" data-name="&#x30B0;&#x30EB;&#x30FC;&#x30D7; 18895" transform="translate(12.53)"><path id="&#x30D1;&#x30B9;_33170-3" data-name="&#x30D1;&#x30B9; 33170" d="M494.079,713.518a43.355,43.355,0,0,1,7.364-3.7,31.664,31.664,0,0,1,7.3-1.941,17.721,17.721,0,0,1,8.006.594,18.818,18.818,0,0,1,6.617,3.9,21.167,21.167,0,0,1,4.089,5.3,29.784,29.784,0,0,1,2.1,4.558,10.429,10.429,0,0,1,.412,1.42l.111.528a32.226,32.226,0,0,1-7.136,3.148,28.08,28.08,0,0,1-6.979,1.252,19.846,19.846,0,0,1-7.664-1.017,14.12,14.12,0,0,1-5.681-3.744,29.643,29.643,0,0,1-3.975-4.891,29.91,29.91,0,0,0-3.225-4.022C494.583,714,494.079,713.518,494.079,713.518Z" transform="translate(-494.079 -707.684)" fill="#f5c04b"></path></g><g id="&#x30B0;&#x30EB;&#x30FC;&#x30D7;_18896-3" data-name="&#x30B0;&#x30EB;&#x30FC;&#x30D7; 18896" transform="translate(25.325 30.725)"><path id="&#x30D1;&#x30B9;_33171-3" data-name="&#x30D1;&#x30B9; 33171" d="M505,736.716a43.654,43.654,0,0,1,8.12-2.253c4.736-.852,10.625-1.022,15.573,1.728a19.741,19.741,0,0,1,5.99,5.185,23.94,23.94,0,0,1,3.117,6.115,28.211,28.211,0,0,1,1.556,7.029,32.442,32.442,0,0,1-7.71,1.925c-4.456.571-10.122.363-14.848-2.411a14.676,14.676,0,0,1-5.064-4.935,38.282,38.282,0,0,1-3.155-5.823c-.944-2.063-1.8-3.724-2.436-4.862C505.438,737.317,505,736.716,505,736.716Z" transform="translate(-505.001 -733.91)" fill="#f5c04b"></path></g><g id="&#x30B0;&#x30EB;&#x30FC;&#x30D7;_18897-3" data-name="&#x30B0;&#x30EB;&#x30FC;&#x30D7; 18897" transform="translate(33.37 63.762)"><path id="&#x30D1;&#x30B9;_33172-3" data-name="&#x30D1;&#x30B9; 33172" d="M511.868,763a43.613,43.613,0,0,1,8.542-.888c4.823-.025,10.958.771,15.54,4.374,4.465,3.623,6.511,8.769,7.431,12.927a26.349,26.349,0,0,1,.463,5.232,20.511,20.511,0,0,1-.1,2.1,33.256,33.256,0,0,1-8.08.723c-4.574-.126-10.226-1.222-14.466-4.692-4.276-3.429-5.6-7.99-6.675-12.41q-.221-.863-.422-1.647-.271-.763-.51-1.441c-.327-.9-.628-1.674-.882-2.308C512.2,763.7,511.868,763,511.868,763Z" transform="translate(-511.868 -762.111)" fill="#f5c04b"></path></g><g id="&#x30B0;&#x30EB;&#x30FC;&#x30D7;_18898-3" data-name="&#x30B0;&#x30EB;&#x30FC;&#x30D7; 18898" transform="translate(36.689 97.364)"><path id="&#x30D1;&#x30B9;_33173-3" data-name="&#x30D1;&#x30B9; 33173" d="M514.7,790.831a45.464,45.464,0,0,1,8.754.506c4.933.756,10.806,2.545,14.8,6.92a18.074,18.074,0,0,1,4.025,7.13,25.151,25.151,0,0,1,.843,3.662,27.645,27.645,0,0,1,.179,3.42,26.845,26.845,0,0,1-.524,5.328,21.4,21.4,0,0,1-.558,2.077,34.178,34.178,0,0,1-8.232-.911c-4.577-1.052-9.858-3.258-13.566-7.535-3.491-4.12-3.935-8.647-4.364-13.059-.262-2.3-.568-4.186-.821-5.492C514.922,791.564,514.7,790.831,514.7,790.831Z" transform="translate(-514.701 -790.793)" fill="#f5c04b"></path></g><g id="&#x30B0;&#x30EB;&#x30FC;&#x30D7;_18899-3" data-name="&#x30B0;&#x30EB;&#x30FC;&#x30D7; 18899" transform="translate(33.238 129.552)"><path id="&#x30D1;&#x30B9;_33174-3" data-name="&#x30D1;&#x30B9; 33174" d="M512.349,818.268a46.728,46.728,0,0,1,8.638,2.3,34.343,34.343,0,0,1,7.329,3.693,20,20,0,0,1,6.033,6.266c3.087,5.2,2.978,10.958,2.03,15.254a24.927,24.927,0,0,1-1.7,5.2,21.47,21.47,0,0,1-.969,1.967,34.734,34.734,0,0,1-8.01-2.682c-4.324-2.03-9.228-5.414-11.912-10.423a16.071,16.071,0,0,1-1.979-7.084,41.472,41.472,0,0,1,.349-6.784A39.966,39.966,0,0,0,512.349,818.268Z" transform="translate(-511.756 -818.268)" fill="#f5c04b"></path></g><g id="&#x30B0;&#x30EB;&#x30FC;&#x30D7;_18900-3" data-name="&#x30B0;&#x30EB;&#x30FC;&#x30D7; 18900" transform="translate(20.285 160.764)"><path id="&#x30D1;&#x30B9;_33175-3" data-name="&#x30D1;&#x30B9; 33175" d="M504.645,844.91a47.566,47.566,0,0,1,8.106,4.162c4.3,2.76,9.278,7,11.155,12.834,1.954,5.867.562,11.582-1.3,15.679a26.354,26.354,0,0,1-4.243,6.568,35.378,35.378,0,0,1-7.4-4.42c-3.875-2.971-7.967-7.375-9.605-12.991a16.66,16.66,0,0,1-.409-7.493,41.623,41.623,0,0,1,1.821-6.7,42.892,42.892,0,0,0,1.489-5.521C504.533,845.682,504.645,844.91,504.645,844.91Z" transform="translate(-500.699 -844.91)" fill="#f5c04b"></path></g><g id="&#x30B0;&#x30EB;&#x30FC;&#x30D7;_18901-3" data-name="&#x30B0;&#x30EB;&#x30FC;&#x30D7; 18901" transform="translate(0 189.788)"><path id="&#x30D1;&#x30B9;_33176-3" data-name="&#x30D1;&#x30B9; 33176" d="M491.234,869.685a48.722,48.722,0,0,1,7.176,5.925c3.718,3.716,7.684,8.976,8.307,15.225a21.525,21.525,0,0,1-4.822,15.251,25.918,25.918,0,0,1-3.943,4.046,14.583,14.583,0,0,1-1.792,1.294,17.562,17.562,0,0,1-1.864-1.749c-1.1-1.136-2.515-2.822-4.1-4.719-3.1-3.866-6.269-9.034-6.755-14.739-.479-5.5,1.948-9.459,4.3-13.4A42.066,42.066,0,0,0,491.234,869.685Z" transform="translate(-483.384 -869.685)" fill="#f5c04b"></path></g></g><g id="&#x30B0;&#x30EB;&#x30FC;&#x30D7;_18910-3" data-name="&#x30B0;&#x30EB;&#x30FC;&#x30D7; 18910" transform="translate(17.669 15.26)"><g id="&#x30B0;&#x30EB;&#x30FC;&#x30D7;_18903-3" data-name="&#x30B0;&#x30EB;&#x30FC;&#x30D7; 18903" transform="translate(35.875)"><path id="&#x30D1;&#x30B9;_33177-3" data-name="&#x30D1;&#x30B9; 33177" d="M544.45,683.662a34.546,34.546,0,0,0-6.609,4.968,32.173,32.173,0,0,0-4.944,5.9,24.523,24.523,0,0,0-3.29,7.8,23.174,23.174,0,0,0-.28,8.218,35.543,35.543,0,0,0,1.613,6.937,33.041,33.041,0,0,0,2.15,4.838c.313.583.564,1.048.736,1.371l.28.488a29.482,29.482,0,0,0,7.289-2.745,22.761,22.761,0,0,0,5.8-4.326,16.294,16.294,0,0,0,3.939-7.216,19.76,19.76,0,0,0,.073-8.626,54.906,54.906,0,0,0-2.89-8.241c-1.122-2.824-2.158-5.141-2.837-6.781S544.45,683.662,544.45,683.662Z" transform="translate(-529.088 -683.662)" fill="#f5c04b"></path></g><g id="&#x30B0;&#x30EB;&#x30FC;&#x30D7;_18904-3" data-name="&#x30B0;&#x30EB;&#x30FC;&#x30D7; 18904" transform="translate(49.622 38.941)"><path id="&#x30D1;&#x30B9;_33178-3" data-name="&#x30D1;&#x30B9; 33178" d="M561.234,716.9a35.585,35.585,0,0,0-7.579,3.661c-3.994,2.54-8.636,6.521-10.989,12.055a22.967,22.967,0,0,0-1.767,8.12,31.643,31.643,0,0,0,.313,7.228,30.91,30.91,0,0,0,2.045,7.241,30.443,30.443,0,0,0,7.818-1.5c4.244-1.409,9.167-4.146,11.769-9.789a19.83,19.83,0,0,0,1.674-8.5,47.206,47.206,0,0,0-1.336-8.615c-.655-2.965-1.1-5.446-1.4-7.186C561.409,717.892,561.234,716.9,561.234,716.9Z" transform="translate(-540.823 -716.902)" fill="#f5c04b"></path></g><g id="&#x30B0;&#x30EB;&#x30FC;&#x30D7;_18905-3" data-name="&#x30B0;&#x30EB;&#x30FC;&#x30D7; 18905" transform="translate(56.436 80.514)"><path id="&#x30D1;&#x30B9;_33179-3" data-name="&#x30D1;&#x30B9; 33179" d="M571.739,752.388a37,37,0,0,0-8.257,2.4c-4.541,1.882-9.7,5.073-12.94,10.22a25.835,25.835,0,0,0-3.881,15.154,41.8,41.8,0,0,0,.409,5.471c.2,1.357.416,2.164.416,2.164a30.9,30.9,0,0,0,8.114-.275c4.508-.755,9.931-2.748,13.515-8.113,3.315-5.1,3.221-11.131,3.025-16.933l-.062-2.174c-.047-.691-.09-1.346-.132-1.96-.059-1.232-.11-2.3-.152-3.183C571.731,753.394,571.739,752.388,571.739,752.388Z" transform="translate(-546.64 -752.388)" fill="#f5c04b"></path></g><g id="&#x30B0;&#x30EB;&#x30FC;&#x30D7;_18906-3" data-name="&#x30B0;&#x30EB;&#x30FC;&#x30D7; 18906" transform="translate(55.596 124.127)"><path id="&#x30D1;&#x30B9;_33180-3" data-name="&#x30D1;&#x30B9; 33180" d="M576.892,789.618a37.112,37.112,0,0,0-8.706,1.066c-4.809,1.158-10.71,3.544-14.848,8.207a27.885,27.885,0,0,0-4.609,7.389A28.32,28.32,0,0,0,547.47,810a34.081,34.081,0,0,0-.859,3.5,43.054,43.054,0,0,0-.625,5.568c-.091,1.4-.056,2.246-.056,2.246a31.358,31.358,0,0,0,8.168,1.364c4.633.152,10.619-.742,15.128-5.469,4.472-4.582,5.588-10.951,6.291-17.043.332-3.19.708-5.828.989-7.671C576.725,790.66,576.892,789.618,576.892,789.618Z" transform="translate(-545.922 -789.616)" fill="#f5c04b"></path></g><g id="&#x30B0;&#x30EB;&#x30FC;&#x30D7;_18907-3" data-name="&#x30B0;&#x30EB;&#x30FC;&#x30D7; 18907" transform="translate(45.57 169.327)"><path id="&#x30D1;&#x30B9;_33181-3" data-name="&#x30D1;&#x30B9; 33181" d="M574.987,828.944a37.656,37.656,0,0,0-8.929-.724,34.911,34.911,0,0,0-8.234,1.218,25.058,25.058,0,0,0-8.3,3.929,28.156,28.156,0,0,0-6.156,6.409,38.207,38.207,0,0,0-3.653,6.751,51.469,51.469,0,0,0-1.846,5.4c-.369,1.379-.5,2.238-.5,2.238a32.16,32.16,0,0,0,7.855,3.122c4.6,1.154,10.651,1.518,16.275-2.213a20.642,20.642,0,0,0,6.244-7.007A48.7,48.7,0,0,0,571.4,839.3C573.49,833.028,574.987,828.944,574.987,828.944Z" transform="translate(-537.364 -828.198)" fill="#f5c04b"></path></g><g id="&#x30B0;&#x30EB;&#x30FC;&#x30D7;_18908-3" data-name="&#x30B0;&#x30EB;&#x30FC;&#x30D7; 18908" transform="translate(27.01 212.18)"><path id="&#x30D1;&#x30B9;_33182-3" data-name="&#x30D1;&#x30B9; 33182" d="M564.515,868.069a38.5,38.5,0,0,0-8.754-2.659c-5.149-.954-11.637-1.106-17.607,1.536a31.407,31.407,0,0,0-12.618,10.97A40.072,40.072,0,0,0,521.521,885a32.831,32.831,0,0,0,7.15,4.822c4.33,2.15,10.338,3.867,16.7,1.341a20.742,20.742,0,0,0,7.76-5.608,50.255,50.255,0,0,0,5.545-7.944c1.717-2.9,3.195-5.275,4.2-6.952C563.894,869,564.515,868.069,564.515,868.069Z" transform="translate(-521.521 -864.777)" fill="#f5c04b"></path></g><g id="&#x30B0;&#x30EB;&#x30FC;&#x30D7;_18909-3" data-name="&#x30B0;&#x30EB;&#x30FC;&#x30D7; 18909" transform="translate(0 250.472)"><path id="&#x30D1;&#x30B9;_33183-3" data-name="&#x30D1;&#x30B9; 33183" d="M545.427,904.841a39.156,39.156,0,0,0-8.137-4.561c-4.889-2.052-11.393-3.67-17.893-2.323a33.009,33.009,0,0,0-15.089,8.082,53.951,53.951,0,0,0-4.242,4.233c-1,1.121-1.6,1.869-1.6,1.869s.511.839,1.414,2.15a22.884,22.884,0,0,0,4.184,4.643c3.8,3.21,9.557,6.224,16.725,5.029,6.965-1.171,12.138-5.978,16.674-10.829C542.221,908.058,545.427,904.841,545.427,904.841Z" transform="translate(-498.466 -897.463)" fill="#f5c04b"></path></g></g><path id="&#x30D1;&#x30B9;_33184-3" data-name="&#x30D1;&#x30B9; 33184" d="M495.64,670.636s1.214.029,3.225.3c.986.146,2.166.348,3.5.615s2.732.644,4.254,1.071a42.172,42.172,0,0,1,6.787,2.444,16.638,16.638,0,0,1,5.879,4.738,22.008,22.008,0,0,1,3.47,7.876,25.646,25.646,0,0,1,.273,7.251,22.8,22.8,0,0,1-1.1,5.176,19.124,19.124,0,0,1-.77,1.987s-.888-.036-2.294-.232a50.612,50.612,0,0,1-5.517-1.085,27.509,27.509,0,0,1-6.556-2.634,16.7,16.7,0,0,1-5.753-4.959,16.882,16.882,0,0,1-2.855-6.739,32.722,32.722,0,0,1-.531-3.649c-.142-1.208-.247-2.437-.357-3.674a42.954,42.954,0,0,0-.993-6.18C495.94,671.462,495.64,670.636,495.64,670.636Z" transform="translate(-481.282 -670.636)" fill="#f5c04b"></path></g></g></g></g></g><path id="&#x30D1;&#x30B9;_33800" data-name="&#x30D1;&#x30B9; 33800" d="M11.328-31.248a37.459,37.459,0,0,1-6.672-.384L4.7-23.424a49.121,49.121,0,0,1,6.48-.288h6a25.437,25.437,0,0,1-2.4,8.208c-2.4,4.848-6.1,8.256-12.48,11.616a27.746,27.746,0,0,1,6.24,7.3C18.288-3.024,22.848-9.264,24.96-18.96a41.15,41.15,0,0,0,.72-4.8h9.168a110.88,110.88,0,0,1-.912,13.392c-.624,4.176-1.2,4.944-3.5,4.944a27.5,27.5,0,0,1-6.24-.96,23.625,23.625,0,0,1,1.632,8.448,56.218,56.218,0,0,0,6.288.384c5.328,0,7.632-1.536,9.024-6,.96-3.168,1.68-11.184,2.016-21.456.048-2.208.144-2.592.672-3.552L40.08-31.824a6.941,6.941,0,0,1-3.216.528H26.4c.1-1.152.1-1.152.144-2.448.288-4.56.288-4.7.528-5.808l-9.024-.24a13.432,13.432,0,0,1,.144,2.4c0,1.488-.1,4.272-.24,6.144ZM58.512-38.4a48.058,48.058,0,0,1,.288,6.336v9.5a49.8,49.8,0,0,1-.288,7.008h9.312a62.837,62.837,0,0,1-.24-6.864v-9.552a57.808,57.808,0,0,1,.24-6.432Zm22.32,0a46.5,46.5,0,0,1,.288,6.576v4.992a81.51,81.51,0,0,1-.528,10.176c-.768,4.224-2.928,7.056-7.152,9.312-2.448,1.3-4.9,2.064-9.5,2.928a21.957,21.957,0,0,1,4.9,8.208A40.2,40.2,0,0,0,78.816-.144C84.1-3.168,87.36-7.1,88.8-12.336c.72-2.784,1.1-7.392,1.1-13.968V-31.92c0-3.072.048-3.792.24-6.48Zm37.152,7.632-6.672,1.008a48.231,48.231,0,0,1-7.056.768l1.3,8.208a56.977,56.977,0,0,1,7.152-1.344l6.624-1.056,1.1,6.048-9.168,1.44a56.2,56.2,0,0,1-6.864.768l1.3,8.16a51.305,51.305,0,0,1,6.576-1.344l9.5-1.488,1.248,6.912a35.1,35.1,0,0,1,.864,6.672l9.12-1.488a42.785,42.785,0,0,1-1.44-6.432l-1.344-6.96,9.072-1.392c4.032-.576,4.032-.576,6.768-.864l-1.44-8.112a44.729,44.729,0,0,1-6.912,1.488l-8.88,1.344L127.68-24.48l7.488-1.152c5.184-.768,5.184-.768,6.816-.912l-1.344-8.064a45.728,45.728,0,0,1-6.864,1.392l-7.488,1.152-.528-2.64a39.125,39.125,0,0,1-.672-5.328l-8.832,1.344a30.912,30.912,0,0,1,1.248,5.424ZM183.6-5.52c.672-4.32,1.44-9.5,1.872-12.72.624-4.7.624-4.7,1.248-5.9l-3.648-3.024a5.374,5.374,0,0,1-2.736.528H168.72a44.231,44.231,0,0,1-6.432-.288v7.3c1.584-.144,3.024-.192,6.24-.192h9.216c-.672,6.288-.912,7.872-2.064,14.3H163.824a42.287,42.287,0,0,1-6.432-.288v7.3c1.728-.144,3.312-.192,6.432-.192h22.464c2.448,0,4.752.048,6.336.192v-7.3a54.773,54.773,0,0,1-6.288.288Zm24.816-25.2a62.672,62.672,0,0,1,6.96-.24h15.552c3.312,0,5.568.1,7.392.24v-8.064a46.035,46.035,0,0,1-7.536.384H215.472a43.768,43.768,0,0,1-7.056-.384Zm-3.984,12a71.986,71.986,0,0,1,7.632-.288h20.784a20.883,20.883,0,0,1-7.392,9.6C222-6.816,218.544-5.28,212.784-3.792A26.76,26.76,0,0,1,218.16,4.08c6.576-2.544,10.032-4.416,13.68-7.488,4.7-3.936,8.16-9.312,10.656-16.464A9.626,9.626,0,0,1,243.84-22.9L240.1-26.928c-1.2.48-1.536.528-3.84.528h-24.1a50.821,50.821,0,0,1-7.728-.384Zm61.584-20.832a42.632,42.632,0,0,1-1.872,8.592A220.543,220.543,0,0,1,256.176-7.1a8.89,8.89,0,0,1-1.2.048l-1.488.048c-.528.048-.912.048-1.2.048-.24,0-.624,0-1.536-.048L252,1.968a25.2,25.2,0,0,1,2.64-.432L265.632.48c7.44-.768,12.336-1.44,19.2-2.64a36.61,36.61,0,0,1,1.776,5.376L294.816-.96A103.458,103.458,0,0,0,283.392-23.9l-7.536,2.88A79.14,79.14,0,0,1,281.9-9.6,147.17,147.17,0,0,1,265.44-7.728c3.12-7.968,5.184-14.064,8.928-26.5a19.124,19.124,0,0,1,1.248-3.552ZM324.768-6.816h-1.344v-3.36a30.238,30.238,0,0,1,.1-3.552h-4.608a34.84,34.84,0,0,1,.144,3.552v7.008a38.635,38.635,0,0,1-.144,3.984h5.232V-1.056h7.824a17.264,17.264,0,0,1,.864,4.944c1.152.1,2.736.144,3.888.144a11.862,11.862,0,0,0,4.944-.672c1.488-.72,2.16-2.064,2.16-4.32V-16.032a39.589,39.589,0,0,1,.24-5.376,55.848,55.848,0,0,1-5.712.192h-7.68v-1.728h9.312a49.076,49.076,0,0,1,5.568.24v-6.768a36.069,36.069,0,0,1-5.568.24h-2.64v-2.256h2.112c2.016,0,3.744.1,4.848.192v-6.768a44.542,44.542,0,0,1-4.944.24h-2.016a19.162,19.162,0,0,1,.24-2.928h-7.3a18.942,18.942,0,0,1,.192,2.928h-6.048a14.282,14.282,0,0,1,.192-2.928h-7.3a15.939,15.939,0,0,1,.24,2.928H316.56a42.044,42.044,0,0,1-4.944-.24v2.16a49.691,49.691,0,0,0-6.1-4.8l-4.9,4.7a39.776,39.776,0,0,1,7.392,6.72l3.6-4.032V-31.3a43.076,43.076,0,0,1,4.752-.192h1.2v2.256H315.6a44.446,44.446,0,0,1-5.28-.24v6.1a32.164,32.164,0,0,0-5.52-4.9l-5.088,4.848a40.958,40.958,0,0,1,7.152,6.672l4.32-4.464c.1,1.2.144,2.112.144,3.792V-1.488a46.127,46.127,0,0,1-.288,5.76H317.9a52.01,52.01,0,0,1-.192-5.376V-15.216h7.056Zm5.136,0v-8.4h7.248V-3.36c0,.768-.192.912-1.056.912h-.432c-.048-.816-.048-1.152-.048-2.256v-5.424a19.926,19.926,0,0,1,.144-3.6h-4.608a32.686,32.686,0,0,1,.1,3.6v3.312Zm-18.1-14.976-.912-.96a43.6,43.6,0,0,1,4.944-.192h8.112v1.728h-9.5a29.029,29.029,0,0,1-3.12-.144Zm12.624-7.44v-2.256h6.048v2.256Zm-19.44,13.68c-1.392,6.768-3.072,11.52-5.088,14.3l6.24,5.616a10.243,10.243,0,0,1,.624-1.824,102.456,102.456,0,0,0,4.032-14.16ZM370.608-5.9A14.342,14.342,0,0,1,364.8-12.72c.288-1.152.432-1.824.672-2.88.288-1.584.432-2.016.576-2.688l-7.392-1.344c-.048,3.84-1.68,9.12-4.128,13.392a19.957,19.957,0,0,1-4.176,5.376,27.308,27.308,0,0,1,5.664,5.424,35.087,35.087,0,0,0,6.048-9.5,19.024,19.024,0,0,0,8.208,6.816c3.264,1.3,8.544,1.968,15.744,1.968,2.3,0,5.28-.1,8.16-.192A24.718,24.718,0,0,1,396-3.888c-3.888.288-7.008.432-10.416.432-2.448,0-5.616-.144-7.728-.336V-9.7h9.312a44.389,44.389,0,0,1,5.472.24v-7.1a37.367,37.367,0,0,1-5.472.24h-9.312v-4.8h8.016a46.742,46.742,0,0,1,4.848.192,38.974,38.974,0,0,1-.192-4.512v-9.648a35.946,35.946,0,0,1,.192-4.32,49.461,49.461,0,0,1-5.472.192H361.776a52.92,52.92,0,0,1-5.472-.192,37.519,37.519,0,0,1,.192,4.32v9.648a41.164,41.164,0,0,1-.192,4.512,46.153,46.153,0,0,1,4.848-.192h9.456ZM383.232-32.5V-27.5h-19.44V-32.5Zm55.44,17.424c-1.248.1-2.3.144-4.656.144H417.792a50.59,50.59,0,0,1-5.472-.192v6c1.3-.1,2.928-.144,4.992-.144h2.112l-5.04,2.112c3.36,2.784,3.36,2.784,4.608,3.744A51.3,51.3,0,0,1,409.008-2.4c1.68-5.568,2.352-10.992,2.544-21.12h4.9v3.648a29.7,29.7,0,0,1-.144,3.216c.912-.048,1.968-.048,3.168-.048H435.5c1.44,0,2.064,0,2.448.048h.624a29.091,29.091,0,0,1-.144-3.216V-23.52h3.408a28.139,28.139,0,0,1,4.08.192v-6.336a34.894,34.894,0,0,1-4.176.192h-3.312c0-.96,0-1.152.048-1.968h2.352c2.3,0,3.36.048,4.992.144v-6.768a51.414,51.414,0,0,1-6.288.288h-10.7V-38.4a11.958,11.958,0,0,1,.192-2.5h-7.872a11.938,11.938,0,0,1,.24,2.4v.72h-11.28a56.4,56.4,0,0,1-5.952-.24c.144,1.92.192,3.648.192,6.864,0,17.52-.72,22.944-3.888,29.088a32.026,32.026,0,0,1,5.52,6.528,29.06,29.06,0,0,0,2.88-6.384,20.236,20.236,0,0,1,2.16,6.432c7.056-.816,10.608-1.68,15.408-3.7,5.184,2.16,10.08,3.168,17.568,3.744a36.538,36.538,0,0,1,2.544-7.536c-5.856,0-8.592-.192-11.952-.864a31.132,31.132,0,0,0,5.76-5.472c.96-1.2,1.344-1.632,1.776-2.112Zm-7.584,5.808A17.162,17.162,0,0,1,426.96-6.24a18.642,18.642,0,0,1-4.9-3.024ZM423.6-23.9h7.68v2.064H423.6Zm0-5.568c0-.672,0-.672.048-1.968h7.584c.048.768.048,1.056.048,1.968Zm-12,0V-31.44h4.8c.048.816.048,1.1.048,1.968Z" transform="translate(-20194 736)"></path><path id="&#x30D1;&#x30B9;_33796" data-name="&#x30D1;&#x30B9; 33796" d="M75.385-97.025a44.372,44.372,0,0,1-11.3,1.542q-21.582,0-34.325-12.949-12.743-13.052-12.743-34.736,0-24.973,16.957-42.135,17.163-17.162,41.724-17.163,21.89,0,36.586,14.8,14.7,15,14.7,37t-20.451,49.535L57.092-34.644,39.415-48.415Zm28.775-53.851q0-13.36-8.222-21.89T74.871-181.3A32.575,32.575,0,0,0,49.9-170.505q-10.071,11-10.071,26.72,0,13.052,8.016,20.862,8.222,7.913,21.273,7.913a33.492,33.492,0,0,0,24.87-10.38A35.234,35.234,0,0,0,104.16-150.876ZM215.049-70.819l-3.8,29.392H187.712l3.8-29.392H117.623l115.41-146.652L217.515-91.064h14.8l-2.466,20.246ZM194.084-91.064l6.886-56.009L158.011-91.064Z" transform="translate(-20153.617 683.023)"></path><path id="&#x30D1;&#x30B9;_33797" data-name="&#x30D1;&#x30B9; 33797" d="M76.954-90.66a45.565,45.565,0,0,1-11.608,1.583q-22.162,0-35.248-13.3-13.086-13.4-13.086-35.67,0-25.644,17.413-43.268,17.624-17.624,42.846-17.624,22.478,0,37.569,15.2,15.091,15.408,15.091,37.991t-21,50.866L58.169-26.6,40.018-40.744Zm29.549-55.3q0-13.719-8.443-22.478T76.426-177.2a33.451,33.451,0,0,0-25.644,11.081Q40.44-154.823,40.44-138.677q0,13.4,8.231,21.423,8.443,8.126,21.845,8.126a34.392,34.392,0,0,0,25.539-10.659A36.181,36.181,0,0,0,106.5-145.959Zm125.688,25.644q22.584,13.3,22.584,40.1,0,21.423-14.669,35.142-14.774,13.825-37.253,13.825-22.9,0-37.675-13.191-14.458-13.3-14.458-34.509,0-30.815,31.237-43.69-18.679-12.664-18.679-33.348,0-19.1,13.3-31.026,13.508-11.925,34.614-11.925,20.368,0,32.715,11.714T256.252-156.3a47.192,47.192,0,0,1-1.319,11.556,30.335,30.335,0,0,1-4.221,9.551,36.326,36.326,0,0,1-7.493,8.02A59.28,59.28,0,0,1,232.191-120.314Zm.633-35.037q0-9.709-6.226-15.724t-16.252-6.015a23.665,23.665,0,0,0-16.991,6.543A21.5,21.5,0,0,0,186.6-154.3a20.315,20.315,0,0,0,6.332,15.408q6.332,6.015,16.041,6.015,10.237,0,17.1-6.226A21.285,21.285,0,0,0,232.824-155.351Zm-1.477,73.133q0-11.608-7.809-18.89t-20.051-7.282q-13.191,0-21.212,8.02-8.126,7.915-8.126,20.579,0,11.925,7.915,19.312,8.126,7.493,20.368,7.493,12.664,0,20.79-8.126Q231.346-69.554,231.346-82.218Z" transform="translate(-19394.781 674.981)"></path><path id="&#x30D1;&#x30B9;_33798" data-name="&#x30D1;&#x30B9; 33798" d="M102.144-44.149A64.713,64.713,0,0,1,85.657-41.9q-31.475,0-50.06-18.885Q17.012-79.82,17.012-111.445q0-36.421,24.73-61.451,25.03-25.03,60.852-25.03,31.925,0,53.358,21.583,21.433,21.883,21.433,53.957T147.558-50.144L75.465,46.829,49.686,26.745Zm41.967-78.538q0-19.485-11.99-31.925t-30.726-12.44q-21.883,0-36.421,15.738-14.688,16.037-14.688,38.969,0,19.035,11.691,30.426Q73.967-70.378,93-70.378q21.433,0,36.271-15.138Q144.111-100.8,144.111-122.686Zm131.745,9.293a99.52,99.52,0,0,1,10.192-1.8,77.444,77.444,0,0,1,9.293-.6q29.676,0,47.812,19.035,18.136,18.585,18.136,50.06,0,36.421-24.73,61.751-24.581,25.18-59.952,25.18-32.524,0-54.407-21.433Q200.616-2.482,200.616-35.006q0-31.625,29.976-72.393l71.943-97.123,25.929,20.384ZM233.89-33.507q0,19.634,11.691,31.325T276.756,9.509q21.733,0,36.421-15.288,14.838-15.288,14.838-37.62,0-19.035-12.14-31.475-11.99-12.44-30.726-12.44-21.133,0-36.121,15.887A53.4,53.4,0,0,0,233.89-33.507Z" transform="translate(-19861.934 165.55)"></path><path id="&#x30D1;&#x30B9;_33801" data-name="&#x30D1;&#x30B9; 33801" d="M33.024-20.688v-2.256H35.28a14.135,14.135,0,0,1,2.112.144v-6.576a10.4,10.4,0,0,1-2.256.192H33.024v-.48a7.961,7.961,0,0,1,.192-2.016H26.544a8.716,8.716,0,0,1,.192,2.016v.48h-2.16a9.764,9.764,0,0,1-2.16-.192V-22.8a15.614,15.614,0,0,1,2.112-.144h2.208v2.256H25.728c-1.1,0-1.728-.048-2.688-.1a19.5,19.5,0,0,1,.1,2.784v9.408a19.5,19.5,0,0,1-.1,2.784c1.008-.048,1.728-.1,2.688-.1H34.08c1.392.048,2.16.1,2.352.1h.288a17.3,17.3,0,0,1-.1-2.832v-9.312a18.772,18.772,0,0,1,.1-2.832c-.96.048-1.68.1-2.688.1Zm-4.656,5.712h2.976v3.456H28.368ZM14.736-2.016a51.813,51.813,0,0,1-.288,6.192H21.36V2.3H38.4V4.176h6.96a48.271,48.271,0,0,1-.288-6.864V-32.976c0-3.264.048-4.9.192-6.576a55.62,55.62,0,0,1-6.864.24H20.88a58.023,58.023,0,0,1-6.336-.24v.048L8.4-41.52a26.185,26.185,0,0,1-1.632,6.336A29.217,29.217,0,0,1,.336-24.192a44.774,44.774,0,0,1,2.4,8.784A14.389,14.389,0,0,0,4.56-17.664c.144-.24.384-.528.672-.912-.048,1.968-.1,4.512-.1,4.9V-1.152A40.94,40.94,0,0,1,4.848,4.32H12.48a44.07,44.07,0,0,1-.288-5.472V-29.9c1.056-2.256,1.68-3.792,2.544-6.144V-2.016ZM21.36-32.688H38.4V-4.272H21.36ZM64.992-18.432c.048-.816.048-1.2.1-3.312h4.128c2.976,0,4.8.048,6.624.192-.1-1.008-.144-2.064-.144-5.616V-34.08a47.313,47.313,0,0,1,.24-5.664c-1.728.144-3.312.192-6.432.192H59.376c-2.832,0-4.8-.048-6.528-.192a52.133,52.133,0,0,1,.24,5.952v6.24a53.445,53.445,0,0,1-.24,6.048c1.584-.144,2.544-.192,4.944-.24a48.33,48.33,0,0,1-.816,9.024c-1.008,4.848-2.448,7.488-5.712,10.368a24.619,24.619,0,0,1,4.8,6.864,22.6,22.6,0,0,0,5.52-7.3A21.9,21.9,0,0,1,63.072,3.84c1.632.144,2.88.192,3.792.192,5.04,0,6.816-.96,7.728-4.176.72-2.592,1.1-7.488,1.152-15.12,0-2.3.048-2.448.1-3.408a41.175,41.175,0,0,1-4.608.24Zm3.5,6.576c-.048,4.368-.24,6.672-.576,7.872-.24.672-.816.864-2.448.864a31.726,31.726,0,0,1-3.6-.288,31.51,31.51,0,0,0,2.4-8.448ZM60.24-33.168h8.4v4.992h-8.4ZM78.048-37.3a51.643,51.643,0,0,1,.24,6.192v17.952a37.986,37.986,0,0,1-.24,5.664h7.584a44.622,44.622,0,0,1-.24-5.856V-31.1a51.642,51.642,0,0,1,.24-6.192Zm10.08-2.928c.192,2.448.288,4.848.288,7.008V-4.7c0,1.152-.528,1.488-2.4,1.488-1.776,0-3.552-.1-6.768-.384a29.2,29.2,0,0,1,2.3,7.44c1.728.048,2.544.1,3.456.1,3.984,0,6.912-.384,8.4-1.1,1.536-.768,2.256-2.688,2.256-5.9V-33.216c0-2.976.1-4.8.288-7.008Zm31.488,9.792v-3.7a34.535,34.535,0,0,1,.192-4.9h-8.784a32.352,32.352,0,0,1,.288,5.088v3.5H109.68a42.246,42.246,0,0,1-6.912-.336v8.208a56.89,56.89,0,0,1,6.768-.24h1.776v5.28a35.662,35.662,0,0,1-.288,5.04h8.784a43.059,43.059,0,0,1-.192-4.944V-22.8h10.128c-.048,2.736-.048,3.072-.1,3.936-.384,5.376-1.776,8.5-5.04,11.088-2.16,1.728-4.608,2.832-9.264,4.224a23.449,23.449,0,0,1,5.232,7.344c4.848-1.824,7.344-3.168,9.936-5.424,4.224-3.648,6.384-8.016,7.1-14.5.192-1.824.24-2.88.336-6.672h2.112c3.12,0,4.464.048,6.768.24v-8.208a42.246,42.246,0,0,1-6.912.336h-1.872c.048-7.1.048-7.1.24-8.544h-8.64a35.461,35.461,0,0,1,.24,5.376v3.168Zm76.368-1.3a5.419,5.419,0,0,0,2.688-4.7,5.378,5.378,0,0,0-5.376-5.424,5.388,5.388,0,0,0-5.424,5.424,5.447,5.447,0,0,0,1.728,3.984H179.28v-1.776a36.624,36.624,0,0,1,.288-5.424h-9.12a36.468,36.468,0,0,1,.288,5.328v1.872h-8.784a41.877,41.877,0,0,1-7.344-.384v8.208a48.408,48.408,0,0,1,7.248-.288h8.88V-3.936a65.08,65.08,0,0,1-.288,7.3h9.072c-.144-1.392-.24-3.984-.24-7.2V-24.912h9.312a69.452,69.452,0,0,1,7.392.288Zm-2.688-7.44a2.757,2.757,0,0,1,2.688,2.736,2.757,2.757,0,0,1-2.736,2.688,2.747,2.747,0,0,1-2.688-2.688A2.766,2.766,0,0,1,193.3-39.168ZM159.552-22.416a39.584,39.584,0,0,1-7.44,18.672,33.808,33.808,0,0,1,7.92,3.936,50.131,50.131,0,0,0,7.44-18.96,15.775,15.775,0,0,1,.336-1.728ZM182.16-20.5a11.7,11.7,0,0,1,.72,2.352,67.3,67.3,0,0,0,7.1,18.432,46.489,46.489,0,0,1,7.92-4.464c-3.12-4.368-6.384-12.1-7.776-18.336Zm22.128,6.816c2.928-.24,4.512-.288,9.888-.288h22.848a92.644,92.644,0,0,1,9.888.288v-9.264a78.756,78.756,0,0,1-9.84.432H214.128a68.017,68.017,0,0,1-9.84-.432ZM272.832,2.832a70.39,70.39,0,0,1-.288-7.344v-12.48a11.526,11.526,0,0,0,2.16.96,88.975,88.975,0,0,1,15.12,8.352l4.56-8.16a101.811,101.811,0,0,0-21.84-9.984V-32.4a62.07,62.07,0,0,1,.24-7.008H263.52a45.408,45.408,0,0,1,.336,6.96V-4.512a68.5,68.5,0,0,1-.288,7.344Zm55.3-9.648h-1.344v-3.36a30.238,30.238,0,0,1,.1-3.552h-4.608a34.84,34.84,0,0,1,.144,3.552v7.008a38.635,38.635,0,0,1-.144,3.984H327.5V-1.056h7.824a17.264,17.264,0,0,1,.864,4.944c1.152.1,2.736.144,3.888.144a11.862,11.862,0,0,0,4.944-.672c1.488-.72,2.16-2.064,2.16-4.32V-16.032a39.589,39.589,0,0,1,.24-5.376,55.848,55.848,0,0,1-5.712.192h-7.68v-1.728h9.312a49.076,49.076,0,0,1,5.568.24v-6.768a36.069,36.069,0,0,1-5.568.24H340.7v-2.256h2.112c2.016,0,3.744.1,4.848.192v-6.768a44.542,44.542,0,0,1-4.944.24H340.7a19.162,19.162,0,0,1,.24-2.928h-7.3a18.942,18.942,0,0,1,.192,2.928h-6.048a14.282,14.282,0,0,1,.192-2.928h-7.3a15.939,15.939,0,0,1,.24,2.928H319.92a42.044,42.044,0,0,1-4.944-.24v2.16a49.691,49.691,0,0,0-6.1-4.8l-4.9,4.7a39.776,39.776,0,0,1,7.392,6.72l3.6-4.032V-31.3a43.076,43.076,0,0,1,4.752-.192h1.2v2.256H318.96a44.446,44.446,0,0,1-5.28-.24v6.1a32.164,32.164,0,0,0-5.52-4.9l-5.088,4.848a40.958,40.958,0,0,1,7.152,6.672l4.32-4.464c.1,1.2.144,2.112.144,3.792V-1.488a46.127,46.127,0,0,1-.288,5.76h6.864a52.01,52.01,0,0,1-.192-5.376V-15.216h7.056Zm5.136,0v-8.4h7.248V-3.36c0,.768-.192.912-1.056.912h-.432c-.048-.816-.048-1.152-.048-2.256v-5.424a19.926,19.926,0,0,1,.144-3.6h-4.608a32.686,32.686,0,0,1,.1,3.6v3.312Zm-18.1-14.976-.912-.96a43.6,43.6,0,0,1,4.944-.192h8.112v1.728h-9.5a29.029,29.029,0,0,1-3.12-.144Zm12.624-7.44v-2.256h6.048v2.256Zm-19.44,13.68c-1.392,6.768-3.072,11.52-5.088,14.3l6.24,5.616a10.243,10.243,0,0,1,.624-1.824,102.456,102.456,0,0,0,4.032-14.16ZM373.968-5.9a14.342,14.342,0,0,1-5.808-6.816c.288-1.152.432-1.824.672-2.88.288-1.584.432-2.016.576-2.688l-7.392-1.344c-.048,3.84-1.68,9.12-4.128,13.392a19.957,19.957,0,0,1-4.176,5.376,27.308,27.308,0,0,1,5.664,5.424,35.087,35.087,0,0,0,6.048-9.5,19.024,19.024,0,0,0,8.208,6.816c3.264,1.3,8.544,1.968,15.744,1.968,2.3,0,5.28-.1,8.16-.192a24.718,24.718,0,0,1,1.824-7.536c-3.888.288-7.008.432-10.416.432-2.448,0-5.616-.144-7.728-.336V-9.7h9.312a44.389,44.389,0,0,1,5.472.24v-7.1a37.367,37.367,0,0,1-5.472.24h-9.312v-4.8h8.016a46.742,46.742,0,0,1,4.848.192,38.974,38.974,0,0,1-.192-4.512v-9.648a35.946,35.946,0,0,1,.192-4.32,49.461,49.461,0,0,1-5.472.192H365.136a52.92,52.92,0,0,1-5.472-.192,37.519,37.519,0,0,1,.192,4.32v9.648a41.164,41.164,0,0,1-.192,4.512,46.153,46.153,0,0,1,4.848-.192h9.456ZM386.592-32.5V-27.5h-19.44V-32.5Zm55.44,17.424c-1.248.1-2.3.144-4.656.144H421.152a50.59,50.59,0,0,1-5.472-.192v6c1.3-.1,2.928-.144,4.992-.144h2.112l-5.04,2.112c3.36,2.784,3.36,2.784,4.608,3.744A51.3,51.3,0,0,1,412.368-2.4c1.68-5.568,2.352-10.992,2.544-21.12h4.9v3.648a29.7,29.7,0,0,1-.144,3.216c.912-.048,1.968-.048,3.168-.048h16.032c1.44,0,2.064,0,2.448.048h.624a29.1,29.1,0,0,1-.144-3.216V-23.52H445.2a28.139,28.139,0,0,1,4.08.192v-6.336a34.894,34.894,0,0,1-4.176.192h-3.312c0-.96,0-1.152.048-1.968h2.352c2.3,0,3.36.048,4.992.144v-6.768a51.414,51.414,0,0,1-6.288.288h-10.7V-38.4a11.958,11.958,0,0,1,.192-2.5h-7.872a11.938,11.938,0,0,1,.24,2.4v.72h-11.28a56.4,56.4,0,0,1-5.952-.24c.144,1.92.192,3.648.192,6.864,0,17.52-.72,22.944-3.888,29.088a32.026,32.026,0,0,1,5.52,6.528,29.06,29.06,0,0,0,2.88-6.384,20.236,20.236,0,0,1,2.16,6.432c7.056-.816,10.608-1.68,15.408-3.7,5.184,2.16,10.08,3.168,17.568,3.744A36.538,36.538,0,0,1,449.9-2.976c-5.856,0-8.592-.192-11.952-.864a31.133,31.133,0,0,0,5.76-5.472c.96-1.2,1.344-1.632,1.776-2.112Zm-7.584,5.808A17.161,17.161,0,0,1,430.32-6.24a18.642,18.642,0,0,1-4.9-3.024ZM426.96-23.9h7.68v2.064h-7.68Zm0-5.568c0-.672,0-.672.048-1.968h7.584c.048.768.048,1.056.048,1.968Zm-12,0V-31.44h4.8c.048.816.048,1.1.048,1.968Z" transform="translate(-19428 736)"></path><path id="&#x30D1;&#x30B9;_33799" data-name="&#x30D1;&#x30B9; 33799" d="M31.36-50.72v-6.16a57.556,57.556,0,0,1,.32-8.16H17.04a53.921,53.921,0,0,1,.48,8.48v5.84H14.8a70.41,70.41,0,0,1-11.52-.56V-37.6A94.816,94.816,0,0,1,14.56-38h2.96v8.8a59.437,59.437,0,0,1-.48,8.4H31.68a71.764,71.764,0,0,1-.32-8.24V-38H48.24c-.08,4.56-.08,5.12-.16,6.56-.64,8.96-2.96,14.16-8.4,18.48C36.08-10.08,32-8.24,24.24-5.92A39.082,39.082,0,0,1,32.96,6.32C41.04,3.28,45.2,1.04,49.52-2.72,56.56-8.8,60.16-16.08,61.36-26.88c.32-3.04.4-4.8.56-11.12h3.52c5.2,0,7.44.08,11.28.4V-51.28a70.41,70.41,0,0,1-11.52.56H62.08c.08-11.84.08-11.84.4-14.24H48.08a59.1,59.1,0,0,1,.4,8.96v5.28ZM88.48-22.8c4.88-.4,7.52-.48,16.48-.48h38.08c9.12,0,12.64.08,16.48.48V-38.24a131.261,131.261,0,0,1-16.4.72H104.88c-8.32,0-12.64-.16-16.4-.72ZM230.24-51.92l4-1.44A54.377,54.377,0,0,0,227.6-65.6l-7.92,2.56a48.746,48.746,0,0,1,5.44,9.68,111.25,111.25,0,0,1-30.48,11.44v-10.8c0-6.24.08-8.24.48-10.72H180.16a81.645,81.645,0,0,1,.48,10.64V-18a63.736,63.736,0,0,0,.32,8.48c.56,4.16,2,6.8,4.48,8.64,3.68,2.56,9.2,3.52,20.16,3.52,6.4,0,15.36-.48,23.36-1.2,4-.4,6.32-.56,8.24-.56l-.56-14.8a70.366,70.366,0,0,1-13.76,2.56c-4.8.48-11.04.8-15.6.8a70.278,70.278,0,0,1-8.48-.48c-2.32-.32-3.36-.96-3.84-2.48-.32-1.12-.32-1.12-.32-6.16v-8.96a143.757,143.757,0,0,0,38.08-12.4c1.92-.88,2.08-.96,4-1.92Zm1.04-14.8a63.383,63.383,0,0,1,6.56,12.24l7.6-2.8A56.965,56.965,0,0,0,238.8-69.2ZM328.48-6.8C316-18.72,312.72-21.52,303.04-28.48c4.48-6,7.52-11.6,11.76-21.6,1.2-2.72,1.68-3.52,2.88-4.72L310.64-62c-2.16.8-2.64.8-6.4.88l-27.36.4c-2.32.08-3.84.08-4.48.08a59.267,59.267,0,0,1-8.4-.56l.4,14.24a95.012,95.012,0,0,1,12.72-.8l20.8-.32a64.357,64.357,0,0,1-16.08,23.52A75.443,75.443,0,0,1,255.92-8.4a41.909,41.909,0,0,1,8.96,12.64c12.4-6,21.92-13.04,29.44-21.92A128.622,128.622,0,0,1,317.28,5.04Zm50.4-4.56h-2.24v-5.6a50.409,50.409,0,0,1,.16-5.92h-7.68a58.054,58.054,0,0,1,.24,5.92V-5.28a64.379,64.379,0,0,1-.24,6.64h8.72V-1.76h13.04a28.774,28.774,0,0,1,1.44,8.24c1.92.16,4.56.24,6.48.24,4.24,0,6.48-.32,8.24-1.12,2.48-1.2,3.6-3.44,3.6-7.2V-26.72a65.987,65.987,0,0,1,.4-8.96,93.08,93.08,0,0,1-9.52.32h-12.8v-2.88h15.52a81.794,81.794,0,0,1,9.28.4V-49.12a60.114,60.114,0,0,1-9.28.4h-4.4v-3.76h3.52c3.36,0,6.24.16,8.08.32V-63.44a74.235,74.235,0,0,1-8.24.4h-3.36a31.943,31.943,0,0,1,.4-4.88H388.08a31.566,31.566,0,0,1,.32,4.88H378.32a23.8,23.8,0,0,1,.32-4.88H366.48a26.567,26.567,0,0,1,.4,4.88H365.2a70.073,70.073,0,0,1-8.24-.4v3.6a82.819,82.819,0,0,0-10.16-8L338.64-60a66.291,66.291,0,0,1,12.32,11.2l6-6.72v3.36a71.791,71.791,0,0,1,7.92-.32h2v3.76H363.6a74.076,74.076,0,0,1-8.8-.4v10.16a53.607,53.607,0,0,0-9.2-8.16l-8.48,8.08a68.265,68.265,0,0,1,11.92,11.12l7.2-7.44c.16,2,.24,3.52.24,6.32V-2.48a76.872,76.872,0,0,1-.48,9.6h11.44a86.693,86.693,0,0,1-.32-8.96V-25.36h11.76Zm8.56,0v-14h12.08V-5.6c0,1.28-.32,1.52-1.76,1.52h-.72c-.08-1.36-.08-1.92-.08-3.76v-9.04a33.21,33.21,0,0,1,.24-6h-7.68a54.491,54.491,0,0,1,.16,6v5.52ZM357.28-36.32l-1.52-1.6a72.661,72.661,0,0,1,8.24-.32h13.52v2.88H361.68a48.381,48.381,0,0,1-5.2-.24Zm21.04-12.4v-3.76H388.4v3.76Zm-32.4,22.8c-2.32,11.28-5.12,19.2-8.48,23.84l10.4,9.36a17.076,17.076,0,0,1,1.04-3.04,170.755,170.755,0,0,0,6.72-23.6ZM455.28-9.84c-4.48-2.8-7.2-6-9.68-11.36.48-1.92.72-3.04,1.12-4.8.48-2.64.72-3.36.96-4.48l-12.32-2.24c-.08,6.4-2.8,15.2-6.88,22.32-2,3.68-2.96,4.8-6.96,8.96a45.514,45.514,0,0,1,9.44,9.04A58.48,58.48,0,0,0,441.04-8.24,31.706,31.706,0,0,0,454.72,3.12c5.44,2.16,14.24,3.28,26.24,3.28,3.84,0,8.8-.16,13.6-.32A41.2,41.2,0,0,1,497.6-6.48c-6.48.48-11.68.72-17.36.72-4.08,0-9.36-.24-12.88-.56v-9.84h15.52a73.982,73.982,0,0,1,9.12.4V-27.6a62.278,62.278,0,0,1-9.12.4H467.36v-8h13.36a77.9,77.9,0,0,1,8.08.32,64.964,64.964,0,0,1-.32-7.52V-58.48a59.916,59.916,0,0,1,.32-7.2,82.433,82.433,0,0,1-9.12.32H440.56a88.2,88.2,0,0,1-9.12-.32,62.526,62.526,0,0,1,.32,7.2V-42.4a68.6,68.6,0,0,1-.32,7.52,76.92,76.92,0,0,1,8.08-.32h15.76Zm21.04-44.32v8.32h-32.4v-8.32Zm92.4,29.04c-2.08.16-3.84.24-7.76.24H533.92a84.317,84.317,0,0,1-9.12-.32v10c2.16-.16,4.88-.24,8.32-.24h3.52l-8.4,3.52c5.6,4.64,5.6,4.64,7.68,6.24A85.5,85.5,0,0,1,519.28-4c2.8-9.28,3.92-18.32,4.24-35.2h8.16v6.08a49.515,49.515,0,0,1-.24,5.36c1.52-.08,3.28-.08,5.28-.08h26.72c2.4,0,3.44,0,4.08.08h1.04a48.5,48.5,0,0,1-.24-5.36V-39.2H574a46.9,46.9,0,0,1,6.8.32V-49.44a58.156,58.156,0,0,1-6.96.32h-5.52c0-1.6,0-1.92.08-3.28h3.92c3.84,0,5.6.08,8.32.24V-63.44a85.689,85.689,0,0,1-10.48.48H552.32V-64a19.928,19.928,0,0,1,.32-4.16H539.52a19.9,19.9,0,0,1,.4,4v1.2h-18.8a94.007,94.007,0,0,1-9.92-.4c.24,3.2.32,6.08.32,11.44,0,29.2-1.2,38.24-6.48,48.48a53.377,53.377,0,0,1,9.2,10.88,48.434,48.434,0,0,0,4.8-10.64,33.728,33.728,0,0,1,3.6,10.72c11.76-1.36,17.68-2.8,25.68-6.16,8.64,3.6,16.8,5.28,29.28,6.24a60.9,60.9,0,0,1,4.24-12.56c-9.76,0-14.32-.32-19.92-1.44a51.888,51.888,0,0,0,9.6-9.12c1.6-2,2.24-2.72,2.96-3.52Zm-12.64,9.68a28.6,28.6,0,0,1-6.88,5.04,31.071,31.071,0,0,1-8.16-5.04ZM543.6-39.84h12.8v3.44H543.6Zm0-9.28c0-1.12,0-1.12.08-3.28h12.64c.08,1.28.08,1.76.08,3.28Zm-20,0V-52.4h8c.08,1.36.08,1.84.08,3.28Z" transform="translate(-19871 324)"></path><path id="&#x30D1;&#x30B9;_33794" data-name="&#x30D1;&#x30B9; 33794" d="M20.491-397.443a18.884,18.884,0,0,1,6.186-14.045,20.526,20.526,0,0,1,14.546-5.963,20.123,20.123,0,0,1,14.6,6.019,19.207,19.207,0,0,1,6.131,14.267,19.27,19.27,0,0,1-6.131,14.323,20.418,20.418,0,0,1-14.769,5.963,19.846,19.846,0,0,1-14.546-6.075A19.873,19.873,0,0,1,20.491-397.443Zm9.7.167a10.763,10.763,0,0,0,3.232,7.914,10.7,10.7,0,0,0,7.858,3.232,10.568,10.568,0,0,0,7.747-3.232,10.632,10.632,0,0,0,3.232-7.8,10.568,10.568,0,0,0-3.232-7.747,10.632,10.632,0,0,0-7.8-3.232,10.632,10.632,0,0,0-7.8,3.232A10.441,10.441,0,0,0,30.188-397.276ZM90.1-418.064l6.075,3.455L46.908-329.115l-6.131-3.678ZM74.942-350.293a18.825,18.825,0,0,1,6.186-13.989,20.527,20.527,0,0,1,14.546-5.963,20.188,20.188,0,0,1,14.658,6.019,19.207,19.207,0,0,1,6.131,14.267,19.072,19.072,0,0,1-6.186,14.323,20.4,20.4,0,0,1-14.769,5.908,19.937,19.937,0,0,1-14.546-6.019A19.818,19.818,0,0,1,74.942-350.293Zm9.753.223a10.86,10.86,0,0,0,3.177,7.914,10.7,10.7,0,0,0,7.858,3.232,10.45,10.45,0,0,0,7.747-3.232,10.632,10.632,0,0,0,3.232-7.8,10.632,10.632,0,0,0-3.232-7.8,10.514,10.514,0,0,0-7.8-3.233,10.568,10.568,0,0,0-7.747,3.233A10.5,10.5,0,0,0,84.695-350.07Z" transform="translate(-19143.02 969.945)"></path></g></svg>