<svg xmlns="http://www.w3.org/2000/svg" width="1724.756" height="728.139" viewBox="0 0 1724.756 728.139"><g id="&#x30B0;&#x30EB;&#x30FC;&#x30D7;_19637" data-name="&#x30B0;&#x30EB;&#x30FC;&#x30D7; 19637" transform="translate(1594 4902.558)"><g id="&#x30B0;&#x30EB;&#x30FC;&#x30D7;_18751" data-name="&#x30B0;&#x30EB;&#x30FC;&#x30D7; 18751" transform="translate(-733.15 -4379.298)"><circle id="&#x6955;&#x5186;&#x5F62;_416" data-name="&#x6955;&#x5186;&#x5F62; 416" cx="14.933" cy="14.933" r="14.933" transform="translate(30.016 0.299) rotate(90)" fill="#fff"></circle><ellipse id="&#x6955;&#x5186;&#x5F62;_416-2" data-name="&#x6955;&#x5186;&#x5F62; 416" cx="15.68" cy="14.933" rx="15.68" ry="14.933" transform="translate(30.016 86.909) rotate(90)" fill="#fff"></ellipse><ellipse id="&#x6955;&#x5186;&#x5F62;_416-3" data-name="&#x6955;&#x5186;&#x5F62; 416" cx="12.693" cy="14.933" rx="12.693" ry="14.933" transform="translate(30.016 179.493) rotate(90)" fill="#fff"></ellipse></g><g id="&#x30B0;&#x30EB;&#x30FC;&#x30D7;_19551" data-name="&#x30B0;&#x30EB;&#x30FC;&#x30D7; 19551" transform="translate(-1678 -5058)"><path id="&#x30D1;&#x30B9;_33893" data-name="&#x30D1;&#x30B9; 33893" d="M21.726-64.77a30.61,30.61,0,0,1,3.774.306A160.829,160.829,0,0,0,44.166-63.24a108.729,108.729,0,0,0,15.3-.816c-4.692,2.652-9.69,5.712-14.994,9.078l8.874,7.038c10.1-7.344,21.114-14.178,27.234-16.932L80.172-76.3C73.44-74.868,66.2-74.358,53.244-74.358c-13.668,0-22.746-.714-30.6-2.55Zm7.548,23.052c-9.18,7.65-13.158,14.382-13.158,22.134,0,7.956,4.284,13.668,13.056,17.034C34.578-.306,43.554.816,54.672.816c8.772,0,15.3-.51,27.54-2.244A40.554,40.554,0,0,1,86.7-1.836L85.578-15.81c-6.528,2.448-19.89,4.284-32.028,4.284-17.238,0-24.684-2.856-24.684-9.486,0-4.386,2.856-8.67,9.282-13.974ZM137.9-37.842c2.244-4.794,6.732-15.912,12.546-30.8,3.06-7.854,3.57-8.976,5-11.73l-13.77-3.468c-.714,4.182-.714,4.182-24.174,69.36C114.24-5.61,113.322-3.162,111.894-.2L125.052,4.08a117,117,0,0,1,8.568-23.358c5-9.18,10.71-14.28,16.218-14.28a5.051,5.051,0,0,1,4.59,2.346c.612,1.326.816,2.856.816,6.018,0,1.02,0,3.468-.1,7.14v1.02c0,5,.612,8.67,1.734,11.322,2.55,5.814,8.16,8.874,16.014,8.874,15.4,0,25.4-10.608,29.784-31.722-6.324-3.162-7.854-4.182-11.22-7.65a63.925,63.925,0,0,1-3.876,16.218c-2.958,7.14-7.344,10.914-12.75,10.914a8.57,8.57,0,0,1-5.406-1.428c-1.836-1.53-2.244-3.57-2.244-10.914,0-11.73-.51-15.4-2.55-18.666A13.81,13.81,0,0,0,153.2-45.9a19.082,19.082,0,0,0-13.158,6.018c-1.326,1.53-1.326,1.53-1.938,2.244ZM243.27-84.558a104.2,104.2,0,0,1-3.06,17.748c-2.244.1-3.978.1-5.2.1a70.822,70.822,0,0,1-13.77-.918V-56l5.406.1c2.142.1,2.754.1,4.08.1,1.224,0,1.836,0,6.426-.1-3.876,11.73-5.61,15.912-9.588,24.072a92.844,92.844,0,0,1-9.894,16.32L229.4-8.976c.612-1.224.612-1.224,1.938-3.672,3.876-7.14,4.794-8.976,7.14-13.974A195.784,195.784,0,0,0,249.7-56.2c6.324-.51,12.546-1.224,16.218-1.836a19.888,19.888,0,0,1,3.264-.51l-.306-11.73a87.489,87.489,0,0,1-16.32,2.856c1.122-4.488,1.632-6.528,2.142-8.976a51.064,51.064,0,0,1,1.632-6.834Zm65.28,26.52c-9.078-5.508-16.728-9.078-28.764-13.668l-6.12,9.894a124.839,124.839,0,0,1,29.376,14.28Zm-.408,46a18.267,18.267,0,0,1-1.53-1.428,37.6,37.6,0,0,0-3.57-2.754c-7.752-5.61-8.772-6.12-16.116-9.384a108.3,108.3,0,0,1-.918-13.974,34,34,0,0,1,1.224-10.3L275.4-50.49a54.1,54.1,0,0,0-.816,10.3c0,3.06.2,7.038.51,11.73a50.664,50.664,0,0,0-9.486-.918c-12.954,0-22.032,7.242-22.032,17.544,0,10.4,8.772,17.136,22.236,17.136,7.242,0,13.362-2.04,16.932-5.712A16.3,16.3,0,0,0,287.13-11.22c0-.408-.1-1.122-.2-2.04A61.689,61.689,0,0,1,302.532-.612Zm-32.64-5.61s.2,2.448.2,3.468c0,5.712-3.366,8.568-10.3,8.568-6.324,0-10-2.448-10-6.63,0-4.284,4.284-7.038,10.914-7.038A25.712,25.712,0,0,1,275.5-17.646Z" transform="translate(83.5 240)" fill="#fff"></path><path id="&#x30D1;&#x30B9;_33897" data-name="&#x30D1;&#x30B9; 33897" d="M15.3-77.938a21.177,21.177,0,0,1,3.591-.266H21.28c2.527.133,4.655.133,6.384.266,7.182.266,8.113.266,10.64.266h3.724q-.4,8.379-.4,13.965c-7.98,3.458-13.034,6.65-18.221,11.97-8.645,8.512-13.3,19.152-13.3,30.324,0,14.9,9.177,25,22.743,25,11.305,0,22.61-5.985,35.112-18.62C78.2-25.27,84.721-34.979,91.77-50.274c8.113,3.724,11.7,8.512,11.7,15.827,0,8.778-5.719,15.96-15.96,20.083-6.783,2.66-13.566,3.857-23.674,3.857C68.362-2.66,69.692.665,71.82,8.113c12.9-1.729,20.349-3.458,27-6.517,15.428-7.182,23.94-19.551,23.94-34.846,0-10.374-3.857-18.487-11.837-25a35.42,35.42,0,0,0-13.7-7.049,22.841,22.841,0,0,0,1.463-3.724c1.33-3.325,1.33-3.325,1.729-4.256L82.46-78.337a51.173,51.173,0,0,1-2.261,9.31,36.357,36.357,0,0,0-4.655-.4,67.87,67.87,0,0,0-16.625,1.6c0-2.527,0-3.857.133-5.453a41.227,41.227,0,0,0,.266-4.921c11.438-.266,32.718-2.261,46.55-4.256,2.926-.4,3.591-.532,5.586-.665l-.931-18.221c-11.039,3.325-27.8,5.586-50.008,6.916.665-8.911,1.064-11.7,2.128-15.162l-19.418-.931a24.707,24.707,0,0,1,.133,3.458c0,3.724,0,3.99-.133,6.251-.4,4.921-.4,4.921-.532,6.916H39.767a132.408,132.408,0,0,1-24.6-1.862ZM41.9-45.619a172.153,172.153,0,0,0,2.261,27.531c-3.458,2.66-6.384,3.857-9.576,3.857-4.256,0-6.65-3.325-6.65-8.911C27.93-31.654,32.984-39.634,41.9-45.619Zm16.758-6.65A36.02,36.02,0,0,1,71.288-54.4a13.093,13.093,0,0,1,3.724.266c-3.99,9.044-7.182,14.1-15.3,24.073C59.052-36.974,58.786-42.161,58.653-52.269Zm107.464-57.057a28.93,28.93,0,0,1-.266,4.655c-.266,2.394-.8,7.714-1.729,16.093C163.058-79,162.26-64.372,162.26-53.067c0,2.793.133,6.783.266,11.571.133,7.049.133,7.049.133,7.581a13.783,13.783,0,0,1-.133,2.128l19.019-.266v-1.995c0-16.758,6.251-32.319,17.157-42.959,4.389-4.256,8.512-6.251,13.3-6.251,10.507,0,16.359,9.975,16.359,27.8,0,29.526-15.428,42.959-52.668,45.885A66.364,66.364,0,0,1,184.87,9.709a124.787,124.787,0,0,0,27.4-7.315c23.674-9.975,35.91-28.994,35.91-55.727,0-14.1-2.128-23.541-7.182-32.319-6.251-10.773-15.827-16.625-26.866-16.625-7.847,0-15.561,3.192-21.945,9.177-4.655,4.389-7.847,9.177-11.837,17.556,2.66-20.216,3.857-26.866,5.852-32.851ZM397.8-15.428c-1.995-1.2-2.793-1.729-4.921-3.192-14.763-10.108-23.94-14.763-36.442-18.487,0-1.995-.266-6.65-.4-13.832,5.32-.266,13.965-.931,20.349-1.6,7.98-.8,7.98-.8,9.842-1.064,1.2,0,1.995-.133,2.261-.133A12.607,12.607,0,0,1,391.286-54l-.532-17.423c-8.645,2.261-19.285,3.591-34.979,4.522,0-2.128,0-5.719-.133-10.906,9.044-.4,17.423-1.2,27.8-2.527,7.847-1.064,7.847-1.064,11.039-1.2l-.532-17.423c-9.177,2.394-20.216,3.857-38.171,4.788.266-10.241.266-11.3,1.064-15.029H336.756c.665,4.655.8,5.719.8,15.694-3.458.133-7.581.266-9.177.266-15.428,0-29.127-1.064-36.442-2.926l-.266,17.689A14.693,14.693,0,0,1,293.8-78.6c.532,0,1.729,0,3.325.133,17.29.931,28.6,1.33,33.649,1.33,1.995,0,3.591,0,7.049-.133v3.325l.133,7.714c-3.591.133-8.246.133-11.039.133-12.369,0-25-.8-30.856-2.128L295.925-51.2c2.261,0,3.458,0,5.32.133,12.1.665,16.625.8,25.27.8,2.793,0,7.98-.133,11.7-.133l.266,10.64c-2.793-.133-4.389-.266-6.65-.266-23.674,0-37.9,8.911-37.9,23.807,0,14.364,11.438,22.477,31.654,22.477,21.28,0,31.388-7.315,31.388-22.61a14.694,14.694,0,0,0-.133-2.128C364.42-15.3,373.2-9.576,380.779-3.192a54.205,54.205,0,0,1,6.251,6.118Zm-59.185-7.448s.133,1.6.133,2.66c0,7.714-3.325,10.507-12.369,10.507-7.847,0-12.5-2.527-12.5-6.65,0-4.788,5.719-7.714,15.029-7.714A35.3,35.3,0,0,1,338.618-22.876Zm104.8-82.859c.665,5.187.931,9.842.931,20.349V-79.8c-12.1.665-18.886,1.064-20.615,1.064-.931,0-2.261-.133-4.256-.266l1.2,18.753c6.384-1.064,12.369-1.6,23.674-2.261v11.039c0,24.738.532,32.851,2.793,39.235,4.389,12.5,15.561,17.29,40.3,17.29A292.762,292.762,0,0,0,519.1,3.325c7.049-.8,7.049-.8,12.1-1.2l-1.2-20.748c-9.31,3.192-24.472,5.187-39.767,5.187-19.817,0-25.4-2.527-26.6-11.837-.266-3.059-.665-14.63-.665-22.344V-63.441c11.837-.665,23.94-1.2,36.442-1.6-.266,16.891-1.463,20.615-6.384,20.615-4.123,0-10.108-2-17.29-5.719a76.492,76.492,0,0,1,1.064,12.9v5.852c7.448,2.926,12.9,4.123,19.152,4.123,8.512,0,14.231-2.926,17.423-9.044,2.527-5.054,3.724-14.231,3.857-29.127,11.438-.266,12.236-.266,14.63-.266a97.387,97.387,0,0,1,10.773.532l-.266-19.152c-4.389.532-4.389.532-25.137,1.33V-97.356A81.12,81.12,0,0,1,517.9-107.6H498.484c.8,5.32.8,5.586.8,20.349,0,.532.133,2.394.133,4.921-19.019.8-19.019.8-36.176,1.6.266-18.886.4-20.083,1.2-25Zm154.28-4.788c-.8,5.187-3.458,13.167-14.231,43.624C561.127-4.123,561.127-4.123,559,.4l20.615,6.384a155.719,155.719,0,0,1,10.906-30.59C596.239-35.378,603.288-41.9,610.071-41.9c2.527,0,4.522,1.064,5.32,2.926.665,1.6.931,3.325.931,6.783v1.33c-.133,4.389-.133,9.044-.133,9.842,0,9.576,1.6,15.029,5.586,19.684,4.123,4.655,10.64,7.049,19.152,7.049a34.977,34.977,0,0,0,28.6-14.231c5.32-7.448,8.778-16.226,11.3-28.861-8.911-4.123-11.97-6.118-17.822-11.571a79.04,79.04,0,0,1-4.788,22.211c-3.458,8.645-8.512,13.167-14.763,13.167-2.66,0-4.921-.665-6.118-1.862-2-1.862-2.394-3.724-2.394-14.1,0-6.251-.133-9.443-.266-11.97-.266-5.852-1.33-9.576-3.458-12.635-3.059-4.389-8.911-7.182-15.029-7.182-6.517,0-11.438,2.128-17.955,7.847l9.443-23.541c5.852-14.9,5.852-14.9,6.517-16.625,3.192-7.847,3.325-8.113,5.32-11.97Zm102.676,50.54c3.857-1.064,12.9-2.66,22.344-3.99-5.586,22.211-16.891,48.811-25.935,60.781l18.487,9.975c.8-1.729.931-2,2.128-4.522,12.369-25.8,19.684-46.018,24.339-67.83,2.926-.133,4.389-.266,6.65-.266,4.788,0,6.916.532,8.645,2.261,2.394,2.128,3.325,5.586,3.325,11.97,0,10.108-1.6,23.94-3.591,30.324-1.6,5.32-3.591,7.448-6.916,7.448-4.389,0-12.1-2.128-18.886-5.187A61.469,61.469,0,0,1,732.7-4.655a53.808,53.808,0,0,1-.266,5.985c9.044,2.66,14.63,3.724,20.349,3.724,7.315,0,11.571-1.6,15.561-5.985,6.783-7.315,10.773-25.8,10.773-49.609,0-12.5-1.729-19.019-6.251-24.472-4.389-5.187-11.3-7.714-20.748-7.714-1.995,0-3.857.133-7.049.266.4-1.729.4-1.729.931-4.522,1.862-10.906,2.926-16.758,3.059-17.157a32.7,32.7,0,0,1,.931-3.857l-20.615-2a11.481,11.481,0,0,1,.133,2c0,5.054-.931,12.9-3.325,26.866C719.4-80.066,703.437-78.6,699.447-78.6h-.8Zm77.406-24.6C790.02-70.889,798.8-51.737,803.32-29.26l18.221-8.911c-5.453-21.28-13.965-38.038-27.132-54.131ZM904.267-28.063a49.679,49.679,0,0,1-.4-5.453,17.155,17.155,0,0,1,2.394-9.443c1.6-2.527,3.591-4.256,10.241-8.512,7.448-4.921,11.3-8.113,13.965-11.571,3.192-4.123,4.788-9.443,4.788-15.428,0-17.29-14.63-28.329-37.373-28.329-13.566,0-24.339,3.857-31.787,11.438-5.32,5.453-7.714,10.374-9.576,20.083l22.743,2.261c.8-4.921,1.463-7.182,3.059-9.709,2.793-4.256,7.98-6.65,14.231-6.65,10.507,0,16.226,4.389,16.226,12.369a10.429,10.429,0,0,1-2.527,7.315,30.956,30.956,0,0,1-7.581,6.384c-9.177,5.852-10.108,6.517-12.9,9.842-3.99,4.788-5.719,10.374-5.719,18.088-.133,4.256-.133,4.522-.4,7.315ZM882.455-17.955V3.591H905.2V-17.955Z" transform="translate(873.5 452)" fill="#fff"></path><path id="&#x30D1;&#x30B9;_33895" data-name="&#x30D1;&#x30B9; 33895" d="M97.828-78.44c-.74,4.588-2.812,11.4-5.624,18.8-4-3.848-6.216-5.624-12.284-10.952L70.3-61.124a54.1,54.1,0,0,1,.444-9.472h-22.5a93.443,93.443,0,0,1,.592,13.32v52.54c0,7.992-.3,13.616-.74,18.2H70.3V8.14h47.36v5.328H140.3c-.592-4.144-.74-9.176-.74-17.316V-57.276a110.393,110.393,0,0,1,.592-13.468h-22.94q.444,4,.444,12.876v25.012c-6.216-7.252-6.66-7.844-11.248-12.58a168.159,168.159,0,0,0,7.7-19.24,48.112,48.112,0,0,1,2.516-7.1ZM117.66-25.6V-11.84H83.472A131.732,131.732,0,0,0,96.5-27.824,140.974,140.974,0,0,1,107-13.32ZM70.3-54.76A156.675,156.675,0,0,1,83.176-42.624c-4.736,6.808-8.288,10.952-12.876,14.8Zm0,31.672A87.907,87.907,0,0,1,82.288-11.84H70.3ZM42.328-91.612A165.5,165.5,0,0,1,48.4-71.632l10.952-5.032a185,185,0,0,0-8.88-22.348l-8.14,3.4v-13.764a120.983,120.983,0,0,1,.74-16.428H19.832a124.211,124.211,0,0,1,.888,16.428V-6.808a193.325,193.325,0,0,1-.888,20.424H42.92c-.444-5.032-.592-10.36-.592-19.24ZM79.18-120.62A233.093,233.093,0,0,1,91.316-82.732l18.8-6.068c-1.036,2.072-2.072,4-4,7.548l20.128,8.732c7.844-15.54,10.212-21.608,18.5-44.4l-21.9-6.956c-4,14.06-7.548,24.124-11.692,33-4.44-15.984-7.548-25.012-11.988-35.668ZM14.948-52.392c2.368-10.952,3.4-22.2,3.4-36.26v-5.476L5.772-96.5c.148,2.96.148,5.18.148,6.66A131.3,131.3,0,0,1,2.22-57.72ZM83.472-84.656c-4.144-12.58-6.956-19.684-14.8-37.148l-19.536,6.956A255.834,255.834,0,0,1,64.38-76.368Z" transform="translate(384 457)" fill="#fff"></path><path id="&#x30D1;&#x30B9;_33896" data-name="&#x30D1;&#x30B9; 33896" d="M24.272-94.72a83,83,0,0,1,11.4-.888c9.916-.444,18.056-.888,24.568-1.48C58.164-88.652,55.944-81.1,53.28-72.372c-13.172.74-21.46,2.96-29.3,7.992A40.748,40.748,0,0,0,4.884-29.452c0,9.768,3.108,18.2,9.028,24.272a27.345,27.345,0,0,0,19.24,8.436c9.028,0,16.872-4.884,22.644-14.208,4.292-6.956,9.176-18.5,15.244-36.556a109.522,109.522,0,0,1,26.048,8.436,55.8,55.8,0,0,1-12.876,18.8C78.44-14.8,73.408-11.544,62.456-6.364,70-.444,74.74,4.588,80.956,12.876c18.648-10.212,30.932-23.088,38.332-40.7,8.436,4.736,14.208,8.732,18.352,12.432l8.584-27.676a23.7,23.7,0,0,1-5.032-2.368c-5.18-2.812-5.18-2.812-15.392-7.992a256.857,256.857,0,0,0,2.664-30.636c.148-5.772.3-7.252,1.036-10.8l-25.752-.888a51.476,51.476,0,0,1,.592,8.436c0,13.172-.148,17.02-1.184,24.272C94.868-66.452,88.8-68.08,77.848-70.3c2.368-7.992,8.436-26.788,9.768-30.044,1.628-4.144,2.072-5.032,3.552-7.1L75.184-121.064a13.384,13.384,0,0,1-6.068,1.776,298.7,298.7,0,0,1-30.636,1.48c-8.436,0-12.136-.148-15.244-.74Zm22.5,44.992c-6.66,19.684-10.508,27.38-13.912,27.38-2.812,0-5.032-3.4-5.032-7.992a16.812,16.812,0,0,1,4.144-11.248C35.668-46.324,39.812-48.544,46.768-49.728Z" transform="translate(646 457)" fill="#fff"></path><path id="&#x30D1;&#x30B9;_33894" data-name="&#x30D1;&#x30B9; 33894" d="M92.648-105.08a161,161,0,0,1-27.084,5.032v-4.736c0-9.768.148-13.172.888-18.5h-25.6c.888,5.476,1.036,8.88,1.036,19.98v4.736c-.888,0-.888,0-2.96.148H33.3c-9.472,0-15.54-.444-20.276-1.332l.3,23.236a29.165,29.165,0,0,1,3.108-.148l14.356.3,11.248-.3V-59.2C32.116-54.908,25.9-51.208,19.98-46.028,11.1-38.184,6.216-29.452,6.216-21.46c0,7.1,3.552,14.06,9.62,19.24A52.663,52.663,0,0,0,47.8,9.472c6.66,0,12.284-2.368,15.1-6.512C65.12-.148,65.712-3.4,65.712-12.432V-16.28l-.148-26.2a78.953,78.953,0,0,1,21.756-2.96c7.844,0,13.616,1.332,17.612,3.848a15.9,15.9,0,0,1,7.252,13.024c0,7.548-4.292,12.728-10.656,12.728a6.919,6.919,0,0,1-6.512-4.44c-.888-2.22-1.184-4.736-1.184-9.324,0-3.108.148-4.736.3-7.844-8.14,4.44-11.692,5.92-22.5,9.028v3.7c0,21.312,10.656,33.6,29.008,33.6,21.016,0,36.852-15.688,36.852-36.556,0-10.212-3.552-19.536-10.064-26.2-8.584-8.88-22.2-13.468-40.4-13.468a86.661,86.661,0,0,0-21.608,2.516V-77.848c7.252-.74,16.576-1.924,22.348-2.96,2.96-.592,3.4-.592,5.624-.888ZM42.032-20.424c0,4.884-.444,5.92-2.368,5.92A14.542,14.542,0,0,1,33-16.872c-2.22-1.48-3.256-2.96-3.256-4.736,0-4.144,5.328-9.916,12.284-13.172ZM144.3-82.584c-7.4-12.136-16.576-22.5-29.156-32.708L95.608-102.12c13.172,11.544,21.608,21.608,29.156,34.78Z" transform="translate(123 457)" fill="#fff"></path><path id="&#x6955;&#x5186;&#x5F62;_417" data-name="&#x6955;&#x5186;&#x5F62; 417" d="M113.5,5A109.328,109.328,0,0,0,91.628,7.2,107.879,107.879,0,0,0,52.84,23.527,108.831,108.831,0,0,0,13.524,71.268,107.918,107.918,0,0,0,7.2,91.628a109.607,109.607,0,0,0,0,43.744A107.879,107.879,0,0,0,23.527,174.16a108.831,108.831,0,0,0,47.741,39.316,107.918,107.918,0,0,0,20.36,6.32,109.607,109.607,0,0,0,43.744,0,107.879,107.879,0,0,0,38.788-16.323,108.831,108.831,0,0,0,39.316-47.741,107.918,107.918,0,0,0,6.32-20.36,109.607,109.607,0,0,0,0-43.744A107.879,107.879,0,0,0,203.473,52.84a108.831,108.831,0,0,0-47.741-39.316,107.918,107.918,0,0,0-20.36-6.32A109.328,109.328,0,0,0,113.5,5m0-5A113.5,113.5,0,1,1,0,113.5,113.5,113.5,0,0,1,113.5,0Z" transform="translate(84 287)" fill="#fff"></path><path id="&#x6955;&#x5186;&#x5F62;_418" data-name="&#x6955;&#x5186;&#x5F62; 418" d="M113.5,5A109.328,109.328,0,0,0,91.628,7.2,107.879,107.879,0,0,0,52.84,23.527,108.831,108.831,0,0,0,13.524,71.268,107.918,107.918,0,0,0,7.2,91.628a109.607,109.607,0,0,0,0,43.744A107.879,107.879,0,0,0,23.527,174.16a108.831,108.831,0,0,0,47.741,39.316,107.918,107.918,0,0,0,20.36,6.32,109.607,109.607,0,0,0,43.744,0,107.879,107.879,0,0,0,38.788-16.323,108.831,108.831,0,0,0,39.316-47.741,107.918,107.918,0,0,0,6.32-20.36,109.607,109.607,0,0,0,0-43.744A107.879,107.879,0,0,0,203.473,52.84a108.831,108.831,0,0,0-47.741-39.316,107.918,107.918,0,0,0-20.36-6.32A109.328,109.328,0,0,0,113.5,5m0-5A113.5,113.5,0,1,1,0,113.5,113.5,113.5,0,0,1,113.5,0Z" transform="translate(345 287)" fill="#fff"></path><path id="&#x6955;&#x5186;&#x5F62;_419" data-name="&#x6955;&#x5186;&#x5F62; 419" d="M111.5,5A104.719,104.719,0,0,0,51.992,23.5,107.749,107.749,0,0,0,36.224,36.747,108.917,108.917,0,0,0,7.167,91.611a111.621,111.621,0,0,0,0,43.778,108.868,108.868,0,0,0,29.057,54.864A107.749,107.749,0,0,0,51.992,203.5a105.9,105.9,0,0,0,18.084,9.992,104.862,104.862,0,0,0,82.847,0,105.9,105.9,0,0,0,18.084-9.992,107.749,107.749,0,0,0,15.768-13.244,108.917,108.917,0,0,0,29.057-54.864,111.621,111.621,0,0,0,0-43.778,108.868,108.868,0,0,0-29.057-54.864A107.749,107.749,0,0,0,171.008,23.5a105.894,105.894,0,0,0-18.084-9.992A104.461,104.461,0,0,0,111.5,5m0-5C173.08,0,223,50.816,223,113.5S173.08,227,111.5,227,0,176.184,0,113.5,49.92,0,111.5,0Z" transform="translate(609 287)" fill="#fff"></path><path id="&#x30D1;&#x30B9;_33898" data-name="&#x30D1;&#x30B9; 33898" d="M4.15-6A35.9,35.9,0,0,1,3.75.1C5.55,0,6.8,0,9.45,0H18.1c5.25,0,9.4-1.5,12.45-4.45,3.6-3.5,5.5-8.7,5.5-15.2,0-6.2-1.75-11.15-5.2-14.45-3-3-7.25-4.45-12.8-4.45H9.45c-2.55,0-4-.05-5.7-.15a38.363,38.363,0,0,1,.4,5.95ZM8.8-4.2V-34.35h9.25c4.2,0,7.15,1.05,9.35,3.3,2.55,2.6,3.8,6.4,3.8,11.5,0,5.05-1.4,9.2-4.05,11.9C24.9-5.3,21.9-4.2,17.9-4.2ZM58.6.7C66.85.7,72.25-5,72.25-13.8S66.9-28.2,58.5-28.2,44.75-22.55,44.75-13.75C44.75-4.9,50.1.7,58.6.7Zm0-25.15c5.6,0,9.05,4.1,9.05,10.75,0,6.6-3.45,10.6-9.15,10.6-5.65,0-9.15-4.1-9.15-10.7S52.9-24.45,58.6-24.45Zm53,23.25-2.15,5a3.894,3.894,0,0,1-3.65,2.7,7.282,7.282,0,0,1-3.25-.9l-1.1,4.35a21.238,21.238,0,0,0,4.4.55c3.85,0,6.25-1.55,7.65-4.9l11.25-27.15c1.4-3.3,2.25-5.3,2.5-5.95h-5.4a28.037,28.037,0,0,1-1.7,5.5l-6.2,16L107-22.05a26.937,26.937,0,0,1-1.75-5.45H99.6c.55,1.05.55,1.05,2.8,5.95ZM147.85.7C156.1.7,161.5-5,161.5-13.8s-5.35-14.4-13.75-14.4S134-22.55,134-13.75C134-4.9,139.35.7,147.85.7Zm0-25.15c5.6,0,9.05,4.1,9.05,10.75,0,6.6-3.45,10.6-9.15,10.6-5.65,0-9.15-4.1-9.15-10.7S142.15-24.45,147.85-24.45ZM190.7-27.5a44.569,44.569,0,0,1,.35,5.9v9.8a11.08,11.08,0,0,1-2.55,4.85c-2.05,2.45-4.2,3.55-6.8,3.55-3.8,0-5.75-2.25-5.75-6.65V-21.6a44.056,44.056,0,0,1,.35-5.9h-5.25a37.321,37.321,0,0,1,.35,5.85v12.3a10.682,10.682,0,0,0,1.5,6.1c1.65,2.4,4.5,3.7,8.15,3.7a11.223,11.223,0,0,0,10.1-5.55,20.509,20.509,0,0,0-.1,2.15V0h4.9a35.307,35.307,0,0,1-.4-5.9V-21.6a34.547,34.547,0,0,1,.4-5.9ZM232.7,0a44.569,44.569,0,0,1-.35-5.9v-9.75a12.069,12.069,0,0,1,2.65-5,8.6,8.6,0,0,1,6.7-3.4,5.643,5.643,0,0,1,4.3,1.7,7.026,7.026,0,0,1,1.45,4.85V-5.9a32.377,32.377,0,0,1-.4,5.9h5.3A40.4,40.4,0,0,1,252-5.85v-12.6c0-6-3.55-9.55-9.55-9.55a11.278,11.278,0,0,0-10.25,5.7c.1-1.5.15-1.65.15-2.45V-32.6a34.246,34.246,0,0,1,.35-5.95h-5.2a33.442,33.442,0,0,1,.4,5.9V-5.9a33.806,33.806,0,0,1-.4,5.9Zm48.6,0h4.75a34.222,34.222,0,0,1-.4-5.75v-13.9c0-2.75-.65-4.65-2.15-6.05-1.8-1.75-4.55-2.6-8.35-2.6-3.85,0-6.9.9-9.1,2.75-1.45,1.15-2.2,2.3-3.1,4.8l4.65.9a6.477,6.477,0,0,1,1.45-2.7c1.35-1.4,3.35-2.1,6.05-2.1,4.25,0,6.2,1.6,6.2,5v2.6c-6.5.15-9.25.5-12.25,1.45-4.3,1.4-6.75,4.4-6.75,8.25,0,4.85,3.45,7.8,9.05,7.8a15.325,15.325,0,0,0,5.5-.95,12.414,12.414,0,0,0,4.45-2.85Zm0-10.65a5.544,5.544,0,0,1-1.65,4.3,11.215,11.215,0,0,1-7.7,3.25c-3.15,0-5.1-1.65-5.1-4.25,0-2.3,1.25-3.9,3.75-4.9,2.2-.9,5-1.25,10.7-1.4ZM293.7-27.5c1.15,2.4,1.65,3.5,2.45,5.45L303.3-4.6A28.373,28.373,0,0,1,304.9,0h4.9a21.761,21.761,0,0,1,1.55-4.6l7.2-17.45a44.678,44.678,0,0,1,2.4-5.45H315.4a20.932,20.932,0,0,1-1.45,4.85L308.45-8c-.4,1.1-.75,2.1-1.1,3.3C307-5.75,306.5-7.3,306.2-8l-5.5-14.65a24.8,24.8,0,0,1-1.45-4.85Zm59.6,14.6a38.935,38.935,0,0,0-.35-4.05c-1-7-5.75-11.25-12.5-11.25-7.8,0-12.9,5.7-12.9,14.45,0,8.9,5.15,14.5,13.25,14.5a12.892,12.892,0,0,0,9.45-3.65,11.834,11.834,0,0,0,2.8-4.25l-4.2-1.55a6.893,6.893,0,0,1-1.6,2.9,8.13,8.13,0,0,1-6.4,2.75,8.064,8.064,0,0,1-6.8-3.2c-1.3-1.75-1.8-3.4-2-6.65Zm-21.1-3.65a9.442,9.442,0,0,1,1.25-3.8,7.678,7.678,0,0,1,6.9-4.1,7.888,7.888,0,0,1,5.75,2.15,8.9,8.9,0,0,1,2.5,5.75ZM401.7,0h4.75a34.222,34.222,0,0,1-.4-5.75v-13.9c0-2.75-.65-4.65-2.15-6.05-1.8-1.75-4.55-2.6-8.35-2.6-3.85,0-6.9.9-9.1,2.75-1.45,1.15-2.2,2.3-3.1,4.8l4.65.9a6.477,6.477,0,0,1,1.45-2.7c1.35-1.4,3.35-2.1,6.05-2.1,4.25,0,6.2,1.6,6.2,5v2.6c-6.5.15-9.25.5-12.25,1.45-4.3,1.4-6.75,4.4-6.75,8.25,0,4.85,3.45,7.8,9.05,7.8a15.325,15.325,0,0,0,5.5-.95,12.414,12.414,0,0,0,4.45-2.85Zm0-10.65a5.544,5.544,0,0,1-1.65,4.3,11.215,11.215,0,0,1-7.7,3.25c-3.15,0-5.1-1.65-5.1-4.25,0-2.3,1.25-3.9,3.75-4.9,2.2-.9,5-1.25,10.7-1.4ZM422.4,0a44.569,44.569,0,0,1-.35-5.9v-9.8a11.08,11.08,0,0,1,2.55-4.85c2.05-2.45,4.2-3.55,6.8-3.55,3.8,0,5.75,2.25,5.75,6.65V-5.9A44.056,44.056,0,0,1,436.8,0h5.25a37.321,37.321,0,0,1-.35-5.85v-12.3a10.971,10.971,0,0,0-1.5-6.15c-1.65-2.4-4.5-3.7-8.15-3.7-4.45,0-7.6,1.75-10.1,5.6a20.506,20.506,0,0,0,.1-2.15V-27.5h-4.9a35.309,35.309,0,0,1,.4,5.9V-5.9a34.549,34.549,0,0,1-.4,5.9Zm39.5-1.2-2.15,5a3.894,3.894,0,0,1-3.65,2.7,7.282,7.282,0,0,1-3.25-.9l-1.1,4.35a21.238,21.238,0,0,0,4.4.55c3.85,0,6.25-1.55,7.65-4.9l11.25-27.15c1.4-3.3,2.25-5.3,2.5-5.95h-5.4a28.037,28.037,0,0,1-1.7,5.5l-6.2,16L457.3-22.05a26.937,26.937,0,0,1-1.75-5.45H449.9c.55,1.05.55,1.05,2.8,5.95ZM518.8.7c8.25,0,13.65-5.7,13.65-14.5S527.1-28.2,518.7-28.2s-13.75,5.65-13.75,14.45C504.95-4.9,510.3.7,518.8.7Zm0-25.15c5.6,0,9.05,4.1,9.05,10.75,0,6.6-3.45,10.6-9.15,10.6-5.65,0-9.15-4.1-9.15-10.7S513.1-24.45,518.8-24.45Zm27.05.75V-5.9A42.564,42.564,0,0,1,545.5,0h5.25a38.884,38.884,0,0,1-.35-5.9V-23.7h2.45a40.029,40.029,0,0,1,5.4.3v-4.4a46.893,46.893,0,0,1-5.4.3H550.4v-2.55c0-2.75.3-3.8,1.3-4.55a4.957,4.957,0,0,1,2.95-.7,8.1,8.1,0,0,1,4.05,1.1l1.15-3.85a15.06,15.06,0,0,0-5.5-1c-3,0-5.4.85-6.7,2.4-1.3,1.45-1.8,3.2-1.8,6.3v2.85H543.8a29.911,29.911,0,0,1-4.6-.3v4.4a33.328,33.328,0,0,1,4.6-.3ZM591.65-35a49.845,49.845,0,0,1,.35,5.7v1.8h-1.95a22.667,22.667,0,0,1-4.5-.3v4.4a31.653,31.653,0,0,1,4.45-.3h2V-6.15c0,2.55.45,4.05,1.55,5.1,1.1,1,2.9,1.55,5.3,1.55a14.128,14.128,0,0,0,5.8-1.15l-1.1-4.05a7.029,7.029,0,0,1-3.9,1.2,3.617,3.617,0,0,1-2.4-.75c-.5-.5-.7-1.2-.7-2.65V-23.7h2.35a29.063,29.063,0,0,1,5.05.3v-4.4a29.685,29.685,0,0,1-5.1.3h-2.3v-1.8a46.4,46.4,0,0,1,.35-5.7ZM617.9,0a44.569,44.569,0,0,1-.35-5.9v-9.75a12.069,12.069,0,0,1,2.65-5,8.6,8.6,0,0,1,6.7-3.4,5.643,5.643,0,0,1,4.3,1.7,7.026,7.026,0,0,1,1.45,4.85V-5.9a32.378,32.378,0,0,1-.4,5.9h5.3a40.4,40.4,0,0,1-.35-5.85v-12.6c0-6-3.55-9.55-9.55-9.55a11.278,11.278,0,0,0-10.25,5.7c.1-1.5.15-1.65.15-2.45V-32.6a34.24,34.24,0,0,1,.35-5.95h-5.2a33.444,33.444,0,0,1,.4,5.9V-5.9a33.808,33.808,0,0,1-.4,5.9Zm54.95-12.9a38.92,38.92,0,0,0-.35-4.05c-1-7-5.75-11.25-12.5-11.25-7.8,0-12.9,5.7-12.9,14.45,0,8.9,5.15,14.5,13.25,14.5A12.892,12.892,0,0,0,669.8-2.9a11.835,11.835,0,0,0,2.8-4.25L668.4-8.7a6.893,6.893,0,0,1-1.6,2.9,8.13,8.13,0,0,1-6.4,2.75,8.064,8.064,0,0,1-6.8-3.2c-1.3-1.75-1.8-3.4-2-6.65Zm-21.1-3.65a9.444,9.444,0,0,1,1.25-3.8,7.679,7.679,0,0,1,6.9-4.1,7.888,7.888,0,0,1,5.75,2.15,8.9,8.9,0,0,1,2.5,5.75Zm29.3,8.95a9.89,9.89,0,0,0,1.7,4.1c1.95,2.65,5.5,4.05,10.2,4.05,7.2,0,11.6-3.2,11.6-8.45a6.915,6.915,0,0,0-2.8-5.55c-1.5-1.1-3.35-1.75-7.95-2.75a19.91,19.91,0,0,1-5.35-1.65,2.969,2.969,0,0,1-1.65-2.65c0-2.5,2.45-4.2,5.95-4.2a6.526,6.526,0,0,1,5,1.85,4.869,4.869,0,0,1,1.2,2.55l4.7-.7a8.6,8.6,0,0,0-2.7-4.65c-1.85-1.65-4.7-2.55-8.25-2.55s-6.35.9-8.25,2.75a6.816,6.816,0,0,0-2.2,5,6.513,6.513,0,0,0,3.15,5.7c1.75,1.1,3.45,1.65,7.35,2.45,3.8.85,4.6,1.05,5.7,1.75a3.243,3.243,0,0,1,1.5,2.95c0,2.75-2.65,4.5-6.75,4.5a8.182,8.182,0,0,1-5.55-1.7,5.54,5.54,0,0,1-1.7-3.55Zm57.55-5.3a38.92,38.92,0,0,0-.35-4.05c-1-7-5.75-11.25-12.5-11.25-7.8,0-12.9,5.7-12.9,14.45,0,8.9,5.15,14.5,13.25,14.5a12.892,12.892,0,0,0,9.45-3.65,11.835,11.835,0,0,0,2.8-4.25l-4.2-1.55a6.893,6.893,0,0,1-1.6,2.9,8.13,8.13,0,0,1-6.4,2.75,8.064,8.064,0,0,1-6.8-3.2c-1.3-1.75-1.8-3.4-2-6.65Zm-21.1-3.65a9.444,9.444,0,0,1,1.25-3.8,7.679,7.679,0,0,1,6.9-4.1,7.888,7.888,0,0,1,5.75,2.15,8.9,8.9,0,0,1,2.5,5.75Zm75.05-3.55a13.171,13.171,0,0,0-1.75-3.35c-2.2-3.15-5.7-4.8-10.05-4.8-7.95,0-13.15,5.8-13.15,14.6C767.6-4.9,772.85.7,780.95.7c4.25,0,7.65-1.5,9.9-4.45A13.1,13.1,0,0,0,792.9-7.7l-4.45-1.1a10.345,10.345,0,0,1-1.05,2.5,7.194,7.194,0,0,1-6.3,3.1c-5.45,0-8.9-4.1-8.9-10.55,0-6.55,3.35-10.7,8.7-10.7,3.55,0,5.9,1.8,7.25,5.6ZM815,.7c8.25,0,13.65-5.7,13.65-14.5S823.3-28.2,814.9-28.2s-13.75,5.65-13.75,14.45C801.15-4.9,806.5.7,815,.7Zm0-25.15c5.6,0,9.05,4.1,9.05,10.75,0,6.6-3.45,10.6-9.15,10.6-5.65,0-9.15-4.1-9.15-10.7S809.3-24.45,815-24.45ZM843.55,0a44.569,44.569,0,0,1-.35-5.9v-9.8a11.08,11.08,0,0,1,2.55-4.85c2.05-2.45,4.2-3.55,6.8-3.55,3.8,0,5.75,2.25,5.75,6.65V-5.9a44.056,44.056,0,0,1-.35,5.9h5.25a37.322,37.322,0,0,1-.35-5.85v-12.3a10.971,10.971,0,0,0-1.5-6.15c-1.65-2.4-4.5-3.7-8.15-3.7-4.45,0-7.6,1.75-10.1,5.6a20.512,20.512,0,0,0,.1-2.15V-27.5h-4.9a35.309,35.309,0,0,1,.4,5.9V-5.9a34.549,34.549,0,0,1-.4,5.9ZM897.7-20.1a13.171,13.171,0,0,0-1.75-3.35c-2.2-3.15-5.7-4.8-10.05-4.8-7.95,0-13.15,5.8-13.15,14.6C872.75-4.9,878,.7,886.1.7c4.25,0,7.65-1.5,9.9-4.45a13.1,13.1,0,0,0,2.05-3.95L893.6-8.8a10.345,10.345,0,0,1-1.05,2.5,7.194,7.194,0,0,1-6.3,3.1c-5.45,0-8.9-4.1-8.9-10.55,0-6.55,3.35-10.7,8.7-10.7,3.55,0,5.9,1.8,7.25,5.6Zm34.35,7.2a38.92,38.92,0,0,0-.35-4.05c-1-7-5.75-11.25-12.5-11.25-7.8,0-12.9,5.7-12.9,14.45,0,8.9,5.15,14.5,13.25,14.5A12.892,12.892,0,0,0,929-2.9a11.835,11.835,0,0,0,2.8-4.25L927.6-8.7A6.893,6.893,0,0,1,926-5.8a8.13,8.13,0,0,1-6.4,2.75,8.064,8.064,0,0,1-6.8-3.2c-1.3-1.75-1.8-3.4-2-6.65Zm-21.1-3.65a9.444,9.444,0,0,1,1.25-3.8,7.679,7.679,0,0,1,6.9-4.1,7.888,7.888,0,0,1,5.75,2.15,8.9,8.9,0,0,1,2.5,5.75Zm49-10.95a23.643,23.643,0,0,0-4.6-.45,10.5,10.5,0,0,0-6.6,2.05,8.919,8.919,0,0,0-2.3,2.65c.05-.4.05-.5.1-.85v-3.4h-4.9a38.884,38.884,0,0,1,.35,5.9V-5.9a40.508,40.508,0,0,1-.35,5.9h5.25a43.054,43.054,0,0,1-.35-5.9v-9.9a8.61,8.61,0,0,1,1.9-5.05,7.317,7.317,0,0,1,6.1-2.85,11.722,11.722,0,0,1,4.1.75ZM973.25,0a44.569,44.569,0,0,1-.35-5.9v-9.8a11.08,11.08,0,0,1,2.55-4.85c2.05-2.45,4.2-3.55,6.8-3.55,3.8,0,5.75,2.25,5.75,6.65V-5.9a44.056,44.056,0,0,1-.35,5.9h5.25a37.322,37.322,0,0,1-.35-5.85v-12.3a10.971,10.971,0,0,0-1.5-6.15c-1.65-2.4-4.5-3.7-8.15-3.7-4.45,0-7.6,1.75-10.1,5.6a20.512,20.512,0,0,0,.1-2.15V-27.5H968a35.309,35.309,0,0,1,.4,5.9V-5.9A34.549,34.549,0,0,1,968,0Zm29.05-7.6a9.89,9.89,0,0,0,1.7,4.1c1.95,2.65,5.5,4.05,10.2,4.05,7.2,0,11.6-3.2,11.6-8.45a6.915,6.915,0,0,0-2.8-5.55c-1.5-1.1-3.35-1.75-7.95-2.75a19.91,19.91,0,0,1-5.35-1.65,2.969,2.969,0,0,1-1.65-2.65c0-2.5,2.45-4.2,5.95-4.2a6.526,6.526,0,0,1,5,1.85,4.869,4.869,0,0,1,1.2,2.55l4.7-.7a8.6,8.6,0,0,0-2.7-4.65c-1.85-1.65-4.7-2.55-8.25-2.55s-6.35.9-8.25,2.75a6.816,6.816,0,0,0-2.2,5,6.513,6.513,0,0,0,3.15,5.7c1.75,1.1,3.45,1.65,7.35,2.45,3.8.85,4.6,1.05,5.7,1.75a3.243,3.243,0,0,1,1.5,2.95c0,2.75-2.65,4.5-6.75,4.5a8.182,8.182,0,0,1-5.55-1.7,5.54,5.54,0,0,1-1.7-3.55Zm45.75-2.3a18.294,18.294,0,0,1-.2-2.6,7.027,7.027,0,0,1,1.25-4.45c.7-1,1.35-1.5,4.55-3.75,2.7-1.9,3.7-2.9,4.6-4.45A9.415,9.415,0,0,0,1059.4-30a8.6,8.6,0,0,0-3.45-6.75,13.888,13.888,0,0,0-8.9-2.7q-6.3,0-9.9,3.15c-2.05,1.75-3.05,3.55-4.05,7.15l5.05.7a8.764,8.764,0,0,1,1.7-4c1.5-1.95,3.95-3,7.05-3,4.55,0,7.6,2.4,7.6,5.95a5.651,5.651,0,0,1-1.6,3.8,18.6,18.6,0,0,1-3.35,2.7c-3.1,2.1-3.45,2.4-4.45,3.75a8.946,8.946,0,0,0-1.9,6.2,20.787,20.787,0,0,1-.15,3.15Zm-5.25,4.6V0h5.5V-5.3Z" transform="translate(430 589)" fill="#fff"></path></g></g></svg>