<svg xmlns="http://www.w3.org/2000/svg" width="274.429" height="190.21" viewBox="0 0 274.429 190.21"><path id="&#x30D1;&#x30B9;_33833" data-name="&#x30D1;&#x30B9; 33833" d="M143.2-107.307a175.175,175.175,0,0,1-6.819,47.732q-6.819,24.045-17.585,38.4Q100.728,2.632,72.734,2.632q-27.156,0-42.947-21.772Q14.116-40.913,14.116-78.477q0-46.057,20.815-77.52,21.055-31.462,51.44-31.462,25.959,0,41.392,21.772T143.2-107.307Zm-26.677-1.316q0-25.6-8.015-39.717-8.015-14.475-22.131-14.475-19.26,0-32.539,25.361Q40.674-112.092,40.674-75.127q0,24.883,8.135,39.119,8.254,14,22.61,14,17.944,0,30.027-20.337,6.7-11.365,10.767-29.907A162.555,162.555,0,0,0,116.519-108.623ZM278.257-25.481,275.027,0H155.518l73.691-81.228q11.484-12.561,18.3-20.7a126.83,126.83,0,0,0,9.451-12.322q5.024-8.015,5.024-19.141a33.943,33.943,0,0,0-2.094-12.262,25.828,25.828,0,0,0-5.981-9.271,25.89,25.89,0,0,0-9.51-5.862,36.727,36.727,0,0,0-12.561-2.034A38.508,38.508,0,0,0,218.2-160.6a23.937,23.937,0,0,0-9.869,6.879,34.812,34.812,0,0,0-6.4,11.9,75.492,75.492,0,0,0-3.23,17.286H172.744q2.034-27.275,11.365-40.554,15.671-22.49,48.45-22.49,25.481,0,40.674,14.834,15.313,14.714,15.313,39,0,15.791-6.34,27.515a94.928,94.928,0,0,1-9.989,14.355q-6.879,8.494-17.406,20.1L212.1-25.481Z" transform="translate(-14.116 187.578)" fill="#b9adff"></path></svg>