<svg xmlns="http://www.w3.org/2000/svg" width="1625" height="414.9" viewBox="0 0 1625 414.9"><g id="&#x30B0;&#x30EB;&#x30FC;&#x30D7;_19584" data-name="&#x30B0;&#x30EB;&#x30FC;&#x30D7; 19584" transform="translate(-150 -6930)"><g id="&#x30B0;&#x30EB;&#x30FC;&#x30D7;_19583" data-name="&#x30B0;&#x30EB;&#x30FC;&#x30D7; 19583"><rect id="&#x9577;&#x65B9;&#x5F62;_4998" data-name="&#x9577;&#x65B9;&#x5F62; 4998" width="1625" height="182" transform="translate(150 6930)"></rect><path id="&#x30D1;&#x30B9;_33834" data-name="&#x30D1;&#x30B9; 33834" d="M46.176-4.472c0,4.784-.208,9.88-.624,13.832H61.88V4.68H81.536V9.256H97.864A131.372,131.372,0,0,1,97.24-4.472V-75.3c0-3.952.1-7.176.416-10.712-2.5.208-5.928.416-10.088.416H56.16c-3.744,0-6.76-.1-10.4-.416.312,4.784.416,7.488.416,10.816v35.568c-6.448-6.24-8.84-9.464-12.584-16.744h3.952a42.443,42.443,0,0,1,6.136.416V-71.344a39.136,39.136,0,0,1-6.344.52H32.864v-6.864A75.658,75.658,0,0,1,33.488-88.5H16.848a62.217,62.217,0,0,1,.624,10.816v6.864H13.1a39.667,39.667,0,0,1-7.9-.52v15.5a38.632,38.632,0,0,1,7.7-.52h3.328A75.382,75.382,0,0,1,2.5-28.288,79.17,79.17,0,0,1,8.528-10.712a65.343,65.343,0,0,0,4.888-7.9A54.8,54.8,0,0,0,17.888-28.7c-.208,2.7-.312,7.8-.312,12.376V-3.744a125.086,125.086,0,0,1-.624,13.416H33.488a122.384,122.384,0,0,1-.624-13.416V-25.48c0-4.68-.1-7.176-.208-10.4A60.073,60.073,0,0,0,40.04-23.92a72.368,72.368,0,0,1,6.136-15.7Zm15.7-66.456H81.536V-59.9H61.88Zm0,24.752H81.536V-34.84H61.88Zm0,25.064H81.536V-9.88H61.88ZM204.048-37.96a62.554,62.554,0,0,1,7.176-12.9c-8.216-2.808-12.376-4.992-16.224-8.736a25.388,25.388,0,0,1-5.928-8.112,65.514,65.514,0,0,1,10.92,5.72,95.3,95.3,0,0,0,9.984-18.2l-13.832-5.1c-2.7,6.968-4.472,10.3-8.008,15.184a42.433,42.433,0,0,1-1.56-12.272,30.9,30.9,0,0,1,.416-5.616H170.976a22.708,22.708,0,0,1,.416,4.576c0,10.3-1.664,16.848-5.72,22.36-3.848,5.408-8.632,8.528-17.16,11.44v-5.1a42.929,42.929,0,0,1-5.824.208H122.1a50.009,50.009,0,0,1-6.136-.208v11.752a47.372,47.372,0,0,1,6.136-.208h20.592a45.442,45.442,0,0,1,5.824.208v-6.032a46.061,46.061,0,0,1,5.928,8.944,68.187,68.187,0,0,1-5.408,14.56,34.794,34.794,0,0,1-5.824.312h-20.8a70.2,70.2,0,0,1-7.384-.312,59.872,59.872,0,0,1,.416,7.8V-.728c0,3.224-.208,6.656-.52,10.192h14.872V5.1h5.928V8.112h13.52a49.653,49.653,0,0,1-.208-6.968V-1.248a57.536,57.536,0,0,1,5.2,11.96,44.934,44.934,0,0,0,13.312-7.7,36.734,36.734,0,0,0,11.648-15.288C184.392-2.7,192.92,5.1,203.84,10.4c2.912-7.28,4.472-10.5,8.008-15.6-10.92-3.952-17.992-9.464-21.944-17.264a64.711,64.711,0,0,1,10.712,6.136,88.49,88.49,0,0,0,9.672-19.344Zm-33.176-7.488a32.321,32.321,0,0,1,.312,4.472c0,10.4-1.248,17.056-4.16,22.464-3.64,6.656-9.672,11.44-17.992,14.248V-20.072l9.984,4.472c4.056-7.8,5.408-11.336,8.32-20.9l-6.864-1.976c9.36-5.1,15.5-11.44,18.928-19.656,2.7,5.3,3.536,6.552,7.072,10.088a58,58,0,0,0,9.88,7.7,60.412,60.412,0,0,1-7.384,15.6,46.639,46.639,0,0,1-2.392-15.5,36.682,36.682,0,0,1,.312-5.2Zm-41.6,31.408h6.552v6.968h-6.552ZM150.8-65.416l10.088,3.744c3.224-6.032,4.784-10.608,6.968-19.968l-13.1-2.808A56.615,56.615,0,0,1,150.8-71.136v-.312a81.773,81.773,0,0,1-8.424.312H120.848a46.368,46.368,0,0,1-8.424-.52v14.144a61.87,61.87,0,0,1,8.424-.416h21.736c5.1,0,6.136,0,8.216.312Zm-34.944-8.84c2.7-.208,4.992-.312,9.36-.312h13.936c4.68,0,6.552.1,9.36.312V-86.424a70.524,70.524,0,0,1-9.36.416H125.216a69.527,69.527,0,0,1-9.36-.416Zm.1,46.072c1.664-.1,3.016-.208,5.928-.208h20.488c3.12,0,4.888.1,6.136.208V-39.936a43,43,0,0,1-5.928.208H122.1c-3.12,0-4.368-.1-6.136-.208Zm162.968-44.3a110.9,110.9,0,0,1-17.056,2.7c.728-3.744,1.248-6.76,1.664-8.944a35.652,35.652,0,0,1,1.352-6.032L245.44-86.216v1.664c0,3.12-.416,6.968-1.768,15.5H241.7a108.238,108.238,0,0,1-15.808-1.04l-.312,16.952a19.3,19.3,0,0,1,2.288-.1c.832,0,1.248,0,3.952.1,1.976.1,4.784.208,7.176.208h1.664c-3.536,18.408-10.5,39.624-17.472,53.248L242.32,7.28c10.3-31.512,12.584-39.936,16.64-60.632,3.016-.208,4.472-.312,9.464-.832l1.04,14.768a139.581,139.581,0,0,1,29.224-2.6,93.723,93.723,0,0,1,13.624.728L312-58.864c-2.184-.1-4.368-.1-5.1-.1-13.208,0-17.472.208-27.56,1.56ZM267.9-33.8c-5.824,8.32-8.216,14.144-8.216,20.176q0,19.656,30.576,19.656c6.448,0,10.608-.312,20.28-1.664,2.808-.312,3.536-.416,5.616-.624l-1.248-18.2c-6.344,2.392-16.432,4.056-24.648,4.056-8.736,0-13-2.288-13-7.072,0-3.224,1.768-6.656,5.72-11.336Zm17.368-45.552a72.312,72.312,0,0,1,10.5,15.7l9.88-4.784a71.431,71.431,0,0,0-10.5-15.392ZM299.624-85.8c3.536,3.952,6.448,8.216,10.4,15.392l9.568-4.68a78,78,0,0,0-10.608-14.976Zm65.832,38.272c3.224,0,3.224,0,6.656.208,3.64.208,6.968.312,10.92.312,4.472,0,7.072-.1,11.128-.416v1.248c0,12.168-.728,18.3-2.7,23.3-3.016,7.488-9.88,13.728-20.7,18.408A66.468,66.468,0,0,1,385.008,9.36c10.608-6.136,15.808-11.024,20.384-19.032,4.056-6.968,6.136-17.472,6.136-30.784,0-2.392,0-3.432-.1-8.424a68.925,68.925,0,0,0,8.944-1.352c3.64-.624,4.264-.728,6.032-.936l-.936-17.368A60.929,60.929,0,0,1,410.9-65c-.208-7.488-.312-12.376-.416-14.352a16.4,16.4,0,0,1-.1-1.976,36.005,36.005,0,0,1,.312-3.952l-18.512.208c.832,3.744.832,3.952,1.56,21.632a85.606,85.606,0,0,1-9.464.416,106.046,106.046,0,0,1-18.72-1.456Zm-23.5-36.5a52.729,52.729,0,0,1-.624,8.216c-3.12,22.36-3.536,27.248-3.536,38.688A186.053,186.053,0,0,0,340.7-4.16c1.144,6.032,1.144,6.032,1.456,8.216L358.9,3.432c.624-8.84,6.448-24.544,13.208-35.464l-12.168-6.032a75.516,75.516,0,0,0-5.3,12.792c-.1-2.912-.1-3.848-.1-3.848a218.265,218.265,0,0,1,1.04-23.92,167.8,167.8,0,0,1,5.512-29.536Zm101.92,27.04c4.472-.936,4.992-.936,14.664-1.976,19.448-1.56,23.088-1.872,25.376-2.08l4.888-.52c-4.992,3.432-7.488,5.512-10.192,8.84a35.6,35.6,0,0,0-8.84,23.5c0,13.208,6.344,22.776,18.616,28.5C495.04,2.288,502.84,4.056,514.7,5.1a26.6,26.6,0,0,1,3.848.52l2.392-19.76c-1.56.1-2.288.1-3.12.1-6.552,0-15.7-1.664-19.864-3.744-5.928-2.808-8.736-6.864-8.736-12.9,0-8.528,6.136-17.264,16.536-23.608,7.176-4.472,16.536-7.28,23.816-7.28a15.815,15.815,0,0,1,2.912.208l-.936-18.824a8.77,8.77,0,0,1-2.392.416c-.52,0-1.144.1-4.68.208l-4.368.208-10.712.416c-19.76.728-29.848,1.248-44.824,2.184-11.336.728-15.08.936-17.784.936-.832,0-2.184,0-3.952-.1Zm62.712,9.048a64.667,64.667,0,0,1,10.088,15.392l9.984-4.576a67.044,67.044,0,0,0-10.088-15.08Zm14.56-6.136c3.536,4.056,6.136,8.008,9.88,14.976l9.672-4.472A71.878,71.878,0,0,0,530.5-58.24Zm93.5,8.736a87.812,87.812,0,0,1-21.528,2.392h-2.184c.416-3.432.52-4.264.728-5.616a43.756,43.756,0,0,0,.728-5.1,154.84,154.84,0,0,0,17.056-.728c5.1-.416,5.1-.416,7.488-.624l.624-17.264c-6.344,1.56-12.376,2.288-22.568,2.6,1.456-9.568,1.872-11.856,3.016-15.184l-19.24-1.56v1.456A91.652,91.652,0,0,1,577.2-70.1c-8.216-.832-14.248-1.976-18.824-3.536l-1.144,16.12c1.56.312,2.184.416,3.744.728a139.624,139.624,0,0,0,14.352,2.392c-.832,5.824-1.352,9.36-1.456,10.4-9.464-1.144-13.312-1.872-18.1-3.64l-1.248,16.64a25.523,25.523,0,0,1,4.472.624,114.15,114.15,0,0,0,13.416,2.08c-.208,3.12-.312,5.408-.312,7.7,0,8.528,2.288,14.664,7.28,19.344,5.928,5.408,14.352,8.216,25.064,8.216,10.192,0,18.824-2.5,25.272-7.384a25.872,25.872,0,0,0,10.608-20.592c0-8.528-2.6-15.5-8.632-23.3-6.864,2.288-9.464,2.808-17.16,3.328Zm-.1,5.616c5.1,5.616,7.7,11.232,7.7,16.536,0,8.32-6.76,13.312-18.1,13.312-4.888,0-8.736-1.144-11.232-3.432-2.184-1.976-3.224-4.784-3.224-8.944,0-1.664.1-3.64.208-4.992,2.912.1,3.64.1,4.68.1a137.528,137.528,0,0,0,16.328-1.04c2.184-.312,2.288-.312,3.328-.416ZM657.7-15.392A134.706,134.706,0,0,1,682.24,9.36L695.448-4.056c-8.632-9.88-15.392-16.224-25.376-23.3ZM833.04-45.344a87.812,87.812,0,0,1-21.528,2.392h-2.184c.416-3.432.52-4.264.728-5.616a43.756,43.756,0,0,0,.728-5.1,154.84,154.84,0,0,0,17.056-.728c5.1-.416,5.1-.416,7.488-.624l.624-17.264c-6.344,1.56-12.376,2.288-22.568,2.6,1.456-9.568,1.872-11.856,3.016-15.184l-19.24-1.56v1.456A91.652,91.652,0,0,1,795.6-70.1c-8.216-.832-14.248-1.976-18.824-3.536l-1.144,16.12c1.56.312,2.184.416,3.744.728a139.624,139.624,0,0,0,14.352,2.392c-.832,5.824-1.352,9.36-1.456,10.4-9.464-1.144-13.312-1.872-18.1-3.64l-1.248,16.64a25.523,25.523,0,0,1,4.472.624,114.15,114.15,0,0,0,13.416,2.08c-.208,3.12-.312,5.408-.312,7.7,0,8.528,2.288,14.664,7.28,19.344,5.928,5.408,14.352,8.216,25.064,8.216,10.192,0,18.824-2.5,25.272-7.384a25.872,25.872,0,0,0,10.608-20.592c0-8.528-2.6-15.5-8.632-23.3-6.864,2.288-9.464,2.808-17.16,3.328Zm-.1,5.616c5.1,5.616,7.7,11.232,7.7,16.536,0,8.32-6.76,13.312-18.1,13.312-4.888,0-8.736-1.144-11.232-3.432-2.184-1.976-3.224-4.784-3.224-8.944,0-1.664.1-3.64.208-4.992,2.912.1,3.64.1,4.68.1a137.528,137.528,0,0,0,16.328-1.04c2.184-.312,2.288-.312,3.328-.416Zm49.5-16.432a5.6,5.6,0,0,1,1.144-.1c.832,0,1.976,0,3.432.1,8.112.624,8.216.624,10.3.624,2.808.1,2.808.1,3.848.1-2.6,9.256-9.464,25.272-13.312,31.1l17.576,5.616c1.768-2.5,3.224-3.64,6.656-5.408A45.521,45.521,0,0,1,933.3-28.912c9.464,0,14.664,2.7,14.664,7.592,0,6.76-8.736,11.024-22.672,11.024-8.528,0-17.472-1.56-27.976-4.784A73.91,73.91,0,0,1,899.08,2.912,108.8,108.8,0,0,0,925.5,6.24c25.584,0,41.5-10.5,41.5-27.352a21.069,21.069,0,0,0-8.736-17.576c-5.512-3.744-12.688-5.512-22.464-5.512-8.944,0-15.7,1.352-22.776,4.68a110.528,110.528,0,0,0,6.032-15.6c12.064-.312,21.632-.936,36.192-2.392a73.756,73.756,0,0,1,7.384-.52L961.9-75.816c-6.24,2.08-18.2,3.432-38.688,4.264,2.5-10.192,2.5-10.192,3.64-13.936L907.5-87.048c-.1,4.264-.728,8.008-2.392,15.7-10.92-.1-17.888-.624-22.464-1.768Zm119.6-9.048a52.042,52.042,0,0,1,9.152-.728c7.488-.1,18.512-.832,23.088-1.456-15.5,15.7-34.424,31.616-43.68,36.5L1001.416-15.7a48.61,48.61,0,0,1,9.256-7.28c10.192-6.448,20.176-9.568,30.472-9.568,9.984,0,15.7,3.432,15.7,9.464,0,7.384-9.152,12.376-22.568,12.376a82.82,82.82,0,0,1-26.936-5.1,63.505,63.505,0,0,1,3.016,18.72,103.432,103.432,0,0,0,24.856,3.016c11.44,0,20.7-2.184,27.56-6.552,8.736-5.616,13.312-13.52,13.312-22.984,0-6.864-2.5-12.792-6.968-16.536-5.408-4.472-13.416-6.968-22.568-6.968a43.3,43.3,0,0,0-12.9,1.768c3.12-2.392,10.088-8.424,14.352-12.376,11.44-10.5,12.688-11.648,15.5-13.312l-8.944-13c-1.976.832-2.392.936-6.032,1.352-6.76.624-17.784,1.144-26,1.144-14.04,0-17.68-.1-21.008-.832Zm123.24-21.736c-.728,4.16-2.7,10.5-11.128,34.736-6.344,18.3-9.984,28.7-10.816,31.3-6.24,18.1-6.448,18.616-8.32,22.256l19.24,5.72a127.192,127.192,0,0,1,8.112-23.92c4.056-8.736,9.048-13.52,13.832-13.52,3.224,0,4.368,1.664,4.368,6.76v1.768c-.1,4.472-.1,6.448-.1,7.384,0,7.384,1.456,11.856,4.992,15.5,3.432,3.64,8.528,5.408,15.184,5.408,9.568,0,17.784-3.952,23.192-11.128,4.576-6.136,7.384-13.208,9.36-24.024-7.488-3.328-10.5-5.2-16.536-10.4a57.438,57.438,0,0,1-4.264,19.24c-2.5,5.72-5.512,8.424-9.672,8.424-3.744,0-4.992-2.288-4.992-9.568-.208-12.9-.208-13.728-1.248-17.472-1.664-6.136-6.968-9.984-13.832-9.984a21.471,21.471,0,0,0-12.9,4.576c12.064-31.1,13.624-34.736,15.808-38.792Zm121.784,1.768c-25.584,0-42.016,17.576-42.016,45.032,0,27.56,16.432,45.344,41.912,45.344,25.272,0,42.016-18.2,42.016-45.656C1288.976-67.7,1272.648-85.176,1247.064-85.176Zm0,72.384c-12.688,0-20.488-10.5-20.488-27.456,0-16.744,7.8-27.04,20.488-27.04,12.584,0,20.28,10.192,20.28,27.04C1267.344-23.192,1259.648-12.792,1247.064-12.792Zm103.48-36.3,21.736-22.776,7.28-7.28c1.456-1.456,2.184-2.288,4.056-4.16h-28.08a63.435,63.435,0,0,1-9.048,11.648l-20.7,22.152V-67.912a115.439,115.439,0,0,1,.832-15.392h-22.048a113.446,113.446,0,0,1,.832,15.392v55.744a117.475,117.475,0,0,1-.832,15.392h22.048a117.475,117.475,0,0,1-.832-15.392v-13.1l10.5-10.5,16.12,25.792a124.9,124.9,0,0,1,7.176,13.208h27.04c-3.536-4.368-4.888-6.24-11.024-15.392Zm102.752,26.1c-.1-2.6-.1-3.744-.1-4.784,0-1.56.1-3.64.312-8.008l2.08-32.968c.312-4.368.936-11.648,1.248-14.04H1432.6c.52,5.1,1.04,9.776,1.248,14.04l2.08,32.968c.416,6.136.416,6.136.416,8.112a38.494,38.494,0,0,1-.208,4.68Zm1.872,26.728V-15.912h-20.9V3.744Z" transform="translate(214 7060)" fill="#fff"></path></g><path id="&#x30D1;&#x30B9;_33835" data-name="&#x30D1;&#x30B9; 33835" d="M-546.756-6.072c-2.622.207-4.416.276-5.727.276h-1.035l1.794,8.487c2.553-.483,2.553-.483,8.349-1.311,4.416-.621,8.97-1.38,14.214-2.346a49.756,49.756,0,0,1-.345,7.038h8.9a49.886,49.886,0,0,1-.414-6.624,22.576,22.576,0,0,1,3.381,6.072,51.065,51.065,0,0,0,10.35-6.21c3.519,2.415,6.624,3.864,14.007,6.624a34.982,34.982,0,0,1,4-8.211c-5.451-1.242-8.763-2.277-11.937-3.864a63.316,63.316,0,0,0,7.521-10.7,26.044,26.044,0,0,1,1.38-2.346l-4.209-4.623a31.4,31.4,0,0,1-5.106.276h-11.8a41.2,41.2,0,0,1-5.8-.276v7.59a39.038,39.038,0,0,1,5.382-.276h1.518l-6.486,2.76a46.647,46.647,0,0,0,5.382,7.59,45.953,45.953,0,0,1-7.59,3.657v-23.6h23.6a56.4,56.4,0,0,1,7.659.345v-7.521a51.785,51.785,0,0,1-7.521.345h-48.438a51.785,51.785,0,0,1-7.521-.345v7.521a54.759,54.759,0,0,1,6.486-.345Zm8.211-20.01h9.384v2.346h-9.384Zm0,7.8h9.384v2.622h-9.384Zm0,8.073h9.384V-8c-5.658.828-5.658.828-9.384,1.242Zm35.673-6.279a34.262,34.262,0,0,1-4.623,5.727,23.584,23.584,0,0,1-4.071-5.727Zm6.072-33.948a48.825,48.825,0,0,1,.276-6.21,71.868,71.868,0,0,1-7.314.276H-538.89a72.742,72.742,0,0,1-7.314-.276,49.516,49.516,0,0,1,.276,6.21v9.384a49,49,0,0,1-.276,6.141c2.07-.138,3.864-.207,6.969-.207h36.708c4.485.069,4.485.069,6,.207a50.229,50.229,0,0,1-.276-6.21Zm-40.572-.207h31.947v2.553h-31.947Zm0,7.521h31.947v2.553h-31.947Zm95.082,18.492h-1.38a32.828,32.828,0,0,1-4.554-.207c.069,1.449.138,2.346.138,4.416v6.486c0,1.794-.069,3.036-.138,4.278,2.139-.138,3.036-.207,4.071-.207h12.972a22.2,22.2,0,0,1,.69,3.933c1.656.138,2.346.138,3.105.138,7.728,0,9.8-1.587,9.8-7.521V-36.294a62.319,62.319,0,0,1,.276-7.245c-2.139.138-3.519.207-6.486.207h-2.622c.759-1.518,1.1-2.139,1.656-3.519h2.484a57.574,57.574,0,0,1,6.486.276v-7.866a45.958,45.958,0,0,1-7.107.414h-11.247a28.693,28.693,0,0,1,.414-4.623h-9.66a29.463,29.463,0,0,1,.414,4.623h-11.04a51.947,51.947,0,0,1-7.245-.414v7.866a59.039,59.039,0,0,1,7.038-.276h1.587a35.632,35.632,0,0,1,1.656,3.519h-1.449c-3.243,0-4.83-.069-6.831-.207.138,2.277.207,3.726.207,7.176v22.425c0,2.691-.138,5.8-.276,7.8h8.625c-.069-1.035-.138-1.449-.138-1.863,0-2.829-.069-4.347-.069-4.485V-27.531h8.625Zm7.659,0v-2.9h8.832V-14.7c0,1.311-.276,1.449-2.346,1.449h-.621v-7.107a42.646,42.646,0,0,1,.207-4.485,34.778,34.778,0,0,1-4.209.207Zm0-12.075h8.832v3.1h-8.832Zm-7.659,0v3.1h-8.625v-3.1Zm.207-6.624a22.214,22.214,0,0,0-1.518-3.519h9.591c-.621,1.794-.9,2.415-1.38,3.519Zm.69,24.219h6v3.657h-6Zm-37.812-32.568A77.667,77.667,0,0,1-467.2-38.5l6.762-6.762A78.1,78.1,0,0,0-472.65-57.891Zm0,28.014a24.561,24.561,0,0,1,4.485-.345h3.243v14.007a36.638,36.638,0,0,1-9.039,6l3.933,9.384c.552-.345.552-.345,1.035-.69.759-.621.759-.621,1.794-1.38a69.89,69.89,0,0,0,6.693-5.589,16.435,16.435,0,0,0,8.142,5.589c3.8,1.173,8.694,1.518,20.148,1.518,7.866,0,16.491-.138,22.563-.414a37.933,37.933,0,0,1,2.346-9.246c-7.935.966-17.112,1.38-30.843,1.38a57.634,57.634,0,0,1-11.04-.966,12.076,12.076,0,0,1-4.071-1.656,9.178,9.178,0,0,1-2.967-3.243V-24.84a70.787,70.787,0,0,1,.276-7.659,40.57,40.57,0,0,1-5.313.276h-5.8a32.178,32.178,0,0,1-5.589-.345Zm92.184-33.741a55.233,55.233,0,0,1-1.863,11.523c-1.311.069-2.622.138-3.036.138a51.426,51.426,0,0,1-9.66-.69v9.384h2.622c2.346.138,2.346.138,3.105.138h.828c1.656-.069,1.656-.069,3.726-.069-3.312,10.488-8,20.148-12.972,26.7l9.453,5.244c.414-.9.414-.9,1.311-2.622,2.622-4.968,3.243-6.21,4.83-9.591a137.32,137.32,0,0,0,7.521-20.01c5.52-.483,8.349-.759,10.764-1.1a16.48,16.48,0,0,1,2.139-.276l-.207-9.522a49.079,49.079,0,0,1-10.419,1.794c.138-.69.138-.69.414-1.725.483-2.415.828-3.933.966-4.554a20.7,20.7,0,0,1,.966-3.726Zm45.954,17.388a106.726,106.726,0,0,0-20.079-9.246l-4.9,8a90.075,90.075,0,0,1,20.562,9.8Zm-.414,31.326c-.552-.414-.552-.414-1.173-.9-1.173-.966-1.794-1.449-2.691-2.07a47.378,47.378,0,0,0-10.419-6,66.486,66.486,0,0,1-.621-9.315,20.92,20.92,0,0,1,.9-6.831l-9.591-.483a43.4,43.4,0,0,0-.552,7.659,62.861,62.861,0,0,0,.345,6.693,29.776,29.776,0,0,0-5.037-.414,20.444,20.444,0,0,0-7.383,1.035c-5.451,1.932-8.763,6.348-8.763,11.592,0,7.383,6.21,12.282,15.663,12.282,5.658,0,10.35-1.725,12.765-4.692,1.656-2.07,2.277-4.14,2.346-7.383A40.812,40.812,0,0,1-345.9.552Zm-23.6-2.484a10.458,10.458,0,0,1,.138,1.932c0,3.381-2,5.106-6.141,5.106-3.657,0-5.8-1.518-5.8-4,0-2.415,2.553-4.071,6.348-4.071A14.614,14.614,0,0,1-365.079-11.178Zm45.4-36.915c-4.485,0-5.727-.069-8.349-.276a45.349,45.349,0,0,1,.276,5.727v6.969a30.859,30.859,0,0,1-.345,5.52h8.97V-40.434h43.263v10.281h8.9a43.5,43.5,0,0,1-.345-5.451v-7.038a43.308,43.308,0,0,1,.276-5.727,84.634,84.634,0,0,1-8.556.276h-2.208a82.728,82.728,0,0,0,4.485-7.8l-8.9-2.139a43.471,43.471,0,0,1-5.037,9.936h-4.968a60.431,60.431,0,0,0-4.416-10.281l-8.763,1.932a44.405,44.405,0,0,1,3.864,8.349h-6a61.039,61.039,0,0,0-5.865-9.522l-8.487,2.07a43.969,43.969,0,0,1,4.761,7.452Zm27.255,35.466h16.629a79.74,79.74,0,0,1,9.177.414v-9.039a65.653,65.653,0,0,1-9.108.483h-15.387a106.26,106.26,0,0,0,12.282-9.591c.759-.69,1.035-.966,1.794-1.587l-4.416-4.9a32.7,32.7,0,0,1-5.313.276h-21.8a68.95,68.95,0,0,1-7.176-.276V-28.7a70.078,70.078,0,0,1,7.107-.276h16.629a32.543,32.543,0,0,1-6.348,4.485h-3.381a27.98,27.98,0,0,1,.207,3.726h-17.94a66.68,66.68,0,0,1-8.832-.483v9.039a76.1,76.1,0,0,1,8.9-.414h17.871V-4.14c0,1.242-.483,1.449-3.381,1.449-2.07,0-4.83-.207-8.487-.552a31.35,31.35,0,0,1,2.622,8.694c3.1.069,5.313.138,7.107.138,9.177,0,11.247-1.311,11.247-7.314ZM-194.1-49.68a60.817,60.817,0,0,1,.276-7.245,60.858,60.858,0,0,1-6.624.276h-14.628a67.342,67.342,0,0,1-8.073-.414v8.28a43.632,43.632,0,0,1,5.037-.276l-3.795,4.416a47.223,47.223,0,0,1,8.832,6.21,54.765,54.765,0,0,1-10.074,2.76l1.725,5.313-3.726-.621a18.957,18.957,0,0,0,.276-3.588V-49.887a58.247,58.247,0,0,1,.207-7.176,44.972,44.972,0,0,1-7.107.345h-14.49a64.478,64.478,0,0,1-7.866-.414v8.349a33.4,33.4,0,0,1,6.141-.345l-4.071,4.485a40.9,40.9,0,0,1,8.556,6.072,62.442,62.442,0,0,1-11.316,3.381l2.691,8.073a16.309,16.309,0,0,1,3.243-1.38c3.174-1.242,5.313-2.07,8.97-3.726a20.9,20.9,0,0,1,.966,5.106c1.449.069,3.45.138,4.968.138a24.27,24.27,0,0,0,4.968-.414c-.828,1.449-1.1,1.794-1.725,2.76h-9.246c-4.071,0-5.313-.069-7.59-.207a73.22,73.22,0,0,1,.276,8V-2.553a60.728,60.728,0,0,1-.414,8.418h9.108V3.105h30.015v2.76h9.177a60.964,60.964,0,0,1-.345-8.418V-16.905a58.759,58.759,0,0,1,.276-7.935c-2.139.138-3.45.207-7.659.207h-14.214c1.035-1.518,1.311-1.932,2.277-3.519a16.818,16.818,0,0,1,2.277-.9c2.346-.9,3.726-1.449,6.9-2.829a27.152,27.152,0,0,1,.828,4.83c2.07.069,4.14.138,5.175.138,4.692,0,6.831-.414,8.142-1.518,1.311-1.035,1.656-2.346,1.656-6Zm-43.815,5.658a51.023,51.023,0,0,0-7.866-5.106h12.765v13.179c0,1.311-.207,1.38-2.277,1.449l-.138-7.521c-3.657,1.725-4.968,2.277-7.038,3.105Zm29.946.138a47.914,47.914,0,0,0-8-5.244h13.593V-35.88c0,1.311-.138,1.38-2.277,1.449l-.138-7.59c-3.519,1.656-4.761,2.208-7.383,3.243ZM-238.6-17.8h30.084v3.588H-238.6Zm0,10.35h30.084v3.588H-238.6Zm72.726-43.263a70.542,70.542,0,0,1-10.833-.483v10.557a80.9,80.9,0,0,1,10.7-.414h30.222c-3.174,12.558-9.936,22.011-20.562,28.773a56.036,56.036,0,0,1-14.835,6.831c3.933,3.933,5.037,5.451,7.314,9.867,11.868-5.313,19.665-10.7,26.013-18.147,6.348-7.383,10.764-16.353,13.662-27.945l.276-.966h.276a7.627,7.627,0,0,0,7.59-7.659,7.642,7.642,0,0,0-7.659-7.659,7.616,7.616,0,0,0-7.59,7.107,25.115,25.115,0,0,1-2.967.138Zm42.159-2.967a3.386,3.386,0,0,1,3.381,3.381,3.386,3.386,0,0,1-3.381,3.381A3.386,3.386,0,0,1-127.1-50.3,3.386,3.386,0,0,1-123.717-53.682Zm27.876,8.763c2.139-.207,4.9-.345,9.315-.345h22.977a64.536,64.536,0,0,1,9.246.345v-10c-2.484.483-3.8.552-9.384.552H-86.319a54,54,0,0,1-9.522-.552Zm-5.8,16.974a88.182,88.182,0,0,1,10.281-.345h31.4c-2.76,6.693-5.865,10.971-10.9,14.973-5.106,4-10.35,6.417-18.7,8.556C-85.905-.69-84.939.759-83.076,4.83-73.623,1.1-68.931-1.311-64.239-5.106c6.831-5.52,12.144-13.455,15.663-23.6a20.922,20.922,0,0,1,1.932-4.347l-4.623-5.106c-2,.621-2.691.69-6.693.69H-91.218c-6.141,0-7.452-.069-10.419-.483Zm74.451-16.077A72.9,72.9,0,0,1-9.039-29.739l6.969-9.039c-5.52-5.106-9.453-8-18.354-13.386Zm3.312,45.954a25.175,25.175,0,0,1,3.45-.966C-19.113.69-19.113.69-17.388.345A87.592,87.592,0,0,0,2.691-6.831C14.7-13.179,22.839-22.287,29.67-37.053a37.536,37.536,0,0,1-8.763-8,59.761,59.761,0,0,1-6.969,13.731,42.868,42.868,0,0,1-20.286,16.9A65.963,65.963,0,0,1-26.91-9.384ZM83.559-51.4a44.188,44.188,0,0,1,6.417,9.315l6-3.036a39.073,39.073,0,0,0-6.348-9.108Zm8.487-3.657a49.808,49.808,0,0,1,6.279,9.039l5.934-3.105a40.68,40.68,0,0,0-6.348-8.763Zm-4.14,16.077a45.125,45.125,0,0,1,4.83,8.832,66.5,66.5,0,0,1,5.106,15.594l9.522-4.623A69.494,69.494,0,0,0,96.393-42.987ZM44.436-30.5c2-.552,6.693-1.38,11.592-2.07C53.13-21.045,47.265-7.176,42.573-1.035L52.164,4.14c.414-.9.483-1.035,1.1-2.346C59.685-11.592,63.48-22.08,65.895-33.327a33.829,33.829,0,0,1,3.45-.207c2.484,0,3.588.276,4.485,1.173,1.242,1.1,1.725,2.9,1.725,6.21,0,5.244-.828,12.42-1.863,15.732-.828,2.76-1.863,3.864-3.588,3.864-2.277,0-6.279-1.1-9.8-2.622a31.361,31.361,0,0,1,.9,7.383,27.3,27.3,0,0,1-.138,3.105c4.692,1.38,7.59,1.932,10.557,1.932,3.795,0,6-.828,8.073-3.1,3.519-3.8,5.589-13.386,5.589-25.737,0-6.486-.9-9.867-3.243-12.7-2.277-2.691-5.865-4-10.764-4-1.035,0-2,.069-3.657.138.207-.828.207-.9.483-2.346.966-5.658,1.518-8.625,1.587-8.9a16.973,16.973,0,0,1,.483-2L59.478-56.442a6.823,6.823,0,0,1,.069,1.035c0,2.622-.483,6.693-1.725,13.938-3.519.552-11.8,1.311-13.869,1.311h-.414Zm87.147-11.178c-.138,6.831-.138,6.831-.276,9.936h-5.589a44.4,44.4,0,0,1-7.935-.414v9.039a44.548,44.548,0,0,1,7.728-.414h4.83a29.1,29.1,0,0,1-4.9,12.282A28.363,28.363,0,0,1,116.265-2.9a21.735,21.735,0,0,1,6.486,7.383c7.176-5.727,10.488-10,13.248-16.7C138.552-7.59,141.45-4.14,146.418.276a41.564,41.564,0,0,1,4.692-8.763c-6-4.554-9.039-7.935-12.282-13.455.138-.69.138-.9.276-1.587h3.864a43.773,43.773,0,0,1,6.762.345v-8.9a40.51,40.51,0,0,1-6.417.345H140c.207-3.519.207-3.519.345-9.936h1.932a64.368,64.368,0,0,1,6.831.276v-8.763a44.223,44.223,0,0,1-6.831.345h-9.729c.69-1.932.9-2.622,1.242-3.795a30.9,30.9,0,0,1,1.173-3.588L125.925-59a26.675,26.675,0,0,1-.966,4.485,37.1,37.1,0,0,1-8.625,15.594,33.737,33.737,0,0,1,6.9,6.279,49.933,49.933,0,0,0,5.8-9.039ZM159.942-.69h9.729V3.933h9.108c-.276-2.967-.414-5.658-.414-8.832V-45.954a54.056,54.056,0,0,1,.345-7.245,44.393,44.393,0,0,1-6.417.345h-14.9a41.583,41.583,0,0,1-6.417-.345,57.955,57.955,0,0,1,.345,7.245V-4.071c0,2.691-.138,5.52-.345,7.935h8.97Zm.138-44.022h9.591V-8.9H160.08Zm43.4-12.006a15.008,15.008,0,0,1-.138,2.415c-.138,1.242-.414,4-.9,8.349-.552,4.968-.966,12.558-.966,18.423,0,1.449.069,3.519.138,6,.069,3.657.069,3.657.069,3.933a7.151,7.151,0,0,1-.069,1.1l9.867-.138v-1.035a31.036,31.036,0,0,1,8.9-22.287c2.277-2.208,4.416-3.243,6.9-3.243,5.451,0,8.487,5.175,8.487,14.421,0,15.318-8,22.287-27.324,23.8a34.429,34.429,0,0,1,4.761,10,64.739,64.739,0,0,0,14.214-3.795c12.282-5.175,18.63-15.042,18.63-28.911,0-7.314-1.1-12.213-3.726-16.767-3.243-5.589-8.211-8.625-13.938-8.625A16.655,16.655,0,0,0,217.005-48.3c-2.415,2.277-4.071,4.761-6.141,9.108,1.38-10.488,2-13.938,3.036-17.043Zm65.964,19.8c.621,0,.828-.069,1.311-.069l7.383.207h1.932c-2.415,12.558-7.452,27.6-12.075,36.5l10.626,3.933c.345-1.242.9-2.829,1.587-4.761,3.174-9.108,3.933-11.385,6-18.906a166.478,166.478,0,0,0,4-17.112,77.985,77.985,0,0,0,9.729-1.035c2.484-.414,2.484-.414,3.795-.552l-.345-9.453A72.465,72.465,0,0,1,291.87-46.23c.207-1.38.276-1.518.552-3.381A48.424,48.424,0,0,1,293.8-56.3l-10.9-.9v1.173a78.407,78.407,0,0,1-1.173,10.212c-1.725.069-1.794.069-2.277.069a54.392,54.392,0,0,1-9.867-.69Zm55.89.138c-4.347-.069-4.623-.069-6.348-.069-8,0-11.454.345-21.735,2.208l.69,9.039a83.893,83.893,0,0,1,18.7-1.863,73.722,73.722,0,0,1,8.9.483Zm-28.083,14.9c-3.864,5.313-5.313,8.832-5.313,12.558a10.257,10.257,0,0,0,5.106,8.97c3.45,2.07,7.935,2.967,14.283,2.967a78.123,78.123,0,0,0,13.179-1.173c1.725-.207,2.277-.276,3.519-.414l-.69-10.212A50.374,50.374,0,0,1,311.88-6.486c-6.693,0-9.867-1.587-9.867-4.83,0-2.277.759-3.933,3.519-7.59Zm47.265-29.67a36.656,36.656,0,0,1,.276,4.623c.414,20.907,1.38,29.67,4.209,36.708C351.9-3.036,355.971.621,361.008.621c6.348,0,10.833-6.141,14.49-19.665a33.944,33.944,0,0,1-8.142-7.452A57.717,57.717,0,0,1,363.7-14.214c-.759,1.863-1.587,2.829-2.484,2.829-3.519,0-6.072-12.213-6.072-28.7a80.978,80.978,0,0,1,.621-11.385Zm34.638,6.969a61.032,61.032,0,0,1,9.936,17.664A70.437,70.437,0,0,1,393.3-6.279l10.419-3.864c-1.863-15.663-6.9-27.945-15.732-38.571Zm62.652-4.278H424.971a67.918,67.918,0,0,1-9.039-.483v9.66a86.69,86.69,0,0,1,9.039-.414h10a79.969,79.969,0,0,1-.483,8.28c-.966,8.211-3.036,13.662-6.969,18.906-3.588,4.692-6.348,7.107-12.9,11.109A26.516,26.516,0,0,1,421.176,6C428.7.966,433.527-3.8,437.184-9.8a48.64,48.64,0,0,0,5.934-15.111h18.009c-.207,7.59-.552,12.282-1.242,15.8-.759,4.485-1.587,5.382-4.83,5.382a62.524,62.524,0,0,1-10.143-.9,27.847,27.847,0,0,1,2.346,9.453c5.451.345,7.107.414,9.039.414,7.176,0,9.936-1.725,11.592-7.383,1.38-4.554,2.07-10.488,2.622-22.011.138-3.243.345-6.072.621-8.211.069-.9.069-.9.138-1.38a58.745,58.745,0,0,1-7.176.276h-19.8c.138-2,.276-3.519.483-6.624h24.909a68.864,68.864,0,0,1,8.763.414v-9.66a64.353,64.353,0,0,1-9.108.483H451.4v-3.726a30.3,30.3,0,0,1,.414-5.589H441.324a26.322,26.322,0,0,1,.483,5.589Zm70.035,15.525a1.214,1.214,0,0,1,.414-.069c.9,0,.9,0,2,.069,2.967.207,9.108.414,11.592.414,1.518,0,2.691,0,4.692-.069.207,7.314.345,10.419.414,12.765a20.693,20.693,0,0,0-4.968-.552c-9.108,0-15.111,4.9-15.111,12.351s5.8,12.006,15.318,12.006c8.763,0,14.283-3.864,14.283-9.936a7.981,7.981,0,0,0-.069-1.173c4,2.553,7.314,5.175,8.9,7.107L553.1-10.35c-.759-.483-.966-.621-2-1.311a55.7,55.7,0,0,0-10.557-6c-.552-8.832-.621-10.35-.69-15.939a78.838,78.838,0,0,0,8.763-1.38,16.959,16.959,0,0,1,2.691-.414l-.345-9.384A58.457,58.457,0,0,1,539.787-42.5c0-7.521.069-10.35.483-12.627H530.058a17.609,17.609,0,0,1,.276,3.588c.069,4.623.069,4.623.069,9.729-2.346.069-3.588.069-5.52.069a61.044,61.044,0,0,1-12.9-1.035Zm19.32,22.011a6.419,6.419,0,0,1,.069,1.449c0,3.45-1.725,4.968-5.727,4.968-3.381,0-5.451-1.38-5.451-3.588,0-2.346,2.415-3.864,6.072-3.864A12.428,12.428,0,0,1,531.162-11.316ZM497.49-55.407a38.517,38.517,0,0,1-.828,5.865c-1.38,7.452-1.38,7.452-1.656,9.522A123.737,123.737,0,0,0,493.7-21.459a139.638,139.638,0,0,0,1.863,22.632c.207,1.449.207,1.863.276,2.76L505.7,3.45c-.069-1.242-.138-1.932-.138-2.208,0-5.244,2.553-13.8,6.21-21.045l-5.865-2.346c-1.1,2.208-1.587,3.45-3.105,7.176,0-1.1.069-3.8.069-5.175a132.1,132.1,0,0,1,.9-13.317c1.035-8.28,3.105-18.078,4.554-20.976ZM-654.741,49.154h-3.105a43.773,43.773,0,0,1-6.762-.345v8.9a44.875,44.875,0,0,1,6.762-.345h2.691v8H-656.6a43.229,43.229,0,0,1-6.762-.345v8.763a36.076,36.076,0,0,1,5.934-.345h46.368l-6.9,3.312a74.227,74.227,0,0,1,8.349,14.766l7.866-4.9a84.5,84.5,0,0,0-8.832-13.179h1.1a40.51,40.51,0,0,1,6.417.345V65.024a38.787,38.787,0,0,1-6.555.345h-.966v-8h2.277a44.321,44.321,0,0,1,6.762.345v-8.9a43.773,43.773,0,0,1-6.762.345h-2.277V41.288a53.866,53.866,0,0,1,6.486.414V32.8a69.358,69.358,0,0,1-8.832.414H-645.84c.966-1.449,1.518-2.346,2.277-3.519a14.617,14.617,0,0,1,1.173-1.863l-9.453-1.518a22.306,22.306,0,0,1-1.518,3.243c-2.691,4.485-6.21,8-12.489,12.351a36.909,36.909,0,0,1,5.658,6.141,44.962,44.962,0,0,0,5.451-4.485Zm7.659-7.866h4.485v7.866h-4.485Zm12.006,0h4.347v7.866h-4.347Zm-12.006,16.077h4.485v8h-4.485Zm12.006,0h4.347v8h-4.347Zm11.868,8v-8h4.554v8Zm0-16.215V41.288h4.554v7.866Zm3.45,40.5a97.292,97.292,0,0,0-4.071-14.7l-8.073,1.794a86.707,86.707,0,0,1,3.1,14.835Zm-16.215,1.449A116.7,116.7,0,0,0-637.7,75.512l-8.073.9a112.79,112.79,0,0,1,.828,12.558c0,.621,0,1.587-.069,2.829Zm-21.873.9c4.278-4.968,6-7.866,8.9-14.766l-7.59-3.726a32.445,32.445,0,0,1-8.487,12.9Zm95.91-11.247a57.133,57.133,0,0,1,6.555-1.656l13.524-2.967v7.452a52.865,52.865,0,0,1-.414,8.487h9.8a53.437,53.437,0,0,1-.414-8.418V74.2c3.381-.69,4.968-.966,6.831-1.173l-1.1-9.246a52.743,52.743,0,0,1-5.727,1.587V36.182a52.459,52.459,0,0,1,.414-8.349h-9.8a50.931,50.931,0,0,1,.414,8.349V67.3l-14.766,3.1a40.629,40.629,0,0,1-6.555.966c.69-1.38.966-1.863,2.07-3.795a37.589,37.589,0,0,1-8.694-9.039h2.07a30.394,30.394,0,0,1,5.52.345V50.258a26.185,26.185,0,0,1-5.382.345h-2.829V46.187l5.589,3.036c2-4.278,3.174-7.59,5.175-14.973l-6.486-2.967A77.088,77.088,0,0,1-570.423,45.7V34.181a37.016,37.016,0,0,1,.345-6.348h-9.315a39.462,39.462,0,0,1,.345,6.417V50.6h-4.278a34.673,34.673,0,0,1-6.279-.345v8.625a37.515,37.515,0,0,1,6.348-.345h3.1c-2.9,7.107-6.279,12.351-10.7,16.629a33.506,33.506,0,0,1,4,8.694c3.312-3.657,5.037-6.555,8.073-13.524-.138,1.932-.207,4.416-.207,7.038v7.59a52.253,52.253,0,0,1-.414,7.176h9.315a46.8,46.8,0,0,1-.345-6.969V74.477a58.242,58.242,0,0,0-.345-6.693,50.59,50.59,0,0,0,5.8,8.073c.759-2,.966-2.553,1.656-4.14Zm-28.221-46.368a61.688,61.688,0,0,1,4.071,14.766l6.417-3.036a88.851,88.851,0,0,0-4.14-14.835Zm30.567,3.933c6.348,4.692,7.176,5.451,12.006,10.488l5.52-6.831a64.606,64.606,0,0,0-11.868-9.867Zm-2.139,17.043a66.871,66.871,0,0,1,12.006,10.557l5.451-6.624a70.327,70.327,0,0,0-11.8-9.936Zm59.892-13.386c-5.313,0-7.038-.069-9.66-.552l.069,10.074c2.484-.414,2.622-.414,9.453-.414h8.97l-.345,2a34.932,34.932,0,0,1-3.312,11.04c-3.519,7.107-8.97,12.351-17.94,17.043a33.747,33.747,0,0,1,7.521,8.763c8.97-5.8,15.18-12.144,18.975-19.389,2.967-5.865,4.347-10.764,5.382-19.458l14.7-.069A156.438,156.438,0,0,1-469.338,71.1c-1.035,6.624-1.932,8-5.175,8a35.4,35.4,0,0,1-9.039-1.518c1.518,3.864,1.794,5.313,2,10.35a52.435,52.435,0,0,0,8.694.759c6.969,0,10.005-2,11.868-7.659,1.587-4.623,2.76-16.767,3.174-30.981.069-2.76.207-3.45.828-4.761l-4.623-4.071a13.037,13.037,0,0,1-5.037.69h-15.18c.138-2.208.207-2.622.276-4.071.276-6,.276-6,.621-8.28l-10.971-.276a21.878,21.878,0,0,1,.138,2.9c0,3.243-.138,6.831-.345,9.8Zm96.945-2.07V35.561a42.686,42.686,0,0,1,.345-6.417h-11.316a49.8,49.8,0,0,1,.345,6.486v4.278H-428.49a54.818,54.818,0,0,1-7.935-.345c.138,2,.207,3.657.207,6.969v8.349a58.9,58.9,0,0,1-.345,8.073h11.04a55.261,55.261,0,0,1-.345-8.073V49.016h31.809c-1.311,12.282-6.486,20.424-16.9,26.5-4.14,2.484-7.8,3.795-14.283,5.244a32.52,32.52,0,0,1,6.624,9.936c6.555-2.277,9.936-3.795,13.662-6.072A43.494,43.494,0,0,0-387.5,65.783c2.346-5.175,3.588-9.729,4.761-17.94a9.649,9.649,0,0,1,1.1-3.933l-4.623-4.692c-1.518.552-2.76.69-6.21.69Zm42.366,2.07a72.9,72.9,0,0,1,18.147,14.283l6.969-9.039c-5.52-5.106-9.453-8-18.354-13.386Zm3.312,45.954a25.175,25.175,0,0,1,3.45-.966c1.311-.276,1.311-.276,3.036-.621a87.593,87.593,0,0,0,20.079-7.176c12.006-6.348,20.148-15.456,26.979-30.222a37.535,37.535,0,0,1-8.763-8A59.761,59.761,0,0,1-321.4,54.674a42.868,42.868,0,0,1-20.286,16.905,65.963,65.963,0,0,1-20.562,5.037Zm82.455-41.814-5.727.621c-3.243.345-5.589.552-6.969.552-.414,0-1.173,0-2.07-.069l1.035,10.143a59.21,59.21,0,0,1,9.039-1.449l4.692-.621V70.751c0,6,.069,7.107.69,9.315a9.63,9.63,0,0,0,6.21,6.417c2.553.828,6.969,1.242,12.7,1.242,3.795,0,8.694-.276,14.352-.828,6.141-.621,6.141-.621,7.659-.621l-.414-10.971a53.378,53.378,0,0,1-9.246,2,110.046,110.046,0,0,1-12.213.828,37.509,37.509,0,0,1-6.072-.414c-1.932-.345-2.829-1.173-3.1-2.829-.207-1.1-.207-1.1-.276-5.589V54.191l21.528-2.76a25.317,25.317,0,0,1-5.382,6.969,36.808,36.808,0,0,1-7.866,5.8,28.834,28.834,0,0,1,8.28,6.762c4.968-3.864,7.245-6,9.729-9.039a58.958,58.958,0,0,0,7.383-11.937,12.249,12.249,0,0,1,2.07-3.519l-5.934-5.451c-1.449.69-2,.828-5.106,1.173l-24.633,2.829V38.321a43.992,43.992,0,0,1,.483-7.8h-11.316a42.16,42.16,0,0,1,.483,8Zm68.931-15.042a73.561,73.561,0,0,1,.345,9.384V53.846a84.242,84.242,0,0,1-.414,9.66h11.316c-.207-1.863-.345-5.244-.345-9.522V40.46a75.723,75.723,0,0,1,.414-9.384Zm31.533.069a61.838,61.838,0,0,1,.414,9.315v6.555a109.836,109.836,0,0,1-.759,15.249c-1.1,6.417-4.209,10.419-10.557,13.8-3.795,2-7.383,3.174-13.455,4.416,3.381,3.933,4.278,5.451,5.934,9.867,6.348-1.794,10.005-3.243,13.869-5.451,7.659-4.347,12.282-9.936,14.214-17.388,1.1-4.209,1.38-8.418,1.38-19.872V40.322a70.427,70.427,0,0,1,.345-9.177Zm37.329,10.833a72.9,72.9,0,0,1,18.147,14.283l6.969-9.039c-5.52-5.106-9.453-8-18.354-13.386Zm3.312,45.954a25.173,25.173,0,0,1,3.45-.966c1.311-.276,1.311-.276,3.036-.621a87.592,87.592,0,0,0,20.079-7.176c12.006-6.348,20.148-15.456,26.979-30.222a37.536,37.536,0,0,1-8.763-8,59.761,59.761,0,0,1-6.969,13.731,42.868,42.868,0,0,1-20.286,16.905,65.963,65.963,0,0,1-20.562,5.037Zm120.2-48.99,3.1-1.035a33.764,33.764,0,0,0-4.9-8.9l-5.934,1.932a35.593,35.593,0,0,1,4,7.245c-1.035.069-1.725.138-2.484.138l-17.94.207c.759-1.518,1.035-2.07,1.656-3.45a28.849,28.849,0,0,1,2-4.14L-47.058,28.8a25.541,25.541,0,0,1-3.312,8.763A53.922,53.922,0,0,1-68.448,58.055a25.449,25.449,0,0,1,8.211,7.038A68.71,68.71,0,0,0-44.3,47.567l19.6-.276c-5.658,17.388-16.422,28.29-35.052,35.466a27.406,27.406,0,0,1,7.107,8.9C-41.676,86.621-33.81,81.1-27.6,73.994c6-6.9,10.833-16.146,14.145-26.979.828-2.691,1.035-3.312,1.725-4.347Zm.9-10.281A46.322,46.322,0,0,1-9.8,37.7l5.865-2.208a33.618,33.618,0,0,0-4.9-8.763Zm28.014,1.725a60.2,60.2,0,0,1-1.1,6.9A143.878,143.878,0,0,0,9.66,64.265,130.975,130.975,0,0,0,11.454,85.31c.207,1.587.276,2.139.345,3.381l10-.483c-.069-.966-.069-1.311-.069-2,0-5.451,2-12.765,5.658-20.769l-6.072-2.484L20.01,66.266c-.345.828-.345.828-1.242,3.519.207-14.628,2.415-30.153,5.451-38.364ZM30.5,47.084c1.035.069,1.587.069,1.932.138a98.99,98.99,0,0,0,11.109.552,147.086,147.086,0,0,0,18.285-1.242,11.2,11.2,0,0,1,1.449-.069l-.483-10c-4.416,1.173-11.316,1.863-18.906,1.863-6.279,0-9.867-.276-13.248-1.173Zm4.554,10.281c-4.278,5.451-6.417,10.419-6.417,14.766a12.613,12.613,0,0,0,2.07,7.038c3.1,4.347,8.832,6.417,17.6,6.417a83.337,83.337,0,0,0,14.49-1.311c1.518-.207,1.932-.276,3.036-.414l-.69-10.419a50.859,50.859,0,0,1-16.767,2.691c-6.348,0-9.867-1.932-9.867-5.382,0-2.553,1.587-5.658,4.83-9.729Zm94.116-10.212a44.583,44.583,0,0,1,6,8.556l5.52-3.243a40.058,40.058,0,0,0-6.141-8.349ZM121.3,51.431a37.909,37.909,0,0,1,6.141,8.832l5.658-3.312a34.6,34.6,0,0,0-6.141-8.694ZM90.321,42.875a11.961,11.961,0,0,1,2.415.207,129.6,129.6,0,0,0,14.283.828,61.371,61.371,0,0,0,7.866-.414c-2,1.173-6.693,4.071-9.108,5.658l7.038,5.244c6.624-4.9,14.7-9.936,18.837-11.8l-.345-9.108c-3.726.828-9.729,1.242-18.078,1.242-10.074,0-18.078-.621-22.287-1.725ZM95.841,57.5c-6.555,5.244-9.384,10.074-9.384,15.732s3.036,9.66,9.246,12.006c3.864,1.518,9.867,2.277,18.147,2.277a108.718,108.718,0,0,0,15.594-1.1,59.2,59.2,0,0,1,6.21-.621L134.9,74.477c-4.623,1.794-13.938,3.036-22.425,3.036-10.764,0-15.525-1.794-15.525-5.8,0-2.691,2-5.589,6.21-8.97Zm65-14.076c1.656-.138,2.277-.138,3.519-.207,4.554,0,9.522-.138,14.9-.276a15.4,15.4,0,0,1-1.932,3.519H163.6a65.718,65.718,0,0,1-8.418-.414v8.28a79.843,79.843,0,0,1,8.556-.414H169.6c-4.14,2.622-9.108,4.485-16.353,6.141a24.561,24.561,0,0,1,4.692,7.521c2.277-.759,3.243-1.1,4.692-1.587a17.06,17.06,0,0,1,3.726,6.693c11.523-2.277,18.492-5.175,28.083-11.868l-6.624-4.968a31.887,31.887,0,0,1-6.693,4.554c-5.175,2.76-9.729,4.14-18.078,5.451,8.625-3.243,13.869-6.555,18.906-11.937h8.832c5.8,7.176,14.076,12.282,24.564,15.318a24.681,24.681,0,0,1,3.933-8.349,49.979,49.979,0,0,1-11.109-3.105,23.07,23.07,0,0,1-6.693-3.864h7.866a67.223,67.223,0,0,1,8.418.414v-8.28a62.372,62.372,0,0,1-8.556.414H187.335c.552-1.173,1.035-2.139,1.794-3.933,8.763-.483,8.763-.483,13.593-.966.966,1.1.966,1.1,3.864,4.485l7.383-4.347a106.654,106.654,0,0,0-15.042-13.593l-6.9,3.588c2.415,1.932,3.1,2.415,4.623,3.726-5.52.414-7.866.483-16.629.552,1.38-1.518,2.829-3.45,4.209-5.244,1.173-1.656,1.242-1.794,1.518-2.139l-9.591-1.863a45.577,45.577,0,0,1-6.21,9.315c-4.968-.069-7.935-.207-10.143-.414Zm35.742,19.251a29.351,29.351,0,0,1-7.8,5.451,68.879,68.879,0,0,1-26.22,7.521,18.758,18.758,0,0,1,3.864,7.038c9.039-1.518,15.111-3.105,21.045-5.658,5.8-2.484,9.177-4.554,15.87-9.66Zm8.9,6.21c-1.242,1.656-4.692,4.347-7.866,6.279-9.867,5.934-20.079,8.9-34.638,9.936a24.356,24.356,0,0,1,4.278,7.8c12.7-1.656,21.6-4.14,29.739-8.211,5.313-2.622,7.659-4.209,16.146-10.971Zm42.711-29.877c.276-9.729.276-9.729.552-11.385h-9.66A38.511,38.511,0,0,1,239.5,33.9c0,3.243,0,3.243-.069,5.106h-2.484a50.713,50.713,0,0,1-7.59-.414v9.315a46.58,46.58,0,0,1,6.762-.345h2.967a86.3,86.3,0,0,1-3.312,20.01,44.136,44.136,0,0,1-8.28,15.594,37.226,37.226,0,0,1,6.693,8.556,58.863,58.863,0,0,0,9.867-19.872c2.07-7.176,3.1-14.076,3.795-24.288h5.175c-.138,10.143-.138,10.419-.414,16.491-.345,7.038-.966,12.765-1.656,15.18-.552,2-1.1,2.484-2.76,2.484a37.772,37.772,0,0,1-6.279-.759,28.483,28.483,0,0,1,1.587,8.694c2.76.276,5.037.414,6.693.414,5.727,0,8.073-1.932,9.384-7.728,1.311-5.865,1.932-15.594,2.139-31.257.069-9.867.069-9.867.345-12.351-2.208.207-4.347.276-7.935.276ZM273.93,85.172h8.28v4.9h9.246A51.706,51.706,0,0,1,291.042,82V41.357a54.685,54.685,0,0,1,.345-7.245,53.254,53.254,0,0,1-6.417.276H271.239a56.517,56.517,0,0,1-6.348-.276,54.055,54.055,0,0,1,.345,7.245V82.343a63,63,0,0,1-.414,8h9.108Zm0-42.5h8.28V76.961h-8.28ZM342.654,27.9c-1.242,1.863-2,2.691-5.313,5.865a161.283,161.283,0,0,1-16.008,13.386c-4.209,3.174-5.175,4-6.141,5.037a9.048,9.048,0,0,0-2.415,5.934,10.805,10.805,0,0,0,.966,4.278c.828,1.518,2.07,2.76,5.244,5.244,10.833,8.418,12.9,10.074,17.94,14.766,4.83,4.416,7.176,6.9,9.039,9.522l8.418-8.625c-.9-.69-1.311-1.035-2.07-1.725-10.143-8.97-14.352-12.42-21.045-17.319-6.693-4.83-6.693-4.83-6.693-5.8,0-.759.345-1.1,2.484-2.691,7.728-5.865,13.11-10.074,16.629-13.317,6.9-6.348,6.9-6.348,8.625-7.521Zm76.521,5.589a42.223,42.223,0,0,1,5.382,9.8l6.21-2.484a38.483,38.483,0,0,0-5.52-9.591Zm8.487-3.036a47.241,47.241,0,0,1,5.313,9.522l6.072-2.553a38.612,38.612,0,0,0-5.52-9.108ZM380.811,49.637h1.311l7.383.138h1.932c-2.415,12.558-7.452,27.669-12.075,36.5l10.626,3.933c.345-1.173.9-2.76,1.587-4.761,3.174-9.108,3.933-11.385,6-18.906a161.364,161.364,0,0,0,4-17.043,77.339,77.339,0,0,0,9.729-1.1c2.484-.414,2.484-.414,3.795-.552l-.345-9.453a65.383,65.383,0,0,1-11.523,1.932c.207-1.38.276-1.518.552-3.381.9-5.037.9-5.037,1.38-6.624l-10.9-.9v1.173a79.726,79.726,0,0,1-1.173,10.212h-2.277a54.392,54.392,0,0,1-9.867-.69Zm55.89.138c-4.347-.069-4.623-.069-6.348-.069-8,0-11.454.345-21.735,2.208l.69,9.108a80.037,80.037,0,0,1,18.7-1.932,73.72,73.72,0,0,1,8.9.483Zm-28.083,14.9c-3.864,5.313-5.313,8.832-5.313,12.558a10.257,10.257,0,0,0,5.106,8.97c3.45,2.07,7.935,2.967,14.283,2.967a84.848,84.848,0,0,0,13.179-1.1c1.725-.276,2.277-.345,3.519-.483l-.69-10.212a50.374,50.374,0,0,1-15.456,2.691c-6.693,0-9.867-1.587-9.867-4.83,0-2.277.759-3.933,3.519-7.59Zm50.3-13.593a23.3,23.3,0,0,1,3.243-.207c12.075-.276,17.112-.621,24.426-1.587.276.552.276.552.9,1.656a34.123,34.123,0,0,0,2.415,4.416,43.18,43.18,0,0,0,3.174,4.9,33.626,33.626,0,0,0-11.247-1.656c-8.073,0-14.145,1.863-18.147,5.589a13.745,13.745,0,0,0-4.554,10.143,14,14,0,0,0,4.554,10.143c3.657,3.312,10.626,5.106,19.872,5.106a66.549,66.549,0,0,0,16.629-2.07l5.8-1.449-1.311-10.488c-5.382,2.829-13.731,4.623-21.183,4.623-5.52,0-9.936-.966-11.937-2.553a4.774,4.774,0,0,1-1.794-3.795c0-4.278,5.106-6.762,13.8-6.762a31.592,31.592,0,0,1,10.419,1.518,11.411,11.411,0,0,1,4.83,3.036l9.591-4.14c-2.139-2.967-5.175-7.521-7.176-10.764-.759-1.311-2.346-4.209-4.761-8.763,5.175-.9,5.175-.9,9.315-1.794a51.339,51.339,0,0,1,5.382-.966l-1.1-9.8a98.032,98.032,0,0,1-16.974,3.933c-2.07-4.968-2.9-7.59-3.381-10.419l-10.626,1.311c.621,1.311,2.967,7.038,4.209,10.281-5.52.621-12.9,1.1-17.733,1.1-2.622,0-5.451-.138-7.383-.345Zm71.9-16.629a36.644,36.644,0,0,1,.276,4.623c.414,20.907,1.38,29.67,4.209,36.708,2.9,7.176,6.969,10.833,12.006,10.833,6.348,0,10.833-6.141,14.49-19.665a33.945,33.945,0,0,1-8.142-7.452A57.717,57.717,0,0,1,550,71.786c-.759,1.863-1.587,2.829-2.484,2.829-3.519,0-6.072-12.213-6.072-28.7a80.979,80.979,0,0,1,.621-11.385Zm34.638,6.969a61.032,61.032,0,0,1,9.936,17.664A70.438,70.438,0,0,1,579.6,79.721l10.419-3.864c-1.863-15.663-6.9-27.945-15.732-38.571Zm49.059,25.323a12.558,12.558,0,1,0,12.558,12.558A12.6,12.6,0,0,0,614.514,66.749Zm0,6.831a5.727,5.727,0,1,1-5.727,5.727A5.713,5.713,0,0,1,614.514,73.58Z" transform="translate(963 7252)" fill="#fff"></path></g></svg>