<svg xmlns="http://www.w3.org/2000/svg" width="1769" height="486" viewBox="0 0 1769 486"><g id="&#x30B0;&#x30EB;&#x30FC;&#x30D7;_19563" data-name="&#x30B0;&#x30EB;&#x30FC;&#x30D7; 19563" transform="translate(-61 -652)"><rect id="&#x9577;&#x65B9;&#x5F62;_5003" data-name="&#x9577;&#x65B9;&#x5F62; 5003" width="1769" height="486" transform="translate(61 652)" fill="#fff"></rect><g id="&#x30B0;&#x30EB;&#x30FC;&#x30D7;_6482" data-name="&#x30B0;&#x30EB;&#x30FC;&#x30D7; 6482" transform="translate(577 766)"><g id="&#x30B0;&#x30EB;&#x30FC;&#x30D7;_6475" data-name="&#x30B0;&#x30EB;&#x30FC;&#x30D7; 6475" transform="translate(0 0.001)"><g id="&#x30B0;&#x30EB;&#x30FC;&#x30D7;_6474" data-name="&#x30B0;&#x30EB;&#x30FC;&#x30D7; 6474" transform="translate(0 0)"><g id="&#x30B0;&#x30EB;&#x30FC;&#x30D7;_68" data-name="&#x30B0;&#x30EB;&#x30FC;&#x30D7; 68" transform="translate(0 0)"><g id="&#x30B0;&#x30EB;&#x30FC;&#x30D7;_65" data-name="&#x30B0;&#x30EB;&#x30FC;&#x30D7; 65" transform="translate(0 29.068)"><g id="&#x30B0;&#x30EB;&#x30FC;&#x30D7;_6320" data-name="&#x30B0;&#x30EB;&#x30FC;&#x30D7; 6320" transform="translate(514.628 34.192)"><path id="&#x30D1;&#x30B9;_685" data-name="&#x30D1;&#x30B9; 685" d="M0,0V76.3" transform="translate(8.85 0)" fill="rgba(0,0,0,0)"></path><path id="&#x30D1;&#x30B9;_685_-_&#x30A2;&#x30A6;&#x30C8;&#x30E9;&#x30A4;&#x30F3;" data-name="&#x30D1;&#x30B9; 685 - &#x30A2;&#x30A6;&#x30C8;&#x30E9;&#x30A4;&#x30F3;" d="M.2,76.3H-17.5V0H.2Z" transform="translate(17.5 0)" fill="#333"></path><path id="&#x7DDA;_38" data-name="&#x7DDA; 38" d="M17.7,54.118H0V0H17.7Z" transform="translate(55.029 15.709) rotate(90)" fill="#333"></path></g><path id="&#x30D1;&#x30B9;_47" data-name="&#x30D1;&#x30B9; 47" d="M239.118-109.8,219.726-50.182,193.473-109.8H173.088l26.254,59.629h20.379L202.91,1.515H223.3l36.24-111.321Z" transform="translate(-88.675 125.383)" fill="#333"></path><g id="&#x30B0;&#x30EB;&#x30FC;&#x30D7;_437" data-name="&#x30B0;&#x30EB;&#x30FC;&#x30D7; 437" transform="translate(0 0)"><path id="&#x7DDA;_37" data-name="&#x7DDA; 37" d="M.2,108.723H-17.5V0H.2Z" transform="translate(17.5 0)" fill="#333"></path><path id="&#x9577;&#x65B9;&#x5F62;_222" data-name="&#x9577;&#x65B9;&#x5F62; 222" d="M17.7,17.7V50.063H50.063V17.7H17.7M0,0H67.762V67.762H0Z" transform="translate(0 41.214)" fill="#333"></path></g><g id="&#x30B0;&#x30EB;&#x30FC;&#x30D7;_438" data-name="&#x30B0;&#x30EB;&#x30FC;&#x30D7; 438" transform="translate(432.707 32.675)"><path id="&#x7DDA;_38-2" data-name="&#x7DDA; 38" d="M.2,76.3H-17.5V0H.2Z" transform="translate(17.5 0)" fill="#333"></path><path id="&#x30D1;&#x30B9;_11923" data-name="&#x30D1;&#x30B9; 11923" transform="translate(60.592 8.459) rotate(180)" fill="#333"></path></g></g><path id="&#x30D1;&#x30B9;_44" data-name="&#x30D1;&#x30B9; 44" d="M75.245,39.072V20.958H10.35V39.072Z" transform="translate(661.191 135.654)" fill="#f6c44c"></path><g id="&#x30B0;&#x30EB;&#x30FC;&#x30D7;_69" data-name="&#x30B0;&#x30EB;&#x30FC;&#x30D7; 69" transform="translate(194.069)"><path id="&#x30D1;&#x30B9;_46" data-name="&#x30D1;&#x30B9; 46" d="M32.713-58.054h17.7v-85.259H84.133V-161H-.69v17.689h33.4Z" transform="translate(64.151 196.747)" fill="#333"></path><path id="&#x9577;&#x65B9;&#x5F62;_22" data-name="&#x9577;&#x65B9;&#x5F62; 22" d="M15.171,15.171V159.555H442.58V15.171H15.171M0,0H457.751V174.725H0Z" transform="translate(0)" fill="#333"></path></g></g></g><path id="&#x30D1;&#x30B9;_11924" data-name="&#x30D1;&#x30B9; 11924" d="M31.864-70.987H50.611v1.5a30.964,30.964,0,0,1-1.2,9.052A19.235,19.235,0,0,1,45.44-53.62a20.555,20.555,0,0,1-16.073,7.109A22.1,22.1,0,0,1,13.06-53.387,22.8,22.8,0,0,1,6.271-69.959a22.744,22.744,0,0,1,6.905-16.747,22.875,22.875,0,0,1,16.808-6.907,23,23,0,0,1,9.932,2.174,28.646,28.646,0,0,1,8.668,7.052L43.7-79.714q-5.583-7.434-13.6-7.434a16.253,16.253,0,0,0-12.076,4.966,16.58,16.58,0,0,0-4.878,12.223A16.082,16.082,0,0,0,18.584-57.47,16.218,16.218,0,0,0,29.6-52.916a13.68,13.68,0,0,0,9.08-3.408,12.13,12.13,0,0,0,4.5-8.228H31.864ZM108.324-86.3H90.137v10.9H107.8v6.435H90.137V-53.8h18.188v6.435H83.29V-92.731h25.035Zm33.063,38.933V-95.816L174.473-61.2V-92.731h6.847V-44.6L148.233-79.126v31.763ZM241.3-86.3H223.108v10.9h17.659v6.435H223.108V-53.8H241.3v6.435H216.262V-92.731H241.3Zm48.429,19.6,14.045,19.334H295.4L282.44-65.933h-1.234v18.57h-6.848V-92.731h8.022q8.991,0,12.988,3.379a12.415,12.415,0,0,1,4.408,9.932,12.89,12.89,0,0,1-2.762,8.286,12.312,12.312,0,0,1-7.287,4.437ZM281.2-71.9h2.174q9.726,0,9.726-7.434,0-6.964-9.461-6.964H281.2Zm80.1,13.516H341.887l-5.054,11.019h-7.376l22.449-48.218,21.656,48.218h-7.493Zm-2.791-6.435-6.729-15.426-7.052,15.426ZM413.294-86.3v38.933h-6.847V-86.3h-10.43v-6.435H423.7V-86.3Zm47.43-6.435v45.368h-6.846V-92.731Zm37.264,0,12.546,31.44,12.723-31.44h7.493L510.388-43.955,490.5-92.731ZM585.5-86.3H567.309v10.9h17.659v6.435H567.309V-53.8H585.5v6.435H560.464V-92.731H585.5ZM687.85-58.382H668.427l-5.053,11.019H656l22.449-48.218L700.1-47.363H692.61Zm-2.791-6.435L678.33-80.243l-7.052,15.426Zm51.631-27.914v45.368h-6.846V-92.731Z" transform="translate(-5.626 302.867)" fill="#333"></path></g><g id="&#x30B0;&#x30EB;&#x30FC;&#x30D7;_6478" data-name="&#x30B0;&#x30EB;&#x30FC;&#x30D7; 6478" transform="translate(514.287 38.058)"><rect id="&#x9577;&#x65B9;&#x5F62;_3359" data-name="&#x9577;&#x65B9;&#x5F62; 3359" width="18.205" height="101.643" transform="translate(0)" fill="#333"></rect><rect id="&#x9577;&#x65B9;&#x5F62;_3360" data-name="&#x9577;&#x65B9;&#x5F62; 3360" width="18.205" height="61.766" transform="translate(63.03 40.708) rotate(90)" fill="#333"></rect><rect id="&#x9577;&#x65B9;&#x5F62;_3361" data-name="&#x9577;&#x65B9;&#x5F62; 3361" width="18.205" height="60.935" transform="translate(44.825 40.708)" fill="#333"></rect></g><g id="&#x30B0;&#x30EB;&#x30FC;&#x30D7;_6479" data-name="&#x30B0;&#x30EB;&#x30FC;&#x30D7; 6479" transform="translate(432.112 61.573)"><rect id="&#x9577;&#x65B9;&#x5F62;_3362" data-name="&#x9577;&#x65B9;&#x5F62; 3362" width="18.205" height="61.766" transform="translate(61.766 0) rotate(90)" fill="#333"></rect><rect id="&#x9577;&#x65B9;&#x5F62;_3363" data-name="&#x9577;&#x65B9;&#x5F62; 3363" width="18.205" height="61.766" transform="translate(18.205 76.901) rotate(180)" fill="#333"></rect><rect id="&#x9577;&#x65B9;&#x5F62;_3364" data-name="&#x9577;&#x65B9;&#x5F62; 3364" width="18.205" height="61.766" transform="translate(0 76.901) rotate(-90)" fill="#333"></rect></g><g id="&#x30B0;&#x30EB;&#x30FC;&#x30D7;_6481" data-name="&#x30B0;&#x30EB;&#x30FC;&#x30D7; 6481" transform="translate(350.191 61.573)"><rect id="&#x9577;&#x65B9;&#x5F62;_3366" data-name="&#x9577;&#x65B9;&#x5F62; 3366" width="18.205" height="76.9" transform="translate(18.205 76.901) rotate(180)" fill="#333"></rect><g id="&#x30B0;&#x30EB;&#x30FC;&#x30D7;_6480" data-name="&#x30B0;&#x30EB;&#x30FC;&#x30D7; 6480" transform="translate(0 0)"><rect id="&#x9577;&#x65B9;&#x5F62;_3367" data-name="&#x9577;&#x65B9;&#x5F62; 3367" width="18.205" height="63.247" transform="translate(63.247 0) rotate(90)" fill="#333"></rect><rect id="&#x9577;&#x65B9;&#x5F62;_3368" data-name="&#x9577;&#x65B9;&#x5F62; 3368" width="18.205" height="63.247" transform="translate(63.247 27.813) rotate(90)" fill="#333"></rect><rect id="&#x9577;&#x65B9;&#x5F62;_3370" data-name="&#x9577;&#x65B9;&#x5F62; 3370" width="18.205" height="63.247" transform="translate(63.247 58.696) rotate(90)" fill="#333"></rect><rect id="&#x9577;&#x65B9;&#x5F62;_3369" data-name="&#x9577;&#x65B9;&#x5F62; 3369" width="18.205" height="46.018" transform="translate(63.247 46.018) rotate(180)" fill="#333"></rect></g></g></g></g></svg>