<svg xmlns="http://www.w3.org/2000/svg" width="632.4" height="157.491" viewBox="0 0 632.4 157.491"><g id="&#x30B0;&#x30EB;&#x30FC;&#x30D7;_19585" data-name="&#x30B0;&#x30EB;&#x30FC;&#x30D7; 19585" transform="translate(-59 -5747.787)"><path id="&#x30D1;&#x30B9;_33836" data-name="&#x30D1;&#x30B9; 33836" d="M14.64-53.6a49.628,49.628,0,0,1,3.04,7.28H12.96a74.259,74.259,0,0,1-8.32-.32c.24,3.28.32,4.56.32,7.12v5.84a40.353,40.353,0,0,1-.48,6.48H14.64v4.48c2.56-.24,5.28-.4,8.24-.4H50.16A45.217,45.217,0,0,1,39.28-14a51.39,51.39,0,0,1-11.2-9.04L19.44-19.2a60.961,60.961,0,0,0,10.48,10C22.16-5.92,13.76-4,3.68-2.88A42.588,42.588,0,0,1,8.8,7.2C21.68,4.8,30.4,1.92,39.6-2.96,50.64,2.8,58,5.04,72.32,6.96A42.64,42.64,0,0,1,77.04-3.68c-12-1.12-19.2-2.56-27.6-5.6,5.04-3.76,6.72-5.36,12.64-12l3.6-3.84-6.08-7.2a47.611,47.611,0,0,1-6.8.32H22.88a72.07,72.07,0,0,1-7.84-.32V-36.8H64.96v9.76H75.52a39.19,39.19,0,0,1-.4-6.4V-39.6c0-3.2.08-4.88.24-7.04a71.211,71.211,0,0,1-8.48.32H62.32c1.2-2,1.2-2,4.4-8.16l-7.28-2.16c4.32-.64,5.92-.96,8.96-1.6,2.08-.48,2.32-.56,3.52-.8l-6.48-9.2a83.5,83.5,0,0,1-15.52,3.2,314.489,314.489,0,0,1-35.44,2c-1.52,0-3.92,0-7.84-.08A44.675,44.675,0,0,1,9.92-53.6Zm18.16-.64h.24a82.757,82.757,0,0,1,2.8,7.92h-7.6a67.392,67.392,0,0,0-3.04-7.52Zm13.12,7.92a70.229,70.229,0,0,0-2.72-8.72q2.28-.12,8.16-.72c2.72-.24,2.96-.24,4.48-.4a82.986,82.986,0,0,1-4.48,9.84ZM133.84-36v2.96H124.8c-3.36,0-5.04-.08-6.96-.24.16,1.84.24,3.92.24,7.12V-14.4a18.285,18.285,0,0,1-2.64-.32v9.04A19.862,19.862,0,0,1,118.08-6v2.32a85.937,85.937,0,0,1-.4,10.4h9.92a84.324,84.324,0,0,1-.4-10.4V-6h22.72v2.64c0,1.44-.56,1.68-3.44,1.68a67.327,67.327,0,0,1-7.04-.48,27.516,27.516,0,0,1,1.68,8.08c4.96.24,5.92.24,6.72.24,3.44,0,7.2-.48,8.48-1.2,1.92-.96,2.72-2.8,2.72-6.56V-6c2.16.08,2.8.16,4.32.32V-14.8a27.432,27.432,0,0,1-4.32.4V-25.6a63.949,63.949,0,0,1,.4-7.76,58.633,58.633,0,0,1-7.36.32h-9.04V-36H157.2a38.834,38.834,0,0,1,6,.32v-8a34.453,34.453,0,0,1-6,.32h-5.52v-2.88h3.52a45.356,45.356,0,0,1,5.2.24v-6.88a43.276,43.276,0,0,1-5.04.24h-3.68v-2.72h5.04a35.736,35.736,0,0,1,5.36.32V-62.8a32.328,32.328,0,0,1-5.44.32h-4.96a18.7,18.7,0,0,1,.48-4.88h-9.84a17.19,17.19,0,0,1,.4,4.88h-8.8a14.873,14.873,0,0,1,.48-4.88h-9.84a17.9,17.9,0,0,1,.4,4.88h-3.04a29.051,29.051,0,0,1-5.68-.4v7.84a35.059,35.059,0,0,1,5.36-.32h3.36v2.72H122.8a42.892,42.892,0,0,1-5.12-.24V-46a43.831,43.831,0,0,1,5.12-.24h2.16v2.88H121.6a43.5,43.5,0,0,1-6.08-.32v8A43.5,43.5,0,0,1,121.6-36Zm0,22.16H127.2v-3.2h6.64Zm9.2,0v-3.2h6.88v3.2Zm-9.2-9.28H127.2V-26.4h6.64Zm9.2,0V-26.4h6.88v3.28Zm-9.12-20.24v-2.88h8.8v2.88Zm0-9.28v-2.72h8.8v2.72ZM91.04-57.36c2.08-.16,3.76-.24,6.88-.24h8.8c3.12,0,4.88.08,6.88.24v-8.56a51.9,51.9,0,0,1-6.88.32h-8.8a51.9,51.9,0,0,1-6.88-.32ZM88.64-45.2a48.845,48.845,0,0,1,6.32-.32h13.68a38.118,38.118,0,0,1,6.08.24v-9.36a42.232,42.232,0,0,1-6.32.32H94.96a46.527,46.527,0,0,1-6.32-.32ZM91.36-34a39.078,39.078,0,0,1,4.96-.24h12.56a37.473,37.473,0,0,1,4.72.24v-8.32a33.339,33.339,0,0,1-4.72.24H96.32a38.22,38.22,0,0,1-4.96-.24Zm0,11.28a38,38,0,0,1,4.8-.24h12.48a34.974,34.974,0,0,1,4.96.24V-31.2a33.875,33.875,0,0,1-4.8.24H96.32a38.22,38.22,0,0,1-4.96-.24ZM99.44,6.72V3.2h6.08V5.52h8.56q-.12-1.08-.24-5.28v-14a51.863,51.863,0,0,1,.16-5.76,33.652,33.652,0,0,1-4.88.24H96.24a45.608,45.608,0,0,1-5.68-.24,52.651,52.651,0,0,1,.32,6.4v12c0,2.72-.16,5.44-.4,7.84ZM99.2-11.6h6.4v6.56H99.2ZM206.72-42.8v13.36H195.28a85.692,85.692,0,0,1-10.08-.4v10.4a95.687,95.687,0,0,1,10.24-.48h11.28V-5.04H187.6a107.887,107.887,0,0,1-11.84-.56V5.2a119.258,119.258,0,0,1,12.16-.56h47.84a109.9,109.9,0,0,1,11.68.56V-5.6a103.637,103.637,0,0,1-11.92.56h-18V-19.92h12.96c3.92,0,7.2.16,10.48.48V-29.92a101.055,101.055,0,0,1-10.56.48H217.52V-42.8h15.76c4.08,0,7.36.16,11.28.48V-52.8c-3.44.32-7.36.48-11.6.48H217.52V-57.2A66.6,66.6,0,0,1,218-67.28H206.16a68.506,68.506,0,0,1,.56,10.16v4.8H195.36c.64-1.92,1.28-3.84,1.68-5.2.64-2,.64-2.08.88-2.72.56-1.52.56-1.52.72-2.08l-10.72-2.64a39.178,39.178,0,0,1-1.6,7.44,54.209,54.209,0,0,1-13.04,22.88,29.99,29.99,0,0,1,7.2,8.48A69.555,69.555,0,0,0,191.36-42.8ZM304-50.48a15.561,15.561,0,0,1,7.44,2.56c5.44,3.6,8.56,9.6,8.56,16.72,0,8.48-4.16,15.92-11.04,19.68-3.76,2-8.72,3.28-15.84,3.84a32.8,32.8,0,0,1,5.92,11.36A57.108,57.108,0,0,0,311.76.4c12.8-5.04,20.08-16.32,20.08-30.88,0-18.72-12.8-30.72-32.88-30.72-11.44,0-21.28,4-28.16,11.52a34.513,34.513,0,0,0-8.96,23.76c0,13.76,7.04,23.44,16.96,23.44,6.88,0,12.16-4.72,16.64-14.88C299.6-26.64,302.4-37.28,304-50.48Zm-11.68.16a102.994,102.994,0,0,1-6.4,25.76c-2.56,6.48-5.04,9.6-7.36,9.6-3.12,0-5.68-4.88-5.68-10.88a26.229,26.229,0,0,1,9.84-20.48A17.977,17.977,0,0,1,292.32-50.32Zm64.56-11.12a73.938,73.938,0,0,1-9.92-.48v9.6a94.818,94.818,0,0,1,9.68-.4H376.4v4.08H359.28a51.439,51.439,0,0,1-8.32-.4v9.28c2.72-.24,4.8-.32,8.4-.32h46.08c3.6,0,6,.08,8.64.32v-9.28a52.6,52.6,0,0,1-8.4.4H387.12v-4.08H408.8a78.51,78.51,0,0,1,9.6.4v-9.6a73.938,73.938,0,0,1-9.92.48H387.12a31.253,31.253,0,0,1,.4-6.32h-11.6a31.563,31.563,0,0,1,.48,6.32ZM401.6-13.2v4.16h10.88a64.227,64.227,0,0,1-.4-8.72V-29.28a65.991,65.991,0,0,1,.32-7.76,69.206,69.206,0,0,1-8.64.32H361.2a71.21,71.21,0,0,1-8.48-.32,66.649,66.649,0,0,1,.32,7.84c0,15.12-2.56,23.12-9.36,28.96a49.809,49.809,0,0,1,9.12,7.76c5.6-6.08,8.16-11.6,9.68-20.72Zm-38.32-8.96c.16-2.16.16-3.2.16-5.84h13.6v5.84Zm24.08,0V-28h14.32v5.84Z" transform="translate(273 5862.443)" fill="#fff"></path><g id="review" transform="translate(59 5747.787)"><path id="&#x30D1;&#x30B9;_32904" data-name="&#x30D1;&#x30B9; 32904" d="M156.3,33.469h-6.395a7.723,7.723,0,0,0-5.916-8.632L134.023,22.4l-5.538-8.7A7.708,7.708,0,0,0,121.876,10h-.016a7.67,7.67,0,0,0-6.585,3.632L109.7,22.4l-9.961,2.441a7.839,7.839,0,0,0-5.653,5.237,7.721,7.721,0,0,0-.262,3.4H23.313A11.746,11.746,0,0,0,11.58,45.2v93.874A11.746,11.746,0,0,0,23.313,150.81H35.046v4.928a11.73,11.73,0,0,0,11.7,11.753,11.5,11.5,0,0,0,6.493-2l22.1-14.679H156.3a11.746,11.746,0,0,0,11.733-11.733V45.2A11.746,11.746,0,0,0,156.3,33.469Zm-43.208-3.849a3.932,3.932,0,0,0,2.369-1.7l6.385-10.093,6.418,10.093a3.909,3.909,0,0,0,2.369,1.7l11.536,2.848-7.638,8.964a3.94,3.94,0,0,0-.925,2.818l.824,11.73-11.106-4.459a3.931,3.931,0,0,0-2.917,0l-11.139,4.459.856-11.733a3.937,3.937,0,0,0-.925-2.815l-7.6-9,11.5-2.815Zm47.119,109.456a3.917,3.917,0,0,1-3.911,3.911H74.163a3.929,3.929,0,0,0-2.162.653L48.882,159a3.707,3.707,0,0,1-3.927.223,3.881,3.881,0,0,1-2.087-3.484V146.9a3.908,3.908,0,0,0-3.911-3.911H23.313a3.914,3.914,0,0,1-3.911-3.911V45.2a3.917,3.917,0,0,1,3.911-3.911H98.8l3.4,3.986-.742,10.207a7.853,7.853,0,0,0,3.271,6.871,7.739,7.739,0,0,0,4.531,1.463,7.9,7.9,0,0,0,2.956-.577l9.65-3.872,9.656,3.878A7.8,7.8,0,0,0,139,62.362a7.923,7.923,0,0,0,3.278-6.943l-.748-10.138,3.4-3.986H156.3a3.915,3.915,0,0,1,3.911,3.911V139.08Z" transform="translate(-11.58 -10)" fill="#fff"></path><path id="&#x30D1;&#x30B9;_32905" data-name="&#x30D1;&#x30B9; 32905" d="M196.91,224.58H110.861a3.911,3.911,0,1,0,0,7.822H196.91a3.911,3.911,0,1,0,0-7.822Z" transform="translate(-75.659 -154.175)" fill="#fff"></path><path id="&#x30D1;&#x30B9;_32906" data-name="&#x30D1;&#x30B9; 32906" d="M196.91,272.26H110.861a3.911,3.911,0,1,0,0,7.822H196.91a3.911,3.911,0,1,0,0-7.822Z" transform="translate(-75.659 -186.211)" fill="#fff"></path><path id="&#x30D1;&#x30B9;_32907" data-name="&#x30D1;&#x30B9; 32907" d="M142.152,319.95H110.861a3.911,3.911,0,1,0,0,7.822h31.291a3.911,3.911,0,0,0,0-7.822Z" transform="translate(-75.659 -218.254)" fill="#fff"></path></g></g></svg>