<svg xmlns="http://www.w3.org/2000/svg" width="1506.24" height="118.542" viewBox="0 0 1506.24 118.542"><g id="&#x30B0;&#x30EB;&#x30FC;&#x30D7;_8902" data-name="&#x30B0;&#x30EB;&#x30FC;&#x30D7; 8902" transform="translate(-244.291 -2326.298)"><path id="&#x30D1;&#x30B9;_1" data-name="&#x30D1;&#x30B9; 1" d="M8.549,34.849A62.1,62.1,0,0,0,9.864,48.14a38.66,38.66,0,0,0,3.724,10.37A20.053,20.053,0,0,0,19.357,65.3a13.057,13.057,0,0,0,15.116,0,19.032,19.032,0,0,0,5.769-6.791,40.417,40.417,0,0,0,3.651-10.37,62.1,62.1,0,0,0,1.314-13.291,62.379,62.379,0,0,0-1.314-13.218,39.134,39.134,0,0,0-3.651-10.37,19.188,19.188,0,0,0-5.769-6.718,13.057,13.057,0,0,0-15.116,0,20.236,20.236,0,0,0-5.769,6.718,37.471,37.471,0,0,0-3.724,10.37A62.379,62.379,0,0,0,8.549,34.849Zm-28.334,0a78.155,78.155,0,0,1,3.432-23.88A55.159,55.159,0,0,1-6.713-7.36,43.485,43.485,0,0,1,8.038-19.117,42.605,42.605,0,0,1,26.952-23.28a42.74,42.74,0,0,1,18.841,4.163A42.573,42.573,0,0,1,60.544-7.36a55.949,55.949,0,0,1,9.566,18.33,78.155,78.155,0,0,1,3.432,23.88,78.155,78.155,0,0,1-3.432,23.88,56.829,56.829,0,0,1-9.566,18.4,42.228,42.228,0,0,1-14.751,11.83,42.74,42.74,0,0,1-18.841,4.163A42.605,42.605,0,0,1,8.038,88.962,43.122,43.122,0,0,1-6.713,77.131a56.017,56.017,0,0,1-9.639-18.4A78.155,78.155,0,0,1-19.785,34.849ZM115.168,4.178H99.1V-20.067h44.692V90.057H115.168Z" transform="translate(264.076 2349.578)" fill="#fff"></path><path id="&#x30D1;&#x30B9;_13224" data-name="&#x30D1;&#x30B9; 13224" d="M39.655-32.835c-.055.11-.055.11-.385.66a41.7,41.7,0,0,1-3.74,5.39,76.385,76.385,0,0,1-9.13,9.35,88.972,88.972,0,0,0-9.9-9.185l-6.38,4.565a86.737,86.737,0,0,1,11,10.78A94.486,94.486,0,0,1,31.735,2.8l6.985-5.5c-3.025-4.015-4.4-5.775-6.93-8.745A79.891,79.891,0,0,0,49.39-32.4a16.293,16.293,0,0,1,2.42-3.41l-4.51-5.06a12.375,12.375,0,0,1-4.18.495H13.2a56.294,56.294,0,0,1-8.525-.385v8.25a79.983,79.983,0,0,1,8.36-.275ZM63.58-35.09A58.108,58.108,0,0,1,78.045-23.7l5.555-7.2c-4.4-4.07-7.535-6.38-14.63-10.67ZM66.22,1.54A20.067,20.067,0,0,1,68.97.77c1.045-.22,1.045-.22,2.42-.5a69.82,69.82,0,0,0,16-5.72c9.57-5.06,16.06-12.32,21.505-24.09a29.92,29.92,0,0,1-6.985-6.38A47.635,47.635,0,0,1,96.36-24.97,34.17,34.17,0,0,1,80.19-11.495,52.579,52.579,0,0,1,63.8-7.48ZM119.4-37.9a70.459,70.459,0,0,1,6.215,16.94l8.085-2.475a71.468,71.468,0,0,0-6.655-16.61Zm14.63-2.695a80.085,80.085,0,0,1,6.16,16.445l7.975-2.53a69.131,69.131,0,0,0-6.545-16Zm23.375-.825A41.075,41.075,0,0,1,154.825-28.6a34.143,34.143,0,0,1-9.46,15.07A41.79,41.79,0,0,1,129.69-3.96a24.568,24.568,0,0,1,5.775,7.425c7.26-3.52,12.485-7.15,16.83-11.66C158.51-14.8,162.745-23.32,165-34.1a38.986,38.986,0,0,1,1.265-5.28Zm19.36,24.97c2.145-.22,5.28-.33,10.065-.33H214.61c4.29,0,7.92.11,10.12.275v-9.02a72.207,72.207,0,0,1-10.065.385h-27.83a68.7,68.7,0,0,1-10.065-.44Zm93.885-16.39c-.055.11-.055.11-.385.66a41.694,41.694,0,0,1-3.74,5.39,76.383,76.383,0,0,1-9.13,9.35,88.971,88.971,0,0,0-9.9-9.185l-6.38,4.565a86.737,86.737,0,0,1,11,10.78A94.484,94.484,0,0,1,262.735,2.8l6.985-5.5c-3.025-4.015-4.4-5.775-6.93-8.745A79.892,79.892,0,0,0,280.39-32.4a16.292,16.292,0,0,1,2.42-3.41l-4.51-5.06a12.375,12.375,0,0,1-4.18.495H244.2a56.294,56.294,0,0,1-8.525-.385v8.25a79.983,79.983,0,0,1,8.36-.275ZM294.58-35.09A58.109,58.109,0,0,1,309.045-23.7l5.555-7.2c-4.4-4.07-7.535-6.38-14.63-10.67Zm2.64,36.63a20.067,20.067,0,0,1,2.75-.77c1.045-.22,1.045-.22,2.42-.5a69.82,69.82,0,0,0,16-5.72c9.57-5.06,16.06-12.32,21.505-24.09a29.92,29.92,0,0,1-6.985-6.38A47.635,47.635,0,0,1,327.36-24.97a34.17,34.17,0,0,1-16.17,13.475A52.579,52.579,0,0,1,294.8-7.48Zm94.82-.385c-.66-1.375-1.65-3.8-2.7-6.6l-12.1-32.395a37.243,37.243,0,0,1-1.87-5.72H363.55a42.227,42.227,0,0,1-1.76,5.72L349.8-5.445a51.124,51.124,0,0,1-2.8,6.6h10.89a27.462,27.462,0,0,1,1.485-5.83l1.87-5.335h16.61l1.87,5.335a39.334,39.334,0,0,1,1.43,5.83Zm-16.5-18.92H363.55l5.17-15.565c.385-1.1.44-1.375.77-2.53.44,1.485.66,2.035.825,2.53Zm23.43-25.8a45.918,45.918,0,0,1,.44,7.59V-6.435a47.206,47.206,0,0,1-.44,7.59h10.12a46.346,46.346,0,0,1-.44-7.59V-35.97a45.5,45.5,0,0,1,.44-7.59Zm38.665.88a36.052,36.052,0,0,1-5.06-.22v5.61a44.392,44.392,0,0,1,5.5-.22h7.645c-.33.66-.44.88-.715,1.485h-4.51c-2.365,0-4.07-.055-5.17-.165a35.907,35.907,0,0,1,.165,4.015v9.79a31.782,31.782,0,0,1-.165,3.905c1.54-.11,2.365-.11,5-.11h19.855c2.53,0,2.64,0,4.235.11a39.365,39.365,0,0,1-.165-4.18v-9.46c0-1.87.055-2.75.165-4.07a47.862,47.862,0,0,1-4.785.165H452.32c.275-.605.275-.605.715-1.485h9.13a43.263,43.263,0,0,1,5.5.22V-42.9a43.264,43.264,0,0,1-5.5.22h-2.7a28.64,28.64,0,0,0,1.65-2.475,4.815,4.815,0,0,1,.385-.66l-7.15-1.21a22.129,22.129,0,0,1-2.31,4.345H446.93a33.833,33.833,0,0,0-2.585-4.4l-7.1,1.1a20.036,20.036,0,0,1,2.365,3.3ZM442.09-32.4h15.565v1.43H442.09Zm0,4.235h15.565v1.485H442.09Zm0,4.29h15.565v1.54H442.09Zm9.735,12.1v1.6H425.59a52.357,52.357,0,0,1-6.875-.33V-4.18a56.488,56.488,0,0,1,7.04-.33h5.995l-3.41,2.475a35.968,35.968,0,0,1,7.59,6.875l5.5-4.565A58.417,58.417,0,0,0,435.6-4.51h16.225v2.145c0,.99-.385,1.21-2.145,1.21-1.54,0-4.015-.165-6.1-.385A17,17,0,0,1,445.5,4.785c2.035.055,3.08.055,4.07.055,7.37,0,9.295-1.045,9.295-4.95v-4.4h2.2a55.285,55.285,0,0,1,7.04.33v-6.325a44.929,44.929,0,0,1-6.93.33h-2.31v-1.65c5.445-.055,6.545-.11,8.635-.165a14.642,14.642,0,0,1,1.65-5.665c-5.17.44-11.88.605-22.055.605-6.655,0-9.24-.165-11.165-.77a5.688,5.688,0,0,1-4.07-3.41v-6.82a37.321,37.321,0,0,1,.22-5.225,31.459,31.459,0,0,1-4.18.22h-4.62a25.947,25.947,0,0,1-4.51-.275v6.38a26.536,26.536,0,0,1,3.575-.22h2.86v5.555a31.139,31.139,0,0,1-7.425,3.63l2.53,6.6a62.2,62.2,0,0,0,8.2-5.115,8.765,8.765,0,0,0,4.235,3.355c3.025,1.155,5.885,1.43,13.31,1.43Zm-33.11-30.14a50.039,50.039,0,0,1,8.855,7.7l4.73-5.06a52.332,52.332,0,0,0-8.91-7.15Zm77.77,4.51a37.831,37.831,0,0,1-1.925,11,38.282,38.282,0,0,1-9.68,16.39c-2.75,2.86-4.895,4.51-10.065,7.7a23.076,23.076,0,0,1,5.17,6.765A51.166,51.166,0,0,0,493.24-7.315c3.685-4.73,5.885-9.13,7.975-16A43.2,43.2,0,0,0,509.465-7.2,52.7,52.7,0,0,0,521.785,4.4a28.231,28.231,0,0,1,5.335-7.425,40.033,40.033,0,0,1-7.15-5,43.007,43.007,0,0,1-8.965-10.285,43.156,43.156,0,0,1-6.435-22.88c0-1.155.055-2.035.165-3.465a31.287,31.287,0,0,1-4.95.275h-9.46a31.851,31.851,0,0,1-5.665-.33v7.645a57.172,57.172,0,0,1,5.775-.33Zm55.385,3.19v-4.07a35.994,35.994,0,0,1,.275-6.05h-8.58a46.772,46.772,0,0,1,.275,6.215v3.905h-2.585a46.289,46.289,0,0,1-7.535-.385v8.03a65.637,65.637,0,0,1,7.37-.275h2.75v5.94a55.955,55.955,0,0,1-.275,6.435h8.525a41.243,41.243,0,0,1-.22-6.325v-6.05H564.9c-.055,3.135-.11,4.345-.165,5.445-.44,6.38-1.98,9.9-5.83,13.035-2.53,2.09-5.335,3.41-10.615,4.95a22.91,22.91,0,0,1,5.06,7.1,38.289,38.289,0,0,0,5.83-2.475,24.185,24.185,0,0,0,9.35-8.085c2.255-3.355,3.355-6.6,3.85-11.6a82.544,82.544,0,0,0,.385-8.36h3.08c3.19,0,5.445.11,7.37.275V-34.6a52.7,52.7,0,0,1-7.48.385h-2.915c.055-3.685.055-3.685.055-4.73a37.793,37.793,0,0,1,.22-5.335h-8.3a49.141,49.141,0,0,1,.22,6.05v4.015Zm87.67-1.98a6.084,6.084,0,0,0,2.86-5.17,6.045,6.045,0,0,0-6.05-6.105,6.127,6.127,0,0,0-6.1,6.105,6.019,6.019,0,0,0,2.31,4.785h-12.43V-38.72a51.447,51.447,0,0,1,.33-6.38h-8.91a52.07,52.07,0,0,1,.33,6.38v2.145H600.93a48.408,48.408,0,0,1-7.92-.385v7.975a70.682,70.682,0,0,1,7.92-.275h10.945V-4.18a67.9,67.9,0,0,1-.33,7.535H620.4c-.165-1.87-.275-4.62-.275-7.535V-29.26H631.62a53.419,53.419,0,0,1,7.92.33Zm-3.19-7.865a2.677,2.677,0,0,1,2.64,2.64,2.688,2.688,0,0,1-2.64,2.695,2.7,2.7,0,0,1-2.7-2.695A2.688,2.688,0,0,1,636.35-44.055ZM599.39-25.8a32.1,32.1,0,0,1-1.32,6.27A42.231,42.231,0,0,1,590.425-4.51a29.921,29.921,0,0,1,7.59,4.015,46.858,46.858,0,0,0,4.84-8.635,62.847,62.847,0,0,0,3.575-10.725c.715-3.19.77-3.41.935-4.07Zm25.19,1.87a9.585,9.585,0,0,1,.605,1.76C627.825-12.54,629.75-7.81,634.04-.44a59.392,59.392,0,0,1,7.535-4.455c-3.025-4.18-5.06-8.2-7.48-14.85a42.516,42.516,0,0,1-1.815-6.105Zm25.41,7.48c2.145-.22,5.28-.33,10.065-.33H687.83c4.29,0,7.92.11,10.12.275v-9.02a72.207,72.207,0,0,1-10.065.385h-27.83a68.7,68.7,0,0,1-10.065-.44Zm77.22,19.36a68.065,68.065,0,0,1-.33-7.645V-20.57a18.871,18.871,0,0,0,2.09.99A120.779,120.779,0,0,1,747.395-9.57l4.51-7.92A132.543,132.543,0,0,0,726.88-29.04V-37.4a48.458,48.458,0,0,1,.33-7.37h-8.965a48.023,48.023,0,0,1,.33,7.37V-4.84a56.847,56.847,0,0,1-.33,7.755Z" transform="translate(610 2440)" fill="#fff"></path><path id="&#x30D1;&#x30B9;_13223" data-name="&#x30D1;&#x30B9; 13223" d="M14.315-.6A20.833,20.833,0,0,1,14.1,2.94h3.85A22.312,22.312,0,0,1,17.78-.42,9.267,9.267,0,0,1,19.6,2.52,23.821,23.821,0,0,0,25.025-.875c2.17,1.68,3.15,2.2,6.86,3.64A18.61,18.61,0,0,1,33.67-.665a20.848,20.848,0,0,1-6.2-2.485,26.979,26.979,0,0,0,3.99-5.985,5.263,5.263,0,0,1,.56-1.015l-1.82-2a16.144,16.144,0,0,1-2.625.14H21.7a20.9,20.9,0,0,1-2.94-.14v3.29a19.468,19.468,0,0,1,2.625-.14h.91L19.32-7.665A27.677,27.677,0,0,0,22.505-3.22,17.739,17.739,0,0,1,17.78-.735v-12.81H29.925a26.482,26.482,0,0,1,3.675.175v-3.395a19.554,19.554,0,0,1-3.64.21H5.215a19.133,19.133,0,0,1-3.605-.21v3.395a24.152,24.152,0,0,1,3.465-.175v10.85c-1.47.1-2.45.175-3.01.175a3.407,3.407,0,0,1-.56-.035l.8,3.605C3.185.875,4.41.665,7.21.28c3.78-.56,3.78-.56,7.105-1.19Zm0-3.185c-3.29.49-4.1.6-5.81.77V-5.18h5.81Zm0-3.955H8.505v-1.68h5.81Zm0-4.235H8.505v-1.575h5.81Zm13.23,2.975a14.507,14.507,0,0,1-2.59,3.675A14.266,14.266,0,0,1,22.47-8.995Zm2.31-16.45a23.642,23.642,0,0,1,.14-3.045c-1.19.1-2.1.14-3.71.14H9.065c-1.61,0-2.555-.035-3.71-.14a24.705,24.705,0,0,1,.14,3.045v4.725a24.455,24.455,0,0,1-.14,3.01c1.085-.07,2.03-.105,3.605-.105H26.74c1.19,0,2.45.035,3.255.105a23.642,23.642,0,0,1-.14-3.045ZM9.1-25.655H26.215v1.4H9.1Zm0,3.815H26.215v1.435H9.1Zm36.96.245c0,2.52-.07,4.34-.14,5.495H43.4a17.953,17.953,0,0,1-3.43-.21v3.99a18.426,18.426,0,0,1,3.395-.21h2.17a17.306,17.306,0,0,1-6.09,11.165A18.64,18.64,0,0,1,41.93,1.82a21.127,21.127,0,0,0,5.81-8.785,19.715,19.715,0,0,0,3.955,4.8,18.952,18.952,0,0,1,2.52-3.22,16.176,16.176,0,0,1-5.355-5.915c.1-.56.14-.735.21-1.225h1.505a25.071,25.071,0,0,1,3.045.14v-3.885a17.394,17.394,0,0,1-2.94.175H49.455c.07-1.225.14-3.08.175-5.495h.315a27.355,27.355,0,0,1,3.15.14v-3.71a18.15,18.15,0,0,1-3.115.175H45.99c.21-.665.315-1.05.455-1.645a20.463,20.463,0,0,1,.665-2.31l-3.675-.63a14.405,14.405,0,0,1-.49,2.73A20.1,20.1,0,0,1,39.41-19.46a13.44,13.44,0,0,1,2.87,2.38,21.784,21.784,0,0,0,2.45-4.515ZM56.175-2.1a24.916,24.916,0,0,1-3.535-.175V1.68A24.617,24.617,0,0,1,56.175,1.5h12.53a24.617,24.617,0,0,1,3.535.175V-2.275a24.916,24.916,0,0,1-3.535.175H66.64a43.627,43.627,0,0,0,2.8-6.86l-3.675-1.225A37.422,37.422,0,0,1,62.93-2.1ZM53.83-24.15a33.653,33.653,0,0,1,3.535-.14H68.11a33.653,33.653,0,0,1,3.535.14v-3.885a23.742,23.742,0,0,1-3.535.175H57.365a23.742,23.742,0,0,1-3.535-.175ZM70.1-18.55a28.147,28.147,0,0,1,.14-3.255,31.59,31.59,0,0,1-3.535.14H58.17a30.8,30.8,0,0,1-3.535-.14,29.337,29.337,0,0,1,.14,3.255v4.935a28.406,28.406,0,0,1-.14,3.185,30.283,30.283,0,0,1,3.325-.14h8.96a30.7,30.7,0,0,1,3.325.14,21.228,21.228,0,0,1-.14-3.185Zm-11.725.315h8.05v4.2H58.38ZM61.6-3.955a31.869,31.869,0,0,0-3.045-6.23L55.3-8.75a26.147,26.147,0,0,1,2.905,6.23Zm18.235-15.89a43.927,43.927,0,0,1,5.81-.7c6.79-.49,8.96-.7,11.8-1.12a15.477,15.477,0,0,0-4.865,3.535A12.187,12.187,0,0,0,89.25-9.9a9.365,9.365,0,0,0,5,8.435C96.39-.28,98.6.35,102.445.84c.665.105.735.105,1.19.21l.63-4.76c-.35.035-.665.035-.7.035a21.24,21.24,0,0,1-5.215-.91c-2.94-.875-4.655-2.975-4.655-5.7,0-3.535,2.625-7.035,7.07-9.345a15.653,15.653,0,0,1,6.93-1.89,5.42,5.42,0,0,1,.735.035l-.245-4.445a18.857,18.857,0,0,1-3.6.28c-9.345.455-15.33.77-17.885.91-5.145.35-5.145.35-5.775.35-.175,0-.56,0-1.33-.035Zm21.42,3.36a23.622,23.622,0,0,1,3.675,5.215l2.45-1.3a22.682,22.682,0,0,0-3.675-5.145Zm10.29,1.645a20.241,20.241,0,0,0-3.64-4.935L105.56-18.55a25.787,25.787,0,0,1,3.57,5.075Zm31.675-3.815a24.167,24.167,0,0,1-3.36,8.19,47.438,47.438,0,0,1-1.61-10.465h6.3c1.785,0,3.115.07,4.27.175V-24.6a19.506,19.506,0,0,1-3.71.21h-1.05l1.82-1.26a19.584,19.584,0,0,0-3.535-3.675l-2.7,1.715a16.537,16.537,0,0,1,3.08,3.22h-4.62V-26a28.883,28.883,0,0,1,.175-3.325H134.12a10.844,10.844,0,0,1,.175,2.2c.07,1.54.07,2.45.1,2.73H124.25c-1.82,0-3.255-.07-4.515-.175a34.632,34.632,0,0,1,.21,4.97c0,6.23-.35,10.885-1.05,13.825a16.363,16.363,0,0,1-2.415,5.53,12.848,12.848,0,0,1,3.045,2.975,18.933,18.933,0,0,0,2.87-6.825,54.086,54.086,0,0,0,1.085-8.785h5.11a38.043,38.043,0,0,1-.525,6.335c-.175.875-.49,1.085-1.575,1.085a21.336,21.336,0,0,1-3.395-.28A13.1,13.1,0,0,1,124-2.03c1.12.07,1.68.105,2.66.105,2.695,0,3.955-.525,4.515-1.925.6-1.47.805-3.325,1.155-9.625.07-1.365.14-2.345.21-2.975a15.292,15.292,0,0,1-2.485.14h-6.44c.035-1.26.035-1.26.07-4.62h10.85c.385,6.16,1.155,10.36,2.625,13.965a26.271,26.271,0,0,1-9.415,6.44,11.613,11.613,0,0,1,2.66,3.045,32.209,32.209,0,0,0,8.47-6.125c2.03,3.29,4.795,5.635,6.58,5.635,1.925,0,3.15-2.065,3.955-6.79a10.438,10.438,0,0,1-3.15-2.345,20.38,20.38,0,0,1-.665,4.1c-.175.455-.315.665-.455.665a5.088,5.088,0,0,1-1.575-1.26,15.079,15.079,0,0,1-2.1-3.01,38.054,38.054,0,0,0,4.725-8.75c.56-1.33.56-1.33.77-1.855Zm26.145,4.725v1.96h-9.66a22.118,22.118,0,0,1-3.92-.21V-8.3a30.331,30.331,0,0,1,3.92-.21h7.035a18.45,18.45,0,0,1-4.76,4.1,28.515,28.515,0,0,1-6.86,3.045,15.424,15.424,0,0,1,2.1,3.605,34.389,34.389,0,0,0,6.72-3.605,29.192,29.192,0,0,0,5.53-5c-.07,1.05-.07,1.05-.1,2.415V-.91a19.075,19.075,0,0,1-.245,3.78h4.27a23.761,23.761,0,0,1-.245-3.815V-3.99c0-.385,0-.84-.035-1.365-.035-.7-.035-.7-.035-1.155A28.092,28.092,0,0,0,185.92,2.065a18.306,18.306,0,0,1,2.03-3.71,27.611,27.611,0,0,1-7.56-3.045A18.6,18.6,0,0,1,175.6-8.505h7.665a32.1,32.1,0,0,1,3.955.21V-12.18a26.929,26.929,0,0,1-3.99.21h-10.08v-1.96h6.65a34.628,34.628,0,0,1,4.235.175,26.075,26.075,0,0,1-.175-3.99v-6.58a25.788,25.788,0,0,1,.175-3.99,32.31,32.31,0,0,1-4.2.175H163.24a31.056,31.056,0,0,1-4.165-.175,24.366,24.366,0,0,1,.175,3.71v6.86a27.247,27.247,0,0,1-.175,3.99,35.334,35.334,0,0,1,4.235-.175Zm0-10.92v2.38H163.03v-2.38Zm3.78,0h6.965v2.38h-6.965Zm-3.78,5.39v2.38H163.03v-2.38Zm3.78,0h6.965v2.38h-6.965ZM201.74.84c-.035-.455-.035-.735-.035-.945,0-2.485,1.19-6.545,3.115-10.605l-2.8-1.26a35.7,35.7,0,0,0-1.82,4.62c.035-.875.07-1.155.07-1.925a58.437,58.437,0,0,1,.525-7.735A48.254,48.254,0,0,1,203-27.475l-4.62-.49a22.9,22.9,0,0,1-.525,3.255,67.193,67.193,0,0,0-1.435,13.685A61.048,61.048,0,0,0,197.33-.56c.1.805.14,1.015.175,1.645Zm4.83-20.965a41.548,41.548,0,0,0,6.3.385,62.692,62.692,0,0,0,7.49-.42c1.68-.21,2.205-.28,2.485-.315l-.21-4.235a38.6,38.6,0,0,1-9.52.945,25.236,25.236,0,0,1-6.475-.56Zm2.415,5.775c-2.17,2.59-3.22,4.935-3.22,7.21a5.863,5.863,0,0,0,1.05,3.43c1.54,2.065,4.34,3.045,8.68,3.045a43.161,43.161,0,0,0,7.245-.665,11.7,11.7,0,0,1,1.435-.21l-.35-4.445a24.6,24.6,0,0,1-8.33,1.33c-3.64,0-5.565-1.05-5.565-3.045,0-1.505.735-3.01,2.485-5.04Zm28.525-12.6a34.42,34.42,0,0,1-4.2-.21v3.85a36.5,36.5,0,0,1,4.13-.21h9.695c-.175.665-.35,1.365-.525,1.89h-.875c-2.17,0-3.115-.035-4.2-.105a34.789,34.789,0,0,1,.14,4.025v9.975a35.41,35.41,0,0,1-.14,3.92c1.155-.07,1.925-.105,4.13-.105h11.1a41.326,41.326,0,0,1,4.165.105,33.818,33.818,0,0,1-.14-3.92V-17.71a34.794,34.794,0,0,1,.14-4.025c-1.05.07-1.995.105-4.165.105h-6.2c.245-.91.315-1.19.49-1.89h8.68a34.053,34.053,0,0,1,4.375.175V-27.16a35.205,35.205,0,0,1-4.375.21h-7.91c.245-1.015.245-1.015.315-1.365a7.1,7.1,0,0,1,.245-1.12l-4.2-.35a16.877,16.877,0,0,1-.315,2.835Zm7.875,8.54H256.97v1.75H245.385Zm0,4.725H256.97v1.715H245.385Zm0,4.76H256.97V-7.14H245.385ZM238.56-2.1V-16.73a36.126,36.126,0,0,1,.175-3.71H234.36a32.511,32.511,0,0,1,.175,3.92V-2.03a43.04,43.04,0,0,1-.21,4.83h4.2V1.4h21.49a32.788,32.788,0,0,1,4.13.21V-2.31a23.232,23.232,0,0,1-3.78.21Zm32.725-8.89,5.18-.35V-.805a21.826,21.826,0,0,1-.21,3.71h3.885a21.138,21.138,0,0,1-.21-3.675V-11.62c1.365-.105,1.365-.105,2.45-.21.14.49.21.77.385,1.505l2.765-1.12a36.311,36.311,0,0,0-2.52-7.07l-2.59,1.05a18.5,18.5,0,0,1,1.015,2.555c-1.47.14-2.135.175-3.85.28,1.54-1.995,2.9-3.99,5.04-7.315.56-.91.77-1.19,1.225-1.82l-3.185-1.785a32.958,32.958,0,0,1-3.22,5.81c-.63-.77-.77-.945-1.365-1.61a44.641,44.641,0,0,0,3.29-5.74,6.761,6.761,0,0,1,.735-1.3L276.64-29.75a22.087,22.087,0,0,1-2.765,6.02l-1.05-1.12-1.925,2.9a40.922,40.922,0,0,1,4.62,5.145c-.63.875-.77,1.085-1.645,2.24h-.665c-.91,0-1.365-.035-2.31-.1ZM291.62-21.385v4.025h-2.31a37.1,37.1,0,0,1-3.78-.175v3.745c1.085-.105,2.45-.175,3.71-.175h9.31a29.318,29.318,0,0,1,3.745.21v-3.78a36.585,36.585,0,0,1-3.78.175H295.3v-4.025h3.99a30.5,30.5,0,0,1,3.885.21v-3.78a28.294,28.294,0,0,1-3.885.21H295.3V-26.53a15.461,15.461,0,0,1,.21-2.73h-4.1a15.475,15.475,0,0,1,.21,2.66v1.855H288.4a27.73,27.73,0,0,1-3.85-.21v3.78a27.519,27.519,0,0,1,3.815-.21ZM272.335-9.625c-.175,4.62-.56,6.825-1.505,9.345l3.15,1.47a37.727,37.727,0,0,0,1.5-10.255Zm8.54.455a49.317,49.317,0,0,1,.91,8.4l2.975-.56a63.722,63.722,0,0,0-1.155-8.47ZM289.59,1.085h8.12V2.8h3.85c-.105-1.015-.175-2.345-.175-3.71V-7.98a26.048,26.048,0,0,1,.14-3.36,22.549,22.549,0,0,1-3.08.14h-9.52a25.582,25.582,0,0,1-3.115-.14,26.747,26.747,0,0,1,.14,3.36V-.6a23.92,23.92,0,0,1-.175,3.43h3.815Zm0-8.96h8.12v5.6h-8.12ZM312.62-17.99a13.152,13.152,0,0,1,1.54-.105,121.969,121.969,0,0,0,12.425-.84c2.31,4.3,2.345,4.41,3.78,6.37a16.26,16.26,0,0,0-6.055-1.05c-3.99,0-6.895.805-8.925,2.52a6.809,6.809,0,0,0-2.52,5.215,6.529,6.529,0,0,0,2.065,4.725c1.785,1.715,5.25,2.66,9.73,2.66a36.131,36.131,0,0,0,11.1-1.89l-.56-4.48A24.318,24.318,0,0,1,324.66-2.52c-4.76,0-7.35-1.26-7.35-3.535,0-2.485,2.8-3.92,7.56-3.92a17.541,17.541,0,0,1,5.53.8,6.184,6.184,0,0,1,2.415,1.505l4.06-1.855c-1.225-1.645-2.765-3.92-3.71-5.53-.35-.63-1.155-2.1-2.415-4.445q4.357-.84,5.145-1.05c1.19-.245,1.575-.35,2.485-.49l-.49-4.165a53.256,53.256,0,0,1-8.575,2.065,29.325,29.325,0,0,1-1.925-5.6l-4.515.595c.175.28,1.68,3.99,2.275,5.53-2.17.28-6.825.6-9.45.6a24,24,0,0,1-3.4-.175Zm63.875,13.4c-2.275.91-5.565,1.33-10.115,1.33-5.705,0-7.21-.735-7.49-3.675-.07-.7-.175-4.515-.175-6.335V-14c.035-1.855.035-1.855.035-2.03v-.945c4.865-.28,4.865-.28,10.185-.49a30.16,30.16,0,0,1-.315,4.375c-.21,1.365-.6,1.82-1.505,1.82a10.855,10.855,0,0,1-4.585-1.715,18.633,18.633,0,0,1,.245,2.87c0,.49,0,.7-.035,1.4a11.472,11.472,0,0,0,5.005,1.19,4.265,4.265,0,0,0,4.27-2.625c.56-1.26.875-3.885.91-7.42,1.645,0,3.64-.035,4.865-.035a12.27,12.27,0,0,1,1.995.105l-.07-4.165a67.491,67.491,0,0,1-6.79.315v-4.375a15.95,15.95,0,0,1,.175-2.415h-4.375c.21,1.365.21,1.365.21,6.93-5.215.245-5.215.245-10.115.49.1-5.53.1-5.53.315-6.825h-4.69a34.536,34.536,0,0,1,.245,5.95c0,.21,0,.525-.035,1.085-3.465.21-5.39.315-5.7.315-.175,0-.525,0-1.015-.035l.28,4.095a47.8,47.8,0,0,1,6.475-.63c-.035,2.73-.035,2.87-.035,3.395,0,6.02.14,7.98.63,9.555,1.05,3.36,3.885,4.62,10.43,4.62,2.31,0,6.93-.245,9.485-.525,1.19-.14,1.19-.14,1.575-.175Zm22.3-9.94a13.738,13.738,0,0,0,1.435-.91c.7-.455,3.22-2.345,3.85-2.87,1.19-1.015,3.745-3.29,5.495-4.9a7.5,7.5,0,0,1,1.82-1.435l-2.17-3.08a5.157,5.157,0,0,1-2.17.455c-3.395.245-7.665.42-10.64.42a31.654,31.654,0,0,1-4.13-.21l.175,4.2a11.806,11.806,0,0,1,1.68-.175c6.335-.28,8.575-.42,9.9-.6l.035.035-.63.63a116.87,116.87,0,0,1-10.465,9.1,31.478,31.478,0,0,1-4.935,3.29l2.38,3.78a21.565,21.565,0,0,1,14.42-5.88c4.235,0,6.93,1.785,6.93,4.515,0,2.485-1.26,3.99-4.165,5.075A9.412,9.412,0,0,0,406-6.23a7.533,7.533,0,0,0-6.055-2.87c-3.5,0-6.02,2.1-6.02,5a5,5,0,0,0,2.1,4.025c1.4,1.05,3.85,1.61,6.79,1.61a17.316,17.316,0,0,0,8.47-1.995,8.553,8.553,0,0,0,4.76-7.735c0-4.8-3.85-7.875-9.835-7.875a17.085,17.085,0,0,0-7.35,1.61Zm5.04,12.46a9.473,9.473,0,0,1-1.82.14c-2.59,0-4.165-.805-4.165-2.205,0-.98.8-1.61,2.065-1.61C401.87-5.74,403.2-4.48,403.83-2.065Z" transform="translate(779 2360)" fill="#fff"></path><g id="p" transform="translate(1662.297 2343.891)"><g id="&#x30B0;&#x30EB;&#x30FC;&#x30D7;_3" data-name="&#x30B0;&#x30EB;&#x30FC;&#x30D7; 3" transform="translate(2.25 4.25)"><path id="&#x30D1;&#x30B9;_8" data-name="&#x30D1;&#x30B9; 8" d="M76.07,46.914h-1.1V37a3.305,3.305,0,1,0-6.611,0v9.916H55.841a7.664,7.664,0,0,0-5.465,2.248l-1.807,1.807a2.045,2.045,0,0,1-.793.308H33.805a1.267,1.267,0,0,1-.793-.308l-1.807-1.807a7.664,7.664,0,0,0-5.465-2.248H13.224V19.37a5.511,5.511,0,0,1,5.509-5.509H36.361a3.305,3.305,0,1,0,0-6.611H18.777A12.113,12.113,0,0,0,6.657,19.37V46.914h-1.1A3.329,3.329,0,0,0,2.25,50.22v4.407a12.113,12.113,0,0,0,12.12,12.12H67.256a12.113,12.113,0,0,0,12.12-12.12V50.22A3.329,3.329,0,0,0,76.07,46.914Zm-3.305,7.713a5.511,5.511,0,0,1-5.509,5.509H14.37a5.511,5.511,0,0,1-5.509-5.509v-1.1H25.784a1.267,1.267,0,0,1,.793.309l1.807,1.807a7.664,7.664,0,0,0,5.465,2.248H47.82a7.664,7.664,0,0,0,5.465-2.248l1.807-1.807a2.045,2.045,0,0,1,.793-.309H72.809v1.1Z" transform="translate(-2.25 5.971)" fill="#fff"></path><path id="&#x30D1;&#x30B9;_9" data-name="&#x30D1;&#x30B9; 9" d="M42,4.25H24.37A12.113,12.113,0,0,0,12.25,16.37V29.591A7.749,7.749,0,0,0,19.963,37.3a1.091,1.091,0,0,1,1.1,1.1v4.407a3.343,3.343,0,0,0,3.305,3.305,3.166,3.166,0,0,0,1.851-.573L38.34,37.48a2.141,2.141,0,0,1,.617-.176h3.085a12.113,12.113,0,0,0,12.12-12.12V16.37A12.113,12.113,0,0,0,42.042,4.25Zm5.509,20.934A5.511,5.511,0,0,1,42,30.693H38.913a7.723,7.723,0,0,0-4.275,1.278l-7.14,4.76a7.705,7.705,0,0,0-7.536-6.082,1.091,1.091,0,0,1-1.1-1.1V16.326a5.511,5.511,0,0,1,5.509-5.509H42a5.511,5.511,0,0,1,5.509,5.509V25.14Z" transform="translate(31.822 -4.25)" fill="#fff"></path></g></g></g></svg>