<svg xmlns="http://www.w3.org/2000/svg" xmlns:xlink="http://www.w3.org/1999/xlink" width="302.002" height="422.84" viewBox="0 0 302.002 422.84"><defs><linearGradient id="linear-gradient" x1="0.5" x2="0.5" y2="1" gradientUnits="objectBoundingBox"><stop offset="0" stop-color="#4f34ff"></stop><stop offset="1" stop-color="#a598ff"></stop></linearGradient></defs><g id="&#x30B0;&#x30EB;&#x30FC;&#x30D7;_9017" data-name="&#x30B0;&#x30EB;&#x30FC;&#x30D7; 9017" transform="translate(-1285.943 -2775.58)"><g id="&#x30B0;&#x30EB;&#x30FC;&#x30D7;_9015" data-name="&#x30B0;&#x30EB;&#x30FC;&#x30D7; 9015" transform="translate(17 2.581)"><g id="&#x30B0;&#x30EB;&#x30FC;&#x30D7;_9008" data-name="&#x30B0;&#x30EB;&#x30FC;&#x30D7; 9008" transform="translate(55 -1611.161)"><g id="&#x30B0;&#x30EB;&#x30FC;&#x30D7;_9003" data-name="&#x30B0;&#x30EB;&#x30FC;&#x30D7; 9003" transform="translate(18927 2830.714)"><g id="&#x30B0;&#x30EB;&#x30FC;&#x30D7;_9002" data-name="&#x30B0;&#x30EB;&#x30FC;&#x30D7; 9002" transform="translate(-18894 -1099)"><path id="down3" d="M12.737,211.7c.21,0,21.293-.192,42.718-16.75C83.179,173.53,98.5,134.115,99.99,80.641H65.162a8.735,8.735,0,0,1-6.177-14.915L120.148,4.562a8.728,8.728,0,0,1,12.355,0l61.163,61.163a8.735,8.735,0,0,1-6.177,14.915H152.4C147.706,224.942,26.761,229.18,12.737,229.18a8.738,8.738,0,0,1,0-17.475Z" transform="translate(1260.775 2846.106)" fill="url(#linear-gradient)"></path><path id="&#x30D1;&#x30B9;_13537" data-name="&#x30D1;&#x30B9; 13537" d="M-38.88-39.42H-24.9a67.9,67.9,0,0,1,9,.48v-9a60.6,60.6,0,0,1-9.12.42H-40.74c-3.3,0-4.62-.06-6.78-.24-.06,3.66-.06,4.08-.24,6.36l-1.38,15.48c-.24,2.46-.36,3.42-.84,6.18l9.36.9a6.682,6.682,0,0,1,1.68-2.64,10.1,10.1,0,0,1,6.78-2.34c5.34,0,8.82,3.48,8.82,8.82,0,5.46-3.66,9-9.18,9-3,0-5.34-.96-6.84-2.82a8.341,8.341,0,0,1-1.68-3.36l-10.08,1.8c1.32,3.72,2.28,5.46,4.2,7.5,3.36,3.54,8.28,5.34,14.7,5.34,11.7,0,18.9-6.72,18.9-17.7,0-4.92-1.44-8.7-4.38-11.64a16.747,16.747,0,0,0-12.18-4.68,15.818,15.818,0,0,0-10.08,3.18c.06-.66.24-1.98.3-2.46ZM2.82-20.1a38.717,38.717,0,0,1-.36,5.49A19.8,19.8,0,0,1-1.2-5.1,15.408,15.408,0,0,1-5.94-.9,13.513,13.513,0,0,1-3.06,2.58,19.394,19.394,0,0,0,3.15-3.9a22.7,22.7,0,0,0,3.03-8.4h8.64c-.15,4.83-.6,8.52-1.17,9.72-.33.72-.87.96-2.16.96a27.33,27.33,0,0,1-4.65-.54A12.365,12.365,0,0,1,7.8,1.83c1.89.15,2.97.21,3.96.21,3.42,0,4.77-.69,5.61-2.79.72-1.83,1.32-6.42,1.5-11.52a24.206,24.206,0,0,1,.21-3.87,35.153,35.153,0,0,1-4.02.15H6.69A40.227,40.227,0,0,0,6.9-20.1H17.7c1.44,0,2.88.06,4.11.18v-4.17q-1.89.18-4.14.18H-1.23c-1.56,0-2.97-.06-4.14-.18v4.17c1.26-.12,2.7-.18,4.17-.18ZM31.02-8.76h17.1v6.48c0,.6-.24.72-1.5.72-.78,0-2.52-.12-4.29-.3a13.452,13.452,0,0,1,1.14,3.81c1.35.06,2.73.09,3.72.09a8.208,8.208,0,0,0,3.48-.45c.93-.45,1.41-1.41,1.41-2.94V-20.67a32.84,32.84,0,0,1,.12-3.51,31.419,31.419,0,0,1-3.51.12H30.48c-1.71,0-2.55-.03-3.6-.12a27.519,27.519,0,0,1,.12,3V-1.41a26.146,26.146,0,0,1-.21,3.75h4.38a24.452,24.452,0,0,1-.15-3.6Zm6.39-3.69H31.02v-7.86h6.39Zm3.93,0v-7.86h6.78v7.86Z" transform="translate(1258 2990)" fill="#583ffd"></path></g></g><path id="&#x30D1;&#x30B9;_13538" data-name="&#x30D1;&#x30B9; 13538" d="M-48.03-14.04a19.986,19.986,0,0,1,2.08-.08h6.52a20.233,20.233,0,0,1,2.08.08v-2.44a20.857,20.857,0,0,1-2.36.12h-5.94a21.747,21.747,0,0,1-2.38-.12Zm.98,4.26a9.682,9.682,0,0,1-.08,1.38c.62-.04,1.1-.06,1.86-.06h5.56c.8,0,1.24.02,1.8.06a8.94,8.94,0,0,1-.08-1.4v-2.14a9.388,9.388,0,0,1,.08-1.42c-.54.04-.96.06-1.82.06h-5.52c-.92,0-1.24-.02-1.88-.06a9.388,9.388,0,0,1,.08,1.42Zm2.5-1.68h4.1v1.16h-4.1Zm-1.22,3.78c-.84,0-1.46-.02-2.08-.06a18.564,18.564,0,0,1,.08,2.08V-.8c0,.92-.04,1.7-.1,2.38h2.62V.8h5.32v.66h2.52c-.06-.7-.1-1.42-.1-2.38V-5.48c0-.94.02-1.68.08-2.26-.58.04-1.22.06-2.14.06Zm.34,1.98h1.72v1.2h-1.72Zm3.92.02h1.7V-4.5h-1.7Zm-3.88,3.12h1.68V-1.3h-1.68Zm3.88,0h1.7V-1.3h-1.7Zm4.92-12.82a17.94,17.94,0,0,1,.08,2.06v8.18a17.5,17.5,0,0,1-.08,2.06h2.64a15.462,15.462,0,0,1-.08-2.04v-8.26a12.792,12.792,0,0,1,.1-2Zm3.74-1.34a18.415,18.415,0,0,1,.12,2.44v12.7c0,.48-.14.6-.78.6s-1.68-.08-2.62-.18a9.777,9.777,0,0,1,.68,2.5c.9.06,1.54.08,2.02.08A3.986,3.986,0,0,0-30.89.9c.54-.42.7-.94.7-2.1V-14.34a13.368,13.368,0,0,1,.12-2.38Zm13.48,7.98v.78h-4.02a13.433,13.433,0,0,1-2-.1v2.02a18.582,18.582,0,0,1,2-.08h4.02v.76h-5.14a19.539,19.539,0,0,1-2.48-.12v2.24a23.268,23.268,0,0,1,2.5-.12h3.32A14.209,14.209,0,0,1-27.45-.8a8.656,8.656,0,0,1,1.4,2.3,18.439,18.439,0,0,0,3.9-1.62,11.794,11.794,0,0,0,2.84-2.12c-.04.72-.04.78-.04,1.26v.8a14.718,14.718,0,0,1-.12,2h2.68a13.531,13.531,0,0,1-.12-2V-1c0-.5,0-.6-.04-1.28A15.192,15.192,0,0,0-9.83,1.5,9.436,9.436,0,0,1-8.51-.9a14.081,14.081,0,0,1-6.54-2.46h3.62a23.02,23.02,0,0,1,2.46.12V-5.48a18.691,18.691,0,0,1-2.48.12h-5.44v-.76h4.26a18.582,18.582,0,0,1,2,.08V-8.06a14.1,14.1,0,0,1-2,.1h-4.26v-.78h5.2a19.311,19.311,0,0,1,2,.08v-2.12a17.657,17.657,0,0,1-2,.08h-2.08c.2-.38.22-.42.58-1.18h1.84c.98,0,1.82.04,2.44.1V-14.1a17.075,17.075,0,0,1-2.3.12h-.28a16.405,16.405,0,0,0,1.12-1.78l-2.42-.86a11.072,11.072,0,0,1-1.36,2.64h-.94v-1.36a9.909,9.909,0,0,1,.1-1.52h-2.58a8.94,8.94,0,0,1,.08,1.4v1.48h-1.18v-1.48a12.575,12.575,0,0,1,.06-1.4h-2.56a10.511,10.511,0,0,1,.1,1.52v1.36h-.88a13.3,13.3,0,0,0-1.42-2.6l-2.4.86a8.23,8.23,0,0,1,1.22,1.74h-.3a17.365,17.365,0,0,1-2.28-.12v2.32c.62-.06,1.44-.1,2.4-.1h1.98a10.242,10.242,0,0,1,.6,1.18h-2.2a17.267,17.267,0,0,1-1.98-.08v2.12a18.9,18.9,0,0,1,1.98-.08Zm-.18-1.96c-.18-.5-.28-.72-.48-1.18h4.08a11.289,11.289,0,0,1-.52,1.18Zm16.8-1.84a15.53,15.53,0,0,1,.12-2.4H-5.37a16.315,16.315,0,0,1,.12,2.4v8.2a8.88,8.88,0,0,1-1.2.22l.46,2.76c.42-.16.52-.2.96-.36,1.46-.5,2.96-1.06,3.92-1.46V-.72A16.772,16.772,0,0,1-1.23,1.7H1.59A15.407,15.407,0,0,1,1.47-.46c.16.22.16.22.22.3A7.073,7.073,0,0,1,2.81,1.78,18.383,18.383,0,0,0,6.95-2.14a23.578,23.578,0,0,0,4.44,3.9,12.7,12.7,0,0,1,1.3-2.72,15.677,15.677,0,0,1-4.2-3.5,26.1,26.1,0,0,0,3.12-10.7c.06-.58.06-.58.1-.86a14.074,14.074,0,0,1-1.64.08H4.17a18.805,18.805,0,0,1-2.26-.12v2.66a15.1,15.1,0,0,1,2.02-.08H4.97l-2.52.96c.2.66.2.66.56,2.14a21.215,21.215,0,0,0,2.38,6.1A13.99,13.99,0,0,1,3.37-2.06a9.686,9.686,0,0,1-1.9,1.4V-14.42a15.53,15.53,0,0,1,.12-2.4H-1.23a16.638,16.638,0,0,1,.12,2.4v8.8c-.76.3-1.02.38-1.64.58Zm11.48-.94A20.614,20.614,0,0,1,6.91-6.84a20.373,20.373,0,0,1-1.88-6.64Zm13.74-.12a13.756,13.756,0,0,1-.7,4,13.921,13.921,0,0,1-3.52,5.96,15.941,15.941,0,0,1-3.66,2.8,8.391,8.391,0,0,1,1.88,2.46,18.606,18.606,0,0,0,4.82-4.28,16.378,16.378,0,0,0,2.9-5.82,15.708,15.708,0,0,0,3,5.86A19.164,19.164,0,0,0,31.67,1.6a10.266,10.266,0,0,1,1.94-2.7,14.557,14.557,0,0,1-2.6-1.82,15.639,15.639,0,0,1-3.26-3.74,15.693,15.693,0,0,1-2.34-8.32c0-.42.02-.74.06-1.26a11.377,11.377,0,0,1-1.8.1H20.23a11.582,11.582,0,0,1-2.06-.12v2.78a20.79,20.79,0,0,1,2.1-.12ZM43.41-4.08h4.66v-2.8H43.41v-4.68H40.59v4.68H35.91v2.8h4.68V.58h2.82Z" transform="translate(1294 4655)"></path></g><g id="&#x30B0;&#x30EB;&#x30FC;&#x30D7;_9014" data-name="&#x30B0;&#x30EB;&#x30FC;&#x30D7; 9014"><g id="&#x5408;&#x4F53;_22" data-name="&#x5408;&#x4F53; 22" transform="translate(-18512.055 1674)" fill="none"><path d="M19923.354,1213H19781V1099h302v114h-142.352l-8.646,12Z" stroke="none"></path><path d="M 19932.001953125 1219.866577148438 L 19939.11328125 1209.99755859375 L 20080 1209.99755859375 L 20080 1101.9990234375 L 19783.998046875 1101.9990234375 L 19783.998046875 1209.99755859375 L 19924.888671875 1209.99755859375 L 19932.001953125 1219.866577148438 M 19932.001953125 1224.998168945312 L 19923.353515625 1212.99755859375 L 19780.998046875 1212.99755859375 L 19780.998046875 1098.9990234375 L 20083 1098.9990234375 L 20083 1212.99755859375 L 19940.6484375 1212.99755859375 L 19932.001953125 1224.998168945312 Z" stroke="none" fill="#583fff"></path></g><g id="&#x30B0;&#x30EB;&#x30FC;&#x30D7;_9016" data-name="&#x30B0;&#x30EB;&#x30FC;&#x30D7; 9016"><path id="&#x30D1;&#x30B9;_13548" data-name="&#x30D1;&#x30B9; 13548" d="M-47.944.546c-.312-.65-.78-1.794-1.274-3.12l-5.72-15.314a17.6,17.6,0,0,1-.884-2.7h-5.59a19.963,19.963,0,0,1-.832,2.7L-67.912-2.574A24.168,24.168,0,0,1-69.238.546h5.148a12.982,12.982,0,0,1,.7-2.756l.884-2.522h7.852l.884,2.522A18.594,18.594,0,0,1-53.092.546Zm-7.8-8.944h-5.668l2.444-7.358c.182-.52.208-.65.364-1.2.208.7.312.962.39,1.2Zm11.076-12.194A21.708,21.708,0,0,1-44.46-17V-3.042A22.317,22.317,0,0,1-44.668.546h4.784a21.908,21.908,0,0,1-.208-3.588V-17a21.508,21.508,0,0,1,.208-3.588ZM-12.324-2a58.016,58.016,0,0,0-8.45-7.2,33.885,33.885,0,0,0,3.926-7.072,4.274,4.274,0,0,1,.858-1.456l-2-2.08a3.9,3.9,0,0,1-2.184.312l-8.866.156h-.494a19.361,19.361,0,0,1-3.172-.156l.052,3.952a23.421,23.421,0,0,1,3.64-.234l7.592-.13c-.6,1.326-1.04,2.262-1.378,2.834a24,24,0,0,1-6.812,7.514,23.493,23.493,0,0,1-5.772,3.172,11.758,11.758,0,0,1,2.5,3.458,29.913,29.913,0,0,0,9.7-7.254A46.3,46.3,0,0,1-15.47,1.378ZM-.65-16.38l-4.056.624a22.364,22.364,0,0,1-3.51.364l.6,3.8a33.944,33.944,0,0,1,3.536-.7l4.056-.624L.65-9.1l-5.46.858a23.707,23.707,0,0,1-3.432.364l.624,3.77a22.839,22.839,0,0,1,3.276-.676l5.616-.884L2-1.69A26.936,26.936,0,0,1,2.5,1.95l4.212-.7a22.992,22.992,0,0,1-.832-3.64L5.148-6.266l5.278-.806a23.857,23.857,0,0,1,3.406-.468l-.65-3.744A19.524,19.524,0,0,1,9.7-10.53L4.5-9.7l-.7-3.8,4.576-.728c2.132-.312,2.132-.312,3.276-.416l-.624-3.744a19.466,19.466,0,0,1-3.3.7l-4.576.7-.312-1.534a18.783,18.783,0,0,1-.39-2.99l-4.082.65a12.481,12.481,0,0,1,.7,2.99Zm22.412-4.212a20.143,20.143,0,0,1,.1,2.626c0,1.4-.052,3.172-.1,4.446a22.145,22.145,0,0,1-.936,5.98,12.034,12.034,0,0,1-3.9,5.954,11.928,11.928,0,0,1,3.146,3.042A16.942,16.942,0,0,0,23.634-3.51c1.378-2.834,1.872-5.538,2.054-10.946.182-5.122.182-5.122.286-5.9Zm7.124-.182a18.793,18.793,0,0,1,.1,2.392v.728l-.1,14.612a9.858,9.858,0,0,1-.26,2.5L30.55,1.508a5.494,5.494,0,0,1,1.2-.52,15.843,15.843,0,0,0,5.486-3.042,15.955,15.955,0,0,0,4.316-6.318,14.047,14.047,0,0,1-2.912-2.912,13,13,0,0,1-2.314,4.6A10.536,10.536,0,0,1,32.76-3.77L32.89-17.6a18.348,18.348,0,0,1,.208-3.146Zm36.66,10.218a13.935,13.935,0,0,0-2.184-3.51l-2.21.988A16.628,16.628,0,0,1,63.31-9.464Zm3.016-1.43A13.388,13.388,0,0,0,66.4-15.314l-2.158.936a17.25,17.25,0,0,1,2.106,3.484ZM45.4-14.508a37.447,37.447,0,0,1,3.822-.468c5.8-.442,5.9-.468,8.5-.754-3.614,2.08-5.486,4.94-5.486,8.45A7.083,7.083,0,0,0,56.342-.65,17.108,17.108,0,0,0,62.634.962a6.326,6.326,0,0,1,.91.13L64.09-3.12c-.312.026-.494.026-.65.026a16.965,16.965,0,0,1-3.848-.6c-2.184-.624-3.38-2.028-3.38-3.952,0-2.366,1.768-4.784,4.706-6.448a11.98,11.98,0,0,1,5.538-1.586,5.673,5.673,0,0,1,.624.026l-.208-3.978a15.324,15.324,0,0,1-2.912.234c-7.15.312-11.622.52-13.416.65-3.692.234-3.848.234-4.342.234-.1,0-.416,0-1.014-.026ZM-93.652,16.748a25.981,25.981,0,0,1,2.7-.1h8.476a26.3,26.3,0,0,1,2.7.1V13.576a27.114,27.114,0,0,1-3.068.156h-7.722a28.272,28.272,0,0,1-3.094-.156Zm1.274,5.538a12.587,12.587,0,0,1-.1,1.794c.806-.052,1.43-.078,2.418-.078h7.228c1.04,0,1.612.026,2.34.078a11.621,11.621,0,0,1-.1-1.82V19.478a12.2,12.2,0,0,1,.1-1.846c-.7.052-1.248.078-2.366.078h-7.176c-1.2,0-1.612-.026-2.444-.078a12.2,12.2,0,0,1,.1,1.846Zm3.25-2.184h5.33V21.61h-5.33Zm-1.586,4.914c-1.092,0-1.9-.026-2.7-.078a24.136,24.136,0,0,1,.1,2.7V33.96c0,1.2-.052,2.21-.13,3.094h3.406V36.04h6.916V36.9h3.276c-.078-.91-.13-1.846-.13-3.094V27.876c0-1.222.026-2.184.1-2.938-.754.052-1.586.078-2.782.078Zm.442,2.574h2.236v1.56h-2.236Zm5.1.026h2.21V29.15h-2.21Zm-5.044,4.056h2.184V33.31H-90.22Zm5.044,0h2.21V33.31h-2.21Zm6.4-16.666a23.324,23.324,0,0,1,.1,2.678V28.318A22.751,22.751,0,0,1-78.78,31h3.432a20.1,20.1,0,0,1-.1-2.652V17.606a16.629,16.629,0,0,1,.13-2.6Zm4.862-1.742a23.939,23.939,0,0,1,.156,3.172v16.51c0,.624-.182.78-1.014.78s-2.184-.1-3.406-.234a12.71,12.71,0,0,1,.884,3.25c1.17.078,2,.1,2.626.1,1.742,0,2.7-.182,3.3-.676.7-.546.91-1.222.91-2.73V16.358a17.379,17.379,0,0,1,.156-3.094Zm17.524,10.374v1.014H-61.62a17.463,17.463,0,0,1-2.6-.13v2.626a24.157,24.157,0,0,1,2.6-.1h5.226v.988h-6.682a25.4,25.4,0,0,1-3.224-.156v2.912a30.249,30.249,0,0,1,3.25-.156h4.316A18.472,18.472,0,0,1-66.9,33.96a11.253,11.253,0,0,1,1.82,2.99,23.971,23.971,0,0,0,5.07-2.106,15.332,15.332,0,0,0,3.692-2.756c-.052.936-.052,1.014-.052,1.638v1.04a19.133,19.133,0,0,1-.156,2.6h3.484a17.591,17.591,0,0,1-.156-2.6V33.7c0-.65,0-.78-.052-1.664,2.262,2.262,5.148,3.8,9.256,4.914a12.267,12.267,0,0,1,1.716-3.12c-3.8-.624-6.5-1.638-8.5-3.2h4.706a29.926,29.926,0,0,1,3.2.156V27.876a24.3,24.3,0,0,1-3.224.156H-53.17v-.988h5.538a24.157,24.157,0,0,1,2.6.1V24.522a18.335,18.335,0,0,1-2.6.13H-53.17V23.638h6.76a25.1,25.1,0,0,1,2.6.1V20.986a22.954,22.954,0,0,1-2.6.1h-2.7c.26-.494.286-.546.754-1.534h2.392c1.274,0,2.366.052,3.172.13V16.67a22.2,22.2,0,0,1-2.99.156h-.364a21.327,21.327,0,0,0,1.456-2.314l-3.146-1.118a14.394,14.394,0,0,1-1.768,3.432H-50.83V15.058a12.881,12.881,0,0,1,.13-1.976h-3.354a11.622,11.622,0,0,1,.1,1.82v1.924h-1.534V14.9a16.348,16.348,0,0,1,.078-1.82h-3.328a13.665,13.665,0,0,1,.13,1.976v1.768h-1.144a17.287,17.287,0,0,0-1.846-3.38l-3.12,1.118a10.7,10.7,0,0,1,1.586,2.262h-.39a22.574,22.574,0,0,1-2.964-.156v3.016c.806-.078,1.872-.13,3.12-.13h2.574a13.314,13.314,0,0,1,.78,1.534h-2.86a22.447,22.447,0,0,1-2.574-.1v2.756a24.571,24.571,0,0,1,2.574-.1Zm-.234-2.548c-.234-.65-.364-.936-.624-1.534h5.3a14.676,14.676,0,0,1-.676,1.534Zm21.84-2.392a20.189,20.189,0,0,1,.156-3.12h-3.562a21.209,21.209,0,0,1,.156,3.12v10.66a11.544,11.544,0,0,1-1.56.286l.6,3.588c.546-.208.676-.26,1.248-.468,1.9-.65,3.848-1.378,5.1-1.9v3.2a21.8,21.8,0,0,1-.156,3.146h3.666A20.029,20.029,0,0,1-29.3,34.4c.208.286.208.286.286.39a9.2,9.2,0,0,1,1.456,2.522,23.9,23.9,0,0,0,5.382-5.1,30.652,30.652,0,0,0,5.772,5.07,16.5,16.5,0,0,1,1.69-3.536,20.38,20.38,0,0,1-5.46-4.55,33.925,33.925,0,0,0,4.056-13.91c.078-.754.078-.754.13-1.118a18.3,18.3,0,0,1-2.132.1h-7.67a24.447,24.447,0,0,1-2.938-.156V17.58a19.629,19.629,0,0,1,2.626-.1h1.352l-3.276,1.248c.26.858.26.858.728,2.782a27.58,27.58,0,0,0,3.094,7.93,18.186,18.186,0,0,1-2.626,2.886,12.592,12.592,0,0,1-2.47,1.82V16.254a20.189,20.189,0,0,1,.156-3.12h-3.666a21.63,21.63,0,0,1,.156,3.12v11.44c-.988.39-1.326.494-2.132.754Zm14.924-1.222a26.8,26.8,0,0,1-2.366,8.632c-1.2-2.366-1.742-4.342-2.444-8.632ZM-2,17.32a17.883,17.883,0,0,1-.91,5.2,18.1,18.1,0,0,1-4.576,7.748,20.723,20.723,0,0,1-4.758,3.64,10.908,10.908,0,0,1,2.444,3.2,24.188,24.188,0,0,0,6.266-5.564,21.291,21.291,0,0,0,3.77-7.566,20.421,20.421,0,0,0,3.9,7.618A24.913,24.913,0,0,0,9.958,37.08a13.346,13.346,0,0,1,2.522-3.51A18.924,18.924,0,0,1,9.1,31.2,20.173,20.173,0,0,1,1.82,15.526c0-.546.026-.962.078-1.638a14.79,14.79,0,0,1-2.34.13H-4.914a15.057,15.057,0,0,1-2.678-.156v3.614a27.027,27.027,0,0,1,2.73-.156Zm18.928,2.21a2.245,2.245,0,0,1,.39-.026h.364a1.626,1.626,0,0,0,.442.026c.078,0,.494,0,.988.026.754.026.962.026,2.418.026a3.984,3.984,0,0,0-.39.65,23.786,23.786,0,0,1-5.07,6.084L18.876,29.1a15.84,15.84,0,0,1,2.366-2.5c1.95-1.69,3.718-2.574,5.122-2.574a1.185,1.185,0,0,1,1.326,1.04,20.106,20.106,0,0,0-3.8,2c-1.976,1.43-3.016,3.042-3.016,4.654a4.225,4.225,0,0,0,1.014,2.808c1.2,1.352,3.354,1.924,7.176,1.924a48.111,48.111,0,0,0,6.682-.468,9.855,9.855,0,0,1,1.3-.13l-.286-3.978a23.855,23.855,0,0,1-7.982,1.17c-2.834,0-3.952-.468-3.952-1.664a2.423,2.423,0,0,1,1.222-1.872,13.491,13.491,0,0,1,2.08-1.118.836.836,0,0,1,.026.208A19.4,19.4,0,0,1,28,31.62l3.614-.1a15.759,15.759,0,0,1-.078-1.742V28.006l-.026-.858c3.146-1.066,3.146-1.066,3.77-1.222a19.684,19.684,0,0,1,2.938-.676l-1.378-3.536a8.849,8.849,0,0,1-2.028.78c-1.17.39-1.3.442-2.314.806-.676.234-1.144.39-1.378.468-.468-1.742-1.768-2.626-3.874-2.626a6.63,6.63,0,0,0-3.588,1.014,18.658,18.658,0,0,0,1.69-2.574c2.626-.078,6.006-.286,7.9-.52,1.248-.13,1.248-.13,2.054-.208l-.156-3.51a36.059,36.059,0,0,1-6.708.858,15.742,15.742,0,0,0-1.612.1c.1-.208.1-.234.208-.468A13.331,13.331,0,0,1,28,13.68l-4.03-.364a10.358,10.358,0,0,1-.936,3.042h-1.3a23.256,23.256,0,0,1-4.758-.338ZM60.84,25.9h3.016a11.441,11.441,0,0,1,1.586.078V24.054a10.937,10.937,0,0,1-1.586.078H60.84v-.7H63.8a11.009,11.009,0,0,1,1.56.078V21.584a9.813,9.813,0,0,1-1.56.078H60.84v-.676h3.12c1.04,0,1.508.026,2.132.078V18.932a15.291,15.291,0,0,1-2.184.1H60.814c.234-.364.338-.52.52-.858H63.05a4.86,4.86,0,0,1-.1-1.17h1.092a24.977,24.977,0,0,1,2.574.13V14.382a24.839,24.839,0,0,1-2.548.13H62.946a5,5,0,0,1,.1-1.4H59.722a5.983,5.983,0,0,1,.078,1.4H56.55a6.592,6.592,0,0,1,.1-1.4h-3.3a6.4,6.4,0,0,1,.1,1.4H52.91a20.539,20.539,0,0,1-2.366-.13L48.62,12.874a10.506,10.506,0,0,1-1.612,2.652c-.312-.52-.494-.806-.65-1.04-.572-.78-.572-.78-.806-1.118l-2.678,1.794a10.163,10.163,0,0,1,1.9,2.6,16.907,16.907,0,0,1-2.6,1.9,13.459,13.459,0,0,1,1.612,2.912,18.3,18.3,0,0,0,2.184-1.716,21.836,21.836,0,0,1,.468,2.522,18.523,18.523,0,0,1-4.394,4.81,9.433,9.433,0,0,1,1.534,2.886,16.084,16.084,0,0,0,3.12-3.562v1.066A26.044,26.044,0,0,1,46.41,33c-.208.78-.52,1.066-1.222,1.066a10.271,10.271,0,0,1-2.314-.338,11.216,11.216,0,0,1,.6,3.2,17.3,17.3,0,0,0,2.5.182c1.95,0,2.808-.624,3.328-2.392a8.044,8.044,0,0,1,1.144,2.6,29.9,29.9,0,0,0,7.566-1.82,37.306,37.306,0,0,0,7.774,1.82l.13-.546a10.185,10.185,0,0,1,1.014-2.392,34.776,34.776,0,0,1-5.46-.52A17.787,17.787,0,0,0,64.35,31.8c.832-.728.832-.728,1.014-.91L63.7,29.254a12.2,12.2,0,0,1-1.95.1H53.326a24.157,24.157,0,0,1-2.6-.1v2.5c.806-.052,1.742-.1,2.522-.1h1.43l-2.262.884A17.281,17.281,0,0,0,54.6,33.96a27.823,27.823,0,0,1-5.3.7,23.717,23.717,0,0,0,.546-5.85,38.116,38.116,0,0,0-.468-6.5A8.026,8.026,0,0,1,50.7,24.34c.416-.39.624-.572.858-.806a11.986,11.986,0,0,0-.052,1.4v1.924a15.951,15.951,0,0,1-.078,1.768c.52-.026.936-.052,1.716-.052H64.09a12.449,12.449,0,0,1,2.132.13V26.524c-.546.052-1.352.1-2.08.1h-3.3Zm-2.86,0v.728H54.522V25.9Zm0-1.768H54.522v-.7H57.98Zm0-2.47H54.522v-.676H57.98Zm-7.488-4.524c.754-.078,1.638-.13,2.47-.13h.494a5.029,5.029,0,0,1-.026.676l-.936-.208a9.069,9.069,0,0,1-1.274,2.392,9.312,9.312,0,0,1-1.9,2.08,21.943,21.943,0,0,0-.936-3.484,28.535,28.535,0,0,0,2.106-2.678Zm4.342,1.9c.182-.338.182-.338.26-.494l.234-.39h1.3a8.921,8.921,0,0,1-.078-1.144H59.8v.7L58.526,17.5a9.43,9.43,0,0,1-.78,1.534ZM60.5,31.646a11.546,11.546,0,0,1-2.522,1.3,10.714,10.714,0,0,1-2.548-1.3Zm20.566-1.508-2.314,1.638A16.353,16.353,0,0,1,81.9,35.754l1.976-1.664a8.406,8.406,0,0,1,.676,2.86c.6.026.6.026,1.3.052,1.092.026,1.092.026,1.248.026,2.7,0,3.562-.676,3.562-2.7V30.138h.624a20.408,20.408,0,0,1,2.5.1V27.3a22.159,22.159,0,0,1-2.574.1h-.546V26.316h.416a20.682,20.682,0,0,1,2.5.1V23.56A16.257,16.257,0,0,1,91,23.69H79.378c-1.456,0-1.924-.026-2.522-.078V26.42a20.474,20.474,0,0,1,2.47-.1h8.112v1.092h-8.4a21.449,21.449,0,0,1-2.522-.1v2.938a21.812,21.812,0,0,1,2.5-.1Zm6.37,0v3.068c0,.546-.208.65-1.118.65a19.293,19.293,0,0,1-2-.13l.364-.312A20.248,20.248,0,0,0,81.8,30.138Zm-12.4-17.446a12.9,12.9,0,0,1-5.434,4.94,10.739,10.739,0,0,1,1.69,2.938,22.65,22.65,0,0,0,4.29-3.354,31.36,31.36,0,0,0,2.158-2.522ZM89.83,22.754c.832,0,1.742.026,2.366.078a24.376,24.376,0,0,1-.1-2.626v-3.8a26.188,26.188,0,0,1,.1-2.652,23.2,23.2,0,0,1-2.73.1H81.12a23.548,23.548,0,0,1-2.7-.1c.052.858.078,1.378.078,2.418v4.03c0,1.118-.026,1.768-.078,2.626.494-.052,1.378-.078,2.418-.078Zm-8.164-6.448h7.228v.988H81.666Zm0,3.068h7.228V20.44H81.666ZM72.384,34.48a18.569,18.569,0,0,1-.156,2.73h3.614a21.834,21.834,0,0,1-.13-2.964V23.638c.182-.234.182-.234.416-.546.494-.676.546-.728.754-1.066.52-.78.52-.78.962-1.43l-2.7-1.95a17.312,17.312,0,0,1-5.746,6.578A14.093,14.093,0,0,1,70.72,28.6a9.9,9.9,0,0,0,1.69-1.586c-.026,1.326-.026,1.664-.026,2.652Z" transform="translate(1420 2823)" fill="#583fff"></path></g></g></g><path id="&#x30D1;&#x30B9;_13549" data-name="&#x30D1;&#x30B9; 13549" d="M-3.81-4.15-7.35-7.7l-.33.33L-4.13-3.8-7.68-.25l.33.33,3.54-3.52L-.26.08.06-.25-3.49-3.8.06-7.37-.26-7.7Zm.01-3.31a.768.768,0,0,0-.77.76.777.777,0,0,0,.77.77.762.762,0,0,0,.76-.77A.76.76,0,0,0-3.8-7.46ZM-6.67-4.57a.762.762,0,0,0-.77.76.777.777,0,0,0,.77.77.762.762,0,0,0,.76-.77A.76.76,0,0,0-6.67-4.57Zm5.72.01a.76.76,0,0,0-.76.76.76.76,0,0,0,.76.76A.76.76,0,0,0-.19-3.8.76.76,0,0,0-.95-4.56Zm-2.86,2.9-.02.02c-.01,0-.01,0-.02-.01a.037.037,0,0,0-.03-.01.806.806,0,0,0-.7.77.8.8,0,0,0,.77.77.775.775,0,0,0,.76-.77A.762.762,0,0,0-3.81-1.66ZM8.57-2.94a6.583,6.583,0,0,1-1.01.07H7.21V-6.15a14.075,14.075,0,0,1,.07-1.69H5.93a9.517,9.517,0,0,1-.83,1.1L2.73-3.84c-.35.42-.46.55-.8.92v1.23c.34-.03.66-.04,1.25-.04H5.95v.69A6.379,6.379,0,0,1,5.87.12H7.29a6.214,6.214,0,0,1-.08-1.14v-.71h.36a7.718,7.718,0,0,1,1,.07Zm-2.61.08H3.41L5.33-5.24c.36-.44.48-.6.68-.89a11.317,11.317,0,0,0-.05,1.2Z" transform="translate(1579 3192)" fill="#333"></path></g></svg>