<svg xmlns="http://www.w3.org/2000/svg" xmlns:xlink="http://www.w3.org/1999/xlink" width="302.002" height="425.001" viewBox="0 0 302.002 425.001"><defs><linearGradient id="linear-gradient" x1="0.5" x2="0.5" y2="1" gradientUnits="objectBoundingBox"><stop offset="0" stop-color="#4f34ff"></stop><stop offset="1" stop-color="#a598ff"></stop></linearGradient><linearGradient id="linear-gradient-2" x1="0.761" x2="0" y2="0.966" gradientUnits="objectBoundingBox"><stop offset="0" stop-color="#4d33ff"></stop><stop offset="1" stop-color="#a598ff"></stop></linearGradient></defs><g id="&#x30B0;&#x30EB;&#x30FC;&#x30D7;_9021" data-name="&#x30B0;&#x30EB;&#x30FC;&#x30D7; 9021" transform="translate(-334.248 -2772.999)"><g id="&#x30B0;&#x30EB;&#x30FC;&#x30D7;_9020" data-name="&#x30B0;&#x30EB;&#x30FC;&#x30D7; 9020"><g id="&#x5408;&#x4F53;_20" data-name="&#x5408;&#x4F53; 20" transform="translate(-19446.75 1674)" fill="none"><path d="M19923.354,1213H19781V1099h302v114h-142.352l-8.646,12Z" stroke="none"></path><path d="M 19932.001953125 1219.866577148438 L 19939.11328125 1209.99755859375 L 20080 1209.99755859375 L 20080 1101.9990234375 L 19783.998046875 1101.9990234375 L 19783.998046875 1209.99755859375 L 19924.888671875 1209.99755859375 L 19932.001953125 1219.866577148438 M 19932.001953125 1224.998168945312 L 19923.353515625 1212.99755859375 L 19780.998046875 1212.99755859375 L 19780.998046875 1098.9990234375 L 20083 1098.9990234375 L 20083 1212.99755859375 L 19940.6484375 1212.99755859375 L 19932.001953125 1224.998168945312 Z" stroke="none" fill="#583fff"></path></g><g id="&#x30B0;&#x30EB;&#x30FC;&#x30D7;_9023" data-name="&#x30B0;&#x30EB;&#x30FC;&#x30D7; 9023"><path id="&#x30D1;&#x30B9;_13557" data-name="&#x30D1;&#x30B9; 13557" d="M-78.728-19.864a15.252,15.252,0,0,1,2.21,3.744l2.34-1.014A13.292,13.292,0,0,0-76.44-20.8Zm3.172-1.222a15.2,15.2,0,0,1,2.21,3.614l2.262-1.014a14.155,14.155,0,0,0-2.288-3.536Zm-12.012.468a10.894,10.894,0,0,1,.416,1.716,69.327,69.327,0,0,0,1.664,6.942,16.179,16.179,0,0,0-3.588,2.288A6.312,6.312,0,0,0-91.39-4.81a5.638,5.638,0,0,0,1.144,3.458c1.378,1.742,4.264,2.6,8.762,2.6A63.236,63.236,0,0,0-74.958.832C-73.476.676-73.346.676-72.774.65l-.312-4.238A31.26,31.26,0,0,1-81.8-2.47c-3.848,0-5.564-.754-5.564-2.47,0-1.664,1.82-3.172,5.382-4.472a56.113,56.113,0,0,1,8.944-2.47l-1.3-3.952a5.855,5.855,0,0,1-1.04.39c-4.056,1.274-5.148,1.638-6.578,2.158a43.924,43.924,0,0,1-1.586-7.956Zm25.246,4.342a4.507,4.507,0,0,1,.91.078,48.833,48.833,0,0,0,5.382.312,23.125,23.125,0,0,0,2.964-.156c-.754.442-2.522,1.534-3.432,2.132l2.652,1.976a48.786,48.786,0,0,1,7.1-4.446l-.13-3.432a34.889,34.889,0,0,1-6.812.468,39.014,39.014,0,0,1-8.4-.65Zm2.08,5.512c-2.47,1.976-3.536,3.8-3.536,5.928s1.144,3.64,3.484,4.524a19.985,19.985,0,0,0,6.838.858A40.966,40.966,0,0,0-47.58.13,22.307,22.307,0,0,1-45.24-.1l-.286-4.264a27.783,27.783,0,0,1-8.45,1.144c-4.056,0-5.85-.676-5.85-2.184,0-1.014.754-2.106,2.34-3.38ZM-29.458-21.5a22.659,22.659,0,0,1,.13,2.366c.026,3.458.208,9.412.338,11.232a12.456,12.456,0,0,0-2.054-.182,8.706,8.706,0,0,0-4.03.858,4.46,4.46,0,0,0-2.782,4.134c0,3.068,2.366,4.888,6.422,4.888s6.266-1.612,6.266-4.576v-.676a18.4,18.4,0,0,1,3.38,2.08A13.209,13.209,0,0,1-19.448.754l2.392-3.484c-.286-.182-.416-.26-.78-.52-3.458-2.366-4.706-3.042-7.41-3.952-.208-3.328-.234-3.666-.26-5.278,1.56-.052,3.094-.156,4.238-.26,2.184-.208,3.354-.338,3.562-.338l-.286-3.692a29.978,29.978,0,0,1-7.592.806c-.026-1.014-.026-1.066-.026-1.222a36.764,36.764,0,0,1,.182-4.29Zm.546,17.056s.026.416.026.728A2.109,2.109,0,0,1-29.12-2.5a2.747,2.747,0,0,1-2.34.936c-1.482,0-2.47-.6-2.47-1.508,0-1.014,1.144-1.69,2.86-1.69A6.12,6.12,0,0,1-28.912-4.446ZM-7.566-21.372a5.655,5.655,0,0,1-.052.91c-.052.468-.156,1.508-.338,3.146-.208,1.872-.364,4.732-.364,6.942,0,.546.026,1.326.052,2.262.026,1.378.026,1.378.026,1.482a2.7,2.7,0,0,1-.026.416l3.718-.052v-.39a11.7,11.7,0,0,1,3.354-8.4,3.629,3.629,0,0,1,2.6-1.222c2.054,0,3.2,1.95,3.2,5.434,0,5.772-3.016,8.4-10.3,8.97A12.973,12.973,0,0,1-3.9,1.9,24.394,24.394,0,0,0,1.456.468c4.628-1.95,7.02-5.668,7.02-10.894a11.859,11.859,0,0,0-1.4-6.318,5.99,5.99,0,0,0-5.252-3.25A6.276,6.276,0,0,0-2.47-18.2a10.492,10.492,0,0,0-2.314,3.432A35.518,35.518,0,0,1-3.64-21.19ZM16.718-7.93c.468.052.728.1,1.014.156,1.352.286,2.262.416,3.51.572-.078,1.118-.078,1.378-.078,2.028,0,2.626.884,4.368,2.782,5.538a9.574,9.574,0,0,0,4.94,1.17A9.67,9.67,0,0,0,34.918-.26,6.262,6.262,0,0,0,37.492-5.2a8.5,8.5,0,0,0-2.262-5.694,11.384,11.384,0,0,1-3.848.754,6.314,6.314,0,0,1,2.262,4.368c0,2.366-1.768,3.718-4.862,3.718a4.522,4.522,0,0,1-3.042-.91,3.055,3.055,0,0,1-.884-2.444c0-.494.026-1.066.078-1.56.91.026,1.118.026,1.4.026a32.378,32.378,0,0,0,4-.26,6.94,6.94,0,0,1,.832-.078l.078-3.562a19.615,19.615,0,0,1-5.174.572c-.182,0-.494,0-.91-.026.182-1.43.26-1.95.442-3.2H26a36.927,36.927,0,0,0,3.926-.156c1.508-.13,1.508-.13,1.9-.156l.13-3.64a24.889,24.889,0,0,1-5.8.6,20.424,20.424,0,0,1,.806-4.108l-4.108-.364v.312a28.2,28.2,0,0,1-.442,4.03,18.048,18.048,0,0,1-4.706-.91l-.286,3.432c.39.052.52.078.91.156A27.488,27.488,0,0,0,22-13.676c-.26,1.638-.26,1.638-.442,3.172A17.759,17.759,0,0,1,17-11.466Zm28.86-11.778a25.927,25.927,0,0,1,1.716,4.81c-.234.052-1.716.52-3.484,1.092-.39.1-.7.182-1.248.286l1.17,3.614a44.523,44.523,0,0,1,4.5-1.716c.078.312.208.78.364,1.352.6,2.132.936,3.38,1.352,5.2a53.044,53.044,0,0,1,1.378,7.176l4.134-.962a7.936,7.936,0,0,1-.442-1.326c-1.326-5.486-1.612-6.6-2.7-10.582l-.52-1.872c4.03-1.144,5.642-1.482,7.332-1.482,2.08,0,3.224.832,3.224,2.34,0,1.664-1.508,2.756-3.822,2.756a10.474,10.474,0,0,1-4-.884,12.532,12.532,0,0,1,.546,3.744,13.715,13.715,0,0,0,3.952.624c4.264,0,7.228-2.626,7.228-6.37,0-3.354-2.47-5.564-6.214-5.564a12.932,12.932,0,0,0-1.352.052,21.909,21.909,0,0,1,.156-4.082H54.912a12.662,12.662,0,0,1,.182,2.6c0,1.4,0,1.4.026,1.95-1.118.208-1.976.416-4.264,1.04-.286-.936-.364-1.248-.546-1.794a20.04,20.04,0,0,1-.858-3.068Zm28.548,3.094c.78-.1,1.014-.1,1.846-.156,3.822-.182,4.264-.208,6.4-.39-3.666,3.666-9.1,7.982-11.544,9.152L72.9-4.654A15.672,15.672,0,0,1,83.512-9.022c2.99,0,4.914,1.222,4.914,3.12,0,1.638-.754,2.626-2.6,3.38a6.633,6.633,0,0,0-1.2-2.236,5.768,5.768,0,0,0-4.576-2.106c-2.756,0-4.784,1.69-4.784,3.926A3.893,3.893,0,0,0,76.856.234a9.115,9.115,0,0,0,5.278,1.3A13.1,13.1,0,0,0,88.66-.026a6.56,6.56,0,0,0,3.562-5.9,5.314,5.314,0,0,0-1.9-4.316,8.226,8.226,0,0,0-5.434-1.768,14.283,14.283,0,0,0-4.29.624,49.694,49.694,0,0,0,5.642-4.576,13.4,13.4,0,0,1,2.6-2.106L87-20.774a4.412,4.412,0,0,1-1.768.338c-2.418.182-5.642.312-7.878.312a23.209,23.209,0,0,1-3.38-.182ZM82.5-1.586a3.79,3.79,0,0,1-1.092.13c-1.69,0-2.678-.52-2.678-1.43,0-.624.52-1.04,1.3-1.04C81.25-3.926,82.108-3.12,82.5-1.586Zm-157.4,16.072a13.03,13.03,0,0,1-2.236.13h-4.446q.741-.858,1.17-1.4l-3.744-.6a10.739,10.739,0,0,1-2.47,2.756,22.718,22.718,0,0,1-6.812,3.874,9.858,9.858,0,0,1,2.08,2.548,23.615,23.615,0,0,0,3.536-1.768,18.007,18.007,0,0,1,2.652,1.95,29.365,29.365,0,0,1-8.268,2.652A9.319,9.319,0,0,1-91.7,27.564a32.5,32.5,0,0,0,6.344-2.158,30.928,30.928,0,0,0,8.476-5.46,28.547,28.547,0,0,0,3.536-3.8ZM-78.6,17.32a18.99,18.99,0,0,1-3.8,3.068,35.493,35.493,0,0,0-2.99-2.028c.546-.416.754-.624,1.222-1.04Zm6.942,6.89a12.7,12.7,0,0,1-2.21.13h-3.458c.494-.546.676-.754,1.274-1.482l-3.38-.806a13.482,13.482,0,0,1-4.81,4.16,26.848,26.848,0,0,1-7.2,2.678A9.918,9.918,0,0,1-89.7,31.75a32.514,32.514,0,0,0,5.252-2.028,15.362,15.362,0,0,1,2.964,2.288,23.75,23.75,0,0,1-3.2,1.17,29.919,29.919,0,0,1-7.514,1.2,10.164,10.164,0,0,1,1.846,3.172A32.328,32.328,0,0,0-80.652,35a21.047,21.047,0,0,0,9.906-7.748c.52-.728.6-.806.91-1.222Zm-3.12,2.834a16.012,16.012,0,0,1-3.822,3.38,30.787,30.787,0,0,0-3.094-2.314c.728-.494.962-.65,1.508-1.066Zm32.552-9.932a14.056,14.056,0,0,1-2.47.13h-4.134c.234-.858.286-.988.416-1.534.364-1.482.494-1.976.546-2.158l-3.38-.65a14.577,14.577,0,0,1-.312,2.262c-.78,3.952-2,6.76-3.848,8.84a10.566,10.566,0,0,1,1.742,2.028,13.642,13.642,0,0,1-1.664.078H-59.15c.182-.416.26-.572.494-1.092l-3.224-.572c-.286.806-.39,1.118-.6,1.664h-1.846a11.733,11.733,0,0,1-2.132-.13v3.094a12.266,12.266,0,0,1,2.132-.13h.494a20.409,20.409,0,0,1-1.742,2.548c1.846.65,2.522.936,3.77,1.482a12.458,12.458,0,0,1-4.862,1.534,12.225,12.225,0,0,1,1.586,2.86,13.986,13.986,0,0,0,6.214-2.938,14.3,14.3,0,0,1,2.5,1.638l.858-1.378a8.9,8.9,0,0,1,1.768,2.652,19.384,19.384,0,0,0,5.356-4.212,17.529,17.529,0,0,0,4.758,4.16,15.179,15.179,0,0,1,1.794-3.276,13.589,13.589,0,0,1-4.576-3.64c1.586-2.86,2.288-5.564,2.626-10.14a10.4,10.4,0,0,1,1.56.1Zm-12.35,16.042c-.988-.546-1.352-.754-2.158-1.118a10.522,10.522,0,0,0,1.4-3.094,18.189,18.189,0,0,1,2,.1V26.472a9.538,9.538,0,0,0,1.118-1.534,18.552,18.552,0,0,0,1.976,5.434,15,15,0,0,1-4.992,3.822Zm7.566-12.922a20.794,20.794,0,0,1-1.352,7.02,19.7,19.7,0,0,1-1.794-6.214c.13-.338.182-.468.312-.806Zm-11.518,8.71a6.162,6.162,0,0,1-.936,1.9c-.572-.234-.91-.338-1.872-.676.39-.624.494-.806.728-1.222Zm3.094-11.284h-2.652V14.72a9.688,9.688,0,0,1,.1-1.69h-3.3a10.36,10.36,0,0,1,.1,1.742v2.886h-2.964a17.375,17.375,0,0,1-2.236-.1v2.86a17.9,17.9,0,0,1,2.236-.1h1.092a10.668,10.668,0,0,1-3.926,2.808A10.392,10.392,0,0,1-65.1,25.64a13.63,13.63,0,0,0,3.952-3.692c-.026.416-.052.858-.052,1.066v.754a3.911,3.911,0,0,1-.078.754h3.25a5.045,5.045,0,0,1-.052-.884V22.91c0-.156-.052-.676-.078-.962A8.025,8.025,0,0,0-56,24.262a12,12,0,0,1,1.586-2.444A7.409,7.409,0,0,1-56.5,20.31h1.456a11.549,11.549,0,0,1,1.638.078V17.58a10.871,10.871,0,0,1-1.612.078H-55.2a26.749,26.749,0,0,0,1.9-3.406l-2.756-1.118a14.008,14.008,0,0,1-1.82,3.406ZM-65.988,14.3a13.129,13.129,0,0,1,1.924,3.3l2.652-1.144a14.511,14.511,0,0,0-1.976-3.25Zm41.028,4.29a5.057,5.057,0,0,1,2.418.832A6.319,6.319,0,0,1-19.76,24.86a7.141,7.141,0,0,1-3.588,6.4A13.035,13.035,0,0,1-28.5,32.5,10.661,10.661,0,0,1-26.572,36.2a18.56,18.56,0,0,0,4.134-1.066c4.16-1.638,6.526-5.3,6.526-10.036,0-6.084-4.16-9.984-10.686-9.984a12.062,12.062,0,0,0-9.152,3.744,11.217,11.217,0,0,0-2.912,7.722c0,4.472,2.288,7.618,5.512,7.618,2.236,0,3.952-1.534,5.408-4.836A36.683,36.683,0,0,0-24.96,18.594Zm-3.8.052a33.473,33.473,0,0,1-2.08,8.372c-.832,2.106-1.638,3.12-2.392,3.12-1.014,0-1.846-1.586-1.846-3.536a8.524,8.524,0,0,1,3.2-6.656A5.843,5.843,0,0,1-28.756,18.646Zm26.91,3.406c0,.65,0,.65-.026,1.274H-6.578a16.335,16.335,0,0,1-2.392-.1v2.912a16.8,16.8,0,0,1,2.392-.1h4.524A10.862,10.862,0,0,1-2.262,27.3h-6.6a18.312,18.312,0,0,1-2.756-.13v3.12a27.212,27.212,0,0,1,2.964-.156h5.3a7.466,7.466,0,0,1-3.094,2.574,14.752,14.752,0,0,1-5.616,1.43,9.32,9.32,0,0,1,1.586,3.224A17.211,17.211,0,0,0-4.056,35.13,10.409,10.409,0,0,0-.312,31.36a13.134,13.134,0,0,0,4.6,3.9,22.828,22.828,0,0,0,6.344,2.106,13.456,13.456,0,0,1,1.56-3.328c-3.588-.572-5.512-1.118-7.176-2a7.172,7.172,0,0,1-2.392-1.9H8.71a27,27,0,0,1,2.99.156v-3.12a19.294,19.294,0,0,1-2.834.13H1.118c.1-.572.13-.78.182-1.274H6.474a16.847,16.847,0,0,1,2.366.1V23.222a15.912,15.912,0,0,1-2.366.1H1.456c0-.468,0-.468.026-1.274H6.63a18.734,18.734,0,0,1,2.418.1V21.09h2.444a15.65,15.65,0,0,1-.1-1.976V16.93a16.77,16.77,0,0,1,.1-1.976c-.91.078-1.612.1-2.99.1H1.56v-.416A9.721,9.721,0,0,1,1.69,13H-2.054a8.156,8.156,0,0,1,.13,1.664v.39H-8.476c-1.378,0-2.106-.026-2.99-.1a18.6,18.6,0,0,1,.1,2.028v2.132a10.741,10.741,0,0,1-.13,1.976h2.444v1.066a17.439,17.439,0,0,1,2.444-.1ZM8.164,17.97V19.3c-.546.026-.806.026-1.534.026H1.508a13.448,13.448,0,0,1,.026-1.352Zm-9.984,0v1.352H-6.6c-.728,0-1.118,0-1.508-.026V17.97Zm21.554,14.4c-.416.13-.416.13-.91.26V26.758a19.664,19.664,0,0,1,.1-2.47H16.094a17.042,17.042,0,0,1,.13,2.6v6.4a7.443,7.443,0,0,1-1.17.208l.624,3.536c.806-.286,1.092-.39,2.106-.728,2.652-.858,4-1.326,5.668-1.95a11.782,11.782,0,0,1,1.534,2.73,26.517,26.517,0,0,0,7.228-3.016c1.482,1.976,3.2,3.12,4.732,3.12a2.212,2.212,0,0,0,1.924-.962c.624-.884.832-1.664,1.04-3.874a7.354,7.354,0,0,1-2.5-1.794,12.733,12.733,0,0,1-.26,2.522c-.078.468-.234.676-.468.676-.416,0-1.092-.572-1.872-1.56a37.031,37.031,0,0,0,2.86-2.548c.442-.416.442-.442.624-.6l-2.548-1.82a10.143,10.143,0,0,1-2.34,2.288,10.459,10.459,0,0,1-.546-2l4.056-.468a19.971,19.971,0,0,1,2.47-.182L39.078,23.9c-.7.156-1.456.286-2.418.416l-4.238.468c-.078-.6-.078-.624-.13-1.352l3.224-.364a22.15,22.15,0,0,1,2.262-.182h.208l-.312-2.756a14,14,0,0,1-2.47.39l-3.094.364c-.026-.338-.026-.338-.078-1.326l3.978-.416c.988-.1,1.69-.156,2.21-.156a1.006,1.006,0,0,1,.234.026l-.286-2.938a21.142,21.142,0,0,1-2.366.364l1.69-1.43a16.59,16.59,0,0,0-3.25-1.794L32.4,14.876a15.126,15.126,0,0,1,2.73,1.612l-3.224.338c-.026-.78-.026-.962-.026-1.4a9.658,9.658,0,0,1,.13-2.106H28.47a12.5,12.5,0,0,1,.182,2.444c.052,1.2.052,1.2.052,1.378l-1.326.13a17.5,17.5,0,0,1-1.82.13,3.528,3.528,0,0,1-.468-.026l.286,2.912A20.977,20.977,0,0,1,27.56,20l1.274-.13c.026.364.026.364.1,1.352l-1.144.13c-.754.078-1.326.13-1.768.13a.836.836,0,0,1-.208-.026l.312,2.782a15.846,15.846,0,0,1,1.976-.312l1.014-.13c.078.624.078.65.156,1.352l-1.664.208a15.776,15.776,0,0,1-2.288.156l.26,2.964a22.444,22.444,0,0,1,2.366-.39l1.768-.208a15.17,15.17,0,0,0,.988,3.406,27.618,27.618,0,0,1-5.226,2.184l-.13-2.99c-1.248.468-1.378.52-2.6.936V28.344h.468a9,9,0,0,1,1.586.078V25.3a5.936,5.936,0,0,1-1.586.13H22.75V22.624a19.655,19.655,0,0,1,1.976.078,19.309,19.309,0,0,1-.078-2.626V16.41c0-1.118.026-1.742.1-2.626a18.224,18.224,0,0,1-2.418.1h-3.77a21.2,21.2,0,0,1-2.418-.1c.052,1.066.078,1.56.078,2.626v3.666c0,1.092-.026,1.664-.078,2.652a18.758,18.758,0,0,1,2.158-.1h1.43ZM19.266,16.9h2.522v2.808H19.266Zm32.058,17.16a11.946,11.946,0,0,1,1.638,2.366,13.617,13.617,0,0,0,4.68-4.68c-.026.832-.026.988-.026,1.768v1.326a12.549,12.549,0,0,1-.156,2.366h3.276a15.681,15.681,0,0,1-.156-2.418V33.466c0-.7,0-.936-.052-1.794a18.08,18.08,0,0,0,4.914,4.81,15.563,15.563,0,0,1,1.69-3.2,12.44,12.44,0,0,1-5.226-4.29h2.262a15.554,15.554,0,0,1,2.5.13v-3.25a14.568,14.568,0,0,1-2.652.156H60.554V24.652h2.834a22.608,22.608,0,0,1,2.522.1,21.813,21.813,0,0,1-.1-2.5V16.15a19.872,19.872,0,0,1,.1-2.5,21.519,21.519,0,0,1-2.184.078H54.86c-1.118,0-1.768-.026-2.418-.078a17.974,17.974,0,0,1,.1,2.418v6.292a19.322,19.322,0,0,1-.1,2.392,18.927,18.927,0,0,1,2.34-.1h2.834V26.03H54.522a14.213,14.213,0,0,1-2.678-.156v3.25a15.554,15.554,0,0,1,2.5-.13h1.95a12.866,12.866,0,0,1-4.966,4.446V30.58a16.3,16.3,0,0,1,.052-1.82,13.352,13.352,0,0,1-1.664.078H45.266a12.57,12.57,0,0,1-1.976-.078,15.385,15.385,0,0,1,.1,1.976v4c0,.806-.052,1.742-.13,2.522H46.41V36.118h2.028v.78H51.4c-.052-.6-.052-.6-.078-1.69ZM57.642,16.41v1.56H55.458V16.41Zm2.886,0h2.366v1.56H60.528Zm-2.886,4.056v1.612H55.458V20.466Zm2.886,0H62.92v1.612H60.528Zm-14.2,10.868h2.132V33.44H46.332ZM43.368,16.462c.65-.052,1.222-.078,2.21-.078h3.51c1.014,0,1.482.026,2.21.078V13.68a15.946,15.946,0,0,1-2.21.1h-3.51a15.708,15.708,0,0,1-2.21-.1Zm-.832,3.952a15.713,15.713,0,0,1,2.106-.1h4.992a12.768,12.768,0,0,1,2,.078V17.346a14.3,14.3,0,0,1-2.106.1H44.642a11.592,11.592,0,0,1-2.106-.13Zm.858,3.666A8.691,8.691,0,0,1,44.98,24h4.706a11.9,11.9,0,0,1,1.534.078V21.4a7.641,7.641,0,0,1-1.534.078H44.98a8.843,8.843,0,0,1-1.586-.078Zm0,3.692a12.349,12.349,0,0,1,1.56-.078h4.68a11.7,11.7,0,0,1,1.586.078V25.094a7.939,7.939,0,0,1-1.56.078H44.98a8.843,8.843,0,0,1-1.586-.078ZM75.14,31.386a7.229,7.229,0,0,1-1.17-1.326c.078-.936.1-1.352.13-1.9a4.342,4.342,0,0,1,.052-.858l-2.912-.416c.026.312.052.494.052.7a18.068,18.068,0,0,1-.338,3.51,10.119,10.119,0,0,1-1.56,3.822,9.287,9.287,0,0,1,2.47,2.184,13.5,13.5,0,0,0,1.56-3.848A8.63,8.63,0,0,0,77.87,36.17c1.742.468,4.342.65,9.1.65,1.508,0,5.876-.078,6.63-.13a12.64,12.64,0,0,1,.884-3.406c-.6.052-.806.078-1.326.13a10.688,10.688,0,0,1,1.222-1.586A10.84,10.84,0,0,1,90.714,29.9H90.9c1.014,0,1.482.026,2.106.078a23.231,23.231,0,0,1-.1-2.444V20.076c0-.962.026-1.56.078-2.132a20.443,20.443,0,0,1-2.106.078h-2c.234-.494.442-.988.6-1.4h1.95a23.921,23.921,0,0,1,2.522.13v-2.99a17.729,17.729,0,0,1-2.86.156H84.734a21.536,21.536,0,0,1-2.86-.13v2.938a25.342,25.342,0,0,1,2.548-.1h1.9a14.651,14.651,0,0,1-.572,1.4H84.76a14.753,14.753,0,0,1-2.132-.078c.052.676.078,1.248.078,2.106V27.9c0,.806-.026,1.482-.078,2.08A16.618,16.618,0,0,1,84.4,29.9a9.182,9.182,0,0,1-3.718,2.21,10.857,10.857,0,0,1,1.4,1.508,16.475,16.475,0,0,1-3.874-.52V30.71h1.2a15.226,15.226,0,0,1,2.106.1V27.876c-.624.052-1.222.078-2.08.078H78.208V26.212h1.43a18.079,18.079,0,0,1,2.366.1V23.274a11.49,11.49,0,0,1-2.054.13H72.41a14.427,14.427,0,0,1-2.47-.13v3.042a18.883,18.883,0,0,1,2.47-.1h2.73ZM85.332,29.9H89.57l-1.638,1.144A12.633,12.633,0,0,0,91.1,33.57c-2.106.078-3.978.13-5.33.13h-1.56a11.506,11.506,0,0,0,2.99-2.626Zm.364-9.568h4.212v.988H85.7Zm0,3.12h4.212v.988H85.7Zm0,3.068h4.212v1.014H85.7ZM71.136,20.44c0,1.2-.026,1.508-.078,2.21.676-.052,1.352-.078,2.236-.078H78.91c.858,0,1.534.026,2.236.078a20.822,20.822,0,0,1-.078-2.184v-4.5c0-1.17.026-1.56.078-2.21a21.485,21.485,0,0,1-2.288.078H73.294a21.573,21.573,0,0,1-2.262-.078,17.189,17.189,0,0,1,.1,2.21Zm3.042-4.264h3.9v1.04h-3.9Zm0,3.12h3.9v1.092h-3.9Z" transform="translate(485 2823)" fill="#583fff"></path></g></g><g id="&#x30B0;&#x30EB;&#x30FC;&#x30D7;_9019" data-name="&#x30B0;&#x30EB;&#x30FC;&#x30D7; 9019"><g id="&#x30B0;&#x30EB;&#x30FC;&#x30D7;_9011" data-name="&#x30B0;&#x30EB;&#x30FC;&#x30D7; 9011" transform="translate(3 9)"><g id="&#x30B0;&#x30EB;&#x30FC;&#x30D7;_9007" data-name="&#x30B0;&#x30EB;&#x30FC;&#x30D7; 9007" transform="translate(-43.5 119)"><g id="&#x30B0;&#x30EB;&#x30FC;&#x30D7;_9006" data-name="&#x30B0;&#x30EB;&#x30FC;&#x30D7; 9006"><line id="&#x7DDA;_46" data-name="&#x7DDA; 46" x2="241" transform="translate(407.5 3031.5)" fill="none" stroke="#c6c6c6" stroke-width="3"></line><g id="&#x30B0;&#x30EB;&#x30FC;&#x30D7;_9005" data-name="&#x30B0;&#x30EB;&#x30FC;&#x30D7; 9005"><path id="&#x9577;&#x65B9;&#x5F62;_4565" data-name="&#x9577;&#x65B9;&#x5F62; 4565" d="M5,0H55a5,5,0,0,1,5,5V38a0,0,0,0,1,0,0H0a0,0,0,0,1,0,0V5A5,5,0,0,1,5,0Z" transform="translate(445 2992)" fill="#c6c6c6"></path><path id="&#x9577;&#x65B9;&#x5F62;_4566" data-name="&#x9577;&#x65B9;&#x5F62; 4566" d="M5,0H55a5,5,0,0,1,5,5V171a0,0,0,0,1,0,0H0a0,0,0,0,1,0,0V5A5,5,0,0,1,5,0Z" transform="translate(556 2859)" fill="url(#linear-gradient)"></path><path id="down3" d="M8.351,106.435c.1,0,10.6-.1,21.274-8.342,13.807-10.67,21.435-30.3,22.179-56.929H34.459a4.35,4.35,0,0,1-3.076-7.428l30.46-30.46a4.346,4.346,0,0,1,6.153,0l30.46,30.46a4.35,4.35,0,0,1-3.076,7.428H77.9c-2.337,71.863-62.568,73.974-69.552,73.974a4.351,4.351,0,0,1,0-8.7Z" transform="translate(447.816 2834.043)" fill="url(#linear-gradient-2)"></path><path id="&#x30D1;&#x30B9;_13555" data-name="&#x30D1;&#x30B9; 13555" d="M-2.21-13.14H2.45a22.635,22.635,0,0,1,3,.16v-3a20.2,20.2,0,0,1-3.04.14H-2.83c-1.1,0-1.54-.02-2.26-.08-.02,1.22-.02,1.36-.08,2.12l-.46,5.16c-.08.82-.12,1.14-.28,2.06l3.12.3a2.227,2.227,0,0,1,.56-.88A3.367,3.367,0,0,1,.03-7.94,2.761,2.761,0,0,1,2.97-5,2.851,2.851,0,0,1-.09-2a2.786,2.786,0,0,1-2.28-.94,2.78,2.78,0,0,1-.56-1.12l-3.36.6a6.129,6.129,0,0,0,1.4,2.5A6.453,6.453,0,0,0,.01.82c3.9,0,6.3-2.24,6.3-5.9A5.187,5.187,0,0,0,4.85-8.96,5.582,5.582,0,0,0,.79-10.52,5.273,5.273,0,0,0-2.57-9.46c.02-.22.08-.66.1-.82Z" transform="translate(475 2983)" fill="#333"></path><path id="&#x30D1;&#x30B9;_13553" data-name="&#x30D1;&#x30B9; 13553" d="M-17.53-3.72a7.433,7.433,0,0,0,.34,1.06A5.415,5.415,0,0,0-15.13-.08a9.065,9.065,0,0,0,4.66,1.12A10.79,10.79,0,0,0-6.31.26a5.01,5.01,0,0,0,1.88-1.5,4.461,4.461,0,0,0,.8-2.66A3.939,3.939,0,0,0-4.95-6.86,4.5,4.5,0,0,0-7.53-7.92c2.3-.54,3.44-1.86,3.44-3.98a3.874,3.874,0,0,0-1.12-2.84,7.278,7.278,0,0,0-5.12-1.7,7.149,7.149,0,0,0-5.5,2,5.747,5.747,0,0,0-1.34,2.54l4.32.62a2.152,2.152,0,0,1,2.44-1.84c1.32,0,2.08.62,2.08,1.7,0,1.28-.94,1.92-2.84,1.92a17.569,17.569,0,0,1-2.12-.12v3.44c.78-.08,1.68-.12,2.46-.12a5.757,5.757,0,0,1,1.86.26A1.735,1.735,0,0,1-7.89-4.32c0,1.22-.98,2-2.54,2a3.108,3.108,0,0,1-2.3-.86,2.121,2.121,0,0,1-.56-1.28ZM4.77-12.4a8.167,8.167,0,0,1,1.32-.08,15.922,15.922,0,0,1,.66,2.34H5.67a8.887,8.887,0,0,1-1.52-.08v2.96a12.609,12.609,0,0,1,1.64-.08h9.8a16.78,16.78,0,0,1,2.1.08v-2.98a16.6,16.6,0,0,1-2.1.1h-.98c.34-.9.52-1.44.78-2.34a12.226,12.226,0,0,1,1.72.08v-3.02a15.972,15.972,0,0,1-2.42.12H12.33v-.42a9.472,9.472,0,0,1,.08-1.26H9.07a9.974,9.974,0,0,1,.08,1.28v.4h-2a20.234,20.234,0,0,1-2.24-.08,10.1,10.1,0,0,1,.34-1.02l-3.08-.86a11.8,11.8,0,0,1-.64,2.42,13.924,13.924,0,0,1-2.98,5.1A13.4,13.4,0,0,1-.43-6.1,9.378,9.378,0,0,0,.59-7.34C.55-6.58.55-6.4.55-5.3V-.54A18.517,18.517,0,0,1,.43,1.82H3.71A20.146,20.146,0,0,1,3.59-.46V-12a21.794,21.794,0,0,0,1.18-2.92Zm5.08,2.26a17.257,17.257,0,0,0-.62-2.34h2.94a15.726,15.726,0,0,1-.64,2.34ZM8.21.86h5v.88h3.26A11.6,11.6,0,0,1,16.35-.3V-4.78a11.623,11.623,0,0,1,.08-1.66,8.155,8.155,0,0,1-1.46.06H6.71c-.72,0-1.08-.02-1.62-.06a12.744,12.744,0,0,1,.08,1.6V-.36a14.785,14.785,0,0,1-.1,2.1H8.21Zm0-4.48h5.02v1.7H8.21Z" transform="translate(445 2893)" fill="#583ffe"></path><path id="&#x30D1;&#x30B9;_13554" data-name="&#x30D1;&#x30B9; 13554" d="M-12.36-12.88a17.488,17.488,0,0,1,2.24-.14h.88V-2.38A22.3,22.3,0,0,1-9.4.42h3.66a19.953,19.953,0,0,1-.16-2.8v-10.3a27.67,27.67,0,0,1,.16-3.24A22.361,22.361,0,0,1-8-15.84h-2.18a13.108,13.108,0,0,1-2.18-.12ZM5.7-13.14h4.66a22.635,22.635,0,0,1,3,.16v-3a20.2,20.2,0,0,1-3.04.14H5.08c-1.1,0-1.54-.02-2.26-.08-.02,1.22-.02,1.36-.08,2.12L2.28-8.64C2.2-7.82,2.16-7.5,2-6.58l3.12.3a2.227,2.227,0,0,1,.56-.88,3.367,3.367,0,0,1,2.26-.78A2.761,2.761,0,0,1,10.88-5,2.851,2.851,0,0,1,7.82-2a2.786,2.786,0,0,1-2.28-.94,2.78,2.78,0,0,1-.56-1.12l-3.36.6a6.129,6.129,0,0,0,1.4,2.5A6.453,6.453,0,0,0,7.92.82c3.9,0,6.3-2.24,6.3-5.9a5.187,5.187,0,0,0-1.46-3.88A5.582,5.582,0,0,0,8.7-10.52,5.273,5.273,0,0,0,5.34-9.46c.02-.22.08-.66.1-.82Z" transform="translate(586 2844.043)" fill="#333"></path></g></g><path id="&#x30D1;&#x30B9;_13556" data-name="&#x30D1;&#x30B9; 13556" d="M-17.357-7.769v3.485a12.982,12.982,0,0,1-.085,1.8h2.278a13.6,13.6,0,0,1-.085-1.734V-8.432l1.683-.527a14.984,14.984,0,0,1-.187,2.992c-.085.374-.17.476-.442.476a4.855,4.855,0,0,1-.867-.1,6.439,6.439,0,0,1,.425,2.074,5.589,5.589,0,0,0,.629.034c1.428,0,2.006-.374,2.21-1.411a45.01,45.01,0,0,0,.323-5.865c0-.544,0-.595.017-1a9.526,9.526,0,0,1-1.394.51l-2.4.731v-2.04a10.258,10.258,0,0,1,.1-1.7h-2.312a14.162,14.162,0,0,1,.1,1.768v2.618l-1.411.425V-10.71a11.9,11.9,0,0,1,.085-1.751H-21a13.374,13.374,0,0,1,.085,1.836v1.836a10.522,10.522,0,0,1-1.377.289l.1,2.3a8.26,8.26,0,0,1,1.275-.459v5.95c0,1.428.816,1.785,4.1,1.785,3.077,0,4.318-.17,4.964-.646.527-.408.765-1.224.935-3.128a10.311,10.311,0,0,1-2.21-.6c-.068,1.411-.153,1.751-.459,1.972-.323.255-.986.323-2.822.323a9.56,9.56,0,0,1-1.989-.119c-.289-.085-.374-.17-.374-.459V-7.327ZM-24.82-.6a17.137,17.137,0,0,1-.1,2.074h2.363a19.465,19.465,0,0,1-.1-2.074v-9.639a16.511,16.511,0,0,0,1.122-2.686c.119-.323.17-.459.34-.969l-2.278-.68a8.913,8.913,0,0,1-.629,2.244A13.033,13.033,0,0,1-27-7.8a13.38,13.38,0,0,1,.969,2.5,11.313,11.313,0,0,0,1.241-1.649C-24.8-5.916-24.82-5.3-24.82-5.168ZM-3.213-4.879A8.681,8.681,0,0,0-1.088-3.06,10.634,10.634,0,0,1,0-5.083,9.146,9.146,0,0,1-2.7-7.208,13.735,13.735,0,0,0-1.088-10.03,8.04,8.04,0,0,1-.7-10.8l-.952-1.02a6.342,6.342,0,0,1-.986.051H-3.23V-13.09a7.047,7.047,0,0,1,.1-1.309H-5.491a7.957,7.957,0,0,1,.1,1.292v1.343H-6.2a9.618,9.618,0,0,1-1.326-.068v2.193a11.53,11.53,0,0,1,1.462-.068H-3.5a8.9,8.9,0,0,1-1.785,2.5,11.742,11.742,0,0,1-2.8,2.125,8.322,8.322,0,0,1,.969,2.091A11.239,11.239,0,0,0-5.406-4.25V-.34a12.664,12.664,0,0,1-.1,1.819h2.38A12.161,12.161,0,0,1-3.213-.289Zm7.361-2.8H5.712c.595,0,1.1.034,1.683.085v-2.3a11.168,11.168,0,0,1-1.683.085H4.148v-2.669a12.891,12.891,0,0,1,.1-1.887h-2.5a16.418,16.418,0,0,1,.1,1.887v2.669H.765A14.783,14.783,0,0,1-.9-9.894v2.3C-.34-7.65.2-7.684.765-7.684H1.853v6.409H.2A16.843,16.843,0,0,1-1.768-1.36V.969A18.024,18.024,0,0,1,.17.867h5.7a19.482,19.482,0,0,1,1.989.1V-1.36a16.585,16.585,0,0,1-2.006.085h-1.7ZM19.941-5.712V-.867c0,.323-.1.391-.493.391a9.2,9.2,0,0,1-1.479-.136,5.866,5.866,0,0,1,.51,2.006c.731.034.969.051,1.156.051,1.7,0,2.346-.374,2.346-1.394V-1.836c0-.255-.017-.544-.051-1.139A8.692,8.692,0,0,0,25.432,1,8.8,8.8,0,0,1,26.741-1.02a8.471,8.471,0,0,1-2.448-1.6,14.446,14.446,0,0,0,1.8-1.955L24.48-5.678a8.226,8.226,0,0,1-1.411,1.7,6.2,6.2,0,0,1-.935-1.734h2.4c.578,0,1.224.034,1.853.085V-7.548c-.544.051-1.156.085-1.887.085H22v-.765h1.887a14.8,14.8,0,0,1,1.785.068V-9.911a15.928,15.928,0,0,1-1.785.068H22v-.731h2.4a12.662,12.662,0,0,1,1.734.085v-1.9a13.2,13.2,0,0,1-1.768.085h-.493a14.389,14.389,0,0,0,.9-1.6l-2.193-.527a8.215,8.215,0,0,1-.952,2.125H20.349a12.715,12.715,0,0,0-1.088-2.142l-1.955.629a6.407,6.407,0,0,1,.9,1.513,11.4,11.4,0,0,1-1.632-.085v1.887a14.676,14.676,0,0,1,1.683-.068h1.683v.731H18.479a13.032,13.032,0,0,1-1.615-.068V-8.16a10.367,10.367,0,0,1,1.649-.068h1.428v.765H18.122a13.679,13.679,0,0,1-1.836-.085v.272a6.692,6.692,0,0,1-1.343-2.142H15.3a5.3,5.3,0,0,1,.918.068v-2.108a4.7,4.7,0,0,1-.918.068h-.408v-1.241a12.187,12.187,0,0,1,.085-1.751H12.733a11.124,11.124,0,0,1,.1,1.768v1.224H12a4.486,4.486,0,0,1-1.1-.085v2.142A4.745,4.745,0,0,1,12-9.418h.629A12.013,12.013,0,0,1,12-7.361a9.979,9.979,0,0,1-1.547,2.72,10.665,10.665,0,0,1,.952,2.482A13.311,13.311,0,0,0,12.92-5.576c-.017.374-.017.391-.034.7-.017.544-.017.578-.034.8V-.629c0,.85-.051,1.581-.1,2.142h2.244a15.117,15.117,0,0,1-.1-2.142V-4.607c0-.272-.017-.986-.051-2.108a7.836,7.836,0,0,0,.765,1.6,8.538,8.538,0,0,1,.68-1.683v1.173a14.793,14.793,0,0,1,1.581-.085ZM16.252.578a8.444,8.444,0,0,1,.7-.51c.612-.442.612-.442,1.564-1.088a9.731,9.731,0,0,0,1.02-.782l-.51-.969.527-.374a12.786,12.786,0,0,0-1.887-2.448L16.2-4.539A10.654,10.654,0,0,1,17.6-2.7,9.524,9.524,0,0,1,15.368-1.53Z" transform="translate(474 3063)" fill="#333"></path></g><g id="&#x30B0;&#x30EB;&#x30FC;&#x30D7;_6482" data-name="&#x30B0;&#x30EB;&#x30FC;&#x30D7; 6482" transform="translate(-7613 2408.931)"><g id="&#x30B0;&#x30EB;&#x30FC;&#x30D7;_6475" data-name="&#x30B0;&#x30EB;&#x30FC;&#x30D7; 6475" transform="translate(8123 755.74)"><g id="&#x30B0;&#x30EB;&#x30FC;&#x30D7;_6474" data-name="&#x30B0;&#x30EB;&#x30FC;&#x30D7; 6474"><g id="&#x30B0;&#x30EB;&#x30FC;&#x30D7;_68" data-name="&#x30B0;&#x30EB;&#x30FC;&#x30D7; 68"><g id="&#x30B0;&#x30EB;&#x30FC;&#x30D7;_65" data-name="&#x30B0;&#x30EB;&#x30FC;&#x30D7; 65" transform="translate(0 2.731)"><g id="&#x30B0;&#x30EB;&#x30FC;&#x30D7;_6320" data-name="&#x30B0;&#x30EB;&#x30FC;&#x30D7; 6320" transform="translate(48.358 3.213)"><path id="&#x30D1;&#x30B9;_685" data-name="&#x30D1;&#x30B9; 685" d="M0,0V7.17" transform="translate(0.832 0)" fill="rgba(0,0,0,0)"></path><path id="&#x30D1;&#x30B9;_685_-_&#x30A2;&#x30A6;&#x30C8;&#x30E9;&#x30A4;&#x30F3;" data-name="&#x30D1;&#x30B9; 685 - &#x30A2;&#x30A6;&#x30C8;&#x30E9;&#x30A4;&#x30F3;" d="M-15.837,7.17H-17.5V0h1.663Z" transform="translate(17.5 0)" fill="#333"></path><path id="&#x7DDA;_38" data-name="&#x7DDA; 38" d="M1.663,5.085H0V0H1.663Z" transform="translate(5.171 1.476) rotate(90)" fill="#333"></path></g><path id="&#x30D1;&#x30B9;_47" data-name="&#x30D1;&#x30B9; 47" d="M179.293-109.806l-1.822,5.6-2.467-5.6h-1.916l2.467,5.6h1.915l-1.58,4.857h1.916l3.405-10.461Z" transform="translate(-165.156 111.27)" fill="#333"></path><g id="&#x30B0;&#x30EB;&#x30FC;&#x30D7;_437" data-name="&#x30B0;&#x30EB;&#x30FC;&#x30D7; 437"><path id="&#x7DDA;_37" data-name="&#x7DDA; 37" d="M-15.837,10.216H-17.5V0h1.663Z" transform="translate(17.5)" fill="#333"></path><path id="&#x9577;&#x65B9;&#x5F62;_222" data-name="&#x9577;&#x65B9;&#x5F62; 222" d="M1.663,1.663V4.7H4.7V1.663H1.663M0,0H6.367V6.367H0Z" transform="translate(0 3.873)" fill="#333"></path></g><g id="&#x30B0;&#x30EB;&#x30FC;&#x30D7;_438" data-name="&#x30B0;&#x30EB;&#x30FC;&#x30D7; 438" transform="translate(40.66 3.07)"><path id="&#x7DDA;_38-2" data-name="&#x7DDA; 38" d="M-15.837,7.17H-17.5V0h1.663Z" transform="translate(17.5 0)" fill="#333"></path><path id="&#x30D1;&#x30B9;_11923" data-name="&#x30D1;&#x30B9; 11923" transform="translate(5.694 0.795) rotate(180)" fill="#333"></path></g></g><path id="&#x30D1;&#x30B9;_44" data-name="&#x30D1;&#x30B9; 44" d="M16.448,22.66v-1.7h-6.1v1.7Z" transform="translate(52.753 -6.242)" fill="#f6c44c"></path><g id="&#x30B0;&#x30EB;&#x30FC;&#x30D7;_69" data-name="&#x30B0;&#x30EB;&#x30FC;&#x30D7; 69" transform="translate(18.236)"><path id="&#x30D1;&#x30B9;_46" data-name="&#x30D1;&#x30B9; 46" d="M2.449-151.326H4.112v-8.012H7.281V-161H-.69v1.662H2.449Z" transform="translate(6.653 164.359)" fill="#333"></path><path id="&#x9577;&#x65B9;&#x5F62;_22" data-name="&#x9577;&#x65B9;&#x5F62; 22" d="M1.425,1.426V14.993H41.588V1.426H1.425M0,0H43.013V16.418H0Z" transform="translate(0)" fill="#333"></path></g></g></g><path id="&#x30D1;&#x30B9;_11924" data-name="&#x30D1;&#x30B9; 11924" d="M8.673-93.483h1.762v.141a2.91,2.91,0,0,1-.113.851,1.807,1.807,0,0,1-.373.641,1.931,1.931,0,0,1-1.51.668,2.076,2.076,0,0,1-1.532-.646,2.142,2.142,0,0,1-.638-1.557,2.137,2.137,0,0,1,.649-1.574A2.15,2.15,0,0,1,8.5-95.609a2.161,2.161,0,0,1,.933.2,2.692,2.692,0,0,1,.815.663l-.458.439A1.555,1.555,0,0,0,8.507-95a1.527,1.527,0,0,0-1.135.467,1.558,1.558,0,0,0-.458,1.149,1.511,1.511,0,0,0,.511,1.173,1.524,1.524,0,0,0,1.035.428,1.285,1.285,0,0,0,.853-.32,1.14,1.14,0,0,0,.422-.773H8.673Zm7.185-1.439H14.148V-93.9h1.659v.6H14.148v1.425h1.709v.6H13.5v-4.263h2.352Zm3.107,3.658v-4.553l3.109,3.253v-2.963h.643V-91l-3.109-3.244v2.985Zm9.388-3.658H26.643V-93.9H28.3v.6H26.643v1.425h1.709v.6H26v-4.263h2.352ZM32.9-93.08l1.32,1.817h-.787l-1.218-1.745H32.1v1.745h-.643v-4.263h.754a1.883,1.883,0,0,1,1.22.318,1.167,1.167,0,0,1,.414.933,1.211,1.211,0,0,1-.26.779,1.157,1.157,0,0,1-.685.417Zm-.8-.489h.2q.914,0,.914-.7,0-.654-.889-.654H32.1ZM39.63-92.3H37.8l-.475,1.035h-.693l2.109-4.531,2.035,4.531h-.7Zm-.262-.6-.632-1.45-.663,1.45Zm5.147-2.018v3.658h-.643v-3.658h-.98v-.6h2.6v.6Zm4.457-.6v4.263h-.643v-4.263Zm3.5,0,1.179,2.954,1.2-2.954h.7l-1.913,4.583-1.869-4.583Zm8.223.6H58.987V-93.9h1.659v.6H58.987v1.425H60.7v.6H58.344v-4.263H60.7ZM70.314-92.3H68.489l-.475,1.035h-.693l2.109-4.531,2.035,4.531h-.7Zm-.262-.6-.632-1.45-.663,1.45ZM74.9-95.526v4.263H74.26v-4.263Z" transform="translate(-6.207 115.272)" fill="#333"></path></g><g id="&#x30B0;&#x30EB;&#x30FC;&#x30D7;_6478" data-name="&#x30B0;&#x30EB;&#x30FC;&#x30D7; 6478" transform="translate(8171.326 759.316)"><rect id="&#x9577;&#x65B9;&#x5F62;_3359" data-name="&#x9577;&#x65B9;&#x5F62; 3359" width="1.711" height="9.551" fill="#333"></rect><rect id="&#x9577;&#x65B9;&#x5F62;_3360" data-name="&#x9577;&#x65B9;&#x5F62; 3360" width="1.711" height="5.804" transform="translate(5.923 3.825) rotate(90)" fill="#333"></rect><rect id="&#x9577;&#x65B9;&#x5F62;_3361" data-name="&#x9577;&#x65B9;&#x5F62; 3361" width="1.711" height="5.726" transform="translate(4.212 3.825)" fill="#333"></rect></g><g id="&#x30B0;&#x30EB;&#x30FC;&#x30D7;_6479" data-name="&#x30B0;&#x30EB;&#x30FC;&#x30D7; 6479" transform="translate(8163.604 761.526)"><rect id="&#x9577;&#x65B9;&#x5F62;_3362" data-name="&#x9577;&#x65B9;&#x5F62; 3362" width="1.711" height="5.804" transform="translate(5.804) rotate(90)" fill="#333"></rect><rect id="&#x9577;&#x65B9;&#x5F62;_3363" data-name="&#x9577;&#x65B9;&#x5F62; 3363" width="1.711" height="5.804" transform="translate(1.711 7.226) rotate(180)" fill="#333"></rect><rect id="&#x9577;&#x65B9;&#x5F62;_3364" data-name="&#x9577;&#x65B9;&#x5F62; 3364" width="1.711" height="5.804" transform="translate(0 7.226) rotate(-90)" fill="#333"></rect></g><g id="&#x30B0;&#x30EB;&#x30FC;&#x30D7;_6481" data-name="&#x30B0;&#x30EB;&#x30FC;&#x30D7; 6481" transform="translate(8155.906 761.526)"><rect id="&#x9577;&#x65B9;&#x5F62;_3366" data-name="&#x9577;&#x65B9;&#x5F62; 3366" width="1.711" height="7.226" transform="translate(1.711 7.226) rotate(180)" fill="#333"></rect><g id="&#x30B0;&#x30EB;&#x30FC;&#x30D7;_6480" data-name="&#x30B0;&#x30EB;&#x30FC;&#x30D7; 6480" transform="translate(0)"><rect id="&#x9577;&#x65B9;&#x5F62;_3367" data-name="&#x9577;&#x65B9;&#x5F62; 3367" width="1.711" height="5.943" transform="translate(5.943) rotate(90)" fill="#333"></rect><rect id="&#x9577;&#x65B9;&#x5F62;_3368" data-name="&#x9577;&#x65B9;&#x5F62; 3368" width="1.711" height="5.943" transform="translate(5.943 2.613) rotate(90)" fill="#333"></rect><rect id="&#x9577;&#x65B9;&#x5F62;_3370" data-name="&#x9577;&#x65B9;&#x5F62; 3370" width="1.711" height="5.943" transform="translate(5.943 5.515) rotate(90)" fill="#333"></rect><rect id="&#x9577;&#x65B9;&#x5F62;_3369" data-name="&#x9577;&#x65B9;&#x5F62; 3369" width="1.711" height="4.324" transform="translate(5.943 4.324) rotate(180)" fill="#333"></rect></g></g></g></g><path id="&#x30D1;&#x30B9;_13552" data-name="&#x30D1;&#x30B9; 13552" d="M-3.81-4.15-7.35-7.7l-.33.33L-4.13-3.8-7.68-.25l.33.33,3.54-3.52L-.26.08.06-.25-3.49-3.8.06-7.37-.26-7.7Zm.01-3.31a.768.768,0,0,0-.77.76.777.777,0,0,0,.77.77.762.762,0,0,0,.76-.77A.76.76,0,0,0-3.8-7.46ZM-6.67-4.57a.762.762,0,0,0-.77.76.777.777,0,0,0,.77.77.762.762,0,0,0,.76-.77A.76.76,0,0,0-6.67-4.57Zm5.72.01a.76.76,0,0,0-.76.76.76.76,0,0,0,.76.76A.76.76,0,0,0-.19-3.8.76.76,0,0,0-.95-4.56Zm-2.86,2.9-.02.02c-.01,0-.01,0-.02-.01a.037.037,0,0,0-.03-.01.806.806,0,0,0-.7.77.8.8,0,0,0,.77.77.775.775,0,0,0,.76-.77A.762.762,0,0,0-3.81-1.66ZM6.17.12a8.383,8.383,0,0,1-.08-1.3V-6.24a15.068,15.068,0,0,1,.08-1.65,7.273,7.273,0,0,1-1.02.05H4.23a5.557,5.557,0,0,1-1-.06v1.27a8.893,8.893,0,0,1,1.03-.06h.48v5.51A8.3,8.3,0,0,1,4.66.12Z" transform="translate(471.5 3192)" fill="#333"></path><path id="&#x30D1;&#x30B9;_13551" data-name="&#x30D1;&#x30B9; 13551" d="M-3.81-4.15-7.35-7.7l-.33.33L-4.13-3.8-7.68-.25l.33.33,3.54-3.52L-.26.08.06-.25-3.49-3.8.06-7.37-.26-7.7Zm.01-3.31a.768.768,0,0,0-.77.76.777.777,0,0,0,.77.77.762.762,0,0,0,.76-.77A.76.76,0,0,0-3.8-7.46ZM-6.67-4.57a.762.762,0,0,0-.77.76.777.777,0,0,0,.77.77.762.762,0,0,0,.76-.77A.76.76,0,0,0-6.67-4.57Zm5.72.01a.76.76,0,0,0-.76.76.76.76,0,0,0,.76.76A.76.76,0,0,0-.19-3.8.76.76,0,0,0-.95-4.56Zm-2.86,2.9-.02.02c-.01,0-.01,0-.02-.01a.037.037,0,0,0-.03-.01.806.806,0,0,0-.7.77.8.8,0,0,0,.77.77.775.775,0,0,0,.76-.77A.762.762,0,0,0-3.81-1.66ZM6.73.12c.64,0,1.04.02,1.51.06V-1.14a10.507,10.507,0,0,1-1.46.08H3.98a2.411,2.411,0,0,1,.57-.9,8.748,8.748,0,0,1,1.19-1A12.519,12.519,0,0,0,7.42-4.19a2.03,2.03,0,0,0,.71-1.6C8.13-7.16,7.05-8,5.3-8a2.908,2.908,0,0,0-2.29.89,3,3,0,0,0-.69,1.6l1.43.17a1.9,1.9,0,0,1,.31-.92,1.413,1.413,0,0,1,1.27-.59c.85,0,1.38.42,1.38,1.1,0,.51-.28.84-1.2,1.47A13.771,13.771,0,0,0,3.86-3.07,4.935,4.935,0,0,0,2.49-1.11,5.11,5.11,0,0,0,2.23.17,9.216,9.216,0,0,1,3.52.12Z" transform="translate(594.5 3192)" fill="#333"></path></g></g></svg>