<svg xmlns="http://www.w3.org/2000/svg" xmlns:xlink="http://www.w3.org/1999/xlink" width="302.002" height="444.498" viewBox="0 0 302.002 444.498"><defs><linearGradient id="linear-gradient" x1="0.5" x2="0.5" y2="1" gradientUnits="objectBoundingBox"><stop offset="0" stop-color="#4f34ff"></stop><stop offset="1" stop-color="#a598ff"></stop></linearGradient></defs><g id="&#x30B0;&#x30EB;&#x30FC;&#x30D7;_9018" data-name="&#x30B0;&#x30EB;&#x30FC;&#x30D7; 9018" transform="translate(-811.498 -2772.999)"><g id="&#x30B0;&#x30EB;&#x30FC;&#x30D7;_9013" data-name="&#x30B0;&#x30EB;&#x30FC;&#x30D7; 9013"><g id="&#x30B0;&#x30EB;&#x30FC;&#x30D7;_9009" data-name="&#x30B0;&#x30EB;&#x30FC;&#x30D7; 9009" transform="translate(29.5 -1624.503)"><g id="&#x30B0;&#x30EB;&#x30FC;&#x30D7;_9004" data-name="&#x30B0;&#x30EB;&#x30FC;&#x30D7; 9004" transform="translate(521 10)"><circle id="&#x6955;&#x5186;&#x5F62;_75" data-name="&#x6955;&#x5186;&#x5F62; 75" cx="135" cy="135" r="135" transform="translate(277 4562)" fill="url(#linear-gradient)"></circle><circle id="&#x6955;&#x5186;&#x5F62;_76" data-name="&#x6955;&#x5186;&#x5F62; 76" cx="105.5" cy="105.5" r="105.5" transform="translate(307 4592)" fill="#fff"></circle><path id="&#x30D1;&#x30B9;_13540" data-name="&#x30D1;&#x30B9; 13540" d="M-71.068,1.553l-5.01-3.721L-65.268-16.9q-.879.117-1.494.176t-1,.059a12.716,12.716,0,0,1-9.492-4.189,13.966,13.966,0,0,1-3.984-10.02,14.534,14.534,0,0,1,4.424-10.664A14.549,14.549,0,0,1-66.146-46,15.006,15.006,0,0,1-55.395-41.6a13.8,13.8,0,0,1,4.57,10.313q0,5.273-4.453,11.4Zm-3.516-32.93a8.358,8.358,0,0,0,2.49,6.152,8.267,8.267,0,0,0,6.064,2.52,8.219,8.219,0,0,0,6.035-2.49,8.267,8.267,0,0,0,2.52-6.064,8.267,8.267,0,0,0-2.52-6.064,8.253,8.253,0,0,0-6.064-2.49,8.185,8.185,0,0,0-6.006,2.49A8.133,8.133,0,0,0-74.584-31.377Zm40.5,7.852a11.118,11.118,0,0,1-4.98-9.58,12.336,12.336,0,0,1,3.779-9.2A13.062,13.062,0,0,1-25.822-46,12.826,12.826,0,0,1-16.447-42.3a12.359,12.359,0,0,1,3.75,9.229,11.374,11.374,0,0,1-4.951,9.521,10.491,10.491,0,0,1,4.277,4.277,12.682,12.682,0,0,1,1.582,6.328,13.169,13.169,0,0,1-3.926,9.844A13.775,13.775,0,0,1-25.764.732,14.415,14.415,0,0,1-36.105-3.135a12.8,12.8,0,0,1-4.1-9.727Q-40.207-20.479-34.084-23.525Zm1.436-9.609a6.6,6.6,0,0,0,1.963,4.863,6.548,6.548,0,0,0,4.8,1.992,6.514,6.514,0,0,0,4.775-1.992,6.514,6.514,0,0,0,1.992-4.775,6.514,6.514,0,0,0-1.992-4.775,6.514,6.514,0,0,0-4.775-1.992,6.514,6.514,0,0,0-4.775,1.992A6.414,6.414,0,0,0-32.648-33.135ZM-33.5-13.1A7.508,7.508,0,0,0-31.33-7.705,7.212,7.212,0,0,0-26-5.479a7.226,7.226,0,0,0,5.3-2.2,7.323,7.323,0,0,0,2.2-5.332,7.26,7.26,0,0,0-2.2-5.332,7.226,7.226,0,0,0-5.3-2.2,7.289,7.289,0,0,0-5.3,2.2A7.158,7.158,0,0,0-33.5-13.1ZM.7-3.281A3.885,3.885,0,0,1,1.9-6.123a3.918,3.918,0,0,1,2.871-1.2,3.918,3.918,0,0,1,2.871,1.2,3.918,3.918,0,0,1,1.2,2.871,3.952,3.952,0,0,1-1.2,2.9A3.9,3.9,0,0,1,4.775.82a3.939,3.939,0,0,1-2.9-1.172A3.975,3.975,0,0,1,.7-3.281ZM48.586-38.848H34.641l-2.227,7.5q.5-.059.952-.088t.835-.029a14.234,14.234,0,0,1,10.811,4.453A15.7,15.7,0,0,1,49.26-15.674,15.649,15.649,0,0,1,44.455-3.9,16.738,16.738,0,0,1,32.355.732q-8.994,0-14.18-8.437l5.156-4.365a15.98,15.98,0,0,0,4.307,5.127,9.252,9.252,0,0,0,5.3,1.465A9.206,9.206,0,0,0,39.826-8.35a10.1,10.1,0,0,0,2.783-7.178,9.6,9.6,0,0,0-2.754-7.09,9.192,9.192,0,0,0-6.885-2.842,10.041,10.041,0,0,0-7.939,4.014H22.775l7.119-23.789H48.586Zm9.606,21.255a4.963,4.963,0,0,1,1.626-3.691,5.4,5.4,0,0,1,3.823-1.567,5.289,5.289,0,0,1,3.838,1.582,5.048,5.048,0,0,1,1.611,3.75,5.065,5.065,0,0,1-1.611,3.765A5.366,5.366,0,0,1,63.6-12.187a5.216,5.216,0,0,1-3.823-1.6A5.223,5.223,0,0,1,58.192-17.593Zm2.549.044a2.829,2.829,0,0,0,.85,2.08,2.812,2.812,0,0,0,2.065.85,2.778,2.778,0,0,0,2.036-.85,2.794,2.794,0,0,0,.85-2.051,2.778,2.778,0,0,0-.85-2.036,2.794,2.794,0,0,0-2.051-.85,2.794,2.794,0,0,0-2.051.85A2.744,2.744,0,0,0,60.741-17.549Zm15.747-5.464,1.6.908L65.136.366,63.524-.6ZM72.5-5.2A4.948,4.948,0,0,1,74.13-8.877a5.4,5.4,0,0,1,3.823-1.567,5.306,5.306,0,0,1,3.853,1.582,5.048,5.048,0,0,1,1.611,3.75,5.013,5.013,0,0,1-1.626,3.765A5.361,5.361,0,0,1,77.909.205a5.24,5.24,0,0,1-3.823-1.582A5.209,5.209,0,0,1,72.5-5.2Zm2.563.059a2.854,2.854,0,0,0,.835,2.08,2.812,2.812,0,0,0,2.065.85A2.746,2.746,0,0,0,80-3.062a2.794,2.794,0,0,0,.85-2.051A2.794,2.794,0,0,0,80-7.163a2.764,2.764,0,0,0-2.051-.85,2.778,2.778,0,0,0-2.036.85A2.761,2.761,0,0,0,75.067-5.142Z" transform="translate(413 4737)" fill="#583ffd"></path><path id="&#x30D1;&#x30B9;_13539" data-name="&#x30D1;&#x30B9; 13539" d="M-77.88-14.7a20.447,20.447,0,0,1-3.14-.14v3.06a23.449,23.449,0,0,1,3.1-.12h8.76a13.322,13.322,0,0,1-5.96,8.34,16.242,16.242,0,0,1-4.3,1.98A9.084,9.084,0,0,1-77.3,1.28a19.935,19.935,0,0,0,7.54-5.26,19.107,19.107,0,0,0,3.96-8.1l.08-.28h.08a2.211,2.211,0,0,0,2.2-2.22,2.215,2.215,0,0,0-2.22-2.22,2.208,2.208,0,0,0-2.2,2.06,7.28,7.28,0,0,1-.86.04Zm12.22-.86a.982.982,0,0,1,.98.98.982.982,0,0,1-.98.98.982.982,0,0,1-.98-.98A.982.982,0,0,1-65.66-15.56ZM-47.44-.84V.52h3.08a26.082,26.082,0,0,1-.1-2.92v-9.66c0-1.16.02-2.04.08-2.74-.82.06-1.32.08-3,.08h-9.34a24.75,24.75,0,0,1-2.88-.08,24.56,24.56,0,0,1,.08,2.64v9.88c0,1.2-.04,2.04-.1,2.82h3.08V-.84Zm0-2.7h-9.12v-8.48h9.12Zm22.76-10.1.9-.3a9.787,9.787,0,0,0-1.42-2.58l-1.72.56a10.317,10.317,0,0,1,1.16,2.1c-.3.02-.5.04-.72.04l-5.2.06c.22-.44.3-.6.48-1a8.362,8.362,0,0,1,.58-1.2l-3.22-.62a7.4,7.4,0,0,1-.96,2.54A15.629,15.629,0,0,1-40.04-8.1a7.377,7.377,0,0,1,2.38,2.04,19.916,19.916,0,0,0,4.62-5.08l5.68-.08C-29-6.18-32.12-3.02-37.52-.94a7.944,7.944,0,0,1,2.06,2.58A20.616,20.616,0,0,0-28.2-3.48a21.464,21.464,0,0,0,4.1-7.82,4.124,4.124,0,0,1,.5-1.26Zm.26-2.98A13.427,13.427,0,0,1-23.04-14l1.7-.64a9.744,9.744,0,0,0-1.42-2.54Zm8.24,3.6c.62-.06,1.42-.1,2.7-.1h6.66a18.706,18.706,0,0,1,2.68.1v-2.9a12.117,12.117,0,0,1-2.72.16h-6.56a15.652,15.652,0,0,1-2.76-.16ZM-17.86-8.1a25.56,25.56,0,0,1,2.98-.1h9.1A9.853,9.853,0,0,1-8.94-3.86a13.507,13.507,0,0,1-5.42,2.48A8.76,8.76,0,0,1-12.48,1.4,18.915,18.915,0,0,0-7.02-1.48,14.829,14.829,0,0,0-2.48-8.32a6.064,6.064,0,0,1,.56-1.26l-1.34-1.48a5.119,5.119,0,0,1-1.94.2h-9.64A17.823,17.823,0,0,1-17.86-11ZM7.58-16.3a20.1,20.1,0,0,1-.84,3.68A99.645,99.645,0,0,1,3.36-2.74c-.9.04-1.28.06-1.7.06a5.057,5.057,0,0,1-.54-.02L1.54.52A10.512,10.512,0,0,1,3.44.26a110.882,110.882,0,0,0,11.9-1.52,16.062,16.062,0,0,1,.84,2.36L19.1-.4a44.8,44.8,0,0,0-4.8-9.4L11.6-8.76a25.555,25.555,0,0,1,1.86,3.22c.42.82.62,1.22.82,1.66a69.731,69.731,0,0,1-7.64.9C7.88-6.02,9.16-9.8,10.48-14.2A7.811,7.811,0,0,1,11-15.66Zm21.94,1.16H24.5c-1.06,0-1.62-.02-2.3-.08a12.146,12.146,0,0,1,.08,1.6v1.78a12.21,12.21,0,0,1-.1,1.6h2.6V-12.8H37.3v2.56h2.58a9.361,9.361,0,0,1-.1-1.6v-1.78a11.578,11.578,0,0,1,.08-1.6c-.7.06-1.24.08-2.3.08H32.2v-.38a8.6,8.6,0,0,1,.1-1.4H29.42a9.451,9.451,0,0,1,.1,1.42Zm-2.5,9.48c-.02.26-.04.34-.06.5a4.249,4.249,0,0,1-2.54,3.6,12.362,12.362,0,0,1-2.8.96,6.682,6.682,0,0,1,1.4,2.42A11.337,11.337,0,0,0,26.42.3a6.721,6.721,0,0,0,3.1-5.02c.04-.28.04-.32.1-.94h1.86V-.42c0,1.52.6,1.8,3.7,1.8,2.56,0,3.42-.12,4-.58.74-.56,1.02-1.5,1.08-3.66a8.027,8.027,0,0,1-2.44-.7v.38a6.468,6.468,0,0,1-.18,1.66c-.12.38-.56.5-1.82.5-1.48,0-1.74-.08-1.74-.56V-5.66h3.54a15.526,15.526,0,0,1,2.18.1V-8.08a14.867,14.867,0,0,1-2.16.1H24.44a15.325,15.325,0,0,1-2.2-.1v2.52a15.846,15.846,0,0,1,2.2-.1ZM25.18-9.2a17.266,17.266,0,0,1,1.98-.08h7.76a17.045,17.045,0,0,1,1.98.08v-2.44a17.045,17.045,0,0,1-1.98.08H27.16a17.266,17.266,0,0,1-1.98-.08Zm33.36-2.98a13.076,13.076,0,0,1-2.5,2.32l-.16-.2a7.52,7.52,0,0,0-1.1-1.68c.52-.36.7-.48,1.14-.82H59.3a11.742,11.742,0,0,1,1.86.1v-2.42a11.141,11.141,0,0,1-1.86.1H57.88a15.953,15.953,0,0,0,1.02-1.76l-2.6-.52a15.018,15.018,0,0,1-1.16,2.28H53.56c-.3-.62-.86-1.64-1.24-2.24l-2.56.5a12.268,12.268,0,0,1,1.12,1.74h-.96a11.438,11.438,0,0,1-1.86-.1v1.66a22.529,22.529,0,0,0-3.42-3.52l-1.92,1.82a20.113,20.113,0,0,1,3.4,3.72l1.94-1.96v.68a14.411,14.411,0,0,1,1.86-.08h2.32a18.9,18.9,0,0,1-5.02,1.76,8.09,8.09,0,0,1,1.1,1.94,26.033,26.033,0,0,0,4.52-1.82,5.279,5.279,0,0,1,.42.58,18.353,18.353,0,0,1-5.58,2.4,6.661,6.661,0,0,1,1.06,1.94A20.211,20.211,0,0,0,54-8.42a6.4,6.4,0,0,1,.2.78,21.389,21.389,0,0,1-6.5,3.36,7.225,7.225,0,0,1,1.28,1.96c1.16-.5,1.6-.7,2.42-1.12A5.893,5.893,0,0,1,52-1.36c.64.04.96.06,1.34.06,1.5,0,2.3-.24,2.8-.86a4.39,4.39,0,0,0,.7-2.82c0-.36,0-.38-.02-.78a13.084,13.084,0,0,0,3.6,3.36,11.6,11.6,0,0,1,1.14-2.58,16.47,16.47,0,0,1-4.04-3.1,33.433,33.433,0,0,0,3.24-2.6Zm-4.16,6.8c-.02,1.82-.12,2-1.28,2-.4,0-1.08-.04-1.64-.08A16.011,16.011,0,0,0,54.38-5.38ZM42.76-6.86a7.257,7.257,0,0,1,1.3-.1h.98V-2.9a8.655,8.655,0,0,1-2.66,1.74l1.14,2.74A33.053,33.053,0,0,0,46.34-.66,4.032,4.032,0,0,0,48.68.96a20.211,20.211,0,0,0,5.16.44c2.26,0,5.56-.06,7.2-.12A10.314,10.314,0,0,1,61.7-1.4a71.622,71.622,0,0,1-8.32.4,18.783,18.783,0,0,1-3.84-.28A2.881,2.881,0,0,1,47.56-2.7V-7.2a17.624,17.624,0,0,1,.08-2.22,10.47,10.47,0,0,1-1.54.08H44.4a9.435,9.435,0,0,1-1.64-.1Zm25.68-4.4a25.353,25.353,0,0,0-2.32-1.94L64.3-11.56a14.525,14.525,0,0,1,3.06,2.8l1.74-1.72a19.481,19.481,0,0,1,2.06,1.8c-.52.48-.72.66-1.38,1.2h-.56l-.66-1.7A15.145,15.145,0,0,1,63.9-7.26l.84,2.52A28.691,28.691,0,0,0,68.4-6.46l.2,1.2c.24-.02.24-.02,3-.22v1.24H66a15.648,15.648,0,0,1-2.2-.12v2.58c.9-.08,1.58-.12,2.48-.12H71.6V-.2a12.736,12.736,0,0,1-.14,2.04h2.9A12.244,12.244,0,0,1,74.22-.2V-1.9h5.64a22.878,22.878,0,0,1,2.48.12V-4.36a14.664,14.664,0,0,1-2.1.12H74.22v-1.4c1.06-.08,1.06-.08,1.66-.14.12.32.16.44.3.8l2.06-.76c-.64-1.18-.64-1.18-.92-1.66a16.789,16.789,0,0,1,3.26,2.74l1.68-2A23.288,23.288,0,0,0,78.6-9.18c.28-.22.52-.4.66-.5.32-.24.52-.4.6-.46a18.028,18.028,0,0,0,1.66-1.46l-1.9-1.6a16.743,16.743,0,0,1-3.36,2.76l1.64,1.8-.76.88c-.34-.54-.56-.86-1.2-1.76l-1.7.72c.34.56.46.74.66,1.08-.9.08-1.66.14-2.24.16a17.21,17.21,0,0,0,1.36-1.2l.32-.3a24.289,24.289,0,0,0,2.34-2.4l-1.9-1.24a22.208,22.208,0,0,1-2.04,2.46c-.24-.24-.42-.42-.68-.66a13.581,13.581,0,0,0,1.72-2.34h6.26c.9,0,1.5.02,2.14.08v-2.5a21.306,21.306,0,0,1-2.54.12H74.26v-.22a5.621,5.621,0,0,1,.12-1.18H71.5a5.62,5.62,0,0,1,.12,1.18v.22H66.56a21.264,21.264,0,0,1-2.5-.12v2.5c.64-.06,1.24-.08,2.1-.08H71.2a6.306,6.306,0,0,1-.7,1.04c-.26-.18-.36-.26-.7-.5Z" transform="translate(413 4673)"></path></g><path id="&#x30D1;&#x30B9;_13536" data-name="&#x30D1;&#x30B9; 13536" d="M.039,1.117,6.809.643,12.982.486l13.082.631L23.68,31.5H1.879Z" transform="translate(920 4571.503)" fill="#fff"></path></g><g id="&#x30B0;&#x30EB;&#x30FC;&#x30D7;_9012" data-name="&#x30B0;&#x30EB;&#x30FC;&#x30D7; 9012"><g id="&#x5408;&#x4F53;_21" data-name="&#x5408;&#x4F53; 21" transform="translate(-18969.5 1674)" fill="none"><path d="M19923.354,1213H19781V1099h302v114h-142.352l-8.646,12Z" stroke="none"></path><path d="M 19932.001953125 1219.866577148438 L 19939.11328125 1209.99755859375 L 20080 1209.99755859375 L 20080 1101.9990234375 L 19783.998046875 1101.9990234375 L 19783.998046875 1209.99755859375 L 19924.888671875 1209.99755859375 L 19932.001953125 1219.866577148438 M 19932.001953125 1224.998168945312 L 19923.353515625 1212.99755859375 L 19780.998046875 1212.99755859375 L 19780.998046875 1098.9990234375 L 20083 1098.9990234375 L 20083 1212.99755859375 L 19940.6484375 1212.99755859375 L 19932.001953125 1224.998168945312 Z" stroke="none" fill="#583fff"></path></g><path id="&#x30D1;&#x30B9;_13547" data-name="&#x30D1;&#x30B9; 13547" d="M-40.534-1.95h-4.654c-1.17,0-2.184-.052-3.042-.13V1.3a26.339,26.339,0,0,1,3.146-.156h12.87a26.815,26.815,0,0,1,3.172.156V-2.106a25.973,25.973,0,0,1-3.224.156H-37V-8.684h3.822c1.04,0,2.132.052,2.99.13v-3.354a21.077,21.077,0,0,1-3.016.156H-37V-14.2A17.639,17.639,0,0,1-36.842-17H-40.69a23.109,23.109,0,0,1,.156,2.808v2.444H-43.6a23.013,23.013,0,0,1-2.99-.156v3.354c.806-.078,1.95-.13,2.99-.13h3.068Zm-6.838-15.808H-32.63a26.624,26.624,0,0,1,3.276.156v-3.432a24.934,24.934,0,0,1-3.276.156H-47.4c-1.4,0-2.5-.052-3.562-.13a32.82,32.82,0,0,1,.156,3.614c0,9.178-.572,12.818-2.5,16.224a13.075,13.075,0,0,1,2.756,2.912A17.792,17.792,0,0,0-48.62-2.912c.832-2.886,1.248-6.968,1.248-12.636Zm29.978-.078a21.557,21.557,0,0,1-1.456,3.822h-.286a6.13,6.13,0,0,1-.988-.052l.39,3.25a13.369,13.369,0,0,1,2.288-.312,5.411,5.411,0,0,0,.754-.078v2.418h-1.352a9.6,9.6,0,0,1-1.638-.1v3.12A13.408,13.408,0,0,1-18.1-5.85h1.4v3.068c-1.768.182-2.652.26-3.12.26h-.364L-19.76.962c.442-.1.884-.182,1.43-.286C-14.9.156-12.168-.364-9.88-.91l-.052-2.912c-1.716.338-2.288.416-3.692.624V-5.85h1.352a15.037,15.037,0,0,1,1.638.078v-3.12a10.134,10.134,0,0,1-1.664.1h-1.326V-11.57a10.073,10.073,0,0,0,1.352-.182c.156.52.208.806.416,1.56l2.366-1.144v5.174a14.953,14.953,0,0,1-.1,2.028h3.12a13.949,13.949,0,0,1-.1-2.054V-18.122a13.61,13.61,0,0,1,.1-2H-9.568c.052.78.078,1.144.078,2v6.578A25.714,25.714,0,0,0-11.8-17.238l-2.262.806c.468,1.014.572,1.274.884,2.028-.832.1-1.534.156-2.6.234a29.445,29.445,0,0,0,1.534-3.666H-12.4a21.6,21.6,0,0,1,2.392.1v-3.224a18.742,18.742,0,0,1-2.756.13h-3.848a14.836,14.836,0,0,1-2.444-.13,3.417,3.417,0,0,1,.13-.39l-3.328-.806a21.808,21.808,0,0,1-4.29,10.062,20.8,20.8,0,0,1,1.274,3.9A10.764,10.764,0,0,0-23.79-10.5c-.026.962-.052,1.638-.052,2.834V-.832A27.114,27.114,0,0,1-24,2.236h3.432A28.424,28.424,0,0,1-20.7-.832v-15.08c.13-.39.13-.39.364-1.014.39-1.144.39-1.144.7-2.08.338-1.118.338-1.118.364-1.248.13-.468.13-.468.182-.624v3.12a8.78,8.78,0,0,1,1.274-.078Zm15.132-.728a24.309,24.309,0,0,1,.156-3.146H-5.46a23.285,23.285,0,0,1,.13,2.964V-1.69c0,.546-.208.676-1.092.676a23.035,23.035,0,0,1-2.886-.234,12.025,12.025,0,0,1,.7,3.224C-7.852,2-7.28,2-6.916,2c3.77,0,4.654-.572,4.654-3.016Zm6.942.286a14.83,14.83,0,0,1-2.262-.078,21.592,21.592,0,0,1,.1,2.7V-1.976a27.371,27.371,0,0,1-.156,3.458H5.694V-.806H8.84V.7h3.2C11.986-.026,11.96-.91,11.96-1.82v-9.906a6.71,6.71,0,0,1,1.066,1.352,19.317,19.317,0,0,0,3.458-4.836h5.3c-.052,7.254-.312,11.544-.806,13.078-.26.754-.676.962-1.82.962a19.139,19.139,0,0,1-3.172-.338,12.662,12.662,0,0,1,.858,3.484c.988.052,1.82.078,2.158.078a8.622,8.622,0,0,0,3.64-.6A2.892,2.892,0,0,0,24-.416c.6-1.872.858-4.758,1.04-11,.13-4.94.13-4.94.13-5.07.026-.7.026-.7.026-.858.026-.442.026-.676.1-1.248a15.014,15.014,0,0,1-2.21.1H17.914c.286-.806.416-1.17.624-1.846.13-.416.338-.962.416-1.144l-3.51-.546a11.762,11.762,0,0,1-.494,2,18.822,18.822,0,0,1-2.99,5.668v-3.2c.052-.572.052-.572.078-.806-.312.026-1.066.052-2.21.078H8.5a30.891,30.891,0,0,0,1.326-3.276L6.318-22a20.107,20.107,0,0,1-1.092,3.718Zm1.014,3.016H8.84v4.056H5.694Zm0,7.02H8.84V-3.8H5.694ZM20.306-5.954a38.694,38.694,0,0,0-3.38-6.448L14.04-11a23.656,23.656,0,0,1,3.068,6.6Zm15.21-15.678a20.812,20.812,0,0,1-.7,4.342c-.494.026-.988.052-1.144.052a19.378,19.378,0,0,1-3.64-.26v3.536h.988c.884.052.884.052,1.17.052H32.5c.624-.026.624-.026,1.4-.026A34.56,34.56,0,0,1,29.016-3.874L32.578-1.9c.156-.338.156-.338.494-.988.988-1.872,1.222-2.34,1.82-3.614a51.742,51.742,0,0,0,2.834-7.54c2.08-.182,3.146-.286,4.056-.416a6.209,6.209,0,0,1,.806-.1l-.078-3.588a18.493,18.493,0,0,1-3.926.676c.052-.26.052-.26.156-.65.182-.91.312-1.482.364-1.716a7.8,7.8,0,0,1,.364-1.4ZM52.832-15.08a40.215,40.215,0,0,0-7.566-3.484L43.42-15.548a33.941,33.941,0,0,1,7.748,3.692Zm-.156,11.8c-.208-.156-.208-.156-.442-.338-.442-.364-.676-.546-1.014-.78a17.852,17.852,0,0,0-3.926-2.262,25.053,25.053,0,0,1-.234-3.51A7.883,7.883,0,0,1,47.4-12.74l-3.614-.182a16.353,16.353,0,0,0-.208,2.886,23.687,23.687,0,0,0,.13,2.522,11.22,11.22,0,0,0-1.9-.156,7.7,7.7,0,0,0-2.782.39,4.624,4.624,0,0,0-3.3,4.368c0,2.782,2.34,4.628,5.9,4.628a6.16,6.16,0,0,0,4.81-1.768,4.153,4.153,0,0,0,.884-2.782A15.378,15.378,0,0,1,51.012.208Zm-8.892-.936a3.941,3.941,0,0,1,.052.728c0,1.274-.754,1.924-2.314,1.924-1.378,0-2.184-.572-2.184-1.508,0-.91.962-1.534,2.392-1.534A5.507,5.507,0,0,1,43.784-4.212Zm-145.028,20.1a26.581,26.581,0,0,1-4.082-.182v3.978a30.484,30.484,0,0,1,4.03-.156h11.388a17.319,17.319,0,0,1-7.748,10.842,21.115,21.115,0,0,1-5.59,2.574,11.81,11.81,0,0,1,2.756,3.718c4.472-2,7.41-4.03,9.8-6.838A24.84,24.84,0,0,0-85.54,19.3l.1-.364h.1a2.874,2.874,0,0,0,2.86-2.886,2.879,2.879,0,0,0-2.886-2.886,2.87,2.87,0,0,0-2.86,2.678,9.464,9.464,0,0,1-1.118.052Zm15.886-1.118a1.276,1.276,0,0,1,1.274,1.274,1.276,1.276,0,0,1-1.274,1.274,1.276,1.276,0,0,1-1.274-1.274A1.276,1.276,0,0,1-85.358,14.772Zm23.686,19.136v1.768h4a33.907,33.907,0,0,1-.13-3.8V19.322c0-1.508.026-2.652.1-3.562-1.066.078-1.716.1-3.9.1H-73.736a32.174,32.174,0,0,1-3.744-.1,31.928,31.928,0,0,1,.1,3.432V32.036c0,1.56-.052,2.652-.13,3.666h4V33.908Zm0-3.51H-73.528V19.374h11.856Zm29.588-13.13,1.17-.39a12.723,12.723,0,0,0-1.846-3.354L-35,14.252a13.412,13.412,0,0,1,1.508,2.73c-.39.026-.65.052-.936.052l-6.76.078c.286-.572.39-.78.624-1.3a10.871,10.871,0,0,1,.754-1.56l-4.186-.806a9.624,9.624,0,0,1-1.248,3.3,20.318,20.318,0,0,1-6.812,7.722,9.589,9.589,0,0,1,3.094,2.652,25.891,25.891,0,0,0,6.006-6.6l7.384-.1c-2.132,6.552-6.188,10.66-13.208,13.364A10.327,10.327,0,0,1-46.1,37.132a26.8,26.8,0,0,0,9.438-6.656A27.9,27.9,0,0,0-31.33,20.31a5.362,5.362,0,0,1,.65-1.638Zm.338-3.874A17.455,17.455,0,0,1-29.952,16.8l2.21-.832a12.668,12.668,0,0,0-1.846-3.3Zm10.712,4.68c.806-.078,1.846-.13,3.51-.13h8.658a24.318,24.318,0,0,1,3.484.13V14.3a15.753,15.753,0,0,1-3.536.208h-8.528a20.348,20.348,0,0,1-3.588-.208Zm-2.184,6.4a33.228,33.228,0,0,1,3.874-.13h11.83a12.81,12.81,0,0,1-4.108,5.642,17.56,17.56,0,0,1-7.046,3.224,11.388,11.388,0,0,1,2.444,3.614,24.589,24.589,0,0,0,7.1-3.744,19.277,19.277,0,0,0,5.9-8.892A7.884,7.884,0,0,1-2.5,22.546l-1.742-1.924a6.655,6.655,0,0,1-2.522.26H-19.292a23.169,23.169,0,0,1-3.926-.182ZM9.854,13.81a26.136,26.136,0,0,1-1.092,4.784A129.538,129.538,0,0,1,4.368,31.438c-1.17.052-1.664.078-2.21.078a6.574,6.574,0,0,1-.7-.026L2,35.676a13.665,13.665,0,0,1,2.47-.338,144.146,144.146,0,0,0,15.47-1.976,20.88,20.88,0,0,1,1.092,3.068l3.8-1.95a58.233,58.233,0,0,0-6.24-12.22l-3.51,1.352A33.222,33.222,0,0,1,17.5,27.8c.546,1.066.806,1.586,1.066,2.158a90.65,90.65,0,0,1-9.932,1.17c1.612-3.952,3.276-8.866,4.992-14.586a10.155,10.155,0,0,1,.676-1.9Zm28.522,1.508H31.85c-1.378,0-2.106-.026-2.99-.1a15.789,15.789,0,0,1,.1,2.08v2.314a15.873,15.873,0,0,1-.13,2.08h3.38V18.36H48.49v3.328h3.354a12.17,12.17,0,0,1-.13-2.08V17.294a15.052,15.052,0,0,1,.1-2.08c-.91.078-1.612.1-2.99.1H41.86v-.494A11.173,11.173,0,0,1,41.99,13H38.246a12.286,12.286,0,0,1,.13,1.846Zm-3.25,12.324c-.026.338-.052.442-.078.65a5.524,5.524,0,0,1-3.3,4.68,16.071,16.071,0,0,1-3.64,1.248,8.686,8.686,0,0,1,1.82,3.146,14.739,14.739,0,0,0,4.42-1.976,8.737,8.737,0,0,0,4.03-6.526c.052-.364.052-.416.13-1.222h2.418v6.812c0,1.976.78,2.34,4.81,2.34,3.328,0,4.446-.156,5.2-.754.962-.728,1.326-1.95,1.4-4.758a10.435,10.435,0,0,1-3.172-.91v.494a8.408,8.408,0,0,1-.234,2.158c-.156.494-.728.65-2.366.65-1.924,0-2.262-.1-2.262-.728v-5.3h4.6a20.184,20.184,0,0,1,2.834.13V24.5a19.328,19.328,0,0,1-2.808.13H31.772a19.922,19.922,0,0,1-2.86-.13v3.276a20.6,20.6,0,0,1,2.86-.13Zm-2.392-4.6a22.446,22.446,0,0,1,2.574-.1H45.4a22.158,22.158,0,0,1,2.574.1V19.868a22.159,22.159,0,0,1-2.574.1H35.308a22.446,22.446,0,0,1-2.574-.1ZM76.1,19.166a17,17,0,0,1-3.25,3.016l-.208-.26a9.775,9.775,0,0,0-1.43-2.184c.676-.468.91-.624,1.482-1.066H77.09a15.264,15.264,0,0,1,2.418.13V15.656a14.484,14.484,0,0,1-2.418.13H75.244A20.739,20.739,0,0,0,76.57,13.5l-3.38-.676a19.524,19.524,0,0,1-1.508,2.964H69.628c-.39-.806-1.118-2.132-1.612-2.912l-3.328.65a15.947,15.947,0,0,1,1.456,2.262H64.9a14.87,14.87,0,0,1-2.418-.13v2.158a29.288,29.288,0,0,0-4.446-4.576l-2.5,2.366a26.147,26.147,0,0,1,4.42,4.836l2.522-2.548v.884a18.734,18.734,0,0,1,2.418-.1h3.016a24.573,24.573,0,0,1-6.526,2.288,10.517,10.517,0,0,1,1.43,2.522,33.843,33.843,0,0,0,5.876-2.366,6.863,6.863,0,0,1,.546.754,23.858,23.858,0,0,1-7.254,3.12,8.659,8.659,0,0,1,1.378,2.522A26.274,26.274,0,0,0,70.2,24.054a8.32,8.32,0,0,1,.26,1.014,27.806,27.806,0,0,1-8.45,4.368,9.393,9.393,0,0,1,1.664,2.548c1.508-.65,2.08-.91,3.146-1.456a7.661,7.661,0,0,1,.78,2.7c.832.052,1.248.078,1.742.078,1.95,0,2.99-.312,3.64-1.118a5.707,5.707,0,0,0,.91-3.666c0-.468,0-.494-.026-1.014a17.009,17.009,0,0,0,4.68,4.368,15.085,15.085,0,0,1,1.482-3.354,21.41,21.41,0,0,1-5.252-4.03,43.463,43.463,0,0,0,4.212-3.38Zm-5.408,8.84c-.026,2.366-.156,2.6-1.664,2.6-.52,0-1.4-.052-2.132-.1A20.814,20.814,0,0,0,70.694,28.006ZM55.588,26.082a9.434,9.434,0,0,1,1.69-.13h1.274V31.23a11.252,11.252,0,0,1-3.458,2.262l1.482,3.562a42.97,42.97,0,0,0,3.666-2.912,5.242,5.242,0,0,0,3.042,2.106,26.275,26.275,0,0,0,6.708.572c2.938,0,7.228-.078,9.36-.156a13.409,13.409,0,0,1,.858-3.484,93.109,93.109,0,0,1-10.816.52,24.418,24.418,0,0,1-4.992-.364,3.745,3.745,0,0,1-2.574-1.846V25.64a22.91,22.91,0,0,1,.1-2.886,13.611,13.611,0,0,1-2,.1H57.72a12.266,12.266,0,0,1-2.132-.13Zm33.384-5.72a32.958,32.958,0,0,0-3.016-2.522L83.59,19.972a18.882,18.882,0,0,1,3.978,3.64l2.262-2.236a25.326,25.326,0,0,1,2.678,2.34c-.676.624-.936.858-1.794,1.56h-.728l-.858-2.21a19.688,19.688,0,0,1-6.058,2.5l1.092,3.276A37.3,37.3,0,0,0,88.92,26.6l.26,1.56c.312-.026.312-.026,3.9-.286v1.612H85.8a20.342,20.342,0,0,1-2.86-.156v3.354c1.17-.1,2.054-.156,3.224-.156H93.08v2.21a16.557,16.557,0,0,1-.182,2.652h3.77a15.918,15.918,0,0,1-.182-2.652V32.53h7.332a29.741,29.741,0,0,1,3.224.156V29.332a19.064,19.064,0,0,1-2.73.156H96.486v-1.82c1.378-.1,1.378-.1,2.158-.182.156.416.208.572.39,1.04l2.678-.988c-.832-1.534-.832-1.534-1.2-2.158a21.826,21.826,0,0,1,4.238,3.562l2.184-2.6a30.274,30.274,0,0,0-4.758-3.276c.364-.286.676-.52.858-.65.416-.312.676-.52.78-.6a23.436,23.436,0,0,0,2.158-1.9l-2.47-2.08a21.766,21.766,0,0,1-4.368,3.588l2.132,2.34-.988,1.144c-.442-.7-.728-1.118-1.56-2.288l-2.21.936c.442.728.6.962.858,1.4-1.17.1-2.158.182-2.912.208a22.37,22.37,0,0,0,1.768-1.56l.416-.39a31.577,31.577,0,0,0,3.042-3.12l-2.47-1.612a28.872,28.872,0,0,1-2.652,3.2c-.312-.312-.546-.546-.884-.858a17.656,17.656,0,0,0,2.236-3.042h8.138c1.17,0,1.95.026,2.782.1v-3.25a27.7,27.7,0,0,1-3.3.156H96.538v-.286a7.307,7.307,0,0,1,.156-1.534H92.95a7.307,7.307,0,0,1,.156,1.534V14.8H86.528a27.644,27.644,0,0,1-3.25-.156v3.25c.832-.078,1.612-.1,2.73-.1H92.56a8.2,8.2,0,0,1-.91,1.352c-.338-.234-.468-.338-.91-.65Z" transform="translate(962 2823)" fill="#583fff"></path></g></g><path id="&#x30D1;&#x30B9;_13550" data-name="&#x30D1;&#x30B9; 13550" d="M-3.81-4.15-7.35-7.7l-.33.33L-4.13-3.8-7.68-.25l.33.33,3.54-3.52L-.26.08.06-.25-3.49-3.8.06-7.37-.26-7.7Zm.01-3.31a.768.768,0,0,0-.77.76.777.777,0,0,0,.77.77.762.762,0,0,0,.76-.77A.76.76,0,0,0-3.8-7.46ZM-6.67-4.57a.762.762,0,0,0-.77.76.777.777,0,0,0,.77.77.762.762,0,0,0,.76-.77A.76.76,0,0,0-6.67-4.57Zm5.72.01a.76.76,0,0,0-.76.76.76.76,0,0,0,.76.76A.76.76,0,0,0-.19-3.8.76.76,0,0,0-.95-4.56Zm-2.86,2.9-.02.02c-.01,0-.01,0-.02-.01a.037.037,0,0,0-.03-.01.806.806,0,0,0-.7.77.8.8,0,0,0,.77.77.775.775,0,0,0,.76-.77A.762.762,0,0,0-3.81-1.66ZM2.1-1.77A2.641,2.641,0,0,0,2.66-.65,3.124,3.124,0,0,0,5.2.3,3.454,3.454,0,0,0,7.66-.51a2.118,2.118,0,0,0,.6-1.46,1.921,1.921,0,0,0-.48-1.38,2.1,2.1,0,0,0-1.43-.67,2.469,2.469,0,0,0,.97-.39,1.823,1.823,0,0,0,.69-1.47c0-1.3-1.08-2.14-2.75-2.14a3.247,3.247,0,0,0-1.96.55,2.485,2.485,0,0,0-.95,1.43l1.43.24a1.469,1.469,0,0,1,.42-.77,1.667,1.667,0,0,1,1.09-.31c.85,0,1.32.39,1.32,1.08,0,.77-.59,1.23-1.59,1.23a6.856,6.856,0,0,1-.97-.05v1.24a8.539,8.539,0,0,1,1.07-.05,2.59,2.59,0,0,1,1.15.24,1.165,1.165,0,0,1,.56,1.05c0,.79-.63,1.3-1.62,1.3A1.888,1.888,0,0,1,4-1.23a1.3,1.3,0,0,1-.47-.82Z" transform="translate(1105 3192)" fill="#333"></path></g></svg>