<svg xmlns="http://www.w3.org/2000/svg" width="1477" height="309" viewBox="0 0 1477 309"><g id="&#x30B0;&#x30EB;&#x30FC;&#x30D7;_8993" data-name="&#x30B0;&#x30EB;&#x30FC;&#x30D7; 8993" transform="translate(-222 -3760)"><g id="&#x30B0;&#x30EB;&#x30FC;&#x30D7;_8992" data-name="&#x30B0;&#x30EB;&#x30FC;&#x30D7; 8992" transform="translate(0 29)"><g id="&#x9577;&#x65B9;&#x5F62;_4558" data-name="&#x9577;&#x65B9;&#x5F62; 4558" transform="translate(1352 3731)" fill="none" stroke="#e1e1e1" stroke-width="3"><rect width="347" height="309" rx="20" stroke="none"></rect><rect x="1.5" y="1.5" width="344" height="306" rx="18.5" fill="none"></rect></g><g id="&#x30B0;&#x30EB;&#x30FC;&#x30D7;_8991" data-name="&#x30B0;&#x30EB;&#x30FC;&#x30D7; 8991"><path id="&#x30D1;&#x30B9;_13535" data-name="&#x30D1;&#x30B9; 13535" d="M59.072-21.034a21.4,21.4,0,0,1-.39,2.782,56.238,56.238,0,0,0-.988,10.01A54.933,54.933,0,0,0,58.37-.026a10.446,10.446,0,0,1,.13,1.378l4.472-.208A7.278,7.278,0,0,1,62.894-.13a25.655,25.655,0,0,1,1.014-7.28l-2-.676a48.882,48.882,0,0,1,1.976-12.558Zm6.812,6.76c.364.026.546.026.754.052a42.9,42.9,0,0,0,4.472.208c1.794,0,3.692-.1,5.486-.286,1.43-.156,1.69-.182,1.924-.182l-.182-4.446a33.728,33.728,0,0,1-7.748.65,21.717,21.717,0,0,1-4.628-.39Zm1.534,3.458c-.7,1.014-.858,1.274-1.222,1.872a8.148,8.148,0,0,0-1.248,4.056A4.816,4.816,0,0,0,67.34-.754,10.6,10.6,0,0,0,72.722.338,31.839,31.839,0,0,0,77.22,0c1.534-.234,1.534-.234,2.21-.312l-.26-4.6A19.323,19.323,0,0,1,72.7-3.848c-2.21,0-3.38-.65-3.38-1.846,0-.936.546-2.054,1.742-3.588Zm25.74-10.868a19.365,19.365,0,0,1,.13,2.444c.052,3.536.208,8.866.312,10.946a11.308,11.308,0,0,0-1.82-.13,8.366,8.366,0,0,0-5.07,1.378,4.706,4.706,0,0,0-2.028,3.9A4.807,4.807,0,0,0,86.476.728,8.876,8.876,0,0,0,91.6,2.08,7.767,7.767,0,0,0,97.032.364a3.984,3.984,0,0,0,1.092-2.938,3.006,3.006,0,0,0-.026-.442,17.457,17.457,0,0,1,5.356,4.082l2.808-4.082c-.286-.182-.364-.234-.832-.546a25.8,25.8,0,0,0-7.384-3.952c-.208-3.536-.208-3.536-.26-4.758,2.34-.052,3.354-.1,5.98-.364,1.066-.1,1.3-.13,1.82-.156l-.286-4.316a31.805,31.805,0,0,1-7.592.754v-.364c0-1.9.078-3.8.182-4.94ZM93.7-4.264v.338a2.623,2.623,0,0,1-.13,1.118,2.258,2.258,0,0,1-2.158.988c-1.3,0-2.106-.52-2.106-1.378,0-.806.988-1.326,2.548-1.326A5.861,5.861,0,0,1,93.7-4.264ZM114.712-16.38c.52-.052,1.014-.1,1.716-.13,3.666-.182,4.706-.234,6.084-.39-3.224,3.2-8.71,7.462-11.1,8.58l2.418,3.952a19.334,19.334,0,0,1,2.5-1.95,14.951,14.951,0,0,1,8.008-2.392c2.886,0,4.654,1.118,4.654,2.938a2.921,2.921,0,0,1-2.054,2.834,6.116,6.116,0,0,0-1.2-2.054,6.1,6.1,0,0,0-4.654-2c-3.016,0-5.174,1.742-5.174,4.16,0,2.886,2.678,4.628,7.072,4.628A14.133,14.133,0,0,0,129.87.156a6.791,6.791,0,0,0,3.588-6.11,5.771,5.771,0,0,0-1.9-4.5A7.991,7.991,0,0,0,126-12.22a12.439,12.439,0,0,0-3.562.468c1.742-1.274,2.21-1.664,3.588-2.834,3.51-3.016,3.51-3.016,4.186-3.406l-2.132-3.146a5.241,5.241,0,0,1-1.976.364c-2.626.208-5.512.312-7.826.312a29.1,29.1,0,0,1-3.744-.182Zm8.346,14.612a3.946,3.946,0,0,1-.858.078c-1.4,0-2.236-.442-2.236-1.144a.9.9,0,0,1,1.014-.858C121.992-3.692,122.72-3.016,123.058-1.768ZM-131.2,21.7c-1.586,0-2.262-.026-3.2-.1a17.006,17.006,0,0,1,.1,2.184v2.86a12.228,12.228,0,0,1-.13,2.158h3.952V25.128h15.548v3.666h3.952a17.377,17.377,0,0,1-.13-2.132V23.776a16.249,16.249,0,0,1,.1-2.184c-.884.078-1.638.1-3.25.1h-.52a29.091,29.091,0,0,0,1.456-2.756l-3.978-.858A18.535,18.535,0,0,1-118.9,21.7h-1.534a21.761,21.761,0,0,0-1.534-3.718l-3.952.7a15.91,15.91,0,0,1,1.352,3.016h-1.742a27.346,27.346,0,0,0-1.976-3.458l-3.822.78a18.6,18.6,0,0,1,1.56,2.678Zm10.764,13.962h5.772a33.962,33.962,0,0,1,3.718.156V31.862a33.533,33.533,0,0,1-3.666.182h-4.81a43.079,43.079,0,0,0,3.64-3.094c.39-.364.494-.468.78-.7l-1.9-2.158a12.863,12.863,0,0,1-2.054.1h-7.774a27.64,27.64,0,0,1-2.782-.1V29.6a26.436,26.436,0,0,1,2.756-.1h5.382a9.491,9.491,0,0,1-1.768,1.326h-1.43a8.024,8.024,0,0,1,.078,1.222h-6.4a28.84,28.84,0,0,1-3.536-.182v3.952a32.621,32.621,0,0,1,3.588-.156h6.344v2.47c0,.468-.182.546-1.222.546-.728,0-1.716-.078-3.146-.208a15.274,15.274,0,0,1,1.144,3.822c1.222.052,1.924.078,2.366.078,4.03,0,4.914-.572,4.914-3.094ZM-84.188,21.15a24.463,24.463,0,0,1,.1-2.808,18.086,18.086,0,0,1-2.5.1h-5.59a29.742,29.742,0,0,1-3.224-.156v3.64c.728-.078,1.014-.078,1.924-.1l-1.586,1.534a16.727,16.727,0,0,1,3.068,2.34,20.334,20.334,0,0,1-3.458.858l.624,1.924-1.248-.208a7.367,7.367,0,0,0,.1-1.4v-5.8c0-1.638.026-2.21.078-2.782a17.921,17.921,0,0,1-2.73.13h-5.434a27.271,27.271,0,0,1-3.146-.156V21.93a12.26,12.26,0,0,1,2.288-.13l-1.742,1.56a15.715,15.715,0,0,1,3.016,2.288,24.177,24.177,0,0,1-3.874.988l1.144,3.562a8.827,8.827,0,0,1,1.326-.52c1.014-.364,2.262-.832,3.276-1.248a9.625,9.625,0,0,1,.234,1.534c.91.026,1.352.026,1.9.026a11.352,11.352,0,0,0,1.534-.078,5.091,5.091,0,0,1-.494.78h-3.458a26.374,26.374,0,0,1-2.86-.078c.052.832.078,1.326.078,3.068V38.96a25.442,25.442,0,0,1-.13,3.328h3.978V41.3h10.868v.988h4a24.707,24.707,0,0,1-.13-3.328V33.63a21.075,21.075,0,0,1,.13-3.016A26.4,26.4,0,0,1-89,30.692h-5.408c.338-.468.338-.468.52-.754.416-.156.546-.208,1.092-.416a25.538,25.538,0,0,0,2.522-1.014,11.809,11.809,0,0,1,.234,1.482c.6,0,1.456.026,1.794.026,2.054,0,2.912-.156,3.432-.65.468-.416.624-.988.624-2.47Zm-16.64,2.366a16.678,16.678,0,0,0-2.418-1.716h3.692v4.368c0,.416-.078.468-.7.494l-.026-2.314c-1.3.546-1.768.754-2.548,1.014Zm11.44.052a17.07,17.07,0,0,0-2.47-1.742h4v4.368c0,.442-.078.494-.754.52V24.348c-1.4.6-1.82.78-2.652,1.066Zm-11.6,9.984H-90.09v1.014h-10.894Zm0,3.718H-90.09v1.066h-10.894Zm23.27-17.056a31.915,31.915,0,0,1,1.664,4.758c-.338.1-.494.156-.884.26a19.561,19.561,0,0,1-3.692,1.014l1.352,4.29a38.571,38.571,0,0,1,4.316-1.664c.884,3.276,1.43,5.408,1.664,6.422a58.709,58.709,0,0,1,1.378,7.176l4.888-1.118a8.263,8.263,0,0,1-.494-1.4c-1.3-5.278-2.548-10.088-3.2-12.3A28.057,28.057,0,0,1-63.778,26.3c1.82,0,2.834.728,2.834,2.054,0,1.508-1.378,2.47-3.536,2.47a11.252,11.252,0,0,1-3.9-.78,19.019,19.019,0,0,1,.676,4.342,15.008,15.008,0,0,0,3.692.52,8.416,8.416,0,0,0,5.252-1.586A6.358,6.358,0,0,0-56.316,28.3a6.228,6.228,0,0,0-.754-3.12,6.237,6.237,0,0,0-5.616-2.86,9.919,9.919,0,0,0-1.118.052V20.318a16.853,16.853,0,0,1,.13-1.95H-68.3a11.113,11.113,0,0,1,.208,2.7c.026,1.222.026,1.222.052,1.82-1.378.286-1.924.416-3.77.91-.416-1.456-.442-1.534-.78-2.7a13.8,13.8,0,0,1-.52-2.106ZM-44.07,39.142a15.876,15.876,0,0,1,1.742,2.626,14.562,14.562,0,0,0,4.186-4.5,14.38,14.38,0,0,0-.052,1.56v1.144a15.767,15.767,0,0,1-.13,2.366h3.874a16.916,16.916,0,0,1-.156-2.418v-1.17c0-.7,0-.7-.052-1.534a12.153,12.153,0,0,0,1.82,2.314,21.791,21.791,0,0,0,2.548,2.21,18.556,18.556,0,0,1,1.924-3.8A12.955,12.955,0,0,1-32.942,34.2h1.664a20.347,20.347,0,0,1,2.522.1V30.64a18.346,18.346,0,0,1-2.73.13h-3.146V29.756h2.678a23.423,23.423,0,0,1,2.548.1,21.449,21.449,0,0,1-.1-2.522V20.916a19.607,19.607,0,0,1,.1-2.5c-.52.052-1.144.078-2.158.078h-9.2c-1.144,0-1.82-.026-2.47-.078a19.055,19.055,0,0,1,.1,2.392v6.63a20.343,20.343,0,0,1-.1,2.418,19,19,0,0,1,2.314-.1h2.756V30.77H-40.9a18.346,18.346,0,0,1-2.73-.13v3.666a20.08,20.08,0,0,1,2.522-.1h1.092a12.328,12.328,0,0,1-4.056,3.874V35.424a14.249,14.249,0,0,1,.052-1.716,13.407,13.407,0,0,1-1.586.078H-50.57a17.442,17.442,0,0,1-1.95-.052,14.557,14.557,0,0,1,.1,1.924v4.186c0,.806-.052,1.716-.13,2.522h3.692V41.3h1.4V42h3.458a12.522,12.522,0,0,1-.078-1.586Zm5.954-17.55v1.274h-1.612V21.592Zm3.406,0h1.716v1.274H-34.71Zm-3.406,3.952v1.274h-1.612V25.544Zm3.406,0h1.742v1.274H-34.71ZM-48.958,36.62h1.534v1.586h-1.534Zm-3.38-15.158c.65-.052,1.3-.078,2.314-.078h3.562c1.04,0,1.638.026,2.314.078V18.394a17.945,17.945,0,0,1-2.314.1h-3.562a17.689,17.689,0,0,1-2.314-.1Zm-.806,4.16a16.216,16.216,0,0,1,2.106-.1h5.122a12.983,12.983,0,0,1,2.054.078V22.138c-.65.052-1.04.078-2.106.078h-5.07a11.592,11.592,0,0,1-2.106-.13Zm.806,3.666a12.5,12.5,0,0,1,1.534-.052h5.148a11.149,11.149,0,0,1,1.456.052V26.35a10.123,10.123,0,0,1-1.456.052H-50.8a12.5,12.5,0,0,1-1.534-.052Zm0,3.692a11.808,11.808,0,0,1,1.482-.052h5.1c.806,0,1.17.026,1.56.052V30.042a10.544,10.544,0,0,1-1.482.052H-50.8a12.5,12.5,0,0,1-1.534-.052Zm31.746,2.808a5.832,5.832,0,0,1-.858-1.04c.052-.754.078-1.118.078-1.612s0-.546.026-.91l-3.224-.39c.026.312.052.546.052.728,0,.884-.1,2.262-.182,2.912a9.987,9.987,0,0,1-1.482,4.212,12.428,12.428,0,0,1,2.73,2.626A12.275,12.275,0,0,0-22,38.518a8.509,8.509,0,0,0,4.654,2.964c1.794.39,4,.52,8.866.52.754,0,.754,0,4.082-.078,1.586-.026,2.366-.052,2.366-.052a15.108,15.108,0,0,1,.988-3.978c-.572.052-.962.1-1.2.13a13.851,13.851,0,0,1,1.222-1.612,10.645,10.645,0,0,1-3.3-1.69,17.222,17.222,0,0,1,2,.078,23.553,23.553,0,0,1-.1-2.444V24.92c0-.884.026-1.482.078-2.054a14.918,14.918,0,0,1-2.08.078H-6.136c.182-.39.39-.832.494-1.066h1.586a24.062,24.062,0,0,1,2.548.13V18.576a25.189,25.189,0,0,1-2.964.13h-6.136c-1.274,0-2.08-.026-2.938-.1v3.38c.806-.078,1.69-.1,2.548-.1H-9.36a10.41,10.41,0,0,1-.468,1.066h-.988a14.72,14.72,0,0,1-2.08-.078,16.787,16.787,0,0,1,.1,2.028V32.85a14.713,14.713,0,0,1-.1,1.95,13.574,13.574,0,0,1,1.508-.078A9.117,9.117,0,0,1-14.82,36.75a12.53,12.53,0,0,1,1.4,1.534A17.564,17.564,0,0,1-17,37.842V36h1.092a15.963,15.963,0,0,1,2.106.1V32.668c-.7.052-1.222.078-2.106.078H-17v-1.43h1.222a18.911,18.911,0,0,1,2.366.078V27.962a13.9,13.9,0,0,1-1.976.1h-7.826a17.439,17.439,0,0,1-2.444-.1V31.42a17.682,17.682,0,0,1,2.444-.1h2.626Zm10.686-1.066h3.874l-1.69,1.2A11.139,11.139,0,0,0-5.07,38.206c-1.846.078-3.77.13-5.512.13a11.254,11.254,0,0,0,2.6-2.444Zm.676-9.23h3.25v.832H-9.23Zm0,2.886h3.25v.858H-9.23Zm0,2.886h3.25v.858H-9.23Zm-15.418-5.98a14.2,14.2,0,0,1-.1,2.158c.806-.052,1.378-.078,2.21-.078h6.188c.832,0,1.4.026,2.21.078a13.781,13.781,0,0,1-.078-2.132V20.76a15.184,15.184,0,0,1,.078-2.184,15.434,15.434,0,0,1-2.262.078h-6.136a20.064,20.064,0,0,1-2.21-.078,17.533,17.533,0,0,1,.1,2.184Zm3.666-4.056h3.12v.884h-3.12Zm0,2.938h3.12v.884h-3.12Zm37.336-.26a4.357,4.357,0,0,1,2.184.91,6.118,6.118,0,0,1,2.288,5.122c0,2.782-1.118,4.966-3.12,6.032a13.522,13.522,0,0,1-5.46,1.326,12.775,12.775,0,0,1,2.21,4.264c3.64-.572,5.694-1.4,7.462-2.99a11.188,11.188,0,0,0,3.458-8.4,10.338,10.338,0,0,0-2.548-7.228,11.594,11.594,0,0,0-8.476-3.2A12.431,12.431,0,0,0,4.94,23.568,11.558,11.558,0,0,0,1.95,31.5c0,4.758,2.444,8.086,5.928,8.086,2.366,0,4.108-1.456,5.616-4.784A36.423,36.423,0,0,0,16.354,23.906Zm-4.5.052a33.71,33.71,0,0,1-1.95,7.93c-.78,1.976-1.456,2.886-2.106,2.886-.91,0-1.612-1.456-1.612-3.3a8.412,8.412,0,0,1,2.834-6.188A5.2,5.2,0,0,1,11.856,23.958Zm35.8,8.528h1.534a21.689,21.689,0,0,1,2.678.078V29.418a22.173,22.173,0,0,1-2.678.078H47.658V28.352h1.534a21.448,21.448,0,0,1,2.678.078V25.284a21.449,21.449,0,0,1-2.678.078H47.658V24.218h2.964a14.176,14.176,0,0,1,2.054.1V20.76A19.086,19.086,0,0,1,50,20.89H48.2c.286-.416.806-1.274,1.222-2.028.182-.312.182-.312.312-.52L45.656,17.8a16.637,16.637,0,0,1-1.612,3.094H41.938c.468-.7.884-1.378,1.482-2.47l-4.212-.7a14.6,14.6,0,0,1-2.886,4.966,25.915,25.915,0,0,0-4.654-4.576L28.73,20.916a24.653,24.653,0,0,1,4.836,5.148l.884-.884a13.647,13.647,0,0,1,1.794,3.068,5.883,5.883,0,0,0,.806-.988c-.026.494-.026.91-.026,1.092v6.214a23.111,23.111,0,0,1-.078,2.626,23.359,23.359,0,0,1,2.626-.078H50.1a23.687,23.687,0,0,1,2.652.1V33.63a23.259,23.259,0,0,1-2.7.1H47.658Zm-3.8,0v1.248H40.846V32.486Zm0-2.99H40.846V28.352h3.016Zm0-4.134H40.846V24.218h3.016ZM28.886,31.394a9.234,9.234,0,0,1,1.638-.13h1.092v4.914a13,13,0,0,1-3.276,1.976l1.69,4.212c.182-.13.26-.208.416-.312a26.472,26.472,0,0,0,3.224-2.5c1.872,2.08,3.536,2.522,9.308,2.522,3.224,0,7.67-.052,9.75-.13a19.64,19.64,0,0,1,.962-4.238,77.321,77.321,0,0,1-11,.6,19.926,19.926,0,0,1-5.07-.416,3.585,3.585,0,0,1-2.158-1.69V30.432a26.851,26.851,0,0,1,.1-2.938,15.034,15.034,0,0,1-2,.1H31.044a12.965,12.965,0,0,1-2.158-.13ZM64.4,29.028a22.662,22.662,0,0,1,2.6-.1h3.77v2.964c0,.6-.234.78-1.014.78a9.393,9.393,0,0,1-1.144-.078,23.56,23.56,0,0,0,.884-2.47l-3.146-1.17a11.607,11.607,0,0,1-3.3,5.408,12.07,12.07,0,0,1,2.912,2.548,15.763,15.763,0,0,0,2.21-3.328,13.549,13.549,0,0,1,.416,2.626c4.472-.026,5.824-.728,5.824-3.016V28.924h3.146c.91,0,2.106.052,2.99.13v-3.8a31.832,31.832,0,0,1-3.224.13H74.88V23.672h2.236a16.741,16.741,0,0,1,2.522.13V20.214a16.786,16.786,0,0,1-2.5.13H74.88v-.338a15.644,15.644,0,0,1,.1-2.132h-4.03a14.71,14.71,0,0,1,.1,2.028v5.486H69.706V21.826a14.379,14.379,0,0,1,.1-1.976H65.884a15.2,15.2,0,0,1,.1,2.028v3.51c-.572-.026-.936-.052-1.352-.078V22.216a6.462,6.462,0,0,1-1.144.078h-.754V20.526a16.975,16.975,0,0,1,.13-2.652H58.76a17.182,17.182,0,0,1,.13,2.652v1.768h-.6a11.012,11.012,0,0,1-1.924-.13v3.874a17.311,17.311,0,0,1,1.9-.1h.624V29.86a14.618,14.618,0,0,1-2.678.494l.338,3.978c.754-.208,1.534-.442,2.34-.65v4c0,.728-.13.858-.884.858a18.367,18.367,0,0,1-1.95-.13,11.587,11.587,0,0,1,.832,3.692c.884.052,1.274.078,1.742.078a6.538,6.538,0,0,0,3.172-.546c.676-.468.936-1.248.936-2.7V32.408c.7-.26.806-.312,1.664-.624Zm-.13-.806c-.91.338-.988.364-1.534.546V25.934h.728c.26,0,.572.026.806.026ZM77.22,29.574a11.622,11.622,0,0,1-5.9,7.28c-2.132,1.092-4.056,1.534-7.826,1.82A13.487,13.487,0,0,1,65.1,42.418c5.668-.91,8.84-2.288,11.544-5.044A18.019,18.019,0,0,0,79.872,32.8c.26-.494.39-.676.6-1.014Zm20.072-4.862v-.65a11.656,11.656,0,0,0,1.456-1.534h.91a12.342,12.342,0,0,1,.936,2l3.822-.6c-.286-.572-.364-.728-.754-1.4h1.378a17.042,17.042,0,0,1,2.6.13V19.1a19.109,19.109,0,0,1-2.808.13H100.75c.26-.546.26-.546.494-1.092l-3.926-.52a6.369,6.369,0,0,1-1.846,3.3V19.07a11.136,11.136,0,0,1-2.418.156H90.3c.182-.416.26-.6.494-1.092l-3.9-.546a8.583,8.583,0,0,1-3.77,4.6,13.62,13.62,0,0,1,2.054,2.184l.234.338c-.624-.026-.91-.026-1.352-.078a12.9,12.9,0,0,1,.078,1.716v2.158a10.825,10.825,0,0,1-.1,1.716h3.3v8.918a28.585,28.585,0,0,1-.13,3.2h3.978V41.4h9.776v.936h3.952a21.88,21.88,0,0,1-.13-2.34V36.932a16.48,16.48,0,0,1,.1-1.976c-.572.052-1.066.078-1.872.078H91.182V34.2h10.712c.624,0,1.17.026,1.716.052-.052-.572-.078-1.144-.078-2.08v-1.95h3.588a10.165,10.165,0,0,1-.1-1.742v-2.21a11.053,11.053,0,0,1,.078-1.638c-.728.052-1.248.078-2.964.078ZM89,22.5a11.378,11.378,0,0,1,.676,1.95l3.64-.7A11.173,11.173,0,0,0,92.69,22.5h1.4c.26,0,.416,0,.754.026.338.286.39.364.858.806h-2.34a5.524,5.524,0,0,1,.052,1.014v.364h-7.41a12.7,12.7,0,0,0,2.21-2.21Zm14.2,5.824a13.628,13.628,0,0,1-1.482.052H89c-.442,0-.65,0-1.066-.026v-.78h15.262ZM91.182,30.874h8.5v.884h-8.5Zm0,6.786h9.75v.91h-9.75Zm33.774.494H121.03a18.494,18.494,0,0,1-2.782-.13v3.822a23.7,23.7,0,0,1,3.328-.156h10.218a21.851,21.851,0,0,1,3.276.156V38.024a20.24,20.24,0,0,1-2.964.13h-3.484V36.646h2.808a20.982,20.982,0,0,1,2.912.13V33.058a20.02,20.02,0,0,1-2.964.13h-2.756v-1.3h2.99c1.534,0,1.768,0,2.548.052a28.376,28.376,0,0,1-.13-3.64V22.424c0-1.742.052-3.042.13-3.848a22.5,22.5,0,0,1-3.432.13h-7.436a34.736,34.736,0,0,1-3.666-.13,31.005,31.005,0,0,1,.13,3.666v6.24c0,1.794-.026,2.756-.1,3.484.7-.052,1.248-.078,2.99-.078h2.314v1.3h-2.418a21.347,21.347,0,0,1-2.86-.1V36.75a23.184,23.184,0,0,1,2.886-.1h2.392Zm0-15.886V23.8H123.37V22.268Zm3.666,0h1.586V23.8h-1.586Zm-3.666,4.576v1.612H123.37V26.844Zm3.666,0h1.586v1.612h-1.586ZM113.23,22.58v4.056H113a13.189,13.189,0,0,1-1.9-.1V30.2a12.733,12.733,0,0,1,1.82-.1h.312v5.1a17.12,17.12,0,0,1-2.782.858l.91,4.082c.364-.182.39-.182.572-.26,3.588-1.482,5.122-2.158,7.2-3.2l-.026-3.874c-.936.468-1.2.572-2.054.936v-3.64h.156c.572,0,.988.026,1.586.078v-3.64a10.376,10.376,0,0,1-1.586.1h-.156V22.58h.338a14.108,14.108,0,0,1,1.794.1V18.862a20.462,20.462,0,0,1-2.47.13h-3.432a21.61,21.61,0,0,1-2.5-.13v3.822a15.688,15.688,0,0,1,1.82-.1Z" transform="translate(1526 3953)"></path><path id="&#x30D1;&#x30B9;_13534" data-name="&#x30D1;&#x30B9; 13534" d="M-80.418-6.708l.052,4.94V-1.4a19.065,19.065,0,0,1-.208,3.172h4.992a34.6,34.6,0,0,1-.182-3.588l-.13-11.206h1.664a31.317,31.317,0,0,1,3.64.13v-4.446a22.47,22.47,0,0,1-3.718.208h-1.638v-1.742a23.214,23.214,0,0,1,.1-2.522H-80.7a26.729,26.729,0,0,1,.156,2.938l.026,1.3H-88.66a31.09,31.09,0,0,1-4-.208V-12.9a37.684,37.684,0,0,1,3.926-.156h5.356c-2.392,3.718-5.642,6.37-10.894,8.866A12.064,12.064,0,0,1-91.208-.26,29.016,29.016,0,0,0-80.392-9.724c-.026.962-.026,1.326-.026,1.976Zm15.184-9.75a27.768,27.768,0,0,1,7.072,5.486l3.068-4.056a37.929,37.929,0,0,0-7.15-5.1Zm1.612,17.472c.7-.208.858-.234,1.872-.468,4.836-1.118,7.306-2.08,10.114-3.9,3.64-2.34,6.11-5.408,8.476-10.53a16.785,16.785,0,0,1-3.822-3.484,23.937,23.937,0,0,1-2.548,5.1A15.635,15.635,0,0,1-57.148-5.85a26.089,26.089,0,0,1-7.826,1.872ZM-35.568-16.64a33.947,33.947,0,0,1,3.77-.13h8.424c1.794,0,3.016.052,4,.13v-4.368a24.936,24.936,0,0,1-4.082.208h-8.294a23.708,23.708,0,0,1-3.822-.208Zm-2.158,6.5a38.992,38.992,0,0,1,4.134-.156h11.258a11.311,11.311,0,0,1-4,5.2A17.911,17.911,0,0,1-33.2-2.054,14.5,14.5,0,0,1-30.29,2.21a23.4,23.4,0,0,0,7.41-4.056,19.589,19.589,0,0,0,5.772-8.918A5.214,5.214,0,0,1-16.38-12.4l-2.028-2.184a4.231,4.231,0,0,1-2.08.286H-33.54a27.528,27.528,0,0,1-4.186-.208Zm44.2-11.414A19.078,19.078,0,0,1,1.742-16.8a37.672,37.672,0,0,1-13.806,6.76,13.961,13.961,0,0,1,2.5,4.186A44.256,44.256,0,0,0-1.066-9.7v7.176a35.325,35.325,0,0,1-.156,4.186H3.822a37.159,37.159,0,0,1-.156-4.212v-10.01a43.582,43.582,0,0,0,6.006-5.226,9.3,9.3,0,0,1,1.014-.962Zm10.192,5.1a27.768,27.768,0,0,1,7.072,5.486l3.068-4.056a37.929,37.929,0,0,0-7.15-5.1ZM18.278,1.014c.7-.208.858-.234,1.872-.468,4.836-1.118,7.306-2.08,10.114-3.9,3.64-2.34,6.11-5.408,8.476-10.53a16.785,16.785,0,0,1-3.822-3.484,23.937,23.937,0,0,1-2.548,5.1A15.635,15.635,0,0,1,24.752-5.85a26.089,26.089,0,0,1-7.826,1.872ZM46.436-16.12c-1.4,0-2.262-.026-3.068-.1.1,1.144.156,2.08.156,3.406V-1.4c0,1.69-.052,2.7-.156,3.874h4V1.482H61.88V2.5h4c-.078-1.2-.13-2.444-.13-3.874v-11.44a30.059,30.059,0,0,1,.13-3.406,30.4,30.4,0,0,1-3.042.1H55.77a14.535,14.535,0,0,0,.78-1.586H63c1.456,0,2.522.052,3.614.13V-21.5c-1.222.1-2.34.156-3.64.156h-16.8c-1.352,0-2.392-.052-3.588-.156v3.926c1.092-.078,2.184-.13,3.64-.13h5.824a8.977,8.977,0,0,1-.78,1.586Zm9.958,3.406v1.43h-3.64v-1.43Zm3.666,0h1.82V-2.08H60.06ZM56.394-2.08h-3.64V-3.614h3.64Zm-7.28,0H47.372V-12.714h1.742Zm3.64-6.058h3.64V-6.76h-3.64ZM92.612-9.49a15.639,15.639,0,0,1,1.794-3.224A9.727,9.727,0,0,1,90.35-14.9a6.347,6.347,0,0,1-1.482-2.028A16.379,16.379,0,0,1,91.6-15.5a23.824,23.824,0,0,0,2.5-4.55L90.636-21.32a14.415,14.415,0,0,1-2,3.8,10.608,10.608,0,0,1-.39-3.068,7.725,7.725,0,0,1,.1-1.4h-4a5.677,5.677,0,0,1,.1,1.144c0,2.574-.416,4.212-1.43,5.59a7.745,7.745,0,0,1-4.29,2.86v-1.274a10.732,10.732,0,0,1-1.456.052H72.124a12.5,12.5,0,0,1-1.534-.052v2.938a11.843,11.843,0,0,1,1.534-.052h5.148a11.361,11.361,0,0,1,1.456.052v-1.508A11.516,11.516,0,0,1,80.21-10.01a17.046,17.046,0,0,1-1.352,3.64,8.7,8.7,0,0,1-1.456.078H72.2a17.549,17.549,0,0,1-1.846-.078,14.969,14.969,0,0,1,.1,1.95V-.182c0,.806-.052,1.664-.13,2.548h3.718V1.274H75.53v.754h3.38A12.412,12.412,0,0,1,78.858.286v-.6a14.384,14.384,0,0,1,1.3,2.99A11.234,11.234,0,0,0,83.486.754,9.184,9.184,0,0,0,86.4-3.068,13.649,13.649,0,0,0,92.56,2.6a16.5,16.5,0,0,1,2-3.9c-2.73-.988-4.5-2.366-5.486-4.316a16.178,16.178,0,0,1,2.678,1.534,22.122,22.122,0,0,0,2.418-4.836Zm-8.294-1.872a8.08,8.08,0,0,1,.078,1.118,11.476,11.476,0,0,1-1.04,5.616,7.677,7.677,0,0,1-4.5,3.562V-5.018l2.5,1.118a24.613,24.613,0,0,0,2.08-5.226L81.718-9.62a9.922,9.922,0,0,0,4.732-4.914,7.511,7.511,0,0,0,1.768,2.522,14.5,14.5,0,0,0,2.47,1.924,15.1,15.1,0,0,1-1.846,3.9,11.66,11.66,0,0,1-.6-3.874,9.172,9.172,0,0,1,.078-1.3ZM73.918-3.51h1.638v1.742H73.918ZM79.3-16.354l2.522.936a17.856,17.856,0,0,0,1.742-4.992l-3.276-.7a14.154,14.154,0,0,1-.988,3.328v-.078a20.443,20.443,0,0,1-2.106.078H71.812a11.592,11.592,0,0,1-2.106-.13v3.536a15.468,15.468,0,0,1,2.106-.1h5.434A12.249,12.249,0,0,1,79.3-14.4Zm-8.736-2.21c.676-.052,1.248-.078,2.34-.078h3.484c1.17,0,1.638.026,2.34.078v-3.042a17.631,17.631,0,0,1-2.34.1H72.9a17.382,17.382,0,0,1-2.34-.1ZM70.59-7.046c.416-.026.754-.052,1.482-.052h5.122c.78,0,1.222.026,1.534.052V-9.984a10.75,10.75,0,0,1-1.482.052H72.124c-.78,0-1.092-.026-1.534-.052Z" transform="translate(1485 3953)" fill="#583ffe"></path></g><g id="research" transform="translate(1460.799 3765.37)"><path id="&#x30D1;&#x30B9;_13461" data-name="&#x30D1;&#x30B9; 13461" d="M18.106,88.731a11.634,11.634,0,0,1-8.537-3.694L4.11,79.25A4.085,4.085,0,0,1,3,76.295a3.977,3.977,0,0,1,1.272-2.873L35.631,43.871a11.7,11.7,0,0,1,18.8,3.9l3.407,7.88L80.41,33.076,75.033,27.7a4.11,4.11,0,0,1,2.011-6.9l35.831-8.291a4.015,4.015,0,0,1,3.817,1.108,4.223,4.223,0,0,1,1.108,3.817L109.55,53.27a4.11,4.11,0,0,1-6.9,2.011L97.278,49.9,62.1,85.078a11.727,11.727,0,0,1-19.085-3.653l-3.612-8.414L26.151,85.489a11.641,11.641,0,0,1-8.044,3.2ZM12.894,76.623l2.668,2.832a3.545,3.545,0,0,0,4.966.164l17.525-16.5a4.118,4.118,0,0,1,3.653-1.026,4.009,4.009,0,0,1,2.914,2.381l5.91,13.791a3.333,3.333,0,0,0,2.586,2.052,3.515,3.515,0,0,0,3.16-.985L94.364,41.244a4.087,4.087,0,0,1,5.787,0l3.037,3.037,5.13-22.245-22.245,5.13L89.111,30.2a4.087,4.087,0,0,1,0,5.787L59.354,65.747a4.129,4.129,0,0,1-6.69-1.313L46.877,50.971a3.483,3.483,0,0,0-5.623-1.149l-28.4,26.719Z" transform="translate(6.207 35.399)" fill="#333"></path><g id="&#x30B0;&#x30EB;&#x30FC;&#x30D7;_8968" data-name="&#x30B0;&#x30EB;&#x30FC;&#x30D7; 8968" transform="translate(1 1)"><path id="&#x30D1;&#x30B9;_13462" data-name="&#x30D1;&#x30B9; 13462" d="M35.253,20.026,28.317,13.09A39.074,39.074,0,0,1,13.09,28.317l6.936,6.936a10.8,10.8,0,0,0,15.268,0,10.8,10.8,0,0,0,0-15.227Z" transform="translate(36.531 36.531)" fill="#583ffd"></path><path id="&#x30D1;&#x30B9;_13463" data-name="&#x30D1;&#x30B9; 13463" d="M62.565,31.782A30.782,30.782,0,1,0,31.782,62.565,30.794,30.794,0,0,0,62.565,31.782Zm-16.91-4.351L31.167,41.92a4.03,4.03,0,0,1-2.914,1.19,4.2,4.2,0,0,1-2.914-1.19L17.91,34.491A4.092,4.092,0,0,1,23.7,28.7l4.556,4.556L39.868,21.645a4.092,4.092,0,0,1,5.787,5.787Z" transform="translate(-1 -1)" fill="#583ffd"></path></g></g></g><g id="&#x30B0;&#x30EB;&#x30FC;&#x30D7;_8988" data-name="&#x30B0;&#x30EB;&#x30FC;&#x30D7; 8988" transform="translate(0 29)"><g id="&#x9577;&#x65B9;&#x5F62;_4556" data-name="&#x9577;&#x65B9;&#x5F62; 4556" transform="translate(598 3731)" fill="none" stroke="#e1e1e1" stroke-width="3"><rect width="347" height="309" rx="20" stroke="none"></rect><rect x="1.5" y="1.5" width="344" height="306" rx="18.5" fill="none"></rect></g><g id="&#x30B0;&#x30EB;&#x30FC;&#x30D7;_8987" data-name="&#x30B0;&#x30EB;&#x30FC;&#x30D7; 8987"><g id="&#x30B0;&#x30EB;&#x30FC;&#x30D7;_8986" data-name="&#x30B0;&#x30EB;&#x30FC;&#x30D7; 8986"><path id="&#x30D1;&#x30B9;_13531" data-name="&#x30D1;&#x30B9; 13531" d="M-102.986-18.3c-1.586,0-2.262-.026-3.2-.1a17.008,17.008,0,0,1,.1,2.184v2.86a12.229,12.229,0,0,1-.13,2.158h3.952v-3.666H-86.71v3.666h3.952a17.377,17.377,0,0,1-.13-2.132v-2.886a16.249,16.249,0,0,1,.1-2.184c-.884.078-1.638.1-3.25.1h-.52A29.091,29.091,0,0,0-85.1-21.06l-3.978-.858A18.535,18.535,0,0,1-90.688-18.3h-1.534a21.761,21.761,0,0,0-1.534-3.718l-3.952.7A15.91,15.91,0,0,1-96.356-18.3H-98.1a27.347,27.347,0,0,0-1.976-3.458l-3.822.78a18.6,18.6,0,0,1,1.56,2.678ZM-92.222-4.342h5.772a33.962,33.962,0,0,1,3.718.156V-8.138a33.533,33.533,0,0,1-3.666.182h-4.81a43.08,43.08,0,0,0,3.64-3.094c.39-.364.494-.468.78-.7l-1.9-2.158a12.863,12.863,0,0,1-2.054.1h-7.774a27.639,27.639,0,0,1-2.782-.1v3.51a26.435,26.435,0,0,1,2.756-.1h5.382a9.491,9.491,0,0,1-1.768,1.326h-1.43a8.024,8.024,0,0,1,.078,1.222h-6.4a28.84,28.84,0,0,1-3.536-.182v3.952a32.621,32.621,0,0,1,3.588-.156h6.344v2.47c0,.468-.182.546-1.222.546-.728,0-1.716-.078-3.146-.208A15.274,15.274,0,0,1-99.5,2.288c1.222.052,1.924.078,2.366.078,4.03,0,4.914-.572,4.914-3.094ZM-55.978-18.85a24.465,24.465,0,0,1,.1-2.808,18.086,18.086,0,0,1-2.5.1h-5.59a29.742,29.742,0,0,1-3.224-.156v3.64c.728-.078,1.014-.078,1.924-.1l-1.586,1.534a16.727,16.727,0,0,1,3.068,2.34,20.334,20.334,0,0,1-3.458.858l.624,1.924-1.248-.208a7.367,7.367,0,0,0,.1-1.4v-5.8c0-1.638.026-2.21.078-2.782a17.921,17.921,0,0,1-2.73.13h-5.434a27.271,27.271,0,0,1-3.146-.156v3.666A12.26,12.26,0,0,1-76.7-18.2l-1.742,1.56a15.715,15.715,0,0,1,3.016,2.288,24.177,24.177,0,0,1-3.874.988L-78.156-9.8a8.827,8.827,0,0,1,1.326-.52c1.014-.364,2.262-.832,3.276-1.248a9.625,9.625,0,0,1,.234,1.534c.91.026,1.352.026,1.9.026a11.352,11.352,0,0,0,1.534-.078,5.091,5.091,0,0,1-.494.78H-73.84a26.374,26.374,0,0,1-2.86-.078c.052.832.078,1.326.078,3.068V-1.04a25.442,25.442,0,0,1-.13,3.328h3.978V1.3h10.868v.988h4a24.707,24.707,0,0,1-.13-3.328V-6.37a21.076,21.076,0,0,1,.13-3.016,26.4,26.4,0,0,1-2.886.078H-66.2c.338-.468.338-.468.52-.754.416-.156.546-.208,1.092-.416a25.539,25.539,0,0,0,2.522-1.014,11.81,11.81,0,0,1,.234,1.482c.6,0,1.456.026,1.794.026,2.054,0,2.912-.156,3.432-.65.468-.416.624-.988.624-2.47Zm-16.64,2.366A16.678,16.678,0,0,0-75.036-18.2h3.692v4.368c0,.416-.078.468-.7.494l-.026-2.314c-1.3.546-1.768.754-2.548,1.014Zm11.44.052a17.07,17.07,0,0,0-2.47-1.742h4v4.368c0,.442-.078.494-.754.52v-2.366c-1.4.6-1.82.78-2.652,1.066Zm-11.6,9.984H-61.88v1.014H-72.774Zm0,3.718H-61.88v1.066H-72.774Zm25.87-14.2a20.29,20.29,0,0,1-3.614-.208l.026,4.446a26.607,26.607,0,0,1,3.51-.156h3.25a13.778,13.778,0,0,1-1.3,4.446c-1.3,2.626-3.3,4.472-6.76,6.292a15.029,15.029,0,0,1,3.38,3.952c5.278-3.484,7.748-6.864,8.892-12.116a22.29,22.29,0,0,0,.39-2.6h4.966a60.06,60.06,0,0,1-.494,7.254c-.338,2.262-.65,2.678-1.9,2.678a14.893,14.893,0,0,1-3.38-.52,12.8,12.8,0,0,1,.884,4.576,30.451,30.451,0,0,0,3.406.208c2.886,0,4.134-.832,4.888-3.25.52-1.716.91-6.058,1.092-11.622A3.247,3.247,0,0,1-29.3-15.47l-2.028-1.768a3.76,3.76,0,0,1-1.742.286H-38.74c.052-.624.052-.624.078-1.326a18.656,18.656,0,0,1,.286-3.146l-4.888-.13a7.276,7.276,0,0,1,.078,1.3c0,.806-.052,2.314-.13,3.328ZM-21.346-20.8a26.031,26.031,0,0,1,.156,3.432v5.148a26.975,26.975,0,0,1-.156,3.8H-16.3a34.037,34.037,0,0,1-.13-3.718v-5.174A31.313,31.313,0,0,1-16.3-20.8Zm12.09,0A25.185,25.185,0,0,1-9.1-17.238v2.7a44.151,44.151,0,0,1-.286,5.512A6.712,6.712,0,0,1-13.26-3.978a16.774,16.774,0,0,1-5.148,1.586,11.893,11.893,0,0,1,2.652,4.446A21.776,21.776,0,0,0-10.348-.078a10.693,10.693,0,0,0,5.408-6.6,33.6,33.6,0,0,0,.6-7.566V-17.29c0-1.664.026-2.054.13-3.51Zm20.124,4.134-3.614.546a26.125,26.125,0,0,1-3.822.416l.7,4.446a30.863,30.863,0,0,1,3.874-.728l3.588-.572.6,3.276L7.228-8.5a30.441,30.441,0,0,1-3.718.416l.7,4.42a27.79,27.79,0,0,1,3.562-.728L12.922-5.2,13.6-1.456a19.015,19.015,0,0,1,.468,3.614l4.94-.806a23.174,23.174,0,0,1-.78-3.484L17.5-5.9l4.914-.754c2.184-.312,2.184-.312,3.666-.468l-.78-4.394a24.229,24.229,0,0,1-3.744.806l-4.81.728L16.12-13.26l4.056-.624c2.808-.416,2.808-.416,3.692-.494l-.728-4.368a24.77,24.77,0,0,1-3.718.754l-4.056.624L15.08-18.8a21.192,21.192,0,0,1-.364-2.886l-4.784.728a16.744,16.744,0,0,1,.676,2.938ZM46.41-2.99c.364-2.34.78-5.148,1.014-6.89.338-2.548.338-2.548.676-3.2l-1.976-1.638a2.911,2.911,0,0,1-1.482.286H38.35a23.959,23.959,0,0,1-3.484-.156v3.952c.858-.078,1.638-.1,3.38-.1h4.992c-.364,3.406-.494,4.264-1.118,7.748H35.7a22.905,22.905,0,0,1-3.484-.156V.806C33.15.728,34.008.7,35.7.7H47.866c1.326,0,2.574.026,3.432.1V-3.146a29.669,29.669,0,0,1-3.406.156ZM59.852-16.64a33.947,33.947,0,0,1,3.77-.13h8.424c1.794,0,3.016.052,4,.13v-4.368a24.936,24.936,0,0,1-4.082.208H63.674a23.708,23.708,0,0,1-3.822-.208Zm-2.158,6.5a38.992,38.992,0,0,1,4.134-.156H73.086a11.311,11.311,0,0,1-4,5.2,17.911,17.911,0,0,1-6.864,3.042A14.5,14.5,0,0,1,65.13,2.21a23.4,23.4,0,0,0,7.41-4.056,19.589,19.589,0,0,0,5.772-8.918A5.214,5.214,0,0,1,79.04-12.4l-2.028-2.184a4.231,4.231,0,0,1-2.08.286H61.88a27.528,27.528,0,0,1-4.186-.208ZM91.052-21.424a23.093,23.093,0,0,1-1.014,4.654A119.457,119.457,0,0,1,85.722-3.848a4.815,4.815,0,0,1-.65.026l-.806.026c-.286.026-.494.026-.65.026-.13,0-.338,0-.832-.026l.676,4.862A13.648,13.648,0,0,1,84.89.832L90.844.26c4.03-.416,6.682-.78,10.4-1.43a19.83,19.83,0,0,1,.962,2.912L106.652-.52a56.039,56.039,0,0,0-6.188-12.428l-4.082,1.56A42.868,42.868,0,0,1,99.658-5.2,79.717,79.717,0,0,1,90.74-4.186C92.43-8.5,93.548-11.8,95.576-18.538a10.359,10.359,0,0,1,.676-1.924Z" transform="translate(758 3953)" fill="#583ffe"></path><path id="&#x30D1;&#x30B9;_13530" data-name="&#x30D1;&#x30B9; 13530" d="M111.9-16.094a4.357,4.357,0,0,1,2.184.91,6.118,6.118,0,0,1,2.288,5.122c0,2.782-1.118,4.966-3.12,6.032A13.522,13.522,0,0,1,107.8-2.7a12.775,12.775,0,0,1,2.21,4.264c3.64-.572,5.694-1.4,7.462-2.99a11.188,11.188,0,0,0,3.458-8.4,10.338,10.338,0,0,0-2.548-7.228,11.594,11.594,0,0,0-8.476-3.2,12.431,12.431,0,0,0-9.412,3.822A11.558,11.558,0,0,0,97.5-8.5c0,4.758,2.444,8.086,5.928,8.086,2.366,0,4.108-1.456,5.616-4.784A36.423,36.423,0,0,0,111.9-16.094Zm-4.5.052a33.71,33.71,0,0,1-1.95,7.93c-.78,1.976-1.456,2.886-2.106,2.886-.91,0-1.612-1.456-1.612-3.3a8.412,8.412,0,0,1,2.834-6.188A5.2,5.2,0,0,1,107.406-16.042ZM-58.37,23.568a2.913,2.913,0,0,0,2.912-2.938A2.919,2.919,0,0,0-58.4,17.692,2.885,2.885,0,0,0-61.308,20.5h-13.26a24.994,24.994,0,0,1-4.368-.208v4.68a38,38,0,0,1,4.29-.156h10.868c-1.482,6.058-6.162,10.66-13.078,12.818A13.743,13.743,0,0,1-73.58,42c8.268-3.692,12.792-8.944,14.924-17.29l.156-.676c.026-.078.052-.156.078-.26l.026-.1Zm-.026-4.42a1.5,1.5,0,0,1,1.482,1.482A1.493,1.493,0,0,1-58.4,22.086a1.493,1.493,0,0,1-1.482-1.456A1.5,1.5,0,0,1-58.4,19.148Zm9.178,4.212a33.948,33.948,0,0,1,3.77-.13h8.424c1.794,0,3.016.052,4,.13V18.992A24.936,24.936,0,0,1-37.1,19.2H-45.4a23.708,23.708,0,0,1-3.822-.208Zm-2.158,6.5a38.993,38.993,0,0,1,4.134-.156h11.258a11.311,11.311,0,0,1-4,5.2,17.911,17.911,0,0,1-6.864,3.042A14.5,14.5,0,0,1-43.94,42.21a23.4,23.4,0,0,0,7.41-4.056,19.589,19.589,0,0,0,5.772-8.918A5.214,5.214,0,0,1-30.03,27.6l-2.028-2.184a4.231,4.231,0,0,1-2.08.286H-47.19a27.528,27.528,0,0,1-4.186-.208Zm27.092-6.318a27.768,27.768,0,0,1,7.072,5.486l3.068-4.056a37.929,37.929,0,0,0-7.15-5.1Zm1.612,17.472c.7-.208.858-.234,1.872-.468,4.836-1.118,7.306-2.08,10.114-3.9,3.64-2.34,6.11-5.408,8.476-10.53a16.785,16.785,0,0,1-3.822-3.484,23.937,23.937,0,0,1-2.548,5.1A15.635,15.635,0,0,1-16.2,34.15a26.089,26.089,0,0,1-7.826,1.872Zm27.742-15c.91-.078,2.08-.13,4-.13h8.918c2.106,0,2.782.026,4.264.13V21.254a33.336,33.336,0,0,1-4.316.182H9.126a27.413,27.413,0,0,1-4.056-.182ZM2.444,39.038a40.4,40.4,0,0,1,4.264-.13h13.6a42.56,42.56,0,0,1,4.524.13V34.176a27.413,27.413,0,0,1-4.6.208H6.786a27.7,27.7,0,0,1-4.342-.208Zm27.872-15.5a27.768,27.768,0,0,1,7.072,5.486l3.068-4.056a37.929,37.929,0,0,0-7.15-5.1Zm1.612,17.472c.7-.208.858-.234,1.872-.468,4.836-1.118,7.306-2.08,10.114-3.9,3.64-2.34,6.11-5.408,8.476-10.53a16.785,16.785,0,0,1-3.822-3.484,23.937,23.937,0,0,1-2.548,5.1A15.635,15.635,0,0,1,38.4,34.15a26.089,26.089,0,0,1-7.826,1.872Zm44.8-18.408.806-.286a15.39,15.39,0,0,0-2.158-3.978l-2.574.832a15.727,15.727,0,0,1,1.482,2.5H73.71l-5.9.052a2.915,2.915,0,0,0,.208-.442c.026-.026.13-.286.312-.676.026-.078.13-.312.234-.546.078-.182.156-.338.182-.416.156-.338.182-.364.312-.624l-4.914-.884a9.9,9.9,0,0,1-1.118,3.12,20.784,20.784,0,0,1-6.916,7.93A13.258,13.258,0,0,1,59.8,32.3a25.082,25.082,0,0,0,5.9-6.526l6.916-.078c-1.924,6.058-6.162,10.192-13.026,12.662a13.232,13.232,0,0,1,3.12,3.978c7.8-3.51,12.194-8.346,14.664-16.146a11.651,11.651,0,0,1,.676-1.768Zm-.156-4.55A19.27,19.27,0,0,1,78.7,22.034l2.47-.91a17.41,17.41,0,0,0-2.158-3.874Z" transform="translate(772 3953)"></path></g><g id="mission" transform="translate(708.996 3775.822)"><g id="&#x30B0;&#x30EB;&#x30FC;&#x30D7;_8954" data-name="&#x30B0;&#x30EB;&#x30FC;&#x30D7; 8954" transform="translate(1 54.303)"><path id="&#x30D1;&#x30B9;_13389" data-name="&#x30D1;&#x30B9; 13389" d="M103.507,14H70.7a4.112,4.112,0,0,0-4.1,4.1V38.6H37.9a4.112,4.112,0,0,0-4.1,4.1v8.2H5.1A4.112,4.112,0,0,0,1,55V79.6a4.112,4.112,0,0,0,4.1,4.1h98.406a4.112,4.112,0,0,0,4.1-4.1V18.1A4.112,4.112,0,0,0,103.507,14ZM9.2,59.1H33.8V75.5H9.2ZM42,75.5V46.8H66.6V75.5Zm57.4,0H74.8V22.2h24.6Z" transform="translate(-1 -14)" fill="#333"></path><path id="&#x30D1;&#x30B9;_13390" data-name="&#x30D1;&#x30B9; 13390" d="M24.6,26.2h4.1a4.1,4.1,0,0,0,0-8.2H24.6a4.1,4.1,0,0,0,0,8.2Z" transform="translate(59.455 -1.599)" fill="#333"></path></g><path id="&#x30D1;&#x30B9;_13391" data-name="&#x30D1;&#x30B9; 13391" d="M57.9,5.1H29.2a4.1,4.1,0,0,0-8.2,0v41h8.2V33.8H57.9A4.112,4.112,0,0,0,62,29.7V9.2A4.112,4.112,0,0,0,57.9,5.1Z" transform="translate(62.005)" fill="#583ffd"></path></g></g></g><g id="&#x30B0;&#x30EB;&#x30FC;&#x30D7;_8990" data-name="&#x30B0;&#x30EB;&#x30FC;&#x30D7; 8990" transform="translate(0 29)"><g id="&#x9577;&#x65B9;&#x5F62;_4557" data-name="&#x9577;&#x65B9;&#x5F62; 4557" transform="translate(975 3731)" fill="none" stroke="#e1e1e1" stroke-width="3"><rect width="347" height="309" rx="20" stroke="none"></rect><rect x="1.5" y="1.5" width="344" height="306" rx="18.5" fill="none"></rect></g><g id="&#x30B0;&#x30EB;&#x30FC;&#x30D7;_8989" data-name="&#x30B0;&#x30EB;&#x30FC;&#x30D7; 8989"><path id="&#x30D1;&#x30B9;_13533" data-name="&#x30D1;&#x30B9; 13533" d="M-143.182-21.242c-1.2,0-2.132-.052-2.99-.13.078,1.066.13,2,.13,2.964V-.962A31.224,31.224,0,0,1-146.2,2.21h4.16V1.04h11.258V2.21h4.212a33.742,33.742,0,0,1-.156-3.51V-18.46c0-.858.052-1.794.13-2.912a22.454,22.454,0,0,1-2.886.13Zm1.144,6.162v-2.47h11.258v2.47Zm0,3.588h11.258v2.574h-11.258Zm0,6.11h11.258v2.7h-11.258Zm39.572-.494a41.123,41.123,0,0,0-3.068-6.474l-3.3,1.43A18.984,18.984,0,0,0-106.08-14.9h4.576c-.052,7.436-.234,10.972-.7,12.376-.234.754-.65.962-1.872.962a23.9,23.9,0,0,1-3.016-.234,13.1,13.1,0,0,1,1.014,4.056c.858.026,1.4.026,1.924.026a10.765,10.765,0,0,0,3.8-.546c1.066-.468,1.56-1.248,1.976-3.172a52,52,0,0,0,.676-7.54c.156-6.526.182-7.15.182-8.164A14.53,14.53,0,0,1-97.4-18.9a14.606,14.606,0,0,1-2.184.1h-4.784c.208-.572.286-.78.494-1.482a8.093,8.093,0,0,1,.468-1.274l-4.108-.6a9.2,9.2,0,0,1-.442,1.82,20.729,20.729,0,0,1-2.7,5.356V-17.81c.052-.572.052-.572.078-.806-.6.052-1.3.078-2.184.078h-1.17c.6-1.326.6-1.326,1.326-3.146l-4.134-.494a18.285,18.285,0,0,1-1.092,3.64h-.572a15.825,15.825,0,0,1-2.236-.078,23.272,23.272,0,0,1,.1,2.834V-1.95a29.912,29.912,0,0,1-.156,3.562h3.926V-.7h2.418V.754h3.77c-.052-.806-.078-1.586-.078-2.444v-9.958a16.641,16.641,0,0,1,1.248,1.326c.208-.208.26-.286.416-.442a24.964,24.964,0,0,1,2.73,6.552Zm-14.326-9.048h2.47v3.432h-2.47Zm0,6.89h2.47v3.8h-2.47Zm34.918-5.824A3.961,3.961,0,0,0-85.852-9.88a3.956,3.956,0,0,0,3.978,3.952,3.956,3.956,0,0,0,3.952-3.978A3.95,3.95,0,0,0-81.874-13.858Zm24.154,13a15.876,15.876,0,0,1,1.742,2.626,14.562,14.562,0,0,0,4.186-4.5,14.38,14.38,0,0,0-.052,1.56V-.026a15.767,15.767,0,0,1-.13,2.366H-48.1a16.916,16.916,0,0,1-.156-2.418v-1.17c0-.7,0-.7-.052-1.534a12.153,12.153,0,0,0,1.82,2.314,21.791,21.791,0,0,0,2.548,2.21,18.556,18.556,0,0,1,1.924-3.8A12.955,12.955,0,0,1-46.592-5.8h1.664a20.347,20.347,0,0,1,2.522.1V-9.36a18.346,18.346,0,0,1-2.73.13h-3.146v-1.014H-45.6a23.422,23.422,0,0,1,2.548.1,21.449,21.449,0,0,1-.1-2.522v-6.422a19.608,19.608,0,0,1,.1-2.5c-.52.052-1.144.078-2.158.078h-9.2c-1.144,0-1.82-.026-2.47-.078a19.055,19.055,0,0,1,.1,2.392v6.63a20.343,20.343,0,0,1-.1,2.418,19,19,0,0,1,2.314-.1h2.756V-9.23h-2.73a18.346,18.346,0,0,1-2.73-.13v3.666a20.08,20.08,0,0,1,2.522-.1h1.092A12.328,12.328,0,0,1-57.72-1.924V-4.576a14.249,14.249,0,0,1,.052-1.716,13.407,13.407,0,0,1-1.586.078H-64.22a17.441,17.441,0,0,1-1.95-.052,14.556,14.556,0,0,1,.1,1.924V-.156c0,.806-.052,1.716-.13,2.522H-62.5V1.3h1.4V2h3.458A12.522,12.522,0,0,1-57.72.416Zm5.954-17.55v1.274h-1.612v-1.274Zm3.406,0h1.716v1.274H-48.36Zm-3.406,3.952v1.274h-1.612v-1.274Zm3.406,0h1.742v1.274H-48.36ZM-62.608-3.38h1.534v1.586h-1.534Zm-3.38-15.158c.65-.052,1.3-.078,2.314-.078h3.562c1.04,0,1.638.026,2.314.078v-3.068a17.945,17.945,0,0,1-2.314.1h-3.562a17.689,17.689,0,0,1-2.314-.1Zm-.806,4.16a16.217,16.217,0,0,1,2.106-.1h5.122a12.983,12.983,0,0,1,2.054.078v-3.458c-.65.052-1.04.078-2.106.078h-5.07a11.592,11.592,0,0,1-2.106-.13Zm.806,3.666a12.5,12.5,0,0,1,1.534-.052h5.148a11.149,11.149,0,0,1,1.456.052V-13.65a10.123,10.123,0,0,1-1.456.052h-5.148a12.5,12.5,0,0,1-1.534-.052Zm0,3.692a11.807,11.807,0,0,1,1.482-.052h5.1c.806,0,1.17.026,1.56.052V-9.958a10.545,10.545,0,0,1-1.482.052h-5.122a12.5,12.5,0,0,1-1.534-.052Zm31.746,2.808a5.832,5.832,0,0,1-.858-1.04c.052-.754.078-1.118.078-1.612s0-.546.026-.91l-3.224-.39c.026.312.052.546.052.728,0,.884-.1,2.262-.182,2.912A9.987,9.987,0,0,1-39.832-.312,12.428,12.428,0,0,1-37.1,2.314a12.275,12.275,0,0,0,1.456-3.8,8.509,8.509,0,0,0,4.654,2.964c1.794.39,4,.52,8.866.52.754,0,.754,0,4.082-.078,1.586-.026,2.366-.052,2.366-.052a15.108,15.108,0,0,1,.988-3.978c-.572.052-.962.1-1.2.13a13.85,13.85,0,0,1,1.222-1.612,10.645,10.645,0,0,1-3.3-1.69,17.222,17.222,0,0,1,2,.078,23.553,23.553,0,0,1-.1-2.444V-15.08c0-.884.026-1.482.078-2.054a14.918,14.918,0,0,1-2.08.078h-1.716c.182-.39.39-.832.494-1.066h1.586a24.062,24.062,0,0,1,2.548.13v-3.432a25.189,25.189,0,0,1-2.964.13h-6.136c-1.274,0-2.08-.026-2.938-.1v3.38c.806-.078,1.69-.1,2.548-.1h1.638a10.41,10.41,0,0,1-.468,1.066h-.988a14.72,14.72,0,0,1-2.08-.078,16.787,16.787,0,0,1,.1,2.028V-7.15a14.713,14.713,0,0,1-.1,1.95,13.574,13.574,0,0,1,1.508-.078A9.117,9.117,0,0,1-28.47-3.25a12.53,12.53,0,0,1,1.4,1.534,17.564,17.564,0,0,1-3.588-.442V-4h1.092a15.963,15.963,0,0,1,2.106.1V-7.332c-.7.052-1.222.078-2.106.078h-1.092v-1.43h1.222a18.912,18.912,0,0,1,2.366.078v-3.432a13.9,13.9,0,0,1-1.976.1h-7.826a17.439,17.439,0,0,1-2.444-.1V-8.58a17.682,17.682,0,0,1,2.444-.1h2.626Zm10.686-1.066h3.874l-1.69,1.2A11.139,11.139,0,0,0-18.72-1.794c-1.846.078-3.77.13-5.512.13a11.254,11.254,0,0,0,2.6-2.444Zm.676-9.23h3.25v.832h-3.25Zm0,2.886h3.25v.858h-3.25Zm0,2.886h3.25v.858h-3.25ZM-38.3-14.716a14.2,14.2,0,0,1-.1,2.158c.806-.052,1.378-.078,2.21-.078H-30c.832,0,1.4.026,2.21.078a13.781,13.781,0,0,1-.078-2.132v-4.55a15.184,15.184,0,0,1,.078-2.184,15.434,15.434,0,0,1-2.262.078h-6.136a20.065,20.065,0,0,1-2.21-.078,17.532,17.532,0,0,1,.1,2.184Zm3.666-4.056h3.12v.884h-3.12Zm0,2.938h3.12v.884h-3.12Zm23.088,4.42a32.351,32.351,0,0,1,4.056-.728C-8.528-8.034-10.712-2.86-12.376-.65l4.29,2.262c.156-.364.208-.494.416-.936A56.136,56.136,0,0,0-4.914-6.032a51.554,51.554,0,0,0,1.846-6.474,9.44,9.44,0,0,1,1.04-.052c.91,0,1.274.1,1.56.442A3.054,3.054,0,0,1,.026-10.01a22.973,22.973,0,0,1-.7,5.772c-.286.832-.624,1.17-1.17,1.17A11.985,11.985,0,0,1-5.408-4,12.01,12.01,0,0,1-5.018-.91,11.6,11.6,0,0,1-5.1.6a14.854,14.854,0,0,0,4.134.7A4.966,4.966,0,0,0,1.066.936,4.177,4.177,0,0,0,2.73-.624C3.77-2.418,4.368-5.8,4.368-9.854c0-2.938-.52-4.524-1.846-5.59a5.728,5.728,0,0,0-3.692-1.04c-.364,0-.676.026-1.118.052.1-.6.286-1.586.494-2.782a12.818,12.818,0,0,1,.416-2.054l-4.706-.442v.442a41.444,41.444,0,0,1-.6,5.148c-1.69.208-4.186.416-5.018.416h-.234Zm15.08-5.3A23.784,23.784,0,0,1,8.4-5.356l4.264-2.028a27.049,27.049,0,0,0-5.3-11.1ZM20.93-18.174a50.421,50.421,0,0,0,11.232,3.406l1.378-4.186c-1.222-.182-3.458-.65-5.226-1.118a26.212,26.212,0,0,1-5.3-1.846Zm-2,1.69a15.126,15.126,0,0,1-.156,1.664c-.52,3.588-1.066,7.748-1.2,9a3.119,3.119,0,0,1-.078.52l4.316.182a4.524,4.524,0,0,1,1.456-1.17,11.249,11.249,0,0,1,5.694-1.56c2.34,0,3.692.806,3.692,2.184,0,1.846-2.288,3.068-5.72,3.068a24.13,24.13,0,0,1-6.942-1.222,18.035,18.035,0,0,1,.6,4.628,27.78,27.78,0,0,0,6.526.78A12.754,12.754,0,0,0,34.554-.286,6.574,6.574,0,0,0,37.492-5.8c0-3.692-3.068-6.11-7.7-6.11A12.971,12.971,0,0,0,22.36-9.88,57.1,57.1,0,0,1,23.478-16.2Zm37.362,1.3v2.626c0,.988-.026,1.69-.1,2.73h-2v-2.964a9.044,9.044,0,0,1,.078-1.4h-4a9.819,9.819,0,0,1,.1,1.56v4.524c0,.728-.026,1.352-.078,1.924a17.319,17.319,0,0,1,1.768-.078h3.2a6.792,6.792,0,0,1-3.224,2.288,10.971,10.971,0,0,1,2.262,2.262c-3.172-.13-4.108-.494-5.122-1.9V-9.568a26.851,26.851,0,0,1,.1-2.938,15.034,15.034,0,0,1-2,.1H44.746a12.777,12.777,0,0,1-2.158-.13v3.926a9.141,9.141,0,0,1,1.612-.13h1.118v4.914A15.828,15.828,0,0,1,41.99-1.846l1.69,4.212c.494-.364.494-.364.754-.546A20.543,20.543,0,0,0,47.216-.312c1.742,1.924,3.484,2.418,8.736,2.418,2.99,0,8.476-.078,10.426-.156a19.423,19.423,0,0,1,.962-4.238,88.118,88.118,0,0,1-11.258.572,7.972,7.972,0,0,0,3.432-4.55h4.6c.728,0,1.3.026,1.872.078a17.625,17.625,0,0,1-.078-1.9v-4.5a13.758,13.758,0,0,1,.078-1.638H62.01a13.433,13.433,0,0,1,.078,1.482v2.912H60.06c.052-.962.078-1.612.078-2.7v-2.652h3.926a22.953,22.953,0,0,1,2.6.1v-3.8a16.63,16.63,0,0,1-2.6.13h-.988a26.516,26.516,0,0,0,1.456-2.808l-4.186-.78a20.411,20.411,0,0,1-1.534,3.588H57.226a18.544,18.544,0,0,0-1.768-3.614L51.48-21.346a12.957,12.957,0,0,1,1.56,2.6H51.766a12.777,12.777,0,0,1-2.158-.13v1.118a32.323,32.323,0,0,0-4.342-4.16L42.3-19.11a28.234,28.234,0,0,1,4.81,5.018l2.5-2.522v1.534a22.232,22.232,0,0,1,2.548-.1Zm35.074-2.288a22.593,22.593,0,0,1,2.626.1V-20.93a17.007,17.007,0,0,1-2.626.13h-4.03c.208-.416.26-.546.494-1.014L83.9-22.438A10.336,10.336,0,0,1,81.8-18.746V-20.93a14.4,14.4,0,0,1-2.34.13H76.908l.468-.936-3.9-.6a10.126,10.126,0,0,1-3.848,4.914,11.815,11.815,0,0,1,2.288,3.276c.52-.468.806-.7,1.092-1.014v7.28a20.557,20.557,0,0,1-.1,2.548c.884-.052,1.144-.052,2.626-.052h1.248c-.026.6-.026.6-.026.806H73.164a24.317,24.317,0,0,1-3.016-.156v3.38c.91-.078,1.872-.13,3.016-.13h2.522c-.91.7-2.184,1.014-4.654,1.17A14.231,14.231,0,0,1,73.294,2.73c3.978-.676,5.8-1.82,6.734-4.212h4.55V.26a14.489,14.489,0,0,1-.156,2.21h4.134A14.6,14.6,0,0,1,88.4.234V-1.482h2.34a26.51,26.51,0,0,1,3.172.156V-4.732a24.485,24.485,0,0,1-3.172.156H88.4v-.806h.416c1.456,0,1.82,0,2.6.052a23.274,23.274,0,0,1-.1-2.834v-5.148a25.826,25.826,0,0,1,.1-2.86c-.338.026-.442.026-.7.026a12.734,12.734,0,0,0-.78-1.326ZM84.4-16.12a13.311,13.311,0,0,0,1.04-1.352h.78a13.108,13.108,0,0,1,.7,1.352Zm-9.8,0h-.7c.39-.468.676-.832,1.066-1.352h.806a7.186,7.186,0,0,1,.546,1.352Zm5.486,0a12.278,12.278,0,0,0-.728-1.352H80.73a11.524,11.524,0,0,1,1.794,1.352Zm.468,11.544c.026-.494.026-.494.026-.806h4v.806ZM76.8-13.78h10.66v.7H76.8Zm0,2.678h10.66v.676H76.8Zm0,2.626h10.66v.7H76.8Zm24.024-12.61a12.211,12.211,0,0,1,.13,1.976c0,1.014-.052,3.484-.1,6.11-.13,5.226-.13,5.226-.13,5.9,0,3.64.494,5.3,1.976,6.734a8.392,8.392,0,0,0,6.032,1.976A10.53,10.53,0,0,0,116.9-1.742c1.43-1.586,2.288-3.484,3.276-7.384a15.8,15.8,0,0,1-4.446-2.73,19.757,19.757,0,0,1-1.04,4.706c-1.014,2.808-3.094,4.394-5.772,4.394A3.5,3.5,0,0,1,105.872-4c-.442-.7-.546-1.482-.546-4.082,0-4.342.312-11.284.6-12.922Zm37.96,2.7a29.375,29.375,0,0,1-4.264.676c.234-1.326.39-2.08.416-2.236a8.219,8.219,0,0,1,.338-1.508l-4.862-.364v.39a25.076,25.076,0,0,1-.442,3.9h-.494a27.059,27.059,0,0,1-3.952-.26l-.078,4.238a5.24,5.24,0,0,1,.6-.026h.26c1.118.052,1.664.078,2.5.078h.416A55.525,55.525,0,0,1,124.852-.182l4.784,1.742c.182-.624.182-.624.6-1.872,1.118-3.354,1.274-3.926,1.924-6.214.728-2.7,1.2-4.628,1.638-7.072.806-.052,1.118-.078,2.366-.208l.26,3.692a34.9,34.9,0,0,1,7.306-.65,23.431,23.431,0,0,1,3.406.182l-.078-4.394C146.51-15,145.964-15,145.782-15a44.2,44.2,0,0,0-6.89.39ZM136.032-8.71C134.6-6.63,134-5.174,134-3.666q0,4.914,7.644,4.914a31.847,31.847,0,0,0,5.07-.416c.624-.078.858-.1,1.378-.156l-.312-4.55a19.566,19.566,0,0,1-6.136,1.014c-2.184,0-3.25-.572-3.25-1.768a4.6,4.6,0,0,1,1.4-2.834ZM57.3,23.906a4.357,4.357,0,0,1,2.184.91,6.118,6.118,0,0,1,2.288,5.122c0,2.782-1.118,4.966-3.12,6.032A13.522,13.522,0,0,1,53.2,37.3a12.775,12.775,0,0,1,2.21,4.264c3.64-.572,5.694-1.4,7.462-2.99a11.188,11.188,0,0,0,3.458-8.4,10.338,10.338,0,0,0-2.548-7.228,11.6,11.6,0,0,0-8.476-3.2,12.431,12.431,0,0,0-9.412,3.822A11.558,11.558,0,0,0,42.9,31.5c0,4.758,2.444,8.086,5.928,8.086,2.366,0,4.108-1.456,5.616-4.784A36.423,36.423,0,0,0,57.3,23.906Zm-4.5.052a33.71,33.71,0,0,1-1.95,7.93c-.78,1.976-1.456,2.886-2.106,2.886-.91,0-1.612-1.456-1.612-3.3a8.412,8.412,0,0,1,2.834-6.188A5.2,5.2,0,0,1,52.806,23.958Zm29.77,14.924a27.2,27.2,0,0,1-.156,3.51h4.264a25.78,25.78,0,0,1-.156-3.536v-2h3.64a26.8,26.8,0,0,1,2.886.13V33.162a23.462,23.462,0,0,1-2.886.13h-3.64V30.874h3.614c1.014,0,1.924.052,2.886.13v-3.8a21.828,21.828,0,0,1-2.834.13H86.528V24.92H90.74a28.761,28.761,0,0,1,3.276.156V21.2a25.119,25.119,0,0,1-3.3.156h-5.9c.182-.442.26-.624.52-1.378.182-.494.286-.754.546-1.43l-4.16-.936a19.5,19.5,0,0,1-1.768,4.94,16.8,16.8,0,0,1-3.458,4.914V24.4a31.18,31.18,0,0,0,1.768-4.186c.26-.78.312-.91.546-1.482L74.75,17.484a13.092,13.092,0,0,1-1.014,3.328,16.948,16.948,0,0,1-4.5,6.6,17.736,17.736,0,0,1,1.612,4.732,18.917,18.917,0,0,0,1.794-2c-.026.91-.026.91-.052,1.768v7.1a28.131,28.131,0,0,1-.156,3.276h4.212a31.989,31.989,0,0,1-.156-3.3V27.754a17.667,17.667,0,0,1,2.288,3.51,26.866,26.866,0,0,0,3.8-5.3ZM116.35,25.96a16.05,16.05,0,0,1-1.742,4.862,40.3,40.3,0,0,1-.728-6.058h3.874a32.666,32.666,0,0,1,3.406.156V20.994a15.661,15.661,0,0,1-2.574.13l1.534-1.274a18.98,18.98,0,0,0-3.3-2.418l-2.5,2.314a15.688,15.688,0,0,1,2.08,1.378h-2.626V19.9a13.214,13.214,0,0,1,.13-1.872h-4.238a25.818,25.818,0,0,1,.156,3.094h-7.358c-1.378,0-2.47-.052-3.536-.13a33.558,33.558,0,0,1,.156,3.432,54.491,54.491,0,0,1-.754,10.556,12.062,12.062,0,0,1-1.716,4.264,17.666,17.666,0,0,1,3.12,3.224,15.681,15.681,0,0,0,2.418-6.11,16.755,16.755,0,0,1,.6,2.86c.416.026.676.026.936.026a12.87,12.87,0,0,0,2.7-.286,15.415,15.415,0,0,1,1.924,3.12,23.959,23.959,0,0,0,5.2-3.874c1.794,2.574,3.406,3.848,4.888,3.848,1.586,0,2.6-1.69,3.276-5.59a13.935,13.935,0,0,1-2.99-2.34,12.658,12.658,0,0,1-.728,3.354,7.829,7.829,0,0,1-1.794-2.366,32.186,32.186,0,0,0,3.484-6.5,12.188,12.188,0,0,1,.494-1.248Zm-13.39,1.508c.026-.858.026-1.274.026-2.7h6.994a33.289,33.289,0,0,0,1.768,9.984,19.1,19.1,0,0,1-3.562,2.808,16.489,16.489,0,0,0,.806-5.408c.156-4.03.156-4.03.208-4.758a14.316,14.316,0,0,1-1.716.078ZM105.248,31c-.078,2.574-.156,3.562-.39,4.082-.182.416-.39.52-1.014.52a8.929,8.929,0,0,1-1.534-.156c.208-1.378.364-2.678.494-4.446Z" transform="translate(1149 3953)"></path><path id="&#x30D1;&#x30B9;_13532" data-name="&#x30D1;&#x30B9; 13532" d="M-62.634-.806V.936h4.706a35.043,35.043,0,0,1-.182-4.29V-16.536c0-1.222.026-2.158.078-3.068a29.548,29.548,0,0,1-3.224.1H-75.27a30.443,30.443,0,0,1-3.146-.1c.078,1.066.1,1.872.1,2.99V-3.25A33.124,33.124,0,0,1-78.52.988h4.732V-.806Zm0-4.16H-73.788V-15.34h11.154Zm10.14-2.444c1.586-.13,2.444-.156,5.356-.156h12.376a50.182,50.182,0,0,1,5.356.156v-5.018a42.66,42.66,0,0,1-5.33.234H-47.164a36.843,36.843,0,0,1-5.33-.234Zm36.556,8.944a32.705,32.705,0,0,1-.156-3.978V-9.2a.721.721,0,0,0,.234.13,7.938,7.938,0,0,0,.936.39A48.865,48.865,0,0,1-6.734-4.16l2.47-4.42a55.365,55.365,0,0,0-11.83-5.408V-17.55a27.457,27.457,0,0,1,.13-3.8h-5.018a27.221,27.221,0,0,1,.182,3.77V-2.444c-.026,2.132-.052,2.886-.156,3.978Zm4.264-20.306a17.629,17.629,0,0,1,2.574,3.8l2.47-1.2A18.574,18.574,0,0,0-9.2-19.89Zm3.588-1.612a19.961,19.961,0,0,1,2.548,3.718l2.392-1.17a18.278,18.278,0,0,0-2.6-3.614Zm26.858,5.1a18.047,18.047,0,0,1-1.664,2.522,28.594,28.594,0,0,1-4.056,4.108,40.335,40.335,0,0,0-4.5-4.134L4.992-10.3a38.763,38.763,0,0,1,5.226,5.174,43.83,43.83,0,0,1,5.018,6.786l3.9-3.042C17.888-3.068,17.16-4,16.042-5.33a34.858,34.858,0,0,0,8.242-9.958,5.992,5.992,0,0,1,1.2-1.664l-2.5-2.808a4.94,4.94,0,0,1-1.794.26l-14.248.026a32.707,32.707,0,0,1-4.29-.208v4.576c1.144-.1,2.054-.13,4.212-.13Zm12.376.754A33.166,33.166,0,0,1,33.462-7.8l4.056-1.222A32.755,32.755,0,0,0,35-15.6Zm5.772-1.118a30.591,30.591,0,0,1,2.34,6.526l3.978-1.222a26.6,26.6,0,0,0-2.522-6.344Zm8.918-.52a18.167,18.167,0,0,1-1.144,5.486C43.082-6.37,40.248-3.77,35.022-1.742a13.26,13.26,0,0,1,2.86,3.666A35.2,35.2,0,0,0,41.028.182,18.9,18.9,0,0,0,46.488-5.1a23.462,23.462,0,0,0,3.25-8.476,10.457,10.457,0,0,1,.39-1.586Zm32.292-.26a2.913,2.913,0,0,0,2.912-2.938A2.919,2.919,0,0,0,78.1-22.308,2.885,2.885,0,0,0,75.192-19.5H61.932a25,25,0,0,1-4.368-.208v4.68a38,38,0,0,1,4.29-.156H72.722C71.24-9.126,66.56-4.524,59.644-2.366A13.743,13.743,0,0,1,62.92,2c8.268-3.692,12.792-8.944,14.924-17.29L78-15.964c.026-.078.052-.156.078-.26l.026-.1Zm-.026-4.42a1.5,1.5,0,0,1,1.482,1.482A1.493,1.493,0,0,1,78.1-17.914a1.493,1.493,0,0,1-1.482-1.456A1.5,1.5,0,0,1,78.1-20.852Z" transform="translate(1109 3993)" fill="#583ffe"></path></g><g id="business_plan" data-name="business plan" transform="translate(1085.953 3775.832)"><g id="&#x30B0;&#x30EB;&#x30FC;&#x30D7;_8928" data-name="&#x30B0;&#x30EB;&#x30FC;&#x30D7; 8928" transform="translate(0.98 0.99)"><path id="&#x30D1;&#x30B9;_13298" data-name="&#x30D1;&#x30B9; 13298" d="M113.782,40.626v-11.6A14.313,14.313,0,1,0,95.993,11.237h-19.8a14.269,14.269,0,0,0-27.381,0h-27.3a4.1,4.1,0,0,0,0,8.2h27.3a14.269,14.269,0,0,0,27.381,0h19.8a14.412,14.412,0,0,0,9.591,9.591v11.6a14.412,14.412,0,0,0-9.591,9.591h-19.8a14.269,14.269,0,0,0-27.381,0h-19.8A14.313,14.313,0,1,0,11.227,68.007V85.755a14.313,14.313,0,1,0,17.789,17.789H62.464a4.1,4.1,0,1,0,0-8.2H29.1a14.412,14.412,0,0,0-9.591-9.591V68.007A14.412,14.412,0,0,0,29.1,58.416H48.9a14.269,14.269,0,0,0,27.381,0h19.8a14.313,14.313,0,1,0,17.789-17.789Zm-51.236-19.1a6.148,6.148,0,1,1,6.148-6.148A6.14,6.14,0,0,1,62.546,21.526ZM21.556,99.4a6.148,6.148,0,1,1-6.148-6.148A6.14,6.14,0,0,1,21.556,99.4Zm-6.148-38.94a6.148,6.148,0,1,1,6.148-6.148A6.14,6.14,0,0,1,15.408,60.465Zm47.137,0a6.148,6.148,0,1,1,6.148-6.148A6.14,6.14,0,0,1,62.546,60.465Zm40.989-45.088a6.148,6.148,0,1,1,6.148,6.148A6.14,6.14,0,0,1,103.535,15.377Zm6.148,45.088a6.148,6.148,0,1,1,6.148-6.148A6.14,6.14,0,0,1,109.683,60.465Z" transform="translate(-0.98 -0.99)" fill="#333"></path><path id="&#x30D1;&#x30B9;_13299" data-name="&#x30D1;&#x30B9; 13299" d="M5.1,11.7H7.148a4.1,4.1,0,0,0,0-8.2H5.1a4.1,4.1,0,0,0,0,8.2Z" transform="translate(-0.918 6.788)" fill="#333"></path></g><path id="&#x30D1;&#x30B9;_13300" data-name="&#x30D1;&#x30B9; 13300" d="M55.89,19H31.3A12.333,12.333,0,0,0,19,31.3V55.89a12.333,12.333,0,0,0,12.3,12.3H55.89a12.333,12.333,0,0,0,12.3-12.3V31.3A12.333,12.333,0,0,0,55.89,19Zm.861,21.191L44.167,52.775a4.057,4.057,0,0,1-2.91,1.189,4.233,4.233,0,0,1-2.91-1.189l-7.911-7.911a4.087,4.087,0,1,1,5.779-5.779l5.042,5.042,9.673-9.673a4.087,4.087,0,0,1,5.779,5.779Z" transform="translate(55.842 55.811)" fill="#583ffd"></path></g></g><g id="&#x30B0;&#x30EB;&#x30FC;&#x30D7;_8985" data-name="&#x30B0;&#x30EB;&#x30FC;&#x30D7; 8985" transform="translate(0 29)"><g id="&#x9577;&#x65B9;&#x5F62;_4555" data-name="&#x9577;&#x65B9;&#x5F62; 4555" transform="translate(222 3731)" fill="none" stroke="#e1e1e1" stroke-width="3"><rect width="347" height="309" rx="20" stroke="none"></rect><rect x="1.5" y="1.5" width="344" height="306" rx="18.5" fill="none"></rect></g><g id="&#x30B0;&#x30EB;&#x30FC;&#x30D7;_8984" data-name="&#x30B0;&#x30EB;&#x30FC;&#x30D7; 8984"><path id="&#x30D1;&#x30B9;_13529" data-name="&#x30D1;&#x30B9; 13529" d="M-117.754-17.238a12.878,12.878,0,0,1,.858,2h-1.4a22.233,22.233,0,0,1-2.548-.1c.078.988.1,1.508.1,2.47v2.106a14.247,14.247,0,0,1-.156,2.21h3.354v1.56c.858-.078,1.716-.1,2.678-.1h1.248l-2.938,1.2a32.1,32.1,0,0,0,3.328,2.938,30.513,30.513,0,0,1-7.878,1.638,11.383,11.383,0,0,1,1.924,3.848,32.7,32.7,0,0,0,9.8-3.094A27.974,27.974,0,0,0-98.774,2.392,14.545,14.545,0,0,1-97.032-1.69a33.709,33.709,0,0,1-8.476-1.326A25.059,25.059,0,0,0-101.816-6.5c.7-.806.78-.884,1.248-1.352l-.624-.754H-97.5a14.359,14.359,0,0,1-.156-2.236v-2.106c0-1.118.026-1.69.078-2.392a20.839,20.839,0,0,1-2.678.1h-1.2c.338-.572.364-.624,1.222-2.262l-2.132-.624c.988-.13,2.678-.442,3.8-.676l-2.444-3.536c-3.016.962-8.736,1.508-16.172,1.508-.832,0-1.56,0-3.068-.052a14.941,14.941,0,0,1,1.2,3.64Zm4.94,2c-.26-.728-.442-1.222-.806-2.054,1.2-.052,1.352-.052,1.976-.078.286.728.494,1.3.754,2.132Zm8.32-2.652a25.606,25.606,0,0,1-1.2,2.652h-1.3c-.26-.988-.416-1.534-.7-2.392Zm-12.4,6.24h15.366V-9l-1.352-1.612a15.291,15.291,0,0,1-2.184.1h-9.8c-.728,0-1.248-.026-2.028-.052Zm10.348,4.55a14.079,14.079,0,0,1-2.964,2.366,15.02,15.02,0,0,1-3.2-2.366Zm27.17-4.394v.754H-82.29c-.962,0-1.482-.026-2.054-.078.052.572.078,1.118.078,2.262v3.588a3.368,3.368,0,0,1-.806-.078v3.406a5.621,5.621,0,0,1,.806-.078v.468c0,1.274-.026,2.106-.052,2.522-.052.65-.052.65-.078,1.014h3.8a20.676,20.676,0,0,1-.156-3.536v-.468h6.474v.6c0,.39-.208.468-1.118.468-.468,0-1.222-.052-2.08-.13a8.784,8.784,0,0,1,.6,2.886c.338,0,.624.026.806.026.676.026,1.144.052,1.3.052a9.3,9.3,0,0,0,3.042-.416c.7-.338.962-.988.962-2.288v-1.2c.6.026.858.052,1.274.1V-5.07a5.994,5.994,0,0,1-1.274.1V-8.372a21.6,21.6,0,0,1,.1-2.47,17.188,17.188,0,0,1-2.314.1h-2.7v-.754h4.394a10.506,10.506,0,0,1,1.768.1v-2.938a12.759,12.759,0,0,1-1.768.078h-1.664v-.728h1.066a12.306,12.306,0,0,1,1.508.078V-17.29a9.365,9.365,0,0,1-1.456.078h-1.118v-.728h1.534a15.062,15.062,0,0,1,1.586.078v-2.782a8.9,8.9,0,0,1-1.612.1h-1.508A4.24,4.24,0,0,1-72.8-22h-3.874a5.094,5.094,0,0,1,.13,1.456h-2.314A4.42,4.42,0,0,1-78.7-22h-3.874a5.205,5.205,0,0,1,.13,1.456H-83.2a11.614,11.614,0,0,1-1.742-.1v2.782a15.062,15.062,0,0,1,1.586-.078h.91v.728h-.572a11.728,11.728,0,0,1-1.508-.078V-14.9a12.306,12.306,0,0,1,1.508-.078h.572v.728H-83.3a18.253,18.253,0,0,1-1.846-.078v2.938a12.652,12.652,0,0,1,1.846-.1Zm.234,6.942h-1.612v-.936h1.612Zm3.25,0v-.936h1.612v.936Zm-3.25-2.886h-1.612V-8.4h1.612Zm3.25,0V-8.4h1.612v.962Zm-2.964-6.812v-.728h2.314v.728Zm0-2.964v-.728h2.314v.728Zm-14.43-1.378c.728-.052,1.274-.078,2.34-.078h2.938c1.092,0,1.69.026,2.34.078v-3.068a18.138,18.138,0,0,1-2.34.1h-2.938a18.139,18.139,0,0,1-2.34-.1Zm-.78,4.16a15.789,15.789,0,0,1,2.08-.1h4.6a12.417,12.417,0,0,1,2.028.078v-3.458a20.208,20.208,0,0,1-2.08.078h-4.55a15.539,15.539,0,0,1-2.08-.1Zm.832,3.64c.442-.026.78-.052,1.534-.052h4.524a11.149,11.149,0,0,1,1.456.052v-2.938a10.527,10.527,0,0,1-1.456.052H-91.7c-.754,0-1.092-.026-1.534-.052Zm0,3.692a11.807,11.807,0,0,1,1.482-.052h4.472a10.043,10.043,0,0,1,1.56.078v-2.99a11.167,11.167,0,0,1-1.482.052h-4.5a12.727,12.727,0,0,1-1.534-.052Zm3.094,9.386V1.274h1.4V1.95h3.2c0-.156-.026-.676-.052-1.586v-4.94a15.257,15.257,0,0,1,.052-1.768,10.1,10.1,0,0,1-1.534.078H-91.65c-.832,0-1.04,0-1.872-.052a15.385,15.385,0,0,1,.1,1.976V-.234c0,.832-.052,1.742-.13,2.522Zm-.13-5.72h1.56v1.638h-1.56Zm28.99-17.81c-1.2,0-2.132-.052-2.99-.13.078,1.066.13,2,.13,2.964V-.962A31.226,31.226,0,0,1-64.3,2.21h4.16V1.04H-48.88V2.21h4.212a33.742,33.742,0,0,1-.156-3.51V-18.46c0-.858.052-1.794.13-2.912a22.454,22.454,0,0,1-2.886.13Zm1.144,6.162v-2.47H-48.88v2.47Zm0,3.588H-48.88v2.574H-60.138Zm0,6.11H-48.88v2.7H-60.138Zm39.572-.494a41.123,41.123,0,0,0-3.068-6.474l-3.3,1.43A18.984,18.984,0,0,0-24.18-14.9H-19.6c-.052,7.436-.234,10.972-.7,12.376-.234.754-.65.962-1.872.962a23.905,23.905,0,0,1-3.016-.234A13.1,13.1,0,0,1-24.18,2.262c.858.026,1.4.026,1.924.026a10.765,10.765,0,0,0,3.8-.546c1.066-.468,1.56-1.248,1.976-3.172a52,52,0,0,0,.676-7.54c.156-6.526.182-7.15.182-8.164A14.53,14.53,0,0,1-15.5-18.9a14.606,14.606,0,0,1-2.184.1h-4.784c.208-.572.286-.78.494-1.482a8.094,8.094,0,0,1,.468-1.274l-4.108-.6a9.2,9.2,0,0,1-.442,1.82,20.729,20.729,0,0,1-2.7,5.356V-17.81c.052-.572.052-.572.078-.806-.6.052-1.3.078-2.184.078h-1.17c.6-1.326.6-1.326,1.326-3.146l-4.134-.494a18.285,18.285,0,0,1-1.092,3.64H-36.5a15.825,15.825,0,0,1-2.236-.078,23.273,23.273,0,0,1,.1,2.834V-1.95a29.911,29.911,0,0,1-.156,3.562h3.926V-.7h2.418V.754h3.77c-.052-.806-.078-1.586-.078-2.444v-9.958a16.641,16.641,0,0,1,1.248,1.326c.208-.208.26-.286.416-.442a24.964,24.964,0,0,1,2.73,6.552Zm-14.326-9.048h2.47v3.432h-2.47Zm0,6.89h2.47v3.8h-2.47Zm25.714-13a21.4,21.4,0,0,1-.39,2.782,56.238,56.238,0,0,0-.988,10.01A54.933,54.933,0,0,0-9.88-.026a10.446,10.446,0,0,1,.13,1.378l4.472-.208A7.278,7.278,0,0,1-5.356-.13,25.655,25.655,0,0,1-4.342-7.41l-2-.676A48.882,48.882,0,0,1-4.368-20.644Zm6.812,6.76c.364.026.546.026.754.052a42.9,42.9,0,0,0,4.472.208c1.794,0,3.692-.1,5.486-.286,1.43-.156,1.69-.182,1.924-.182l-.182-4.446a33.728,33.728,0,0,1-7.748.65,21.717,21.717,0,0,1-4.628-.39Zm1.534,3.458c-.7,1.014-.858,1.274-1.222,1.872A8.148,8.148,0,0,0-3.3-4.888,4.816,4.816,0,0,0-.91-.754,10.6,10.6,0,0,0,4.472.338,31.839,31.839,0,0,0,8.97,0C10.5-.234,10.5-.234,11.18-.312l-.26-4.6A19.323,19.323,0,0,1,4.446-3.848c-2.21,0-3.38-.65-3.38-1.846,0-.936.546-2.054,1.742-3.588Zm20.982-.416a24.025,24.025,0,0,1,2.418-.1h9.464a21.812,21.812,0,0,1,2.5.1v-1.43a27.73,27.73,0,0,0,3.51,1.69,14.58,14.58,0,0,1,1.82-4.082,21.613,21.613,0,0,1-6.11-2.886A14.86,14.86,0,0,1,29.3-22.022H25.064a15.478,15.478,0,0,1-4.316,4.186,20.638,20.638,0,0,1-6.032,2.964,13.911,13.911,0,0,1,1.95,3.822,25.284,25.284,0,0,0,3.484-1.664Zm3.432-3.692a18.454,18.454,0,0,0,3.666-3.588,20.2,20.2,0,0,0,3.822,3.588ZM22.074,2.236V1.17H32.5V2.236h4.186A17.356,17.356,0,0,1,36.53-.65V-7.1a19.628,19.628,0,0,1,.13-2.756c-.624.052-1.378.078-2.522.078H20.41c-1.144,0-1.9-.026-2.5-.078a25.714,25.714,0,0,1,.13,2.756V-.676a21.979,21.979,0,0,1-.156,2.912Zm0-8.4H32.5v3.718H22.074ZM44.252-2.288a22.221,22.221,0,0,1,1.69-2c.676-.7.676-.7.962-1.04-.052,1.04-.052,1.04-.052,1.378,0,4.5,0,4.654-.156,5.746H51.4c-.13-1.3-.234-5.252-.234-8.528,0-.52,0-1.04.026-2.236a12.6,12.6,0,0,1,3.016-2.184,7.909,7.909,0,0,1,3.9-1.274,3.56,3.56,0,0,1,3.848,3.874c0,2.964-1.95,4.836-5.044,4.836a12.957,12.957,0,0,1-4.264-.806A13,13,0,0,1,53.4.052a13.719,13.719,0,0,0,3.64.468c5.694,0,9.412-3.536,9.412-9,0-4.81-3.2-8.138-7.852-8.138A11.075,11.075,0,0,0,53.976-15.5a16.994,16.994,0,0,0-2.808,1.716,1.973,1.973,0,0,0,.026-.416,2.124,2.124,0,0,1,.026-.364,12.847,12.847,0,0,1,1.638-1.69l-1.482-1.326a24.188,24.188,0,0,1,.39-3.874l-4.628-.026c.052.624.078.858.078,1.222v.182c0,.286,0,.572-.026.832a18.851,18.851,0,0,1-.052,2.028c-.65.052-2.808.13-3.094.13-.182,0-.182,0-.988-.052l.208,4.056a31.722,31.722,0,0,1,3.744-.364c0,.572,0,.572-.026,1.43-.026.52-.026.806-.052,1.456a59.945,59.945,0,0,1-4.68,4.082Zm29.8-18.746a22.58,22.58,0,0,1,.208,4.108v.78c-2.158.1-3.406.156-3.8.156a5.837,5.837,0,0,1-.884-.052l.26,4.342a38.831,38.831,0,0,1,4.42-.39V-10.5a57.7,57.7,0,0,0,.234,6.838C74.88-1.326,75.79-.1,77.74.65a17.232,17.232,0,0,0,5.486.65A52.9,52.9,0,0,0,89.284.936c1.482-.182,1.482-.182,2.574-.26l-.286-4.784a24.765,24.765,0,0,1-8.138,1.17c-3.354,0-4.342-.364-4.68-1.716-.182-.754-.208-2-.208-7.644,2.054-.1,4.264-.208,6.656-.286-.052,2.938-.208,3.432-1.04,3.432a9.159,9.159,0,0,1-3.51-1.014,18.769,18.769,0,0,1,.312,3.588v.65a12.273,12.273,0,0,0,3.952.806,4.1,4.1,0,0,0,3.146-1.066c.988-1.118,1.274-2.6,1.274-6.474,2.132-.026,2.21-.026,2.548-.026.832,0,1.3.026,2.184.078l-.026-4.42c-.858.1-.858.1-4.706.26V-18.9a18.473,18.473,0,0,1,.13-2.444H84.994c.1.884.208,2.86.208,4.446v.286c-2.886.13-3.926.182-6.6.286a30.483,30.483,0,0,1,.26-4.706Zm37.44,2.652a29.375,29.375,0,0,1-4.264.676c.234-1.326.39-2.08.416-2.236a8.219,8.219,0,0,1,.338-1.508l-4.862-.364v.39a25.076,25.076,0,0,1-.442,3.9h-.494a27.059,27.059,0,0,1-3.952-.26l-.078,4.238a5.24,5.24,0,0,1,.6-.026h.26c1.118.052,1.664.078,2.5.078h.416A55.525,55.525,0,0,1,97.552-.182l4.784,1.742c.182-.624.182-.624.6-1.872,1.118-3.354,1.274-3.926,1.924-6.214.728-2.7,1.2-4.628,1.638-7.072.806-.052,1.118-.078,2.366-.208l.26,3.692a34.9,34.9,0,0,1,7.306-.65,23.431,23.431,0,0,1,3.406.182l-.078-4.394C119.21-15,118.664-15,118.482-15a44.2,44.2,0,0,0-6.89.39ZM108.732-8.71C107.3-6.63,106.7-5.174,106.7-3.666q0,4.914,7.644,4.914a31.847,31.847,0,0,0,5.07-.416c.624-.078.858-.1,1.378-.156l-.312-4.55a19.566,19.566,0,0,1-6.136,1.014c-2.184,0-3.25-.572-3.25-1.768a4.6,4.6,0,0,1,1.4-2.834ZM30,23.906a4.357,4.357,0,0,1,2.184.91,6.118,6.118,0,0,1,2.288,5.122c0,2.782-1.118,4.966-3.12,6.032A13.522,13.522,0,0,1,25.9,37.3a12.774,12.774,0,0,1,2.21,4.264c3.64-.572,5.694-1.4,7.462-2.99a11.188,11.188,0,0,0,3.458-8.4,10.338,10.338,0,0,0-2.548-7.228A11.6,11.6,0,0,0,28,19.746a12.431,12.431,0,0,0-9.412,3.822A11.558,11.558,0,0,0,15.6,31.5c0,4.758,2.444,8.086,5.928,8.086,2.366,0,4.108-1.456,5.616-4.784A36.423,36.423,0,0,0,30,23.906Zm-4.5.052a33.71,33.71,0,0,1-1.95,7.93c-.78,1.976-1.456,2.886-2.106,2.886-.91,0-1.612-1.456-1.612-3.3a8.412,8.412,0,0,1,2.834-6.188A5.2,5.2,0,0,1,25.506,23.958Zm29.77,14.924a27.2,27.2,0,0,1-.156,3.51h4.264a25.78,25.78,0,0,1-.156-3.536v-2h3.64a26.8,26.8,0,0,1,2.886.13V33.162a23.462,23.462,0,0,1-2.886.13h-3.64V30.874h3.614c1.014,0,1.924.052,2.886.13v-3.8a21.829,21.829,0,0,1-2.834.13H59.228V24.92H63.44a28.761,28.761,0,0,1,3.276.156V21.2a25.119,25.119,0,0,1-3.3.156h-5.9c.182-.442.26-.624.52-1.378.182-.494.286-.754.546-1.43l-4.16-.936a19.5,19.5,0,0,1-1.768,4.94,16.8,16.8,0,0,1-3.458,4.914V24.4a31.179,31.179,0,0,0,1.768-4.186c.26-.78.312-.91.546-1.482L47.45,17.484a13.093,13.093,0,0,1-1.014,3.328,16.948,16.948,0,0,1-4.5,6.6,17.736,17.736,0,0,1,1.612,4.732,18.916,18.916,0,0,0,1.794-2c-.026.91-.026.91-.052,1.768v7.1a28.13,28.13,0,0,1-.156,3.276h4.212a31.99,31.99,0,0,1-.156-3.3V27.754a17.666,17.666,0,0,1,2.288,3.51,26.866,26.866,0,0,0,3.8-5.3ZM89.05,25.96a16.05,16.05,0,0,1-1.742,4.862,40.3,40.3,0,0,1-.728-6.058h3.874a32.666,32.666,0,0,1,3.406.156V20.994a15.661,15.661,0,0,1-2.574.13L92.82,19.85a18.98,18.98,0,0,0-3.3-2.418l-2.5,2.314a15.689,15.689,0,0,1,2.08,1.378H86.476V19.9a13.213,13.213,0,0,1,.13-1.872H82.368a25.818,25.818,0,0,1,.156,3.094H75.166c-1.378,0-2.47-.052-3.536-.13a33.558,33.558,0,0,1,.156,3.432,54.491,54.491,0,0,1-.754,10.556,12.061,12.061,0,0,1-1.716,4.264,17.666,17.666,0,0,1,3.12,3.224,15.681,15.681,0,0,0,2.418-6.11,16.755,16.755,0,0,1,.6,2.86c.416.026.676.026.936.026a12.87,12.87,0,0,0,2.7-.286,15.415,15.415,0,0,1,1.924,3.12,23.959,23.959,0,0,0,5.2-3.874c1.794,2.574,3.406,3.848,4.888,3.848,1.586,0,2.6-1.69,3.276-5.59a13.935,13.935,0,0,1-2.99-2.34,12.658,12.658,0,0,1-.728,3.354,7.829,7.829,0,0,1-1.794-2.366,32.186,32.186,0,0,0,3.484-6.5,12.186,12.186,0,0,1,.494-1.248ZM75.66,27.468c.026-.858.026-1.274.026-2.7H82.68a33.289,33.289,0,0,0,1.768,9.984,19.1,19.1,0,0,1-3.562,2.808,16.489,16.489,0,0,0,.806-5.408c.156-4.03.156-4.03.208-4.758a14.316,14.316,0,0,1-1.716.078ZM77.948,31c-.078,2.574-.156,3.562-.39,4.082-.182.416-.39.52-1.014.52a8.929,8.929,0,0,1-1.534-.156c.208-1.378.364-2.678.494-4.446Z" transform="translate(395 3953)"></path><path id="&#x30D1;&#x30B9;_13528" data-name="&#x30D1;&#x30B9; 13528" d="M-90.038-18.122c-1.69,0-2.158-.026-3.146-.1a17.089,17.089,0,0,1,.1,2.158v2.626a11.628,11.628,0,0,1-.13,2.08h3.38v-3.874h16.3v3.874h3.354a16.39,16.39,0,0,1-.13-2.054v-2.652a16.318,16.318,0,0,1,.1-2.158,31.891,31.891,0,0,1-3.224.1h-.832a31.174,31.174,0,0,0,1.69-2.938l-3.354-.806a16.381,16.381,0,0,1-1.9,3.744H-79.69A22.772,22.772,0,0,0-81.354-22l-3.3.728A16.733,16.733,0,0,1-83.2-18.122h-2.262a23,23,0,0,0-2.21-3.588l-3.2.78a16.567,16.567,0,0,1,1.794,2.808Zm10.27,13.364H-73.5a30.047,30.047,0,0,1,3.458.156V-8.008a24.739,24.739,0,0,1-3.432.182h-5.8a40.04,40.04,0,0,0,4.628-3.614c.286-.26.39-.364.676-.6l-1.664-1.846a12.32,12.32,0,0,1-2,.1h-8.216a25.981,25.981,0,0,1-2.7-.1v3.068a26.406,26.406,0,0,1,2.678-.1h6.266A12.263,12.263,0,0,1-82-9.23h-1.274a10.543,10.543,0,0,1,.078,1.4h-6.76a25.126,25.126,0,0,1-3.328-.182V-4.6a28.674,28.674,0,0,1,3.354-.156H-83.2v3.2c0,.468-.182.546-1.274.546-.78,0-1.82-.078-3.2-.208a11.813,11.813,0,0,1,.988,3.276c1.17.026,2,.052,2.678.052,3.458,0,4.238-.494,4.238-2.756ZM-43.5-18.72a22.916,22.916,0,0,1,.1-2.73,22.932,22.932,0,0,1-2.5.1H-51.4a25.375,25.375,0,0,1-3.042-.156v3.12a16.441,16.441,0,0,1,1.9-.1l-1.43,1.664a17.794,17.794,0,0,1,3.328,2.34,20.636,20.636,0,0,1-3.8,1.04l.65,2-1.4-.234a7.143,7.143,0,0,0,.1-1.352V-18.8a21.949,21.949,0,0,1,.078-2.7,16.946,16.946,0,0,1-2.678.13h-5.46a24.3,24.3,0,0,1-2.964-.156v3.146a12.584,12.584,0,0,1,2.314-.13l-1.534,1.69a15.411,15.411,0,0,1,3.224,2.288,23.529,23.529,0,0,1-4.264,1.274l1.014,3.042a6.146,6.146,0,0,1,1.222-.52c1.2-.468,2-.78,3.38-1.4a7.874,7.874,0,0,1,.364,1.924c.546.026,1.3.052,1.872.052a9.145,9.145,0,0,0,1.872-.156c-.312.546-.416.676-.65,1.04h-3.484c-1.534,0-2-.026-2.86-.078a27.59,27.59,0,0,1,.1,3.016V-.962A22.883,22.883,0,0,1-63.7,2.21h3.432V1.17h11.31V2.21H-45.5a22.973,22.973,0,0,1-.13-3.172V-6.37a22.142,22.142,0,0,1,.1-2.99c-.806.052-1.3.078-2.886.078h-5.356c.39-.572.494-.728.858-1.326a6.337,6.337,0,0,1,.858-.338c.884-.338,1.4-.546,2.6-1.066a10.232,10.232,0,0,1,.312,1.82c.78.026,1.56.052,1.95.052,1.768,0,2.574-.156,3.068-.572.494-.39.624-.884.624-2.262Zm-16.51,2.132a19.226,19.226,0,0,0-2.964-1.924h4.81v4.966c0,.494-.078.52-.858.546l-.052-2.834c-1.378.65-1.872.858-2.652,1.17Zm11.284.052a18.055,18.055,0,0,0-3.016-1.976h5.122v4.992c0,.494-.052.52-.858.546l-.052-2.86c-1.326.624-1.794.832-2.782,1.222ZM-60.268-6.708h11.336v1.352H-60.268Zm0,3.9h11.336v1.352H-60.268Zm36.946-11.414h-1.326a25.507,25.507,0,0,1-3.2-.156v3.51a30.791,30.791,0,0,1,3.224-.156h1.3v9.256a30.355,30.355,0,0,1-.182,4.03h3.822a32.771,32.771,0,0,1-.182-4.03v-9.256h1.508a31.519,31.519,0,0,1,3.224.156v-3.51a25.331,25.331,0,0,1-3.172.156h-1.56v-4.446a25.685,25.685,0,0,1,.156-3.224h-3.77a21.7,21.7,0,0,1,.156,3.224ZM-38.038-18.59c.65-.052,1.326-.078,2.314-.078H-31.1c1.014,0,1.612.026,2.288.078v-2.756a17.752,17.752,0,0,1-2.288.1h-4.628a17.944,17.944,0,0,1-2.314-.1Zm-1.014,3.926a18.181,18.181,0,0,1,2.158-.1h6.916a14.384,14.384,0,0,1,2.184.1v-2.99a16.5,16.5,0,0,1-2.184.1h-6.89a12.736,12.736,0,0,1-2.184-.13ZM-37.986-11a9.81,9.81,0,0,1,1.638-.078h5.928A9,9,0,0,1-28.834-11v-2.73a8.54,8.54,0,0,1-1.586.078h-5.928a9.65,9.65,0,0,1-1.638-.078Zm0,3.718a9.478,9.478,0,0,1,1.612-.078h5.9a12.332,12.332,0,0,1,1.638.078v-2.73a8.691,8.691,0,0,1-1.586.078h-5.928a12.331,12.331,0,0,1-1.638-.078Zm3.146,8.424h2.964V1.9H-28.6A13.33,13.33,0,0,1-28.73-.39V-4.342c0-.832.026-1.4.078-1.976a12.7,12.7,0,0,1-1.612.078h-5.98a11.083,11.083,0,0,1-1.846-.078,16.076,16.076,0,0,1,.1,2V-.208a17.494,17.494,0,0,1-.13,2.47h3.276Zm-.078-4.758h3.068v2.08h-3.068ZM-1.638-18.2v1.924H-4.394a14.931,14.931,0,0,1-2.132-.1,14.139,14.139,0,0,1,.1,1.976v9.36A17.727,17.727,0,0,1-6.5-3.094c.312-.026,1.092-.078,1.3-.078H5.2c.208,0,.962.052,1.274.078A16.471,16.471,0,0,1,6.4-5.044V-14.4a13.672,13.672,0,0,1,.1-1.976,14.754,14.754,0,0,1-2.106.1H1.586V-18.2h6.89c1.144,0,2.366.052,3.406.156V-21.4c-1.118.1-2.21.156-3.432.156H-8.528a32.321,32.321,0,0,1-3.354-.156v3.354c1.118-.1,2.21-.156,3.406-.156Zm.1,4.81v2.158H-3.51V-13.39Zm0,4.914v2.5H-3.51v-2.5ZM1.43-5.98v-2.5H3.536v2.5Zm0-5.252V-13.39H3.536v2.158Zm6.344-4.784a15.582,15.582,0,0,1,.1,2.158V-1.82H-7.9V-13.806a14.344,14.344,0,0,1,.1-2.21h-3.51a29.443,29.443,0,0,1,.156,2.964V-1.3a31.388,31.388,0,0,1-.182,3.614h3.51V1.2h15.6V2.314h3.51A33.937,33.937,0,0,1,11.1-1.352V-12.974c0-.884.052-2.08.156-3.042Z" transform="translate(395 3993)" fill="#583ffd"></path></g><g id="target" transform="translate(330.443 3770.875)"><g id="&#x30B0;&#x30EB;&#x30FC;&#x30D7;_8977" data-name="&#x30B0;&#x30EB;&#x30FC;&#x30D7; 8977" transform="translate(1 1)"><path id="&#x30D1;&#x30B9;_13497" data-name="&#x30D1;&#x30B9; 13497" d="M32.6,7.033a25.581,25.581,0,0,0-3.669,50.9h.6a4.266,4.266,0,0,0,.6-8.491A17.049,17.049,0,1,1,49.452,30.115,4.266,4.266,0,0,0,57.9,28.92,25.623,25.623,0,0,0,32.6,6.99Z" transform="translate(18.6 18.567)" fill="#011839"></path><path id="&#x30D1;&#x30B9;_13498" data-name="&#x30D1;&#x30B9; 13498" d="M99.131,47.932h-4.48A42.716,42.716,0,0,0,56.466,9.746V5.267a4.267,4.267,0,0,0-8.533,0v4.48A42.716,42.716,0,0,0,9.746,47.932H5.267a4.267,4.267,0,1,0,0,8.533h4.48A42.716,42.716,0,0,0,47.932,94.652v4.48a4.267,4.267,0,1,0,8.533,0v-4.48a40.876,40.876,0,0,0,9.386-2.005,4.264,4.264,0,1,0-2.773-8.064,32.811,32.811,0,0,1-10.837,1.792A34.133,34.133,0,1,1,86.374,52.242a32.628,32.628,0,0,1-1.792,10.837,4.264,4.264,0,1,0,8.064,2.773,40.4,40.4,0,0,0,2.005-9.386h4.48a4.267,4.267,0,1,0,0-8.533Z" transform="translate(-1 -1)" fill="#333"></path></g><path id="&#x30D1;&#x30B9;_13499" data-name="&#x30D1;&#x30B9; 13499" d="M91.8,63.207,78.364,49.725A12.18,12.18,0,0,0,65.82,46.781l-9.77,3.243L19.271,13.245a4.254,4.254,0,0,0-6.016,6.016L50.033,56.039l-3.243,9.77a12.11,12.11,0,0,0,2.987,12.544l13.44,13.44a4.3,4.3,0,0,0,3.029,1.237,2.6,2.6,0,0,0,.981-.128A4.266,4.266,0,0,0,70.3,90.087l4.992-14.933,14.933-4.992a4.265,4.265,0,0,0,1.664-7.083Z" transform="translate(35.957 35.924)" fill="#583ffd"></path></g></g></g></svg>