<svg xmlns="http://www.w3.org/2000/svg" width="1449" height="315.654" viewBox="0 0 1449 315.654"><g id="&#x30B0;&#x30EB;&#x30FC;&#x30D7;_19581" data-name="&#x30B0;&#x30EB;&#x30FC;&#x30D7; 19581" transform="translate(-238 -64)"><path id="&#x30D1;&#x30B9;_33831" data-name="&#x30D1;&#x30B9; 33831" d="M24.854-68.714a33.567,33.567,0,0,1,1.376,5.59c2.064,10.406,3.44,16,5.5,23.048a50.592,50.592,0,0,0-11.868,7.482,21.049,21.049,0,0,0-7.654,16.168A18.649,18.649,0,0,0,16-4.988c4.558,5.762,14.1,8.6,28.982,8.6A209.166,209.166,0,0,0,66.564,2.236c4.9-.516,5.332-.6,7.224-.688L72.756-12.47c-6.708,2.322-18.232,3.784-28.81,3.784-12.728,0-18.4-2.494-18.4-8.17,0-5.5,6.02-10.492,17.8-14.878a176.257,176.257,0,0,1,29.584-8.084l-4.3-13.072a19.366,19.366,0,0,1-3.44,1.29C51.772-47.386,48.16-46.268,43.43-44.548c-2.666-9.03-4.9-20.468-5.246-26.23ZM162.97-70.778a76.51,76.51,0,0,1-9.8.516h-39.13a80.364,80.364,0,0,1-9.8-.516v9.632a78.686,78.686,0,0,1,9.8-.43h39.13a79.531,79.531,0,0,1,9.8.43ZM172.6-58.394a72.337,72.337,0,0,1-9.718.516H104.232a74.668,74.668,0,0,1-9.8-.516v10.32a77.984,77.984,0,0,1,9.89-.516h58.394a80.882,80.882,0,0,1,9.89.516ZM162.454-45.236a76.934,76.934,0,0,1-8.944.344H113.778a79.6,79.6,0,0,1-9.03-.344v9.03a81.567,81.567,0,0,1,9.03-.344H153.51a82.827,82.827,0,0,1,8.944.344Zm0,12.126a76.934,76.934,0,0,1-8.944.344H113.778a80.579,80.579,0,0,1-9.03-.344v9.03a81.567,81.567,0,0,1,9.03-.344H153.51a82.826,82.826,0,0,1,8.944.344ZM114.38,3.87h38.012V7.31h11.524a51.565,51.565,0,0,1-.43-8.17V-12.986a55.083,55.083,0,0,1,.344-7.74,46.984,46.984,0,0,1-7.138.344H110.08c-3.268,0-5.16-.086-6.966-.258a61.964,61.964,0,0,1,.344,7.654V-1.032c0,2.494-.172,5.16-.43,8.256H114.38Zm0-14.878h38.1V-5.59h-38.1Zm86.6-48.246a202.712,202.712,0,0,0,42.054,5.246l1.634-12.556c-2.15.086-3.7.086-4.3.086-13.33,0-25.542-1.72-35.518-4.9ZM193.93-30.1c8.17-3.1,24.682-5.934,34.744-5.934,3.87,0,6.708.6,8.772,1.806a7.7,7.7,0,0,1,3.612,6.794c0,4.644-2.408,8.944-6.708,12.212-6.278,4.816-15.566,7.31-30.014,8.17A33.476,33.476,0,0,1,209.582,5.59c14.19-1.978,20.812-3.87,28.122-7.826,10.836-5.934,17.114-15.308,17.114-25.542a19.358,19.358,0,0,0-5.934-14.448c-4.128-3.7-10.492-5.676-18.576-5.676-8.772,0-16.168.774-28.552,2.838-7.568,1.29-7.568,1.29-10.664,1.462ZM307.278-60.888H286.294a84.652,84.652,0,0,1-11.266-.6v12.04a108.051,108.051,0,0,1,11.266-.516h12.47a99.672,99.672,0,0,1-.6,10.32c-1.2,10.234-3.784,17.028-8.686,23.564C285-10.234,281.564-7.224,273.394-2.236a33.048,33.048,0,0,1,8.17,9.718C290.938,1.2,296.958-4.73,301.516-12.212a60.625,60.625,0,0,0,7.4-18.834h22.446c-.258,9.46-.688,15.308-1.548,19.694-.946,5.59-1.978,6.708-6.02,6.708a77.928,77.928,0,0,1-12.642-1.118A34.709,34.709,0,0,1,314.072,6.02c6.794.43,8.858.516,11.266.516,8.944,0,12.384-2.15,14.448-9.2,1.72-5.676,2.58-13.072,3.268-27.434.172-4.042.43-7.568.774-10.234.086-1.118.086-1.118.172-1.72a73.219,73.219,0,0,1-8.944.344H310.374c.172-2.494.344-4.386.6-8.256h31.046a85.831,85.831,0,0,1,10.922.516V-61.49a80.209,80.209,0,0,1-11.352.6h-22.36v-4.644a37.769,37.769,0,0,1,.516-6.966H306.676a32.808,32.808,0,0,1,.6,6.966ZM369.2-26.23c1.548.172,2.408.344,3.354.516,4.472.946,7.482,1.376,11.61,1.892-.258,3.7-.258,4.558-.258,6.708,0,8.686,2.924,14.448,9.2,18.318,3.956,2.494,9.89,3.87,16.34,3.87,8.084,0,14.792-1.978,19.952-5.934a20.713,20.713,0,0,0,8.514-16.34c0-6.794-2.15-12.212-7.482-18.834A37.655,37.655,0,0,1,417.7-33.54c4.9,4.73,7.482,9.718,7.482,14.448,0,7.826-5.848,12.3-16.082,12.3-4.472,0-7.74-1.032-10.062-3.01-1.978-1.806-2.924-4.3-2.924-8.084,0-1.634.086-3.526.258-5.16,3.01.086,3.7.086,4.644.086a107.1,107.1,0,0,0,13.244-.86,22.954,22.954,0,0,1,2.752-.258l.258-11.782a64.879,64.879,0,0,1-17.114,1.892c-.6,0-1.634,0-3.01-.086.6-4.73.86-6.45,1.462-10.578h1.29a122.143,122.143,0,0,0,12.986-.516c4.988-.43,4.988-.43,6.278-.516l.43-12.04c-5.16,1.29-10.406,1.806-19.178,1.978,1.462-9.632,1.72-10.836,2.666-13.588l-13.588-1.2v1.032a93.273,93.273,0,0,1-1.462,13.33c-7.224-.688-11.61-1.548-15.566-3.01l-.946,11.352c1.29.172,1.72.258,3.01.516a90.924,90.924,0,0,0,12.126,2.064c-.86,5.418-.86,5.418-1.462,10.492-7.912-1.032-11.008-1.634-15.05-3.182Zm154.628-5.676a75.553,75.553,0,0,1,9.718.43v-11.18a62.045,62.045,0,0,1-9.718.43H492.35c1.548-3.182,1.548-3.268,1.806-3.784,2.236-4.386,2.236-4.386,2.924-5.848l-12.212-1.72a60.682,60.682,0,0,1-4.9,11.352H465.432a66.222,66.222,0,0,1-9.8-.43v11.18a92.358,92.358,0,0,1,9.8-.43h8.6a118.146,118.146,0,0,1-9.89,13.674c11.868,3.268,15.91,4.472,22.532,7.052-9.2,4.558-17.2,6.622-31.046,8A36.369,36.369,0,0,1,460.96,7.654a121.2,121.2,0,0,0,22.618-6.02,60.038,60.038,0,0,0,15.136-7.826A165.793,165.793,0,0,1,524,7.568l8.428-9.374A253.008,253.008,0,0,0,507.4-13.932c4.9-5.59,7.31-9.718,10.32-17.974Zm-18.06,0A36.064,36.064,0,0,1,496.65-18.06a148.508,148.508,0,0,0-15.48-4.988c2.666-3.87,3.44-5.074,5.676-8.858Zm-17.8-33.282H466.636c-4.644,0-7.138-.086-10.062-.344.172,2.15.344,4.472.344,6.622v7.052a33.981,33.981,0,0,1-.43,6.45h11.18v-9.546h53.578v9.546h11.18a48.63,48.63,0,0,1-.43-6.45V-58.91a55.976,55.976,0,0,1,.344-6.622c-2.924.258-5.5.344-10.148.344H499.574v-1.2a41.611,41.611,0,0,1,.344-6.192h-12.3a45.186,45.186,0,0,1,.344,6.278ZM554.7-4.73c5.16-11.438,6.622-17.8,9.03-39.13l-11.094-2.58c-1.72,17.286-3.7,25.112-9.03,35.432Zm48.676-55.814c-9.546-5.246-15.824-7.912-30.1-12.556l-6.45,9.8c14.878,5.074,21.586,8.17,29.67,13.588ZM626.51-12.212c-4.9-16.34-8.084-24.252-14.362-35.862l-10.922,4.816c6.364,11.782,9.718,20.984,13.76,36.808Zm-47.128-32.68a72.483,72.483,0,0,1,.516-8.686H566.912a77.25,77.25,0,0,1,.516,9.03V-4.214c0,4.042.688,6.192,2.322,7.568,2.322,1.978,5.676,2.494,15.48,2.494,8.256,0,12.212-.344,15.308-1.2a9.832,9.832,0,0,0,5.59-4.558c2.064-3.784,2.924-8.6,3.7-20.812A50.088,50.088,0,0,1,598.3-24.768c-.086,9.116-.688,14.706-1.806,17.028-.86,1.72-3.1,2.322-8.944,2.322-6.708,0-8.17-.43-8.17-2.236ZM681.12-18.146c-.086-2.15-.172-3.01-.172-3.956,0-1.032,0-1.032.258-6.278l1.462-28.294c.172-4.472.516-8.514.86-11.008h-16.77c.344,2.924.688,7.138.86,11.008L669.08-28.38c.258,5.074.258,5.074.258,6.192,0,.946-.086,1.892-.172,4.042ZM682.5,2.322V-11.61H667.79V2.322Z" transform="translate(601 372)" fill="#fff"></path><g id="&#x30B0;&#x30EB;&#x30FC;&#x30D7;_19576" data-name="&#x30B0;&#x30EB;&#x30FC;&#x30D7; 19576"><path id="&#x30D1;&#x30B9;_33825" data-name="&#x30D1;&#x30B9; 33825" d="M21.586-62.35c-4.988,0-7.74-.086-10.664-.344a81.715,81.715,0,0,1,.43,10.406V-3.01a74.861,74.861,0,0,1-.516,9.976H22.618V2.924H63.21V6.966H75.164A62.51,62.51,0,0,1,74.648-3.1V-52.288a79.261,79.261,0,0,1,.43-10.406c-3.01.258-5.676.344-10.664.344H44.72c1.2-2.494,1.978-4.386,4.214-9.976L35.948-73.358a43.669,43.669,0,0,1-3.7,11.008ZM22.7-51.944H63.3v8H22.7Zm0,18.146H63.3v7.826H22.7Zm0,18.146H63.3v8.084H22.7Zm98.04-18.06c-.43,6.02-1.462,9.8-4.042,14.448-3.87,7.138-10.492,12.47-20.382,16.512a39.967,39.967,0,0,1,7.31,9.976,50.7,50.7,0,0,0,12.728-8.17,45.055,45.055,0,0,0,14.792-24.51,44.494,44.494,0,0,0,1.376-8.256h14.792v2.15c0,10.578-.946,19.608-2.322,23.306-.688,1.72-1.806,2.236-5.5,2.236a84.411,84.411,0,0,1-9.718-.86A43.928,43.928,0,0,1,132.956,4.9c5.762.172,6.278.172,7.74.172,9.89,0,13.588-1.892,15.308-7.912,1.806-6.364,2.838-18.92,2.838-34.056a78.723,78.723,0,0,0,9.03,7.482,52.912,52.912,0,0,1,7.482-11.18A63.862,63.862,0,0,1,152.306-64.5a31.039,31.039,0,0,1-3.354-7.74l-11.18,4.3c.516,1.032,1.376,2.666,1.806,3.612A84.242,84.242,0,0,0,152.22-43.946H115.068a101.975,101.975,0,0,0,12.47-19.608,25.4,25.4,0,0,1,2.236-4.386l-12.04-4.472A29.061,29.061,0,0,1,114.38-63.9c-5.332,10.062-11.868,17.372-22.1,24.424A39.75,39.75,0,0,1,99.932-29.24a74.526,74.526,0,0,0,10.492-9.374v5.332a37.872,37.872,0,0,1,6.536-.43Zm73.186-35.6a75.03,75.03,0,0,1-1.376,8.6A179.326,179.326,0,0,0,189.2-27.09,163.244,163.244,0,0,0,191.436-.86c.258,1.978.344,2.666.43,4.214l12.47-.6c-.086-1.2-.086-1.634-.086-2.494,0-6.794,2.494-15.91,7.052-25.886l-7.568-3.1L202.1-24.6c-.43,1.032-.43,1.032-1.548,4.386.258-18.232,3.01-37.582,6.794-47.816ZM215.172-48.5c1.29.086,1.978.086,2.408.172a123.379,123.379,0,0,0,13.846.688,183.325,183.325,0,0,0,22.79-1.548,13.961,13.961,0,0,1,1.806-.086l-.6-12.47c-5.5,1.462-14.1,2.322-23.564,2.322-7.826,0-12.3-.344-16.512-1.462Zm5.676,12.814c-5.332,6.794-8,12.986-8,18.4a15.721,15.721,0,0,0,2.58,8.772c3.87,5.418,11.008,8,21.93,8A103.869,103.869,0,0,0,255.42-2.15c1.892-.258,2.408-.344,3.784-.516l-.86-12.986a63.39,63.39,0,0,1-20.9,3.354c-7.912,0-12.3-2.408-12.3-6.708,0-3.182,1.978-7.052,6.02-12.126ZM291.024-37.5a70.159,70.159,0,0,1,7.74-.344h30.358a65.708,65.708,0,0,1,7.912.344v-5.332a90.331,90.331,0,0,0,12.9,6.536,54.988,54.988,0,0,1,5.332-11.352A75.93,75.93,0,0,1,334.2-58.308c-7.052-4.988-10.836-8.686-14.62-14.1h-12.04c-3.612,5.418-7.568,9.374-13.846,14.1a77.394,77.394,0,0,1-20.984,11.18,40.455,40.455,0,0,1,5.676,10.578,86.884,86.884,0,0,0,12.642-6.364Zm8.084-10.664a58.354,58.354,0,0,0,14.62-14.448A72.419,72.419,0,0,0,329.036-48.16ZM295.84,6.966V3.01h36.034V6.966h11.954a55.954,55.954,0,0,1-.516-9.2v-20.9a59.764,59.764,0,0,1,.43-8.686c-2.064.172-4.214.258-7.826.258H291.8c-3.612,0-5.848-.086-7.826-.258a61.964,61.964,0,0,1,.43,8.686V-2.322a71.58,71.58,0,0,1-.516,9.288Zm0-28.294h36.034V-7.052H295.84Zm78.6-7.4a53.762,53.762,0,0,1,10.32-3.01c9.8-2.236,16.684-3.268,22.36-3.268a20.8,20.8,0,0,1,7.826,1.2,8.633,8.633,0,0,1,5.762,8.256c0,5.5-2.838,9.718-8.772,13.072-5.16,2.838-15.308,4.988-24.08,4.988h-1.29a33.6,33.6,0,0,1,4.386,11.7c11.61-1.376,13.416-1.634,19.092-3.44,14.448-4.386,22.79-13.932,22.79-26.058a21.332,21.332,0,0,0-3.268-11.868c-4.042-6.02-11.094-8.944-21.414-8.944-7.052,0-14.878,1.032-26.832,3.526-6.622,1.376-6.622,1.376-9.374,1.634Zm78.69-19.092c3.268-.6,7.912-1.2,12.642-1.634,19.178-1.462,19.608-1.462,28.122-2.408-11.954,6.88-18.146,16.34-18.146,27.864,0,9.89,4.644,17.372,13.588,22.016,5.16,2.752,11.18,4.214,20.812,5.246a19.578,19.578,0,0,1,3.01.516l1.806-13.932c-1.032.086-1.634.086-2.15.086A56.116,56.116,0,0,1,500.09-12.04c-7.224-2.064-11.18-6.708-11.18-13.072,0-7.912,5.848-15.824,15.566-21.414a39.624,39.624,0,0,1,18.318-5.246,9.47,9.47,0,0,1,2.064.172l-.688-13.158c-1.548.344-2.064.43-9.632.774-23.65,1.032-38.442,1.72-44.376,2.15-12.212.774-12.728.774-14.362.774-.344,0-1.376,0-3.354-.086Zm91.5-16.426a45.687,45.687,0,0,1,.344,5.762c.516,26.058,1.72,36.98,5.246,45.752,3.612,8.944,8.686,13.5,14.964,13.5,7.912,0,13.5-7.654,18.06-24.51A42.308,42.308,0,0,1,573.1-33.024a71.938,71.938,0,0,1-4.558,15.308c-.946,2.322-1.978,3.526-3.1,3.526-4.386,0-7.568-15.222-7.568-35.776a100.931,100.931,0,0,1,.774-14.19Zm43.172,8.686A76.069,76.069,0,0,1,600.194-33.54,87.792,87.792,0,0,1,605.44-7.826l12.986-4.816c-2.322-19.522-8.6-34.83-19.608-48.074Zm56.416.6c2.58-.344,3.354-.344,6.106-.516,12.642-.6,14.1-.688,21.156-1.29-12.126,12.126-30.1,26.4-38.184,30.272l6.88,11.094c10.664-9.546,22.446-14.448,35.088-14.448,9.89,0,16.254,4.042,16.254,10.32,0,5.418-2.494,8.686-8.6,11.18a21.941,21.941,0,0,0-3.956-7.4A19.079,19.079,0,0,0,663.834-22.7c-9.116,0-15.824,5.59-15.824,12.986A12.876,12.876,0,0,0,653.256.774c3.612,2.752,9.976,4.3,17.458,4.3,8.256,0,15.824-1.806,21.586-5.16,7.74-4.472,11.782-11.18,11.782-19.522,0-6.02-2.064-10.75-6.278-14.276-4.644-3.87-10.664-5.848-17.974-5.848a47.243,47.243,0,0,0-14.19,2.064c6.966-4.9,9.718-7.138,18.662-15.136,6.708-5.934,6.794-5.934,8.6-6.966L686.8-68.714c-1.462.688-2.494.86-5.848,1.118-8,.6-18.662,1.032-26.058,1.032a76.766,76.766,0,0,1-11.18-.6ZM671.918-5.246a12.536,12.536,0,0,1-3.612.43c-5.59,0-8.858-1.72-8.858-4.73,0-2.064,1.72-3.44,4.3-3.44C667.79-12.986,670.628-10.32,671.918-5.246Zm51-33.54c2.494-.688,8.342-1.72,14.448-2.58C733.752-27,726.442-9.8,720.594-2.064l11.954,6.45c.516-1.118.6-1.29,1.376-2.924,8-16.684,12.728-29.756,15.738-43.86,1.892-.086,2.838-.172,4.3-.172,3.1,0,4.472.344,5.59,1.462,1.548,1.376,2.15,3.612,2.15,7.74,0,6.536-1.032,15.48-2.322,19.608-1.032,3.44-2.322,4.816-4.472,4.816-2.838,0-7.826-1.376-12.212-3.354a39.748,39.748,0,0,1,1.118,9.288,34.792,34.792,0,0,1-.172,3.87c5.848,1.72,9.46,2.408,13.158,2.408,4.73,0,7.482-1.032,10.062-3.87,4.386-4.73,6.966-16.684,6.966-32.078,0-8.084-1.118-12.3-4.042-15.824-2.838-3.354-7.31-4.988-13.416-4.988-1.29,0-2.494.086-4.558.172.258-1.118.258-1.118.6-2.924,1.2-7.052,1.892-10.836,1.978-11.094a21.143,21.143,0,0,1,.6-2.494l-13.33-1.29a7.427,7.427,0,0,1,.086,1.29c0,3.268-.6,8.342-2.15,17.372-4.386.688-14.706,1.634-17.286,1.634H721.8ZM772.968-54.7c7.912,8.858,13.588,21.242,16.512,35.776l11.782-5.762a86.8,86.8,0,0,0-17.544-35Zm75.422-3.182a67.4,67.4,0,0,1-11.352,14.964A97.393,97.393,0,0,1,809.6-22.876,39.431,39.431,0,0,1,816.4-12.384a139.29,139.29,0,0,0,15.48-10.492,78.19,78.19,0,0,0,12.3-11.954c-.086,3.956-.086,4.73-.086,7.138V-4.214a95.821,95.821,0,0,1-.6,11.61h12.9a92.472,92.472,0,0,1-.6-11.524V-36.636c8.17,9.718,17.028,16.942,29.5,24.338a56.137,56.137,0,0,1,6.794-11.094A77.272,77.272,0,0,1,874.448-34.4a90.436,90.436,0,0,1-12.384-11.954l-6.278,7.224v-8.944a63.793,63.793,0,0,0,6.192-9.8H877.63c3.87,0,8.514.172,12.126.516V-69.23a91.1,91.1,0,0,1-12.384.6H823.794a110.123,110.123,0,0,1-12.47-.6v11.868c3.87-.344,8.944-.516,12.814-.516ZM970.166-31.906a75.553,75.553,0,0,1,9.718.43v-11.18a62.045,62.045,0,0,1-9.718.43H938.69c1.548-3.182,1.548-3.268,1.806-3.784,2.236-4.386,2.236-4.386,2.924-5.848l-12.212-1.72a60.677,60.677,0,0,1-4.9,11.352H911.772a66.221,66.221,0,0,1-9.8-.43v11.18a92.358,92.358,0,0,1,9.8-.43h8.6a118.148,118.148,0,0,1-9.89,13.674c11.868,3.268,15.91,4.472,22.532,7.052-9.2,4.558-17.2,6.622-31.046,8A36.37,36.37,0,0,1,907.3,7.654a121.2,121.2,0,0,0,22.618-6.02,60.037,60.037,0,0,0,15.136-7.826,165.793,165.793,0,0,1,25.284,13.76l8.428-9.374A253,253,0,0,0,953.74-13.932c4.9-5.59,7.31-9.718,10.32-17.974Zm-18.06,0A36.064,36.064,0,0,1,942.99-18.06a148.509,148.509,0,0,0-15.48-4.988c2.666-3.87,3.44-5.074,5.676-8.858ZM934.3-65.188H912.976c-4.644,0-7.138-.086-10.062-.344.172,2.15.344,4.472.344,6.622v7.052a33.98,33.98,0,0,1-.43,6.45h11.18v-9.546h53.578v9.546h11.18a48.652,48.652,0,0,1-.43-6.45V-58.91a55.95,55.95,0,0,1,.344-6.622c-2.924.258-5.5.344-10.148.344H945.914v-1.2a41.6,41.6,0,0,1,.344-6.192h-12.3a45.186,45.186,0,0,1,.344,6.278ZM990.72-12.814a102.337,102.337,0,0,1,19.436,20.038l10.234-9.718a107.447,107.447,0,0,0-20.3-19.35Zm90.3,0a102.336,102.336,0,0,1,19.436,20.038l10.234-9.718a107.445,107.445,0,0,0-20.3-19.35Zm90.3,0a102.336,102.336,0,0,1,19.436,20.038l10.234-9.718a107.445,107.445,0,0,0-20.3-19.35Z" transform="translate(337 186)" fill="#fff"></path><g id="&#x9577;&#x65B9;&#x5F62;_5017" data-name="&#x9577;&#x65B9;&#x5F62; 5017" transform="translate(238 64)" fill="none" stroke="#fff" stroke-width="8"><rect width="1449" height="175" rx="87.5" stroke="none"></rect><rect x="4" y="4" width="1441" height="167" rx="83.5" fill="none"></rect></g></g></g></svg>