<svg xmlns="http://www.w3.org/2000/svg" width="1807.751" height="148.951" viewBox="0 0 1807.751 148.951"><g id="&#x30B0;&#x30EB;&#x30FC;&#x30D7;_19647" data-name="&#x30B0;&#x30EB;&#x30FC;&#x30D7; 19647" transform="translate(-60.113 -832.137)"><path id="&#x30D1;&#x30B9;_33900" data-name="&#x30D1;&#x30B9; 33900" d="M38.916-62.56c-.46,8-1.2,12.144-3.22,18.4-3.68,11.5-8.188,19.136-16.192,27.416C14.9-11.96,11.316-9.2,2.668-3.864A38.6,38.6,0,0,1,11.316,7.452C21.068,1.1,27.876-4.968,33.488-12.236c6.164-7.912,9.844-15.272,13.34-26.772a72.258,72.258,0,0,0,13.8,26.956A88.155,88.155,0,0,0,81.236,7.36,47.225,47.225,0,0,1,90.16-5.06,66.961,66.961,0,0,1,78.2-13.432a71.938,71.938,0,0,1-15-17.2A72.189,72.189,0,0,1,52.44-68.908c0-1.932.092-3.4.276-5.8a52.335,52.335,0,0,1-8.28.46H28.612a53.277,53.277,0,0,1-9.476-.552v12.788a95.633,95.633,0,0,1,9.66-.552Zm84.548,22.448a77.731,77.731,0,0,1,8.188-.368H162.84a76.054,76.054,0,0,1,8.556.368v-6.256a86.051,86.051,0,0,0,14.72,7.544,54.562,54.562,0,0,1,5.7-12.328A87.9,87.9,0,0,1,169-62.468,55.74,55.74,0,0,1,153.456-77.28H140.668a57.142,57.142,0,0,1-15,15.18A78.191,78.191,0,0,1,103.5-50.508,39.294,39.294,0,0,1,109.572-39.1a98.866,98.866,0,0,0,13.892-7.176ZM131.1-51.428c7.636-5.612,11.684-9.384,16.192-15.272a72.118,72.118,0,0,0,16.284,15.272ZM131.468-23a116.834,116.834,0,0,1-9.016,16.928c-3.4.092-5.612.092-6.532.092-2.3,0-3.68,0-6.44-.184l1.564,13.156c2.116-.368,5.888-.828,10.12-1.1,3.5-.184,30.452-2.576,34.96-3.036,5.06-.46,5.244-.46,14.076-1.656,1.472,2.208,2.3,3.4,4.876,7.452L185.84,1.84a194.847,194.847,0,0,0-20.884-24.564l-11.04,4.6c4.416,4.6,5.888,6.256,8.832,9.568-7.82.92-7.82.92-26.312,1.84A110.726,110.726,0,0,0,145.268-23h31.1a88.835,88.835,0,0,1,10.948.552V-34.684c-3.036.276-6.532.46-10.948.46H118.68c-4.14,0-7.82-.184-10.948-.46v12.236A87.8,87.8,0,0,1,118.68-23ZM208.38-51.612c7.912-1.1,19.872-1.748,41.768-2.392v5.612a13.567,13.567,0,0,1,.092,1.472,16.692,16.692,0,0,0-8.648-2.024c-11.408,0-19.5,7.176-19.5,17.2a15.1,15.1,0,0,0,6.164,12.6,18.111,18.111,0,0,0,11.04,3.68c5.8,0,9.752-1.564,12.972-5.152-.644,2.944-2.116,5.152-4.968,7.544-4.6,3.956-11.04,6.44-20.792,8.1,3.772,4.14,4.968,6.164,7.636,12.42,8.188-2.484,12.88-4.508,17.48-7.544,9.66-6.256,14.536-14.812,14.536-25.392a28,28,0,0,0-3.4-13.892v-2.116l.092-7.544v-3.036l-.092-2.116c4.692-.092,5.428-.092,10.3-.092,9.844,0,12.052.092,16.008.368l-.092-12.7c-3.68.368-10.764.552-26.312.644a70.762,70.762,0,0,1,.552-10.212H249.32c.46,3.128.46,3.588.644,10.488-25.944.736-35.144,1.012-37.168,1.012a46.645,46.645,0,0,1-4.784-.184Zm34.592,12.7c4.324,0,7.176,2.3,7.176,5.612,0,3.864-3.5,6.9-8,6.9-4.048,0-6.992-2.576-6.992-6.072C235.152-36.156,238.464-38.916,242.972-38.916Zm79.12-19.872c2.76-.368,3.588-.368,6.532-.552,13.524-.644,15.088-.736,22.632-1.38-12.972,12.972-32.2,28.244-40.848,32.384l7.36,11.868C329.176-26.68,341.78-31.924,355.3-31.924c10.58,0,17.388,4.324,17.388,11.04,0,5.8-2.668,9.292-9.2,11.96a23.47,23.47,0,0,0-4.232-7.912,20.41,20.41,0,0,0-16.192-7.452c-9.752,0-16.928,5.98-16.928,13.892A13.774,13.774,0,0,0,331.752.828c3.864,2.944,10.672,4.6,18.676,4.6,8.832,0,16.928-1.932,23.092-5.52,8.28-4.784,12.6-11.96,12.6-20.884,0-6.44-2.208-11.5-6.716-15.272C374.44-40.388,368-42.5,360.18-42.5A50.539,50.539,0,0,0,345-40.3c7.452-5.244,10.4-7.636,19.964-16.192,7.176-6.348,7.268-6.348,9.2-7.452l-6.532-9.568c-1.564.736-2.668.92-6.256,1.2-8.556.644-19.964,1.1-27.876,1.1a82.121,82.121,0,0,1-11.96-.644ZM351.716-5.612a13.41,13.41,0,0,1-3.864.46c-5.98,0-9.476-1.84-9.476-5.06,0-2.208,1.84-3.68,4.6-3.68C347.3-13.892,350.336-11.04,351.716-5.612Zm79.856-70.932c-.092,3.956-.828,8.464-2.484,15.364-1.748.092-3.5.184-4.048.184a68.568,68.568,0,0,1-12.88-.92V-49.4h3.5c3.128.184,3.128.184,4.14.184h1.1c2.208-.092,2.208-.092,4.968-.092-4.416,13.984-10.672,26.864-17.3,35.6l12.6,6.992c.552-1.2.552-1.2,1.748-3.5,3.5-6.624,4.324-8.28,6.44-12.788a183.091,183.091,0,0,0,10.028-26.68c7.36-.644,11.132-1.012,14.352-1.472a21.972,21.972,0,0,1,2.852-.368l-.276-12.7a65.438,65.438,0,0,1-13.892,2.392c.184-.92.184-.92.552-2.3.644-3.22,1.1-5.244,1.288-6.072.92-4.048.92-4.048,1.288-4.968ZM492.844-53.36a142.3,142.3,0,0,0-26.772-12.328L459.54-55.016a120.1,120.1,0,0,1,27.416,13.064Zm-.552,41.768c-.736-.552-.736-.552-1.564-1.2-1.564-1.288-2.392-1.932-3.588-2.76a63.17,63.17,0,0,0-13.892-8,88.651,88.651,0,0,1-.828-12.42,27.893,27.893,0,0,1,1.2-9.108l-12.788-.644a57.865,57.865,0,0,0-.736,10.212,83.813,83.813,0,0,0,.46,8.924,39.7,39.7,0,0,0-6.716-.552,27.259,27.259,0,0,0-9.844,1.38c-7.268,2.576-11.684,8.464-11.684,15.456,0,9.844,8.28,16.376,20.884,16.376,7.544,0,13.8-2.3,17.02-6.256,2.208-2.76,3.036-5.52,3.128-9.844A54.416,54.416,0,0,1,486.4.736ZM460.828-14.9a13.946,13.946,0,0,1,.184,2.576c0,4.508-2.668,6.808-8.188,6.808-4.876,0-7.728-2.024-7.728-5.336,0-3.22,3.4-5.428,8.464-5.428A19.486,19.486,0,0,1,460.828-14.9Zm70.1-49.864c10.672,4.876,21.712,8.28,37.72,11.776l4.416-12.7C562.4-67.16,544-72.5,537.372-76.084Zm-7.084,6.992c-.184,2.116-.276,3.312-.552,5.52-1.84,12.144-3.4,23.736-4.232,30.544-.184,1.2-.184,1.288-.368,2.484l13.34.46a17.672,17.672,0,0,1,4.692-4.14,40.985,40.985,0,0,1,21.8-6.164c8.832,0,14.076,3.312,14.076,8.924C572.608-12.88,563.96-8,551.08-8c-7.268,0-15.088-1.472-24.2-4.416A54.4,54.4,0,0,1,528.54,1.564c9.752,2.208,15.64,2.944,23.368,2.944,10.672,0,18.584-2.024,25.116-6.532a22.605,22.605,0,0,0,9.936-18.584c0-12.42-10.488-20.424-26.864-20.424-11.04,0-18.952,2.392-26.864,8,1.1-8.372,3.22-20.332,4.232-23.92Zm118.984-2.88a98.576,98.576,0,0,1,13.464-.68H693.56a111.475,111.475,0,0,1,13.872.68v-10.2a159.148,159.148,0,0,0,24.48,12.784A87.8,87.8,0,0,1,741.024-76.3,121.354,121.354,0,0,1,710.288-91.12c-11.152-7.48-19.176-15.1-25.976-24.48h-19.72c-3.4,5.712-8.3,11.016-16.048,17.68a120.944,120.944,0,0,1-39.032,22.44c4.216,5.576,6.256,9.248,9.248,17a154.057,154.057,0,0,0,24.072-12.648Zm12.376-17h-2.72a116.436,116.436,0,0,0,22.3-21.76A104.854,104.854,0,0,0,697.5-77.656h-42.3Zm63.784,26.928c-2.584.68-5.984.816-13.6.816H642.7c-6.256,0-11.7-.272-17.544-.816V-32.1c6.392-.544,11.7-.816,17.408-.816h58.48L680.776-7.752a93.174,93.174,0,0,1-10.2,11.016l18.088,10.064A134.347,134.347,0,0,1,697.232,1.36l25.7-33.184c1.9-2.448,4.76-5.848,6.256-7.344Zm95.86-17.812a58.914,58.914,0,0,1,8.556,12.42l8-4.048a52.1,52.1,0,0,0-8.464-12.144Zm11.316-4.876a66.407,66.407,0,0,1,8.372,12.052l7.912-4.14a54.239,54.239,0,0,0-8.464-11.684Zm-5.52,21.436c2.484,3.5,3.772,5.888,6.44,11.776A88.674,88.674,0,0,1,833.9-19.412l12.7-6.164a92.658,92.658,0,0,0-14.628-31.74Zm-57.96,11.316c2.668-.736,8.924-1.84,15.456-2.76C774.28-28.06,766.46-9.568,760.2-1.38l12.788,6.9c.552-1.2.644-1.38,1.472-3.128C783.02-15.456,788.08-29.44,791.3-44.436a45.105,45.105,0,0,1,4.6-.276c3.312,0,4.784.368,5.98,1.564,1.656,1.472,2.3,3.864,2.3,8.28,0,6.992-1.1,16.56-2.484,20.976-1.1,3.68-2.484,5.152-4.784,5.152-3.036,0-8.372-1.472-13.064-3.5a41.813,41.813,0,0,1,1.2,9.844,36.392,36.392,0,0,1-.184,4.14c6.256,1.84,10.12,2.576,14.076,2.576,5.06,0,8-1.1,10.764-4.14,4.692-5.06,7.452-17.848,7.452-34.316,0-8.648-1.2-13.156-4.324-16.928-3.036-3.588-7.82-5.336-14.352-5.336-1.38,0-2.668.092-4.876.184.276-1.1.276-1.2.644-3.128,1.288-7.544,2.024-11.5,2.116-11.868A22.635,22.635,0,0,1,797-73.876l-14.26-1.38a9.1,9.1,0,0,1,.092,1.38c0,3.5-.644,8.924-2.3,18.584-4.692.736-15.732,1.748-18.492,1.748h-.552Zm198.264-71.264c-4.9,2.72-9.112,4.216-16.864,6.392a248.455,248.455,0,0,1-58.752,7.616c-2.04,0-4.352-.136-8.7-.272,3.672,7.888,4.488,10.336,5.984,17.544,20.4-.952,25.976-1.36,36.856-2.72v2.312c0,5.032-.136,11.968-.272,15.5H887.92c-10.2,0-14.008-.136-19.584-.952v19.176a179.843,179.843,0,0,1,19.312-.68h29.784c-1.768,13.464-6.392,21.488-17,29.648-6.528,4.9-11.424,7.48-20.944,10.88,7.344,6.392,9.656,9.248,14.28,17.272a98.1,98.1,0,0,0,12.92-6.8c9.52-6.12,17.544-13.872,22.3-21.76,4.76-7.752,7.616-16.864,9.112-29.24h26.928a176.039,176.039,0,0,1,18.9.68V-66.5c-5.44.816-9.52.952-19.312.952h-25.3c.136-4.488.272-8.976.408-20.672a178.081,178.081,0,0,0,26.656-6.8c4.488-1.5,4.488-1.5,7.48-2.312Zm87.04,44.472-8.16,1.224a88.088,88.088,0,0,1-15.232,1.768l3.264,17.952a90.655,90.655,0,0,1,14.28-3.264l8.7-1.5,8.16,45.7a139.3,139.3,0,0,1,2.176,15.776l20.128-3.536c-1.768-5.3-2.312-7.48-3.944-15.64L1068.8-54.264l33.592-5.848a61.366,61.366,0,0,1-21.9,23.12c6.664,3.4,9.112,5.3,14.96,11.288,13.328-11.016,21.08-21.624,26.928-36.992a24.706,24.706,0,0,1,3.4-6.936L1114.768-79.7c-2.584,1.36-4.216,1.768-9.928,2.72l-39.032,6.528-1.632-8.024a90.551,90.551,0,0,1-1.5-12.376L1043.5-87.992c1.36,3.672,1.768,5.576,2.992,12.1Zm119.544-19.312A143.685,143.685,0,0,1,1203.3-58.616l13.736-17.816c-10.88-10.064-18.632-15.776-36.176-26.384Zm6.528,90.576a49.623,49.623,0,0,1,6.8-1.9c2.584-.544,2.584-.544,5.984-1.224a172.645,172.645,0,0,0,39.576-14.144c23.664-12.512,39.712-30.464,53.176-59.568-8.432-5.984-10.88-8.3-17.272-15.776a117.788,117.788,0,0,1-13.736,27.064c-10.608,15.912-22.712,26.112-39.984,33.32A130.014,130.014,0,0,1,1168.08-18.5Zm252.96-14.28c-23.256-22.168-26.656-25.16-44.2-37.672,7.888-10.744,14.008-21.76,20.536-36.992,1.632-3.944,2.72-5.712,4.488-7.616l-10.472-10.88c-3.264,1.5-3.944,1.632-11.424,1.632l-46.376.816h-2.584c-8.432,0-12.24-.136-16.592-.816l.272,20.672c5.168-.816,7.752-.952,19.04-1.224l39.712-.68c-3.128,6.936-5.44,11.832-7.208,14.824a125.523,125.523,0,0,1-35.632,39.3,122.885,122.885,0,0,1-30.192,16.592c6.664,6.936,8.568,9.52,13.056,18.088,20.672-10.064,38.624-23.528,50.728-37.944a242.2,242.2,0,0,1,40.392,39.576Zm73.656-8.94c-.092-2.3-.184-3.22-.184-4.232,0-1.1,0-1.1.276-6.716l1.564-30.268c.184-4.784.552-9.108.92-11.776h-17.94c.368,3.128.736,7.636.92,11.776L1487.8-30.36c.276,5.428.276,5.428.276,6.624,0,1.012-.092,2.024-.184,4.324Zm1.472,21.9v-14.9H1486.42v14.9Z" transform="translate(208.805 947.736)" fill="#fff"></path><g id="&#x30B0;&#x30EB;&#x30FC;&#x30D7;_8870" data-name="&#x30B0;&#x30EB;&#x30FC;&#x30D7; 8870" transform="translate(60.113 842.68)"><g id="&#x30B0;&#x30EB;&#x30FC;&#x30D7;_8867" data-name="&#x30B0;&#x30EB;&#x30FC;&#x30D7; 8867" transform="translate(29.725 -0.002)"><path id="slash-left" d="M19.372.265,86.772,135.6H75.988L.5.265Z" transform="translate(-0.5 -0.265)" fill="#fff"></path><path id="slash-left-2" data-name="slash-left" d="M19.372.265,86.772,135.6H75.988L.5.265Z" transform="translate(-0.5 -0.265)" fill="#fff"></path></g><g id="&#x30B0;&#x30EB;&#x30FC;&#x30D7;_8869" data-name="&#x30B0;&#x30EB;&#x30FC;&#x30D7; 8869" transform="matrix(0.985, 0.174, -0.174, 0.985, 9.832, 67.669)"><path id="slash-left-3" data-name="slash-left" d="M18.872,0l67.4,56.619H75.488L0,0Z" transform="translate(0 0)" fill="#fff"></path><path id="slash-left-4" data-name="slash-left" d="M18.872,0l67.4,56.619H75.488L0,0Z" transform="translate(0 0)" fill="#fff"></path></g></g><g id="&#x30B0;&#x30EB;&#x30FC;&#x30D7;_18760" data-name="&#x30B0;&#x30EB;&#x30FC;&#x30D7; 18760" transform="translate(1751.869 842.676)"><g id="&#x30B0;&#x30EB;&#x30FC;&#x30D7;_8867-2" data-name="&#x30B0;&#x30EB;&#x30FC;&#x30D7; 8867" transform="translate(0 0.001)"><path id="slash-left-5" data-name="slash-left" d="M67.9.265.5,135.6H11.284L86.771.265Z" transform="translate(-0.5 -0.265)" fill="#fff"></path><path id="slash-left-6" data-name="slash-left" d="M67.9.265.5,135.6H11.284L86.771.265Z" transform="translate(-0.5 -0.265)" fill="#fff"></path></g><g id="&#x30B0;&#x30EB;&#x30FC;&#x30D7;_8869-2" data-name="&#x30B0;&#x30EB;&#x30FC;&#x30D7; 8869" transform="matrix(-0.985, 0.174, -0.174, -0.985, 115.995, 123.425)"><path id="slash-left-7" data-name="slash-left" d="M18.872,56.616,86.271,0H75.487L0,56.616Z" transform="translate(0 0)" fill="#fff"></path><path id="slash-left-8" data-name="slash-left" d="M18.872,56.616,86.271,0H75.487L0,56.616Z" transform="translate(0 0)" fill="#fff"></path></g></g></g></svg>