<svg xmlns="http://www.w3.org/2000/svg" xmlns:xlink="http://www.w3.org/1999/xlink" width="3005.635" height="1265.947" viewBox="0 0 3005.635 1265.947"><defs><linearGradient id="linear-gradient" x1="0.5" x2="0.5" y2="1" gradientUnits="objectBoundingBox"><stop offset="0" stop-color="#ffba00"></stop><stop offset="1" stop-color="#fffdef"></stop></linearGradient></defs><g id="&#x30B0;&#x30EB;&#x30FC;&#x30D7;_20903" data-name="&#x30B0;&#x30EB;&#x30FC;&#x30D7; 20903" transform="translate(14815.682 3570.808)"><g id="&#x30B0;&#x30EB;&#x30FC;&#x30D7;_20902" data-name="&#x30B0;&#x30EB;&#x30FC;&#x30D7; 20902" transform="translate(-14815.682 -3570.809)"><rect id="&#x9577;&#x65B9;&#x5F62;_533" data-name="&#x9577;&#x65B9;&#x5F62; 533" width="1841.808" height="409.292" transform="translate(0 0)"></rect><rect id="&#x9577;&#x65B9;&#x5F62;_534" data-name="&#x9577;&#x65B9;&#x5F62; 534" width="3005.635" height="384.104" transform="translate(0 456.513)"></rect><rect id="&#x9577;&#x65B9;&#x5F62;_4983" data-name="&#x9577;&#x65B9;&#x5F62; 4983" width="2441.635" height="384.104" transform="translate(0 881.843)"></rect></g><path id="&#x30D1;&#x30B9;_36612" data-name="&#x30D1;&#x30B9; 36612" d="M31.5-24.8c-11.408.744-15.624.992-18.352.992a38.58,38.58,0,0,1-4.96-.248l7.44,36.208A75.016,75.016,0,0,1,26.288,9.92C64.728,4.464,71.176,3.472,91.76-.5c-.248,12.4-.5,17.36-1.24,23.064h37.944a190.82,190.82,0,0,1-1.24-22.816,105.589,105.589,0,0,1,10.912,21.824C155,13.64,163.68,8.68,175.584,0c13.64,8.928,26.784,14.88,50.592,22.816A138.865,138.865,0,0,1,242.3-12.4c-18.6-3.224-28.024-5.952-40.424-11.16a181.058,181.058,0,0,0,24.552-34.968c4.464-8.928,4.464-8.928,5.952-11.16l-17.608-19.1c-4.216.744-10.416.992-18.352.992h-42.9c-10.168,0-14.88-.248-20.832-.992V-57.04a141.3,141.3,0,0,1,19.84-.992h4.464L131.44-47.616c7.44,12.152,10.664,16.864,17.36,24.3-7.688,4.464-12.152,6.448-21.576,10.168V-95.232H210.3c14.384,0,20.832.248,29.016,1.24v-30.5c-7.44.992-13.888,1.24-28.272,1.24H38.44c-14.632,0-21.328-.248-28.768-1.24v30.5c6.944-.744,12.152-.992,21.824-1.24ZM66.464-95.232h25.3V-87.3h-25.3Zm0,28.024h25.3v8.68h-25.3Zm0,28.768h25.3v7.688q-18.228,2.232-25.3,2.976ZM187.736-58.032A79.772,79.772,0,0,1,174.1-41.664c-5.456-5.456-7.44-8.184-12.648-16.368Zm27.776-124c0-11.408.248-17.112.992-23.312a253.03,253.03,0,0,1-26.04.992H59.52a253.029,253.029,0,0,1-26.04-.992,193.337,193.337,0,0,1,.992,23.312v29.512a188.792,188.792,0,0,1-.992,23.064c7.192-.5,13.144-.744,24.552-.744H196.168c11.16.248,17.856.5,20.336.5-.744-5.952-.992-11.9-.992-22.816Zm-144.832-.5H178.808v7.44H70.68Zm0,25.048H178.808v7.192H70.68ZM310.5-149.048c0,21.576,0,21.576-.5,32.24H297.1c-14.632,0-19.84-.248-27.776-1.488v37.448c7.936-1.24,13.888-1.488,27.032-1.488h9.92C300.824-53.072,287.928-31,265.36-12.4c10.912,10.664,16.864,18.848,23.808,32.736,19.1-18.1,30.5-34.72,40.424-58.032,7.192,13.144,13.392,21.328,25.048,33.976,6.944-15.872,10.912-22.072,21.328-35.216-16.864-14.88-25.048-25.3-33.232-43.4h3.224c11.16,0,16.864.248,23.312.992v-36.7c-6.7.992-11.408,1.24-21.824,1.24h-2.48c.744-11.656.744-11.656.992-32.24,9.92.248,14.384.248,20.584.992v-36.456c-6.448.992-12.648,1.24-23.56,1.24H320.168a96.07,96.07,0,0,0,2.976-10.912c1.488-5.7,2.976-10.416,3.968-13.392l-35.96-5.456a66.236,66.236,0,0,1-3.472,17.856c-5.952,20.336-12.4,34.224-23.56,50.1,10.912,6.7,18.6,13.144,27.776,24.8,7.936-12.4,10.664-17.36,15.624-28.768Zm95.728,77.376-28.272,12.9a190.913,190.913,0,0,1,18.6,39.184h-4.96c-13.144,0-18.6-.248-27.776-.992v37.2c8.928-.992,14.88-1.24,27.776-1.24h81.84c12.9,0,19.1.248,27.776,1.24v-37.2c-9.176.744-14.632.992-27.776.992H471.2c6.944-14.384,7.936-17.36,15.872-41.168l-29.76-10.912H464.5c10.664,0,17.112.248,26.04.744a258.3,258.3,0,0,1-.992-26.288v-33.232c0-12.648.248-18.352.992-27.032-7.44.5-16.12.744-28.52.744H403c-12.648,0-21.08-.248-28.52-.744.744,8.184.992,14.88.992,27.032v33.232a261.439,261.439,0,0,1-.992,26.288c8.432-.5,15.376-.744,25.792-.744Zm43.9,0A290.776,290.776,0,0,1,434-19.592H403.744l27.776-12.4C421.1-55.3,420.608-56.544,411.928-71.672ZM411.184-123.5H452.6v18.352H411.184ZM371.5-167.152c8.928-.744,15.872-.992,27.776-.992h70.432c12.152,0,18.848.248,27.776.992v-36.7c-8.68.992-14.136,1.24-27.776,1.24H399.28c-13.64,0-18.848-.248-27.776-1.24ZM685.2,9.3c21.3,0,33.9.6,51.3,2.1V-45.3c-11.7,1.5-25.5,2.1-48,2.1H618.6c6.9-13.2,18-23.7,44.1-41.7,30.6-21.3,33.6-23.4,43.5-32.1,18.6-15.3,27.6-33.9,27.6-55.8a64.607,64.607,0,0,0-9.9-35.1c-15-24.3-45.9-37.8-86.4-37.8-35.1,0-62.4,10.8-79.5,30.9-12,14.1-17.4,27.3-21.9,53.4l63,6.6c1.5-12.6,3.3-18.6,7.5-25.2,6.6-10.2,16.8-15,31.2-15,19.2,0,32.1,9.6,32.1,24,0,13.8-6.3,21.6-32.1,39-30.6,20.7-42,29.4-53.4,39.9-21,19.5-35.4,42.3-43.2,67.2-3.6,11.7-5.1,20.7-6.3,35.4,11.1-.9,18-1.2,45-1.2ZM949.484-98.208c15.128,0,21.824.248,30.752.992v-36.952c-8.184,1.24-17.608,1.736-31.5,1.736H872.852a189.838,189.838,0,0,0,7.688-18.6c1.488-3.968,1.984-4.96,3.72-8.928L844.828-167.9c-5.456,30.752-24.056,61.5-52.08,86.056,13.888,7.688,21.824,13.888,31,23.56,13.888-12.9,24.056-25.3,32.488-39.928h39.928c-1.736,22.816-5.952,35.712-16.12,49.1-11.9,15.624-26.784,25.544-53.32,34.72,12.648,11.9,17.112,17.856,25.3,33.232C868.884,11.16,878.06,6.2,887.484-.744c19.344-14.136,32.736-33.232,40.424-58.032,3.72-11.408,5.208-21.328,6.448-39.432Zm254.448,44.64v32.736c0,4.464-1.488,5.456-8.432,5.456a296.34,296.34,0,0,1-38.688-3.224c5.7,13.64,7.936,22.816,10.416,38.688,11.9.5,20.832.744,28.272.744,20.088,0,29.512-1.736,36.456-6.448,7.688-5.208,10.912-13.888,10.912-30.008V-173.848c0-16.864.248-23.312,1.24-30.5-7.936.992-15.376,1.24-31.248,1.24H1101.012c-15.128,0-21.824-.248-32.488-1.24.992,9.176,1.488,19.344,1.488,38.44,0,67.7-2.48,96.72-9.92,118.792-4.96,15.376-11.656,26.288-23.56,38.688,13.144,9.672,20.832,17.36,31.5,32.24,20.584-24.552,31.248-47.12,36.208-77.376Zm-96.224-33.976c.744-9.424.992-13.888,1.488-24.056h94.736v24.056Zm1.736-58.032v-21.576h94.488v21.576Zm195.92,9.672c10.664-2.232,11.9-2.232,34.968-4.712,46.376-3.72,55.056-4.464,60.512-4.96l11.656-1.24c-11.9,8.184-17.856,13.144-24.3,21.08-14.136,16.864-21.08,35.464-21.08,56.048,0,31.5,15.128,54.312,44.392,67.952,15.872,7.192,34.472,11.408,62.744,13.888a63.425,63.425,0,0,1,9.176,1.24l5.7-47.12c-3.72.248-5.456.248-7.44.248-15.624,0-37.448-3.968-47.368-8.928-14.136-6.7-20.832-16.368-20.832-30.752,0-20.336,14.632-41.168,39.432-56.3,17.112-10.664,39.432-17.36,56.792-17.36a37.712,37.712,0,0,1,6.944.5l-2.232-44.888a20.913,20.913,0,0,1-5.7.992c-1.24,0-2.728.248-11.16.5l-10.416.5-25.544.992c-47.12,1.736-71.176,2.976-106.888,5.208-27.032,1.736-35.96,2.232-42.408,2.232-1.984,0-5.208,0-9.424-.248Zm149.544,21.576c9.92,11.408,16.368,21.08,24.056,36.7l23.808-10.912a159.873,159.873,0,0,0-24.056-35.96Zm34.72-14.632c8.432,9.672,14.632,19.1,23.56,35.712l23.064-10.664c-8.432-15.376-15.376-25.048-24.3-34.968ZM1554.852-36.7C1579.9-16.616,1594.78-1.488,1613.38,22.32l31.5-31.992c-20.584-23.56-36.7-38.688-60.512-55.552Z" transform="translate(-14721.23 -3261.502)" fill="#fff"></path><path id="&#x30D1;&#x30B9;_36608" data-name="&#x30D1;&#x30B9; 36608" d="M46.376-62.992h-5.7A245.152,245.152,0,0,1,11.16-64.48v38.44a248.054,248.054,0,0,1,29.512-1.488H117.8V-7.44c0,14.88-.5,22.816-1.488,30.752h41.416c-1.24-8.68-1.488-15.624-1.488-30.008V-27.528h52.08a249.46,249.46,0,0,1,29.264,1.488V-64.48a232.331,232.331,0,0,1-29.264,1.488H156.24v-32.24H192.2c12.152,0,19.344.248,27.528.992V-130.2c-8.184.744-15.624.992-28.768.992H156.24v-23.808h44.64a230.413,230.413,0,0,1,28.52,1.488v-37.7a219.512,219.512,0,0,1-28.52,1.488H92.008c1.736-3.472,2.48-5.208,3.72-7.936,2.728-6.448,2.976-6.944,5.208-11.408l-41.168-6.944c-.992,5.208-2.728,10.416-6.2,17.856C43.4-174.1,29.512-156.984,6.448-138.632c10.664,9.92,16.12,17.112,24.8,32.736,6.944-6.448,9.176-8.68,15.128-14.88v57.784Zm36.952,0v-32.24H117.8v32.24ZM117.8-153.016v23.808H62.992c-3.968,0-5.456,0-9.176-.248a227.824,227.824,0,0,0,18.352-23.56Zm198.152-2.232c0-15.376.248-22.072,1.24-31.248H277.76a253.962,253.962,0,0,1,1.488,31.248V-56.3c-6.2,1.24-7.936,1.488-13.64,2.232l6.448,40.424c5.456-1.984,7.192-2.48,12.648-4.464,20.832-7.192,34.968-12.4,45.632-16.864v26.04a256.756,256.756,0,0,1-1.488,31.248h40.424c-.992-8.68-1.24-13.64-1.24-28.272,8.184,11.16,11.408,16.616,17.112,29.264A210.3,210.3,0,0,0,434-22.816c14.384,16.368,32.736,31.992,53.32,45.88,5.952-17.856,9.424-25.792,18.1-40.176-20.584-12.152-34.224-23.064-49.1-39.68a320.009,320.009,0,0,0,18.352-41.416c9.92-28.52,15.128-54.312,17.856-91.512.744-8.432.744-8.432.992-12.152a172.418,172.418,0,0,1-20.832.992h-67.7a216.512,216.512,0,0,1-30.256-1.736v38.936c5.952-.744,10.912-.992,26.288-.992h9.176l-34.224,12.4c4.464,20.088,8.184,32.736,15.376,53.816a223.311,223.311,0,0,0,20.088,44.64,163.973,163.973,0,0,1-43.4,40.672V-178.56c0-15.624.248-22.32,1.24-31.5H328.848a261.325,261.325,0,0,1,1.488,31.5V-70.68c-7.192,2.232-11.9,3.968-14.384,4.712Zm134.912-9.424c-3.72,29.264-8.432,48.856-17.856,71.92-9.424-20.336-15.624-42.16-20.832-71.92Zm194.184,32.488A37.786,37.786,0,0,0,607.1-94.24a37.733,37.733,0,0,0,37.944,37.7,37.733,37.733,0,0,0,37.7-37.944A37.679,37.679,0,0,0,645.048-132.184Zm224.936-26.784-34.472,5.208c-17.36,2.728-25.544,3.72-36.456,3.968l6.7,42.408c10.168-2.728,15.872-3.72,36.952-6.944l34.224-5.456,5.7,31.248L835.264-81.1A290.363,290.363,0,0,1,799.8-77.128l6.7,42.16c15.624-3.968,16.864-4.216,33.976-6.944l49.1-7.688,6.448,35.712c3.472,18.848,4.464,26.04,4.464,34.472l47.12-7.688c-2.976-9.424-3.472-11.9-7.44-33.232L933.224-56.3,980.1-63.488c20.832-2.976,20.832-2.976,34.968-4.464l-7.44-41.912c-10.416,3.224-18.6,4.96-35.712,7.688l-45.88,6.944L920.08-126.48l38.688-5.952c26.784-3.968,26.784-3.968,35.216-4.712l-6.944-41.664c-10.912,3.224-17.856,4.464-35.464,7.192l-38.688,5.952L910.16-179.3c-1.984-11.408-3.224-19.84-3.472-27.528l-45.632,6.944c2.48,7.192,3.72,12.4,6.448,28.024Zm241.3,32.488-14.88,2.48a225.752,225.752,0,0,1-26.288,2.728l6.7,37.944a189.33,189.33,0,0,1,24.552-5.7l16.12-2.728,13.392,77.376c2.976,16.616,3.968,24.552,4.464,34.472l43.152-7.44c-3.472-10.416-4.712-15.872-8.184-34.472L1155.68-98.208l54.56-9.424c-9.672,16.616-20.832,28.52-37.2,39.184,13.144,6.944,20.088,12.152,31.5,23.808,25.3-21.824,39.184-41.664,49.6-70.432,3.224-9.424,3.72-10.168,6.2-13.392l-23.312-21.328c-3.72,2.48-6.448,3.472-14.632,4.712l-73.16,12.152-2.976-14.88c-1.488-8.68-2.232-13.888-2.232-21.328l-40.672,5.952a113,113,0,0,1,5.208,21.08Zm232.624-71.92c1.24,10.912,1.488,17.608,1.488,32.736v49.1c0,18.6-.248,27.28-1.488,36.208h48.112c-.992-9.92-1.24-17.856-1.24-35.464v-49.352c0-17.36.248-21.824,1.24-33.232Zm115.32,0c1.24,10.664,1.488,15.872,1.488,33.976v25.792c0,21.576-1.24,43.4-2.728,52.576-3.968,21.824-15.128,36.456-36.952,48.112-12.648,6.7-25.3,10.664-49.1,15.128,13.392,15.376,19.592,25.792,25.3,42.408,24.3-6.944,37.448-12.152,51.584-20.336,27.28-15.624,44.144-35.96,51.584-62.992,3.72-14.384,5.7-38.192,5.7-72.168V-164.92c0-15.872.248-19.592,1.24-33.48Zm317.192,3.472c-5.7,2.48-7.44,2.728-21.328,2.728H1625.144c-20.336,0-28.768-.5-40.176-2.232v43.4c11.9-1.24,20.584-1.736,39.432-1.736h118.3a93.878,93.878,0,0,1-41.664,42.16c-4.216,1.984-4.216,1.984-5.7,2.976,0-2.48.248-8.432.248-8.68.248-14.136.5-16.368,1.24-21.328h-46.624c1.24,5.456,1.488,9.176,1.488,17.112,0,32.984-4.216,50.592-16.12,65.968-11.656,14.88-29.512,25.792-56.792,34.472C1593.152-5.456,1597.12.5,1607.04,20.088c16.368-7.688,24.8-12.152,34.968-19.1,17.112-11.9,30.008-26.04,38.688-41.912,8.68-16.368,12.9-34.472,14.384-60.264a130.194,130.194,0,0,1,27.776,27.032c31.992-19.84,53.32-44.888,69.192-82.088,3.224-7.688,3.968-8.928,7.688-12.9Z" transform="translate(-14721.23 -2830.172)" fill="url(#linear-gradient)" style="mix-blend-mode: screen;isolation: isolate"></path><path id="&#x30D1;&#x30B9;_36610" data-name="&#x30D1;&#x30B9; 36610" d="M20.02-129.36h3.3c3.08,0,4.62,0,7.7.22,9.46.22,9.46.22,18.92.22h7.04c-.88,1.54-.88,1.54-4.18,7.04-3.3,5.28-12.1,18.04-16.94,23.98-7.04,8.58-16.28,17.6-23.32,22.88L40.48-47.3c5.94-7.92,11.88-14.08,21.12-22.22C77-82.94,92.18-90.64,103.4-90.64c4.18,0,6.82,1.76,8.8,5.5-8.8,3.96-11,4.84-16.28,7.48C82.28-70.84,72.38-63.58,64.24-54.12,56.76-45.1,53.46-36.74,53.46-26.4c0,13.2,6.38,24.86,17.38,31.24,11.88,7.04,27.5,10.12,52.36,10.12a434.183,434.183,0,0,0,53.02-3.3c13.2-1.76,13.2-1.76,19.58-1.98l-2.42-39.6c-18.7,7.04-44,11-70.4,11-21.34,0-29.48-3.3-29.48-11.66,0-3.96,1.98-7.92,5.72-11.22,3.96-3.52,5.28-4.4,15.4-9.24l1.98-.88c-.22,13.2-.44,20.02-1.1,23.32l35.86-1.1a136.5,136.5,0,0,1-.88-18.92c0-9.68,0-9.9-.22-15.84,21.12-7.26,44.66-13.42,56.1-14.96l-13.42-34.76c-3.52,1.98-5.06,2.42-17.6,6.6-7.04,2.2-12.98,4.18-13.64,4.4-11.66,3.96-11.66,3.96-15.4,5.28-4.4-14.3-15.4-21.34-33.66-21.34-9.46,0-18.48,2.2-27.94,6.6a119.188,119.188,0,0,0,10.56-16.28c22.44-.66,49.94-2.2,65.56-3.74q9.57-.99,19.8-1.98l-1.32-34.98c-11.66,3.08-34.1,5.94-55.66,7.04-11.22.66-11.22.66-13.42.88.22-.44,1.54-3.96,4.4-10.34,2.64-6.82,2.86-7.04,4.62-10.34l-40.26-3.08c-.88,7.92-2.42,13.86-6.82,24.42H66c-22.88,0-36.08-.88-45.54-3.08ZM368.64-105.9h53.072c11.16,0,20.832.5,31.744,1.488v-39.928c-10.664.992-20.336,1.488-31.744,1.488H368.64V-176.08a293.407,293.407,0,0,1,1.488-31.248h-43.9a244.463,244.463,0,0,1,1.488,31.248V-23.312H281.1a356.585,356.585,0,0,1-39.432-1.736V16.12c12.9-1.24,26.784-1.736,39.432-1.736H430.64a355.139,355.139,0,0,1,37.944,1.736V-25.048A351.145,351.145,0,0,1,429.9-23.312H368.64Zm269.824-91.512c1.488,5.952,2.232,14.384,2.976,33.976,0,1.736.248,6.7.5,12.152-7.192.5-13.392.744-22.568.744-17.856,0-31.992-.992-44.64-3.472l-.248,40.424c7.192,0,7.936,0,15.872.5,8.68.5,17.112.744,26.288.744,10.168,0,16.616-.248,26.288-.744v2.976c0,29.016-1.736,43.648-6.448,55.3-7.192,18.1-23.56,32.736-49.352,44.144A156.582,156.582,0,0,1,621.1,22.072c14.88-8.432,22.072-13.64,30.008-21.328,16.864-16.12,25.792-33.48,30.008-57.536a262.875,262.875,0,0,0,3.224-39.928c0-2.976,0-2.976-.248-19.84,12.4-1.488,12.4-1.488,21.328-3.224s10.416-1.984,14.384-2.48l-2.232-41.168c-7.936,3.472-20.584,6.448-34.72,8.432,0-5.208-.248-9.424-.248-11.16-.248-6.2-.248-10.168-.248-11.16-.5-9.424-.5-9.424-.5-12.4v-3.72a268.331,268.331,0,0,1,9.424,28.272l19.592-6.448a199.367,199.367,0,0,0-16.368-39.68L676.16-205.84c1.984,3.72,2.728,5.208,3.968,7.936Zm-120.032-2.976c0,5.952-.248,9.672-1.488,19.344-7.44,53.568-8.432,65.224-8.432,92.256,0,26.536,2.48,55.3,6.944,78.616l1.24,5.7c.5,3.224.992,5.456.992,6.448.5,2.976.744,4.216,1.24,7.688l39.928-1.736c.744-18.848,16.368-61.256,31.5-84.32L561.336-90.768a180.077,180.077,0,0,0-12.648,30.5c-.248-8.432-.248-8.432-.248-9.176,0-24.552.744-40.92,2.48-57.288,2.728-26.04,6.944-49.352,13.144-70.432ZM739.4-180.3a151.176,151.176,0,0,0-16.12-37.448l-17.856,5.456A184.377,184.377,0,0,1,721.3-173.6Zm58.776,24.056c4.96-.5,9.672-.992,16.368-1.24,34.968-1.736,44.888-2.232,58.032-3.72-30.752,30.5-83.08,71.176-105.9,81.84l23.064,37.7a184.409,184.409,0,0,1,23.808-18.6A142.614,142.614,0,0,1,889.936-83.08c27.528,0,44.392,10.664,44.392,28.024,0,12.648-6.2,21.08-19.592,27.032-3.72-9.176-6.448-14.136-11.408-19.592-10.664-12.152-26.536-19.1-44.392-19.1-28.768,0-49.352,16.616-49.352,39.68,0,27.528,25.544,44.144,67.456,44.144,24.8,0,48.608-5.7,65.72-15.624,22.568-13.392,34.224-33.232,34.224-58.28,0-17.856-6.2-32.24-18.1-42.9-13.144-11.408-29.76-16.864-53.072-16.864-12.9,0-20.088.992-33.976,4.464,16.616-12.152,21.08-15.872,34.224-27.032,33.48-28.768,33.48-28.768,39.928-32.488l-20.336-30.008c-4.712,1.984-7.936,2.728-18.848,3.472-25.048,1.984-52.576,2.976-74.648,2.976-16.12,0-25.3-.5-35.712-1.736ZM877.784-16.864a37.64,37.64,0,0,1-8.184.744c-13.392,0-21.328-4.216-21.328-10.912,0-4.96,3.968-8.184,9.672-8.184C867.616-35.216,874.56-28.768,877.784-16.864Z" transform="translate(-12892.23 -2829.172)" fill="#fff"></path><path id="&#x30D1;&#x30B9;_36611" data-name="&#x30D1;&#x30B9; 36611" d="M214.024,7.688C210.8.744,206.832-9.424,202.12-22.568L148.3-171.864a197.9,197.9,0,0,1-8.432-26.784H75.144c-1.24,7.192-3.472,14.632-7.936,26.784L13.64-22.568C7.688-5.7,5.456.248,1.736,7.688H59.768a142.92,142.92,0,0,1,6.2-26.784l6.7-21.08h70.68l6.7,21.08a201.4,201.4,0,0,1,5.952,26.784ZM131.192-81.84H84.568l23.064-74.4ZM243.536-198.648c1.488,10.912,1.984,18.1,1.984,36.7V-29.016c0,16.616-.5,27.032-1.984,36.7H298.1c-1.488-10.416-1.984-19.592-1.984-36.7V-161.944c0-18.1.5-26.536,1.984-36.7ZM562.96-21.08C524.272-58.032,514.1-66.712,484.1-88.288c13.888-18.6,23.312-35.96,36.456-66.96,3.72-8.432,5.208-10.912,8.928-14.632L507.656-192.2c-6.7,2.48-8.184,2.48-19.84,2.728L403-188.232c-7.192.248-11.9.248-13.888.248a183.726,183.726,0,0,1-26.04-1.736l1.24,44.144c10.168-1.488,18.1-1.984,39.432-2.48l64.48-.992c-11.656,28.768-26.784,50.84-49.848,72.912-22.568,21.576-48.112,37.7-80.352,50.1,13.888,14.384,19.1,21.824,27.776,39.184,38.44-18.6,67.952-40.424,91.264-67.952A398.729,398.729,0,0,1,528.24,15.624Zm112.1-137.888-34.472,5.208c-17.36,2.728-25.544,3.72-36.456,3.968l6.7,42.408c10.168-2.728,15.872-3.72,36.952-6.944L682-119.784l5.7,31.248L640.336-81.1a290.363,290.363,0,0,1-35.464,3.968l6.7,42.16c15.624-3.968,16.864-4.216,33.976-6.944l49.1-7.688L701.1-13.888c3.472,18.848,4.464,26.04,4.464,34.472L752.68,12.9c-2.976-9.424-3.472-11.9-7.44-33.232L738.3-56.3l46.872-7.192C806-66.464,806-66.464,820.136-67.952l-7.44-41.912c-10.416,3.224-18.6,4.96-35.712,7.688L731.1-95.232l-5.952-31.248,38.688-5.952c26.784-3.968,26.784-3.968,35.216-4.712l-6.944-41.664c-10.912,3.224-17.856,4.464-35.464,7.192l-38.688,5.952-2.728-13.64c-1.984-11.408-3.224-19.84-3.472-27.528l-45.632,6.944c2.48,7.192,3.72,12.4,6.448,28.024ZM888.088-198.4a181.77,181.77,0,0,1,.992,22.816c0,64.232-3.968,94.984-15.624,119.288-7.688,16.368-15.376,26.784-29.512,39.432,15.872,11.16,22.816,18.1,35.464,34.72C896.272,0,905.7-13.392,913.88-31.744c11.9-27.032,16.864-54.56,18.352-106.392,1.736-49.1,1.736-49.1,2.728-57.536Zm70.432-1.24a147.391,147.391,0,0,1,.992,19.344v8.928l-1.24,146.816c0,10.168-.5,14.384-2.728,20.832L976.872,18.6c3.224-1.984,5.208-2.728,12.152-5.208,25.048-9.176,37.2-15.624,52.08-28.272,18.848-16.12,31.744-35.216,42.9-62.992-14.136-10.912-20.584-17.36-32.984-32.736-4.464,16.864-10.416,29.76-19.344,42.408-8.432,11.656-16.368,18.848-29.76,27.28l1.24-129.952c.248-14.632.5-18.6,1.984-28.768Zm161.132,70.28h3.3c3.08,0,4.62,0,7.7.22,9.46.22,9.46.22,18.92.22h7.04c-.88,1.54-.88,1.54-4.18,7.04-3.3,5.28-12.1,18.04-16.94,23.98-7.04,8.58-16.28,17.6-23.32,22.88l27.94,27.72c5.94-7.92,11.88-14.08,21.12-22.22,15.4-13.42,30.58-21.12,41.8-21.12,4.18,0,6.82,1.76,8.8,5.5-8.8,3.96-11,4.84-16.28,7.48-13.64,6.82-23.54,14.08-31.68,23.54-7.48,9.02-10.78,17.38-10.78,27.72,0,13.2,6.38,24.86,17.38,31.24,11.88,7.04,27.5,10.12,52.36,10.12a434.182,434.182,0,0,0,53.02-3.3c13.2-1.76,13.2-1.76,19.58-1.98l-2.42-39.6c-18.7,7.04-44,11-70.4,11-21.34,0-29.48-3.3-29.48-11.66,0-3.96,1.98-7.92,5.72-11.22,3.96-3.52,5.28-4.4,15.4-9.24l1.98-.88c-.22,13.2-.44,20.02-1.1,23.32l35.86-1.1a136.5,136.5,0,0,1-.88-18.92c0-9.68,0-9.9-.22-15.84,21.12-7.26,44.66-13.42,56.1-14.96l-13.42-34.76c-3.52,1.98-5.06,2.42-17.6,6.6-7.04,2.2-12.98,4.18-13.64,4.4-11.66,3.96-11.66,3.96-15.4,5.28-4.4-14.3-15.4-21.34-33.66-21.34-9.46,0-18.48,2.2-27.94,6.6a119.186,119.186,0,0,0,10.56-16.28c22.44-.66,49.94-2.2,65.56-3.74q9.57-.99,19.8-1.98l-1.32-34.98c-11.66,3.08-34.1,5.94-55.66,7.04-11.22.66-11.22.66-13.42.88.22-.44,1.54-3.96,4.4-10.34,2.64-6.82,2.86-7.04,4.62-10.34l-40.26-3.08c-.88,7.92-2.42,13.86-6.82,24.42h-6.16c-22.88,0-36.08-.88-45.54-3.08Zm393.756-63.832c0-9.176,0-9.672.992-15.128h-39.928a157.359,157.359,0,0,1,1.24,22.816c0,9.176.248,16.864.5,31.992H1372.792A289.6,289.6,0,0,1,1339.808-155v37.2c9.672-.992,21.328-1.488,32.24-1.488h33.48v93.5c-5.208.744-5.456.744-15.128,2.232V-78.616c0-10.664.248-15.872.992-22.072h-36.7a185.272,185.272,0,0,1,1.24,25.048v56.3a118.737,118.737,0,0,1-16.12.744l5.456,38.936c3.472-.744,5.208-.992,11.16-1.984,67.7-11.656,80.1-13.888,124.744-24.3l-.248-35.216c-19.84,4.712-27.28,6.448-39.432,8.928V-61.5h14.136a185.409,185.409,0,0,1,18.6.744V-95.976c-5.7.992-8.68,1.24-18.6,1.24h-14.136v-24.552H1477.7c2.728,38.192,6.944,63.984,14.384,85.56,11.16,32.24,31.992,55.8,49.1,55.8,17.36,0,27.28-18.6,33.232-61.752-11.16-5.456-17.608-9.92-29.016-19.84-1.488,19.592-2.728,26.536-5.456,34.968-5.208-5.7-8.928-13.144-12.648-24.552-6.944-21.328-10.416-40.424-12.4-70.184h21.328c13.64,0,24.552.5,32.24,1.488V-155c-7.44.992-12.4,1.24-25.792,1.488l25.544-12.9a223.6,223.6,0,0,0-27.032-40.176Zm0,2.976c9.176,12.4,14.384,21.824,21.328,36.7h-21.08Zm-52.824-8.928a194.835,194.835,0,0,1-25.792,1.24H1384.2a244.016,244.016,0,0,1-25.544-1.24v35.464c8.928-.744,16.864-.992,25.792-.992h51.584c7.688,0,16.616.5,24.552.992ZM1729.912-89.28c5.456,6.7,10.912,11.9,18.848,18.6h-12.648c-6.944,0-11.9-.248-17.36-.744.248,4.712.5,9.176.5,19.1V3.224c0,7.192-.248,13.64-.744,19.1h35.96V11.9H1775.3V22.32h37.448c-.744-7.688-1.24-16.864-1.24-24.8v-30.5c3.472,1.488,5.456,2.232,10.664,4.464,4.464-15.624,7.44-22.816,13.888-35.464-23.808-5.208-42.9-13.64-57.784-25.3h22.816a261.776,261.776,0,0,1,29.264,1.488v-36.456a243.582,243.582,0,0,1-29.264,1.488h-76.632c2.232-3.968,2.48-4.712,4.96-9.424,5.456-.248,8.432-.248,15.376-.248H1792.9c7.936,0,16.864.248,25.544.5a174.306,174.306,0,0,1-.992-21.824v-29.76a183.108,183.108,0,0,1,.992-22.32c-8.184.744-14.88.992-26.536.992h-47.12c-12.152,0-18.848-.248-25.792-.992.5,5.952.744,9.92.744,18.6V-143.1l-9.92-.744v-43.4a172.234,172.234,0,0,1,.744-18.6,233.054,233.054,0,0,1-25.792.992H1639.64c-11.9,0-18.6-.248-26.784-.992a193.82,193.82,0,0,1,.992,22.32v29.76a182.066,182.066,0,0,1-.992,21.824c8.68-.248,17.608-.5,25.544-.5h49.352a111.069,111.069,0,0,1-5.7,9.672H1630.96c-13.392,0-21.328-.248-29.512-1.24v35.96c8.928-.992,15.872-1.24,29.512-1.24h18.848c-15.872,12.648-31.248,20.584-53.816,28.024,8.184,14.88,11.16,22.072,15.128,34.472,3.968-1.984,6.944-3.472,8.928-4.216V-.744c0,7.44-.5,15.128-1.24,23.064h37.7V11.9h19.1v8.68h35.216c-.5-5.208-.744-10.912-.744-18.848V-52.328c0-10.912,0-14.632.5-19.1-5.456.5-10.416.744-17.36.744h-11.16a169.662,169.662,0,0,0,19.1-18.6Zm-79.856-86.3H1675.1v15.624h-25.048Zm105.152.5h26.04v15.128h-26.04Zm-99.2,134.912h19.84V-19.84h-19.84Zm97.96,0h21.824V-19.84h-21.824Zm133.92-160.456c-.5,7.44-.744,9.176-3.72,26.536-6.448,35.712-9.424,66.96-9.424,95.48,0,23.56,1.736,45.136,6.448,78.368a99.658,99.658,0,0,1,1.24,13.144l42.656-1.984a69.42,69.42,0,0,1-.744-12.152,244.709,244.709,0,0,1,9.672-69.44l-19.1-6.448c1.736-45.136,9.176-91.512,18.848-119.784Zm64.976,64.48c3.472.248,5.208.248,7.192.5a409.2,409.2,0,0,0,42.656,1.984c17.112,0,35.216-.992,52.328-2.728,13.64-1.488,16.12-1.736,18.352-1.736l-1.736-42.408c-16.616,4.216-40.92,6.2-73.9,6.2-19.344,0-32.488-1.24-44.144-3.72Zm14.632,32.984c-6.7,9.672-8.184,12.152-11.656,17.856-7.688,12.9-11.9,26.536-11.9,38.688a45.94,45.94,0,0,0,22.816,39.432c12.9,7.192,28.272,10.416,51.336,10.416A303.689,303.689,0,0,0,2060.992,0c14.632-2.232,14.632-2.232,21.08-2.976l-2.48-43.9A184.312,184.312,0,0,1,2017.84-36.7c-21.08,0-32.24-6.2-32.24-17.608,0-8.928,5.208-19.592,16.616-34.224Zm199.64,31.744a47.1,47.1,0,0,0-47.12,47.12,47.42,47.42,0,0,0,47.12,47.12,47.1,47.1,0,0,0,47.12-47.12A47.1,47.1,0,0,0,2167.136-71.424Zm0,25.544A21.591,21.591,0,0,1,2188.712-24.3a21.591,21.591,0,0,1-21.576,21.576A21.591,21.591,0,0,1,2145.56-24.3,21.591,21.591,0,0,1,2167.136-45.88Z" transform="translate(-14721.23 -2404.842)" fill="#fff"></path></g></svg>