<svg xmlns="http://www.w3.org/2000/svg" width="1457" height="275" viewBox="0 0 1457 275"><g id="&#x30B0;&#x30EB;&#x30FC;&#x30D7;_19615" data-name="&#x30B0;&#x30EB;&#x30FC;&#x30D7; 19615" transform="translate(-147.5 -7977.5)"><path id="&#x30D1;&#x30B9;_33876" data-name="&#x30D1;&#x30B9; 33876" d="M24.3-81.7c-4.6,0-8.2-.2-11.5-.5.3,4.1.5,7.7.5,11.4V-3.7a120.1,120.1,0,0,1-.6,12.2h16V4H72V8.5H88.2A129.771,129.771,0,0,1,87.6-5V-71c0-3.3.2-6.9.5-11.2a86.361,86.361,0,0,1-11.1.5ZM28.7-58v-9.5H72V-58Zm0,13.8H72v9.9H28.7Zm0,23.5H72v10.4H28.7Zm152.2-1.9a158.168,158.168,0,0,0-11.8-24.9L156.4-42A73.016,73.016,0,0,0,167-57.3h17.6c-.2,28.6-.9,42.2-2.7,47.6C181-6.8,179.4-6,174.7-6a91.942,91.942,0,0,1-11.6-.9A50.374,50.374,0,0,1,167,8.7c3.3.1,5.4.1,7.4.1,6,0,11.7-.8,14.6-2.1,4.1-1.8,6-4.8,7.6-12.2,1.2-5.7,2.3-17.8,2.6-29,.6-25.1.7-27.5.7-31.4a55.89,55.89,0,0,1,.5-6.8,56.177,56.177,0,0,1-8.4.4H173.6c.8-2.2,1.1-3,1.9-5.7a31.134,31.134,0,0,1,1.8-4.9l-15.8-2.3a35.382,35.382,0,0,1-1.7,7,79.726,79.726,0,0,1-10.4,20.6V-68.5c.2-2.2.2-2.2.3-3.1-2.3.2-5,.3-8.4.3h-4.5c2.3-5.1,2.3-5.1,5.1-12.1L126-85.3a70.329,70.329,0,0,1-4.2,14h-2.2a60.867,60.867,0,0,1-8.6-.3,89.51,89.51,0,0,1,.4,10.9V-7.5a115.046,115.046,0,0,1-.6,13.7h15.1V-2.7h9.3V2.9h14.5c-.2-3.1-.3-6.1-.3-9.4V-44.8a64,64,0,0,1,4.8,5.1c.8-.8,1-1.1,1.6-1.7a96.016,96.016,0,0,1,10.5,25.2ZM125.8-57.4h9.5v13.2h-9.5Zm0,26.5h9.5v14.6h-9.5Zm97.8-45.2c1.7,3.4,3.7,9.1,6.4,18.3-1.3.4-1.9.6-3.4,1-11.3,3.5-11.3,3.5-14.2,3.9l5.2,16.5a148.351,148.351,0,0,1,16.6-6.4c3.4,12.6,5.5,20.8,6.4,24.7,3.3,14.4,5,23.1,5.3,27.6l18.8-4.3a31.779,31.779,0,0,1-1.9-5.4c-5-20.3-9.8-38.8-12.3-47.3,12.8-3.6,20.9-5.2,26.7-5.2,7,0,10.9,2.8,10.9,7.9,0,5.8-5.3,9.5-13.6,9.5-4.6,0-9.1-.9-15-3a73.149,73.149,0,0,1,2.6,16.7,57.722,57.722,0,0,0,14.2,2c8,0,15.2-2.1,20.2-6.1A24.453,24.453,0,0,0,305.9-45,23.953,23.953,0,0,0,303-57c-3.9-6.9-12-11-21.6-11a38.151,38.151,0,0,0-4.3.2v-7.9a64.816,64.816,0,0,1,.5-7.5H259.8c.6,2.7.7,3.9.8,10.4.1,4.7.1,4.7.2,7-5.3,1.1-7.4,1.6-14.5,3.5-1.6-5.6-1.7-5.9-3-10.4a53.077,53.077,0,0,1-2-8.1Zm96.9,6.2c4.6,8.6,8.3,19.3,11.2,31.9L349-43.3c-4.1-14.4-6.8-21.4-12-31.1Zm26.9-4.8a146.72,146.72,0,0,1,11.1,30.8l17.2-5.3c-3.7-12.7-7.1-21.4-11.9-29.9Zm42.4-2.1a58.517,58.517,0,0,1-1.3,11.3c-3.4,17.6-9.3,29.2-20,39.3-8.2,7.8-16.9,13-28.9,17.3,6.2,5.8,8.5,8.9,12.3,16C368.6-1,379.6-9.4,388.4-20.7c8.6-11.2,14.5-24.8,18.1-42.1a58.543,58.543,0,0,1,2.3-9.5Zm35.8,48.3c6.1-.5,9.4-.6,20.6-.6h47.6c11.4,0,15.8.1,20.6.6V-47.8a164.076,164.076,0,0,1-20.5.9H446.1c-10.4,0-15.8-.2-20.5-.9ZM544.7-80a73.3,73.3,0,0,1,.4,9.2c0,25.9-1.6,38.3-6.3,48.1A44.664,44.664,0,0,1,526.9-6.8c6.4,4.5,9.2,7.3,14.3,14,6.8-7.2,10.6-12.6,13.9-20,4.8-10.9,6.8-22,7.4-42.9.7-19.8.7-19.8,1.1-23.2Zm28.4-.5a59.42,59.42,0,0,1,.4,7.8v3.6L573-9.9c0,4.1-.2,5.8-1.1,8.4l8.6,9a22.377,22.377,0,0,1,4.9-2.1c10.1-3.7,15-6.3,21-11.4,7.6-6.5,12.8-14.2,17.3-25.4a66.37,66.37,0,0,1-13.3-13.2,50.642,50.642,0,0,1-7.8,17.1,38.648,38.648,0,0,1-12,11l.5-52.4a71.563,71.563,0,0,1,.8-11.6Zm84,38.5c-9.9,7.9-14.3,15.2-14.3,24.1,0,8.4,4.5,14.5,13.4,18.1,6.1,2.5,14.1,3.6,25.4,3.6a191.473,191.473,0,0,0,24.9-1.6l2.8-.4c1.5-.2,2.5-.3,3.1-.4,1.5-.1,2.1-.1,4-.2L715.2-18c-6.6,2.6-20.9,4.6-32.7,4.6-15.2,0-21.7-2.3-21.7-7.5,0-3.6,3.1-7.8,9-12.3Zm-8.8-19.6c1.4.1,1.5.1,3.5.3a216.835,216.835,0,0,0,22.5,1.2,73.831,73.831,0,0,0,8.2-.4c-.6.3-1,.6-1.2.7l-1,.5c-.1.1-.8.5-1.5.9l-3.3,2c-1.5,1-2.8,1.8-4.9,3.2l12.3,8.5c7.2-5.6,21.3-14.5,27.8-17.7l-.4-15.3c-5.2,1.2-14.8,1.8-27.8,1.8-14.4,0-26.6-1-33.1-2.7Zm47.6,13.2a64.375,64.375,0,0,1,9.9,14.6l9.2-5a64.07,64.07,0,0,0-9.9-14.3Zm13.3-6.9A68.244,68.244,0,0,1,719-41l8.9-4.9a70.3,70.3,0,0,0-10-13.9ZM763-80.9a50.143,50.143,0,0,1,1.6,6.6c3,15.2,3.5,17.6,5.9,26.3-6.1,3.1-9,4.8-12.5,7.6a26.8,26.8,0,0,0-10.3,20.6c0,7.9,3.5,15.1,9.2,18.8,6.6,4.2,16.7,6.3,31.1,6.3a223.049,223.049,0,0,0,25.2-1.7c5.1-.6,6.2-.7,8.7-.8l-1.3-19a43.654,43.654,0,0,1-5.3,1.5A146.018,146.018,0,0,1,786-11.5c-13.9,0-19.9-2.7-19.9-8.8,0-5.9,6.6-11.2,19.4-15.7,11.9-4.1,25.9-7.8,35.8-9.3l-5.7-17.8a20.173,20.173,0,0,1-4.1,1.5c-3.6,1.1-3.6,1.1-13.1,3.9-4.1,1.1-7,2.1-11.5,3.7-3-11-5.3-23-5.7-29.6Zm91.7,0c-.2,3-.3,3.7-1.5,10.7a216.3,216.3,0,0,0-3.8,38.5c0,9.5.7,18.2,2.6,31.6a40.169,40.169,0,0,1,.5,5.3l17.2-.8a27.994,27.994,0,0,1-.3-4.9,98.674,98.674,0,0,1,3.9-28l-7.7-2.6c.7-18.2,3.7-36.9,7.6-48.3Zm26.2,26c1.4.1,2.1.1,2.9.2a165,165,0,0,0,17.2.8c6.9,0,14.2-.4,21.1-1.1,5.5-.6,6.5-.7,7.4-.7l-.7-17.1c-6.7,1.7-16.5,2.5-29.8,2.5a83.528,83.528,0,0,1-17.8-1.5Zm5.9,13.3c-2.7,3.9-3.3,4.9-4.7,7.2a31.339,31.339,0,0,0-4.8,15.6,18.524,18.524,0,0,0,9.2,15.9c5.2,2.9,11.4,4.2,20.7,4.2A122.456,122.456,0,0,0,924.5,0c5.9-.9,5.9-.9,8.5-1.2l-1-17.7a74.319,74.319,0,0,1-24.9,4.1c-8.5,0-13-2.5-13-7.1,0-3.6,2.1-7.9,6.7-13.8Zm86.5,4.7c0-7.3,0-8.3.2-11.2a50.408,50.408,0,0,1-7.5.3h-9.6a48.594,48.594,0,0,1-8.2-.5v15.1a35.158,35.158,0,0,1,6.2-.5h4.1v18.9c-5.2,4.1-9.2,6.6-12.1,7.6l6.5,16.1c7.2-5.2,9-6.6,13.3-10.5,3.5,3.9,6.4,5.9,10.4,7.3,4.8,1.7,10.6,2.2,25.3,2.2,15.1,0,29.3-.2,38.1-.5a64.391,64.391,0,0,1,3.7-15.7c-4.5.6-6,.8-8.4,1,2.8-4.3,3.1-4.8,5.9-7.7a74.147,74.147,0,0,1-16.3-3.5h6.9a75.635,75.635,0,0,1,9.5.3V-29.6a72.163,72.163,0,0,1-9.5.3h-5.1v-4.4h3.2a67.237,67.237,0,0,1,9.3.4V-44.6a68.633,68.633,0,0,1-9.3.3h-3.3V-48c7.3-.2,9.6-.5,11.4-1.6,2.2-1.3,3.1-3.4,3.6-8.6a56.8,56.8,0,0,1-12.5-2.7v1.2c-.3,1.7-.3,1.7-.6,2-.4.4-1.9.6-3.6.6-2.7,0-3.4-.4-3.4-1.7v-2.3h10.6c2.3,0,4.3.1,6.7.2a41.4,41.4,0,0,1-.2-5.8V-79.5a17.76,17.76,0,0,1,.2-3.4c-2.2.2-3.7.2-8.9.2h-13.7c-3.2,0-6-.1-8.6-.3v11.2a61.523,61.523,0,0,1,8.4-.3h8.5v2.9h-9.1a75.521,75.521,0,0,1-7.6-.2,49.365,49.365,0,0,1,.3,6.5v8.1c0,3.2,1.3,5.2,4.3,6.2v4.3h-10.6v-4.8c3.1-1.5,3.8-2.9,4.5-8.9a48.053,48.053,0,0,1-11.6-2.9v.6a4.4,4.4,0,0,1-.6,2.6,8.165,8.165,0,0,1-3.5.5c-2.8,0-3.1-.2-3.1-1.7v-2.2h10.8c2.3,0,4.3.1,6.7.2a42.208,42.208,0,0,1-.2-5.8V-77.4l-.1-2a11.3,11.3,0,0,1,.3-3.5c-2.2.2-3.7.2-8.9.2H982c-3.2,0-6-.1-8.6-.3v11.2a61.522,61.522,0,0,1,8.4-.3h9.5v2.9h-9.2a69.986,69.986,0,0,1-7.3-.2,123.931,123.931,0,0,0-15.9-15.3L947.7-73.8A95.123,95.123,0,0,1,965-55.5l9.8-9.8v10.6c0,3.2,1,5,3.4,6,1.5.6,3.6.8,9.3.8v3.6h-.9a69.539,69.539,0,0,1-9.4-.3v11.3a67.074,67.074,0,0,1,9.4-.4h.9v4.4h-5.1a40.233,40.233,0,0,1-6.9-.4v11.6a42.149,42.149,0,0,1,7.1-.4h7.7a79.994,79.994,0,0,1-14.1,3.7A56.459,56.459,0,0,1,984-6.7c-5-.7-7.6-2.3-10.7-6.8Zm26.1,18.4h15.9l-6.4,4.5c6.2,4,10.1,5.9,15,7.5-5.4.3-16.6.6-22,.6-4.5,0-9-.1-12.2-.2a74.3,74.3,0,0,0,16.6-7.9Zm2.4-15.2h10.6v4.4h-10.6Zm61.1,18.1c.6-.6,1-1.1,1.2-1.3l1.6-2c.2-.2,1.1-1.2,2.5-2.8,3.4-3.8,10.4-12.5,13.9-17.4,6.8-9.3,6.9-9.4,8.5-9.4,1.5,0,2.3.7,5.6,4.6,16.4,19.9,27.2,31.6,39.6,42.8,1.9,1.7,2.3,2.1,3.6,3.4l8.8-19.6c-4.9-2-27.1-23.5-36.3-35-7.8-9.6-7.8-9.6-10.2-11.8a15.877,15.877,0,0,0-11.1-4.7,16.61,16.61,0,0,0-11.2,4.5c-2.3,2.1-2.7,2.6-9.2,10.9-9.2,11.6-14.9,17.9-18.4,20.3ZM1112.2-67a64.369,64.369,0,0,1,9.9,14.6l9.2-5a67.553,67.553,0,0,0-9.9-14.3Zm13.3-6.9a68.244,68.244,0,0,1,9.8,14.3l8.9-4.9a70.3,70.3,0,0,0-10-13.9ZM1173.7-63c2-.2,3.9-.4,6.6-.5,14.1-.7,18.1-.9,23.4-1.5-12.4,12.3-33.5,28.7-42.7,33l9.3,15.2a74.356,74.356,0,0,1,9.6-7.5,57.506,57.506,0,0,1,30.8-9.2c11.1,0,17.9,4.3,17.9,11.3,0,5.1-2.5,8.5-7.9,10.9-1.5-3.7-2.6-5.7-4.6-7.9a23.455,23.455,0,0,0-17.9-7.7c-11.6,0-19.9,6.7-19.9,16,0,11.1,10.3,17.8,27.2,17.8,10,0,19.6-2.3,26.5-6.3,9.1-5.4,13.8-13.4,13.8-23.5,0-7.2-2.5-13-7.3-17.3-5.3-4.6-12-6.8-21.4-6.8a47.842,47.842,0,0,0-13.7,1.8c6.7-4.9,8.5-6.4,13.8-10.9,13.5-11.6,13.5-11.6,16.1-13.1l-8.2-12.1c-1.9.8-3.2,1.1-7.6,1.4-10.1.8-21.2,1.2-30.1,1.2a111.909,111.909,0,0,1-14.4-.7Zm32.1,56.2a15.178,15.178,0,0,1-3.3.3c-5.4,0-8.6-1.7-8.6-4.4,0-2,1.6-3.3,3.9-3.3C1201.7-14.2,1204.5-11.6,1205.8-6.8ZM21.7,63.1A100.3,100.3,0,0,1,8,62.5V77.8a134.661,134.661,0,0,1,14-.4H41.4V91.6H24.3A85.051,85.051,0,0,1,13,91.1v15.1a114.363,114.363,0,0,1,12.7-.5H41.4v16.1H19.9a128.948,128.948,0,0,1-15.6-.7v15.7a142.5,142.5,0,0,1,16.2-.7H80.7a138.093,138.093,0,0,1,15.1.7V121.1a146.545,146.545,0,0,1-15.6.7H57.3V105.7h18a87.853,87.853,0,0,1,11.3.5V91.1a107.073,107.073,0,0,1-11.8.5H57.3V77.4H78c6.7,0,9.8.1,13.8.4V62.5a134.042,134.042,0,0,1-13.9.6H60.3l7.8-8.7A180.562,180.562,0,0,0,40.2,43.7L29.4,54a154.885,154.885,0,0,1,23.3,9.1ZM122.4,96a92.165,92.165,0,0,1-12.1-.5v13.6a101.305,101.305,0,0,1,12.1-.6h7.7c-2.7,3.1-4.3,4.8-8.7,9.1,9.3,2,11.9,2.6,22.4,5.3-6.9,1.9-15,2.7-25.7,2.7-1.3,0-3.4,0-6.8-.1a53.034,53.034,0,0,1,5.7,13.4c21.3-1,34.6-3.8,46.3-9.9a243.709,243.709,0,0,1,26,10.8l9.1-12.4a240.826,240.826,0,0,0-23-8,42.526,42.526,0,0,0,7-10.9H189a99.493,99.493,0,0,1,12,.6V95.5a85.887,85.887,0,0,1-12,.5H155.9c.5-.9.5-.9.8-1.5.4-.6.8-1.5,1.4-2.5h25.5a100.941,100.941,0,0,1,11.3.4c-.2-2.6-.3-5.4-.3-10.9V75.6a100.494,100.494,0,0,1,.4-11,114.674,114.674,0,0,1-11.6.4H173.1V61.1h16.1c4.7,0,8.3.2,12,.5V47.7a107.118,107.118,0,0,1-13.4.6H123.9a118.733,118.733,0,0,1-13.4-.6V61.6c3.7-.3,7.4-.5,12.1-.5h15.5V65H127.8c-5,0-8.1-.1-11.4-.4a109.936,109.936,0,0,1,.4,11.1v6a103.8,103.8,0,0,1-.4,10.7c3.4-.3,6.5-.4,11.6-.4h13.5c-1,2-1.3,2.4-2.2,4Zm42.8,12.5a24.92,24.92,0,0,1-5.4,6.5c-3.4-1-3.4-1-15.3-3.6,1.3-1.4,1.7-1.8,2.6-2.9ZM152.3,61.1h6.6V65h-6.6Zm-14.2,14V82h-6.5V75.1Zm14.2,0h6.6V82h-6.6Zm20.8,0h6.8V82h-6.8Zm123.2,58c-1.3-2.8-2.9-6.9-4.8-12.2L269.8,60.7a79.8,79.8,0,0,1-3.4-10.8H240.3a61.044,61.044,0,0,1-3.2,10.8l-21.6,60.2c-2.4,6.8-3.3,9.2-4.8,12.2h23.4a57.629,57.629,0,0,1,2.5-10.8l2.7-8.5h28.5l2.7,8.5a81.208,81.208,0,0,1,2.4,10.8ZM262.9,97H244.1l9.3-30Zm45.3-47.1a93.4,93.4,0,0,1,.8,14.8v53.6a95.843,95.843,0,0,1-.8,14.8h22a96.667,96.667,0,0,1-.8-14.8V64.7a92.593,92.593,0,0,1,.8-14.8Zm102.2,77.8v5.9h18.8a150.953,150.953,0,0,1-.6-16.5V64.9c0-5,.1-6.7.3-10.2-2.9.2-5.7.3-11.1.3H371.9c-9.5,0-12.7-.2-17.5-.9V72.3c4.2-.4,8-.5,17.2-.5h38.8v39.1h-40c-9.9,0-12.6-.1-17.4-.8v18.2c4.5-.5,7.9-.6,17.1-.6ZM452,101.5c6.1-.5,9.4-.6,20.6-.6h47.6c11.4,0,15.8.1,20.6.6V82.2a164.075,164.075,0,0,1-20.5.9H472.5c-10.4,0-15.8-.2-20.5-.9Zm190,20c-15.6-14.9-19.7-18.4-31.8-27.1,5.6-7.5,9.4-14.5,14.7-27,1.5-3.4,2.1-4.4,3.6-5.9l-8.8-9c-2.7,1-3.3,1-8,1.1l-34.2.5c-2.9.1-4.8.1-5.6.1a74.084,74.084,0,0,1-10.5-.7l.5,17.8c4.1-.6,7.3-.8,15.9-1l26-.4a80.447,80.447,0,0,1-20.1,29.4,94.3,94.3,0,0,1-32.4,20.2,52.386,52.386,0,0,1,11.2,15.8c15.5-7.5,27.4-16.3,36.8-27.4A160.777,160.777,0,0,1,628,136.3Zm37.4-72.4a50.143,50.143,0,0,1,1.6,6.6c3,15.2,3.5,17.6,5.9,26.3-6.1,3.1-9,4.8-12.5,7.6a26.8,26.8,0,0,0-10.3,20.6c0,7.9,3.5,15.1,9.2,18.8,6.6,4.2,16.7,6.3,31.1,6.3a223.05,223.05,0,0,0,25.2-1.7c5.1-.6,6.2-.7,8.7-.8l-1.3-19a43.656,43.656,0,0,1-5.3,1.5,146.018,146.018,0,0,1-29.3,3.2c-13.9,0-19.9-2.7-19.9-8.8,0-5.9,6.6-11.2,19.4-15.7,11.9-4.1,25.9-7.8,35.8-9.3L732,66.9a20.173,20.173,0,0,1-4.1,1.5c-3.6,1.1-3.6,1.1-13.1,3.9-4.1,1.1-7,2.1-11.5,3.7-3-11-5.3-23-5.7-29.6Zm101.3-.8c-4.6,0-8.2-.2-11.5-.5.3,4.1.5,7.7.5,11.4v67.1a120.108,120.108,0,0,1-.6,12.2h16V134h43.3v4.5h16.2A129.763,129.763,0,0,1,844,125V59c0-3.3.2-6.9.5-11.2a86.361,86.361,0,0,1-11.1.5ZM785.1,72V62.5h43.3V72Zm0,13.8h43.3v9.9H785.1Zm0,23.5h43.3v10.4H785.1Zm152.2-1.9a158.168,158.168,0,0,0-11.8-24.9L912.8,88a73.017,73.017,0,0,0,10.6-15.3H941c-.2,28.6-.9,42.2-2.7,47.6-.9,2.9-2.5,3.7-7.2,3.7a91.942,91.942,0,0,1-11.6-.9,50.373,50.373,0,0,1,3.9,15.6c3.3.1,5.4.1,7.4.1,6,0,11.7-.8,14.6-2.1,4.1-1.8,6-4.8,7.6-12.2,1.2-5.7,2.3-17.8,2.6-29,.6-25.1.7-27.5.7-31.4a55.878,55.878,0,0,1,.5-6.8,56.177,56.177,0,0,1-8.4.4H930c.8-2.2,1.1-3,1.9-5.7a31.129,31.129,0,0,1,1.8-4.9l-15.8-2.3a35.379,35.379,0,0,1-1.7,7,79.727,79.727,0,0,1-10.4,20.6V61.5c.2-2.2.2-2.2.3-3.1-2.3.2-5,.3-8.4.3h-4.5c2.3-5.1,2.3-5.1,5.1-12.1l-15.9-1.9a70.325,70.325,0,0,1-4.2,14H876a60.867,60.867,0,0,1-8.6-.3,89.512,89.512,0,0,1,.4,10.9v53.2a115.037,115.037,0,0,1-.6,13.7h15.1v-8.9h9.3v5.6h14.5c-.2-3.1-.3-6.1-.3-9.4V85.2a64,64,0,0,1,4.8,5.1c.8-.8,1-1.1,1.6-1.7a96.014,96.014,0,0,1,10.5,25.2ZM882.2,72.6h9.5V85.8h-9.5Zm0,26.5h9.5v14.6h-9.5Zm114.6-7.5c.1-1.7.1-2.5.2-6.9h8.6c6.2,0,10,.1,13.8.4-.2-2.1-.3-4.3-.3-11.7V59a98.565,98.565,0,0,1,.5-11.8c-3.6.3-6.9.4-13.4.4H985.1c-5.9,0-10-.1-13.6-.4a108.6,108.6,0,0,1,.5,12.4v13a111.339,111.339,0,0,1-.5,12.6c3.3-.3,5.3-.4,10.3-.5-.2,8.9-.6,12.9-1.7,18.8-2.1,10.1-5.1,15.6-11.9,21.6,4.6,4.8,6.5,7.6,10,14.3,5.6-5.3,8.4-8.9,11.5-15.2,1.6,3.9,2.4,7.3,3.1,13.8,3.4.3,6,.4,7.9.4,10.5,0,14.2-2,16.1-8.7,1.5-5.4,2.3-15.6,2.4-31.5,0-4.8.1-5.1.2-7.1a85.783,85.783,0,0,1-9.6.5Zm7.3,13.7c-.1,9.1-.5,13.9-1.2,16.4-.5,1.4-1.7,1.8-5.1,1.8a66.1,66.1,0,0,1-7.5-.6,65.648,65.648,0,0,0,5-17.6ZM986.9,60.9h17.5V71.3H986.9Zm37.1-8.6a107.584,107.584,0,0,1,.5,12.9v37.4a79.134,79.134,0,0,1-.5,11.8h15.8a92.959,92.959,0,0,1-.5-12.2v-37a107.584,107.584,0,0,1,.5-12.9Zm21-6.1c.4,5.1.6,10.1.6,14.6v59.4c0,2.4-1.1,3.1-5,3.1-3.7,0-7.4-.2-14.1-.8a60.837,60.837,0,0,1,4.8,15.5c3.6.1,5.3.2,7.2.2,8.3,0,14.4-.8,17.5-2.3,3.2-1.6,4.7-5.6,4.7-12.3V60.8c0-6.2.2-10,.6-14.6Zm95.4,81.5v5.9h18.8a150.951,150.951,0,0,1-.6-16.5V64.9c0-5,.1-6.7.3-10.2-2.9.2-5.7.3-11.1.3h-45.9c-9.5,0-12.7-.2-17.5-.9V72.3c4.2-.4,8-.5,17.2-.5h38.8v39.1h-40c-9.9,0-12.6-.1-17.4-.8v18.2c4.5-.5,7.9-.6,17.1-.6Zm41.6-26.2c6.1-.5,9.4-.6,20.6-.6h47.6c11.4,0,15.8.1,20.6.6V82.2a164.076,164.076,0,0,1-20.5.9h-47.8c-10.4,0-15.8-.2-20.5-.9Zm190,20c-15.6-14.9-19.7-18.4-31.8-27.1,5.6-7.5,9.4-14.5,14.7-27,1.5-3.4,2.1-4.4,3.6-5.9l-8.8-9c-2.7,1-3.3,1-8,1.1l-34.2.5c-2.9.1-4.8.1-5.6.1a74.084,74.084,0,0,1-10.5-.7l.5,17.8c4.1-.6,7.3-.8,15.9-1l26-.4a80.449,80.449,0,0,1-20.1,29.4,94.305,94.305,0,0,1-32.4,20.2,52.386,52.386,0,0,1,11.2,15.8c15.5-7.5,27.4-16.3,36.8-27.4a160.777,160.777,0,0,1,28.7,28.4Z" transform="translate(232.5 8088)"></path><path id="&#x7DDA;_48" data-name="&#x7DDA; 48" d="M12.5,275h-25V0h25Z" transform="translate(160 7977.5)" fill="#533afc"></path></g></svg>