<svg xmlns="http://www.w3.org/2000/svg" width="1543.8" height="297" viewBox="0 0 1543.8 297"><g id="&#x30B0;&#x30EB;&#x30FC;&#x30D7;_19624" data-name="&#x30B0;&#x30EB;&#x30FC;&#x30D7; 19624" transform="translate(-147.5 -18970.5)"><path id="&#x7DDA;_47" data-name="&#x7DDA; 47" d="M12.5,297h-25V0h25Z" transform="translate(160 18970.5)" fill="#533afc"></path><path id="&#x30D1;&#x30B9;_33883" data-name="&#x30D1;&#x30B9; 33883" d="M41.4-31.1V-2.5A75.178,75.178,0,0,1,40.8,9H56V5.3H84.5a103.678,103.678,0,0,1,12.1.6V-9a58.71,58.71,0,0,1-9.3.5H55.9V-22a29.277,29.277,0,0,1,4.2,6.4,43.088,43.088,0,0,0,8.5-13.9c-.2,3.1-.2,4.6-.2,7.9V-15a26.414,26.414,0,0,1-.3,4.5H82a26.652,26.652,0,0,1-.3-4.7v-7.1a71.754,71.754,0,0,0-.3-7.4,53.245,53.245,0,0,0,11,15,62.626,62.626,0,0,1,6.3-14.2A42.687,42.687,0,0,1,85.4-42h2.5a61.8,61.8,0,0,1,8.3.4V-56a45.673,45.673,0,0,1-8.3.5H81.7v-4.9L90-55.9c3.5-6.9,4.6-9.7,7.3-19.5L86.6-80.5a68.521,68.521,0,0,1-4.9,17.3V-76.7a57.825,57.825,0,0,1,.4-7.7H67.8a53.142,53.142,0,0,1,.4,7.4v10.7a106.414,106.414,0,0,0-5.3-14l-7,4a54.88,54.88,0,0,1,.4-6H40.9a55.9,55.9,0,0,1,.5,8.7v4.3L30.3-74.9c-1.1,3.2-1.1,3.2-9,16.2-.9-1.3-1.1-1.6-2.1-3a123.179,123.179,0,0,0,8.9-16.1,38.75,38.75,0,0,1,2-3.5l-13-5.1a54.042,54.042,0,0,1-5.7,14.5L9.1-74.8,2.4-62.4A90.588,90.588,0,0,1,13.3-47.1a23.987,23.987,0,0,1-2.6,3.3,44.938,44.938,0,0,1-7.8-.4L4.1-30c2.3-.5,2.3-.5,12.7-.9V-1.8a64.04,64.04,0,0,1-.6,11H29.9a61.991,61.991,0,0,1-.6-11V-31.7c2.4-.2,2.4-.2,5-.5.2,1.2.3,1.8.5,3.6Zm0-9.5A82.2,82.2,0,0,0,37-54.1l-6.7,2.5c3.6-4.8,5-6.8,6.2-8.6,4.4-6.7,4.4-6.7,4.9-7.5ZM55.9-55.5V-71.1a71.331,71.331,0,0,1,4.9,15l7.4-4.4v5Zm0,13.5h8.6a44.279,44.279,0,0,1-8.6,11.6ZM29.4-50.5a59.565,59.565,0,0,1,2,6c-2.5.2-3.2.2-6.9.4,1.9-2.3,2.3-2.8,3-3.8A22.871,22.871,0,0,0,29.4-50.5ZM5.6-28.3C5.3-15.7,4.5-9.3,2.4-.7l9.8,5.1c1.9-9.8,2.6-17,3-31.4Zm25.3,2.2c.7,6.5.8,8.2,1.2,25.2l7.6-1.3c-.2-9.1-.5-16.2-1.3-25.4Zm77.9-3.7a28.775,28.775,0,0,1,6.1-.7c.5,0,1.7-.1,3.6-.2.8,0,2.1-.1,3.6-.2V-1.6a64.04,64.04,0,0,1-.6,11h14.4a61.32,61.32,0,0,1-.6-11V-31.7c1.3-.1,1.3-.1,4-.4a30.533,30.533,0,0,0,.5,3.5l7.8-2.9a59.715,59.715,0,0,1-.3,7.2h8.3c-.5,9.3-2.7,13.5-9.1,17.4-.2-6.5-.9-14.4-1.8-21L137-26.3c1,8.4,1.2,11.6,1.5,26l4.3-.8A52.4,52.4,0,0,1,148,9c7.5-3.8,11.1-6.4,14.5-10.8,4-4.8,6.5-12.6,6.8-20.9.2-6.1.2-6.1.5-8l-9.3-.1V-34h25.9v3.2h-14a30.861,30.861,0,0,1,.4,5.8V-1.8c0,7.5,2.8,9.6,12.8,9.6,9.6,0,13.2-1.2,14.9-4.9,1.3-2.6,1.9-6.6,2.6-17A46.725,46.725,0,0,1,191-18.6a88.627,88.627,0,0,1-.4,10.8c-.2,1.4-.9,1.9-2.6,1.9-1.2,0-1.5-.4-1.5-1.5V-24.3h14.4a60.292,60.292,0,0,1-.5-8.3v-6a51.488,51.488,0,0,1,.4-7.7,63.917,63.917,0,0,1-8.6.4H155.8a72.255,72.255,0,0,1-8.5-.3,63.9,63.9,0,0,1,.3,7.7v1.3a149.578,149.578,0,0,0-4.7-17.1l-7,2.5q5.55-7.95,9.9-14.7v1.2a110.681,110.681,0,0,1,11.7-.4h7.6v4.3h-6.6a92.318,92.318,0,0,1-10.6-.4V-49a87.066,87.066,0,0,1,10.5-.4h29.5a86.2,86.2,0,0,1,10.4.4V-61.8a91.44,91.44,0,0,1-10.5.4h-8v-4.3h9.9a102.825,102.825,0,0,1,11.5.4V-78.8a93.24,93.24,0,0,1-11.9.6h-9.5a28.266,28.266,0,0,1,.6-6.7H164.6a39,39,0,0,1,.5,6.7h-7.3a92.826,92.826,0,0,1-12-.6v8.7l-9.7-5.2c-1.7,4.1-2.3,5.1-8.9,15.8-1.1-1.4-1.1-1.4-2.3-3a165.24,165.24,0,0,0,8.4-14.6c1.3-2.6,1.6-3.1,2.3-4.3L122.4-86a73.5,73.5,0,0,1-5.8,13.9l-2.8-3.2-6.5,12.6a127.282,127.282,0,0,1,12.2,14.9c-1.5,2-1.8,2.4-3.1,4.2-2.2.1-2.9.1-3.5.1a26.589,26.589,0,0,1-5.3-.4Zm26.1-20.7a41.384,41.384,0,0,1,1.8,6.2c-4,.2-4,.2-6.6.3C132.2-46.7,132.8-47.5,134.9-50.5ZM110.1-27.7c-.4,14.3-1,19.8-3,27.5l9.8,5.4c2-9.8,2.7-16.6,3.1-31.9Zm175.8,5.1a158.168,158.168,0,0,0-11.8-24.9L261.4-42A73.016,73.016,0,0,0,272-57.3h17.6c-.2,28.6-.9,42.2-2.7,47.6C286-6.8,284.4-6,279.7-6a91.942,91.942,0,0,1-11.6-.9A50.374,50.374,0,0,1,272,8.7c3.3.1,5.4.1,7.4.1,6,0,11.7-.8,14.6-2.1,4.1-1.8,6-4.8,7.6-12.2,1.2-5.7,2.3-17.8,2.6-29,.6-25.1.7-27.5.7-31.4a55.89,55.89,0,0,1,.5-6.8,56.177,56.177,0,0,1-8.4.4H278.6c.8-2.2,1.1-3,1.9-5.7a31.132,31.132,0,0,1,1.8-4.9l-15.8-2.3a35.379,35.379,0,0,1-1.7,7,79.726,79.726,0,0,1-10.4,20.6V-68.5c.2-2.2.2-2.2.3-3.1-2.3.2-5,.3-8.4.3h-4.5c2.3-5.1,2.3-5.1,5.1-12.1L231-85.3a70.33,70.33,0,0,1-4.2,14h-2.2a60.867,60.867,0,0,1-8.6-.3,89.511,89.511,0,0,1,.4,10.9V-7.5a115.046,115.046,0,0,1-.6,13.7h15.1V-2.7h9.3V2.9h14.5c-.2-3.1-.3-6.1-.3-9.4V-44.8a64,64,0,0,1,4.8,5.1c.8-.8,1-1.1,1.6-1.7a96.015,96.015,0,0,1,10.5,25.2ZM230.8-57.4h9.5v13.2h-9.5Zm0,26.5h9.5v14.6h-9.5ZM342.7-84.2a66.78,66.78,0,0,1-1.5,11.9,34.363,34.363,0,0,0-.9,4.2c-2,.1-2.5.1-3.6.1a81.75,81.75,0,0,1-14.6-1v16H326c2.3.1,2.3.1,4.6.1h5.6c-4.5,14.1-11.4,28.3-18.5,37.8L334-6.2a40.425,40.425,0,0,1,1.9-3.9c3.9-7.8,4.8-9.6,6.9-14.2a205.6,205.6,0,0,0,10.9-29c2.5-.2,8-.7,10.7-1,5-.6,5-.6,7.4-.8l-.3-16.2c-3.2,1-7.5,1.7-13.9,2.4.5-2.3.7-3.2,1.2-5.6,1.2-6.2,1.3-6.2,1.9-8ZM412-59.8c-9.3-5.4-17.5-9-30.1-13.5l-8.3,13.8a141.488,141.488,0,0,1,31.1,14.4ZM411.1-14c-3-2.4-4.6-3.7-4.9-3.9a73.238,73.238,0,0,0-15.4-8.9,89.056,89.056,0,0,1-.8-11.6,46.465,46.465,0,0,1,1.1-11.3l-16.5-.7c-.4,4.5-.6,7.7-.6,11.8,0,2.3.1,4.2.4,8a40.931,40.931,0,0,0-7-.6c-13.9,0-23.6,8.1-23.6,19.7a17.466,17.466,0,0,0,5,12.4c4.1,4.2,10.9,6.6,18.9,6.6s15-2.3,18.9-6.2c2.7-2.8,3.9-5.7,4.2-10.4A53.554,53.554,0,0,1,403.7,1.8Zm-36.4-1.7a10.18,10.18,0,0,1,.2,2.2c0,4.2-2.6,6.4-7.6,6.4-4.3,0-7.1-1.9-7.1-4.8,0-3.1,3-5.1,7.7-5.1A17.383,17.383,0,0,1,374.7-15.7ZM506.3,3.1c-1.3-2.8-2.9-6.9-4.8-12.2L479.8-69.3a79.8,79.8,0,0,1-3.4-10.8H450.3a61.044,61.044,0,0,1-3.2,10.8L425.5-9.1c-2.4,6.8-3.3,9.2-4.8,12.2h23.4a57.628,57.628,0,0,1,2.5-10.8l2.7-8.5h28.5l2.7,8.5a81.209,81.209,0,0,1,2.4,10.8ZM472.9-33H454.1l9.3-30Zm45.3-47.1a93.4,93.4,0,0,1,.8,14.8v53.6a95.843,95.843,0,0,1-.8,14.8h22a96.664,96.664,0,0,1-.8-14.8V-65.3a92.59,92.59,0,0,1,.8-14.8Zm51.1,9.7c-6.1,0-8.7-.1-12.3-.4a65.4,65.4,0,0,1,.4,8.4v11a47.03,47.03,0,0,1-.5,8.3h15.2V-57.2h59.8v14.1h15.2a66.84,66.84,0,0,1-.5-8.2V-62.4a62.5,62.5,0,0,1,.4-8.4c-3.4.3-6.3.4-12.5.4h-2A111.9,111.9,0,0,0,638.1-81l-15.3-3.3a71.29,71.29,0,0,1-6.2,13.9h-5.9a83.7,83.7,0,0,0-5.9-14.3L589.6-82a61.2,61.2,0,0,1,5.2,11.6h-6.7a105.176,105.176,0,0,0-7.6-13.3l-14.7,3a71.543,71.543,0,0,1,6,10.3Zm41.4,53.7h22.2a130.621,130.621,0,0,1,14.3.6V-31.3a128.971,128.971,0,0,1-14.1.7H614.6a165.7,165.7,0,0,0,14-11.9c1.5-1.4,1.9-1.8,3-2.7l-7.3-8.3a49.475,49.475,0,0,1-7.9.4H586.5a106.3,106.3,0,0,1-10.7-.4V-40a101.673,101.673,0,0,1,10.6-.4h20.7a36.506,36.506,0,0,1-6.8,5.1h-5.5a30.87,30.87,0,0,1,.3,4.7H570.5a110.921,110.921,0,0,1-13.6-.7v15.2a125.465,125.465,0,0,1,13.8-.6h24.4v9.5c0,1.8-.7,2.1-4.7,2.1-2.8,0-6.6-.3-12.1-.8a58.747,58.747,0,0,1,4.4,14.7c4.7.2,7.4.3,9.1.3,15.5,0,18.9-2.2,18.9-11.9ZM750.1-72.5a94.1,94.1,0,0,1,.4-10.8,69.563,69.563,0,0,1-9.6.4H719.4a114.391,114.391,0,0,1-12.4-.6v14c2.8-.3,3.9-.3,7.4-.4L708.3-64a64.336,64.336,0,0,1,11.8,9,78.208,78.208,0,0,1-13.3,3.3l2.4,7.4-4.8-.8a28.337,28.337,0,0,0,.4-5.4V-72.8c0-6.3.1-8.5.3-10.7a68.927,68.927,0,0,1-10.5.5H673.7a104.889,104.889,0,0,1-12.1-.6v14.1a47.155,47.155,0,0,1,8.8-.5l-6.7,6a60.443,60.443,0,0,1,11.6,8.8,92.989,92.989,0,0,1-14.9,3.8l4.4,13.7a33.947,33.947,0,0,1,5.1-2c3.9-1.4,8.7-3.2,12.6-4.8a37.015,37.015,0,0,1,.9,5.9c3.5.1,5.2.1,7.3.1a43.662,43.662,0,0,0,5.9-.3,19.58,19.58,0,0,1-1.9,3H681.4a101.437,101.437,0,0,1-11-.3c.2,3.2.3,5.1.3,11.8V-4a97.854,97.854,0,0,1-.5,12.8h15.3V5h41.8V8.8h15.4A95.035,95.035,0,0,1,742.2-4V-24.5a81.067,81.067,0,0,1,.5-11.6,101.52,101.52,0,0,1-11.1.3H710.8c1.3-1.8,1.3-1.8,2-2.9,1.6-.6,2.1-.8,4.2-1.6a98.228,98.228,0,0,0,9.7-3.9,45.418,45.418,0,0,1,.9,5.7c2.3,0,5.6.1,6.9.1,7.9,0,11.2-.6,13.2-2.5,1.8-1.6,2.4-3.8,2.4-9.5Zm-64,9.1a64.148,64.148,0,0,0-9.3-6.6H691v16.8c0,1.6-.3,1.8-2.7,1.9l-.1-8.9c-5,2.1-6.8,2.9-9.8,3.9Zm44,.2a65.657,65.657,0,0,0-9.5-6.7H736v16.8c0,1.7-.3,1.9-2.9,2v-9.1c-5.4,2.3-7,3-10.2,4.1ZM685.5-24.8h41.9v3.9H685.5Zm0,14.3h41.9v4.1H685.5Zm85-48.3H772c1.4,0,2.1,0,3.5.1,4.3.1,4.3.1,8.6.1h3.2c-.4.7-.4.7-1.9,3.2-1.5,2.4-5.5,8.2-7.7,10.9a68.661,68.661,0,0,1-10.6,10.4l12.7,12.6a63.522,63.522,0,0,1,9.6-10.1c7-6.1,13.9-9.6,19-9.6a4.131,4.131,0,0,1,4,2.5c-4,1.8-5,2.2-7.4,3.4-6.2,3.1-10.7,6.4-14.4,10.7-3.4,4.1-4.9,7.9-4.9,12.6a16.078,16.078,0,0,0,7.9,14.2c5.4,3.2,12.5,4.6,23.8,4.6a197.355,197.355,0,0,0,24.1-1.5,64.592,64.592,0,0,1,8.9-.9l-1.1-18c-8.5,3.2-20,5-32,5-9.7,0-13.4-1.5-13.4-5.3a6.9,6.9,0,0,1,2.6-5.1c1.8-1.6,2.4-2,7-4.2l.9-.4c-.1,6-.2,9.1-.5,10.6l16.3-.5a62.049,62.049,0,0,1-.4-8.6c0-4.4,0-4.5-.1-7.2,9.6-3.3,20.3-6.1,25.5-6.8l-6.1-15.8c-1.6.9-2.3,1.1-8,3-3.2,1-5.9,1.9-6.2,2-5.3,1.8-5.3,1.8-7,2.4-2-6.5-7-9.7-15.3-9.7a29.508,29.508,0,0,0-12.7,3,54.175,54.175,0,0,0,4.8-7.4c10.2-.3,22.7-1,29.8-1.7q4.35-.45,9-.9l-.6-15.9c-5.3,1.4-15.5,2.7-25.3,3.2-5.1.3-5.1.3-6.1.4.1-.2.7-1.8,2-4.7a29.066,29.066,0,0,1,2.1-4.7l-18.3-1.4a36.189,36.189,0,0,1-3.1,11.1h-2.8c-10.4,0-16.4-.4-20.7-1.4ZM39.2,66.6V58.9a71.945,71.945,0,0,1,.4-10.2H21.3a67.4,67.4,0,0,1,.6,10.6v7.3H18.5c-7.9,0-9.9-.1-14.4-.7V83a118.521,118.521,0,0,1,14.1-.5h3.7v11a74.3,74.3,0,0,1-.6,10.5H39.6a89.7,89.7,0,0,1-.4-10.3V82.5H60.3c-.1,5.7-.1,6.4-.2,8.2-.8,11.2-3.7,17.7-10.5,23.1-4.5,3.6-9.6,5.9-19.3,8.8,5.4,5.5,7.7,8.7,10.9,15.3,10.1-3.8,15.3-6.6,20.7-11.3,8.8-7.6,13.3-16.7,14.8-30.2.4-3.8.5-6,.7-13.9h4.4c6.5,0,9.3.1,14.1.5V65.9c-4.1.6-6.9.7-14.4.7H77.6c.1-14.8.1-14.8.5-17.8h-18A73.872,73.872,0,0,1,60.6,60v6.6Zm159.1-2.7A11.266,11.266,0,1,0,185,62.4H163.5V58.7a76.3,76.3,0,0,1,.6-11.3h-19a75.976,75.976,0,0,1,.6,11.1v3.9H127.4c-8.4,0-11.7-.2-15.3-.8V78.7c3.6-.5,6.3-.6,15.1-.6h18.5v43.7a135.586,135.586,0,0,1-.6,15.2H164c-.3-2.9-.5-8.3-.5-15V78.1h19.4c8.7.1,12.1.2,15.4.6Zm-5.6-15.5a5.65,5.65,0,1,1-5.7,5.7A5.743,5.743,0,0,1,192.7,48.4ZM122.4,83.3c-1.2,12.8-7.5,28.5-15.5,38.9a70.433,70.433,0,0,1,16.5,8.2c7.4-11,12.6-24.1,15.5-39.5a32.865,32.865,0,0,1,.7-3.6Zm47.1,4a24.38,24.38,0,0,1,1.5,4.9c4.2,16.5,7.5,25.1,14.8,38.4a96.849,96.849,0,0,1,16.5-9.3c-6.5-9.1-13.3-25.2-16.2-38.2Zm46.1,14.2c6.1-.5,9.4-.6,20.6-.6h47.6c11.4,0,15.8.1,20.6.6V82.2a164.075,164.075,0,0,1-20.5.9H236.1c-10.4,0-15.8-.2-20.5-.9Zm142.8,34.4a146.638,146.638,0,0,1-.6-15.3v-26c1,.6,1,.6,4.5,2A185.362,185.362,0,0,1,393.8,114l9.5-17a212.1,212.1,0,0,0-45.5-20.8V62.5a129.305,129.305,0,0,1,.5-14.6H339a94.606,94.606,0,0,1,.7,14.5v58.2a142.727,142.727,0,0,1-.6,15.3Zm67.4-61.1c7.7-1.1,24-2,44.7-2.6a16.27,16.27,0,0,1,.1,2.4v3.1a22.585,22.585,0,0,0-7.8-1.1c-13.8,0-23.2,7.8-23.2,19.2,0,10.7,8.2,18.3,19.8,18.3,5.8,0,9.2-1.2,13.4-4.7a16.567,16.567,0,0,1-7.4,7.9c-4.8,3-10.5,4.6-20.6,6.1,4.5,5,6.7,8.7,9.5,15.8,9.5-2.8,15.2-5.1,20.1-8.1,10.7-6.7,16.5-16.5,16.5-27.7,0-6.7-1.1-11.4-4-16.7V71.9c4-.1,4.7-.1,10-.1,11.5,0,13.5.1,18,.5l-.1-16.4c-4,.4-11.4.6-28,.7a67.691,67.691,0,0,1,.5-10.2H469.6c.5,2.9.6,4.2.7,10.6-9.3.3-36.2,1-38.9,1-2.5,0-3.6-.1-6.1-.3ZM464,89.2c4,0,6.6,2.1,6.6,5.2,0,3.4-3.3,6-7.6,6-3.8,0-6.6-2.3-6.6-5.4C456.4,91.6,459.6,89.2,464,89.2ZM543.7,67c2-.2,3.9-.4,6.6-.5,14.1-.7,18.1-.9,23.4-1.5C561.3,77.3,540.2,93.7,531,98l9.3,15.2a74.356,74.356,0,0,1,9.6-7.5,57.506,57.506,0,0,1,30.8-9.2c11.1,0,17.9,4.3,17.9,11.3,0,5.1-2.5,8.5-7.9,10.9-1.5-3.7-2.6-5.7-4.6-7.9a23.455,23.455,0,0,0-17.9-7.7c-11.6,0-19.9,6.7-19.9,16,0,11.1,10.3,17.8,27.2,17.8,10,0,19.6-2.3,26.5-6.3,9.1-5.4,13.8-13.4,13.8-23.5,0-7.2-2.5-13-7.3-17.3-5.3-4.6-12-6.8-21.4-6.8a47.842,47.842,0,0,0-13.7,1.8c6.7-4.9,8.5-6.4,13.8-10.9,13.5-11.6,13.5-11.6,16.1-13.1l-8.2-12.1c-1.9.8-3.2,1.1-7.6,1.4-10.1.8-21.2,1.2-30.1,1.2a111.909,111.909,0,0,1-14.4-.7Zm32.1,56.2a15.177,15.177,0,0,1-3.3.3c-5.4,0-8.6-1.7-8.6-4.4,0-2,1.6-3.3,3.9-3.3C571.7,115.8,574.5,118.4,575.8,123.2ZM697.5,50.1a50.368,50.368,0,0,1,.5-5.7H683.2c.2,2.2.3,3.3.4,5.7h-7.5a35.543,35.543,0,0,1,.5-5.7H661.7a52.52,52.52,0,0,1,.5,5.7H651a107.8,107.8,0,0,1-11.4-.4,77.787,77.787,0,0,1,.4,9.1V74.6a76.115,76.115,0,0,1-.4,9.3,94.594,94.594,0,0,1,10.2-.4h60.4a97,97,0,0,1,10.2.4,72.044,72.044,0,0,1-.4-9.3V58.8a74.579,74.579,0,0,1,.4-9.1,107.8,107.8,0,0,1-11.4.4ZM662.3,60v3.7h-7.6V60Zm13.8,0h7.5v3.7h-7.5Zm21.3,0h7.9v3.7h-7.9ZM662.3,71.6v3.6h-7.6V71.6Zm13.8,0h7.5v3.6h-7.5Zm21.3,0h7.9v3.6h-7.9Zm-41.7,49.7a43.69,43.69,0,0,1,1.9,4.5H646.5a102.482,102.482,0,0,1-12.1-.6V138a102.484,102.484,0,0,1,12.1-.6h67.4a98.22,98.22,0,0,1,11.8.6V125.2a94.791,94.791,0,0,1-11.8.6H702.7c.8-1.8,1.5-3.3,2-4.5h2.1c3.7,0,6.7.1,9.6.3a40.831,40.831,0,0,1-.4-6.6v-8.6a36.187,36.187,0,0,1,.4-6.3c-2.6.2-6.1.3-10.7.3H654.2c-4.6,0-8.2-.1-10.7-.3a38.457,38.457,0,0,1,.4,6.3V115a42.449,42.449,0,0,1-.4,6.6c3-.2,5.7-.3,9.7-.3Zm32.5,0a30.4,30.4,0,0,1-1.9,4.5H673.8c-1-2.4-1.3-3-2-4.5Zm-29.4-12.2h42.3v3.4H658.8Zm65.6-23.2a88.594,88.594,0,0,1-12,.5h-65a94.217,94.217,0,0,1-12-.5V98a97.209,97.209,0,0,1,12-.6h65a99.493,99.493,0,0,1,12,.6ZM752,50c-5.5,0-8.8-.1-11.9-.4a64.09,64.09,0,0,1,.4,7.3v8a45.727,45.727,0,0,1-.5,7.5h15.1V61.8H815V72.4h15.1a39.664,39.664,0,0,1-.5-7.4V56.9a47.307,47.307,0,0,1,.4-7.3c-3.2.3-6.4.4-12,.4H792.2a38.8,38.8,0,0,1,.5-5.7H775.9a43.17,43.17,0,0,1,.5,5.7Zm5.7,23.7c2.4-.2,4.5-.3,6.8-.3h40.8c2.5,0,4.6.1,7.1.3V64.1c-2,.2-4.5.3-7.1.3H764.6c-2.5,0-5-.1-6.9-.3Zm60.7,9.4a49.58,49.58,0,0,1,.3-7.3c-3.2.2-5.9.3-9.9.3H761.3c-4,0-6.7-.1-9.9-.3.2,3,.3,3.8.3,7.3v6.3a66.116,66.116,0,0,1-.3,7.4c3.6-.2,6.5-.3,9.9-.3h47.5c3.2,0,6.4.1,9.9.3a46.154,46.154,0,0,1-.3-7.4Zm-14.6,1.6v3.2H766.3V84.7Zm-59,42.4c0,4.7-.2,8.4-.5,11.9h15.2v-3h51v3h15.2a102.452,102.452,0,0,1-.5-11.9V109.7c0-4.6.1-7.3.4-10.8a101.344,101.344,0,0,1-10.7.4H755.1a100.142,100.142,0,0,1-10.7-.4c.3,3.6.4,6.2.4,10.8Zm14.7-17.7h17.6v3.3H759.5Zm32.3,0h18.7v3.3H791.8Zm-32.3,12.2h17.6V125H759.5Zm32.3,0h18.7V125H791.8Zm75.9-75.8a66.783,66.783,0,0,1-1.5,11.9,34.378,34.378,0,0,0-.9,4.2c-2,.1-2.5.1-3.6.1a81.751,81.751,0,0,1-14.6-1V77H851c2.3.1,2.3.1,4.6.1h5.6c-4.5,14.1-11.4,28.3-18.5,37.8l16.3,8.9a40.4,40.4,0,0,1,1.9-3.9c3.9-7.8,4.8-9.6,6.9-14.2a205.6,205.6,0,0,0,10.9-29c2.5-.2,8-.7,10.7-1,5-.6,5-.6,7.4-.8l-.3-16.2c-3.2,1-7.5,1.7-13.9,2.4.5-2.3.7-3.2,1.2-5.6,1.2-6.2,1.3-6.2,1.9-8ZM937,70.2c-9.3-5.4-17.5-9-30.1-13.5l-8.3,13.8a141.487,141.487,0,0,1,31.1,14.4Zm-.9,45.8c-3-2.4-4.6-3.7-4.9-3.9a73.238,73.238,0,0,0-15.4-8.9,89.057,89.057,0,0,1-.8-11.6,46.467,46.467,0,0,1,1.1-11.3l-16.5-.7c-.4,4.5-.6,7.7-.6,11.8,0,2.3.1,4.2.4,8a40.932,40.932,0,0,0-7-.6c-13.9,0-23.6,8.1-23.6,19.7a17.466,17.466,0,0,0,5,12.4c4.1,4.2,10.9,6.6,18.9,6.6s15-2.3,18.9-6.2c2.7-2.8,3.9-5.7,4.2-10.4a53.554,53.554,0,0,1,12.9,10.9Zm-36.4-1.7a10.18,10.18,0,0,1,.2,2.2c0,4.2-2.6,6.4-7.6,6.4-4.3,0-7.1-1.9-7.1-4.8,0-3.1,3-5.1,7.7-5.1A17.383,17.383,0,0,1,899.7,114.3ZM1014,127.7v5.9h18.8a150.951,150.951,0,0,1-.6-16.5V64.9c0-5,.1-6.7.3-10.2-2.9.2-5.7.3-11.1.3H975.5c-9.5,0-12.7-.2-17.5-.9V72.3c4.2-.4,8-.5,17.2-.5H1014v39.1H974c-9.9,0-12.6-.1-17.4-.8v18.2c4.5-.5,7.9-.6,17.1-.6Zm45.1-61a106.8,106.8,0,0,1,27.2,21.1l11.8-15.6c-8.4-7.6-14.9-12.2-27.5-19.6Zm6.2,67.2c2.7-.8,3.3-.9,7.2-1.8,18.6-4.3,28.1-8,38.9-15,14-9,23.5-20.8,32.6-40.5-7.5-5.5-9.8-7.5-14.7-13.4a92.069,92.069,0,0,1-9.8,19.6c-7.7,12-16.7,19.5-29.3,24.7a100.342,100.342,0,0,1-30.1,7.2Zm167.6-41.6a132.7,132.7,0,0,1,15.6.5V76.1c-4.5.6-7,.7-15.9.7h-55.7c-8.3,0-11.1-.1-15.4-.8V92.8a134.121,134.121,0,0,1,15.1-.5h20.5c-.8,16-8.7,24.9-27,30.3,6,5.7,8.1,8.6,11.7,15.8,13.8-5.6,21.3-11.3,26.8-20.3,4.5-7.5,6.4-14.1,7.2-25.8Zm-61.2-25.1c3.8-.4,6.5-.5,15.2-.5h35.6c10.2,0,11.8.1,15.7.5V50.3c-4.4.7-6.7.8-16,.8h-35c-8.7,0-11-.1-15.5-.8Zm97.4-.5a106.8,106.8,0,0,1,27.2,21.1l11.8-15.6c-8.4-7.6-14.9-12.2-27.5-19.6Zm6.2,67.2c2.7-.8,3.3-.9,7.2-1.8,18.6-4.3,28.1-8,38.9-15,14-9,23.5-20.8,32.6-40.5-7.5-5.5-9.8-7.5-14.7-13.4a92.069,92.069,0,0,1-9.8,19.6c-7.7,12-16.7,19.5-29.3,24.7a100.342,100.342,0,0,1-30.1,7.2Zm95.2-73.8c4.6,8.6,8.3,19.3,11.2,31.9l17.3-5.3c-4.1-14.4-6.8-21.4-12-31.1Zm26.9-4.8a146.723,146.723,0,0,1,11.1,30.8l17.2-5.3c-3.7-12.7-7.1-21.4-11.9-29.9Zm42.4-2.1a58.525,58.525,0,0,1-1.3,11.3c-3.4,17.6-9.3,29.2-20,39.3-8.2,7.8-16.9,13-28.9,17.3,6.2,5.8,8.5,8.9,12.3,16,16.7-8.1,27.7-16.5,36.5-27.8,8.6-11.2,14.5-24.8,18.1-42.1a58.531,58.531,0,0,1,2.3-9.5Z" transform="translate(232.5 19093)"></path></g></svg>