<svg xmlns="http://www.w3.org/2000/svg" width="1759.61" height="403.586" viewBox="0 0 1759.61 403.586"><g id="&#x30B0;&#x30EB;&#x30FC;&#x30D7;_20888" data-name="&#x30B0;&#x30EB;&#x30FC;&#x30D7; 20888" transform="translate(-79.684 -183.5)"><path id="&#x7DDA;_34" data-name="&#x7DDA; 34" d="M1716,4H0V-4H1716Z" transform="translate(102.5 187.5)" fill="#707070"></path><path id="&#x7DDA;_35" data-name="&#x7DDA; 35" d="M1716,4H0V-4H1716Z" transform="translate(102.5 583.086)" fill="#707070"></path><path id="&#x30D1;&#x30B9;_36599" data-name="&#x30D1;&#x30B9; 36599" d="M61.852-43.146H75.106c4.7,0,6.392.094,9.306.282a82.72,82.72,0,0,1-.376-9.494v-15.7a87.253,87.253,0,0,1,.376-9.776c-3.2.282-6.58.376-11.28.376H20.68c-4.7,0-8.178-.094-11.28-.376a95.093,95.093,0,0,1,.376,9.776v15.7A90.383,90.383,0,0,1,9.4-42.864c2.914-.188,4.606-.282,9.212-.282h3.572l-9.87,7.52c8.648,4.606,12.69,7.05,16.45,9.964C8.742-25.85,8.742-25.85,4.136-26.414L5.64-12.69c1.974-.47,1.974-.47,19.458-.94C20.4-9.4,13.536-5.828,3.384-2.444A46.406,46.406,0,0,1,13.348,8.648c10.528-4.512,17.3-8.93,24.534-16.074l-9.588-6.3c6.486-.188,6.674-.188,10.434-.282v12.22a67.6,67.6,0,0,1-.564,10.434H54.05a64.1,64.1,0,0,1-.564-10.434V-14.57c7.9-.376,7.99-.376,12.126-.564L54.8-7.614c8.272,7.332,15.6,11.75,27.072,16.262A59.579,59.579,0,0,1,90.522-3.478c-11-3.008-17.484-6.11-24.252-11.656,6.3-.376,6.3-.376,10.34-.564,1.128,2.068,1.6,3.008,3.008,6.016l12.032-7.99a123.288,123.288,0,0,0-15.04-18.8l-11.092,6.3c1.786,1.786,2.632,2.632,3.666,3.854-7.9.282-9.494.282-11.186.376H56.024c3.384-2.538,7.8-6.11,12.69-10.34a21.213,21.213,0,0,1,2.726-2.162Zm-4.136,0A128.05,128.05,0,0,1,43.24-29.7c-1.128-.846-1.41-1.034-3.1-2.444a134.148,134.148,0,0,0,11.844-11Zm-21.9,0a39.974,39.974,0,0,1-4.7,4.418c-2.538-1.692-2.726-1.786-6.862-4.418ZM23.5-67.68H39.48V-64.2H23.5Zm46.812,0V-64.2H53.3V-67.68ZM23.5-55.836H39.48v3.478H23.5Zm46.812,0v3.478H53.3v-3.478Zm77.456,17.3c3.666-.376,7.9-.564,12.032-.564h4.042V-6.3a116.374,116.374,0,0,1-.658,14.946h16.074A122.315,122.315,0,0,1,178.6-6.3V-39.1h4.324c4.136,0,7.426.188,11.656.564V-53.2a93.26,93.26,0,0,1-11.562.564H178.6V-67.68a78.82,78.82,0,0,1,.564-12.032H163.278a81.058,81.058,0,0,1,.564,12.032v15.04h-4.136a106.479,106.479,0,0,1-11.092-.47V-64.766a53.981,53.981,0,0,1-7.708.376h-25.85a43.7,43.7,0,0,1-7.708-.47v12.69a62.106,62.106,0,0,1,7.708-.376h25.85c3.666,0,5.358.094,6.862.188ZM110.732-67.21c2.444-.188,4.7-.282,8.648-.282h17.3c3.948,0,6.2.094,8.554.282v-11a67.226,67.226,0,0,1-8.554.376h-17.3a68.894,68.894,0,0,1-8.648-.376Zm.188,28.294c1.5-.094,2.82-.188,5.64-.188h23.218a41.136,41.136,0,0,1,5.358.188V-49.632a38.122,38.122,0,0,1-5.358.188H116.56a46.9,46.9,0,0,1-5.64-.188Zm0,13.442a44.334,44.334,0,0,1,5.452-.188H139.5a44.465,44.465,0,0,1,5.64.188V-36.19a41.972,41.972,0,0,1-5.452.188H116.56c-2.82,0-4.042-.094-5.64-.188ZM124.08,4.888h8.178V7.332h13.724a65.579,65.579,0,0,1-.376-8.46V-15.792c0-2.82.094-4.982.282-6.956a41.365,41.365,0,0,1-5.734.282H117.03a59.082,59.082,0,0,1-6.768-.188,53.559,53.559,0,0,1,.376,6.956V-.282a80.244,80.244,0,0,1-.376,8.93H124.08Zm-.376-16.92h8.648V-6.3H123.7Z" transform="translate(76.3 375.695)"></path><path id="&#x30D1;&#x30B9;_36600" data-name="&#x30D1;&#x30B9; 36600" d="M40.608-49.444v14.1H28.67a115.291,115.291,0,0,1-12.6-.47v14.1c4.042-.376,7.9-.564,12.878-.564H40.608V-6.956H20.022c-5.452,0-10.152-.188-14.946-.658V6.956c5.452-.47,10.152-.658,15.51-.658h54.8c5.17,0,9.118.188,14.476.658V-7.614a138.6,138.6,0,0,1-14.946.658H55.554V-22.278H69.466c4.982,0,8.836.188,13.066.564V-35.908a129.264,129.264,0,0,1-13.16.564H55.554v-14.1H72.38c5.076,0,9.494.188,14.194.564V-63.074c-4.512.376-9.118.564-14.664.564H55.554v-4.324a86.62,86.62,0,0,1,.564-12.6H40.044a106,106,0,0,1,.564,12.6v4.324H29.328c.658-2.068,1.128-3.478,1.6-5.358.752-2.538.752-2.538,1.88-5.734L18.142-77.08c-.752,11.562-7.8,26.414-16.45,34.874a50.151,50.151,0,0,1,9.4,12.22A85.344,85.344,0,0,0,23.97-49.444ZM176.25-50.76c-.846,5.264-2.726,10.622-6.3,17.578a145.686,145.686,0,0,1-2.632-21.9h14.006a118.1,118.1,0,0,1,12.314.564V-68.714a56.621,56.621,0,0,1-9.306.47l5.546-4.606a68.621,68.621,0,0,0-11.938-8.742l-9.024,8.366a56.721,56.721,0,0,1,7.52,4.982h-9.494v-4.418a47.774,47.774,0,0,1,.47-6.768H152.092c.282,2.068.376,3.384.564,11.186h-26.6c-4.982,0-8.93-.188-12.784-.47a121.321,121.321,0,0,1,.564,12.408c0,17.2-.94,29.8-2.726,38.164a43.607,43.607,0,0,1-6.2,15.416C109.416.94,111.672,3.29,116.184,8.93c4.324-6.3,6.862-12.878,8.742-22.09a60.575,60.575,0,0,1,2.162,10.34c1.5.094,2.444.094,3.384.094a46.528,46.528,0,0,0,9.776-1.034A55.731,55.731,0,0,1,147.2,7.52,86.621,86.621,0,0,0,166-6.486C172.49,2.82,178.318,7.426,183.676,7.426c5.734,0,9.4-6.11,11.844-20.21a50.38,50.38,0,0,1-10.81-8.46c-.94,6.768-1.41,9.118-2.632,12.126-2.444-2.068-3.948-4.136-6.486-8.554a116.365,116.365,0,0,0,12.6-23.5,44.06,44.06,0,0,1,1.786-4.512Zm-48.41,5.452c.094-3.1.094-4.606.094-9.776H153.22c1.034,16.544,2.632,25.38,6.392,36.1A69.07,69.07,0,0,1,146.734-8.836c1.6-3.478,2.538-10.058,2.914-19.552.564-14.57.564-14.57.752-17.2a51.758,51.758,0,0,1-6.2.282Zm8.272,12.784c-.282,9.306-.564,12.878-1.41,14.758-.658,1.5-1.41,1.88-3.666,1.88a32.282,32.282,0,0,1-5.546-.564c.752-4.982,1.316-9.682,1.786-16.074ZM287.922,2.914C286.7.282,285.2-3.572,283.41-8.554l-20.4-56.588a75.013,75.013,0,0,1-3.2-10.152H235.282a57.379,57.379,0,0,1-3.008,10.152L211.97-8.554a92.607,92.607,0,0,1-4.512,11.468h22A54.171,54.171,0,0,1,231.8-7.238l2.538-7.99h26.79l2.538,7.99a76.335,76.335,0,0,1,2.256,10.152Zm-31.4-33.934H238.854l8.742-28.2Zm47.282-44.274a87.793,87.793,0,0,1,.752,13.912V-11a90.09,90.09,0,0,1-.752,13.912h20.68A90.869,90.869,0,0,1,323.736-11V-61.382a87.039,87.039,0,0,1,.752-13.912Zm89.958,28.106h-6.3c-3.948,0-7.52-.188-10.622-.47v13.63c2.444-.188,4.794-.282,8.272-.282h3.572l-10.34,4.324a88.321,88.321,0,0,0,11.656,16.45,74.731,74.731,0,0,1-22.09,8.648,62.481,62.481,0,0,1,6.956,13.724c11.186-3.572,18.048-6.956,25.944-12.6C408.524,1.974,415.1,5.264,426.1,8.93a73.021,73.021,0,0,1,6.58-14.758,81.861,81.861,0,0,1-20.868-7.9,78.811,78.811,0,0,0,14.006-22,30.689,30.689,0,0,1,2.35-4.7l-6.862-7.05a68.987,68.987,0,0,1-7.05.282h-6.486V-55.93h10.34a115.3,115.3,0,0,1,11.656.564V-69.842a103.9,103.9,0,0,1-11.656.564h-10.34v-1.034a57.23,57.23,0,0,1,.47-9.4H393.3a58.56,58.56,0,0,1,.47,9.494v.94h-6.392a93.516,93.516,0,0,1-11.75-.564V-55.46c3.2-.282,7.144-.47,11.75-.47h6.392ZM409.652-34.31A53.9,53.9,0,0,1,400.722-22a46.225,46.225,0,0,1-9.306-12.314Zm-55.93-16.356v13.912c-7.614,1.41-7.614,1.41-10.434,1.6l2.256,14.476c1.128-.376,1.5-.47,4.136-1.222,2.256-.564,2.256-.564,4.042-1.034V-7.8c0,2.632-.47,3.1-3.008,3.1a59.383,59.383,0,0,1-7.238-.47,44,44,0,0,1,3.1,13.348c3.008.188,4.512.282,6.674.282,11.562,0,14.476-2.35,14.476-11.75V-26.978c1.786-.564,2.726-.846,6.956-2.162V-42.018c-3.572,1.034-3.948,1.128-6.956,1.974V-50.666h1.786a36.917,36.917,0,0,1,4.324.282V-63.92a24.3,24.3,0,0,1-4.324.282h-1.786v-6.486a63.628,63.628,0,0,1,.47-9.588H353.252a65.814,65.814,0,0,1,.47,9.682v6.392H351a38.523,38.523,0,0,1-6.956-.47V-50.29a61.4,61.4,0,0,1,6.862-.376Zm156.7-16.168v4.606a60.515,60.515,0,0,1,7.614-.376h7.52a57.445,57.445,0,0,1,7.708.376V-76.14a53.981,53.981,0,0,1-7.708.376h-7.52a56.81,56.81,0,0,1-7.614-.376v5.264a56.892,56.892,0,0,0-5.828-7.99l-7.708,4.418a39.126,39.126,0,0,1,.47-5.358H482.878a74.871,74.871,0,0,1,.564,11.562v6.3h-4.794a54.818,54.818,0,0,1-9.024-.47v8.178l-7.332-4.7a56.107,56.107,0,0,1-5.358,9.024A52.905,52.905,0,0,1,444.15-36.848a68.593,68.593,0,0,1,4.042,15.6,35.72,35.72,0,0,0,4.512-3.948c0,2.068,0,2.068-.094,5.264v17.3a82.8,82.8,0,0,1-.564,10.9h14.288a95.574,95.574,0,0,1-.376-10.34V-5.64A65.248,65.248,0,0,1,476.486.094c3.1-12.878,4.512-23.594,5.546-43.24l-10.9-1.786c-.564,15.792-2.162,26.6-5.17,35.626v-29.7c2.162-3.008,3.2-4.512,4.324-6.392,1.41-2.162,1.41-2.162,2.256-3.478a18.02,18.02,0,0,1,1.88-.094h9.024V-3.76a83.349,83.349,0,0,1-.564,12.032h14.476A78.084,78.084,0,0,1,496.79-3.76V-48.974h7.99a23.828,23.828,0,0,1,2.444.094v4.042l-9.964,2.35A292.132,292.132,0,0,1,502.336-9.4l11.186-3.948c-1.128-8.084-3.29-19.646-5.17-27.448,1.034-.094,2.162-.094,3.572-.094h2.914V-7.708c0,1.692-.658,2.162-3.1,2.162A75.328,75.328,0,0,1,501.3-6.3a38.575,38.575,0,0,1,3.1,13.724c6.674.188,6.674.188,7.99.188,5.17,0,8.836-.47,10.716-1.316,3.666-1.6,5.264-4.888,5.264-10.81V-40.89a50.733,50.733,0,0,1,6.2.376V-54.426a56.334,56.334,0,0,1-7.8.376H509.95v-8.272a61.488,61.488,0,0,1-7.9.376Zm-13.63,4.888v-9.4a48.5,48.5,0,0,1,5.17,9.4ZM461.352-80.84c-3.384,5.922-8.93,11.186-16.826,16.168a65.017,65.017,0,0,1,5.546,13.16A78.9,78.9,0,0,0,469.06-68.338c2.35-2.914,2.35-2.914,4.512-5.358Zm141.94,22.654a15.754,15.754,0,0,1,7.9,3.29c5.452,4.136,8.272,10.528,8.272,18.518,0,10.058-4.042,17.954-11.28,21.808-5.076,2.632-10.9,4.136-19.74,4.794A46.185,46.185,0,0,1,596.43,5.64C609.59,3.572,617.016.564,623.408-5.17c7.9-7.05,12.5-18.142,12.5-30.362,0-10.622-3.2-19.74-9.212-26.132C619.742-69,608.65-73.226,596.054-73.226c-13.818,0-25.756,4.794-34.028,13.818a41.788,41.788,0,0,0-10.81,28.67c0,17.2,8.836,29.234,21.432,29.234,8.554,0,14.852-5.264,20.3-17.3C598.028-29.892,601.224-42.018,603.292-58.186ZM587.03-58a121.873,121.873,0,0,1-7.05,28.67c-2.82,7.144-5.264,10.434-7.614,10.434-3.29,0-5.828-5.264-5.828-11.938A30.413,30.413,0,0,1,576.784-53.2,18.793,18.793,0,0,1,587.03-58ZM737.994-68.15A88.453,88.453,0,0,1,738.37-78.3a65.389,65.389,0,0,1-9.024.376h-20.21a107.526,107.526,0,0,1-11.656-.564v13.16c2.632-.282,3.666-.282,6.956-.376L698.7-60.16a60.475,60.475,0,0,1,11.092,8.46,73.514,73.514,0,0,1-12.5,3.1l2.256,6.956-4.512-.752a26.637,26.637,0,0,0,.376-5.076V-68.432c0-5.922.094-7.99.282-10.058a64.791,64.791,0,0,1-9.87.47H666.178a98.6,98.6,0,0,1-11.374-.564V-65.33a44.326,44.326,0,0,1,8.272-.47l-6.3,5.64a56.816,56.816,0,0,1,10.9,8.272,87.41,87.41,0,0,1-14.006,3.572l4.136,12.878a31.912,31.912,0,0,1,4.794-1.88c3.666-1.316,8.178-3.008,11.844-4.512a34.79,34.79,0,0,1,.846,5.546c3.29.094,4.888.094,6.862.094a41.043,41.043,0,0,0,5.546-.282,18.405,18.405,0,0,1-1.786,2.82h-12.5a95.351,95.351,0,0,1-10.34-.282c.188,3.008.282,4.794.282,11.092V-3.76a91.978,91.978,0,0,1-.47,12.032H677.27V4.7h39.292V8.272h14.476a89.319,89.319,0,0,1-.47-12.032V-23.03a76.191,76.191,0,0,1,.47-10.9,95.429,95.429,0,0,1-10.434.282H701.052c1.222-1.692,1.222-1.692,1.88-2.726,1.5-.564,1.974-.752,3.948-1.5A92.334,92.334,0,0,0,716-41.548a42.7,42.7,0,0,1,.846,5.358c2.162,0,5.264.094,6.486.094,7.426,0,10.528-.564,12.408-2.35,1.692-1.5,2.256-3.572,2.256-8.93ZM677.834-59.6a60.3,60.3,0,0,0-8.742-6.2H682.44v15.792c0,1.5-.282,1.692-2.538,1.786l-.094-8.366c-4.7,1.974-6.392,2.726-9.212,3.666Zm41.36.188a61.718,61.718,0,0,0-8.93-6.3H724.74v15.792c0,1.6-.282,1.786-2.726,1.88v-8.554c-5.076,2.162-6.58,2.82-9.588,3.854Zm-41.924,36.1h39.386v3.666H677.27Zm0,13.442h39.386v3.854H677.27Zm117.5-6.768-7.708,5.452A70.87,70.87,0,0,1,799.188,4.042l7.708-6.2a46.035,46.035,0,0,1,1.974,9.776c7.426.188,8.46.188,9.682.188,6.392,0,9.4-.564,11.562-2.256,2.162-1.786,3.1-4.324,3.1-8.554v-13.63H835a72.6,72.6,0,0,1,9.118.376V-28.2a81.682,81.682,0,0,1-9.494.376h-1.41v-3.008h.94c4.23,0,6.768.094,9.118.282V-41.83a74.721,74.721,0,0,1-9.494.376H791.574c-5.64,0-7.238,0-9.212-.282V-30.55c2.35-.188,4.888-.282,9.118-.282H819.3v3.008H790.446a79.084,79.084,0,0,1-9.306-.376v11.844c2.726-.188,4.794-.282,9.118-.282Zm24.534,0V-7.99c0,1.692-.752,2.162-3.76,2.162-1.222,0-2.538,0-4.324-.094A83.153,83.153,0,0,0,802.1-16.638ZM774.936-81.4c-3.384,6.11-10.528,12.22-19.74,16.92a44.032,44.032,0,0,1,6.956,12.69,77.265,77.265,0,0,0,16.638-12.69,91.311,91.311,0,0,0,7.426-8.366ZM830.208-44.18c2.914,0,5.64.094,8.46.188a87.815,87.815,0,0,1-.376-9.588V-67.774c0-4.042.094-6.768.376-9.776a89.509,89.509,0,0,1-10.152.376h-31.49a88.671,88.671,0,0,1-10.058-.376c.188,2.914.282,5.264.282,8.836v15.04c0,4.042-.094,6.768-.282,9.682,1.786-.094,4.7-.188,8.648-.188ZM800.974-67.4H824.38v3.1H800.974Zm0,10.81H824.38v3.2H800.974ZM764.784-1.316a64.84,64.84,0,0,1-.564,9.776h14.852A103.38,103.38,0,0,1,778.7-2.35V-40.044c3.2-4.136,4.512-6.016,7.9-10.9L775.218-59.22a65.031,65.031,0,0,1-20.492,23.03,65.733,65.733,0,0,1,5.264,14.664,37.214,37.214,0,0,0,4.888-4.324c-.094,4.512-.094,6.016-.094,9.212ZM865.27-55.272h1.41c1.316,0,1.974,0,3.29.094,4.042.094,4.042.094,8.084.094h3.008c-.376.658-.376.658-1.786,3.008-1.41,2.256-5.17,7.708-7.238,10.246a64.539,64.539,0,0,1-9.964,9.776L874.012-20.21a59.712,59.712,0,0,1,9.024-9.494c6.58-5.734,13.066-9.024,17.86-9.024a3.883,3.883,0,0,1,3.76,2.35c-3.76,1.692-4.7,2.068-6.956,3.2a41.406,41.406,0,0,0-13.536,10.058c-3.2,3.854-4.606,7.426-4.606,11.844a15.113,15.113,0,0,0,7.426,13.348c5.076,3.008,11.75,4.324,22.372,4.324a185.515,185.515,0,0,0,22.654-1.41,60.717,60.717,0,0,1,8.366-.846l-1.034-16.92c-7.99,3.008-18.8,4.7-30.08,4.7-9.118,0-12.6-1.41-12.6-4.982a6.486,6.486,0,0,1,2.444-4.794c1.692-1.5,2.256-1.88,6.58-3.948l.846-.376c-.094,5.64-.188,8.554-.47,9.964l15.322-.47a58.327,58.327,0,0,1-.376-8.084c0-4.136,0-4.23-.094-6.768,9.024-3.1,19.082-5.734,23.97-6.392l-5.734-14.852c-1.5.846-2.162,1.034-7.52,2.82-3.008.94-5.546,1.786-5.828,1.88-4.982,1.692-4.982,1.692-6.58,2.256-1.88-6.11-6.58-9.118-14.382-9.118a27.737,27.737,0,0,0-11.938,2.82,50.93,50.93,0,0,0,4.512-6.956c9.588-.282,21.338-.94,28.012-1.6q4.089-.423,8.46-.846l-.564-14.946c-4.982,1.316-14.57,2.538-23.782,3.008-4.794.282-4.794.282-5.734.376.094-.188.658-1.692,1.88-4.418a27.319,27.319,0,0,1,1.974-4.418l-17.2-1.316a34.016,34.016,0,0,1-2.914,10.434h-2.632c-9.776,0-15.416-.376-19.458-1.316ZM996.964-59.6v-7.238a67.633,67.633,0,0,1,.376-9.588h-17.2a63.352,63.352,0,0,1,.564,9.964V-59.6h-3.2c-7.426,0-9.306-.094-13.536-.658V-44.18a111.41,111.41,0,0,1,13.254-.47H980.7v10.34a69.831,69.831,0,0,1-.564,9.87h17.2a84.327,84.327,0,0,1-.376-9.682V-44.65H1016.8c-.094,5.358-.094,6.016-.188,7.708-.752,10.528-3.478,16.638-9.87,21.714-4.23,3.384-9.024,5.546-18.142,8.272A45.923,45.923,0,0,1,998.844,7.426c9.494-3.572,14.382-6.2,19.458-10.622,8.272-7.144,12.5-15.7,13.912-28.388.376-3.572.47-5.64.658-13.066h4.136c6.11,0,8.742.094,13.254.47V-60.254c-3.854.564-6.486.658-13.536.658h-3.666c.094-13.912.094-13.912.47-16.732h-16.92a69.444,69.444,0,0,1,.47,10.528v6.2Zm154.254-2.538a10.613,10.613,0,0,0,5.264-9.212,10.531,10.531,0,0,0-10.528-10.622,10.552,10.552,0,0,0-10.622,10.622,10.668,10.668,0,0,0,3.384,7.8h-20.21v-3.478a71.727,71.727,0,0,1,.564-10.622h-17.86a71.417,71.417,0,0,1,.564,10.434v3.666h-17.2c-7.9,0-11-.188-14.382-.752v16.074c3.384-.47,5.922-.564,14.194-.564h17.39V-7.708a127.449,127.449,0,0,1-.564,14.288h17.766c-.282-2.726-.47-7.8-.47-14.1V-48.786h18.236c8.178.094,11.374.188,14.476.564Zm-5.264-14.57a5.4,5.4,0,0,1,5.264,5.358,5.4,5.4,0,0,1-5.358,5.264,5.38,5.38,0,0,1-5.264-5.264A5.417,5.417,0,0,1,1145.954-76.7ZM1079.872-43.9c-1.128,12.032-7.05,26.79-14.57,36.566a66.209,66.209,0,0,1,15.51,7.708c6.956-10.34,11.844-22.654,14.57-37.13a30.867,30.867,0,0,1,.658-3.384Zm44.274,3.76a22.926,22.926,0,0,1,1.41,4.606c3.948,15.51,7.05,23.594,13.912,36.1a91.037,91.037,0,0,1,15.51-8.742c-6.11-8.554-12.5-23.688-15.228-35.908ZM1172.18-26.79c5.734-.47,8.836-.564,19.364-.564h44.744c10.716,0,14.852.094,19.364.564V-44.932a154.23,154.23,0,0,1-19.27.846H1191.45c-9.776,0-14.852-.188-19.27-.846ZM1311.112,5.546a137.847,137.847,0,0,1-.564-14.382v-24.44a22.57,22.57,0,0,0,4.23,1.88,174.246,174.246,0,0,1,29.61,16.356l8.93-15.98a199.377,199.377,0,0,0-42.77-19.552V-63.45a121.553,121.553,0,0,1,.47-13.724h-18.142a88.936,88.936,0,0,1,.658,13.63V-8.836a134.171,134.171,0,0,1-.564,14.382Z" transform="translate(278.5 513.695)"></path><path id="&#x30D1;&#x30B9;_36597" data-name="&#x30D1;&#x30B9; 36597" d="M68.432-78.3A31.084,31.084,0,0,1,69-71.346c0,17.39-2.726,31.678-7.9,41.736C55.178-17.954,45.684-10.34,28.482-3.572A41.061,41.061,0,0,1,36.566,9.494C49.538,3.948,58-1.786,65.33-10.246A75.4,75.4,0,0,0,83.19,8.742,78.034,78.034,0,0,1,91.65-6.3a53.5,53.5,0,0,1-17.766-16.45C80.464-34.968,83.566-50.1,84.13-72.38c.094-3.478.094-4.136.282-5.922ZM11.562-17.2A84.386,84.386,0,0,1,3.1-14.288L6.956,1.222C7.99.658,9.212.094,9.776-.188,28.482-8.554,38.728-13.912,50.948-21.9L48.41-35.72A188.8,188.8,0,0,1,26.32-23.688l-.47-41.924v-2.632a69.491,69.491,0,0,1,.47-9.87H10.34a94.584,94.584,0,0,1,.752,12.5Zm18.8-48.5c7.52,8.178,11.844,14.1,18.236,24.91L62.04-50.008a153.324,153.324,0,0,0-19.082-23.5ZM155.57-40.138h20.116c4.23,0,7.9.188,12.032.564V-54.708c-4.042.376-7.708.564-12.032.564H155.57v-12.6a111.209,111.209,0,0,1,.564-11.844H139.5a92.659,92.659,0,0,1,.564,11.844v57.9H122.388a135.157,135.157,0,0,1-14.946-.658V6.11c4.888-.47,10.152-.658,14.946-.658H179.07a134.609,134.609,0,0,1,14.382.658v-15.6a133.1,133.1,0,0,1-14.664.658H155.57ZM263.576-58.186a15.754,15.754,0,0,1,7.9,3.29c5.452,4.136,8.272,10.528,8.272,18.518,0,10.058-4.042,17.954-11.28,21.808-5.076,2.632-10.9,4.136-19.74,4.794a46.185,46.185,0,0,1,7.99,15.416C269.874,3.572,277.3.564,283.692-5.17c7.9-7.05,12.5-18.142,12.5-30.362,0-10.622-3.2-19.74-9.212-26.132C280.026-69,268.934-73.226,256.338-73.226c-13.818,0-25.756,4.794-34.028,13.818a41.788,41.788,0,0,0-10.81,28.67c0,17.2,8.836,29.234,21.432,29.234,8.554,0,14.852-5.264,20.3-17.3C258.312-29.892,261.508-42.018,263.576-58.186ZM247.314-58a121.875,121.875,0,0,1-7.05,28.67c-2.82,7.144-5.264,10.434-7.614,10.434-3.29,0-5.828-5.264-5.828-11.938A30.413,30.413,0,0,1,237.068-53.2,18.793,18.793,0,0,1,247.314-58Zm78.96-4.324a46.561,46.561,0,0,1,3.1,7.238H324.3a80.38,80.38,0,0,1-9.212-.376c.282,3.572.376,5.452.376,8.93v7.614a51.511,51.511,0,0,1-.564,7.99h12.126v5.64c3.1-.282,6.2-.376,9.682-.376h4.512L330.6-21.338A116.047,116.047,0,0,0,342.63-10.716c-8.648,3.1-17.2,4.888-28.482,5.922A41.154,41.154,0,0,1,321.1,9.118c15.134-2.726,24.628-5.734,35.438-11.186,12.314,6.2,22.278,8.93,38.352,10.716a52.588,52.588,0,0,1,6.3-14.758c-12.6-.658-21.808-2.068-30.644-4.794A90.594,90.594,0,0,0,383.9-23.5c2.538-2.914,2.82-3.2,4.512-4.888l-2.256-2.726H399.5a51.914,51.914,0,0,1-.564-8.084v-7.614c0-4.042.094-6.11.282-8.648a75.34,75.34,0,0,1-9.682.376h-4.324c1.222-2.068,1.316-2.256,4.418-8.178l-7.708-2.256c3.572-.47,9.682-1.6,13.724-2.444L386.81-80.746c-10.9,3.478-31.584,5.452-58.468,5.452-3.008,0-5.64,0-11.092-.188a54.015,54.015,0,0,1,4.324,13.16Zm17.86,7.238c-.94-2.632-1.6-4.418-2.914-7.426,4.324-.188,4.888-.188,7.144-.282,1.034,2.632,1.786,4.7,2.726,7.708Zm30.08-9.588a92.574,92.574,0,0,1-4.324,9.588h-4.7c-.94-3.572-1.5-5.546-2.538-8.648Zm-44.838,22.56H384.93v9.588l-4.888-5.828a55.282,55.282,0,0,1-7.9.376H336.708c-2.632,0-4.512-.094-7.332-.188Zm37.412,16.45a50.9,50.9,0,0,1-10.716,8.554,54.3,54.3,0,0,1-11.562-8.554Zm102.93-15.886v2.726H459.19c-3.478,0-5.358-.094-7.426-.282.188,2.068.282,4.042.282,8.178v12.972a12.175,12.175,0,0,1-2.914-.282V-5.922a20.321,20.321,0,0,1,2.914-.282v1.692c0,4.606-.094,7.614-.188,9.118-.188,2.35-.188,2.35-.282,3.666H465.3c-.47-2.914-.564-5.17-.564-12.784V-6.2h23.406v2.162c0,1.41-.752,1.692-4.042,1.692-1.692,0-4.418-.188-7.52-.47a31.759,31.759,0,0,1,2.162,10.434c1.222,0,2.256.094,2.914.094,2.444.094,4.136.188,4.7.188,4.324,0,9.306-.658,11-1.5,2.538-1.222,3.478-3.572,3.478-8.272V-6.2c2.162.094,3.1.188,4.606.376v-12.5a21.669,21.669,0,0,1-4.606.376V-30.268a78.115,78.115,0,0,1,.376-8.93,62.141,62.141,0,0,1-8.366.376h-9.776v-2.726h15.886a37.985,37.985,0,0,1,6.392.376V-51.794a46.129,46.129,0,0,1-6.392.282h-6.016v-2.632h3.854a44.491,44.491,0,0,1,5.452.282V-62.51a33.86,33.86,0,0,1-5.264.282h-4.042V-64.86h5.546a54.456,54.456,0,0,1,5.734.282V-74.636a32.185,32.185,0,0,1-5.828.376h-5.452a15.328,15.328,0,0,1,.564-5.264H479.494a18.418,18.418,0,0,1,.47,5.264H471.6a15.98,15.98,0,0,1,.564-5.264H458.156a18.82,18.82,0,0,1,.47,5.264H455.9a41.991,41.991,0,0,1-6.3-.376v10.058a54.456,54.456,0,0,1,5.734-.282h3.29v2.632h-2.068a42.4,42.4,0,0,1-5.452-.282v8.648a44.491,44.491,0,0,1,5.452-.282h2.068v2.632h-3.1a65.992,65.992,0,0,1-6.674-.282v10.622a45.74,45.74,0,0,1,6.674-.376Zm.846,25.1h-5.828v-3.384h5.828Zm11.75,0v-3.384h5.828v3.384Zm-11.75-10.434h-5.828v-3.478h5.828Zm11.75,0v-3.478h5.828v3.478ZM471.6-51.512v-2.632h8.366v2.632Zm0-10.716V-64.86h8.366v2.632Zm-52.17-4.982c2.632-.188,4.606-.282,8.46-.282H438.51c3.948,0,6.11.094,8.46.282V-78.3a65.577,65.577,0,0,1-8.46.376H427.888a65.577,65.577,0,0,1-8.46-.376Zm-2.82,15.04a57.085,57.085,0,0,1,7.52-.376h16.638a44.894,44.894,0,0,1,7.332.282v-12.5a73.058,73.058,0,0,1-7.52.282h-16.45a56.18,56.18,0,0,1-7.52-.376Zm3.008,13.16c1.6-.094,2.82-.188,5.546-.188h16.356a40.308,40.308,0,0,1,5.264.188V-49.632a38.06,38.06,0,0,1-5.264.188H425.162c-2.726,0-3.948-.094-5.546-.188Zm0,13.348a42.688,42.688,0,0,1,5.358-.188h16.168a36.308,36.308,0,0,1,5.64.282v-10.81a40.372,40.372,0,0,1-5.358.188H425.162a46.012,46.012,0,0,1-5.546-.188ZM430.8,8.272V4.606h5.076V7.05H447.44c0-.564-.094-2.444-.188-5.734v-17.86a55.164,55.164,0,0,1,.188-6.392,36.526,36.526,0,0,1-5.546.282H425.35c-3.008,0-3.76,0-6.768-.188a55.621,55.621,0,0,1,.376,7.144V-.846c0,3.008-.188,6.3-.47,9.118Zm-.47-20.68h5.64v5.922h-5.64ZM557.608-49.444v14.1H545.67a115.291,115.291,0,0,1-12.6-.47v14.1c4.042-.376,7.9-.564,12.878-.564h11.656V-6.956H537.022c-5.452,0-10.152-.188-14.946-.658V6.956c5.452-.47,10.152-.658,15.51-.658h54.8c5.17,0,9.118.188,14.476.658V-7.614a138.6,138.6,0,0,1-14.946.658H572.554V-22.278h13.912c4.982,0,8.836.188,13.066.564V-35.908a129.264,129.264,0,0,1-13.16.564H572.554v-14.1H589.38c5.076,0,9.494.188,14.194.564V-63.074c-4.512.376-9.118.564-14.664.564H572.554v-4.324a86.625,86.625,0,0,1,.564-12.6H557.044a106,106,0,0,1,.564,12.6v4.324h-11.28c.658-2.068,1.128-3.478,1.6-5.358.752-2.538.752-2.538,1.88-5.734L535.142-77.08c-.752,11.562-7.8,26.414-16.45,34.874a50.15,50.15,0,0,1,9.4,12.22A85.34,85.34,0,0,0,540.97-49.444Zm119.568-8.742a15.754,15.754,0,0,1,7.9,3.29c5.452,4.136,8.272,10.528,8.272,18.518,0,10.058-4.042,17.954-11.28,21.808-5.076,2.632-10.9,4.136-19.74,4.794a46.185,46.185,0,0,1,7.99,15.416C683.474,3.572,690.9.564,697.292-5.17c7.9-7.05,12.5-18.142,12.5-30.362,0-10.622-3.2-19.74-9.212-26.132C693.626-69,682.534-73.226,669.938-73.226c-13.818,0-25.756,4.794-34.028,13.818a41.788,41.788,0,0,0-10.81,28.67c0,17.2,8.836,29.234,21.432,29.234,8.554,0,14.852-5.264,20.3-17.3C671.912-29.892,675.108-42.018,677.176-58.186ZM660.914-58a121.873,121.873,0,0,1-7.05,28.67c-2.82,7.144-5.264,10.434-7.614,10.434-3.29,0-5.828-5.264-5.828-11.938A30.413,30.413,0,0,1,650.668-53.2,18.793,18.793,0,0,1,660.914-58Zm101.8-9.87H740.908a106.468,106.468,0,0,1-12.972-.658v15.04c3.76-.376,8.178-.564,13.066-.564h11.656a82.175,82.175,0,0,1-2.726,21.808c-3.572,12.6-9.964,20.21-24.158,28.67A38.575,38.575,0,0,1,736.3,8.93c11-7.614,17.766-14.852,22.654-24.064a72.692,72.692,0,0,0,6.58-17.484h23.688a145.042,145.042,0,0,1-1.5,19.552c-.94,5.734-2.162,6.956-6.956,6.956A111.455,111.455,0,0,1,767.04-7.144a38.665,38.665,0,0,1,3.854,14.57c5.546.282,9.682.47,12.032.47,9.682,0,13.912-2.068,16.544-8.272,2.538-5.64,3.854-15.6,4.512-32.618.376-9.494.376-10.058.752-13.536a82.04,82.04,0,0,1-9.776.376H767.51c.282-2.82.282-3.008.564-7.9h33.464a103.516,103.516,0,0,1,12.408.564v-15.04a95.772,95.772,0,0,1-12.972.658H777.85v-4.418a39.674,39.674,0,0,1,.564-7.238H762.152a39.674,39.674,0,0,1,.564,7.238Zm121.26,9.682a15.754,15.754,0,0,1,7.9,3.29c5.452,4.136,8.272,10.528,8.272,18.518,0,10.058-4.042,17.954-11.28,21.808-5.076,2.632-10.9,4.136-19.74,4.794a46.185,46.185,0,0,1,7.99,15.416C890.274,3.572,897.7.564,904.092-5.17c7.9-7.05,12.5-18.142,12.5-30.362,0-10.622-3.2-19.74-9.212-26.132C900.426-69,889.334-73.226,876.738-73.226c-13.818,0-25.756,4.794-34.028,13.818a41.788,41.788,0,0,0-10.81,28.67c0,17.2,8.836,29.234,21.432,29.234,8.554,0,14.852-5.264,20.3-17.3C878.712-29.892,881.908-42.018,883.976-58.186ZM867.714-58a121.873,121.873,0,0,1-7.05,28.67c-2.82,7.144-5.264,10.434-7.614,10.434-3.29,0-5.828-5.264-5.828-11.938A30.413,30.413,0,0,1,857.468-53.2,18.793,18.793,0,0,1,867.714-58Z" transform="translate(922.7 375.695)"></path><path id="&#x30D1;&#x30B9;_36598" data-name="&#x30D1;&#x30B9; 36598" d="M79.46,4.495c10.3,0,16.385.29,24.795,1.015v-27.4c-5.655.725-12.325,1.015-23.2,1.015H47.27c3.335-6.38,8.7-11.455,21.315-20.155,14.79-10.3,16.24-11.31,21.025-15.515,8.99-7.4,13.34-16.385,13.34-26.97a31.227,31.227,0,0,0-4.785-16.965c-7.25-11.745-22.185-18.27-41.76-18.27-16.965,0-30.16,5.22-38.425,14.935-5.8,6.815-8.41,13.195-10.585,25.81l30.45,3.19c.725-6.09,1.6-8.99,3.625-12.18,3.19-4.93,8.12-7.25,15.08-7.25,9.28,0,15.515,4.64,15.515,11.6,0,6.67-3.045,10.44-15.515,18.85C41.76-53.795,36.25-49.59,30.74-44.515A74.55,74.55,0,0,0,9.86-12.035,72.173,72.173,0,0,0,6.815,5.075c5.365-.435,8.7-.58,21.75-.58ZM167.765-92.8H201.4a234.886,234.886,0,0,1,23.635,1.015V-117.16c-5.8.725-11.165,1.015-23.925,1.015H157.76c-6.96,0-8.41,0-14.5-.29-.145,5.51-.29,8.99-.58,12.035l-3.915,45.24c-.435,4.06-.87,7.54-1.45,11.89l26.97,2.61c3.19-7.1,9.135-10.73,18.27-10.73,12.18,0,20.01,7.54,20.01,19.14s-8.12,19.285-20.3,19.285c-10.44,0-16.53-4.5-19-14.065l-29.145,4.5c2.175,7.54,3.915,11.745,7.25,16.24C149.785,1.3,164.14,7.54,182.41,7.54c30.74,0,49.01-16.53,49.01-44.37,0-12.18-3.625-21.6-10.875-29-7.685-7.83-18.27-11.89-31.175-11.89-9.425,0-16.965,2.175-23.49,6.96.29-2.465.435-3.915.435-4.64ZM309.14,7.105c18.415,0,33.64-8.12,42.34-22.62,5.51-9.135,9.135-25.085,9.135-40.31a96.449,96.449,0,0,0-5.655-33.35,45.662,45.662,0,0,0-10.585-16.1c-8.845-8.7-21.17-13.485-35.235-13.485-18.27,0-33.35,8.12-42.2,22.91-5.51,9.135-9.135,24.94-9.135,40.165a96.216,96.216,0,0,0,5.655,33.2A45.662,45.662,0,0,0,274.05-6.38C282.895,2.465,294.93,7.105,309.14,7.105Zm0-101.355c14.065,0,21.6,13.05,21.6,37.845,0,25.81-7.25,38.86-21.46,38.86-14.355,0-21.75-13.34-21.75-39.3C287.535-80.475,295.51-94.25,309.14-94.25ZM435.725,7.105c18.415,0,33.64-8.12,42.34-22.62,5.51-9.135,9.135-25.085,9.135-40.31a96.449,96.449,0,0,0-5.655-33.35,45.662,45.662,0,0,0-10.585-16.1c-8.845-8.7-21.17-13.485-35.235-13.485-18.27,0-33.35,8.12-42.2,22.91C388.02-86.71,384.4-70.9,384.4-55.68a96.215,96.215,0,0,0,5.655,33.2,45.662,45.662,0,0,0,10.585,16.1C409.48,2.465,421.515,7.105,435.725,7.105Zm0-101.355c14.065,0,21.605,13.05,21.605,37.845,0,25.81-7.25,38.86-21.46,38.86-14.355,0-21.75-13.34-21.75-39.3C414.12-80.475,422.1-94.25,435.725-94.25ZM552.57-95.795a51.814,51.814,0,0,1,.575,8.97c0,21.275-3.68,38.41-10.925,51.175-7.015,12.42-16.56,20.93-33.58,29.44,6.21,6.67,8.05,9.315,11.73,16.905a101.743,101.743,0,0,0,24.725-19.09c8.97-9.315,13.915-18.055,18.86-33.12,4.14,11.96,8.625,20.355,15.525,28.635,7.36,9.085,15.525,15.985,28.06,23.69,4.025-8.395,6.325-11.96,11.73-18.17-8.625-4.14-13.8-7.475-20.125-13.11a75.774,75.774,0,0,1-21.62-32.085c-2.875-8.395-4.715-21.5-4.715-33.925a46.4,46.4,0,0,1,.69-9.315Z" transform="translate(286 382.238)" fill="#533afc"></path></g></svg>