<svg xmlns="http://www.w3.org/2000/svg" width="1545.7" height="140" viewBox="0 0 1545.7 140"><g id="&#x30B0;&#x30EB;&#x30FC;&#x30D7;_19616" data-name="&#x30B0;&#x30EB;&#x30FC;&#x30D7; 19616" transform="translate(-147.5 -9967.5)"><path id="&#x30D1;&#x30B9;_33877" data-name="&#x30D1;&#x30B9; 33877" d="M20.2-60.1c0,8.7,0,8.7-.2,13H14.8a63.2,63.2,0,0,1-11.2-.6v15.1a63.44,63.44,0,0,1,10.9-.6h4C16.3-21.4,11.1-12.5,2-5A43.521,43.521,0,0,1,11.6,8.2,64.778,64.778,0,0,0,27.9-15.2,61.8,61.8,0,0,0,38-1.5a52.307,52.307,0,0,1,8.6-14.2c-6.8-6-10.1-10.2-13.4-17.5h1.3a75.869,75.869,0,0,1,9.4.4V-47.6a52.708,52.708,0,0,1-8.8.5h-1c.3-4.7.3-4.7.4-13,4,.1,5.8.1,8.3.4V-74.4a59.958,59.958,0,0,1-9.5.5H24.1a38.738,38.738,0,0,0,1.2-4.4c.6-2.3,1.2-4.2,1.6-5.4L12.4-85.9A26.709,26.709,0,0,1,11-78.7,62.756,62.756,0,0,1,1.5-58.5a38.683,38.683,0,0,1,11.2,10A67.234,67.234,0,0,0,19-60.1ZM58.8-28.9,47.4-23.7A76.981,76.981,0,0,1,54.9-7.9h-2c-5.3,0-7.5-.1-11.2-.4v15a88.056,88.056,0,0,1,11.2-.5h33a87.1,87.1,0,0,1,11.2.5v-15c-3.7.3-5.9.4-11.2.4H85c2.8-5.8,3.2-7,6.4-16.6l-12-4.4h2.9c4.3,0,6.9.1,10.5.3a104.158,104.158,0,0,1-.4-10.6V-52.6c0-5.1.1-7.4.4-10.9-3,.2-6.5.3-11.5.3H57.5c-5.1,0-8.5-.1-11.5-.3.3,3.3.4,6,.4,10.9v13.4A105.422,105.422,0,0,1,46-28.6c3.4-.2,6.2-.3,10.4-.3Zm17.7,0A117.247,117.247,0,0,1,70-7.9H57.8l11.2-5c-4.2-9.4-4.4-9.9-7.9-16ZM60.8-49.8H77.5v7.4H60.8Zm-16-17.6c3.6-.3,6.4-.4,11.2-.4H84.4c4.9,0,7.6.1,11.2.4V-82.2a84.3,84.3,0,0,1-11.2.5H56a85.227,85.227,0,0,1-11.2-.5ZM184.4-21.2v14c0,1.7-.6,2-3.6,2a68.9,68.9,0,0,1-7.3-.7,65.174,65.174,0,0,1,3.6,15.1c2,.1,3.5.1,4.5.1,6.6,0,10.5-.7,12.9-2.1,3.1-2,4.6-5.7,4.6-11.5V-69.5a114.184,114.184,0,0,1,.4-12.3,86.783,86.783,0,0,1-12,.5H172.3a107.323,107.323,0,0,1-12.5-.5c.5,4.4.6,7.7.6,16.5,0,41-1.3,52.2-6.8,60.6a50.165,50.165,0,0,1-7.2-9.6h2.8a63.041,63.041,0,0,1,7.6.3V-27.8a35.82,35.82,0,0,1-4,.4V-62a51.981,51.981,0,0,1,5.2.3V-75.5a50.392,50.392,0,0,1-5.2.4v-1.5a49.6,49.6,0,0,1,.4-7.4H138.3a49.6,49.6,0,0,1,.4,7.4v1.5h-9.4v-1.5a51.337,51.337,0,0,1,.4-7.4H114.8a51.338,51.338,0,0,1,.4,7.4v1.5a30.525,30.525,0,0,1-6-.4v13.8a42.343,42.343,0,0,1,6-.3v34.6a34.868,34.868,0,0,1-6.7-.4V-14a60.222,60.222,0,0,1,7.4-.3h4.9c-3.8,5.7-6.9,9-13,13.8,5.6,4.6,7,6,10.6,10.9,7-6.6,10.1-10.5,15.3-19.2l-9.1-5.5h19L134.4-9c4.7,8.6,6.2,10.9,11.1,16.8A55.593,55.593,0,0,1,153.6.6a60.564,60.564,0,0,1,9,9.8c6.6-8.8,9.1-16.1,10.7-31.6Zm0-23.2v9.9H174.3c.2-3.6.2-5,.3-9.9Zm0-13.4h-9.7v-9.3h9.7ZM129.3-27.4V-32h9.4v4.6Zm0-15.3v-4.4h9.4v4.4Zm0-15.1V-62h9.4v4.2ZM281.5-33.7c0-3.8.1-6.2.3-8.5-2.7.2-4.9.3-8.7.3H246.9c-3.6,0-6-.1-8.7-.3.2,2.4.3,5,.3,8.5V-7c0,3.9-.1,7.5-.4,10.6h14.2V-.6h24.1A78.051,78.051,0,0,1,277.9,8c5.9.2,6.2.2,7.5.2,15.2,0,18.2-2.3,18.2-14.2V-71.1c0-5.3.1-7.9.4-11.3a88,88,0,0,1-10.1.4H272.1a86.646,86.646,0,0,1-10.2-.4c.2,3,.3,5.5.3,9.2V-55c0,5.2,0,6.1-.2,8.8,2.1-.1,5.5-.2,8.2-.2h18.6v38c0,2.2-.2,2.3-5.6,2.3a14.89,14.89,0,0,1-1.7-.1V-33.7Zm-5.3-37.8h12.6V-68H276.2Zm0,11.7h12.6v3.6H276.2ZM252.3-30.4h15.4v4H252.3Zm0,14h15.4v4.1H252.3ZM231.5-46.5h17.7c3,0,6,.1,8.2.2a86.528,86.528,0,0,1-.2-8.7V-73.2c0-3.9.1-6.2.3-9.2a81.35,81.35,0,0,1-10.2.4h-21a89.122,89.122,0,0,1-10.1-.4,112.449,112.449,0,0,1,.4,11.5V-4.8A103.563,103.563,0,0,1,216,8.7h16.1a103.866,103.866,0,0,1-.6-13.4Zm0-25h11.9V-68H231.5Zm0,11.7h11.9v3.6H231.5Zm90.3,5c4.3-.9,4.8-.9,14.1-1.9,18.7-1.5,22.2-1.8,24.4-2l4.7-.5c-4.8,3.3-7.2,5.3-9.8,8.5a34.234,34.234,0,0,0-8.5,22.6c0,12.7,6.1,21.9,17.9,27.4,6.4,2.9,13.9,4.6,25.3,5.6a25.576,25.576,0,0,1,3.7.5l2.3-19c-1.5.1-2.2.1-3,.1-6.3,0-15.1-1.6-19.1-3.6-5.7-2.7-8.4-6.6-8.4-12.4,0-8.2,5.9-16.6,15.9-22.7,6.9-4.3,15.9-7,22.9-7a15.206,15.206,0,0,1,2.8.2l-.9-18.1a8.433,8.433,0,0,1-2.3.4c-.5,0-1.1.1-4.5.2l-4.2.2-10.3.4c-19,.7-28.7,1.2-43.1,2.1-10.9.7-14.5.9-17.1.9-.8,0-2.1,0-3.8-.1Zm60.3,8.7a62.179,62.179,0,0,1,9.7,14.8l9.6-4.4a64.464,64.464,0,0,0-9.7-14.5Zm14-5.9c3.4,3.9,5.9,7.7,9.5,14.4l9.3-4.3A69.113,69.113,0,0,0,405.1-56ZM487-7.6c0,1.3-1.3,1.9-4.2,1.9a103.032,103.032,0,0,1-12.6-1,48.945,48.945,0,0,1,4,14.8c5.2.1,7.7.2,9.6.2,6.7,0,10.8-.6,13.2-1.8,3.2-1.6,4.7-4.7,4.7-9.5V-29.5a130.511,130.511,0,0,0,9.9-9.9,67.972,67.972,0,0,1,5.5-5.9l-9.5-11.5a66.126,66.126,0,0,1-5.9,7.4V-64.8a106.915,106.915,0,0,1,.5-12.7,119.9,119.9,0,0,1-12.5.4H473.5c1.2-2.1,2-3.7,3.9-7.6l-16.7-1.5a37.823,37.823,0,0,1-3.7,9.1h-6.3a103.417,103.417,0,0,1-13-.5c.3,3.2.4,6.2.4,10.5v33.7h-3.5c-1.7.1-3.1.1-3.4.1h-1.1c-1.4,0-3.3-.1-4.7-.2l1.7,14.8c1.9-.3,2.8-.4,5.2-.6,15.7-1,20.2-1.4,36.2-2.9-13.6,7.9-26,12.7-44.4,17a44.136,44.136,0,0,1,7.5,14.1c21.2-6.3,39-14.8,55.4-26.5ZM452.9-51.7H487v3.5H452.9ZM487-61.6H452.9v-3.5H487ZM452.9-38.3H487v2.8c-14.8.9-14.8.9-34.1,1.7Zm86.8-42.6c-.2,3-.3,3.7-1.5,10.7a216.3,216.3,0,0,0-3.8,38.5c0,9.5.7,18.2,2.6,31.6a40.169,40.169,0,0,1,.5,5.3l17.2-.8a27.994,27.994,0,0,1-.3-4.9,98.674,98.674,0,0,1,3.9-28l-7.7-2.6c.7-18.2,3.7-36.9,7.6-48.3Zm26.2,26c1.4.1,2.1.1,2.9.2a165,165,0,0,0,17.2.8c6.9,0,14.2-.4,21.1-1.1,5.5-.6,6.5-.7,7.4-.7l-.7-17.1c-6.7,1.7-16.5,2.5-29.8,2.5a83.528,83.528,0,0,1-17.8-1.5Zm5.9,13.3c-2.7,3.9-3.3,4.9-4.7,7.2a31.339,31.339,0,0,0-4.8,15.6,18.524,18.524,0,0,0,9.2,15.9c5.2,2.9,11.4,4.2,20.7,4.2A122.456,122.456,0,0,0,609.5,0c5.9-.9,5.9-.9,8.5-1.2l-1-17.7a74.319,74.319,0,0,1-24.9,4.1c-8.5,0-13-2.5-13-7.1,0-3.6,2.1-7.9,6.7-13.8Zm66.8-3a56.922,56.922,0,0,1,8.6-3.2c15.8-4.9,27.9-7.1,38.5-7.1,7,0,11.6,1.5,14.8,4.8a13.039,13.039,0,0,1,3.7,9.7,16.147,16.147,0,0,1-3.2,10c-3.7,5.2-9.3,8.9-17.2,11.2-7.6,2.3-16.2,3.4-28.5,3.5,3.9,7.2,4.7,9.1,7.1,18.1C680,.8,689.8-1.5,699.9-6.3c14.8-7.1,23.4-19.8,23.4-34.5,0-10.3-4.5-19.3-12.3-24.8-6-4.2-14.3-6.3-24.8-6.3-10.1,0-17.8,1.1-38.2,5.3a94.161,94.161,0,0,1-13.2,2.3ZM796.3-85.2a36.131,36.131,0,0,1-5,5.8c-6.9,6.9-13,12.1-26.3,22.1-6.2,4.7-7.7,6-9.1,7.5a14.627,14.627,0,0,0-3.7,9.6,16.349,16.349,0,0,0,1.5,6.6c1.3,2.5,3.1,4.3,8.1,8.2C779.2-11.9,782.7-9,791.3-.9c5.3,5.1,7.5,7.6,9.9,10.9L815.5-4.6c-1.6-1.4-2.5-2.1-3.1-2.6-11.1-9.7-19.6-16.6-30.5-24.5-9.4-6.9-9.4-6.9-9.4-8.1,0-.9.6-1.5,3.3-3.5,10.6-7.8,18.7-14.3,24.5-19.4,9.3-8.3,10.3-9.2,12.7-10.7Zm111.2,5.3a50.368,50.368,0,0,1,.5-5.7H893.2c.2,2.2.3,3.3.4,5.7h-7.5a35.543,35.543,0,0,1,.5-5.7H871.7a52.52,52.52,0,0,1,.5,5.7H861a107.8,107.8,0,0,1-11.4-.4,77.787,77.787,0,0,1,.4,9.1v15.8a76.115,76.115,0,0,1-.4,9.3,94.593,94.593,0,0,1,10.2-.4h60.4a96.994,96.994,0,0,1,10.2.4,72.044,72.044,0,0,1-.4-9.3V-71.2a74.579,74.579,0,0,1,.4-9.1,107.8,107.8,0,0,1-11.4.4ZM872.3-70v3.7h-7.6V-70Zm13.8,0h7.5v3.7h-7.5Zm21.3,0h7.9v3.7h-7.9ZM872.3-58.4v3.6h-7.6v-3.6Zm13.8,0h7.5v3.6h-7.5Zm21.3,0h7.9v3.6h-7.9ZM865.7-8.7a43.69,43.69,0,0,1,1.9,4.5H856.5a102.483,102.483,0,0,1-12.1-.6V8a102.483,102.483,0,0,1,12.1-.6h67.4a98.219,98.219,0,0,1,11.8.6V-4.8a94.792,94.792,0,0,1-11.8.6H912.7c.8-1.8,1.5-3.3,2-4.5h2.1c3.7,0,6.7.1,9.6.3A40.831,40.831,0,0,1,926-15v-8.6a36.187,36.187,0,0,1,.4-6.3c-2.6.2-6.1.3-10.7.3H864.2c-4.6,0-8.2-.1-10.7-.3a38.457,38.457,0,0,1,.4,6.3V-15a42.449,42.449,0,0,1-.4,6.6c3-.2,5.7-.3,9.7-.3Zm32.5,0a30.4,30.4,0,0,1-1.9,4.5H883.8c-1-2.4-1.3-3-2-4.5ZM868.8-20.9h42.3v3.4H868.8Zm65.6-23.2a88.6,88.6,0,0,1-12,.5h-65a94.219,94.219,0,0,1-12-.5V-32a97.209,97.209,0,0,1,12-.6h65a99.493,99.493,0,0,1,12,.6ZM962-80c-5.5,0-8.8-.1-11.9-.4a64.09,64.09,0,0,1,.4,7.3v8a45.727,45.727,0,0,1-.5,7.5h15.1V-68.2H1025v10.6h15.1a39.659,39.659,0,0,1-.5-7.4v-8.1a47.3,47.3,0,0,1,.4-7.3c-3.2.3-6.4.4-12,.4h-25.8a38.8,38.8,0,0,1,.5-5.7H985.9a43.17,43.17,0,0,1,.5,5.7Zm5.7,23.7c2.4-.2,4.5-.3,6.8-.3h40.8c2.5,0,4.6.1,7.1.3v-9.6c-2,.2-4.5.3-7.1.3H974.6c-2.5,0-5-.1-6.9-.3Zm60.7,9.4a49.59,49.59,0,0,1,.3-7.3c-3.2.2-5.9.3-9.9.3H971.3c-4,0-6.7-.1-9.9-.3.2,3,.3,3.8.3,7.3v6.3a66.116,66.116,0,0,1-.3,7.4c3.6-.2,6.5-.3,9.9-.3h47.5c3.2,0,6.4.1,9.9.3a46.163,46.163,0,0,1-.3-7.4Zm-14.6,1.6v3.2H976.3v-3.2Zm-59,42.4c0,4.7-.2,8.4-.5,11.9h15.2V6h51V9h15.2a102.479,102.479,0,0,1-.5-11.9V-20.3c0-4.6.1-7.3.4-10.8a101.343,101.343,0,0,1-10.7.4H965.1a100.141,100.141,0,0,1-10.7-.4c.3,3.6.4,6.2.4,10.8Zm14.7-17.7h17.6v3.3H969.5Zm32.3,0h18.7v3.3h-18.7ZM969.5-8.4h17.6V-5H969.5Zm32.3,0h18.7V-5h-18.7Zm75.9-75.8a66.772,66.772,0,0,1-1.5,11.9,34.359,34.359,0,0,0-.9,4.2c-2,.1-2.5.1-3.6.1a81.75,81.75,0,0,1-14.6-1v16h3.9c2.3.1,2.3.1,4.6.1h5.6c-4.5,14.1-11.4,28.3-18.5,37.8L1069-6.2a40.4,40.4,0,0,1,1.9-3.9c3.9-7.8,4.8-9.6,6.9-14.2a205.6,205.6,0,0,0,10.9-29c2.5-.2,8-.7,10.7-1,5-.6,5-.6,7.4-.8l-.3-16.2c-3.2,1-7.5,1.7-13.9,2.4.5-2.3.7-3.2,1.2-5.6,1.2-6.2,1.3-6.2,1.9-8ZM1147-59.8c-9.3-5.4-17.5-9-30.1-13.5l-8.3,13.8a141.484,141.484,0,0,1,31.1,14.4Zm-.9,45.8c-3-2.4-4.6-3.7-4.9-3.9a73.237,73.237,0,0,0-15.4-8.9,89.036,89.036,0,0,1-.8-11.6,46.47,46.47,0,0,1,1.1-11.3l-16.5-.7c-.4,4.5-.6,7.7-.6,11.8,0,2.3.1,4.2.4,8a40.932,40.932,0,0,0-7-.6c-13.9,0-23.6,8.1-23.6,19.7a17.465,17.465,0,0,0,5,12.4c4.1,4.2,10.9,6.6,18.9,6.6s15-2.3,18.9-6.2c2.7-2.8,3.9-5.7,4.2-10.4a53.554,53.554,0,0,1,12.9,10.9Zm-36.4-1.7a10.171,10.171,0,0,1,.2,2.2c0,4.2-2.6,6.4-7.6,6.4-4.3,0-7.1-1.9-7.1-4.8,0-3.1,3-5.1,7.7-5.1A17.383,17.383,0,0,1,1109.7-15.7Zm140.9,7.2c-15.6-14.9-19.7-18.4-31.8-27.1,5.6-7.5,9.4-14.5,14.7-27,1.5-3.4,2.1-4.4,3.6-5.9l-8.8-9c-2.7,1-3.3,1-8,1.1l-34.2.5c-2.9.1-4.8.1-5.6.1a74.084,74.084,0,0,1-10.5-.7l.5,17.8c4.1-.6,7.3-.8,15.9-1l26-.4a80.449,80.449,0,0,1-20.1,29.4,94.305,94.305,0,0,1-32.4,20.2,52.386,52.386,0,0,1,11.2,15.8c15.5-7.5,27.4-16.3,36.8-27.4a160.778,160.778,0,0,1,28.7,28.4Zm45.2-55.6L1281.9-62a100.482,100.482,0,0,1-14.7,1.6l2.7,17.1c4.1-1.1,6.4-1.5,14.9-2.8l13.8-2.2,2.3,12.6-19.1,3a117.083,117.083,0,0,1-14.3,1.6l2.7,17a106.887,106.887,0,0,1,13.7-2.8l19.8-3.1,2.6,14.4c1.4,7.6,1.8,10.5,1.8,13.9l19-3.1c-1.2-3.8-1.4-4.8-3-13.4l-2.8-14.5,18.9-2.9c8.4-1.2,8.4-1.2,14.1-1.8l-3-16.9a93.188,93.188,0,0,1-14.4,3.1l-18.5,2.8L1316-51l15.6-2.4c10.8-1.6,10.8-1.6,14.2-1.9L1343-72.1c-4.4,1.3-7.2,1.8-14.3,2.9l-15.6,2.4-1.1-5.5a81.5,81.5,0,0,1-1.4-11.1l-18.4,2.8c1,2.9,1.5,5,2.6,11.3ZM1381.7-80a73.281,73.281,0,0,1,.4,9.2c0,25.9-1.6,38.3-6.3,48.1a44.666,44.666,0,0,1-11.9,15.9c6.4,4.5,9.2,7.3,14.3,14,6.8-7.2,10.6-12.6,13.9-20,4.8-10.9,6.8-22,7.4-42.9.7-19.8.7-19.8,1.1-23.2Zm28.4-.5a59.42,59.42,0,0,1,.4,7.8v3.6L1410-9.9c0,4.1-.2,5.8-1.1,8.4l8.6,9a22.378,22.378,0,0,1,4.9-2.1c10.1-3.7,15-6.3,21-11.4,7.6-6.5,12.8-14.2,17.3-25.4a66.371,66.371,0,0,1-13.3-13.2,50.643,50.643,0,0,1-7.8,17.1,38.649,38.649,0,0,1-12,11l.5-52.4a71.563,71.563,0,0,1,.8-11.6Z" transform="translate(232.5 10076)"></path><path id="&#x7DDA;_154" data-name="&#x7DDA; 154" d="M12.5,140h-25V0h25Z" transform="translate(160 9967.5)" fill="#533afc"></path></g></svg>