<svg xmlns="http://www.w3.org/2000/svg" width="1839.209" height="414" viewBox="0 0 1839.209 414"><g id="&#x30B0;&#x30EB;&#x30FC;&#x30D7;_19611" data-name="&#x30B0;&#x30EB;&#x30FC;&#x30D7; 19611" transform="translate(-49.495 -16885)"><g id="&#x30B0;&#x30EB;&#x30FC;&#x30D7;_19608" data-name="&#x30B0;&#x30EB;&#x30FC;&#x30D7; 19608"><path id="&#x30D1;&#x30B9;_33863" data-name="&#x30D1;&#x30B9; 33863" d="M37.765-4.615H27.95A46.235,46.235,0,0,1,21-4.94V4.615a59.258,59.258,0,0,1,8.32-.39H54.86a54.628,54.628,0,0,1,8.19.39V-4.94a50.6,50.6,0,0,1-7.41.325H46.93v-3.77h7.02a52.454,52.454,0,0,1,7.28.325v-9.3a50.051,50.051,0,0,1-7.41.325H46.93v-3.25h7.475c3.835,0,4.42,0,6.37.13a70.94,70.94,0,0,1-.325-9.1V-43.94c0-4.355.13-7.6.325-9.62a56.259,56.259,0,0,1-8.58.325H33.6a86.839,86.839,0,0,1-9.165-.325,77.51,77.51,0,0,1,.325,9.165v15.6c0,4.485-.065,6.89-.26,8.71,1.755-.13,3.12-.2,7.475-.2h5.785v3.25H31.72a53.367,53.367,0,0,1-7.15-.26v9.165a57.959,57.959,0,0,1,7.215-.26h5.98Zm0-39.715V-40.5H33.8V-44.33Zm9.165,0H50.9V-40.5H46.93ZM37.765-32.89v4.03H33.8v-4.03Zm9.165,0H50.9v4.03H46.93ZM8.45-43.55v10.14H7.865a32.973,32.973,0,0,1-4.745-.26v9.165a31.833,31.833,0,0,1,4.55-.26h.78v12.74A42.8,42.8,0,0,1,1.5-9.88L3.77.325c.91-.455.975-.455,1.43-.65,8.97-3.7,12.805-5.395,18.005-8l-.065-9.685c-2.34,1.17-2.99,1.43-5.135,2.34v-9.1h.39c1.43,0,2.47.065,3.965.2v-9.1a25.94,25.94,0,0,1-3.965.26h-.39V-43.55h.845a35.27,35.27,0,0,1,4.485.26v-9.555a51.156,51.156,0,0,1-6.175.325H8.58a54.025,54.025,0,0,1-6.24-.325v9.555a39.219,39.219,0,0,1,4.55-.26Zm97.24-1.885V-48.36a52.341,52.341,0,0,1,.39-6.955H95.03a55.233,55.233,0,0,1,.39,6.825v3.055H80.34a75.806,75.806,0,0,1-7.67-.26c.195,2.08.325,4.225.325,6.76V-3.7c0,3.77-.13,6.695-.39,9.75h10.01V3.38h36.14V6.045H128.83c-.26-3.38-.39-6.5-.39-9.62v-34.84a64.306,64.306,0,0,1,.325-7.345,70.445,70.445,0,0,1-8.125.325Zm0,39.65V-17.1h13.065v11.31Zm0-20.215V-36.27h13.065V-26ZM95.42-36.27V-26H82.615V-36.27Zm0,19.175v11.31H82.615V-17.1Z" transform="translate(48 16950)" fill="#533afc"></path><path id="&#x30D1;&#x30B9;_33864" data-name="&#x30D1;&#x30B9; 33864" d="M55.584,7.056c18.288,0,33.408-8.064,42.048-22.464C103.1-24.48,106.7-40.32,106.7-55.44a95.783,95.783,0,0,0-5.616-33.12,45.347,45.347,0,0,0-10.512-15.984c-8.784-8.64-21.024-13.392-34.992-13.392-18.144,0-33.12,8.064-41.9,22.752C8.208-86.112,4.608-70.416,4.608-55.3A95.552,95.552,0,0,0,10.224-22.32,45.347,45.347,0,0,0,20.736-6.336C29.52,2.448,41.472,7.056,55.584,7.056Zm0-100.656c13.968,0,21.456,12.96,21.456,37.584,0,25.632-7.2,38.592-21.312,38.592-14.256,0-21.6-13.248-21.6-39.024C34.128-79.92,42.048-93.6,55.584-93.6Zm58.608,73.584c5.328-.432,9.36-.576,18.72-.576h40.752v7.056a125.8,125.8,0,0,1-1.152,18h29.664a100.948,100.948,0,0,1-1.152-17.712v-7.2h4.32a114.255,114.255,0,0,1,14.112.864V-45.792A101.594,101.594,0,0,1,205.2-44.64h-4.176v-46.8a207.782,207.782,0,0,1,1.152-23.9h-29.52a144.077,144.077,0,0,1-13.392,17.136L128.016-61.632c-7.344,8.64-7.344,8.64-13.824,15.84Zm59.616-24.336H144.72l21.024-25.632c3.888-4.9,6.048-7.776,8.928-11.808-.576,6.336-.864,14.256-.864,20.736Z" transform="translate(48 17110)" fill="#533afc"></path><path id="&#x30D1;&#x30B9;_33867" data-name="&#x30D1;&#x30B9; 33867" d="M44.712-33.588V-2.7a81.192,81.192,0,0,1-.648,12.42H60.48v-4H91.26a111.972,111.972,0,0,1,13.068.648V-9.72a63.407,63.407,0,0,1-10.044.54H60.372V-23.76a31.619,31.619,0,0,1,4.536,6.912,46.535,46.535,0,0,0,9.18-15.012c-.216,3.348-.216,4.968-.216,8.532V-16.2a28.527,28.527,0,0,1-.324,4.86H88.56a28.785,28.785,0,0,1-.324-5.076v-7.668a77.494,77.494,0,0,0-.324-7.992,57.5,57.5,0,0,0,11.88,16.2,67.636,67.636,0,0,1,6.8-15.336A46.1,46.1,0,0,1,92.232-45.36h2.7a66.745,66.745,0,0,1,8.964.432V-60.48a49.328,49.328,0,0,1-8.964.54h-6.7v-5.292l8.964,4.86c3.78-7.452,4.968-10.476,7.884-21.06L93.528-86.94a74,74,0,0,1-5.292,18.684v-14.58a62.45,62.45,0,0,1,.432-8.316H73.224a57.394,57.394,0,0,1,.432,7.992V-71.6a114.928,114.928,0,0,0-5.724-15.12l-7.56,4.32a59.271,59.271,0,0,1,.432-6.48H44.172a60.368,60.368,0,0,1,.54,9.4v4.644L32.724-80.892c-1.188,3.456-1.188,3.456-9.72,17.5-.972-1.4-1.188-1.728-2.268-3.24a133.032,133.032,0,0,0,9.612-17.388,41.85,41.85,0,0,1,2.16-3.78l-14.04-5.508a58.366,58.366,0,0,1-6.156,15.66L9.828-80.784,2.592-67.392c6.156,7.452,6.8,8.316,11.772,16.524A25.906,25.906,0,0,1,11.556-47.3a48.533,48.533,0,0,1-8.424-.432L4.428-32.4c2.484-.54,2.484-.54,13.716-.972V-1.944A69.163,69.163,0,0,1,17.5,9.936h14.8a66.951,66.951,0,0,1-.648-11.88V-34.236c2.592-.216,2.592-.216,5.4-.54.216,1.3.324,1.944.54,3.888Zm0-10.26a88.772,88.772,0,0,0-4.752-14.58l-7.236,2.7c3.888-5.184,5.4-7.344,6.7-9.288,4.752-7.236,4.752-7.236,5.292-8.1ZM60.372-59.94V-76.788a77.038,77.038,0,0,1,5.292,16.2l7.992-4.752v5.4Zm0,14.58H69.66a47.821,47.821,0,0,1-9.288,12.528Zm-28.62-9.18a64.329,64.329,0,0,1,2.16,6.48c-2.7.216-3.456.216-7.452.432,2.052-2.484,2.484-3.024,3.24-4.1A24.7,24.7,0,0,0,31.752-54.54ZM6.048-30.564C5.724-16.956,4.86-10.044,2.592-.756L13.176,4.752c2.052-10.584,2.808-18.36,3.24-33.912Zm27.324,2.376c.756,7.02.864,8.856,1.3,27.216l8.208-1.4c-.216-9.828-.54-17.5-1.4-27.432Zm84.132-4a31.078,31.078,0,0,1,6.588-.756c.54,0,1.836-.108,3.888-.216.864,0,2.268-.108,3.888-.216V-1.728a69.162,69.162,0,0,1-.648,11.88h15.552c-.54-3.348-.648-5.724-.648-11.88V-34.236c1.4-.108,1.4-.108,4.32-.432a32.976,32.976,0,0,0,.54,3.78l8.424-3.132a64.491,64.491,0,0,1-.324,7.776h8.964c-.54,10.044-2.916,14.58-9.828,18.792-.216-7.02-.972-15.552-1.944-22.68L147.96-28.4c1.08,9.072,1.3,12.528,1.62,28.08l4.644-.864A56.587,56.587,0,0,1,159.84,9.72c8.1-4.1,11.988-6.912,15.66-11.664,4.32-5.184,7.02-13.608,7.344-22.572.216-6.588.216-6.588.54-8.64l-10.044-.108V-36.72h27.972v3.456h-15.12A33.331,33.331,0,0,1,186.624-27V-1.944c0,8.1,3.024,10.368,13.824,10.368,10.368,0,14.256-1.3,16.092-5.292,1.4-2.808,2.052-7.128,2.808-18.36a50.463,50.463,0,0,1-13.068-4.86,95.713,95.713,0,0,1-.432,11.664c-.216,1.512-.972,2.052-2.808,2.052-1.3,0-1.62-.432-1.62-1.62V-26.244h15.552a65.112,65.112,0,0,1-.54-8.964v-6.48A55.609,55.609,0,0,1,216.864-50a69.03,69.03,0,0,1-9.288.432H168.264a78.036,78.036,0,0,1-9.18-.324,69.008,69.008,0,0,1,.324,8.316v1.4a161.544,161.544,0,0,0-5.076-18.468l-7.56,2.7q5.994-8.586,10.692-15.876v1.3a119.534,119.534,0,0,1,12.636-.432h8.208v4.644H171.18a99.7,99.7,0,0,1-11.448-.432V-52.92a94.031,94.031,0,0,1,11.34-.432h31.86a93.1,93.1,0,0,1,11.232.432V-66.744a98.754,98.754,0,0,1-11.34.432h-8.64v-4.644h10.692a111.05,111.05,0,0,1,12.42.432V-85.1a100.7,100.7,0,0,1-12.852.648h-10.26a30.527,30.527,0,0,1,.648-7.236H177.768a42.114,42.114,0,0,1,.54,7.236h-7.884a100.251,100.251,0,0,1-12.96-.648v9.4l-10.476-5.616c-1.836,4.428-2.484,5.508-9.612,17.064-1.188-1.512-1.188-1.512-2.484-3.24a178.458,178.458,0,0,0,9.072-15.768c1.4-2.808,1.728-3.348,2.484-4.644L132.192-92.88a79.38,79.38,0,0,1-6.264,15.012L122.9-81.324l-7.02,13.608A137.464,137.464,0,0,1,129.06-51.624c-1.62,2.16-1.944,2.592-3.348,4.536-2.376.108-3.132.108-3.78.108a28.716,28.716,0,0,1-5.724-.432ZM145.692-54.54a44.7,44.7,0,0,1,1.944,6.7c-4.32.216-4.32.216-7.128.324C142.776-50.436,143.424-51.3,145.692-54.54ZM118.908-29.916c-.432,15.444-1.08,21.384-3.24,29.7l10.584,5.832c2.16-10.584,2.916-17.928,3.348-34.452Zm189.864,5.508A170.821,170.821,0,0,0,296.028-51.3l-13.716,5.94A78.858,78.858,0,0,0,293.76-61.884h19.008c-.216,30.888-.972,45.576-2.916,51.408-.972,3.132-2.7,4-7.776,4a99.3,99.3,0,0,1-12.528-.972A54.4,54.4,0,0,1,293.76,9.4c3.564.108,5.832.108,7.992.108,6.48,0,12.636-.864,15.768-2.268,4.428-1.944,6.48-5.184,8.208-13.176,1.3-6.156,2.484-19.224,2.808-31.32.648-27.108.756-29.7.756-33.912a60.358,60.358,0,0,1,.54-7.344,60.672,60.672,0,0,1-9.072.432H300.888c.864-2.376,1.188-3.24,2.052-6.156a33.622,33.622,0,0,1,1.944-5.292L287.82-92.016a38.213,38.213,0,0,1-1.836,7.56,86.105,86.105,0,0,1-11.232,22.248V-73.98c.216-2.376.216-2.376.324-3.348-2.484.216-5.4.324-9.072.324h-4.86c2.484-5.508,2.484-5.508,5.508-13.068L249.48-92.124A75.954,75.954,0,0,1,244.944-77h-2.376a65.734,65.734,0,0,1-9.288-.324,96.671,96.671,0,0,1,.432,11.772V-8.1a124.246,124.246,0,0,1-.648,14.8h16.308V-2.916h10.044V3.132h15.66c-.216-3.348-.324-6.588-.324-10.152V-48.384a69.126,69.126,0,0,1,5.184,5.508c.864-.864,1.08-1.188,1.728-1.836,4.86,8.1,8.208,15.984,11.34,27.216ZM249.264-61.992h10.26v14.256h-10.26Zm0,28.62h10.26V-17.6h-10.26Zm106.812-54c-.216,3.24-.324,4-1.62,11.556a233.6,233.6,0,0,0-4.1,41.58c0,10.26.756,19.656,2.808,34.128a43.391,43.391,0,0,1,.54,5.724l18.576-.864a30.234,30.234,0,0,1-.324-5.292,106.568,106.568,0,0,1,4.212-30.24l-8.316-2.808c.756-19.656,4-39.852,8.208-52.164Zm28.3,28.08c1.512.108,2.268.108,3.132.216a178.2,178.2,0,0,0,18.576.864c7.452,0,15.336-.432,22.788-1.188,5.94-.648,7.02-.756,7.992-.756L436.1-78.624c-7.236,1.836-17.82,2.7-32.184,2.7a90.209,90.209,0,0,1-19.224-1.62Zm6.372,14.364c-2.916,4.212-3.564,5.292-5.076,7.776-3.348,5.616-5.184,11.556-5.184,16.848A20.006,20.006,0,0,0,390.42-3.132C396.036,0,402.732,1.4,412.776,1.4A132.253,132.253,0,0,0,431.46,0c6.372-.972,6.372-.972,9.18-1.3l-1.08-19.116a80.264,80.264,0,0,1-26.892,4.428c-9.18,0-14.04-2.7-14.04-7.668,0-3.888,2.268-8.532,7.236-14.9ZM556.848-9.18C540-25.272,535.572-29.052,522.5-38.448c6.048-8.1,10.152-15.66,15.876-29.16,1.62-3.672,2.268-4.752,3.888-6.372l-9.5-9.72c-2.916,1.08-3.564,1.08-8.64,1.188l-36.936.54c-3.132.108-5.184.108-6.048.108a80.011,80.011,0,0,1-11.34-.756l.54,19.224c4.428-.648,7.884-.864,17.172-1.08l28.08-.432a86.883,86.883,0,0,1-21.708,31.752A101.849,101.849,0,0,1,458.892-11.34c6.048,6.264,8.316,9.5,12.1,17.064,16.74-8.1,29.592-17.6,39.744-29.592a173.64,173.64,0,0,1,31,30.672Zm48.816-60.048L590.652-66.96a108.521,108.521,0,0,1-15.876,1.728l2.916,18.468c4.428-1.188,6.912-1.62,16.092-3.024l14.9-2.376,2.484,13.608-20.628,3.24A126.449,126.449,0,0,1,575.1-33.588l2.916,18.36a115.436,115.436,0,0,1,14.8-3.024L614.2-21.6,617-6.048c1.512,8.208,1.944,11.34,1.944,15.012l20.52-3.348c-1.3-4.1-1.512-5.184-3.24-14.472L633.2-24.516l20.412-3.132c9.072-1.3,9.072-1.3,15.228-1.944L665.6-47.844A100.642,100.642,0,0,1,650.052-44.5l-19.98,3.024L627.48-55.08l16.848-2.592c11.664-1.728,11.664-1.728,15.336-2.052L656.64-77.868c-4.752,1.4-7.776,1.944-15.444,3.132l-16.848,2.592-1.188-5.94a88.029,88.029,0,0,1-1.512-11.988l-19.872,3.024c1.08,3.132,1.62,5.4,2.808,12.2ZM698.436-86.4a79.159,79.159,0,0,1,.432,9.936c0,27.972-1.728,41.364-6.8,51.948A48.238,48.238,0,0,1,679.212-7.344c6.912,4.86,9.936,7.884,15.444,15.12C702,0,706.1-5.832,709.668-13.824c5.184-11.772,7.344-23.76,7.992-46.332.756-21.384.756-21.384,1.188-25.056Zm30.672-.54a64.188,64.188,0,0,1,.432,8.424v3.888L729-10.692c0,4.428-.216,6.264-1.188,9.072L737.1,8.1a24.168,24.168,0,0,1,5.292-2.268c10.908-4,16.2-6.8,22.68-12.312,8.208-7.02,13.824-15.336,18.684-27.432-6.156-4.752-8.964-7.56-14.364-14.256A54.692,54.692,0,0,1,760.968-29.7a41.741,41.741,0,0,1-12.96,11.88l.54-56.592a77.291,77.291,0,0,1,.864-12.528Zm150.336,2.052c-2.484,1.08-3.24,1.188-9.288,1.188H813.564c-8.856,0-12.528-.216-17.5-.972v18.9a144.073,144.073,0,0,1,17.172-.756h51.516a40.882,40.882,0,0,1-18.144,18.36,13.985,13.985,0,0,0-2.484,1.3c0-1.08.108-3.672.108-3.78.108-6.156.216-7.128.54-9.288h-20.3a29.34,29.34,0,0,1,.648,7.452c0,14.364-1.836,22.032-7.02,28.728-5.076,6.48-12.852,11.232-24.732,15.012,6.264,6.372,7.992,8.964,12.312,17.5,7.128-3.348,10.8-5.292,15.228-8.316A53.794,53.794,0,0,0,837.756-17.82c3.78-7.128,5.616-15.012,6.264-26.244a56.7,56.7,0,0,1,12.1,11.772c13.932-8.64,23.22-19.548,30.132-35.748,1.4-3.348,1.728-3.888,3.348-5.616Zm33.48,24.516A137.768,137.768,0,0,1,922.536-32.4l16.848-5.076A136.06,136.06,0,0,0,928.908-64.8ZM936.9-65.016a127.07,127.07,0,0,1,9.72,27.108l16.524-5.076c-2.808-10.368-4.752-15.228-10.476-26.352Zm37.044-2.16c-.108,6.372-1.944,15.228-4.752,22.788C962.5-26.46,950.724-15.66,929.016-7.236c6.048,5.94,8.208,8.64,11.88,15.228A146.216,146.216,0,0,0,953.964.756a78.5,78.5,0,0,0,22.68-21.924c6.048-8.964,10.26-19.98,13.5-35.208a43.429,43.429,0,0,1,1.62-6.588Zm134.136-1.08a12.1,12.1,0,0,0,12.1-12.2,12.123,12.123,0,0,0-12.2-12.2A11.985,11.985,0,0,0,1095.876-81H1040.8c-11.016,0-14.04-.216-18.144-.864v19.44c3.78-.432,6.372-.54,17.82-.648h45.144c-6.156,25.164-25.6,44.28-54.324,53.244,7.02,6.8,10.044,10.908,13.608,18.144,34.344-15.336,53.136-37.152,61.992-71.82l.648-2.808c.108-.324.216-.648.324-1.08l.108-.432Zm-.108-18.36a6.224,6.224,0,0,1,6.156,6.156,6.2,6.2,0,0,1-6.156,6.048,6.2,6.2,0,0,1-6.156-6.048A6.224,6.224,0,0,1,1107.972-86.616Zm92.448,25.6c6.048,8.424,12.42,25.6,14.688,39.312l17.712-8.424c-3.564-14.8-9.612-28.836-16.524-38.34Zm-68.148,14.364c3.132-.972,10.044-2.16,16.848-3.132-4.428,17.388-13.5,38.772-20.3,47.844l17.82,9.4c.648-1.62.864-1.944,1.728-4a256.078,256.078,0,0,0,19.116-54.648,39.212,39.212,0,0,1,4.32-.216c3.78,0,5.292.432,6.48,1.836,1.4,1.512,2.052,4.1,2.052,8.64,0,8.316-1.3,19.224-2.916,23.976-1.188,3.456-2.592,4.86-4.86,4.86-3.132,0-8.64-1.4-14.8-3.888a51.267,51.267,0,0,1,1.62,12.96,49.036,49.036,0,0,1-.324,6.264c7.344,2.052,12.2,2.808,17.172,2.808a20.627,20.627,0,0,0,8.424-1.512,17.863,17.863,0,0,0,6.912-6.372c4.32-7.56,6.8-21.492,6.8-38.34,0-12.2-2.16-18.792-7.668-23.22-3.672-2.916-8.64-4.32-15.336-4.32a35.827,35.827,0,0,0-4.644.216c.324-1.728,1.08-6.156,2.052-11.664l.756-3.888c.108-.648.216-1.62.324-1.944a11.176,11.176,0,0,1,.648-2.592l-19.548-1.836v1.836c0,3.672-.756,10.044-2.484,21.276-7.128.972-17.388,1.836-20.844,1.836a3.72,3.72,0,0,1-.972-.108Zm74.3-42.552a73.7,73.7,0,0,1,10.584,15.444l9.936-4.86a75.922,75.922,0,0,0-10.8-15.012Zm-14.9,6.7a69.52,69.52,0,0,1,10.692,15.768l10.26-4.968a69.189,69.189,0,0,0-10.692-15.444Zm55.512,23.328c4.644-.972,5.184-.972,15.228-2.052,20.2-1.62,23.976-1.944,26.352-2.16l5.076-.54c-5.184,3.564-7.776,5.724-10.584,9.18a36.972,36.972,0,0,0-9.18,24.408c0,13.716,6.588,23.652,19.332,29.592,6.912,3.132,15.012,4.968,27.324,6.048a27.624,27.624,0,0,1,4,.54l2.484-20.52c-1.62.108-2.376.108-3.24.108-6.8,0-16.308-1.728-20.628-3.888-6.156-2.916-9.072-7.128-9.072-13.392,0-8.856,6.372-17.928,17.172-24.516,7.452-4.644,17.172-7.56,24.732-7.56a16.422,16.422,0,0,1,3.024.216l-.972-19.548a9.107,9.107,0,0,1-2.484.432c-.54,0-1.188.108-4.86.216l-4.536.216-11.124.432c-20.52.756-31,1.3-46.548,2.268-11.772.756-15.66.972-18.468.972-.864,0-2.268,0-4.1-.108Zm65.124,9.4A67.156,67.156,0,0,1,1322.784-33.8l10.368-4.752a69.624,69.624,0,0,0-10.476-15.66Zm15.12-6.372c3.672,4.212,6.372,8.316,10.26,15.552l10.044-4.644a74.64,74.64,0,0,0-10.584-15.228Zm40.176-5.076c2.484-.108,3.24-.108,8.1-.216,13.716,0,18.684-.216,28.188-1.188,1.3,2.916,2.16,4.86,2.484,5.724a275.487,275.487,0,0,1-29.484,1.512,92.173,92.173,0,0,1-11.124-.432l.756,15.984a80.787,80.787,0,0,1,9.4-.54c15.552-.432,27.972-1.188,37.152-2.376,2.16,3.456,3.78,6.048,4.968,7.668a71.6,71.6,0,0,0-14.9-1.3c-9.4,0-16.74,1.3-23.112,4-7.884,3.348-12.852,10.26-12.852,17.82a20.154,20.154,0,0,0,4,11.88c5.292,6.8,16.308,10.26,32.724,10.26a138.737,138.737,0,0,0,30.24-3.348,70.758,70.758,0,0,1,7.56-1.512l-2.484-18.252c-8.64,4.1-21.924,6.7-34.344,6.7-11.448,0-17.064-1.944-17.064-5.94,0-4.536,6.588-7.02,18.576-7.02,9.4,0,16.308,1.4,22.68,4.752l15.876-8.208a122.551,122.551,0,0,1-13.824-19.872c1.4-.324,6.372-1.188,6.48-1.188,10.8-2.268,10.8-2.268,13.284-2.592l-1.62-15.876c-4.968,1.836-10.152,3.024-25.164,5.724-.432-.756-1.62-3.564-2.484-5.616,10.8-1.728,10.908-1.836,17.172-3.132,5.94-1.188,5.94-1.188,7.992-1.62l-1.512-15.768c-6.264,2.052-18.9,4.644-29.268,6.048-2.052-5.292-2.808-7.776-3.348-11.232l-18.9,2.268c.972,1.944,2.268,4.86,4.536,10.8-4.86.432-13.176.756-19.332.756a104.239,104.239,0,0,1-12.312-.54Zm119.232-6.8c2.16-.216,4.212-.432,7.128-.54,15.228-.756,19.548-.972,25.272-1.62-13.392,13.284-36.18,31-46.116,35.64l10.044,16.416a80.3,80.3,0,0,1,10.368-8.1A62.106,62.106,0,0,1,1526.8-36.18c11.988,0,19.332,4.644,19.332,12.2,0,5.508-2.7,9.18-8.532,11.772-1.62-4-2.808-6.156-4.968-8.532a25.332,25.332,0,0,0-19.332-8.316c-12.528,0-21.492,7.236-21.492,17.28,0,11.988,11.124,19.224,29.376,19.224,10.8,0,21.168-2.484,28.62-6.8,9.828-5.832,14.9-14.472,14.9-25.38,0-7.776-2.7-14.04-7.884-18.684-5.724-4.968-12.96-7.344-23.112-7.344a51.67,51.67,0,0,0-14.8,1.944c7.236-5.292,9.18-6.912,14.9-11.772,14.58-12.528,14.58-12.528,17.388-14.148L1542.348-87.8c-2.052.864-3.456,1.188-8.208,1.512-10.908.864-22.9,1.3-32.508,1.3a120.863,120.863,0,0,1-15.552-.756Zm34.668,60.7a16.392,16.392,0,0,1-3.564.324c-5.832,0-9.288-1.836-9.288-4.752,0-2.16,1.728-3.564,4.212-3.564C1517.076-15.336,1520.1-12.528,1521.5-7.344Z" transform="translate(324 17133)"></path><path id="&#x30D1;&#x30B9;_33868" data-name="&#x30D1;&#x30B9; 33868" d="M26.784-82.188C26.244-53.352,16.092-23.868,1.4-8.964a75.94,75.94,0,0,1,17.6,12.852c14.256-17.5,22.464-39.96,26.784-73.008l.432-2.484.324-2.16a15.329,15.329,0,0,1,.432-3.024,8.618,8.618,0,0,1,.324-1.728ZM59.94-78.732l.432,1.3.108,1.08.756,4.1c0,.216.108.972.216,2.052,4.1,30.24,13.5,55.3,27.864,74.088A75.088,75.088,0,0,1,106.38-9.72C94.932-23.544,88.128-37.584,82.728-58.428c-1.836-7.02-3.888-19.44-3.888-23.436V-82.3Zm20.412-6.8a92.361,92.361,0,0,1,6.48,17.82l8.532-2.7A87.046,87.046,0,0,0,88.452-87.8Zm27.54,10.8a66.927,66.927,0,0,0-6.8-16.416L93.1-88.668a90.736,90.736,0,0,1,6.7,16.956Zm83.16-14.8c-3.132,5.4-10.368,12.744-19.656,19.764-17.388,13.392-33.912,21.492-57.348,28.08C119.34-35.1,121.5-31.536,124.416-24.3c15.444-5.508,24.084-9.4,35.316-15.984v29.808a146.734,146.734,0,0,1-.648,17.388h20.952a154.351,154.351,0,0,1-.648-17.5v-41.58a181.031,181.031,0,0,0,24.948-21.708,38.647,38.647,0,0,1,4.212-4Zm113.4,48.816c9.612,0,10.584,0,16.848.54V-58.212c-4.86.648-7.56.756-17.172.756H243.972c-8.964,0-11.988-.108-16.632-.864v18.144a144.852,144.852,0,0,1,16.308-.54h22.14c-.864,17.28-9.4,26.892-29.16,32.724,6.48,6.156,8.748,9.288,12.636,17.064,14.9-6.048,23-12.2,28.944-21.924,4.86-8.1,6.912-15.228,7.776-27.864Zm-66.1-27.108c4.1-.432,7.02-.54,16.416-.54H293.22c11.016,0,12.744.108,16.956.54V-86.076c-4.752.756-7.236.864-17.28.864H255.1c-9.4,0-11.88-.108-16.74-.864ZM347-60.372A137.766,137.766,0,0,1,356.616-32.4l16.848-5.076A136.057,136.057,0,0,0,362.988-64.8Zm23.976-4.644a127.072,127.072,0,0,1,9.72,27.108l16.524-5.076c-2.808-10.368-4.752-15.228-10.476-26.352Zm37.044-2.16c-.108,6.372-1.944,15.228-4.752,22.788C396.576-26.46,384.8-15.66,363.1-7.236c6.048,5.94,8.208,8.64,11.88,15.228A146.224,146.224,0,0,0,388.044.756a78.5,78.5,0,0,0,22.68-21.924c6.048-8.964,10.26-19.98,13.5-35.208a43.437,43.437,0,0,1,1.62-6.588ZM486.54-91.368c-.54,3.78-1.836,7.344-4.644,12.96-7.02,13.824-15.552,23.652-28.728,32.94,7.128,4.32,9.828,6.7,15.336,12.96A101.316,101.316,0,0,0,493.02-59.616l28.728-.324c-4,12.42-10.044,22.572-18.036,30.672-9.5,9.5-20.736,16.416-36.072,22.032A49.92,49.92,0,0,1,480.6,9.18c17.712-8.1,29.916-16.632,39.744-27.864,9.5-10.8,16.848-24.84,22.356-42.768,1.512-4.86,1.836-5.508,3.132-7.668l-8.964-8.856c-2.592.972-3.78,1.188-7.992,1.188l-27.108.324c.756-1.512.756-1.512,2.16-4.644q.324-.648.972-2.268c.324-.648.54-1.3.756-1.62a15.875,15.875,0,0,1,1.3-2.7ZM625.752-66.852a18.1,18.1,0,0,1,9.072,3.78c6.264,4.752,9.5,12.1,9.5,21.276,0,11.556-4.644,20.628-12.96,25.056-5.832,3.024-12.528,4.752-22.68,5.508a53.064,53.064,0,0,1,9.18,17.712c15.12-2.376,23.652-5.832,31-12.42,9.072-8.1,14.364-20.844,14.364-34.884,0-12.2-3.672-22.68-10.584-30.024-7.992-8.424-20.736-13.284-35.208-13.284-15.876,0-29.592,5.508-39.1,15.876a48.011,48.011,0,0,0-12.42,32.94c0,19.764,10.152,33.588,24.624,33.588,9.828,0,17.064-6.048,23.328-19.872C619.7-34.344,623.376-48.276,625.752-66.852Zm-18.684.216a140.024,140.024,0,0,1-8.1,32.94c-3.24,8.208-6.048,11.988-8.748,11.988-3.78,0-6.7-6.048-6.7-13.716a34.943,34.943,0,0,1,11.772-25.7A21.592,21.592,0,0,1,607.068-66.636Z" transform="translate(324 17278)"></path></g><rect id="&#x9577;&#x65B9;&#x5F62;_5461" data-name="&#x9577;&#x65B9;&#x5F62; 5461" width="845" height="124" transform="translate(324 16885)"></rect><rect id="&#x9577;&#x65B9;&#x5F62;_5462" data-name="&#x9577;&#x65B9;&#x5F62; 5462" width="845" height="124" transform="translate(1008 17175)"></rect><path id="&#x30D1;&#x30B9;_33865" data-name="&#x30D1;&#x30B9; 33865" d="M42.336-68.472v-8.316A77.7,77.7,0,0,1,42.768-87.8H23a72.792,72.792,0,0,1,.648,11.448v7.884H19.98c-8.532,0-10.692-.108-15.552-.756V-50.76a128,128,0,0,1,15.228-.54h4v11.88A80.239,80.239,0,0,1,23-28.08H42.768A96.88,96.88,0,0,1,42.336-39.2V-51.3H65.124c-.108,6.156-.108,6.912-.216,8.856-.864,12.1-4,19.116-11.34,24.948-4.86,3.888-10.368,6.372-20.844,9.5C38.556-2.052,41.04,1.4,44.5,8.532,55.4,4.428,61.02,1.4,66.852-3.672c9.5-8.208,14.364-18.036,15.984-32.616.432-4.1.54-6.48.756-15.012h4.752c7.02,0,10.044.108,15.228.54V-69.228c-4.428.648-7.452.756-15.552.756H83.808c.108-15.984.108-15.984.54-19.224H64.908a79.782,79.782,0,0,1,.54,12.1v7.128Zm171.828-2.916a12.194,12.194,0,0,0,6.048-10.584,12.1,12.1,0,0,0-12.1-12.2,12.123,12.123,0,0,0-12.2,12.2,12.257,12.257,0,0,0,3.888,8.964H176.58v-4a82.406,82.406,0,0,1,.648-12.2h-20.52a82.055,82.055,0,0,1,.648,11.988v4.212H137.592c-9.072,0-12.636-.216-16.524-.864V-55.4c3.888-.54,6.8-.648,16.308-.648h19.98v47.2a146.433,146.433,0,0,1-.648,16.416H177.12c-.324-3.132-.54-8.964-.54-16.2V-56.052h20.952c9.4.108,13.068.216,16.632.648Zm-6.048-16.74a6.2,6.2,0,0,1,6.048,6.156,6.2,6.2,0,0,1-6.156,6.048,6.181,6.181,0,0,1-6.048-6.048A6.224,6.224,0,0,1,208.116-88.128ZM132.192-50.436c-1.3,13.824-8.1,30.78-16.74,42.012A76.067,76.067,0,0,1,133.272.432c7.992-11.88,13.608-26.028,16.74-42.66a35.5,35.5,0,0,1,.756-3.888Zm50.868,4.32a26.331,26.331,0,0,1,1.62,5.292C189.216-23,192.78-13.716,200.664.648A104.6,104.6,0,0,1,218.484-9.4c-7.02-9.828-14.364-27.216-17.5-41.256ZM232.848-30.78c6.588-.54,10.152-.648,22.248-.648H306.5c12.312,0,17.064.108,22.248.648V-51.624a177.2,177.2,0,0,1-22.14.972H254.988c-11.232,0-17.064-.216-22.14-.972ZM387.072,6.372a158.365,158.365,0,0,1-.648-16.524v-28.08c1.08.648,1.08.648,4.86,2.16A200.192,200.192,0,0,1,425.3-17.28l10.26-18.36A229.075,229.075,0,0,0,386.424-58.1V-72.9a139.646,139.646,0,0,1,.54-15.768H366.12a102.179,102.179,0,0,1,.756,15.66v62.856a154.151,154.151,0,0,1-.648,16.524Zm113.4-39.636a42.856,42.856,0,0,1,2.16,4.968A90.171,90.171,0,0,0,518.4-35.424l-7.668,10.476A129.814,129.814,0,0,1,538.38-9.936c-8.964-2.484-14.364-3.78-28.836-7.02L502.416-2.484C523.584,1.836,535.68,5.4,546.8,10.368l6.264-15.444a145.224,145.224,0,0,0-14.256-4.752l8.532-13.824A171.27,171.27,0,0,0,520.452-36.72c2.268-1.4,3.24-2.052,5.94-3.888,7.668,5.292,15.012,8.964,26.892,13.284,2.376-7.776,3.78-11.34,7.344-17.388-9.072-1.944-14.472-3.78-21.168-7.344,5.508-5.724,9.612-11.448,15.12-21.06.648-1.3.864-1.62,1.4-2.592l-7.452-8.748a48.151,48.151,0,0,1-8.748.54H528.012c.54-1.08.756-1.512,1.3-2.7a38.035,38.035,0,0,1,1.728-3.564l-17.28-2.268a30.927,30.927,0,0,1-4.968,10.584c-3.348,5.076-6.48,8.316-12.2,12.744,2.268-3.78,3.564-5.616,3.564-5.724l-12.312-6.7c-1.188,3.456-3.348,7.452-9.72,17.6-.864-1.3-1.188-1.728-2.16-3.024a173.022,173.022,0,0,0,9.5-17.82,25.656,25.656,0,0,1,1.836-3.564L472.932-93.2a56.719,56.719,0,0,1-6.156,14.9l-2.7-3.024L456.624-68.04a112.469,112.469,0,0,1,13.5,16.092c-1.836,2.376-2.268,3.024-3.888,5.076h-2.484c-1.728,0-3.24-.108-6.7-.324l1.3,14.9a22.587,22.587,0,0,1,4.428-.432c4.212-.216,4.212-.216,6.912-.432.756,0,2.052-.108,3.672-.216v31.32a77.662,77.662,0,0,1-.648,11.988h15.336A68.333,68.333,0,0,1,487.4-2.052V-34.56l4.752-.54c.324,1.62.432,2.16.864,4.428ZM487.4-55.62c3.564-4.968,5.4-7.56,7.236-10.368a41.043,41.043,0,0,1,8.964,12.1c2.808-2.16,3.672-2.916,5.292-4.32a48.148,48.148,0,0,0,5.4,6.912,63.4,63.4,0,0,1-13.176,6.156c-1.08-4-1.944-6.264-4.644-13.716ZM519.7-70.2H534.06a59.41,59.41,0,0,1-7.56,9.288,41.65,41.65,0,0,1-7.344-8.532ZM486.972-54.972c1.4,3.78,1.62,4.644,2.376,7.236-.864.108-1.728.108-2.592.216-2.376.108-2.916.108-5.508.216C483.192-49.788,484.6-51.732,486.972-54.972ZM459.54-30.132c0,13.716-.756,21.06-3.132,28.944L467.424,5.4c2.376-9.828,2.916-16.416,3.24-34.128Zm30.24,1.62a262.309,262.309,0,0,1,1.4,27.54l11.124-1.944c-.972-14.148-.972-14.148-2.7-27.432ZM640.116-71.28a85.263,85.263,0,0,1-15.444,11.988H612.036a79.712,79.712,0,0,1,.54,10.908v36.936c0,2.052-1.3,2.7-5.292,2.7a126.371,126.371,0,0,1-16.416-1.4,78.182,78.182,0,0,1,4.644,17.928c7.452.324,11.016.432,14.364.432,8.532,0,13.068-.864,16.092-2.916,2.808-1.944,4.212-5.4,4.212-10.044v-39.1a205.41,205.41,0,0,0,28.3-22.248c8.748-8.532,8.748-8.532,11.124-10.584L659.124-88.344a96.131,96.131,0,0,1-13.176.648H592.056a154.2,154.2,0,0,1-16.2-.648v17.712c5.184-.432,9.288-.648,16.308-.648ZM767.988-37.8c-2.16.216-5.076.324-8.424.324h-13.5c.864-1.3,1.08-1.836,1.944-3.024,7.02-.54,8.316-.756,20.52-2.16,1.08,2.484,1.512,3.456,3.24,7.452l14.472-7.56a236.746,236.746,0,0,0-14.688-25.056l-13.284,6.7c1.836,3.024,2.484,4.1,3.888,6.264-3.888.324-5.4.432-6.48.432-4.32.216-4.32.216-6.156.324,5.616-5.4,14.9-15.12,18.9-19.872.864-1.08,2.268-2.7,4.1-4.752l-15.66-7.344c-2.376,4.32-6.912,10.152-14.9,18.9-1.512-1.512-2.16-2.16-3.888-3.672,3.672-4,7.884-9.072,11.232-13.5,1.512-1.944,1.512-2.052,2.7-3.564L736.344-93.2c-1.3,3.132-5.292,8.856-9.4,13.608-2.268-1.728-2.268-1.728-4.536-3.24l-10.584,11.88c8.316,5.616,13.392,9.612,18.9,15.12-.54.54-.54.54-2.592,2.376H717.444c-.972,0-1.62,0-2.916-.108.54-.756.54-.756.972-1.4.54-.864.54-.864,1.08-1.62.972-1.4,1.08-1.62,1.836-2.7l-12.96-8.964c-3.564,8.1-13.176,18.792-23.544,26.244,3.132,6.048,4.32,9.4,6.048,16.848a35.734,35.734,0,0,0,5.4-4.86v28.08A78.781,78.781,0,0,1,692.712,9.5h16.956a101.93,101.93,0,0,1-.432-12.1,52.94,52.94,0,0,1,5.616,12.96C729,7.56,736.992,4.644,746.82-1.08c9.936,5.616,19.872,8.856,32.724,10.8a85.2,85.2,0,0,1,6.912-16.74c-10.8-.648-17.172-1.836-25.38-4.536a66.5,66.5,0,0,0,7.452-7.884c4.752-5.616,4.752-5.616,5.508-6.588,1.512-2.052,1.512-2.052,2.592-3.348ZM709.236-20.52a61.663,61.663,0,0,1,6.372,10.152,64.379,64.379,0,0,0,11.016-6.8,53.269,53.269,0,0,0,6.048,6.048,81.353,81.353,0,0,1-23.436,6.7Zm44.28-4.32a63.154,63.154,0,0,1-7.344,6.048,30.219,30.219,0,0,1-7.02-6.048Zm-44.28-21.276c2.484-3.348,2.484-3.348,3.132-4.32l1.188,12.744c2.7-.432,3.024-.432,4.212-.54l11.664-.864c-4.536,5.832-11.664,11.016-20.2,14.58ZM704.7-93.636c-4.428,7.668-11.556,13.932-21.924,19.116a58.438,58.438,0,0,1,7.992,14.688A93.607,93.607,0,0,0,712.8-77.976c.972-1.188,3.672-4.32,5.076-5.94Z" transform="translate(350 16988)" fill="#fff"></path><path id="&#x30D1;&#x30B9;_33866" data-name="&#x30D1;&#x30B9; 33866" d="M71.28-47.088A91.189,91.189,0,0,1,48.924-44.6H46.656c.432-3.564.54-4.428.756-5.832a45.442,45.442,0,0,0,.756-5.292,160.8,160.8,0,0,0,17.712-.756c5.292-.432,5.292-.432,7.776-.648L74.3-75.06c-6.588,1.62-12.852,2.376-23.436,2.7C52.38-82.3,52.812-84.672,54-88.128l-19.98-1.62v1.512A95.176,95.176,0,0,1,32.4-72.792c-8.532-.864-14.8-2.052-19.548-3.672l-1.188,16.74c1.62.324,2.268.432,3.888.756a144.993,144.993,0,0,0,14.9,2.484c-.864,6.048-1.4,9.72-1.512,10.8-9.828-1.188-13.824-1.944-18.792-3.78l-1.3,17.28a26.5,26.5,0,0,1,4.644.648,118.541,118.541,0,0,0,13.932,2.16c-.216,3.24-.324,5.616-.324,7.992,0,8.856,2.376,15.228,7.56,20.088C40.824,4.32,49.572,7.236,60.7,7.236c10.584,0,19.548-2.592,26.244-7.668A26.867,26.867,0,0,0,97.956-21.816c0-8.856-2.7-16.092-8.964-24.192-7.128,2.376-9.828,2.916-17.82,3.456Zm-.108,5.832c5.292,5.832,7.992,11.664,7.992,17.172,0,8.64-7.02,13.824-18.792,13.824-5.076,0-9.072-1.188-11.664-3.564-2.268-2.052-3.348-4.968-3.348-9.288,0-1.728.108-3.78.216-5.184,3.024.108,3.78.108,4.86.108a142.818,142.818,0,0,0,16.956-1.08c2.268-.324,2.376-.324,3.456-.432Zm133.272,2.484a98,98,0,0,1,12.744.54V-54.216a103.219,103.219,0,0,1-12.744.432H166.86c1.944-4.1,2.592-5.292,5.292-10.8L154.224-66.96a84.263,84.263,0,0,1-5.832,13.176h-17.82a112.691,112.691,0,0,1-12.852-.432v15.984a97.831,97.831,0,0,1,12.852-.54h9.072a163.73,163.73,0,0,1-11.88,16.2c13.392,3.78,19.224,5.616,27.54,8.748-11.556,4.86-20.628,6.8-37.476,8.208,4.212,6.48,5.724,9.5,7.56,15.876,14.04-2.376,21.6-4.32,30.888-7.884a77.75,77.75,0,0,0,17.172-8.748,217.323,217.323,0,0,1,30.132,16.74L216.108-3.24a266.064,266.064,0,0,0-29.7-14.364c5.616-6.48,8.424-11.34,12.2-21.168Zm-23.652,0a42.243,42.243,0,0,1-10.044,14.9c-7.992-2.916-10.368-3.672-18.036-5.832,3.024-4.32,3.888-5.616,5.94-9.072ZM158-83.268H131.976c-6.372,0-9.5-.108-13.176-.432a75.917,75.917,0,0,1,.432,8.424v9.72a45.017,45.017,0,0,1-.54,8.424h16.524V-68.256h64.368v11.124H216a63.236,63.236,0,0,1-.54-8.316v-9.828a73.355,73.355,0,0,1,.432-8.424c-3.564.324-6.912.432-13.176.432h-27.54v-1.08a67.27,67.27,0,0,1,.432-7.344H157.572A50.373,50.373,0,0,1,158-84.24Zm117.936,27a98.9,98.9,0,0,1,.648-11.124H257.58a80.6,80.6,0,0,1,.648,11.772V-5.4c0,6.588,1.188,9.612,4.428,11.556,2.916,1.728,7.344,2.268,19.656,2.268,15.012,0,20.2-1.08,24.084-5.184,3.24-3.348,5.4-10.8,6.048-20.952.216-3.456.216-3.456.324-4.968,1.836,6.048,2.484,8.964,4.1,15.984l17.064-8.316c-5.832-20.3-10.044-31.1-17.928-46.44L299.916-54.54A166.511,166.511,0,0,1,311.58-26.784a66.992,66.992,0,0,1-15.444-5.508c-.108,11.772-.756,18.576-2.376,21.492-.864,1.836-3.456,2.484-9.4,2.484-6.8,0-8.424-.432-8.424-2.484ZM244.62-4.86c6.156-13.824,8.424-25.056,10.26-50.328l-15.984-4c-1.62,21.168-4.212,32.724-10.368,45.252Zm60.588-72.576c-11.664-6.156-20.628-9.612-38.664-15.012l-9.4,14.364c19.116,6.264,28.4,10.368,38.124,16.74Z" transform="translate(1185 16988)"></path><path id="&#x30D1;&#x30B9;_33869" data-name="&#x30D1;&#x30B9; 33869" d="M93.2,3.348C91.8.324,90.072-4.1,88.02-9.828L64.584-74.844a86.182,86.182,0,0,1-3.672-11.664H32.724a65.926,65.926,0,0,1-3.456,11.664L5.94-9.828C3.348-2.484,2.376.108.756,3.348H26.028a62.239,62.239,0,0,1,2.7-11.664l2.916-9.18h30.78l2.916,9.18A87.708,87.708,0,0,1,67.932,3.348ZM57.132-35.64h-20.3l10.044-32.4Zm48.924-50.868a100.867,100.867,0,0,1,.864,15.984v57.888a103.507,103.507,0,0,1-.864,15.984h23.76a104.4,104.4,0,0,1-.864-15.984V-70.524a100,100,0,0,1,.864-15.984ZM216.432-2.484V3.888h20.3a163.032,163.032,0,0,1-.648-17.82V-70.308c0-5.4.108-7.236.324-11.016-3.132.216-6.156.324-11.988.324H174.852c-10.26,0-13.716-.216-18.9-.972v19.656c4.536-.432,8.64-.54,18.576-.54h41.9v42.228h-43.2c-10.692,0-13.608-.108-18.792-.864V-1.836c4.86-.54,8.532-.648,18.468-.648Zm59.94-68.256c23.328,2.052,39.1,5.076,63.288,12.312l5.724-18.144c-26.568-6.7-38.448-8.964-62.316-11.448Zm-1.4,29.916a281.18,281.18,0,0,1,29.16,4.644c13.608,2.916,21.816,5.292,31.32,8.964l5.508-18.252c-22.572-6.588-41.9-10.584-59.4-12.42ZM266-10.26a336.91,336.91,0,0,1,35.208,5.832c16.74,3.78,27.54,7.02,39.96,12.1L347.22-11.34a347.187,347.187,0,0,0-74.3-16.092Zm175.608-2.16c1.512-9.72,3.24-21.384,4.212-28.62,1.4-10.584,1.4-10.584,2.808-13.284l-8.208-6.8a12.091,12.091,0,0,1-6.156,1.188H408.132a99.521,99.521,0,0,1-14.472-.648v16.416c3.564-.324,6.8-.432,14.04-.432h20.736c-1.512,14.148-2.052,17.712-4.644,32.184H397.116c-7.884,0-10.368-.108-14.472-.648V3.348c3.888-.324,7.452-.432,14.472-.432H447.66c5.508,0,10.692.108,14.256.432V-13.068a123.238,123.238,0,0,1-14.148.648ZM500.472-58.1c3.78-.324,8.64-.54,16.632-.54h37.044c8.748,0,11.556.108,17.712.54V-77.868a138.47,138.47,0,0,1-17.928.756H517.32c-8.748,0-11.772-.108-16.848-.756ZM489.564-4c4.32-.432,8.1-.54,17.712-.54H563.76c11.34,0,14.04.108,18.792.54v-20.2c-4.968.756-8.316.864-19.116.864H507.6c-10.044,0-11.556-.108-18.036-.864Zm190.08-36.72c9.612,0,10.584,0,16.848.54V-58.212c-4.86.648-7.56.756-17.172.756H619.164c-8.964,0-11.988-.108-16.632-.864v18.144a144.852,144.852,0,0,1,16.308-.54h22.14c-.864,17.28-9.4,26.892-29.16,32.724,6.48,6.156,8.748,9.288,12.636,17.064,14.9-6.048,23-12.2,28.944-21.924,4.86-8.1,6.912-15.228,7.776-27.864Zm-66.1-27.108c4.1-.432,7.02-.54,16.416-.54h38.448c11.016,0,12.744.108,16.956.54V-86.076c-4.752.756-7.236.864-17.28.864h-37.8c-9.4,0-11.88-.108-16.74-.864Zm170.964-4.644c-3.348,5.508-10.908,12.744-20.088,19.332-12.744,9.18-27.108,15.876-43.74,20.52a53.58,53.58,0,0,1,9.18,15.336c15.552-5.724,19.008-7.236,28.188-12.744V-7.452a99.069,99.069,0,0,1-.756,14.9H776.52a107.263,107.263,0,0,1-.648-14.9V-40.716a121.379,121.379,0,0,0,19.98-17.6,29.514,29.514,0,0,1,3.78-3.78Z" transform="translate(1028 17278)" fill="#fff"></path></g></svg>