<svg xmlns="http://www.w3.org/2000/svg" width="1123" height="275" viewBox="0 0 1123 275"><g id="&#x30B0;&#x30EB;&#x30FC;&#x30D7;_19621" data-name="&#x30B0;&#x30EB;&#x30FC;&#x30D7; 19621" transform="translate(-147.5 -14045.5)"><path id="&#x7DDA;_45" data-name="&#x7DDA; 45" d="M12.5,275h-25V0h25Z" transform="translate(160 14045.5)" fill="#533afc"></path><path id="&#x30D1;&#x30B9;_33882" data-name="&#x30D1;&#x30B9; 33882" d="M86.3,3.1C85,.3,83.4-3.8,81.5-9.1L59.8-69.3a79.8,79.8,0,0,1-3.4-10.8H30.3a61.043,61.043,0,0,1-3.2,10.8L5.5-9.1C3.1-2.3,2.2.1.7,3.1H24.1A57.629,57.629,0,0,1,26.6-7.7l2.7-8.5H57.8l2.7,8.5A81.211,81.211,0,0,1,62.9,3.1ZM52.9-33H34.1l9.3-30ZM98.2-80.1A93.4,93.4,0,0,1,99-65.3v53.6a95.839,95.839,0,0,1-.8,14.8h22a96.669,96.669,0,0,1-.8-14.8V-65.3a92.594,92.594,0,0,1,.8-14.8Zm62.1,32.8V-43a101.842,101.842,0,0,1,12-.6h12.6v9.2H172.1c-3.8,0-6.1-.1-8.5-.3.2,2.4.3,5.4.3,8.4v24c0,3.4-.2,7.5-.4,10.9h15.3V4.4h28.3V8.6h15.8c-.3-3-.5-6.6-.5-10.8V-25.8a83.262,83.262,0,0,1,.4-8.9,80.892,80.892,0,0,1-8.2.3H200.4v-9.2h15.4a91.1,91.1,0,0,1,11.9.6V-58.4a99.494,99.494,0,0,1-12,.6H200.4v-9.9a196.139,196.139,0,0,0,23-4.2,17.325,17.325,0,0,0,2-.4l-10-13.8c-3.9,1.8-6.1,2.4-14.1,3.9a247.362,247.362,0,0,1-39.8,4.1,42.146,42.146,0,0,1,5.1,13.4c8.1-.4,12.1-.6,18.3-1.3v8.2H172.2a100.022,100.022,0,0,1-11.9-.6v9.8A114.468,114.468,0,0,0,142-60l-8.6,11.5a126.556,126.556,0,0,1,19,13.1Zm18.6,26.5h28.3V-9.4H178.9ZM136-74.4a121.593,121.593,0,0,1,18.4,13.9l9.2-12a139.336,139.336,0,0,0-18.2-13Zm11.9,41.2c-5,14.8-9.7,24.9-14.3,30.5L146.9,8.4c3.1-6.1,4.7-9.5,5-10.1a198.973,198.973,0,0,0,8.4-22.9ZM295.3-20.6h18.6V-8.3c0,1.8-.8,2.2-4.4,2.2-2.8,0-6.7-.2-11.1-.6a49.672,49.672,0,0,1,4,14.4c3.9.2,7.5.3,10.9.3,12.1,0,15.9-2.9,15.9-12.2V-69.4a102.709,102.709,0,0,1,.5-12.8c-3.3.3-6.3.4-12.5.4H258.9c-5.7,0-8.2-.1-11.9-.4.3,3.8.5,7.8.5,13.7,0,42.7-1.6,54.1-9.2,66.8,5.5,3.3,8,5.4,13.6,11.4,5.4-9.2,8-17.7,9.4-30.3h19.1V-6.5a93.523,93.523,0,0,1-.6,12.7h16a100.751,100.751,0,0,1-.5-12.8Zm0-37.5v-9.4h18.6v9.4Zm-14.9,0H262.8v-9.4h17.6Zm14.9,13.9h18.6v9.6H295.3Zm-14.9,0v9.6H262.3c.2-4.4.2-5.5.3-9.6ZM394.6-65.6c.1-1.9.1-2.2.1-3.4.4-11.7.4-11.7.9-14.7H376.8a74.806,74.806,0,0,1,.7,12.3v5.8H361.7a103,103,0,0,1-13-.7v16.9a96.992,96.992,0,0,1,12.5-.7h15.4c-1.2,10.6-3.2,17-7.2,23.5-5.1,8.5-13.1,14.9-25.5,20.4,4.9,4.6,7.8,8.5,11.5,15.1,11-6.1,18.7-12.5,24.2-19.8,7.6-10.2,11.6-21.5,13.7-39.2h23c-.1,20-1.1,34-2.7,38-.9,2.3-2.8,3-8.1,3a91.753,91.753,0,0,1-13.4-1.3c2.2,5.4,3.2,9.8,4,16.9,6.4.5,9.2.6,12.8.6,6.6,0,11.2-.9,14.5-2.7,3.2-1.8,5.6-5.8,6.5-10.9,1.4-8.3,2.5-27.2,2.8-49.1a81.116,81.116,0,0,1,.5-10.5,130.367,130.367,0,0,1-14,.5Zm112.2,3.7a16.759,16.759,0,0,1,8.4,3.5C521-54,524-47.2,524-38.7c0,10.7-4.3,19.1-12,23.2-5.4,2.8-11.6,4.4-21,5.1A49.133,49.133,0,0,1,499.5,6c14-2.2,21.9-5.4,28.7-11.5,8.4-7.5,13.3-19.3,13.3-32.3,0-11.3-3.4-21-9.8-27.8-7.4-7.8-19.2-12.3-32.6-12.3-14.7,0-27.4,5.1-36.2,14.7a44.455,44.455,0,0,0-11.5,30.5c0,18.3,9.4,31.1,22.8,31.1,9.1,0,15.8-5.6,21.6-18.4C501.2-31.8,504.6-44.7,506.8-61.9Zm-17.3.2A129.654,129.654,0,0,1,482-31.2c-3,7.6-5.6,11.1-8.1,11.1-3.5,0-6.2-5.6-6.2-12.7a32.354,32.354,0,0,1,10.9-23.8A19.993,19.993,0,0,1,489.5-61.7ZM616.4-8.2h-5.5v-36a91.519,91.519,0,0,1,.5-11.9H596.2a96.346,96.346,0,0,1,.5,11.9v36c-1.7-.1-2.8-.2-4.2-.4V7a98.538,98.538,0,0,1,12.2-.6h31.4a111.189,111.189,0,0,1,12.5.6V-8.8a113.915,113.915,0,0,1-12.1.6h-5.4V-32.6h5.7a64.887,64.887,0,0,1,9.9.5V-47.5a63.3,63.3,0,0,1-9.9.5h-5.7V-67.3h4.3a108.192,108.192,0,0,1,12.6.6V-82.3a107.7,107.7,0,0,1-12.7.6H607.2a106.528,106.528,0,0,1-12.7-.6v15.6a110.083,110.083,0,0,1,12.7-.6h9.2ZM557.3-71.7c2.6-.2,4.8-.3,9.1-.3h15.2c4.5,0,6.3.1,9.1.3V-83.4a70.518,70.518,0,0,1-9.1.4H566.4a70.518,70.518,0,0,1-9.1-.4Zm-3,16.1a59.49,59.49,0,0,1,8.1-.4h22.4c4.9,0,5.9,0,7.9.3V-69a78.627,78.627,0,0,1-8.1.3H562.4a44.585,44.585,0,0,1-8.1-.5Zm3.3,14.1a47.3,47.3,0,0,1,6-.2h21.1a43.761,43.761,0,0,1,5.7.2V-52.8a41.346,41.346,0,0,1-5.7.2H563.6c-3,0-4.3-.1-6-.2Zm0,14.2a47.164,47.164,0,0,1,5.8-.2h21a46.458,46.458,0,0,1,6,.2V-38.6a41.411,41.411,0,0,1-5.8.2h-21a49.888,49.888,0,0,1-6-.2ZM570.7,9V4.9H577V7.6h13.4a62.925,62.925,0,0,1-.2-7.3V-17.8a54.8,54.8,0,0,1,.2-6.6,30.029,30.029,0,0,1-6.1.3H564.1a73.946,73.946,0,0,1-7.4-.3,58.576,58.576,0,0,1,.4,7.5V-.7c0,3.1-.2,6.5-.5,9.7Zm-.3-22.3H577v6.5h-6.6Zm128.5-.5c-2.6,5-5.1,8-10.1,12.4A56.965,56.965,0,0,1,700.9,9.7c9.1-8.6,13.6-17,16.7-31.3H735V-8.7c0,2-.8,2.5-4.2,2.5-1.7,0-5.2-.2-9.1-.6a60.773,60.773,0,0,1,3.6,15.1h4.4c8.8,0,13.5-.8,16.2-2.6,3-2.1,4.4-5.6,4.4-11.1V-69.9a112.985,112.985,0,0,1,.4-12.3,85.887,85.887,0,0,1-12,.5H717.3a106.28,106.28,0,0,1-12.5-.5c.4,4.3.6,9.2.6,18,0,14.9-.3,23-1.2,29.7a95.715,95.715,0,0,1-3.5,16.3c-.1-1.7-.1-2.7-.1-4.7V-71c0-3.8.1-6.3.3-8.7-2.7.2-4.6.3-8.4.3H671.8c-5,0-6.9-.1-9.4-.3.3,3.4.4,5.9.4,10.9v48.7a112.444,112.444,0,0,1-.6,13.2h15.2v-6.9ZM735-44.9v9.8H719.6c.4-4.3.4-5.6.6-9.8Zm0-13.4H720.5v-9.2H735Zm-57.8-7.2h9.3v12.4h-9.3Zm0,25.6h9.3v12.5h-9.3Zm91-14.9c4.3-.9,4.8-.9,14.1-1.9,18.7-1.5,22.2-1.8,24.4-2l4.7-.5c-4.8,3.3-7.2,5.3-9.8,8.5a34.234,34.234,0,0,0-8.5,22.6c0,12.7,6.1,21.9,17.9,27.4,6.4,2.9,13.9,4.6,25.3,5.6a25.574,25.574,0,0,1,3.7.5l2.3-19c-1.5.1-2.2.1-3,.1-6.3,0-15.1-1.6-19.1-3.6-5.7-2.7-8.4-6.6-8.4-12.4,0-8.2,5.9-16.6,15.9-22.7,6.9-4.3,15.9-7,22.9-7a15.207,15.207,0,0,1,2.8.2l-.9-18.1a8.432,8.432,0,0,1-2.3.4c-.5,0-1.1.1-4.5.2l-4.2.2-10.3.4c-19,.7-28.7,1.2-43.1,2.1-10.9.7-14.5.9-17.1.9-.8,0-2.1,0-3.8-.1Zm60.3,8.7a62.179,62.179,0,0,1,9.7,14.8l9.6-4.4a64.465,64.465,0,0,0-9.7-14.5Zm14-5.9c3.4,3.9,5.9,7.7,9.5,14.4l9.3-4.3A69.113,69.113,0,0,0,851.5-56ZM35.8,65.9,21.9,68A100.482,100.482,0,0,1,7.2,69.6L9.9,86.7c4.1-1.1,6.4-1.5,14.9-2.8l13.8-2.2,2.3,12.6-19.1,3A117.083,117.083,0,0,1,7.5,98.9l2.7,17a106.885,106.885,0,0,1,13.7-2.8L43.7,110l2.6,14.4c1.4,7.6,1.8,10.5,1.8,13.9l19-3.1c-1.2-3.8-1.4-4.8-3-13.4l-2.8-14.5,18.9-2.9c8.4-1.2,8.4-1.2,14.1-1.8l-3-16.9a93.187,93.187,0,0,1-14.4,3.1L58.4,91.6,56,79l15.6-2.4C82.4,75,82.4,75,85.8,74.7L83,57.9c-4.4,1.3-7.2,1.8-14.3,2.9L53.1,63.2,52,57.7a81.507,81.507,0,0,1-1.4-11.1L32.2,49.4c1,2.9,1.5,5,2.6,11.3ZM133.1,79l-6,1a91.031,91.031,0,0,1-10.6,1.1l2.7,15.3a76.341,76.341,0,0,1,9.9-2.3l6.5-1.1,5.4,31.2a99.366,99.366,0,0,1,1.8,13.9l17.4-3c-1.4-4.2-1.9-6.4-3.3-13.9L151,90.4l22-3.8a44.5,44.5,0,0,1-15,15.8,43.928,43.928,0,0,1,12.7,9.6c10.2-8.8,15.8-16.8,20-28.4,1.3-3.8,1.5-4.1,2.5-5.4l-9.4-8.6c-1.5,1-2.6,1.4-5.9,1.9l-29.5,4.9-1.2-6a45.751,45.751,0,0,1-.9-8.6l-16.4,2.4a45.565,45.565,0,0,1,2.1,8.5Zm93.8-29a100.12,100.12,0,0,1,.6,13.2V83c0,7.5-.1,11-.6,14.6h19.4a130.91,130.91,0,0,1-.5-14.3V63.4a120.432,120.432,0,0,1,.5-13.4Zm46.5,0a96.867,96.867,0,0,1,.6,13.7V74.1a169.811,169.811,0,0,1-1.1,21.2c-1.6,8.8-6.1,14.7-14.9,19.4-5.1,2.7-10.2,4.3-19.8,6.1,5.4,6.2,7.9,10.4,10.2,17.1,9.8-2.8,15.1-4.9,20.8-8.2,11-6.3,17.8-14.5,20.8-25.4,1.5-5.8,2.3-15.4,2.3-29.1V63.5c0-6.4.1-7.9.5-13.5Zm127.9,1.4c-2.3,1-3,1.1-8.6,1.1H340.3c-8.2,0-11.6-.2-16.2-.9V69.1a133.4,133.4,0,0,1,15.9-.7h47.7a37.854,37.854,0,0,1-16.8,17,12.948,12.948,0,0,0-2.3,1.2c0-1,.1-3.4.1-3.5a53.646,53.646,0,0,1,.5-8.6H350.4a27.166,27.166,0,0,1,.6,6.9c0,13.3-1.7,20.4-6.5,26.6-4.7,6-11.9,10.4-22.9,13.9,5.8,5.9,7.4,8.3,11.4,16.2a91.105,91.105,0,0,0,14.1-7.7,49.81,49.81,0,0,0,15.6-16.9c3.5-6.6,5.2-13.9,5.8-24.3a52.5,52.5,0,0,1,11.2,10.9c12.9-8,21.5-18.1,27.9-33.1,1.3-3.1,1.6-3.6,3.1-5.2ZM504.9,70.8a35,35,0,0,1-6.9,7.3,100.45,100.45,0,0,1-18.2,12.3V78.6a51.363,51.363,0,0,1-9.4.5V62.4a49.971,49.971,0,0,1,7.3.3c-1.9.9-2.4,1.1-4.6,2a48.271,48.271,0,0,1,7.8,13.7c10.8-5.2,19.9-11.6,29.9-20.9a28.681,28.681,0,0,1,3-2.6l-13-10.2C497.9,49.4,487,58,478.6,62.2v-15a99.38,99.38,0,0,1-11.6.6H436.1a102.016,102.016,0,0,1-11.4-.6V62.9a42.89,42.89,0,0,1,8.5-.5V79.1h-.9a51.856,51.856,0,0,1-8.9-.5V94.1a53.165,53.165,0,0,1,9-.5h.5c-.8,16.4-3.3,24-11.3,34a50.566,50.566,0,0,1,11.8,12.2c5.3-7.1,8-12.1,10.3-19.1,2.5-7.7,3.9-16.3,4.3-27.1h7.3v32.6a83.253,83.253,0,0,1-.6,12.6l16.3-.1a81.688,81.688,0,0,1-.6-12.6V93.6h2.8a57.1,57.1,0,0,1,8.4,14,126.533,126.533,0,0,0,31-22.3,47.348,47.348,0,0,1,4.1-3.8Zm-56.7-8.4h7.1V79.1h-7.1Zm59.4,35.9c-2,3.1-3.8,5.1-7.8,8.9-8.7,8-18.9,14.7-28.6,18.6a53.836,53.836,0,0,1,9.6,13.5,128.887,128.887,0,0,0,34.2-26,52.9,52.9,0,0,1,4.1-4ZM602.5,76c-.9,5.6-2.9,11.3-6.7,18.7A154.989,154.989,0,0,1,593,71.4h14.9A125.64,125.64,0,0,1,621,72V56.9a60.234,60.234,0,0,1-9.9.5l5.9-4.9a73,73,0,0,0-12.7-9.3l-9.6,8.9a60.343,60.343,0,0,1,8,5.3H592.6V52.7a50.825,50.825,0,0,1,.5-7.2H576.8c.3,2.2.4,3.6.6,11.9H549.1c-5.3,0-9.5-.2-13.6-.5a129.058,129.058,0,0,1,.6,13.2c0,18.3-1,31.7-2.9,40.6a46.39,46.39,0,0,1-6.6,16.4c4.8,3.9,7.2,6.4,12,12.4,4.6-6.7,7.3-13.7,9.3-23.5a64.448,64.448,0,0,1,2.3,11c1.6.1,2.6.1,3.6.1a49.5,49.5,0,0,0,10.4-1.1,59.288,59.288,0,0,1,7.4,12,92.148,92.148,0,0,0,20-14.9c6.9,9.9,13.1,14.8,18.8,14.8,6.1,0,10-6.5,12.6-21.5a53.6,53.6,0,0,1-11.5-9c-1,7.2-1.5,9.7-2.8,12.9-2.6-2.2-4.2-4.4-6.9-9.1a123.792,123.792,0,0,0,13.4-25,46.882,46.882,0,0,1,1.9-4.8ZM551,81.8c.1-3.3.1-4.9.1-10.4H578c1.1,17.6,2.8,27,6.8,38.4a73.477,73.477,0,0,1-13.7,10.8c1.7-3.7,2.7-10.7,3.1-20.8.6-15.5.6-15.5.8-18.3a55.062,55.062,0,0,1-6.6.3Zm8.8,13.6c-.3,9.9-.6,13.7-1.5,15.7-.7,1.6-1.5,2-3.9,2a34.342,34.342,0,0,1-5.9-.6c.8-5.3,1.4-10.3,1.9-17.1Zm79.3-24.2h1.5c1.4,0,2.1,0,3.5.1,4.3.1,4.3.1,8.6.1h3.2c-.4.7-.4.7-1.9,3.2-1.5,2.4-5.5,8.2-7.7,10.9a68.661,68.661,0,0,1-10.6,10.4l12.7,12.6A63.522,63.522,0,0,1,658,98.4c7-6.1,13.9-9.6,19-9.6a4.131,4.131,0,0,1,4,2.5c-4,1.8-5,2.2-7.4,3.4-6.2,3.1-10.7,6.4-14.4,10.7-3.4,4.1-4.9,7.9-4.9,12.6a16.078,16.078,0,0,0,7.9,14.2c5.4,3.2,12.5,4.6,23.8,4.6a197.356,197.356,0,0,0,24.1-1.5,64.593,64.593,0,0,1,8.9-.9l-1.1-18c-8.5,3.2-20,5-32,5-9.7,0-13.4-1.5-13.4-5.3a6.9,6.9,0,0,1,2.6-5.1c1.8-1.6,2.4-2,7-4.2l.9-.4c-.1,6-.2,9.1-.5,10.6l16.3-.5a62.049,62.049,0,0,1-.4-8.6c0-4.4,0-4.5-.1-7.2,9.6-3.3,20.3-6.1,25.5-6.8l-6.1-15.8c-1.6.9-2.3,1.1-8,3-3.2,1-5.9,1.9-6.2,2-5.3,1.8-5.3,1.8-7,2.4-2-6.5-7-9.7-15.3-9.7a29.508,29.508,0,0,0-12.7,3,54.175,54.175,0,0,0,4.8-7.4c10.2-.3,22.7-1,29.8-1.7q4.35-.45,9-.9l-.6-15.9c-5.3,1.4-15.5,2.7-25.3,3.2-5.1.3-5.1.3-6.1.4.1-.2.7-1.8,2-4.7a29.066,29.066,0,0,1,2.1-4.7l-18.3-1.4a36.189,36.189,0,0,1-3.1,11.1H660c-10.4,0-16.4-.4-20.7-1.4Zm174,37a33.546,33.546,0,0,1-6.7.4h-11c.9-.9,1.1-1.2,2.2-2.4h2.7c10.7,0,12.4-.3,14.5-2.6a82.976,82.976,0,0,1,8.6,9.5l8.8-7.8c-3-3-3.9-3.8-7.5-6.9h6.9a52.35,52.35,0,0,1-.4-7.7V88.4a43.121,43.121,0,0,1,.3-6.8c-2.3.2-4.7.3-7.8.3V66.7a69.084,69.084,0,0,1,.3-7.3,72.528,72.528,0,0,1-9.1.4H803.1c.6-1.4.7-1.4,1.1-2.4h15a93.263,93.263,0,0,1,12,.5V47.3a87.686,87.686,0,0,1-12,.5H777.8a81.933,81.933,0,0,1-11.6-.5v1.9l-13.9-5.4A74.531,74.531,0,0,1,747,63a67.755,67.755,0,0,1-11,18.6c2.5,5.2,3.8,9.3,5.8,17.6a34.959,34.959,0,0,0,4.2-6.4c-.1,2.7-.1,4.5-.1,8.5v26a109.8,109.8,0,0,1-.6,11.6h15.1c-.4-4.9-.5-7.2-.5-11.5V68.8c3.1-7.6,3.8-9.5,4.9-13.6a32,32,0,0,1,1.4-4.9v7.6a91.087,91.087,0,0,1,11.6-.5H789c-.4,1-.5,1.1-1.1,2.4h-9.2a77.178,77.178,0,0,1-9.3-.4,51.712,51.712,0,0,1,.4,7.6V81.9a69.446,69.446,0,0,1-7.5-.3,55.089,55.089,0,0,1,.3,6.9v2.4l-.1,3.9v1.7c0,.5-.1,1.1-.2,2.2h7a38.187,38.187,0,0,1-7.1,5l7.7,7.4a44.344,44.344,0,0,0,10.9-10.2c.1,2.9.6,3.6,2.9,4.5-5.1,5.1-12.1,8.5-22.5,10.8a42.649,42.649,0,0,1,5.9,9.2c6.1-1.7,8.2-2.5,12.2-4.6a44.011,44.011,0,0,0,5.2,4.3c-6.5,1.4-13,2-23.4,2.1a42.3,42.3,0,0,1,4.3,11.5c14.7-1.2,22.5-2.8,31.7-6.5,9.6,4,18,5.7,31.9,6.4a53.08,53.08,0,0,1,4.7-13.7c-6.8.2-7.4.2-9.2.2a88.347,88.347,0,0,1-13.2-.9A36.778,36.778,0,0,0,816,120a66.985,66.985,0,0,1,4.9-5.1Zm-9.2,8.4a40.12,40.12,0,0,1-6.3,4,25.5,25.5,0,0,1-7.3-4ZM783.5,82.7V80.3H810v2.4Zm34.8,10.9-3.5,2.3a39.19,39.19,0,0,1-8.8-2.5c-.5,3.9-1,4.2-7.6,4.2-5.1,0-6.2-.3-6.2-1.6v-.9a5.629,5.629,0,0,1,.2-1.6H780.5c.1.3.1.9.3,1.8v.8l-5.5-2.7V91.3H793a35.377,35.377,0,0,1,4.7,5.6l7.9-4.4-1-1.2h13.7ZM783.5,73H810v2.5H783.5ZM810,68.2H783.5V65.8H810Zm85.2-9.1H884.4a89.835,89.835,0,0,1-12.5-.5V74.1a101.239,101.239,0,0,1,12.9-.6H922a107,107,0,0,1,12.6.6V58.5a99.213,99.213,0,0,1-12.3.6H910.6V53.2c0-4.1.1-6,.6-8H894.6a40.845,40.845,0,0,1,.6,7.9Zm-13.3,62.4a95.244,95.244,0,0,1-12.2-.6v15.7a106.078,106.078,0,0,1,12.8-.6h41.2a112.905,112.905,0,0,1,13.1.6V120.9a98.1,98.1,0,0,1-12.3.6h-6.8a375.785,375.785,0,0,0,11.5-41.4l-16.5-4.6a239.094,239.094,0,0,1-10.5,46Zm-30.5,6.2a86.635,86.635,0,0,1-.7,11.5h16.5a89.547,89.547,0,0,1-.6-11.5V70.1A182.027,182.027,0,0,0,875,47.4l-15.9-3.6a64.789,64.789,0,0,1-3.5,12.9c-3.7,10-8.5,17.8-14.3,23.9A100.671,100.671,0,0,1,846.4,99c1.7-2,1.7-2,5.1-6.5-.1,5-.1,8.5-.1,10Zm48.3-13.8a231.837,231.837,0,0,0-10.9-37.7l-14.6,5.1a212.55,212.55,0,0,1,10.4,37.9Zm60-64.8c-.2,3-.3,3.7-1.5,10.7a216.3,216.3,0,0,0-3.8,38.5c0,9.5.7,18.2,2.6,31.6a40.169,40.169,0,0,1,.5,5.3l17.2-.8a27.994,27.994,0,0,1-.3-4.9,98.674,98.674,0,0,1,3.9-28l-7.7-2.6c.7-18.2,3.7-36.9,7.6-48.3Zm26.2,26c1.4.1,2.1.1,2.9.2a165,165,0,0,0,17.2.8c6.9,0,14.2-.4,21.1-1.1,5.5-.6,6.5-.7,7.4-.7l-.7-17.1c-6.7,1.7-16.5,2.5-29.8,2.5a83.528,83.528,0,0,1-17.8-1.5Zm5.9,13.3c-2.7,3.9-3.3,4.9-4.7,7.2a31.339,31.339,0,0,0-4.8,15.6,18.524,18.524,0,0,0,9.2,15.9c5.2,2.9,11.4,4.2,20.7,4.2a122.455,122.455,0,0,0,17.3-1.3c5.9-.9,5.9-.9,8.5-1.2l-1-17.7a74.319,74.319,0,0,1-24.9,4.1c-8.5,0-13-2.5-13-7.1,0-3.6,2.1-7.9,6.7-13.8Z" transform="translate(232.5 14156)"></path></g></svg>