<svg xmlns="http://www.w3.org/2000/svg" width="1762.737" height="217" viewBox="0 0 1762.737 217"><g id="&#x30B0;&#x30EB;&#x30FC;&#x30D7;_19565" data-name="&#x30B0;&#x30EB;&#x30FC;&#x30D7; 19565" transform="translate(-65.263 -343)"><path id="&#x30D1;&#x30B9;_33810" data-name="&#x30D1;&#x30B9; 33810" d="M17.574-54.984a46.172,46.172,0,0,1,5.916-.609c5.568-.348,5.568-.348,6.786-.435,5.829-.348,5.829-.348,6.7-.435,2.175-.087,2.7-.174,7.395-.7-9.831,9.048-14.877,13.05-21.924,17.574-7.569.87-13.311,1.305-16.095,1.305-.435,0-1.131,0-2.088-.087L5.568-23.49c3.741-.957,7.395-1.479,17.922-2.7,8.439-.957,11.745-1.392,14.268-1.914-6,4.089-9.048,9.222-9.048,15.486C28.71-6,32.364-.522,38.541,2.523c5.22,2.436,11.31,3.567,20.1,3.567,1.392,0,2.871,0,4.35-.087,4.089-.174,4.089-.174,5.133-.174a16.081,16.081,0,0,1,2,.087l-.7-15.4A48.585,48.585,0,0,1,58.551-8.439c-9.135,0-13.833-2.262-13.833-6.612,0-3.915,3.828-8,9.918-10.7,6.438-2.784,13.137-3.828,24.186-3.828,1.566,0,1.827,0,3.567.087L81.78-44.109c-1.827.435-4,.609-15.225,1.305-8.091.609-17.487,1.392-22.185,2A162.634,162.634,0,0,0,61.161-53.94c7.047-6.09,7.047-6.09,9.048-7.482L62.64-71.427c-2.349.87-3.915,1.131-8.439,1.479C48.111-69.426,34.278-68.9,26.8-68.9A76.781,76.781,0,0,1,16.7-69.339Zm77.865,49.5c1.044-1.74,2.436-3.48,8.613-10.875v9.135a88.531,88.531,0,0,1-.783,13.311L119.016,6c-.435-3.393-.7-12.267-.7-24.621,0-2.523,0-5.046.087-9.135a82.226,82.226,0,0,1,15.051-13.4c3.132-2.262,6.177-3.567,8.265-3.567a2.267,2.267,0,0,1,2.523,2.436,53.826,53.826,0,0,1-1.566,8.961c-2.958,13.05-3.828,18.27-3.828,23.142,0,8.526,5.307,14.007,13.659,14.007S166.518-.348,173.217-11.31a54.219,54.219,0,0,1-7.308-14.007,51.806,51.806,0,0,1-5.22,9.309c-1.653,2.436-3.48,3.915-4.785,3.915s-2.088-.957-2.088-2.523c0-2.175,1.044-7.656,3.741-18.618,1.74-7.308,2.262-10.179,2.262-13.137,0-8.178-5.568-13.572-14.007-13.572-7.656,0-16.617,4.872-27.492,14.964a12.867,12.867,0,0,0,.087-1.914l.087-1.218a31.438,31.438,0,0,1,5.481-5.916l-4.785-4.524a123.972,123.972,0,0,1,1.044-12.876l-15.4-.348a37.654,37.654,0,0,1,.348,5.742c0,2-.087,4.176-.174,6a22.984,22.984,0,0,1-.087,2.784c-3.654.261-7.308.435-9.483.435-1.479,0-2.523-.087-4.524-.261l.7,13.746c3.219-.522,3.219-.522,12.963-1.131-.087,5.655-.174,8.178-.261,9.57-.435.522-3.654,3.654-9.483,9.57a66.337,66.337,0,0,1-6.09,5.307Zm86.478-45.675h1.305c1.218,0,1.827,0,3.045.087,3.741.087,3.741.087,7.482.087h2.784c-.348.609-.348.609-1.653,2.784-1.305,2.088-4.785,7.134-6.7,9.483a59.735,59.735,0,0,1-9.222,9.048L190.008-18.7a55.267,55.267,0,0,1,8.352-8.787c6.09-5.307,12.093-8.352,16.53-8.352a3.594,3.594,0,0,1,3.48,2.175c-3.48,1.566-4.35,1.914-6.438,2.958A38.322,38.322,0,0,0,199.4-21.4c-2.958,3.567-4.263,6.873-4.263,10.962a13.987,13.987,0,0,0,6.873,12.354c4.7,2.784,10.875,4,20.706,4a171.7,171.7,0,0,0,20.967-1.305,56.2,56.2,0,0,1,7.743-.783l-.957-15.66c-7.395,2.784-17.4,4.35-27.84,4.35-8.439,0-11.658-1.305-11.658-4.611a6,6,0,0,1,2.262-4.437c1.566-1.392,2.088-1.74,6.09-3.654l.783-.348a71.415,71.415,0,0,1-.435,9.222l14.181-.435a53.98,53.98,0,0,1-.348-7.482c0-3.828,0-3.915-.087-6.264,8.352-2.871,17.661-5.307,22.185-5.916L250.3-45.153c-1.392.783-2,.957-6.96,2.61-2.784.87-5.133,1.653-5.394,1.74-4.611,1.566-4.611,1.566-6.09,2.088-1.74-5.655-6.09-8.439-13.311-8.439a25.672,25.672,0,0,0-11.049,2.61,47.133,47.133,0,0,0,4.176-6.438c8.874-.261,19.749-.87,25.926-1.479q3.784-.392,7.83-.783L244.9-67.077c-4.611,1.218-13.485,2.349-22.011,2.784-4.437.261-4.437.261-5.307.348.087-.174.609-1.566,1.74-4.089a25.287,25.287,0,0,1,1.827-4.089l-15.921-1.218a31.484,31.484,0,0,1-2.7,9.657H200.1c-9.048,0-14.268-.348-18.009-1.218ZM297.279-35.061v7.569H286.143a93.1,93.1,0,0,1-10.962-.522v13.137a87.16,87.16,0,0,1,10.962-.522h11.136v8.7H278.748a109.7,109.7,0,0,1-12.354-.522V6.09A105.92,105.92,0,0,1,278.4,5.568h51.852a113.64,113.64,0,0,1,12.441.522V-7.221a117.956,117.956,0,0,1-12.7.522H311.112v-8.7H323.2a90.321,90.321,0,0,1,11.136.522V-28.014a86.828,86.828,0,0,1-11.049.522h-12.18v-7.569h10.44a86.128,86.128,0,0,1,10.527.522V-40.02a70.641,70.641,0,0,0,8.265,3.741A65.391,65.391,0,0,1,346.7-50.025a69.1,69.1,0,0,1-20.358-9.483,54.394,54.394,0,0,1-14.964-13.746H296.931c-3.654,5.481-8,9.657-14.616,14.181a66.714,66.714,0,0,1-19.836,9.657,60.043,60.043,0,0,1,6.786,12.876,81.387,81.387,0,0,0,7.743-3.567v5.568a86.212,86.212,0,0,1,10.962-.522ZM288.492-46.98c7.221-4.959,11.571-8.874,15.921-14.529,4.959,6,8.526,9.222,16.182,14.529Zm65.685-.522a51.633,51.633,0,0,1,7.482-1.131l30.1-2.7c-4.176,2.871-6.264,4.611-8.526,7.395a29.783,29.783,0,0,0-7.395,19.662c0,11.049,5.307,19.053,15.573,23.838,5.568,2.523,12.093,3.915,22.011,4.872a26.349,26.349,0,0,1,3.219.435l2-16.617a15.026,15.026,0,0,1-2.61.174c-5.655,0-13.05-1.392-16.617-3.132-4.959-2.349-7.308-5.742-7.308-10.7,0-7.134,5.133-14.529,13.833-19.836,6-3.741,13.833-6.09,19.923-6.09a13.23,13.23,0,0,1,2.436.174L427.518-66.9c-1.566.348-2.349.435-9.57.7-26.535.957-32.886,1.305-46.458,2.175-9.483.609-12.615.783-14.877.783-.7,0-1.827,0-3.306-.087Zm117.45-22.62a17.274,17.274,0,0,1-4.176.348h-7.395c.609-1.479.783-1.914,1.3-2.958l-13.4-2.088a45.72,45.72,0,0,1-4,11.745,39.463,39.463,0,0,1-7.569,11.136,44.066,44.066,0,0,1,4.7,3.741c.087,2.175.087,3.306.087,6.873,0,24.012-.957,31.581-4.7,38.8,3.741,2.871,5.742,5.046,9.309,10.005,3.219-6.525,4.35-10.875,5.307-20.1h15.486v6.438c0,1.479-.7,1.74-4.089,1.74-1.392,0-3.567-.174-6.525-.435a38.536,38.536,0,0,1,2.871,12.006H462.4c6.7,0,9.309-.435,11.31-1.827,2.262-1.566,3.132-3.741,3.132-7.917V-23.142a52.614,52.614,0,0,1,9.744,4.7,63.99,63.99,0,0,1-7.917-.348V-6a52.714,52.714,0,0,1,8.352-.435h6.264v4.959a56.5,56.5,0,0,1-.522,9.4h14.007a55.277,55.277,0,0,1-.522-9.4V-6.438h4.524A51.941,51.941,0,0,1,519.216-6V-18.792a72.722,72.722,0,0,1-8.439.348h-4.524v-5.133h4.263a53.766,53.766,0,0,1,7.221.348V-35.757a36.366,36.366,0,0,1-7.221.435h-4.263c0-2.436,0-3.741.087-5.829H493.377a26.442,26.442,0,0,1,.435,5.829h-2.871q.261-2.088.522-3.915l-4.872-1.044a27.744,27.744,0,0,0,9.483-10.962,55.27,55.27,0,0,1,1.566,8.265c3.132.174,4.35.174,5.568.174,5.133,0,7.656-.522,9.483-1.827,2.523-1.827,3.741-5.655,4.35-13.833.783-11.571.783-11.571,1.044-13.572a59.891,59.891,0,0,1-7.482.348H487.548a74.5,74.5,0,0,1-9.57-.435V-59.6a53.554,53.554,0,0,1,7.308-.348h.957a14.424,14.424,0,0,1-3.045,6c-1.74,2.088-2.7,2.784-6.351,4.611,0-2.349.087-3.306.174-4.785-1.392.174-2.784.174-5.481.261,1.131-2.088,2.7-5.046,3.654-7.134a32.916,32.916,0,0,1,1.653-3.132Zm5.22,21.054a33.911,33.911,0,0,1,6.351,8l-2.7-.609v.957a59.6,59.6,0,0,1-.957,8.091,43.426,43.426,0,0,1-2.7,8.265V-49.068Zm27.492-10.875a14.215,14.215,0,0,1-.957,5.046c-.348.7-1.131.957-2.7.957-.783,0-2-.087-3.393-.174a48.193,48.193,0,0,0,1.653-5.829Zm-50.982,6.09c.87-1.74,1.3-2.436,2.262-4.611h5.655a47.464,47.464,0,0,1-2.088,4.611ZM451.7-23.142l.087-4.872h3.48v4.872Zm14.877,0h-3.306v-4.872h3.306Zm0-14.964h-3.306v-4.785h3.306Zm-11.31-4.785v4.785h-3.306v-4.785Zm31.755,24.447c.87-2.871,1.131-3.915,1.479-5.133h4.785v5.133Zm109.011-7.569a89.1,89.1,0,0,1,10.353.522V-39.063a53.741,53.741,0,0,1-6.09.435V-56.376a44.989,44.989,0,0,1,.348-6.612,66.308,66.308,0,0,1-8.439.348H579.072v-3.48a35.67,35.67,0,0,1,.522-7.569H565.239a43.688,43.688,0,0,1,.522,7.917v3.132h-4.437a84.874,84.874,0,0,1-9.918-.435v13.137c2.7-.261,5.829-.435,9.918-.435h4.524c-.261,9.4-.261,9.4-.435,11.832h-7.047c-4.35,0-7.482-.174-10.44-.435v13.485a87.125,87.125,0,0,1,10.527-.522h5.568a29.536,29.536,0,0,1-8.178,14.094c-3.567,3.567-7.308,5.829-13.572,8.352A48.265,48.265,0,0,1,550.362,8.7c12.7-6.7,19.488-13.746,24.1-24.708a46.66,46.66,0,0,0,9.483,12.789c4.785,4.7,9.135,7.656,16.617,11.31A70.122,70.122,0,0,1,607.086-6c-11.745-4.089-19.488-10.266-25.056-20.01Zm-17.4-12.528c.261-4.611.348-7.134.348-11.832h8.352v11.832ZM526.263-64.206a88.855,88.855,0,0,1,15.921,12.18l8.352-10.7A98.381,98.381,0,0,0,534.615-73.95Zm-2.349,22.272a111.177,111.177,0,0,1,16.269,11.658l7.482-11.049a101.328,101.328,0,0,0-16.182-10.614Zm11.919,13.4c-3.045,10.092-5.22,15.4-8.7,21.663A26.677,26.677,0,0,1,523.827-2l11.4,10c4.611-8.178,8.091-17.139,11.4-28.971Zm78.213-19.488c6.7-.957,20.88-1.74,38.889-2.262a14.16,14.16,0,0,1,.087,2.088v2.7a19.648,19.648,0,0,0-6.786-.957c-12.006,0-20.184,6.786-20.184,16.7,0,9.309,7.134,15.921,17.226,15.921,5.046,0,8-1.044,11.658-4.089a14.413,14.413,0,0,1-6.438,6.873c-4.176,2.61-9.135,4-17.922,5.307,3.915,4.35,5.829,7.569,8.265,13.746,8.265-2.436,13.224-4.437,17.487-7.047,9.309-5.829,14.355-14.355,14.355-24.1a27.67,27.67,0,0,0-3.48-14.529V-50.547c3.48-.087,4.089-.087,8.7-.087,10.005,0,11.745.087,15.66.435l-.087-14.268c-3.48.348-9.918.522-24.36.609a58.886,58.886,0,0,1,.435-8.874h-15.4c.435,2.523.522,3.654.609,9.222-8.091.261-31.494.87-33.843.87-2.175,0-3.132-.087-5.307-.261ZM647.28-35.5c3.48,0,5.742,1.827,5.742,4.524,0,2.958-2.871,5.22-6.612,5.22-3.306,0-5.742-2-5.742-4.7C640.668-33.408,643.452-35.5,647.28-35.5ZM712.269-54.81c1.74-.174,3.393-.348,5.742-.435,12.267-.609,15.747-.783,20.358-1.305-10.788,10.7-29.145,24.969-37.149,28.71l8.091,13.224a64.694,64.694,0,0,1,8.352-6.525,50.03,50.03,0,0,1,26.8-8c9.657,0,15.573,3.741,15.573,9.831,0,4.437-2.175,7.4-6.873,9.483a20.466,20.466,0,0,0-4-6.873,20.406,20.406,0,0,0-15.573-6.7c-10.092,0-17.313,5.829-17.313,13.92C716.271.174,725.232,6,739.935,6c8.7,0,17.052-2,23.055-5.481C770.907-4.176,775-11.136,775-19.923c0-6.264-2.175-11.31-6.351-15.051-4.611-4-10.44-5.916-18.618-5.916a41.623,41.623,0,0,0-11.919,1.566c5.829-4.263,7.4-5.568,12.006-9.483C761.859-58.9,761.859-58.9,764.121-60.2l-7.134-10.527c-1.653.7-2.784.957-6.612,1.218-8.787.7-18.444,1.044-26.187,1.044a97.362,97.362,0,0,1-12.528-.609ZM740.2-5.916a13.2,13.2,0,0,1-2.871.261c-4.7,0-7.482-1.479-7.482-3.828,0-1.74,1.392-2.871,3.393-2.871C736.629-12.354,739.065-10.092,740.2-5.916Zm95.352-47.937a14.581,14.581,0,0,1,7.308,3.045c5.046,3.828,7.656,9.744,7.656,17.139,0,9.309-3.741,16.617-10.44,20.184-4.7,2.436-10.092,3.828-18.27,4.437A42.746,42.746,0,0,1,829.2,5.22c12.18-1.914,19.053-4.7,24.969-10,7.308-6.525,11.571-16.791,11.571-28.1,0-9.831-2.958-18.27-8.526-24.186-6.438-6.786-16.7-10.7-28.362-10.7-12.789,0-23.838,4.437-31.494,12.789A38.676,38.676,0,0,0,787.35-28.449c0,15.921,8.178,27.057,19.836,27.057,7.917,0,13.746-4.872,18.792-16.008C830.676-27.666,833.634-38.889,835.548-53.853Zm-15.051.174a112.8,112.8,0,0,1-6.525,26.535c-2.61,6.612-4.872,9.657-7.047,9.657-3.045,0-5.394-4.872-5.394-11.049a28.148,28.148,0,0,1,9.483-20.706A17.394,17.394,0,0,1,820.5-53.679Zm109.1,4.524c4.872,6.786,10.005,20.619,11.832,31.668L955.7-24.273c-2.871-11.919-7.743-23.229-13.311-30.885ZM874.7-37.584a114.671,114.671,0,0,1,13.572-2.523C884.7-26.1,877.4-8.874,871.914-1.566L886.269,6c.522-1.3.7-1.566,1.392-3.219a206.285,206.285,0,0,0,15.4-44.022,31.588,31.588,0,0,1,3.48-.174c3.045,0,4.263.348,5.22,1.479,1.131,1.218,1.653,3.306,1.653,6.96,0,6.7-1.044,15.486-2.349,19.314-.957,2.784-2.088,3.915-3.915,3.915-2.523,0-6.96-1.131-11.919-3.132a41.3,41.3,0,0,1,1.3,10.44,39.5,39.5,0,0,1-.261,5.046,49.117,49.117,0,0,0,13.833,2.262,16.616,16.616,0,0,0,6.786-1.218,14.39,14.39,0,0,0,5.568-5.133c3.48-6.09,5.481-17.313,5.481-30.885,0-9.831-1.74-15.138-6.177-18.7-2.958-2.349-6.96-3.48-12.354-3.48a28.863,28.863,0,0,0-3.741.174c.261-1.392.87-4.959,1.653-9.4l.609-3.132c.087-.522.174-1.305.261-1.566a9,9,0,0,1,.522-2.088l-15.747-1.479v1.479c0,2.958-.609,8.091-2,17.139-5.742.783-14.007,1.479-16.791,1.479a3,3,0,0,1-.783-.087Zm59.856-34.278a59.373,59.373,0,0,1,8.526,12.441l8-3.915a61.161,61.161,0,0,0-8.7-12.093Zm-12.006,5.394a56.006,56.006,0,0,1,8.613,12.7l8.265-4a55.741,55.741,0,0,0-8.613-12.441Z" transform="translate(61 491)"></path><g id="&#x30B0;&#x30EB;&#x30FC;&#x30D7;_19564" data-name="&#x30B0;&#x30EB;&#x30FC;&#x30D7; 19564"><rect id="&#x9577;&#x65B9;&#x5F62;_4998" data-name="&#x9577;&#x65B9;&#x5F62; 4998" width="772" height="217" transform="translate(1056 343)" fill="#533afc"></rect><path id="&#x30D1;&#x30B9;_33809" data-name="&#x30D1;&#x30B9; 33809" d="M33.232-101.974c-.67,35.778-13.266,72.36-31.49,90.852A94.222,94.222,0,0,1,23.584,4.824C41.272-16.884,51.456-44.756,56.816-85.76l.536-3.082.4-2.68a19.019,19.019,0,0,1,.536-3.752,10.693,10.693,0,0,1,.4-2.144ZM74.37-97.686l.536,1.608.134,1.34.938,5.092c0,.268.134,1.206.268,2.546C81.338-49.58,93-18.492,110.818,4.824A93.165,93.165,0,0,1,131.99-12.06c-14.2-17.152-22.646-34.572-29.346-60.434-2.278-8.71-4.824-24.12-4.824-29.078v-.536ZM99.7-106.128a114.6,114.6,0,0,1,8.04,22.11l10.586-3.35a108,108,0,0,0-8.576-21.574Zm34.17,13.4a83.039,83.039,0,0,0-8.442-20.368l-9.916,3.082a112.58,112.58,0,0,1,8.308,21.038Zm96.48-18.358c-3.886,6.7-12.864,15.812-24.388,24.522C184.384-69.948,163.882-59.9,134.8-51.724c6.566,8.174,9.246,12.6,12.864,21.574,19.162-6.834,29.882-11.658,43.818-19.832V-13c0,11.524-.134,14.472-.8,21.574h26a191.508,191.508,0,0,1-.8-21.708v-51.59a224.613,224.613,0,0,0,30.954-26.934,47.95,47.95,0,0,1,5.226-4.958Zm134,60.568c11.926,0,13.132,0,20.9.67V-72.226c-6.03.8-9.38.938-21.306.938H289.306c-11.122,0-14.874-.134-20.636-1.072v22.512c5.36-.536,9.112-.67,20.234-.67h27.47c-1.072,21.44-11.658,33.366-36.18,40.6,8.04,7.638,10.854,11.524,15.678,21.172,18.492-7.5,28.542-15.142,35.912-27.2,6.03-10.05,8.576-18.894,9.648-34.572ZM282.338-84.152c5.092-.536,8.71-.67,20.368-.67h47.7c13.668,0,15.812.134,21.038.67V-106.8c-5.9.938-8.978,1.072-21.44,1.072h-46.9c-11.658,0-14.74-.134-20.77-1.072Zm128.1,9.246c5.762,12.6,8.442,20.636,11.926,34.706l20.9-6.3a168.812,168.812,0,0,0-13-33.9Zm29.748-5.762c5.9,12.462,9.514,22.512,12.06,33.634l20.5-6.3c-3.484-12.864-5.9-18.894-13-32.7Zm45.962-2.68c-.134,7.906-2.412,18.894-5.9,28.274-8.308,22.244-22.914,35.644-49.848,46.1,7.5,7.37,10.184,10.72,14.74,18.894A181.424,181.424,0,0,0,461.362.938a97.4,97.4,0,0,0,28.14-27.2c7.5-11.122,12.73-24.79,16.75-43.684a53.893,53.893,0,0,1,2.01-8.174Zm90.718-30.016c-.67,4.69-2.278,9.112-5.762,16.08-8.71,17.152-19.3,29.346-35.644,40.87,8.844,5.36,12.194,8.308,19.028,16.08A125.707,125.707,0,0,0,584.91-73.968l35.644-.4c-4.958,15.41-12.462,28.006-22.378,38.056C586.384-24.522,572.448-15.946,553.42-8.978c7.5,6.566,11.658,11.792,16.08,20.368,21.976-10.05,37.118-20.636,49.312-34.572,11.792-13.4,20.9-30.82,27.738-53.064,1.876-6.03,2.278-6.834,3.886-9.514L639.314-96.748c-3.216,1.206-4.69,1.474-9.916,1.474l-33.634.4c.938-1.876.938-1.876,2.68-5.762q.4-.8,1.206-2.814c.4-.8.67-1.608.938-2.01a19.7,19.7,0,0,1,1.608-3.35Z" transform="translate(1106 501)" fill="#fff"></path></g></g></svg>