<svg xmlns="http://www.w3.org/2000/svg" width="1834.578" height="283.431" viewBox="0 0 1834.578 283.431"><g id="&#x30B0;&#x30EB;&#x30FC;&#x30D7;_19566" data-name="&#x30B0;&#x30EB;&#x30FC;&#x30D7; 19566" transform="translate(-36.565 -2258.544)"><path id="&#x30D1;&#x30B9;_33811" data-name="&#x30D1;&#x30B9; 33811" d="M62.322-24.8V-56h13.1V-66.456H51.012V-24.8Zm86.5,26.442c-.936-1.95-2.34-5.382-3.822-9.36l-17.16-45.942a52.815,52.815,0,0,1-2.652-8.112H108.42a59.887,59.887,0,0,1-2.5,8.112l-17,45.942a72.505,72.505,0,0,1-3.978,9.36h15.444a38.947,38.947,0,0,1,2.106-8.268l2.652-7.566H128.7l2.652,7.566a55.782,55.782,0,0,1,2.028,8.268Zm-23.4-26.832h-17l7.332-22.074c.546-1.56.624-1.95,1.092-3.588.624,2.106.936,2.886,1.17,3.588Zm35.568-36.582a65.122,65.122,0,0,1,.624,10.764V-9.126a66.949,66.949,0,0,1-.624,10.764h14.352a65.725,65.725,0,0,1-.624-10.764V-51.012a64.524,64.524,0,0,1,.624-10.764ZM194.61-46.41a6.736,6.736,0,0,1,1.17-.078h1.092a4.877,4.877,0,0,0,1.326.078c.234,0,1.482,0,2.964.078,2.262.078,2.886.078,7.254.078a11.951,11.951,0,0,0-1.17,1.95c-4.056,6.942-10.842,15.054-15.21,18.252l8.424,8.346a47.52,47.52,0,0,1,7.1-7.488c5.85-5.07,11.154-7.722,15.366-7.722,2.262,0,3.588,1.014,3.978,3.12a60.318,60.318,0,0,0-11.388,6.006c-5.928,4.29-9.048,9.126-9.048,13.962A12.676,12.676,0,0,0,209.508-1.4c3.588,4.056,10.062,5.772,21.528,5.772a144.335,144.335,0,0,0,20.046-1.4,29.567,29.567,0,0,1,3.9-.39L254.124-9.36C248.04-7.1,239.616-5.85,230.178-5.85c-8.5,0-11.856-1.4-11.856-4.992,0-1.95,1.248-3.9,3.666-5.616a40.475,40.475,0,0,1,6.24-3.354,2.509,2.509,0,0,1,.078.624,58.194,58.194,0,0,1-.468,9.048l10.842-.312a47.275,47.275,0,0,1-.234-5.226v-5.3l-.078-2.574c9.438-3.2,9.438-3.2,11.31-3.666a59.051,59.051,0,0,1,8.814-2.028l-4.134-10.608c-1.326.78-1.638.858-6.084,2.34-3.51,1.17-3.9,1.326-6.942,2.418-2.028.7-3.432,1.17-4.134,1.4-1.4-5.226-5.3-7.878-11.622-7.878-3.9,0-6.708.78-10.764,3.042a55.973,55.973,0,0,0,5.07-7.722c7.878-.234,18.018-.858,23.712-1.56,3.744-.39,3.744-.39,6.162-.624l-.468-10.53c-4.446,1.17-10.842,2.028-20.124,2.574a47.223,47.223,0,0,0-4.836.312c.312-.624.312-.7.624-1.4,2.34-5.616,2.34-5.616,2.886-6.474l-12.09-1.092c-.312,2.574-.858,4.446-2.808,9.126h-3.9c-6.4,0-11.388-.312-14.274-1.014Zm129.48-7.176V-50.7h-4.134a25.764,25.764,0,0,1-4.758-.312v6.474a43.29,43.29,0,0,1,4.914-.312h1.014a22.606,22.606,0,0,1-7.956,6.084,19.479,19.479,0,0,1,3.744,4.29l-7.41-1.248a16.6,16.6,0,0,1-2.262,4.134H297.96a51.407,51.407,0,0,1-7.02-.312c.156,1.716.234,3.588.234,5.3v10.764c0,2.028-.078,3.978-.234,5.538,1.872-.156,3.978-.234,6.162-.234h2.73c-1.95,5.772-6.474,8.58-15.6,9.594a27.562,27.562,0,0,1,4.6,8.19c7.41-1.4,11.934-3.666,15.912-7.8,2.5-2.652,3.744-5.148,4.992-9.984h3.51v11c0,2.418.546,3.666,1.95,4.29,1.638.7,6.318,1.17,12.948,1.17A90.352,90.352,0,0,0,340.7,5.3a5.857,5.857,0,0,0,3.51-1.794c1.4-1.56,2.262-4.368,2.886-9.594a24.388,24.388,0,0,1-4.056-.936,40.47,40.47,0,0,0-3.2-5.382l-1.092.39c-.078-1.638-.078-2.73-.078-4.524v-9.126c0-2.886.078-4.134.234-6.24a73.081,73.081,0,0,1-7.644.312H316.68c.234-.312.78-1.092,1.56-2.34a29.167,29.167,0,0,0,6.006-6.006c-.078.858-.078.858-.156,2.652v.78a15.494,15.494,0,0,1-.234,3.51h8.268a25.509,25.509,0,0,1-.312-3.432v-1.092c0-.078-.078-1.56-.078-1.638a8.055,8.055,0,0,1-.078-1.092,36.437,36.437,0,0,0,11,8.58,32.816,32.816,0,0,1,3.822-7.254c-5.148-1.794-7.956-3.354-10.842-5.928h2.73a31.244,31.244,0,0,1,5.148.312v-6.474a26.253,26.253,0,0,1-5.148.312h-6.552v-2.886h5.07a78.908,78.908,0,0,1,8.112.312V-61.7a71.284,71.284,0,0,1-9.438.468H316.68v-.7a20.475,20.475,0,0,1,.312-4.29H305.916a21.76,21.76,0,0,1,.312,4.134v.858H287.664c-3.822,0-6.942-.156-9.906-.39a112.4,112.4,0,0,1,.468,11.7c0,12.168-.39,22.23-1.17,30.108-.936,9.906-1.95,13.494-5.148,19.032a34.284,34.284,0,0,1,8.034,7.722c3.2-5.226,4.446-8.892,5.928-17.238,1.092-6.318,1.716-14.664,1.95-26.91a21.2,21.2,0,0,1,3.9,5.148,24.9,24.9,0,0,0,7.02-7.332c-.078.858-.156,1.716-.156,2.184v1.092c-.078,1.326-.078,1.716-.234,3.042h7.956a22.061,22.061,0,0,1-.234-3.2v-1.248c0-.858-.078-2.34-.156-2.964a27.926,27.926,0,0,0,3.978,4.524,31,31,0,0,1,4.368-5.07,18.841,18.841,0,0,1-5.616-3.822h.468a31.525,31.525,0,0,1,4.524.312v-6.474a28.46,28.46,0,0,1-4.6.312h-2.964v-2.886Zm9.75,43.056h1.092a16.181,16.181,0,0,1,1.482,2.5c-1.872.234-2.5.234-4.992.39.624-1.248.78-1.638,1.4-2.886Zm-9.828,8.268a10.909,10.909,0,0,1,2.652-.39c7.644-.78,8.658-.858,11.544-1.4l.156.234v.234c-.624,2.418-1.326,2.652-8.5,2.652-4.056,0-6.24-.156-6.942-.39-.546-.234-.7-.546-.7-1.326V-10.53h4.6c-.546,1.326-.7,1.794-1.326,3.12h-1.56a7.594,7.594,0,0,0-1.248-.078ZM298.506-53.586V-50.7h-3.978a32.055,32.055,0,0,1-5.07-.312v6.474a29.83,29.83,0,0,1,4.758-.312h1.248a22.226,22.226,0,0,1-7.644,6.162c.078-5.85.078-6.708.078-14.9Zm1.872,27.456h9.672v2.418h-9.672Zm18.408,0H329.55v2.418H318.786Zm-18.408,7.644h9.672v2.574h-9.672Zm18.408,0H329.55v2.574H318.786Zm59.67,23.322A123.242,123.242,0,0,1,391.17,3.2c11.856-1.248,16.224-1.872,27.144-3.9,1.248,2.5,1.716,3.51,3.276,6.864L430.872.624c-6.786-12.012-8.892-15.288-15.288-23.868l-8.5,4.368a101.76,101.76,0,0,1,6.708,9.984c-5.538.936-5.538.936-17.94,2.106A134.033,134.033,0,0,0,404.2-25.74h17.628a68.4,68.4,0,0,1,8.58.468V-35.8a70.621,70.621,0,0,1-8.658.468H408.018V-45.552h11.466a58.092,58.092,0,0,1,8.346.39v-10.3a64.083,64.083,0,0,1-8.424.468H408.018v-2.418a54.758,54.758,0,0,1,.39-8.424H397.332a54.131,54.131,0,0,1,.39,8.424v2.418h-8.346a60.747,60.747,0,0,1-8.658-.468v10.3c2.652-.234,5.382-.39,8.58-.39h8.424v10.218H386.646a66.9,66.9,0,0,1-8.892-.468v10.53a75.212,75.212,0,0,1,8.814-.468h6.786A103.768,103.768,0,0,1,384.54-6.006c-2.5.078-3.978.156-5.3.156-.78,0-1.4,0-2.652-.078ZM360.438-58.5a81.607,81.607,0,0,1,13.728,10.842l6.4-8.112a89.416,89.416,0,0,0-13.806-9.906Zm-2.964,19.812a88.783,88.783,0,0,1,14.2,10.374l5.85-8.58a96.015,96.015,0,0,0-14.2-9.516Zm11.31,13.65c-3.822,10.92-8.346,20.67-11.076,23.556l9.048,7.8c.468-1.014.546-1.092,1.794-3.9.156-.468.78-1.716,1.56-3.51,2.808-6.162,3.9-8.97,7.176-18.018Zm116.688-24.18a15.172,15.172,0,0,1,7.254,2.5c5.3,3.51,8.346,9.36,8.346,16.3,0,8.268-4.056,15.522-10.764,19.188-3.666,1.95-8.5,3.2-15.444,3.744a31.981,31.981,0,0,1,5.772,11.076,55.68,55.68,0,0,0,12.4-3.2c12.48-4.914,19.578-15.912,19.578-30.108,0-18.252-12.48-29.952-32.058-29.952-11.154,0-20.748,3.9-27.456,11.232a33.65,33.65,0,0,0-8.736,23.166c0,13.416,6.864,22.854,16.536,22.854,6.708,0,11.856-4.6,16.224-14.508C481.182-25.974,483.912-36.348,485.472-49.218Zm-11.388.156a100.419,100.419,0,0,1-6.24,25.116c-2.5,6.318-4.914,9.36-7.176,9.36-3.042,0-5.538-4.758-5.538-10.608a25.573,25.573,0,0,1,9.594-19.968A17.528,17.528,0,0,1,474.084-49.062ZM585-52.338c.078-2.418.078-2.808.078-6.63a53.068,53.068,0,0,1,.39-6.942H574.626c.39,2.574.39,2.574.39,13.572H566.67a67.723,67.723,0,0,1-8.892-.468v10.452a73.358,73.358,0,0,1,8.97-.468h8.112c-.312,8.892-.936,14.118-2.028,18.33a37.647,37.647,0,0,1-5.928-14.82l-9.516,3.12c1.092,2.574,1.092,2.574,1.638,4.056a64.66,64.66,0,0,0,8.892,17.16C563-8.97,558.09-5.772,549.588-2.964a36.715,36.715,0,0,1,6.006,9.282,56.332,56.332,0,0,0,8.814-4.6,46.045,46.045,0,0,0,10.218-8.892c6.162,5.772,11.622,9.36,20.514,13.182A39.471,39.471,0,0,1,600.132-4.6c-8.58-2.808-14.118-5.928-20.124-11.388,3.276-7.332,4.212-12.558,4.836-26.832h5.148a77.06,77.06,0,0,1,8.97.468V-52.806a71.593,71.593,0,0,1-8.97.468Zm-47.346,0h-3.588a39.227,39.227,0,0,1-6.318-.39v9.984a45.352,45.352,0,0,1,5.928-.39h3.12C534.534-34.32,530.556-25.9,526.11-20.2a41.486,41.486,0,0,1,4.134,11c3.51-5.226,5.07-8.736,7.8-16.692-.234,3.354-.312,6.942-.312,10.14V-2.808a85.343,85.343,0,0,1-.468,9.828h10.608a70.012,70.012,0,0,1-.468-9.828V-19.89a95.5,95.5,0,0,0-.312-9.75,49.427,49.427,0,0,0,5.928,10.608,36.755,36.755,0,0,1,4.524-9.282,40.581,40.581,0,0,1-7.254-9.594,32.626,32.626,0,0,1-2.652-5.226h2.652a44.357,44.357,0,0,1,5.616.312v-9.906a35.324,35.324,0,0,1-5.538.39H547.4v-5.538a55.142,55.142,0,0,1,.39-8.112H537.186a51.716,51.716,0,0,1,.468,8.112Zm119.808-7.02a47.734,47.734,0,0,1,6.084,11.076l7.02-2.808a43.5,43.5,0,0,0-6.24-10.842Zm9.594-3.432a53.407,53.407,0,0,1,6.006,10.764l6.864-2.886a43.65,43.65,0,0,0-6.24-10.3ZM614.094-41.106h1.482l8.346.156h2.184c-2.73,14.2-8.424,31.278-13.65,41.262l12.012,4.446c.39-1.326,1.014-3.12,1.794-5.382,3.588-10.3,4.446-12.87,6.786-21.372a182.418,182.418,0,0,0,4.524-19.266,87.428,87.428,0,0,0,11-1.248c2.808-.468,2.808-.468,4.29-.624l-.39-10.686a73.913,73.913,0,0,1-13.026,2.184c.234-1.56.312-1.716.624-3.822,1.014-5.694,1.014-5.694,1.56-7.488L629.3-63.96v1.326a90.131,90.131,0,0,1-1.326,11.544H625.4a61.485,61.485,0,0,1-11.154-.78Zm63.18.156c-4.914-.078-5.226-.078-7.176-.078-9.048,0-12.948.39-24.57,2.5l.78,10.3a90.477,90.477,0,0,1,21.138-2.184,83.336,83.336,0,0,1,10.062.546ZM645.528-24.1c-4.368,6.006-6.006,9.984-6.006,14.2A11.6,11.6,0,0,0,645.294.234c3.9,2.34,8.97,3.354,16.146,3.354a95.915,95.915,0,0,0,14.9-1.248c1.95-.312,2.574-.39,3.978-.546l-.78-11.544a56.945,56.945,0,0,1-17.472,3.042c-7.566,0-11.154-1.794-11.154-5.46,0-2.574.858-4.446,3.978-8.58Zm69.186-38.22a30.44,30.44,0,0,1,1.248,5.07c1.872,9.438,3.12,14.508,4.992,20.9a45.885,45.885,0,0,0-10.764,6.786A19.091,19.091,0,0,0,703.248-14.9,16.914,16.914,0,0,0,706.68-4.524c4.134,5.226,12.792,7.8,26.286,7.8a189.71,189.71,0,0,0,19.578-1.248c4.446-.468,4.836-.546,6.552-.624L758.16-11.31c-6.084,2.106-16.536,3.432-26.13,3.432-11.544,0-16.692-2.262-16.692-7.41,0-4.992,5.46-9.516,16.146-13.494a159.86,159.86,0,0,1,26.832-7.332l-3.9-11.856a17.566,17.566,0,0,1-3.12,1.17c-12.168,3.822-15.444,4.836-19.734,6.4-2.418-8.19-4.446-18.564-4.758-23.79ZM844.506-54.99a56.123,56.123,0,0,1,.39-8.346,81.406,81.406,0,0,1-8.5.312H794.586a79.75,79.75,0,0,1-8.424-.312,59.432,59.432,0,0,1,.39,8.346v20.514a61.67,61.67,0,0,1-.39,7.956c2.34-.234,5.3-.312,8.424-.312h41.808c3.276,0,6.084.078,8.5.312a58.094,58.094,0,0,1-.39-7.956Zm-34.086.624v5.538H796.458v-5.538Zm9.672,5.538v-5.538H834.6v5.538ZM810.42-40.95v5.694H796.458V-40.95Zm9.672,5.694V-40.95H834.6v5.694ZM787.41,3.042a41.471,41.471,0,0,0,5.226-10.53,81.944,81.944,0,0,0,3.276-12.4l-9.126-2.886a50.193,50.193,0,0,1-3.2,11.388,27.411,27.411,0,0,1-4.758,8.112Zm21.216-18.174a41.011,41.011,0,0,1,.39-7.488H798.252a42.1,42.1,0,0,1,.39,7.488V-2.5c0,6.786,2.886,8.19,17.238,8.19,11.154,0,16.224-.78,18.642-2.886,1.872-1.638,2.808-5.382,3.354-13.494a31.553,31.553,0,0,1-9.672-2.886c-.156,4.914-.39,6.864-1.092,7.956-.858,1.4-3.666,1.95-10.062,1.95-7.1,0-8.424-.39-8.424-2.652Zm19.812.624a66.552,66.552,0,0,0-10.53-12.246l-7.566,4.446a62.592,62.592,0,0,1,10.14,13.416Zm24.1,11.466a112.531,112.531,0,0,0-11.31-20.514L833.2-19.734A84.7,84.7,0,0,1,843.57,1.95Zm20.124-23.01a48.76,48.76,0,0,1,9.36-2.73c8.892-2.028,15.132-2.964,20.28-2.964a18.865,18.865,0,0,1,7.1,1.092,7.83,7.83,0,0,1,5.226,7.488c0,4.992-2.574,8.814-7.956,11.856-4.68,2.574-13.884,4.524-21.84,4.524h-1.17A30.475,30.475,0,0,1,887.64,3.822C898.17,2.574,899.808,2.34,904.956.7c13.1-3.978,20.67-12.636,20.67-23.634A19.347,19.347,0,0,0,922.662-33.7C919-39.156,912.6-41.808,903.24-41.808c-6.4,0-13.494.936-24.336,3.2-6.006,1.248-6.006,1.248-8.5,1.482Zm73.71-17.316c2.964-.546,7.176-1.092,11.466-1.482,17.394-1.326,17.784-1.326,25.506-2.184-10.842,6.24-16.458,14.82-16.458,25.272,0,8.97,4.212,15.756,12.324,19.968,4.68,2.5,10.14,3.822,18.876,4.758a17.76,17.76,0,0,1,2.73.468L1002.456-9.2c-.936.078-1.482.078-1.95.078a50.9,50.9,0,0,1-11.544-1.794c-6.552-1.872-10.14-6.084-10.14-11.856,0-7.176,5.3-14.352,14.118-19.422a35.938,35.938,0,0,1,16.614-4.758,8.589,8.589,0,0,1,1.872.156l-.624-11.934c-1.4.312-1.872.39-8.736.7-21.45.936-34.866,1.56-40.248,1.95-11.076.7-11.544.7-13.026.7-.312,0-1.248,0-3.042-.078Zm85.332-14.9a41.435,41.435,0,0,1,.312,5.226c.468,23.634,1.56,33.54,4.758,41.5C1040.052-3.432,1044.654.7,1050.348.7c7.176,0,12.246-6.942,16.38-22.23a38.371,38.371,0,0,1-9.2-8.424,65.243,65.243,0,0,1-4.134,13.884c-.858,2.106-1.794,3.2-2.808,3.2-3.978,0-6.864-13.806-6.864-32.448a91.537,91.537,0,0,1,.7-12.87Zm39.156,7.878a68.994,68.994,0,0,1,11.232,19.968A79.625,79.625,0,0,1,1086.852-7.1l11.778-4.368c-2.106-17.706-7.8-31.59-17.784-43.6Zm53.508.546c2.34-.312,3.042-.312,5.538-.468,11.466-.546,12.792-.624,19.188-1.17-11,11-27.3,23.946-34.632,27.456l6.24,10.062c9.672-8.658,20.358-13.1,31.824-13.1,8.97,0,14.742,3.666,14.742,9.36,0,4.914-2.262,7.878-7.8,10.14a19.9,19.9,0,0,0-3.588-6.708,17.3,17.3,0,0,0-13.728-6.318c-8.268,0-14.352,5.07-14.352,11.778A11.678,11.678,0,0,0,1132.56.7c3.276,2.5,9.048,3.9,15.834,3.9,7.488,0,14.352-1.638,19.578-4.68,7.02-4.056,10.686-10.14,10.686-17.706,0-5.46-1.872-9.75-5.694-12.948-4.212-3.51-9.672-5.3-16.3-5.3a42.849,42.849,0,0,0-12.87,1.872c6.318-4.446,8.814-6.474,16.926-13.728,6.084-5.382,6.162-5.382,7.8-6.318l-5.538-8.112c-1.326.624-2.262.78-5.3,1.014-7.254.546-16.926.936-23.634.936a69.625,69.625,0,0,1-10.14-.546Zm25.116,45.084a11.369,11.369,0,0,1-3.276.39c-5.07,0-8.034-1.56-8.034-4.29,0-1.872,1.56-3.12,3.9-3.12C1145.742-11.778,1148.316-9.36,1149.486-4.758Zm59.124-29.718v31.2h-13.1V7.176h24.414V-34.476Zm84.4-14.352a13.52,13.52,0,0,1,2.73.234,146.5,146.5,0,0,0,16.146.936,69.377,69.377,0,0,0,8.892-.468c-2.262,1.326-7.566,4.6-10.3,6.4l7.956,5.928c7.488-5.538,16.614-11.232,21.294-13.338l-.39-10.3c-4.212.936-11,1.4-20.436,1.4-11.388,0-20.436-.7-25.194-1.95Zm6.24,16.536c-7.41,5.928-10.608,11.388-10.608,17.784s3.432,10.92,10.452,13.572c4.368,1.716,11.154,2.574,20.514,2.574A122.9,122.9,0,0,0,1337.232.39a66.925,66.925,0,0,1,7.02-.7l-.858-12.792c-5.226,2.028-15.756,3.432-25.35,3.432-12.168,0-17.55-2.028-17.55-6.552,0-3.042,2.262-6.318,7.02-10.14Zm84.708-30.03a30.443,30.443,0,0,1,1.248,5.07c1.872,9.438,3.12,14.508,4.992,20.9a45.889,45.889,0,0,0-10.764,6.786,19.091,19.091,0,0,0-6.942,14.664,16.914,16.914,0,0,0,3.432,10.374c4.134,5.226,12.792,7.8,26.286,7.8a189.707,189.707,0,0,0,19.578-1.248c4.446-.468,4.836-.546,6.552-.624L1427.4-11.31c-6.084,2.106-16.536,3.432-26.13,3.432-11.544,0-16.692-2.262-16.692-7.41,0-4.992,5.46-9.516,16.146-13.494a159.859,159.859,0,0,1,26.832-7.332l-3.9-11.856a17.568,17.568,0,0,1-3.12,1.17c-12.168,3.822-15.444,4.836-19.734,6.4-2.418-8.19-4.446-18.564-4.758-23.79Zm77.532,13.494a13.52,13.52,0,0,1,2.73.234,146.5,146.5,0,0,0,16.146.936,69.377,69.377,0,0,0,8.892-.468c-2.262,1.326-7.566,4.6-10.3,6.4l7.956,5.928c7.488-5.538,16.614-11.232,21.294-13.338l-.39-10.3c-4.212.936-11,1.4-20.436,1.4-11.388,0-20.436-.7-25.194-1.95Zm6.24,16.536c-7.41,5.928-10.608,11.388-10.608,17.784s3.432,10.92,10.452,13.572c4.368,1.716,11.154,2.574,20.514,2.574A122.9,122.9,0,0,0,1505.712.39a66.925,66.925,0,0,1,7.02-.7l-.858-12.792c-5.226,2.028-15.756,3.432-25.35,3.432-12.168,0-17.55-2.028-17.55-6.552,0-3.042,2.262-6.318,7.02-10.14ZM1546.662-50a41.32,41.32,0,0,1,5.772-.546c13.728-.78,15.288-.936,19.656-1.482-9.2,8.58-15.132,13.26-21.762,17.394a112.838,112.838,0,0,1-14.352,1.4,12.76,12.76,0,0,1-1.56-.078L1535.43-22c1.95-.39,2.886-.624,4.056-.78,5.07-.7,8.814-1.248,11.154-1.482,2.652-.312,2.652-.312,7.1-.936,4.758-.546,7.722-.936,8.97-1.17a18.66,18.66,0,0,0-5.928,4.992,14.457,14.457,0,0,0-3.588,9.828c0,7.488,5.46,13.338,14.2,15.132a62.973,62.973,0,0,0,11.544,1.17h1.482c4.758-.156,4.758-.156,5.538-.156a16.967,16.967,0,0,1,1.95.078L1591.434-7.1a46.382,46.382,0,0,1-8.424.78c-9.36,0-14.274-2.34-14.274-6.942,0-3.9,3.9-8.112,9.828-10.764,5.772-2.574,12.246-3.666,21.918-3.666,1.248,0,1.248,0,2.5.078l-.546-11.076a15.348,15.348,0,0,1-2.73.468c-.468,0-2.262.156-4.836.39-1.092.078-4.212.312-8.58.624-6.474.468-13.26,1.092-19.11,1.716a201.92,201.92,0,0,0,19.344-15.444,38.594,38.594,0,0,1,4.992-4.134l-5.85-7.722c-1.872.7-3.744,1.014-7.956,1.326-5.616.468-16.536.858-23.4.858a59.563,59.563,0,0,1-8.268-.39Z" transform="translate(131 2325)"></path><path id="&#x30D1;&#x30B9;_33812" data-name="&#x30D1;&#x30B9; 33812" d="M91.478,3.286C90.1.318,88.4-4.028,86.39-9.646l-23-63.812a84.586,84.586,0,0,1-3.6-11.448H32.118a64.705,64.705,0,0,1-3.392,11.448L5.83-9.646C3.286-2.438,2.332.106.742,3.286h24.8A61.087,61.087,0,0,1,28.2-8.162l2.862-9.01h30.21l2.862,9.01A86.085,86.085,0,0,1,66.674,3.286ZM56.074-34.98H36.146L46-66.78Zm51.2-49.926a99,99,0,0,1,.848,15.688V-12.4a101.59,101.59,0,0,1-.848,15.688h23.32a102.468,102.468,0,0,1-.848-15.688V-69.218a98.149,98.149,0,0,1,.848-15.688ZM246.98-9.01C230.444-24.8,226.1-28.514,213.272-37.736c5.936-7.95,9.964-15.37,15.582-28.62,1.59-3.6,2.226-4.664,3.816-6.254l-9.328-9.54c-2.862,1.06-3.5,1.06-8.48,1.166l-36.252.53c-3.074.106-5.088.106-5.936.106a78.529,78.529,0,0,1-11.13-.742l.53,18.868c4.346-.636,7.738-.848,16.854-1.06l27.56-.424a85.274,85.274,0,0,1-21.306,31.164A99.962,99.962,0,0,1,150.838-11.13C156.774-4.982,159-1.8,162.71,5.618c16.43-7.95,29.044-17.278,39.008-29.044a170.424,170.424,0,0,1,30.422,30.1Zm51.092-58.936L283.338-65.72a106.511,106.511,0,0,1-15.582,1.7L270.618-45.9c4.346-1.166,6.784-1.59,15.794-2.968L301.04-51.2l2.438,13.356-20.246,3.18a124.107,124.107,0,0,1-15.158,1.7l2.862,18.02a113.3,113.3,0,0,1,14.522-2.968L306.446-21.2,309.2-5.936C310.686,2.12,311.11,5.194,311.11,8.8l20.14-3.286c-1.272-4.028-1.484-5.088-3.18-14.2L325.1-24.062l20.034-3.074c8.9-1.272,8.9-1.272,14.946-1.908L356.9-46.958a98.778,98.778,0,0,1-15.264,3.286L322.028-40.7,319.484-54.06,336.02-56.6c11.448-1.7,11.448-1.7,15.052-2.014L348.1-76.426c-4.664,1.378-7.632,1.908-15.158,3.074L316.41-70.808l-1.166-5.83A86.4,86.4,0,0,1,313.76-88.4l-19.5,2.968c1.06,3.074,1.59,5.3,2.756,11.978ZM392.306-84.8a77.684,77.684,0,0,1,.424,9.752c0,27.454-1.7,40.6-6.678,50.986A47.344,47.344,0,0,1,373.438-7.208C380.222-2.438,383.19.53,388.6,7.632,395.8,0,399.832-5.724,403.33-13.568c5.088-11.554,7.208-23.32,7.844-45.474.742-20.988.742-20.988,1.166-24.592Zm30.1-.53a62.99,62.99,0,0,1,.424,8.268v3.816l-.53,62.752c0,4.346-.212,6.148-1.166,8.9l9.116,9.54a23.72,23.72,0,0,1,5.194-2.226c10.706-3.922,15.9-6.678,22.26-12.084,8.056-6.89,13.568-15.052,18.338-26.924-6.042-4.664-8.8-7.42-14.1-13.992A53.68,53.68,0,0,1,453.68-29.15a40.968,40.968,0,0,1-12.72,11.66l.53-55.544a75.857,75.857,0,0,1,.848-12.3Zm136.1,25.44c5.936,8.268,12.19,25.122,14.416,38.584l17.384-8.268c-3.5-14.522-9.434-28.3-16.218-37.63Zm-66.886,14.1c3.074-.954,9.858-2.12,16.536-3.074-4.346,17.066-13.25,38.054-19.928,46.958l17.49,9.222c.636-1.59.848-1.908,1.7-3.922a251.334,251.334,0,0,0,18.762-53.636,38.488,38.488,0,0,1,4.24-.212c3.71,0,5.194.424,6.36,1.8,1.378,1.484,2.014,4.028,2.014,8.48,0,8.162-1.272,18.868-2.862,23.532-1.166,3.392-2.544,4.77-4.77,4.77-3.074,0-8.48-1.378-14.522-3.816a50.322,50.322,0,0,1,1.59,12.72,48.125,48.125,0,0,1-.318,6.148c7.208,2.014,11.978,2.756,16.854,2.756a20.245,20.245,0,0,0,8.268-1.484A17.532,17.532,0,0,0,549.822-1.8c4.24-7.42,6.678-21.094,6.678-37.63,0-11.978-2.12-18.444-7.526-22.79-3.6-2.862-8.48-4.24-15.052-4.24a35.165,35.165,0,0,0-4.558.212c.318-1.7,1.06-6.042,2.014-11.448l.742-3.816c.106-.636.212-1.59.318-1.908a10.971,10.971,0,0,1,.636-2.544l-19.186-1.8v1.8c0,3.6-.742,9.858-2.438,20.882-7,.954-17.066,1.8-20.458,1.8a3.651,3.651,0,0,1-.954-.106Zm72.928-41.764A72.336,72.336,0,0,1,574.944-72.4l9.752-4.77A74.519,74.519,0,0,0,574.1-91.9Zm-14.628,6.572a68.236,68.236,0,0,1,10.494,15.476l10.07-4.876A67.914,67.914,0,0,0,560-85.542ZM671.4-8.056c0,1.378-1.378,2.014-4.452,2.014A109.215,109.215,0,0,1,653.6-7.1a51.882,51.882,0,0,1,4.24,15.688c5.512.106,8.162.212,10.176.212,7.1,0,11.448-.636,13.992-1.908,3.392-1.7,4.982-4.982,4.982-10.07V-31.27A138.337,138.337,0,0,0,697.48-41.764a72.05,72.05,0,0,1,5.83-6.254l-10.07-12.19a70.094,70.094,0,0,1-6.254,7.844V-68.688a113.332,113.332,0,0,1,.53-13.462,127.1,127.1,0,0,1-13.25.424H657.094c1.272-2.226,2.12-3.922,4.134-8.056l-17.7-1.59a40.1,40.1,0,0,1-3.922,9.646h-6.678a109.621,109.621,0,0,1-13.78-.53c.318,3.392.424,6.572.424,11.13V-35.4h-3.71c-1.8.106-3.286.106-3.6.106H611.09c-1.484,0-3.5-.106-4.982-.212l1.8,15.688c2.014-.318,2.968-.424,5.512-.636,16.642-1.06,21.412-1.484,38.372-3.074-14.416,8.374-27.56,13.462-47.064,18.02a46.786,46.786,0,0,1,7.95,14.946c22.472-6.678,41.34-15.688,58.724-28.09ZM635.258-54.8H671.4v3.71H635.258ZM671.4-65.3H635.258v-3.71H671.4ZM635.258-40.6H671.4v2.968c-15.688.954-15.688.954-36.146,1.8Zm95.188-45.156c-.212,3.18-.318,3.922-1.59,11.342a229.28,229.28,0,0,0-4.028,40.81c0,10.07.742,19.292,2.756,33.5a42.59,42.59,0,0,1,.53,5.618l18.232-.848a29.673,29.673,0,0,1-.318-5.194,104.594,104.594,0,0,1,4.134-29.68L742-32.966c.742-19.292,3.922-39.114,8.056-51.2Zm27.772,27.56c1.484.106,2.226.106,3.074.212a174.9,174.9,0,0,0,18.232.848c7.314,0,15.052-.424,22.366-1.166,5.83-.636,6.89-.742,7.844-.742l-.742-18.126c-7.1,1.8-17.49,2.65-31.588,2.65a88.539,88.539,0,0,1-18.868-1.59Zm6.254,14.1c-2.862,4.134-3.5,5.194-4.982,7.632C756.2-30.952,754.4-25.122,754.4-19.928a19.636,19.636,0,0,0,9.752,16.854C769.666,0,776.238,1.378,786.1,1.378A129.8,129.8,0,0,0,804.434,0c6.254-.954,6.254-.954,9.01-1.272l-1.06-18.762a78.778,78.778,0,0,1-26.394,4.346c-9.01,0-13.78-2.65-13.78-7.526,0-3.816,2.226-8.374,7.1-14.628Zm73.988-3.18a60.334,60.334,0,0,1,9.116-3.392c16.748-5.194,29.574-7.526,40.81-7.526,7.42,0,12.3,1.59,15.688,5.088A13.821,13.821,0,0,1,908-42.824a17.116,17.116,0,0,1-3.392,10.6c-3.922,5.512-9.858,9.434-18.232,11.872-8.056,2.438-17.172,3.6-30.21,3.71C860.3-9.01,861.144-7,863.688,2.544c18.656-1.7,29.044-4.134,39.75-9.222,15.688-7.526,24.8-20.988,24.8-36.57,0-10.918-4.77-20.458-13.038-26.288-6.36-4.452-15.158-6.678-26.288-6.678-10.706,0-18.868,1.166-40.492,5.618a99.81,99.81,0,0,1-13.992,2.438Zm111.3.742A131.891,131.891,0,0,1,966.3-49.5c-4.24,16.748-13.144,37.842-19.928,46.852l17.49,9.222c.636-1.484.848-2.014,1.7-3.816,6.148-13.25,7.844-17.49,11.236-27.348a210.193,210.193,0,0,0,7.526-26.394,38.487,38.487,0,0,1,4.24-.212c3.71,0,5.194.424,6.36,1.8,1.378,1.484,2.014,4.028,2.014,8.586,0,8.056-1.272,18.868-2.862,23.532-1.166,3.392-2.544,4.77-4.77,4.77-3.074,0-8.48-1.484-14.522-3.816a48.967,48.967,0,0,1,1.59,12.614,47.3,47.3,0,0,1-.318,6.148C983.256,4.452,988.026,5.3,992.9,5.3a20.245,20.245,0,0,0,8.268-1.484,17.029,17.029,0,0,0,6.784-6.36c4.24-7.314,6.678-21.094,6.678-37.63,0-11.978-2.12-18.444-7.526-22.79-3.6-2.862-8.48-4.24-15.052-4.24-1.484,0-2.756.106-4.558.212.424-2.438,1.166-6.466,2.014-11.342,1.06-6.254,1.06-6.254,1.7-8.374l-19.186-1.8v1.8c0,3.6-.742,9.858-2.438,20.988-6.89.848-17.066,1.7-20.458,1.7h-.954Zm61.48-21.624c9.752,11.554,16.324,26.924,19.822,46.322l17.384-8.268c-4.24-17.808-11.024-32.012-21.624-45.262Zm76.426-21.094a70.79,70.79,0,0,1-1.59,12.614,36.405,36.405,0,0,0-.954,4.452c-2.12.106-2.65.106-3.816.106a86.655,86.655,0,0,1-15.476-1.06v16.96h4.134c2.438.106,2.438.106,4.876.106h5.936c-4.77,14.946-12.084,30-19.61,40.068l17.278,9.434a42.833,42.833,0,0,1,2.014-4.134c4.134-8.268,5.088-10.176,7.314-15.052a217.929,217.929,0,0,0,11.554-30.74c2.65-.212,8.48-.742,11.342-1.06,5.3-.636,5.3-.636,7.844-.848l-.318-17.172c-3.392,1.06-7.95,1.8-14.734,2.544.53-2.438.742-3.392,1.272-5.936,1.272-6.572,1.378-6.572,2.014-8.48Zm73.458,25.864c-9.858-5.724-18.55-9.54-31.906-14.31l-8.8,14.628a149.976,149.976,0,0,1,32.966,15.264Zm-.954,48.548c-3.18-2.544-4.876-3.922-5.194-4.134a77.633,77.633,0,0,0-16.324-9.434,94.4,94.4,0,0,1-.848-12.3,49.253,49.253,0,0,1,1.166-11.978l-17.49-.742c-.424,4.77-.636,8.162-.636,12.508,0,2.438.106,4.452.424,8.48a43.388,43.388,0,0,0-7.42-.636c-14.734,0-25.016,8.586-25.016,20.882a18.513,18.513,0,0,0,5.3,13.144c4.346,4.452,11.554,7,20.034,7s15.9-2.438,20.034-6.572c2.862-2.968,4.134-6.042,4.452-11.024a56.767,56.767,0,0,1,13.674,11.554Zm-38.584-1.8a10.791,10.791,0,0,1,.212,2.332c0,4.452-2.756,6.784-8.056,6.784-4.558,0-7.526-2.014-7.526-5.088,0-3.286,3.18-5.406,8.162-5.406A18.426,18.426,0,0,1,1121.586-16.642Zm59.572-63.706a74.389,74.389,0,0,1,.424,7.526c.212,14.734.636,23.638,1.166,31.058,1.378,16.854,4.24,27.454,9.752,35.3,4.134,6.042,9.222,9.116,15.158,9.116,6.466,0,12.19-3.816,16.112-10.812a89.473,89.473,0,0,0,8.056-20.458c-7-5.088-9.858-7.526-14.734-13.356a107.683,107.683,0,0,1-5.512,18.338c-1.06,2.756-2.226,4.134-3.392,4.134-4.452,0-7.844-17.914-7.844-41.658a132.219,132.219,0,0,1,1.166-19.186Zm53.106,11.236c13.144,16.642,20.458,37.524,21.624,61.268l18.974-7c-2.968-25.652-10.706-45.05-24.486-61.692Zm71.444,33.072a97.694,97.694,0,0,1-12.826-.53v14.416a107.383,107.383,0,0,1,12.826-.636h8.162c-2.862,3.286-4.558,5.088-9.222,9.646,9.858,2.12,12.614,2.756,23.744,5.618-7.314,2.014-15.9,2.862-27.242,2.862-1.378,0-3.6,0-7.208-.106a56.213,56.213,0,0,1,6.042,14.2c22.578-1.06,36.676-4.028,49.078-10.494a258.343,258.343,0,0,1,27.56,11.448l9.646-13.144a255.286,255.286,0,0,0-24.38-8.48,45.077,45.077,0,0,0,7.42-11.554h7a105.462,105.462,0,0,1,12.72.636V-36.57a91.041,91.041,0,0,1-12.72.53h-35.086c.53-.954.53-.954.848-1.59.424-.636.848-1.59,1.484-2.65h27.03a107,107,0,0,1,11.978.424c-.212-2.756-.318-5.724-.318-11.554v-6.254a106.518,106.518,0,0,1,.424-11.66,121.556,121.556,0,0,1-12.3.424H1359.45v-4.134h17.066c4.982,0,8.8.212,12.72.53V-87.238a113.547,113.547,0,0,1-14.2.636H1307.3a125.86,125.86,0,0,1-14.2-.636V-72.5c3.922-.318,7.844-.53,12.826-.53h16.43V-68.9h-10.918c-5.3,0-8.586-.106-12.084-.424a116.529,116.529,0,0,1,.424,11.766v6.36a110.02,110.02,0,0,1-.424,11.342c3.6-.318,6.89-.424,12.3-.424h14.31c-1.06,2.12-1.378,2.544-2.332,4.24Zm45.368,13.25a26.414,26.414,0,0,1-5.724,6.89c-3.6-1.06-3.6-1.06-16.218-3.816,1.378-1.484,1.8-1.908,2.756-3.074ZM1337.4-73.034h7V-68.9h-7Zm-15.052,14.84v7.314h-6.89v-7.314Zm15.052,0h7v7.314h-7Zm22.048,0h7.208v7.314h-7.208ZM1502.02,9.222a130.71,130.71,0,0,1-.636-14.84V-74.094a112.308,112.308,0,0,1,.53-12.508,105.841,105.841,0,0,1-12.4.53H1420.4a105.838,105.838,0,0,1-12.4-.53,114.7,114.7,0,0,1,.53,12.508V-5.618a124.4,124.4,0,0,1-.636,14.84h16.748V3.816h60.738V9.222Zm-16.854-34.344a48.192,48.192,0,0,1-11.236-7.738,28.855,28.855,0,0,1-8.586-12.4h7.632a73.159,73.159,0,0,1,9.434.424V-59.89a51.3,51.3,0,0,1-9.434.53h-10.282c-.106-1.378-.106-2.12-.106-2.968a48.271,48.271,0,0,1,.424-7.1H1446.37a54.8,54.8,0,0,1,.424,7.208c0,.742,0,1.484-.106,2.862h-9.858a51.3,51.3,0,0,1-9.434-.53v15.052a66.144,66.144,0,0,1,9.434-.424h7.738c-3.074,9.328-9.54,16.218-19.928,21.306V-71.55h60.526Zm0,14.522h-8.586a71.9,71.9,0,0,1,8.586-11.766Zm-50.456,0a58.2,58.2,0,0,0,9.328-6.784,36.6,36.6,0,0,0,11.024-16.748c4.24,10.176,10.07,16.748,21.094,23.532Zm-10.07,0V-21.942a58.634,58.634,0,0,1,8.9,11.342Zm98.792-47.488c4.558-.954,5.088-.954,14.946-2.014,19.822-1.59,23.532-1.908,25.864-2.12l4.982-.53c-5.088,3.5-7.632,5.618-10.388,9.01a36.288,36.288,0,0,0-9.01,23.956c0,13.462,6.466,23.214,18.974,29.044,6.784,3.074,14.734,4.876,26.818,5.936a27.11,27.11,0,0,1,3.922.53l2.438-20.14c-1.59.106-2.332.106-3.18.106-6.678,0-16.006-1.7-20.246-3.816-6.042-2.862-8.9-7-8.9-13.144,0-8.692,6.254-17.6,16.854-24.062,7.314-4.558,16.854-7.42,24.274-7.42a16.12,16.12,0,0,1,2.968.212l-.954-19.186a8.939,8.939,0,0,1-2.438.424c-.53,0-1.166.106-4.77.212l-4.452.212-10.918.424c-20.14.742-30.422,1.272-45.686,2.226-11.554.742-15.37.954-18.126.954-.848,0-2.226,0-4.028-.106Zm63.918,9.222a65.911,65.911,0,0,1,10.282,15.688l10.176-4.664a68.331,68.331,0,0,0-10.282-15.37Zm14.84-6.254c3.6,4.134,6.254,8.162,10.07,15.264l9.858-4.558A73.259,73.259,0,0,0,1611.73-59.36Zm34.662-3.392c8.162-1.166,25.44-2.12,47.382-2.756a17.254,17.254,0,0,1,.106,2.544v3.286a23.939,23.939,0,0,0-8.268-1.166c-14.628,0-24.592,8.268-24.592,20.352,0,11.342,8.692,19.4,20.988,19.4,6.148,0,9.752-1.272,14.2-4.982-1.7,3.71-3.922,6.042-7.844,8.374-5.088,3.18-11.13,4.876-21.836,6.466,4.77,5.3,7.1,9.222,10.07,16.748,10.07-2.968,16.112-5.406,21.306-8.586,11.342-7.1,17.49-17.49,17.49-29.362,0-7.1-1.166-12.084-4.24-17.7V-61.586c4.24-.106,4.982-.106,10.6-.106,12.19,0,14.31.106,19.08.53l-.106-17.384c-4.24.424-12.084.636-29.68.742a71.741,71.741,0,0,1,.53-10.812H1683.28c.53,3.074.636,4.452.742,11.236-9.858.318-38.372,1.06-41.234,1.06-2.65,0-3.816-.106-6.466-.318Zm40.492,15.264c4.24,0,7,2.226,7,5.512,0,3.6-3.5,6.36-8.056,6.36-4.028,0-7-2.438-7-5.724C1669.288-40.7,1672.68-43.248,1677.344-43.248Zm83,12.72a20.131,20.131,0,0,0-20.14,20.14,20.268,20.268,0,0,0,20.14,20.14,20.131,20.131,0,0,0,20.14-20.14A20.131,20.131,0,0,0,1760.342-30.528Zm0,10.918a9.229,9.229,0,0,1,9.222,9.222,9.229,9.229,0,0,1-9.222,9.222,9.229,9.229,0,0,1-9.222-9.222A9.229,9.229,0,0,1,1760.342-19.61Z" transform="translate(63.5 2495.939)"></path><line id="&#x7DDA;_32" data-name="&#x7DDA; 32" x2="1578.585" transform="translate(170.5 2352.938)" fill="none" stroke="#000" stroke-width="5" stroke-dasharray="12 12"></line><line id="&#x7DDA;_33" data-name="&#x7DDA; 33" x2="1834.578" transform="translate(36.565 2539.475)" fill="none" stroke="#000" stroke-width="5" stroke-dasharray="12 12"></line></g></svg>