<svg xmlns="http://www.w3.org/2000/svg" xmlns:xlink="http://www.w3.org/1999/xlink" width="2857.402" height="219.082" viewBox="0 0 2857.402 219.082"><defs><linearGradient id="linear-gradient" x1="0.5" y1="0.246" x2="0.5" y2="1" gradientUnits="objectBoundingBox"><stop offset="0" stop-color="#4f3bf2"></stop><stop offset="1" stop-color="#2900ff"></stop></linearGradient><linearGradient id="linear-gradient-7" y1="0.754" y2="0" xlink:href="#linear-gradient"></linearGradient></defs><g id="&#x30B0;&#x30EB;&#x30FC;&#x30D7;_8942" data-name="&#x30B0;&#x30EB;&#x30FC;&#x30D7; 8942" transform="translate(-344.199 -6760.918)"><g id="&#x30B0;&#x30EB;&#x30FC;&#x30D7;_20918" data-name="&#x30B0;&#x30EB;&#x30FC;&#x30D7; 20918"><path id="&#x30D1;&#x30B9;_36616" data-name="&#x30D1;&#x30B9; 36616" d="M32.06-6.86a162.465,162.465,0,0,1-.84,18.48h19.6a158.751,158.751,0,0,1-.84-18.2V-17.22h49v7.84c0,3.22-.98,3.78-6.3,3.78A156.654,156.654,0,0,1,76.3-6.86,51.916,51.916,0,0,1,80.64,10.5c6.44.28,9.38.42,12.74.42,9.1,0,14.28-.7,17.36-2.52,4.2-2.24,6.16-6.3,6.16-12.46v-59.5a121.673,121.673,0,0,1,.7-15.82,129.954,129.954,0,0,1-14.56.56H55.58c2.66-4.2,3.64-5.74,5.88-9.8H116.9a144.389,144.389,0,0,1,17.08.84v-18.2a137.952,137.952,0,0,1-17.08.84H69.44a34.9,34.9,0,0,0,1.54-3.92,78.028,78.028,0,0,1,3.22-7.84l-20.58-2.24a72.219,72.219,0,0,1-3.78,14H24.36A146.253,146.253,0,0,1,7-105.98v18.2a146.973,146.973,0,0,1,17.22-.84H41.86C32.9-73.64,20.44-61.18,3.08-50.12,7.84-44.94,10.36-41.16,14-33.46a179.633,179.633,0,0,0,18.06-16.1ZM98.98-40.18v8.4h-49v-8.4Zm0-14.56h-49v-8.12h49Zm118.86,44.1A115.915,115.915,0,0,1,231.14-14l27.44-6.02V-4.9c0,8.82-.14,12.46-.84,17.22h19.88c-.7-4.9-.84-8.54-.84-17.08V-23.94c6.86-1.4,10.08-1.96,13.86-2.38L288.4-45.08a107.017,107.017,0,0,1-11.62,3.22v-59.22c0-8.4.14-12.18.84-16.94H257.74c.7,4.48.84,8.4.84,16.94v63.14l-29.96,6.3a82.437,82.437,0,0,1-13.3,1.96c1.4-2.8,1.96-3.78,4.2-7.7-8.12-6.44-13.58-12.04-17.64-18.34h4.2a61.669,61.669,0,0,1,11.2.7v-17.5c-2.94.56-5.32.7-10.92.7h-5.74v-8.96l11.34,6.16c4.06-8.68,6.44-15.4,10.5-30.38l-13.16-6.02c-2.38,11.62-4.06,17.08-8.68,29.26v-23.38a75.106,75.106,0,0,1,.7-12.88h-18.9a80.068,80.068,0,0,1,.7,13.02v33.18h-8.68c-6.58,0-9.52-.14-12.74-.7v17.5a76.115,76.115,0,0,1,12.88-.7h6.3C175-41.3,168.14-30.66,159.18-21.98A67.987,67.987,0,0,1,167.3-4.34c6.72-7.42,10.22-13.3,16.38-27.44-.28,3.92-.42,8.96-.42,14.28V-2.1a106.021,106.021,0,0,1-.84,14.56h18.9a94.965,94.965,0,0,1-.7-14.14v-21.7a118.163,118.163,0,0,0-.7-13.58c4.34,7.14,4.9,7.98,11.76,16.38,1.54-4.06,1.96-5.18,3.36-8.4Zm-57.26-94.08c3.78,8.96,6.02,16.94,8.26,29.96l13.02-6.16a180.271,180.271,0,0,0-8.4-30.1Zm62.02,7.98c12.88,9.52,14.56,11.06,24.36,21.28l11.2-13.86c-7.7-7.98-12.32-11.9-24.08-20.02Zm-4.34,34.58c9.94,7,14.84,11.34,24.36,21.42l11.06-13.44c-7.42-7.7-13.3-12.74-23.94-20.16Zm160.58-35c-.14,17.08-.42,23.66-1.68,34.58-1.68,16.52-4.76,30.24-8.96,41.02a144.921,144.921,0,0,0-3.08-18.76l-11.06,2.66a139.176,139.176,0,0,1,3.36,24.78l7.98-2.38c-2.94,5.74-5.18,8.96-10.36,15.12,7,4.9,9.66,7.42,13.86,12.74a98.268,98.268,0,0,0,9.94-15.96c5.6,6.16,7.14,8.26,10.92,15.68C400.82,5.88,407.82.7,414.82-6.72a119.04,119.04,0,0,0,21.42,18.76,85.876,85.876,0,0,1,9.52-18.06,102.753,102.753,0,0,1-19.88-15.26,99.307,99.307,0,0,0,7.56-14.84,217.324,217.324,0,0,0,8.12-28.7c.42-1.68.98-4.06,1.68-7.28l-6.3-6.72a60.213,60.213,0,0,1-8.12.42H424.9c1.54-5.18,3.78-15.26,5.18-22.26,1.96-9.52,1.96-9.52,2.8-13.44a111.739,111.739,0,0,1-13.3.56H383.04a128.9,128.9,0,0,1-17.08-.84v16.24l-13.02-7c-2.24,5.32-6.02,12.18-13.16,23.66a53.949,53.949,0,0,0-4.06-4.9c4.34-6.44,6.3-9.8,12.32-21.14,1.68-3.08,2.24-4.06,3.36-6.02l-15.96-5.88c-1.4,5.32-5.32,13.86-9.94,21.7-1.82-1.82-2.66-2.66-5.04-4.9l-7.84,14.84a160.594,160.594,0,0,1,18.06,20.3c-1.96,2.8-3.36,4.76-5.32,7.42h-4.34a69.5,69.5,0,0,1-7.56-.28l1.96,16.94a52.349,52.349,0,0,1,6.44-.84c1.82,0,2.52-.14,10.08-.56.84-.14,1.82-.14,3.22-.28v42c0,7.28-.14,10.64-.84,15.26H352.1c-.7-4.48-.84-7.7-.84-15.26V-46.34c1.82-.14,5.18-.56,9.94-1.12.42,1.82.56,2.38,1.12,4.9l12.46-5.6a161.079,161.079,0,0,0-10.64-29.26l-11.62,5.18A89.815,89.815,0,0,1,357-61.6c-4.34.42-6.72.56-14.28.98,4.48-5.6,9.24-12.46,16.66-23.8,7.28-11.06,7.28-11.06,8.12-12.32a92.272,92.272,0,0,1,9.38-.42Zm33.04,0c-3.36,16.66-5.46,25.06-8.82,35.28a47.637,47.637,0,0,1,6.86-.28H423.5c-2.38,12.04-4.48,17.92-9.1,26.74-9.94-14.56-17.5-32.48-19.88-46.9,0-5.88.14-10.92.14-14.84ZM391.16-45.78A122.689,122.689,0,0,0,403.9-21c-6.86,7.14-13.58,11.76-24.92,17.36,5.32-11.34,10.5-28.14,11.9-39.62Zm-73.08,6.44c-.42,15.68-2.24,27.02-5.6,37.38l13.16,6.3c3.08-12.04,4.76-24.08,5.6-41.86Zm226.52-49c5.6.7,8.96,1.82,13.02,4.48,9.52,6.3,14.98,16.8,14.98,29.26,0,14.84-7.28,27.86-19.32,34.44-6.58,3.5-15.26,5.74-27.72,6.72,5.46,7.28,7.42,11.06,10.36,19.88,9.94-1.68,15.54-3.08,22.26-5.74,22.4-8.82,35.14-28.56,35.14-54.04,0-32.76-22.4-53.76-57.54-53.76-20.02,0-37.24,7-49.28,20.16-10.22,11.06-15.68,25.62-15.68,41.58,0,24.08,12.32,41.02,29.68,41.02,12.04,0,21.28-8.26,29.12-26.04C536.9-46.62,541.8-65.24,544.6-88.34Zm-20.44.28c-1.68,14.98-6.02,32.62-11.2,45.08-4.48,11.34-8.82,16.8-12.88,16.8-5.46,0-9.94-8.54-9.94-19.04a45.9,45.9,0,0,1,17.22-35.84A31.46,31.46,0,0,1,524.16-88.06ZM739.34-49.42c1.68,0,1.82,0,5.18.14a151.328,151.328,0,0,1-.56-15.26V-98.42c0-8.4.14-12.6.56-15.54a101.193,101.193,0,0,1-12.88.56h-42c-7.14,0-10.22-.14-13.3-.7.42,5.6.56,8.96.56,15.12v90.3c-7.28,1.26-12.6,1.96-15.54,1.96l3.22,18.76c1.4-.42,2.94-.84,5.74-1.54l18.62-4.06c13.58-3.22,17.22-4.2,27.58-7.14l-.14-12.74a84.052,84.052,0,0,0,6.72,8.4,91.308,91.308,0,0,0,21.28,17.36c3.22-7.98,5.6-12.18,9.8-17.22-9.66-4.9-16.38-9.94-22.82-17.5,5.04-3.64,10.22-7.7,13.02-10.22,5.74-4.9,6.72-5.88,7.56-6.3Zm-5.04-.14h3.22c-2.38,3.08-7.84,7.98-14.84,13.3a55.013,55.013,0,0,1-4.2-13.3Zm-40.04,0h7.98c2.8,14,5.88,22.26,11.9,32.48a196.143,196.143,0,0,1-19.88,4.9Zm0-47.88h32.48v8.82H694.26Zm0,23.66h32.48v9.38H694.26ZM626.36-5.6a148.852,148.852,0,0,1-.84,17.5h19.04c-.56-5.74-.7-11.2-.7-17.5V-98h13.16c-4.34,14.14-6.3,19.46-11.76,29.96,4.9,5.74,6.72,8.68,8.54,13.16a35.4,35.4,0,0,1,2.94,14c0,4.2-1.54,5.46-6.44,5.46a40.118,40.118,0,0,1-5.04-.42c2.38,5.04,3.08,8.82,3.36,17.36,6.86-.14,12.18-.84,15.54-2.24,6.3-2.38,9.8-8.4,9.8-16.38,0-11.76-2.66-19.04-11.34-31.92,5.32-10.92,7.42-16.1,12.32-29.54.7-1.96,1.26-3.64,1.82-4.9l-8.68-11.48c-1.82.56-4.48.7-10.5.7H636.44a67.695,67.695,0,0,1-10.64-.56c.56,7.98.56,9.38.56,14.14Zm206.92-7.7c-8.82-3.92-13.72-8.26-19.18-17.36,2.1-6.86,3.92-13.3,5.6-20.3l-18.34-3.36c-.84,8.68-4.9,21.56-9.52,30.24A84.9,84.9,0,0,1,774.76-1.54a58.574,58.574,0,0,1,14.28,13.86A101.97,101.97,0,0,0,807.1-13.72,49.877,49.877,0,0,0,829.36,3.5c9.52,3.78,23.66,5.6,43.4,5.6,7.56,0,15.96-.14,28-.42a71.705,71.705,0,0,1,4.34-18.76C889.7-8.82,880.74-8.4,871.5-8.4a180.407,180.407,0,0,1-20.72-.98V-30.1h25.76a97.288,97.288,0,0,1,14.14.7V-46.9a91.578,91.578,0,0,1-14.14.7H850.78V-61.6h20.86a101.33,101.33,0,0,1,14.56.7V-71.4h15.68a78.535,78.535,0,0,1-.7-11.62V-95.06a85.73,85.73,0,0,1,.56-10.64c-5.46.42-10.5.56-16.1.56H848.82v-4.2a43.337,43.337,0,0,1,.7-8.82H829.36a44.761,44.761,0,0,1,.7,8.96v4.06H794.64c-5.6,0-10.64-.14-16.1-.56a88.732,88.732,0,0,1,.56,10.64v11.9a69.577,69.577,0,0,1-.7,11.76h15.96v10.5a102.525,102.525,0,0,1,14.56-.7h24.36Zm50.54-64.82c-3.5.28-7,.42-12.18.42H808.92c-5.32,0-8.82-.14-12.18-.42v-10.5h87.08Zm120.26-15.4v-8.82a86.6,86.6,0,0,1,.7-13.02H981.82a101.042,101.042,0,0,1,.7,13.16v8.68H956.2c-9.24,0-11.2-.14-16.1-.7.28,4.06.42,7.42.42,14.14v16.94c0,8.26-.14,12.04-.7,16.38h22.4c-.56-3.78-.7-7.84-.7-16.38v-11.9h64.54c-2.66,24.92-13.16,41.44-34.3,53.76-8.4,5.04-15.82,7.7-28.98,10.64,6.72,7.42,8.82,10.5,13.44,20.16,13.3-4.62,20.16-7.7,27.72-12.32,16.24-9.8,28.28-22.82,35.42-38.22,4.76-10.5,7.28-19.74,9.66-36.4.7-4.62.98-5.6,2.24-7.98l-9.38-9.52c-3.08,1.12-5.6,1.4-12.6,1.4Zm153.02,35.7h13.86a160.362,160.362,0,0,1,18.34.7V-75.6a115.549,115.549,0,0,1-18.34.98h-46.9a135.733,135.733,0,0,1-17.64-.84v18.34c4.62-.42,9.66-.7,17.78-.7h13.72v43.4h-22.54c-9.94,0-13.02-.14-17.64-.84V3.36c6.72-.7,7-.7,17.78-.7h63.28c8.82,0,14.42.28,19.32.7V-15.26c-5.6.7-9.8.84-19.18.84H1157.1Zm172.62-50.68c5.46,7.14,8.82,12.6,11.62,19.18l12.18-5.6c-3.92-8.26-5.74-11.2-11.76-18.76Zm16.52-7.28a92.08,92.08,0,0,1,11.62,18.76l11.9-5.74c-4.2-8.12-6.44-11.62-11.9-18.2Zm-69.58,23.66c0-9.52.14-12.6.84-17.5h-22.54a130.82,130.82,0,0,1,.84,17.36v61.32c0,17.64,1.68,24.08,7.84,28.56,6.02,4.34,15.54,6.02,34.16,6.02,10.78,0,27.3-.84,39.76-2.1,8.96-.84,11.2-1.12,14.14-1.12l-.84-22.12c-7.84,2.38-13.02,3.36-23.24,4.34a257.57,257.57,0,0,1-26.88,1.54c-12.18,0-19.74-1.12-21.84-3.22-2.1-1.96-2.24-3.36-2.24-14.56V-50.54a255.7,255.7,0,0,0,66.92-22.12,47.609,47.609,0,0,1,4.76-2.24l-13.16-18.76c-3.36,2.94-6.44,4.9-12.32,7.7-13.16,6.72-31.08,12.74-46.2,15.82Zm189.42,10.5c0-1.54,0-1.54.14-5.04,0-3.36,0-7.42.14-12.46.14-9.52.14-9.52.84-14.28h-22.96c.56,4.34.7,8.4.7,18.34,0,1.54,0,6.02-.14,13.44h-32.2c-11.2,0-13.86-.14-20.3-.98v21a186.738,186.738,0,0,1,19.88-.7h31.64c-1.12,13.16-2.66,19.04-6.58,26.32-6.3,11.34-16.38,19.46-33.6,26.74,7.7,6.44,10.22,9.38,15.54,18.2A154.987,154.987,0,0,0,1433.04.42a75.32,75.32,0,0,0,22.26-23.94c6.3-10.64,8.54-19.32,9.94-38.78h25.62a192.075,192.075,0,0,1,20.44.7v-21a148.678,148.678,0,0,1-20.72.98Zm78.68,39.76c5.46-.56,13.44-.84,25.62-.84h70.7c10.92,0,20.16.28,25.76.7V-64.96c-6.44.84-11.48.98-25.62.98h-70.84c-14.28,0-19.32-.28-25.62-1.12Zm158.06-.84c2.52.28,3.92.56,5.46.84,7.28,1.54,12.18,2.24,18.9,3.08-.42,6.02-.42,7.42-.42,10.92,0,14.14,4.76,23.52,14.98,29.82,6.44,4.06,16.1,6.3,26.6,6.3,13.16,0,24.08-3.22,32.48-9.66,8.68-6.44,13.86-16.52,13.86-26.6,0-11.06-3.5-19.88-12.18-30.66-7.98,2.8-11.48,3.5-20.72,4.06,7.98,7.7,12.18,15.82,12.18,23.52,0,12.74-9.52,20.02-26.18,20.02-7.28,0-12.6-1.68-16.38-4.9-3.22-2.94-4.76-7-4.76-13.16,0-2.66.14-5.74.42-8.4,4.9.14,6.02.14,7.56.14a174.345,174.345,0,0,0,21.56-1.4,37.368,37.368,0,0,1,4.48-.42l.42-19.18c-7.56,2.1-16.8,3.08-27.86,3.08-.98,0-2.66,0-4.9-.14.98-7.7,1.4-10.5,2.38-17.22h2.1a198.836,198.836,0,0,0,21.14-.84c8.12-.7,8.12-.7,10.22-.84l.7-19.6c-8.4,2.1-16.94,2.94-31.22,3.22,2.38-15.68,2.8-17.64,4.34-22.12l-22.12-1.96v1.68c0,4.62-.7,10.92-2.38,21.7-11.76-1.12-18.9-2.52-25.34-4.9l-1.54,18.48c2.1.28,2.8.42,4.9.84,10.5,2.24,13.02,2.66,19.74,3.36-1.4,8.82-1.4,8.82-2.38,17.08-12.88-1.68-17.92-2.66-24.5-5.18Zm185.22,12.04c-1.82,8.54-5.88,14.42-13.16,19.04-6.3,3.92-13.44,6.3-26.04,8.54a64.778,64.778,0,0,1,9.66,16.52c16.38-4.06,26.32-8.96,35-17.08,7.84-7.42,12.04-15.54,13.72-27.02h10.64v28c0,11.48,3.92,13.44,28.28,13.44,16.52,0,22.68-.98,26.46-4.48,4.2-3.64,5.46-8.54,7-25.76a62.84,62.84,0,0,1-17.08-6.72c-.28,8.96-.98,16.1-2.1,17.78-1.4,2.1-3.92,2.66-13.72,2.66-9.66,0-10.78-.42-10.78-4.06V-30.66h11.9a142.84,142.84,0,0,1,14.7.56,108.912,108.912,0,0,1-.7-15.12v-51.8a156.949,156.949,0,0,1,.7-16.8,136.054,136.054,0,0,1-14.7.56h-67.48a134.835,134.835,0,0,1-14.56-.56,156.909,156.909,0,0,1,.7,16.8v51.8a142.314,142.314,0,0,1-.7,15.12,134.016,134.016,0,0,1,14.84-.56Zm-4.06-66.78h60.2v7.56h-60.2Zm0,21.7h60.2v7.84h-60.2Zm0,21.98h60.2v7.98h-60.2Zm248.5-44.94a123.69,123.69,0,0,1-15.82.84H2092.3c1.26-4.34,2.24-7.98,3.22-12.18a60.015,60.015,0,0,1,1.54-6.16l-19.18-3.22c-.14,5.74-1.4,11.48-3.92,20.16-3.78,12.6-7.7,20.86-13.86,29.54a85.054,85.054,0,0,1-9.8.28h-14.98c.14-2.24.14-2.24.56-13.02h16.52c4.2,0,7.56.14,13.02.56V-99.4a90.147,90.147,0,0,1-13.58.7h-6.72v-7.42a58.3,58.3,0,0,1,.84-12.04h-19.74a60.747,60.747,0,0,1,.84,12.04v7.42h-8.26c-7,0-10.5-.14-14.7-.84v17.78a73.269,73.269,0,0,1,12.74-.7h1.4c-.28,19.18-.7,28.56-2.38,39.62-2.52,18.06-6.16,27.72-14.28,38.36,4.9,4.2,8.54,8.82,12.88,16.52,7.28-9.66,11.48-18.62,14.84-32.06,2.24-8.96,3.36-17.22,4.9-33.18h10.78v6.3c0,17.78-1.12,31.64-2.8,36.82-.98,2.8-2.24,3.5-6.44,3.5a48.529,48.529,0,0,1-9.38-1.12,55.552,55.552,0,0,1,3.08,17.5c3.92.28,7,.42,8.96.42,12.74,0,17.08-2.8,19.88-12.74a66.306,66.306,0,0,1,7.84,14.14,120.066,120.066,0,0,0,31.22-23.66c8.68,9.8,16.8,16.24,28.7,23.24a63.312,63.312,0,0,1,9.66-19.46c-11.34-5.6-18.2-10.5-26.46-19.18a92.118,92.118,0,0,0,10.64-26.74c1.96-8.54,2.66-13.58,3.5-27.44,4.48.14,6.02.28,9.1.56ZM2059.4-7.56c1.68-10.22,2.24-21.28,2.38-50.12a33.743,33.743,0,0,1,6.02,8.4c2.66-3.36,3.08-3.92,5.32-7a122.7,122.7,0,0,0,12.74,28.7A84.332,84.332,0,0,1,2059.4-7.56Zm46.48-74.06c-1.26,18.06-3.64,28.28-8.82,38.5a94.149,94.149,0,0,1-12.88-32.62c1.12-2.38,1.54-3.5,2.52-5.88Zm79.52,62.16a38.923,38.923,0,0,1-6.3-7.14c.42-5.04.56-7.28.7-10.22a23.377,23.377,0,0,1,.28-4.62l-15.68-2.24c.14,1.68.28,2.66.28,3.78a97.3,97.3,0,0,1-1.82,18.9,54.49,54.49,0,0,1-8.4,20.58c7.56,5.32,7.98,5.6,13.3,11.76,3.78-6.3,6.02-11.76,8.4-20.72A46.468,46.468,0,0,0,2200.1,6.3c9.38,2.52,23.38,3.5,49,3.5,8.12,0,31.64-.42,35.7-.7a68.065,68.065,0,0,1,4.76-18.34c-3.22.28-4.34.42-7.14.7a57.545,57.545,0,0,1,6.58-8.54c-8.4-2.8-14.28-5.88-19.74-10.36h.98c5.46,0,7.98.14,11.34.42a125.105,125.105,0,0,1-.56-13.16V-80.36c0-5.18.14-8.4.42-11.48a110.07,110.07,0,0,1-11.34.42h-10.78c1.26-2.66,2.38-5.32,3.22-7.56h10.5a128.811,128.811,0,0,1,13.58.7v-16.1c-3.36.56-7.7.84-15.4.84h-34.16a115.959,115.959,0,0,1-15.4-.7v15.82a136.452,136.452,0,0,1,13.72-.56h10.22a78.9,78.9,0,0,1-3.08,7.56h-5.32c-6.44,0-8.12,0-11.48-.42.28,3.64.42,6.72.42,11.34v42.28c0,4.34-.14,7.98-.42,11.2a89.48,89.48,0,0,1,9.52-.42c-5.04,5.18-11.06,8.68-20.02,11.9a58.469,58.469,0,0,1,7.56,8.12c-10.22-.56-15.54-1.26-20.86-2.8V-23.1h6.44a81.981,81.981,0,0,1,11.34.56V-38.36c-3.36.28-6.58.42-11.2.42h-6.58v-9.38h7.7a97.351,97.351,0,0,1,12.74.56V-63.14a61.874,61.874,0,0,1-11.06.7h-40.6c-7.14,0-9.52-.14-13.3-.7v16.38a101.678,101.678,0,0,1,13.3-.56h14.7Zm54.88-7.98h22.82l-8.82,6.16c6.58,6.72,10.08,9.52,17.08,13.58-11.34.42-21.42.7-28.7.7h-8.4a61.958,61.958,0,0,0,16.1-14.14Zm1.96-51.52h22.68v5.32h-22.68Zm0,16.8h22.68v5.32h-22.68Zm0,16.52h22.68v5.46h-22.68Zm-78.4-32.76c0,6.44-.14,8.12-.42,11.9,3.64-.28,7.28-.42,12.04-.42h30.24c4.62,0,8.26.14,12.04.42a112.12,112.12,0,0,1-.42-11.76v-24.22c0-6.3.14-8.4.42-11.9a115.682,115.682,0,0,1-12.32.42h-29.96a116.157,116.157,0,0,1-12.18-.42,92.572,92.572,0,0,1,.56,11.9Zm16.38-22.96h21v5.6h-21Zm0,16.8h21v5.88h-21ZM2385.6-29.54c-.14-3.5-.28-4.9-.28-6.44,0-1.68,0-1.68.42-10.22l2.38-46.06c.28-7.28.84-13.86,1.4-17.92h-27.3c.56,4.76,1.12,11.62,1.4,17.92L2366-46.2c.42,8.26.42,8.26.42,10.08,0,1.54-.14,3.08-.28,6.58Zm2.24,33.32V-18.9H2363.9V3.78Z" transform="translate(574 6928)" fill="#191722"></path><g id="&#x30B0;&#x30EB;&#x30FC;&#x30D7;_8870" data-name="&#x30B0;&#x30EB;&#x30FC;&#x30D7; 8870" transform="translate(-320.242 41.918)"><g id="&#x30B0;&#x30EB;&#x30FC;&#x30D7;_8867" data-name="&#x30B0;&#x30EB;&#x30FC;&#x30D7; 8867" transform="translate(711.49 6719)"><path id="slash-left" d="M30.371.265,137.053,214.486H119.984L.5.265Z" transform="translate(-0.5 -0.265)" fill="url(#linear-gradient)"></path><path id="slash-left-2" data-name="slash-left" d="M30.371.265,137.053,214.486H119.984L.5.265Z" transform="translate(-0.5 -0.265)" fill="url(#linear-gradient)"></path></g><g id="&#x30B0;&#x30EB;&#x30FC;&#x30D7;_8869" data-name="&#x30B0;&#x30EB;&#x30FC;&#x30D7; 8869" transform="matrix(0.985, 0.174, -0.174, 0.985, 680.003, 6826.111)"><path id="slash-left-3" data-name="slash-left" d="M29.871,0,136.553,89.62H119.484L0,0Z" transform="translate(0 0)" fill="url(#linear-gradient)"></path><path id="slash-left-4" data-name="slash-left" d="M29.871,0,136.553,89.62H119.484L0,0Z" transform="translate(0 0)" fill="url(#linear-gradient)"></path></g></g><g id="&#x30B0;&#x30EB;&#x30FC;&#x30D7;_8871" data-name="&#x30B0;&#x30EB;&#x30FC;&#x30D7; 8871" transform="translate(3018 6760.918)"><g id="&#x30B0;&#x30EB;&#x30FC;&#x30D7;_8867-2" data-name="&#x30B0;&#x30EB;&#x30FC;&#x30D7; 8867" transform="translate(0 0)"><path id="slash-left-5" data-name="slash-left" d="M107.181.265.5,214.486H17.569L137.052.265Z" transform="translate(-0.5 -0.265)" fill="url(#linear-gradient)"></path><path id="slash-left-6" data-name="slash-left" d="M107.181.265.5,214.486H17.569L137.052.265Z" transform="translate(-0.5 -0.265)" fill="url(#linear-gradient)"></path></g><g id="&#x30B0;&#x30EB;&#x30FC;&#x30D7;_8869-2" data-name="&#x30B0;&#x30EB;&#x30FC;&#x30D7; 8869" transform="matrix(-0.985, 0.174, -0.174, -0.985, 183.601, 195.37)"><path id="slash-left-7" data-name="slash-left" d="M29.871,89.62,136.552,0H119.483L0,89.62Z" transform="translate(0 0)" fill="url(#linear-gradient-7)"></path><path id="slash-left-8" data-name="slash-left" d="M29.871,89.62,136.552,0H119.483L0,89.62Z" transform="translate(0 0)" fill="url(#linear-gradient-7)"></path></g></g></g></g></svg>