<svg xmlns="http://www.w3.org/2000/svg" width="441.6" height="167.664" viewBox="0 0 441.6 167.664"><g id="&#x30B0;&#x30EB;&#x30FC;&#x30D7;_16155" data-name="&#x30B0;&#x30EB;&#x30FC;&#x30D7; 16155" transform="translate(-660 -338.335)"><g id="&#x30B0;&#x30EB;&#x30FC;&#x30D7;_6329" data-name="&#x30B0;&#x30EB;&#x30FC;&#x30D7; 6329" transform="translate(661 435.652)"><rect id="&#x9577;&#x65B9;&#x5F62;_1453" data-name="&#x9577;&#x65B9;&#x5F62; 1453" width="120" height="70" rx="10" transform="translate(0 0.347)" fill="#e2e2e2"></rect><path id="&#x30D1;&#x30B9;_24222" data-name="&#x30D1;&#x30B9; 24222" d="M30.272-14.5a33.588,33.588,0,0,1-4.608.224H6.4A36.361,36.361,0,0,1,1.76-14.5v3.712c1.248-.128,2.88-.224,4.64-.224H25.664a37.152,37.152,0,0,1,4.608.224Zm9.024-6.24H37.728a15.9,15.9,0,0,1-2.528-.192v2.944a17.033,17.033,0,0,1,2.528-.16H39.3v6.56a25.147,25.147,0,0,1-4.352,1.056l.608,3.008C35.68-7.584,36.928-8,39.3-8.8v7.552c0,.7-.192.864-.992.864a22.367,22.367,0,0,1-3.072-.224,8.964,8.964,0,0,1,.64,2.816c1.5.064,1.728.064,2.176.064,3.168,0,4.1-.608,4.1-2.688V-9.76c1.312-.48,1.76-.64,3.1-1.184l-.064-2.624c-1.5.576-1.984.736-3.04,1.088v-5.664h.384a21.06,21.06,0,0,1,2.56.128V-20.9a14.1,14.1,0,0,1-2.56.16h-.384v-2.752a22.746,22.746,0,0,1,.192-3.232H39.1a23.884,23.884,0,0,1,.192,3.264ZM52.8-17.28H48.576a28.824,28.824,0,0,1-3.456-.192v3.04a32.771,32.771,0,0,1,3.424-.16H52.8v4.7H48.512a15.855,15.855,0,0,1-2.272-.128c.064.864.1,1.664.1,2.624V-.7a31.025,31.025,0,0,1-.16,3.3h2.976V.928H59.424V2.592H62.5a30.129,30.129,0,0,1-.16-3.3V-7.328a20,20,0,0,1,.128-2.688,16.07,16.07,0,0,1-2.4.128H55.68v-4.7h5.184a29.379,29.379,0,0,1,3.488.192v-3.072a25.16,25.16,0,0,1-3.488.192H55.68V-22.3c2.752-.576,4.544-1.024,6.08-1.5.768-.224.768-.224,1.184-.352l-1.792-2.656a13.853,13.853,0,0,1-3.744,1.44,55.3,55.3,0,0,1-11.9,1.664,7.839,7.839,0,0,1,1.12,2.624c2.464-.224,3.552-.352,6.176-.736ZM49.184-7.328H59.456V-1.7H49.184Z" transform="translate(26 47.347)" fill="#8a8a8a"></path></g><g id="&#x30B0;&#x30EB;&#x30FC;&#x30D7;_6327" data-name="&#x30B0;&#x30EB;&#x30FC;&#x30D7; 6327" transform="translate(622 300)"><g id="&#x30B0;&#x30EB;&#x30FC;&#x30D7;_3222" data-name="&#x30B0;&#x30EB;&#x30FC;&#x30D7; 3222" transform="translate(4967 6383)"><rect id="&#x9577;&#x65B9;&#x5F62;_1453-2" data-name="&#x9577;&#x65B9;&#x5F62; 1453" width="119" height="69" rx="10" transform="translate(-4929 -6344)" fill="#9788fa"></rect><path id="&#x30D1;&#x30B9;_24221" data-name="&#x30D1;&#x30B9; 24221" d="M23.1-7.392v5.536c0,.7-.224.864-1.184.864a32.356,32.356,0,0,1-4.7-.384,11.577,11.577,0,0,1,.928,3.584c1.632.1,2.688.128,3.712.128,2.112,0,3.008-.16,3.712-.64.8-.512,1.152-1.44,1.152-3.04V-22.08a24.137,24.137,0,0,1,.16-3.616,28.843,28.843,0,0,1-3.712.16H9.824A32.286,32.286,0,0,1,6.08-25.7a45.1,45.1,0,0,1,.16,4.832c0,8.32-.32,12.064-1.28,15.04A12.116,12.116,0,0,1,1.536-.192,12.379,12.379,0,0,1,4.512,2.752,17.944,17.944,0,0,0,8.288-3.584a23.717,23.717,0,0,0,.928-3.808ZM9.6-10.656c.192-2.592.256-3.3.256-4.288H23.1v4.288Zm.288-7.552v-4H23.1v4Zm36.448-.768a10.156,10.156,0,0,1-1.472.064H42.3c.288-.512.288-.512.48-.9l.256-.512-2.976-.608c-.608,2.144-2.944,4.832-5.5,6.368a7.036,7.036,0,0,1,1.7,2.5,15.257,15.257,0,0,0,2.3-1.92,17.2,17.2,0,0,0,1.888,1.952,19.19,19.19,0,0,1-6.272,2.88,7.63,7.63,0,0,1,1.6,2.944c.672-.288.864-.384,1.408-.64.032.48.032.736.032,1.184V-.672a25.625,25.625,0,0,1-.16,2.976h3.3V.544h4.384v1.5h3.2c-.032-.416-.064-.9-.1-1.536a10.113,10.113,0,0,1,1.7,2.4,17.7,17.7,0,0,0,6.5-4.608L53.7-3.712h5.248L56.7-1.664a17.627,17.627,0,0,0,6.464,4.512,12.709,12.709,0,0,1,1.92-3.072c-3.2-1.28-4.032-1.76-5.888-3.488h1.088c.768,0,1.664.032,2.752.1-.064-1.152-.1-1.92-.1-3.3v-11.04c0-1.216.032-1.952.1-2.848a22.054,22.054,0,0,1-3.136.1H57.792a23.685,23.685,0,0,0,.8-2.24h2.272a24.78,24.78,0,0,1,3.36.16v-3.392a23.757,23.757,0,0,1-3.36.16H52.512a22.316,22.316,0,0,1-3.36-.16v2.048c-.48.032-1.056.064-2.368.064H44.16v-.64a8.468,8.468,0,0,1,.16-2.048H40.64a9.35,9.35,0,0,1,.16,2.016v.672H37.792a20.554,20.554,0,0,1-2.56-.1c.064.8.1,1.568.1,2.144v1.536a15.293,15.293,0,0,1-.128,2.048h3.168v-2.784h7.968Zm1.152.416h1.856a14.527,14.527,0,0,1-.1-2.144v-2.08a27.813,27.813,0,0,1,3.264-.16H55.3c-.224.7-.352,1.12-.8,2.24H52.64a25.432,25.432,0,0,1-2.688-.064c.1,1.568.1,1.568.1,3.008v11.2c0,.736-.032,2.176-.1,2.944q1.68-.1,2.5-.1h.96a11.8,11.8,0,0,1-2.5,2.176,11.323,11.323,0,0,1-3.1,1.568V-5.44c0-1.216,0-1.216.064-2.208l.928.288a10.4,10.4,0,0,1,1.12-2.88,24.643,24.643,0,0,1-5.088-1.92,27.128,27.128,0,0,0,3.3-4.48c.16-.224.192-.256.384-.512l.128-.16Zm-2.88,2.3a21.386,21.386,0,0,1-2.144,2.56A12.84,12.84,0,0,1,40.288-15.9a1.4,1.4,0,0,0,.288-.352ZM39.392-7.968a20.122,20.122,0,0,0,3.328-2.24A29.229,29.229,0,0,0,46.976-8c-.384.032-.576.032-1.248.032Zm.928,2.656h4.416v3.1H40.32ZM53.184-17.824h6.592v1.92H53.184Zm0,4.544h6.592v2.016H53.184Zm0,4.64h6.592v1.984H53.184Z" transform="translate(-4903 -6297)" fill="#fff"></path></g><g id="&#x30B0;&#x30EB;&#x30FC;&#x30D7;_3224" data-name="&#x30B0;&#x30EB;&#x30FC;&#x30D7; 3224" transform="translate(4968 6387)"><path id="&#x30D1;&#x30B9;_24220" data-name="&#x30D1;&#x30B9; 24220" d="M36.449-55.682h-32v-9.154H52.784L11.884,2.226,4.115-2.687ZM50.436-12.136l8.4,3.275L46.867,15.117l-6.383-2.646ZM104.147-18.1h6.887v8.9h-6.887V0H94.363V-9.2H62.533l41.614-60.469Zm-9.784,0v-21.71L79.414-18.1Zm38.552,8.9h24.146V0H113.515l22.508-27.253q3.317-4.073,5.564-7.055a53.625,53.625,0,0,0,3.422-5,14.045,14.045,0,0,0,2.394-7.1,10.114,10.114,0,0,0-3.191-7.6,10.955,10.955,0,0,0-7.895-3.065q-9.826,0-11.254,11.632h-9.742q2.352-20.492,20.7-20.492A20.911,20.911,0,0,1,150.888-60.3a18.277,18.277,0,0,1,6.047,13.941,21.179,21.179,0,0,1-2.813,10.372,50.814,50.814,0,0,1-4.178,6.278q-2.75,3.632-6.95,8.587Zm31.749-23.642q0-15.5,7.223-24.733,6.467-8.356,15.663-8.356t15.663,8.356q7.223,9.238,7.223,25.153,0,15.873-7.223,25.111Q196.747,1.05,187.593,1.05T171.887-7.307Q164.665-16.545,164.665-32.838Zm9.616.042q0,10.792,3.737,17.931,3.737,7.013,9.532,7.013,5.753,0,9.532-7.013,3.779-6.971,3.779-17.595T197.083-50.1q-3.779-6.971-9.532-6.971-5.711,0-9.49,6.971Q174.281-43.168,174.281-32.8Z" transform="translate(-4745 -6279)" fill="#333"></path><path id="&#x30D1;&#x30B9;_24219" data-name="&#x30D1;&#x30B9; 24219" d="M8.12-12.4h23.8v9.76c0,.96-.24,1.08-1.8,1.08-1.44,0-3.44-.16-6.08-.44a15.391,15.391,0,0,1,1.24,4.32c1.56.08,3.76.16,5.32.16a9.838,9.838,0,0,0,4.2-.56c1.16-.6,1.64-1.72,1.64-3.76V-27.48a39.365,39.365,0,0,1,.16-4.36,36.669,36.669,0,0,1-4.36.16H7.92a42.973,42.973,0,0,1-4.44-.16A34.462,34.462,0,0,1,3.64-28V-1.84a38,38,0,0,1-.24,4.8H8.32a29.4,29.4,0,0,1-.2-4.64Zm9.48-4.2H8.12V-27.44H17.6Zm4.32,0V-27.44h10V-16.6Z" transform="translate(-4525 -6282)" fill="#333"></path><g id="&#x30B0;&#x30EB;&#x30FC;&#x30D7;_3223" data-name="&#x30B0;&#x30EB;&#x30FC;&#x30D7; 3223"><path id="&#x30D1;&#x30B9;_11475" data-name="&#x30D1;&#x30B9; 11475" d="M13.25-24.149l2.98-1.29a27.366,27.366,0,0,1,1.628,2.593,12.858,12.858,0,0,1,1.112,2.5L15.8-18.919a14.208,14.208,0,0,0-1.018-2.528A26.45,26.45,0,0,0,13.25-24.149Zm11.006-1.366,3.7,1.215q-.8,1.407-1.614,2.757t-1.523,2.329l-3.037-1.132q.44-.72.913-1.615t.889-1.823A17.165,17.165,0,0,0,24.256-25.515ZM15.779-9.823h3.534a34.21,34.21,0,0,1-.5,3.919,14.164,14.164,0,0,1-1.109,3.457A10.292,10.292,0,0,1,15.619.466a11.616,11.616,0,0,1-3.465,2.272,7.484,7.484,0,0,0-.92-1.508A8.724,8.724,0,0,0,10.026-.108,9.408,9.408,0,0,0,12.91-1.854a7.335,7.335,0,0,0,1.672-2.259A10.474,10.474,0,0,0,15.415-6.8Q15.662-8.234,15.779-9.823Zm5.116-.424h3.474v8.308a2.77,2.77,0,0,0,.075.852q.075.162.36.162h.977a.373.373,0,0,0,.349-.243,3.47,3.47,0,0,0,.18-1.013q.063-.77.093-2.34a4.547,4.547,0,0,0,.879.551,10.125,10.125,0,0,0,1.146.486q.6.212,1.046.336a15.631,15.631,0,0,1-.508,3.32,3.021,3.021,0,0,1-1.04,1.659,2.979,2.979,0,0,1-1.75.477h-2a4.211,4.211,0,0,1-2.048-.4A2.089,2.089,0,0,1,21.153.578a9.589,9.589,0,0,1-.259-2.494Zm-4.165-6.1v4.086h7.448v-4.086Zm-3.42-3.14H27.763V-9.122H13.309Zm-7.77-3.2h3.5V2.665h-3.5Zm-4.32,5.645H12.24V-13.7H1.219ZM5.732-15.7l2.1.925Q7.4-13.17,6.8-11.431T5.489-7.991a34.914,34.914,0,0,1-1.526,3.2,18.212,18.212,0,0,1-1.685,2.6,12.443,12.443,0,0,0-.753-1.764q-.5-.982-.93-1.664A15.927,15.927,0,0,0,2.145-7.731Q2.9-8.946,3.589-10.318t1.238-2.754A27.637,27.637,0,0,0,5.732-15.7Zm4.481-9.477,2.412,2.773a33.2,33.2,0,0,1-3.361,1.057q-1.827.476-3.726.813t-3.661.583a7.65,7.65,0,0,0-.4-1.4,11.218,11.218,0,0,0-.6-1.358q1.663-.277,3.379-.648T7.516-24.2A24.432,24.432,0,0,0,10.213-25.179Zm-1.25,12.3q.277.223.833.78t1.2,1.206q.641.65,1.159,1.21t.735.813L10.83-6.042q-.27-.548-.7-1.269T9.2-8.818q-.5-.785-.974-1.489t-.831-1.167Z" transform="translate(-4784 -6318)" fill="#333"></path><path id="&#x30D1;&#x30B9;_11476" data-name="&#x30D1;&#x30B9; 11476" d="M12.133-24.23h6.334v3.4H12.133Zm4.531,0h3.767a57.96,57.96,0,0,0,.657,6.114,26.759,26.759,0,0,0,1.437,5.384A15.818,15.818,0,0,0,25.05-8.365,12,12,0,0,0,28.969-5.28a9.664,9.664,0,0,0-.957.777q-.533.483-1.027,1.009a10.927,10.927,0,0,0-.825.974,14.386,14.386,0,0,1-4.018-3.523,18.385,18.385,0,0,1-2.629-4.7,29.8,29.8,0,0,1-1.53-5.611,58.054,58.054,0,0,1-.734-6.272h-.584Zm-.108,6.259,3.708.524A30.024,30.024,0,0,1,17.227-8.61,17.863,17.863,0,0,1,11.839-2.5a8.92,8.92,0,0,0-.751-.865q-.5-.518-1.046-1.036a9.244,9.244,0,0,0-.972-.818,13.522,13.522,0,0,0,4.958-5.158A23.655,23.655,0,0,0,16.556-17.97ZM8.316-13.8V-2.73H4.8v-7.739H1.316V-13.8Zm0,9.5a5.431,5.431,0,0,0,2.6,2.171,11.774,11.774,0,0,0,4.01.79q1.327.053,3.147.068t3.833-.023q2.012-.038,3.941-.118t3.444-.21a11.59,11.59,0,0,0-.439,1.086q-.239.668-.424,1.351t-.286,1.231q-1.367.077-3.093.119t-3.557.057q-1.832.015-3.552-.012t-3.071-.08a15.322,15.322,0,0,1-4.713-.855A8.291,8.291,0,0,1,6.726-1.21Q5.743-.347,4.709.542T2.445,2.4L.675-1.343Q1.7-1.966,2.84-2.729T5.032-4.3ZM1.354-22.627,4.02-24.782q.916.607,1.888,1.4t1.81,1.616a12.9,12.9,0,0,1,1.355,1.526L6.206-17.861a10.245,10.245,0,0,0-1.243-1.553q-.8-.85-1.751-1.7A23.066,23.066,0,0,0,1.354-22.627Z" transform="translate(-4784 -6284)" fill="#333"></path></g></g></g><g id="&#x30B0;&#x30EB;&#x30FC;&#x30D7;_6328" data-name="&#x30B0;&#x30EB;&#x30FC;&#x30D7; 6328" transform="translate(808.455 418.786)"><path id="&#x30D1;&#x30B9;_24225" data-name="&#x30D1;&#x30B9; 24225" d="M16.26-38.848H8.438l3.75-6.387h10.9V0H16.26Zm38.235,0H32.17v-6.387H65.891L37.356,1.553l-5.42-3.428ZM74.126-23.525a11.118,11.118,0,0,1-4.98-9.58,12.336,12.336,0,0,1,3.779-9.2A13.062,13.062,0,0,1,82.387-46,12.826,12.826,0,0,1,91.762-42.3a12.359,12.359,0,0,1,3.75,9.229,11.374,11.374,0,0,1-4.951,9.521,10.491,10.491,0,0,1,4.277,4.277,12.682,12.682,0,0,1,1.582,6.328,13.169,13.169,0,0,1-3.926,9.844A13.775,13.775,0,0,1,82.446.732,14.415,14.415,0,0,1,72.1-3.135,12.8,12.8,0,0,1,68-12.861Q68-20.479,74.126-23.525Zm1.436-9.609a6.6,6.6,0,0,0,1.963,4.863,6.548,6.548,0,0,0,4.8,1.992A6.514,6.514,0,0,0,87.1-28.271,6.514,6.514,0,0,0,89.1-33.047,6.514,6.514,0,0,0,87.1-37.822a6.514,6.514,0,0,0-4.775-1.992,6.514,6.514,0,0,0-4.775,1.992A6.414,6.414,0,0,0,75.561-33.135ZM74.712-13.1A7.508,7.508,0,0,0,76.88-7.705a7.212,7.212,0,0,0,5.332,2.227,7.226,7.226,0,0,0,5.3-2.2,7.323,7.323,0,0,0,2.2-5.332,7.26,7.26,0,0,0-2.2-5.332,7.226,7.226,0,0,0-5.3-2.2,7.289,7.289,0,0,0-5.3,2.2A7.158,7.158,0,0,0,74.712-13.1ZM106.56-8.467l5.859,2.285-8.35,16.729L99.616,8.7ZM116.992-22.91q0-10.811,5.039-17.256Q126.543-46,132.959-46t10.928,5.83q5.039,6.445,5.039,17.549,0,11.074-5.039,17.52-4.512,5.83-10.9,5.83T122.031-5.1Q116.992-11.543,116.992-22.91Zm6.709.029a26.8,26.8,0,0,0,2.607,12.51q2.607,4.893,6.65,4.893,4.014,0,6.65-4.893a25.561,25.561,0,0,0,2.637-12.275,25.737,25.737,0,0,0-2.637-12.3q-2.637-4.863-6.65-4.863-3.984,0-6.621,4.863A24.972,24.972,0,0,0,123.7-22.881Zm27.922-.029q0-10.811,5.039-17.256Q161.174-46,167.59-46t10.928,5.83q5.039,6.445,5.039,17.549,0,11.074-5.039,17.52-4.512,5.83-10.9,5.83T156.662-5.1Q151.623-11.543,151.623-22.91Zm6.709.029a26.8,26.8,0,0,0,2.607,12.51q2.607,4.893,6.65,4.893,4.014,0,6.65-4.893a25.561,25.561,0,0,0,2.637-12.275,25.737,25.737,0,0,0-2.637-12.3q-2.637-4.863-6.65-4.863-3.984,0-6.621,4.863A24.972,24.972,0,0,0,158.332-22.881Zm27.922-.029q0-10.811,5.039-17.256Q195.805-46,202.221-46t10.928,5.83q5.039,6.445,5.039,17.549,0,11.074-5.039,17.52-4.512,5.83-10.9,5.83T191.293-5.1Q186.254-11.543,186.254-22.91Zm6.709.029a26.8,26.8,0,0,0,2.607,12.51q2.607,4.893,6.65,4.893,4.014,0,6.65-4.893a25.561,25.561,0,0,0,2.637-12.275,25.737,25.737,0,0,0-2.637-12.3q-2.637-4.863-6.65-4.863-3.984,0-6.621,4.863A24.972,24.972,0,0,0,192.963-22.881Z" transform="translate(29.545 76.214)" fill="#959595"></path><path id="&#x30D1;&#x30B9;_24218" data-name="&#x30D1;&#x30B9; 24218" d="M6.09-9.3H23.94v7.32c0,.72-.18.81-1.35.81-1.08,0-2.58-.12-4.56-.33a11.544,11.544,0,0,1,.93,3.24c1.17.06,2.82.12,3.99.12a7.379,7.379,0,0,0,3.15-.42c.87-.45,1.23-1.29,1.23-2.82V-20.61a29.524,29.524,0,0,1,.12-3.27,27.5,27.5,0,0,1-3.27.12H5.94a32.229,32.229,0,0,1-3.33-.12A25.847,25.847,0,0,1,2.73-21V-1.38a28.5,28.5,0,0,1-.18,3.6H6.24a22.052,22.052,0,0,1-.15-3.48Zm7.11-3.15H6.09v-8.13H13.2Zm3.24,0v-8.13h7.5v8.13Z" transform="translate(256.545 76.214)" fill="#959595"></path><g id="&#x30B0;&#x30EB;&#x30FC;&#x30D7;_3223-2" data-name="&#x30B0;&#x30EB;&#x30FC;&#x30D7; 3223" transform="translate(-0.459 25.346)"><path id="&#x30D1;&#x30B9;_24223" data-name="&#x30D1;&#x30B9; 24223" d="M4.011-12.2H2.667a8.838,8.838,0,0,1-1.68-.105v2.226a8.7,8.7,0,0,1,1.68-.105h1.05A17.665,17.665,0,0,1,2.5-7.266,14.931,14.931,0,0,1,.525-4.389,7.561,7.561,0,0,1,1.6-2.2a13.514,13.514,0,0,0,2.541-4.83c-.042.525-.126,2.184-.126,2.583V-.819a20.835,20.835,0,0,1-.126,2.583H6.321A16.726,16.726,0,0,1,6.195-.819v-4.2c0-.672-.063-1.89-.126-2.394A10.831,10.831,0,0,0,7.686-4.641a12.99,12.99,0,0,1,.756-1.638l.189-.378A9.7,9.7,0,0,1,6.405-9.891a1.815,1.815,0,0,1-.147-.294h.588a9.218,9.218,0,0,1,1.47.084v-2.184a8.888,8.888,0,0,1-1.47.084H6.195v-2.814a19.989,19.989,0,0,0,1.974-.714c.315-.147.336-.168.546-.252l-1.3-1.827a4.653,4.653,0,0,1-.9.483A19.22,19.22,0,0,1,1.008-16a6,6,0,0,1,.819,1.932c1.092-.168,1.47-.231,2.184-.378Zm6.552-1.239a13.6,13.6,0,0,1-1.68-.084c.042.483.063,1.029.063,1.533v3.78c0,.588-.021,1.092-.063,1.575a13.465,13.465,0,0,1,1.659-.084h.315c0,3.36-1.26,5.5-3.969,6.741A6.035,6.035,0,0,1,8.442,1.869,7.47,7.47,0,0,0,12.1-1.974a12.677,12.677,0,0,0,.987-4.746h1.323V-.252c0,1.386.5,1.785,2.31,1.785,1.974,0,2.646-.147,3.045-.714.378-.5.5-1.155.651-3.444a5.931,5.931,0,0,1-1.974-.945c-.042,2.9-.084,3-.945,3-.8,0-.9-.042-.9-.441V-6.72h.945a14.915,14.915,0,0,1,1.743.084,11.554,11.554,0,0,1-.084-1.554v-3.864a10.284,10.284,0,0,1,.084-1.47,14.458,14.458,0,0,1-1.743.084h-.651a29.1,29.1,0,0,0,1.743-3.507L16.3-17.7a17.559,17.559,0,0,1-1.7,4.263Zm.483,2.016h5.9v2.646h-5.9Zm2.184-3.045a18.343,18.343,0,0,0-1.743-3.255l-2.037.945a14.02,14.02,0,0,1,1.722,3.234Z" transform="translate(0.003 23.868)" fill="#959595"></path><path id="&#x30D1;&#x30B9;_24224" data-name="&#x30D1;&#x30B9; 24224" d="M11.865-14.763a15.459,15.459,0,0,1-.4,2.919,13.616,13.616,0,0,1-2.331,5A11.288,11.288,0,0,1,6.363-4.158,11.985,11.985,0,0,1,8.022-2.331a13.41,13.41,0,0,0,2.835-2.877,12.347,12.347,0,0,0,2.289-5.124A14.852,14.852,0,0,0,15.5-5.355a15.155,15.155,0,0,0,3.36,3.276,10.084,10.084,0,0,1,1.386-2.2,12.6,12.6,0,0,1-4.62-5.4,14.411,14.411,0,0,1-1.386-6.09c0-.357,0-.651.042-1.134a9.934,9.934,0,0,1-1.533.084h-3A9.313,9.313,0,0,1,8-16.926v2.268a10.626,10.626,0,0,1,1.743-.105ZM1.3-15.771A21.59,21.59,0,0,1,4.914-11.8l1.743-1.7a25.937,25.937,0,0,0-3.675-3.843ZM.987-7.455A7.741,7.741,0,0,1,2.415-7.56H3.7v4.515A13.361,13.361,0,0,1,.567-.987L1.6,1.407l.315-.252c.147-.126.273-.231.63-.5A19.044,19.044,0,0,0,4.7-1.218,5,5,0,0,0,7.371.756c1.092.357,2.793.483,6.237.483,1.449,0,4.494-.063,6.363-.126a11.478,11.478,0,0,1,.63-2.5,57.89,57.89,0,0,1-7.791.441c-3.612,0-4.7-.147-5.712-.777A2.634,2.634,0,0,1,5.9-3.066V-7.455a21.6,21.6,0,0,1,.084-2.31,9.1,9.1,0,0,1-1.6.105H2.667a9.392,9.392,0,0,1-1.68-.105Z" transform="translate(0.003 48.868)" fill="#959595"></path></g></g></g></svg>