<svg xmlns="http://www.w3.org/2000/svg" width="716.154" height="633.605" viewBox="0 0 716.154 633.605"><g id="&#x30B0;&#x30EB;&#x30FC;&#x30D7;_6" data-name="&#x30B0;&#x30EB;&#x30FC;&#x30D7; 6" transform="translate(-131 758)"><path id="&#x30D1;&#x30B9;_16" data-name="&#x30D1;&#x30B9; 16" d="M16.226-15.39v3.876H10.982A35.6,35.6,0,0,1,6.5-11.742v4.978a33.183,33.183,0,0,1,4.484-.228h5.244V-2.47H7.448A43.137,43.137,0,0,1,2.318-2.7V2.356a43.637,43.637,0,0,1,5.016-.228h23.18a45.869,45.869,0,0,1,5.13.228V-2.7a46.44,46.44,0,0,1-5.206.228h-9.12V-6.992h5.738a33.825,33.825,0,0,1,4.522.228v-4.978a32.419,32.419,0,0,1-4.484.228H21.318V-15.39H26.3a32.594,32.594,0,0,1,4.332.228v-2.622a31.759,31.759,0,0,0,4.1,2.052,21.883,21.883,0,0,1,2.622-5.13A32.17,32.17,0,0,1,28.2-25.384a26.121,26.121,0,0,1-6.688-6.384H16a24.842,24.842,0,0,1-6.308,6.5A33.625,33.625,0,0,1,.76-20.634a17.553,17.553,0,0,1,2.7,4.75,31.763,31.763,0,0,0,3.8-1.862v2.584A32.168,32.168,0,0,1,11.7-15.39Zm-5.472-4.484a28.727,28.727,0,0,0,8.132-7.562,31.755,31.755,0,0,0,8.322,7.562H10.754ZM44.8-21.128c1.444-.266,3.5-.532,5.586-.722,8.474-.646,8.664-.646,12.426-1.064C57.532-19.874,54.8-15.694,54.8-10.6a10.369,10.369,0,0,0,6,9.728C63.08.342,65.74.988,70,1.444a8.651,8.651,0,0,1,1.33.228l.8-6.156c-.456.038-.722.038-.95.038A24.8,24.8,0,0,1,65.55-5.32c-3.192-.912-4.94-2.964-4.94-5.776,0-3.5,2.584-6.992,6.878-9.462a17.509,17.509,0,0,1,8.094-2.318,4.185,4.185,0,0,1,.912.076l-.3-5.814a22.4,22.4,0,0,1-4.256.342c-10.45.456-16.986.76-19.608.95-5.4.342-5.624.342-6.346.342-.152,0-.608,0-1.482-.038Zm61.218-2.85a7.391,7.391,0,0,1,3.534,1.216,9.235,9.235,0,0,1,4.066,7.942,10.437,10.437,0,0,1-5.244,9.348,19.051,19.051,0,0,1-7.524,1.824,15.581,15.581,0,0,1,2.812,5.4A27.126,27.126,0,0,0,109.706.19c6.08-2.394,9.538-7.752,9.538-14.668,0-8.892-6.08-14.592-15.618-14.592A17.629,17.629,0,0,0,90.25-23.6a16.394,16.394,0,0,0-4.256,11.286c0,6.536,3.344,11.134,8.056,11.134,3.268,0,5.776-2.242,7.9-7.068A53.613,53.613,0,0,0,106.02-23.978Zm-5.548.076a48.922,48.922,0,0,1-3.04,12.236c-1.216,3.078-2.394,4.56-3.5,4.56-1.482,0-2.7-2.318-2.7-5.168A12.459,12.459,0,0,1,95.912-22,8.539,8.539,0,0,1,100.472-23.9ZM152.19-1.33V.95h6.08a36.867,36.867,0,0,1-.19-5.624V-23.826c0-1.634,0-1.634.114-4.142-1.026.076-2.7.114-4.75.114H136.762a37.353,37.353,0,0,1-5.966-.3v5.89a53.755,53.755,0,0,1,5.89-.19h15.5V-6.764H136.154a34.3,34.3,0,0,1-5.89-.3V-1.14c2.014-.152,2.964-.19,5.776-.19Zm17.442-10.032c1.482-.152,3.648-.228,6.954-.228h19.19c2.964,0,5.472.076,6.992.19v-6.232a49.888,49.888,0,0,1-6.954.266H176.586a47.465,47.465,0,0,1-6.954-.3Zm72.58,8.436c-6.5-6.194-7.448-7.03-12.35-10.526A49.524,49.524,0,0,0,235.6-23.788a6.247,6.247,0,0,1,1.254-2.128l-2.926-3.04c-.912.418-1.1.456-3.192.456l-12.958.228h-.722a28.3,28.3,0,0,1-4.636-.228l.076,5.776a34.231,34.231,0,0,1,5.32-.342l11.1-.19c-.874,1.938-1.52,3.306-2.014,4.142a35.072,35.072,0,0,1-9.956,10.982A34.336,34.336,0,0,1,208.506-3.5a17.185,17.185,0,0,1,3.648,5.054,43.72,43.72,0,0,0,14.174-10.6A67.674,67.674,0,0,1,237.614,2.014ZM255.4-20.292h-1.71a24.107,24.107,0,0,1-3.724-.19v4.9a24.714,24.714,0,0,1,3.724-.19h1.482v4.408h-.8a23.808,23.808,0,0,1-3.724-.19v4.826a19.868,19.868,0,0,1,3.268-.19h25.536l-3.8,1.824a40.881,40.881,0,0,1,4.6,8.132l4.332-2.7a46.533,46.533,0,0,0-4.864-7.258h.608a22.31,22.31,0,0,1,3.534.19v-4.826a21.361,21.361,0,0,1-3.61.19h-.532V-15.77h1.254a24.408,24.408,0,0,1,3.724.19v-4.9a24.107,24.107,0,0,1-3.724.19h-1.254v-4.332a29.665,29.665,0,0,1,3.572.228v-4.9a38.2,38.2,0,0,1-4.864.228H260.3c.532-.8.836-1.292,1.254-1.938a8.05,8.05,0,0,1,.646-1.026l-5.206-.836a12.28,12.28,0,0,1-.836,1.786c-1.482,2.47-3.42,4.408-6.878,6.8A20.325,20.325,0,0,1,252.4-20.9a24.759,24.759,0,0,0,3-2.47Zm4.218-4.332h2.47v4.332h-2.47Zm6.612,0h2.394v4.332h-2.394Zm-6.612,8.854h2.47v4.408h-2.47Zm6.612,0h2.394v4.408h-2.394Zm6.536,4.408V-15.77h2.508v4.408Zm0-8.93v-4.332h2.508v4.332Zm1.9,22.306a53.582,53.582,0,0,0-2.242-8.094l-4.446.988a47.753,47.753,0,0,1,1.71,8.17Zm-8.93.8a64.272,64.272,0,0,0-.95-8.588l-4.446.494a62.122,62.122,0,0,1,.456,6.916c0,.342,0,.874-.038,1.558Zm-12.046.494a25.224,25.224,0,0,0,4.9-8.132l-4.18-2.052A17.868,17.868,0,0,1,249.736.228ZM320.606-8.436V-2.2c0,.646-.228.8-1.406.8a21.587,21.587,0,0,1-3.078-.3,23,23,0,0,1,1.178,4.9c.988.038,1.6.038,1.976.038a9.647,9.647,0,0,0,4.37-.646c1.14-.608,1.672-1.862,1.672-3.876v-25a39.437,39.437,0,0,1,.152-4.408,29.625,29.625,0,0,1-4.294.19h-5.662a35.643,35.643,0,0,1-4.446-.19,46.176,46.176,0,0,1,.19,5.32c0,16.53-.494,20.824-2.85,24.13A18.3,18.3,0,0,1,305.1-5.7l-3.686,2.09a25.517,25.517,0,0,0,4.142,6.194A15.122,15.122,0,0,1,308.218.19a28.452,28.452,0,0,1,3,3.458c2.584-3.382,3.5-6,4.142-12.084Zm0-8.892v4.6h-4.94c.076-1.9.114-2.736.152-4.6Zm0-4.332h-4.75v-4.332h4.75Zm-26.334-6.422a10.5,10.5,0,0,1-2.622-.19v4.56a13.673,13.673,0,0,1,2.622-.152V-9.918h-.19a16.185,16.185,0,0,1-2.774-.152v4.522A16.885,16.885,0,0,1,294.2-5.7h2.356A17.965,17.965,0,0,1,291.194.038a22.83,22.83,0,0,1,3.458,3.534A25.8,25.8,0,0,0,300.466-3.5l-3.61-2.2h9.88a29.03,29.03,0,0,1,3.04.114V-10.07a17.387,17.387,0,0,1-1.9.152V-23.864a16.845,16.845,0,0,1,2.28.114v-4.522a12.923,12.923,0,0,1-2.28.19v-.608a16.738,16.738,0,0,1,.19-3.04h-4.788a21.654,21.654,0,0,1,.152,3.04v.608h-4.75v-.608a23.08,23.08,0,0,1,.152-3.04h-4.75a17.254,17.254,0,0,1,.19,3.04ZM298.68-9.918v-2.166h4.75v2.166Zm0-6v-2.166h4.75v2.166Zm0-5.966v-1.976h4.75v1.976Zm66.538,8.474c.456,0,.494,0,1.406.038a41.074,41.074,0,0,1-.152-4.142v-9.2a33.083,33.083,0,0,1,.152-4.218,27.466,27.466,0,0,1-3.5.152h-11.4a19.748,19.748,0,0,1-3.61-.19c.114,1.52.152,2.432.152,4.1v24.51a30,30,0,0,1-4.218.532l.874,5.092c.38-.114.8-.228,1.558-.418l5.054-1.1c3.686-.874,4.674-1.14,7.486-1.938l-.038-3.458a22.809,22.809,0,0,0,1.824,2.28,24.783,24.783,0,0,0,5.776,4.712,15.427,15.427,0,0,1,2.66-4.674,18.579,18.579,0,0,1-6.194-4.75c1.368-.988,2.774-2.09,3.534-2.774a21.426,21.426,0,0,1,2.052-1.71Zm-1.368-.038h.874a24.587,24.587,0,0,1-4.028,3.61,14.93,14.93,0,0,1-1.14-3.61Zm-10.868,0h2.166a25.189,25.189,0,0,0,3.23,8.816,53.238,53.238,0,0,1-5.4,1.33Zm0-13H361.8v2.394h-8.816Zm0,6.422H361.8v2.546h-8.816ZM334.552-1.52a40.407,40.407,0,0,1-.228,4.75h5.168c-.152-1.558-.19-3.04-.19-4.75V-26.6h3.572a39.434,39.434,0,0,1-3.192,8.132A11.633,11.633,0,0,1,342-14.9a9.608,9.608,0,0,1,.8,3.8c0,1.14-.418,1.482-1.748,1.482a10.89,10.89,0,0,1-1.368-.114,10.345,10.345,0,0,1,.912,4.712,12.549,12.549,0,0,0,4.218-.608c1.71-.646,2.66-2.28,2.66-4.446,0-3.192-.722-5.168-3.078-8.664a68.159,68.159,0,0,0,3.344-8.018c.19-.532.342-.988.494-1.33L345.876-31.2a10.957,10.957,0,0,1-2.85.19h-5.738a18.374,18.374,0,0,1-2.888-.152c.152,2.166.152,2.546.152,3.838Zm46.094-24.966c-2.47,0-3.154-.038-4.6-.152a24.972,24.972,0,0,1,.152,3.154v3.838a16.994,16.994,0,0,1-.19,3.04h4.94v-5.662h23.826v5.662h4.9a23.957,23.957,0,0,1-.19-3v-3.876a23.845,23.845,0,0,1,.152-3.154,46.611,46.611,0,0,1-4.712.152h-1.216a45.563,45.563,0,0,0,2.47-4.294l-4.9-1.178a23.94,23.94,0,0,1-2.774,5.472H395.77a33.285,33.285,0,0,0-2.432-5.662l-4.826,1.064a24.459,24.459,0,0,1,2.128,4.6h-3.306a33.617,33.617,0,0,0-3.23-5.244l-4.674,1.14a24.214,24.214,0,0,1,2.622,4.1Zm15.01,19.532h9.158a43.915,43.915,0,0,1,5.054.228V-11.7a36.157,36.157,0,0,1-5.016.266h-8.474a58.521,58.521,0,0,0,6.764-5.282c.418-.38.57-.532.988-.874l-2.432-2.7a18.007,18.007,0,0,1-2.926.152H386.764a37.972,37.972,0,0,1-3.952-.152v4.484a38.594,38.594,0,0,1,3.914-.152h9.158a17.923,17.923,0,0,1-3.5,2.47h-1.862a15.406,15.406,0,0,1,.114,2.052h-9.88A36.723,36.723,0,0,1,375.9-11.7v4.978a41.909,41.909,0,0,1,4.9-.228h9.842V-2.28c0,.684-.266.8-1.862.8-1.14,0-2.66-.114-4.674-.3A17.265,17.265,0,0,1,385.548,3c1.71.038,2.926.076,3.914.076,5.054,0,6.194-.722,6.194-4.028Zm54.91-20.406a33.5,33.5,0,0,1,.152-3.99,33.515,33.515,0,0,1-3.648.152h-8.056a37.086,37.086,0,0,1-4.446-.228v4.56a24.029,24.029,0,0,1,2.774-.152l-2.09,2.432a26.006,26.006,0,0,1,4.864,3.42,30.16,30.16,0,0,1-5.548,1.52l.95,2.926-2.052-.342a10.442,10.442,0,0,0,.152-1.976v-8.436a32.075,32.075,0,0,1,.114-3.952,24.767,24.767,0,0,1-3.914.19h-7.98a35.51,35.51,0,0,1-4.332-.228v4.6a18.392,18.392,0,0,1,3.382-.19l-2.242,2.47a22.524,22.524,0,0,1,4.712,3.344,34.389,34.389,0,0,1-6.232,1.862l1.482,4.446a8.982,8.982,0,0,1,1.786-.76c1.748-.684,2.926-1.14,4.94-2.052a11.508,11.508,0,0,1,.532,2.812c.8.038,1.9.076,2.736.076a13.366,13.366,0,0,0,2.736-.228c-.456.8-.608.988-.95,1.52H425.3c-2.242,0-2.926-.038-4.18-.114a40.32,40.32,0,0,1,.152,4.408v7.866a33.448,33.448,0,0,1-.228,4.636h5.016V1.71h16.53V3.23h5.054a33.579,33.579,0,0,1-.19-4.636v-7.9a32.365,32.365,0,0,1,.152-4.37c-1.178.076-1.9.114-4.218.114h-7.828c.57-.836.722-1.064,1.254-1.938A9.26,9.26,0,0,1,438.064-16c1.292-.494,2.052-.8,3.8-1.558a14.953,14.953,0,0,1,.456,2.66c1.14.038,2.28.076,2.85.076,2.584,0,3.762-.228,4.484-.836.722-.57.912-1.292.912-3.306Zm-24.13,3.116a28.1,28.1,0,0,0-4.332-2.812h7.03V-19.8c0,.722-.114.76-1.254.8l-.076-4.142c-2.014.95-2.736,1.254-3.876,1.71Zm16.492.076a26.388,26.388,0,0,0-4.408-2.888h7.486v7.3c0,.722-.076.76-1.254.8l-.076-4.18c-1.938.912-2.622,1.216-4.066,1.786ZM426.056-9.8h16.568v1.976H426.056Zm0,5.7h16.568v1.976H426.056Zm38.266-26.41a21.88,21.88,0,0,1,.152,2.85c0,1.14-.038,3.458-.152,8.7-.114,5.016-.152,7.486-.152,9.2a21.933,21.933,0,0,0,.57,5.434,8.716,8.716,0,0,0,3.42,4.6,13.268,13.268,0,0,0,7.03,1.71,14.892,14.892,0,0,0,11.628-4.864c1.976-2.2,3.154-4.788,4.674-10.222a20.775,20.775,0,0,1-5.548-3.458,24.446,24.446,0,0,1-1.6,6.612c-1.71,4.18-4.826,6.46-8.854,6.46-2.242,0-3.952-.684-4.75-1.9-.722-1.064-.912-2.356-.912-6.042,0-6.574.456-16.72.836-18.962ZM535.5-26.79a33.573,33.573,0,0,1-4.294.228H524.59c.342-1.178.608-2.166.874-3.306a16.28,16.28,0,0,1,.418-1.672l-5.206-.874a21.272,21.272,0,0,1-1.064,5.472,25.33,25.33,0,0,1-3.762,8.018,23.084,23.084,0,0,1-2.66.076h-4.066c.038-.608.038-.608.152-3.534h4.484c1.14,0,2.052.038,3.534.152v-4.75a24.468,24.468,0,0,1-3.686.19h-1.824V-28.8a15.823,15.823,0,0,1,.228-3.268h-5.358a16.487,16.487,0,0,1,.228,3.268v2.014H504.64a22.44,22.44,0,0,1-3.99-.228v4.826a19.888,19.888,0,0,1,3.458-.19h.38a74.008,74.008,0,0,1-.646,10.754c-.684,4.9-1.672,7.524-3.876,10.412a15.327,15.327,0,0,1,3.5,4.484,22.178,22.178,0,0,0,4.028-8.7,58.05,58.05,0,0,0,1.33-9.006h2.926v1.71c0,4.826-.3,8.588-.76,9.994-.266.76-.608.95-1.748.95a13.172,13.172,0,0,1-2.546-.3,15.08,15.08,0,0,1,.836,4.75c1.064.076,1.9.114,2.432.114,3.458,0,4.636-.76,5.4-3.458a18,18,0,0,1,2.128,3.838,32.589,32.589,0,0,0,8.474-6.422,29.57,29.57,0,0,0,7.79,6.308,17.184,17.184,0,0,1,2.622-5.282,22.678,22.678,0,0,1-7.182-5.206,25,25,0,0,0,2.888-7.258,38.146,38.146,0,0,0,.95-7.448c1.216.038,1.634.076,2.47.152ZM515.66-2.052c.456-2.774.608-5.776.646-13.6a9.159,9.159,0,0,1,1.634,2.28c.722-.912.836-1.064,1.444-1.9a33.3,33.3,0,0,0,3.458,7.79A22.889,22.889,0,0,1,515.66-2.052Zm12.616-20.1c-.342,4.9-.988,7.676-2.394,10.45a25.554,25.554,0,0,1-3.5-8.854c.3-.646.418-.95.684-1.6ZM549.86-5.282a10.566,10.566,0,0,1-1.71-1.938c.114-1.368.152-1.976.19-2.774a6.342,6.342,0,0,1,.076-1.254l-4.256-.608c.038.456.076.722.076,1.026a26.407,26.407,0,0,1-.494,5.13,14.79,14.79,0,0,1-2.28,5.586,13.573,13.573,0,0,1,3.61,3.192,19.726,19.726,0,0,0,2.28-5.624,12.613,12.613,0,0,0,6.5,4.256c2.546.684,6.346.95,13.3.95,2.2,0,8.588-.114,9.69-.19a18.474,18.474,0,0,1,1.292-4.978c-.874.076-1.178.114-1.938.19a15.626,15.626,0,0,1,1.786-2.318,15.844,15.844,0,0,1-5.358-2.812h.266c1.482,0,2.166.038,3.078.114a33.947,33.947,0,0,1-.152-3.572V-21.812c0-1.406.038-2.28.114-3.116a29.877,29.877,0,0,1-3.078.114h-2.926c.342-.722.646-1.444.874-2.052h2.85a34.962,34.962,0,0,1,3.686.19v-4.37a25.911,25.911,0,0,1-4.18.228h-9.272a31.476,31.476,0,0,1-4.18-.19v4.294a37.039,37.039,0,0,1,3.724-.152H566.2a21.427,21.427,0,0,1-.836,2.052H563.92a21.561,21.561,0,0,1-3.116-.114c.076.988.114,1.824.114,3.078v11.476c0,1.178-.038,2.166-.114,3.04a24.287,24.287,0,0,1,2.584-.114,13.42,13.42,0,0,1-5.434,3.23,15.869,15.869,0,0,1,2.052,2.2,24.079,24.079,0,0,1-5.662-.76v-3.5h1.748a22.253,22.253,0,0,1,3.078.152v-4.294c-.912.076-1.786.114-3.04.114h-1.786v-2.546h2.09a26.423,26.423,0,0,1,3.458.152v-4.446a16.793,16.793,0,0,1-3,.19H545.87a21.085,21.085,0,0,1-3.61-.19v4.446a27.6,27.6,0,0,1,3.61-.152h3.99Zm14.9-2.166h6.194l-2.394,1.672a18.464,18.464,0,0,0,4.636,3.686c-3.078.114-5.814.19-7.79.19h-2.28a16.818,16.818,0,0,0,4.37-3.838Zm.532-13.984h6.156v1.444h-6.156Zm0,4.56h6.156v1.444h-6.156Zm0,4.484h6.156v1.482h-6.156Zm-21.28-8.892c0,1.748-.038,2.2-.114,3.23.988-.076,1.976-.114,3.268-.114h8.208c1.254,0,2.242.038,3.268.114a30.435,30.435,0,0,1-.114-3.192v-6.574c0-1.71.038-2.28.114-3.23a31.4,31.4,0,0,1-3.344.114h-8.132a31.527,31.527,0,0,1-3.306-.114,25.133,25.133,0,0,1,.152,3.23Zm4.446-6.232h5.7v1.52h-5.7Zm0,4.56h5.7v1.6h-5.7Z" transform="translate(198 -721)" fill="#191722"></path><path id="&#x30D1;&#x30B9;_15" data-name="&#x30D1;&#x30B9; 15" d="M5.624-24.472a33.228,33.228,0,0,1,4.256-.266h1.672V-4.522a42.374,42.374,0,0,1-.3,5.32H18.2a37.911,37.911,0,0,1-.3-5.32v-19.57a52.572,52.572,0,0,1,.3-6.156,42.485,42.485,0,0,1-4.294.152H9.766a24.906,24.906,0,0,1-4.142-.228ZM39.558-9.5H38.114a35.074,35.074,0,0,1-4.332-.228v5.054A35.51,35.51,0,0,1,38.114-4.9h12.35V-.988a31.543,31.543,0,0,1-.228,4.408h5.51a26.07,26.07,0,0,1-.228-4.332V-4.9h8.36a34.847,34.847,0,0,1,4.294.228V-9.728a33.162,33.162,0,0,1-4.294.228h-8.36v-5.624H61.37a39.4,39.4,0,0,1,3.952.152v-4.712a40.126,40.126,0,0,1-4.142.152H55.518v-4.332h7.258a29.812,29.812,0,0,1,4.066.228v-4.94a24.184,24.184,0,0,1-4.066.228H45.524c.266-.608.418-.912.684-1.52.532-1.14.57-1.216.836-1.748l-5.4-.988a14.812,14.812,0,0,1-.95,2.736,23.314,23.314,0,0,1-7.334,9.158,22.016,22.016,0,0,1,3.306,4.218A32.7,32.7,0,0,0,39.482-19.3c.038.57.076,1.14.076,1.862Zm4.864,0v-5.624h6.042V-9.5Zm6.042-14.364v4.332H42.1c-.95,0-1.6-.038-2.356-.076a40.665,40.665,0,0,0,3.23-4.256Zm50.16,11.248c0-1.444.038-2.394.114-3.306-1.178.076-1.862.114-3.42.114h-9.2c-1.52,0-2.28-.038-3.42-.114.076.95.114,1.976.114,3.306v9.69c0,1.482-.038,2.85-.152,3.952h4.56v-1.9h8.018c.684,0,1.026,0,1.748.038a17.19,17.19,0,0,1,.8,3.61c2.052.076,2.166.076,2.736.076a12.319,12.319,0,0,0,4.6-.532c1.368-.608,1.862-1.748,1.862-4.294V-26.79c0-1.9.038-2.888.152-4.256a34.189,34.189,0,0,1-3.876.152H97.508a34.088,34.088,0,0,1-3.914-.152c.076,1.216.114,2.166.114,3.5v6.384c0,1.862,0,2.242-.076,3.382.874-.038,2.128-.076,3.306-.076h7.3V-2.7c0,.8-.266.95-1.6.95-.494,0-.988-.038-1.976-.114-.038-.76-.038-1.33-.038-2.166ZM98.23-27.4h6v1.558h-6Zm0,4.636h6V-21.2h-6ZM89.224-12.046h7.03v1.938h-7.03Zm0,5.51h7.03v1.9h-7.03ZM81.358-17.86h6.764c1.178,0,2.432.038,3.306.076-.076-.874-.076-1.52-.076-3.382V-27.55c0-1.52.038-2.394.114-3.5a31.307,31.307,0,0,1-3.876.152h-7.3a34.62,34.62,0,0,1-3.876-.152,42.009,42.009,0,0,1,.152,4.294v25a36.473,36.473,0,0,1-.228,4.9h5.244a35.811,35.811,0,0,1-.228-4.864Zm0-9.538h5.548v1.558H81.358Zm0,4.636h5.548V-21.2H81.358Zm41.458,2.47h-1.71a24.107,24.107,0,0,1-3.724-.19v4.9a24.714,24.714,0,0,1,3.724-.19h1.482v4.408h-.8a23.808,23.808,0,0,1-3.724-.19v4.826a19.868,19.868,0,0,1,3.268-.19H146.87l-3.8,1.824a40.88,40.88,0,0,1,4.6,8.132L152,.342a46.533,46.533,0,0,0-4.864-7.258h.608a22.31,22.31,0,0,1,3.534.19v-4.826a21.361,21.361,0,0,1-3.61.19h-.532V-15.77h1.254a24.409,24.409,0,0,1,3.724.19v-4.9a24.107,24.107,0,0,1-3.724.19h-1.254v-4.332a29.665,29.665,0,0,1,3.572.228v-4.9a38.2,38.2,0,0,1-4.864.228H127.718c.532-.8.836-1.292,1.254-1.938a8.05,8.05,0,0,1,.646-1.026l-5.206-.836a12.281,12.281,0,0,1-.836,1.786c-1.482,2.47-3.42,4.408-6.878,6.8a20.325,20.325,0,0,1,3.116,3.382,24.759,24.759,0,0,0,3-2.47Zm4.218-4.332h2.47v4.332h-2.47Zm6.612,0h2.394v4.332h-2.394Zm-6.612,8.854h2.47v4.408h-2.47Zm6.612,0h2.394v4.408h-2.394Zm6.536,4.408V-15.77h2.508v4.408Zm0-8.93v-4.332h2.508v4.332Zm1.9,22.306A53.581,53.581,0,0,0,139.84-6.08l-4.446.988a47.752,47.752,0,0,1,1.71,8.17Zm-8.93.8a64.269,64.269,0,0,0-.95-8.588l-4.446.494a62.119,62.119,0,0,1,.456,6.916c0,.342,0,.874-.038,1.558Zm-12.046.494a25.224,25.224,0,0,0,4.9-8.132l-4.18-2.052A17.868,17.868,0,0,1,117.154.228Zm46.4-26.448v2.66h-5.092a20.308,20.308,0,0,1-3.344-.19v4.788a28.687,28.687,0,0,1,4.028-.19H167.5v2.508H163.78a33.789,33.789,0,0,1-3.724-.152,31.279,31.279,0,0,1,.152,3.572v7.41a21.6,21.6,0,0,1-.19,3.648h4.788c-.076-1.026-.114-1.976-.114-3.572V-9.234H167.5V-.722a21.4,21.4,0,0,1-.228,4.066h4.94a24.984,24.984,0,0,1-.19-3.99V-9.234h2.7V-4.18c0,.456-.19.57-.836.57-.418,0-1.14-.038-1.672-.076A11.574,11.574,0,0,1,173.09.57c.836.038,1.1.038,1.672.038,3.344,0,4.256-.722,4.256-3.344v-7.638a24.392,24.392,0,0,1,.114-3.344,28.144,28.144,0,0,1-3.534.152h-3.572v-2.508h3.914a29.738,29.738,0,0,1,3.686.152v-4.712a30.27,30.27,0,0,1-3.5.152h-4.1v-2.66h3.04a34.1,34.1,0,0,1,3.762.152v-4.75a24.657,24.657,0,0,1-3.762.19h-3.04v-.95a19.847,19.847,0,0,1,.19-3.5h-4.94a20.854,20.854,0,0,1,.228,3.572v.874h-2.318c.228-.988.342-1.558.38-1.672.076-.494.266-1.254.342-1.558l-4.522-.76a10.19,10.19,0,0,1-.228,1.824,22.721,22.721,0,0,1-2.66,6.992,38.87,38.87,0,0,1,4.332,2.2c.532-1.254.684-1.634,1.064-2.622Zm13.186-6.042a25.754,25.754,0,0,1,.228,3.99V-9.8a22.72,22.72,0,0,1-.19,3.952h4.94a24.644,24.644,0,0,1-.152-3.952v-15.5a32.926,32.926,0,0,1,.152-3.876Zm7.03-2.66a35.777,35.777,0,0,1,.228,4.75V-2.66c0,.95-.3,1.14-1.748,1.14a41.382,41.382,0,0,1-4.712-.38,12.219,12.219,0,0,1,1.254,4.788c2.242.076,2.546.076,2.964.076a22.549,22.549,0,0,0,3.382-.228,4.318,4.318,0,0,0,2.66-1.064c.722-.684,1.026-1.672,1.026-3.61V-27.246a26.413,26.413,0,0,1,.228-4.6Zm44.916,18.43c.456,0,.494,0,1.406.038a41.078,41.078,0,0,1-.152-4.142v-9.2a33.086,33.086,0,0,1,.152-4.218,27.466,27.466,0,0,1-3.5.152h-11.4a19.748,19.748,0,0,1-3.61-.19c.114,1.52.152,2.432.152,4.1v24.51a30,30,0,0,1-4.218.532l.874,5.092c.38-.114.8-.228,1.558-.418l5.054-1.1c3.686-.874,4.674-1.14,7.486-1.938L226.4-3.648a22.813,22.813,0,0,0,1.824,2.28A24.784,24.784,0,0,0,234,3.344a15.427,15.427,0,0,1,2.66-4.674,18.58,18.58,0,0,1-6.194-4.75c1.368-.988,2.774-2.09,3.534-2.774a21.436,21.436,0,0,1,2.052-1.71Zm-1.368-.038h.874a24.587,24.587,0,0,1-4.028,3.61,14.932,14.932,0,0,1-1.14-3.61Zm-10.868,0h2.166a25.189,25.189,0,0,0,3.23,8.816,53.239,53.239,0,0,1-5.4,1.33Zm0-13h8.816v2.394H220.4Zm0,6.422h8.816v2.546H220.4ZM201.97-1.52a40.4,40.4,0,0,1-.228,4.75h5.168c-.152-1.558-.19-3.04-.19-4.75V-26.6h3.572a39.436,39.436,0,0,1-3.192,8.132,11.633,11.633,0,0,1,2.318,3.572,9.607,9.607,0,0,1,.8,3.8c0,1.14-.418,1.482-1.748,1.482a10.889,10.889,0,0,1-1.368-.114,10.345,10.345,0,0,1,.912,4.712,12.55,12.55,0,0,0,4.218-.608c1.71-.646,2.66-2.28,2.66-4.446,0-3.192-.722-5.168-3.078-8.664a68.162,68.162,0,0,0,3.344-8.018c.19-.532.342-.988.494-1.33L213.294-31.2a10.958,10.958,0,0,1-2.85.19h-5.738a18.374,18.374,0,0,1-2.888-.152c.152,2.166.152,2.546.152,3.838Zm71.25-13.908a20.367,20.367,0,0,0-3.192-5.13l-3.23,1.444a24.3,24.3,0,0,1,3.154,5.282Zm4.408-2.09a19.568,19.568,0,0,0-3.154-4.864l-3.154,1.368a25.212,25.212,0,0,1,3.078,5.092ZM243.77-21.2a54.731,54.731,0,0,1,5.586-.684c8.474-.646,8.626-.684,12.426-1.1-5.282,3.04-8.018,7.22-8.018,12.35a10.353,10.353,0,0,0,6,9.69c2.28,1.216,4.94,1.862,9.2,2.356a9.246,9.246,0,0,1,1.33.19l.8-6.156c-.456.038-.722.038-.95.038a24.8,24.8,0,0,1-5.624-.874c-3.192-.912-4.94-2.964-4.94-5.776,0-3.458,2.584-6.992,6.878-9.424a17.508,17.508,0,0,1,8.094-2.318,8.291,8.291,0,0,1,.912.038l-.3-5.814a22.4,22.4,0,0,1-4.256.342c-10.45.456-16.986.76-19.608.95-5.4.342-5.624.342-6.346.342-.152,0-.608,0-1.482-.038ZM307-26.752l.076-1.026c3.952-.152,3.952-.152,10.944-1.178L315.21-32.68a28.65,28.65,0,0,1-5.32,1.14c-1.52.19-5.092.418-6.384.418a7.633,7.633,0,0,1-1.216-.076,9.246,9.246,0,0,1,.114,1.444,19.752,19.752,0,0,1-.608,4.94,7.155,7.155,0,0,1-1.71,3.382,22.191,22.191,0,0,1,2.356,1.368h-4.75v-2.812h.684a17.511,17.511,0,0,1,2.584.152v-4.218a17.837,17.837,0,0,1-2.7.152h-7.144c0-.342.038-.494.038-.988a45.954,45.954,0,0,0,10.222-1.254l-2.66-3.724a17.019,17.019,0,0,1-4.142,1.064,55.3,55.3,0,0,1-6.84.57c-.266,0-.38,0-1.406-.038.038.456.114,1.33.114,1.634,0,5.016-.76,7.676-2.888,9.842a12.836,12.836,0,0,1,3.762,3.914,14.157,14.157,0,0,0,1.1-1.52v9.88c0,2.09-.038,3.382-.152,4.56A39.441,39.441,0,0,1,292.334-3h2.09C291.8-1.672,289.408-1.14,284.088-.76a16.874,16.874,0,0,1,2.356,4.484A33.583,33.583,0,0,0,299.25-.418L295.754-3h11.7l-3.42,2.356a25.813,25.813,0,0,0,5.244,2.508,38.514,38.514,0,0,0,7.79,1.862A17.457,17.457,0,0,1,319.314-.76C314.374-1.1,311.866-1.634,308.75-3h2.508a36.818,36.818,0,0,1,4.028.152,37.339,37.339,0,0,1-.152-4.37V-15.2a47.939,47.939,0,0,1,.152-4.978c-.722.038-.988.076-1.406.076v-2.774h2.242a16.546,16.546,0,0,1,2.85.19V-26.9a21.371,21.371,0,0,1-2.888.152Zm2.28,3.876v2.812h-4.028a16.7,16.7,0,0,0,1.1-2.812ZM293.17-20.064h-1.064c-.342,0-1.14,0-2.318-.038a21.956,21.956,0,0,0,.836-2.774h2.546Zm.076,3.534h17.062v1.444H293.246Zm0,4.256h17.062v1.444H293.246Zm0,4.294h17.062v1.406H293.246Zm38.95-9.614h6.764c1.14,0,2.242.038,3.306.076-.076-.8-.076-1.482-.076-3.382v-6.688c0-1.482.038-2.28.114-3.534a31.307,31.307,0,0,1-3.876.152h-7.3a34.62,34.62,0,0,1-3.876-.152,42.841,42.841,0,0,1,.152,4.332v25a36.477,36.477,0,0,1-.228,4.9h5.244a36.588,36.588,0,0,1-.228-4.864Zm0-9.842h5.548v1.672H332.2Zm0,4.826h5.548v1.672H332.2Zm27.588-4.256c0-1.938.038-3.04.152-4.256a34.188,34.188,0,0,1-3.876.152h-7.714a33.763,33.763,0,0,1-3.876-.152c.076,1.1.114,2.128.114,3.534V-20.9c0,1.748,0,2.432-.076,3.382.874-.038,2.128-.076,3.306-.076H355V-2.7c0,.76-.19.912-1.216.912a40.452,40.452,0,0,1-4.56-.3A16.011,16.011,0,0,1,350.436,2.7c2.546.114,2.926.114,3.458.114,4.864,0,5.89-.836,5.89-4.788Zm-10.678-.57H355v1.672h-5.89Zm0,4.826H355v1.672h-5.89Zm2.128,9.994c0-1.178.038-1.976.114-2.774-.836.076-1.71.114-3,.114H338.58c-1.216,0-2.052-.038-2.926-.114.076.836.114,1.71.114,2.812v8.512a36.885,36.885,0,0,1-.19,3.724h4.75v-2.7h8.17c1.14,0,1.9.038,2.85.114a26.447,26.447,0,0,1-.114-2.736Zm-10.906,1.368h6.308v4.1h-6.308ZM373.54-30.514a21.88,21.88,0,0,1,.152,2.85c0,1.14-.038,3.458-.152,8.7-.114,5.016-.152,7.486-.152,9.2a21.933,21.933,0,0,0,.57,5.434,8.716,8.716,0,0,0,3.42,4.6,13.268,13.268,0,0,0,7.03,1.71,14.892,14.892,0,0,0,11.628-4.864c1.976-2.2,3.154-4.788,4.674-10.222a20.777,20.777,0,0,1-5.548-3.458,24.445,24.445,0,0,1-1.6,6.612c-1.71,4.18-4.826,6.46-8.854,6.46-2.242,0-3.952-.684-4.75-1.9-.722-1.064-.912-2.356-.912-6.042,0-6.574.456-16.72.836-18.962Zm71.174,3.724a33.574,33.574,0,0,1-4.294.228h-6.612c.342-1.178.608-2.166.874-3.306a16.31,16.31,0,0,1,.418-1.672l-5.206-.874a21.272,21.272,0,0,1-1.064,5.472,25.33,25.33,0,0,1-3.762,8.018,23.085,23.085,0,0,1-2.66.076h-4.066c.038-.608.038-.608.152-3.534h4.484c1.14,0,2.052.038,3.534.152v-4.75a24.468,24.468,0,0,1-3.686.19H421V-28.8a15.826,15.826,0,0,1,.228-3.268h-5.358A16.487,16.487,0,0,1,416.1-28.8v2.014h-2.242a22.44,22.44,0,0,1-3.99-.228v4.826a19.888,19.888,0,0,1,3.458-.19h.38a74.008,74.008,0,0,1-.646,10.754c-.684,4.9-1.672,7.524-3.876,10.412a15.327,15.327,0,0,1,3.5,4.484,22.178,22.178,0,0,0,4.028-8.7,58.05,58.05,0,0,0,1.33-9.006h2.926v1.71c0,4.826-.3,8.588-.76,9.994-.266.76-.608.95-1.748.95a13.172,13.172,0,0,1-2.546-.3,15.08,15.08,0,0,1,.836,4.75c1.064.076,1.9.114,2.432.114,3.458,0,4.636-.76,5.4-3.458A18,18,0,0,1,426.7,3.154a32.588,32.588,0,0,0,8.474-6.422,29.569,29.569,0,0,0,7.79,6.308,17.184,17.184,0,0,1,2.622-5.282,22.678,22.678,0,0,1-7.182-5.206,25,25,0,0,0,2.888-7.258,38.146,38.146,0,0,0,.95-7.448c1.216.038,1.634.076,2.47.152ZM424.878-2.052c.456-2.774.608-5.776.646-13.6a9.16,9.16,0,0,1,1.634,2.28c.722-.912.836-1.064,1.444-1.9a33.305,33.305,0,0,0,3.458,7.79A22.891,22.891,0,0,1,424.878-2.052Zm12.616-20.1c-.342,4.9-.988,7.676-2.394,10.45a25.554,25.554,0,0,1-3.5-8.854c.3-.646.418-.95.684-1.6ZM459.078-5.282a10.566,10.566,0,0,1-1.71-1.938c.114-1.368.152-1.976.19-2.774a6.347,6.347,0,0,1,.076-1.254l-4.256-.608c.038.456.076.722.076,1.026a26.409,26.409,0,0,1-.494,5.13,14.79,14.79,0,0,1-2.28,5.586,13.573,13.573,0,0,1,3.61,3.192,19.726,19.726,0,0,0,2.28-5.624,12.613,12.613,0,0,0,6.5,4.256c2.546.684,6.346.95,13.3.95,2.2,0,8.588-.114,9.69-.19a18.473,18.473,0,0,1,1.292-4.978c-.874.076-1.178.114-1.938.19A15.624,15.624,0,0,1,487.2-4.636a15.844,15.844,0,0,1-5.358-2.812h.266c1.482,0,2.166.038,3.078.114a33.948,33.948,0,0,1-.152-3.572V-21.812c0-1.406.038-2.28.114-3.116a29.877,29.877,0,0,1-3.078.114h-2.926c.342-.722.646-1.444.874-2.052h2.85a34.962,34.962,0,0,1,3.686.19v-4.37a25.912,25.912,0,0,1-4.18.228H473.1a31.475,31.475,0,0,1-4.18-.19v4.294a37.038,37.038,0,0,1,3.724-.152h2.774a21.411,21.411,0,0,1-.836,2.052h-1.444a21.562,21.562,0,0,1-3.116-.114c.076.988.114,1.824.114,3.078v11.476c0,1.178-.038,2.166-.114,3.04a24.288,24.288,0,0,1,2.584-.114,13.42,13.42,0,0,1-5.434,3.23,15.867,15.867,0,0,1,2.052,2.2,24.079,24.079,0,0,1-5.662-.76v-3.5h1.748a22.253,22.253,0,0,1,3.078.152v-4.294c-.912.076-1.786.114-3.04.114h-1.786v-2.546h2.09a26.423,26.423,0,0,1,3.458.152v-4.446a16.794,16.794,0,0,1-3,.19h-11.02a21.086,21.086,0,0,1-3.61-.19v4.446a27.6,27.6,0,0,1,3.61-.152h3.99Zm14.9-2.166h6.194l-2.394,1.672A18.464,18.464,0,0,0,482.41-2.09c-3.078.114-5.814.19-7.79.19h-2.28a16.817,16.817,0,0,0,4.37-3.838Zm.532-13.984h6.156v1.444h-6.156Zm0,4.56h6.156v1.444h-6.156Zm0,4.484h6.156v1.482h-6.156Zm-21.28-8.892c0,1.748-.038,2.2-.114,3.23.988-.076,1.976-.114,3.268-.114h8.208c1.254,0,2.242.038,3.268.114a30.427,30.427,0,0,1-.114-3.192v-6.574c0-1.71.038-2.28.114-3.23a31.4,31.4,0,0,1-3.344.114H456.38a31.529,31.529,0,0,1-3.306-.114,25.121,25.121,0,0,1,.152,3.23Zm4.446-6.232h5.7v1.52h-5.7Zm0,4.56h5.7v1.6h-5.7Z" transform="translate(198 -656)" fill="#191722"></path><path id="&#x30D1;&#x30B9;_17" data-name="&#x30D1;&#x30B9; 17" d="M26.79-1.33V.95h6.08a36.867,36.867,0,0,1-.19-5.624V-23.826c0-1.634,0-1.634.114-4.142-1.026.076-2.7.114-4.75.114H11.362a37.353,37.353,0,0,1-5.966-.3v5.89a53.755,53.755,0,0,1,5.89-.19h15.5V-6.764H10.754a34.3,34.3,0,0,1-5.89-.3V-1.14c2.014-.152,2.964-.19,5.776-.19Zm22.952-23.9a106.628,106.628,0,0,1,21.47,4.37l1.748-5.472a124.465,124.465,0,0,0-21.2-4.066ZM49.21-14.706a88.44,88.44,0,0,1,9.918,1.634A65.518,65.518,0,0,1,69.844-9.956l1.672-5.51a114.261,114.261,0,0,0-20.292-4.37ZM46.056-3.952a112.37,112.37,0,0,1,12.16,2.128A74.209,74.209,0,0,1,71.972,2.432l1.862-5.776a119.7,119.7,0,0,0-25.65-5.814Zm62.852.114c.76-4.294,1.33-8.056,1.824-12.122a6.1,6.1,0,0,1,.684-2.546l-2.47-2.128a6.118,6.118,0,0,1-2.508.38h-9.2a28.72,28.72,0,0,1-4.484-.228v5.016a41.9,41.9,0,0,1,4.332-.152H105.3c-.38,3.762-.95,7.448-1.748,11.78H93.442a26.758,26.758,0,0,1-4.484-.228V.95C90.06.836,91.428.8,93.442.8h18.316c1.9,0,3.5.038,4.484.152V-4.066a25.977,25.977,0,0,1-4.446.228Zm23.256-16.986a50.468,50.468,0,0,1,5.51-.19h13.3a51.5,51.5,0,0,1,5.662.19V-26.79a37.209,37.209,0,0,1-5.776.266H137.75a37.053,37.053,0,0,1-5.586-.266ZM128.326-2.052c1.444-.114,3.382-.19,5.89-.19h20.178c2.964,0,4.37.038,6.042.19V-8.094a54.6,54.6,0,0,1-6.156.266H134.292a37.684,37.684,0,0,1-5.966-.266ZM196.954-14.82a49.193,49.193,0,0,1,5.51.19v-5.434a38.81,38.81,0,0,1-5.624.266H175.408a42.918,42.918,0,0,1-5.472-.266v5.472a40.917,40.917,0,0,1,5.4-.228h8.436A14.825,14.825,0,0,1,182.362-8.7c-1.558,3-4.37,4.978-9.082,6.422a15.167,15.167,0,0,1,3.762,5.054c4.978-2.014,7.752-4.028,9.766-7.22,1.786-2.736,2.66-5.89,2.964-10.374Zm-23.142-9.424a49.389,49.389,0,0,1,5.4-.19h13.87a42.757,42.757,0,0,1,5.548.19v-5.434a35.02,35.02,0,0,1-5.624.266H179.284a35.982,35.982,0,0,1-5.472-.266ZM235.828-25c-1.1,1.824-3.686,4.294-6.916,6.688a46.222,46.222,0,0,1-15.352,7.258,18.759,18.759,0,0,1,2.774,4.636c5.244-1.938,7.676-3,10.336-4.674v9.12a27.943,27.943,0,0,1-.228,4.408h5.814a31.921,31.921,0,0,1-.228-4.408v-12.35A46.625,46.625,0,0,0,239.1-20.52a9.871,9.871,0,0,1,1.292-1.292Zm19.95,1.558c.912-.076,1.254-.076,1.938-.114,2.508,0,5.244-.076,8.208-.152a8.479,8.479,0,0,1-1.064,1.938H257.3A36.193,36.193,0,0,1,252.662-22v4.56a43.971,43.971,0,0,1,4.712-.228h3.23a27.935,27.935,0,0,1-9.006,3.382,13.526,13.526,0,0,1,2.584,4.142c1.254-.418,1.786-.608,2.584-.874a9.4,9.4,0,0,1,2.052,3.686,35.9,35.9,0,0,0,15.466-6.536l-3.648-2.736A17.561,17.561,0,0,1,266.95-14.1c-2.85,1.52-5.358,2.28-9.956,3,4.75-1.786,7.638-3.61,10.412-6.574h4.864c3.192,3.952,7.752,6.764,13.528,8.436a13.592,13.592,0,0,1,2.166-4.6,27.525,27.525,0,0,1-6.118-1.71,12.705,12.705,0,0,1-3.686-2.128h4.332a37.021,37.021,0,0,1,4.636.228V-22a34.35,34.35,0,0,1-4.712.228H270.37c.3-.646.57-1.178.988-2.166,4.826-.266,4.826-.266,7.486-.532.532.608.532.608,2.128,2.47l4.066-2.394a58.735,58.735,0,0,0-8.284-7.486l-3.8,1.976c1.33,1.064,1.71,1.33,2.546,2.052-3.04.228-4.332.266-9.158.3.76-.836,1.558-1.9,2.318-2.888.646-.912.684-.988.836-1.178l-5.282-1.026a25.1,25.1,0,0,1-3.42,5.13c-2.736-.038-4.37-.114-5.586-.228Zm19.684,10.6a16.165,16.165,0,0,1-4.294,3A37.933,37.933,0,0,1,256.728-5.7a10.33,10.33,0,0,1,2.128,3.876,48.045,48.045,0,0,0,11.59-3.116,35.655,35.655,0,0,0,8.74-5.32Zm4.9,3.42a18.6,18.6,0,0,1-4.332,3.458C270.6-2.7,264.974-1.064,256.956-.494A13.414,13.414,0,0,1,259.312,3.8c6.992-.912,11.894-2.28,16.378-4.522,2.926-1.444,4.218-2.318,8.892-6.042Zm24.282-16.454c.152-5.358.152-5.358.3-6.27h-5.32a21.208,21.208,0,0,1,.228,3.458c0,1.786,0,1.786-.038,2.812h-1.368a27.929,27.929,0,0,1-4.18-.228v5.13a25.652,25.652,0,0,1,3.724-.19h1.634a47.529,47.529,0,0,1-1.824,11.02,24.306,24.306,0,0,1-4.56,8.588,20.5,20.5,0,0,1,3.686,4.712A32.417,32.417,0,0,0,302.366-7.79a60.3,60.3,0,0,0,2.09-13.376h2.85c-.076,5.586-.076,5.738-.228,9.082a48.253,48.253,0,0,1-.912,8.36c-.3,1.1-.608,1.368-1.52,1.368a20.8,20.8,0,0,1-3.458-.418,15.687,15.687,0,0,1,.874,4.788c1.52.152,2.774.228,3.686.228,3.154,0,4.446-1.064,5.168-4.256.722-3.23,1.064-8.588,1.178-17.214a54.328,54.328,0,0,1,.19-6.8c-1.216.114-2.394.152-4.37.152ZM318.82-.456h4.56v2.7h5.092a28.473,28.473,0,0,1-.228-4.446V-24.586a30.116,30.116,0,0,1,.19-3.99,29.329,29.329,0,0,1-3.534.152h-7.562a31.125,31.125,0,0,1-3.5-.152,29.768,29.768,0,0,1,.19,3.99V-2.014a34.7,34.7,0,0,1-.228,4.408h5.016Zm0-23.408h4.56V-4.978h-4.56Z" transform="translate(198 -591)" fill="#191722"></path><path id="&#x30D1;&#x30B9;_18" data-name="&#x30D1;&#x30B9; 18" d="M33.478-13.414c.456,0,.494,0,1.406.038a41.079,41.079,0,0,1-.152-4.142v-9.2a33.087,33.087,0,0,1,.152-4.218,27.466,27.466,0,0,1-3.5.152h-11.4a19.748,19.748,0,0,1-3.61-.19c.114,1.52.152,2.432.152,4.1v24.51a30,30,0,0,1-4.218.532l.874,5.092c.38-.114.8-.228,1.558-.418l5.054-1.1C23.484.874,24.472.608,27.284-.19l-.038-3.458a22.812,22.812,0,0,0,1.824,2.28,24.783,24.783,0,0,0,5.776,4.712,15.427,15.427,0,0,1,2.66-4.674,18.58,18.58,0,0,1-6.194-4.75c1.368-.988,2.774-2.09,3.534-2.774a21.433,21.433,0,0,1,2.052-1.71Zm-1.368-.038h.874a24.587,24.587,0,0,1-4.028,3.61,14.932,14.932,0,0,1-1.14-3.61Zm-10.868,0h2.166a25.189,25.189,0,0,0,3.23,8.816,53.239,53.239,0,0,1-5.4,1.33Zm0-13h8.816v2.394H21.242Zm0,6.422h8.816v2.546H21.242ZM2.812-1.52a40.4,40.4,0,0,1-.228,4.75H7.752C7.6,1.672,7.562.19,7.562-1.52V-26.6h3.572a39.435,39.435,0,0,1-3.192,8.132A11.633,11.633,0,0,1,10.26-14.9a9.607,9.607,0,0,1,.8,3.8c0,1.14-.418,1.482-1.748,1.482a10.889,10.889,0,0,1-1.368-.114,10.345,10.345,0,0,1,.912,4.712,12.55,12.55,0,0,0,4.218-.608c1.71-.646,2.66-2.28,2.66-4.446,0-3.192-.722-5.168-3.078-8.664A68.161,68.161,0,0,0,16-26.752c.19-.532.342-.988.494-1.33L14.136-31.2a10.958,10.958,0,0,1-2.85.19H5.548A18.374,18.374,0,0,1,2.66-31.16c.152,2.166.152,2.546.152,3.838ZM58.976-3.61A10.237,10.237,0,0,1,53.77-8.322c.57-1.862,1.064-3.61,1.52-5.51l-4.978-.912a25.387,25.387,0,0,1-2.584,8.208A23.044,23.044,0,0,1,43.092-.418a15.9,15.9,0,0,1,3.876,3.762,27.678,27.678,0,0,0,4.9-7.068A13.538,13.538,0,0,0,57.912.95c2.584,1.026,6.422,1.52,11.78,1.52,2.052,0,4.332-.038,7.6-.114A19.463,19.463,0,0,1,78.47-2.736c-4.18.342-6.612.456-9.12.456a48.968,48.968,0,0,1-5.624-.266V-8.17h6.992a26.407,26.407,0,0,1,3.838.19v-4.75a24.857,24.857,0,0,1-3.838.19H63.726v-4.18h5.662a27.5,27.5,0,0,1,3.952.19v-2.85H77.6a21.318,21.318,0,0,1-.19-3.154V-25.8a23.269,23.269,0,0,1,.152-2.888c-1.482.114-2.85.152-4.37.152H63.194v-1.14a11.763,11.763,0,0,1,.19-2.394H57.912a12.149,12.149,0,0,1,.19,2.432v1.1H48.488c-1.52,0-2.888-.038-4.37-.152A24.087,24.087,0,0,1,44.27-25.8v3.23a18.885,18.885,0,0,1-.19,3.192h4.332v2.85a27.828,27.828,0,0,1,3.952-.19h6.612ZM72.694-21.2c-.95.076-1.9.114-3.306.114H52.364c-1.444,0-2.394-.038-3.306-.114v-2.85H72.694Zm42.37,22c-.456-.95-1.14-2.622-1.862-4.56l-8.36-22.382A25.73,25.73,0,0,1,103.55-30.1H95.38a29.176,29.176,0,0,1-1.216,3.952L85.88-3.762A35.323,35.323,0,0,1,83.942.8h7.524A18.974,18.974,0,0,1,92.492-3.23l1.292-3.686H105.26l1.292,3.686A27.177,27.177,0,0,1,107.54.8Zm-11.4-13.072H95.38l3.572-10.754c.266-.76.3-.95.532-1.748.3,1.026.456,1.406.57,1.748ZM121.752-30.1a31.726,31.726,0,0,1,.3,5.244V-4.446a32.616,32.616,0,0,1-.3,5.244h6.992a32.021,32.021,0,0,1-.3-5.244V-24.852a31.435,31.435,0,0,1,.3-5.244ZM155.8-16.834v4.218h-5.054c-1.406,0-2.2-.038-3.116-.114.076.95.114,2.052.114,3.23V-.8c0,1.33-.076,3-.152,4.028h4.94V1.482h11.78V3.23h5.13a38.42,38.42,0,0,1-.19-3.99V-9.348a29.42,29.42,0,0,1,.152-3.382,29.878,29.878,0,0,1-3.078.114h-5.51v-4.218h6.194a32.835,32.835,0,0,1,4.37.228V-21.66a33.232,33.232,0,0,1-4.37.228h-6.194v-4.446c2.166-.342,6.27-1.064,7.562-1.406,1.33-.3,1.33-.3,2.052-.494l-3.268-4.484c-3.5,1.672-12.046,3-20.482,3.192a13.332,13.332,0,0,1,1.672,4.408c3.192-.152,4.408-.266,7.448-.608v3.838h-5.4a33.807,33.807,0,0,1-4.332-.228v5.054a37.08,37.08,0,0,1,4.37-.228Zm-3.23,8.626h11.78V-3.04H152.57Zm-15.5-20.254a44.805,44.805,0,0,1,6.916,5.282l2.964-3.914a48.146,48.146,0,0,0-6.84-4.94Zm-1.1,9.8a42.7,42.7,0,0,1,7.144,4.9l2.736-4.18a44.485,44.485,0,0,0-7.106-4.446Zm5.852,6.612c-1.938,5.434-3.686,8.892-5.738,11.4l4.37,3.534a65.078,65.078,0,0,0,5.358-12.16ZM198.74-8.36h8.132v5.7c0,.76-.3.912-1.786.912-1.14,0-2.774-.114-4.522-.266a16.653,16.653,0,0,1,1.292,4.674c1.178.076,3.078.152,4.142.152,4.522,0,5.814-.95,5.814-4.294v-24.89a45.556,45.556,0,0,1,.152-4.56,45.07,45.07,0,0,1-4.56.152h-21.7c-2.052,0-3.04-.038-4.446-.152a45.514,45.514,0,0,1,.19,5.016c0,16.872-.57,20.862-3.686,25.688a30.859,30.859,0,0,1,4.408,3.648c2.128-3.5,3.116-6.65,3.724-11.78h8.018v5.852a33.068,33.068,0,0,1-.228,4.636h5.244a35.989,35.989,0,0,1-.19-4.674Zm0-13.414v-4.332h8.132v4.332Zm-4.826,0H186.39v-4.332h7.524Zm4.826,4.446h8.132v4.484H198.74Zm-4.826,0v4.484H186.2c.076-2.014.114-2.85.114-4.484Zm46.474-8.056v-2.394a23.509,23.509,0,0,1,.19-3.534h-6.232a27.425,27.425,0,0,1,.19,3.572v2.356h-7.144a30.19,30.19,0,0,1-4.37-.19c.076,1.1.114,2.014.114,3.838v4.6a32.439,32.439,0,0,1-.19,4.446h6.08a30.433,30.433,0,0,1-.19-4.446v-3.23h17.518c-.722,6.764-3.572,11.248-9.31,14.592a23.863,23.863,0,0,1-7.866,2.888,17.909,17.909,0,0,1,3.648,5.472A35.235,35.235,0,0,0,240.35-.76a23.953,23.953,0,0,0,9.614-10.374,32.9,32.9,0,0,0,2.622-9.88,5.314,5.314,0,0,1,.608-2.166l-2.546-2.584a9.024,9.024,0,0,1-3.42.38Zm41.534,9.69h3.762a43.526,43.526,0,0,1,4.978.19V-20.52a31.363,31.363,0,0,1-4.978.266h-12.73a36.843,36.843,0,0,1-4.788-.228V-15.5c1.254-.114,2.622-.19,4.826-.19h3.724v11.78H270.6a28.2,28.2,0,0,1-4.788-.228V.912a32.426,32.426,0,0,1,4.826-.19h17.176c2.394,0,3.914.076,5.244.19V-4.142a37.785,37.785,0,0,1-5.206.228h-5.928ZM328.776-29.45a22.936,22.936,0,0,1,3.154,5.206l3.306-1.52a20.723,20.723,0,0,0-3.192-5.092Zm4.484-1.976a24.993,24.993,0,0,1,3.154,5.092l3.23-1.558a22.634,22.634,0,0,0-3.23-4.94ZM314.374-25a29.055,29.055,0,0,1,.228-4.75h-6.118a35.511,35.511,0,0,1,.228,4.712V-8.4c0,4.788.456,6.536,2.128,7.752C312.474.532,315.058.988,320.112.988c2.926,0,7.41-.228,10.792-.57,2.432-.228,3.04-.3,3.838-.3l-.228-6a27.863,27.863,0,0,1-6.308,1.178,69.913,69.913,0,0,1-7.3.418c-3.306,0-5.358-.3-5.928-.874-.57-.532-.608-.912-.608-3.952v-4.6a69.4,69.4,0,0,0,18.164-6,12.915,12.915,0,0,1,1.292-.608l-3.572-5.092a13.058,13.058,0,0,1-3.344,2.09,53.1,53.1,0,0,1-12.54,4.294Zm51.414,2.85c0-.418,0-.418.038-1.368,0-.912,0-2.014.038-3.382a20.774,20.774,0,0,1,.228-3.876H359.86a37.414,37.414,0,0,1,.19,4.978c0,.418,0,1.634-.038,3.648h-8.74a33.973,33.973,0,0,1-5.51-.266v5.7a50.686,50.686,0,0,1,5.4-.19h8.588c-.3,3.572-.722,5.168-1.786,7.144-1.71,3.078-4.446,5.282-9.12,7.258a15.613,15.613,0,0,1,4.218,4.94A42.067,42.067,0,0,0,356.82.114a20.444,20.444,0,0,0,6.042-6.5c1.71-2.888,2.318-5.244,2.7-10.526h6.954a52.134,52.134,0,0,1,5.548.19v-5.7a40.355,40.355,0,0,1-5.624.266Zm21.356,10.792c1.482-.152,3.648-.228,6.954-.228h19.19c2.964,0,5.472.076,6.992.19v-6.232a49.888,49.888,0,0,1-6.954.266H394.1a47.465,47.465,0,0,1-6.954-.3Zm64.942,1.634V.152c0,2.2.95,2.7,5.206,2.7,3,0,4.408-.342,5.054-1.216.76-.988,1.1-2.888,1.292-6.726a14.781,14.781,0,0,1-4.066-1.786,22.344,22.344,0,0,1-.342,4.788c-.114.38-.494.494-1.558.494-.684,0-.95-.152-.95-.532v-7.6h1.1c.684,0,2.774.076,3.572.114-.114-1.406-.152-2.166-.152-3.838V-27.284a31.065,31.065,0,0,1,.152-3.8c-1.026.076-1.558.114-3.648.114H446.234a28.8,28.8,0,0,1-3.686-.114,34.48,34.48,0,0,1,.114,3.8v13.832c0,1.368-.038,2.622-.076,3.838,1.748-.114,2.2-.114,3.5-.114a9.506,9.506,0,0,1-1.292,4.37,12.113,12.113,0,0,1-6.384,4.636,18.084,18.084,0,0,1,3,4.142,15.593,15.593,0,0,0,7.41-6.042c1.216-1.976,1.634-3.534,1.938-7.106Zm-4.75-17.214h9.234v2.014h-9.234Zm0,5.624h9.234V-19.3h-9.234Zm0,5.624h9.234v2.09h-9.234Zm-10.07,4.56a22.243,22.243,0,0,0,3.42,3.572,15.612,15.612,0,0,1,1.9-4.864,17.327,17.327,0,0,1-4.37-3.648,41.14,41.14,0,0,0,3.344-6.118,13.9,13.9,0,0,1,.874-1.824l-2.09-2.318a11.709,11.709,0,0,1-2.014.114h-1.064V-29.3a22.86,22.86,0,0,1,.19-2.964h-5.168a25.764,25.764,0,0,1,.19,2.926v3.116h-1.406a21.61,21.61,0,0,1-2.926-.152v4.826a30.154,30.154,0,0,1,3.23-.152h4.94a22.17,22.17,0,0,1-3.914,5.852,22.445,22.445,0,0,1-5.472,4.6,18.5,18.5,0,0,1,1.938,5.092,33.327,33.327,0,0,0,3.686-3.154V-.874a27.978,27.978,0,0,1-.228,4.18h5.13a30.783,30.783,0,0,1-.19-4.18Zm55.024,4.18c0-.722,0-.988.038-1.6a26.992,26.992,0,0,1,3.154,2.812l2.964-3.23a36.2,36.2,0,0,0-3.952-2.812h5.738c1.6,0,2.508.038,3.876.114a14.859,14.859,0,0,1-.152-2.546v-6.46a16.866,16.866,0,0,1,.152-2.584c-.988.076-2.166.114-3.648.114h-4.484v-1.9h5.282a35.5,35.5,0,0,1,3.876.152v-4.484a28.488,28.488,0,0,1-3.952.19h-5.206a16.6,16.6,0,0,1,.19-2.964H491.15c.114,1.026.152,1.6.19,2.964h-4.256a33.548,33.548,0,0,1-3.8-.152v-1.938a20.386,20.386,0,0,1-3.5.19h-6.726a15.712,15.712,0,0,1-3.42-.228v4.788a12.646,12.646,0,0,1,1.558-.152v20.33a14.306,14.306,0,0,1-1.938.228l.988,4.9c.646-.228.76-.266,1.254-.418,2.28-.608,4.294-1.178,6-1.71V-.95a38.9,38.9,0,0,1-.19,4.142h4.75a22.888,22.888,0,0,1-.19-3.762l2.812,1.862a28.514,28.514,0,0,0,3.116-9.234c.038.532.038.76.038,1.178V-.342c0,1.368.228,2.014.95,2.432.8.494,1.748.646,4.37.646,3.534,0,4.674-.19,5.434-.95.912-.874,1.33-2.242,1.52-5.358a48.813,48.813,0,0,1,1.52,4.788l4.066-2.2a44.645,44.645,0,0,0-3.61-8.626l-4.028,1.786a21.209,21.209,0,0,1,1.9,3.838,9.558,9.558,0,0,1-3.952-1.33c-.152,3.572-.228,3.686-1.976,3.686-1.52,0-1.748-.114-1.748-.722ZM475.456-26.676h2.166v3.686h-2.166Zm6.422,0c.684.038.684.038,1.064.038v1.748a32.107,32.107,0,0,1,3.876-.152h4.522v1.9h-4.37c-1.558,0-2.622-.038-3.686-.114a23.74,23.74,0,0,1,.114,2.508v6.612a24,24,0,0,1-.114,2.47c1.1-.076,2.2-.114,3.61-.114h4.218l-1.634,1.368c.646.38.836.494,1.33.8h-3.154a12.256,12.256,0,0,1,.152,1.406L483.968-9.69a19.909,19.909,0,0,1-2.09,7.258ZM475.456-19h2.166v3.5h-2.166Zm0,7.486h2.166v3.686c-1.178.342-1.254.342-2.166.57Zm11.856-7.752h2.052v3.61h-2.052Zm5.358,0h1.938v3.61H492.67Zm5.282,0h1.938v3.61h-1.938Z" transform="translate(198 -526)" fill="#191722"></path><path id="&#x30D1;&#x30B9;_19" data-name="&#x30D1;&#x30B9; 19" d="M25.46-15.846v-2.812h2.432a15.6,15.6,0,0,1,2.014.114V-22.99a11.368,11.368,0,0,1-2.128.152H25.46v-.57a10.207,10.207,0,0,1,.152-2.09h-4.56a10.689,10.689,0,0,1,.152,2.09v.57H18.81A10.349,10.349,0,0,1,16.8-22.99v4.484a11.4,11.4,0,0,1,2.014-.152H21.2v2.812h-.912a22.23,22.23,0,0,1-2.432-.114,18.407,18.407,0,0,1,.076,2.432v6.612a18.736,18.736,0,0,1-.076,2.432A23.236,23.236,0,0,1,20.292-4.6H26.41c1.178.038,1.9.076,2.166.076l.3.038a12.352,12.352,0,0,1-.114-2.508v-6.5a18.761,18.761,0,0,1,.076-2.47,24.542,24.542,0,0,1-2.47.114ZM21.7-11.932h3.268v3.458H21.7ZM11.552-1.672a37.8,37.8,0,0,1-.228,4.75h4.712V1.52h14.63V3.078h4.75a35.26,35.26,0,0,1-.228-5.168V-25.954c0-2.508.038-3.686.152-4.94a37.777,37.777,0,0,1-4.978.19H16c-1.824,0-2.926-.038-4.1-.114l.038-.076-4.94-1.748a22.858,22.858,0,0,1-1.368,5.168A24.483,24.483,0,0,1,.19-18.24a28.515,28.515,0,0,1,1.824,5.7,16.663,16.663,0,0,0,1.824-2.47c.114-.152.3-.456.532-.8-.038,1.9-.076,3.23-.076,4.066V-1.1a33.222,33.222,0,0,1-.228,4.408H9.31a35.113,35.113,0,0,1-.228-4.37V-23.446a51.9,51.9,0,0,0,2.394-6.232c.076,1.026.076,1.786.076,3.23Zm4.484-24.586h14.63v23.37H16.036ZM56.7-10.184a34.825,34.825,0,0,1-.532,7.258c-.152.646-.57.874-1.634.874a27.724,27.724,0,0,1-3.8-.342,15.213,15.213,0,0,1,1.178,4.978c1.52.114,2.47.152,3.23.152,3.572,0,4.826-.646,5.472-2.926.57-1.9.95-6.764.95-11.742a23.316,23.316,0,0,1,.114-2.812,32.6,32.6,0,0,1-3.648.19H52.9c.076-.912.076-1.292.114-3.192h3.648c2.242,0,3.686.038,5.016.152-.076-.874-.114-1.6-.114-4.18V-26.98a33.545,33.545,0,0,1,.19-4.218c-1.216.114-2.394.152-4.9.152H48.982c-2.28,0-3.61-.038-4.978-.152a36.189,36.189,0,0,1,.19,4.37v4.788A37.845,37.845,0,0,1,44-17.556a35.1,35.1,0,0,1,4.1-.19,38.145,38.145,0,0,1-.722,7.486c-.8,4.18-2.014,6.46-4.826,8.892a16.017,16.017,0,0,1,3.306,4.56A18.47,18.47,0,0,0,50.16-2.546,23.7,23.7,0,0,0,52.4-10.184ZM49.02-26.79h7.79v4.75H49.02Zm15.048-2.888a38.458,38.458,0,0,1,.19,4.75V-10.6a30.072,30.072,0,0,1-.19,4.484H69.2a33.619,33.619,0,0,1-.19-4.6V-24.928a38.458,38.458,0,0,1,.19-4.75Zm8.056-2.128c.152,1.71.228,3.572.228,5.358v23.18c0,.874-.418,1.14-1.862,1.14-1.254,0-2.85-.114-5.244-.342a21.15,21.15,0,0,1,1.52,5.054c1.558.038,2.2.076,3.04.076a16.332,16.332,0,0,0,5.434-.608c1.368-.494,1.976-1.862,1.976-4.408V-26.448c0-2.242.076-3.686.228-5.358ZM111-22.686c-.038.076-.038.076-.266.456a28.808,28.808,0,0,1-2.584,3.724,52.775,52.775,0,0,1-6.308,6.46A61.472,61.472,0,0,0,95-18.392l-4.408,3.154a59.927,59.927,0,0,1,7.6,7.448,65.281,65.281,0,0,1,7.334,9.728l4.826-3.8c-2.09-2.774-3.04-3.99-4.788-6.042a55.2,55.2,0,0,0,12.16-14.478,11.257,11.257,0,0,1,1.672-2.356l-3.116-3.5a8.55,8.55,0,0,1-2.888.342H92.72a38.9,38.9,0,0,1-5.89-.266v5.7a55.261,55.261,0,0,1,5.776-.19Zm18.43-1.558a40.148,40.148,0,0,1,9.994,7.866l3.838-4.978a53.242,53.242,0,0,0-10.108-7.372Zm1.824,25.308a13.865,13.865,0,0,1,1.9-.532c.722-.152.722-.152,1.672-.342a48.24,48.24,0,0,0,11.058-3.952c6.612-3.5,11.1-8.512,14.858-16.644a20.672,20.672,0,0,1-4.826-4.408,32.912,32.912,0,0,1-3.838,7.562A23.608,23.608,0,0,1,140.9-7.942,36.327,36.327,0,0,1,129.58-5.168ZM169.9-26.182a48.681,48.681,0,0,1,4.294,11.7l5.586-1.71a49.378,49.378,0,0,0-4.6-11.476Zm10.108-1.862a55.331,55.331,0,0,1,4.256,11.362l5.51-1.748a47.764,47.764,0,0,0-4.522-11.058Zm16.15-.57a28.38,28.38,0,0,1-1.786,8.854,23.59,23.59,0,0,1-6.536,10.412A28.873,28.873,0,0,1,177-2.736a16.974,16.974,0,0,1,3.99,5.13,39.174,39.174,0,0,0,11.628-8.056c4.294-4.56,7.22-10.45,8.778-17.9a26.937,26.937,0,0,1,.874-3.648Zm15.276,17.252c1.482-.152,3.648-.228,6.954-.228h19.19c2.964,0,5.472.076,6.992.19v-6.232a49.888,49.888,0,0,1-6.954.266H218.386a47.465,47.465,0,0,1-6.954-.3ZM278.2-22.686c-.038.076-.038.076-.266.456a28.808,28.808,0,0,1-2.584,3.724,52.775,52.775,0,0,1-6.308,6.46,61.473,61.473,0,0,0-6.84-6.346l-4.408,3.154a59.925,59.925,0,0,1,7.6,7.448,65.283,65.283,0,0,1,7.334,9.728l4.826-3.8c-2.09-2.774-3.04-3.99-4.788-6.042a55.2,55.2,0,0,0,12.16-14.478,11.256,11.256,0,0,1,1.672-2.356l-3.116-3.5a8.55,8.55,0,0,1-2.888.342H259.92a38.9,38.9,0,0,1-5.89-.266v5.7a55.261,55.261,0,0,1,5.776-.19Zm18.43-1.558a40.147,40.147,0,0,1,9.994,7.866l3.838-4.978a53.242,53.242,0,0,0-10.108-7.372Zm1.824,25.308a13.864,13.864,0,0,1,1.9-.532c.722-.152.722-.152,1.672-.342a48.24,48.24,0,0,0,11.058-3.952c6.612-3.5,11.1-8.512,14.858-16.644a20.672,20.672,0,0,1-4.826-4.408,32.913,32.913,0,0,1-3.838,7.562A23.608,23.608,0,0,1,308.1-7.942,36.327,36.327,0,0,1,296.78-5.168Zm50.388-24.7v-2.812a24.865,24.865,0,0,1,.19-4.18H343.1a32.318,32.318,0,0,1,.19,4.294v2.7h-1.786A31.981,31.981,0,0,1,336.3-23.9v5.548a45.349,45.349,0,0,1,5.092-.19h1.9v4.1a38.664,38.664,0,0,1-.19,4.446h5.89a28.49,28.49,0,0,1-.152-4.37v-4.18h9.006c-.038,2.166-.076,3-.114,3.762-.3,4.408-1.368,6.84-4.028,9.006-1.748,1.444-3.686,2.356-7.334,3.42a15.829,15.829,0,0,1,3.5,4.9,26.451,26.451,0,0,0,4.028-1.71,16.71,16.71,0,0,0,6.46-5.586,15.947,15.947,0,0,0,2.66-8.018,57.056,57.056,0,0,0,.266-5.776h2.128c2.2,0,3.762.076,5.092.19V-23.9a36.413,36.413,0,0,1-5.168.266h-2.014c.038-2.546.038-2.546.038-3.268a26.114,26.114,0,0,1,.152-3.686H357.77a33.944,33.944,0,0,1,.152,4.18v2.774ZM411.312-25a4.2,4.2,0,0,0,1.976-3.572,4.176,4.176,0,0,0-4.18-4.218,4.233,4.233,0,0,0-4.218,4.218,4.159,4.159,0,0,0,1.6,3.306H397.9v-1.482a35.539,35.539,0,0,1,.228-4.408H391.97a35.97,35.97,0,0,1,.228,4.408v1.482h-7.562a33.445,33.445,0,0,1-5.472-.266v5.51a48.835,48.835,0,0,1,5.472-.19H392.2V-2.888a46.91,46.91,0,0,1-.228,5.206h6.118c-.114-1.292-.19-3.192-.19-5.206V-20.216h7.942a36.908,36.908,0,0,1,5.472.228Zm-2.2-5.434a1.849,1.849,0,0,1,1.824,1.824,1.857,1.857,0,0,1-1.824,1.862,1.865,1.865,0,0,1-1.862-1.862A1.857,1.857,0,0,1,409.108-30.438ZM383.572-17.822a22.179,22.179,0,0,1-.912,4.332,29.178,29.178,0,0,1-5.282,10.374,20.673,20.673,0,0,1,5.244,2.774,32.374,32.374,0,0,0,3.344-5.966,43.418,43.418,0,0,0,2.47-7.41c.494-2.2.532-2.356.646-2.812Zm17.4,1.292a6.62,6.62,0,0,1,.418,1.216A53.471,53.471,0,0,0,407.512-.3a41.033,41.033,0,0,1,5.206-3.078,38.426,38.426,0,0,1-5.168-10.26A29.369,29.369,0,0,1,406.3-17.86Zm19.456,5.168c1.482-.152,3.648-.228,6.954-.228h19.19c2.964,0,5.472.076,6.992.19v-6.232a49.888,49.888,0,0,1-6.954.266H427.386a47.465,47.465,0,0,1-6.954-.3ZM475.684,2.014a47.021,47.021,0,0,1-.228-5.282V-14.212a13.035,13.035,0,0,0,1.444.684,83.451,83.451,0,0,1,12.73,6.916l3.116-5.472a91.575,91.575,0,0,0-17.29-7.98V-25.84a33.477,33.477,0,0,1,.228-5.092H469.49a33.175,33.175,0,0,1,.228,5.092v22.5a39.271,39.271,0,0,1-.228,5.358ZM516.8,3.8a27.108,27.108,0,0,1-4.1-7.6,25.065,25.065,0,0,1-1.178-7.942,26.294,26.294,0,0,1,1.254-8.284,25.984,25.984,0,0,1,4.1-7.562l-4.6-3.078c-2.812,3.876-3.99,6.042-5.054,9.272a29.856,29.856,0,0,0-1.52,9.424A30.686,30.686,0,0,0,508.136-.076a32.738,32.738,0,0,0,4.142,7.03Zm5.586-9.69c1.254-.114,2.546-.152,4.826-.152h10.6v2.28a25.794,25.794,0,0,1-.3,4.56h6.612a24.871,24.871,0,0,1-.3-4.484V-6h1.064a32.1,32.1,0,0,1,3.952.228v-5.852a23.376,23.376,0,0,1-3.952.3h-1.064V-23.712a63.485,63.485,0,0,1,.266-6.384h-6.422a38.635,38.635,0,0,1-3.306,4.37L525.73-15.39c-.722.836-1.824,2.128-3.344,3.838Zm15.5-5.4h-8.74l6.612-8.132c.988-1.216,1.748-2.166,2.318-3-.152,2.09-.19,3-.19,4.142Zm43.168-3.952c2.432,0,3.268.038,4.712.152V-19.95a35.927,35.927,0,0,1-4.826.228H569.05a18.106,18.106,0,0,0,.912-2.052c.722-1.786.76-1.9.988-2.356l-5.168-1.1a17.458,17.458,0,0,1-1.634,4.712,23.844,23.844,0,0,1-6.384,8.36,16.335,16.335,0,0,1,4.066,3.078,26.782,26.782,0,0,0,5.054-6.156h6.536c-.266,3.5-1.026,5.89-2.47,7.9-1.786,2.508-3.99,4.028-8.132,5.548a12.684,12.684,0,0,1,3.268,4.332c4.484-1.976,6.954-3.838,9.006-6.688,2.052-2.926,3.04-6.194,3.344-11.1Zm41.458,6.8v5.814c0,.722-.266.912-1.368.912a42.16,42.16,0,0,1-5.738-.456,17.649,17.649,0,0,1,1.33,5.054c1.862.076,3.192.114,4.37.114,2.774,0,4.028-.228,4.978-.836,1.1-.76,1.52-1.9,1.52-4.1v-24.4a40.525,40.525,0,0,1,.152-4.522,34.722,34.722,0,0,1-4.56.19H606.746a40.961,40.961,0,0,1-4.674-.19,52.5,52.5,0,0,1,.228,5.89c0,15.618-.912,19.608-5.4,24.282a21.774,21.774,0,0,1,4.18,4.18,22.514,22.514,0,0,0,5.51-11.932ZM607.126-13c.114-1.672.19-3.04.266-4.332h15.124V-13Zm.3-8.892v-3.99h15.086v3.99Zm30.552-5.7a25.986,25.986,0,0,1,4.1,7.562,26.126,26.126,0,0,1,1.254,8.284A24.9,24.9,0,0,1,642.162-3.8a26.4,26.4,0,0,1-4.142,7.6l4.56,3.154a34.411,34.411,0,0,0,4.142-7.03,29.923,29.923,0,0,0,2.432-11.932,29.622,29.622,0,0,0-1.52-9.386c-1.064-3.23-2.242-5.4-5.054-9.272Z" transform="translate(198 -461)" fill="#c1c1c1"></path><path id="&#x30D1;&#x30B9;_20" data-name="&#x30D1;&#x30B9; 20" d="M21.546-11.818l.076,8.854v.836a31.544,31.544,0,0,1-.228,4.408H27.55A45.07,45.07,0,0,1,27.284-3l-.19-16.53h2.812c2.166,0,3.914.076,5.244.19v-5.51a27.551,27.551,0,0,1-5.358.266H27.056l-.038-2.09V-28.12c0-1.026.038-1.748.114-2.85H21.166a30.751,30.751,0,0,1,.19,4.332l.038,2.014-12.35.038a36.568,36.568,0,0,1-5.472-.266v5.51a47.768,47.768,0,0,1,5.358-.19l8.93-.038a29.324,29.324,0,0,1-4.9,5.928A38.656,38.656,0,0,1,1.406-5.776a14.789,14.789,0,0,1,3.8,4.788A48.543,48.543,0,0,0,16.378-9.12a35.487,35.487,0,0,0,5.244-6.46c-.076,1.786-.076,2.888-.076,3.23Zm22.686.456c1.482-.152,3.648-.228,6.954-.228h19.19c2.964,0,5.472.076,6.992.19v-6.232a49.888,49.888,0,0,1-6.954.266H51.186a47.465,47.465,0,0,1-6.954-.3Zm71.1-15.048,1.444-.532a17.535,17.535,0,0,0-2.85-4.94l-3.306,1.1a21.813,21.813,0,0,1,2.128,3.534,9.733,9.733,0,0,1-1.482.114l-10.032.076c.38-.684.494-.95.836-1.634a18.763,18.763,0,0,1,.988-1.976l-5.814-1.216a22.352,22.352,0,0,1-2.2,5.32,32.861,32.861,0,0,1-9.5,10.868,14.918,14.918,0,0,1,4.6,3.648A41.229,41.229,0,0,0,98.914-22.23l11.134-.114a31.445,31.445,0,0,1-3.724,7.9,48.844,48.844,0,0,0-7.3-4.712L95.57-15.086a39.826,39.826,0,0,1,7.448,5.092,26.42,26.42,0,0,1-6,4.9A40.368,40.368,0,0,1,89.756-1.52a16.514,16.514,0,0,1,3.762,4.75,41.193,41.193,0,0,0,12.882-8.7c4.028-4.18,6.954-9.31,9.462-16.644.646-1.9.684-1.976,1.216-2.584Zm.114-5.624a22.5,22.5,0,0,1,2.736,5.016l3.268-1.33a19.623,19.623,0,0,0-2.774-4.788Zm10.488,20.672c1.482-.152,3.648-.228,6.954-.228h19.19c2.964,0,5.472.076,6.992.19v-6.232a49.888,49.888,0,0,1-6.954.266H132.886a47.465,47.465,0,0,1-6.954-.3ZM188.67-30.856c-.532,2.774-2.926,8.322-5.206,11.97a100.124,100.124,0,0,0-9.234-6.194l-3.99,3.952a79.17,79.17,0,0,1,10.032,6.84,39.863,39.863,0,0,1-4.446,4.712,40.219,40.219,0,0,1-10.07,6.612,15.38,15.38,0,0,1,3.952,4.75c6.536-3.648,11.172-7.524,14.858-12.388a59.927,59.927,0,0,1,7.486,7.942l4.37-4.6a83.137,83.137,0,0,0-8.436-8.056,63.865,63.865,0,0,0,5.282-10.6,24.254,24.254,0,0,1,1.406-2.926Zm45.486-.266c-1.14,1.9-3.686,4.446-7.03,7.03a56.162,56.162,0,0,1-20.026,9.88,18.811,18.811,0,0,1,3.078,5.168c6.878-2.546,9.044-3.534,13-5.89V-3.382a37.2,37.2,0,0,1-.228,5.51h6.27a47.385,47.385,0,0,1-.19-5.624V-18.468a64.294,64.294,0,0,0,8.892-7.752,12.908,12.908,0,0,1,1.444-1.368Zm35.264,3.99a26.009,26.009,0,0,1,3.382,5.624l3.306-1.634a22.417,22.417,0,0,0-3.382-5.434Zm4.522-2.014a29.092,29.092,0,0,1,3.344,5.4l3.306-1.634a25.05,25.05,0,0,0-3.458-5.244Zm-11.78,31.16a47.028,47.028,0,0,1-.228-5.282V-14.212a13.038,13.038,0,0,0,1.444.684,83.449,83.449,0,0,1,12.73,6.916l3.116-5.472a91.575,91.575,0,0,0-17.29-7.98V-25.84a33.477,33.477,0,0,1,.228-5.092h-6.194a33.177,33.177,0,0,1,.228,5.092v22.5a39.273,39.273,0,0,1-.228,5.358ZM305.1-18.924c0,.95,0,.95-.038,1.862h-6.878a23.874,23.874,0,0,1-3.5-.152v4.256a24.559,24.559,0,0,1,3.5-.152H304.8a15.87,15.87,0,0,1-.3,1.862h-9.652a26.764,26.764,0,0,1-4.028-.19v4.56a39.772,39.772,0,0,1,4.332-.228H302.9a10.911,10.911,0,0,1-4.522,3.762c-2.242,1.14-4.332,1.672-8.208,2.09a13.621,13.621,0,0,1,2.318,4.712A25.155,25.155,0,0,0,301.872.19a15.214,15.214,0,0,0,5.472-5.51A19.2,19.2,0,0,0,314.07.38a33.365,33.365,0,0,0,9.272,3.078,19.666,19.666,0,0,1,2.28-4.864c-5.244-.836-8.056-1.634-10.488-2.926a10.481,10.481,0,0,1-3.5-2.774h8.892a39.468,39.468,0,0,1,4.37.228v-4.56a28.2,28.2,0,0,1-4.142.19H309.434c.152-.836.19-1.14.266-1.862h7.562a24.622,24.622,0,0,1,3.458.152v-4.256a23.255,23.255,0,0,1-3.458.152h-7.334c0-.684,0-.684.038-1.862h7.524a27.38,27.38,0,0,1,3.534.152V-20.33H324.6a22.877,22.877,0,0,1-.152-2.888V-26.41A24.514,24.514,0,0,1,324.6-29.3c-1.33.114-2.356.152-4.37.152H310.08v-.608a14.206,14.206,0,0,1,.19-2.394H304.8a11.92,11.92,0,0,1,.19,2.432v.57h-9.576c-2.014,0-3.078-.038-4.37-.152a27.183,27.183,0,0,1,.152,2.964v3.116A15.7,15.7,0,0,1,291-20.33h3.572v1.558a25.488,25.488,0,0,1,3.572-.152Zm14.63-5.966v1.938c-.8.038-1.178.038-2.242.038H310a19.658,19.658,0,0,1,.038-1.976Zm-14.592,0v1.976h-6.992c-1.064,0-1.634,0-2.2-.038V-24.89Zm33.4,21.052c-.608.19-.608.19-1.33.38v-8.588a28.737,28.737,0,0,1,.152-3.61h-4.142a24.91,24.91,0,0,1,.19,3.8v9.348a10.877,10.877,0,0,1-1.71.3l.912,5.168c1.178-.418,1.6-.57,3.078-1.064,3.876-1.254,5.852-1.938,8.284-2.85a17.221,17.221,0,0,1,2.242,3.99,38.755,38.755,0,0,0,10.564-4.408c2.166,2.888,4.674,4.56,6.916,4.56a3.233,3.233,0,0,0,2.812-1.406c.912-1.292,1.216-2.432,1.52-5.662A10.748,10.748,0,0,1,364.382-6.5,18.612,18.612,0,0,1,364-2.812c-.114.684-.342.988-.684.988-.608,0-1.6-.836-2.736-2.28a54.119,54.119,0,0,0,4.18-3.724c.646-.608.646-.646.912-.874l-3.724-2.66a14.825,14.825,0,0,1-3.42,3.344,15.288,15.288,0,0,1-.8-2.926l5.928-.684a29.189,29.189,0,0,1,3.61-.266l-.456-4.332c-1.026.228-2.128.418-3.534.608l-6.194.684c-.114-.874-.114-.912-.19-1.976l4.712-.532a32.373,32.373,0,0,1,3.306-.266h.3l-.456-4.028a20.462,20.462,0,0,1-3.61.57l-4.522.532c-.038-.494-.038-.494-.114-1.938l5.814-.608c1.444-.152,2.47-.228,3.23-.228a1.47,1.47,0,0,1,.342.038l-.418-4.294a30.9,30.9,0,0,1-3.458.532l2.47-2.09a24.247,24.247,0,0,0-4.75-2.622l-2.7,2.432a22.106,22.106,0,0,1,3.99,2.356l-4.712.494c-.038-1.14-.038-1.406-.038-2.052a14.117,14.117,0,0,1,.19-3.078H351.31a18.268,18.268,0,0,1,.266,3.572c.076,1.748.076,1.748.076,2.014l-1.938.19a25.574,25.574,0,0,1-2.66.19,5.157,5.157,0,0,1-.684-.038l.418,4.256a30.66,30.66,0,0,1,3.192-.418l1.862-.19c.038.532.038.532.152,1.976l-1.672.19c-1.1.114-1.938.19-2.584.19a1.222,1.222,0,0,1-.3-.038l.456,4.066a23.16,23.16,0,0,1,2.888-.456l1.482-.19c.114.912.114.95.228,1.976l-2.432.3a23.057,23.057,0,0,1-3.344.228l.38,4.332a32.8,32.8,0,0,1,3.458-.57l2.584-.3a22.17,22.17,0,0,0,1.444,4.978,40.364,40.364,0,0,1-7.638,3.192l-.19-4.37c-1.824.684-2.014.76-3.8,1.368V-9.728h.684a13.148,13.148,0,0,1,2.318.114v-4.56a8.675,8.675,0,0,1-2.318.19h-.684v-4.1a28.725,28.725,0,0,1,2.888.114,28.217,28.217,0,0,1-.114-3.838V-27.17c0-1.634.038-2.546.152-3.838a26.636,26.636,0,0,1-3.534.152h-5.51a30.985,30.985,0,0,1-3.534-.152c.076,1.558.114,2.28.114,3.838v5.358c0,1.6-.038,2.432-.114,3.876a27.416,27.416,0,0,1,3.154-.152h2.09Zm-.684-22.61h3.686v4.1h-3.686Zm48.754,25.08a17.459,17.459,0,0,1,2.394,3.458,19.9,19.9,0,0,0,6.84-6.84c-.038,1.216-.038,1.444-.038,2.584V-.228a18.34,18.34,0,0,1-.228,3.458h4.788A22.923,22.923,0,0,1,400.14-.3V-2.242c0-1.026,0-1.368-.076-2.622a26.425,26.425,0,0,0,7.182,7.03,22.744,22.744,0,0,1,2.47-4.674,18.182,18.182,0,0,1-7.638-6.27h3.306a22.733,22.733,0,0,1,3.648.19v-4.75a21.291,21.291,0,0,1-3.876.228H400.1v-2.014h4.142a33.043,33.043,0,0,1,3.686.152,31.875,31.875,0,0,1-.152-3.648v-8.93a29.039,29.039,0,0,1,.152-3.648,31.45,31.45,0,0,1-3.192.114H391.78c-1.634,0-2.584-.038-3.534-.114a26.274,26.274,0,0,1,.152,3.534v9.2a28.244,28.244,0,0,1-.152,3.5,27.662,27.662,0,0,1,3.42-.152h4.142v2.014h-4.522a20.773,20.773,0,0,1-3.914-.228v4.75a22.733,22.733,0,0,1,3.648-.19h2.85a18.8,18.8,0,0,1-7.258,6.5V-6.46a23.827,23.827,0,0,1,.076-2.66,19.514,19.514,0,0,1-2.432.114h-6.5a18.371,18.371,0,0,1-2.888-.114,22.484,22.484,0,0,1,.152,2.888V-.38c0,1.178-.076,2.546-.19,3.686h4.6V1.634h2.964v1.14h4.332c-.076-.874-.076-.874-.114-2.47Zm9.234-25.8v2.28h-3.192v-2.28Zm4.218,0h3.458v2.28h-3.458Zm-4.218,5.928v2.356h-3.192v-2.356Zm4.218,0h3.5v2.356h-3.5ZM379.316-5.358h3.116V-2.28h-3.116Zm-4.332-21.736c.95-.076,1.786-.114,3.23-.114h5.13c1.482,0,2.166.038,3.23.114V-31.16a23.307,23.307,0,0,1-3.23.152h-5.13a22.958,22.958,0,0,1-3.23-.152Zm-1.216,5.776a22.965,22.965,0,0,1,3.078-.152h7.3a18.661,18.661,0,0,1,2.926.114V-25.8a20.894,20.894,0,0,1-3.078.152h-7.144a16.942,16.942,0,0,1-3.078-.19Zm1.254,5.358a12.7,12.7,0,0,1,2.318-.114h6.878a17.386,17.386,0,0,1,2.242.114v-3.914a11.168,11.168,0,0,1-2.242.114H377.34a12.924,12.924,0,0,1-2.318-.114Zm0,5.4a18.047,18.047,0,0,1,2.28-.114h6.84a17.1,17.1,0,0,1,2.318.114v-3.914a11.6,11.6,0,0,1-2.28.114h-6.84a12.924,12.924,0,0,1-2.318-.114Zm48.3,5.282a10.566,10.566,0,0,1-1.71-1.938c.114-1.368.152-1.976.19-2.774a6.347,6.347,0,0,1,.076-1.254l-4.256-.608c.038.456.076.722.076,1.026A26.409,26.409,0,0,1,417.2-5.7a14.79,14.79,0,0,1-2.28,5.586,13.573,13.573,0,0,1,3.61,3.192,19.726,19.726,0,0,0,2.28-5.624,12.613,12.613,0,0,0,6.5,4.256c2.546.684,6.346.95,13.3.95,2.2,0,8.588-.114,9.69-.19a18.473,18.473,0,0,1,1.292-4.978c-.874.076-1.178.114-1.938.19a15.624,15.624,0,0,1,1.786-2.318,15.844,15.844,0,0,1-5.358-2.812h.266c1.482,0,2.166.038,3.078.114a33.948,33.948,0,0,1-.152-3.572V-21.812c0-1.406.038-2.28.114-3.116a29.877,29.877,0,0,1-3.078.114h-2.926c.342-.722.646-1.444.874-2.052h2.85a34.962,34.962,0,0,1,3.686.19v-4.37a25.912,25.912,0,0,1-4.18.228h-9.272a31.475,31.475,0,0,1-4.18-.19v4.294a37.038,37.038,0,0,1,3.724-.152h2.774a21.411,21.411,0,0,1-.836,2.052H437.38a21.562,21.562,0,0,1-3.116-.114c.076.988.114,1.824.114,3.078v11.476c0,1.178-.038,2.166-.114,3.04a24.288,24.288,0,0,1,2.584-.114,13.42,13.42,0,0,1-5.434,3.23,15.867,15.867,0,0,1,2.052,2.2,24.079,24.079,0,0,1-5.662-.76v-3.5h1.748a22.253,22.253,0,0,1,3.078.152v-4.294c-.912.076-1.786.114-3.04.114H427.8v-2.546h2.09a26.423,26.423,0,0,1,3.458.152v-4.446a16.794,16.794,0,0,1-3,.19H419.33a21.086,21.086,0,0,1-3.61-.19v4.446a27.6,27.6,0,0,1,3.61-.152h3.99Zm14.9-2.166h6.194l-2.394,1.672a18.464,18.464,0,0,0,4.636,3.686c-3.078.114-5.814.19-7.79.19h-2.28a16.817,16.817,0,0,0,4.37-3.838Zm.532-13.984H444.9v1.444h-6.156Zm0,4.56H444.9v1.444h-6.156Zm0,4.484H444.9v1.482h-6.156Zm-21.28-8.892c0,1.748-.038,2.2-.114,3.23.988-.076,1.976-.114,3.268-.114h8.208c1.254,0,2.242.038,3.268.114a30.427,30.427,0,0,1-.114-3.192v-6.574c0-1.71.038-2.28.114-3.23a31.4,31.4,0,0,1-3.344.114h-8.132a31.529,31.529,0,0,1-3.306-.114,25.121,25.121,0,0,1,.152,3.23Zm4.446-6.232h5.7v1.52h-5.7Zm0,4.56h5.7v1.6h-5.7Zm56.506-1.026a7.392,7.392,0,0,1,3.534,1.216,9.235,9.235,0,0,1,4.066,7.942,10.437,10.437,0,0,1-5.244,9.348,19.051,19.051,0,0,1-7.524,1.824,15.581,15.581,0,0,1,2.812,5.4A27.126,27.126,0,0,0,482.106.19c6.08-2.394,9.538-7.752,9.538-14.668,0-8.892-6.08-14.592-15.618-14.592A17.629,17.629,0,0,0,462.65-23.6a16.394,16.394,0,0,0-4.256,11.286c0,6.536,3.344,11.134,8.056,11.134,3.268,0,5.776-2.242,7.9-7.068A53.612,53.612,0,0,0,478.42-23.978Zm-5.548.076a48.922,48.922,0,0,1-3.04,12.236c-1.216,3.078-2.394,4.56-3.5,4.56-1.482,0-2.7-2.318-2.7-5.168A12.459,12.459,0,0,1,468.312-22,8.539,8.539,0,0,1,472.872-23.9Zm41.23,4.978c0,.95,0,.95-.038,1.862h-6.878a23.874,23.874,0,0,1-3.5-.152v4.256a24.559,24.559,0,0,1,3.5-.152H513.8a15.869,15.869,0,0,1-.3,1.862h-9.652a26.764,26.764,0,0,1-4.028-.19v4.56a39.772,39.772,0,0,1,4.332-.228H511.9a10.911,10.911,0,0,1-4.522,3.762c-2.242,1.14-4.332,1.672-8.208,2.09a13.621,13.621,0,0,1,2.318,4.712A25.155,25.155,0,0,0,510.872.19a15.213,15.213,0,0,0,5.472-5.51A19.2,19.2,0,0,0,523.07.38a33.364,33.364,0,0,0,9.272,3.078,19.667,19.667,0,0,1,2.28-4.864c-5.244-.836-8.056-1.634-10.488-2.926a10.482,10.482,0,0,1-3.5-2.774h8.892a39.467,39.467,0,0,1,4.37.228v-4.56a28.2,28.2,0,0,1-4.142.19H518.434c.152-.836.19-1.14.266-1.862h7.562a24.622,24.622,0,0,1,3.458.152v-4.256a23.255,23.255,0,0,1-3.458.152h-7.334c0-.684,0-.684.038-1.862h7.524a27.381,27.381,0,0,1,3.534.152V-20.33H533.6a22.87,22.87,0,0,1-.152-2.888V-26.41A24.507,24.507,0,0,1,533.6-29.3c-1.33.114-2.356.152-4.37.152H519.08v-.608a14.213,14.213,0,0,1,.19-2.394H513.8a11.918,11.918,0,0,1,.19,2.432v.57h-9.576c-2.014,0-3.078-.038-4.37-.152a27.183,27.183,0,0,1,.152,2.964v3.116A15.7,15.7,0,0,1,500-20.33h3.572v1.558a25.488,25.488,0,0,1,3.572-.152Zm14.63-5.966v1.938c-.8.038-1.178.038-2.242.038H519a19.642,19.642,0,0,1,.038-1.976Zm-14.592,0v1.976h-6.992c-1.064,0-1.634,0-2.2-.038V-24.89ZM563.692-13.3v5.51a24.582,24.582,0,0,1-.114,3.154h4.446a20.068,20.068,0,0,1-.152-3.192V-14.44l2.774-.76c0,1.444-.038,2.356-.114,3.42-.114,1.33-.228,1.52-1.026,1.52a10.9,10.9,0,0,1-1.444-.114,12.974,12.974,0,0,1,.988,4.18h1.1c4.446,0,4.712-.722,4.9-12.578,0-.456.038-1.216.038-2.166a8.81,8.81,0,0,1-1.33.456,8.871,8.871,0,0,0-.95.266c-.684.19-1.14.342-1.33.38l-3.61.912v-.8a18.661,18.661,0,0,1,.19-2.926H563.54a22.51,22.51,0,0,1,.152,3.116v1.672l-2.394.608v-.494a14.03,14.03,0,0,1,.152-2.888H558.9c.874-1.292,1.1-1.672,1.938-3.078h11.476a37.645,37.645,0,0,1,3.8.152v-4.826a28.016,28.016,0,0,1-3.952.228h-9.158c.532-1.178.608-1.406.722-1.672a11.989,11.989,0,0,1,.722-1.6l-5.092-.95a23.12,23.12,0,0,1-3.572,7.942v-2.774a19.887,19.887,0,0,1-3.458.19h-1.178v-1.748a18.778,18.778,0,0,1,.19-3.268H546.1a26.59,26.59,0,0,1,.19,3.268v1.748h-1.824a18.688,18.688,0,0,1-3.572-.228v4.826a16.571,16.571,0,0,1,3.192-.19,80.211,80.211,0,0,1-.646,11.78A22.433,22.433,0,0,1,540.094-.8a17.622,17.622,0,0,1,3.42,4.218c2.964-4.408,4.218-9.082,4.864-18.088h2.28A88.989,88.989,0,0,1,550.05-3.99c-.342,2.052-.418,2.2-1.558,2.2a17.263,17.263,0,0,1-2.2-.266,16.232,16.232,0,0,1,.95,4.75c1.482.038,1.71.038,2.128.038,4.066,0,4.788-1.14,5.244-8.17.152-2.356.3-7.182.3-9.842V-17.1c0-.342.038-1.558.076-2.052-.912.076-1.71.114-2.964.114h-3.458c0-.266.038-1.482.076-3.572h3.724c1.026,0,1.444,0,2.014.038-.418.456-.57.646-1.1,1.216a15.728,15.728,0,0,1,3.686,2.888v2.28c-.76.19-1.064.266-1.786.418l.646,4.636a4.236,4.236,0,0,1,.76-.266,2.36,2.36,0,0,1,.38-.114V-1.1c0,1.71.456,2.546,1.748,3.116s2.812.722,7.03.722c5.776,0,7.334-.19,8.436-1.026,1.406-.988,1.976-2.66,2.28-6.612a17.3,17.3,0,0,1-4.522-1.254c-.038,2.546-.19,3.534-.646,3.914-.494.456-1.33.532-6.118.532-3.42,0-3.876-.19-3.876-1.52v-9.462Z" transform="translate(198 -394)" fill="#c1c1c1"></path><path id="&#x30D1;&#x30B9;_21" data-name="&#x30D1;&#x30B9; 21" d="M35.872-2.926c-6.5-6.194-7.448-7.03-12.35-10.526A49.524,49.524,0,0,0,29.26-23.788a6.247,6.247,0,0,1,1.254-2.128l-2.926-3.04c-.912.418-1.1.456-3.192.456l-12.958.228h-.722A28.3,28.3,0,0,1,6.08-28.5l.076,5.776a34.231,34.231,0,0,1,5.32-.342l11.1-.19c-.874,1.938-1.52,3.306-2.014,4.142A35.072,35.072,0,0,1,10.6-8.132,34.336,34.336,0,0,1,2.166-3.5,17.185,17.185,0,0,1,5.814,1.558a43.72,43.72,0,0,0,14.174-10.6A67.674,67.674,0,0,1,31.274,2.014ZM54.834-23.94l-5.928.912a32.686,32.686,0,0,1-5.13.532l.874,5.548a49.609,49.609,0,0,1,5.168-1.026l5.928-.912.988,5.586-7.98,1.254a34.648,34.648,0,0,1-5.016.532L44.65-6a33.38,33.38,0,0,1,4.788-.988l8.208-1.292L58.71-2.47a39.368,39.368,0,0,1,.722,5.32l6.156-1.026A33.6,33.6,0,0,1,64.372-3.5L63.308-9.158l7.714-1.178A34.867,34.867,0,0,1,76-11.02l-.95-5.472a28.534,28.534,0,0,1-5.092,1.1l-7.6,1.216-1.026-5.548,6.688-1.064c3.116-.456,3.116-.456,4.788-.608L71.9-26.866A28.45,28.45,0,0,1,67.07-25.84l-6.688,1.026-.456-2.242a27.451,27.451,0,0,1-.57-4.37l-5.966.95a18.242,18.242,0,0,1,1.026,4.37ZM89.49-30.1a29.44,29.44,0,0,1,.152,3.838c0,2.052-.076,4.636-.152,6.5a32.366,32.366,0,0,1-1.368,8.74,17.588,17.588,0,0,1-5.7,8.7,17.433,17.433,0,0,1,4.6,4.446A24.761,24.761,0,0,0,92.226-5.13c2.014-4.142,2.736-8.094,3-16,.266-7.486.266-7.486.418-8.626ZM99.9-30.362a27.467,27.467,0,0,1,.152,3.5V-25.8L99.9-4.446A14.408,14.408,0,0,1,99.522-.8l2.812,3a8.03,8.03,0,0,1,1.748-.76A23.156,23.156,0,0,0,112.1-3a23.319,23.319,0,0,0,6.308-9.234,20.53,20.53,0,0,1-4.256-4.256,19,19,0,0,1-3.382,6.726,15.4,15.4,0,0,1-5.206,4.256l.19-20.216a26.818,26.818,0,0,1,.3-4.6ZM148.2-2.584h-2.964V-16.758a32.491,32.491,0,0,1,.19-4.408h-5.054a35.351,35.351,0,0,1,.19,4.408V-2.584a13.064,13.064,0,0,1-1.976-.152V2.28a33.876,33.876,0,0,1,4.408-.228h12.464a38.918,38.918,0,0,1,4.522.228V-2.812a39.187,39.187,0,0,1-4.408.228H152.95v-10.3h2.432a25.023,25.023,0,0,1,3.724.19v-5.016a24.409,24.409,0,0,1-3.724.19H152.95v-8.55h2.128a37.563,37.563,0,0,1,4.522.228v-5.092a36.515,36.515,0,0,1-4.56.228H144.02a36.1,36.1,0,0,1-4.56-.228v5.092a37.37,37.37,0,0,1,4.56-.228h4.18ZM125.59-27.36c.95-.076,1.786-.114,3.306-.114h5.662c1.558,0,2.356.038,3.306.114v-3.99a25.294,25.294,0,0,1-3.306.152H128.9a25.294,25.294,0,0,1-3.306-.152Zm-1.178,5.89a22.965,22.965,0,0,1,3.078-.152h8.284a18.127,18.127,0,0,1,2.926.114v-4.446a20.894,20.894,0,0,1-3.078.152H127.49a16.942,16.942,0,0,1-3.078-.19Zm1.292,5.434a19.244,19.244,0,0,1,2.394-.114h7.3a18.722,18.722,0,0,1,2.318.114v-3.952a16.722,16.722,0,0,1-2.318.114h-7.3a18.421,18.421,0,0,1-2.394-.114Zm0,5.32a18.98,18.98,0,0,1,2.356-.114h7.258a13.871,13.871,0,0,1,2.394.114v-3.952a12.048,12.048,0,0,1-2.318.114h-7.3a13.871,13.871,0,0,1-2.394-.114ZM129.96,3.268V1.6h3.382v1.14h4.332a25.883,25.883,0,0,1-.076-2.85v-6.46a23.827,23.827,0,0,1,.076-2.66,12.319,12.319,0,0,1-2.432.114h-6.954c-1.14,0-2.052-.038-2.85-.114a23.1,23.1,0,0,1,.152,2.926v5.89c0,1.292-.076,2.546-.19,3.686Zm-.076-8.7h3.458V-2.28h-3.458ZM181.3-4.94A16.429,16.429,0,0,1,177.232,0a15.045,15.045,0,0,1,3.838,3.534c3.61-3.344,5.472-6.8,6.536-12.084h7.828v5.738c0,.836-.3,1.064-1.482,1.064a32.618,32.618,0,0,1-3.876-.342,17.7,17.7,0,0,1,1.216,4.978c1.178.038,1.71.038,2.052.038,3.04,0,4.446-.19,5.358-.76,1.1-.722,1.6-1.9,1.6-3.952V-26.41a40.242,40.242,0,0,1,.152-4.446,29.625,29.625,0,0,1-4.294.19h-8.208a35.644,35.644,0,0,1-4.446-.19c.152,1.748.228,3.952.228,8.7,0,8.626-.646,13.452-2.28,16.91-.038-.266-.076-2.546-.076-3.344V-26.524c0-1.558.038-2.508.114-3.382-1.026.076-1.786.114-3.23.114H171.38c-1.976,0-2.888-.038-3.876-.114a38.3,38.3,0,0,1,.152,3.99V-7.98a39.077,39.077,0,0,1-.228,4.75h4.94V-5.966h4.446V-4.94Zm14.136-12.54V-13h-7.22c.152-1.672.19-2.052.3-4.484Zm0-4.332h-6.84v-4.294h6.84Zm-23.1-3.534h4.484v5.092H172.33Zm0,9.348h4.484v5.662H172.33Zm48.6,14.63a17.459,17.459,0,0,1,2.394,3.458,19.9,19.9,0,0,0,6.84-6.84c-.038,1.216-.038,1.444-.038,2.584V-.228A18.34,18.34,0,0,1,229.9,3.23h4.788A22.919,22.919,0,0,1,234.46-.3V-2.242c0-1.026,0-1.368-.076-2.622a26.425,26.425,0,0,0,7.182,7.03,22.746,22.746,0,0,1,2.47-4.674,18.182,18.182,0,0,1-7.638-6.27H239.7a22.734,22.734,0,0,1,3.648.19v-4.75a21.292,21.292,0,0,1-3.876.228h-5.054v-2.014h4.142a33.043,33.043,0,0,1,3.686.152,31.879,31.879,0,0,1-.152-3.648v-8.93a29.042,29.042,0,0,1,.152-3.648,31.449,31.449,0,0,1-3.192.114H226.1c-1.634,0-2.584-.038-3.534-.114a26.27,26.27,0,0,1,.152,3.534v9.2a28.24,28.24,0,0,1-.152,3.5,27.663,27.663,0,0,1,3.42-.152h4.142v2.014h-4.522a20.773,20.773,0,0,1-3.914-.228v4.75a22.733,22.733,0,0,1,3.648-.19h2.85a18.8,18.8,0,0,1-7.258,6.5V-6.46a23.827,23.827,0,0,1,.076-2.66,19.514,19.514,0,0,1-2.432.114h-6.5a18.371,18.371,0,0,1-2.888-.114,22.487,22.487,0,0,1,.152,2.888V-.38c0,1.178-.076,2.546-.19,3.686h4.6V1.634h2.964v1.14h4.332c-.076-.874-.076-.874-.114-2.47Zm9.234-25.8v2.28h-3.192v-2.28Zm4.218,0h3.458v2.28h-3.458Zm-4.218,5.928v2.356h-3.192v-2.356Zm4.218,0h3.5v2.356h-3.5ZM213.636-5.358h3.116V-2.28h-3.116ZM209.3-27.094c.95-.076,1.786-.114,3.23-.114h5.13c1.482,0,2.166.038,3.23.114V-31.16a23.306,23.306,0,0,1-3.23.152h-5.13a22.959,22.959,0,0,1-3.23-.152Zm-1.216,5.776a22.965,22.965,0,0,1,3.078-.152h7.3a18.661,18.661,0,0,1,2.926.114V-25.8a20.894,20.894,0,0,1-3.078.152h-7.144a16.942,16.942,0,0,1-3.078-.19Zm1.254,5.358a12.7,12.7,0,0,1,2.318-.114h6.878a17.386,17.386,0,0,1,2.242.114v-3.914a11.167,11.167,0,0,1-2.242.114H211.66a12.924,12.924,0,0,1-2.318-.114Zm0,5.4a18.048,18.048,0,0,1,2.28-.114h6.84a17.1,17.1,0,0,1,2.318.114v-3.914a11.6,11.6,0,0,1-2.28.114h-6.84a12.924,12.924,0,0,1-2.318-.114Zm48.3,5.282a10.565,10.565,0,0,1-1.71-1.938c.114-1.368.152-1.976.19-2.774a6.344,6.344,0,0,1,.076-1.254l-4.256-.608c.038.456.076.722.076,1.026a26.408,26.408,0,0,1-.494,5.13,14.79,14.79,0,0,1-2.28,5.586,13.573,13.573,0,0,1,3.61,3.192,19.726,19.726,0,0,0,2.28-5.624,12.613,12.613,0,0,0,6.5,4.256c2.546.684,6.346.95,13.3.95,2.2,0,8.588-.114,9.69-.19a18.474,18.474,0,0,1,1.292-4.978c-.874.076-1.178.114-1.938.19a15.624,15.624,0,0,1,1.786-2.318A15.844,15.844,0,0,1,280.4-7.448h.266c1.482,0,2.166.038,3.078.114a33.956,33.956,0,0,1-.152-3.572V-21.812c0-1.406.038-2.28.114-3.116a29.877,29.877,0,0,1-3.078.114H277.7c.342-.722.646-1.444.874-2.052h2.85a34.962,34.962,0,0,1,3.686.19v-4.37a25.912,25.912,0,0,1-4.18.228h-9.272a31.475,31.475,0,0,1-4.18-.19v4.294a37.039,37.039,0,0,1,3.724-.152h2.774a21.411,21.411,0,0,1-.836,2.052H271.7a21.562,21.562,0,0,1-3.116-.114c.076.988.114,1.824.114,3.078v11.476c0,1.178-.038,2.166-.114,3.04a24.287,24.287,0,0,1,2.584-.114,13.42,13.42,0,0,1-5.434,3.23,15.871,15.871,0,0,1,2.052,2.2,24.079,24.079,0,0,1-5.662-.76v-3.5h1.748a22.253,22.253,0,0,1,3.078.152v-4.294c-.912.076-1.786.114-3.04.114h-1.786v-2.546h2.09a26.423,26.423,0,0,1,3.458.152v-4.446a16.794,16.794,0,0,1-3,.19H253.65a21.085,21.085,0,0,1-3.61-.19v4.446a27.6,27.6,0,0,1,3.61-.152h3.99Zm14.9-2.166h6.194l-2.394,1.672a18.464,18.464,0,0,0,4.636,3.686c-3.078.114-5.814.19-7.79.19H270.9a16.817,16.817,0,0,0,4.37-3.838Zm.532-13.984h6.156v1.444h-6.156Zm0,4.56h6.156v1.444h-6.156Zm0,4.484h6.156v1.482h-6.156Zm-21.28-8.892c0,1.748-.038,2.2-.114,3.23.988-.076,1.976-.114,3.268-.114h8.208c1.254,0,2.242.038,3.268.114a30.438,30.438,0,0,1-.114-3.192v-6.574c0-1.71.038-2.28.114-3.23a31.4,31.4,0,0,1-3.344.114h-8.132a31.528,31.528,0,0,1-3.306-.114,25.123,25.123,0,0,1,.152,3.23Zm4.446-6.232h5.7v1.52h-5.7Zm0,4.56h5.7v1.6h-5.7Zm56.506-1.026a7.392,7.392,0,0,1,3.534,1.216,9.235,9.235,0,0,1,4.066,7.942A10.437,10.437,0,0,1,315.1-5.472a19.051,19.051,0,0,1-7.524,1.824,15.581,15.581,0,0,1,2.812,5.4A27.126,27.126,0,0,0,316.426.19c6.08-2.394,9.538-7.752,9.538-14.668,0-8.892-6.08-14.592-15.618-14.592A17.629,17.629,0,0,0,296.97-23.6a16.394,16.394,0,0,0-4.256,11.286c0,6.536,3.344,11.134,8.056,11.134,3.268,0,5.776-2.242,7.9-7.068A53.612,53.612,0,0,0,312.74-23.978Zm-5.548.076a48.922,48.922,0,0,1-3.04,12.236c-1.216,3.078-2.394,4.56-3.5,4.56-1.482,0-2.7-2.318-2.7-5.168A12.459,12.459,0,0,1,302.632-22,8.539,8.539,0,0,1,307.192-23.9Zm48.374.38a29.36,29.36,0,0,0,.874-2.85,99.305,99.305,0,0,0,9.994-1.672l-3.154-4.218a17.521,17.521,0,0,1-4.294,1.178A92.186,92.186,0,0,1,345-29.944h-1.52a17.683,17.683,0,0,1,1.71,4.332c2.128-.038,3.5-.114,6.308-.3-.3,1.1-.418,1.444-.76,2.394h-4.332c-1.71,0-2.964-.076-4.218-.19V-19c1.33-.114,2.584-.19,3.914-.19h2.318a19.569,19.569,0,0,1-8.056,6.308,12.376,12.376,0,0,1,3.04,3.952c.646-.418.912-.57,1.33-.836a24.557,24.557,0,0,1-3.61,8.892l3.8,2.736c.874-1.6,1.178-2.2,1.672-3.306a18.524,18.524,0,0,1,.76,4.294A26.931,26.931,0,0,0,350.436,3a4.845,4.845,0,0,0,3.154-.8c.722-.57.95-1.33.95-3.306V-12.236a23.211,23.211,0,0,1,.228-3.458h-3.5a28,28,0,0,0,2.356-3.5h2.014a21.47,21.47,0,0,0,7.866,8.322l-3.154,1.482a59.874,59.874,0,0,1,4.6,10.754l4.1-2.2a69.737,69.737,0,0,0-4.826-9.576,23.586,23.586,0,0,0,3,1.558,16.737,16.737,0,0,1,2.09-4.788A16.444,16.444,0,0,1,360.7-19.19h3.382c1.672,0,3.154.076,4.332.19v-4.712c-1.178.114-2.66.19-4.408.19ZM345.724-10.45a27.428,27.428,0,0,0,4.294-3.8c.038.646.076,1.444.076,2.014v9.994c0,.608-.266.836-.988.836a11.042,11.042,0,0,1-2.432-.3,42.581,42.581,0,0,0,2.2-7.6ZM334.362-28.386a34.56,34.56,0,0,1,6.764,5.168l2.888-3.914a45.794,45.794,0,0,0-6.612-4.826Zm-1.33,9.652a42.69,42.69,0,0,1,7.068,4.9l2.736-4.066a40.734,40.734,0,0,0-7.03-4.522Zm5.054,6.688C336.642-6.5,334.932-2.394,333.222-.38l4.18,3.648a55.3,55.3,0,0,0,4.6-12.5Zm16.8,2.432a60.591,60.591,0,0,1,2.66,11.172l4.332-1.71A62.911,62.911,0,0,0,358.53-10.83Zm28.538-12.2h-4.028a22.844,22.844,0,0,1-2.736-.152,24.11,24.11,0,0,1,.152,3.192V-1.216a39.151,39.151,0,0,1-.228,4.484h5.206c-.114-1.406-.19-2.774-.19-4.522v-3.61h8.36v2.736c0,.608-.228.76-1.064.76a33.492,33.492,0,0,1-3.724-.342,17.646,17.646,0,0,1,.988,4.484c1.9.114,3.078.152,4.028.152,1.976,0,2.888-.266,3.572-.95a4.236,4.236,0,0,0,.912-3.154V-18.924c0-1.292.038-2.052.114-3.04a16.4,16.4,0,0,1-2.128.152,61.991,61.991,0,0,0,3.838-7.448l-4.446-2.052a29.332,29.332,0,0,1-3.534,7.448l3.914,2.052H388.36V-29.07a16.941,16.941,0,0,1,.19-3.078h-5.32a20.747,20.747,0,0,1,.19,3.116ZM381.6-11.21h8.36v2.28H381.6Zm8.36-4.1H381.6v-2.242h8.36ZM375.174-29.26a33.529,33.529,0,0,1,3.572,7.334l3.99-2.128A42.728,42.728,0,0,0,379.2-31.5Zm21.66.152a28.091,28.091,0,0,1,.19,3.99V-9.69a34.838,34.838,0,0,1-.152,3.952h5.016a31.562,31.562,0,0,1-.152-3.952V-25.232a25.721,25.721,0,0,1,.19-3.876Zm7.486-2.66a30.231,30.231,0,0,1,.228,4.712V-2.774c0,.95-.3,1.14-1.824,1.14a31.669,31.669,0,0,1-4.712-.38,16.4,16.4,0,0,1,1.254,4.826c2.128.114,2.964.152,3.838.152,2.47,0,3.876-.266,4.826-.912C408.956,1.33,409.336.3,409.336-1.9V-27.17a30.993,30.993,0,0,1,.228-4.6Z" transform="translate(198 -329)" fill="#c1c1c1"></path><path id="&#x30D1;&#x30B9;_22" data-name="&#x30D1;&#x30B9; 22" d="M16.378-16.606v1.482H8.74a25.523,25.523,0,0,1-3.8-.19v3.838a35.306,35.306,0,0,1,3.8-.152h7.638v1.444H6.612A37.125,37.125,0,0,1,1.9-10.412v4.256a44.21,44.21,0,0,1,4.75-.228h6.308C9.88-4.028,6.308-2.546,1.026-1.52a16.446,16.446,0,0,1,2.66,4.37A35.035,35.035,0,0,0,11.1-.228a22.408,22.408,0,0,0,5.4-4.028c-.076,1.368-.076,1.482-.076,2.394v1.52a27.963,27.963,0,0,1-.228,3.8H21.28a25.709,25.709,0,0,1-.228-3.8V-1.9c0-.95,0-1.14-.076-2.432C24.282-1.026,28.5,1.216,34.5,2.85a17.929,17.929,0,0,1,2.508-4.56c-5.548-.912-9.5-2.394-12.426-4.674h6.878a43.739,43.739,0,0,1,4.674.228v-4.256a35.512,35.512,0,0,1-4.712.228H21.09v-1.444h8.094a35.306,35.306,0,0,1,3.8.152v-3.838a26.8,26.8,0,0,1-3.8.19H21.09v-1.482h9.88a36.69,36.69,0,0,1,3.8.152v-4.028a33.548,33.548,0,0,1-3.8.152H27.018c.38-.722.418-.8,1.1-2.242h3.5c1.862,0,3.458.076,4.636.19V-26.79a32.443,32.443,0,0,1-4.37.228H31.35a31.171,31.171,0,0,0,2.128-3.382l-4.6-1.634A21.037,21.037,0,0,1,26.3-26.562H24.51v-2.584a18.827,18.827,0,0,1,.19-2.888H19.8a16.986,16.986,0,0,1,.152,2.66v2.812H17.708v-2.812a23.893,23.893,0,0,1,.114-2.66H12.958a19.971,19.971,0,0,1,.19,2.888v2.584H11.476a25.265,25.265,0,0,0-2.7-4.94l-4.56,1.634a15.638,15.638,0,0,1,2.318,3.306h-.57a32.993,32.993,0,0,1-4.332-.228v4.408c1.178-.114,2.736-.19,4.56-.19H9.956A19.459,19.459,0,0,1,11.1-20.33H6.916a32.807,32.807,0,0,1-3.762-.152v4.028a35.911,35.911,0,0,1,3.762-.152Zm-.342-3.724c-.342-.95-.532-1.368-.912-2.242h7.752a21.449,21.449,0,0,1-.988,2.242ZM61.826-11.7a26.173,26.173,0,0,1-3.04-.114v4.6a16.534,16.534,0,0,1,2.736-.152h1.9C61.978-4.218,59.546-2.28,54.91-.57A17.732,17.732,0,0,1,57.722,3.5C63.574.874,66.576-2.2,68.362-7.372h4.066a21.147,21.147,0,0,1-.418,4.028c-.342,1.482-.722,1.862-1.9,1.862a24.206,24.206,0,0,1-4.294-.494,14.716,14.716,0,0,1,1.1,4.636q2.451.228,3.99.228c3.078,0,4.18-.57,4.978-2.622.646-1.634,1.026-4.256,1.368-9.728.076-.988.076-1.026.114-1.292.038-.646.038-.646.076-1.064a23.419,23.419,0,0,1-2.926.114H69.312a7.252,7.252,0,0,0,.114-1.064A3.341,3.341,0,0,1,69.5-13.3c.038-.418.038-.418.076-.684.038-.3.038-.3.076-.57l-3.838-.038a22.219,22.219,0,0,0,3.192-1.672A26.7,26.7,0,0,0,77.254-13a16.2,16.2,0,0,1,2.052-4.75,25.969,25.969,0,0,1-6.65-1.558,16.337,16.337,0,0,0,3.382-5.51,23.745,23.745,0,0,1,2.508.114v-4.6a28.763,28.763,0,0,1-4.142.228h-7.3c.38-.836.684-1.6.836-1.938l.228-.57-4.712-.874a12.456,12.456,0,0,1-1.14,3.344,20.918,20.918,0,0,1-5.4,7.03,14.326,14.326,0,0,1,3.344,3.04,31.772,31.772,0,0,0,2.774-3.116,15.186,15.186,0,0,0,2.432,3.078,28.823,28.823,0,0,1-5.092,1.9l.076-.19L58.52-19.722a24.342,24.342,0,0,1-2.774.114H54.264l.532-.57c-.494-.494-.646-.684-.988-1.026a42.872,42.872,0,0,0,5.206-6.118,8.646,8.646,0,0,1,.836-1.064l-2.432-2.622a19.975,19.975,0,0,1-3.268.152H47.728a28.928,28.928,0,0,1-3.534-.152v4.636a26.572,26.572,0,0,1,3.154-.152h6a12.513,12.513,0,0,1-2.394,2.736c-1.064-.912-1.52-1.254-3.04-2.394l-2.736,2.736a38.839,38.839,0,0,1,4.56,3.838H46.55a27.1,27.1,0,0,1-3.344-.152v4.6a16.739,16.739,0,0,1,3.04-.19H48.6a20.317,20.317,0,0,1-5.966,8.588A17.624,17.624,0,0,1,44.5-1.71a24.247,24.247,0,0,0,5.244-7.752l.038,7.22c0,.684-.19.836-.95.836a18.185,18.185,0,0,1-3.42-.38c.836,3,.874,3.04.912,4.674,1.216.076,2.2.114,3.04.114,3.648,0,4.75-.874,4.75-3.724l-.038-9.538A10.238,10.238,0,0,1,57-7.9a42.151,42.151,0,0,0,2.66-6.954A9.4,9.4,0,0,1,60-16.036a17.443,17.443,0,0,1,1.634,2.926c1.482-.456,1.976-.608,3.078-1.026v.342a20.819,20.819,0,0,1-.152,2.09Zm9.348-13.11a11.012,11.012,0,0,1-2.356,3.344,11.481,11.481,0,0,1-2.812-3.344ZM54.036-15.352h1.9a19.467,19.467,0,0,1-1.862,4.712Zm50.312-1.482v4.218H99.294c-1.406,0-2.2-.038-3.116-.114.076.95.114,2.052.114,3.23V-.8c0,1.33-.076,3-.152,4.028h4.94V1.482h11.78V3.23h5.13a38.421,38.421,0,0,1-.19-3.99V-9.348a29.421,29.421,0,0,1,.152-3.382,29.878,29.878,0,0,1-3.078.114h-5.51v-4.218h6.194a32.835,32.835,0,0,1,4.37.228V-21.66a33.232,33.232,0,0,1-4.37.228h-6.194v-4.446c2.166-.342,6.27-1.064,7.562-1.406,1.33-.3,1.33-.3,2.052-.494l-3.268-4.484c-3.5,1.672-12.046,3-20.482,3.192A13.331,13.331,0,0,1,96.9-24.662c3.192-.152,4.408-.266,7.448-.608v3.838h-5.4a33.807,33.807,0,0,1-4.332-.228v5.054a37.08,37.08,0,0,1,4.37-.228Zm-3.23,8.626H112.9V-3.04h-11.78Zm-15.5-20.254A44.805,44.805,0,0,1,92.53-23.18l2.964-3.914a48.146,48.146,0,0,0-6.84-4.94Zm-1.1,9.8a42.7,42.7,0,0,1,7.144,4.9l2.736-4.18a44.485,44.485,0,0,0-7.106-4.446Zm5.852,6.612c-1.938,5.434-3.686,8.892-5.738,11.4L89,2.888a65.079,65.079,0,0,0,5.358-12.16ZM147.288-8.36h8.132v5.7c0,.76-.3.912-1.786.912-1.14,0-2.774-.114-4.522-.266A16.653,16.653,0,0,1,150.4,2.66c1.178.076,3.078.152,4.142.152,4.522,0,5.814-.95,5.814-4.294v-24.89a45.561,45.561,0,0,1,.152-4.56,45.07,45.07,0,0,1-4.56.152h-21.7c-2.052,0-3.04-.038-4.446-.152a45.51,45.51,0,0,1,.19,5.016c0,16.872-.57,20.862-3.686,25.688A30.858,30.858,0,0,1,130.72,3.42c2.128-3.5,3.116-6.65,3.724-11.78h8.018v5.852a33.071,33.071,0,0,1-.228,4.636h5.244a35.992,35.992,0,0,1-.19-4.674Zm0-13.414v-4.332h8.132v4.332Zm-4.826,0h-7.524v-4.332h7.524Zm4.826,4.446h8.132v4.484h-8.132Zm-4.826,0v4.484h-7.714c.076-2.014.114-2.85.114-4.484Zm47.158-6.65a7.391,7.391,0,0,1,3.534,1.216,9.235,9.235,0,0,1,4.066,7.942,10.437,10.437,0,0,1-5.244,9.348,19.051,19.051,0,0,1-7.524,1.824,15.581,15.581,0,0,1,2.812,5.4A27.126,27.126,0,0,0,193.306.19c6.08-2.394,9.538-7.752,9.538-14.668,0-8.892-6.08-14.592-15.618-14.592A17.629,17.629,0,0,0,173.85-23.6a16.394,16.394,0,0,0-4.256,11.286c0,6.536,3.344,11.134,8.056,11.134,3.268,0,5.776-2.242,7.9-7.068A53.613,53.613,0,0,0,189.62-23.978Zm-5.548.076a48.922,48.922,0,0,1-3.04,12.236c-1.216,3.078-2.394,4.56-3.5,4.56-1.482,0-2.7-2.318-2.7-5.168A12.459,12.459,0,0,1,179.512-22,8.539,8.539,0,0,1,184.072-23.9Zm51.376,4.37H237.2a26.088,26.088,0,0,1,2.926.114V-21.47a27.78,27.78,0,0,0,4.028,2.242,18.426,18.426,0,0,1,2.2-4.522,24.134,24.134,0,0,1-6.194-3.382,14.839,14.839,0,0,1-4.636-4.826h-4.94a17.317,17.317,0,0,1-4.446,5.434,27.154,27.154,0,0,1-3.724,2.7V-25.65a9.144,9.144,0,0,1-1.9.152h-.988v-2.736a26.565,26.565,0,0,1,.228-3.952h-5.13a26.434,26.434,0,0,1,.228,3.99v2.7h-1.6a10.971,10.971,0,0,1-2.508-.19v4.9a10.971,10.971,0,0,1,2.508-.19h1.254A32.139,32.139,0,0,1,209.8-9.956a20.638,20.638,0,0,1,2.128,5.206,34.734,34.734,0,0,0,3.154-7.524c-.114,1.406-.19,3.306-.19,4.37v6.5a41.573,41.573,0,0,1-.228,4.788h5.092a41.115,41.115,0,0,1-.228-4.788v-9.006c0-1.976-.038-3.42-.152-4.484a22.989,22.989,0,0,0,2.242,4.256,25.236,25.236,0,0,1,1.71-4.142v5.548c0,.874-.038,1.482-.076,2.47a29.982,29.982,0,0,1,3.458-.152h2.7a8.618,8.618,0,0,1-2.926,3.382,13.856,13.856,0,0,1-5.852,2.2,15.3,15.3,0,0,1,2.622,4.636c5.206-1.71,8.018-3.952,10.032-7.9a19.036,19.036,0,0,0,10.6,7.942,15.592,15.592,0,0,1,2.28-4.94,15.781,15.781,0,0,1-9.652-5.32h3.534a31.414,31.414,0,0,1,3.534.152,23.1,23.1,0,0,1-.152-2.926v-5.016a30.771,30.771,0,0,1,.152-3.078,25.668,25.668,0,0,1-3.306.152h-4.826Zm-4.522,0v1.9h-4.484c-1.938,0-2.318,0-3.23-.076.076.836.114,1.558.114,2.546a19,19,0,0,1-3.61-5.814h.874a11.726,11.726,0,0,1,1.71.114,18.875,18.875,0,0,1,.874,1.9,23.526,23.526,0,0,0,3.572-2.318v1.862a27.2,27.2,0,0,1,2.888-.114Zm-.076,5.7a22.735,22.735,0,0,1-.266,3.116h-2.926v-3.116Zm8.094,0v3.116h-3.8c.114-1.14.19-1.786.228-3.116Zm-9.272-9.88a25.12,25.12,0,0,0,3.5-4.256,18.305,18.305,0,0,0,3.838,4.256ZM275.88-2.584h-2.964V-16.758a32.488,32.488,0,0,1,.19-4.408h-5.054a35.347,35.347,0,0,1,.19,4.408V-2.584a13.064,13.064,0,0,1-1.976-.152V2.28a33.876,33.876,0,0,1,4.408-.228h12.464a38.918,38.918,0,0,1,4.522.228V-2.812a39.187,39.187,0,0,1-4.408.228H280.63v-10.3h2.432a25.023,25.023,0,0,1,3.724.19v-5.016a24.409,24.409,0,0,1-3.724.19H280.63v-8.55h2.128a37.563,37.563,0,0,1,4.522.228v-5.092a36.515,36.515,0,0,1-4.56.228H271.7a36.1,36.1,0,0,1-4.56-.228v5.092a37.37,37.37,0,0,1,4.56-.228h4.18ZM253.27-27.36c.95-.076,1.786-.114,3.306-.114h5.662c1.558,0,2.356.038,3.306.114v-3.99a25.294,25.294,0,0,1-3.306.152h-5.662a25.294,25.294,0,0,1-3.306-.152Zm-1.178,5.89a22.965,22.965,0,0,1,3.078-.152h8.284a18.128,18.128,0,0,1,2.926.114v-4.446a20.894,20.894,0,0,1-3.078.152H255.17a16.942,16.942,0,0,1-3.078-.19Zm1.292,5.434a19.244,19.244,0,0,1,2.394-.114h7.3a18.722,18.722,0,0,1,2.318.114v-3.952a16.722,16.722,0,0,1-2.318.114h-7.3a18.421,18.421,0,0,1-2.394-.114Zm0,5.32a18.98,18.98,0,0,1,2.356-.114H263a13.871,13.871,0,0,1,2.394.114v-3.952a12.048,12.048,0,0,1-2.318.114h-7.3a13.871,13.871,0,0,1-2.394-.114ZM257.64,3.268V1.6h3.382v1.14h4.332a25.883,25.883,0,0,1-.076-2.85v-6.46a23.827,23.827,0,0,1,.076-2.66,12.319,12.319,0,0,1-2.432.114h-6.954c-1.14,0-2.052-.038-2.85-.114a23.1,23.1,0,0,1,.152,2.926v5.89c0,1.292-.076,2.546-.19,3.686Zm-.076-8.7h3.458V-2.28h-3.458Zm49.476-18.2v-2.812a24.865,24.865,0,0,1,.19-4.18H301.3a32.318,32.318,0,0,1,.19,4.294v2.7h-1.786A31.981,31.981,0,0,1,294.5-23.9v5.548a45.349,45.349,0,0,1,5.092-.19h1.9v4.1a38.664,38.664,0,0,1-.19,4.446h5.89a28.49,28.49,0,0,1-.152-4.37v-4.18h9.006c-.038,2.166-.076,3-.114,3.762-.3,4.408-1.368,6.84-4.028,9.006-1.748,1.444-3.686,2.356-7.334,3.42a15.829,15.829,0,0,1,3.5,4.9,26.451,26.451,0,0,0,4.028-1.71,16.71,16.71,0,0,0,6.46-5.586,15.947,15.947,0,0,0,2.66-8.018,57.056,57.056,0,0,0,.266-5.776h2.128c2.2,0,3.762.076,5.092.19V-23.9a36.413,36.413,0,0,1-5.168.266h-2.014c.038-2.546.038-2.546.038-3.268a26.114,26.114,0,0,1,.152-3.686H315.97a33.944,33.944,0,0,1,.152,4.18v2.774ZM369.512-25a4.2,4.2,0,0,0,1.976-3.572,4.176,4.176,0,0,0-4.18-4.218,4.233,4.233,0,0,0-4.218,4.218,4.159,4.159,0,0,0,1.6,3.306H356.1v-1.482a35.539,35.539,0,0,1,.228-4.408H350.17a35.97,35.97,0,0,1,.228,4.408v1.482h-7.562a33.445,33.445,0,0,1-5.472-.266v5.51a48.835,48.835,0,0,1,5.472-.19H350.4V-2.888a46.91,46.91,0,0,1-.228,5.206h6.118c-.114-1.292-.19-3.192-.19-5.206V-20.216h7.942a36.908,36.908,0,0,1,5.472.228Zm-2.2-5.434a1.849,1.849,0,0,1,1.824,1.824,1.857,1.857,0,0,1-1.824,1.862,1.865,1.865,0,0,1-1.862-1.862A1.857,1.857,0,0,1,367.308-30.438ZM341.772-17.822a22.179,22.179,0,0,1-.912,4.332,29.178,29.178,0,0,1-5.282,10.374,20.673,20.673,0,0,1,5.244,2.774,32.374,32.374,0,0,0,3.344-5.966,43.418,43.418,0,0,0,2.47-7.41c.494-2.2.532-2.356.646-2.812Zm17.4,1.292a6.622,6.622,0,0,1,.418,1.216A53.471,53.471,0,0,0,365.712-.3a41.033,41.033,0,0,1,5.206-3.078,38.426,38.426,0,0,1-5.168-10.26A29.369,29.369,0,0,1,364.5-17.86Zm19.456,5.168c1.482-.152,3.648-.228,6.954-.228h19.19c2.964,0,5.472.076,6.992.19v-6.232a49.888,49.888,0,0,1-6.954.266H385.586a47.465,47.465,0,0,1-6.954-.3ZM433.884,2.014a47.021,47.021,0,0,1-.228-5.282V-14.212a13.035,13.035,0,0,0,1.444.684,83.451,83.451,0,0,1,12.73,6.916l3.116-5.472a91.575,91.575,0,0,0-17.29-7.98V-25.84a33.477,33.477,0,0,1,.228-5.092H427.69a33.175,33.175,0,0,1,.228,5.092v22.5a39.271,39.271,0,0,1-.228,5.358Z" transform="translate(198 -264)" fill="#c1c1c1"></path><path id="&#x30D1;&#x30B9;_23" data-name="&#x30D1;&#x30B9; 23" d="M8.056-23.826a29.507,29.507,0,0,1,.228-4.56H3.078a31,31,0,0,1,.228,4.56v15.58a16.872,16.872,0,0,1-2.28.418L1.9-2.584c.8-.3.988-.38,1.824-.684,2.774-.95,5.624-2.014,7.448-2.774v4.674a31.866,31.866,0,0,1-.228,4.6H16.3a29.273,29.273,0,0,1-.228-4.1c.3.418.3.418.418.57A13.44,13.44,0,0,1,18.62,3.382a34.928,34.928,0,0,0,7.866-7.448,44.8,44.8,0,0,0,8.436,7.41,24.121,24.121,0,0,1,2.47-5.168,29.787,29.787,0,0,1-7.98-6.65A49.583,49.583,0,0,0,35.34-28.8c.114-1.1.114-1.1.19-1.634a26.741,26.741,0,0,1-3.116.152H21.2a35.73,35.73,0,0,1-4.294-.228v5.054a28.689,28.689,0,0,1,3.838-.152h1.976l-4.788,1.824c.38,1.254.38,1.254,1.064,4.066a40.309,40.309,0,0,0,4.522,11.59,26.58,26.58,0,0,1-3.838,4.218,18.4,18.4,0,0,1-3.61,2.66V-27.4a29.507,29.507,0,0,1,.228-4.56H10.944a31.613,31.613,0,0,1,.228,4.56v16.72c-1.444.57-1.938.722-3.116,1.1Zm21.812-1.786A39.166,39.166,0,0,1,26.41-13c-1.748-3.458-2.546-6.346-3.572-12.616Zm18.582-1.14a32.072,32.072,0,0,1-4.6-.228v5.016a35.936,35.936,0,0,1,4.6-.228h4.332c-1.9,3.572-5.586,6.8-10.374,9.082a16.015,16.015,0,0,1,2.28,4.56,28.559,28.559,0,0,0,3.192-2.09v8.36H46.36a23.036,23.036,0,0,1-2.888-.19V2.356a41.2,41.2,0,0,1,4.408-.228H73.8c1.52,0,2.926.076,4.37.19V-2.47a16.238,16.238,0,0,1-3.04.19H73.758v-8.208a32.1,32.1,0,0,0,3.192,2.2,18.7,18.7,0,0,1,2.28-5.054A28.4,28.4,0,0,1,73.3-16.986a19.441,19.441,0,0,1-4.864-5.206h4.826a36.021,36.021,0,0,1,4.484.228V-26.98a31.709,31.709,0,0,1-4.6.228H68.59a28.571,28.571,0,0,0,2.66-4.18l-5.13-1.6a22.85,22.85,0,0,1-3.078,5.776H58.406A33.406,33.406,0,0,0,55.1-32.528L50.274-30.97a23.2,23.2,0,0,1,2.7,4.218Zm4.294,11.97a29.277,29.277,0,0,0,5.548-7.41h4.9a28.574,28.574,0,0,0,5.434,7.41Zm-.076,4.37h2.584v8.17H52.668Zm6.8,0h2.622v8.17H59.47Zm6.878,0H68.97v8.17H66.348Zm39.786-3.5a59.067,59.067,0,0,0,12.692-8.626,6.805,6.805,0,0,1,.684-.532l-3.8-3.99a31.957,31.957,0,0,1-9.576,7.524V-26.98a37.656,37.656,0,0,1,.228-4.788h-5.586A38.914,38.914,0,0,1,101-26.98V-2.014c0,3.724,1.178,4.446,7.334,4.446,6.118,0,8.284-.38,9.538-1.748,1.178-1.292,1.672-3.534,1.938-9.044a22.18,22.18,0,0,1-4.826-1.672c-.114,4.446-.38,6.156-.988,6.992-.418.57-1.748.8-4.6.8-2.584,0-3.268-.228-3.268-1.14ZM90.022-1.786c0,1.824-.076,3.344-.228,5.016h5.472c-.152-1.6-.228-3.382-.228-4.978V-22.42a64.993,64.993,0,0,0,2.622-6.346c.3-.8.38-1.026.8-2.128l-5.206-1.482a27.34,27.34,0,0,1-3.8,9.31,26.969,26.969,0,0,1-5.016,6.27A29.313,29.313,0,0,1,86.6-11.21a34.713,34.713,0,0,0,3.5-4.256c-.076,2.736-.076,3.154-.076,4.1Zm49.818-21.85v-2.812a24.865,24.865,0,0,1,.19-4.18H134.1a32.321,32.321,0,0,1,.19,4.294v2.7h-1.786A31.981,31.981,0,0,1,127.3-23.9v5.548a45.349,45.349,0,0,1,5.092-.19h1.9v4.1a38.668,38.668,0,0,1-.19,4.446h5.89a28.49,28.49,0,0,1-.152-4.37v-4.18h9.006c-.038,2.166-.076,3-.114,3.762-.3,4.408-1.368,6.84-4.028,9.006-1.748,1.444-3.686,2.356-7.334,3.42a15.829,15.829,0,0,1,3.5,4.9,26.452,26.452,0,0,0,4.028-1.71,16.71,16.71,0,0,0,6.46-5.586,15.947,15.947,0,0,0,2.66-8.018,57.041,57.041,0,0,0,.266-5.776h2.128c2.2,0,3.762.076,5.092.19V-23.9a36.413,36.413,0,0,1-5.168.266h-2.014c.038-2.546.038-2.546.038-3.268a26.117,26.117,0,0,1,.152-3.686H148.77a33.948,33.948,0,0,1,.152,4.18v2.774ZM202.312-25a4.2,4.2,0,0,0,1.976-3.572,4.176,4.176,0,0,0-4.18-4.218,4.233,4.233,0,0,0-4.218,4.218,4.158,4.158,0,0,0,1.6,3.306H188.9v-1.482a35.542,35.542,0,0,1,.228-4.408H182.97a35.973,35.973,0,0,1,.228,4.408v1.482h-7.562a33.445,33.445,0,0,1-5.472-.266v5.51a48.834,48.834,0,0,1,5.472-.19H183.2V-2.888a46.914,46.914,0,0,1-.228,5.206h6.118c-.114-1.292-.19-3.192-.19-5.206V-20.216h7.942a36.908,36.908,0,0,1,5.472.228Zm-2.2-5.434a1.849,1.849,0,0,1,1.824,1.824,1.857,1.857,0,0,1-1.824,1.862,1.865,1.865,0,0,1-1.862-1.862A1.857,1.857,0,0,1,200.108-30.438ZM174.572-17.822a22.179,22.179,0,0,1-.912,4.332,29.178,29.178,0,0,1-5.282,10.374,20.673,20.673,0,0,1,5.244,2.774,32.375,32.375,0,0,0,3.344-5.966,43.419,43.419,0,0,0,2.47-7.41c.494-2.2.532-2.356.646-2.812Zm17.4,1.292a6.621,6.621,0,0,1,.418,1.216A53.472,53.472,0,0,0,198.512-.3a41.033,41.033,0,0,1,5.206-3.078,38.425,38.425,0,0,1-5.168-10.26A29.373,29.373,0,0,1,197.3-17.86Zm19.456,5.168c1.482-.152,3.648-.228,6.954-.228h19.19c2.964,0,5.472.076,6.992.19v-6.232a49.888,49.888,0,0,1-6.954.266H218.386a47.465,47.465,0,0,1-6.954-.3ZM266.684,2.014a47.028,47.028,0,0,1-.228-5.282V-14.212a13.038,13.038,0,0,0,1.444.684,83.449,83.449,0,0,1,12.73,6.916l3.116-5.472a91.575,91.575,0,0,0-17.29-7.98V-25.84a33.477,33.477,0,0,1,.228-5.092H260.49a33.174,33.174,0,0,1,.228,5.092v22.5a39.27,39.27,0,0,1-.228,5.358Z" transform="translate(198 -199)" fill="#c1c1c1"></path><path id="&#x30D1;&#x30B9;_24" data-name="&#x30D1;&#x30B9; 24" d="M2.242-20.254a35.519,35.519,0,0,1,4.332-.19h4.408a32.334,32.334,0,0,1-3.61,3.61c2.508.38,2.508.38,6.422,1.026a54.1,54.1,0,0,1-9.766.836H2.66A11.457,11.457,0,0,1,4.522-11.1,62,62,0,0,0,16.074-12.54a16.21,16.21,0,0,1,.19,2.546H6.156A33.764,33.764,0,0,1,1.9-10.222v4.446a32.957,32.957,0,0,1,4.332-.19h6.156A35.642,35.642,0,0,1,.722-1.064a14.093,14.093,0,0,1,2.622,4.37A39.9,39.9,0,0,0,10.754.152,25.276,25.276,0,0,0,16.3-3.8c0,.684-.038,2.09-.038,2.7V.342a16.489,16.489,0,0,1-.228,2.964h5.206a14.2,14.2,0,0,1-.19-2.964v-1.52c0-.646-.038-1.748-.114-2.7A31.454,31.454,0,0,0,26.9.19a39.966,39.966,0,0,0,7.638,3.04,16.745,16.745,0,0,1,2.394-4.56A31.674,31.674,0,0,1,24.814-5.966h6.878a33.537,33.537,0,0,1,4.408.19v-4.446a34.283,34.283,0,0,1-4.408.228H21.052a13.04,13.04,0,0,1,.19-2.584H16.15a29.54,29.54,0,0,0,4.864-1.52,76.416,76.416,0,0,1,10.412,3.534l3-3.572a84.283,84.283,0,0,0-9.006-2.584,17.625,17.625,0,0,0,3.5-3.724h2.546a33.67,33.67,0,0,1,4.332.19v-4.1a5.249,5.249,0,0,1-.95.114c-.038-.494-.038-.76-.038-1.33v-1.748a21.372,21.372,0,0,1,.152-2.888,42.129,42.129,0,0,1-4.256.152H21.356a14.856,14.856,0,0,1,.19-2.356H16.074a18.441,18.441,0,0,1,.19,2.356H7.41c-1.748,0-2.964-.038-4.37-.152a23.047,23.047,0,0,1,.152,2.85v1.9c0,.38-.038.684-.038,1.216a6.641,6.641,0,0,1-.912-.114Zm5.7-3.914v-1.976H15.01a22.639,22.639,0,0,1-1.178,1.976Zm15.466,3.724a10.467,10.467,0,0,1-3.42,2.546c-1.938-.342-2.774-.494-5.206-.836.76-.836.874-.95,1.482-1.71Zm-4.484-3.724c.494-.8.646-1.064,1.178-1.976h9.956v1.976Zm44.8-.342h-3.04c.152-.532.3-.95.38-1.216a5.421,5.421,0,0,0,.3-1.026c.456-1.6.456-1.6.646-2.2l-4.9-1.14a19.082,19.082,0,0,1-.95,4.142A28.135,28.135,0,0,1,52.1-17.822a17.921,17.921,0,0,1,3.952,3.268,33.236,33.236,0,0,0,2.964-5.32h4.712v6.612H57.684a33.474,33.474,0,0,1-4.408-.228V-8.4a35.779,35.779,0,0,1,4.446-.228h6v7.334a30.1,30.1,0,0,1-.228,4.56h5.434a29.8,29.8,0,0,1-.228-4.56V-8.626h5.4a35.285,35.285,0,0,1,4.294.228V-13.49a33.232,33.232,0,0,1-4.37.228H68.7v-6.612h4.37c1.292,0,2.242.038,4.18.19v-5.054a29,29,0,0,1-4.18.228H68.7V-27.7a24.409,24.409,0,0,1,.228-4.1H63.5a29.048,29.048,0,0,1,.228,4.066ZM46.816-1.1a33.221,33.221,0,0,1-.228,4.408h5.4a32.984,32.984,0,0,1-.228-4.37V-22.99A53.455,53.455,0,0,0,54.3-29.3a18.541,18.541,0,0,1,.646-1.862l-5.092-1.406a20.6,20.6,0,0,1-1.33,4.826A29.981,29.981,0,0,1,42.332-17.4a23.626,23.626,0,0,1,1.786,5.814,16,16,0,0,0,2.774-3.648c-.076,2.052-.076,2.774-.076,4.028ZM111-22.686c-.038.076-.038.076-.266.456a28.808,28.808,0,0,1-2.584,3.724,52.775,52.775,0,0,1-6.308,6.46A61.472,61.472,0,0,0,95-18.392l-4.408,3.154a59.927,59.927,0,0,1,7.6,7.448,65.281,65.281,0,0,1,7.334,9.728l4.826-3.8c-2.09-2.774-3.04-3.99-4.788-6.042a55.2,55.2,0,0,0,12.16-14.478,11.257,11.257,0,0,1,1.672-2.356l-3.116-3.5a8.55,8.55,0,0,1-2.888.342H92.72a38.9,38.9,0,0,1-5.89-.266v5.7a55.261,55.261,0,0,1,5.776-.19Zm19.988,1.748a39.384,39.384,0,0,1,3.42,9.5L139.5-13a44.229,44.229,0,0,0-3.762-9.31Zm8.284-1.634a44.649,44.649,0,0,1,3.42,9.234l4.978-1.52a37.574,37.574,0,0,0-3.686-9.006Zm13.072-.532a20.248,20.248,0,0,1-.684,4.37c-1.558,6.08-4.066,9.994-8.474,13.186a27.01,27.01,0,0,1-6.688,3.5,16.448,16.448,0,0,1,3.61,4.522c6-3.04,9.386-5.738,12.084-9.614a35.1,35.1,0,0,0,4.978-12.578,13.44,13.44,0,0,1,.57-2.128Zm43.624-8.17a19.788,19.788,0,0,1-4.712,1.786,69.421,69.421,0,0,1-16.416,2.128c-.57,0-1.216-.038-2.432-.076a17.438,17.438,0,0,1,1.672,4.9c5.7-.266,7.258-.38,10.3-.76v.646c0,1.406-.038,3.344-.076,4.332h-8.74a33.445,33.445,0,0,1-5.472-.266v5.358a50.251,50.251,0,0,1,5.4-.19h8.322a11.094,11.094,0,0,1-4.75,8.284A19.234,19.234,0,0,1,173.2-2.09a15.076,15.076,0,0,1,3.99,4.826,27.411,27.411,0,0,0,3.61-1.9,19.892,19.892,0,0,0,6.232-6.08,19.549,19.549,0,0,0,2.546-8.17h7.524a49.188,49.188,0,0,1,5.282.19v-5.358a32.943,32.943,0,0,1-5.4.266h-7.068c.038-1.254.076-2.508.114-5.776a49.758,49.758,0,0,0,7.448-1.9c1.254-.418,1.254-.418,2.09-.646Zm15.922,7.03a40.148,40.148,0,0,1,9.994,7.866l3.838-4.978a53.241,53.241,0,0,0-10.108-7.372Zm1.824,25.308a13.864,13.864,0,0,1,1.9-.532c.722-.152.722-.152,1.672-.342a48.239,48.239,0,0,0,11.058-3.952c6.612-3.5,11.1-8.512,14.858-16.644a20.672,20.672,0,0,1-4.826-4.408,32.911,32.911,0,0,1-3.838,7.562,23.608,23.608,0,0,1-11.172,9.31A36.327,36.327,0,0,1,212.04-5.168Zm66.956-26.98,1.71-.57a18.594,18.594,0,0,0-2.7-4.9l-3.268,1.064a19.6,19.6,0,0,1,2.2,3.99c-.57.038-.95.076-1.368.076l-9.88.114c.418-.836.57-1.14.912-1.9a15.889,15.889,0,0,1,1.1-2.28L263.264-31.5a14.066,14.066,0,0,1-1.824,4.826,29.7,29.7,0,0,1-9.956,11.286,14.016,14.016,0,0,1,4.522,3.876,37.84,37.84,0,0,0,8.778-9.652l10.792-.152c-3.116,9.576-9.044,15.58-19.3,19.532a15.093,15.093,0,0,1,3.914,4.9C266.228.342,270.56-2.7,273.98-6.612a40.782,40.782,0,0,0,7.79-14.858,7.836,7.836,0,0,1,.95-2.394Zm.494-5.662a25.509,25.509,0,0,1,2.622,4.978l3.23-1.216a18.514,18.514,0,0,0-2.7-4.826ZM305.9-23.636v-2.812a24.865,24.865,0,0,1,.19-4.18h-5.928a32.318,32.318,0,0,1,.19,4.294v2.7h-1.786a31.981,31.981,0,0,1-5.206-.266v5.548a45.349,45.349,0,0,1,5.092-.19h1.9v4.1a38.664,38.664,0,0,1-.19,4.446h5.89a28.49,28.49,0,0,1-.152-4.37v-4.18h9.006c-.038,2.166-.076,3-.114,3.762-.3,4.408-1.368,6.84-4.028,9.006-1.748,1.444-3.686,2.356-7.334,3.42a15.829,15.829,0,0,1,3.5,4.9,26.451,26.451,0,0,0,4.028-1.71,16.71,16.71,0,0,0,6.46-5.586,15.947,15.947,0,0,0,2.66-8.018,57.056,57.056,0,0,0,.266-5.776h2.128c2.2,0,3.762.076,5.092.19V-23.9a36.413,36.413,0,0,1-5.168.266h-2.014c.038-2.546.038-2.546.038-3.268a26.114,26.114,0,0,1,.152-3.686H314.83a33.944,33.944,0,0,1,.152,4.18v2.774ZM368.372-25a4.2,4.2,0,0,0,1.976-3.572,4.176,4.176,0,0,0-4.18-4.218,4.233,4.233,0,0,0-4.218,4.218,4.159,4.159,0,0,0,1.6,3.306h-8.588v-1.482a35.539,35.539,0,0,1,.228-4.408H349.03a35.97,35.97,0,0,1,.228,4.408v1.482H341.7a33.445,33.445,0,0,1-5.472-.266v5.51a48.835,48.835,0,0,1,5.472-.19h7.562V-2.888a46.91,46.91,0,0,1-.228,5.206h6.118c-.114-1.292-.19-3.192-.19-5.206V-20.216H362.9a36.908,36.908,0,0,1,5.472.228Zm-2.2-5.434a1.849,1.849,0,0,1,1.824,1.824,1.857,1.857,0,0,1-1.824,1.862,1.865,1.865,0,0,1-1.862-1.862A1.857,1.857,0,0,1,366.168-30.438ZM340.632-17.822a22.179,22.179,0,0,1-.912,4.332,29.178,29.178,0,0,1-5.282,10.374,20.673,20.673,0,0,1,5.244,2.774,32.374,32.374,0,0,0,3.344-5.966,43.418,43.418,0,0,0,2.47-7.41c.494-2.2.532-2.356.646-2.812Zm17.4,1.292a6.62,6.62,0,0,1,.418,1.216A53.471,53.471,0,0,0,364.572-.3a41.033,41.033,0,0,1,5.206-3.078,38.426,38.426,0,0,1-5.168-10.26,29.369,29.369,0,0,1-1.254-4.218Zm19.456,5.168c1.482-.152,3.648-.228,6.954-.228h19.19c2.964,0,5.472.076,6.992.19v-6.232a49.888,49.888,0,0,1-6.954.266H384.446a47.465,47.465,0,0,1-6.954-.3ZM432.744,2.014a47.021,47.021,0,0,1-.228-5.282V-14.212a13.035,13.035,0,0,0,1.444.684,83.451,83.451,0,0,1,12.73,6.916l3.116-5.472a91.575,91.575,0,0,0-17.29-7.98V-25.84a33.477,33.477,0,0,1,.228-5.092H426.55a33.175,33.175,0,0,1,.228,5.092v22.5a39.271,39.271,0,0,1-.228,5.358Z" transform="translate(198 -134)" fill="#c1c1c1"></path><path id="checked" d="M22.973,35.555,12.02,24.6l3.262-3.264,7.69,7.691L42.547,9.457A24.514,24.514,0,0,0,25.3,2a23.3,23.3,0,1,0,23.3,23.3,22.727,22.727,0,0,0-3.262-11.885Z" transform="translate(129 -760)" fill="#c7c0ff"></path><path id="checked-2" data-name="checked" d="M22.973,35.555,12.02,24.6l3.262-3.264,7.69,7.691L42.547,9.457A24.514,24.514,0,0,0,25.3,2a23.3,23.3,0,1,0,23.3,23.3,22.727,22.727,0,0,0-3.262-11.885Z" transform="translate(129 -695)" fill="#c7c0ff"></path><path id="checked-3" data-name="checked" d="M22.973,35.555,12.02,24.6l3.262-3.264,7.69,7.691L42.547,9.457A24.514,24.514,0,0,0,25.3,2a23.3,23.3,0,1,0,23.3,23.3,22.727,22.727,0,0,0-3.262-11.885Z" transform="translate(129 -630)" fill="#c7c0ff"></path><path id="checked-4" data-name="checked" d="M22.973,35.555,12.02,24.6l3.262-3.264,7.69,7.691L42.547,9.457A24.514,24.514,0,0,0,25.3,2a23.3,23.3,0,1,0,23.3,23.3,22.727,22.727,0,0,0-3.262-11.885Z" transform="translate(129 -565)" fill="#c7c0ff"></path><path id="checked-5" data-name="checked" d="M22.973,35.555,12.02,24.6l3.262-3.264,7.69,7.691L42.547,9.457A24.514,24.514,0,0,0,25.3,2a23.3,23.3,0,1,0,23.3,23.3,22.727,22.727,0,0,0-3.262-11.885Z" transform="translate(129 -500)" fill="#c1c1c1"></path><path id="checked-6" data-name="checked" d="M22.973,35.555,12.02,24.6l3.262-3.264,7.69,7.691L42.547,9.457A24.514,24.514,0,0,0,25.3,2a23.3,23.3,0,1,0,23.3,23.3,22.727,22.727,0,0,0-3.262-11.885Z" transform="translate(129 -433)" fill="#c1c1c1"></path><path id="checked-7" data-name="checked" d="M22.973,35.555,12.02,24.6l3.262-3.264,7.69,7.691L42.547,9.457A24.514,24.514,0,0,0,25.3,2a23.3,23.3,0,1,0,23.3,23.3,22.727,22.727,0,0,0-3.262-11.885Z" transform="translate(129 -368)" fill="#c1c1c1"></path><path id="checked-8" data-name="checked" d="M22.973,35.555,12.02,24.6l3.262-3.264,7.69,7.691L42.547,9.457A24.514,24.514,0,0,0,25.3,2a23.3,23.3,0,1,0,23.3,23.3,22.727,22.727,0,0,0-3.262-11.885Z" transform="translate(129 -303)" fill="#c1c1c1"></path><path id="checked-9" data-name="checked" d="M22.973,35.555,12.02,24.6l3.262-3.264,7.69,7.691L42.547,9.457A24.514,24.514,0,0,0,25.3,2a23.3,23.3,0,1,0,23.3,23.3,22.727,22.727,0,0,0-3.262-11.885Z" transform="translate(129 -238)" fill="#c1c1c1"></path><path id="checked-10" data-name="checked" d="M22.973,35.555,12.02,24.6l3.262-3.264,7.69,7.691L42.547,9.457A24.514,24.514,0,0,0,25.3,2a23.3,23.3,0,1,0,23.3,23.3,22.727,22.727,0,0,0-3.262-11.885Z" transform="translate(129 -173)" fill="#c1c1c1"></path></g></svg>