<svg xmlns="http://www.w3.org/2000/svg" width="547" height="89" viewBox="0 0 547 89"><g id="&#x30B0;&#x30EB;&#x30FC;&#x30D7;_21354" data-name="&#x30B0;&#x30EB;&#x30FC;&#x30D7; 21354" transform="translate(-5655 23536)"><g id="&#x30B0;&#x30EB;&#x30FC;&#x30D7;_21352" data-name="&#x30B0;&#x30EB;&#x30FC;&#x30D7; 21352" transform="translate(5140 -24311)"><g id="&#x30B0;&#x30EB;&#x30FC;&#x30D7;_21344" data-name="&#x30B0;&#x30EB;&#x30FC;&#x30D7; 21344" transform="translate(371 100)"><rect id="&#x9577;&#x65B9;&#x5F62;_5693" data-name="&#x9577;&#x65B9;&#x5F62; 5693" width="176" height="89" rx="10" transform="translate(144 675)" fill="#f7f7f7"></rect><path id="&#x30D1;&#x30B9;_40195" data-name="&#x30D1;&#x30B9; 40195" d="M4.2-10.846a11.612,11.612,0,0,1-2.38-.136L1.836-8.5a10.782,10.782,0,0,1,2.329-.1h2.21l-.085.493a8.607,8.607,0,0,1-.816,2.72,9.347,9.347,0,0,1-4.42,4.2A8.314,8.314,0,0,1,2.907.969,12.982,12.982,0,0,0,7.582-3.808,12.83,12.83,0,0,0,8.908-8.6l3.621-.017a38.543,38.543,0,0,1-.323,4.947C11.951-2.04,11.73-1.7,10.931-1.7A8.723,8.723,0,0,1,8.7-2.074,6.09,6.09,0,0,1,9.2.476a12.919,12.919,0,0,0,2.142.187c1.717,0,2.465-.493,2.924-1.887a35.343,35.343,0,0,0,.782-7.633,2.357,2.357,0,0,1,.2-1.173l-1.139-1a3.212,3.212,0,0,1-1.241.17H9.129c.034-.544.051-.646.068-1a14.485,14.485,0,0,1,.153-2.04l-2.7-.068a5.39,5.39,0,0,1,.034.714c0,.8-.034,1.683-.085,2.414Zm17.527-2.686a18.124,18.124,0,0,1,.085,2.312v3.3a20.756,20.756,0,0,1-.1,2.38H24.5c-.051-.459-.085-1.292-.085-2.346V-11.22a18.657,18.657,0,0,1,.1-2.312Zm7.769.017a15.236,15.236,0,0,1,.1,2.3V-9.6a27.061,27.061,0,0,1-.187,3.757,4.4,4.4,0,0,1-2.6,3.4A11.455,11.455,0,0,1,23.494-1.36a6.377,6.377,0,0,1,1.462,2.431A13.989,13.989,0,0,0,28.373-.272a6.759,6.759,0,0,0,3.5-4.284,18.938,18.938,0,0,0,.34-4.9v-1.8a17.351,17.351,0,0,1,.085-2.261ZM43.4-10.71l-2.652.408a14.623,14.623,0,0,1-2.295.238l.391,2.482a22.194,22.194,0,0,1,2.312-.459l2.652-.408.442,2.5-3.57.561a15.5,15.5,0,0,1-2.244.238l.408,2.465a14.933,14.933,0,0,1,2.142-.442l3.672-.578.476,2.6a17.612,17.612,0,0,1,.323,2.38L48.212.816a15.033,15.033,0,0,1-.544-2.38L47.192-4.1l3.451-.527A15.6,15.6,0,0,1,52.87-4.93l-.425-2.448a12.765,12.765,0,0,1-2.278.493l-3.4.544-.459-2.482L49.3-9.3c1.394-.2,1.394-.2,2.142-.272l-.408-2.448a12.728,12.728,0,0,1-2.159.459l-2.992.459-.2-1a12.281,12.281,0,0,1-.255-1.955l-2.669.425a8.161,8.161,0,0,1,.459,1.955Zm23,8.993c.34-1.921.595-3.6.816-5.423a2.729,2.729,0,0,1,.306-1.139l-1.105-.952a2.737,2.737,0,0,1-1.122.17H61.183a12.848,12.848,0,0,1-2.006-.1v2.244a18.743,18.743,0,0,1,1.938-.068h3.672c-.17,1.683-.425,3.332-.782,5.27H59.483a11.971,11.971,0,0,1-2.006-.1V.425c.493-.051,1.1-.068,2.006-.068h8.194c.85,0,1.564.017,2.006.068V-1.819a11.621,11.621,0,0,1-1.989.1Zm9.775-9.35c.527-.051,1.207-.085,2.295-.085h5.661a15.9,15.9,0,0,1,2.278.085v-2.465A10.3,10.3,0,0,1,84.1-13.4H78.523a13.3,13.3,0,0,1-2.346-.136ZM74.749-6.885a21.726,21.726,0,0,1,2.533-.085h7.735a8.375,8.375,0,0,1-2.686,3.689,11.481,11.481,0,0,1-4.607,2.108,7.446,7.446,0,0,1,1.6,2.363,16.077,16.077,0,0,0,4.641-2.448,12.6,12.6,0,0,0,3.859-5.814A5.155,5.155,0,0,1,88.3-8.143L87.159-9.4a4.351,4.351,0,0,1-1.649.17H77.316a15.149,15.149,0,0,1-2.567-.119Zm22.3-6.97a17.089,17.089,0,0,1-.714,3.128,84.7,84.7,0,0,1-2.873,8.4c-.765.034-1.088.051-1.445.051a4.3,4.3,0,0,1-.459-.017L91.919.442A8.935,8.935,0,0,1,93.534.221a94.249,94.249,0,0,0,10.115-1.292,13.652,13.652,0,0,1,.714,2.006L106.845-.34a38.076,38.076,0,0,0-4.08-7.99l-2.295.884a21.723,21.723,0,0,1,1.581,2.737c.357.7.527,1.037.7,1.411a59.271,59.271,0,0,1-6.494.765c1.054-2.584,2.142-5.8,3.264-9.537a6.64,6.64,0,0,1,.442-1.241Zm23.528,9.5V.068c0,.986.425,1.207,2.329,1.207,1.343,0,1.972-.153,2.261-.544.34-.442.493-1.292.578-3.009a6.613,6.613,0,0,1-1.819-.8,10,10,0,0,1-.153,2.142c-.051.17-.221.221-.7.221-.306,0-.425-.068-.425-.238v-3.4h.493c.306,0,1.241.034,1.6.051-.051-.629-.068-.969-.068-1.717v-6.188a13.9,13.9,0,0,1,.068-1.7c-.459.034-.7.051-1.632.051h-5.151a12.882,12.882,0,0,1-1.649-.051,15.422,15.422,0,0,1,.051,1.7v6.188c0,.612-.017,1.173-.034,1.717.782-.051.986-.051,1.564-.051a4.253,4.253,0,0,1-.578,1.955,5.419,5.419,0,0,1-2.856,2.074A8.09,8.09,0,0,1,115.8,1.53a6.976,6.976,0,0,0,3.315-2.7,6.228,6.228,0,0,0,.867-3.179Zm-2.125-7.7h4.131v.9h-4.131Zm0,2.516h4.131v.9h-4.131Zm0,2.516h4.131v.935h-4.131Zm-4.505,2.04a9.951,9.951,0,0,0,1.53,1.6,6.985,6.985,0,0,1,.85-2.176,7.752,7.752,0,0,1-1.955-1.632,18.4,18.4,0,0,0,1.5-2.737,6.218,6.218,0,0,1,.391-.816l-.935-1.037a5.238,5.238,0,0,1-.9.051h-.476v-1.377a10.229,10.229,0,0,1,.085-1.326h-2.312a11.527,11.527,0,0,1,.085,1.309v1.394h-.629a9.668,9.668,0,0,1-1.309-.068v2.159a13.49,13.49,0,0,1,1.445-.068h2.21a9.918,9.918,0,0,1-1.751,2.618,10.041,10.041,0,0,1-2.448,2.057,8.275,8.275,0,0,1,.867,2.278,14.911,14.911,0,0,0,1.649-1.411V-.391a12.517,12.517,0,0,1-.1,1.87h2.295a13.773,13.773,0,0,1-.085-1.87ZM138.4-3.111c0-.323,0-.442.017-.714a12.076,12.076,0,0,1,1.411,1.258l1.326-1.445a16.2,16.2,0,0,0-1.768-1.258h2.567c.714,0,1.122.017,1.734.051a6.647,6.647,0,0,1-.068-1.139v-2.89a7.545,7.545,0,0,1,.068-1.156c-.442.034-.969.051-1.632.051h-2.006v-.85h2.363a15.88,15.88,0,0,1,1.734.068v-2.006a12.745,12.745,0,0,1-1.768.085h-2.329a7.425,7.425,0,0,1,.085-1.326h-2.244c.051.459.068.714.085,1.326h-1.9a15.008,15.008,0,0,1-1.7-.068v-.867a9.12,9.12,0,0,1-1.564.085h-3.009a7.029,7.029,0,0,1-1.53-.1v2.142a5.657,5.657,0,0,1,.7-.068v9.1a6.4,6.4,0,0,1-.867.1l.442,2.193c.289-.1.34-.119.561-.187,1.02-.272,1.921-.527,2.686-.765V-.425a17.4,17.4,0,0,1-.085,1.853h2.125a10.239,10.239,0,0,1-.085-1.683L135,.578a12.756,12.756,0,0,0,1.394-4.131c.017.238.017.34.017.527V-.153c0,.612.1.9.425,1.088a3.594,3.594,0,0,0,1.955.289c1.581,0,2.091-.085,2.431-.425.408-.391.6-1,.68-2.4a21.842,21.842,0,0,1,.68,2.142L144.4-.442A19.973,19.973,0,0,0,142.783-4.3l-1.8.8a9.489,9.489,0,0,1,.85,1.717,4.276,4.276,0,0,1-1.768-.6c-.068,1.6-.1,1.649-.884,1.649-.68,0-.782-.051-.782-.323Zm-7.531-8.823h.969v1.649h-.969Zm2.873,0c.306.017.306.017.476.017v.782a14.364,14.364,0,0,1,1.734-.068h2.023v.85h-1.955c-.7,0-1.173-.017-1.649-.051a10.624,10.624,0,0,1,.051,1.122v2.958a10.741,10.741,0,0,1-.051,1.105c.493-.034.986-.051,1.615-.051h1.887l-.731.612c.289.17.374.221.6.357h-1.411a5.483,5.483,0,0,1,.068.629l-1.717-.663a8.906,8.906,0,0,1-.935,3.247ZM130.866-8.5h.969v1.564h-.969Zm0,3.349h.969V-3.5c-.527.153-.561.153-.969.255Zm5.3-3.468h.918V-7h-.918Zm2.4,0h.867V-7h-.867Zm2.363,0h.867V-7h-.867Z" transform="translate(160 708.752)"></path><path id="&#x30D1;&#x30B9;_40161" data-name="&#x30D1;&#x30B9; 40161" d="M5.091-12.088H3.834a17.513,17.513,0,0,1-2.705-.137v4.1a18.173,18.173,0,0,1,2.705-.137h.956v2.6H4.244A17.085,17.085,0,0,1,1.539-5.8v4.044a13.193,13.193,0,0,1,2.3-.137h.219A13.548,13.548,0,0,1,.829,2.913L4.19,5.482a18.263,18.263,0,0,0,3.5-5.957L4.791-1.9H21.978l-2.514,1.2a30.472,30.472,0,0,1,3.252,6.011l3.716-2.3A26.617,26.617,0,0,0,23.18-1.9a14.993,14.993,0,0,1,2.569.137V-5.776a18.539,18.539,0,0,1-2.6.109h-.219v-2.6h.738a17.73,17.73,0,0,1,2.705.137v-4.1a17.513,17.513,0,0,1-2.705.137h-.738V-14.6a21.3,21.3,0,0,1,2.432.164v-4.1a28.064,28.064,0,0,1-3.5.164H9.19c.246-.355.492-.71.656-1.011a4.223,4.223,0,0,1,.492-.738l-4.372-.71a6.347,6.347,0,0,1-.628,1.2A16.114,16.114,0,0,1,.528-15.121,11.8,11.8,0,0,1,3.151-12.2a24.638,24.638,0,0,0,1.94-1.558ZM8.507-14.6H9.764v2.514H8.507Zm4.727,0h1.284v2.514H13.234ZM8.507-8.263H9.764v2.6H8.507Zm4.727,0h1.284v2.6H13.234Zm4.727,2.6v-2.6h1.312v2.6Zm0-6.421V-14.6h1.312v2.514ZM19.245,4.443a39.529,39.529,0,0,0-1.585-5.957l-3.8.792a41.113,41.113,0,0,1,1.175,6.011ZM12.8,5.072a42.588,42.588,0,0,0-.628-6.339l-3.8.355A44.917,44.917,0,0,1,8.616,3.9c0,.519,0,.738-.055,1.476Zm38.61-7.979V.919c0,.465-.164.546-.984.546a18.827,18.827,0,0,1-1.995-.191A17.808,17.808,0,0,1,49.412,5.4c.546.027.956.027,1.23.027a7.3,7.3,0,0,0,3.525-.574c.847-.546,1.257-1.558,1.257-3.142V-16.1a31.2,31.2,0,0,1,.109-3.361,23.713,23.713,0,0,1-3.279.137H48.1a29.326,29.326,0,0,1-3.416-.137,36.194,36.194,0,0,1,.164,4.509c0,11.2-.355,14.264-1.858,16.559a13.708,13.708,0,0,1-1.967-2.623h.765a17.226,17.226,0,0,1,2.077.082V-4.71a9.788,9.788,0,0,1-1.093.109v-9.454a14.2,14.2,0,0,1,1.421.082v-3.771a13.77,13.77,0,0,1-1.421.109v-.41a13.553,13.553,0,0,1,.109-2.022H38.81a13.553,13.553,0,0,1,.109,2.022v.41H36.351v-.41a14.027,14.027,0,0,1,.109-2.022H32.389a14.028,14.028,0,0,1,.109,2.022v.41a8.341,8.341,0,0,1-1.639-.109v3.771a11.57,11.57,0,0,1,1.639-.082V-4.6a9.527,9.527,0,0,1-1.831-.109V-.94a16.456,16.456,0,0,1,2.022-.082h1.339a14.387,14.387,0,0,1-3.552,3.771,12.857,12.857,0,0,1,2.9,2.978A20.344,20.344,0,0,0,37.553.481l-2.487-1.5h5.192L37.744.427a22.254,22.254,0,0,0,3.033,4.591A15.191,15.191,0,0,1,42.991,3.05,16.549,16.549,0,0,1,45.45,5.728c1.8-2.4,2.487-4.4,2.924-8.635Zm0-6.339v2.705h-2.76c.055-.984.055-1.366.082-2.705Zm0-3.662H48.756v-2.541h2.651ZM36.351-4.6V-5.858h2.569V-4.6Zm0-4.181v-1.2h2.569v1.2Zm0-4.126v-1.148h2.569v1.148ZM71.327.809a23.872,23.872,0,0,1-2.787.3L69.2,5.427a23.208,23.208,0,0,1,2.978-.683c1.94-.383,5.137-1.148,7.241-1.721V.973A14.5,14.5,0,0,0,81.683,3.46,13.159,13.159,0,0,0,84.47,5.509a13.464,13.464,0,0,1,2.077-4.017,12.524,12.524,0,0,1-3.8-2.9,27.759,27.759,0,0,0,2.186-1.749c1.175-1.066,1.257-1.12,1.394-1.23l-2.76-2.241,1.284.055c-.082-1.093-.109-1.639-.109-3.06v-6.913a24.038,24.038,0,0,1,.109-3.06,19.062,19.062,0,0,1-2.459.109H73.786a19.1,19.1,0,0,1-2.569-.109c.082,1.093.082,1.093.109,2.186l-1.667-2.3a7.868,7.868,0,0,1-2.077.137H63.32a13.966,13.966,0,0,1-2.159-.109c.082,1.339.109,2.35.109,3.006V1.6a33.871,33.871,0,0,1-.164,3.716h4.317c-.082-1.2-.137-2.377-.137-3.716V-10.175a8.575,8.575,0,0,1,.9,1.339,7.409,7.409,0,0,1,.929,3.552c0,.71-.219.9-1.038.9a4.035,4.035,0,0,1-.738-.082,10.026,10.026,0,0,1,.71,3.935,8.072,8.072,0,0,0,3.06-.546A3.589,3.589,0,0,0,71-4.437c0-2.131-.437-3.416-2.077-6.039a44.173,44.173,0,0,0,2.268-5.656c.027-.109.055-.164.055-.191a1.239,1.239,0,0,1,.082-.219Zm4.017-7.432h1.12A17.328,17.328,0,0,0,78.4-.639c-.984.273-1.94.492-3.06.71Zm7.6,0A17.892,17.892,0,0,1,80.781-4.6a8.247,8.247,0,0,1-.547-2.022ZM65.288-15.832H67.2a24.566,24.566,0,0,1-1.913,5.274Zm10.056-.027h5.41v1.23h-5.41Zm0,4.509h5.41v1.339h-5.41Z" transform="translate(188.472 739.52)" fill="#9383ff"></path></g><g id="&#x30B0;&#x30EB;&#x30FC;&#x30D7;_21345" data-name="&#x30B0;&#x30EB;&#x30FC;&#x30D7; 21345" transform="translate(299 100)"><rect id="&#x9577;&#x65B9;&#x5F62;_5691" data-name="&#x9577;&#x65B9;&#x5F62; 5691" width="176" height="89" rx="10" transform="translate(402 675)" fill="#f7f7f7"></rect><path id="&#x30D1;&#x30B9;_40162" data-name="&#x30D1;&#x30B9; 40162" d="M3.432-14.322a28.161,28.161,0,0,1,3.248-.186H7.746V-.928a30.557,30.557,0,0,1-.213,4.021h5.8a30.819,30.819,0,0,1-.213-4.021V-14.881a41.339,41.339,0,0,1,.186-4.287,26.412,26.412,0,0,1-3.3.107H6.627a17.354,17.354,0,0,1-3.2-.186ZM27.582-4.5H26.97a26.321,26.321,0,0,1-3.169-.16V-.529a26.632,26.632,0,0,1,3.169-.16h8.281V1.468a24.884,24.884,0,0,1-.16,3.3h4.447a20.852,20.852,0,0,1-.16-3.222V-.689H44.97a26.783,26.783,0,0,1,3.142.16V-4.656a24.944,24.944,0,0,1-3.142.16H39.378V-7.958h3.861c1.3,0,2.077.027,2.956.107v-3.861c-.879.08-1.677.107-3.089.107H39.378v-2.556h4.793a24.738,24.738,0,0,1,3.062.16v-4.047a23.568,23.568,0,0,1-3.062.16H32.482c.186-.373.266-.559.4-.852.293-.692.32-.746.559-1.225l-4.42-.746a7.865,7.865,0,0,1-.666,1.917A16.252,16.252,0,0,1,23.3-12.617,12.068,12.068,0,0,1,25.958-9.1c.746-.692.985-.932,1.624-1.6v6.2Zm3.967,0V-7.958h3.7V-4.5Zm3.7-9.666v2.556H29.366c-.426,0-.586,0-.985-.027a24.461,24.461,0,0,0,1.97-2.53ZM70.664-6.706c0-1.012.027-1.651.08-2.263-.719.053-1.3.08-2.317.08H61.452c-.959,0-1.6-.027-2.317-.08.053.639.08,1.331.08,2.263V.4c0,1.038-.027,2-.107,2.822h3.781V2.107h6.417a20.781,20.781,0,0,1,.4,2.29c1.571.053,1.651.053,2,.053,4.047,0,4.846-.612,4.846-3.781V-16.665c0-1.411.027-2.1.107-3.009a23.431,23.431,0,0,1-2.689.107h-5.8a23.071,23.071,0,0,1-2.716-.107c.053.8.08,1.464.08,2.45v4.846c0,1.385,0,1.624-.053,2.343.559-.027,1.464-.053,2.183-.053h4.953V.03c0,.586-.053.612-1.491.612a3.965,3.965,0,0,1-.453-.027V-6.706ZM69.253-16.771h3.355v.932H69.253Zm0,3.115h3.355v.959H69.253ZM62.889-5.828h4.1v1.065h-4.1Zm0,3.728h4.1v1.092h-4.1Zm-5.538-8.015h4.713c.8,0,1.6.027,2.183.053a23.038,23.038,0,0,1-.053-2.317v-4.846c0-1.038.027-1.651.08-2.45a21.661,21.661,0,0,1-2.716.107H55.966a23.73,23.73,0,0,1-2.689-.107,29.942,29.942,0,0,1,.107,3.062V.989a27.575,27.575,0,0,1-.16,3.595h4.287a27.657,27.657,0,0,1-.16-3.568Zm0-6.657H60.52v.932H57.351Zm0,3.115H60.52v.959H57.351Z" transform="translate(449.568 740.359)" fill="#9383ff"></path></g><g id="&#x30B0;&#x30EB;&#x30FC;&#x30D7;_21346" data-name="&#x30B0;&#x30EB;&#x30FC;&#x30D7; 21346" transform="translate(227 100)"><rect id="&#x9577;&#x65B9;&#x5F62;_5692" data-name="&#x9577;&#x65B9;&#x5F62; 5692" width="175" height="89" rx="10" transform="translate(660 675)" fill="#f7f7f7"></rect><path id="&#x30D1;&#x30B9;_40163" data-name="&#x30D1;&#x30B9; 40163" d="M8.285-19.968A23.376,23.376,0,0,1,7.5-15.091c-.555.029-1.11.058-1.285.058a21.764,21.764,0,0,1-4.088-.292v3.972h1.11c.993.058.993.058,1.314.058H4.9c.7-.029.7-.029,1.577-.029A38.817,38.817,0,0,1,.984-.023l4,2.219c.175-.38.175-.38.555-1.11,1.11-2.1,1.372-2.628,2.044-4.059a58.115,58.115,0,0,0,3.183-8.469c2.336-.2,3.533-.321,4.556-.467a6.974,6.974,0,0,1,.905-.117l-.088-4.03a20.771,20.771,0,0,1-4.41.759c.058-.292.058-.292.175-.73.2-1.022.35-1.665.409-1.927a8.76,8.76,0,0,1,.409-1.577Zm19.449,7.359a45.168,45.168,0,0,0-8.5-3.913l-2.073,3.387a38.121,38.121,0,0,1,8.7,4.147ZM27.558.649c-.234-.175-.234-.175-.5-.38-.5-.409-.759-.613-1.139-.876a20.051,20.051,0,0,0-4.41-2.541A28.138,28.138,0,0,1,21.25-7.09a8.854,8.854,0,0,1,.38-2.891l-4.059-.2a18.367,18.367,0,0,0-.234,3.241,26.6,26.6,0,0,0,.146,2.833,12.6,12.6,0,0,0-2.132-.175,8.652,8.652,0,0,0-3.125.438A5.194,5.194,0,0,0,8.518,1.058c0,3.125,2.628,5.2,6.629,5.2,2.395,0,4.38-.73,5.4-1.986a4.665,4.665,0,0,0,.993-3.125,17.272,17.272,0,0,1,4.147,3.417ZM17.571-.4a4.426,4.426,0,0,1,.058.818c0,1.431-.847,2.161-2.6,2.161-1.548,0-2.453-.642-2.453-1.694,0-1.022,1.08-1.723,2.687-1.723A6.185,6.185,0,0,1,17.571-.4ZM37.136-19.121a16.811,16.811,0,0,1,.117,2.19c0,.876-.029,2.657-.117,6.687-.088,3.855-.117,5.753-.117,7.067A16.856,16.856,0,0,0,37.457,1a6.7,6.7,0,0,0,2.628,3.533,10.2,10.2,0,0,0,5.4,1.314,11.444,11.444,0,0,0,8.936-3.738c1.519-1.694,2.424-3.679,3.592-7.855A15.966,15.966,0,0,1,53.752-8.4a18.786,18.786,0,0,1-1.226,5.081c-1.314,3.212-3.709,4.964-6.8,4.964-1.723,0-3.037-.526-3.65-1.46-.555-.818-.7-1.811-.7-4.643,0-5.052.35-12.849.642-14.572Z" transform="translate(718.016 739.128)" fill="#b2b2b2"></path><path id="&#x30D1;&#x30B9;_40160" data-name="&#x30D1;&#x30B9; 40160" d="M3.412-8.352c-.974,0-1.58-.018-2.168-.073a22.838,22.838,0,0,1,.11,2.37V1.972a20.972,20.972,0,0,1-.11,2.609H3.688v-.79h10.8V4.6h2.425c-.055-.772-.092-1.617-.092-2.609V-6.037a20.883,20.883,0,0,1,.092-2.388c-.606.055-1.139.073-2.149.073H9.53c.2-.386.514-1.047.643-1.378.037-.092.037-.092.055-.147h4.813c.955,0,1.672.037,2.407.092v-2.37c-.735.073-1.525.11-2.407.11h-12a23.092,23.092,0,0,1-2.37-.11v2.37c.68-.055,1.451-.092,2.407-.092H7.509a8.331,8.331,0,0,1-.7,1.525Zm7.11,2.039v1.341H7.564V-6.313Zm2.2,0H14.49V1.66H12.726Zm-2.2,7.973H7.564V.209h2.958Zm-5.144,0H3.688V-6.313h1.69Zm2.186-4.7h2.958V-1.72H7.564ZM30.951-12.5a4.538,4.538,0,0,1,.073.808,7.314,7.314,0,0,1-.551,3.233,5.547,5.547,0,0,1-3.711,2.9,7.636,7.636,0,0,1,1.249,1.966A7.346,7.346,0,0,1,26.835-.636l1.947.882a12.738,12.738,0,0,0,1.268-3.4L28.25-3.7a7.063,7.063,0,0,0,3.968-3.931A6.282,6.282,0,0,0,33.651-5.6a9.424,9.424,0,0,0,2.9,1.984,9.943,9.943,0,0,1,1.194-2.149,7.045,7.045,0,0,1-2.976-1.672,4.733,4.733,0,0,1-1.084-1.543,7.056,7.056,0,0,1,1.874,1.029,15.172,15.172,0,0,0,1.911-3.2l-2.094-.808A9.206,9.206,0,0,1,33.67-9.032a8.011,8.011,0,0,1-.367-2.425,6.246,6.246,0,0,1,.073-1.047Zm-3.784,3.84,1.819.7a11.789,11.789,0,0,0,1.231-3.344l-2.058-.459a7.611,7.611,0,0,1-.992,2.792V-9.6a10.1,10.1,0,0,1-1.488.073H22a8.191,8.191,0,0,1-1.488-.092v2.186A11.1,11.1,0,0,1,22-7.507h3.748a8.764,8.764,0,0,1,1.415.055Zm-.4,11.28a7.557,7.557,0,0,1,.919,2.076,7.94,7.94,0,0,0,2.664-1.635,6.455,6.455,0,0,0,1.874-2.7,9.41,9.41,0,0,0,4.464,4.3A9.683,9.683,0,0,1,37.895,2.3,6.958,6.958,0,0,1,33.835-1,8.391,8.391,0,0,1,35.672.062,15.043,15.043,0,0,0,37.38-2.969l-2.113-.753a9.069,9.069,0,0,1-1.451,2.664,7.819,7.819,0,0,1-.533-3.013,8.372,8.372,0,0,1,.055-1.01H30.914a5.67,5.67,0,0,1,.073,1.066c0,2.2-.423,3.637-1.433,4.758a6.222,6.222,0,0,1-2.792,1.745V-.342A10.97,10.97,0,0,1,26.8-1.61a5.2,5.2,0,0,1-1.084.055h-3.38a11.878,11.878,0,0,1-1.268-.055,11.445,11.445,0,0,1,.073,1.4v2.9c0,.551-.037,1.157-.092,1.8H23.29V3.626h1.47v.643H26.8a10.222,10.222,0,0,1-.037-1.194ZM23.216.154H24.76v1.6H23.216ZM21.177-10.263c.441-.037.845-.055,1.562-.055h2.425c.735,0,1.047.018,1.562.055v-1.929a11.438,11.438,0,0,1-1.562.073H22.739a11.438,11.438,0,0,1-1.562-.073Zm.018,5.42A6.141,6.141,0,0,1,22.316-4.9h3.307a6.017,6.017,0,0,1,1.084.055V-6.754a5.7,5.7,0,0,1-1.084.055H22.316A8.848,8.848,0,0,1,21.2-6.754Zm0,2.59a8.144,8.144,0,0,1,1.1-.055h3.288a7.9,7.9,0,0,1,1.121.055V-4.164a7.656,7.656,0,0,1-1.084.055H22.316A8.457,8.457,0,0,1,21.2-4.164ZM46.878-8.518V-9.877A12.022,12.022,0,0,1,46.97-11.9H44.1A15.626,15.626,0,0,1,44.2-9.822v1.3h-.863a15.461,15.461,0,0,1-2.517-.129v2.682a21.924,21.924,0,0,1,2.462-.092H44.2v1.984A18.7,18.7,0,0,1,44.1-1.922h2.848a13.775,13.775,0,0,1-.073-2.113V-6.056h4.354c-.018,1.047-.037,1.451-.055,1.819C51.03-2.106,50.516-.93,49.23.117A9.113,9.113,0,0,1,45.684,1.77a7.652,7.652,0,0,1,1.69,2.37,12.789,12.789,0,0,0,1.947-.827,8.078,8.078,0,0,0,3.123-2.7,7.709,7.709,0,0,0,1.286-3.876,27.578,27.578,0,0,0,.129-2.792h1.029c1.066,0,1.819.037,2.462.092V-8.646a17.6,17.6,0,0,1-2.5.129h-.974c.018-1.231.018-1.231.018-1.58a12.625,12.625,0,0,1,.073-1.782H51.2a16.413,16.413,0,0,1,.073,2.021v1.341ZM76.9-9.179a2.032,2.032,0,0,0,.955-1.727,2.019,2.019,0,0,0-2.021-2.039,2.046,2.046,0,0,0-2.039,2.039,2.01,2.01,0,0,0,.772,1.6H70.412v-.716a17.181,17.181,0,0,1,.11-2.131H67.546a17.39,17.39,0,0,1,.11,2.131v.716H64a16.169,16.169,0,0,1-2.645-.129v2.664A23.609,23.609,0,0,1,64-6.864h3.656V1.513a22.679,22.679,0,0,1-.11,2.517H70.5c-.055-.625-.092-1.543-.092-2.517V-6.864h3.84a17.843,17.843,0,0,1,2.645.11Zm-1.066-2.627a.894.894,0,0,1,.882.882.9.9,0,0,1-.882.9.9.9,0,0,1-.9-.9A.9.9,0,0,1,75.831-11.806Zm-12.345,6.1a10.723,10.723,0,0,1-.441,2.094A14.106,14.106,0,0,1,60.491,1.4a9.994,9.994,0,0,1,2.535,1.341A15.652,15.652,0,0,0,64.643-.14a20.99,20.99,0,0,0,1.194-3.582c.239-1.066.257-1.139.312-1.359Zm8.414.625a3.2,3.2,0,0,1,.2.588A25.851,25.851,0,0,0,75.06,2.762a19.837,19.837,0,0,1,2.517-1.488,18.577,18.577,0,0,1-2.5-4.96,14.2,14.2,0,0,1-.606-2.039Zm9.222,2.5c.716-.073,1.764-.11,3.362-.11h9.277c1.433,0,2.645.037,3.38.092V-5.615a24.118,24.118,0,0,1-3.362.129h-9.3a22.947,22.947,0,0,1-3.362-.147ZM107.65,3.883a22.735,22.735,0,0,1-.11-2.554V-3.961a6.3,6.3,0,0,0,.7.331,40.344,40.344,0,0,1,6.154,3.344L115.9-2.933a44.272,44.272,0,0,0-8.359-3.858V-9.583a16.186,16.186,0,0,1,.11-2.462h-2.994a16.037,16.037,0,0,1,.11,2.462V1.293a18.984,18.984,0,0,1-.11,2.59Z" transform="translate(689.325 706.391)"></path></g></g><path id="&#x30D1;&#x30B9;_40194" data-name="&#x30D1;&#x30B9; 40194" d="M12.918-12.253a9.006,9.006,0,0,1-2.145.813,31.6,31.6,0,0,1-7.471.969c-.259,0-.553-.017-1.107-.035a7.936,7.936,0,0,1,.761,2.231c2.594-.121,3.3-.173,4.687-.346v.294c0,.64-.017,1.522-.035,1.972H3.63a15.221,15.221,0,0,1-2.49-.121v2.439A22.87,22.87,0,0,1,3.6-4.125H7.383A5.049,5.049,0,0,1,5.222-.354,8.754,8.754,0,0,1,2.558,1.029a6.861,6.861,0,0,1,1.816,2.2,12.475,12.475,0,0,0,1.643-.865A9.053,9.053,0,0,0,8.853-.406a8.9,8.9,0,0,0,1.159-3.718h3.424a22.387,22.387,0,0,1,2.4.086V-6.477a14.993,14.993,0,0,1-2.456.121H10.168c.017-.571.035-1.141.052-2.629a22.646,22.646,0,0,0,3.39-.865c.571-.19.571-.19.951-.294ZM23.813-6.6l-1.038.156a11.2,11.2,0,0,1-1.937.225l.415,2.283A11.528,11.528,0,0,1,23.07-4.35l1.107-.19,1.038,5.811a17.715,17.715,0,0,1,.277,2.006l2.56-.45a13.089,13.089,0,0,1-.5-1.989L26.459-4.92l4.272-.744a7.8,7.8,0,0,1-2.784,2.94,5.882,5.882,0,0,1,1.9,1.435,10.512,10.512,0,0,0,3.424-4.7,3.142,3.142,0,0,1,.432-.882l-1.4-1.28a3.548,3.548,0,0,1-1.263.346l-4.964.83L25.871-8a11.514,11.514,0,0,1-.19-1.574l-2.439.363a7.864,7.864,0,0,1,.38,1.539ZM40.07-7.549a17.925,17.925,0,0,1,1.557,4.324l2.317-.709a20.129,20.129,0,0,0-1.712-4.237Zm3.77-.744A20.321,20.321,0,0,1,45.4-4.09l2.266-.692a17.1,17.1,0,0,0-1.678-4.1Zm5.949-.242a9.215,9.215,0,0,1-.311,1.989,9.737,9.737,0,0,1-3.857,6,12.293,12.293,0,0,1-3.044,1.591A7.486,7.486,0,0,1,44.221,3.1a13.438,13.438,0,0,0,5.5-4.376A15.973,15.973,0,0,0,51.986-7a6.117,6.117,0,0,1,.259-.969ZM63.608,2.9a21.4,21.4,0,0,1-.1-2.4V-4.488a5.933,5.933,0,0,0,.657.311,37.979,37.979,0,0,1,5.794,3.148l1.418-2.49A41.677,41.677,0,0,0,63.5-7.151V-9.78a15.236,15.236,0,0,1,.1-2.317H60.789a15.1,15.1,0,0,1,.1,2.317V.458a17.873,17.873,0,0,1-.1,2.439ZM81.283-8.777v-1.28a11.316,11.316,0,0,1,.086-1.9h-2.7A14.709,14.709,0,0,1,78.758-10v1.228h-.813A14.555,14.555,0,0,1,75.576-8.9v2.525a20.639,20.639,0,0,1,2.317-.086h.865v1.868a17.6,17.6,0,0,1-.086,2.023h2.681a12.965,12.965,0,0,1-.069-1.989v-1.9h4.1c-.017.986-.035,1.366-.052,1.712-.138,2.006-.623,3.113-1.833,4.1A8.579,8.579,0,0,1,80.159.908,7.2,7.2,0,0,1,81.75,3.139a12.039,12.039,0,0,0,1.833-.778,7.6,7.6,0,0,0,2.94-2.542,7.258,7.258,0,0,0,1.211-3.649,25.959,25.959,0,0,0,.121-2.629h.968c1,0,1.712.035,2.317.086V-8.9a16.572,16.572,0,0,1-2.352.121h-.917c.017-1.159.017-1.159.017-1.487a11.886,11.886,0,0,1,.069-1.678H85.347a15.451,15.451,0,0,1,.069,1.9v1.263ZM109.542-9.4a1.913,1.913,0,0,0,.9-1.626,1.9,1.9,0,0,0-1.9-1.92,1.926,1.926,0,0,0-1.92,1.92,1.893,1.893,0,0,0,.726,1.5h-3.909V-10.2a16.176,16.176,0,0,1,.1-2.006h-2.8a16.369,16.369,0,0,1,.1,2.006v.674H97.4a15.221,15.221,0,0,1-2.49-.121v2.508A22.225,22.225,0,0,1,97.4-7.22h3.442V.666a21.347,21.347,0,0,1-.1,2.369h2.784c-.052-.588-.086-1.453-.086-2.369V-7.22h3.615a16.8,16.8,0,0,1,2.49.1Zm-1-2.473a.842.842,0,0,1,.83.83.845.845,0,0,1-.83.847.849.849,0,0,1-.847-.847A.845.845,0,0,1,108.539-11.873ZM96.917-6.131A10.1,10.1,0,0,1,96.5-4.159,13.279,13.279,0,0,1,94.1.562a9.408,9.408,0,0,1,2.387,1.263A14.735,14.735,0,0,0,98.007-.891a19.761,19.761,0,0,0,1.124-3.372c.225-1,.242-1.072.294-1.28Zm7.921.588a3.013,3.013,0,0,1,.19.553,24.336,24.336,0,0,0,2.784,6.831,18.675,18.675,0,0,1,2.369-1.4,17.489,17.489,0,0,1-2.352-4.67,13.37,13.37,0,0,1-.571-1.92Zm8.682,2.352c.674-.069,1.66-.1,3.165-.1h8.734c1.349,0,2.49.035,3.182.086V-6.044a22.7,22.7,0,0,1-3.165.121h-8.751a21.6,21.6,0,0,1-3.165-.138ZM138.494,2.9a21.4,21.4,0,0,1-.1-2.4V-4.488a5.934,5.934,0,0,0,.657.311,37.979,37.979,0,0,1,5.794,3.148l1.418-2.49a41.678,41.678,0,0,0-7.869-3.632V-9.78a15.236,15.236,0,0,1,.1-2.317h-2.819a15.1,15.1,0,0,1,.1,2.317V.458a17.871,17.871,0,0,1-.1,2.439Z" transform="translate(5855.301 -23503.797)"></path></g></svg>