<svg xmlns="http://www.w3.org/2000/svg" xmlns:xlink="http://www.w3.org/1999/xlink" width="619" height="114.373" viewBox="0 0 619 114.373"><defs><linearGradient id="linear-gradient" x1="0.5" y1="0.246" x2="0.5" y2="1" gradientUnits="objectBoundingBox"><stop offset="0" stop-color="#4f3bf2"></stop><stop offset="1" stop-color="#523bc9"></stop></linearGradient></defs><g id="&#x30B0;&#x30EB;&#x30FC;&#x30D7;_9077" data-name="&#x30B0;&#x30EB;&#x30FC;&#x30D7; 9077" transform="translate(-626 -4771.627)"><path id="slash-left" d="M13.57.265l46.68,108H52.781L.5.265Z" transform="translate(625.5 4777.731)" fill="url(#linear-gradient)"></path><path id="slash-left-2" data-name="slash-left" d="M47.18.265.5,108.268H7.969L60.25.265Z" transform="translate(1184.75 4771.735)" fill="url(#linear-gradient)"></path><path id="&#x30D1;&#x30B9;_14084" data-name="&#x30D1;&#x30B9; 14084" d="M-106.032-2.021c0,2.162-.094,4.465-.282,6.251h7.379V2.115h8.883V4.183h7.379a59.369,59.369,0,0,1-.282-6.2V-34.028c0-1.786.047-3.243.188-4.841-1.128.094-2.679.188-4.559.188H-101.52c-1.692,0-3.055-.047-4.7-.188.141,2.162.188,3.384.188,4.888v16.074a23.936,23.936,0,0,1-5.687-7.567h1.786a19.181,19.181,0,0,1,2.773.188v-6.956a17.686,17.686,0,0,1-2.867.235h-2.021v-3.1A34.191,34.191,0,0,1-111.766-40h-7.52A28.117,28.117,0,0,1-119-35.109v3.1h-1.974a17.927,17.927,0,0,1-3.572-.235v7a17.459,17.459,0,0,1,3.478-.235h1.5a34.067,34.067,0,0,1-6.2,12.69,35.779,35.779,0,0,1,2.726,7.943,29.528,29.528,0,0,0,2.209-3.572,24.764,24.764,0,0,0,2.021-4.559c-.094,1.222-.141,3.525-.141,5.593v5.687a56.531,56.531,0,0,1-.282,6.063h7.473a55.307,55.307,0,0,1-.282-6.063v-9.823c0-2.115-.047-3.243-.094-4.7a27.148,27.148,0,0,0,3.337,5.4,32.7,32.7,0,0,1,2.773-7.1Zm7.1-30.033h8.883v4.982h-8.883Zm0,11.186h8.883v5.123h-8.883Zm0,11.327h8.883v5.076h-8.883Zm66.6-7.614a28.27,28.27,0,0,1,3.243-5.828c-3.713-1.269-5.593-2.256-7.332-3.948A11.473,11.473,0,0,1-39.1-30.6a29.607,29.607,0,0,1,4.935,2.585,43.067,43.067,0,0,0,4.512-8.225l-6.251-2.3a26.058,26.058,0,0,1-3.619,6.862,19.176,19.176,0,0,1-.7-5.546,13.964,13.964,0,0,1,.188-2.538h-7.238a10.262,10.262,0,0,1,.188,2.068c0,4.653-.752,7.614-2.585,10.1-1.739,2.444-3.9,3.854-7.755,5.17v-2.3a19.4,19.4,0,0,1-2.632.094h-9.306a22.6,22.6,0,0,1-2.773-.094v5.311a21.409,21.409,0,0,1,2.773-.094h9.306a20.536,20.536,0,0,1,2.632.094v-2.726a20.816,20.816,0,0,1,2.679,4.042,30.815,30.815,0,0,1-2.444,6.58,15.724,15.724,0,0,1-2.632.141h-9.4a31.724,31.724,0,0,1-3.337-.141A27.058,27.058,0,0,1-72.38-7.99V-.329c0,1.457-.094,3.008-.235,4.606h6.721V2.3h2.679V3.666h6.11A22.438,22.438,0,0,1-57.2.517V-.564a26,26,0,0,1,2.35,5.405,20.307,20.307,0,0,0,6.016-3.478,16.6,16.6,0,0,0,5.264-6.909A24.673,24.673,0,0,0-32.43,4.7a29.819,29.819,0,0,1,3.619-7.05c-4.935-1.786-8.131-4.277-9.917-7.8a29.245,29.245,0,0,1,4.841,2.773,39.99,39.99,0,0,0,4.371-8.742Zm-14.993-3.384a14.607,14.607,0,0,1,.141,2.021c0,4.7-.564,7.708-1.88,10.152A13.878,13.878,0,0,1-57.2-1.927V-9.071l4.512,2.021a44.492,44.492,0,0,0,3.76-9.447l-3.1-.893c4.23-2.3,7-5.17,8.554-8.883a13.578,13.578,0,0,0,3.2,4.559,26.209,26.209,0,0,0,4.465,3.478,27.3,27.3,0,0,1-3.337,7.05,21.078,21.078,0,0,1-1.081-7,16.578,16.578,0,0,1,.141-2.35Zm-18.8,14.194h2.961V-3.2h-2.961ZM-56.4-29.563l4.559,1.692A32.278,32.278,0,0,0-48.692-36.9l-5.922-1.269A25.586,25.586,0,0,1-56.4-32.148v-.141a36.956,36.956,0,0,1-3.807.141h-9.729a20.955,20.955,0,0,1-3.807-.235v6.392a27.96,27.96,0,0,1,3.807-.188h9.823a22.143,22.143,0,0,1,3.713.141Zm-15.792-3.995c1.222-.094,2.256-.141,4.23-.141h6.3c2.115,0,2.961.047,4.23.141v-5.5a31.871,31.871,0,0,1-4.23.188h-6.3a31.421,31.421,0,0,1-4.23-.188Zm.047,20.821c.752-.047,1.363-.094,2.679-.094h9.259c1.41,0,2.209.047,2.773.094v-5.311a19.432,19.432,0,0,1-2.679.094h-9.259c-1.41,0-1.974-.047-2.773-.094ZM-20.3-25.756a52,52,0,0,1,6.627-.893c8.789-.705,10.434-.846,11.468-.94L0-27.824a19.232,19.232,0,0,0-4.606,4,16.09,16.09,0,0,0-4,10.622C-8.6-7.238-5.734-2.914-.188-.329,2.82,1.034,6.345,1.833,11.7,2.3a12.02,12.02,0,0,1,1.739.235l1.081-8.93c-.705.047-1.034.047-1.41.047A24.83,24.83,0,0,1,4.136-8.037C1.457-9.306.188-11.139.188-13.865c0-3.854,2.773-7.8,7.473-10.669a22.029,22.029,0,0,1,10.763-3.29,7.147,7.147,0,0,1,1.316.094l-.423-8.507a3.963,3.963,0,0,1-1.081.188c-.235,0-.517.047-2.115.094l-1.974.094-4.841.188c-8.93.329-13.489.564-20.257.987-5.123.329-6.815.423-8.037.423-.376,0-.987,0-1.786-.047ZM8.037-21.667A29.225,29.225,0,0,1,12.6-14.711l4.512-2.068a30.3,30.3,0,0,0-4.559-6.815Zm6.58-2.773a33.65,33.65,0,0,1,4.465,6.768l4.371-2.021a32.483,32.483,0,0,0-4.606-6.627Zm19.834-2.209c1.081-.047,1.41-.047,3.525-.094a99.4,99.4,0,0,0,12.267-.517c.564,1.269.94,2.115,1.081,2.491a119.888,119.888,0,0,1-12.831.658,40.111,40.111,0,0,1-4.841-.188l.329,6.956a35.159,35.159,0,0,1,4.089-.235c6.768-.188,12.173-.517,16.168-1.034.94,1.5,1.645,2.632,2.162,3.337a31.16,31.16,0,0,0-6.486-.564A25.229,25.229,0,0,0,39.856-14.1a8.617,8.617,0,0,0-5.593,7.755A8.771,8.771,0,0,0,36-1.175c2.3,2.961,7.1,4.465,14.241,4.465A60.377,60.377,0,0,0,63.4,1.833a30.8,30.8,0,0,1,3.29-.658L65.612-6.768A37.623,37.623,0,0,1,50.666-3.854c-4.982,0-7.426-.846-7.426-2.585,0-1.974,2.867-3.055,8.084-3.055a20.2,20.2,0,0,1,9.87,2.068L68.1-11a53.335,53.335,0,0,1-6.016-8.648c.611-.141,2.773-.517,2.82-.517,4.7-.987,4.7-.987,5.781-1.128L69.983-28.2c-2.162.8-4.418,1.316-10.951,2.491-.188-.329-.705-1.551-1.081-2.444,4.7-.752,4.747-.8,7.473-1.363,2.585-.517,2.585-.517,3.478-.7l-.658-6.862a87.716,87.716,0,0,1-12.737,2.632,21.208,21.208,0,0,1-1.457-4.888l-8.225.987c.423.846.987,2.115,1.974,4.7-2.115.188-5.734.329-8.413.329a45.363,45.363,0,0,1-5.358-.235ZM88.689-29.61c.94-.094,1.833-.188,3.1-.235,6.627-.329,8.507-.423,11-.7C96.961-24.769,87.044-17.061,82.72-15.04L87.091-7.9A34.949,34.949,0,0,1,91.6-11.421a27.028,27.028,0,0,1,14.476-4.324c5.217,0,8.413,2.021,8.413,5.311,0,2.4-1.175,4-3.713,5.123a11.056,11.056,0,0,0-2.162-3.713,11.024,11.024,0,0,0-8.413-3.619c-5.452,0-9.353,3.149-9.353,7.52,0,5.217,4.841,8.366,12.784,8.366A25.547,25.547,0,0,0,116.09.282a12.276,12.276,0,0,0,6.486-11.045,10.433,10.433,0,0,0-3.431-8.131c-2.491-2.162-5.64-3.2-10.058-3.2a22.486,22.486,0,0,0-6.439.846c3.149-2.3,4-3.008,6.486-5.123,6.345-5.452,6.345-5.452,7.567-6.157l-3.854-5.687a9.474,9.474,0,0,1-3.572.658c-4.747.376-9.964.564-14.147.564a52.6,52.6,0,0,1-6.768-.329ZM103.776-3.2a7.133,7.133,0,0,1-1.551.141c-2.538,0-4.042-.8-4.042-2.068a1.619,1.619,0,0,1,1.833-1.551C101.849-6.674,103.165-5.452,103.776-3.2Z" transform="translate(874 4876)" fill="#583ffd"></path><path id="&#x30D1;&#x30B9;_14083" data-name="&#x30D1;&#x30B9; 14083" d="M-30.973-29.14A15.183,15.183,0,0,0-34.122-34.4c-2.538-2.679-6.392-4.136-11-4.136-5.875,0-10.2,2.068-13.254,6.3-2.444,3.384-3.9,8.883-3.9,14.805,0,6.392,1.645,11.656,4.794,15.134,2.726,3.1,6.862,4.747,11.75,4.747,9.259,0,15.651-5.687,15.651-13.818,0-8.084-5.358-13.16-13.865-13.16A14.272,14.272,0,0,0-50.2-23.312,8.478,8.478,0,0,0-53.157-21.2a16.07,16.07,0,0,1,1.363-5.828,6.572,6.572,0,0,1,6.3-4.042c2.867,0,4.465,1.175,5.311,3.9ZM-45.637-17.061c4.042,0,6.486,2.209,6.486,5.828,0,3.572-2.773,6.063-6.674,6.063-3.76,0-6.533-2.491-6.533-5.969C-52.358-14.758-49.726-17.061-45.637-17.061ZM-5.358,2.3C.611,2.3,5.546-.329,8.366-5.029c1.786-2.961,2.961-8.131,2.961-13.066a31.263,31.263,0,0,0-1.833-10.81,14.8,14.8,0,0,0-3.431-5.217A15.982,15.982,0,0,0-5.358-38.493c-5.922,0-10.81,2.632-13.677,7.426C-20.821-28.106-22-22.983-22-18.048A31.187,31.187,0,0,0-20.163-7.285a14.8,14.8,0,0,0,3.431,5.217A15.6,15.6,0,0,0-5.358,2.3Zm0-32.853c4.559,0,7,4.23,7,12.267,0,8.366-2.35,12.6-6.956,12.6-4.653,0-7.05-4.324-7.05-12.737C-12.361-26.085-9.776-30.55-5.358-30.55Zm38.822,12.5a15.343,15.343,0,0,1-2.021,7.332c-2.068,3.76-5.452,6.439-10.951,8.648a28.441,28.441,0,0,1,4.653,6.392,27.672,27.672,0,0,0,4.7-2.585,26.013,26.013,0,0,0,7.426-7.8,26.144,26.144,0,0,0,3.76-11.985h7.144a63.2,63.2,0,0,1-.8,11.8c-.47,1.974-1.034,2.3-3.478,2.3a39.16,39.16,0,0,1-4.982-.423,25.379,25.379,0,0,1,2.021,7.52C43.8,3.2,43.8,3.2,44.274,3.2c5.828,0,8.084-.893,9.353-3.619C54.8-2.961,55.46-9.353,55.507-18.8A42.358,42.358,0,0,0,59.5-15.557a37.407,37.407,0,0,1,4.747-7.191A32.992,32.992,0,0,1,52.123-35.3,19.8,19.8,0,0,1,50.2-39.621l-7,2.679c.282.658.611,1.316.893,2.021a45.981,45.981,0,0,0,6.063,10.34H32.43a61.348,61.348,0,0,0,5.969-9.87,18.56,18.56,0,0,1,1.222-2.4l-7.708-2.82A14.625,14.625,0,0,1,30.268-35.3,35.026,35.026,0,0,1,18.424-21.9a30.153,30.153,0,0,1,4.794,6.627,42.96,42.96,0,0,0,5.828-5.217v2.632a22.5,22.5,0,0,1,3.2-.188Z" transform="translate(1066 4876)" fill="#333"></path><path id="&#x30D1;&#x30B9;_14082" data-name="&#x30D1;&#x30B9; 14082" d="M-266-12.126l.094,8.93v.658a34.467,34.467,0,0,1-.376,5.734h9.024a62.552,62.552,0,0,1-.329-6.486l-.235-20.257h3.008a56.613,56.613,0,0,1,6.58.235v-8.037a40.619,40.619,0,0,1-6.721.376h-2.961v-3.149a41.965,41.965,0,0,1,.188-4.559h-8.789a48.316,48.316,0,0,1,.282,5.311l.047,2.35H-280.9a56.2,56.2,0,0,1-7.238-.376v8.084a68.121,68.121,0,0,1,7.1-.282h9.682c-4.324,6.721-10.2,11.515-19.693,16.027A21.808,21.808,0,0,1-285.5-.47c8.789-4.794,14.946-10.2,19.552-17.108-.047,1.739-.047,2.4-.047,3.572Zm29.8-17.625a50.2,50.2,0,0,1,12.784,9.917l5.546-7.332a68.565,68.565,0,0,0-12.925-9.212Zm2.914,31.584c1.269-.376,1.551-.423,3.384-.846,8.742-2.021,13.207-3.76,18.283-7.05,6.58-4.23,11.045-9.776,15.322-19.035a30.343,30.343,0,0,1-6.909-6.3,43.27,43.27,0,0,1-4.606,9.212,28.262,28.262,0,0,1-13.771,11.609,47.161,47.161,0,0,1-14.147,3.384Zm53.063-31.913a61.367,61.367,0,0,1,6.815-.235h15.228c3.243,0,5.452.094,7.238.235v-7.9a45.076,45.076,0,0,1-7.379.376h-14.993a42.856,42.856,0,0,1-6.909-.376Zm-3.9,11.75a70.487,70.487,0,0,1,7.473-.282H-156.3a20.447,20.447,0,0,1-7.238,9.4c-3.384,2.538-6.768,4.042-12.408,5.5A26.2,26.2,0,0,1-170.681,4c6.439-2.491,9.823-4.324,13.4-7.332,4.606-3.854,7.99-9.118,10.434-16.121a9.426,9.426,0,0,1,1.316-2.961l-3.666-3.948c-1.175.47-1.5.517-3.76.517h-23.594a49.762,49.762,0,0,1-7.567-.376Zm82.25-20.633c-1.363,2.35-4.512,5.546-8.554,8.6-7.567,5.828-14.758,9.353-24.957,12.22a25.236,25.236,0,0,1,4.512,7.567A80,80,0,0,0-115.5-17.531V-4.559a63.857,63.857,0,0,1-.282,7.567h9.118a67.174,67.174,0,0,1-.282-7.614V-22.7a78.782,78.782,0,0,0,10.857-9.447,16.82,16.82,0,0,1,1.833-1.739ZM-81.1-29.751a50.2,50.2,0,0,1,12.784,9.917l5.546-7.332a68.565,68.565,0,0,0-12.925-9.212Zm2.914,31.584c1.269-.376,1.551-.423,3.384-.846,8.742-2.021,13.207-3.76,18.283-7.05,6.58-4.23,11.045-9.776,15.322-19.035A30.343,30.343,0,0,1-48.1-31.4a43.271,43.271,0,0,1-4.606,9.212A28.262,28.262,0,0,1-66.482-10.575,47.161,47.161,0,0,1-80.629-7.191Zm47.7-27.589a52,52,0,0,1,6.627-.893c8.789-.705,10.434-.846,11.468-.94l2.209-.235a19.232,19.232,0,0,0-4.606,4,16.09,16.09,0,0,0-4,10.622c0,5.969,2.867,10.293,8.413,12.878C-7.356,1.034-3.831,1.833,1.527,2.3a12.02,12.02,0,0,1,1.739.235l1.081-8.93c-.705.047-1.034.047-1.41.047A24.83,24.83,0,0,1-6.04-8.037c-2.679-1.269-3.948-3.1-3.948-5.828,0-3.854,2.773-7.8,7.473-10.669a22.029,22.029,0,0,1,10.763-3.29,7.147,7.147,0,0,1,1.316.094l-.423-8.507a3.963,3.963,0,0,1-1.081.188c-.235,0-.517.047-2.115.094l-1.974.094-4.841.188c-8.93.329-13.489.564-20.257.987-5.123.329-6.815.423-8.037.423-.376,0-.987,0-1.786-.047Zm28.341,4.089A29.225,29.225,0,0,1,2.42-14.711l4.512-2.068a30.3,30.3,0,0,0-4.559-6.815Zm6.58-2.773a33.65,33.65,0,0,1,4.465,6.768l4.371-2.021A32.483,32.483,0,0,0,8.671-26.32Zm30.362-7c1.363-.141,3.243-.188,5.969-.188H53.416V-4.418c0,1.034-.423,1.269-2.115,1.269-1.551,0-4.042-.141-6.2-.282A22.458,22.458,0,0,1,46.93,3.807c2.209.047,2.914.047,3.008.047,3.666,0,6.11-.235,7.379-.7,2.3-.846,3.2-2.4,3.2-5.5V-31.631a25.444,25.444,0,0,1,2.961.188v-7.05a52.547,52.547,0,0,1-5.828.282H40.632a51.951,51.951,0,0,1-5.828-.282v.893L28.13-40.373a30.546,30.546,0,0,1-2.585,8.084,33.908,33.908,0,0,1-6.721,9.87,32.167,32.167,0,0,1,3.008,8.178,35.811,35.811,0,0,0,2.726-3.384c-.094,1.974-.094,2.35-.094,4.794V-2.068c0,2.444-.094,4.324-.282,6.345h7.473a62.614,62.614,0,0,1-.282-6.392v-25.8c2.3-5.029,2.914-6.533,3.431-8.507ZM41.149-5.5V-8.413h6.392a31.93,31.93,0,0,1,3.431.094,36.6,36.6,0,0,1-.094-3.666V-24.769a33.465,33.465,0,0,1,.094-3.525,26.732,26.732,0,0,1-3.243.094H37.906c-1.41,0-2.444-.047-3.478-.141a27.635,27.635,0,0,1,.188,3.619V-9.353A34.7,34.7,0,0,1,34.428-5.5Zm0-16.45h3.337v7.238H41.149ZM72.92-25.756a52,52,0,0,1,6.627-.893c8.789-.705,10.434-.846,11.468-.94l2.209-.235a19.232,19.232,0,0,0-4.606,4,16.09,16.09,0,0,0-3.995,10.622c0,5.969,2.867,10.293,8.413,12.878,3.008,1.363,6.533,2.162,11.891,2.632a12.02,12.02,0,0,1,1.739.235l1.081-8.93c-.705.047-1.034.047-1.41.047A24.83,24.83,0,0,1,97.36-8.037c-2.679-1.269-3.948-3.1-3.948-5.828,0-3.854,2.773-7.8,7.473-10.669a22.029,22.029,0,0,1,10.763-3.29,7.147,7.147,0,0,1,1.316.094l-.423-8.507a3.963,3.963,0,0,1-1.081.188c-.235,0-.517.047-2.115.094l-1.974.094-4.841.188c-8.93.329-13.489.564-20.257.987-5.123.329-6.815.423-8.037.423-.376,0-.987,0-1.786-.047Zm28.341,4.089a29.225,29.225,0,0,1,4.559,6.956l4.512-2.068a30.3,30.3,0,0,0-4.559-6.815Zm6.58-2.773a33.651,33.651,0,0,1,4.465,6.768l4.371-2.021a32.484,32.484,0,0,0-4.606-6.627Zm44.6,3.948a39.684,39.684,0,0,1-9.729,1.081h-.987c.188-1.551.235-1.927.329-2.538a19.78,19.78,0,0,0,.329-2.3,69.976,69.976,0,0,0,7.708-.329c2.3-.188,2.3-.188,3.384-.282l.282-7.8a45.733,45.733,0,0,1-10.2,1.175c.658-4.324.846-5.358,1.363-6.862l-8.7-.705v.658a41.419,41.419,0,0,1-.7,6.721,39.226,39.226,0,0,1-8.507-1.6l-.517,7.285c.7.141.987.188,1.692.329a63.1,63.1,0,0,0,6.486,1.081c-.376,2.632-.611,4.23-.658,4.7-4.277-.517-6.016-.846-8.178-1.645l-.564,7.52a11.534,11.534,0,0,1,2.021.282,51.588,51.588,0,0,0,6.063.94c-.094,1.41-.141,2.444-.141,3.478,0,3.854,1.034,6.627,3.29,8.742C139.19,1.88,143,3.149,147.839,3.149c4.606,0,8.507-1.128,11.421-3.337a11.692,11.692,0,0,0,4.794-9.306c0-3.854-1.175-7-3.9-10.528a24.451,24.451,0,0,1-7.755,1.5Zm-.047,2.538c2.3,2.538,3.478,5.076,3.478,7.473,0,3.76-3.055,6.016-8.178,6.016a7.37,7.37,0,0,1-5.076-1.551,5.061,5.061,0,0,1-1.457-4.042c0-.752.047-1.645.094-2.256,1.316.047,1.645.047,2.115.047a62.152,62.152,0,0,0,7.379-.47c.987-.141,1.034-.141,1.5-.188Z" transform="translate(1002 4812)" fill="#333"></path></g></svg>