<svg xmlns="http://www.w3.org/2000/svg" width="1529" height="483" viewBox="0 0 1529 483"><g id="&#x30B0;&#x30EB;&#x30FC;&#x30D7;_9076" data-name="&#x30B0;&#x30EB;&#x30FC;&#x30D7; 9076" transform="translate(-11156 8899)"><g id="&#x30D1;&#x30B9;_14076" data-name="&#x30D1;&#x30B9; 14076" transform="translate(11156 -8899)" fill="none"><path d="M241.5,0C374.877,0,483,108.123,483,241.5S374.877,483,241.5,483,0,374.877,0,241.5,108.123,0,241.5,0Z" stroke="none"></path><path d="M 241.5 5 C 225.4505310058594 5 209.41259765625 6.616607666015625 193.8316650390625 9.804931640625 C 178.6493225097656 12.91165161132812 163.7155456542969 17.54739379882812 149.445068359375 23.583251953125 C 135.4325256347656 29.51007080078125 121.9170532226562 36.8460693359375 109.2740783691406 45.38754272460938 C 96.74993896484375 53.84866333007812 84.97259521484375 63.56585693359375 74.26925659179688 74.26925659179688 C 63.56585693359375 84.97259521484375 53.84866333007812 96.74993896484375 45.38754272460938 109.2740783691406 C 36.8460693359375 121.9170532226562 29.51007080078125 135.4325256347656 23.583251953125 149.445068359375 C 17.54739379882812 163.7155456542969 12.91165161132812 178.6493225097656 9.804931640625 193.8316650390625 C 6.616607666015625 209.41259765625 5 225.4505310058594 5 241.5 C 5 257.5494689941406 6.616607666015625 273.58740234375 9.804931640625 289.1682739257812 C 12.91165161132812 304.3505859375 17.54739379882812 319.2844848632812 23.583251953125 333.554931640625 C 29.51007080078125 347.5674438476562 36.8460693359375 361.0829467773438 45.38754272460938 373.7258605957031 C 53.84866333007812 386.2500610351562 63.56585693359375 398.0274047851562 74.26925659179688 408.7307434082031 C 84.97259521484375 419.43408203125 96.74993896484375 429.1513366699219 109.2740783691406 437.6124572753906 C 121.9170532226562 446.1539306640625 135.4325256347656 453.4899291992188 149.445068359375 459.416748046875 C 163.7155456542969 465.4526062011719 178.6493225097656 470.0883178710938 193.8316650390625 473.195068359375 C 209.41259765625 476.3833923339844 225.4505310058594 478 241.5 478 C 257.5494689941406 478 273.58740234375 476.3833923339844 289.1682739257812 473.195068359375 C 304.3505859375 470.0883178710938 319.2844848632812 465.4526062011719 333.554931640625 459.416748046875 C 347.5674438476562 453.4899291992188 361.0829467773438 446.1539306640625 373.7258605957031 437.6124572753906 C 386.2500610351562 429.1513366699219 398.0274047851562 419.43408203125 408.7307434082031 408.7307434082031 C 419.43408203125 398.0274047851562 429.1513366699219 386.2500610351562 437.6124572753906 373.7258605957031 C 446.1539306640625 361.0829467773438 453.4899291992188 347.5674438476562 459.416748046875 333.554931640625 C 465.4526062011719 319.2844848632812 470.0883178710938 304.3505859375 473.195068359375 289.1682739257812 C 476.3833923339844 273.58740234375 478 257.5494689941406 478 241.5 C 478 225.4505310058594 476.3833923339844 209.41259765625 473.195068359375 193.8316650390625 C 470.0883178710938 178.6493225097656 465.4526062011719 163.7155456542969 459.416748046875 149.445068359375 C 453.4899291992188 135.4325256347656 446.1539306640625 121.9170532226562 437.6124572753906 109.2740783691406 C 429.1513366699219 96.74993896484375 419.43408203125 84.97259521484375 408.7307434082031 74.26925659179688 C 398.0274047851562 63.56585693359375 386.2500610351562 53.84866333007812 373.7258605957031 45.38754272460938 C 361.0829467773438 36.8460693359375 347.5674438476562 29.51007080078125 333.554931640625 23.583251953125 C 319.2844848632812 17.54739379882812 304.3505859375 12.91165161132812 289.1682739257812 9.804931640625 C 273.58740234375 6.616607666015625 257.5494689941406 5 241.5 5 M 241.5 0 C 374.8767395019531 0 483 108.1231994628906 483 241.5 C 483 374.8767395019531 374.8767395019531 483 241.5 483 C 108.1231994628906 483 0 374.8767395019531 0 241.5 C 0 108.1231994628906 108.1231994628906 0 241.5 0 Z" stroke="none" fill="#fff"></path></g><g id="&#x30D1;&#x30B9;_14077" data-name="&#x30D1;&#x30B9; 14077" transform="translate(11679 -8899)" fill="none"><path d="M241.5,0C374.877,0,483,108.123,483,241.5S374.877,483,241.5,483,0,374.877,0,241.5,108.123,0,241.5,0Z" stroke="none"></path><path d="M 241.5 5 C 225.4505310058594 5 209.41259765625 6.616607666015625 193.8316650390625 9.804931640625 C 178.6493225097656 12.91165161132812 163.7155456542969 17.54739379882812 149.445068359375 23.583251953125 C 135.4325256347656 29.51007080078125 121.9170532226562 36.8460693359375 109.2740783691406 45.38754272460938 C 96.74993896484375 53.84866333007812 84.97259521484375 63.56585693359375 74.26925659179688 74.26925659179688 C 63.56585693359375 84.97259521484375 53.84866333007812 96.74993896484375 45.38754272460938 109.2740783691406 C 36.8460693359375 121.9170532226562 29.51007080078125 135.4325256347656 23.583251953125 149.445068359375 C 17.54739379882812 163.7155456542969 12.91165161132812 178.6493225097656 9.804931640625 193.8316650390625 C 6.616607666015625 209.41259765625 5 225.4505310058594 5 241.5 C 5 257.5494689941406 6.616607666015625 273.58740234375 9.804931640625 289.1682739257812 C 12.91165161132812 304.3505859375 17.54739379882812 319.2844848632812 23.583251953125 333.554931640625 C 29.51007080078125 347.5674438476562 36.8460693359375 361.0829467773438 45.38754272460938 373.7258605957031 C 53.84866333007812 386.2500610351562 63.56585693359375 398.0274047851562 74.26925659179688 408.7307434082031 C 84.97259521484375 419.43408203125 96.74993896484375 429.1513366699219 109.2740783691406 437.6124572753906 C 121.9170532226562 446.1539306640625 135.4325256347656 453.4899291992188 149.445068359375 459.416748046875 C 163.7155456542969 465.4526062011719 178.6493225097656 470.0883178710938 193.8316650390625 473.195068359375 C 209.41259765625 476.3833923339844 225.4505310058594 478 241.5 478 C 257.5494689941406 478 273.58740234375 476.3833923339844 289.1682739257812 473.195068359375 C 304.3505859375 470.0883178710938 319.2844848632812 465.4526062011719 333.554931640625 459.416748046875 C 347.5674438476562 453.4899291992188 361.0829467773438 446.1539306640625 373.7258605957031 437.6124572753906 C 386.2500610351562 429.1513366699219 398.0274047851562 419.43408203125 408.7307434082031 408.7307434082031 C 419.43408203125 398.0274047851562 429.1513366699219 386.2500610351562 437.6124572753906 373.7258605957031 C 446.1539306640625 361.0829467773438 453.4899291992188 347.5674438476562 459.416748046875 333.554931640625 C 465.4526062011719 319.2844848632812 470.0883178710938 304.3505859375 473.195068359375 289.1682739257812 C 476.3833923339844 273.58740234375 478 257.5494689941406 478 241.5 C 478 225.4505310058594 476.3833923339844 209.41259765625 473.195068359375 193.8316650390625 C 470.0883178710938 178.6493225097656 465.4526062011719 163.7155456542969 459.416748046875 149.445068359375 C 453.4899291992188 135.4325256347656 446.1539306640625 121.9170532226562 437.6124572753906 109.2740783691406 C 429.1513366699219 96.74993896484375 419.43408203125 84.97259521484375 408.7307434082031 74.26925659179688 C 398.0274047851562 63.56585693359375 386.2500610351562 53.84866333007812 373.7258605957031 45.38754272460938 C 361.0829467773438 36.8460693359375 347.5674438476562 29.51007080078125 333.554931640625 23.583251953125 C 319.2844848632812 17.54739379882812 304.3505859375 12.91165161132812 289.1682739257812 9.804931640625 C 273.58740234375 6.616607666015625 257.5494689941406 5 241.5 5 M 241.5 0 C 374.8767395019531 0 483 108.1231994628906 483 241.5 C 483 374.8767395019531 374.8767395019531 483 241.5 483 C 108.1231994628906 483 0 374.8767395019531 0 241.5 C 0 108.1231994628906 108.1231994628906 0 241.5 0 Z" stroke="none" fill="#fff"></path></g><g id="&#x30D1;&#x30B9;_14078" data-name="&#x30D1;&#x30B9; 14078" transform="translate(12202 -8899)" fill="none"><path d="M241.5,0C374.877,0,483,108.123,483,241.5S374.877,483,241.5,483,0,374.877,0,241.5,108.123,0,241.5,0Z" stroke="none"></path><path d="M 241.5 5 C 225.4505310058594 5 209.41259765625 6.616607666015625 193.8316650390625 9.804931640625 C 178.6493225097656 12.91165161132812 163.7155456542969 17.54739379882812 149.445068359375 23.583251953125 C 135.4325256347656 29.51007080078125 121.9170532226562 36.8460693359375 109.2740783691406 45.38754272460938 C 96.74993896484375 53.84866333007812 84.97259521484375 63.56585693359375 74.26925659179688 74.26925659179688 C 63.56585693359375 84.97259521484375 53.84866333007812 96.74993896484375 45.38754272460938 109.2740783691406 C 36.8460693359375 121.9170532226562 29.51007080078125 135.4325256347656 23.583251953125 149.445068359375 C 17.54739379882812 163.7155456542969 12.91165161132812 178.6493225097656 9.804931640625 193.8316650390625 C 6.616607666015625 209.41259765625 5 225.4505310058594 5 241.5 C 5 257.5494689941406 6.616607666015625 273.58740234375 9.804931640625 289.1682739257812 C 12.91165161132812 304.3505859375 17.54739379882812 319.2844848632812 23.583251953125 333.554931640625 C 29.51007080078125 347.5674438476562 36.8460693359375 361.0829467773438 45.38754272460938 373.7258605957031 C 53.84866333007812 386.2500610351562 63.56585693359375 398.0274047851562 74.26925659179688 408.7307434082031 C 84.97259521484375 419.43408203125 96.74993896484375 429.1513366699219 109.2740783691406 437.6124572753906 C 121.9170532226562 446.1539306640625 135.4325256347656 453.4899291992188 149.445068359375 459.416748046875 C 163.7155456542969 465.4526062011719 178.6493225097656 470.0883178710938 193.8316650390625 473.195068359375 C 209.41259765625 476.3833923339844 225.4505310058594 478 241.5 478 C 257.5494689941406 478 273.58740234375 476.3833923339844 289.1682739257812 473.195068359375 C 304.3505859375 470.0883178710938 319.2844848632812 465.4526062011719 333.554931640625 459.416748046875 C 347.5674438476562 453.4899291992188 361.0829467773438 446.1539306640625 373.7258605957031 437.6124572753906 C 386.2500610351562 429.1513366699219 398.0274047851562 419.43408203125 408.7307434082031 408.7307434082031 C 419.43408203125 398.0274047851562 429.1513366699219 386.2500610351562 437.6124572753906 373.7258605957031 C 446.1539306640625 361.0829467773438 453.4899291992188 347.5674438476562 459.416748046875 333.554931640625 C 465.4526062011719 319.2844848632812 470.0883178710938 304.3505859375 473.195068359375 289.1682739257812 C 476.3833923339844 273.58740234375 478 257.5494689941406 478 241.5 C 478 225.4505310058594 476.3833923339844 209.41259765625 473.195068359375 193.8316650390625 C 470.0883178710938 178.6493225097656 465.4526062011719 163.7155456542969 459.416748046875 149.445068359375 C 453.4899291992188 135.4325256347656 446.1539306640625 121.9170532226562 437.6124572753906 109.2740783691406 C 429.1513366699219 96.74993896484375 419.43408203125 84.97259521484375 408.7307434082031 74.26925659179688 C 398.0274047851562 63.56585693359375 386.2500610351562 53.84866333007812 373.7258605957031 45.38754272460938 C 361.0829467773438 36.8460693359375 347.5674438476562 29.51007080078125 333.554931640625 23.583251953125 C 319.2844848632812 17.54739379882812 304.3505859375 12.91165161132812 289.1682739257812 9.804931640625 C 273.58740234375 6.616607666015625 257.5494689941406 5 241.5 5 M 241.5 0 C 374.8767395019531 0 483 108.1231994628906 483 241.5 C 483 374.8767395019531 374.8767395019531 483 241.5 483 C 108.1231994628906 483 0 374.8767395019531 0 241.5 C 0 108.1231994628906 108.1231994628906 0 241.5 0 Z" stroke="none" fill="#fff"></path></g><g id="&#x30B0;&#x30EB;&#x30FC;&#x30D7;_9073" data-name="&#x30B0;&#x30EB;&#x30FC;&#x30D7; 9073" transform="translate(46.513 -32.027)"><line id="&#x7DDA;_47" data-name="&#x7DDA; 47" x2="59.806" y2="59.806" transform="translate(11290.5 -8745.279)" fill="none" stroke="#fff" stroke-width="32"></line><line id="&#x7DDA;_48" data-name="&#x7DDA; 48" x1="87.506" y2="87.506" transform="translate(11327.968 -8772.979)" fill="none" stroke="#fff" stroke-width="32"></line></g><g id="&#x30B0;&#x30EB;&#x30FC;&#x30D7;_9074" data-name="&#x30B0;&#x30EB;&#x30FC;&#x30D7; 9074" transform="translate(569.513 -32.027)"><line id="&#x7DDA;_47-2" data-name="&#x7DDA; 47" x2="59.806" y2="59.806" transform="translate(11290.5 -8745.279)" fill="none" stroke="#fff" stroke-width="32"></line><line id="&#x7DDA;_48-2" data-name="&#x7DDA; 48" x1="87.506" y2="87.506" transform="translate(11327.968 -8772.979)" fill="none" stroke="#fff" stroke-width="32"></line></g><g id="&#x30B0;&#x30EB;&#x30FC;&#x30D7;_9075" data-name="&#x30B0;&#x30EB;&#x30FC;&#x30D7; 9075" transform="translate(1092.513 -32.027)"><line id="&#x7DDA;_47-3" data-name="&#x7DDA; 47" x2="59.806" y2="59.806" transform="translate(11290.5 -8745.279)" fill="none" stroke="#fff" stroke-width="32"></line><line id="&#x7DDA;_48-3" data-name="&#x7DDA; 48" x1="87.506" y2="87.506" transform="translate(11327.968 -8772.979)" fill="none" stroke="#fff" stroke-width="32"></line></g><path id="&#x30D1;&#x30B9;_14079" data-name="&#x30D1;&#x30B9; 14079" d="M-141.376-34.451c-2.867,0-4.183-.047-5.922-.188a44.657,44.657,0,0,1,.235,5.687V-1.316a41.9,41.9,0,0,1-.282,5.452h7.52V2.115h21.385V4.136h7.661a36.3,36.3,0,0,1-.282-5.5V-28.952a42.879,42.879,0,0,1,.235-5.687c-1.739.141-3.055.188-5.922.188H-127.37c.329-.705.517-1.081.7-1.551,1.175-2.914,1.175-2.914,1.5-3.713l-8.366-.564a25.694,25.694,0,0,1-1.833,5.828Zm1.6,6.58h21.432v3.478h-21.432Zm0,9.964h21.432v3.384h-21.432Zm0,9.917h21.432v3.478h-21.432Zm54.661-10.058a15.343,15.343,0,0,1-2.021,7.332c-2.068,3.76-5.452,6.439-10.951,8.648a28.441,28.441,0,0,1,4.653,6.392,27.671,27.671,0,0,0,4.7-2.585,26.013,26.013,0,0,0,7.426-7.8,26.144,26.144,0,0,0,3.76-11.985h7.144a63.2,63.2,0,0,1-.8,11.8c-.47,1.974-1.034,2.3-3.478,2.3a39.16,39.16,0,0,1-4.982-.423,25.379,25.379,0,0,1,2.021,7.52c2.867.047,2.867.047,3.337.047,5.828,0,8.084-.893,9.353-3.619,1.175-2.538,1.833-8.93,1.88-18.377a42.358,42.358,0,0,0,3.995,3.243,37.407,37.407,0,0,1,4.747-7.191A32.992,32.992,0,0,1-66.458-35.3a19.8,19.8,0,0,1-1.927-4.324l-7,2.679c.282.658.611,1.316.893,2.021a45.981,45.981,0,0,0,6.063,10.34H-86.151a61.348,61.348,0,0,0,5.969-9.87,18.561,18.561,0,0,1,1.222-2.4l-7.708-2.82A14.625,14.625,0,0,1-88.313-35.3a35.026,35.026,0,0,1-11.844,13.4,30.153,30.153,0,0,1,4.794,6.627,42.96,42.96,0,0,0,5.828-5.217v2.632a22.5,22.5,0,0,1,3.2-.188Zm42.676-19.975a38.684,38.684,0,0,1-.705,5.029A101.661,101.661,0,0,0-44.932-14.9,99.3,99.3,0,0,0-43.71-.047a18.884,18.884,0,0,1,.235,2.491l8.084-.376a13.157,13.157,0,0,1-.141-2.3A46.376,46.376,0,0,1-33.7-13.395l-3.619-1.222c.329-8.554,1.739-17.343,3.572-22.7ZM-30.127-25.8c.658.047.987.047,1.363.094a77.551,77.551,0,0,0,8.084.376c3.243,0,6.674-.188,9.917-.517,2.585-.282,3.055-.329,3.478-.329l-.329-8.037c-3.149.8-7.755,1.175-14.006,1.175a39.258,39.258,0,0,1-8.366-.7Zm2.773,6.251c-1.269,1.833-1.551,2.3-2.209,3.384a14.729,14.729,0,0,0-2.256,7.332,8.706,8.706,0,0,0,4.324,7.473C-25.051,0-22.137.611-17.766.611A57.554,57.554,0,0,0-9.635,0C-6.862-.423-6.862-.423-5.64-.564l-.47-8.319a34.93,34.93,0,0,1-11.7,1.927c-3.995,0-6.11-1.175-6.11-3.337,0-1.692.987-3.713,3.149-6.486ZM12.925-20.3a43.429,43.429,0,0,1,4.371-.188H34.4a39.429,39.429,0,0,1,4.512.188v-2.585a50.127,50.127,0,0,0,6.345,3.055,26.357,26.357,0,0,1,3.29-7.379A39.069,39.069,0,0,1,37.506-32.43a26.863,26.863,0,0,1-8.037-7.379H21.808a27.98,27.98,0,0,1-7.8,7.567A37.307,37.307,0,0,1,3.1-26.884a25.147,25.147,0,0,1,3.525,6.909,45.706,45.706,0,0,0,6.3-3.008Zm6.2-6.674a33.36,33.36,0,0,0,6.627-6.486,36.507,36.507,0,0,0,6.909,6.486ZM16.4,4.042V2.115H35.25V4.042h7.567a31.374,31.374,0,0,1-.282-5.217V-12.831a35.48,35.48,0,0,1,.235-4.982c-1.128.094-2.491.141-4.559.141H13.4c-2.068,0-3.431-.047-4.512-.141a46.483,46.483,0,0,1,.235,4.982V-1.222a39.731,39.731,0,0,1-.282,5.264Zm0-15.181H35.25v6.721H16.4ZM61.194-15.7a34.683,34.683,0,0,1,5.875-1.645,58.479,58.479,0,0,1,12.314-1.739c4.277,0,6.768,1.739,6.768,4.7a6.646,6.646,0,0,1-.564,2.773c-.94,2.162-3.525,4.089-6.721,5.076A37.308,37.308,0,0,1,67.445-4.982a20.751,20.751,0,0,1,2.867,7.52c6.58-.752,7.426-.893,10.669-1.88C89.347-1.88,94-7.238,94-14.429a10.927,10.927,0,0,0-3.9-8.883c-2.538-2.021-5.687-2.914-10.293-2.914a74.945,74.945,0,0,0-14.758,1.88c-3.76.7-3.76.7-5.405.893Zm72.192-17.531a53.1,53.1,0,0,1-7.708,1.222c.423-2.4.705-3.76.752-4.042a14.858,14.858,0,0,1,.611-2.726l-8.789-.658v.7a45.33,45.33,0,0,1-.8,7.05h-.893a48.915,48.915,0,0,1-7.144-.47l-.141,7.661a9.472,9.472,0,0,1,1.081-.047h.47c2.021.094,3.008.141,4.512.141h.752c-1.739,8.695-4.794,18.048-7.9,24.064l8.648,3.149c.329-1.128.329-1.128,1.081-3.384,2.021-6.063,2.3-7.1,3.478-11.233,1.316-4.888,2.162-8.366,2.961-12.784,1.457-.094,2.021-.141,4.277-.376l.47,6.674a63.08,63.08,0,0,1,13.207-1.175,42.355,42.355,0,0,1,6.157.329l-.141-7.943c-.987-.047-1.974-.047-2.3-.047a79.906,79.906,0,0,0-12.455.705ZM128.4-15.745c-2.585,3.76-3.666,6.392-3.666,9.118q0,8.883,13.818,8.883a57.569,57.569,0,0,0,9.165-.752c1.128-.141,1.551-.188,2.491-.282L149.648-7A35.369,35.369,0,0,1,138.556-5.17c-3.948,0-5.875-1.034-5.875-3.2,0-1.457.752-3.008,2.538-5.123Zm-298.967,72.2c-.611-1.316-1.363-3.243-2.256-5.734l-10.2-28.294a37.507,37.507,0,0,1-1.6-5.076h-12.267a28.69,28.69,0,0,1-1.5,5.076l-10.152,28.294a46.3,46.3,0,0,1-2.256,5.734h11a27.086,27.086,0,0,1,1.175-5.076l1.269-3.995h13.4l1.269,3.995a38.17,38.17,0,0,1,1.128,5.076Zm-15.7-16.967H-195.1l4.371-14.1Zm23.641-22.137a43.9,43.9,0,0,1,.376,6.956V49.5a45.045,45.045,0,0,1-.376,6.956h10.34a45.435,45.435,0,0,1-.376-6.956V24.309a43.52,43.52,0,0,1,.376-6.956Zm62.886,33.652c-7.332-7-9.259-8.648-14.946-12.737,2.632-3.525,4.418-6.815,6.909-12.69a7.421,7.421,0,0,1,1.692-2.773l-4.136-4.23a8.624,8.624,0,0,1-3.76.517l-16.074.235c-1.363.047-2.256.047-2.632.047a34.82,34.82,0,0,1-4.935-.329l.235,8.366a55.819,55.819,0,0,1,7.473-.47l12.22-.188a37.81,37.81,0,0,1-9.447,13.818,44.323,44.323,0,0,1-15.228,9.494,24.621,24.621,0,0,1,5.264,7.426c7.285-3.525,12.878-7.661,17.3-12.878a75.566,75.566,0,0,1,13.489,13.348ZM-76.14,24.873l-6.533.987a47.227,47.227,0,0,1-6.909.752l1.269,8.037a55.79,55.79,0,0,1,7-1.316l6.486-1.034,1.081,5.922-8.977,1.41a55.029,55.029,0,0,1-6.721.752l1.269,7.99a50.236,50.236,0,0,1,6.439-1.316l9.306-1.457,1.222,6.768a34.374,34.374,0,0,1,.846,6.533l8.93-1.457a41.891,41.891,0,0,1-1.41-6.3l-1.316-6.815,8.883-1.363c3.948-.564,3.948-.564,6.627-.846l-1.41-7.943a43.8,43.8,0,0,1-6.768,1.457l-8.7,1.316-1.128-5.922,7.332-1.128c5.076-.752,5.076-.752,6.674-.893l-1.316-7.9a44.776,44.776,0,0,1-6.721,1.363L-68.009,23.6l-.517-2.585a38.31,38.31,0,0,1-.658-5.217l-8.648,1.316a30.269,30.269,0,0,1,1.222,5.311ZM-33.417,17.4a34.446,34.446,0,0,1,.188,4.324c0,12.173-.752,18-2.961,22.607A20.992,20.992,0,0,1-41.783,51.8a25.49,25.49,0,0,1,6.721,6.58,31.267,31.267,0,0,0,6.533-9.4c2.256-5.123,3.2-10.34,3.478-20.163.329-9.306.329-9.306.517-10.9Zm13.348-.235a27.932,27.932,0,0,1,.188,3.666v1.692l-.235,27.824a10.289,10.289,0,0,1-.517,3.948l4.042,4.23a10.517,10.517,0,0,1,2.3-.987c4.747-1.739,7.05-2.961,9.87-5.358C-.846,49.125,1.6,45.506,3.713,40.242a31.194,31.194,0,0,1-6.251-6.2A23.8,23.8,0,0,1-6.2,42.075a18.165,18.165,0,0,1-5.64,5.17l.235-24.628a33.634,33.634,0,0,1,.376-5.452Zm61.288,11.28c2.632,3.666,5.405,11.139,6.392,17.108l7.708-3.666A49.142,49.142,0,0,0,48.128,25.2ZM11.562,34.7a61.948,61.948,0,0,1,7.332-1.363c-1.927,7.567-5.875,16.873-8.836,20.821l7.755,4.089c.282-.7.376-.846.752-1.739a111.441,111.441,0,0,0,8.319-23.782,17.065,17.065,0,0,1,1.88-.094c1.645,0,2.3.188,2.82.8.611.658.893,1.786.893,3.76a41.236,41.236,0,0,1-1.269,10.434c-.517,1.5-1.128,2.115-2.115,2.115a20.289,20.289,0,0,1-6.439-1.692,22.313,22.313,0,0,1,.7,5.64,21.338,21.338,0,0,1-.141,2.726,26.534,26.534,0,0,0,7.473,1.222,8.977,8.977,0,0,0,3.666-.658A7.774,7.774,0,0,0,37.365,54.2c1.88-3.29,2.961-9.353,2.961-16.685,0-5.311-.94-8.178-3.337-10.1-1.6-1.269-3.76-1.88-6.674-1.88a15.592,15.592,0,0,0-2.021.094c.141-.752.47-2.679.893-5.076l.329-1.692c.047-.282.094-.7.141-.846a4.863,4.863,0,0,1,.282-1.128l-8.507-.8v.8a73.574,73.574,0,0,1-1.081,9.259c-3.1.423-7.567.8-9.071.8a1.619,1.619,0,0,1-.423-.047ZM43.9,16.178A32.074,32.074,0,0,1,48.5,22.9l4.324-2.115a33.041,33.041,0,0,0-4.7-6.533Zm-6.486,2.914a30.256,30.256,0,0,1,4.653,6.862l4.465-2.162a30.112,30.112,0,0,0-4.653-6.721Zm39.245,17.86a15.343,15.343,0,0,1-2.021,7.332c-2.068,3.76-5.452,6.439-10.951,8.648a28.441,28.441,0,0,1,4.653,6.392,27.671,27.671,0,0,0,4.7-2.585A25.771,25.771,0,0,0,84.224,36.952h7.144a63.2,63.2,0,0,1-.8,11.8c-.47,1.974-1.034,2.3-3.478,2.3a39.16,39.16,0,0,1-4.982-.423,25.379,25.379,0,0,1,2.021,7.52C87,58.2,87,58.2,87.467,58.2c5.828,0,8.084-.893,9.353-3.619,1.175-2.538,1.833-8.93,1.88-18.377a42.358,42.358,0,0,0,4,3.243,37.407,37.407,0,0,1,4.747-7.191A32.992,32.992,0,0,1,95.316,19.7a19.8,19.8,0,0,1-1.927-4.324l-7,2.679c.282.658.611,1.316.893,2.021a45.981,45.981,0,0,0,6.063,10.34H75.623a61.348,61.348,0,0,0,5.969-9.87,18.561,18.561,0,0,1,1.222-2.4l-7.708-2.82A14.625,14.625,0,0,1,73.461,19.7,35.026,35.026,0,0,1,61.617,33.1a30.153,30.153,0,0,1,4.794,6.627,42.96,42.96,0,0,0,5.828-5.217V37.14a22.5,22.5,0,0,1,3.2-.188Zm38.4-2.585a58.481,58.481,0,0,1,7.332-1.316c-1.88,7.426-5.828,16.779-8.836,20.774l7.755,4.089c.282-.658.376-.893.752-1.692A101.477,101.477,0,0,0,127.041,44.1a93.193,93.193,0,0,0,3.337-11.7,17.066,17.066,0,0,1,1.88-.094c1.645,0,2.3.188,2.82.8.611.658.893,1.786.893,3.807A41.527,41.527,0,0,1,134.7,47.339c-.517,1.5-1.128,2.115-2.115,2.115a21.666,21.666,0,0,1-6.439-1.692,21.711,21.711,0,0,1,.705,5.593,20.97,20.97,0,0,1-.141,2.726,26.852,26.852,0,0,0,7.473,1.269,8.977,8.977,0,0,0,3.666-.658,7.55,7.55,0,0,0,3.008-2.82c1.88-3.243,2.961-9.353,2.961-16.685,0-5.311-.94-8.178-3.337-10.1-1.6-1.269-3.76-1.88-6.674-1.88-.658,0-1.222.047-2.021.094.188-1.081.517-2.867.893-5.029a23.171,23.171,0,0,1,.752-3.713l-8.507-.8v.8a74.918,74.918,0,0,1-1.081,9.306c-3.055.376-7.567.752-9.071.752h-.423Zm27.26-9.588c4.324,5.123,7.238,11.938,8.789,20.539l7.708-3.666a48.9,48.9,0,0,0-9.588-20.069Zm30.6.611c.94-.094,1.833-.188,3.1-.235,6.627-.329,8.507-.423,11-.7-5.828,5.781-15.745,13.489-20.069,15.51l4.371,7.144a34.95,34.95,0,0,1,4.512-3.525A27.028,27.028,0,0,1,190.3,39.255c5.217,0,8.413,2.021,8.413,5.311,0,2.4-1.175,3.995-3.713,5.123a10.813,10.813,0,0,0-10.575-7.332c-5.452,0-9.353,3.149-9.353,7.52,0,5.217,4.841,8.366,12.784,8.366a25.547,25.547,0,0,0,12.455-2.961A12.276,12.276,0,0,0,206.8,44.237a10.433,10.433,0,0,0-3.431-8.131c-2.491-2.162-5.64-3.2-10.058-3.2a22.486,22.486,0,0,0-6.439.846c3.149-2.3,3.995-3.008,6.486-5.123,6.345-5.452,6.345-5.452,7.567-6.157l-3.854-5.687a9.474,9.474,0,0,1-3.572.658c-4.747.376-9.964.564-14.147.564a52.6,52.6,0,0,1-6.768-.329ZM188,51.8a7.133,7.133,0,0,1-1.551.141c-2.538,0-4.042-.8-4.042-2.068a1.619,1.619,0,0,1,1.833-1.551C186.073,48.326,187.389,49.548,188,51.8Z" transform="translate(11398 -8637)" fill="#fff"></path><path id="&#x30D1;&#x30B9;_14080" data-name="&#x30D1;&#x30B9; 14080" d="M-180.01-4.7c-2.162.141-2.961.188-3.478.188a7.312,7.312,0,0,1-.94-.047l1.41,6.862A14.217,14.217,0,0,1-181,1.88C-173.712.846-172.49.658-168.589-.094a37.615,37.615,0,0,1-.235,4.371h7.191a36.162,36.162,0,0,1-.235-4.324A20.011,20.011,0,0,1-159.8,4.089,37.746,37.746,0,0,0-152.7,0a37.906,37.906,0,0,0,9.588,4.324A26.317,26.317,0,0,1-140.06-2.35a31.019,31.019,0,0,1-7.661-2.115,34.313,34.313,0,0,0,4.653-6.627,15.656,15.656,0,0,1,1.128-2.115l-3.337-3.619a22.138,22.138,0,0,1-3.478.188h-8.131a28.5,28.5,0,0,1-3.948-.188v6.016a26.778,26.778,0,0,1,3.76-.188h.846l-4.841,1.974a26.19,26.19,0,0,0,3.29,4.606,25.444,25.444,0,0,1-4.089,1.927V-18.048h15.745a41.405,41.405,0,0,1,5.5.235v-5.781a37.8,37.8,0,0,1-5.358.235h-32.712a38.923,38.923,0,0,1-5.452-.235v5.781c1.316-.141,2.3-.188,4.136-.235Zm6.627-13.348h4.794v1.5h-4.794Zm0,5.311h4.794v1.645h-4.794Zm0,5.452h4.794v1.457q-3.454.423-4.794.564ZM-150.4-11a15.118,15.118,0,0,1-2.585,3.1,14.489,14.489,0,0,1-2.4-3.1Zm5.264-23.5a34.7,34.7,0,0,1,.188-4.418,47.954,47.954,0,0,1-4.935.188H-174.7a47.953,47.953,0,0,1-4.935-.188,36.642,36.642,0,0,1,.188,4.418v5.593a35.781,35.781,0,0,1-.188,4.371c1.363-.094,2.491-.141,4.653-.141H-148.8c2.115.047,3.384.094,3.854.094a33.5,33.5,0,0,1-.188-4.324Zm-27.448-.094h20.492v1.41h-20.492Zm0,4.747h20.492v1.363h-20.492Zm70.735,3.76v-4.606a72.675,72.675,0,0,0,11.985-2.538c.893-.282.893-.282,1.739-.517l-5.358-6.533a13.377,13.377,0,0,1-3.666,1.6,49.738,49.738,0,0,1-11.985,2.3,35.782,35.782,0,0,1,.329,5.4c0,13.16-.376,19.881-1.222,23.077A23.18,23.18,0,0,1-114.21.517,29.552,29.552,0,0,1-107.536,4.7a29.929,29.929,0,0,0,4.324-10.575A67.478,67.478,0,0,0-101.9-19.317h2.585V-1.974a42.882,42.882,0,0,1-.282,6.345h7.614a42.5,42.5,0,0,1-.282-6.345V-19.317h.564a21.849,21.849,0,0,1,3.431.188v-7.238a23.957,23.957,0,0,1-4.277.282Zm-15.181,6.392h2.35a44.458,44.458,0,0,1,4.794.188v-6.956a27.121,27.121,0,0,1-3.149.235c.235-.7.846-3.008,1.081-3.9.752.047,1.034.047,1.88.141v-6.862a30.318,30.318,0,0,1-4.794.235H-116.8A15.894,15.894,0,0,1-116.56-40h-7.9a21.5,21.5,0,0,1,.235,3.384h-2.632a31.752,31.752,0,0,1-4.841-.235v6.862c.94-.094,1.316-.094,2.4-.141a20.666,20.666,0,0,1,1.034,3.9,24.549,24.549,0,0,1-4.324-.235V-19.5a42.026,42.026,0,0,1,4.7-.188h3.948v2.068h-3.807a31,31,0,0,1-4.841-.235v6.815a41.493,41.493,0,0,1,4.7-.188h2.021a19.567,19.567,0,0,1-2.726,3.2,23.919,23.919,0,0,1-4.794,3.619,25.58,25.58,0,0,1,2.867,7.1,22.313,22.313,0,0,0,6.674-6.768c-.047,1.175-.094,1.88-.094,2.585V.846a23.716,23.716,0,0,1-.188,3.478h7.332A20.954,20.954,0,0,1-117.03.517V-2.209c0-.611-.047-1.363-.094-3.1a14.544,14.544,0,0,0,3.149,3.525,40.444,40.444,0,0,1,2.867-6.392,18.4,18.4,0,0,1-3.713-3.055,41.636,41.636,0,0,1,4.653.188V-17.86a30.318,30.318,0,0,1-4.794.235h-2.068Zm-4.559-6.533a17.209,17.209,0,0,0-.987-3.948h3.948a20.218,20.218,0,0,1-.987,3.948Zm67.4-2.867a7.877,7.877,0,0,1,3.948,1.645c2.726,2.068,4.136,5.264,4.136,9.259,0,5.029-2.021,8.977-5.64,10.9-2.538,1.316-5.452,2.068-9.87,2.4a23.092,23.092,0,0,1,4,7.708c6.58-1.034,10.293-2.538,13.489-5.4,3.948-3.525,6.251-9.071,6.251-15.181,0-5.311-1.6-9.87-4.606-13.066-3.478-3.666-9.024-5.781-15.322-5.781-6.909,0-12.878,2.4-17.014,6.909a20.894,20.894,0,0,0-5.4,14.335c0,8.6,4.418,14.617,10.716,14.617,4.277,0,7.426-2.632,10.152-8.648C-56.823-14.946-55.225-21.009-54.191-29.093ZM-62.322-29a60.938,60.938,0,0,1-3.525,14.335c-1.41,3.572-2.632,5.217-3.807,5.217-1.645,0-2.914-2.632-2.914-5.969A15.206,15.206,0,0,1-67.445-26.6,9.4,9.4,0,0,1-62.322-29Zm51.747,4.277v7.05h-5.969a57.645,57.645,0,0,1-6.3-.235v7.05c2.021-.188,3.948-.282,6.439-.282h5.828v7.661H-20.868c-2.726,0-5.076-.094-7.473-.329V3.478c2.726-.235,5.076-.329,7.755-.329h27.4c2.585,0,4.559.094,7.238.329V-3.807a69.3,69.3,0,0,1-7.473.329H-3.1v-7.661H3.854c2.491,0,4.418.094,6.533.282v-7.1a64.632,64.632,0,0,1-6.58.282H-3.1v-7.05H5.311c2.538,0,4.747.094,7.1.282v-7.1c-2.256.188-4.559.282-7.332.282H-3.1v-2.162a43.31,43.31,0,0,1,.282-6.3h-8.037a53,53,0,0,1,.282,6.3v2.162h-5.64c.329-1.034.564-1.739.8-2.679.376-1.269.376-1.269.94-2.867l-7.332-1.739c-.376,5.781-3.9,13.207-8.225,17.437a25.075,25.075,0,0,1,4.7,6.11,42.672,42.672,0,0,0,6.439-9.729Zm67.821-.658A29.013,29.013,0,0,1,54.1-16.591a72.843,72.843,0,0,1-1.316-10.951h7a59.05,59.05,0,0,1,6.157.282v-7.1a28.31,28.31,0,0,1-4.653.235l2.773-2.3A34.311,34.311,0,0,0,58.092-40.8L53.58-36.613a28.361,28.361,0,0,1,3.76,2.491H52.593v-2.209a23.886,23.886,0,0,1,.235-3.384H45.167a46.668,46.668,0,0,1,.282,5.593h-13.3c-2.491,0-4.465-.094-6.392-.235a60.66,60.66,0,0,1,.282,6.2c0,8.6-.47,14.9-1.363,19.082a21.8,21.8,0,0,1-3.1,7.708,31.935,31.935,0,0,1,5.64,5.828A28.347,28.347,0,0,0,31.584-6.58a30.288,30.288,0,0,1,1.081,5.17c.752.047,1.222.047,1.692.047a23.264,23.264,0,0,0,4.888-.517,27.866,27.866,0,0,1,3.478,5.64,43.31,43.31,0,0,0,9.4-7c3.243,4.653,6.157,6.956,8.836,6.956,2.867,0,4.7-3.055,5.922-10.105a25.19,25.19,0,0,1-5.4-4.23A22.882,22.882,0,0,1,60.16-4.559a14.152,14.152,0,0,1-3.243-4.277,58.182,58.182,0,0,0,6.3-11.75,22.03,22.03,0,0,1,.893-2.256Zm-24.2,2.726c.047-1.551.047-2.3.047-4.888H45.731c.517,8.272,1.316,12.69,3.2,18.048a34.535,34.535,0,0,1-6.439,5.076c.8-1.739,1.269-5.029,1.457-9.776.282-7.285.282-7.285.376-8.6a25.879,25.879,0,0,1-3.1.141Zm4.136,6.392c-.141,4.653-.282,6.439-.7,7.379-.329.752-.705.94-1.833.94a16.141,16.141,0,0,1-2.773-.282c.376-2.491.658-4.841.893-8.037Zm75.9,17.719c-.611-1.316-1.363-3.243-2.256-5.734l-10.2-28.294a37.5,37.5,0,0,1-1.6-5.076H86.762a28.69,28.69,0,0,1-1.5,5.076L75.106-4.277A46.3,46.3,0,0,1,72.85,1.457h11a27.086,27.086,0,0,1,1.175-5.076l1.269-3.995H99.687l1.269,3.995a38.17,38.17,0,0,1,1.128,5.076ZM97.384-15.51H88.548l4.371-14.1Zm23.641-22.137a43.9,43.9,0,0,1,.376,6.956V-5.5a45.045,45.045,0,0,1-.376,6.956h10.34a45.435,45.435,0,0,1-.376-6.956V-30.691a43.52,43.52,0,0,1,.376-6.956Zm46.342,8.554a7.877,7.877,0,0,1,3.948,1.645c2.726,2.068,4.136,5.264,4.136,9.259,0,5.029-2.021,8.977-5.64,10.9-2.538,1.316-5.452,2.068-9.87,2.4a23.093,23.093,0,0,1,3.995,7.708c6.58-1.034,10.293-2.538,13.489-5.4,3.948-3.525,6.251-9.071,6.251-15.181,0-5.311-1.6-9.87-4.606-13.066-3.478-3.666-9.024-5.781-15.322-5.781-6.909,0-12.878,2.4-17.014,6.909a20.894,20.894,0,0,0-5.4,14.335c0,8.6,4.418,14.617,10.716,14.617,4.277,0,7.426-2.632,10.152-8.648C164.735-14.946,166.333-21.009,167.367-29.093ZM159.236-29a60.937,60.937,0,0,1-3.525,14.335c-1.41,3.572-2.632,5.217-3.807,5.217-1.645,0-2.914-2.632-2.914-5.969A15.206,15.206,0,0,1,154.113-26.6,9.4,9.4,0,0,1,159.236-29Zm-350.1,61.768V34.79a47.866,47.866,0,0,1,5.64-.282h5.922v4.324h-6.016c-1.786,0-2.867-.047-3.995-.141.094,1.128.141,2.538.141,3.948v11.28c0,1.6-.094,3.525-.188,5.123h7.191V57.068h13.3v1.974h7.426c-.141-1.41-.235-3.1-.235-5.076V42.874a39.134,39.134,0,0,1,.188-4.183,38.02,38.02,0,0,1-3.854.141h-6.674V34.508h7.238a42.816,42.816,0,0,1,5.593.282V27.552a46.761,46.761,0,0,1-5.64.282h-7.191V23.181a92.185,92.185,0,0,0,10.81-1.974,8.144,8.144,0,0,0,.94-.188l-4.7-6.486c-1.833.846-2.867,1.128-6.627,1.833A116.26,116.26,0,0,1-190.3,18.293a19.809,19.809,0,0,1,2.4,6.3c3.807-.188,5.687-.282,8.6-.611v3.854h-5.969a47.01,47.01,0,0,1-5.593-.282v4.606a53.8,53.8,0,0,0-8.6-5.358l-4.042,5.405a59.482,59.482,0,0,1,8.93,6.157Zm8.742,12.455h13.3v5.358h-13.3Zm-20.163-25.192a57.149,57.149,0,0,1,8.648,6.533l4.324-5.64a65.488,65.488,0,0,0-8.554-6.11Zm5.593,19.364c-2.35,6.956-4.559,11.7-6.721,14.335l6.251,5.217c1.457-2.867,2.209-4.465,2.35-4.747a93.513,93.513,0,0,0,3.948-10.763Zm71.628,5.922h8.742V51.1c0,.846-.376,1.034-2.068,1.034-1.316,0-3.149-.094-5.217-.282a23.346,23.346,0,0,1,1.88,6.768c1.833.094,3.525.141,5.123.141,5.687,0,7.473-1.363,7.473-5.734V22.382a48.277,48.277,0,0,1,.235-6.016c-1.551.141-2.961.188-5.875.188h-27.4c-2.679,0-3.854-.047-5.593-.188.141,1.786.235,3.666.235,6.439,0,20.069-.752,25.427-4.324,31.4a24.642,24.642,0,0,1,6.392,5.358c2.538-4.324,3.76-8.319,4.418-14.241h8.977v6.627a43.955,43.955,0,0,1-.282,5.969h7.52a47.352,47.352,0,0,1-.235-6.016Zm0-17.625V23.275h8.742v4.418Zm-7,0h-8.272V23.275h8.272Zm7,6.533h8.742v4.512h-8.742Zm-7,0v4.512h-8.507c.094-2.068.094-2.585.141-4.512Zm50.948,6.533H-94.329a32.619,32.619,0,0,1-5.076-.235v5.311a32.9,32.9,0,0,1,5.17-.235h13.113v1.41H-92.261a35.962,35.962,0,0,1-4.465-.141V51.71a44.8,44.8,0,0,1,4.7-.188h10.9V52.7c0,.846-.282.987-1.739.987-1.645,0-3.337-.141-5.828-.376A20.023,20.023,0,0,1-86.9,59.23c1.786.094,3.1.141,4.371.141,7.05,0,8.272-.893,8.272-6.063V51.522h8.6v1.833h7.1a40.408,40.408,0,0,1-.235-5.311V45.788a22.721,22.721,0,0,1,3.29.235V40.289a15.783,15.783,0,0,1-3.29.282V39.114a33.416,33.416,0,0,1,.141-4.324,37.88,37.88,0,0,1-4.794.141H-74.26V33.615H-63.5c1.457,0,2.632.047,3.713.141a30.039,30.039,0,0,1-.141-3.2v-3.1c0-1.5.047-2.3.141-3.384-1.128.094-2.115.141-4.042.141H-74.26V22.852h12.643a49.524,49.524,0,0,1,5.64.235V17.118a51.072,51.072,0,0,1-6.11.282H-74.26a11.5,11.5,0,0,1,.282-2.35H-81.4a10.715,10.715,0,0,1,.282,2.35H-93.013a51.413,51.413,0,0,1-6.157-.282v5.969a49.778,49.778,0,0,1,5.734-.235h12.314v1.363H-91.133c-1.927,0-2.914-.047-4.23-.141.094,1.128.141,2.068.141,3.384v3.1a31.965,31.965,0,0,1-.141,3.2c1.175-.094,2.4-.141,4.089-.141h10.152v1.316H-92.261a33.865,33.865,0,0,1-4.371-.188V39.49c1.269-.094,2.679-.141,4.277-.141h11.233Zm6.862,0v-1.41h8.6v1.41Zm0,4.841h8.6v1.41h-8.6Zm-6.862-17.39v1.41h-7.332V28.21Zm6.862,0h7.567v1.41H-74.26Zm50.713-5.029a18.1,18.1,0,0,1,3.1.141V16.554a28.007,28.007,0,0,1-4.606.235h-6.016a28.778,28.778,0,0,1-4.559-.235v.47l-6.063-2.35c-1.175,7.191-3.807,13.4-7.379,17.578a38.151,38.151,0,0,1,2.209,8.46A28.231,28.231,0,0,0-44.7,37.845c-.047,1.363-.047,2.4-.047,4.23V53.684a50.958,50.958,0,0,1-.282,5.452h7.144a51.023,51.023,0,0,1-.235-5.5V39.02a39.619,39.619,0,0,1,2.679,5.5,30.139,30.139,0,0,0,2.4-3.29A36.468,36.468,0,0,1-29.892,44.8a27.316,27.316,0,0,1-8.131,9.165,21.054,21.054,0,0,1,4.888,5.593A38.715,38.715,0,0,0-25,49.924c2.679-4.747,3.995-9.353,5.076-18,.141-1.081.188-1.5.329-2.256l-2.3-3.29a27.128,27.128,0,0,1-3.2.141h-2.115a32.136,32.136,0,0,0,.517-3.337Zm-14.57,3.854c.282-.8.376-1.034.611-1.645a14.72,14.72,0,0,0,.658-1.88c.376-1.128.893-2.773,1.034-3.478a3.211,3.211,0,0,1,.188-.611v3.9a23.616,23.616,0,0,1,2.538-.141,28.438,28.438,0,0,1-5.029,13.442Zm11.938,5.734a28.924,28.924,0,0,1-1.034,5.452,36.516,36.516,0,0,0-2.773-2.82c.564-1.269.658-1.6,1.034-2.632Zm13.066,14.9a29.19,29.19,0,0,1-.141-3.243V22.006a27.685,27.685,0,0,1,.141-3.2h-6.533c.094,1.269.141,1.974.141,3.2V44.472a21.254,21.254,0,0,1-.188,3.2Zm8.131-27.542a27.594,27.594,0,0,1,.235-4.371H-11.7a29.075,29.075,0,0,1,.235,4.371V51.1c0,1.081-.329,1.269-1.88,1.269-1.41,0-4.136-.094-5.781-.235a22.141,22.141,0,0,1,1.692,6.674c1.175.047,2.068.047,2.679.047,1.551,0,3.713-.094,4.935-.235a5.657,5.657,0,0,0,3.149-.987c1.222-.893,1.692-2.3,1.692-4.935Zm39.527,8.319c2.632,3.666,5.405,11.139,6.392,17.108l7.708-3.666A49.142,49.142,0,0,0,41.454,25.2ZM4.888,34.7a61.948,61.948,0,0,1,7.332-1.363C10.293,40.9,6.345,50.206,3.384,54.154l7.755,4.089c.282-.7.376-.846.752-1.739A111.441,111.441,0,0,0,20.21,32.722a17.065,17.065,0,0,1,1.88-.094c1.645,0,2.3.188,2.82.8.611.658.893,1.786.893,3.76a41.236,41.236,0,0,1-1.269,10.434c-.517,1.5-1.128,2.115-2.115,2.115a20.289,20.289,0,0,1-6.439-1.692,22.313,22.313,0,0,1,.7,5.64,21.338,21.338,0,0,1-.141,2.726,26.534,26.534,0,0,0,7.473,1.222,8.977,8.977,0,0,0,3.666-.658A7.774,7.774,0,0,0,30.691,54.2c1.88-3.29,2.961-9.353,2.961-16.685,0-5.311-.94-8.178-3.337-10.1-1.6-1.269-3.76-1.88-6.674-1.88a15.592,15.592,0,0,0-2.021.094c.141-.752.47-2.679.893-5.076l.329-1.692c.047-.282.094-.7.141-.846a4.863,4.863,0,0,1,.282-1.128l-8.507-.8v.8a73.574,73.574,0,0,1-1.081,9.259c-3.1.423-7.567.8-9.071.8a1.619,1.619,0,0,1-.423-.047ZM37.224,16.178A32.074,32.074,0,0,1,41.83,22.9l4.324-2.115a33.041,33.041,0,0,0-4.7-6.533Zm-6.486,2.914a30.256,30.256,0,0,1,4.653,6.862l4.465-2.162A30.112,30.112,0,0,0,35.2,17.071ZM65.33,27.223c-.094,4.23-.094,4.23-.188,6.11H61.57a31.8,31.8,0,0,1-5.5-.282v7.1a31.91,31.91,0,0,1,5.358-.282h2.914C63.121,45.741,60.4,49.5,55.037,52.7a18.758,18.758,0,0,1,5.029,5.969c4.7-3.713,6.956-6.486,8.93-10.9a28.254,28.254,0,0,0,6.862,8.178,33.54,33.54,0,0,1,3.2-6.392v3.008c0,1.786-.094,3.854-.235,5.5h7.144V55h4.982v3.1h7.238C98,55.987,97.9,54.06,97.9,51.945V23.228a38.014,38.014,0,0,1,.235-4.982,31.624,31.624,0,0,1-4.465.235H83.237a28.7,28.7,0,0,1-4.371-.235c.141,1.457.188,3.055.188,4.982V48.655A27.089,27.089,0,0,1,71.3,40.43c.047-.235.047-.329.094-.564h2.068a40.575,40.575,0,0,1,4.653.188V33.1a27.235,27.235,0,0,1-4.371.235H72.1c.094-1.692.094-1.692.188-6.11h.893a43.845,43.845,0,0,1,4.653.188v-7a30.5,30.5,0,0,1-4.653.235H67.022c.376-.987.517-1.5.752-2.209a21.735,21.735,0,0,1,.8-2.4l-7.144-1.5a13.346,13.346,0,0,1-.752,3.29A26.037,26.037,0,0,1,54.99,28.069,16.879,16.879,0,0,1,60.442,33.1a36.049,36.049,0,0,0,3.713-5.875ZM86.1,24.967h4.841V48.42H86.1Zm24.205,27.072a56.178,56.178,0,0,1,4.653-5.875V51.1a47.828,47.828,0,0,1-.423,7.191l8.507-.047c-.235-1.833-.376-6.627-.376-13.3,0-1.363,0-2.726.047-4.935a44.42,44.42,0,0,1,8.131-7.238,8.741,8.741,0,0,1,4.465-1.927,1.224,1.224,0,0,1,1.363,1.316A29.079,29.079,0,0,1,135.83,37c-1.6,7.05-2.068,9.87-2.068,12.5,0,4.606,2.867,7.567,7.379,7.567s7.567-2.256,11.186-8.178a29.291,29.291,0,0,1-3.948-7.567,27.987,27.987,0,0,1-2.82,5.029c-.893,1.316-1.88,2.115-2.585,2.115s-1.128-.517-1.128-1.363c0-1.175.564-4.136,2.021-10.058.94-3.948,1.222-5.5,1.222-7.1,0-4.418-3.008-7.332-7.567-7.332-4.136,0-8.977,2.632-14.852,8.084a6.95,6.95,0,0,0,.047-1.034l.047-.658a16.984,16.984,0,0,1,2.961-3.2l-2.585-2.444a66.973,66.973,0,0,1,.564-6.956l-8.319-.188a20.342,20.342,0,0,1,.188,3.1c0,1.081-.047,2.256-.094,3.243a12.416,12.416,0,0,1-.047,1.5c-1.974.141-3.948.235-5.123.235-.8,0-1.363-.047-2.444-.141l.376,7.426a54.6,54.6,0,0,1,7-.611c-.047,3.055-.094,4.418-.141,5.17-.235.282-1.974,1.974-5.123,5.17a35.838,35.838,0,0,1-3.29,2.867Zm55.93-26.649c.94-.094,1.833-.188,3.1-.235,6.627-.329,8.507-.423,11-.7-5.828,5.781-15.745,13.489-20.069,15.51l4.371,7.144a34.95,34.95,0,0,1,4.512-3.525,27.028,27.028,0,0,1,14.476-4.324c5.217,0,8.413,2.021,8.413,5.311,0,2.4-1.175,3.995-3.713,5.123a10.813,10.813,0,0,0-10.575-7.332c-5.452,0-9.353,3.149-9.353,7.52,0,5.217,4.841,8.366,12.784,8.366a25.547,25.547,0,0,0,12.455-2.961,12.276,12.276,0,0,0,6.486-11.045,10.433,10.433,0,0,0-3.431-8.131c-2.491-2.162-5.64-3.2-10.058-3.2a22.486,22.486,0,0,0-6.439.846c3.149-2.3,3.995-3.008,6.486-5.123,6.345-5.452,6.345-5.452,7.567-6.157L190.4,16.789a9.474,9.474,0,0,1-3.572.658c-4.747.376-9.964.564-14.147.564a52.6,52.6,0,0,1-6.768-.329ZM181.326,51.8a7.133,7.133,0,0,1-1.551.141c-2.538,0-4.042-.8-4.042-2.068a1.619,1.619,0,0,1,1.833-1.551C179.4,48.326,180.715,49.548,181.326,51.8Z" transform="translate(11921 -8637)" fill="#fff"></path><path id="&#x30D1;&#x30B9;_14081" data-name="&#x30D1;&#x30B9; 14081" d="M-193.076-34.451c-2.867,0-4.183-.047-5.922-.188a44.657,44.657,0,0,1,.235,5.687V-1.316a41.9,41.9,0,0,1-.282,5.452h7.52V2.115h21.385V4.136h7.661a36.3,36.3,0,0,1-.282-5.5V-28.952a42.881,42.881,0,0,1,.235-5.687c-1.739.141-3.055.188-5.922.188H-179.07c.329-.705.517-1.081.705-1.551,1.175-2.914,1.175-2.914,1.5-3.713l-8.366-.564a25.7,25.7,0,0,1-1.833,5.828Zm1.6,6.58h21.432v3.478h-21.432Zm0,9.964h21.432v3.384h-21.432Zm0,9.917h21.432v3.478h-21.432Zm54.661-10.058a15.343,15.343,0,0,1-2.021,7.332c-2.068,3.76-5.452,6.439-10.951,8.648a28.441,28.441,0,0,1,4.653,6.392,27.672,27.672,0,0,0,4.7-2.585,26.013,26.013,0,0,0,7.426-7.8,26.144,26.144,0,0,0,3.76-11.985h7.144a63.2,63.2,0,0,1-.8,11.8c-.47,1.974-1.034,2.3-3.478,2.3a39.16,39.16,0,0,1-4.982-.423,25.379,25.379,0,0,1,2.021,7.52c2.867.047,2.867.047,3.337.047,5.828,0,8.084-.893,9.353-3.619,1.175-2.538,1.833-8.93,1.88-18.377a42.358,42.358,0,0,0,4,3.243,37.407,37.407,0,0,1,4.747-7.191A32.992,32.992,0,0,1-118.158-35.3a19.8,19.8,0,0,1-1.927-4.324l-7,2.679c.282.658.611,1.316.893,2.021a45.981,45.981,0,0,0,6.063,10.34h-17.719a61.348,61.348,0,0,0,5.969-9.87,18.559,18.559,0,0,1,1.222-2.4l-7.708-2.82a14.625,14.625,0,0,1-1.645,4.371,35.026,35.026,0,0,1-11.844,13.4,30.154,30.154,0,0,1,4.794,6.627,42.96,42.96,0,0,0,5.828-5.217v2.632a22.5,22.5,0,0,1,3.2-.188Zm42.676-19.975a38.683,38.683,0,0,1-.7,5.029A101.661,101.661,0,0,0-96.632-14.9,99.3,99.3,0,0,0-95.41-.047a18.882,18.882,0,0,1,.235,2.491l8.084-.376a13.157,13.157,0,0,1-.141-2.3A46.376,46.376,0,0,1-85.4-13.395l-3.619-1.222c.329-8.554,1.739-17.343,3.572-22.7ZM-81.827-25.8c.658.047.987.047,1.363.094a77.551,77.551,0,0,0,8.084.376c3.243,0,6.674-.188,9.917-.517,2.585-.282,3.055-.329,3.478-.329l-.329-8.037c-3.149.8-7.755,1.175-14.006,1.175a39.258,39.258,0,0,1-8.366-.7Zm2.773,6.251c-1.269,1.833-1.551,2.3-2.209,3.384a14.729,14.729,0,0,0-2.256,7.332,8.706,8.706,0,0,0,4.324,7.473C-76.751,0-73.837.611-69.466.611A57.554,57.554,0,0,0-61.335,0c2.773-.423,2.773-.423,3.995-.564l-.47-8.319a34.93,34.93,0,0,1-11.7,1.927c-4,0-6.11-1.175-6.11-3.337,0-1.692.987-3.713,3.149-6.486Zm33.182-9.165A16.422,16.422,0,0,1-43.334-29a49.158,49.158,0,0,0,6.11-.846,41.326,41.326,0,0,0-2.82,3.149A23.668,23.668,0,0,0-45.214-12.5c0,5.358,2.35,10.293,6.11,12.831A16.61,16.61,0,0,0-29.986,2.82,15.381,15.381,0,0,0-17.249-3.431c2.35-3.29,3.525-7.379,3.525-12.5a32.427,32.427,0,0,0-.282-4.371,33.876,33.876,0,0,0,5.922,7.8l.658.658.423.423,3.948-7.8c-5.405-3.713-10.34-10.951-12.173-17.766l-7.943,2.209a35.879,35.879,0,0,1,2.209,13.207c0,4.7-.517,7.943-1.739,10.9a8.155,8.155,0,0,1-7.473,5.264c-4.136,0-6.721-2.867-6.721-7.426,0-4.183,1.88-8.413,5.593-12.737a23.478,23.478,0,0,1,5.969-5.123l-3.995-7.144c-2.3.846-8.46,1.457-14.335,1.457a12.9,12.9,0,0,1-2.4-.141ZM-7.755-41.172a5.276,5.276,0,0,0-5.311,5.311A5.336,5.336,0,0,0-7.755-30.55a5.3,5.3,0,0,0,5.264-5.311A5.266,5.266,0,0,0-7.755-41.172Zm0,2.632a2.7,2.7,0,0,1,2.632,2.679A2.7,2.7,0,0,1-7.8-33.229a2.69,2.69,0,0,1-2.632-2.632A2.708,2.708,0,0,1-7.755-38.54ZM9.494-15.7a34.683,34.683,0,0,1,5.875-1.645,58.479,58.479,0,0,1,12.314-1.739c4.277,0,6.768,1.739,6.768,4.7a6.646,6.646,0,0,1-.564,2.773c-.94,2.162-3.525,4.089-6.721,5.076A37.308,37.308,0,0,1,15.745-4.982a20.751,20.751,0,0,1,2.867,7.52c6.58-.752,7.426-.893,10.669-1.88C37.647-1.88,42.3-7.238,42.3-14.429a10.927,10.927,0,0,0-3.9-8.883c-2.538-2.021-5.687-2.914-10.293-2.914a74.945,74.945,0,0,0-14.758,1.88c-3.76.7-3.76.7-5.405.893ZM81.686-33.229a53.1,53.1,0,0,1-7.708,1.222c.423-2.4.705-3.76.752-4.042a14.858,14.858,0,0,1,.611-2.726l-8.789-.658v.7a45.33,45.33,0,0,1-.8,7.05H64.86a48.915,48.915,0,0,1-7.144-.47l-.141,7.661a9.472,9.472,0,0,1,1.081-.047h.47c2.021.094,3.008.141,4.512.141h.752C62.651-15.7,59.6-6.345,56.494-.329L65.142,2.82c.329-1.128.329-1.128,1.081-3.384,2.021-6.063,2.3-7.1,3.478-11.233,1.316-4.888,2.162-8.366,2.961-12.784,1.457-.094,2.021-.141,4.277-.376l.47,6.674a63.08,63.08,0,0,1,13.207-1.175,42.355,42.355,0,0,1,6.157.329l-.141-7.943c-.987-.047-1.974-.047-2.3-.047a79.906,79.906,0,0,0-12.455.705ZM76.7-15.745c-2.585,3.76-3.666,6.392-3.666,9.118q0,8.883,13.818,8.883A57.569,57.569,0,0,0,96.021,1.5c1.128-.141,1.551-.188,2.491-.282L97.948-7A35.369,35.369,0,0,1,86.856-5.17c-3.948,0-5.875-1.034-5.875-3.2,0-1.457.752-3.008,2.538-5.123Zm38.305-23.124v.376a23.226,23.226,0,0,1-.188,2.585,135.587,135.587,0,0,0-1.081,17.155c0,1.316.047,4.136.141,5.969v.94a5.434,5.434,0,0,1-.047.8l7.9-.094a24.188,24.188,0,0,1,.188-3.854,19.938,19.938,0,0,1,5.217-10.9c1.739-1.88,3.337-2.726,5.076-2.726,3.337,0,5.217,3.243,5.217,9.118,0,10.152-5.452,14.57-18.941,15.369a27.852,27.852,0,0,1,3.76,8.037,48.292,48.292,0,0,0,5.546-1.081,28.278,28.278,0,0,0,10.716-4.888q7.191-5.64,7.191-17.2c0-5.5-1.269-9.776-3.9-13.066a11.105,11.105,0,0,0-8.507-4.277c-5.029,0-8.836,2.632-11.891,8.131a63.021,63.021,0,0,1,1.927-10.058Zm70.829,9.776a7.877,7.877,0,0,1,3.948,1.645c2.726,2.068,4.136,5.264,4.136,9.259,0,5.029-2.021,8.977-5.64,10.9-2.538,1.316-5.452,2.068-9.87,2.4a23.093,23.093,0,0,1,3.995,7.708c6.58-1.034,10.293-2.538,13.489-5.4,3.948-3.525,6.251-9.071,6.251-15.181,0-5.311-1.6-9.87-4.606-13.066-3.478-3.666-9.024-5.781-15.322-5.781-6.909,0-12.878,2.4-17.014,6.909a20.894,20.894,0,0,0-5.4,14.335c0,8.6,4.418,14.617,10.716,14.617,4.277,0,7.426-2.632,10.152-8.648C183.206-14.946,184.8-21.009,185.838-29.093ZM177.707-29a60.937,60.937,0,0,1-3.525,14.335c-1.41,3.572-2.632,5.217-3.807,5.217-1.645,0-2.914-2.632-2.914-5.969A15.206,15.206,0,0,1,172.584-26.6,9.4,9.4,0,0,1,177.707-29Zm-322.7,82.918v2.773h8.836a70.948,70.948,0,0,1-.282-7.755V24.4c0-2.35.047-3.149.141-4.794-1.363.094-2.679.141-5.217.141H-163.09a49.208,49.208,0,0,1-8.225-.423v8.554c1.974-.188,3.76-.235,8.084-.235h18.236V46.023h-18.8a48.59,48.59,0,0,1-8.178-.376V54.2a66.184,66.184,0,0,1,8.037-.282Zm21.9-12.314c2.867-.235,4.418-.282,9.682-.282h22.372a90.714,90.714,0,0,1,9.682.282V32.534a77.116,77.116,0,0,1-9.635.423h-22.466a66.6,66.6,0,0,1-9.635-.423Zm91.65,9.4c-7.332-7-9.259-8.648-14.946-12.737,2.632-3.525,4.418-6.815,6.909-12.69a7.421,7.421,0,0,1,1.692-2.773l-4.136-4.23a8.624,8.624,0,0,1-3.76.517l-16.074.235c-1.363.047-2.256.047-2.632.047a34.82,34.82,0,0,1-4.935-.329l.235,8.366a55.819,55.819,0,0,1,7.473-.47l12.22-.188a37.81,37.81,0,0,1-9.447,13.818,44.323,44.323,0,0,1-15.228,9.494,24.622,24.622,0,0,1,5.264,7.426c7.285-3.525,12.878-7.661,17.3-12.878A75.566,75.566,0,0,1-38.023,57.961ZM7.52,28.445c2.632,3.666,5.405,11.139,6.392,17.108l7.708-3.666A49.142,49.142,0,0,0,14.429,25.2ZM-22.137,34.7a61.948,61.948,0,0,1,7.332-1.363c-1.927,7.567-5.875,16.873-8.836,20.821l7.755,4.089c.282-.7.376-.846.752-1.739A111.441,111.441,0,0,0-6.815,32.722a17.065,17.065,0,0,1,1.88-.094c1.645,0,2.3.188,2.82.8.611.658.893,1.786.893,3.76A41.236,41.236,0,0,1-2.491,47.621c-.517,1.5-1.128,2.115-2.115,2.115a20.289,20.289,0,0,1-6.439-1.692,22.313,22.313,0,0,1,.705,5.64,21.338,21.338,0,0,1-.141,2.726,26.534,26.534,0,0,0,7.473,1.222,8.977,8.977,0,0,0,3.666-.658A7.774,7.774,0,0,0,3.666,54.2c1.88-3.29,2.961-9.353,2.961-16.685,0-5.311-.94-8.178-3.337-10.1-1.6-1.269-3.76-1.88-6.674-1.88a15.592,15.592,0,0,0-2.021.094c.141-.752.47-2.679.893-5.076l.329-1.692c.047-.282.094-.7.141-.846a4.863,4.863,0,0,1,.282-1.128l-8.507-.8v.8a73.574,73.574,0,0,1-1.081,9.259c-3.1.423-7.567.8-9.071.8a1.619,1.619,0,0,1-.423-.047ZM10.2,16.178A32.074,32.074,0,0,1,14.8,22.9l4.324-2.115a33.041,33.041,0,0,0-4.7-6.533ZM3.713,19.092a30.256,30.256,0,0,1,4.653,6.862l4.465-2.162a30.112,30.112,0,0,0-4.653-6.721Zm39.245,17.86a15.343,15.343,0,0,1-2.021,7.332c-2.068,3.76-5.452,6.439-10.951,8.648a28.441,28.441,0,0,1,4.653,6.392,27.671,27.671,0,0,0,4.7-2.585A25.771,25.771,0,0,0,50.525,36.952h7.144a63.2,63.2,0,0,1-.8,11.8c-.47,1.974-1.034,2.3-3.478,2.3a39.16,39.16,0,0,1-4.982-.423,25.379,25.379,0,0,1,2.021,7.52c2.867.047,2.867.047,3.337.047,5.828,0,8.084-.893,9.353-3.619C64.3,52.039,64.954,45.647,65,36.2a42.358,42.358,0,0,0,4,3.243,37.407,37.407,0,0,1,4.747-7.191A32.992,32.992,0,0,1,61.617,19.7a19.8,19.8,0,0,1-1.927-4.324l-7,2.679c.282.658.611,1.316.893,2.021a45.981,45.981,0,0,0,6.063,10.34H41.924a61.348,61.348,0,0,0,5.969-9.87,18.56,18.56,0,0,1,1.222-2.4l-7.708-2.82A14.625,14.625,0,0,1,39.762,19.7,35.026,35.026,0,0,1,27.918,33.1a30.153,30.153,0,0,1,4.794,6.627,42.96,42.96,0,0,0,5.828-5.217V37.14a22.5,22.5,0,0,1,3.2-.188Zm38.4-2.585a58.481,58.481,0,0,1,7.332-1.316c-1.88,7.426-5.828,16.779-8.836,20.774l7.755,4.089c.282-.658.376-.893.752-1.692A101.477,101.477,0,0,0,93.342,44.1a93.194,93.194,0,0,0,3.337-11.7,17.065,17.065,0,0,1,1.88-.094c1.645,0,2.3.188,2.82.8.611.658.893,1.786.893,3.807A41.527,41.527,0,0,1,101,47.339c-.517,1.5-1.128,2.115-2.115,2.115a21.666,21.666,0,0,1-6.439-1.692,21.711,21.711,0,0,1,.705,5.593,20.97,20.97,0,0,1-.141,2.726,26.852,26.852,0,0,0,7.473,1.269,8.977,8.977,0,0,0,3.666-.658,7.55,7.55,0,0,0,3.008-2.82c1.88-3.243,2.961-9.353,2.961-16.685,0-5.311-.94-8.178-3.337-10.1-1.6-1.269-3.76-1.88-6.674-1.88-.658,0-1.222.047-2.021.094.188-1.081.517-2.867.893-5.029a23.171,23.171,0,0,1,.752-3.713l-8.507-.8v.8a74.918,74.918,0,0,1-1.081,9.306c-3.055.376-7.567.752-9.071.752h-.423Zm27.26-9.588c4.324,5.123,7.238,11.938,8.789,20.539l7.708-3.666a48.9,48.9,0,0,0-9.588-20.069Zm30.6.611c.94-.094,1.833-.188,3.1-.235,6.627-.329,8.507-.423,11-.7-5.828,5.781-15.745,13.489-20.069,15.51l4.371,7.144a34.95,34.95,0,0,1,4.512-3.525A27.028,27.028,0,0,1,156.6,39.255c5.217,0,8.413,2.021,8.413,5.311,0,2.4-1.175,3.995-3.713,5.123a10.813,10.813,0,0,0-10.575-7.332c-5.452,0-9.353,3.149-9.353,7.52,0,5.217,4.841,8.366,12.784,8.366a25.547,25.547,0,0,0,12.455-2.961A12.276,12.276,0,0,0,173.1,44.237a10.433,10.433,0,0,0-3.431-8.131c-2.491-2.162-5.64-3.2-10.058-3.2a22.486,22.486,0,0,0-6.439.846c3.149-2.3,3.995-3.008,6.486-5.123,6.345-5.452,6.345-5.452,7.567-6.157l-3.854-5.687a9.474,9.474,0,0,1-3.572.658c-4.747.376-9.964.564-14.147.564a52.6,52.6,0,0,1-6.768-.329ZM154.3,51.8a7.133,7.133,0,0,1-1.551.141c-2.538,0-4.042-.8-4.042-2.068a1.619,1.619,0,0,1,1.833-1.551C152.374,48.326,153.69,49.548,154.3,51.8Z" transform="translate(12444 -8637)" fill="#fff"></path></g></svg>