<svg xmlns="http://www.w3.org/2000/svg" xmlns:xlink="http://www.w3.org/1999/xlink" width="568.488" height="496.49" viewBox="0 0 568.488 496.49"><defs><linearGradient id="linear-gradient" x1="-833.479" y1="-303.102" x2="-833.49" y2="-303.722" gradientUnits="objectBoundingBox"><stop offset="0" stop-color="#f2f0ff"></stop><stop offset="1" stop-color="#94c7f2"></stop></linearGradient><linearGradient id="linear-gradient-2" x1="-51.603" y1="19.534" x2="-50.833" y2="19.94" gradientUnits="objectBoundingBox"><stop offset="0" stop-color="#f2f8fc"></stop><stop offset="1" stop-color="#cbc3ff"></stop></linearGradient><linearGradient id="linear-gradient-3" x1="-42.933" y1="0.549" x2="-42.461" y2="0.298" gradientUnits="objectBoundingBox"><stop offset="0" stop-color="#f2f8fc"></stop><stop offset="1" stop-color="#dad5ff"></stop></linearGradient><linearGradient id="linear-gradient-4" x1="-293.019" y1="8.522" x2="-292.445" y2="8.15" gradientUnits="objectBoundingBox"><stop offset="0" stop-color="#f2f8fc"></stop><stop offset="1" stop-color="#94c7f2"></stop></linearGradient><linearGradient id="linear-gradient-5" x1="-13.655" y1="1.942" x2="-15.031" y2="1.942" xlink:href="#linear-gradient-4"></linearGradient><linearGradient id="linear-gradient-6" x1="-401.427" y1="27.566" x2="-401.176" y2="27.635" xlink:href="#linear-gradient-4"></linearGradient><linearGradient id="linear-gradient-7" x1="-408.26" y1="59.883" x2="-407.344" y2="60.721" xlink:href="#linear-gradient-4"></linearGradient><linearGradient id="linear-gradient-8" x1="-372.543" y1="-107.458" x2="-372.557" y2="-108.011" gradientUnits="objectBoundingBox"><stop offset="0" stop-color="#f2f0ff"></stop><stop offset="1" stop-color="#c4baff"></stop></linearGradient><linearGradient id="linear-gradient-9" x1="3.466" y1="1.016" x2="1.811" y2="0.858" gradientUnits="objectBoundingBox"><stop offset="0" stop-color="#f2f8fc"></stop><stop offset="1" stop-color="#c4baff"></stop></linearGradient><linearGradient id="linear-gradient-11" x1="1.348" y1="0.465" x2="1.726" y2="-0.044" gradientUnits="objectBoundingBox"><stop offset="0" stop-color="#fbf7ff"></stop><stop offset="1" stop-color="#c4baff"></stop></linearGradient><linearGradient id="linear-gradient-12" x1="0.416" y1="0.464" x2="0.761" y2="-0.051" xlink:href="#linear-gradient-11"></linearGradient><linearGradient id="linear-gradient-13" x1="2.682" y1="0.239" x2="3.399" y2="0.899" gradientUnits="objectBoundingBox"><stop offset="0.349" stop-color="#fff"></stop><stop offset="1" stop-color="#94c7f2"></stop></linearGradient><linearGradient id="linear-gradient-14" x1="-1565.599" y1="-322.337" x2="-1566.235" y2="-321.963" gradientUnits="objectBoundingBox"><stop offset="0" stop-color="#ebe8ff"></stop><stop offset="1" stop-color="#c4baff"></stop></linearGradient><linearGradient id="linear-gradient-15" x1="-2127.866" y1="776.015" x2="-2127.874" y2="775.162" gradientUnits="objectBoundingBox"><stop offset="0" stop-color="#f2f8fc"></stop><stop offset="1" stop-color="#ebe8ff"></stop></linearGradient><linearGradient id="linear-gradient-19" x1="-1408.131" y1="-344.691" x2="-1408.802" y2="-344.348" gradientUnits="objectBoundingBox"><stop offset="0" stop-color="#f2f0ff"></stop><stop offset="1" stop-color="#f2f0ff"></stop></linearGradient><linearGradient id="linear-gradient-20" x1="-3565.409" y1="303.541" x2="-3565.425" y2="302.951" gradientUnits="objectBoundingBox"><stop offset="0" stop-color="#f2f8fc"></stop><stop offset="1" stop-color="#b4a8ff"></stop></linearGradient></defs><g id="&#x30B0;&#x30EB;&#x30FC;&#x30D7;_18608" data-name="&#x30B0;&#x30EB;&#x30FC;&#x30D7; 18608" transform="translate(-763 -275.51)"><g id="&#x30B0;&#x30EB;&#x30FC;&#x30D7;_18606" data-name="&#x30B0;&#x30EB;&#x30FC;&#x30D7; 18606" transform="translate(50 3.218)"><g id="&#x30B0;&#x30EB;&#x30FC;&#x30D7;_18402" data-name="&#x30B0;&#x30EB;&#x30FC;&#x30D7; 18402" transform="translate(1184.212 393.199)"><g id="&#x30B0;&#x30EB;&#x30FC;&#x30D7;_18397" data-name="&#x30B0;&#x30EB;&#x30FC;&#x30D7; 18397" transform="translate(0 113.903)"><path id="&#x30D1;&#x30B9;_26635" data-name="&#x30D1;&#x30B9; 26635" d="M446.624,241.085l-25.116,36.624.406-26.337a2.541,2.541,0,0,0-2.5-2.577h0a2.538,2.538,0,0,0-2.572,2.32l-2.963,34.314a4.931,4.931,0,0,0,8.431,3.879l31.33-31.909Z" transform="translate(-408.262 -235.707)" fill="#312774"></path><g id="&#x30B0;&#x30EB;&#x30FC;&#x30D7;_18396" data-name="&#x30B0;&#x30EB;&#x30FC;&#x30D7; 18396"><g id="&#x30B0;&#x30EB;&#x30FC;&#x30D7;_18395" data-name="&#x30B0;&#x30EB;&#x30FC;&#x30D7; 18395"><g id="&#x30B0;&#x30EB;&#x30FC;&#x30D7;_18394" data-name="&#x30B0;&#x30EB;&#x30FC;&#x30D7; 18394"><path id="&#x30D1;&#x30B9;_26636" data-name="&#x30D1;&#x30B9; 26636" d="M422.743,257.323a2.12,2.12,0,0,1-2.079-2.227l.124-2.493-3.227.259-5.215-3.46a1.027,1.027,0,0,1-.431-1.1l.005-.015a1.03,1.03,0,0,1,.944-.785l.18-.01-.835-.523a1.177,1.177,0,0,1-.548-1.094v-.018a1.176,1.176,0,0,1,1.1-1.076l.368-.023-.381-.157a1.215,1.215,0,0,1-.741-1.274l0-.018a1.217,1.217,0,0,1,.911-1.023l.815-.2-.429-.206a1.521,1.521,0,0,1-.736-1.967l.013-.028a1.516,1.516,0,0,1,1.94-.815l10.609,4.075-.234,5.616V255.2a2.121,2.121,0,0,1-2.16,2.12Z" transform="translate(-411.657 -238.967)" fill="url(#linear-gradient)"></path></g></g></g></g><path id="&#x30D1;&#x30B9;_26637" data-name="&#x30D1;&#x30B9; 26637" d="M438.913,235.755,435.654,235l2.746,1.986Z" transform="translate(-374.734 -131.171)" fill="#04579b"></path><path id="&#x30D1;&#x30B9;_26638" data-name="&#x30D1;&#x30B9; 26638" d="M437.432,236.521s-10.637,6.692-11.874,23.755,16.466,50.036,17.337,54.314,7.362-21.6,3.973-33.786S441.877,236.295,437.432,236.521Z" transform="translate(-390.363 -128.829)" fill="#312774"></path><path id="&#x30D1;&#x30B9;_26639" data-name="&#x30D1;&#x30B9; 26639" d="M446.538,236.306a15.746,15.746,0,0,0-17.525,11.963,51.4,51.4,0,0,0-.233,24.027c4.872,19.911,6.372,30.965,6.065,41.6s-.5,13.6-.5,13.6h41.267L472.8,266.54a34.134,34.134,0,0,0-19.289-29.185l-.185-.089Z" transform="translate(-387.341 -129.399)" fill="url(#linear-gradient-2)"></path><path id="&#x30D1;&#x30B9;_26640" data-name="&#x30D1;&#x30B9; 26640" d="M445.105,350.887c17.946,21.8-6.357,88.549-6.357,88.549l-8.682.013.267-167.318H471.6Z" transform="translate(-383.332 -74.034)" fill="#312774"></path><path id="&#x30D1;&#x30B9;_26641" data-name="&#x30D1;&#x30B9; 26641" d="M432.12,236.593l-3.425,11.831,3.257-4.57,2.023,4.534a19.418,19.418,0,0,0-.295-6.964C432.805,238.368,432.12,236.593,432.12,236.593Z" transform="translate(-385.441 -128.716)" fill="#b47eff"></path><g id="&#x30B0;&#x30EB;&#x30FC;&#x30D7;_18399" data-name="&#x30B0;&#x30EB;&#x30FC;&#x30D7; 18399" transform="translate(30.851 70.377)"><g id="&#x30B0;&#x30EB;&#x30FC;&#x30D7;_18398" data-name="&#x30B0;&#x30EB;&#x30FC;&#x30D7; 18398"><path id="&#x30D1;&#x30B9;_26642" data-name="&#x30D1;&#x30B9; 26642" d="M450.772,230.753h0a6.612,6.612,0,0,0-5.608-6.715l-14.11-2.158a4.854,4.854,0,0,0-5.182,6.745l1.323,3.019Z" transform="translate(-421.277 -221.822)" fill="#312774"></path><path id="&#x30D1;&#x30B9;_26643" data-name="&#x30D1;&#x30B9; 26643" d="M444.737,224.718s3.252-1.389,5.5,3.74-5.567,17.619-3.247,22.752c0,0-13.278-3.737-16.121-8.4s-5.331-15.522,3.176-16.36S444.737,224.718,444.737,224.718Z" transform="translate(-417.065 -217.63)" fill="#312774"></path><path id="&#x30D1;&#x30B9;_26644" data-name="&#x30D1;&#x30B9; 26644" d="M425.414,243.483l8.614,1.311,6.325,11.982,16.4-6.839-13.964-20.487Z" transform="translate(-421.341 -210.085)" fill="url(#linear-gradient-3)"></path><path id="&#x30D1;&#x30B9;_26645" data-name="&#x30D1;&#x30B9; 26645" d="M430.381,224.6s-2.841,4.488-2.709,5.58.658,1.957.5,2.432c-.132.378-3.006,4.476-4.179,6.139a.952.952,0,0,0,.277,1.371,7.343,7.343,0,0,0,1.373.556c1.236.393.652,2.871.652,2.871l-.655,5.507a1.671,1.671,0,0,0,1.554,1.869c4.065.256,13.869.589,15.316-2.039,1.83-3.326,1.252-10.526,1.252-10.526l2.493-1.183a1.749,1.749,0,0,0,.784-2.412l-.018-.03a1.744,1.744,0,0,0-2.239-.764l-2.739,1.211-.454,3.839a1.5,1.5,0,0,1-1.665,1.307H439.9a1.489,1.489,0,0,1-1.307-1.4l1.112-8.977,3.5-3.821Z" transform="translate(-423.81 -217.555)" fill="#fff"></path><path id="&#x30D1;&#x30B9;_26646" data-name="&#x30D1;&#x30B9; 26646" d="M425.506,231.153l-.934,1.635a.338.338,0,0,0,.046.394l.378.406s-.853.825-.251,1.5,1.13,1.31,1.13,1.31Z" transform="translate(-422.703 -207.464)" fill="#fff"></path><path id="&#x30D1;&#x30B9;_26647" data-name="&#x30D1;&#x30B9; 26647" d="M426.065,227.375s2.876.353,3.922,1.627a12.9,12.9,0,0,1-3.163.594C425.844,229.52,426.065,227.375,426.065,227.375Z" transform="translate(-420.372 -213.277)" fill="#002b6a"></path></g></g><path id="&#x30D1;&#x30B9;_26648" data-name="&#x30D1;&#x30B9; 26648" d="M443.5,235.3,432.67,244.09l5.228,7.035,9.514-11.406Z" transform="translate(-379.325 -130.712)" fill="#b47eff"></path><path id="&#x30D1;&#x30B9;_26649" data-name="&#x30D1;&#x30B9; 26649" d="M430.026,240.519l6.834-1.759,2.122,2.856s-2.206,4.593-5.339,4.138S429.66,241.862,430.026,240.519Z" transform="translate(-383.515 -125.382)" fill="#e30613"></path><path id="&#x30D1;&#x30B9;_26650" data-name="&#x30D1;&#x30B9; 26650" d="M430.285,242.2s.9-2.81,3.316-1.315,3.057,2.523,1.584,3S429.77,244.005,430.285,242.2Z" transform="translate(-383.066 -122.782)" fill="#e30613"></path><path id="&#x30D1;&#x30B9;_26651" data-name="&#x30D1;&#x30B9; 26651" d="M444.762,339.7l1.643-4.767-15.17-58.33Z" transform="translate(-381.533 -67.157)" fill="#04579b"></path><path id="&#x30D1;&#x30B9;_26652" data-name="&#x30D1;&#x30B9; 26652" d="M430.171,272.13,469,439.448h8.581s10.84-87.706-9.672-95.078c0,0,10.79-57.84,3.526-72.24Z" transform="translate(-383.17 -74.034)" fill="#312774"></path><path id="&#x30D1;&#x30B9;_26653" data-name="&#x30D1;&#x30B9; 26653" d="M465.588,288.651l-28.911.75-1.018-17.256,3.7.161Z" transform="translate(-374.726 -74.01)" fill="#04579b"></path><path id="&#x30D1;&#x30B9;_26654" data-name="&#x30D1;&#x30B9; 26654" d="M443.069,236.817s-6.354,10.452-7.642,32.316S438,343.086,438,343.086h32.582s1.5-18.65-3.427-29.795l.97-63.2a9.977,9.977,0,0,0-8.058-9.947Z" transform="translate(-375.485 -128.372)" fill="#312774"></path><g id="&#x30B0;&#x30EB;&#x30FC;&#x30D7;_18401" data-name="&#x30B0;&#x30EB;&#x30FC;&#x30D7; 18401" transform="translate(46.915 0)"><g id="&#x30B0;&#x30EB;&#x30FC;&#x30D7;_18400" data-name="&#x30B0;&#x30EB;&#x30FC;&#x30D7; 18400"><path id="&#x30D1;&#x30B9;_26655" data-name="&#x30D1;&#x30B9; 26655" d="M433.13,200.331l-2.648-3.493a1.693,1.693,0,0,1,.327-2.374l.025-.02a1.7,1.7,0,0,1,2.374.328l2.648,3.5Z" transform="translate(-430.137 -194.101)" fill="url(#linear-gradient-4)"></path><path id="&#x30D1;&#x30B9;_26656" data-name="&#x30D1;&#x30B9; 26656" d="M437.045,196.718l-2.866-.64a1.941,1.941,0,0,0-2.358,2.056l0,.028-.025.005a2.22,2.22,0,0,0-1.432,3.067l.533,1.165-.008.018a2,2,0,0,0,.754,2.689l1.158.665a2.411,2.411,0,0,0,1.752.264h.01s.3,5.484,4.12,6.167l1.584,6.992,4.369-1.325-1.627-7.182-3.148-13.9a2.152,2.152,0,0,0-1.107-1.432l-1.935-1a2.146,2.146,0,0,0-3.107,1.554l-.315,1.9Z" transform="translate(-430.098 -194.089)" fill="url(#linear-gradient-5)"></path><path id="&#x30D1;&#x30B9;_26657" data-name="&#x30D1;&#x30B9; 26657" d="M430.677,197.664a1.031,1.031,0,0,1,.9-.612c.721-.076,2.986-.2,2.986-.2s-3.179.241-3.473.729a7.267,7.267,0,0,1-.69.927Z" transform="translate(-429.728 -189.864)" fill="url(#linear-gradient-6)"></path><path id="&#x30D1;&#x30B9;_26658" data-name="&#x30D1;&#x30B9; 26658" d="M434.925,196.426a13.42,13.42,0,0,1-2.168-.35,12.243,12.243,0,0,0-1.94-.371,11.537,11.537,0,0,1,1.7.528A5.836,5.836,0,0,0,434.925,196.426Z" transform="translate(-429.091 -191.632)" fill="url(#linear-gradient-7)"></path></g><path id="&#x30D1;&#x30B9;_26659" data-name="&#x30D1;&#x30B9; 26659" d="M433.21,204.267l21.005,99.755,16.575-.65L439.673,202.594a3.311,3.311,0,0,0-3.874-2.257l-.063.015A3.308,3.308,0,0,0,433.21,204.267Z" transform="translate(-425.521 -184.624)" fill="#312774"></path></g><path id="&#x30D1;&#x30B9;_26660" data-name="&#x30D1;&#x30B9; 26660" d="M440.595,252.3l5.448,4.166-10.51,35.22-.028-.208c-1.937-34.852,7.438-54.667,7.438-54.667l3.9,13.567Z" transform="translate(-375.369 -128.375)" fill="#5849b9"></path><path id="&#x30D1;&#x30B9;_26661" data-name="&#x30D1;&#x30B9; 26661" d="M443.205,338.036v6H439.28v-3l-2.645,3H427.1a2.322,2.322,0,0,1,2.323-2.323h3.925l1.277-3.679Z" transform="translate(-387.893 27.378)" fill="#312774"></path><path id="&#x30D1;&#x30B9;_26662" data-name="&#x30D1;&#x30B9; 26662" d="M458.609,338.036v6h-3.927v-3l-2.643,3H442.5a2.324,2.324,0,0,1,2.323-2.323h3.927l1.275-3.679Z" transform="translate(-364.195 27.378)" fill="#312774"></path><path id="&#x30D1;&#x30B9;_26663" data-name="&#x30D1;&#x30B9; 26663" d="M431.689,240.975l-1.545,69.195,3.862,5.407,5.922-4.892-5.149-69.517Z" transform="translate(-383.211 -121.973)" fill="#e30613"></path></g><g id="&#x30B0;&#x30EB;&#x30FC;&#x30D7;_18408" data-name="&#x30B0;&#x30EB;&#x30FC;&#x30D7; 18408" transform="translate(1124.661 481.811)"><path id="&#x30D1;&#x30B9;_26664" data-name="&#x30D1;&#x30B9; 26664" d="M421.458,275.144l-.076.053-.061.043a3.813,3.813,0,0,1-5.207-1.089L395.652,244.92l7.5-5.25,19.419,29.165A4.528,4.528,0,0,1,421.458,275.144Z" transform="translate(-395.652 -212.593)" fill="#312774"></path><g id="&#x30B0;&#x30EB;&#x30FC;&#x30D7;_18407" data-name="&#x30B0;&#x30EB;&#x30FC;&#x30D7; 18407" transform="translate(21.055 0)"><g id="&#x30B0;&#x30EB;&#x30FC;&#x30D7;_18406" data-name="&#x30B0;&#x30EB;&#x30FC;&#x30D7; 18406"><g id="&#x30B0;&#x30EB;&#x30FC;&#x30D7;_18405" data-name="&#x30B0;&#x30EB;&#x30FC;&#x30D7; 18405"><g id="&#x30B0;&#x30EB;&#x30FC;&#x30D7;_18404" data-name="&#x30B0;&#x30EB;&#x30FC;&#x30D7; 18404"><g id="&#x30B0;&#x30EB;&#x30FC;&#x30D7;_18403" data-name="&#x30B0;&#x30EB;&#x30FC;&#x30D7; 18403"><path id="&#x30D1;&#x30B9;_26665" data-name="&#x30D1;&#x30B9; 26665" d="M404.16,286.343l19.277-49.229.2-4.709,9.726-3.321a1.294,1.294,0,0,1,1.665.7l.008.023a1.33,1.33,0,0,1-.8,1.643l-.394.168.708.178a.942.942,0,0,1,.736.866v.015a1.1,1.1,0,0,1-.749,1.061l-.353.129.327.02a.931.931,0,0,1,.9.914v.013a1.062,1.062,0,0,1-.566.914l-.782.432.16.01a.819.819,0,0,1,.785.665v.013a.9.9,0,0,1-.462.916l-4.885,2.851-3.993-.193-15.712,48a3.081,3.081,0,0,1-3.554,2.061h0A3.081,3.081,0,0,1,404.16,286.343Z" transform="translate(-403.946 -229.004)" fill="url(#linear-gradient-8)"></path></g></g></g></g></g></g><g id="&#x30B0;&#x30EB;&#x30FC;&#x30D7;_18414" data-name="&#x30B0;&#x30EB;&#x30FC;&#x30D7; 18414" transform="translate(1058.65 402.96)"><g id="&#x30B0;&#x30EB;&#x30FC;&#x30D7;_18410" data-name="&#x30B0;&#x30EB;&#x30FC;&#x30D7; 18410" transform="translate(0 0)"><path id="&#x30D1;&#x30B9;_26666" data-name="&#x30D1;&#x30B9; 26666" d="M382.427,225.279l-.086.031A4.533,4.533,0,0,0,379.6,231.1l12.818,35.786,8.619-3.085L388.22,228.016A4.534,4.534,0,0,0,382.427,225.279Z" transform="translate(-354.746 -156.295)" fill="#312774"></path><g id="&#x30B0;&#x30EB;&#x30FC;&#x30D7;_18409" data-name="&#x30B0;&#x30EB;&#x30FC;&#x30D7; 18409"><path id="&#x30D1;&#x30B9;_26667" data-name="&#x30D1;&#x30B9; 26667" d="M381.687,221.958a1.9,1.9,0,0,0,.922-2.412l-.947-2.353-7.527-18.543a1.131,1.131,0,0,0-1.47-.622l-.023.01a1.126,1.126,0,0,0-.619,1.47l2.836,6.987-2.447-.14a1.62,1.62,0,0,0-1.663,2.013l.005.023-.02.01a1.852,1.852,0,0,0-.767,2.719l.6.886-.005.015a1.667,1.667,0,0,0,.985,2.112l1.043.393a2.04,2.04,0,0,0,1.48-.02l.008,0s.988,4.476,4.229,4.521l.779,1.94a1.9,1.9,0,0,0,2.6,1Z" transform="translate(-369.65 -197.945)" fill="url(#linear-gradient-9)"></path><path id="&#x30D1;&#x30B9;_26668" data-name="&#x30D1;&#x30B9; 26668" d="M393.875,266.266,377.47,213.6l-1.147-.18a3.316,3.316,0,0,1-2.788-3.039l-.277-3.894-2.633-2.557a1.418,1.418,0,0,1,.013-2.051l.02-.02a1.419,1.419,0,0,1,1.924-.028l6.606,5.905,21.866,56.012a3.8,3.8,0,0,1-2.011,4.867h0A3.807,3.807,0,0,1,393.875,266.266Z" transform="translate(-368.814 -192.522)" fill="url(#linear-gradient-9)"></path></g></g><g id="&#x30B0;&#x30EB;&#x30FC;&#x30D7;_18411" data-name="&#x30B0;&#x30EB;&#x30FC;&#x30D7; 18411" transform="translate(36.693 209.031)"><path id="&#x30D1;&#x30B9;_26669" data-name="&#x30D1;&#x30B9; 26669" d="M387.049,343.457s10.988-9.508,11.12-7.784-5.275,8.611-8.545,9.058S387.049,343.457,387.049,343.457Z" transform="translate(-379.666 -195.37)" fill="#022542"></path><path id="&#x30D1;&#x30B9;_26670" data-name="&#x30D1;&#x30B9; 26670" d="M384.1,280.282l1.389,49.615L397.218,420.5l-5.679,8.462-5.062,2.272v.929l7.256-.155,8.368-7.67.505-3.755s10.419-81.844-2.209-91.41l16.21-48.893Z" transform="translate(-384.103 -280.282)" fill="url(#linear-gradient-11)"></path><path id="&#x30D1;&#x30B9;_26671" data-name="&#x30D1;&#x30B9; 26671" d="M401.362,347.867s.368-5.91.779-7.659.718-2.851.419-3.625a7.25,7.25,0,0,0-.459-1.036s-1.549.294-3.285,2.716-3.293,4.638-5.237,4.956a6.653,6.653,0,0,1-2.6.112l-5.928,2.549a1.023,1.023,0,0,0-.622.942v.018a1.027,1.027,0,0,0,1.028,1.028h6.448a3.9,3.9,0,0,0,2.821-1.208l3.907-4.1.559,5.309Z" transform="translate(-383.598 -195.244)" fill="#312774"></path></g><path id="&#x30D1;&#x30B9;_26672" data-name="&#x30D1;&#x30B9; 26672" d="M390.062,241.69l-4.615,7.337a34.5,34.5,0,0,0-5.146,21.587l1.587,16.923a20.063,20.063,0,0,0,19.977,18.19h.183l-6.228-26.1,11.863-41.91H397.252A8.489,8.489,0,0,0,390.062,241.69Z" transform="translate(-353.491 -136.748)" fill="#312774"></path><g id="&#x30B0;&#x30EB;&#x30FC;&#x30D7;_18412" data-name="&#x30B0;&#x30EB;&#x30FC;&#x30D7; 18412" transform="translate(47.701 209.031)"><path id="&#x30D1;&#x30B9;_26673" data-name="&#x30D1;&#x30B9; 26673" d="M396.73,343.457s10.985-9.508,11.117-7.784-5.273,8.611-8.543,9.058S396.73,343.457,396.73,343.457Z" transform="translate(-375.778 -195.37)" fill="#022542"></path><path id="&#x30D1;&#x30B9;_26674" data-name="&#x30D1;&#x30B9; 26674" d="M388.439,280.282,403.395,329.9,415.124,420.5l-5.682,8.462-5.06,2.272v.929l7.256-.155L420,424.34l.505-3.755s10.422-81.844-2.209-91.41l2.643-48.893Z" transform="translate(-388.439 -280.282)" fill="url(#linear-gradient-12)"></path><path id="&#x30D1;&#x30B9;_26675" data-name="&#x30D1;&#x30B9; 26675" d="M411.044,347.867s.366-5.91.777-7.659.718-2.851.421-3.625a6.979,6.979,0,0,0-.462-1.036s-1.546.294-3.285,2.716-3.29,4.638-5.237,4.956a6.641,6.641,0,0,1-2.595.112l-5.928,2.549a1.025,1.025,0,0,0-.625.942v.018a1.029,1.029,0,0,0,1.028,1.028h6.448a3.9,3.9,0,0,0,2.823-1.208l3.9-4.1.559,5.309Z" transform="translate(-379.711 -195.244)" fill="#312774"></path></g><path id="&#x30D1;&#x30B9;_26676" data-name="&#x30D1;&#x30B9; 26676" d="M410.285,237.617l-13.983.254-11.676,13.712a12.359,12.359,0,0,0,.393,16.461l.076.081,1.48,43.445,34.694.033L409.25,284.525Z" transform="translate(-351.14 -136.901)" fill="#5849b9"></path><path id="&#x30D1;&#x30B9;_26677" data-name="&#x30D1;&#x30B9; 26677" d="M402.249,238.2s-16.525,15.507-17.035,23.009c0,0-2.922-9.789,9.282-23.138Z" transform="translate(-346.172 -136.209)" fill="url(#linear-gradient-13)"></path><path id="&#x30D1;&#x30B9;_26678" data-name="&#x30D1;&#x30B9; 26678" d="M399.419,237.617l-.117.213a85.524,85.524,0,0,0-10.452,45.5l.452,8.9a14.379,14.379,0,0,0,14.362,13.651h6.8l-6.228-26.1,10.32-32.587a4.951,4.951,0,0,0-3.376-6.261Z" transform="translate(-340.274 -136.901)" fill="#312774"></path><g id="&#x30B0;&#x30EB;&#x30FC;&#x30D7;_18413" data-name="&#x30B0;&#x30EB;&#x30FC;&#x30D7; 18413" transform="translate(27.913 61.058)"><path id="&#x30D1;&#x30B9;_26679" data-name="&#x30D1;&#x30B9; 26679" d="M399.8,222.011s-13.211-1.033-18.167,14.108,9.909,24.225,18.995,24.087,1.239-29.043,1.239-29.043l-9.469-4.1S396.518,223,399.8,222.011Z" transform="translate(-380.644 -221.996)" fill="#312774"></path><path id="&#x30D1;&#x30B9;_26680" data-name="&#x30D1;&#x30B9; 26680" d="M392.372,223.493s-4.542,3.234-5.918,7.157-1.01,4.037-2.041,4.91-2.914,2.407-2.732,3.12,1.239.871,1.447,1.9-1.01.985-1.079,1.627.414.848.251,1.1-.188.642.193,1.193a1.792,1.792,0,0,1,.175,1.858,1.525,1.525,0,0,0,1.056,2.224c1.353.414,5.989-1,8.2,2.3s4.207,15.291,4.138,15.387l11.168-5.649-6.352-35.685Z" transform="translate(-379.068 -219.693)" fill="#fff"></path><path id="&#x30D1;&#x30B9;_26681" data-name="&#x30D1;&#x30B9; 26681" d="M383.762,227.612s.261-.277,1.264.226a12.314,12.314,0,0,0,2.369.81,16.216,16.216,0,0,1-2.133.52,3.077,3.077,0,0,1-1.18-.112Z" transform="translate(-375.847 -213.472)" fill="#002b6a"></path></g><path id="&#x30D1;&#x30B9;_26682" data-name="&#x30D1;&#x30B9; 26682" d="M385.807,266.747l34.694.033.094.147a68.51,68.51,0,0,1,10.046,31.986l2.148,37.609h-50.61l4.844-54.616Z" transform="translate(-350.37 -92.078)" fill="#312774"></path><path id="&#x30D1;&#x30B9;_26683" data-name="&#x30D1;&#x30B9; 26683" d="M398.892,237.944s-11.2,20.526-9.282,37.307l10.559-26.7-3.052-1.98h4.323Z" transform="translate(-339.275 -136.398)" fill="#5849b9"></path><path id="&#x30D1;&#x30B9;_26684" data-name="&#x30D1;&#x30B9; 26684" d="M386.06,226.151s-5.225,34.707,12.686,37.543,26.118-9.4,26.118-9.4-17.088-.625-15.821-12.833-.038-17.733-8.825-19.391A16.039,16.039,0,0,0,386.06,226.151Z" transform="translate(-345.49 -161.292)" fill="#312774"></path></g><g id="&#x30B0;&#x30EB;&#x30FC;&#x30D7;_18430" data-name="&#x30B0;&#x30EB;&#x30FC;&#x30D7; 18430" transform="translate(1165.208 479.774)"><path id="&#x30D1;&#x30B9;_26732" data-name="&#x30D1;&#x30B9; 26732" d="M411.623,238.349l.2-4.709,5.793-5.138a1.128,1.128,0,0,1,1.445-.071l.015.013a.96.96,0,0,1,.041,1.427l-2.595,2.722a4.084,4.084,0,0,1-1.4,4.283C412.91,238.791,411.623,238.349,411.623,238.349Z" transform="translate(-411.623 -228.202)" fill="url(#linear-gradient-14)"></path><path id="&#x30D1;&#x30B9;_26733" data-name="&#x30D1;&#x30B9; 26733" d="M414.265,232.322l-.01-.023a1.3,1.3,0,0,1,.617-1.739l2.623-1.384a1.339,1.339,0,0,1,1.813.459l.013.023a1.3,1.3,0,0,1-.619,1.742l-2.62,1.381A1.342,1.342,0,0,1,414.265,232.322Z" transform="translate(-407.788 -226.968)" fill="url(#linear-gradient-15)"></path><path id="&#x30D1;&#x30B9;_26734" data-name="&#x30D1;&#x30B9; 26734" d="M414.375,234.1l-.01-.018a1.016,1.016,0,0,1,.485-1.361l3.151-1.66a1.047,1.047,0,0,1,1.419.358l.008.018a1.013,1.013,0,0,1-.482,1.361l-3.15,1.663A1.05,1.05,0,0,1,414.375,234.1Z" transform="translate(-407.571 -224.016)" fill="url(#linear-gradient-15)"></path><path id="&#x30D1;&#x30B9;_26735" data-name="&#x30D1;&#x30B9; 26735" d="M414.335,233.279l-.01-.02a1.138,1.138,0,0,1,.543-1.528l2.917-1.539a1.173,1.173,0,0,1,1.592.4l.01.018a1.14,1.14,0,0,1-.541,1.531l-2.92,1.536A1.172,1.172,0,0,1,414.335,233.279Z" transform="translate(-407.653 -225.375)" fill="url(#linear-gradient-15)"></path><path id="&#x30D1;&#x30B9;_26736" data-name="&#x30D1;&#x30B9; 26736" d="M414.674,234.347l-.008-.013a.788.788,0,0,1,.373-1.056l2.47-1.3a.81.81,0,0,1,1.1.277l.008.015a.784.784,0,0,1-.376,1.054l-2.47,1.3A.809.809,0,0,1,414.674,234.347Z" transform="translate(-407.07 -222.554)" fill="url(#linear-gradient-15)"></path></g><g id="&#x30B0;&#x30EB;&#x30FC;&#x30D7;_18442" data-name="&#x30B0;&#x30EB;&#x30FC;&#x30D7; 18442" transform="translate(1184.227 504.718)"><path id="&#x30D1;&#x30B9;_26777" data-name="&#x30D1;&#x30B9; 26777" d="M421.644,250.2l.234-5.616-6.014-6.2a1.208,1.208,0,0,0-1.617-.1l-.018.015a1.2,1.2,0,0,0-.185,1.7l2.653,3.278a4.9,4.9,0,0,0,1.155,5.123C420.154,250.717,421.644,250.2,421.644,250.2Z" transform="translate(-408.414 -238.027)" fill="url(#linear-gradient-19)"></path><rect id="&#x9577;&#x65B9;&#x5F62;_4813" data-name="&#x9577;&#x65B9;&#x5F62; 4813" width="3.068" height="6.313" rx="1.534" transform="matrix(0.511, -0.859, 0.859, 0.511, 0.215, 4.458)" fill="url(#linear-gradient-20)"></rect><path id="&#x30D1;&#x30B9;_26778" data-name="&#x30D1;&#x30B9; 26778" d="M417.252,245.086l.013-.023a1.187,1.187,0,0,0-.411-1.627l-3.382-2.018a1.187,1.187,0,0,0-1.627.411l-.013.02a1.184,1.184,0,0,0,.411,1.627l3.379,2.018A1.187,1.187,0,0,0,417.252,245.086Z" transform="translate(-411.663 -233.069)" fill="url(#linear-gradient-20)"></path><path id="&#x30D1;&#x30B9;_26779" data-name="&#x30D1;&#x30B9; 26779" d="M417.4,244.108l.013-.023a1.335,1.335,0,0,0-.459-1.83l-3.13-1.868a1.336,1.336,0,0,0-1.83.462l-.013.023a1.333,1.333,0,0,0,.462,1.83l3.13,1.868A1.335,1.335,0,0,0,417.4,244.108Z" transform="translate(-411.465 -234.688)" fill="url(#linear-gradient-20)"></path><path id="&#x30D1;&#x30B9;_26780" data-name="&#x30D1;&#x30B9; 26780" d="M416.089,245.372l.01-.015a.922.922,0,0,0-.32-1.262l-2.648-1.582a.918.918,0,0,0-1.262.317l-.01.018a.919.919,0,0,0,.317,1.262l2.65,1.582A.921.921,0,0,0,416.089,245.372Z" transform="translate(-411.564 -231.326)" fill="url(#linear-gradient-20)"></path></g></g><g id="&#x30B0;&#x30EB;&#x30FC;&#x30D7;_18605" data-name="&#x30B0;&#x30EB;&#x30FC;&#x30D7; 18605" transform="translate(928.221 275.51)"><g id="&#x30B0;&#x30EB;&#x30FC;&#x30D7;_18475" data-name="&#x30B0;&#x30EB;&#x30FC;&#x30D7; 18475" transform="translate(0 0)"><ellipse id="&#x6955;&#x5186;&#x5F62;_764" data-name="&#x6955;&#x5186;&#x5F62; 764" cx="53.872" cy="53.872" rx="53.872" ry="53.872" transform="translate(0 14.087) rotate(-7.513)" fill="#ffd214"></ellipse><g id="&#x30B0;&#x30EB;&#x30FC;&#x30D7;_18473" data-name="&#x30B0;&#x30EB;&#x30FC;&#x30D7; 18473" transform="translate(0.256 0.256)"><circle id="&#x6955;&#x5186;&#x5F62;_765" data-name="&#x6955;&#x5186;&#x5F62; 765" cx="42.566" cy="42.566" r="42.566" transform="translate(0 60.197) rotate(-45)" fill="#ffd214"></circle><path id="&#x30D1;&#x30B9;_26819" data-name="&#x30D1;&#x30B9; 26819" d="M1174.424,1366.611a43.564,43.564,0,1,1,32.081-52.6A43.613,43.613,0,0,1,1174.424,1366.611Zm-20.047-82.738a41.569,41.569,0,1,0,50.189,30.611A41.616,41.616,0,0,0,1154.377,1283.873Z" transform="translate(-1103.968 -1264.075)" fill="#646464"></path></g></g><path id="&#x30D1;&#x30B9;_27113" data-name="&#x30D1;&#x30B9; 27113" d="M5.369,1.593a46.8,46.8,0,0,1-.472-8.2v-3.3h8.378a38.324,38.324,0,0,1,6.49.413v-7.257a42.356,42.356,0,0,1-6.49.413H4.9v-1.475l1.947-3.068h6.49a41.15,41.15,0,0,1,6.549.413V-27.73a37.064,37.064,0,0,1-6.549.413h-2.6l7.729-12.508c.826-1.357,3.6-5.428,4.425-6.608H10.443A26.012,26.012,0,0,1,7.67-40.415L0-26.845-7.67-40.474A28.731,28.731,0,0,1-10.5-46.433h-12.39c1.947,2.773,2.891,4.189,4.366,6.608l7.788,12.508h-2.6a38.776,38.776,0,0,1-6.549-.413v7.257a39.033,39.033,0,0,1,6.549-.413h6.49l2.006,3.068v1.475h-8.614a37.112,37.112,0,0,1-6.49-.413V-9.5a39.4,39.4,0,0,1,6.49-.413h8.614v3.3a59.25,59.25,0,0,1-.531,8.2Z" transform="translate(59.991 85.857)" fill="#646464"></path></g><rect id="&#x9577;&#x65B9;&#x5F62;_4903" data-name="&#x9577;&#x65B9;&#x5F62; 4903" width="82" height="338" transform="translate(763 434)" fill="#583ffd"></rect><rect id="&#x9577;&#x65B9;&#x5F62;_4904" data-name="&#x9577;&#x65B9;&#x5F62; 4904" width="83" height="190" transform="translate(938 582)" fill="#583ffd"></rect><path id="down3" d="M7.995,9.991c.1,0,9.736.088,19.533,7.659,12.677,9.8,19.681,27.819,20.364,52.27H31.966a3.994,3.994,0,0,0-2.825,6.82l27.967,27.967a3.991,3.991,0,0,0,5.649,0L90.724,76.739A3.994,3.994,0,0,0,87.9,69.92H71.855C69.709,3.938,14.407,2,7.995,2a4,4,0,0,0,0,7.991Z" transform="translate(871.748 405.378) rotate(-25)" fill="#312774"></path><line id="&#x7DDA;_197" data-name="&#x7DDA; 197" y2="23.399" transform="translate(979.5 544.102)" fill="none" stroke="#ffd214" stroke-linecap="round" stroke-width="4"></line><line id="&#x7DDA;_198" data-name="&#x7DDA; 198" y2="18.226" transform="translate(1002.803 551.716) rotate(30)" fill="none" stroke="#ffd214" stroke-linecap="round" stroke-width="4"></line><line id="&#x7DDA;_199" data-name="&#x7DDA; 199" y1="18.226" transform="translate(965.311 567.5) rotate(150)" fill="none" stroke="#ffd214" stroke-linecap="round" stroke-width="4"></line></g></svg>