<svg xmlns="http://www.w3.org/2000/svg" width="1456.307" height="512" viewBox="0 0 1456.307 512"><g id="&#x30B0;&#x30EB;&#x30FC;&#x30D7;_6482" data-name="&#x30B0;&#x30EB;&#x30FC;&#x30D7; 6482" transform="translate(-8123 -755.74)"><g id="&#x30B0;&#x30EB;&#x30FC;&#x30D7;_6475" data-name="&#x30B0;&#x30EB;&#x30FC;&#x30D7; 6475"><g id="&#x30B0;&#x30EB;&#x30FC;&#x30D7;_6474" data-name="&#x30B0;&#x30EB;&#x30FC;&#x30D7; 6474" transform="translate(7806 664.26)"><g id="&#x30B0;&#x30EB;&#x30FC;&#x30D7;_68" data-name="&#x30B0;&#x30EB;&#x30FC;&#x30D7; 68" transform="translate(7028.84 -139.52)"><g id="&#x30B0;&#x30EB;&#x30FC;&#x30D7;_65" data-name="&#x30B0;&#x30EB;&#x30FC;&#x30D7; 65" transform="translate(-6708.34 268.092)"><g id="&#x30B0;&#x30EB;&#x30FC;&#x30D7;_6320" data-name="&#x30B0;&#x30EB;&#x30FC;&#x30D7; 6320"><path id="&#x30D1;&#x30B9;_685" data-name="&#x30D1;&#x30B9; 685" d="M0,0V150.885" transform="translate(1031.68 88.005)" fill="rgba(0,0,0,0)" stroke="#333" stroke-width="35"></path><line id="&#x7DDA;_38" data-name="&#x7DDA; 38" y2="107.018" transform="translate(1123 136.569) rotate(90)" fill="rgba(0,0,0,0)" stroke="#333" stroke-width="35"></line></g><path id="&#x30D1;&#x30B9;_47" data-name="&#x30D1;&#x30B9; 47" d="M303.663-109.8,265.315,8.1,213.4-109.8H173.088L225.006,8.116h40.3L232.061,110.332h40.313l71.665-220.138Z" transform="translate(-9.66 161)" fill="#333"></path><g id="&#x30B0;&#x30EB;&#x30FC;&#x30D7;_437" data-name="&#x30B0;&#x30EB;&#x30FC;&#x30D7; 437" transform="translate(0 20.462)"><line id="&#x7DDA;_37" data-name="&#x7DDA; 37" y2="215" transform="translate(14 -0.072)" fill="none" stroke="#333" stroke-width="35"></line><g id="&#x9577;&#x65B9;&#x5F62;_222" data-name="&#x9577;&#x65B9;&#x5F62; 222" transform="translate(-3.5 81.428)" fill="none" stroke="#333" stroke-width="35"><rect width="134" height="134" stroke="none"></rect><rect x="17.5" y="17.5" width="99" height="99" fill="none"></rect></g></g><g id="&#x30B0;&#x30EB;&#x30FC;&#x30D7;_438" data-name="&#x30B0;&#x30EB;&#x30FC;&#x30D7; 438"><line id="&#x7DDA;_38-2" data-name="&#x7DDA; 38" y2="150.885" transform="translate(869.68 85.005)" fill="none" stroke="#333" stroke-width="35"></line><path id="&#x30D1;&#x30B9;_11923" data-name="&#x30D1;&#x30B9; 11923" d="M0,0" transform="translate(972 101.732) rotate(180)" fill="none" stroke="#333" stroke-width="35"></path></g></g><path id="&#x30D1;&#x30B9;_44" data-name="&#x30D1;&#x30B9; 44" d="M138.681,56.778V20.958H10.35v35.82Z" transform="translate(-5394.214 519.742)" fill="#f6c44c"></path><g id="&#x30B0;&#x30EB;&#x30FC;&#x30D7;_69" data-name="&#x30B0;&#x30EB;&#x30FC;&#x30D7; 69" transform="translate(-6328.068 231)"><path id="&#x30D1;&#x30B9;_46" data-name="&#x30D1;&#x30B9; 46" d="M65.364,42.576h34.995v-168.6h66.688V-161H-.69v34.98H65.364Z" transform="translate(126.184 231.689)" fill="#333"></path><g id="&#x9577;&#x65B9;&#x5F62;_22" data-name="&#x9577;&#x65B9;&#x5F62; 22" fill="none" stroke="#333" stroke-width="30"><rect width="905.205" height="345.52" stroke="none"></rect><rect x="15" y="15" width="875.205" height="315.52" fill="none"></rect></g></g></g></g><path id="&#x30D1;&#x30B9;_11924" data-name="&#x30D1;&#x30B9; 11924" d="M56.885-46.717H93.957v2.963a61.233,61.233,0,0,1-2.382,17.9,38.037,38.037,0,0,1-7.844,13.48Q71.237,1.685,51.946,1.685A43.694,43.694,0,0,1,19.7-11.912,45.084,45.084,0,0,1,6.275-44.683,44.976,44.976,0,0,1,19.93-77.8,45.236,45.236,0,0,1,53.167-91.458a45.483,45.483,0,0,1,19.64,4.3q8.716,4.3,17.141,13.945L80.3-63.974q-11.04-14.7-26.9-14.7a32.14,32.14,0,0,0-23.881,9.82q-9.646,9.646-9.646,24.172,0,14.991,10.75,24.695,10.052,9.006,21.79,9.006a27.052,27.052,0,0,0,17.955-6.74q7.96-6.8,8.89-16.27H56.885Zm151.2-30.273H172.12v21.557h34.921v12.725H172.12v29.982h35.967V0H158.581V-89.715h49.506ZM273.468,0V-95.816l65.427,68.448V-89.715h13.539V5.462L287.006-62.812V0Zm197.57-76.99H435.07v21.557h34.921v12.725H435.07v29.982h35.967V0H421.532V-89.715h49.506Zm95.769,38.756L594.582,0h-16.56L552.4-36.723h-2.44V0H536.418V-89.715h15.863q17.78,0,25.683,6.682,8.716,7.438,8.716,19.64a25.49,25.49,0,0,1-5.462,16.386A24.346,24.346,0,0,1,566.807-38.233ZM549.957-48.518h4.3q19.233,0,19.233-14.7,0-13.771-18.71-13.771h-4.823ZM708.364-21.79H669.956L659.962,0H645.377L689.77-95.351,732.594,0H717.777Zm-5.52-12.725L689.538-65.02,675.592-34.515ZM811.164-76.99V0H797.625V-76.99H777V-89.715h54.735V-76.99Zm93.794-12.725V0H891.419V-89.715Zm73.689,0,24.811,62.173,25.16-62.173h14.817L1003.168,6.74,963.83-89.715ZM1151.7-76.99H1115.73v21.557h34.921v12.725H1115.73v29.982H1151.7V0h-49.506V-89.715H1151.7Zm202.4,55.2h-38.408L1305.7,0h-14.584l44.393-95.351L1378.331,0h-14.817Zm-5.52-12.725L1335.275-65.02,1321.33-34.515Zm102.1-55.2V0h-13.539V-89.715Z" transform="translate(8118 1261)" fill="#333"></path></g><g id="&#x30B0;&#x30EB;&#x30FC;&#x30D7;_6478" data-name="&#x30B0;&#x30EB;&#x30FC;&#x30D7; 6478"><rect id="&#x9577;&#x65B9;&#x5F62;_3359" data-name="&#x9577;&#x65B9;&#x5F62; 3359" width="36" height="201" transform="translate(9140 831)" fill="#333"></rect><rect id="&#x9577;&#x65B9;&#x5F62;_3360" data-name="&#x9577;&#x65B9;&#x5F62; 3360" width="36" height="122.142" transform="translate(9264.642 911.5) rotate(90)" fill="#333"></rect><rect id="&#x9577;&#x65B9;&#x5F62;_3361" data-name="&#x9577;&#x65B9;&#x5F62; 3361" width="36" height="120.5" transform="translate(9228.642 911.5)" fill="#333"></rect></g><g id="&#x30B0;&#x30EB;&#x30FC;&#x30D7;_6479" data-name="&#x30B0;&#x30EB;&#x30FC;&#x30D7; 6479"><rect id="&#x9577;&#x65B9;&#x5F62;_3362" data-name="&#x9577;&#x65B9;&#x5F62; 3362" width="36" height="122.142" transform="translate(9099.642 877.5) rotate(90)" fill="#333"></rect><rect id="&#x9577;&#x65B9;&#x5F62;_3363" data-name="&#x9577;&#x65B9;&#x5F62; 3363" width="36" height="122.142" transform="translate(9013.5 1029.571) rotate(180)" fill="#333"></rect><rect id="&#x9577;&#x65B9;&#x5F62;_3364" data-name="&#x9577;&#x65B9;&#x5F62; 3364" width="36" height="122.142" transform="translate(8977.5 1029.571) rotate(-90)" fill="#333"></rect></g><g id="&#x30B0;&#x30EB;&#x30FC;&#x30D7;_6481" data-name="&#x30B0;&#x30EB;&#x30FC;&#x30D7; 6481" transform="translate(1)"><rect id="&#x9577;&#x65B9;&#x5F62;_3366" data-name="&#x9577;&#x65B9;&#x5F62; 3366" width="36" height="152.071" transform="translate(8850.5 1029.571) rotate(180)" fill="#333"></rect><g id="&#x30B0;&#x30EB;&#x30FC;&#x30D7;_6480" data-name="&#x30B0;&#x30EB;&#x30FC;&#x30D7; 6480"><rect id="&#x9577;&#x65B9;&#x5F62;_3367" data-name="&#x9577;&#x65B9;&#x5F62; 3367" width="36" height="125.071" transform="translate(8939.57 877.5) rotate(90)" fill="#333"></rect><rect id="&#x9577;&#x65B9;&#x5F62;_3368" data-name="&#x9577;&#x65B9;&#x5F62; 3368" width="36" height="125.071" transform="translate(8939.57 932.5) rotate(90)" fill="#333"></rect><rect id="&#x9577;&#x65B9;&#x5F62;_3370" data-name="&#x9577;&#x65B9;&#x5F62; 3370" width="36" height="125.071" transform="translate(8939.57 993.571) rotate(90)" fill="#333"></rect><rect id="&#x9577;&#x65B9;&#x5F62;_3369" data-name="&#x9577;&#x65B9;&#x5F62; 3369" width="36" height="91" transform="translate(8939.57 968.5) rotate(180)" fill="#333"></rect></g></g></g></svg>