<?xml version="1.0" encoding="UTF-8"?>
<svg id="_レイヤー_1" data-name="レイヤー_1" xmlns="http://www.w3.org/2000/svg" version="1.1" viewBox="0 0 22 22">
  <!-- Generator: Adobe Illustrator 29.6.1, SVG Export Plug-In . SVG Version: 2.1.1 Build 9)  -->
  <defs>
    <style>
      .st0 {
        fill: #fff;
      }
    </style>
  </defs>
  <path class="st0" d="M11,0C4.9,0,0,4.9,0,11s4.9,11,11,11,11-4.9,11-11c0-6.1-4.9-11-11-11ZM17.5,7.7l-7,8.4c-.3.4-.7.5-1.2.5-.4,0-.8-.1-1.1-.4l-3.6-3.9c-.5-.6-.5-1.5,0-2,.3-.2.6-.4,1-.4.4,0,.8.1,1.1.4l2.4,2.6,6-7.1c.2-.3.5-.5.9-.6,0,0,0,0,.1,0h.1c.8,0,1.4.6,1.4,1.4,0,.3-.1.6-.3.9"/>
</svg>