<?xml version="1.0" encoding="UTF-8"?>
<svg id="_レイヤー_2" data-name="レイヤー 2" xmlns="http://www.w3.org/2000/svg" viewBox="0 0 367.57 367.57">
  <g id="_レイヤー_2-2" data-name="レイヤー 2">
    <g>
      <g>
        <path d="M183.79,367.57C82.45,367.57,0,285.13,0,183.79S82.45,0,183.79,0s183.79,82.45,183.79,183.79-82.45,183.79-183.79,183.79ZM183.79,9C87.41,9,9,87.41,9,183.79s78.41,174.79,174.79,174.79,174.79-78.41,174.79-174.79S280.16,9,183.79,9Z"/>
        <path d="M183.79,367.57c-26.25,0-50.68-19.52-68.79-54.96-17.62-34.48-27.33-80.23-27.33-128.82s9.71-94.34,27.33-128.82C133.11,19.52,157.54,0,183.79,0s50.68,19.52,68.79,54.96c17.62,34.48,27.33,80.23,27.33,128.82s-9.7,94.34-27.33,128.82c-18.11,35.44-42.54,54.96-68.79,54.96ZM183.79,9c-22.7,0-44.28,17.78-60.78,50.06-16.99,33.24-26.34,77.54-26.34,124.73s9.35,91.49,26.34,124.73c16.5,32.28,38.08,50.06,60.78,50.06s44.28-17.78,60.78-50.06c16.99-33.24,26.34-77.54,26.34-124.73s-9.35-91.49-26.34-124.73c-16.5-32.28-38.08-50.06-60.78-50.06Z"/>
      </g>
      <g>
        <path d="M183.79,147.61c-28.46,0-56.51-3.82-83.36-11.34-24.79-6.98-48.16-17.01-69.45-29.8-2.13-1.28-2.82-4.04-1.54-6.17,1.28-2.13,4.04-2.82,6.17-1.54,20.61,12.38,43.23,22.08,67.25,28.85,26.06,7.3,53.29,11,80.93,11s54.9-3.71,80.93-11.03c23.99-6.74,46.62-16.43,67.25-28.83,2.13-1.28,4.89-.59,6.17,1.54,1.28,2.13.59,4.89-1.54,6.17-21.32,12.8-44.68,22.82-69.45,29.77-26.82,7.54-54.87,11.36-83.36,11.36Z"/>
        <path d="M334.28,283.86c-.79,0-1.59-.21-2.31-.64-20.63-12.39-43.25-22.09-67.25-28.82-26.03-7.32-53.26-11.03-80.93-11.03s-54.87,3.7-80.93,11.01c-24.01,6.76-46.63,16.47-67.24,28.85-2.13,1.28-4.9.59-6.17-1.54-1.28-2.13-.59-4.9,1.54-6.17,21.29-12.79,44.66-22.81,69.44-29.8,26.86-7.53,54.91-11.34,83.37-11.34s56.54,3.82,83.37,11.36c24.76,6.95,48.13,16.97,69.45,29.77,2.13,1.28,2.82,4.04,1.54,6.17-.84,1.41-2.33,2.18-3.86,2.18Z"/>
      </g>
      <path d="M183.46,362.54c-2.49,0-4.5-2.01-4.5-4.5V4.69c0-2.49,2.01-4.5,4.5-4.5s4.5,2.01,4.5,4.5v353.35c0,2.49-2.01,4.5-4.5,4.5Z"/>
    </g>
  </g>
</svg>