<?xml version="1.0" encoding="UTF-8"?><svg id="_レイヤー_2" xmlns="http://www.w3.org/2000/svg" viewBox="0 0 133.84 130.82"><defs><style>.cls-1{fill:#fff;}</style></defs><g id="_レイヤー_1-2"><g id="CTA_無料説明会"><path id="_パス_3326" class="cls-1" d="M133.83,67.31c-.02-11.58-7.73-21.74-18.88-24.88C111.65,15.9,87.46-2.93,60.93.38,38.94,3.12,21.62,20.44,18.88,42.43,5.13,46.28-2.89,60.56.97,74.31c3.14,11.2,13.37,18.92,25,18.87,4.11.01,7.45-3.29,7.49-7.4v-36.97s-.11-.13-.11-.2-.02-.13-.02-.2c-.1-18.57,14.87-33.71,33.44-33.81s33.71,14.87,33.81,33.44c0,.13,0,.25,0,.38,0,.07-.06.13-.06.2s-.09.13-.09.2v33.57c0,18.55-15.01,33.61-33.57,33.64-4.09.02-7.39,3.34-7.37,7.43.02,4.09,3.34,7.39,7.43,7.37h0c22.9-.03,42.65-16.06,47.4-38.46,11.46-2.91,19.5-13.22,19.53-25.05h-.01Z"/></g></g></svg>