<?xml version="1.0" encoding="UTF-8"?>
<svg id="_レイヤー_2" data-name="レイヤー 2" xmlns="http://www.w3.org/2000/svg" viewBox="0 0 521.41 378.24">
  <g id="_レイヤー_2-2" data-name="レイヤー 2">
    <g>
      <g>
        <g>
          <path d="M429.26,322.45c-2.49,0-4.5-2.01-4.5-4.5v-139.49c0-2.49,2.01-4.5,4.5-4.5s4.5,2.01,4.5,4.5v139.49c0,2.49-2.01,4.5-4.5,4.5Z"/>
          <path d="M73.03,322.45c-2.49,0-4.5-2.01-4.5-4.5V99.7c0-11.69,9.51-21.21,21.21-21.21l189.09.41c2.49,0,4.5,2.02,4.49,4.51,0,2.48-2.02,4.49-4.5,4.49h0l-189.08-.41c-6.72,0-12.2,5.48-12.2,12.21v218.25c0,2.49-2.01,4.5-4.5,4.5Z"/>
          <path d="M278.82,122.62H73.03c-2.49,0-4.5-2.01-4.5-4.5s2.01-4.5,4.5-4.5h205.79c2.49,0,4.5,2.01,4.5,4.5s-2.01,4.5-4.5,4.5Z"/>
        </g>
        <g>
          <path d="M480.57,378.24H21.73c-1.74,0-3.32-1-4.06-2.57L.44,339.45c-.66-1.39-.57-3.03.26-4.34.83-1.3,2.26-2.1,3.8-2.1h493.29c1.54,0,2.98.79,3.8,2.1.82,1.31.92,2.94.26,4.34l-17.23,36.22c-.75,1.57-2.33,2.57-4.06,2.57ZM24.57,369.24h453.16l12.95-27.22H11.62l12.95,27.22Z"/>
          <path d="M274.26,360.13h-46.23c-2.49,0-4.5-2.01-4.5-4.5s2.01-4.5,4.5-4.5h46.23c2.49,0,4.5,2.01,4.5,4.5s-2.01,4.5-4.5,4.5Z"/>
        </g>
      </g>
      <g>
        <path d="M350.95,194.16c-1.95,0-3.81-.6-5.38-1.73-3.26-2.27-4.68-6.43-3.49-10.31l6.42-20.49h-8.43c-21.98,0-39.86-17.89-39.86-39.88V39.88c0-21.99,17.88-39.88,39.86-39.88h141.47c21.99,0,39.88,17.89,39.88,39.88v81.88c0,21.99-17.89,39.88-39.88,39.88h-84.39l-40.62,30.64c-1.55,1.2-3.55,1.88-5.58,1.88ZM340.07,9c-17.01,0-30.86,13.85-30.86,30.88v81.88c0,17.03,13.84,30.88,30.86,30.88h14.55c1.43,0,2.78.68,3.63,1.84.85,1.15,1.1,2.64.67,4.01l-8.24,26.31c-.03.1,0,.24.09.3.1.07.17.14.3.04l41.86-31.59c.78-.59,1.73-.91,2.71-.91h85.9c17.03,0,30.88-13.85,30.88-30.88V39.88c0-17.03-13.85-30.88-30.88-30.88h-141.47Z"/>
        <g>
          <path d="M383.26,125.12h-41.65c-6.42,0-11.65-5.23-11.65-11.65v-41.37c0-6.42,5.23-11.65,11.65-11.65h41.65c6.42,0,11.65,5.23,11.65,11.65v41.37c0,6.42-5.23,11.65-11.65,11.65ZM341.61,69.44c-1.44,0-2.65,1.21-2.65,2.65v41.37c0,1.44,1.21,2.65,2.65,2.65h41.65c1.44,0,2.65-1.21,2.65-2.65v-41.37c0-1.44-1.21-2.65-2.65-2.65h-41.65Z"/>
          <path d="M484.21,73.42h-68.54c-2.49,0-4.5-2.01-4.5-4.5s2.01-4.5,4.5-4.5h68.54c2.49,0,4.5,2.01,4.5,4.5s-2.01,4.5-4.5,4.5Z"/>
          <path d="M487.34,41.24h-153.06c-2.49,0-4.5-2.01-4.5-4.5s2.01-4.5,4.5-4.5h153.06c2.49,0,4.5,2.01,4.5,4.5s-2.01,4.5-4.5,4.5Z"/>
          <path d="M484.21,97.28h-68.54c-2.49,0-4.5-2.01-4.5-4.5s2.01-4.5,4.5-4.5h68.54c2.49,0,4.5,2.01,4.5,4.5s-2.01,4.5-4.5,4.5Z"/>
          <path d="M466.58,121.44h-.03l-50.9-.29c-2.49-.01-4.49-2.04-4.47-4.53.01-2.48,2.03-4.47,4.5-4.47h.03l50.9.29c2.49.01,4.49,2.04,4.47,4.53-.01,2.48-2.03,4.47-4.5,4.47Z"/>
        </g>
      </g>
      <g>
        <path d="M251.15,294.03c-37.43,0-67.88-30.45-67.88-67.88s30.45-67.88,67.88-67.88,67.88,30.45,67.88,67.88-30.45,67.88-67.88,67.88ZM251.15,167.26c-32.47,0-58.88,26.42-58.88,58.88s26.42,58.88,58.88,58.88,58.88-26.42,58.88-58.88-26.42-58.88-58.88-58.88Z"/>
        <path d="M251.15,294.03c-19.13,0-29.45-34.98-29.45-67.88s10.32-67.88,29.45-67.88,29.45,34.98,29.45,67.88-10.32,67.88-29.45,67.88ZM251.15,167.26c-9.65,0-20.45,25.18-20.45,58.88s10.8,58.88,20.45,58.88,20.45-25.18,20.45-58.88-10.8-58.88-20.45-58.88Z"/>
        <path d="M310.22,207.65h-118.16c-2.49,0-4.5-2.01-4.5-4.5s2.01-4.5,4.5-4.5h118.16c2.49,0,4.5,2.01,4.5,4.5s-2.01,4.5-4.5,4.5Z"/>
        <path d="M310.22,253.64h-118.16c-2.49,0-4.5-2.01-4.5-4.5s2.01-4.5,4.5-4.5h118.16c2.49,0,4.5,2.01,4.5,4.5s-2.01,4.5-4.5,4.5Z"/>
      </g>
    </g>
  </g>
</svg>