<?xml version="1.0" encoding="UTF-8"?>
<svg id="_レイヤー_2" data-name="レイヤー 2" xmlns="http://www.w3.org/2000/svg" viewBox="0 0 450.68 411.89">
  <g id="Layer_1" data-name="Layer 1">
    <g>
      <g>
        <path d="M267.21,220.31c-1.05,0-2.09-.36-2.94-1.09l-93.22-80.23-60.43,51.22c-1.9,1.61-4.74,1.37-6.34-.52-1.61-1.9-1.37-4.74.52-6.34l63.36-53.71c1.69-1.43,4.17-1.42,5.85.02l93.12,80.13,30.13-27.44c1.84-1.67,4.68-1.54,6.36.3,1.67,1.84,1.54,4.68-.3,6.36l-33.07,30.12c-.86.78-1.94,1.17-3.03,1.17Z"/>
        <path d="M22.57,264.99c-1.27,0-2.53-.53-3.42-1.57L1.08,242.36c-.79-.92-1.17-2.11-1.07-3.31.1-1.2.68-2.31,1.61-3.08l31.69-26.23c1.91-1.58,4.75-1.32,6.34.6,1.58,1.91,1.32,4.75-.6,6.34l-28.16,23.31,12.2,14.22,19.01-15.84c1.91-1.59,4.75-1.33,6.34.58,1.59,1.91,1.33,4.75-.58,6.34l-22.42,18.68c-.84.7-1.86,1.04-2.88,1.04Z"/>
        <path d="M266.59,183.17c-1.04,0-2.09-.36-2.94-1.09l-92.55-79.65-64.85,55.86c-1.88,1.62-4.72,1.41-6.35-.47-1.62-1.88-1.41-4.72.47-6.35l67.79-58.38c1.69-1.45,4.18-1.45,5.87,0l92.49,79.59,29.65-26.65c1.85-1.66,4.69-1.51,6.35.34,1.66,1.85,1.51,4.69-.34,6.35l-32.59,29.29c-.85.77-1.93,1.15-3.01,1.15Z"/>
        <path d="M369.61,126.37c-1.21,0-2.41-.48-3.3-1.44-1.69-1.82-1.58-4.67.24-6.36l40.03-37.13c.88-.81,2.02-1.25,3.24-1.2,1.2.05,2.32.57,3.13,1.45l9.69,10.53,16.83-53.78-54.99,12.31,9.69,10.52c1.68,1.82,1.57,4.66-.25,6.35l-30.04,27.84c-1.82,1.69-4.67,1.58-6.36-.24-1.69-1.82-1.58-4.67.24-6.36l26.75-24.79-11.93-12.96c-1.09-1.18-1.46-2.86-.98-4.39.48-1.53,1.74-2.7,3.31-3.05l70.2-15.72c1.57-.35,3.21.16,4.3,1.34,1.09,1.18,1.46,2.86.98,4.39l-21.48,68.66c-.48,1.53-1.74,2.7-3.31,3.05-1.57.35-3.21-.16-4.29-1.34l-11.91-12.94-36.72,34.06c-.87.8-1.96,1.2-3.06,1.2Z"/>
      </g>
      <g>
        <path d="M201.88,326.22c-43.58,0-84.55-16.97-115.36-47.78-63.61-63.61-63.61-167.11,0-230.72,63.61-63.61,167.11-63.61,230.72,0,30.82,30.81,47.79,71.78,47.79,115.36s-16.97,84.55-47.79,115.36c-30.81,30.81-71.78,47.78-115.36,47.78ZM201.88,9c-39.47,0-78.95,15.03-109,45.08-60.1,60.1-60.1,157.89,0,218,29.11,29.11,67.82,45.15,109,45.15s79.88-16.03,109-45.15c29.11-29.11,45.15-67.82,45.15-109s-16.03-79.88-45.15-109h0c-30.05-30.05-69.52-45.08-109-45.08Z"/>
        <path d="M201.88,283.9c-32.27,0-62.62-12.57-85.44-35.39-47.11-47.11-47.11-123.77,0-170.88,22.82-22.82,53.16-35.39,85.44-35.39s62.62,12.57,85.44,35.39c47.11,47.11,47.11,123.77,0,170.88-22.82,22.82-53.16,35.39-85.44,35.39ZM201.88,51.24c-29.87,0-57.95,11.63-79.08,32.75-43.6,43.6-43.6,114.55,0,158.15,21.12,21.12,49.2,32.75,79.08,32.75s57.95-11.63,79.08-32.75c43.6-43.6,43.6-114.55,0-158.15-21.12-21.12-49.2-32.75-79.08-32.75Z"/>
        <path d="M410.66,411.89c-10.69,0-20.75-4.16-28.31-11.73l-96.28-96.28c-1.76-1.76-1.76-4.61,0-6.36,1.76-1.76,4.61-1.76,6.36,0l96.28,96.28c12.1,12.1,31.79,12.1,43.89,0,12.1-12.1,12.1-31.79,0-43.89l-96.28-96.28c-1.76-1.76-1.76-4.61,0-6.36,1.76-1.76,4.61-1.76,6.36,0l96.28,96.28c15.61,15.61,15.61,41.01,0,56.62-7.56,7.56-17.62,11.73-28.31,11.73Z"/>
      </g>
    </g>
  </g>
</svg>