<svg xmlns="http://www.w3.org/2000/svg" xmlns:xlink="http://www.w3.org/1999/xlink" width="607.587" height="556.432" viewBox="0 0 607.587 556.432"><defs><clipPath id="clip-path"><rect id="&#x9577;&#x65B9;&#x5F62;_3550" data-name="&#x9577;&#x65B9;&#x5F62; 3550" width="294.075" height="461.576" fill="none"></rect></clipPath><clipPath id="clip-path-2"><path id="&#x30D1;&#x30B9;_14379" data-name="&#x30D1;&#x30B9; 14379" d="M5.334,66.164,162.34,124.886,157.5,293.656l89.154-68.572L266.909,43.835l-155.5-38.7c-1-.031-1.993-.049-2.994-.049q-51.5,0-103.08,61.073" transform="translate(-5.334 -5.091)" fill="none"></path></clipPath><linearGradient id="linear-gradient" x1="-0.091" y1="1.521" x2="-0.074" y2="1.521" gradientUnits="objectBoundingBox"><stop offset="0" stop-color="#cd824b"></stop><stop offset="1" stop-color="#b0652e"></stop></linearGradient><clipPath id="clip-path-3"><path id="&#x30D1;&#x30B9;_14380" data-name="&#x30D1;&#x30B9; 14380" d="M31.47,189.751l45.216,34.726,80.809,21.77,4.845-168.77L5.334,18.756Z" transform="translate(-5.334 -18.756)" fill="none"></path></clipPath><linearGradient id="linear-gradient-2" x1="-0.152" y1="1.66" x2="-0.123" y2="1.66" gradientUnits="objectBoundingBox"><stop offset="0" stop-color="#f3c89f"></stop><stop offset="0.012" stop-color="#f3c89f"></stop><stop offset="1" stop-color="#dd9866"></stop></linearGradient><clipPath id="clip-path-5"><rect id="&#x9577;&#x65B9;&#x5F62;_3534" data-name="&#x9577;&#x65B9;&#x5F62; 3534" width="294.633" height="469.856" fill="none"></rect></clipPath><clipPath id="clip-path-6"><path id="&#x30D1;&#x30B9;_14295" data-name="&#x30D1;&#x30B9; 14295" d="M4.645,67.552,165.9,127.864l-4.98,173.329,91.561-70.431L273.291,44.627,113.591,4.885c-1.032-.036-2.061-.056-3.093-.056Q57.609,4.835,4.645,67.552" transform="translate(-4.645 -4.829)" fill="none"></path></clipPath><linearGradient id="linear-gradient-3" x1="-0.069" y1="1.521" x2="-0.054" y2="1.521" xlink:href="#linear-gradient"></linearGradient><clipPath id="clip-path-7"><path id="&#x30D1;&#x30B9;_14296" data-name="&#x30D1;&#x30B9; 14296" d="M31.493,196.244,77.923,231.9l83,22.365L165.9,80.936,4.645,20.624Z" transform="translate(-4.645 -20.624)" fill="none"></path></clipPath><linearGradient id="linear-gradient-4" x1="-0.114" y1="1.66" x2="-0.09" y2="1.66" xlink:href="#linear-gradient-2"></linearGradient><clipPath id="clip-path-9"><path id="&#x30D1;&#x30B9;_14301" data-name="&#x30D1;&#x30B9; 14301" d="M146.6,0a131.969,131.969,0,0,0-34.191,4.372Q71,15.631,45.048,38.81T0,98.3a388.535,388.535,0,0,0,94.543.739l-12.12,8.24Q58.114,120.594,19.911,120.01a591.046,591.046,0,0,0,167.337,18.2L232.7,192.923l4.531-14.4,4.487-4.571h9.058l16.2,59.935q27.472-105.42,27.654-150.356v-1.2q-.077-18.763-5.087-26.586Q272.1,28.509,212.952,10.818,177.2.12,147.93,0Z" transform="translate(0 -0.001)" fill="none"></path></clipPath><linearGradient id="linear-gradient-5" y1="2.009" x2="0.013" y2="2.009" gradientUnits="objectBoundingBox"><stop offset="0" stop-color="#cd824b"></stop><stop offset="1" stop-color="#854516"></stop></linearGradient></defs><g id="&#x30B0;&#x30EB;&#x30FC;&#x30D7;_9870" data-name="&#x30B0;&#x30EB;&#x30FC;&#x30D7; 9870" transform="translate(-5373.422 -389.144)"><g id="&#x30B0;&#x30EB;&#x30FC;&#x30D7;_9868" data-name="&#x30B0;&#x30EB;&#x30FC;&#x30D7; 9868" transform="translate(5686.934 484)"><path id="&#x30D1;&#x30B9;_14369" data-name="&#x30D1;&#x30B9; 14369" d="M89.717,130.11l3.339,5.64,5.323.4,12.8-3.9,8.9-25.587-22.726-1.426Zm-59.83-26.539-8.979,5.962.156,4.134,10.968.947L52.77,108.1,50.7,94.673,37.118,93.8Z" transform="translate(72.536 325.424)"></path><path id="&#x30D1;&#x30B9;_14370" data-name="&#x30D1;&#x30B9; 14370" d="M111.1,175.507,92.82,166.452l2.744-6.239-4.648-14.342-6.753-26.463L56.435,108.2l-16.849-7.227-.8-6.038,6.038,55.3L43.161,160.41,31.4,157.545l3.339-11.357L26.08,112.1,20.837,84.606l1.269-4.291,3.973-2.463,76.041,27.254,8.822,66.427Z" transform="translate(72.29 270.095)" fill="#181818" fill-rule="evenodd"></path><path id="&#x30D1;&#x30B9;_14371" data-name="&#x30D1;&#x30B9; 14371" d="M42.5,101.359l-.241,51.013-13.032,1.193L30.892,143.4l-6.038-55.3.8,6.038Zm54.664,67.3-.156-3.973L88.184,98.262l28.608-18.436-7.951,72.586Z" transform="translate(86.226 276.94)" fill="#070707" fill-rule="evenodd"></path><g id="&#x30B0;&#x30EB;&#x30FC;&#x30D7;_9814" data-name="&#x30B0;&#x30EB;&#x30FC;&#x30D7; 9814" transform="translate(0 0)"><g id="&#x30B0;&#x30EB;&#x30FC;&#x30D7;_9813" data-name="&#x30B0;&#x30EB;&#x30FC;&#x30D7; 9813" clip-path="url(#clip-path)"><path id="&#x30D1;&#x30B9;_14372" data-name="&#x30D1;&#x30B9; 14372" d="M102.767,186.007q-1.911-18.677-3.178-30.753l5.242-52.206L151.076,61.5l-12.237,68.175,2.623,35.035ZM37.131,83.584l.478,55.7.08,10.092.076,10.011-18.512-4.532,5.006-27.33-4.21-58.8,17,9.694Z" transform="translate(66.798 213.351)" fill="#163059" fill-rule="evenodd"></path><path id="&#x30D1;&#x30B9;_14373" data-name="&#x30D1;&#x30B9; 14373" d="M23.316,70.45l-.08-5.167L40.483,77.046l-4.532,5.162-1.43,1.6-8.979-10.65Zm29,18.914-2.539.237L48.586,79.589,70.2,82.847v4.371Z" transform="translate(80.613 226.486)" fill="#fff" fill-rule="evenodd"></path><path id="&#x30D1;&#x30B9;_14374" data-name="&#x30D1;&#x30B9; 14374" d="M27.227,123.172l-3.495-1.032-.478-55.7,2.226,2.7Zm15.5-48.55-4.451,7.629L35.889,78.2l4.532-5.167ZM70.137,84.633,52.975,88.683l-.72-3.334L70.137,83.2Z" transform="translate(80.675 230.497)" fill="#d1bda9" fill-rule="evenodd"></path><path id="&#x30D1;&#x30B9;_14375" data-name="&#x30D1;&#x30B9; 14375" d="M150.458,78.583l-46.244,41.556L83.4,113.068,61.783,109.81l-5.721-.876-.08-.08-2.3-1.587L36.433,95.5l-17-9.694L62.418,56.572Z" transform="translate(67.415 196.264)" fill="#102341" fill-rule="evenodd"></path><path id="&#x30D1;&#x30B9;_14376" data-name="&#x30D1;&#x30B9; 14376" d="M40.995,72.527l.08.08,5.721.876L47.985,83.49l2.543-.237.72,3.334L68.41,82.538v51.491L25.5,121.077,23.752,67.043l8.974,10.65L34.161,76.1l2.382,4.054Z" transform="translate(82.404 232.593)" fill="#e5e5e5" fill-rule="evenodd"></path><path id="&#x30D1;&#x30B9;_14377" data-name="&#x30D1;&#x30B9; 14377" d="M33.744,126.5V69.213l20.818,7.07-5.247,52.2q1.274,12.08,3.178,30.753l-18.749-7.231V126.5Z" transform="translate(117.068 240.12)" fill="#284879" fill-rule="evenodd"></path><path id="&#x30D1;&#x30B9;_14378" data-name="&#x30D1;&#x30B9; 14378" d="M23.441,88.993,23.361,78.9l3.5,1.037L69.766,92.886v9.537Z" transform="translate(81.046 273.734)" fill="#070707" fill-rule="evenodd"></path></g></g><g id="&#x30B0;&#x30EB;&#x30FC;&#x30D7;_9816" data-name="&#x30B0;&#x30EB;&#x30FC;&#x30D7; 9816" transform="translate(23.839 22.753)"><g id="&#x30B0;&#x30EB;&#x30FC;&#x30D7;_9815" data-name="&#x30B0;&#x30EB;&#x30FC;&#x30D7; 9815" clip-path="url(#clip-path-2)"><rect id="&#x9577;&#x65B9;&#x5F62;_3551" data-name="&#x9577;&#x65B9;&#x5F62; 3551" width="261.575" height="288.565" transform="translate(0 0)" fill="url(#linear-gradient)"></rect></g></g><g id="&#x30B0;&#x30EB;&#x30FC;&#x30D7;_9818" data-name="&#x30B0;&#x30EB;&#x30FC;&#x30D7; 9818" transform="translate(23.839 83.826)"><g id="&#x30B0;&#x30EB;&#x30FC;&#x30D7;_9817" data-name="&#x30B0;&#x30EB;&#x30FC;&#x30D7; 9817" clip-path="url(#clip-path-3)"><rect id="&#x9577;&#x65B9;&#x5F62;_3552" data-name="&#x9577;&#x65B9;&#x5F62; 3552" width="157.006" height="227.492" transform="translate(0 0)" fill="url(#linear-gradient-2)"></rect></g></g><g id="&#x30B0;&#x30EB;&#x30FC;&#x30D7;_9820" data-name="&#x30B0;&#x30EB;&#x30FC;&#x30D7; 9820" transform="translate(0 0)"><g id="&#x30B0;&#x30EB;&#x30FC;&#x30D7;_9819" data-name="&#x30B0;&#x30EB;&#x30FC;&#x30D7; 9819" clip-path="url(#clip-path)"><path id="&#x30D1;&#x30B9;_14381" data-name="&#x30D1;&#x30B9; 14381" d="M48.185,49.119,10.759,51.107,10.2,37.284l36.666-5.247Zm90.821,6.6L133.844,67,84.574,53.177l6.44-15.1Z" transform="translate(35.404 111.146)" fill="#432a12" fill-rule="evenodd"></path><path id="&#x30D1;&#x30B9;_14382" data-name="&#x30D1;&#x30B9; 14382" d="M127.563,75.916l4.527,33.85L76.546,85.69l6.042-25.1ZM50.329,77.27,11.236,64l6.99-25.345L51.755,50.092Z" transform="translate(38.981 134.092)" fill="#fff" fill-rule="evenodd"></path><path id="&#x30D1;&#x30B9;_14383" data-name="&#x30D1;&#x30B9; 14383" d="M22.721,45.135a5.78,5.78,0,0,1,1.426,3.888,5.609,5.609,0,0,1-1.426,3.893,4.172,4.172,0,0,1-6.673,0,5.6,5.6,0,0,1-1.435-3.893,5.766,5.766,0,0,1,1.435-3.888,4.286,4.286,0,0,1,6.673,0" transform="translate(50.7 151.05)" fill-rule="evenodd"></path><path id="&#x30D1;&#x30B9;_14384" data-name="&#x30D1;&#x30B9; 14384" d="M27.64,56.916A5.58,5.58,0,0,1,26.2,53.023a5.783,5.783,0,0,1,1.435-3.888,4.286,4.286,0,0,1,6.673,0,5.8,5.8,0,0,1,1.426,3.888,5.593,5.593,0,0,1-1.426,3.893,4.165,4.165,0,0,1-6.673,0" transform="translate(90.913 164.927)" fill-rule="evenodd"></path><path id="&#x30D1;&#x30B9;_14385" data-name="&#x30D1;&#x30B9; 14385" d="M232.5,217.954l-23.044,6.279.036-11.446,24.675-4.21ZM46.959,115.808l-3.137,9.537-11.4-12.755L0,80.729l25.506-1.47L8.183,63.2,29.4,66.15,120.381,0,294.075,44.814,266.585,229.239l-.72,2.619-15.812-58.4h-8.813l-4.375,4.456-3.017,27.571H209.489l.121-69.368-21.377,2.543Z" transform="translate(0 0)" fill-rule="evenodd"></path><path id="&#x30D1;&#x30B9;_14386" data-name="&#x30D1;&#x30B9; 14386" d="M71.647,42.144q6.463,6.463,5.368,14.771-.925,8.219-8.729,13.511a26.393,26.393,0,0,1-14.851,4.7L54.53,40.468q12.335-3.191,17.117,1.676" transform="translate(185.382 136.011)" fill="#e1a170" fill-rule="evenodd"></path><path id="&#x30D1;&#x30B9;_14387" data-name="&#x30D1;&#x30B9; 14387" d="M21.264,57.866l20.581,3.1,8.577-3.254,1.193,2.463-9.694,3.339L21.264,59.453Z" transform="translate(73.77 200.213)" fill="#92501f" fill-rule="evenodd"></path><path id="&#x30D1;&#x30B9;_14388" data-name="&#x30D1;&#x30B9; 14388" d="M52.36,111.406l-7.683-1.184L41.5,107.044l3.178-23.281,9.162,1.774Z" transform="translate(143.974 290.602)" fill="#e7b895" fill-rule="evenodd"></path><path id="&#x30D1;&#x30B9;_14389" data-name="&#x30D1;&#x30B9; 14389" d="M42.211,91.792,55.659,81.45l8.872,1.622,1.774,23.2L49.894,119.435l1.479-25.873Z" transform="translate(146.442 282.575)" fill="#c98959" fill-rule="evenodd"></path><path id="&#x30D1;&#x30B9;_14390" data-name="&#x30D1;&#x30B9; 14390" d="M44.45,89.622l4.2-5.475-.456,7.83-2.485,6.686-3.249,1.712Z" transform="translate(147.294 291.93)" fill="#d49464" fill-rule="evenodd"></path><path id="&#x30D1;&#x30B9;_14391" data-name="&#x30D1;&#x30B9; 14391" d="M43.027,84.948l4.6,1.895L45.637,97.6l-4.1-2.105Z" transform="translate(144.111 294.71)" fill="#e7b895" fill-rule="evenodd"></path><path id="&#x30D1;&#x30B9;_14392" data-name="&#x30D1;&#x30B9; 14392" d="M50.676,85.857l-4.2,5.475-4.608-1.891,4.2-5.788Z" transform="translate(145.265 290.218)" fill="#e2a06f" fill-rule="evenodd"></path><path id="&#x30D1;&#x30B9;_14393" data-name="&#x30D1;&#x30B9; 14393" d="M60.284,143.829l-13.43-6.918,3.575-37.663L40.02,69.853l15.258,4.925,5.479,24.469Z" transform="translate(138.84 242.341)" fill="#284879" fill-rule="evenodd"></path><path id="&#x30D1;&#x30B9;_14394" data-name="&#x30D1;&#x30B9; 14394" d="M40.02,81.763,59.568,66.42l10.565,3.423,5.8,35.754-2.141,38.3L60.283,155.739l.478-44.581L55.278,86.688Z" transform="translate(138.84 230.432)" fill="#163059" fill-rule="evenodd"></path><path id="&#x30D1;&#x30B9;_14395" data-name="&#x30D1;&#x30B9; 14395" d="M39.646,69.785l1.783,8.3-3.768,3.1,5.4,38.5-9.734,7.589-7.982-11.955,6.99-36.353-2.467-3.7,3.62-6.874Z" transform="translate(87.926 237.282)" fill="#900" fill-rule="evenodd"></path></g></g></g><g id="&#x30B0;&#x30EB;&#x30FC;&#x30D7;_9869" data-name="&#x30B0;&#x30EB;&#x30FC;&#x30D7; 9869" transform="translate(5373.422 389.144)"><path id="&#x30D1;&#x30B9;_14285" data-name="&#x30D1;&#x30B9; 14285" d="M93.32,144.659l3.427,5.794,5.468.409,13.136-4,9.137-26.277-23.338-1.469ZM31.868,117.4l-9.221,6.123.159,4.241,11.266.981,21.3-6.691-2.117-13.788-13.958-.9Z" transform="translate(67.286 318.994)"></path><path id="&#x30D1;&#x30B9;_14286" data-name="&#x30D1;&#x30B9; 14286" d="M115.269,189.226l-18.771-9.3,2.819-6.405L94.54,158.792l-6.933-27.178-28.48-11.5-17.3-7.43-.818-6.2,6.2,56.8L45.5,173.723l-12.076-2.939,3.427-11.667-8.9-35.009L22.564,95.871l1.306-4.408,4.082-2.53,78.095,27.992,9.058,68.227Z" transform="translate(67.04 264.226)" fill="#181818" fill-rule="evenodd"></path><path id="&#x30D1;&#x30B9;_14287" data-name="&#x30D1;&#x30B9; 14287" d="M45.328,113.333l-.246,52.386L31.7,166.946,33.411,156.5l-6.2-56.8.818,6.2Zm56.143,69.116-.163-4.074L92.25,110.148l29.378-18.934-8.161,74.549Z" transform="translate(80.837 271.002)" fill="#070707" fill-rule="evenodd"></path><path id="&#x30D1;&#x30B9;_14288" data-name="&#x30D1;&#x30B9; 14288" d="M86.634,122.356l-22.2-3.348-5.873-.894-.083-.087L56.113,116.4,38.4,104.324,20.941,94.364l44.15-30.029,90.417,22.6-47.494,42.681Z" transform="translate(62.217 191.143)" fill="#102341" fill-rule="evenodd"></path><g id="&#x30B0;&#x30EB;&#x30FC;&#x30D7;_9775" data-name="&#x30B0;&#x30EB;&#x30FC;&#x30D7; 9775" transform="translate(0 0)"><g id="&#x30B0;&#x30EB;&#x30FC;&#x30D7;_9774" data-name="&#x30B0;&#x30EB;&#x30FC;&#x30D7; 9774" clip-path="url(#clip-path-5)"><path id="&#x30D1;&#x30B9;_14289" data-name="&#x30D1;&#x30B9; 14289" d="M37.484,147.574V78.946l21.38,7.263-5.389,53.613q1.31,12.408,3.268,31.582l-19.26-7.426Z" transform="translate(111.367 234.553)" fill="#284879" fill-rule="evenodd"></path><path id="&#x30D1;&#x30B9;_14290" data-name="&#x30D1;&#x30B9; 14290" d="M25.421,79.706l-.083-5.3L43.049,86.481l-4.65,5.3L36.93,93.418,27.709,82.486ZM55.208,99.133l-2.609.242L51.372,89.094l22.2,3.344v4.491Z" transform="translate(75.281 221.062)" fill="#fff" fill-rule="evenodd"></path><path id="&#x30D1;&#x30B9;_14291" data-name="&#x30D1;&#x30B9; 14291" d="M38.333,87.816l4.65-5.3,2.367,1.628L40.78,91.982Zm35.172,6.612L55.878,98.593l-.735-3.427,18.362-2.2Zm-44.067,39.58-3.59-1.06L25.36,75.74l2.283,2.776Z" transform="translate(75.346 225.028)" fill="#d1bda9" fill-rule="evenodd"></path><path id="&#x30D1;&#x30B9;_14292" data-name="&#x30D1;&#x30B9; 14292" d="M49.6,83.047l1.227,10.285,2.609-.246.735,3.431L71.8,92.351V145.23l-44.067-13.3-1.8-55.492,9.225,10.932,1.465-1.632,2.45,4.166,4.571-7.839.079.083Z" transform="translate(77.052 227.106)" fill="#e5e5e5" fill-rule="evenodd"></path><path id="&#x30D1;&#x30B9;_14293" data-name="&#x30D1;&#x30B9; 14293" d="M156.12,70.027l-12.568,70.022,2.692,35.986L106.5,197.9q-1.954-19.18-3.264-31.582l5.389-53.613ZM39.014,87.412l.083,5.3.488,57.207.083,10.364.083,10.277-19.017-4.65,5.143-28.071L21.553,77.453Z" transform="translate(61.605 208.055)" fill="#163059" fill-rule="evenodd"></path><path id="&#x30D1;&#x30B9;_14294" data-name="&#x30D1;&#x30B9; 14294" d="M29.073,91.206l44.067,13.3V114.3L25.566,100.51l-.083-10.364Z" transform="translate(75.711 267.829)" fill="#070707" fill-rule="evenodd"></path></g></g><g id="&#x30B0;&#x30EB;&#x30FC;&#x30D7;_9777" data-name="&#x30B0;&#x30EB;&#x30FC;&#x30D7; 9777" transform="translate(18.446 19.176)"><g id="&#x30B0;&#x30EB;&#x30FC;&#x30D7;_9776" data-name="&#x30B0;&#x30EB;&#x30FC;&#x30D7; 9776" clip-path="url(#clip-path-6)"><rect id="&#x9577;&#x65B9;&#x5F62;_3535" data-name="&#x9577;&#x65B9;&#x5F62; 3535" width="268.646" height="296.364" transform="translate(0 0)" fill="url(#linear-gradient-3)"></rect></g></g><g id="&#x30B0;&#x30EB;&#x30FC;&#x30D7;_9779" data-name="&#x30B0;&#x30EB;&#x30FC;&#x30D7; 9779" transform="translate(18.446 81.899)"><g id="&#x30B0;&#x30EB;&#x30FC;&#x30D7;_9778" data-name="&#x30B0;&#x30EB;&#x30FC;&#x30D7; 9778" clip-path="url(#clip-path-7)"><rect id="&#x9577;&#x65B9;&#x5F62;_3536" data-name="&#x9577;&#x65B9;&#x5F62; 3536" width="161.253" height="233.641" fill="url(#linear-gradient-4)"></rect></g></g><g id="&#x30B0;&#x30EB;&#x30FC;&#x30D7;_9781" data-name="&#x30B0;&#x30EB;&#x30FC;&#x30D7; 9781" transform="translate(0 0)"><g id="&#x30B0;&#x30EB;&#x30FC;&#x30D7;_9780" data-name="&#x30B0;&#x30EB;&#x30FC;&#x30D7; 9780" clip-path="url(#clip-path-5)"><path id="&#x30D1;&#x30B9;_14297" data-name="&#x30D1;&#x30B9; 14297" d="M49.286,53.516,10.85,55.561l-.576-14.2L47.94,35.976Zm93.276,6.775-5.3,11.588-50.6-14.2,6.608-15.5Z" transform="translate(30.525 106.887)" fill="#432a12" fill-rule="evenodd"></path><path id="&#x30D1;&#x30B9;_14298" data-name="&#x30D1;&#x30B9; 14298" d="M130.937,81.893l4.65,34.763L78.547,91.932l6.2-25.784Zm-79.322,1.39L11.468,69.65l7.18-26.03L53.085,55.374Z" transform="translate(34.072 129.598)" fill="#fff" fill-rule="evenodd"></path><path id="&#x30D1;&#x30B9;_14299" data-name="&#x30D1;&#x30B9; 14299" d="M16.844,50.9a4.421,4.421,0,0,1,6.854,0,5.967,5.967,0,0,1,1.469,4,5.775,5.775,0,0,1-1.469,4,4.287,4.287,0,0,1-6.854,0,5.76,5.76,0,0,1-1.473-4,5.951,5.951,0,0,1,1.473-4" transform="translate(45.668 146.39)" fill-rule="evenodd"></path><path id="&#x30D1;&#x30B9;_14300" data-name="&#x30D1;&#x30B9; 14300" d="M37.094,55.53a5.947,5.947,0,0,1,1.469,4,5.773,5.773,0,0,1-1.469,4,4.3,4.3,0,0,1-6.858,0,5.789,5.789,0,0,1-1.465-4,5.963,5.963,0,0,1,1.465-4,4.411,4.411,0,0,1,6.858,0" transform="translate(85.48 160.122)" fill-rule="evenodd"></path></g></g><g id="&#x30B0;&#x30EB;&#x30FC;&#x30D7;_9783" data-name="&#x30B0;&#x30EB;&#x30FC;&#x30D7; 9783" transform="translate(0 0.004)"><g id="&#x30B0;&#x30EB;&#x30FC;&#x30D7;_9782" data-name="&#x30B0;&#x30EB;&#x30FC;&#x30D7; 9782" clip-path="url(#clip-path-9)"><rect id="&#x9577;&#x65B9;&#x5F62;_3538" data-name="&#x9577;&#x65B9;&#x5F62; 3538" width="294.629" height="233.884" transform="translate(0 0)" fill="url(#linear-gradient-5)"></rect></g></g><g id="&#x30B0;&#x30EB;&#x30FC;&#x30D7;_9785" data-name="&#x30B0;&#x30EB;&#x30FC;&#x30D7; 9785" transform="translate(0 0)"><g id="&#x30B0;&#x30EB;&#x30FC;&#x30D7;_9784" data-name="&#x30B0;&#x30EB;&#x30FC;&#x30D7; 9784" clip-path="url(#clip-path-5)"><path id="&#x30D1;&#x30B9;_14302" data-name="&#x30D1;&#x30B9; 14302" d="M0,24.755a388.732,388.732,0,0,0,94.543.739l-12.12,8.24Q43.414,37.9,0,24.755" transform="translate(0 73.549)" fill="#a9561a" fill-rule="evenodd"></path><path id="&#x30D1;&#x30B9;_14303" data-name="&#x30D1;&#x30B9; 14303" d="M78.948,47.279q6.636,6.636,5.516,15.169-.947,8.44-8.963,13.875a27.125,27.125,0,0,1-15.257,4.825l1.12-35.589q12.676-3.282,17.584,1.719" transform="translate(178.989 131.498)" fill="#e1a170" fill-rule="evenodd"></path><path id="&#x30D1;&#x30B9;_14304" data-name="&#x30D1;&#x30B9; 14304" d="M23.057,65.809,44.2,68.994l8.812-3.344,1.227,2.53-9.955,3.427L23.057,67.445Z" transform="translate(68.504 195.05)" fill="#92501f" fill-rule="evenodd"></path><path id="&#x30D1;&#x30B9;_14305" data-name="&#x30D1;&#x30B9; 14305" d="M57.607,124.152l-7.89-1.215-3.268-3.26,3.268-23.91,9.407,1.815Z" transform="translate(138.001 284.529)" fill="#e7b895" fill-rule="evenodd"></path><path id="&#x30D1;&#x30B9;_14306" data-name="&#x30D1;&#x30B9; 14306" d="M47.271,103.717,61.082,93.09l9.11,1.668,1.823,23.834L55.161,132.1l1.521-26.566Z" transform="translate(140.445 276.577)" fill="#c98959" fill-rule="evenodd"></path><path id="&#x30D1;&#x30B9;_14307" data-name="&#x30D1;&#x30B9; 14307" d="M49.606,101.834l4.313-5.627-.477,8.045-2.549,6.862-3.34,1.763Z" transform="translate(141.284 285.836)" fill="#d49464" fill-rule="evenodd"></path><path id="&#x30D1;&#x30B9;_14308" data-name="&#x30D1;&#x30B9; 14308" d="M48.019,97.135l4.734,1.942L50.7,110.124l-4.205-2.16Z" transform="translate(138.138 288.593)" fill="#e7b895" fill-rule="evenodd"></path><path id="&#x30D1;&#x30B9;_14309" data-name="&#x30D1;&#x30B9; 14309" d="M55.924,97.894l-4.313,5.627-4.734-1.942,4.313-5.941Z" transform="translate(139.278 284.149)" fill="#e2a06f" fill-rule="evenodd"></path><path id="&#x30D1;&#x30B9;_14310" data-name="&#x30D1;&#x30B9; 14310" d="M65.547,155.66l-13.791-7.1,3.673-38.682L44.738,79.686,60.4,84.745l5.631,25.133Z" transform="translate(132.921 236.752)" fill="#284879" fill-rule="evenodd"></path><path id="&#x30D1;&#x30B9;_14311" data-name="&#x30D1;&#x30B9; 14311" d="M44.738,91.475,64.812,75.718l10.857,3.514,5.957,36.724L79.418,155.29,65.547,167.45l.488-45.782L60.4,96.53Z" transform="translate(132.92 224.963)" fill="#163059" fill-rule="evenodd"></path></g></g></g></g></svg>