<?xml version="1.0" encoding="UTF-8"?>
<svg id="_レイヤー_2" data-name="レイヤー 2" xmlns="http://www.w3.org/2000/svg" viewBox="0 0 463.85 321.47">
  <g id="_レイヤー_2-2" data-name="レイヤー 2">
    <g>
      <g>
        <path d="M434.46,321.47H29.39c-16.21,0-29.39-13.19-29.39-29.39V29.39C0,13.19,13.18,0,29.39,0h405.07c16.21,0,29.39,13.19,29.39,29.39v262.69c0,16.21-13.18,29.39-29.39,29.39ZM29.39,9c-11.24,0-20.39,9.15-20.39,20.39v262.69c0,11.24,9.15,20.39,20.39,20.39h405.07c11.24,0,20.39-9.15,20.39-20.39V29.39c0-11.24-9.15-20.39-20.39-20.39H29.39Z"/>
        <path d="M456.22,63.15H7.63c-2.49,0-4.5-2.01-4.5-4.5s2.01-4.5,4.5-4.5h448.59c2.49,0,4.5,2.01,4.5,4.5s-2.01,4.5-4.5,4.5Z"/>
        <path d="M39.77,40.34c-4.88,0-8.85-3.97-8.85-8.85s3.97-8.85,8.85-8.85,8.85,3.97,8.85,8.85-3.97,8.85-8.85,8.85ZM39.77,31.34c-.08,0-.15.07-.15.15,0,.16.3.16.3,0,0-.08-.07-.15-.15-.15Z"/>
        <path d="M71.32,40.34c-4.88,0-8.85-3.97-8.85-8.85s3.97-8.85,8.85-8.85,8.85,3.97,8.85,8.85-3.97,8.85-8.85,8.85ZM71.32,31.34c-.08,0-.15.07-.15.15,0,.16.3.16.3,0,0-.08-.07-.15-.15-.15Z"/>
        <path d="M102.86,40.34c-4.88,0-8.85-3.97-8.85-8.85s3.97-8.85,8.85-8.85,8.85,3.97,8.85,8.85-3.97,8.85-8.85,8.85ZM102.86,31.34c-.08,0-.15.07-.15.15,0,.16.3.16.3,0,0-.08-.07-.15-.15-.15Z"/>
      </g>
      <g>
        <g>
          <path d="M188.85,223.37c-1.06,0-2.13-.38-2.99-1.14l-42.51-37.83c-.96-.85-1.51-2.08-1.51-3.36s.55-2.51,1.51-3.36l42.51-37.84c1.86-1.65,4.7-1.49,6.35.37,1.65,1.86,1.49,4.7-.37,6.35l-38.73,34.47,38.73,34.47c1.86,1.65,2.02,4.5.37,6.35-.89,1-2.12,1.51-3.36,1.51Z"/>
          <path d="M275,223.37c-1.24,0-2.47-.51-3.36-1.51-1.65-1.86-1.49-4.7.37-6.35l38.73-34.47-38.73-34.47c-1.86-1.65-2.02-4.5-.37-6.35,1.65-1.86,4.5-2.02,6.35-.37l42.51,37.84c.96.85,1.51,2.08,1.51,3.36s-.55,2.51-1.51,3.36l-42.51,37.83c-.86.76-1.93,1.14-2.99,1.14Z"/>
        </g>
        <path d="M213.36,232.79c-.55,0-1.1-.1-1.64-.31-2.31-.91-3.45-3.52-2.54-5.83l37.12-94.51c.91-2.31,3.52-3.45,5.83-2.54,2.31.91,3.45,3.52,2.54,5.83l-37.12,94.51c-.7,1.77-2.39,2.86-4.19,2.86Z"/>
      </g>
    </g>
  </g>
</svg>