<?xml version="1.0" encoding="UTF-8"?><svg id="_レイヤー_2" xmlns="http://www.w3.org/2000/svg" xmlns:xlink="http://www.w3.org/1999/xlink" viewBox="0 0 218.09 309.76"><defs><style>.cls-1{fill:none;}.cls-2{fill:#fff;}.cls-2,.cls-3,.cls-4,.cls-5,.cls-6,.cls-7,.cls-8,.cls-9,.cls-10,.cls-11,.cls-12,.cls-13,.cls-14,.cls-15,.cls-16,.cls-17,.cls-18{fill-rule:evenodd;}.cls-3{fill:#e9ab7d;}.cls-4{fill:#1c1c1c;}.cls-5{fill:#c8834f;}.cls-6{fill:#d49464;}.cls-7{fill:#df9e6d;}.cls-19{fill:url(#_名称未設定グラデーション_3);}.cls-20{fill:url(#_名称未設定グラデーション_2);}.cls-21{clip-path:url(#clippath-1);}.cls-22{clip-path:url(#clippath-3);}.cls-23{clip-path:url(#clippath-4);}.cls-24{clip-path:url(#clippath-2);}.cls-25{clip-path:url(#clippath-5);}.cls-9{fill:#de9b69;}.cls-10{fill:#540a0a;}.cls-11{fill:#c77c44;}.cls-12{fill:#a56434;}.cls-13{fill:#551f09;}.cls-14{fill:#730d0d;}.cls-15{fill:#930f0f;}.cls-16{fill:#285471;}.cls-17{fill:#350606;}.cls-26{fill:url(#_名称未設定グラデーション);}.cls-27{fill:#333;}.cls-18{fill:#183445;}.cls-28{clip-path:url(#clippath);}</style><clipPath id="clippath"><rect class="cls-1" width="218.09" height="309.76"/></clipPath><clipPath id="clippath-1"><path class="cls-1" d="M21.14,54.03l.77,17.54h65.6c13.2,5.74,25.93,12.52,38.06,20.28l-8.74,114.6,63.75-42.28,13.97-125.66L86.86,11.69c-.68-.02-1.36-.04-2.04-.04-23.68,0-44.9,14.13-63.67,42.38h0Z"/></clipPath><linearGradient id="_名称未設定グラデーション" x1="352.83" y1="693.53" x2="352.84" y2="693.53" gradientTransform="translate(-61186.89 135209.85) scale(173.42 -194.8)" gradientUnits="userSpaceOnUse"><stop offset="0" stop-color="#cd824b"/><stop offset="1" stop-color="#b0652e"/></linearGradient><clipPath id="clippath-2"><path class="cls-1" d="M21.92,71.57l20.16,107.05,21.29,24.38,15.11,7.49,38.36-4.04,8.75-114.6c-12.13-7.75-24.86-14.54-38.06-20.28H21.92Z"/></clipPath><linearGradient id="_名称未設定グラデーション_2" x1="351.36" y1="692.74" x2="351.39" y2="692.74" gradientTransform="translate(-36420.96 96377.99) scale(103.66 -138.92)" gradientUnits="userSpaceOnUse"><stop offset="0" stop-color="#f3c89f"/><stop offset=".01" stop-color="#f3c89f"/><stop offset="1" stop-color="#dd9866"/></linearGradient><clipPath id="clippath-3"><rect class="cls-1" width="218.09" height="309.76"/></clipPath><clipPath id="clippath-4"><path class="cls-1" d="M1.4,89.18l7.26,1.9c-1.47-13-.87-22.77,1.78-29.32-1.59,8.29-.97,18.38,1.84,30.27l97.83,25.45c3.81-19.54,13.24-27.45,28.31-23.73-11.14-27.12-48.43-47.32-111.86-60.6-.38-.01-.75-.02-1.12-.02C4.5,33.14-3.51,51.82,1.4,89.18Z"/></clipPath><linearGradient id="_名称未設定グラデーション_3" x1="351.02" y1="697.03" x2="351.04" y2="697.03" gradientTransform="translate(-41511.14 110871.83) scale(118.26 -158.95)" gradientUnits="userSpaceOnUse"><stop offset="0" stop-color="#551f09"/><stop offset=".36" stop-color="#551f09"/><stop offset=".52" stop-color="#8b330e"/><stop offset=".68" stop-color="#551f09"/><stop offset="1" stop-color="#551f09"/></linearGradient><clipPath id="clippath-5"><rect class="cls-1" width="218.09" height="309.76"/></clipPath></defs><g id="_レイヤー_1-2"><path id="_パス_14312" class="cls-13" d="M38.27,182.66l.18,15.58-9.99-2.14,6.13-85.58,27.83,84.86-20.81,6.19-3.33-18.92Z"/><path id="_パス_14313" class="cls-8" d="M109.75,289l-.18,6.07-3.57,1.43-.83-2.02-5.95,4.16-6.6.12-1.31-2.79,5.29-4.28,3.63-3.98,9.51,1.31Z"/><g class="cls-28"><path id="_パス_14314" class="cls-8" d="M118.05,298.4l12.87-5.71,3.09,10.05-4.28,2.43-.95-3.27-3.21,5.18c-1.35,1.47-3.95,2.36-7.79,2.68l-4.64-1.73.12-2.53,3.69-1.81,1.1-5.29Z"/><path id="_パス_14315" class="cls-11" d="M124.92,299.82v-19.39l7.55-3.33-.86,13.38-.27,4.28-6.42,5.05Z"/><path id="_パス_14316" class="cls-7" d="M124.92,280.43v19.39l-6.72-1.07-.54-15.64,7.26-2.68Z"/><path id="_パス_14317" class="cls-11" d="M102.62,269.79l9.16,1.61-2.97,19.33-1.07.71-3.39,1.13-1.73-22.78Z"/><path id="_パス_14318" class="cls-7" d="M104.34,292.57l-6.84-2.8-3.33-23.07,8.44,3.1,1.73,22.77Z"/><path id="_パス_14319" class="cls-16" d="M81.03,249.75l42.4,16.12,1.79,22.06-38.54-17.37-5.65-20.81Z"/><path id="_パス_14320" class="cls-8" d="M123.43,265.87l-42.4-16.12-.71-2.85,41.39,14.99,24.2-17.96-.06,3.63-22.42,18.31Z"/><path id="_パス_14321" class="cls-18" d="M123.44,265.87l22.42-18.31-7.05,35.41-9.9,4.01-3.69.95-1.78-22.06Z"/><path id="_パス_14322" class="cls-15" d="M73.77,226.67l-.35-19.68,50.49,18.91-5.06,23.13,3.09,13.44-42.29-15.28,1.96-6.84-.06-7.55,9.78,1.16,17.99,9.19-12.55-9.07.86-10.55-5.11,9.24-18.76-6.09Z"/><path id="_パス_14323" class="cls-17" d="M156.08,202.23l-32.17,23.67-50.49-18.91,36.93-20.76,45.73,16Z"/><path id="_パス_14324" class="cls-14" d="M156.08,202.23l-13.97,37.17,4.34,8.03-24.5,15.05-3.1-13.44,5.06-23.14,32.17-23.67Z"/><path id="_パス_14325" class="cls-10" d="M81.57,232.8l-7.79-6.12,18.76,6.09,5.11-9.24-.86,10.55,12.55,9.07-17.99-9.19-9.78-1.16Z"/><path id="_パス_14326" class="cls-3" d="M155.99,264.34l-2.13.9-2.73.57-2.99.1-2.21-.04-4.01-.19.22-5.44-2.74,2.37-2.89-3.81,6.99-9.12,7.55-1.82,2.61,6.06,2.32,10.43Z"/><path id="_パス_14327" class="cls-5" d="M141.92,265.68l-1.49,9.64-1-1,1.11-7.17v-2.45l-1.49,3.2-1.26.08,1.6-5.38,2.74-2.38-.22,5.45ZM148.14,265.9l-.4,9.64-.98-.81-.11-7.3-1.02-.02.31-1.55,2.2.04ZM153.85,265.24l-.53,7.95-.64-.31.14-5.34-1.55.13-.14-1.87,2.72-.57Z"/><path id="_パス_14328" class="cls-9" d="M145.62,267.42l-1.66,8.17-3.52-.26,1.49-9.64,4,.18-.32,1.55ZM147.74,275.54l.4-9.63,2.99-.1.14,1.87-.46,7.8-3.07.06ZM153.33,273.19l.53-7.95,2.13-.9-1.28,8.6-1.38.25Z"/><path id="_パス_14329" class="cls-6" d="M139.41,262.61l-1.61,5.38-2.52-2.16,1.23-7.03,2.89,3.81Z"/><path id="_パス_14330" class="cls-15" d="M138,216.63c5,9.87,7.66,22.92,7.97,39.13l-4.46-3.93c-1.23-11.81-3.88-20.81-7.97-27l4.46-8.2Z"/><path id="_パス_14331" class="cls-14" d="M145.97,255.75c-.32-16.22-2.97-29.26-7.97-39.12,4.01-1.31,8.01-2.6,12.01-3.86,4.96,11.38,5.79,24.64,2.5,39.78l-6.54,3.21Z"/></g><g class="cls-21"><rect id="_長方形_3541" class="cls-26" x="21.14" y="11.65" width="173.42" height="194.8"/></g><g class="cls-24"><rect id="_長方形_3542" class="cls-20" x="21.92" y="71.58" width="103.66" height="138.92"/></g><g class="cls-22"><path id="_パス_14334" class="cls-13" d="M113.5,138.36l-40.32-1.84.3-7.2,43.83-.95-3.81,9.99ZM35.18,111.72l30.69,15.88-.83,7.32-30.33-10.94.48-12.25Z"/><path id="_パス_14335" class="cls-13" d="M138.42,93.76c-11.14-27.12-48.43-47.32-111.87-60.6C41.18,16.55,58.17,6.1,77.52,1.82c19.31-4.32,50.72-.93,94.26,10.17,38.9,9.91,53.29,69.68,43.18,179.3-31.6-12.41-52.95-1.03-64.05,34.13l-12.73,2.14,6.43-49.42-9.99,45.79-18.38-7.26c12.69-32.75,20.73-59.69,24.14-80.82,3.65-21.25,3-35.28-1.96-42.1"/></g><g class="cls-23"><rect id="_長方形_3544" class="cls-19" x="8.33" y="-4.19" width="118.26" height="158.95" transform="translate(-22.73 120.95) rotate(-74.99)"/></g><g class="cls-25"><path id="_パス_14337" class="cls-12" d="M78.47,182.64v2.35l-15.52-2.91.89-2.02,14.63,2.59Z"/><path id="_パス_14338" class="cls-2" d="M61.35,146.09c-.96,2.24-2.66,4.09-4.82,5.23-3.92,2.46-8.86,3.27-14.81,2.44-5.65-.78-10.97-3.13-15.35-6.78-4.4-3.57-6.74-7.47-7.02-11.71-.28-4.24,1.57-7.59,5.53-10.05,3.96-2.42,8.9-3.19,14.81-2.32,5.63.72,10.95,3,15.34,6.6,4.4,3.65,6.76,7.59,7.08,11.83.14,1.62-.13,3.26-.77,4.76M70.8,148.89c.9-2.47,2.65-4.54,4.93-5.83,4.01-2.38,8.94-3.13,14.81-2.26,5.64.68,10.97,2.97,15.35,6.6,3.9,3.2,6.2,6.64,6.9,10.32.09.5.15,1.01.18,1.52.28,4.24-1.59,7.57-5.59,9.99-3.92,2.42-8.84,3.23-14.75,2.43-5.67-.77-11.01-3.12-15.4-6.78-4.36-3.61-6.71-7.53-7.02-11.77-.09-1.43.11-2.87.6-4.22"/><path id="_パス_14339" class="cls-27" d="M96.8,173.89c-1.48,0-2.96-.11-4.43-.31-6.03-.82-11.71-3.32-16.39-7.21-4.75-3.93-7.35-8.35-7.7-13.11-.09-1.42.06-2.84.44-4.21-.84-1.43-2.33-2.47-5.96-1.38-1.19,2.25-3.02,4.11-5.26,5.33-4.25,2.67-9.67,3.58-16.05,2.68-6.01-.83-11.66-3.33-16.32-7.21-4.79-3.88-7.39-8.29-7.7-13.07-.32-4.99,1.84-8.97,6.44-11.82,4.35-2.65,9.77-3.52,16.11-2.59,5.98.77,11.62,3.21,16.29,7.02,4.8,3.98,7.42,8.41,7.77,13.18.06.76.05,1.51-.03,2.27,2.33-.43,4.73.22,6.52,1.78,1.13-1.54,2.56-2.84,4.19-3.82,4.4-2.62,9.82-3.46,16.11-2.53,5.99.74,11.65,3.18,16.3,7.03,2.93,2.26,5.24,5.22,6.72,8.61l26.45-19.56c.86-.64,2.07-.45,2.71.4s.45,2.07-.4,2.71l-27.75,20.52c.02.17.03.34.04.51.33,5-1.86,8.96-6.52,11.77-3.5,2.07-7.51,3.11-11.58,3.01M72.61,149.57c-.39,1.1-.55,2.27-.47,3.44.27,3.63,2.4,7.14,6.32,10.39,4.13,3.43,9.14,5.63,14.46,6.36,5.4.72,9.93,0,13.45-2.17,3.38-2.04,4.9-4.73,4.68-8.22-.03-.44-.08-.87-.16-1.3-.61-3.19-2.7-6.28-6.22-9.17-4.1-3.39-9.09-5.54-14.38-6.18-5.42-.81-9.97-.13-13.56,2.01-1.89,1.06-3.34,2.75-4.09,4.79h0s-.02.06-.02.06M35.24,124.49c-3.28-.09-6.51.73-9.35,2.38-3.33,2.06-4.84,4.77-4.61,8.27.25,3.72,2.31,7.1,6.3,10.34,4.12,3.43,9.11,5.63,14.42,6.36,5.44.76,9.99.03,13.5-2.17,1.8-.93,3.23-2.44,4.04-4.3l.02-.05v-.04c.53-1.21.74-2.53.62-3.84-.28-3.66-2.42-7.19-6.38-10.48-4.12-3.36-9.1-5.5-14.38-6.17-1.39-.21-2.79-.32-4.19-.32"/><path id="_パス_14340" class="cls-4" d="M49.41,137.5c-.07-1.3.51-2.56,1.54-3.35,1.05-.8,2.4-1.06,3.67-.71,1.45.34,2.75,1.16,3.67,2.33.94,1.09,1.48,2.47,1.53,3.91v.14c.06,1.29-.51,2.52-1.53,3.31-1.04.81-2.4,1.08-3.67.72-1.46-.33-2.76-1.16-3.67-2.35-.98-1.11-1.52-2.53-1.54-4"/><path id="_パス_14341" class="cls-4" d="M99.13,151.17c-.07-1.3.51-2.55,1.54-3.35,1.05-.8,2.4-1.06,3.67-.71,1.45.33,2.75,1.16,3.67,2.33.94,1.09,1.48,2.46,1.53,3.9v.14c.06,1.29-.51,2.52-1.53,3.31-1.04.81-2.4,1.08-3.67.72-1.46-.33-2.76-1.16-3.67-2.35-.97-1.11-1.52-2.53-1.54-4"/></g></g></svg>