<?xml version="1.0" encoding="UTF-8"?>
<svg id="_レイヤー_2" data-name="レイヤー 2" xmlns="http://www.w3.org/2000/svg" viewBox="0 0 403.19 373.22">
  <defs>
    <style>
      .cls-1 {
        fill: none;
        stroke: #000;
        stroke-linecap: round;
        stroke-linejoin: round;
        stroke-width: 10px;
      }
    </style>
  </defs>
  <g id="_レイヤー_2-2" data-name="レイヤー 2">
    <g>
      <path class="cls-1" d="M62.35,106.95l8.19,16.6c1.07,2.16,3.12,3.65,5.51,4l18.32,2.66c6,.87,8.39,8.24,4.05,12.47l-13.26,12.92c-1.72,1.68-2.51,4.1-2.1,6.47l3.13,18.25c1.02,5.97-5.24,10.53-10.61,7.71l-16.39-8.62c-2.13-1.12-4.67-1.12-6.8,0l-16.39,8.62c-5.36,2.82-11.63-1.73-10.61-7.71l3.13-18.25c.41-2.37-.38-4.79-2.1-6.47l-13.26-12.92c-4.34-4.23-1.94-11.6,4.05-12.47l18.32-2.66c2.38-.35,4.44-1.84,5.51-4l8.19-16.6c2.68-5.43,10.43-5.43,13.11,0Z"/>
      <path class="cls-1" d="M359.9,106.95l8.19,16.6c1.07,2.16,3.12,3.65,5.51,4l18.32,2.66c6,.87,8.39,8.24,4.05,12.47l-13.26,12.92c-1.72,1.68-2.51,4.1-2.1,6.47l3.13,18.25c1.02,5.97-5.24,10.53-10.61,7.71l-16.39-8.62c-2.13-1.12-4.67-1.12-6.8,0l-16.39,8.62c-5.36,2.82-11.63-1.73-10.61-7.71l3.13-18.25c.41-2.37-.38-4.79-2.1-6.47l-13.26-12.92c-4.34-4.23-1.94-11.6,4.05-12.47l18.32-2.66c2.38-.35,4.44-1.84,5.51-4l8.19-16.6c2.68-5.43,10.43-5.43,13.11,0Z"/>
      <g>
        <path class="cls-1" d="M55.79,267.41s42.02-19.74,52.2-28.01,56.02-17.83,73.85-3.82c17.83,14.01,44.72,1.11,57.3,0,27.92-2.47,31.83,12.73,23.56,20.37-8.28,7.64-40.74,31.2-98.04,25.53"/>
        <path class="cls-1" d="M88.72,317.18c10.87-9.04,25.49-13.18,39.5-11.81,10.43,1.02,20.7,4.74,30.97,6.78,21.05,4.19,42.17,10.25,63.55,4.45,17.81-4.84,33.45-15.46,46.31-28.5,46.16-46.79,72.89-46.09,58.57-59.65-14.32-13.56-41.7-.83-59.53,14.45"/>
        <rect class="cls-1" x="28.29" y="245.84" width="46.78" height="123.36" rx="12.07" ry="12.07" transform="translate(-146.84 67.04) rotate(-30)"/>
      </g>
      <g>
        <path class="cls-1" d="M209.55,181.57l85.71-122.88c2.87-4.12,2.66-9.64-.51-13.53l-20.76-25.46c-7.59-9.3-18.95-14.7-30.95-14.7h-85.39c-12,0-23.37,5.4-30.95,14.7l-20.76,25.46c-3.17,3.89-3.38,9.41-.51,13.53l85.71,122.88c4.47,6.41,13.96,6.41,18.43,0Z"/>
        <line class="cls-1" x1="103.56" y1="51.73" x2="297.11" y2="51.73"/>
        <path class="cls-1" d="M239.87,61.4l-36.22,122.84c-.97,3.31-5.66,3.31-6.63,0l-36.22-122.84c-1.79-6.06-.53-12.62,3.37-17.59l30.45-38.8h11.44s30.45,38.8,30.45,38.8c3.9,4.97,5.16,11.53,3.37,17.59Z"/>
      </g>
    </g>
  </g>
</svg>