<?xml version="1.0" encoding="UTF-8"?>
<svg id="_レイヤー_2" data-name="レイヤー 2" xmlns="http://www.w3.org/2000/svg" viewBox="0 0 242.13 223.32">
  <defs>
    <style>
      .cls-1 {
        fill: none;
        stroke: #000;
        stroke-linecap: round;
        stroke-linejoin: round;
        stroke-width: 6.19px;
      }
    </style>
  </defs>
  <g id="Layer_1" data-name="Layer 1">
    <path class="cls-1" d="M51.2,83.84v114.55c0,11.02-8.18,20.16-18.8,21.59.96.16,1.92.24,2.91.24h181.89c12.09,0,21.83-9.78,21.83-21.83V3.09H51.2v24.83"/>
    <path class="cls-1" d="M13.44,95.25v103.14c0,6.03,2.43,11.5,6.43,15.45,3.27,3.27,7.62,5.55,12.49,6.15h.04c.96.16,1.92.24,2.91.24"/>
    <line class="cls-1" x1="84.27" y1="102.95" x2="209.33" y2="102.95"/>
    <line class="cls-1" x1="84.27" y1="129.12" x2="209.33" y2="129.12"/>
    <line class="cls-1" x1="84.27" y1="155.3" x2="209.33" y2="155.3"/>
    <line class="cls-1" x1="84.27" y1="181.47" x2="209.33" y2="181.47"/>
    <rect class="cls-1" x="84.27" y="38.93" width="125.06" height="38.65"/>
    <line class="cls-1" x1="51.2" y1="95.25" x2="13.44" y2="95.25"/>
    <polyline class="cls-1" points="47.76 41.82 61.94 56 47.76 70.18"/>
    <line class="cls-1" x1="61.94" y1="56" x2="3.09" y2="56"/>
  </g>
</svg>