<?xml version="1.0" encoding="UTF-8"?>
<svg id="_レイヤー_2" data-name="レイヤー 2" xmlns="http://www.w3.org/2000/svg" viewBox="0 0 444.59 444.57">
  <g id="_レイヤー_2-2" data-name="レイヤー 2">
    <g>
      <g>
        <path d="M199.36,398.72c-51.08,0-102.15-19.44-141.03-58.32-77.77-77.77-77.77-204.3,0-282.07,77.77-77.77,204.3-77.77,282.07,0,77.77,77.77,77.77,204.3,0,282.07-38.88,38.88-89.96,58.32-141.03,58.32ZM199.36,9c-48.77,0-97.54,18.56-134.67,55.69-74.26,74.26-74.26,195.08,0,269.34,74.26,74.26,195.08,74.26,269.34,0,74.26-74.26,74.26-195.08,0-269.34C296.9,27.56,248.13,9,199.36,9Z"/>
        <path d="M199.36,358.56c-42.52,0-82.5-16.56-112.57-46.63-62.07-62.07-62.07-163.07,0-225.15,30.07-30.07,70.05-46.63,112.57-46.63s82.5,16.56,112.57,46.63c62.07,62.07,62.07,163.07,0,225.15-30.07,30.07-70.05,46.63-112.57,46.63ZM199.36,49.16c-40.12,0-77.84,15.62-106.21,43.99-58.56,58.56-58.56,153.86,0,212.42,28.37,28.37,66.09,43.99,106.21,43.99s77.84-15.62,106.21-43.99c58.56-58.56,58.56-153.85,0-212.42-28.37-28.37-66.09-43.99-106.21-43.99Z"/>
        <path d="M396.42,444.57c-12.33,0-24.67-4.7-34.06-14.09l-58.82-58.82c-1.76-1.76-1.76-4.61,0-6.36,1.76-1.76,4.61-1.76,6.36,0l58.82,58.82c15.27,15.27,40.12,15.27,55.39,0,7.4-7.4,11.47-17.23,11.47-27.7s-4.07-20.3-11.47-27.7l-58.82-58.82c-1.76-1.76-1.76-4.61,0-6.36,1.76-1.76,4.61-1.76,6.36,0l58.82,58.82c9.1,9.1,14.11,21.19,14.11,34.06s-5.01,24.96-14.11,34.06c-9.39,9.39-21.73,14.09-34.06,14.09Z"/>
      </g>
      <g>
        <path d="M119.66,259h-20.57c-12.93,0-23.45-10.52-23.45-23.45,0-2.49,2.01-4.5,4.5-4.5s4.5,2.01,4.5,4.5c0,7.97,6.48,14.45,14.45,14.45h20.57c9.7,0,17.6-7.9,17.6-17.6v-10.68c0-9.08-6.81-16.6-15.84-17.51l-21.84-2.19c-13.65-1.37-23.94-12.75-23.94-26.47v-10.68c0-14.67,11.93-26.6,26.6-26.6h20.57c12.93,0,23.45,10.52,23.45,23.45,0,2.49-2.01,4.5-4.5,4.5s-4.5-2.01-4.5-4.5c0-7.97-6.48-14.45-14.45-14.45h-20.57c-9.7,0-17.6,7.9-17.6,17.6v10.68c0,9.08,6.81,16.6,15.84,17.51l21.84,2.19c13.65,1.37,23.94,12.75,23.94,26.47v10.68c0,14.67-11.93,26.6-26.6,26.6Z"/>
        <path d="M296.51,259.29h-14.55c-14.86,0-26.94-12.09-26.94-26.94v-67.45c0-14.85,12.08-26.94,26.94-26.94h14.55c14.86,0,26.94,12.09,26.94,26.94v67.45c0,14.85-12.09,26.94-26.94,26.94ZM281.96,146.96c-9.89,0-17.94,8.05-17.94,17.94v67.45c0,9.89,8.05,17.94,17.94,17.94h14.55c9.89,0,17.94-8.05,17.94-17.94v-67.45c0-9.89-8.05-17.94-17.94-17.94h-14.55Z"/>
        <g>
          <path d="M225.74,256.64h-47.31c-2.49,0-4.5-2.01-4.5-4.5v-106.14c0-2.49,2.01-4.5,4.5-4.5h47.31c2.49,0,4.5,2.01,4.5,4.5s-2.01,4.5-4.5,4.5h-42.81v97.14h42.81c2.49,0,4.5,2.01,4.5,4.5s-2.01,4.5-4.5,4.5Z"/>
          <path d="M225.74,203.29h-47.31c-2.49,0-4.5-2.01-4.5-4.5s2.01-4.5,4.5-4.5h47.31c2.49,0,4.5,2.01,4.5,4.5s-2.01,4.5-4.5,4.5Z"/>
        </g>
      </g>
    </g>
  </g>
</svg>