<?xml version="1.0" encoding="UTF-8"?>
<svg id="_レイヤー_2" data-name="レイヤー 2" xmlns="http://www.w3.org/2000/svg" viewBox="0 0 448.01 423.83">
  <g id="Layer_1" data-name="Layer 1">
    <g>
      <g>
        <g>
          <path d="M85.27,84.21c-23.22,0-42.1-18.89-42.1-42.1S62.06,0,85.27,0s42.1,18.89,42.1,42.1-18.89,42.1-42.1,42.1ZM85.27,9c-18.25,0-33.1,14.85-33.1,33.1s14.85,33.1,33.1,33.1,33.1-14.85,33.1-33.1-14.85-33.1-33.1-33.1Z"/>
          <path d="M208.18,423.83c-6.86,0-13.38-4.09-16.14-10.82l-43.54-106.49-64.42-3.34c-31.84-1.65-56.78-27.91-56.78-59.79v-107.43c0-21.2,13.71-36.58,37.63-42.2,18.39-4.32,37.93-1.24,55.03,8.67l47.63,27.6,69.1,1.2c14.46,0,26.28,11.83,26.28,26.36s-11.83,26.36-26.36,26.36l-70.31,1.01-42.14-15.86v64.65l55.18,17.94c6.77,2.2,12.12,7.27,14.7,13.9l49.23,126.79c3.42,8.79-.91,18.85-9.64,22.42l-18.88,7.72c-2.15.88-4.38,1.3-6.57,1.3ZM81.42,100.85c-4.85,0-9.69.55-14.43,1.67-11.46,2.69-30.69,10.62-30.69,33.43v107.43c0,27.09,21.19,49.4,48.24,50.8l70.13,3.63,45.7,111.77c1.76,4.29,6.68,6.36,10.97,4.6l18.88-7.72c4.22-1.73,6.31-6.59,4.66-10.83l-49.23-126.79c-1.59-4.1-4.91-7.24-9.09-8.6l-61.4-19.96v-84.19l52.71,19.84,68.67-.99c9.64,0,17.43-7.79,17.43-17.36s-7.79-17.36-17.36-17.36l-71.51-1.25-49.65-28.77c-10.67-6.18-22.38-9.36-34.03-9.36Z"/>
        </g>
        <path d="M133.39,328.3h-58.65C33.53,328.3,0,294.77,0,253.56V108.76c0-2.49,2.01-4.5,4.5-4.5s4.5,2.01,4.5,4.5v144.79c0,36.25,29.49,65.74,65.74,65.74h58.65c2.49,0,4.5,2.01,4.5,4.5s-2.01,4.5-4.5,4.5Z"/>
        <path d="M68.94,417.81c-2.49,0-4.5-2.01-4.5-4.5v-89.51c0-2.49,2.01-4.5,4.5-4.5s4.5,2.01,4.5,4.5v89.51c0,2.49-2.01,4.5-4.5,4.5Z"/>
        <path d="M105.7,423.83H32.18c-2.49,0-4.5-2.01-4.5-4.5s2.01-4.5,4.5-4.5h73.52c2.49,0,4.5,2.01,4.5,4.5s-2.01,4.5-4.5,4.5Z"/>
      </g>
      <g>
        <path d="M443.51,212.74H173.65c-2.49,0-4.5-2.01-4.5-4.5s2.01-4.5,4.5-4.5h269.85c2.49,0,4.5,2.01,4.5,4.5s-2.01,4.5-4.5,4.5Z"/>
        <path d="M308.58,423.83c-2.49,0-4.5-2.01-4.5-4.5v-211.09c0-2.49,2.01-4.5,4.5-4.5s4.5,2.01,4.5,4.5v211.09c0,2.49-2.01,4.5-4.5,4.5Z"/>
      </g>
      <g>
        <path d="M423.87,194.68h-154.67c-2.49,0-4.5-2.01-4.5-4.5s2.01-4.5,4.5-4.5h132.94l-56.76-56.76c-1.76-1.76-1.76-4.61,0-6.36,1.76-1.76,4.61-1.76,6.36,0l72.12,72.12Z"/>
        <path d="M329.05,167.94c-.66,0-1.33-.15-1.96-.45-2.24-1.08-3.17-3.77-2.09-6.01l63.06-130.19c1.08-2.24,3.78-3.17,6.01-2.09,2.24,1.08,3.17,3.77,2.09,6.01l-63.06,130.19c-.78,1.6-2.38,2.54-4.05,2.54Z"/>
      </g>
    </g>
  </g>
</svg>