<?xml version="1.0" encoding="UTF-8"?>
<svg id="_レイヤー_2" data-name="レイヤー 2" xmlns="http://www.w3.org/2000/svg" viewBox="0 0 512.16 456.84">
  <g id="_レイヤー_2-2" data-name="レイヤー 2">
    <g>
      <g>
        <path d="M377.9,195.6h-241.89c-10.68,0-19.37-8.69-19.37-19.36V19.36c0-10.68,8.69-19.36,19.37-19.36h241.89c10.68,0,19.37,8.69,19.37,19.36v156.87c0,10.68-8.69,19.36-19.37,19.36ZM136,9c-5.72,0-10.37,4.65-10.37,10.36v156.87c0,5.72,4.65,10.36,10.37,10.36h241.89c5.72,0,10.37-4.65,10.37-10.36V19.36c0-5.72-4.65-10.36-10.37-10.36h-241.89Z"/>
        <path d="M390.89,53.32H123.01c-2.49,0-4.5-2.01-4.5-4.5s2.01-4.5,4.5-4.5h267.88c2.49,0,4.5,2.01,4.5,4.5s-2.01,4.5-4.5,4.5Z"/>
        <path d="M144.42,33.25c-3.91,0-7.1-3.18-7.1-7.1s3.18-7.1,7.1-7.1,7.1,3.18,7.1,7.1-3.18,7.1-7.1,7.1ZM144.42,24.25c-1.05,0-1.9.85-1.9,1.9s.85,1.9,1.9,1.9,1.9-.85,1.9-1.9-.85-1.9-1.9-1.9Z"/>
        <path d="M168.23,33.25c-3.91,0-7.1-3.18-7.1-7.1s3.18-7.1,7.1-7.1,7.1,3.18,7.1,7.1-3.18,7.1-7.1,7.1ZM168.23,24.25c-1.05,0-1.9.85-1.9,1.9s.85,1.9,1.9,1.9,1.9-.85,1.9-1.9-.85-1.9-1.9-1.9Z"/>
        <path d="M192.04,33.25c-3.91,0-7.1-3.18-7.1-7.1s3.18-7.1,7.1-7.1,7.1,3.18,7.1,7.1-3.18,7.1-7.1,7.1ZM192.04,24.25c-1.05,0-1.9.85-1.9,1.9s.85,1.9,1.9,1.9,1.9-.85,1.9-1.9-.85-1.9-1.9-1.9Z"/>
      </g>
      <g>
        <path d="M102.35,456.84H16.64c-9.17,0-16.64-7.46-16.64-16.64v-85.71c0-9.17,7.46-16.64,16.64-16.64h85.71c9.17,0,16.64,7.46,16.64,16.64v85.71c0,9.17-7.46,16.64-16.64,16.64ZM16.64,347.86c-3.66,0-6.64,2.98-6.64,6.64v85.71c0,3.66,2.98,6.64,6.64,6.64h85.71c3.66,0,6.64-2.98,6.64-6.64v-85.71c0-3.66-2.98-6.64-6.64-6.64H16.64Z"/>
        <path d="M298.93,456.84h-85.71c-9.17,0-16.64-7.46-16.64-16.64v-85.71c0-9.17,7.46-16.64,16.64-16.64h85.71c9.17,0,16.64,7.46,16.64,16.64v85.71c0,9.17-7.46,16.64-16.64,16.64ZM213.22,347.86c-3.66,0-6.64,2.98-6.64,6.64v85.71c0,3.66,2.98,6.64,6.64,6.64h85.71c3.66,0,6.64-2.98,6.64-6.64v-85.71c0-3.66-2.98-6.64-6.64-6.64h-85.71Z"/>
        <path d="M495.52,456.84h-85.71c-9.17,0-16.64-7.46-16.64-16.64v-85.71c0-9.17,7.46-16.64,16.64-16.64h85.71c9.17,0,16.64,7.46,16.64,16.64v85.71c0,9.17-7.46,16.64-16.64,16.64ZM409.81,347.86c-3.66,0-6.64,2.98-6.64,6.64v85.71c0,3.66,2.98,6.64,6.64,6.64h85.71c3.66,0,6.64-2.98,6.64-6.64v-85.71c0-3.66-2.98-6.64-6.64-6.64h-85.71Z"/>
        <path d="M452.19,314.77c-2.76,0-5-2.24-5-5v-42.53H64.97v42.53c0,2.76-2.24,5-5,5s-5-2.24-5-5v-47.53c0-2.76,2.24-5,5-5h392.22c2.76,0,5,2.24,5,5v47.53c0,2.76-2.24,5-5,5Z"/>
        <path d="M256.59,315.33c-2.76,0-5-2.24-5-5v-93.49c0-2.76,2.24-5,5-5s5,2.24,5,5v93.49c0,2.76-2.24,5-5,5Z"/>
      </g>
    </g>
  </g>
</svg>