<?xml version="1.0" encoding="UTF-8"?>
<svg id="_レイヤー_2" data-name="レイヤー 2" xmlns="http://www.w3.org/2000/svg" viewBox="0 0 544.56 478.12">
  <g id="_レイヤー_2-2" data-name="レイヤー 2">
    <g>
      <g>
        <path d="M336.99,205.45c-2.57,0-5.02-.99-6.89-2.78-3.15-2.99-3.98-7.64-2.06-11.56l9.33-19.14c-32.14-14.55-52.65-46.2-52.65-81.94,0-49.65,40.39-90.03,90.03-90.03h79.77c49.65,0,90.03,40.39,90.03,90.03s-40.39,90.03-90.03,90.03h-68.2l-44.59,24.16c-1.38.78-3.05,1.22-4.74,1.22ZM374.75,9c-44.68,0-81.03,36.35-81.03,81.03,0,33.64,20.18,63.26,51.42,75.45,1.17.46,2.1,1.38,2.56,2.55.46,1.17.4,2.48-.15,3.61l-11.41,23.42c-.19.38-.11.81.19,1.09.47.45.82.33,1.05.2l45.67-24.75c.66-.36,1.4-.54,2.14-.54h69.34c44.68,0,81.03-36.35,81.03-81.03S499.2,9,454.52,9h-79.77Z"/>
        <g>
          <path d="M465.21,74.8h-101.16c-2.49,0-4.5-2.01-4.5-4.5s2.01-4.5,4.5-4.5h101.16c2.49,0,4.5,2.01,4.5,4.5s-2.01,4.5-4.5,4.5Z"/>
          <path d="M433.05,114.27h-68.99c-2.49,0-4.5-2.01-4.5-4.5s2.01-4.5,4.5-4.5h68.99c2.49,0,4.5,2.01,4.5,4.5s-2.01,4.5-4.5,4.5Z"/>
        </g>
      </g>
      <g>
        <path d="M263.11,478.12H80.24c-22.26,0-40.36-18.11-40.36-40.36v-182.87c0-22.26,18.11-40.36,40.36-40.36h182.87c22.26,0,40.36,18.11,40.36,40.36v182.87c0,22.26-18.11,40.36-40.36,40.36ZM80.24,223.52c-17.29,0-31.36,14.07-31.36,31.36v182.87c0,17.29,14.07,31.36,31.36,31.36h182.87c17.29,0,31.36-14.07,31.36-31.36v-182.87c0-17.29-14.07-31.36-31.36-31.36H80.24Z"/>
        <path d="M171.67,223.52c-2.49,0-4.5-2.01-4.5-4.5v-22.36c0-2.49,2.01-4.5,4.5-4.5s4.5,2.01,4.5,4.5v22.36c0,2.49-2.01,4.5-4.5,4.5Z"/>
        <path d="M171.67,197.97c-22.04,0-39.96-17.93-39.96-39.96s17.93-39.96,39.96-39.96,39.96,17.93,39.96,39.96-17.93,39.96-39.96,39.96ZM171.67,127.05c-17.07,0-30.96,13.89-30.96,30.96s13.89,30.96,30.96,30.96,30.96-13.89,30.96-30.96-13.89-30.96-30.96-30.96Z"/>
        <g>
          <path d="M115.28,336.31c-14.92,0-27.05-12.14-27.05-27.05s12.14-27.05,27.05-27.05,27.05,12.14,27.05,27.05-12.14,27.05-27.05,27.05ZM115.28,291.2c-9.95,0-18.05,8.1-18.05,18.05s8.1,18.05,18.05,18.05,18.05-8.1,18.05-18.05-8.1-18.05-18.05-18.05Z"/>
          <path d="M228.07,336.31c-14.92,0-27.05-12.14-27.05-27.05s12.14-27.05,27.05-27.05,27.05,12.14,27.05,27.05-12.14,27.05-27.05,27.05ZM228.07,291.2c-9.95,0-18.05,8.1-18.05,18.05s8.1,18.05,18.05,18.05,18.05-8.1,18.05-18.05-8.1-18.05-18.05-18.05Z"/>
        </g>
        <path d="M301.79,387.88c-2.49,0-4.5-2.01-4.5-4.5s2.01-4.5,4.5-4.5c17.95,0,32.56-14.61,32.56-32.56s-14.61-32.56-32.56-32.56c-2.49,0-4.5-2.01-4.5-4.5s2.01-4.5,4.5-4.5c22.92,0,41.56,18.64,41.56,41.56s-18.64,41.56-41.56,41.56Z"/>
        <path d="M41.56,387.88c-22.92,0-41.56-18.64-41.56-41.56s18.64-41.56,41.56-41.56c2.49,0,4.5,2.01,4.5,4.5s-2.01,4.5-4.5,4.5c-17.96,0-32.56,14.61-32.56,32.56s14.61,32.56,32.56,32.56c2.49,0,4.5,2.01,4.5,4.5s-2.01,4.5-4.5,4.5Z"/>
        <path d="M171.67,417.22c-21.96,0-41.62-11.35-52.6-30.37l7.79-4.5c9.35,16.2,26.1,25.87,44.81,25.87s35.45-9.67,44.81-25.87c1.24-2.15,3.99-2.89,6.15-1.65,2.15,1.24,2.89,3.99,1.65,6.15-10.98,19.02-30.64,30.37-52.6,30.37Z"/>
      </g>
    </g>
  </g>
</svg>