<?xml version="1.0" encoding="UTF-8"?>
<svg id="_レイヤー_2" data-name="レイヤー 2" xmlns="http://www.w3.org/2000/svg" viewBox="0 0 478.21 347.22">
  <g id="_レイヤー_2-2" data-name="レイヤー 2">
    <g>
      <g>
        <path d="M471.9,69.48c-2.76,0-5-2.24-5-5V11.49c0-2.76,2.24-5,5-5s5,2.24,5,5v53c0,2.76-2.24,5-5,5Z"/>
        <path d="M432.71,69.48h-4.09c-8.02,0-14.54-6.53-14.54-14.55V21.03c0-8.02,6.52-14.55,14.54-14.55h4.09c8.02,0,14.54,6.52,14.54,14.55v33.91c0,8.02-6.52,14.55-14.54,14.55ZM428.62,16.49c-2.51,0-4.54,2.04-4.54,4.55v33.91c0,2.51,2.04,4.55,4.54,4.55h4.09c2.51,0,4.54-2.04,4.54-4.55V21.03c0-2.51-2.04-4.55-4.54-4.55h-4.09Z"/>
        <path d="M389.5,69.48c-2.76,0-5-2.24-5-5V11.49c0-2.76,2.24-5,5-5s5,2.24,5,5v53c0,2.76-2.24,5-5,5Z"/>
        <path d="M350.31,69.48h-4.09c-8.02,0-14.54-6.53-14.54-14.55V21.03c0-8.02,6.52-14.55,14.54-14.55h4.09c8.02,0,14.55,6.52,14.55,14.55v33.91c0,8.02-6.53,14.55-14.55,14.55ZM346.22,16.49c-2.51,0-4.54,2.04-4.54,4.55v33.91c0,2.51,2.04,4.55,4.54,4.55h4.09c2.51,0,4.55-2.04,4.55-4.55V21.03c0-2.51-2.04-4.55-4.55-4.55h-4.09Z"/>
        <path d="M337.99,159.75c-2.76,0-5-2.24-5-5v-53c0-2.76,2.24-5,5-5s5,2.24,5,5v53c0,2.76-2.24,5-5,5Z"/>
        <path d="M381.26,159.75h-4.09c-8.02,0-14.55-6.52-14.55-14.55v-33.91c0-8.02,6.52-14.55,14.55-14.55h4.09c8.02,0,14.55,6.53,14.55,14.55v33.91c0,8.02-6.53,14.55-14.55,14.55ZM377.17,106.75c-2.51,0-4.55,2.04-4.55,4.55v33.91c0,2.51,2.04,4.55,4.55,4.55h4.09c2.51,0,4.55-2.04,4.55-4.55v-33.91c0-2.51-2.04-4.55-4.55-4.55h-4.09Z"/>
        <path d="M420.38,159.75c-2.76,0-5-2.24-5-5v-53c0-2.76,2.24-5,5-5s5,2.24,5,5v53c0,2.76-2.24,5-5,5Z"/>
        <path d="M463.66,159.75h-4.09c-8.02,0-14.55-6.52-14.55-14.55v-33.91c0-8.02,6.53-14.55,14.55-14.55h4.09c8.02,0,14.55,6.53,14.55,14.55v33.91c0,8.02-6.52,14.55-14.55,14.55ZM459.57,106.75c-2.51,0-4.55,2.04-4.55,4.55v33.91c0,2.51,2.04,4.55,4.55,4.55h4.09c2.51,0,4.55-2.04,4.55-4.55v-33.91c0-2.51-2.04-4.55-4.55-4.55h-4.09Z"/>
        <path d="M463.66,341.69h-4.09c-8.02,0-14.55-6.52-14.55-14.55v-33.91c0-8.02,6.53-14.55,14.55-14.55h4.09c8.02,0,14.55,6.53,14.55,14.55v33.91c0,8.02-6.52,14.55-14.55,14.55ZM459.57,288.7c-2.51,0-4.55,2.04-4.55,4.55v33.91c0,2.51,2.04,4.55,4.55,4.55h4.09c2.51,0,4.55-2.04,4.55-4.55v-33.91c0-2.51-2.04-4.55-4.55-4.55h-4.09Z"/>
        <path d="M471.9,250.01c-2.76,0-5-2.24-5-5v-53c0-2.76,2.24-5,5-5s5,2.24,5,5v53c0,2.76-2.24,5-5,5Z"/>
        <path d="M432.71,250.01h-4.09c-8.02,0-14.54-6.52-14.54-14.55v-33.91c0-8.02,6.52-14.55,14.54-14.55h4.09c8.02,0,14.54,6.53,14.54,14.55v33.91c0,8.02-6.52,14.55-14.54,14.55ZM428.62,197.02c-2.51,0-4.54,2.04-4.54,4.55v33.91c0,2.51,2.04,4.55,4.54,4.55h4.09c2.51,0,4.54-2.04,4.54-4.55v-33.91c0-2.51-2.04-4.55-4.54-4.55h-4.09Z"/>
      </g>
      <g>
        <path d="M6.31,69.48c-2.76,0-5-2.24-5-5V11.49c0-2.76,2.24-5,5-5s5,2.24,5,5v53c0,2.76-2.24,5-5,5Z"/>
        <path d="M49.59,69.48h-4.09c-8.02,0-14.54-6.53-14.54-14.55V21.03c0-8.02,6.52-14.55,14.54-14.55h4.09c8.02,0,14.55,6.52,14.55,14.55v33.91c0,8.02-6.53,14.55-14.55,14.55ZM45.5,16.49c-2.51,0-4.54,2.04-4.54,4.55v33.91c0,2.51,2.04,4.55,4.54,4.55h4.09c2.51,0,4.55-2.04,4.55-4.55V21.03c0-2.51-2.04-4.55-4.55-4.55h-4.09Z"/>
        <path d="M88.71,69.48c-2.76,0-5-2.24-5-5V11.49c0-2.76,2.24-5,5-5s5,2.24,5,5v53c0,2.76-2.24,5-5,5Z"/>
        <path d="M131.99,69.48h-4.09c-8.02,0-14.54-6.53-14.54-14.55V21.03c0-8.02,6.52-14.55,14.54-14.55h4.09c8.02,0,14.54,6.52,14.54,14.55v33.91c0,8.02-6.52,14.55-14.54,14.55ZM127.89,16.49c-2.51,0-4.54,2.04-4.54,4.55v33.91c0,2.51,2.04,4.55,4.54,4.55h4.09c2.51,0,4.54-2.04,4.54-4.55V21.03c0-2.51-2.04-4.55-4.54-4.55h-4.09Z"/>
        <path d="M140.22,159.75c-2.76,0-5-2.24-5-5v-53c0-2.76,2.24-5,5-5s5,2.24,5,5v53c0,2.76-2.24,5-5,5Z"/>
        <path d="M101.03,159.75h-4.09c-8.02,0-14.54-6.52-14.54-14.55v-33.91c0-8.02,6.52-14.55,14.54-14.55h4.09c8.02,0,14.55,6.53,14.55,14.55v33.91c0,8.02-6.52,14.55-14.55,14.55ZM96.94,106.75c-2.51,0-4.54,2.04-4.54,4.55v33.91c0,2.51,2.04,4.55,4.54,4.55h4.09c2.51,0,4.55-2.04,4.55-4.55v-33.91c0-2.51-2.04-4.55-4.55-4.55h-4.09Z"/>
        <path d="M57.82,159.75c-2.76,0-5-2.24-5-5v-53c0-2.76,2.24-5,5-5s5,2.24,5,5v53c0,2.76-2.24,5-5,5Z"/>
        <path d="M18.64,159.75h-4.09c-8.02,0-14.55-6.52-14.55-14.55v-33.91c0-8.02,6.52-14.55,14.55-14.55h4.09c8.02,0,14.55,6.53,14.55,14.55v33.91c0,8.02-6.53,14.55-14.55,14.55ZM14.55,106.75c-2.51,0-4.55,2.04-4.55,4.55v33.91c0,2.51,2.04,4.55,4.55,4.55h4.09c2.51,0,4.55-2.04,4.55-4.55v-33.91c0-2.51-2.04-4.55-4.55-4.55h-4.09Z"/>
        <path d="M18.64,341.69h-4.09c-8.02,0-14.55-6.52-14.55-14.55v-33.91c0-8.02,6.52-14.55,14.55-14.55h4.09c8.02,0,14.55,6.53,14.55,14.55v33.91c0,8.02-6.53,14.55-14.55,14.55ZM14.55,288.7c-2.51,0-4.55,2.04-4.55,4.55v33.91c0,2.51,2.04,4.55,4.55,4.55h4.09c2.51,0,4.55-2.04,4.55-4.55v-33.91c0-2.51-2.04-4.55-4.55-4.55h-4.09Z"/>
        <path d="M6.31,250.01c-2.76,0-5-2.24-5-5v-53c0-2.76,2.24-5,5-5s5,2.24,5,5v53c0,2.76-2.24,5-5,5Z"/>
        <path d="M49.59,250.01h-4.09c-8.02,0-14.54-6.52-14.54-14.55v-33.91c0-8.02,6.52-14.55,14.54-14.55h4.09c8.02,0,14.55,6.53,14.55,14.55v33.91c0,8.02-6.53,14.55-14.55,14.55ZM45.5,197.02c-2.51,0-4.54,2.04-4.54,4.55v33.91c0,2.51,2.04,4.55,4.54,4.55h4.09c2.51,0,4.55-2.04,4.55-4.55v-33.91c0-2.51-2.04-4.55-4.55-4.55h-4.09Z"/>
      </g>
      <g>
        <g>
          <path d="M238.1,208c-17.45,0-33.86-6.8-46.2-19.14l6.36-6.36c10.64,10.64,24.79,16.5,39.84,16.5s29.2-5.86,39.84-16.5c1.76-1.76,4.61-1.76,6.36,0,1.76,1.76,1.76,4.61,0,6.36-12.34,12.34-28.75,19.14-46.2,19.14Z"/>
          <path d="M238.1,171.6c-11.39,0-22.51-4.02-32.15-11.63-10.85-8.56-19.5-21.41-24.56-36.46-2.03-.31-4.02-1.14-5.9-2.46-4.84-3.41-8.43-9.89-9.6-17.34-2-12.65,3.38-23.96,12.23-25.75,1.11-.23,2.28-.29,3.45-.19,2.47.22,4.3,2.41,4.07,4.89-.22,2.47-2.39,4.3-4.89,4.07-.29-.03-.57-.01-.83.04-3.48.7-6.41,7.49-5.14,15.53.79,5.02,3.04,9.37,5.88,11.37,1.12.79,2.19,1.1,3.17.91,2.27-.44,4.5.92,5.16,3.14,4.35,14.66,12.35,27.15,22.52,35.17,8.04,6.34,17.23,9.69,26.58,9.69s18.54-3.35,26.59-9.69c10.17-8.02,18.17-20.51,22.52-35.17.66-2.22,2.88-3.58,5.16-3.14.98.19,2.05-.12,3.17-.91,2.85-2,5.1-6.36,5.88-11.37,1.27-8.05-1.66-14.84-5.12-15.53-.28-.06-.57-.07-.85-.05-2.5.23-4.67-1.6-4.89-4.07-.22-2.48,1.6-4.66,4.07-4.89,1.17-.11,2.33-.04,3.46.19,8.83,1.78,14.21,13.09,12.21,25.75-1.17,7.44-4.75,13.93-9.6,17.33-1.88,1.32-3.88,2.15-5.9,2.46-5.07,15.04-13.71,27.9-24.56,36.46-9.65,7.61-20.77,11.63-32.16,11.63Z"/>
          <path d="M303.23,77.81c-2.29,0-4.24-1.73-4.47-4.06-4.25-42.97-24.32-64.76-59.66-64.76s-55.39,21.79-59.65,64.76c-.25,2.47-2.43,4.28-4.92,4.03-2.47-.24-4.28-2.45-4.04-4.92,2.16-21.8,8.43-39.08,18.63-51.38C200.97,7.23,217.78,0,239.1,0s38.14,7.23,49.98,21.5c10.21,12.3,16.48,29.58,18.63,51.38.24,2.47-1.56,4.68-4.04,4.92-.15.02-.3.02-.45.02Z"/>
          <path d="M209.06,61.49c-2.91,0-5.62-.08-8.08-.2-2.48-.12-4.4-2.23-4.28-4.71.12-2.48,2.25-4.4,4.71-4.28,11.92.58,29.88.08,47.69-5.58,6.34-2.01,12.19-4.54,17.38-7.51,2.16-1.23,4.91-.48,6.14,1.67,1.23,2.16.48,4.91-1.67,6.14-5.75,3.28-12.18,6.07-19.12,8.27-15.37,4.89-30.76,6.19-42.78,6.19Z"/>
          <path d="M295.23,86.64c-.9,0-1.8-.27-2.59-.83-8.26-5.84-15.36-14.43-21.09-25.52-2.48-4.81-4.7-10.1-6.59-15.73-.79-2.36.48-4.91,2.83-5.7,2.36-.79,4.91.47,5.7,2.83,1.75,5.2,3.79,10.07,6.06,14.47,5.06,9.8,11.21,17.3,18.28,22.3,2.03,1.43,2.51,4.24,1.08,6.27-.88,1.24-2.27,1.9-3.68,1.9Z"/>
          <path d="M180.69,86.64c-1.71,0-3.34-.98-4.1-2.63-1.03-2.26-.04-4.93,2.23-5.96,3.83-1.75,10.85-5.84,14.87-13.65,1.22-2.36,2.08-4.91,2.58-7.58.45-2.44,2.8-4.06,5.24-3.61,2.44.45,4.06,2.8,3.61,5.24-.65,3.53-1.81,6.92-3.42,10.06-3.9,7.58-10.7,13.87-19.14,17.72-.61.28-1.24.41-1.86.41Z"/>
        </g>
        <path d="M366.22,335.85c-1.25,0-2.5-.52-3.39-1.54-1.64-1.87-1.45-4.71.42-6.35l7.71-6.75c10.91-9.55,17.17-23.35,17.17-37.86v-15.68c0-18.43-9.49-36.36-26.73-50.49-17.48-14.32-41.79-23.93-68.48-27.05-13.91-1.63-24.97-11.62-26.9-24.31l-1.35-8.91c-.37-2.46,1.32-4.75,3.78-5.12,2.45-.37,4.75,1.32,5.12,3.78l1.35,8.91c1.32,8.68,9.15,15.56,19.04,16.72,59.71,6.99,103.07,43.29,103.16,86.34v15.81c0,17.1-7.38,33.37-20.25,44.63l-7.71,6.75c-.85.75-1.91,1.11-2.96,1.11Z"/>
        <path d="M109.99,335.85c-1.05,0-2.11-.37-2.96-1.11l-7.71-6.75c-12.87-11.26-20.25-27.53-20.25-44.63v-15.81c.09-43.05,43.45-79.36,103.16-86.34,9.9-1.16,17.73-8.03,19.04-16.72l1.35-8.91c.37-2.46,2.67-4.15,5.12-3.77,2.46.37,4.15,2.67,3.77,5.12l-1.35,8.91c-1.92,12.68-12.98,22.68-26.9,24.31-26.68,3.12-51,12.73-68.47,27.05-17.24,14.13-26.73,32.06-26.73,50.49v15.68c0,14.5,6.26,28.3,17.17,37.86l7.71,6.75c1.87,1.64,2.06,4.48.42,6.35-.89,1.02-2.14,1.54-3.39,1.54Z"/>
        <path d="M338.12,336.41c-.1,0-.21,0-.31-.01-2.48-.17-4.35-2.32-4.18-4.8l7.24-105.5h-205.52l7.24,105.5c.17,2.48-1.7,4.63-4.18,4.8-2.47.17-4.63-1.7-4.8-4.18l-7.57-110.31c-.09-1.24.35-2.47,1.2-3.38.85-.91,2.04-1.43,3.29-1.43h215.16c1.25,0,2.44.52,3.29,1.43.85.91,1.29,2.14,1.2,3.38l-7.57,110.31c-.16,2.37-2.14,4.19-4.48,4.19Z"/>
        <path d="M408.84,347.22H66.98c-2.49,0-4.5-2.01-4.5-4.5s2.01-4.5,4.5-4.5h341.87c2.49,0,4.5,2.01,4.5,4.5s-2.01,4.5-4.5,4.5Z"/>
      </g>
    </g>
  </g>
</svg>