<?xml version="1.0" encoding="UTF-8"?><svg id="_レイヤー_2" xmlns="http://www.w3.org/2000/svg" xmlns:xlink="http://www.w3.org/1999/xlink" viewBox="0 0 294.08 461.58"><defs><style>.cls-1{fill:none;}.cls-2{fill:#c98959;}.cls-2,.cls-3,.cls-4,.cls-5,.cls-6,.cls-7,.cls-8,.cls-9,.cls-10,.cls-11,.cls-12,.cls-13,.cls-14,.cls-15,.cls-16,.cls-17,.cls-18{fill-rule:evenodd;}.cls-3{fill:#fff;}.cls-4{fill:#432a12;}.cls-5{fill:#d49464;}.cls-6{fill:#284879;}.cls-19{fill:url(#_名称未設定グラデーション_2);}.cls-7{fill:#e2a06f;}.cls-8{fill:#d1bda9;}.cls-9{fill:#070707;}.cls-20{clip-path:url(#clippath-1);}.cls-21{clip-path:url(#clippath-3);}.cls-22{clip-path:url(#clippath-2);}.cls-10{fill:#163059;}.cls-12{fill:#102341;}.cls-13{fill:#900;}.cls-14{fill:#181818;}.cls-15{fill:#92501f;}.cls-16{fill:#e5e5e5;}.cls-23{fill:url(#_名称未設定グラデーション);}.cls-17{fill:#e7b895;}.cls-18{fill:#e1a170;}.cls-24{clip-path:url(#clippath);}</style><clipPath id="clippath"><rect class="cls-1" width="294.08" height="461.58"/></clipPath><clipPath id="clippath-1"><path class="cls-1" d="M23.84,83.83l157.01,58.72-4.84,168.77,89.15-68.57,20.26-181.25L129.91,22.8c-1-.03-1.99-.05-2.99-.05-34.33,0-68.69,20.36-103.08,61.07h0Z"/></clipPath><linearGradient id="_名称未設定グラデーション" x1="-966.1" y1="722.74" x2="-966.08" y2="722.74" gradientTransform="translate(252707.43 208724.38) scale(261.58 -288.57)" gradientUnits="userSpaceOnUse"><stop offset="0" stop-color="#cd824b"/><stop offset="1" stop-color="#b0652e"/></linearGradient><clipPath id="clippath-2"><polygon class="cls-1" points="49.97 254.82 95.19 289.55 176 311.32 180.84 142.55 23.84 83.83 49.97 254.82"/></clipPath><linearGradient id="_名称未設定グラデーション_2" x1="-964.49" y1="722.5" x2="-964.46" y2="722.5" gradientTransform="translate(151431.06 164559.81) scale(157.01 -227.49)" gradientUnits="userSpaceOnUse"><stop offset="0" stop-color="#f3c89f"/><stop offset=".01" stop-color="#f3c89f"/><stop offset="1" stop-color="#dd9866"/></linearGradient><clipPath id="clippath-3"><rect class="cls-1" width="294.08" height="461.58"/></clipPath></defs><g id="_レイヤー_1-2"><g id="_グループ_9868"><path id="_パス_14369" d="M162.25,455.53l3.34,5.64,5.32.4,12.8-3.9,8.9-25.59-22.73-1.43-7.64,24.87ZM102.42,429l-8.98,5.96.16,4.13,10.97.95,20.74-6.51-2.07-13.43-13.58-.87-7.23,9.77Z"/><path id="_パス_14370" class="cls-14" d="M183.39,445.6l-18.28-9.06,2.74-6.24-4.65-14.34-6.75-26.46-27.73-11.21-16.85-7.23-.8-6.04,6.04,55.3-1.66,10.18-11.76-2.87,3.34-11.36-8.66-34.09-5.24-27.49,1.27-4.29,3.97-2.46,76.04,27.25,8.82,66.43.16,3.97Z"/><path id="_パス_14371" class="cls-9" d="M128.73,378.3l-.24,51.01-13.03,1.19,1.67-10.17-6.04-55.3.8,6.04,16.85,7.22ZM183.39,445.6l-.16-3.97-8.82-66.42,28.61-18.44-7.95,72.59-11.68,16.25Z"/><g id="_グループ_9814"><g class="cls-24"><g id="_グループ_9813"><path id="_パス_14372" class="cls-10" d="M169.57,399.36c-1.27-12.45-2.33-22.7-3.18-30.75l5.24-52.21,46.25-41.55-12.24,68.18,2.62,35.04-38.7,21.3ZM103.93,296.94l.48,55.7.08,10.09.08,10.01-18.51-4.53,5.01-27.33-4.21-58.8,17,9.69.08,5.17Z"/><path id="_パス_14373" class="cls-3" d="M103.93,296.94l-.08-5.17,17.25,11.76-4.53,5.16-1.43,1.6-8.98-10.65-2.23-2.71ZM132.93,315.85l-2.54.24-1.19-10.01,21.61,3.26v4.37l-17.88,2.15Z"/><path id="_パス_14374" class="cls-8" d="M107.9,353.67l-3.5-1.03-.48-55.7,2.23,2.7,1.75,54.03ZM123.4,305.12l-4.45,7.63-2.39-4.05,4.53-5.17,2.31,1.59ZM150.81,315.13l-17.16,4.05-.72-3.33,17.88-2.15v1.43Z"/><path id="_パス_14375" class="cls-12" d="M217.87,274.85l-46.24,41.56-20.81-7.07-21.62-3.26-5.72-.88-.08-.08-2.3-1.59-17.25-11.77-17-9.69,42.99-29.23,88.04,22.01Z"/><path id="_パス_14376" class="cls-16" d="M123.4,305.12l.08.08,5.72.88,1.19,10.01,2.54-.24.72,3.33,17.16-4.05v51.49l-42.91-12.95-1.75-54.03,8.97,10.65,1.43-1.59,2.38,4.05,4.45-7.63Z"/><path id="_パス_14377" class="cls-6" d="M150.81,366.62v-57.29l20.82,7.07-5.25,52.2c.85,8.05,1.91,18.3,3.18,30.75l-18.75-7.23v-25.51Z"/><path id="_パス_14378" class="cls-9" d="M104.49,362.73l-.08-10.09,3.5,1.04,42.9,12.95v9.54l-46.32-13.43Z"/></g></g></g><g id="_グループ_9816"><g class="cls-20"><g id="_グループ_9815"><rect id="_長方形_3551" class="cls-23" x="23.84" y="22.75" width="261.58" height="288.57"/></g></g></g><g id="_グループ_9818"><g class="cls-22"><g id="_グループ_9817"><rect id="_長方形_3552" class="cls-19" x="23.84" y="83.83" width="157.01" height="227.49"/></g></g></g><g id="_グループ_9820"><g class="cls-21"><g id="_グループ_9819"><path id="_パス_14381" class="cls-4" d="M83.59,160.26l-37.43,1.99-.56-13.82,36.67-5.25,1.32,17.08ZM174.41,166.86l-5.16,11.28-49.27-13.82,6.44-15.1,47.99,17.64Z"/><path id="_パス_14382" class="cls-3" d="M166.54,210.01l4.53,33.85-55.54-24.08,6.04-25.1,44.98,15.33ZM89.31,211.36l-39.09-13.27,6.99-25.35,33.53,11.44-1.43,27.18Z"/><path id="_パス_14383" class="cls-11" d="M73.42,196.18c.94,1.08,1.45,2.46,1.43,3.89.04,1.43-.47,2.83-1.43,3.89-1.38,1.84-4,2.22-5.84.83-.32-.24-.6-.52-.83-.83-.96-1.07-1.47-2.46-1.43-3.89-.02-1.43.49-2.81,1.43-3.89,1.49-1.84,4.18-2.13,6.03-.65.24.19.45.41.65.65"/><path id="_パス_14384" class="cls-11" d="M118.55,221.84c-.96-1.06-1.48-2.46-1.44-3.89-.02-1.43.49-2.81,1.43-3.89,1.49-1.84,4.18-2.13,6.03-.65.24.19.45.41.65.65.94,1.08,1.45,2.46,1.43,3.89.04,1.43-.47,2.83-1.43,3.89-1.38,1.84-3.99,2.22-5.83.84-.32-.24-.6-.52-.84-.84"/><path id="_パス_14385" class="cls-11" d="M232.5,217.95l-23.04,6.28.04-11.45,24.68-4.21-1.67,9.38ZM46.96,115.81l-3.14,9.54-11.4-12.75L0,80.73l25.51-1.47-17.32-16.06,21.22,2.95L120.38,0l173.69,44.81-27.49,184.42-.72,2.62-15.81-58.4h-8.81l-4.38,4.46-3.02,27.57h-24.36l.12-69.37-21.38,2.54-141.27-22.85Z"/><path id="_パス_14386" class="cls-18" d="M257.03,178.15c4.31,4.31,6.1,9.23,5.37,14.77-.62,5.48-3.53,9.98-8.73,13.51-4.36,3.03-9.54,4.66-14.85,4.7l1.1-34.66c8.22-2.13,13.93-1.57,17.12,1.68"/><path id="_パス_14387" class="cls-15" d="M95.03,258.08l20.58,3.1,8.58-3.25,1.19,2.46-9.69,3.34-20.66-4.06v-1.59Z"/><path id="_パス_14388" class="cls-17" d="M196.33,402.01l-7.68-1.18-3.18-3.18,3.18-23.28,9.16,1.77-1.48,25.87Z"/><path id="_パス_14389" class="cls-2" d="M188.65,374.37l13.45-10.34,8.87,1.62,1.77,23.2-16.41,13.16,1.48-25.87-9.16-1.77Z"/><path id="_パス_14390" class="cls-5" d="M191.74,381.55l4.2-5.47-.46,7.83-2.49,6.69-3.25,1.71,1.99-10.75Z"/><path id="_パス_14391" class="cls-17" d="M187.14,379.66l4.6,1.89-1.99,10.76-4.1-2.11,1.49-10.55Z"/><path id="_パス_14392" class="cls-7" d="M195.94,376.08l-4.2,5.47-4.61-1.89,4.2-5.79,4.61,2.2Z"/><path id="_パス_14393" class="cls-6" d="M199.12,386.17l-13.43-6.92,3.58-37.66-10.41-29.4,15.26,4.93,5.48,24.47-.47,44.58Z"/><path id="_パス_14394" class="cls-10" d="M178.86,312.2l19.55-15.34,10.57,3.42,5.8,35.75-2.14,38.3-13.51,11.84.48-44.58-5.48-24.47-15.26-4.93Z"/><path id="_パス_14395" class="cls-13" d="M127.57,307.07l1.78,8.3-3.77,3.1,5.4,38.5-9.73,7.59-7.98-11.96,6.99-36.35-2.47-3.7,3.62-6.87,6.16,1.39Z"/></g></g></g></g></g></svg>