<?xml version="1.0" encoding="UTF-8"?>
<svg id="_レイヤー_2" data-name="レイヤー 2" xmlns="http://www.w3.org/2000/svg" viewBox="0 0 547.39 384.95">
  <g id="_レイヤー_2-2" data-name="レイヤー 2">
    <g>
      <g>
        <g>
          <path d="M477.02,299.78c-2.49,0-4.5-2.01-4.5-4.5V46.13c0-8.04-6.54-14.57-14.57-14.57h-2.96c-2.49,0-4.5-2.01-4.5-4.5s2.01-4.5,4.5-4.5h2.96c13,0,23.57,10.57,23.57,23.57v249.14c0,2.49-2.01,4.5-4.5,4.5Z"/>
          <path d="M70.37,299.78c-2.49,0-4.5-2.01-4.5-4.5V46.13c0-13,10.58-23.57,23.57-23.57h268.61c2.49,0,4.5,2.01,4.5,4.5s-2.01,4.5-4.5,4.5H89.44c-8.04,0-14.57,6.54-14.57,14.57v249.14c0,2.49-2.01,4.5-4.5,4.5Z"/>
          <path d="M477.02,71.66h-22.03c-2.49,0-4.5-2.01-4.5-4.5s2.01-4.5,4.5-4.5h22.03c2.49,0,4.5,2.01,4.5,4.5s-2.01,4.5-4.5,4.5Z"/>
          <path d="M326.09,71.66H70.37c-2.49,0-4.5-2.01-4.5-4.5s2.01-4.5,4.5-4.5h255.73c2.49,0,4.5,2.01,4.5,4.5s-2.01,4.5-4.5,4.5Z"/>
        </g>
        <path d="M536.66,384.95H10.73c-4.48,0-8.4-2.19-9.99-5.59-1.29-2.76-.86-5.86,1.16-8.28l65.13-78.23c.85-1.03,2.12-1.62,3.46-1.62h406.42c1.34,0,2.6.59,3.46,1.62l65.13,78.23c2.02,2.42,2.45,5.52,1.16,8.28-1.59,3.39-5.51,5.59-9.99,5.59ZM9.66,375.82c.28.07.64.13,1.07.13h525.93c.43,0,.79-.05,1.07-.13l-62.93-75.59H72.59l-62.93,75.59Z"/>
        <path d="M349.45,356.71h-151.72c-2.49,0-4.5-2.01-4.5-4.5s2.01-4.5,4.5-4.5h151.72c2.49,0,4.5,2.01,4.5,4.5s-2.01,4.5-4.5,4.5Z"/>
      </g>
      <g>
        <g>
          <path d="M298.46,263.05H116.04c-2.48,0-4.5-2.01-4.5-4.5l-.15-157.98c0-1.76,1.03-3.36,2.63-4.1,1.6-.73,3.48-.46,4.82.69l182.57,157.98c1.42,1.23,1.93,3.21,1.27,4.97-.66,1.76-2.34,2.93-4.22,2.93ZM120.54,254.05h165.85L120.4,110.42l.13,143.63Z"/>
          <path d="M220.15,233.87h-74.96c-2.48,0-4.5-2.01-4.5-4.5l-.06-64.92c0-1.76,1.03-3.36,2.63-4.1,1.6-.73,3.49-.46,4.82.69l75.02,64.92c1.42,1.23,1.93,3.21,1.27,4.97-.66,1.76-2.34,2.93-4.22,2.93ZM149.69,224.87h58.39l-58.43-50.56.05,50.56Z"/>
        </g>
        <path d="M263.81,262.8c-2.49,0-4.5-2.01-4.5-4.5v-13c0-2.49,2.01-4.5,4.5-4.5s4.5,2.01,4.5,4.5v13c0,2.49-2.01,4.5-4.5,4.5Z"/>
        <path d="M243.04,262.8c-2.49,0-4.5-2.01-4.5-4.5v-13c0-2.49,2.01-4.5,4.5-4.5s4.5,2.01,4.5,4.5v13c0,2.49-2.01,4.5-4.5,4.5Z"/>
        <path d="M222.27,262.8c-2.49,0-4.5-2.01-4.5-4.5v-13c0-2.49,2.01-4.5,4.5-4.5s4.5,2.01,4.5,4.5v13c0,2.49-2.01,4.5-4.5,4.5Z"/>
        <path d="M201.5,262.8c-2.49,0-4.5-2.01-4.5-4.5v-13c0-2.49,2.01-4.5,4.5-4.5s4.5,2.01,4.5,4.5v13c0,2.49-2.01,4.5-4.5,4.5Z"/>
        <path d="M180.73,262.8c-2.49,0-4.5-2.01-4.5-4.5v-13c0-2.49,2.01-4.5,4.5-4.5s4.5,2.01,4.5,4.5v13c0,2.49-2.01,4.5-4.5,4.5Z"/>
        <path d="M159.96,262.8c-2.49,0-4.5-2.01-4.5-4.5v-13c0-2.49,2.01-4.5,4.5-4.5s4.5,2.01,4.5,4.5v13c0,2.49-2.01,4.5-4.5,4.5Z"/>
        <path d="M139.19,262.8c-2.49,0-4.5-2.01-4.5-4.5v-13c0-2.49,2.01-4.5,4.5-4.5s4.5,2.01,4.5,4.5v13c0,2.49-2.01,4.5-4.5,4.5Z"/>
      </g>
      <g>
        <path d="M255.65,201.32c-1.12,0-2.22-.42-3.07-1.21-1.35-1.27-1.79-3.23-1.11-4.95l16.86-42.27c.21-.52.51-1,.89-1.41L391.99,20.2c.82-.87,1.94-1.38,3.14-1.42,1.18-.04,2.35.4,3.22,1.21l24.19,22.62c1.82,1.7,1.91,4.55.21,6.36l-122.76,131.28c-.38.41-.84.74-1.34.99l-41.04,19.65c-.62.3-1.28.44-1.94.44ZM276.38,157.01l-12.28,30.78,29.89-14.31,119.11-127.37-17.61-16.47-119.11,127.37ZM296.7,177.17h0,0Z"/>
        <path d="M432.78,62.95c-1.1,0-2.21-.4-3.07-1.21l-13.09-12.24c-1.82-1.7-1.91-4.55-.21-6.36,1.7-1.82,4.55-1.91,6.36-.21l13.09,12.24c1.82,1.7,1.91,4.55.21,6.36-.89.95-2.09,1.43-3.29,1.43Z"/>
        <path d="M396.59,101.65c-1.1,0-2.21-.4-3.07-1.21-1.82-1.7-1.91-4.55-.21-6.36l36.19-38.7c1.7-1.82,4.55-1.91,6.36-.21,1.82,1.7,1.91,4.55.21,6.36l-36.19,38.7c-.89.95-2.09,1.43-3.29,1.43Z"/>
        <path d="M425.47,37.98c-1.1,0-2.21-.4-3.07-1.21-1.82-1.7-1.91-4.55-.21-6.36l8.1-8.66-11.64-10.88-8.1,8.66c-1.7,1.82-4.55,1.91-6.36.21-1.82-1.7-1.91-4.55-.21-6.36l11.18-11.95c.82-.87,1.94-1.38,3.14-1.42,1.18-.04,2.35.4,3.22,1.21l18.21,17.03c.87.82,1.38,1.94,1.42,3.14.04,1.19-.4,2.35-1.21,3.22l-11.18,11.95c-.89.95-2.09,1.43-3.29,1.43Z"/>
      </g>
    </g>
  </g>
</svg>