<svg id="グループ_9523" data-name="グループ 9523" xmlns="http://www.w3.org/2000/svg" xmlns:xlink="http://www.w3.org/1999/xlink" width="55.277" height="53.26" viewBox="0 0 55.277 53.26">
  <defs>
    <clipPath id="clip-path">
      <rect id="長方形_23158" data-name="長方形 23158" width="55.277" height="53.26" fill="none"/>
    </clipPath>
  </defs>
  <rect id="長方形_23155" data-name="長方形 23155" width="16.347" height="2.101" transform="translate(7.365 25.813)" fill="#171714"/>
  <rect id="長方形_23156" data-name="長方形 23156" width="18.682" height="2.336" transform="translate(7.365 38.656)" fill="#171714"/>
  <rect id="長方形_23157" data-name="長方形 23157" width="18.682" height="2.102" transform="translate(7.365 32.351)" fill="#171714"/>
  <g id="グループ_9522" data-name="グループ 9522">
    <g id="グループ_9521" data-name="グループ 9521" clip-path="url(#clip-path)">
      <path id="パス_4713" data-name="パス 4713" d="M124.212,97.714l-3.6-6.252a1.113,1.113,0,0,1,.391-1.5,1.075,1.075,0,0,1,1.475.377l2.627,4.52,4.119-7.653a1.078,1.078,0,1,1,1.9,1.02l-5.033,9.462a1,1,0,0,1-1.882.029" transform="translate(-87.901 -63.213)" fill="#171714"/>
      <path id="パス_4714" data-name="パス 4714" d="M52.715,48.384c-.536.431-1.674.119-2.394-.885l-6.693-9.318-.015.011.015-.011c.233-.154,1.118-.855,1.324-1.044l7.5,8.68c.666.77.968,2.008.259,2.566M30.4,34.506a8.953,8.953,0,1,1,13.286.859A8.962,8.962,0,0,1,30.4,34.506m.152-14.269a11.123,11.123,0,0,0,.009,17.46V51.1H2.158V18.908l7.369-8.152v7.926H4.389v2.1h6.2a.992.992,0,0,0,1.043-1.009V10.114H30.562Zm.033,33.023a2.193,2.193,0,0,0,2.134-2.244V39.029A10.987,10.987,0,0,0,36.148,40V51.142h2.1v-11.1a11,11,0,0,0,2.8-.572v7.935h2.335V41.547l5.18,7.211c1.3,1.816,3.777,2.669,5.525,1.286,1.662-1.306,1.5-3.9-.007-5.637l-7.68-8.888a11.134,11.134,0,0,0-3.018-15.943V1.079A1.157,1.157,0,0,0,42.222,0H18.867V2.1H41.052V18.453a11.057,11.057,0,0,0-2.8-.572V5.392A1.163,1.163,0,0,0,37.19,4.2H13.729V6.539H36.148V17.923a10.883,10.883,0,0,0-3.428.974V10.205a2.194,2.194,0,0,0-2.134-2.244H9.774a1.123,1.123,0,0,0-.948.355L.649,17.364c-.728.805-.645.42-.645,2.65V39.027l0,0V51.016A2.194,2.194,0,0,0,2.135,53.26Z" fill="#171714"/>
    </g>
  </g>
</svg>
