<?xml version="1.0" encoding="UTF-8"?>
<svg id="_レイヤー_2" data-name="レイヤー 2" xmlns="http://www.w3.org/2000/svg" viewBox="0 0 382.07 421.39">
  <g id="_レイヤー_2-2" data-name="レイヤー 2">
    <g>
      <g>
        <path d="M155.81,394.92c-.76,0-1.54-.19-2.25-.6l-104.29-60.21c-2.15-1.24-2.89-3.99-1.65-6.15,1.24-2.15,3.99-2.89,6.15-1.65l104.29,60.21c2.15,1.24,2.89,3.99,1.65,6.15-.83,1.44-2.35,2.25-3.9,2.25Z"/>
        <path d="M16.76,274.49c-2.49,0-4.5-2.01-4.5-4.5v-120.42c0-2.49,2.01-4.5,4.5-4.5s4.5,2.01,4.5,4.5v120.42c0,2.49-2.01,4.5-4.5,4.5Z"/>
        <path d="M51.53,93.86c-1.56,0-3.07-.81-3.9-2.25-1.24-2.15-.51-4.9,1.65-6.15l104.29-60.21c2.15-1.24,4.9-.5,6.15,1.65,1.24,2.15.51,4.9-1.65,6.15l-104.29,60.21c-.71.41-1.48.6-2.25.6Z"/>
        <path d="M329.63,93.86c-.76,0-1.54-.19-2.25-.6l-104.29-60.21c-2.15-1.24-2.89-3.99-1.65-6.15,1.24-2.15,3.99-2.89,6.15-1.65l104.29,60.21c2.15,1.24,2.89,3.99,1.65,6.15-.83,1.44-2.35,2.25-3.9,2.25Z"/>
        <path d="M364.4,274.49c-2.49,0-4.5-2.01-4.5-4.5v-120.42c0-2.49,2.01-4.5,4.5-4.5s4.5,2.01,4.5,4.5v120.42c0,2.49-2.01,4.5-4.5,4.5Z"/>
        <path d="M225.35,394.92c-1.56,0-3.07-.81-3.9-2.25-1.24-2.15-.51-4.9,1.65-6.15l104.29-60.21c2.15-1.24,4.9-.5,6.15,1.65,1.24,2.15.51,4.9-1.65,6.15l-104.29,60.21c-.71.41-1.48.6-2.25.6Z"/>
        <path d="M191.95,421.39c-10.55,0-19.13-8.58-19.13-19.13s8.58-19.13,19.13-19.13,19.13,8.58,19.13,19.13-8.58,19.13-19.13,19.13ZM191.95,392.13c-5.59,0-10.13,4.54-10.13,10.13s4.54,10.13,10.13,10.13,10.13-4.54,10.13-10.13-4.54-10.13-10.13-10.13Z"/>
        <path d="M191.95,38.26c-10.55,0-19.13-8.58-19.13-19.13S181.4,0,191.95,0s19.13,8.58,19.13,19.13-8.58,19.13-19.13,19.13ZM191.95,9c-5.59,0-10.13,4.54-10.13,10.13s4.54,10.13,10.13,10.13,10.13-4.54,10.13-10.13-4.54-10.13-10.13-10.13Z"/>
        <path d="M362.94,128.78c-10.55,0-19.13-8.58-19.13-19.13s8.58-19.13,19.13-19.13,19.13,8.58,19.13,19.13-8.58,19.13-19.13,19.13ZM362.94,99.52c-5.59,0-10.13,4.54-10.13,10.13s4.54,10.13,10.13,10.13,10.13-4.54,10.13-10.13-4.54-10.13-10.13-10.13Z"/>
        <path d="M19.13,128.78c-10.55,0-19.13-8.58-19.13-19.13s8.58-19.13,19.13-19.13,19.13,8.58,19.13,19.13-8.58,19.13-19.13,19.13ZM19.13,99.52c-5.59,0-10.13,4.54-10.13,10.13s4.54,10.13,10.13,10.13,10.13-4.54,10.13-10.13-4.54-10.13-10.13-10.13Z"/>
        <path d="M362.94,329.03c-10.55,0-19.13-8.58-19.13-19.13s8.58-19.13,19.13-19.13,19.13,8.58,19.13,19.13-8.58,19.13-19.13,19.13ZM362.94,299.77c-5.59,0-10.13,4.54-10.13,10.13s4.54,10.13,10.13,10.13,10.13-4.54,10.13-10.13-4.54-10.13-10.13-10.13Z"/>
        <path d="M19.13,329.03c-10.55,0-19.13-8.58-19.13-19.13s8.58-19.13,19.13-19.13,19.13,8.58,19.13,19.13-8.58,19.13-19.13,19.13ZM19.13,299.77c-5.59,0-10.13,4.54-10.13,10.13s4.54,10.13,10.13,10.13,10.13-4.54,10.13-10.13-4.54-10.13-10.13-10.13Z"/>
        <path d="M191.03,366.52c-2.49,0-4.5-2.01-4.5-4.5v-58.52c0-2.49,2.01-4.5,4.5-4.5s4.5,2.01,4.5,4.5v58.52c0,2.49-2.01,4.5-4.5,4.5Z"/>
        <path d="M191.03,117.81c-2.49,0-4.5-2.01-4.5-4.5v-58.52c0-2.49,2.01-4.5,4.5-4.5s4.5,2.01,4.5,4.5v58.52c0,2.49-2.01,4.5-4.5,4.5Z"/>
        <g>
          <path d="M101.28,158.88c-.76,0-1.54-.19-2.25-.6l-50.68-29.26c-2.15-1.24-2.89-3.99-1.65-6.15,1.24-2.15,3.99-2.89,6.15-1.65l50.68,29.26c2.15,1.24,2.89,3.99,1.65,6.15-.83,1.44-2.35,2.25-3.9,2.25Z"/>
          <path d="M50.61,300.77c-1.56,0-3.07-.81-3.9-2.25-1.24-2.15-.51-4.9,1.65-6.15l50.68-29.26c2.15-1.24,4.9-.5,6.15,1.65,1.24,2.15.51,4.9-1.65,6.15l-50.68,29.26c-.71.41-1.48.6-2.25.6Z"/>
        </g>
        <g>
          <path d="M280.79,158.88c-1.56,0-3.07-.81-3.9-2.25-1.24-2.15-.51-4.9,1.65-6.15l50.68-29.26c2.15-1.24,4.91-.5,6.15,1.65,1.24,2.15.51,4.9-1.65,6.15l-50.68,29.26c-.71.41-1.48.6-2.25.6Z"/>
          <path d="M331.46,300.77c-.76,0-1.54-.19-2.25-.6l-50.68-29.26c-2.15-1.24-2.89-3.99-1.65-6.15,1.24-2.15,3.99-2.89,6.15-1.65l50.68,29.26c2.15,1.24,2.89,3.99,1.65,6.15-.83,1.44-2.35,2.25-3.9,2.25Z"/>
        </g>
      </g>
      <path d="M202.04,294.83h-19.56c-4.69,0-8.64-3.51-9.19-8.17l-1.83-15.49c-2.42-.71-4.79-1.56-7.1-2.54l-12.75,10.06c-3.68,2.91-8.96,2.6-12.28-.72l-13.84-13.84c-1.75-1.75-2.71-4.07-2.71-6.55,0-2.07.71-4.11,1.99-5.73l8.7-11.02c-1.49-2.65-2.78-5.4-3.87-8.23l-14.53-1.71c-4.66-.55-8.17-4.5-8.17-9.19v-19.57c0-4.69,3.51-8.64,8.17-9.19l12.8-1.51c.95-3.25,2.15-6.43,3.6-9.49l-8.42-10.68c-1.28-1.63-1.99-3.66-1.99-5.73,0-2.47.96-4.8,2.71-6.55l13.83-13.83c3.32-3.32,8.6-3.63,12.28-.72l10.09,7.96c2.98-1.55,6.07-2.86,9.26-3.93l1.62-13.73c.55-4.66,4.5-8.17,9.19-8.17h19.56c4.69,0,8.64,3.51,9.19,8.17l1.64,13.88c2.8.96,5.53,2.11,8.18,3.45l11.86-9.36c3.68-2.91,8.96-2.6,12.28.72l13.83,13.83c1.75,1.75,2.71,4.07,2.71,6.55,0,2.07-.71,4.1-1.99,5.73l-9.64,12.23c1.05,2.2,1.98,4.47,2.77,6.79l16.57,1.95c4.66.55,8.17,4.5,8.17,9.19v19.57c0,4.69-3.51,8.64-8.17,9.19l-16.57,1.95c-.68,1.99-1.46,3.94-2.34,5.84l10.95,13.89c1.28,1.63,1.99,3.66,1.99,5.73,0,2.47-.96,4.8-2.71,6.55l-13.83,13.83c-3.32,3.32-8.6,3.63-12.28.72l-13.1-10.34c-1.89.98-3.83,1.86-5.82,2.65l-2.05,17.39s0,0,0,0c-.55,4.66-4.5,8.17-9.19,8.17ZM206.77,286.13h0,0ZM163.73,258.9c.66,0,1.33.15,1.95.44,3.49,1.67,7.17,2.98,10.95,3.89,1.83.44,3.2,1.98,3.42,3.85l2.19,18.52c.02.13.12.23.26.23h19.56c.13,0,.24-.1.26-.23l2.37-20.12c.2-1.72,1.37-3.16,3-3.73,3.34-1.15,6.58-2.63,9.62-4.4,1.6-.93,3.6-.78,5.05.36l15.44,12.18c.1.08.25.07.34-.02l13.83-13.83s.08-.08.08-.18c0-.08-.03-.13-.06-.16l-12.7-16.11c-1.09-1.39-1.27-3.28-.47-4.85,1.6-3.1,2.91-6.38,3.89-9.74.51-1.73,2-3,3.79-3.21l19.45-2.29c.13-.02.23-.12.23-.26v-19.57c0-.13-.1-.24-.23-.25l-19.45-2.29c-1.79-.21-3.29-1.48-3.79-3.21-1.07-3.67-2.52-7.23-4.32-10.58-.85-1.58-.68-3.51.43-4.91l11.42-14.48s.06-.08.06-.16c0-.07-.03-.13-.08-.18l-13.83-13.83c-.09-.09-.24-.1-.34-.02l-14.18,11.19c-1.44,1.13-3.42,1.28-5.01.38-3.72-2.12-7.69-3.79-11.8-4.98-1.74-.5-3.01-2-3.22-3.79l-1.98-16.77c-.02-.13-.12-.23-.26-.23h-19.56c-.13,0-.24.1-.25.23l-1.97,16.64c-.21,1.81-1.5,3.31-3.25,3.8-4.47,1.26-8.77,3.08-12.77,5.42-1.6.93-3.6.79-5.06-.35l-12.43-9.81c-.1-.08-.25-.07-.34.02l-13.83,13.83s-.08.08-.08.18c0,.09.04.14.06.16l10.2,12.93c1.1,1.4,1.28,3.32.44,4.9-2.19,4.12-3.85,8.52-4.93,13.07-.44,1.84-1.98,3.21-3.85,3.43l-15.84,1.87c-.13.02-.23.12-.23.26v19.57c0,.13.1.24.23.25l17.29,2.04c1.73.2,3.19,1.39,3.74,3.04,1.37,4.1,3.24,8.06,5.57,11.77,1.01,1.61.9,3.69-.28,5.18l-10.61,13.44s-.06.08-.06.16c0,.07.03.13.08.18l13.84,13.84c.09.09.24.1.34.02l14.9-11.76c.81-.64,1.79-.97,2.79-.97ZM189.61,244.15c-19.13,0-34.69-15.56-34.69-34.68s15.56-34.69,34.69-34.69,34.68,15.56,34.68,34.69-15.56,34.68-34.68,34.68ZM189.61,183.78c-14.17,0-25.69,11.52-25.69,25.69s11.52,25.68,25.69,25.68,25.68-11.52,25.68-25.68-11.52-25.69-25.68-25.69Z"/>
    </g>
  </g>
</svg>