<?xml version="1.0" encoding="UTF-8"?><svg id="_レイヤー_2" xmlns="http://www.w3.org/2000/svg" xmlns:xlink="http://www.w3.org/1999/xlink" viewBox="0 0 1287.82 756.92"><defs><style>.cls-1{fill:#ffd2a7;}.cls-2{fill:#ffcf00;}.cls-3{fill:url(#_名称未設定グラデーション_17-7);}.cls-4{fill:url(#_名称未設定グラデーション_17-3);}.cls-5{fill:url(#_名称未設定グラデーション_17-6);}.cls-6{fill:url(#_名称未設定グラデーション_17-9);}.cls-7{fill:url(#_名称未設定グラデーション_17-8);}.cls-8{fill:url(#_名称未設定グラデーション_17-2);}.cls-9{fill:url(#_名称未設定グラデーション_17-5);}.cls-10{fill:url(#_名称未設定グラデーション_17-4);}.cls-11{fill:url(#_名称未設定グラデーション_11-6);}.cls-12{fill:url(#_名称未設定グラデーション_11-3);}.cls-13{fill:url(#_名称未設定グラデーション_11-5);}.cls-14{fill:url(#_名称未設定グラデーション_11-7);}.cls-15{fill:url(#_名称未設定グラデーション_11-2);}.cls-16{fill:url(#_名称未設定グラデーション_11-4);}.cls-17{fill:#1e1c92;}.cls-18{fill:#1c0a76;}.cls-19{fill:#0c1540;}.cls-20{fill:#4b3ce7;}.cls-21{fill:url(#_名称未設定グラデーション_17-10);}.cls-22{fill:#ffbc8e;}.cls-23{fill:#4e3bc7;}.cls-24{fill:#151618;}.cls-25{fill:#fff;}.cls-26{fill:#1c1b91;}.cls-27{fill:#9a8bff;}.cls-28{fill:#3b31a1;}.cls-29{fill:#02126a;}.cls-30{fill:#897deb;}.cls-31{fill:#1d3599;}.cls-32{fill:#533afc;}.cls-33{fill:url(#_名称未設定グラデーション_11);}.cls-34{fill:url(#_名称未設定グラデーション_17);}</style><linearGradient id="_名称未設定グラデーション_17" x1="-315.45" y1="1010.57" x2="-314.45" y2="1010.57" gradientTransform="translate(108097.32 102082.15) scale(341.25 -100.68)" gradientUnits="userSpaceOnUse"><stop offset="0" stop-color="#ffd000"/><stop offset="1" stop-color="#ff7300"/></linearGradient><linearGradient id="_名称未設定グラデーション_17-2" x1="-314.69" y1="1011.76" x2="-313.97" y2="1011.21" gradientTransform="translate(126570.69 78638.71) scale(399.97 -77.36)" xlink:href="#_名称未設定グラデーション_17"/><linearGradient id="_名称未設定グラデーション_17-3" x1="-314.72" y1="1006.46" x2="-314.72" y2="1007.16" gradientTransform="translate(41213.65 440226.35) scale(129.56 -436.63)" xlink:href="#_名称未設定グラデーション_17"/><linearGradient id="_名称未設定グラデーション_17-4" x1="-314.73" y1="1006.6" x2="-314.73" y2="1007.39" gradientTransform="translate(42710.91 388760.87) scale(133.31 -385.45)" xlink:href="#_名称未設定グラデーション_17"/><linearGradient id="_名称未設定グラデーション_11" x1="-336" y1="1147.65" x2="-335" y2="1147.65" gradientTransform="translate(7304.55 4095.2) scale(20.94 -3.3)" gradientUnits="userSpaceOnUse"><stop offset="0" stop-color="#aaceff"/><stop offset="1" stop-color="#dbe9ff"/></linearGradient><linearGradient id="_名称未設定グラデーション_11-2" x1="-336" y1="1147.61" x2="-335" y2="1147.61" gradientTransform="translate(7280.24 4096.24) scale(20.94 -3.3)" xlink:href="#_名称未設定グラデーション_11"/><linearGradient id="_名称未設定グラデーション_11-3" x1="-336" y1="1147.61" x2="-335" y2="1147.61" gradientTransform="translate(7255.32 4096.24) scale(20.94 -3.3)" xlink:href="#_名称未設定グラデーション_11"/><linearGradient id="_名称未設定グラデーション_11-4" x1="-336" y1="1147.61" x2="-335" y2="1147.61" gradientTransform="translate(7230.1 4096.24) scale(20.94 -3.3)" xlink:href="#_名称未設定グラデーション_11"/><linearGradient id="_名称未設定グラデーション_11-5" x1="-350.5" y1="1147.61" x2="-349.5" y2="1147.61" gradientTransform="translate(4462.53 4096.24) scale(12.24 -3.3)" xlink:href="#_名称未設定グラデーション_11"/><linearGradient id="_名称未設定グラデーション_11-6" x1="-350.5" y1="1147.61" x2="-349.5" y2="1147.61" gradientTransform="translate(4447.67 4096.3) scale(12.24 -3.3)" xlink:href="#_名称未設定グラデーション_11"/><linearGradient id="_名称未設定グラデーション_11-7" x1="-350.5" y1="1147.61" x2="-349.5" y2="1147.61" gradientTransform="translate(4433.65 4096.24) scale(12.24 -3.3)" xlink:href="#_名称未設定グラデーション_11"/><linearGradient id="_名称未設定グラデーション_17-5" x1="-315.45" x2="-314.45" gradientTransform="translate(108564.87 102082.15) scale(341.25 -100.68)" xlink:href="#_名称未設定グラデーション_17"/><linearGradient id="_名称未設定グラデーション_17-6" x1="-315.83" y1="1012.63" x2="-315.11" y2="1012.08" gradientTransform="translate(127039.18 78638.71) scale(399.97 -77.36)" xlink:href="#_名称未設定グラデーション_17"/><linearGradient id="_名称未設定グラデーション_17-7" x1="-314.72" y1="1006.46" x2="-314.72" y2="1007.16" gradientTransform="translate(41682.1 440226.35) scale(129.56 -436.63)" xlink:href="#_名称未設定グラデーション_17"/><linearGradient id="_名称未設定グラデーション_17-8" x1="-314.73" y1="1006.6" x2="-314.73" y2="1007.39" gradientTransform="translate(43178.44 388760.87) scale(133.31 -385.45)" xlink:href="#_名称未設定グラデーション_17"/><linearGradient id="_名称未設定グラデーション_17-9" x1="-315.22" y1="1018.43" x2="-314.22" y2="1018.43" gradientTransform="translate(40875.22 38710.84) scale(129.51 -37.43)" xlink:href="#_名称未設定グラデーション_17"/><linearGradient id="_名称未設定グラデーション_17-10" x1="-315.22" y1="1018.43" x2="-314.22" y2="1018.43" gradientTransform="translate(40978.57 38710.84) scale(129.5 -37.43)" xlink:href="#_名称未設定グラデーション_17"/></defs><g id="_レイヤー_1-2"><path id="_パス_4363" class="cls-20" d="M900.86,205.12h324.62c24.26,0,43.93,19.67,43.93,43.93,0,2.47-.21,4.94-.62,7.38l-39.41,231.41c-3.6,21.11-21.89,36.55-43.31,36.55h-322.76c-24.26,0-43.93-19.67-43.93-43.93,0-2.36.19-4.71.57-7.04l37.56-231.41c3.45-21.27,21.82-36.89,43.36-36.89Z"/><path id="_パス_4364" class="cls-20" d="M1187.24,179.66l56.43,29.38-36.81,35.07-19.62-64.44Z"/><path id="_パス_4365" class="cls-30" d="M842.04,174.56h324.62c24.26,0,43.93,19.67,43.93,43.93,0,2.47-.21,4.94-.62,7.37l-39.41,231.41c-3.59,21.11-21.89,36.56-43.31,36.56h-322.77c-24.26,0-43.93-19.67-43.93-43.93,0-2.36.19-4.71.57-7.04l37.56-231.41c3.45-21.27,21.82-36.89,43.36-36.9Z"/><path id="_パス_4366" class="cls-2" d="M449.94,289.55v23.32l-58.72,1.41v-21.61l58.72-3.11Z"/><path id="_パス_4367" class="cls-34" d="M449.94,289.55l341.25,75.2v25.48l-341.25-77.36v-23.31Z"/><path id="_パス_4368" class="cls-8" d="M391.22,314.27l341.25,75.2,58.72.76-341.25-77.36-58.72,1.41Z"/><path id="_パス_4369" class="cls-4" d="M449.94,320.29l-75.51,436.63h23.05l106.51-422.73-54.05-13.91Z"/><path id="_パス_4370" class="cls-10" d="M686.35,371.47l110.26,385.45h23.05l-79.26-371.53-54.05-13.91Z"/><path id="_パス_4371" class="cls-28" d="M916.99,309.26c-86.6-1.49-292.08,1.61-302.34,3.67-24.91,4.99-57.76,45.12-9.73,68.1,40.11,19.19,327.91,111.97,362.62-.7,12.73-41.35-24.22-70.61-50.56-71.07Z"/><path id="_パス_4372" class="cls-18" d="M631.08,348.53c-3.17,3.7-38.88,26.4-26.15,32.49,40.11,19.19,327.91,111.97,362.62-.7,5.5-17.86,1.72-33.47-6.47-45.47-11.17,3.44-312.6-6.65-330,13.68Z"/><path id="_パス_4373" class="cls-18" d="M899.74,450.19c-52.74-3.44-180.26-20.64-243.98-15.06s-52.95-55.99-10.64-67.09c44.1-11.57,172.85-35.5,232.14-40.6s83.18.24,111.93,14.51,38.82,116.62-89.45,108.24Z"/><circle id="_楕円形_382" class="cls-19" cx="983.86" cy="30.13" r="30.13"/><path id="_パス_4374" class="cls-19" d="M963.2,17.19c16.13,5.56,37.65,9.09,54.34,44.7s-4.24,54.86-.47,86.22,35.68,40.29,25.7,99.64c-8.34,49.58-27.17,84.28-108.62,75.66s-74.9-102.56-60.13-132.18,31.13-57.62,15.45-93.66c-16.96-38.95,28.93-95.82,73.73-80.4Z"/><path id="_パス_4375" class="cls-1" d="M916.3,185.68c-4.19,30.28-49.71,107.68-64.69,123.51-15.63,16.51-40.38,13.03-39.03-6.41,1.15-16.55,54.56-128.4,59.16-137.59,9.91-19.79,49.07-12.1,44.57,20.49Z"/><path id="_パス_4376" class="cls-1" d="M971.75,108.6s-13.65,52.34,8.3,53.61c12.15.7,29.11,3.27,33.95,13.23,3.83,7.88-2.28,20.9-7.79,37.71-14.13,43.11-19.38,54.55-21.58,67.17-6.6,37.82,13.15,67.14,13.15,67.14,0,0-70.31,2.97-133.1-29.05,0,0,21.93-9.98,21.78-32.34-.06-9.61-5.29-23.5-11.34-31.32,0,0-18.16-.39-19.15-19.69s15.2-30.75,18.09-41.03,3.15-29.97,15.05-38.29c8.68-6.07,42.58,12.27,42.95-23.16s36.97-35.23,39.69-23.99Z"/><path id="_パス_4377" class="cls-25" d="M1002.31,354.5s-117.32,0-142.93-46.34c0,0,32.2-28.67,15.74-53.4,0,0-18.16-.4-19.14-19.69-1-19.3,15.2-30.75,18.08-41.03,2.88-10.26,3.14-29.96,15.05-38.29,2.48-1.74,7.01-1.48,12.24-1.05-1.11,18.04,5.17,33.67,18.08,40.48,20.05,10.6,48.65-4.01,64.43-32.7,11.63,1.02,25.77,3.99,30.13,12.97,3.84,7.88-27.17,92.26-29.38,104.87-6.59,37.83,17.68,74.18,17.68,74.18Z"/><path id="_パス_4378" class="cls-25" d="M997.78,347.47s-58.15-6.59-58.15-41.41c0-7.78,3.07-31.42,3.07-31.42,10.15-1.56,18.56-8.68,21.78-18.43,4.47-13.82-3.36-30.6-17.74-34.7l-12.58-3.58c23.98-6.88,42.72-25.66,49.54-49.65.54-1.9.99-3.79,1.37-5.67,11.39,1.11,24.72,4.18,28.93,12.85,3.84,7.88-2.28,20.9-7.79,37.71-14.14,43.11-19.38,54.55-21.59,67.16-6.6,37.83,13.15,67.14,13.15,67.14Z"/><path id="_パス_4379" class="cls-1" d="M983.65,221.11c17.68,15.25,79.34,79.53,93.29,90.34,17.04,13.21,37.4-3.48,31.38-22-5.12-15.78-85.31-111.95-96.87-118-20.89-10.94-38.9,40.08-27.8,49.66Z"/><path id="_パス_4380" class="cls-22" d="M1077.59,302.84c-4.97-4.46-9.43-9.42-14.19-14.08-9.43-9.23-20.1-17.04-29.83-25.93-18.95-17.31-43.68-44.58-40.93-72.01.62-7.02,3.1-13.75,7.19-19.49-15.15,7.41-25.13,42.05-16.18,49.78,17.68,15.25,72.85,72.4,86.79,83.21,4.46,3.52,9.94,5.48,15.62,5.57-2.88-2.28-5.74-4.6-8.47-7.05Z"/><path id="_パス_4381" class="cls-1" d="M914.11,43.36s-9.93,13.39-8.53,30.82c0,0-21.21,15.39-2.89,42.95s55.15,13.73,69.07-8.52c0,0,19.03,8.33,23.45-9.72s-7.5-20.19-20.07-19.47c0,0-11.22-45.93-25.79-48.71s-26.38-2.73-35.22,12.65Z"/><path id="_パス_4382" class="cls-22" d="M995.2,98.88c4.42-18.05-7.5-20.19-20.07-19.47,0,0-11.22-45.93-25.79-48.71-11.67-2.22-21.55-2.61-29.57,5.19,10.08-1.52,40.91,41.08,38.78,64.4-2.17,23.73-28.89,35.8-48.25,23.46-2.32-1.49-4.5-3.2-6.5-5.1,18.66,25.45,54.32,11.76,67.96-10.07,0,0,19.02,8.33,23.44-9.71Z"/><path id="_パス_4383" class="cls-1" d="M1097.91,280.81c-30.3-7.9-101.03-.01-116.9-10.41s-26-26.98-38.43-19.17c-12.69,7.97-14.53,19.96-14.53,33.13,0,8.67,16.52,9.63,38.03,9.39,21.56-.24,82.18,21.72,113.49,25.52,31.04,3.77,38.84-33.11,18.35-38.46Z"/><path id="_パス_4384" class="cls-1" d="M847.03,280.78c-27.25-15.42-116.6-25.16-129.26-39.29s-10.44-29.57-30.06-26.06-23.91,9.54-27.14,22.31,15.43,19.72,36.76,22.48,98.1,50.97,123.1,58.01c30.09,8.48,45.03-27.02,26.6-37.45Z"/><path id="_パス_4385" class="cls-19" d="M955.1,36.96s-6.28-4.82-24.57,5.47-43.63,6.57-43.63,6.57c0,0,33.05-44.94,68.2-12.04Z"/><path id="_パス_4386" class="cls-19" d="M948.48,28.08c-6.84,4.46-9.82,19.84,4.49,38.97s6.84,39.9,20.93,29.64,14.43-12.17,17.27-27.9-27.67-50.5-42.69-40.71Z"/><path id="_パス_4387" class="cls-19" d="M777.65,314.41c0,.68.55,1.22,1.22,1.22h211.01c1.35,0,2.45-1.1,2.45-2.45h0v-5.89h-214.68v7.12Z"/><path id="_パス_4388" class="cls-19" d="M964.76,304.81v2.48h7.53v-3.3h-6.71c-.45,0-.82.37-.82.82Z"/><path id="_パス_4389" class="cls-19" d="M956.02,304.81v2.48h7.53v-3.3h-6.71c-.45,0-.82.36-.82.82Z"/><path id="_パス_4390" class="cls-19" d="M947.28,304.81v2.48h7.54v-3.3h-6.71c-.45,0-.82.36-.83.82Z"/><path id="_パス_4391" class="cls-19" d="M910.87,304.81v2.48h7.53v-3.3h-6.71c-.45,0-.82.37-.82.82Z"/><path id="_パス_4392" class="cls-19" d="M902.13,304.81v2.48h7.53v-3.3h-6.71c-.45,0-.82.37-.82.82Z"/><path id="_パス_4393" class="cls-19" d="M799.55,304.81v2.48h7.53v-3.3h-6.71c-.45,0-.82.36-.82.82Z"/><path id="_パス_4394" class="cls-19" d="M790.81,304.81v2.48h7.53v-3.3h-6.71c-.45,0-.82.37-.82.82Z"/><path id="_パス_4395" class="cls-19" d="M919.87,304.81v2.48h25.9v-3.3h-25.08c-.45,0-.82.37-.82.82Z"/><path id="_パス_4396" class="cls-19" d="M762.44,304.81v2.48h25.9v-3.3h-25.08c-.45,0-.82.37-.82.82Z"/><path id="_パス_4397" class="cls-19" d="M809.1,304.81v2.48h89.94v-3.3h-89.12c-.45,0-.82.37-.82.82Z"/><path id="_パス_4398" class="cls-33" d="M764.5,303.99h-18.26c-1.03,0-1.86.84-1.86,1.86v1.44h20.94v-2.48c0-.45-.36-.82-.81-.82h0Z"/><path id="_パス_4399" class="cls-15" d="M739.28,303.99h-18.26c-1.03,0-1.86.83-1.86,1.86h0v1.44h20.94v-2.48c0-.45-.36-.82-.82-.82h0Z"/><path id="_パス_4400" class="cls-12" d="M714.05,303.99h-18.26c-1.03,0-1.87.84-1.87,1.87h0v1.44h20.94v-2.48c0-.45-.37-.82-.82-.82h0Z"/><path id="_パス_4401" class="cls-16" d="M688.83,303.99h-18.26c-1.03,0-1.86.83-1.87,1.86h0v1.44h20.94v-2.48c0-.45-.37-.82-.82-.82Z"/><path id="_パス_4402" class="cls-13" d="M659.12,303.99h-9.55c-1.03,0-1.87.84-1.87,1.87h0v1.44h12.24v-2.48c0-.45-.37-.82-.82-.82h0Z"/><path id="_パス_4403" class="cls-11" d="M644.25,303.99h-9.55c-1.03,0-1.86.83-1.87,1.86h0v1.44h12.24v-2.48c0-.45-.37-.82-.82-.82h0Z"/><path id="_パス_4404" class="cls-14" d="M630.26,303.99h-9.55c-1.03,0-1.86.83-1.87,1.86h0v1.44h12.24v-2.48c0-.45-.37-.82-.82-.82Z"/><path id="_パス_4405" class="cls-19" d="M794.13,148.57c-1.85-6.7-6.79-10.68-14.53-10.68l47.96,176.78s9.29-2.65,6.99-11.68c-1.92-7.55-30.42-118.29-40.42-154.41Z"/><path id="_パス_4406" class="cls-29" d="M778.71,137.88h-224.74c-2.66,0-4.82,2.15-4.82,4.82,0,.4.05.8.15,1.18l41.36,163.41h236.25l-41.59-164.27c-.77-3.03-3.49-5.15-6.61-5.15Z"/><path id="_パス_4407" class="cls-31" d="M759.75,299.88h55.65l-11.24-44.4-44.4,44.4Z"/><path id="_パス_4408" class="cls-31" d="M786.85,187.11l-11.13-43.93h-15.79l-156.71,156.71h70.85l112.78-112.77Z"/><path id="_パス_4409" class="cls-31" d="M591.53,314.41c0,.68.55,1.22,1.22,1.22h231.89c1.35,0,2.45-1.1,2.45-2.45h0v-5.89h-235.56v7.12Z"/><path id="_パス_4410" class="cls-32" d="M884.19,417.17h-488.8c-15.83,0-29.33,11.46-31.89,27.08l-17.98,109.43c-3.19,19.43,9.22,45.88,28.92,46.25l483.08.28,26.67-183.03Z"/><path id="_パス_4411" class="cls-17" d="M1210.6,615.17v-82.1c0-15.53-10.34-29.15-25.29-33.33l-289.4-80.83c-24.92-6.96-50.76,7.6-57.72,32.52-.55,1.97-.97,3.98-1.26,6.01l-14.32,100.78c-2.86,20.14,11.14,38.78,31.28,41.64,1.2.17,2.41.28,3.62.33l353.09,14.97Z"/><path id="_パス_4412" class="cls-2" d="M918.1,289.55v23.32l-58.72,1.41v-21.61l58.72-3.11Z"/><rect id="_長方形_1875" class="cls-29" x="374.43" y="599.92" width="468.16" height="25.58"/><path id="_パス_4413" class="cls-24" d="M1221.16,639.81l-378.57-14.31v-25.58l378.57,15.25v24.64Z"/><path id="_パス_4414" class="cls-9" d="M918.1,289.55l341.25,75.2v25.48l-341.25-77.36v-23.31Z"/><path id="_パス_4415" class="cls-5" d="M859.38,314.27l341.25,75.2,58.72.76-341.25-77.36-58.72,1.41Z"/><path id="_パス_4416" class="cls-3" d="M918.1,320.29l-75.51,436.63h23.05l106.51-422.73-54.05-13.91Z"/><path id="_パス_4417" class="cls-7" d="M1154.51,371.47l110.26,385.45h23.05l-79.26-371.53-54.05-13.91Z"/><path id="_パス_4418" class="cls-1" d="M493.71,727.13c27.2-9.06,40.18-52.78,46.4-76.21l35.61,13.49s-21.06,40.08-19.34,67.33-6.04,24.71-6.04,24.71l-92.66.29s8.82-20.55,36.03-29.61Z"/><path id="_パス_4419" class="cls-18" d="M493.71,727.13c8.21-2.73,15.12-8.64,20.94-16.18,3.78-5.32,22.24.48,25.34,10.75,0,0,7.5,5.36,16.34,4.5-.04,1.75.09,3.49.39,5.21,4.8,26.12-6.37,25.03-6.37,25.03l-92.66.29s8.82-20.54,36.02-29.6Z"/><path id="_パス_4420" class="cls-18" d="M682.38,434.44c-4.31,31.03-111.39,251.36-111.39,251.36,0,0-25.31,1.5-40.16-17.04,0,0,75.27-255.24,81.75-271.37,5.16-12.85,76.88-14.01,69.8,37.06Z"/><path id="_パス_4421" class="cls-1" d="M520.26,592.95l-26.87-15.14c-13.24,32.48-32.28,55.2-62.62,16.1-13.98-18.01-39.08-5.69-39.08-5.69l72.56,93.47s11,6.37,22.41-24.07c12.39-33.05,33.61-64.66,33.61-64.66Z"/><path id="_パス_4422" class="cls-18" d="M458.5,632.8c.89-10.11,16.31-11.64,10.34-20.29-10.28,5.13-22.73,1.18-38.09-18.59-13.98-18.01-39.08-5.69-39.08-5.69l72.56,93.47s10.33,5.98,21.34-21.33c-7.61-9.79-28.42-12.3-27.08-27.56Z"/><path id="_パス_4423" class="cls-28" d="M595.62,492.99c-29.67,42.16-76.76,124.36-76.76,124.36,0,0-19.15,3.12-40.16-16.35,0,0,89.08-254.01,112.06-273.5,21.45-18.19,137.06-22.41,4.86,165.49Z"/><rect id="_長方形_1876" class="cls-32" x="112.41" y="634.71" width="169.37" height="122.21"/><rect id="_長方形_1877" class="cls-26" x="26.89" y="634.71" width="85.51" height="122.21"/><rect id="_長方形_1878" class="cls-23" y="613.89" width="207.61" height="21.9"/><rect id="_長方形_1879" class="cls-27" x="112.41" y="613.89" width="207.61" height="21.9"/><path id="_パス_4424" class="cls-6" d="M182.24,576.49c-.31-.03-110.79-.03-110.79-.03-10.33,0-18.71,8.38-18.71,18.71s8.38,18.71,18.71,18.71c0,0,110.48,0,110.79-.03v-37.36Z"/><path id="_パス_4425" class="cls-21" d="M246.02,608.97v-27.92h39.77l.12-4.55c-.31-.03-.65-.03-.95-.03h-109.84c-10.33,0-18.71,8.38-18.71,18.71s8.38,18.71,18.71,18.71h109.84c.31,0,.65,0,.95-.03l-.13-4.89h-39.76Z"/><path id="_パス_4426" class="cls-25" d="M285.49,609.15c-.17.02-.36.02-.53.02h-109.84c-7.73,0-13.99-6.26-13.99-13.99s6.26-13.99,13.99-13.99h109.84c.17,0,.36,0,.53.02-7.72.28-13.75,6.77-13.46,14.49.27,7.32,6.14,13.19,13.46,13.46h0Z"/><path id="_パス_4427" class="cls-19" d="M150.77,538.76c-.31-.03-110.79-.03-110.79-.03-10.33,0-18.71,8.38-18.71,18.71s8.38,18.71,18.71,18.71c0,0,110.48,0,110.79-.03v-37.36Z"/><path id="_パス_4428" class="cls-29" d="M214.54,571.23v-27.93h39.77l.12-4.55c-.31-.03-.65-.03-.95-.03h-109.84c-10.33,0-18.71,8.38-18.71,18.71s8.38,18.71,18.71,18.71h109.84c.31,0,.65,0,.95-.03l-.13-4.89h-39.76Z"/><path id="_パス_4429" class="cls-25" d="M254.02,571.41c-.17.02-.36.02-.53.02h-109.84c-7.73,0-13.99-6.26-13.99-13.99s6.26-13.99,13.99-13.99h109.84c.17,0,.36,0,.53.02-7.72.28-13.75,6.77-13.46,14.49.27,7.32,6.14,13.19,13.46,13.46h0Z"/></g></svg>