<?xml version="1.0" encoding="UTF-8"?>
<svg id="_レイヤー_2" data-name="レイヤー 2" xmlns="http://www.w3.org/2000/svg" viewBox="0 0 539.27 321.54">
  <g id="_レイヤー_2-2" data-name="レイヤー 2">
    <g>
      <g>
        <g>
          <path d="M461.1,261.57c-2.49,0-4.5-2.01-4.5-4.5V22.46c0-7.42-6.04-13.46-13.46-13.46H96.13c-7.42,0-13.46,6.04-13.46,13.46v234.61c0,2.49-2.01,4.5-4.5,4.5s-4.5-2.01-4.5-4.5V22.46c0-12.38,10.08-22.46,22.46-22.46h347.01c12.38,0,22.46,10.08,22.46,22.46v234.61c0,2.49-2.01,4.5-4.5,4.5Z"/>
          <path d="M461.1,46.76H78.17c-2.49,0-4.5-2.01-4.5-4.5s2.01-4.5,4.5-4.5h382.93c2.49,0,4.5,2.01,4.5,4.5s-2.01,4.5-4.5,4.5Z"/>
        </g>
        <g>
          <path d="M516.25,321.54H23.02c-1.74,0-3.32-1-4.06-2.57L.44,280.04c-.66-1.39-.57-3.03.26-4.34.83-1.31,2.26-2.1,3.8-2.1h530.27c1.54,0,2.98.79,3.8,2.1.82,1.31.92,2.94.26,4.34l-18.52,38.94c-.75,1.57-2.33,2.57-4.06,2.57ZM25.86,312.54h487.55l14.24-29.94H11.62l14.24,29.94Z"/>
          <path d="M294.48,302.07h-49.69c-2.49,0-4.5-2.01-4.5-4.5s2.01-4.5,4.5-4.5h49.69c2.49,0,4.5,2.01,4.5,4.5s-2.01,4.5-4.5,4.5Z"/>
        </g>
      </g>
      <g>
        <g>
          <path d="M229.26,200.7c-1.06,0-2.13-.38-2.99-1.14l-39.84-35.46c-.96-.85-1.51-2.08-1.51-3.36s.55-2.51,1.51-3.36l39.84-35.46c1.86-1.65,4.7-1.49,6.35.37,1.65,1.86,1.49,4.7-.37,6.35l-36.06,32.1,36.06,32.1c1.86,1.65,2.02,4.5.37,6.35-.89,1-2.12,1.51-3.36,1.51Z"/>
          <path d="M310,200.7c-1.24,0-2.47-.51-3.36-1.51-1.65-1.86-1.49-4.7.37-6.35l36.06-32.1-36.06-32.1c-1.86-1.65-2.02-4.5-.37-6.35,1.65-1.86,4.5-2.02,6.35-.37l39.84,35.46c.96.85,1.51,2.08,1.51,3.36s-.55,2.51-1.51,3.36l-39.84,35.46c-.86.76-1.93,1.14-2.99,1.14Z"/>
        </g>
        <path d="M252.23,209.53c-.55,0-1.1-.1-1.64-.31-2.31-.91-3.45-3.52-2.54-5.83l34.8-88.58c.91-2.31,3.52-3.45,5.83-2.54,2.31.91,3.45,3.52,2.54,5.83l-34.8,88.58c-.7,1.77-2.39,2.86-4.19,2.86Z"/>
      </g>
    </g>
  </g>
</svg>