<?xml version="1.0" encoding="UTF-8"?>
<svg id="_レイヤー_2" data-name="レイヤー 2" xmlns="http://www.w3.org/2000/svg" viewBox="0 0 305.54 453.41">
  <g id="_レイヤー_2-2" data-name="レイヤー 2">
    <g>
      <g>
        <g>
          <g>
            <path d="M182.15,198.83c-.75,0-1.52-.19-2.22-.59-2.16-1.23-2.91-3.98-1.68-6.14,1.74-3.05,3.58-5.98,4.98-8.18.86-1.35,1.74-2.71,2.61-4.06,4.95-7.64,10.06-15.55,13.01-24.04,3.25-9.38,6.56-20.57,6.56-32.45,0-35.77-29.1-64.87-64.87-64.87-2.49,0-4.5-2.01-4.5-4.5s2.01-4.5,4.5-4.5c40.73,0,73.87,33.14,73.87,73.87,0,13.22-3.57,25.31-7.06,35.4-3.3,9.53-8.72,17.9-13.96,25.99-.86,1.34-1.73,2.67-2.58,4.01-1.35,2.12-3.11,4.92-4.75,7.8-.83,1.46-2.35,2.27-3.91,2.27Z"/>
            <path d="M98.93,198.83c-1.56,0-3.08-.82-3.91-2.27-1.64-2.88-3.4-5.68-4.75-7.8-.85-1.34-1.72-2.68-2.59-4.02-5.24-8.09-10.65-16.46-13.95-25.98-3.49-10.08-7.06-22.18-7.06-35.4,0-40.73,33.14-73.87,73.87-73.87,2.49,0,4.5,2.01,4.5,4.5s-2.01,4.5-4.5,4.5c-35.77,0-64.87,29.1-64.87,64.87,0,11.89,3.32,23.08,6.56,32.45,2.94,8.49,8.05,16.39,13,24.03.88,1.36,1.75,2.71,2.62,4.07,1.41,2.21,3.24,5.13,4.98,8.18,1.23,2.16.48,4.91-1.68,6.14-.7.4-1.47.59-2.22.59Z"/>
          </g>
          <g>
            <path d="M140.54,30.84c-2.49,0-4.5-2.01-4.5-4.5V4.5c0-2.49,2.01-4.5,4.5-4.5s4.5,2.01,4.5,4.5v21.84c0,2.49-2.01,4.5-4.5,4.5Z"/>
            <path d="M204.91,57.5c-1.15,0-2.3-.44-3.18-1.32-1.76-1.76-1.76-4.61,0-6.36l15.44-15.44c1.76-1.76,4.61-1.76,6.36,0,1.76,1.76,1.76,4.61,0,6.36l-15.44,15.44c-.88.88-2.03,1.32-3.18,1.32Z"/>
            <path d="M253.41,121.87h-21.84c-2.49,0-4.5-2.01-4.5-4.5s2.01-4.5,4.5-4.5h21.84c2.49,0,4.5,2.01,4.5,4.5s-2.01,4.5-4.5,4.5Z"/>
            <path d="M76.16,57.5c-1.15,0-2.3-.44-3.18-1.32l-15.44-15.44c-1.76-1.76-1.76-4.61,0-6.36,1.76-1.76,4.61-1.76,6.36,0l15.44,15.44c1.76,1.76,1.76,4.61,0,6.36-.88.88-2.03,1.32-3.18,1.32Z"/>
            <path d="M49.5,121.87h-21.84c-2.49,0-4.5-2.01-4.5-4.5s2.01-4.5,4.5-4.5h21.84c2.49,0,4.5,2.01,4.5,4.5s-2.01,4.5-4.5,4.5Z"/>
          </g>
        </g>
        <g>
          <path d="M140.54,175.98c-20.69,0-37.53-16.84-37.53-37.53,0-2.49,2.01-4.5,4.5-4.5s4.5,2.01,4.5,4.5c0,15.73,12.8,28.53,28.53,28.53s28.53-12.8,28.53-28.53c0-2.49,2.01-4.5,4.5-4.5s4.5,2.01,4.5,4.5c0,20.69-16.84,37.53-37.53,37.53Z"/>
          <path d="M140.54,200.5c-2.49,0-4.5-2.01-4.5-4.5v-24.52c0-2.49,2.01-4.5,4.5-4.5s4.5,2.01,4.5,4.5v24.52c0,2.49-2.01,4.5-4.5,4.5Z"/>
        </g>
      </g>
      <g>
        <g>
          <path d="M38.56,453.41c-2.49,0-4.5-2.01-4.5-4.5v-59.35c0-18.6-4.34-36.99-12.56-53.21-7.69-15.17-13.42-31.58-17.03-48.78-4.89-23.3-5.77-45.26-2.62-65.27.39-2.46,2.69-4.13,5.14-3.75,2.46.39,4.13,2.69,3.75,5.14-2.98,18.93-2.12,39.8,2.54,62.03,3.45,16.43,8.92,32.1,16.25,46.56,8.86,17.47,13.54,37.27,13.54,57.28v59.35c0,2.49-2.01,4.5-4.5,4.5Z"/>
          <path d="M168.41,453.41c-2.49,0-4.5-2.01-4.5-4.5v-23.74c0-3.2,1.26-6.2,3.54-8.45,2.28-2.25,5.34-3.46,8.5-3.41,15.09.24,31.84.69,49.79,1.31.32.01.64.02.96.02,13.34,0,24.62-9.78,26.44-23.11.52-3.83,1.05-7.94,1.59-12.27.6-4.91,1.22-10.08,1.84-15.41.48-4.17,1.15-8.4,2-12.56l3.7-18.09c.32-1.55,1.43-2.83,2.93-3.35l29.71-10.35c.12-.04.24-.08.36-.11.81-.21,1.1-.81,1.2-1.15.1-.35.19-1.03-.39-1.67-10.2-11.19-30.18-52.53-27.9-64.02,1.95-9.79,2.59-19.63,1.92-29.24-.17-2.48,1.7-4.63,4.18-4.8,2.47-.18,4.63,1.7,4.8,4.18.72,10.41.03,21.05-2.08,31.62-1.33,6.67,15.31,44.77,25.72,56.2,2.56,2.81,3.44,6.66,2.36,10.3-1.06,3.56-3.81,6.25-7.38,7.24l-27.14,9.45-3.19,15.58c-.79,3.9-1.43,7.87-1.88,11.79-.62,5.35-1.24,10.54-1.84,15.48-.54,4.37-1.09,8.51-1.61,12.38-2.44,17.82-17.51,30.9-35.35,30.9-.43,0-.85,0-1.28-.02-17.9-.62-34.59-1.06-49.62-1.31-.75-.01-1.49.28-2.04.82-.55.54-.85,1.27-.85,2.04v23.74c0,2.49-2.01,4.5-4.5,4.5Z"/>
        </g>
        <path d="M274.59,227.5H6.29c-2.49,0-4.5-2.01-4.5-4.5s2.01-4.5,4.5-4.5h268.3c2.49,0,4.5,2.01,4.5,4.5s-2.01,4.5-4.5,4.5Z"/>
      </g>
    </g>
  </g>
</svg>