<?xml version="1.0" encoding="UTF-8"?><svg id="_レイヤー_2" xmlns="http://www.w3.org/2000/svg" viewBox="0 0 375 375"><defs><style>.cls-1{fill:#060d23;}.cls-2{fill:#efaf0f;}.cls-3{fill:#fff;}.cls-4{fill:#533afc;}</style></defs><g id="_レイヤー_1-2"><circle id="_楕円形_2" class="cls-3" cx="187.5" cy="187.5" r="187.5"/><path id="_パス_24200" class="cls-4" d="M195.86,93.47h-7.96c-18.46,0-36.15,7.36-49.15,20.47l-4.75-2.24c-1.04-.49-2.28-.04-2.77,1s-.04,2.28,1,2.77l3.52,1.67c-11.1,12.62-17.21,28.86-17.2,45.67v14.99c0,1.47-.38,2.91-1.1,4.19l-12.51,22.19c-2.71,4.79-1.03,10.87,3.76,13.58.23.13.47.25.71.37l13.43,6.29c1.28.59,2.1,1.87,2.1,3.29v16.58c.01,11.89,9.65,21.52,21.53,21.53h23.19v10.09c0,3.1,2.52,5.62,5.62,5.64.1,0,.18-.01.28-.01l73.25-3.37c3.01-.13,5.38-2.61,5.37-5.62v-28.25c0-5.14,1.88-10.11,5.28-13.98,7.66-8.67,11.89-19.84,11.89-31.41v-29.92c-.05-41.67-33.82-75.45-75.49-75.49ZM170.12,261.63h-23.64c-9.58-.02-17.34-7.78-17.36-17.36v-16.58c0-3.03-1.76-5.78-4.5-7.07l-13.44-6.29c-2.91-1.36-4.16-4.81-2.8-7.72.06-.14.13-.27.2-.4l12.51-22.17c1.07-1.91,1.64-4.06,1.64-6.25v-14.99c-.01-16.21,6.04-31.84,16.97-43.82l8.39,3.95c4.29,2.01,6.95,6.39,6.78,11.12l-2.3,62.87c-.17,4.38,1.42,8.64,4.41,11.85l31.41,33.78c.15.15.23.35.22.56,0,10.22-8.29,18.5-18.5,18.51Z"/><path id="_パス_24201" class="cls-2" d="M226.7,147.34h-33.28c-5.94,0-10.75,4.81-10.76,10.74v33.28c.01,5.94,4.82,10.74,10.76,10.74h33.28c5.93,0,10.74-4.81,10.74-10.74v-33.28c0-5.93-4.81-10.74-10.74-10.74ZM211.85,184.53l-1.27-3.49h-8.84l-1.29,3.49h-5.01l7.97-20.61h5.5l7.95,20.61h-5.01ZM223.16,184.53h-4.39v-20.61h4.39v20.61Z"/><path id="_パス_24202" class="cls-3" d="M208.91,163.92h-5.5l-7.97,20.61h5.01l1.29-3.49h8.84l1.27,3.49h5.01l-7.95-20.61ZM202.95,177.19l3.21-8.88,3.21,8.88h-6.43Z"/><path id="_パス_24203" class="cls-2" d="M209.38,177.19h-6.43l3.21-8.88,3.22,8.88Z"/><path id="_パス_24204" class="cls-3" d="M218.78,163.92v20.61h4.39v-20.61h-4.39Z"/><path id="_パス_24205" class="cls-2" d="M191.12,140.38c-1.15,0-2.09-.94-2.09-2.09v-4.6c0-1.15.93-2.09,2.09-2.09s2.09.93,2.09,2.09v4.6c0,1.15-.94,2.09-2.09,2.09Z"/><path id="_パス_24206" class="cls-2" d="M209.91,140.38c-1.15,0-2.09-.94-2.09-2.09v-4.6c0-1.15.93-2.09,2.09-2.09s2.09.93,2.09,2.09v4.6c0,1.15-.94,2.09-2.09,2.09Z"/><path id="_パス_24207" class="cls-2" d="M228.7,140.38c-1.15,0-2.09-.94-2.09-2.09v-4.6c0-1.15.93-2.09,2.09-2.09s2.09.93,2.09,2.09v4.6c0,1.15-.94,2.09-2.09,2.09Z"/><path id="_パス_24208" class="cls-2" d="M250.82,156.55h-4.6c-1.15,0-2.09-.93-2.09-2.09s.93-2.09,2.09-2.09h4.6c1.15,0,2.09.93,2.09,2.09s-.93,2.09-2.09,2.09h0Z"/><path id="_パス_24209" class="cls-2" d="M250.82,175.33h-4.6c-1.15,0-2.09-.93-2.09-2.09s.93-2.09,2.09-2.09h4.6c1.15,0,2.09.93,2.09,2.09s-.93,2.09-2.09,2.09h0Z"/><path id="_パス_24210" class="cls-2" d="M250.82,194.12h-4.6c-1.15,0-2.09-.93-2.09-2.09s.93-2.09,2.09-2.09h4.6c1.15,0,2.09.93,2.09,2.09s-.93,2.09-2.09,2.09h0Z"/><path id="_パス_24211" class="cls-2" d="M172.39,156.55h-4.6c-1.15,0-2.09-.93-2.09-2.09s.93-2.09,2.09-2.09h4.6c1.15,0,2.09.93,2.09,2.09s-.93,2.09-2.09,2.09h0Z"/><path id="_パス_24212" class="cls-2" d="M172.39,175.33h-4.6c-1.15,0-2.09-.93-2.09-2.09s.93-2.09,2.09-2.09h4.6c1.15,0,2.09.93,2.09,2.09s-.93,2.09-2.09,2.09h0Z"/><path id="_パス_24213" class="cls-2" d="M172.39,194.12h-4.6c-1.15,0-2.09-.93-2.09-2.09s.93-2.09,2.09-2.09h4.6c1.15,0,2.09.93,2.09,2.09s-.93,2.09-2.09,2.09h0Z"/><path id="_パス_24214" class="cls-2" d="M191.12,217.86c-1.15,0-2.09-.94-2.09-2.09v-4.6c0-1.15.93-2.09,2.09-2.09s2.09.93,2.09,2.09v4.6c0,1.15-.93,2.09-2.09,2.09Z"/><path id="_パス_24215" class="cls-2" d="M209.91,217.86c-1.15,0-2.09-.94-2.09-2.09v-4.6c0-1.15.93-2.09,2.09-2.09s2.09.93,2.09,2.09v4.6c0,1.15-.93,2.09-2.09,2.09Z"/><path id="_パス_24216" class="cls-2" d="M228.7,217.86c-1.15,0-2.09-.94-2.09-2.09v-4.6c0-1.15.93-2.09,2.09-2.09s2.09.93,2.09,2.09v4.6c0,1.15-.93,2.09-2.09,2.09Z"/><path id="_パス_24217" class="cls-4" d="M132.15,161.58h-.09c-1.15-.05-2.05-1.02-2-2.17.44-10.52,3.61-20.75,9.22-29.66.6-.98,1.88-1.3,2.87-.7s1.3,1.88.7,2.87c-.01.02-.02.03-.03.05-5.22,8.3-8.18,17.81-8.58,27.61-.05,1.12-.97,2-2.09,2Z"/><path id="_パス_24218" class="cls-1" d="M175.29,281.53c-3.11,0-5.62-2.52-5.62-5.63v-10.09h-23.19c-11.89-.01-21.52-9.65-21.54-21.54v-16.57c0-1.41-.82-2.69-2.1-3.29l-13.44-6.29c-4.99-2.34-7.15-8.28-4.81-13.28.11-.23.22-.45.35-.67l12.51-22.18c.72-1.28,1.11-2.73,1.11-4.2v-14.98c-.02-16.81,6.1-33.05,17.2-45.67l-3.53-1.66c-1.04-.49-1.49-1.74-1-2.78s1.74-1.49,2.78-1l4.75,2.23c12.99-13.11,30.69-20.48,49.15-20.47h7.96c41.67.05,75.45,33.82,75.49,75.49v29.93c0,11.57-4.22,22.74-11.88,31.42-3.4,3.86-5.28,8.82-5.28,13.96v28.27c0,3.01-2.36,5.49-5.37,5.62l-73.26,3.36c-.09,0-.18,0-.27,0ZM173.84,265.5v10.4c0,.4.16.78.45,1.05.29.27.68.41,1.07.4l73.26-3.36c.78-.04,1.39-.68,1.39-1.45v-28.27c0-6.16,2.25-12.11,6.32-16.73,6.98-7.91,10.84-18.1,10.83-28.65v-29.93c-.05-39.37-31.95-71.27-71.32-71.32h-7.96c-16.83-.01-33,6.51-45.12,18.19l7.08,3.33c5.8,2.72,9.41,8.65,9.17,15.05l-2.29,62.88c-.13,3.27,1.06,6.45,3.29,8.84l31.42,33.78c.86.92,1.34,2.14,1.34,3.4,0,11.09-8.02,20.55-18.95,22.38h0ZM139.7,119c-10.93,11.97-16.98,27.6-16.97,43.82v14.98c0,2.19-.57,4.35-1.64,6.26l-12.51,22.17c-1.58,2.79-.59,6.34,2.21,7.91.13.07.26.14.39.2l13.44,6.29c2.74,1.29,4.49,4.05,4.5,7.08v16.57c.01,9.58,7.78,17.35,17.36,17.36h23.64c10.21-.01,18.49-8.29,18.5-18.5,0-.21-.08-.41-.22-.56l-31.42-33.79c-2.99-3.2-4.58-7.46-4.41-11.84l2.29-62.88c.18-4.73-2.49-9.11-6.78-11.12l-8.38-3.95Z"/></g></svg>