<?xml version="1.0" encoding="UTF-8"?>
<svg id="_レイヤー_2" data-name="レイヤー 2" xmlns="http://www.w3.org/2000/svg" viewBox="0 0 370.15 432">
  <g id="_レイヤー_2-2" data-name="レイヤー 2">
    <g>
      <g>
        <g>
          <path d="M181.08,384.28H4.5C2.01,384.28,0,382.27,0,379.78V59.14c0-1.46.71-2.83,1.9-3.67L78.98.83C79.74.29,80.65,0,81.58,0h213.35c2.49,0,4.5,2.01,4.5,4.5v261.82c0,2.49-2.01,4.5-4.5,4.5s-4.5-2.01-4.5-4.5V9H83.01L9,61.46v313.82h172.08c2.49,0,4.5,2.01,4.5,4.5s-2.01,4.5-4.5,4.5Z"/>
          <path d="M72.17,68.74c-.11,0-.23,0-.34-.01L4.16,63.62c-1.89-.14-3.49-1.46-4-3.28-.51-1.83.19-3.78,1.73-4.87L78.98.83c1.48-1.05,3.44-1.11,4.97-.15,1.54.95,2.35,2.74,2.07,4.52l-9.42,59.74c-.35,2.2-2.25,3.8-4.44,3.8ZM17.29,55.59l51.08,3.85,7.11-45.1L17.29,55.59Z"/>
        </g>
        <g>
          <path d="M234.19,130.85H65.25c-2.49,0-4.5-2.01-4.5-4.5s2.01-4.5,4.5-4.5h168.94c2.49,0,4.5,2.01,4.5,4.5s-2.01,4.5-4.5,4.5Z"/>
          <path d="M234.19,185.35H65.25c-2.49,0-4.5-2.01-4.5-4.5s2.01-4.5,4.5-4.5h168.94c2.49,0,4.5,2.01,4.5,4.5s-2.01,4.5-4.5,4.5Z"/>
          <path d="M234.19,239.85H65.25c-2.49,0-4.5-2.01-4.5-4.5s2.01-4.5,4.5-4.5h168.94c2.49,0,4.5,2.01,4.5,4.5s-2.01,4.5-4.5,4.5Z"/>
          <path d="M191.08,294.34h-125.84c-2.49,0-4.5-2.01-4.5-4.5s2.01-4.5,4.5-4.5h125.84c2.49,0,4.5,2.01,4.5,4.5s-2.01,4.5-4.5,4.5Z"/>
        </g>
      </g>
      <g>
        <path d="M341.72,432h-96.78c-15.67,0-28.42-12.75-28.42-28.42v-96.78c0-15.67,12.75-28.42,28.42-28.42h96.78c15.67,0,28.42,12.75,28.42,28.42v96.78c0,15.67-12.75,28.42-28.42,28.42ZM244.95,287.38c-10.71,0-19.42,8.71-19.42,19.42v96.78c0,10.71,8.71,19.42,19.42,19.42h96.78c10.71,0,19.42-8.71,19.42-19.42v-96.78c0-10.71-8.71-19.42-19.42-19.42h-96.78Z"/>
        <g>
          <g>
            <g>
              <path d="M250.06,401.28c-.43,0-.87-.06-1.3-.19-2.38-.72-3.73-3.23-3.01-5.61l25.1-83.18c.72-2.38,3.23-3.73,5.61-3.01,2.38.72,3.73,3.23,3.01,5.61l-25.1,83.18c-.59,1.95-2.37,3.2-4.31,3.2Z"/>
              <path d="M300.26,401.28c-1.93,0-3.72-1.26-4.31-3.2l-25.1-83.18c-.72-2.38.63-4.89,3.01-5.61,2.38-.72,4.89.63,5.61,3.01l25.1,83.18c.72,2.38-.63,4.89-3.01,5.61-.43.13-.87.19-1.3.19Z"/>
            </g>
            <path d="M290.85,370.56h-31.38c-2.49,0-4.5-2.01-4.5-4.5s2.01-4.5,4.5-4.5h31.38c2.49,0,4.5,2.01,4.5,4.5s-2.01,4.5-4.5,4.5Z"/>
          </g>
          <path d="M328.37,402.03c-2.49,0-4.5-2.01-4.5-4.5v-83.93c0-2.49,2.01-4.5,4.5-4.5s4.5,2.01,4.5,4.5v83.93c0,2.49-2.01,4.5-4.5,4.5Z"/>
        </g>
      </g>
    </g>
  </g>
</svg>