<?xml version="1.0" encoding="UTF-8"?>
<svg id="_レイヤー_2" data-name="レイヤー 2" xmlns="http://www.w3.org/2000/svg" viewBox="0 0 257.33 239.55">
  <defs>
    <style>
      .cls-1 {
        fill: none;
        stroke: #000;
        stroke-linecap: round;
        stroke-linejoin: round;
        stroke-width: 6.19px;
      }
    </style>
  </defs>
  <g id="Layer_1" data-name="Layer 1">
    <circle class="cls-1" cx="128.66" cy="100.43" r="16.47"/>
    <path class="cls-1" d="M122.73,116.91h11.86c14.97,0,27.12,12.15,27.12,27.12v11.89h-66.1v-11.89c0-14.97,12.15-27.12,27.12-27.12Z"/>
    <g>
      <circle class="cls-1" cx="172.23" cy="110.33" r="13.54" transform="translate(-28.99 73.62) rotate(-22.31)"/>
      <path class="cls-1" d="M145.05,155.93h54.34v-9.78c0-12.31-9.99-22.3-22.3-22.3h-9.74c-4.24,0-8.19,1.18-11.58,3.26"/>
      <circle class="cls-1" cx="85.1" cy="110.33" r="13.54" transform="translate(-53.09 92.49) rotate(-45)"/>
      <path class="cls-1" d="M112.28,155.93h-54.34v-9.78c0-12.31,9.99-22.3,22.3-22.3h9.74c4.24,0,8.19,1.18,11.58,3.26"/>
    </g>
    <circle class="cls-1" cx="128.66" cy="129.28" r="107.18"/>
    <line class="cls-1" x1="128.66" y1="3.09" x2="128.66" y2="40.04"/>
    <line class="cls-1" x1="254.23" y1="128.66" x2="217.29" y2="128.66"/>
    <line class="cls-1" x1="40.04" y1="128.66" x2="3.09" y2="128.66"/>
  </g>
</svg>