<?xml version="1.0" encoding="UTF-8"?>
<svg id="_レイヤー_2" data-name="レイヤー 2" xmlns="http://www.w3.org/2000/svg" viewBox="0 0 516.78 383.05">
  <g id="_レイヤー_2-2" data-name="レイヤー 2">
    <g>
      <g>
        <path d="M469.81,193.28c-15,0-29.96-3.44-43.67-10.26-2.22-1.11-3.13-3.81-2.02-6.03,1.11-2.22,3.81-3.13,6.04-2.02,22.71,11.31,49.23,12.38,72.78,2.92l7.65-3.07c2.31-.93,4.93.19,5.85,2.5.93,2.31-.19,4.93-2.5,5.85l-7.65,3.07c-11.72,4.71-24.11,7.05-36.48,7.05Z"/>
        <path d="M427.91,183.72h-68.05c-12.07,0-21.9-9.82-21.9-21.9s9.82-21.9,21.9-21.9h57.18c4.81,0,9.15-2.85,11.05-7.26l12.45-28.75c.99-2.28,3.64-3.33,5.92-2.34,2.28.99,3.33,3.64,2.34,5.92l-12.45,28.75c-3.34,7.71-10.92,12.68-19.31,12.68h-57.18c-7.11,0-12.9,5.79-12.9,12.9s5.79,12.9,12.9,12.9h68.05c2.49,0,4.5,2.01,4.5,4.5s-2.01,4.5-4.5,4.5Z"/>
        <path d="M359.34,148.69c-.98,0-1.97-.32-2.8-.98-1.95-1.55-2.27-4.38-.72-6.32L466.78,1.7c1.54-1.95,4.37-2.27,6.32-.73l24.7,19.58c.94.74,1.54,1.82,1.68,3.01.14,1.19-.2,2.38-.95,3.31l-94.27,118.84c-1.54,1.95-4.38,2.27-6.32.73-1.95-1.54-2.27-4.38-.73-6.32l91.47-115.31-17.65-13.99-108.16,136.17c-.89,1.12-2.2,1.7-3.53,1.7Z"/>
        <path d="M328.77,212.94c-1,0-1.99-.33-2.8-.97-1.26-1-1.89-2.6-1.66-4.19l4.66-31.25c.11-.76.42-1.47.88-2.08l8.72-11.34c1.51-1.97,4.34-2.34,6.31-.82,1.97,1.51,2.34,4.34.82,6.31l-8.01,10.41-3.33,22.36,20.98-8.34,13.2-16.61c1.54-1.95,4.38-2.27,6.32-.72,1.95,1.55,2.27,4.38.72,6.32l-13.94,17.54c-.49.62-1.13,1.09-1.86,1.38l-29.36,11.67c-.54.21-1.1.32-1.66.32Z"/>
        <path d="M352.33,149.97c-.97,0-1.95-.31-2.77-.96l-9.39-7.35c-4.35-3.32-7.16-8.19-7.87-13.68-.7-5.49.78-10.91,4.19-15.27l49.05-62.76c10.19-13.04,27.88-17.49,43.03-10.82l9.6,4.13c2.28.98,3.34,3.63,2.36,5.91-.98,2.28-3.62,3.34-5.91,2.36l-9.63-4.14c-11.41-5.02-24.7-1.68-32.35,8.11l-49.05,62.76c-1.92,2.45-2.75,5.5-2.36,8.58.4,3.08,1.97,5.82,4.45,7.71l9.43,7.38c1.96,1.53,2.3,4.36.77,6.32-.89,1.13-2.21,1.73-3.55,1.73Z"/>
        <path d="M512.27,85.41c-.6,0-1.22-.12-1.8-.38l-45.95-20.14c-2.28-1-3.31-3.65-2.31-5.93,1-2.28,3.65-3.31,5.93-2.31l45.95,20.14c2.28,1,3.31,3.65,2.31,5.93-.74,1.69-2.39,2.69-4.12,2.69Z"/>
      </g>
      <g>
        <g>
          <path d="M171.74,378.93c-.16,0-.33,0-.5-.03-2.47-.27-4.25-2.5-3.98-4.97l9.2-83.52c.27-2.47,2.5-4.25,4.96-3.98,2.47.27,4.25,2.5,3.98,4.97l-9.2,83.52c-.25,2.3-2.2,4.01-4.47,4.01Z"/>
          <path d="M256.66,378.93c-2.26,0-4.21-1.7-4.47-4.01l-9.2-83.52c-.27-2.47,1.51-4.69,3.98-4.97,2.45-.27,4.69,1.51,4.96,3.98l9.2,83.52c.27,2.47-1.51,4.69-3.98,4.97-.17.02-.33.03-.5.03Z"/>
        </g>
        <path d="M288.94,383.05h-149.48c-2.49,0-4.5-2.01-4.5-4.5s2.01-4.5,4.5-4.5h149.48c2.49,0,4.5,2.01,4.5,4.5s-2.01,4.5-4.5,4.5Z"/>
        <g>
          <path d="M396.28,291.29H32.34c-17.71,0-32.12-14.41-32.12-32.12V44.44C.22,26.73,14.63,12.32,32.34,12.32h363.94c2.49,0,4.5,2.01,4.5,4.5s-2.01,4.5-4.5,4.5H32.34c-12.75,0-23.12,10.37-23.12,23.12v214.74c0,12.75,10.37,23.12,23.12,23.12h363.94c12.75,0,23.12-10.37,23.12-23.12v-55.79c0-2.49,2.01-4.5,4.5-4.5s4.5,2.01,4.5,4.5v55.79c0,17.71-14.41,32.12-32.12,32.12Z"/>
          <path d="M419.54,240H4.5c-2.49,0-4.5-2.01-4.5-4.5s2.01-4.5,4.5-4.5h415.04c2.49,0,4.5,2.01,4.5,4.5s-2.01,4.5-4.5,4.5Z"/>
        </g>
      </g>
      <path d="M228.21,208.47c-96.51,0-112.81-11.77-114.86-22.74-2.34-12.55,15.67-23.18,36.52-35.49,17.82-10.52,40.01-23.61,38.54-33.92-.58-4.1-5.9-12.08-34.95-19.35-19-4.75-45.62-8.53-79.14-11.23-2.48-.2-4.32-2.37-4.12-4.85.2-2.48,2.35-4.32,4.85-4.12,105.94,8.53,120.52,25.93,122.27,38.28,2.31,16.26-20.66,29.82-42.88,42.94-14.11,8.33-33.44,19.74-32.25,26.09.34,1.83,3.84,8.1,34.56,12.03,29.07,3.72,75.52,4.36,138.07,1.9,2.52-.1,4.58,1.84,4.67,4.32.1,2.48-1.84,4.58-4.32,4.67-25.78,1.01-47.94,1.47-66.98,1.47Z"/>
    </g>
  </g>
</svg>