<?xml version="1.0" encoding="UTF-8"?>
<svg id="_レイヤー_2" data-name="レイヤー 2" xmlns="http://www.w3.org/2000/svg" viewBox="0 0 428.21 407.66">
  <g id="_レイヤー_2-2" data-name="レイヤー 2">
    <g>
      <path d="M362.92,407.66c-30.68,0-61.31-8.93-95.6-27.77-13.67-7.51-24.99-14.04-29.83-16.82-.87-.5-1.5-.86-1.85-1.07-.26-.09-.51-.21-.75-.35l-.29-.17c-3.95-2.29-6.99-5.77-8.57-9.81-2.31-5.91-1.88-12.14,1.22-17.53,3.11-5.42,8.48-8.98,14.74-9.76,4.18-.52,8.42.23,12.26,2.18,11.98,6.09,20.97,9.54,26.87,11.3l-65.08-86.41c-6.43-8.54-4.72-20.73,3.81-27.17.03-.02.06-.04.09-.06l.36-.26c2.66-1.99,5.83-3.26,9.16-3.68,6.89-.86,13.74,2.05,17.91,7.58l33.3,44.22c1.25-3.53,3.5-6.61,6.54-8.91l.16-.13s.09-.07.14-.11c2.76-2.08,5.99-3.4,9.34-3.82,3.82-.48,7.62.2,10.96,1.84.92-4.45,3.4-8.59,7.3-11.54.03-.02.05-.04.08-.06l.4-.29c2.59-1.95,5.78-3.24,9.13-3.66,4.6-.57,9.18.53,12.96,2.98,1.11-4.06,3.51-7.76,7.01-10.39l.46-.33c2.6-1.96,5.79-3.25,9.14-3.67,4.08-.51,8.13.26,11.72,2.23,1.31.72,2.55,1.65,3.93,2.94l.13.12c.91.86,1.76,1.8,2.51,2.8l6.5,8.62,38.72,51.8c14.9,19.94,12.01,49,2.53,68.95-9.12,19.2-27.1,32.62-48.09,35.9-.15.02-.3.04-.45.05-2.96.16-5.92.25-8.88.25ZM371.54,402.92h0,0ZM239.01,353.64c.38.13.6.26,2.98,1.63,4.81,2.77,16.07,9.26,29.67,16.73,36.46,20.03,67.14,28.19,99.41,26.43,17.96-2.88,33.33-14.4,41.14-30.84,8.32-17.52,11.05-42.77-1.61-59.7l-38.71-51.79-6.48-8.6c-.45-.59-.95-1.15-1.49-1.66l-.13-.12c-.81-.76-1.47-1.27-2.09-1.61-1.92-1.05-4.09-1.47-6.28-1.19-1.77.22-3.51.92-4.91,1.98l-.46.34c-3.6,2.7-5.01,7.65-3.38,11.98.71,1.87.1,3.98-1.5,5.18l-.69.52c-.95.72-2.15,1.03-3.34.86-1.18-.17-2.25-.8-2.97-1.76l-2.73-3.64c-2.23-2.96-5.9-4.52-9.6-4.06-1.77.22-3.51.92-4.91,1.97l-.43.31c-4.55,3.46-5.46,9.98-2.01,14.55l2.73,3.62c1.49,1.98,1.1,4.8-.89,6.3l-.22.17c-.95.72-2.15,1.03-3.34.86-1.18-.17-2.25-.8-2.97-1.75l-6.21-8.25c-2.23-2.98-5.92-4.54-9.62-4.08-1.79.22-3.47.91-4.98,2.03l-.15.12s-.1.08-.15.12c-2.21,1.66-3.65,4.08-4.04,6.83-.39,2.76.31,5.5,1.98,7.73l6.22,8.26c1.5,1.98,1.1,4.8-.88,6.3l-.21.16c-.95.72-2.15,1.03-3.34.86-1.18-.17-2.25-.8-2.97-1.75l-49.28-65.43c-2.23-2.97-5.91-4.52-9.6-4.06-1.77.22-3.51.92-4.91,1.97-.03.02-.05.04-.08.06l-.35.25c-4.54,3.46-5.45,9.98-2.01,14.55l70.6,93.74c1.18,1.57,1.61,4.22-.75,6.95-.65.75-1.53,1.27-2.5,1.46-.14.03-.33.06-.56.09-6.28.79-21.94-4.59-39.84-13.7-2.23-1.13-4.67-1.57-7.06-1.28-3.43.43-6.36,2.36-8.05,5.31-1.71,2.98-1.94,6.45-.64,9.77.82,2.11,2.45,3.97,4.59,5.24ZM286.63,345.2s0,0,.01.01h-.01ZM288.91,339.36s0,0,0,0c0,0,0,0,0,0Z"/>
      <g>
        <path d="M234.75,318.02H40.15c-22.14,0-40.15-18.01-40.15-40.15V40.15C0,18.01,18.01,0,40.15,0h237.71c22.14,0,40.15,18.01,40.15,40.15l-.17,190.4c0,2.48-2.02,4.5-4.5,4.5h0c-2.49,0-4.5-2.02-4.5-4.5l.17-190.39c0-17.17-13.98-31.15-31.15-31.15H40.15c-17.18,0-31.15,13.98-31.15,31.15v237.71c0,17.18,13.98,31.15,31.15,31.15h194.59c2.49,0,4.5,2.01,4.5,4.5s-2.01,4.5-4.5,4.5Z"/>
        <g>
          <path d="M159.32,163.82c-2.49,0-4.5-2.01-4.5-4.5v-45.59c0-2.49,2.01-4.5,4.5-4.5s4.5,2.01,4.5,4.5v45.59c0,2.49-2.01,4.5-4.5,4.5Z"/>
          <path d="M159.32,54.59c-2.49,0-4.5-2.01-4.5-4.5V4.5c0-2.49,2.01-4.5,4.5-4.5s4.5,2.01,4.5,4.5v45.59c0,2.49-2.01,4.5-4.5,4.5Z"/>
          <path d="M161.15,118.23c-2.49,0-4.5-2.01-4.5-4.5s2.01-4.5,4.5-4.5c15.06,0,27.32-12.26,27.32-27.32s-12.26-27.32-27.32-27.32c-2.49,0-4.5-2.01-4.5-4.5s2.01-4.5,4.5-4.5c20.03,0,36.32,16.29,36.32,36.32s-16.29,36.32-36.32,36.32Z"/>
        </g>
        <g>
          <path d="M159.32,163.82h-45.59c-2.49,0-4.5-2.01-4.5-4.5s2.01-4.5,4.5-4.5h45.59c2.49,0,4.5,2.01,4.5,4.5s-2.01,4.5-4.5,4.5Z"/>
          <path d="M50.09,163.82H4.5c-2.49,0-4.5-2.01-4.5-4.5s2.01-4.5,4.5-4.5h45.59c2.49,0,4.5,2.01,4.5,4.5s-2.01,4.5-4.5,4.5Z"/>
          <path d="M113.73,161.98c-2.49,0-4.5-2.01-4.5-4.5,0-15.06-12.26-27.32-27.32-27.32s-27.32,12.26-27.32,27.32c0,2.49-2.01,4.5-4.5,4.5s-4.5-2.01-4.5-4.5c0-20.03,16.29-36.32,36.32-36.32s36.32,16.29,36.32,36.32c0,2.49-2.01,4.5-4.5,4.5Z"/>
        </g>
        <g>
          <path d="M159.32,209.4c-2.49,0-4.5-2.01-4.5-4.5v-45.59c0-2.49,2.01-4.5,4.5-4.5s4.5,2.01,4.5,4.5v45.59c0,2.49-2.01,4.5-4.5,4.5Z"/>
          <path d="M159.32,318.63c-2.49,0-4.5-2.01-4.5-4.5v-45.59c0-2.49,2.01-4.5,4.5-4.5s4.5,2.01,4.5,4.5v45.59c0,2.49-2.01,4.5-4.5,4.5Z"/>
          <path d="M157.48,273.04c-20.03,0-36.32-16.29-36.32-36.32s16.29-36.32,36.32-36.32c2.49,0,4.5,2.01,4.5,4.5s-2.01,4.5-4.5,4.5c-15.06,0-27.32,12.26-27.32,27.32s12.26,27.32,27.32,27.32c2.49,0,4.5,2.01,4.5,4.5s-2.01,4.5-4.5,4.5Z"/>
        </g>
        <g>
          <path d="M204.9,163.82h-45.59c-2.49,0-4.5-2.01-4.5-4.5s2.01-4.5,4.5-4.5h45.59c2.49,0,4.5,2.01,4.5,4.5s-2.01,4.5-4.5,4.5Z"/>
          <path d="M314.13,163.82h-45.59c-2.49,0-4.5-2.01-4.5-4.5s2.01-4.5,4.5-4.5h45.59c2.49,0,4.5,2.01,4.5,4.5s-2.01,4.5-4.5,4.5Z"/>
          <path d="M236.72,197.47c-20.03,0-36.32-16.29-36.32-36.32,0-2.49,2.01-4.5,4.5-4.5s4.5,2.01,4.5,4.5c0,15.06,12.26,27.32,27.32,27.32s27.32-12.26,27.32-27.32c0-2.49,2.01-4.5,4.5-4.5s4.5,2.01,4.5,4.5c0,20.03-16.29,36.32-36.32,36.32Z"/>
        </g>
      </g>
    </g>
  </g>
</svg>