<?xml version="1.0" encoding="UTF-8"?><svg id="_レイヤー_2" xmlns="http://www.w3.org/2000/svg" viewBox="0 0 375 375"><defs><style>.cls-1{fill:#060d23;}.cls-2{fill:#efaf0f;}.cls-3{fill:#fff;}.cls-4{fill:#533afc;}</style></defs><g id="_レイヤー_1-2"><circle id="_楕円形_3" class="cls-3" cx="187.5" cy="187.5" r="187.5"/><path id="_パス_24219" class="cls-2" d="M313.62,171.59v19.53c0,7.78-2.84,15.3-7.99,21.14-2.08,2.34-3.22,5.37-3.22,8.5v18.26c0,2.57-2,4.69-4.57,4.83l-43.1,2.35h-.26c-2.67,0-4.84-2.16-4.85-4.83v-6.05c-.99.29-2.02.44-3.05.43h-15.42c-8.28,0-15-6.71-15.01-14.99v-10.82c0-.55-.32-1.05-.82-1.29l-8.77-4.11c-3.73-1.73-5.35-6.15-3.62-9.87.09-.19.18-.37.28-.55l8.16-14.47c.39-.69.6-1.48.6-2.28v-9.79c.03-25.51,20.7-46.18,46.21-46.21h5.2c27.73.03,50.19,22.5,50.23,50.22Z"/><path id="_パス_24220" class="cls-4" d="M173.75,199.48c-.65,1.99-2.09,3.63-3.99,4.53l-8.88,4.16c-.52.24-.85.77-.85,1.34v10.94c-.01,8.38-6.81,15.16-15.18,15.16h-15.62c-1.05,0-2.1-.1-3.12-.31v6.06c0,1.33-.54,2.6-1.51,3.51-.9.85-2.09,1.32-3.33,1.32h-.26l-43.71-2.39c-2.57-.14-4.57-2.26-4.57-4.83v-18.53c0-3.18-1.16-6.24-3.26-8.62-5.21-5.91-8.08-13.51-8.08-21.38v-19.78c.03-28.06,22.78-50.81,50.84-50.84h5.25c25.82.02,46.75,20.95,46.78,46.78v9.9c0,.81.21,1.61.6,2.32l8.28,14.65c1.03,1.83,1.25,4,.62,6Z"/><path id="_パス_24221" class="cls-3" d="M265.19,237.8c-1.28,0-2.31-1.03-2.31-2.31v-27.67c0-.79-.39-1.53-1.04-1.98l-19.76-13.63c-1.9-1.31-3.04-3.48-3.04-5.79v-11.22c0-1.28,1.03-2.31,2.31-2.31s2.31,1.03,2.31,2.31h0v11.22c0,.79.39,1.54,1.04,1.98l19.76,13.63c1.9,1.31,3.04,3.48,3.04,5.79v27.66c0,1.28-1.03,2.31-2.31,2.31h0Z"/><path id="_パス_24222" class="cls-3" d="M273.85,227.58c-1.28,0-2.31-1.03-2.31-2.31v-31.83c0-.64-.25-1.25-.71-1.71l-6.57-6.57c-1.32-1.32-2.06-3.11-2.06-4.97v-23.56c0-1.28,1.03-2.31,2.31-2.31s2.31,1.03,2.31,2.31v23.56c0,.64.25,1.26.71,1.71l6.57,6.57c1.32,1.32,2.06,3.1,2.06,4.97v31.83c0,1.27-1.04,2.31-2.31,2.31Z"/><path id="_パス_24223" class="cls-3" d="M286.69,243.24c-1.28,0-2.31-1.03-2.31-2.31v-57.31c0-1.87.74-3.66,2.06-4.97l1.15-1.15c.45-.45.7-1.07.71-1.71v-10.82c0-1.28,1.03-2.31,2.31-2.31s2.31,1.03,2.31,2.31v10.82c0,1.87-.74,3.65-2.06,4.97l-1.15,1.15c-.45.45-.71,1.07-.71,1.71v57.31c0,1.28-1.03,2.31-2.31,2.31h0Z"/><path id="_パス_24224" class="cls-3" d="M239.59,176.4c-4.64,0-8.41-3.76-8.41-8.41s3.76-8.41,8.41-8.41c4.64,0,8.41,3.76,8.41,8.41h0c0,4.64-3.77,8.4-8.41,8.41ZM239.59,164.2c-2.09,0-3.79,1.7-3.79,3.79s1.7,3.79,3.79,3.79c2.09,0,3.79-1.7,3.79-3.79,0-2.09-1.7-3.78-3.79-3.78h0Z"/><path id="_パス_24225" class="cls-3" d="M265.97,157.99c-4.47,0-8.1-3.63-8.1-8.1,0-4.47,3.63-8.1,8.1-8.1s8.1,3.63,8.1,8.1h0c0,4.47-3.63,8.09-8.1,8.1ZM265.97,146.4c-1.93,0-3.49,1.56-3.48,3.49,0,1.93,1.56,3.49,3.49,3.48,1.92,0,3.48-1.56,3.48-3.49,0-1.92-1.56-3.48-3.49-3.48h0Z"/><path id="_パス_24226" class="cls-3" d="M291.6,167.29c-4.22,0-7.64-3.42-7.64-7.64s3.42-7.64,7.64-7.64c4.22,0,7.64,3.42,7.64,7.64h0c0,4.22-3.42,7.64-7.64,7.64ZM291.6,156.62c-1.67,0-3.03,1.35-3.03,3.02,0,1.67,1.35,3.03,3.02,3.03,1.67,0,3.03-1.35,3.03-3.02h0c0-1.67-1.36-3.02-3.02-3.02h0Z"/><path id="_パス_24227" class="cls-3" d="M105.54,208.25c-1.28,0-2.31-1.03-2.31-2.31h0v-9.34c0-6.2,5.03-11.23,11.23-11.23h6.95c3.94,0,7.13-3.2,7.14-7.14,0-3.59-2.92-6.51-6.51-6.51h-3.22c-1.28,0-2.31-1.03-2.32-2.3s1.03-2.31,2.3-2.32h3.23c6.14,0,11.12,4.99,11.13,11.13,0,6.49-5.27,11.75-11.76,11.76h-6.95c-3.65,0-6.61,2.96-6.62,6.62v9.34c0,1.27-1.03,2.31-2.31,2.31h0Z"/><path id="_パス_24228" class="cls-3" d="M134.09,180.54h-3.24c-1.28,0-2.31-1.03-2.31-2.31s1.03-2.31,2.31-2.31h3.24c6.12,0,11.09-4.97,11.09-11.09v-1.53c0-6.12-4.97-11.09-11.09-11.09h-3.24c-1.28,0-2.31-1.03-2.32-2.3s1.03-2.31,2.3-2.32h3.25c8.67,0,15.7,7.04,15.71,15.71v1.53c0,8.67-7.04,15.7-15.71,15.71Z"/><path id="_パス_24229" class="cls-3" d="M89.56,191.65h-4.57c-7.69,0-13.92-6.24-13.93-13.93v-3.79c0-3.68,2.43-6.91,5.96-7.94.15-9.16,7.6-16.51,16.76-16.52h1.1c1.16-7.86,7.9-13.69,15.84-13.7h6.62c8.25,0,14.94,6.7,14.95,14.95v6.25c0,1.28-1.03,2.31-2.31,2.31s-2.31-1.03-2.31-2.31v-6.25c0-5.7-4.63-10.32-10.33-10.33h-6.62c-6.29,0-11.38,5.1-11.39,11.39v2.31h-5.56c-6.7,0-12.14,5.44-12.15,12.15v4.04h-2.31c-2.02,0-3.65,1.64-3.65,3.65v3.79c0,5.14,4.17,9.31,9.32,9.32h4.57c4.34,0,7.86-3.52,7.86-7.86v-2.08c0-1.28,1.03-2.31,2.31-2.31s2.31,1.03,2.31,2.31h0v2.08c0,6.89-5.59,12.47-12.48,12.48Z"/><path id="_パス_24230" class="cls-3" d="M104.2,165.03c-1.28,0-2.31-1.04-2.31-2.31,0-.42.11-.83.33-1.19,1.36-2.25,3.33-4.06,5.68-5.23,2.57-1.28,5.49-1.67,8.31-1.13,2.87.57,5.44,2.17,7.23,4.49.77,1.02.57,2.46-.45,3.23-1.02.77-2.46.57-3.23-.45h0c-1.1-1.42-2.69-2.4-4.45-2.74-1.82-.34-3.71-.08-5.36.75-1.56.77-2.86,1.98-3.76,3.46-.42.7-1.17,1.13-1.98,1.12Z"/><path id="_パス_24231" class="cls-3" d="M100.41,177.97c-3.69,0-7.24-1.41-9.92-3.94-.2-.19-.4-.39-.59-.58-.33-.36-.7-.69-1.1-.98-.14-.11-.3-.18-.48-.19-1.15.49-2.48-.04-2.97-1.2,0-.01,0-.02-.01-.03-.48-1.19.08-2.54,1.26-3.04,1.58-.61,3.36-.38,4.74.6.67.46,1.28,1,1.84,1.59.16.16.32.33.49.48,3.9,3.7,10.07,3.53,13.76-.37.39-.41.74-.86,1.06-1.33.7-1.06,2.14-1.35,3.2-.65,1.06.7,1.35,2.14.65,3.2-2.36,3.52-6.13,5.84-10.34,6.34-.52.06-1.05.1-1.58.1Z"/><path id="_パス_24232" class="cls-2" d="M171.79,249.5c-1.28,0-2.31-1.04-2.31-2.31,0-.26.04-.51.13-.76l22.55-64.94c.68-1.97-.36-4.11-2.32-4.8-.24-.08-.49-.14-.74-.18l-3.29-.43c-4.59-.6-7.83-4.81-7.23-9.4.08-.63.24-1.25.46-1.84l18.39-49.35c.42-1.2,1.74-1.84,2.94-1.42,1.2.42,1.84,1.74,1.42,2.94-.01.03-.02.06-.04.09l-18.39,49.34c-.73,1.95.27,4.12,2.21,4.84.27.1.54.17.83.21l3.29.43c4.59.6,7.83,4.81,7.23,9.4-.07.57-.21,1.12-.39,1.66l-22.55,64.94c-.32.93-1.2,1.55-2.18,1.55Z"/><path id="_パス_24233" class="cls-1" d="M254.48,246.2c-2.67,0-4.83-2.16-4.83-4.83h0v-6.05c-.99.29-2.02.44-3.05.43h-15.43c-8.28-.01-14.99-6.72-15-15v-10.82c0-.55-.32-1.06-.82-1.29l-8.77-4.1c-3.73-1.74-5.35-6.18-3.6-9.92.08-.17.17-.34.26-.51l8.17-14.48c.39-.7.6-1.48.6-2.28v-9.78c.03-25.51,20.7-46.18,46.21-46.21h5.2c27.72.03,50.19,22.5,50.22,50.22v19.53c0,7.78-2.84,15.3-7.99,21.13-2.07,2.34-3.21,5.36-3.21,8.49v18.27c0,2.57-2.01,4.69-4.57,4.83l-43.11,2.35c-.09,0-.18,0-.27,0ZM254.25,232.45c0,.07,0,.13,0,.2v8.72c0,.06.02.12.07.16.04.04.1.06.16.06l43.11-2.35c.11,0,.2-.1.2-.22v-18.27c0-4.25,1.55-8.36,4.36-11.55,4.4-4.99,6.83-11.42,6.83-18.08v-19.53c-.03-25.17-20.43-45.57-45.6-45.6h-5.2c-22.96.03-41.56,18.63-41.59,41.59v9.78c0,1.59-.42,3.16-1.2,4.55l-8.17,14.47c-.77,1.37-.29,3.11,1.08,3.88.06.03.12.07.19.1l8.77,4.1c2.12,1,3.48,3.13,3.48,5.48v10.81c0,5.73,4.65,10.38,10.39,10.39h15.43c5.48,0,7.31-7.4,7.32-7.47.29-1.24,1.53-2.01,2.78-1.72s2.01,1.53,1.72,2.78c-.73,2.88-2.16,5.54-4.15,7.74h0Z"/><path id="_パス_24234" class="cls-1" d="M121.28,246.2c-.08,0-.17,0-.26,0l-43.72-2.39c-2.56-.14-4.57-2.26-4.57-4.83v-18.53c0-3.17-1.16-6.24-3.26-8.62-5.21-5.9-8.09-13.51-8.09-21.38v-19.79c.03-28.06,22.77-50.8,50.83-50.83h5.26c25.82.03,46.74,20.95,46.77,46.77v9.91c0,.81.21,1.61.61,2.32l8.27,14.66c2.04,3.62.76,8.21-2.86,10.26-.17.09-.34.18-.51.26l-8.89,4.16c-.52.24-.85.76-.85,1.34v10.95c0,8.37-6.79,15.16-15.17,15.17h-15.63c-1.05,0-2.09-.1-3.12-.31v6.06c0,2.67-2.16,4.83-4.83,4.83h0ZM112.22,124.44c-25.51.03-46.19,20.7-46.22,46.22v19.78c0,6.75,2.46,13.27,6.93,18.33,2.84,3.22,4.41,7.37,4.41,11.67v18.53c0,.11.09.21.2.22l43.72,2.39c.12,0,.22-.09.23-.21,0,0,0,0,0,0v-7.76c-5.05-2.81-8.18-8.13-8.19-13.91v-.76c0-1.28,1.03-2.31,2.31-2.31,1.28,0,2.31,1.03,2.31,2.31h0v.76c0,6.24,5.06,11.29,11.3,11.3h15.63c5.82,0,10.54-4.73,10.55-10.55v-10.95c0-2.36,1.37-4.51,3.51-5.52l8.89-4.16c1.46-.68,2.08-2.41,1.4-3.87-.03-.07-.07-.13-.1-.2l-8.27-14.66c-.79-1.4-1.2-2.98-1.2-4.59v-9.9c-.03-23.27-18.88-42.12-42.15-42.15h-5.26Z"/></g></svg>