<?xml version="1.0" encoding="UTF-8"?>
<svg id="_レイヤー_2" data-name="レイヤー 2" xmlns="http://www.w3.org/2000/svg" viewBox="0 0 380.59 426.84">
  <g id="_レイヤー_2-2" data-name="レイヤー 2">
    <g>
      <g>
        <path d="M82.84,82.85c-22.84,0-41.43-18.58-41.43-41.43S60,0,82.84,0s41.43,18.58,41.43,41.43-18.58,41.43-41.43,41.43ZM82.84,9c-17.88,0-32.43,14.55-32.43,32.43s14.55,32.43,32.43,32.43,32.43-14.55,32.43-32.43-14.55-32.43-32.43-32.43Z"/>
        <path d="M69.29,426.84h-20.03c-9.31,0-17.02-7.57-17.18-16.88l-4.07-233.56c-.04-2.48,1.94-4.53,4.42-4.58,2.51-.04,4.53,1.94,4.58,4.42l4.07,233.56c.08,4.43,3.75,8.04,8.18,8.04h20.03c4.51,0,8.18-3.67,8.18-8.18v-115.78c0-2.49,2.01-4.5,4.5-4.5s4.5,2.01,4.5,4.5v115.78c0,9.47-7.71,17.18-17.18,17.18Z"/>
        <path d="M114.67,426.84h-20.03c-9.47,0-17.18-7.71-17.18-17.18v-115.78c0-2.49,2.01-4.5,4.5-4.5s4.5,2.01,4.5,4.5v115.78c0,4.51,3.67,8.18,8.18,8.18h20.03c4.43,0,8.1-3.61,8.18-8.04l4.84-271.71c.04-2.48,2.09-4.46,4.58-4.42,2.49.04,4.46,2.09,4.42,4.58l-4.84,271.71c-.16,9.31-7.87,16.88-17.18,16.88Z"/>
        <path d="M34.41,287.57h-17.46c-9.34,0-16.95-7.6-16.95-16.95v-129.54c0-27.84,22.65-50.5,50.5-50.5h209.21c14.32,0,25.97,11.65,25.97,25.97s-11.65,25.97-25.97,25.97h-125.58c-2.49,0-4.5-2.01-4.5-4.5s2.01-4.5,4.5-4.5h125.58c9.36,0,16.97-7.61,16.97-16.97s-7.61-16.97-16.97-16.97H50.5c-22.88,0-41.5,18.62-41.5,41.5v129.54c0,4.38,3.56,7.95,7.95,7.95h17.46c2.49,0,4.5,2.01,4.5,4.5s-2.01,4.5-4.5,4.5Z"/>
      </g>
      <g>
        <g>
          <path d="M262.55,312.04c-22.69,0-41.15-18.46-41.15-41.15,0-10.99,4.28-21.32,12.05-29.1,1.76-1.76,4.61-1.76,6.36,0,1.76,1.76,1.76,4.61,0,6.36-6.07,6.07-9.42,14.14-9.42,22.73,0,17.73,14.42,32.15,32.15,32.15,8.59,0,16.66-3.34,22.73-9.42,1.76-1.76,4.61-1.76,6.36,0,1.76,1.76,1.76,4.61,0,6.36-7.77,7.77-18.1,12.05-29.1,12.05Z"/>
          <path d="M262.55,350.84c-44.08,0-79.95-35.86-79.95-79.95s35.86-79.95,79.95-79.95c7.46,0,14.86,1.03,21.97,3.06,2.39.68,3.77,3.17,3.09,5.56-.68,2.39-3.16,3.78-5.56,3.09-6.31-1.8-12.87-2.71-19.5-2.71-39.12,0-70.95,31.83-70.95,70.95s31.83,70.95,70.95,70.95,70.95-31.83,70.95-70.95c0-6.63-.91-13.19-2.71-19.5-.68-2.39.7-4.88,3.09-5.56,2.39-.68,4.88.7,5.56,3.09,2.03,7.11,3.06,14.5,3.06,21.97,0,44.08-35.86,79.95-79.95,79.95Z"/>
        </g>
        <g>
          <path d="M345.51,211.39c-.37,0-.73-.02-1.1-.06l-16.04-1.71c-2.11-.22-3.77-1.89-4-4l-1.71-16.05c-.31-2.94.65-5.89,2.64-8.08l23.49-25.89c1.78-1.97,4.47-2.69,7-1.88,2.53.81,4.3,2.95,4.61,5.59l1.49,12.78,12.78,1.49c2.64.31,4.78,2.07,5.59,4.6.81,2.53.09,5.21-1.88,7l-25.88,23.49c-1.92,1.74-4.42,2.7-6.99,2.7ZM332.94,201.06l12.43,1.32c.39.04.79-.09,1.08-.35l22.12-20.08-11.27-1.32c-2.07-.24-3.71-1.88-3.95-3.95l-1.32-11.27-20.08,22.12c-.27.29-.39.69-.35,1.08l1.32,12.43ZM373.62,182.54h.01-.01Z"/>
          <path d="M262.55,275.39c-1.15,0-2.3-.44-3.18-1.32-1.76-1.76-1.76-4.61,0-6.36l66.77-66.77c1.76-1.76,4.61-1.76,6.36,0,1.76,1.76,1.76,4.61,0,6.36l-66.77,66.77c-.88.88-2.03,1.32-3.18,1.32Z"/>
        </g>
      </g>
    </g>
  </g>
</svg>