<?xml version="1.0" encoding="UTF-8"?><svg id="_レイヤー_2" xmlns="http://www.w3.org/2000/svg" viewBox="0 0 375 375"><defs><style>.cls-1{fill:#060d23;}.cls-2{fill:#efaf0f;}.cls-3{fill:#fff;}.cls-4{fill:#533afc;}</style></defs><g id="_レイヤー_1-2"><circle id="_楕円形_4" class="cls-3" cx="187.5" cy="187.5" r="187.5"/><path id="_パス_24235" class="cls-4" d="M277.98,246.7H97.55v-103.27c0-5.36,4.34-9.7,9.7-9.7h161.03c5.36,0,9.7,4.34,9.7,9.7h0v103.27h0Z"/><path id="_パス_24236" class="cls-2" d="M204.55,217.32h-33.58c-5.69,0-10.31-4.62-10.31-10.32v-33.58c0-5.69,4.62-10.31,10.31-10.31h33.58c5.69,0,10.31,4.62,10.31,10.31v33.58c0,5.69-4.62,10.31-10.32,10.32ZM170.97,167.32c-3.37,0-6.09,2.73-6.1,6.1v33.59c0,3.37,2.73,6.1,6.1,6.1h33.58c3.37,0,6.09-2.73,6.1-6.1v-33.58c0-3.37-2.73-6.09-6.1-6.1h-33.58Z"/><path id="_パス_24237" class="cls-3" d="M193.31,198.54h-5.18l-1.31-3.61h-9.14l-1.34,3.61h-5.18l8.24-21.31h5.69l8.21,21.31ZM185.58,190.94l-3.32-9.17-3.32,9.17h6.65Z"/><path id="_パス_24238" class="cls-3" d="M199.83,198.54h-4.54v-21.31h4.54v21.31Z"/><path id="_パス_24239" class="cls-4" d="M290.79,246.7H84.74c-3.66,0-6.63,2.97-6.63,6.63v4.06c0,5.12,4.15,9.27,9.27,9.27h200.77c5.12,0,9.27-4.15,9.27-9.27h0v-4.06c0-3.66-2.97-6.63-6.63-6.63Z"/><path id="_パス_24240" class="cls-3" d="M217.94,256.68h-60.35c-2.18,0-3.95-1.77-3.95-3.95h0v-6.03h68.24v6.03c0,2.18-1.77,3.95-3.95,3.95Z"/><path id="_パス_24241" class="cls-2" d="M219.87,200.61h-9.21v-18.34h9.21c3.38,0,6.12,2.74,6.13,6.13v6.09c0,3.38-2.74,6.12-6.13,6.13ZM214.87,196.4h5.01c1.06,0,1.92-.86,1.92-1.92v-6.09c0-1.06-.86-1.92-1.92-1.92h-5.01v9.93Z"/><path id="_パス_24242" class="cls-1" d="M280.08,248.89H95.44v-105.38c0-6.52,5.29-11.8,11.81-11.81h161.02c6.52,0,11.8,5.29,11.81,11.81v105.38ZM99.65,244.68h176.22v-101.16c0-4.2-3.4-7.6-7.6-7.6H107.25c-4.2,0-7.6,3.4-7.6,7.6v101.16Z"/><path id="_パス_24243" class="cls-1" d="M288.15,268.85H87.38c-6.28,0-11.37-5.1-11.38-11.38v-4.06c0-4.82,3.91-8.73,8.74-8.74h206.06c4.82,0,8.73,3.91,8.74,8.74v4.06c0,6.28-5.1,11.37-11.38,11.38ZM84.73,248.89c-2.5,0-4.52,2.03-4.52,4.53v4.06c0,3.96,3.21,7.16,7.17,7.17h200.77c3.96,0,7.16-3.21,7.17-7.17v-4.06c0-2.5-2.03-4.52-4.52-4.53H84.73Z"/><path id="_パス_24244" class="cls-2" d="M288.03,212.45h-10.05c-1.16,0-2.11-.94-2.11-2.11s.94-2.11,2.11-2.11h10.05c3.16,0,5.72-2.57,5.73-5.73v-4.47c0-3.16-2.56-5.72-5.73-5.73h-62.12c-1.16,0-2.11-.94-2.11-2.11s.94-2.11,2.11-2.11h62.12c5.49,0,9.93,4.45,9.94,9.94v4.47c0,5.49-4.45,9.93-9.94,9.94Z"/><path id="_パス_24245" class="cls-2" d="M179.32,167.32c-1.16,0-2.1-.94-2.1-2.11v-48.73c0-2.91-2.36-5.27-5.27-5.27h-9.73c-2.91,0-5.27,2.36-5.27,5.27v16.09c0,1.16-.94,2.11-2.11,2.11s-2.11-.94-2.11-2.11h0v-16.09c0-5.23,4.25-9.47,9.48-9.48h9.73c5.23,0,9.48,4.25,9.48,9.48v48.73c0,1.16-.94,2.1-2.09,2.11h0Z"/><path id="_パス_24246" class="cls-2" d="M97.55,226.53h-3.17c-5.3,0-9.59-4.3-9.59-9.59v-6.7c0-5.3,4.3-9.59,9.59-9.59h68.38c1.16,0,2.11.94,2.11,2.11s-.94,2.11-2.11,2.11h-68.38c-2.97,0-5.38,2.41-5.38,5.38v6.7c0,2.97,2.41,5.38,5.38,5.38h3.17c1.16,0,2.1.94,2.1,2.1s-.94,2.1-2.1,2.1h0Z"/></g></svg>