<?xml version="1.0" encoding="UTF-8"?><svg id="_レイヤー_2" xmlns="http://www.w3.org/2000/svg" xmlns:xlink="http://www.w3.org/1999/xlink" viewBox="0 0 159.48 151.49"><defs><style>.cls-1{fill:#ffd2a7;}.cls-2{fill:url(#_名称未設定グラデーション_13-3);}.cls-3{fill:url(#_名称未設定グラデーション_13-2);}.cls-4{fill:url(#_名称未設定グラデーション_12-4);}.cls-5{fill:url(#_名称未設定グラデーション_12-5);}.cls-6{fill:url(#_名称未設定グラデーション_12-6);}.cls-7{fill:url(#_名称未設定グラデーション_12-2);}.cls-8{fill:url(#_名称未設定グラデーション_12-3);}.cls-9{fill:url(#_名称未設定グラデーション_14-3);}.cls-10{fill:url(#_名称未設定グラデーション_14-2);}.cls-11{fill:#1a198f;}.cls-12{fill:#1c0a76;}.cls-13{fill:#1c0a75;}.cls-14{fill:url(#_名称未設定グラデーション_4);}.cls-15{fill:#ffbc8e;}.cls-16{fill:#6a6ae8;}.cls-17{fill:#fff;}.cls-18{fill:#d35600;}.cls-19{fill:#c8d3fb;}.cls-20{fill:#3b31a1;}.cls-21{fill:#221e96;}.cls-22{fill:url(#_名称未設定グラデーション_14);}.cls-23{fill:url(#_名称未設定グラデーション_12);}.cls-24{fill:url(#_名称未設定グラデーション_13);}.cls-25{fill:url(#_名称未設定グラデーション_15);}.cls-26{fill:url(#_名称未設定グラデーション_10);}</style><linearGradient id="_名称未設定グラデーション_13" x1="-861.46" y1="561.47" x2="-856.65" y2="562.54" gradientTransform="translate(35573.25 74720.02) scale(41.29 -132.83)" gradientUnits="userSpaceOnUse"><stop offset="0" stop-color="#6a6ae8"/><stop offset="1" stop-color="#312890"/></linearGradient><linearGradient id="_名称未設定グラデーション_12" x1="-850.52" y1="555.31" x2="-849.52" y2="555.31" gradientTransform="translate(22767.4 23773.64) scale(26.62 -42.69)" gradientUnits="userSpaceOnUse"><stop offset="0" stop-color="#4f3bf2"/><stop offset="1" stop-color="#523bc9"/></linearGradient><linearGradient id="_名称未設定グラデーション_14" x1="-794.34" y1="530.6" x2="-793.34" y2="530.6" gradientTransform="translate(6999.88 6421.66) scale(8.64 -12.01)" gradientUnits="userSpaceOnUse"><stop offset="0" stop-color="#fff"/><stop offset="1" stop-color="#d3dbeb"/></linearGradient><linearGradient id="_名称未設定グラデーション_4" x1="-1006.31" y1="378.45" x2="-1000.83" y2="378.45" gradientTransform="translate(3786.16 876.28) scale(4.98 -2.21)" gradientUnits="userSpaceOnUse"><stop offset="0" stop-color="#ffd000"/><stop offset="1" stop-color="#ff7400"/></linearGradient><linearGradient id="_名称未設定グラデーション_13-2" x1="-864.56" y1="555.9" x2="-860.44" y2="558.57" gradientTransform="translate(41802.37 29875.68) scale(48.34 -53.48)" xlink:href="#_名称未設定グラデーション_13"/><linearGradient id="_名称未設定グラデーション_12-2" x1="-820.35" y1="548.89" x2="-818.36" y2="548.89" gradientTransform="translate(7794.5 14143.15) scale(9.54 -25.66)" xlink:href="#_名称未設定グラデーション_12"/><linearGradient id="_名称未設定グラデーション_12-3" x1="-855.86" y1="554.2" x2="-851.41" y2="556.82" gradientTransform="translate(26869.67 23635.08) scale(31.42 -42.41)" xlink:href="#_名称未設定グラデーション_12"/><linearGradient id="_名称未設定グラデーション_12-4" x1="-833.6" y1="554.72" x2="-824.54" y2="557.24" gradientTransform="translate(12857.45 24420.8) scale(15.45 -43.8)" xlink:href="#_名称未設定グラデーション_12"/><linearGradient id="_名称未設定グラデーション_12-5" x1="-844.61" y1="552.97" x2="-837.91" y2="555.96" gradientTransform="translate(17651.36 20629.51) scale(20.9 -37.03)" xlink:href="#_名称未設定グラデーション_12"/><linearGradient id="_名称未設定グラデーション_10" x1="-812.53" y1="526.62" x2="-811.28" y2="526.24" gradientTransform="translate(11044.72 6302.27) scale(13.37 -11.79)" gradientUnits="userSpaceOnUse"><stop offset="0" stop-color="#fff"/><stop offset=".95" stop-color="#d5ddec"/><stop offset="1" stop-color="#d3dbeb"/></linearGradient><linearGradient id="_名称未設定グラデーション_14-2" x1="-832.22" y1="547.83" x2="-831.22" y2="547.83" gradientTransform="translate(16844.69 13242.27) scale(19.99 -24.07)" xlink:href="#_名称未設定グラデーション_14"/><linearGradient id="_名称未設定グラデーション_12-6" x1="-844.3" y1="553.56" x2="-837.69" y2="556.48" gradientTransform="translate(17864.74 21104.31) scale(21.17 -37.87)" xlink:href="#_名称未設定グラデーション_12"/><linearGradient id="_名称未設定グラデーション_13-3" x1="-863.01" y1="556.51" x2="-858.9" y2="559.18" gradientTransform="translate(41714.71 29875.68) scale(48.34 -53.48)" xlink:href="#_名称未設定グラデーション_13"/><linearGradient id="_名称未設定グラデーション_14-3" x1="-815.44" y1="534.22" x2="-814.68" y2="534.22" gradientTransform="translate(9597.76 7223.39) scale(11.73 -13.42)" xlink:href="#_名称未設定グラデーション_14"/><linearGradient id="_名称未設定グラデーション_15" x1="-826.21" y1="544.06" x2="-825.21" y2="544.06" gradientTransform="translate(11705.33 10746.49) scale(14.01 -19.73)" gradientUnits="userSpaceOnUse"><stop offset="0" stop-color="#ffae00"/><stop offset="1" stop-color="#ff7800"/></linearGradient></defs><g id="_レイヤー_1-2"><path id="_パス_6685" class="cls-24" d="M63.72,151.49L89.82,18.66h15.18l-26.4,132.83h-14.89Z"/><path id="_パス_6686" class="cls-20" d="M123.81,83.48c.68-3.2,2.29-6.14,4.63-8.43,1.5-1.28,5.69-1.15,7.39,2.33s2.32,5.59,1.85,11.86-5.67,27.71-5.68,32.41-9.79,4.19-9.27-2.55-.07-30.33,1.08-35.63Z"/><path id="_パス_6687" class="cls-12" d="M137.82,84.82c-.05-2.6-.73-5.15-1.99-7.44-.8-1.68-2.42-2.83-4.27-3.03-.1-.01-.2-.02-.3-.03s-.18,0-.26-.01c-.25,0-.51,0-.76.04-.31.04-.61.11-.91.21-.13.05-.26.1-.39.17-.06.03-.12.06-.18.1-.11.07-.21.14-.31.22-.06.05-.12.11-.2.18l-.12.12-.04.04s-.06.06-.1.1l-.05.05-.1.11-.05.05c-.1.11-.21.24-.33.37l-.05.06s-.08.1-.13.15c-.02.02-.04.05-.06.07l-.13.17-.05.07c-.13.16-.25.33-.38.52l-.05.08c-.05.07-.1.14-.14.21l-.06.09-.14.22-.06.09c-.13.21-.27.42-.4.65l-.06.1c-.05.08-.09.17-.14.25-.02.04-.04.08-.06.12-.05.08-.09.17-.14.26-.02.04-.04.07-.06.11-.06.12-.13.25-.19.38h0c-.06.13-.12.26-.18.39l-.05.12c-.04.1-.08.19-.13.29-.02.05-.04.09-.06.14-.04.1-.08.2-.12.3-.02.04-.03.09-.05.13-.05.14-.11.28-.16.43h0c-.05.14-.1.29-.15.44-.02.05-.03.09-.05.14-.03.11-.07.21-.1.32l-.05.17c-.03.11-.06.22-.09.33-.01.05-.03.1-.04.15-.04.16-.08.32-.11.48h0c-.02.1-.04.19-.06.29l-.02.1c-.01.07-.02.14-.04.22,0,.04-.01.09-.02.13-.01.07-.02.15-.03.22,0,.05-.01.09-.02.14-.01.08-.02.16-.03.25,0,.05-.01.09-.02.14-.01.1-.02.2-.03.3v.11c-.04.29-.07.6-.1.93,0,.03,0,.07,0,.1-.01.13-.02.27-.03.4,0,.05,0,.09,0,.13,0,.13-.02.27-.03.4v.14c-.02.14-.03.29-.03.44,0,.04,0,.08,0,.11-.01.18-.02.37-.03.56h0c-.03.62-.06,1.26-.08,1.93v.05c0,.21-.01.42-.02.63v.05c0,.22-.01.45-.02.68h0c4.15,2.97,11.31,2.91,11.08,5.02-.1.95-3.13,21.3-3.49,22.1-.04.09.55,3,1.2,2.98.02-.12.02-.25.02-.38.01-4.63,5.04-25.45,5.65-32.1h0c.01-.11.02-.21.03-.31.07-.98.12-1.86.14-2.66.03-.63.02-1.21,0-1.76Z"/><path id="_パス_6688" class="cls-20" d="M146.35,83.56c-1.3-3.3-3.4-6.24-6.1-8.54-1.73-1.31-5.89-1.25-6.98,2.21s-1.35,5.57.22,11.87,7.49,27.82,8.33,32.54,9.67.99,8.66-5.92c-1.12-7.63-2.05-26.82-4.13-32.16Z"/><path id="_パス_6689" class="cls-12" d="M136.69,92.9c2.19-.36,5.6-.94,6.39-.7,1.69.47,2.88,1.98,2.95,3.73.02,2.05,3.23,21.85,3.23,21.94.46-.38.9-.78,1.31-1.22,0-.31-.03-.62-.08-.93-1.12-7.63-2.05-26.82-4.13-32.16-1.25-3.16-3.22-5.98-5.75-8.25-.13-.11-.25-.21-.35-.29-1.73-1.31-5.89-1.25-6.98,2.21s-1.35,5.57.22,11.87c.08.31.43,1.36.76,2.33.34,1.02,1.37,1.64,2.44,1.47Z"/><path id="_パス_6690" class="cls-12" d="M138.38,35.06c-.42,3.15,3.46,4.41,3.46,4.41.31-2.34,2.95-3.67,3.81-6.52.89-2.95-.89-6.09-5.03-5.96-2.55.07-1.82,4.91-2.23,8.07Z"/><path id="_パス_6691" class="cls-21" d="M131.65,44.26c-2.16.77-8.94,5.75-14.1,11.12-.01.01-1.23,1.5-1.23,1.52h0c-.58.64-1.06,1.36-1.43,2.13-1.32,3.25,3.46,4.72,3.78,4.61,5.03-1.88,16.29-11.94,17.3-13.4,2.62-3.79-.82-7.22-4.32-5.97Z"/><path id="_パス_6692" class="cls-23" d="M141.75,44.01c2.22.29,6.26,1.29,7.46,3.4s.32,22.3-1.21,35.5c0,0-18.34,7.75-24.85-.58,0,0,4.54-34.01,7.14-37.17,2.17-2.63,9.24-1.44,11.46-1.16Z"/><path id="_パス_6693" class="cls-22" d="M142.21,44.07s-7.74,10.76-8.64,11.65c0,0,.28-9.24.45-12.01l8.2.36Z"/><path id="_パス_6694" class="cls-14" d="M140.79,39.51c.09-.41.17-.67.17-.67,0,0-4.4-3.5-4.98.05l4.81.62Z"/><path id="_パス_6695" class="cls-1" d="M136.08,46.32l-1.33-2.54c.96-.83,1.41-2.11,1.19-3.36-.45-5.94,5.02-1.58,5.02-1.58,0,0-.99,4.94.8,5.17l-5.68,2.31Z"/><path id="_パス_6696" class="cls-15" d="M136.11,45.15c3.08.4,2.92-3.46,3.07-4.18.14-.68,1.77-2.13,1.77-2.13,0,0-.99,4.94.8,5.17l-5.67,2.31-.79-1.5c.24.19.52.3.82.33Z"/><path id="_パス_6697" class="cls-18" d="M149.78,50.3h-3.04l.5,12.1s-.04,23.29-20.12,22.81c8,3.13,20.88-2.31,20.88-2.31,1.39-10.81,1.98-21.71,1.77-32.61Z"/><path id="_パス_6698" class="cls-1" d="M134.41,30.32l-1.52,6.86c-.27,2.05,1.87,4.02,4.02,4.3h0c2.09.33,4.06-1.1,4.39-3.19l.02-.17c1.28.08,2.41-.86,2.55-2.13.3-2.27-1.31-1.54-1.31-1.54l.13-.97c.15-1.12-.64-2.14-1.76-2.29l-6.53-.86Z"/><path id="_パス_6699" class="cls-15" d="M142.57,34.45l.14-1.06c.14-1.07-.61-2.05-1.68-2.19,0,0,0,0,0,0l-1.1-.14v.07l-1.04,7.85c-.27,1.38-1.59,2.29-2.98,2.05-.54-.13-1.06-.35-1.53-.66.72.61,1.59,1,2.53,1.13,2.09.33,4.06-1.1,4.39-3.19l.02-.17c1.28.08,2.41-.86,2.55-2.13.3-2.27-1.31-1.54-1.31-1.54Z"/><path id="_パス_6700" class="cls-19" d="M135.41,43c-.05,1.14.18,2.28.67,3.31-.66-.32-1.45-.11-1.88.48-.2.24-.49.4-.8.45.08-1.23.29-2.46.63-3.64l1.38-.6Z"/><path id="_パス_6701" class="cls-19" d="M140.81,42.87c-1,1.54-4.73,3.44-4.73,3.44,0,0,1.14-.24,2.24,1.24.31.39.73.69,1.2.85,1.38-1.09,2.33-2.62,2.7-4.34l-1.41-1.2Z"/><path id="_パス_6702" class="cls-12" d="M140.16,30.39c-1.23,1.08-2.91,1.48-4.49,1.08-2.78-.65-3.21.8-3.21.8,0,0-.65-5.31,3.18-6.66,2.01-.89,4.37-.31,5.74,1.4l-1.21,3.38Z"/><path id="_パス_6703" class="cls-1" d="M119.89,59.36c-2.77-4.17-16.36-15.93-17-18.77s-5.63-.36-2.9,1.97,9.03,15.17,12.59,18.89c5.24,5.47,8.01-1.02,7.31-2.08Z"/><path id="_パス_6704" class="cls-18" d="M116.61,55.39c-.63,2.64-2.49,4.82-5,5.85,0,0,2.39,2.95,4.95,2.7,2.07-.35,3.65-2.05,3.86-4.14,0-1.18-2.86-3.89-3.81-4.41Z"/><path id="_パス_6705" class="cls-3" d="M105.43,100.98v-13.6l33.73-13.26-33.73-13.12v-13.5l48.34,20.9v11.53l-48.34,21.05Z"/><path id="_パス_6706" class="cls-7" d="M143.29,71.05c-.2-2.11.1-3.91.67-9.45,0-.23,0-.47,0-.71.17-4.36-1.05-9.21-.97-10,.33-2.98,5.64-6.47,8.11-.48,2.25,5.45,1.73,17.23-.76,20.63-1.04,1.34-2.74,1.98-4.4,1.67-.74-.18-2.6-1.05-2.65-1.66Z"/><path id="_パス_6707" class="cls-1" d="M146.53,66.08c-4.28-.84-17.04.8-19.37-.53-1.58-.91-.8,4.35.49,4.15,2.96-.46,13.93,2.62,18.29,3.05,3.72.37,3.49-6.09.59-6.67Z"/><path id="_パス_6708" class="cls-1" d="M119.59,66.08c1.21-.92,2.64-1.51,4.15-1.68,1.57-.25,4.55,1.97,6.03,2.19.6.08,0,2.88-.47,3.04-1.6.53-3.34-.43-3.58-.36-.64.38-.36.1-.92.53-.72.54-7.63-1.55-5.2-3.72Z"/><path id="_パス_6709" class="cls-1" d="M154.48,148.23c-2.27-.79-2.82-4.25-3.05-6.31l-3.31,1.2s1.31,3.52.79,5.91.2,2.17.2,2.17h10.17c-1.44-1.23-3.06-2.23-4.8-2.96Z"/><path id="_パス_6710" class="cls-12" d="M159.48,151.48h-10.31s-.38.12-.53-.65c-.12-.47-.12-.96,0-1.43.03-.2.05-.4.06-.61.85-.04,1.68-.26,2.44-.64.42-1.15,1.92-1.66,2.3-1.07.62,1.05,1.9,1.29,2.8,1.59,1.23.28,2.28,1.07,2.9,2.17.13.21.25.42.34.65Z"/><path id="_パス_6711" class="cls-12" d="M159.48,151.48h-10.31s-.38.12-.53-.65h10.5c.13.21.25.42.34.65Z"/><path id="_パス_6712" class="cls-20" d="M149.91,114.84c2.99,2.44,1.62,20,3.13,31.68,0,0-3.46.77-5.55-.13,0,0-5.69-20.54-5.69-25.33,0-8.41,4.9-8.84,8.11-6.22Z"/><path id="_パス_6713" class="cls-1" d="M121.34,148.46c2.28-.77,1.24-4.4,1.49-6.45l3.3,1.23c.15,2.04.41,4.06.77,6.08.5,2.4-.22,2.17-.22,2.17l-10.37-.1c1.54-1.2,3.23-2.18,5.03-2.92Z"/><path id="_パス_6714" class="cls-12" d="M121.34,148.46c.69-.21.85-.67,1.27-1.33.26-.46,1.07.34,1.47,1.25.86.37,1.81.53,2.74.44.02.17.04.33.08.49.5,2.4-.22,2.17-.22,2.17l-10.37-.1c.53-1.96,2.84-2.24,5.03-2.92Z"/><path id="_パス_6715" class="cls-12" d="M127.07,150.86c-.05.73-.39.62-.39.62l-10.37-.1c.05-.22.14-.43.26-.62l10.5.1Z"/><path id="_パス_6716" class="cls-20" d="M123.36,118.48c-1.92,2.12-.74,16.7-1.28,27.24,0,0,3.48,1.02,5.49.12,0,0,5.51-20.28,4.32-24.47-1.61-5.62-5.96-5.73-8.53-2.88Z"/><path id="_パス_6717" class="cls-12" d="M131.89,121.36c-.21-.78-.52-1.52-.92-2.22,0,.27-3.8,18.18-4.24,26.95.19-.04.37-.08.55-.14.1-.04.21-.07.3-.12,0,0,1.75-6.62,3.18-13.39.96-4.73,1.64-9.32,1.14-11.08Z"/><path id="_パス_6718" class="cls-12" d="M149.91,114.83c-.38-.31-.78-.58-1.21-.8.4,1.61,1.96,8.28,1.86,13.05.04,6.56.48,13.11,1.33,19.62.69-.09,1.16-.19,1.16-.19-1.51-11.67-.14-29.23-3.13-31.68Z"/><path id="_パス_6719" class="cls-1" d="M101.79,33.74c-.69,2.46-3.06,2.92-2.81,5.2s-.06,3.22,1.54,3.56,1.86-1.07,2.64-3.86c.76-2.72-.34-8.56-1.36-4.9Z"/><path id="_パス_6737" class="cls-1" d="M32.21,139.37l3.49,1.47c-2.15,3.73-2.92,7.29,3.15,7.29,2.8,0,3.5,3.36,3.5,3.36h-14.54s-1.45-.59.65-3.99c1.52-2.58,2.77-5.3,3.74-8.13Z"/><path id="_パス_6738" class="cls-13" d="M32.99,148.36c.91-.85-.1-2.46,1.19-2.53.28,1.38,1.6,2.3,4.67,2.3,2.8,0,3.5,3.36,3.5,3.36h-14.54s-1.36-.55.46-3.68c1.52,0,3.33,1.83,4.71.55Z"/><path id="_パス_6739" class="cls-8" d="M33.43,70.31c5.76,8.94,18.52,36.49,18.62,37.77.12,1.51-3.04,3.06-8.55-.46-4.6-2.95-30.29-27.07-20.77-37.99,3.49-4.01,8.94-2.04,10.69.68Z"/><path id="_パス_6740" class="cls-11" d="M24.83,68c2.71,24.22,21.89,40.53,23.11,41.6-1.58-.39-3.08-1.06-4.43-1.97-4.6-2.95-30.29-27.07-20.77-37.99.58-.68,1.29-1.24,2.09-1.64Z"/><path id="_パス_6741" class="cls-4" d="M15.56,77.33c.9-3.95,2.7-7.63,5.26-10.77,1.66-1.83,6.16-2.73,7.87.83s2.31,5.8,1.6,13.07-4.98,18.77-5.91,24.07c-.59,3.36-9.22,7.63-8.44-.18s-1.79-20.68-.38-27.01Z"/><path id="_パス_6742" class="cls-5" d="M52.05,108.09c.89,2.25-15.97,33.88-15.97,33.88-3.52-.16-4.89-2.11-4.89-2.11,0,0,4.24-9.59,5.38-15.82,5.05-27.77,14.86-17.54,15.49-15.95Z"/><path id="_パス_6743" class="cls-12" d="M25.72,26.89c2.01-.36,3.93.99,4.29,3s-.99,3.93-3,4.29-3.93-.99-4.29-3c0,0,0,0,0,0-.36-2.01.99-3.93,3-4.29Z"/><path id="_パス_6744" class="cls-12" d="M23.23,44.09c1.32-3.65-.92-3.23.26-7.91s3.28-5.56,5.26-6.6c5.01-2.64,11.91,2.86,10.78,7.96-1.04,4.71-.26,11.41.68,15.37s-.87,15.38-10.86,14.15-11.28-5.9-10.9-12.07c.45-7.38,3.46-7.25,4.78-10.9Z"/><path id="_パス_6745" class="cls-15" d="M49.3,64.94c.23.05.46.07.69.07,1.42-.02,2.56-1.18,2.55-2.6,0-.69-.29-1.35-.79-1.83-1.59-1.67-10.86-8.74-13.03-10.88-2.35-2.32-7.2.46-5.2,3.62.43.68,3.49,3.2,6.83,5.72,3.75,2.83,7.83,5.66,8.95,5.9Z"/><path id="_パス_6746" class="cls-15" d="M50.64,60.78c-.64-.59-1.35-1.1-2.02-1.66-1.32-1.11-2.48-2.39-3.76-3.54-2.5-2.24-6.36-5.1-9.89-4.39-.9.17-1.75.58-2.44,1.19.77-2.07,5.07-3.76,6.19-2.7,2.21,2.1,10.42,8.48,12.01,10.15.51.53.84,1.22.93,1.96-.33-.34-.67-.69-1.03-1.01Z"/><path id="_パス_6747" class="cls-15" d="M49.3,64.94c.23.05.46.07.69.07-.45-.49-.98-.91-1.55-1.25-2.28-1.59-3.84-4.01-4.33-6.75l-3.76,2.04c3.74,2.83,7.83,5.66,8.95,5.9Z"/><path id="_パス_6748" class="cls-26" d="M41.73,60.6c-3.03-2.1-5.77-4.61-8.13-7.45-2-3.17,2.76-5.77,5.11-3.46,1.22,1.2,4.7,3.73,7.77,6.21-1.95,2.97-3.9,4.37-4.76,4.7Z"/><path id="_パス_6749" class="cls-19" d="M37.23,50.06c-1.81-.68-2.68.35-3.74,1.4,0-2.52,3.22-3.73,5.23-1.76,1.22,1.2,4.7,3.73,7.77,6.21l-.03.04c-2.74-.68-6.65-4.91-9.24-5.89Z"/><path id="_パス_6750" class="cls-1" d="M22.61,60.73c.17-1.57-.07-3.09-.29-8.66-.08-2.17-.37-3.92.35-4.72.91-1.01,3-.75,4.46-.42,2.64.59,2.79-6.05,2.79-6.05.7-1.24,5.03-.03,3.88,4.17s3.47,3.17,4.29,4.18c1.13,1.38.49,3.72.49,5.03s1.52,3.21.76,5.46c-.36,1.26-1.66,2-2.92,1.68-1.09.86-1.92,2.01-2.39,3.32-.44,1.84-.46,3.75-.04,5.6-4.98,1.01-10.16.01-14.41-2.78,1.82-1.82,2.9-4.24,3.05-6.81Z"/><path id="_パス_6751" class="cls-15" d="M27.12,46.93c2.64.59,2.79-6.05,2.79-6.05.39-.69,1.9-.62,2.96.3-.87.03-3.62,3.19-3.62,8.72,0,1.57,1.42,2.81,2.84,3.44,0,0-9.74-.44-9.77-1.26-.08-2.17,3.35-5.47,4.81-5.14Z"/><path id="_パス_6752" class="cls-10" d="M22.61,60.73c.16-1.56-.07-3.09-.29-8.66-.09-2.17-.37-3.92.35-4.72.82-.91,2.59-.79,4-.52.9,3.92,3.79,6.61,6.51,6.03,1.76-.37,3.02-2,3.5-4.17.51.03,1.01.22,1.41.54,1.13,1.39.49,3.72.49,5.03s1.52,3.21.76,5.46c-.36,1.26-1.65,2-2.92,1.68-1.1.86-1.93,2.01-2.4,3.32-.44,1.84-.46,3.75-.04,5.6-4.98,1.01-10.16.01-14.41-2.78,1.82-1.82,2.9-4.24,3.05-6.8Z"/><path id="_パス_6753" class="cls-19" d="M22.61,60.73c.16-1.56-.07-3.09-.29-8.66-.09-2.17-.37-3.92.35-4.72.79-.88,2.47-.8,3.85-.54-.02.23-.03.47-.03.72,0,3.18-.63,5.18,1.88,6.75l.7.79c-1.86.08-3.31,1.64-3.27,3.5.05,1.26.81,2.38,1.95,2.91v3.82c0,2.21-1.79,4.01-4,4.01-.56,0-1.11-.12-1.63-.34-.9-.39-1.76-.87-2.57-1.43,1.82-1.82,2.9-4.24,3.05-6.8Z"/><path id="_パス_6754" class="cls-1" d="M28.75,37.93s.71-5.77,2.45-6.31,3.18-.71,4.48,1.04c.88,1.02,1.4,2.3,1.48,3.64,0,0,2.81,1.58.97,5.2s-6.53,2.46-8.55-.05c0,0-2.2,1.29-3-.85s.63-2.57,2.17-2.66Z"/><path id="_パス_6755" class="cls-15" d="M28.75,37.93s.71-5.77,2.45-6.31c1.39-.44,2.59-.63,3.68.21-1.25-.04-4.4,5.6-3.81,8.41.46,2.09,2.52,3.41,4.61,2.95.59-.13,1.14-.4,1.61-.78.26-.21.5-.45.72-.71-1.91,3.37-6.46,2.21-8.43-.26,0,0-2.2,1.29-3-.85s.62-2.57,2.17-2.66Z"/><path id="_パス_6756" class="cls-12" d="M37.21,33.12c-1.67.09-3.33-.26-4.82-1.03-1.93-1.22-2.7-.77-2.7-.77,4.32-3.16,7.52,1.8,7.52,1.8Z"/><path id="_パス_6757" class="cls-12" d="M31.27,31.28c.9.45,1.48,2.28,0,4.82s-.26,4.97-2.13,3.91-1.94-1.28-2.51-3.16,2.65-6.55,4.63-5.58Z"/><path id="_パス_6758" class="cls-1" d="M8.66,148.14c-2.91-2.37-1.98-7.84-.93-10.83l-3.88-.92c-.82,3.2-1.84,6.34-3.06,9.41-1.48,3.25-.41,3.3-.41,3.3l8.77,1.27s2.43.15-.48-2.22Z"/><path id="_パス_6759" class="cls-13" d="M8.66,148.14c-.88-.78-1.51-1.81-1.81-2.95-.21-.83-2.74-.97-3.6.14-.74.18-1.51.11-2.2-.2-.09.23-.18.45-.27.67-1.48,3.25-.41,3.3-.41,3.3l6.12,2.34,6.22-.02c-.15-1.26-.99-2.32-2.17-2.77-.66-.27-1.17.06-1.87-.51Z"/><path id="_パス_6760" class="cls-6" d="M22.1,110.12c.57-1.51,1.06-2.55,1.75-4,2.91-6.2-6.04-5.59-6.86-3.98-1.42,3.51-3.09,6.91-5.02,10.17-2.81,4.72-4.73,9.91-5.67,15.32-.74,3.07-1.76,6.07-3.05,8.95,2.57,2.73,4.37,2.32,4.37,2.32,0,0,4.03-7.36,7.51-13.14s5.64-12.13,6.97-15.65Z"/><path id="_パス_6761" class="cls-2" d="M16.89,79.93v-11.53l48.34-20.9v13.5l-33.73,13.12,33.73,13.26v13.6l-48.34-21.05Z"/><path id="_パス_6762" class="cls-1" d="M58.84,60.92s1.96-1.63,3.12-.74,1.31,1.6.21,3.03-3.28,3.34-4.55,2.09-1.71-2.75,1.22-4.38Z"/><path id="_パス_6763" class="cls-1" d="M28.15,48.52c1.16,2.87,6.95,13.17,7.75,15.37.55,1.34-.09,2.88-1.44,3.43-.87.36-1.86.22-2.6-.35-1.79-1.28-9.93-15.37-10.2-17.08-.59-3.75,5.24-4.46,6.49-1.36Z"/><path id="_パス_6764" class="cls-15" d="M34.79,63.62c-.36-.81-.81-1.57-1.21-2.36-.79-1.56-1.34-3.22-2.07-4.81-1.42-3.09-3.87-7.3-7.44-8.06-.91-.2-1.86-.16-2.75.12,1.54-1.61,6.23-1.46,6.85-.02,1.21,2.85,6.29,12.08,7.1,14.28.27.71.29,1.48.08,2.2-.18-.46-.36-.91-.55-1.36Z"/><path id="_パス_6765" class="cls-1" d="M34.4,62.61c4.15.02,12.93,3.43,15.32,2.63s4.24-2.57,5.57-1.15c1.35,1.45,1.18,3.05.74,4.73-.29,1.11-2.44.67-5.19-.09s-12.7-.31-16.83-.89c-4.1-.57-2.41-5.25.39-5.24Z"/><path id="_パス_6766" class="cls-9" d="M26.57,59.88c-2.68-4.31-5.23-9.39-5.38-10.33-.59-3.75,5.81-4.09,7.06-.99.65,1.61,2.76,5.32,4.63,8.86-3.01,1.98-5.39,2.49-6.32,2.46Z"/><path id="_パス_6767" class="cls-19" d="M26.62,48.26c-1.41-1.36-3.87-.7-5.27-.15,1.01-2.34,5.84-2.19,6.91.45.65,1.61,2.76,5.32,4.63,8.86l-.04.02c-2.28-1.73-4.21-7.24-6.23-9.19Z"/><path id="_パス_6768" class="cls-16" d="M41.59.01h29.52c2.34,0,4.24,1.9,4.24,4.24v16.18c0,2.34-1.9,4.24-4.24,4.24h-18.46l-6.41,7.7c-.27.37-.79.44-1.16.17-.21-.16-.34-.4-.33-.67l1.94-7.21h-5.1c-2.34,0-4.24-1.9-4.24-4.24V4.25C37.35,1.91,39.25.01,41.59.01h0Z"/><path id="_パス_6769" class="cls-17" d="M42.04,4.58v1.19h17.05l.02-1.19h-17.07Z"/><path id="_パス_6770" class="cls-17" d="M42.04,8.17v1.19h30.8l.02-1.19h-30.82Z"/><path id="_パス_6771" class="cls-17" d="M42.04,11.76v1.19h28.6l.02-1.19h-28.62Z"/><path id="_パス_6772" class="cls-17" d="M60.88,5.77h5.26l.02-1.19h-5.26l-.02,1.19Z"/><path id="_パス_6773" class="cls-17" d="M42.04,15.11v1.19h17.05l.02-1.19h-17.07Z"/><path id="_パス_6774" class="cls-17" d="M42.04,18.7v1.19h30.8l.02-1.19h-30.82Z"/><path id="_パス_6775" class="cls-17" d="M60.88,16.31h5.26l.02-1.19h-5.26l-.02,1.19Z"/><path id="_パス_5459" class="cls-25" d="M137.87,14.68l-3.4.04c-.02-.49-.02-.79-.02-.89-.05-.94.13-1.87.51-2.72.55-.94,1.28-1.77,2.15-2.43.69-.54,1.34-1.13,1.93-1.77.31-.42.48-.92.47-1.45,0-.72-.34-1.4-.9-1.86-.67-.54-1.51-.8-2.36-.75-.87-.02-1.71.28-2.37.84-.69.67-1.15,1.55-1.29,2.5l-3.44-.38c.07-1.57.78-3.05,1.98-4.08,1.37-1.17,3.13-1.79,4.93-1.73,1.86-.12,3.7.45,5.15,1.62,1.2.94,1.92,2.37,1.96,3.9,0,.83-.22,1.65-.67,2.35-.84,1.15-1.83,2.18-2.95,3.05-.58.44-1.07.98-1.45,1.6-.22.69-.3,1.42-.23,2.15ZM134.51,17.89h0c-.02-1.03.81-1.88,1.84-1.9,0,0,0,0,0,0h0c1.03-.02,1.88.81,1.9,1.84,0,0,0,0,0,0h0c.02,1.03-.81,1.88-1.84,1.9,0,0,0,0,0,0h0c-1.03.02-1.88-.81-1.9-1.84,0,0,0,0,0,0Z"/></g></svg>