<?xml version="1.0" encoding="UTF-8"?>
<svg id="_レイヤー_2" data-name="レイヤー 2" xmlns="http://www.w3.org/2000/svg" viewBox="0 0 458.77 360.33">
  <g id="_レイヤー_2-2" data-name="レイヤー 2">
    <g>
      <g>
        <g>
          <path d="M430.2,360.33h-221.67c-1.88,0-3.56-1.17-4.22-2.93-.66-1.76-.15-3.74,1.27-4.97l221.85-191.97c1.33-1.15,3.21-1.42,4.82-.69,1.6.73,2.63,2.33,2.63,4.1l-.18,191.97c0,2.48-2.02,4.5-4.5,4.5ZM220.61,351.33h205.1l.16-177.62-205.26,177.62Z"/>
          <path d="M394.78,324.87h-91.09c-1.88,0-3.56-1.17-4.22-2.93-.66-1.76-.15-3.74,1.27-4.97l91.16-78.88c1.33-1.15,3.21-1.42,4.82-.69,1.6.73,2.63,2.33,2.63,4.1l-.07,78.88c0,2.48-2.02,4.5-4.5,4.5ZM315.77,315.87h74.51l.06-64.53-74.57,64.53Z"/>
        </g>
        <path d="M250.64,360.03c-2.49,0-4.5-2.01-4.5-4.5v-15.8c0-2.49,2.01-4.5,4.5-4.5s4.5,2.01,4.5,4.5v15.8c0,2.49-2.01,4.5-4.5,4.5Z"/>
        <path d="M275.88,360.03c-2.49,0-4.5-2.01-4.5-4.5v-15.8c0-2.49,2.01-4.5,4.5-4.5s4.5,2.01,4.5,4.5v15.8c0,2.49-2.01,4.5-4.5,4.5Z"/>
        <path d="M301.12,360.03c-2.49,0-4.5-2.01-4.5-4.5v-15.8c0-2.49,2.01-4.5,4.5-4.5s4.5,2.01,4.5,4.5v15.8c0,2.49-2.01,4.5-4.5,4.5Z"/>
        <path d="M326.36,360.03c-2.49,0-4.5-2.01-4.5-4.5v-15.8c0-2.49,2.01-4.5,4.5-4.5s4.5,2.01,4.5,4.5v15.8c0,2.49-2.01,4.5-4.5,4.5Z"/>
        <path d="M351.59,360.03c-2.49,0-4.5-2.01-4.5-4.5v-15.8c0-2.49,2.01-4.5,4.5-4.5s4.5,2.01,4.5,4.5v15.8c0,2.49-2.01,4.5-4.5,4.5Z"/>
        <path d="M376.83,360.03c-2.49,0-4.5-2.01-4.5-4.5v-15.8c0-2.49,2.01-4.5,4.5-4.5s4.5,2.01,4.5,4.5v15.8c0,2.49-2.01,4.5-4.5,4.5Z"/>
        <path d="M402.07,360.03c-2.49,0-4.5-2.01-4.5-4.5v-15.8c0-2.49,2.01-4.5,4.5-4.5s4.5,2.01,4.5,4.5v15.8c0,2.49-2.01,4.5-4.5,4.5Z"/>
      </g>
      <g>
        <path d="M278.96,184.32c-1.17,0-2.32-.46-3.18-1.32-1.31-1.31-1.68-3.29-.94-4.99l17.14-39.12c.23-.51.54-.98.94-1.38l119.31-119.31c.84-.84,1.99-1.32,3.18-1.32s2.34.47,3.18,1.32l21.98,21.98c1.76,1.76,1.76,4.61,0,6.36l-119.31,119.31c-.4.4-.86.71-1.38.94l-39.12,17.14c-.58.25-1.2.38-1.81.38ZM299.88,143.28l-12.18,27.8,27.8-12.18,115.53-115.53-15.62-15.62-115.53,115.53ZM318.08,162.67h0,0Z"/>
        <path d="M449.49,60.07c-1.15,0-2.3-.44-3.18-1.32l-11.9-11.9c-1.76-1.76-1.76-4.61,0-6.36,1.76-1.76,4.61-1.76,6.36,0l11.9,11.9c1.76,1.76,1.76,4.61,0,6.36-.88.88-2.03,1.32-3.18,1.32Z"/>
        <path d="M414.32,95.24c-1.15,0-2.3-.44-3.18-1.32-1.76-1.76-1.76-4.61,0-6.36l35.17-35.17c1.76-1.76,4.61-1.76,6.36,0,1.76,1.76,1.76,4.61,0,6.36l-35.17,35.17c-.88.88-2.03,1.32-3.18,1.32Z"/>
        <path d="M443.41,36.41c-1.15,0-2.3-.44-3.18-1.32-1.76-1.76-1.76-4.61,0-6.36l7.68-7.68-10.19-10.19-7.68,7.68c-1.76,1.76-4.61,1.76-6.36,0-1.76-1.76-1.76-4.61,0-6.36l10.86-10.86c1.76-1.76,4.61-1.76,6.36,0l16.55,16.55c.84.84,1.32,1.99,1.32,3.18s-.47,2.34-1.32,3.18l-10.86,10.86c-.88.88-2.03,1.32-3.18,1.32Z"/>
      </g>
      <g>
        <path d="M228.65,317.59h-.02l-132.23-.59-51.1.48s-.03,0-.04,0c-2.47,0-4.48-1.99-4.5-4.46-.02-2.49,1.97-4.52,4.46-4.54l51.16-.48,132.3.59c2.49.01,4.49,2.03,4.48,4.52-.01,2.48-2.02,4.48-4.5,4.48Z"/>
        <path d="M401.52,168.5c-2.49,0-4.5-2.01-4.5-4.5v-52.57c0-2.49,2.01-4.5,4.5-4.5s4.5,2.01,4.5,4.5v52.57c0,2.49-2.01,4.5-4.5,4.5Z"/>
        <path d="M45.26,64.18c-2.48,0-4.5-2.01-4.5-4.5,0-2.49,2.01-4.5,4.5-4.5l300.5-.11h0c2.48,0,4.5,2.01,4.5,4.5,0,2.49-2.01,4.5-4.5,4.5l-300.5.11h0Z"/>
        <path d="M45.26,317.48c-24.96,0-45.26-17.54-45.26-39.1s20.3-39.1,45.26-39.1c2.49,0,4.5,2.01,4.5,4.5s-2.01,4.5-4.5,4.5c-19.99,0-36.26,13.5-36.26,30.1s16.27,30.1,36.26,30.1c2.49,0,4.5,2.01,4.5,4.5s-2.01,4.5-4.5,4.5Z"/>
        <path d="M4.5,64.18c-2.49,0-4.5-2.01-4.5-4.5C0,34.12,20.3,13.32,45.26,13.32c2.49,0,4.5,2.01,4.5,4.5s-2.01,4.5-4.5,4.5c-19.99,0-36.26,16.76-36.26,37.36,0,2.49-2.01,4.5-4.5,4.5Z"/>
        <path d="M45.26,248.29c-2.49,0-4.5-2.01-4.5-4.5V17.82c0-2.49,2.01-4.5,4.5-4.5s4.5,2.01,4.5,4.5v225.96c0,2.49-2.01,4.5-4.5,4.5Z"/>
        <path d="M4.5,282.88c-2.49,0-4.5-2.01-4.5-4.5V59.68c0-2.49,2.01-4.5,4.5-4.5s4.5,2.01,4.5,4.5v218.7c0,2.49-2.01,4.5-4.5,4.5Z"/>
      </g>
    </g>
  </g>
</svg>