<?xml version="1.0" encoding="UTF-8"?>
<svg id="_レイヤー_2" data-name="レイヤー 2" xmlns="http://www.w3.org/2000/svg" viewBox="0 0 209.61 245.49">
  <defs>
    <style>
      .cls-1 {
        fill: none;
        stroke: #000;
        stroke-linecap: round;
        stroke-linejoin: round;
        stroke-width: 6.19px;
      }
    </style>
  </defs>
  <g id="Layer_1" data-name="Layer 1">
    <path class="cls-1" d="M206.52,91.93v132.96c0,9.65-7.82,17.5-17.47,17.5H20.56c-9.65,0-17.47-7.86-17.47-17.5V91.93"/>
    <line class="cls-1" x1="206.51" y1="91.92" x2="120.4" y2="167.14"/>
    <line class="cls-1" x1="89.21" y1="167.14" x2="3.1" y2="91.92"/>
    <line class="cls-1" x1="22.17" y1="75.26" x2="3.1" y2="91.92"/>
    <polyline class="cls-1" points="80.13 24.63 104.81 3.09 129.48 24.63"/>
    <line class="cls-1" x1="206.51" y1="91.92" x2="187.45" y2="75.26"/>
    <line class="cls-1" x1="104.81" y1="153.52" x2="8.55" y2="237.61"/>
    <line class="cls-1" x1="201.06" y1="237.61" x2="104.81" y2="153.52"/>
    <polyline class="cls-1" points="22.17 108.59 22.17 75.26 22.17 24.63 80.13 24.63 129.48 24.63 187.45 24.63 187.45 75.26 187.45 108.59"/>
    <g>
      <path class="cls-1" d="M118.44,119.88c-4.17,1.83-8.77,2.86-13.62,2.86-18.62,0-33.69-15.09-33.69-33.69s16.32-34.9,35.96-33.62c16.45,1.07,29.88,14.21,31.3,30.63.01.15.03.3.04.45.83,11.33-6.94,21.51-18.05,23.9h0c-4.89,1.05-9.21-3.36-8.05-8.23l6.22-26.11"/>
      <path class="cls-1" d="M112.88,99.87c-4.01,4.69-9.79,6.86-14.97,5.04-7.22-2.53-10.51-11.85-7.36-20.82s11.55-14.19,18.76-11.66c3.96,1.39,6.74,4.83,7.93,9.14"/>
    </g>
  </g>
</svg>