<?xml version="1.0" encoding="UTF-8"?>
<svg id="_レイヤー_2" data-name="レイヤー 2" xmlns="http://www.w3.org/2000/svg" viewBox="0 0 425.86 362.81">
  <g id="_レイヤー_2-2" data-name="レイヤー 2">
    <g>
      <path d="M181.35,142.81c-10.82,0-19.63-8.81-19.63-19.63s8.8-19.63,19.63-19.63,19.63,8.8,19.63,19.63-8.8,19.63-19.63,19.63ZM181.35,112.55c-5.86,0-10.63,4.77-10.63,10.63s4.77,10.63,10.63,10.63,10.63-4.77,10.63-10.63-4.77-10.63-10.63-10.63Z"/>
      <path d="M181.35,142.81c-10.82,0-19.63-8.81-19.63-19.63s8.8-19.63,19.63-19.63,19.63,8.8,19.63,19.63-8.8,19.63-19.63,19.63ZM181.35,112.55c-5.86,0-10.63,4.77-10.63,10.63s4.77,10.63,10.63,10.63,10.63-4.77,10.63-10.63-4.77-10.63-10.63-10.63Z"/>
      <path d="M323.51,222.18c-10.82,0-19.63-8.81-19.63-19.63s8.81-19.63,19.63-19.63,19.63,8.8,19.63,19.63-8.8,19.63-19.63,19.63ZM323.51,191.92c-5.86,0-10.63,4.77-10.63,10.63s4.77,10.63,10.63,10.63,10.63-4.77,10.63-10.63-4.77-10.63-10.63-10.63Z"/>
      <g>
        <path d="M79.26,192.04c-1.71,0-3.35-.98-4.1-2.64l-37.07-81.74c-1.03-2.26-.02-4.93,2.24-5.96,2.26-1.03,4.93-.02,5.96,2.24l37.07,81.74c1.03,2.26.02,4.93-2.24,5.96-.6.27-1.23.4-1.86.4Z"/>
        <path d="M192.51,260.62c-.71,0-1.43-.17-2.11-.53l-88.74-47.09c-2.2-1.16-3.03-3.89-1.87-6.08,1.16-2.2,3.89-3.03,6.08-1.87l88.74,47.09c2.2,1.16,3.03,3.89,1.87,6.08-.81,1.52-2.37,2.39-3.98,2.39Z"/>
        <path d="M224.02,256.15c-1.75,0-3.42-1.03-4.15-2.75-.97-2.29.11-4.93,2.39-5.9l88.02-37.18c2.29-.97,4.93.1,5.9,2.39.97,2.29-.11,4.93-2.39,5.9l-88.02,37.18c-.57.24-1.17.36-1.75.36Z"/>
        <path d="M317.08,192.04c-2.26,0-4.21-1.7-4.47-3.99l-17.05-150.73c-.28-2.47,1.5-4.7,3.97-4.98,2.47-.28,4.7,1.5,4.98,3.97l17.05,150.73c.28,2.47-1.5,4.7-3.97,4.98-.17.02-.34.03-.51.03Z"/>
        <path d="M281.43,24.92s-.05,0-.08,0l-132.89-2.3c-2.48-.04-4.46-2.09-4.42-4.58.04-2.48,2.1-4.46,4.58-4.42l132.89,2.3c2.48.04,4.46,2.09,4.42,4.58-.04,2.46-2.05,4.42-4.5,4.42Z"/>
        <path d="M44,81.32c-1.56,0-3.08-.82-3.91-2.27-1.23-2.16-.48-4.91,1.68-6.14L121.49,27.49c2.16-1.23,4.91-.48,6.14,1.68,1.23,2.16.48,4.91-1.68,6.14l-79.72,45.42c-.7.4-1.47.59-2.22.59Z"/>
        <path d="M36.83,111.36c-10.82,0-19.63-8.8-19.63-19.63s8.81-19.63,19.63-19.63,19.63,8.8,19.63,19.63-8.81,19.63-19.63,19.63ZM36.83,81.1c-5.86,0-10.63,4.77-10.63,10.63s4.77,10.63,10.63,10.63,10.63-4.77,10.63-10.63-4.77-10.63-10.63-10.63Z"/>
        <path d="M296.5,41.55c-10.82,0-19.63-8.8-19.63-19.63s8.8-19.63,19.63-19.63,19.63,8.8,19.63,19.63-8.8,19.63-19.63,19.63ZM296.5,11.3c-5.86,0-10.63,4.77-10.63,10.63s4.77,10.63,10.63,10.63,10.63-4.77,10.63-10.63-4.77-10.63-10.63-10.63Z"/>
        <path d="M210.14,277.91c-10.82,0-19.63-8.8-19.63-19.63s8.81-19.63,19.63-19.63,19.63,8.8,19.63,19.63-8.8,19.63-19.63,19.63ZM210.14,247.66c-5.86,0-10.63,4.77-10.63,10.63s4.77,10.63,10.63,10.63,10.63-4.77,10.63-10.63-4.77-10.63-10.63-10.63Z"/>
        <path d="M133.37,39.26c-10.82,0-19.63-8.8-19.63-19.63S122.55,0,133.37,0s19.63,8.81,19.63,19.63-8.81,19.63-19.63,19.63ZM133.37,9c-5.86,0-10.63,4.77-10.63,10.63s4.77,10.63,10.63,10.63,10.63-4.77,10.63-10.63-4.77-10.63-10.63-10.63Z"/>
        <path d="M89.94,222.08c-10.82,0-19.63-8.81-19.63-19.63s8.81-19.63,19.63-19.63,19.63,8.8,19.63,19.63-8.8,19.63-19.63,19.63ZM89.94,191.82c-5.86,0-10.63,4.77-10.63,10.63s4.77,10.63,10.63,10.63,10.63-4.77,10.63-10.63-4.77-10.63-10.63-10.63Z"/>
        <path d="M165.41,129.1c-.4,0-.82-.06-1.23-.17l-113.04-31.92c-2.39-.68-3.78-3.16-3.11-5.55.68-2.39,3.16-3.78,5.55-3.11l113.04,31.92c2.39.68,3.78,3.16,3.11,5.55-.56,1.98-2.36,3.28-4.33,3.28Z"/>
        <path d="M308.56,207.33c-.88,0-1.76-.26-2.54-.79l-112.43-77.11c-2.05-1.41-2.57-4.21-1.17-6.26,1.41-2.05,4.21-2.57,6.26-1.17l112.43,77.11c2.05,1.41,2.57,4.21,1.17,6.26-.87,1.27-2.28,1.96-3.72,1.96Z"/>
        <path d="M406.23,137.39c-10.82,0-19.63-8.81-19.63-19.63s8.8-19.63,19.63-19.63,19.63,8.81,19.63,19.63-8.8,19.63-19.63,19.63ZM406.23,107.13c-5.86,0-10.63,4.77-10.63,10.63s4.77,10.63,10.63,10.63,10.63-4.77,10.63-10.63-4.77-10.63-10.63-10.63Z"/>
        <path d="M338.52,200.68c-1.11,0-2.23-.41-3.1-1.24-1.8-1.71-1.87-4.56-.16-6.36l61.28-64.48c1.71-1.8,4.56-1.87,6.36-.16,1.8,1.71,1.87,4.56.16,6.36l-61.28,64.48c-.88.93-2.07,1.4-3.26,1.4Z"/>
        <path d="M391.53,114.49c-1.17,0-2.35-.46-3.23-1.36l-80.12-82.49c-1.73-1.78-1.69-4.63.09-6.36,1.78-1.73,4.63-1.69,6.36.09l80.12,82.49c1.73,1.78,1.69,4.63-.09,6.36-.87.85-2.01,1.27-3.13,1.27Z"/>
        <g>
          <path d="M204.37,247.87c-2.13,0-4.03-1.52-4.42-3.69l-19.11-104.98c-.44-2.45,1.18-4.79,3.62-5.23,2.44-.44,4.79,1.18,5.23,3.62l19.11,104.98c.45,2.45-1.18,4.79-3.62,5.23-.27.05-.54.07-.81.07Z"/>
          <path d="M101.96,195.42c-1.34,0-2.66-.6-3.55-1.73-1.53-1.96-1.18-4.79.78-6.32l70.11-54.67c1.96-1.53,4.79-1.18,6.32.78,1.53,1.96,1.18,4.79-.78,6.32l-70.11,54.67c-.82.64-1.8.95-2.76.95Z"/>
          <path d="M11.4,267.86c-.14,0-.27,0-.41-.02-2.48-.23-4.3-2.41-4.07-4.89l14.49-159.38c.23-2.47,2.41-4.3,4.89-4.07,2.48.23,4.3,2.41,4.07,4.89l-14.49,159.38c-.21,2.34-2.18,4.09-4.48,4.09Z"/>
          <path d="M34.79,285.92c-2.23,0-4.17-1.66-4.46-3.93-.31-2.47,1.43-4.72,3.89-5.03l160.27-20.47c2.47-.31,4.72,1.43,5.03,3.89.31,2.47-1.43,4.72-3.89,5.03l-160.27,20.47c-.19.02-.39.04-.58.04Z"/>
          <path d="M338.52,342.17c-.74,0-1.49-.18-2.18-.57l-119.85-66.58c-2.17-1.21-2.96-3.95-1.75-6.12,1.21-2.17,3.95-2.96,6.12-1.75l119.85,66.58c2.17,1.21,2.96,3.95,1.75,6.12-.82,1.48-2.36,2.32-3.94,2.32Z"/>
          <path d="M367.18,341.04c-.29,0-.59-.03-.88-.09-2.44-.49-4.02-2.86-3.53-5.29l39.6-198.63c.49-2.44,2.86-4.02,5.29-3.53,2.44.49,4.02,2.86,3.53,5.29l-39.6,198.63c-.43,2.14-2.31,3.62-4.41,3.62Z"/>
          <path d="M353.3,362.81c-10.82,0-19.63-8.8-19.63-19.63s8.8-19.63,19.63-19.63,19.63,8.8,19.63,19.63-8.8,19.63-19.63,19.63ZM353.3,332.55c-5.86,0-10.63,4.77-10.63,10.63s4.77,10.63,10.63,10.63,10.63-4.77,10.63-10.63-4.77-10.63-10.63-10.63Z"/>
          <path d="M347.52,332.77c-2.12,0-4.01-1.51-4.42-3.67l-20.66-110.45c-.46-2.44,1.15-4.79,3.6-5.25,2.44-.46,4.79,1.15,5.25,3.6l20.66,110.45c.46,2.44-1.15,4.79-3.6,5.25-.28.05-.56.08-.83.08Z"/>
          <path d="M338.23,350.35c-.26,0-.53-.02-.79-.07L29.78,295.49c-2.45-.44-4.08-2.77-3.64-5.22.44-2.45,2.77-4.08,5.22-3.64l307.65,54.79c2.45.44,4.08,2.77,3.64,5.22-.39,2.18-2.29,3.71-4.43,3.71Z"/>
          <path d="M19.63,298.59c-10.82,0-19.63-8.8-19.63-19.63s8.8-19.63,19.63-19.63,19.63,8.81,19.63,19.63-8.81,19.63-19.63,19.63ZM19.63,268.34c-5.86,0-10.63,4.77-10.63,10.63s4.77,10.63,10.63,10.63,10.63-4.77,10.63-10.63-4.77-10.63-10.63-10.63Z"/>
          <path d="M26.52,269.59c-1.18,0-2.36-.46-3.25-1.38-1.72-1.79-1.66-4.64.13-6.36l51.7-49.63c1.79-1.72,4.64-1.66,6.36.13,1.72,1.79,1.66,4.64-.13,6.36l-51.7,49.63c-.87.84-2,1.25-3.12,1.25Z"/>
        </g>
        <g>
          <path d="M193.71,117.45c-1.29,0-2.57-.55-3.46-1.62-1.59-1.91-1.33-4.75.58-6.34l93.92-78.21c1.91-1.59,4.75-1.33,6.34.58s1.33,4.75-.58,6.34l-93.92,78.21c-.84.7-1.86,1.04-2.88,1.04Z"/>
          <path d="M173.88,113.7c-1.66,0-3.26-.92-4.04-2.52l-36.72-74.7c-1.1-2.23-.18-4.93,2.05-6.02,2.23-1.1,4.93-.18,6.02,2.05l36.72,74.7c1.1,2.23.18,4.93-2.05,6.02-.64.31-1.32.46-1.98.46Z"/>
        </g>
      </g>
    </g>
  </g>
</svg>