<?xml version="1.0" encoding="UTF-8"?><svg id="_レイヤー_2" xmlns="http://www.w3.org/2000/svg" xmlns:xlink="http://www.w3.org/1999/xlink" viewBox="0 0 872.16 896.71"><defs><style>.cls-1{fill:#ffd2a7;}.cls-2{fill:url(#_名称未設定グラデーション_41-5);}.cls-3{fill:url(#_名称未設定グラデーション_41-6);}.cls-4{fill:url(#_名称未設定グラデーション_41-3);}.cls-5{fill:url(#_名称未設定グラデーション_41-4);}.cls-6{fill:url(#_名称未設定グラデーション_41-2);}.cls-7{fill:url(#_名称未設定グラデーション_41-9);}.cls-8{fill:url(#_名称未設定グラデーション_41-7);}.cls-9{fill:url(#_名称未設定グラデーション_41-8);}.cls-10{fill:url(#_名称未設定グラデーション_42-2);}.cls-11{fill:url(#_名称未設定グラデーション_42-3);}.cls-12{fill:url(#_名称未設定グラデーション_42-4);}.cls-13{fill:url(#_名称未設定グラデーション_23-2);}.cls-14{fill:url(#_名称未設定グラデーション_23-6);}.cls-15{fill:url(#_名称未設定グラデーション_23-3);}.cls-16{fill:url(#_名称未設定グラデーション_23-5);}.cls-17{fill:url(#_名称未設定グラデーション_23-7);}.cls-18{fill:url(#_名称未設定グラデーション_23-4);}.cls-19{fill:#1c0a76;}.cls-20{fill:url(#_名称未設定グラデーション_41-21);}.cls-21{fill:url(#_名称未設定グラデーション_41-12);}.cls-22{fill:url(#_名称未設定グラデーション_41-13);}.cls-23{fill:url(#_名称未設定グラデーション_41-14);}.cls-24{fill:url(#_名称未設定グラデーション_41-15);}.cls-25{fill:url(#_名称未設定グラデーション_41-20);}.cls-26{fill:url(#_名称未設定グラデーション_41-26);}.cls-27{fill:url(#_名称未設定グラデーション_41-10);}.cls-28{fill:url(#_名称未設定グラデーション_41-11);}.cls-29{fill:url(#_名称未設定グラデーション_41-17);}.cls-30{fill:url(#_名称未設定グラデーション_41-18);}.cls-31{fill:url(#_名称未設定グラデーション_41-19);}.cls-32{fill:url(#_名称未設定グラデーション_41-24);}.cls-33{fill:url(#_名称未設定グラデーション_41-25);}.cls-34{fill:url(#_名称未設定グラデーション_41-23);}.cls-35{fill:url(#_名称未設定グラデーション_41-22);}.cls-36{fill:url(#_名称未設定グラデーション_41-16);}.cls-37{fill:url(#_名称未設定グラデーション_5);}.cls-38{fill:url(#_名称未設定グラデーション_7);}.cls-39{fill:#ffbc8e;}.cls-40{fill:#fdfcff;}.cls-41{fill:#6a6ae8;}.cls-42,.cls-43{fill:#fff;}.cls-44{fill:#d35600;}.cls-45{fill:#c8d3fb;}.cls-46{fill:url(#_名称未設定グラデーション_7-3);}.cls-47{fill:url(#_名称未設定グラデーション_7-4);}.cls-48{fill:url(#_名称未設定グラデーション_7-2);}.cls-49{fill:#3b31a1;}.cls-50{fill:#312890;}.cls-51{fill:#ff822e;}.cls-52{fill:url(#_名称未設定グラデーション_41);}.cls-53{fill:url(#_名称未設定グラデーション_42);}.cls-54{fill:url(#_名称未設定グラデーション_23);}.cls-43{isolation:isolate;opacity:.8;}</style><linearGradient id="_名称未設定グラデーション_23" x1="-472.7" y1="1091.99" x2="-469.07" y2="1096.77" gradientTransform="translate(153746.04 144919.91) scale(325.34 -131.84)" gradientUnits="userSpaceOnUse"><stop offset="0" stop-color="#fff"/><stop offset="1" stop-color="#d3dbeb"/></linearGradient><linearGradient id="_名称未設定グラデーション_7" x1="-474.07" y1="1056.32" x2="-473.89" y2="1058.98" gradientTransform="translate(69526.5 133585.15) scale(146.7 -121.92)" gradientUnits="userSpaceOnUse"><stop offset="0" stop-color="#543dcb"/><stop offset="1" stop-color="#180093"/></linearGradient><linearGradient id="_名称未設定グラデーション_7-2" x1="-472.09" y1="1091.47" x2="-471.09" y2="1091.47" gradientTransform="translate(83028.18 306904.4) scale(175.15 -280.89)" xlink:href="#_名称未設定グラデーション_7"/><linearGradient id="_名称未設定グラデーション_23-2" x1="-471.52" y1="1095.72" x2="-470.52" y2="1095.72" gradientTransform="translate(27223.58 86782.45) scale(56.86 -79)" xlink:href="#_名称未設定グラデーション_23"/><linearGradient id="_名称未設定グラデーション_5" x1="-698.22" y1="1121.85" x2="-692.73" y2="1121.85" gradientTransform="translate(15848.91 16494.93) scale(32.75 -14.57)" gradientUnits="userSpaceOnUse"><stop offset="0" stop-color="#ffd000"/><stop offset="1" stop-color="#ff7400"/></linearGradient><linearGradient id="_名称未設定グラデーション_7-3" x1="-471.54" y1="1092.56" x2="-471.54" y2="1091.56" gradientTransform="translate(70707.43 226622.54) scale(149.01 -207.19)" xlink:href="#_名称未設定グラデーション_7"/><linearGradient id="_名称未設定グラデーション_7-4" x1="-470.09" y1="1117.69" x2="-469.92" y2="1120.55" gradientTransform="translate(72413.96 124648.99) scale(152.42 -113.72)" xlink:href="#_名称未設定グラデーション_7"/><linearGradient id="_名称未設定グラデーション_23-3" x1="-472.13" y1="1093.69" x2="-471.13" y2="1093.69" gradientTransform="translate(99940.53 132178) scale(210.31 -120.28)" xlink:href="#_名称未設定グラデーション_23"/><linearGradient id="_名称未設定グラデーション_41" x1="-471.13" y1="1295.08" x2="-470.13" y2="1295.08" gradientTransform="translate(19069.75 3567.08) scale(39.07 -2.28)" gradientUnits="userSpaceOnUse"><stop offset="0" stop-color="#ffae00"/><stop offset="1" stop-color="#ff7800"/></linearGradient><linearGradient id="_名称未設定グラデーション_41-2" x1="-471.13" y1="1294.72" x2="-470.13" y2="1294.72" gradientTransform="translate(19115.62 3591.91) scale(39.08 -2.28)" xlink:href="#_名称未設定グラデーション_41"/><linearGradient id="_名称未設定グラデーション_41-3" x1="-471.13" y1="1295.08" x2="-470.13" y2="1295.08" gradientTransform="translate(19156.67 3628.84) scale(39.08 -2.28)" xlink:href="#_名称未設定グラデーション_41"/><linearGradient id="_名称未設定グラデーション_41-4" x1="-471.13" y1="1294.63" x2="-470.13" y2="1294.63" gradientTransform="translate(19168.21 3552.22) scale(39.08 -2.28)" xlink:href="#_名称未設定グラデーション_41"/><linearGradient id="_名称未設定グラデーション_41-5" x1="-470.83" x2="-469.83" gradientTransform="translate(15587.81 3560.22) scale(31.4 -2.28)" xlink:href="#_名称未設定グラデーション_41"/><linearGradient id="_名称未設定グラデーション_41-6" x1="-470.83" y1="1294.72" x2="-469.83" y2="1294.72" gradientTransform="translate(15581.48 3612.84) scale(31.4 -2.28)" xlink:href="#_名称未設定グラデーション_41"/><linearGradient id="_名称未設定グラデーション_41-7" x1="-471.13" y1="1294.63" x2="-470.13" y2="1294.63" gradientTransform="translate(19217.92 3531.9) scale(39.08 -2.28)" xlink:href="#_名称未設定グラデーション_41"/><linearGradient id="_名称未設定グラデーション_41-8" x1="-482.63" y1="1098.29" x2="-481.63" y2="1098.29" gradientTransform="translate(55783.05 61345.49) scale(116.63 -55.07)" xlink:href="#_名称未設定グラデーション_41"/><linearGradient id="_名称未設定グラデーション_23-4" x1="-477.87" y1="1100.22" x2="-476.87" y2="1100.22" gradientTransform="translate(86531.39 50201.8) scale(182 -44.84)" xlink:href="#_名称未設定グラデーション_23"/><linearGradient id="_名称未設定グラデーション_42" x1="-484.97" y1="1100.76" x2="-483.97" y2="1100.76" gradientTransform="translate(43340.88 47681.87) scale(90.33 -42.65)" gradientUnits="userSpaceOnUse"><stop offset="0" stop-color="#6a6ae8"/><stop offset="1" stop-color="#312890"/></linearGradient><linearGradient id="_名称未設定グラデーション_23-5" x1="-479.37" y1="1103.25" x2="-478.37" y2="1103.25" gradientTransform="translate(67155.89 39052.46) scale(140.96 -34.73)" xlink:href="#_名称未設定グラデーション_23"/><linearGradient id="_名称未設定グラデーション_41-9" x1="-484.65" y1="1104.11" x2="-483.65" y2="1104.11" gradientTransform="translate(43821.34 36822.52) scale(91.36 -32.65)" xlink:href="#_名称未設定グラデーション_41"/><linearGradient id="_名称未設定グラデーション_23-6" x1="-479.34" y1="1107.37" x2="-478.34" y2="1107.37" gradientTransform="translate(63951.97 30220.27) scale(134.22 -26.59)" xlink:href="#_名称未設定グラデーション_23"/><linearGradient id="_名称未設定グラデーション_42-2" x1="-478.6" y1="1100.04" x2="-477.6" y2="1100.04" gradientTransform="translate(76102.1 51006.31) scale(159.91 -45.63)" xlink:href="#_名称未設定グラデーション_42"/><linearGradient id="_名称未設定グラデーション_23-7" x1="-484.23" y1="1102.37" x2="-483.23" y2="1102.37" gradientTransform="translate(47268.81 41773.11) scale(98.62 -37.16)" xlink:href="#_名称未設定グラデーション_23"/><linearGradient id="_名称未設定グラデーション_42-3" x1="-472.2" y1="1091.89" x2="-471.2" y2="1091.89" gradientTransform="translate(143674.64 244643.68) scale(303.14 -223.93)" xlink:href="#_名称未設定グラデーション_42"/><linearGradient id="_名称未設定グラデーション_41-10" x1="-467.57" y1="1136.42" x2="-466.57" y2="1136.42" gradientTransform="translate(5246.21 11426.8) scale(10.02 -10.02)" xlink:href="#_名称未設定グラデーション_41"/><linearGradient id="_名称未設定グラデーション_41-11" x1="-470.23" y1="1206.41" x2="-469.23" y2="1206.41" gradientTransform="translate(11202.28 4903.94) scale(22.57 -4.01)" xlink:href="#_名称未設定グラデーション_41"/><linearGradient id="_名称未設定グラデーション_41-12" x1="-470.2" y1="1206.41" x2="-469.2" y2="1206.41" gradientTransform="translate(10989.02 4903.94) scale(22.18 -4.01)" xlink:href="#_名称未設定グラデーション_41"/><linearGradient id="_名称未設定グラデーション_41-13" x1="-471.28" y1="1206.26" x2="-470.28" y2="1206.26" gradientTransform="translate(21458.44 4992.04) scale(44.37 -4.01)" xlink:href="#_名称未設定グラデーション_41"/><linearGradient id="_名称未設定グラデーション_41-14" x1="-468.11" y1="1206.26" x2="-467.11" y2="1206.26" gradientTransform="translate(5888.79 4992.04) scale(11.3 -4.01)" xlink:href="#_名称未設定グラデーション_41"/><linearGradient id="_名称未設定グラデーション_41-15" x1="-470.23" y1="1206.26" x2="-469.23" y2="1206.26" gradientTransform="translate(11202.9 4954.57) scale(22.57 -4.01)" xlink:href="#_名称未設定グラデーション_41"/><linearGradient id="_名称未設定グラデーション_41-16" x1="-470.2" y1="1206.26" x2="-469.2" y2="1206.26" gradientTransform="translate(10988.68 4954.57) scale(22.18 -4.01)" xlink:href="#_名称未設定グラデーション_41"/><linearGradient id="_名称未設定グラデーション_41-17" x1="-471.28" y1="1206.38" x2="-470.28" y2="1206.38" gradientTransform="translate(21455.68 5054.61) scale(44.36 -4.01)" xlink:href="#_名称未設定グラデーション_41"/><linearGradient id="_名称未設定グラデーション_41-18" x1="-468.11" y1="1206.38" x2="-467.11" y2="1206.38" gradientTransform="translate(5887.9 5054.61) scale(11.3 -4.01)" xlink:href="#_名称未設定グラデーション_41"/><linearGradient id="_名称未設定グラデーション_41-19" x1="-470.23" y1="1206.26" x2="-469.23" y2="1206.26" gradientTransform="translate(11201.05 5021.52) scale(22.57 -4.01)" xlink:href="#_名称未設定グラデーション_41"/><linearGradient id="_名称未設定グラデーション_41-20" x1="-470.2" y1="1206.26" x2="-469.2" y2="1206.26" gradientTransform="translate(10988.74 5021.52) scale(22.18 -4.01)" xlink:href="#_名称未設定グラデーション_41"/><linearGradient id="_名称未設定グラデーション_41-21" x1="-469.04" y1="1122.07" x2="-468.04" y2="1122.07" gradientTransform="translate(6955.85 16596.84) scale(14.47 -14.47)" xlink:href="#_名称未設定グラデーション_41"/><linearGradient id="_名称未設定グラデーション_41-22" x1="-471.32" y1="1098.62" x2="-468.69" y2="1099.26" gradientTransform="translate(22108.73 57133.19) scale(46.57 -51.58)" xlink:href="#_名称未設定グラデーション_41"/><linearGradient id="_名称未設定グラデーション_41-23" x1="-472.41" y1="1096.22" x2="-467.79" y2="1096.68" gradientTransform="translate(12678.87 77453.18) scale(26.5 -70.22)" xlink:href="#_名称未設定グラデーション_41"/><linearGradient id="_名称未設定グラデーション_41-24" x1="-473.02" y1="1098.46" x2="-470.4" y2="1099.09" gradientTransform="translate(22208.85 57084.19) scale(46.61 -51.53)" xlink:href="#_名称未設定グラデーション_41"/><linearGradient id="_名称未設定グラデーション_41-25" x1="-471.75" y1="1095.76" x2="-470.75" y2="1095.76" gradientTransform="translate(37345.74 86398.52) scale(78.44 -78.44)" xlink:href="#_名称未設定グラデーション_41"/><linearGradient id="_名称未設定グラデーション_41-26" x1="-472.07" y1="1093.59" x2="-471.07" y2="1093.59" gradientTransform="translate(77784.21 135258.19) scale(163.48 -123.3)" xlink:href="#_名称未設定グラデーション_41"/><linearGradient id="_名称未設定グラデーション_42-4" x1="-472.07" y1="1093.59" x2="-471.07" y2="1093.59" gradientTransform="translate(77311.31 134954.24) scale(163.48 -123.3)" xlink:href="#_名称未設定グラデーション_42"/></defs><g id="_レイヤー_1-2"><rect id="_長方形_2973" class="cls-45" y="890.28" width="846.04" height="6.43"/><path id="_パス_6867" class="cls-54" d="M145.66,717.78c76.95-18.71,228.2-34.44,276.64,37.4s.27,98.22-86.92,63.51-295.98-75.08-189.71-100.91Z"/><path id="_パス_6868" class="cls-45" d="M705.82,548.36h-77.86v-42.62h77.86v42.62ZM632.33,543.99h69.11v-33.88h-69.11v33.88Z"/><path id="_パス_6869" class="cls-45" d="M652.43,586.61h-77.86v-42.62h77.86v42.62ZM578.94,582.24h69.12v-33.88h-69.12v33.88Z"/><path id="_パス_6870" class="cls-45" d="M400.2,412.94h-77.85v-42.62h77.85v42.62ZM326.72,408.58h69.11v-33.88h-69.11v33.88Z"/><path id="_パス_6871" class="cls-45" d="M717.93,127.95h-77.86v-42.62h77.86v42.62ZM644.44,123.58h69.11v-33.88h-69.11v33.88Z"/><path id="_パス_6872" class="cls-45" d="M644.36,127.95h-77.86v-42.62h77.86v42.62ZM570.87,123.58h69.12v-33.88h-69.12v33.88Z"/><path id="_パス_6873" class="cls-45" d="M681.19,166.2h-77.85v-42.62h77.85v42.62ZM607.7,161.83h69.11v-33.88h-69.11v33.88Z"/><path id="_パス_6874" class="cls-45" d="M229.79,238.64h-77.86v-42.62h77.86v42.62ZM156.3,234.27h69.12v-33.88h-69.12v33.88Z"/><path id="_パス_6875" class="cls-45" d="M283.18,276.88h-77.86v-42.61h77.86v42.61ZM209.7,272.51h69.12v-33.87h-69.12v33.87Z"/><path id="_パス_6876" class="cls-45" d="M789.44,786.14h-77.85v-42.62h77.86v42.62ZM715.95,781.77h69.12v-33.87h-69.12v33.87Z"/><path id="_パス_6877" class="cls-45" d="M715.87,786.14h-77.86v-42.62h77.86v42.62ZM642.38,781.77h69.12v-33.87h-69.12v33.87Z"/><path id="_パス_6878" class="cls-45" d="M752.69,824.38h-77.86v-42.62h77.86v42.62ZM679.2,820.01h69.12v-33.87h-69.12v33.87Z"/><path id="_パス_6879" class="cls-49" d="M347.09,443.01c6.54-30.17,24.43-50.34,30.45-55.46,9.89-8.4,37.45-7.57,48.6,15.35s15.28,36.78,12.16,78.05-37.28,182.27-37.36,213.22-64.4,27.59-60.97-16.75-.46-199.52,7.11-234.42Z"/><path id="_パス_6880" class="cls-19" d="M439.22,451.82c-.68-20.66-5.06-32.45-13.08-48.92-5.27-11.07-15.9-18.63-28.09-19.96-.67-.08-1.34-.15-1.99-.19-.59-.04-1.16-.06-1.74-.07-1.67-.03-3.34.06-5,.27-2.04.25-4.04.72-5.98,1.4-.88.31-1.75.68-2.58,1.11-.41.2-.79.41-1.16.64-.72.43-1.41.92-2.05,1.46-.38.33-.82.72-1.29,1.17-.26.23-.52.5-.8.76-.1.1-.19.2-.28.29-.2.21-.41.42-.63.65-.11.11-.23.23-.34.34-.23.24-.46.48-.69.73l-.32.34c-.69.75-1.42,1.57-2.17,2.46-.11.13-.22.27-.33.4-.28.33-.55.67-.83,1.01-.13.16-.26.32-.4.49-.29.35-.58.72-.87,1.09l-.36.45c-.82,1.06-1.66,2.2-2.51,3.39l-.35.5c-.32.45-.63.9-.95,1.36-.14.2-.28.41-.41.62-.32.46-.63.94-.94,1.42-.13.19-.25.38-.37.57-.87,1.35-1.74,2.77-2.61,4.25-.12.21-.24.43-.36.64-.31.54-.62,1.09-.93,1.64-.14.26-.28.52-.42.77-.3.56-.61,1.12-.9,1.69-.13.23-.25.47-.38.72-.42.81-.83,1.63-1.24,2.47h0c-.41.84-.81,1.7-1.21,2.57-.11.26-.23.53-.35.78-.28.63-.56,1.26-.82,1.9-.13.3-.26.61-.39.92-.27.64-.53,1.29-.79,1.94-.11.28-.23.57-.34.86-.36.93-.71,1.87-1.04,2.83v.02c-.34.96-.68,1.94-.99,2.92-.1.31-.19.63-.29.93-.22.7-.43,1.4-.64,2.11-.1.35-.21.72-.31,1.08-.2.71-.39,1.43-.58,2.15-.09.34-.17.67-.26,1-.26,1.04-.51,2.09-.74,3.17v.07c-.13.59-.26,1.21-.38,1.86-.04.22-.08.45-.12.68-.08.47-.16.93-.23,1.43-.05.28-.09.57-.13.85-.07.48-.14.97-.21,1.47-.04.31-.08.62-.12.93-.07.53-.14,1.08-.21,1.63-.04.3-.07.61-.11.92-.08.65-.15,1.32-.22,2-.03.24-.05.48-.08.72-.19,1.92-.38,3.96-.55,6.1-.02.22-.03.45-.05.66-.07.86-.13,1.75-.2,2.65-.02.29-.04.59-.06.88-.06.87-.12,1.75-.17,2.65-.02.29-.04.59-.06.88-.06.95-.11,1.91-.17,2.9-.01.25-.03.49-.05.74-.06,1.21-.13,2.43-.19,3.68v.04c-.2,4.01-.38,8.24-.54,12.65,0,.1,0,.2,0,.3-.05,1.37-.1,2.76-.14,4.16,0,.11,0,.21,0,.32-.05,1.46-.1,2.94-.14,4.45v.02c27.34,19.51,74.43,19.13,72.91,33.03-.68,6.28-20.61,140.15-22.95,145.38-.26.58,3.64,19.76,7.91,19.6.1-.82.15-1.65.16-2.47.07-30.45,33.16-167.43,37.18-211.15v-.09c.07-.68.13-1.34.17-1.97.49-6.45.8-12.23.93-17.48.09-4.21.09-8.07-.03-11.66Z"/><path id="_パス_6881" class="cls-49" d="M495.36,443.57c-11.81-30.38-33.22-50.93-40.13-56.17-11.35-8.59-38.77-8.25-45.92,14.55s-8.85,36.63,1.46,78.09,49.29,182.99,54.76,214.04,63.65,6.5,56.97-38.94c-7.37-50.2-13.49-176.44-27.15-211.57Z"/><path id="_パス_6882" class="cls-19" d="M431.79,504.99c14.38-2.36,36.82-6.16,42.02-4.58,10.83,3.3,19.29,12.85,19.38,24.56.11,13.53,21.28,143.71,21.24,144.31,3.03-2.49,5.91-5.16,8.61-8.01-.05-2.05-.22-4.1-.52-6.13-7.37-50.2-13.49-176.44-27.15-211.57-10.7-27.53-29.29-46.99-37.83-54.3-.88-.76-1.66-1.38-2.31-1.87-11.35-8.59-38.77-8.25-45.92,14.55s-8.85,36.63,1.46,78.09c.5,2.02,2.81,8.93,4.98,15.33,2.27,6.7,9.05,10.77,16.03,9.63Z"/><path id="_パス_6883" class="cls-38" d="M280.64,268.42c10.27-9.47,20.86-15.07,52.15-34.09,1.21-.95,2.45-1.89,3.76-2.8,23.51-16.47,44.04-42.2,48.54-44.9,16.91-10.17,56.32,3.75,34.77,40.55-19.6,33.48-83.32,77.65-111.07,78.14-10.41.18-26.93-12.94-28.79-21.84,1.36-.64-2.34-12.32.64-15.07Z"/><path id="_パス_6884" class="cls-1" d="M322.84,270.89c-15.37-24.22-81.02-77.67-85.18-94.82-2.82-11.66-24.37,15.9-17.58,21.13,15.6,12.03,50.57,78.33,68.28,101.06,15.1,19.39,44.89-10.99,34.49-27.37Z"/><path id="_パス_6885" class="cls-19" d="M442.94,124.49c-2.73,20.76,22.75,29.03,22.75,29.03,2.02-15.4,19.39-24.11,25.04-42.87,5.85-19.44-5.84-40.04-33.11-39.23-16.76.5-11.94,32.32-14.68,53.07Z"/><path id="_パス_6886" class="cls-48" d="M465.1,183.35c14.58,1.88,41.18,8.47,49.11,22.38s2.13,146.68-7.95,233.55c0,0-120.66,50.99-163.49-3.78,0,0,29.87-223.75,46.96-244.51,14.25-17.31,60.79-9.52,75.37-7.64Z"/><path id="_パス_6887" class="cls-13" d="M468.09,183.74s-50.93,70.82-56.86,76.62c0,0,1.87-60.78,2.96-79l53.9,2.38Z"/><path id="_パス_6888" class="cls-37" d="M458.75,153.76c.59-2.69,1.09-4.43,1.09-4.43,0,0-28.91-23.05-32.75.35l31.66,4.08Z"/><path id="_パス_6889" class="cls-1" d="M427.76,198.52l-8.78-16.72s9.06-6.11,7.85-22.11c-2.96-39.06,33.01-10.37,33.01-10.37,0,0-6.54,32.49,5.25,34.01l-37.33,15.18Z"/><path id="_パス_6890" class="cls-39" d="M427.98,190.86c20.26,2.61,19.25-22.75,20.22-27.51.92-4.48,11.65-14.02,11.65-14.02,0,0-6.54,32.49,5.25,34.01l-37.34,15.18-5.19-9.88c1.56,1.23,3.43,2,5.4,2.22Z"/><path id="_パス_6891" class="cls-46" d="M517.91,285.67l-9.65-32.01-12.51,66.95s5.22,137.01-126.85,133.85c52.66,20.61,137.36-15.17,137.36-15.17,4.84-41.65,9.83-109.02,11.65-153.61Z"/><path id="_パス_6892" class="cls-1" d="M416.83,93.31l-10,45.11c-1.77,13.46,12.29,26.41,26.47,28.28h0c14.18,1.86,27.12-7.54,28.89-21l.15-1.11s14.83.9,16.79-14.04-8.64-10.13-8.64-10.13l.84-6.38c.97-7.36-4.21-14.11-11.57-15.08h-.01s-42.94-5.65-42.94-5.65Z"/><path id="_パス_6893" class="cls-39" d="M470.5,120.42l.92-6.97c.92-7.03-4.03-13.48-11.06-14.41l-7.25-.95c-.01.15-.02.29-.04.43l-6.79,51.66c-1.19,9.03-10.85,14.91-19.57,13.46-3.57-.86-6.96-2.33-10.03-4.35,4.72,4.01,10.48,6.58,16.62,7.42,14.18,1.86,27.12-7.54,28.89-21l.15-1.11s14.83.9,16.79-14.04-8.64-10.12-8.64-10.12Z"/><path id="_パス_6894" class="cls-45" d="M423.37,176.73c-1.13,10.44,4.39,21.77,4.39,21.77,0,0-5.96-3.62-12.35,3.18-2.71,2.88-5.26,2.94-5.26,2.94,0,0,.08-8.36,4.12-23.97l9.09-3.92Z"/><path id="_パス_6895" class="cls-47" d="M612.89,272.19c-11.06-8.52-22.12-13.15-54.98-29.32-1.29-.84-2.61-1.66-3.99-2.46-24.88-14.32-47.61-38.13-52.33-40.42-17.74-8.64-55.76,8.73-31.04,43.48,22.5,31.61,89.89,69.95,117.57,67.97,10.39-.74,25.67-15.28,26.74-24.3-1.42-.51,1.23-12.48-1.98-14.95Z"/><path id="_パス_6896" class="cls-1" d="M568.63,280.79c8.79-27.29,61.26-95.98,60.97-113.63-.2-12,24.16,7.42,18.9,14.19-12.08,15.55-28.2,90.82-39.62,117.27-9.74,22.57-46.2.64-40.26-17.83Z"/><path id="_パス_6897" class="cls-45" d="M458.88,175.87c-6.57,10.13-31.12,22.65-31.12,22.65,0,0,7.52-1.6,14.73,8.16,2.03,2.58,4.76,4.53,7.86,5.6,0,0,15.6-11.97,17.74-28.55l-9.21-7.86Z"/><path id="_パス_6898" class="cls-19" d="M454.65,93.72s-11.28,11.35-29.57,7.1-21.15,5.28-21.15,5.28c0,0-4.29-34.9,20.91-43.81s37.78,9.24,37.78,9.24l-7.98,22.18Z"/><path id="_パス_6899" class="cls-1" d="M206.9,176.93c8.9,15.61,9.6,23.32,22.14,20.8s10.01-13.48,6.95-35.99c-2.99-21.97-38-.42-29.09,15.19Z"/><path id="_パス_6900" class="cls-1" d="M231.67,156.74s-4.53-19.33-7.61-25.91-14.28-4.82,0,25.91h7.61Z"/><path id="_パス_6901" class="cls-1" d="M662.12,166.11c-11.94,13.43-14.22,20.84-25.97,15.79s-7.02-15.27.64-36.65c7.47-20.87,37.26,7.43,25.33,20.87Z"/><path id="_パス_6902" class="cls-1" d="M642.05,141.24s8.42-17.98,12.79-23.78,14.98-1.76-5.35,25.35l-7.44-1.57Z"/><path id="_パス_6903" class="cls-1" d="M548.84,868.99c-14.92-5.19-18.53-27.98-20.04-41.5l-21.79,7.85s8.6,23.12,5.18,38.86,1.29,14.27,1.29,14.27h66.92s-16.65-14.3-31.57-19.49Z"/><path id="_パス_6904" class="cls-19" d="M581.72,890.36h-67.83s-2.5.81-3.48-4.28c-.52-2.66-.85-2.58.03-9.43.17-1.3.3-2.66.37-4.04,6.43.6,16.07-4.23,16.07-4.23,2.78-7.54,12.62-10.95,15.13-7.06,4.06,6.91,12.52,8.49,18.4,10.48,12.86,4.34,15.98,9.32,19.07,14.28.88,1.35,1.63,2.78,2.23,4.28Z"/><path id="_パス_6905" class="cls-19" d="M581.72,890.36h-67.83s-2.5.81-3.48-4.28h69.07c.88,1.35,1.63,2.79,2.24,4.28Z"/><path id="_パス_6906" class="cls-49" d="M518.8,649.28c19.68,16.06,10.68,131.59,20.59,208.4,0,0-22.77,5.08-36.5-.88,0,0-37.43-135.15-37.43-166.61,0-55.28,32.23-58.13,53.34-40.91Z"/><path id="_パス_6907" class="cls-1" d="M330.82,870.53c14.97-5.04,8.14-28.95,9.8-42.46l21.7,8.08s1.82,24.19,5.09,39.97-1.43,14.25-1.43,14.25l-68.23-.68s18.1-14.12,33.07-19.16Z"/><path id="_パス_6908" class="cls-19" d="M330.82,870.53c4.56-1.4,5.61-4.41,8.35-8.73,1.74-3.05,7.05,2.27,9.7,8.23,0,0,11.73,4.81,18.03,2.88.16,1.1.28,2.18.5,3.2,3.26,15.78-1.43,14.25-1.43,14.25l-68.23-.68c3.49-12.86,18.64-14.73,33.07-19.16Z"/><path id="_パス_6909" class="cls-19" d="M368.53,886.28c-.29,4.83-2.55,4.09-2.55,4.09l-68.23-.68c.32-1.45.9-2.84,1.7-4.1l69.08.69Z"/><path id="_パス_6910" class="cls-49" d="M344.12,673.24c-12.61,13.97-4.85,109.85-8.4,179.17,0,0,22.93,6.73,36.1.79,0,0,36.27-133.41,28.4-160.98-10.56-36.99-39.19-37.69-56.1-18.98Z"/><path id="_パス_6911" class="cls-19" d="M400.22,692.22c-1.4-5.11-3.45-10.02-6.09-14.61.04,1.77-25.03,119.58-27.91,177.32,1.22-.24,2.43-.55,3.61-.95.68-.24,1.36-.48,1.99-.77,0,0,11.52-43.55,20.94-88.08,6.29-31.15,10.76-61.34,7.46-72.91Z"/><path id="_パス_6912" class="cls-19" d="M518.8,649.28c-2.47-2.02-5.14-3.77-7.96-5.24,2.61,10.58,12.9,54.49,12.21,85.82-.76,34.88,5.87,117.97,8.74,129.08,4.55-.58,7.61-1.25,7.61-1.25-9.91-76.81-.91-192.34-20.59-208.4Z"/><path id="_パス_6913" class="cls-50" d="M843.41,715.6h-190.58c-4.81.14-8.82-3.64-8.96-8.45-.02-.61.03-1.21.14-1.81l16.89-129.9c.93-5.79,5.85-10.09,11.71-10.26h190.59c4.81-.14,8.82,3.65,8.96,8.46.02.6-.03,1.21-.14,1.8l-16.9,129.9c-.93,5.79-5.85,10.09-11.71,10.26Z"/><path id="_パス_6914" class="cls-41" d="M835.76,705.93h-190.59c-4.81.14-8.82-3.65-8.96-8.46-.02-.61.03-1.21.14-1.81l16.9-120.21c.93-5.79,5.85-10.09,11.71-10.26h190.59c4.81-.14,8.82,3.64,8.96,8.45.02.61-.03,1.21-.14,1.81l-16.9,120.21c-.93,5.79-5.84,10.1-11.7,10.27Z"/><path id="_パス_6915" class="cls-15" d="M645.26,690.96l15.57-110.81c.86-5.34,5.39-9.31,10.8-9.46h175.67c4.43-.13,8.13,3.36,8.26,7.79.02.56-.03,1.12-.13,1.67l-15.57,110.81h-194.61Z"/><path id="_パス_6916" class="cls-50" d="M678.61,628.74l.24-2.28h-18.36l-.25,2.28h18.37Z"/><path id="_パス_6917" class="cls-52" d="M700.04,621.88l.24-2.28h-38.83l-.24,2.28h38.83Z"/><path id="_パス_6918" class="cls-19" d="M693.33,615.03l.25-2.28h-31.16l-.24,2.28h31.16Z"/><path id="_パス_6919" class="cls-19" d="M693.49,615.15h-31.51l.28-2.53h31.51l-.27,2.53ZM662.36,614.9h30.81l.22-2.03h-30.81l-.22,2.03Z"/><path id="_パス_6920" class="cls-50" d="M687.23,628.74l.24-2.28h-5.58l-.24,2.28h5.57Z"/><path id="_パス_6921" class="cls-50" d="M681.47,608.42l.24-2.28h-18.37l-.24,2.28h18.37Z"/><path id="_パス_6922" class="cls-50" d="M702.9,601.57l.25-2.28h-38.84l-.24,2.28h38.83Z"/><path id="_パス_6923" class="cls-50" d="M696.19,594.71l.24-2.28h-31.16l-.24,2.28h31.16Z"/><path id="_パス_6924" class="cls-50" d="M689.83,608.42l.24-2.28h-5.58l-.24,2.28h5.58Z"/><path id="_パス_6925" class="cls-50" d="M684.32,588.11l.24-2.28h-18.36l-.24,2.28h18.36Z"/><path id="_パス_6926" class="cls-50" d="M705.75,581.25l.25-2.28h-38.84l-.24,2.28h38.83Z"/><path id="_パス_6927" class="cls-50" d="M692.42,588.11l.25-2.28h-5.58l-.24,2.28h5.57Z"/><path id="_パス_6928" class="cls-50" d="M670.85,683.96l.24-2.28h-18.36l-.25,2.28h18.37Z"/><path id="_パス_6929" class="cls-50" d="M692.28,677.11l.24-2.28h-38.83l-.24,2.28h38.83Z"/><path id="_パス_6930" class="cls-50" d="M685.57,670.25l.24-2.28h-31.16l-.24,2.28h31.16Z"/><path id="_パス_6931" class="cls-50" d="M679.47,683.96l.25-2.28h-5.58l-.24,2.28h5.57Z"/><path id="_パス_6932" class="cls-50" d="M673.71,663.65l.24-2.28h-18.36l-.25,2.28h18.37Z"/><path id="_パス_6933" class="cls-50" d="M695.14,656.79l.24-2.28h-38.83l-.24,2.28h38.83Z"/><path id="_パス_6934" class="cls-50" d="M688.43,649.93l.24-2.28h-31.16l-.24,2.28h31.16Z"/><path id="_パス_6935" class="cls-50" d="M682.06,663.65l.25-2.28h-5.58l-.24,2.28h5.57Z"/><path id="_パス_6936" class="cls-50" d="M676.56,643.33l.24-2.28h-18.36l-.25,2.28h18.37Z"/><path id="_パス_6937" class="cls-50" d="M697.99,636.47l.24-2.27h-38.83l-.24,2.27h38.83Z"/><path id="_パス_6938" class="cls-50" d="M684.66,643.33l.24-2.28h-5.57l-.25,2.28h5.57Z"/><path id="_パス_6939" class="cls-50" d="M737.33,635.35l.24-2.28h-31.16l-.24,2.28h31.16Z"/><path id="_パス_6940" class="cls-50" d="M725.47,628.74l.24-2.28h-18.36l-.25,2.28h18.37Z"/><path id="_パス_6941" class="cls-19" d="M746.9,621.89l.24-2.28h-38.83l-.24,2.28h38.83Z"/><path id="_パス_6942" class="cls-19" d="M747.06,622.01h-39.19l.27-2.52h39.18l-.27,2.52ZM708.25,621.77h38.49l.22-2.03h-38.49l-.22,2.03Z"/><path id="_パス_6943" class="cls-50" d="M734.45,655.85l.24-2.28h-31.16l-.24,2.28h31.16Z"/><path id="_パス_6944" class="cls-50" d="M722.58,649.25l.24-2.28h-18.37l-.24,2.28h18.36Z"/><path id="_パス_6945" class="cls-6" d="M744.01,642.39l.24-2.28h-38.83l-.24,2.28h38.83Z"/><path id="_パス_6946" class="cls-50" d="M740.18,615.03l.24-2.28h-31.16l-.24,2.28h31.16Z"/><path id="_パス_6947" class="cls-50" d="M734.08,628.74l.25-2.28h-5.58l-.24,2.28h5.57Z"/><path id="_パス_6948" class="cls-50" d="M731.53,676.6l.24-2.28h-31.16l-.24,2.28h31.16Z"/><path id="_パス_6949" class="cls-50" d="M719.67,670l.24-2.28h-18.36l-.24,2.28h18.36Z"/><path id="_パス_6950" class="cls-50" d="M741.1,663.14l.25-2.28h-38.84l-.24,2.28h38.83Z"/><path id="_パス_6951" class="cls-50" d="M738.22,683.65l.25-2.28h-38.84l-.24,2.28h38.83Z"/><path id="_パス_6952" class="cls-50" d="M728.29,670l.24-2.28h-5.57l-.24,2.28h5.57Z"/><path id="_パス_6953" class="cls-19" d="M778.39,676.6l.24-2.28h-31.16l-.24,2.28h31.16Z"/><path id="_パス_6954" class="cls-19" d="M778.55,676.73h-31.51l.27-2.53h31.51l-.27,2.53ZM747.41,676.48h30.81l.22-2.03h-30.81l-.22,2.03Z"/><path id="_パス_6955" class="cls-50" d="M766.52,670l.24-2.28h-18.37l-.25,2.28h18.37Z"/><path id="_パス_6956" class="cls-50" d="M787.95,663.14l.24-2.28h-38.83l-.24,2.28h38.83Z"/><path id="_パス_6957" class="cls-4" d="M785.07,683.65l.24-2.28h-38.83l-.24,2.28h38.83Z"/><path id="_パス_6958" class="cls-50" d="M775.14,670l.24-2.28h-5.58l-.24,2.28h5.58Z"/><path id="_パス_6959" class="cls-50" d="M728.32,608.42l.24-2.28h-18.36l-.25,2.28h18.37Z"/><path id="_パス_6960" class="cls-50" d="M749.75,601.57l.24-2.28h-38.83l-.24,2.28h38.83Z"/><path id="_パス_6961" class="cls-50" d="M743.04,594.71l.24-2.28h-31.16l-.24,2.28h31.16Z"/><path id="_パス_6962" class="cls-50" d="M736.68,608.42l.25-2.28h-5.58l-.24,2.28h5.57Z"/><path id="_パス_6963" class="cls-50" d="M731.18,588.11l.24-2.28h-18.36l-.24,2.28h18.36Z"/><path id="_パス_6964" class="cls-50" d="M752.61,581.25l.25-2.28h-38.84l-.24,2.28h38.83Z"/><path id="_パス_6965" class="cls-50" d="M739.27,588.11l.24-2.28h-5.57l-.24,2.28h5.57Z"/><path id="_パス_6966" class="cls-50" d="M772.32,628.74l.24-2.28h-18.37l-.24,2.28h18.37Z"/><path id="_パス_6967" class="cls-50" d="M793.75,621.88l.24-2.28h-38.83l-.24,2.28h38.83Z"/><path id="_パス_6968" class="cls-50" d="M787.04,615.03l.24-2.28h-31.16l-.24,2.28h31.16Z"/><path id="_パス_6969" class="cls-50" d="M780.94,628.74l.25-2.28h-5.57l-.24,2.28h5.56Z"/><path id="_パス_6970" class="cls-50" d="M775.18,608.42l.24-2.28h-18.37l-.25,2.28h18.37Z"/><path id="_パス_6971" class="cls-5" d="M796.61,601.57l.24-2.28h-38.83l-.24,2.28h38.83Z"/><path id="_パス_6972" class="cls-50" d="M789.9,594.71l.24-2.28h-31.16l-.24,2.28h31.16Z"/><path id="_パス_6973" class="cls-50" d="M783.53,608.42l.25-2.28h-5.58l-.25,2.28h5.58Z"/><path id="_パス_6974" class="cls-50" d="M768.57,655.43l.24-2.28h-18.36l-.24,2.28h18.36Z"/><path id="_パス_6975" class="cls-50" d="M790,648.58l.24-2.28h-38.84l-.24,2.28h38.84Z"/><path id="_パス_6976" class="cls-50" d="M783.29,641.72l.25-2.27h-31.16l-.25,2.27h31.16Z"/><path id="_パス_6977" class="cls-50" d="M777.19,655.43l.24-2.28h-5.57l-.24,2.28h5.57Z"/><path id="_パス_6978" class="cls-50" d="M771.42,635.12l.25-2.28h-18.37l-.24,2.28h18.36Z"/><path id="_パス_6979" class="cls-50" d="M779.78,635.12l.24-2.28h-5.58l-.24,2.28h5.57Z"/><path id="_パス_6980" class="cls-19" d="M778.03,588.11l.24-2.28h-18.36l-.24,2.28h18.36Z"/><path id="_パス_6981" class="cls-19" d="M778.19,588.23h-18.71l.27-2.52h18.71l-.27,2.52ZM759.85,587.98h18.02l.22-2.03h-18.02l-.22,2.03Z"/><path id="_パス_6982" class="cls-50" d="M799.46,581.25l.24-2.28h-38.83l-.24,2.28h38.83Z"/><path id="_パス_6983" class="cls-19" d="M786.13,588.11l.24-2.28h-5.57l-.25,2.28h5.57Z"/><path id="_パス_6984" class="cls-19" d="M786.29,588.23h-5.92l.27-2.52h5.92l-.27,2.52ZM780.74,587.98h5.22l.22-2.03h-5.23l-.22,2.03Z"/><path id="_パス_6985" class="cls-50" d="M831.03,635.35l.25-2.28h-31.16l-.25,2.28h31.16Z"/><path id="_パス_6986" class="cls-50" d="M819.17,628.74l.25-2.28h-18.37l-.24,2.28h18.37Z"/><path id="_パス_6987" class="cls-50" d="M840.6,621.88l.24-2.28h-38.84l-.24,2.28h38.84Z"/><path id="_パス_6988" class="cls-2" d="M833.89,615.03l.24-2.28h-31.16l-.24,2.28h31.16Z"/><path id="_パス_6989" class="cls-50" d="M827.79,628.74l.24-2.28h-5.58l-.24,2.28h5.58Z"/><path id="_パス_6990" class="cls-50" d="M822.03,608.42l.24-2.28h-18.37l-.24,2.28h18.37Z"/><path id="_パス_6991" class="cls-50" d="M843.46,601.57l.24-2.28h-38.83l-.25,2.28h38.84Z"/><path id="_パス_6992" class="cls-50" d="M836.75,594.71l.24-2.28h-31.16l-.24,2.28h31.16Z"/><path id="_パス_6993" class="cls-50" d="M830.39,608.42l.24-2.28h-5.58l-.24,2.28h5.57Z"/><path id="_パス_6994" class="cls-50" d="M824.25,683.64l.24-2.28h-31.16l-.24,2.28h31.16Z"/><path id="_パス_6995" class="cls-50" d="M812.39,677.04l.24-2.28h-18.37l-.24,2.28h18.37Z"/><path id="_パス_6996" class="cls-50" d="M833.82,670.18l.24-2.28h-38.83l-.24,2.28h38.83Z"/><path id="_パス_6997" class="cls-3" d="M827.11,663.33l.24-2.28h-31.16l-.24,2.28h31.16Z"/><path id="_パス_6998" class="cls-50" d="M821,677.04l.25-2.28h-5.57l-.24,2.28h5.57Z"/><path id="_パス_6999" class="cls-50" d="M815.43,655.4l.24-2.28h-18.36l-.24,2.28h18.36Z"/><path id="_パス_7000" class="cls-50" d="M836.86,648.54l.25-2.28h-38.84l-.24,2.28h38.83Z"/><path id="_パス_7001" class="cls-50" d="M830.15,641.68l.24-2.28h-31.16l-.24,2.28h31.16Z"/><path id="_パス_7002" class="cls-50" d="M823.79,655.4l.24-2.28h-5.58l-.24,2.28h5.58Z"/><path id="_パス_7003" class="cls-50" d="M824.88,588.11l.24-2.28h-18.37l-.24,2.28h18.37Z"/><path id="_パス_7004" class="cls-8" d="M846.32,581.25l.24-2.28h-38.83l-.24,2.28h38.83Z"/><path id="_パス_7005" class="cls-50" d="M832.98,588.11l.24-2.28h-5.57l-.24,2.28h5.57Z"/><path id="_長方形_2974" class="cls-50" d="M563.86,693.64h284.47v19.19c0,1.53-1.24,2.77-2.77,2.77h-278.92c-1.53,0-2.77-1.24-2.77-2.77v-19.19h0Z"/><path id="_パス_7006" class="cls-41" d="M846.85,701.73h-283.3v-8.1h284.2l-.9,8.1Z"/><path id="_パス_7007" class="cls-41" d="M645.26,690.96l15.57-110.81c.86-5.34,5.39-9.31,10.8-9.46h175.67c4.43-.13,8.13,3.36,8.26,7.79.02.56-.03,1.12-.13,1.67l-15.57,110.81h-194.61Z"/><path id="_パス_7008" class="cls-9" d="M737.71,891.52h89.1c15.21,0,27.53-12.33,27.53-27.54h0c0-15.2-12.32-27.53-27.53-27.53h-89.11v55.07Z"/><path id="_パス_7009" class="cls-44" d="M854.17,860.92c-1.56-13.93-13.34-24.46-27.36-24.46h-89.1v21.6c10.68,4.14,22.75,8.99,26.64,2.88,4.48-7.03,19.29-18.11,19.29-18.11,0,0,28.58-.2,48.01-.2,19.24,0,22.46,17.96,22.52,18.3Z"/><path id="_パス_7010" class="cls-18" d="M607.78,886.01h159.58c12.38,0,22.42-10.04,22.42-22.42h0c0-12.38-10.04-22.42-22.42-22.42h-159.58v44.84Z"/><path id="_パス_7011" class="cls-44" d="M598.34,882.07h167.7c9.99,0,18.09-8.1,18.09-18.09s-8.1-18.09-18.09-18.09h-167.7v-9.44h167.7c15.21,0,27.53,12.33,27.53,27.53s-12.33,27.53-27.53,27.53h-167.7v-9.45Z"/><path id="_パス_7012" class="cls-53" d="M721.45,758.19h69c11.78,0,21.33-9.55,21.33-21.33h0c0-11.78-9.55-21.32-21.33-21.32h-69v42.65Z"/><path id="_パス_7013" class="cls-16" d="M620.81,753.92h123.59c9.59,0,17.36-7.78,17.36-17.37h0c0-9.59-7.78-17.36-17.36-17.36h-123.59v34.73Z"/><path id="_パス_7014" class="cls-19" d="M613.5,750.87h129.88c7.74.01,14.02-6.25,14.03-13.99.01-7.74-6.25-14.02-13.99-14.03h-129.92v-7.31h129.88c11.78,0,21.32,9.55,21.32,21.32s-9.55,21.32-21.32,21.32h-129.88v-7.32Z"/><path id="_パス_7015" class="cls-7" d="M713.03,790.82h75.03c9.02,0,16.33-7.31,16.33-16.33h0c0-9.01-7.31-16.32-16.33-16.32h-75.03v32.65Z"/><path id="_パス_7016" class="cls-44" d="M803.87,778.53c2.26-8.69-2.95-17.57-11.64-19.84-1.36-.35-2.76-.53-4.16-.52h-75.04v7.56l18.27-1.86h56.25s14.33.02,16.32,14.66Z"/><path id="_パス_7017" class="cls-14" d="M598.76,787.56h120.93c7.34,0,13.29-5.95,13.29-13.29h0c0-7.35-5.95-13.3-13.29-13.3h-120.93v26.59Z"/><path id="_パス_7018" class="cls-44" d="M593.17,785.22h125.74c5.92,0,10.73-4.8,10.73-10.73s-4.8-10.73-10.73-10.73h-125.74v-5.6h125.74c9.02,0,16.32,7.31,16.32,16.32s-7.31,16.32-16.32,16.32h-125.74v-5.6Z"/><path id="_パス_7019" class="cls-10" d="M776.18,836.45h-137.09c-12.6,0-22.81-10.21-22.82-22.81h0c0-12.6,10.21-22.82,22.81-22.82h137.1v45.63Z"/><path id="_パス_7020" class="cls-19" d="M639.09,790.82c-12.59,0-22.81,10.19-22.82,22.78,0,.83.04,1.66.13,2.48,4.63-9.6,14.36-15.71,25.02-15.69,18.45-.17,98.12,0,98.12,0l21.67-9.57h-122.14Z"/><path id="_パス_7021" class="cls-17" d="M831.65,831.89h-80.05c-10.26,0-18.57-8.32-18.57-18.57h0c0-10.26,8.31-18.58,18.57-18.58h80.05v37.16Z"/><path id="_パス_7022" class="cls-19" d="M839.47,828.63h-86.77c-8.28.01-15-6.69-15.01-14.97-.01-8.28,6.69-15,14.97-15.01h86.81v-7.82h-86.77c-12.6,0-22.82,10.21-22.82,22.82s10.21,22.82,22.82,22.82h86.77v-7.82Z"/><path id="_パス_7023" class="cls-41" d="M536.63,249.77l215.49,440.65h0l69.93-440.65h-285.42Z"/><path id="_パス_7024" class="cls-41" d="M616.33,481.04l135.79,209.38h0l13.97-209.34-149.76-.04Z"/><path id="_パス_7025" class="cls-41" d="M752.12,690.42l-264.48-344.28v253.53c0,5.83-4.72,10.55-10.54,10.55H134.96l617.17,80.2h0Z"/><path id="_パス_7026" class="cls-41" d="M753.95,686.85L296.88,177.08h-153.03l610.1,509.77Z"/><path id="_パス_7045" class="cls-42" d="M181.72,13.81c8.89,0,8.9-13.81,0-13.81s-8.9,13.81,0,13.81Z"/><path id="_パス_7046" class="cls-11" d="M832.37,35.3v207.06c0,4.09-3.32,7.41-7.42,7.41h-288.32c-4.09,0-7.41-3.32-7.41-7.41V35.31c0-5.23,4.23-9.47,9.46-9.47h284.22c5.23,0,9.46,4.23,9.47,9.46Z"/><path id="_パス_7047" class="cls-19" d="M832.37,58.43h-303.14v-23.13c0-5.23,4.23-9.46,9.46-9.47h284.22c5.23,0,9.46,4.23,9.46,9.46v23.13Z"/><path id="_パス_7048" class="cls-45" d="M581.36,42.14c0-2.76,2.24-5,5-5s5,2.24,5,5-2.24,5-5,5c-2.76,0-4.99-2.24-5-5Z"/><path id="_パス_7049" class="cls-27" d="M562.1,42.14c0-2.77,2.23-5.01,5-5.02,2.77,0,5.01,2.23,5.02,5,0,2.77-2.23,5.01-5,5.02h0c-2.76,0-5-2.24-5.01-5Z"/><path id="_パス_7050" class="cls-42" d="M542.83,42.14c0-2.76,2.24-5.01,5-5.01,2.76,0,5.01,2.24,5.01,5,0,2.76-2.24,5.01-5,5.01h0c-2.76,0-5-2.24-5.01-5Z"/><path id="_パス_7051" class="cls-42" d="M808.51,38.48l2.48-2.48,3.54,3.54,3.54-3.54,2.48,2.48-3.54,3.54,3.54,3.54-2.48,2.48-3.54-3.54-3.54,3.54-2.48-2.48,3.54-3.54-3.54-3.54Z"/><path id="_パス_7052" class="cls-45" d="M631.33,70.27l.24,4.01h67.01l-.24-4.01h-67.02Z"/><path id="_パス_7053" class="cls-45" d="M664.19,82.33l.26,4.01h108.99l-.24-4.01h-109.01Z"/><path id="_パス_7054" class="cls-41" d="M631.51,82.33l.24,4.01h27.74l-.27-4.01h-27.72Z"/><path id="_パス_7055" class="cls-45" d="M631.2,94.39l.24,4.01h55.48l-.4-4.01h-55.32Z"/><path id="_パス_7056" class="cls-41" d="M690.39,94.39l.4,4.01h54.34l-.24-4.01h-54.51Z"/><path id="_パス_7057" class="cls-45" d="M582.67,94.39l-.02,4.01h27.26l.03-4.01h-27.27Z"/><path id="_パス_7058" class="cls-45" d="M549.53,82.33l-.02,4.01h44.35l.02-4.01h-44.34Z"/><path id="_パス_7059" class="cls-45" d="M598.95,82.33l-.02,4.01h11.27l.03-4.01h-11.28Z"/><path id="_パス_7060" class="cls-28" d="M588.17,70.27l.04,4.01h22.51l.03-4.01h-22.57Z"/><path id="_パス_7061" class="cls-21" d="M561.5,70.27l-.03,4.01h22.18l-.04-4.01h-22.11Z"/><path id="_パス_7062" class="cls-45" d="M582.33,139.56l-.02,4.02h27.26l.03-4.02h-27.27Z"/><path id="_パス_7063" class="cls-45" d="M549.19,127.5l-.02,4.01h44.35v-4.01s-44.33,0-44.33,0Z"/><path id="_パス_7064" class="cls-45" d="M598.61,127.5l-.02,4.01h11.28l.03-4.01h-11.28Z"/><path id="_パス_7065" class="cls-45" d="M581.9,164.97l-.03,4.01h27.26l.03-4.01h-27.26Z"/><path id="_パス_7066" class="cls-22" d="M548.76,152.9l-.03,4.01h44.35l.02-4.01h-44.34Z"/><path id="_パス_7067" class="cls-23" d="M598.18,152.9v4.01s11.26,0,11.26,0l.03-4.01h-11.29Z"/><path id="_パス_7068" class="cls-24" d="M587.83,115.43l.04,4.01h22.51l.03-4.01h-22.57Z"/><path id="_パス_7069" class="cls-36" d="M561.16,115.43l-.03,4.01h22.18l-.04-4.01h-22.11Z"/><path id="_パス_7070" class="cls-41" d="M705.24,70.27l.24,4.01h20.34l-.24-4.01h-20.34Z"/><path id="_パス_7071" class="cls-45" d="M780.23,82.33l.24,4.01h32.55l-.25-4.01h-32.54Z"/><path id="_パス_7072" class="cls-45" d="M751.12,94.39l.24,4.01h33l-.24-4.01h-32.99Z"/><path id="_パス_7073" class="cls-45" d="M734.69,70.27l.48,4.01h57.48l-.48-4.01h-57.48Z"/><path id="_パス_7074" class="cls-45" d="M631,115.43l.24,4.01h67.01l-.24-4.01h-67.02Z"/><path id="_パス_7075" class="cls-45" d="M663.86,127.5l.26,4.01h108.99l-.24-4.01h-109.01Z"/><path id="_パス_7076" class="cls-45" d="M631.17,127.5l.24,4.01h27.74l-.27-4.01h-27.72Z"/><path id="_パス_7077" class="cls-45" d="M630.86,139.56l.24,4.02h55.48l-.4-4.02h-55.32Z"/><path id="_パス_7078" class="cls-45" d="M690.05,139.56l.4,4.02h54.34l-.24-4.02h-54.51Z"/><path id="_パス_7079" class="cls-45" d="M704.91,115.43l.24,4.01h20.34l-.24-4.01h-20.34Z"/><path id="_パス_7080" class="cls-45" d="M779.89,127.5l.24,4.01h32.55l-.25-4.01h-32.55Z"/><path id="_パス_7081" class="cls-41" d="M750.78,139.56l.24,4.02h33l-.24-4.02h-33Z"/><path id="_パス_7082" class="cls-45" d="M664.77,152.9l.26,4.01h108.99l-.24-4.01h-109.01Z"/><path id="_パス_7083" class="cls-45" d="M632.08,152.9l.24,4.01h27.74l-.26-4.01h-27.72Z"/><path id="_パス_7084" class="cls-45" d="M631.77,164.97l.24,4.01h55.48l-.4-4.01h-55.32Z"/><path id="_パス_7085" class="cls-41" d="M690.96,164.97l.4,4.01h54.35l-.24-4.01h-54.51Z"/><path id="_パス_7086" class="cls-41" d="M780.8,152.9l.24,4.01h32.55l-.25-4.01h-32.54Z"/><path id="_パス_7087" class="cls-45" d="M751.69,164.97l.24,4.01h33l-.24-4.01h-32.99Z"/><path id="_パス_7088" class="cls-41" d="M734.35,115.43l.48,4.01h57.48l-.48-4.01h-57.48Z"/><path id="_パス_7089" class="cls-45" d="M581.44,206.52l-.02,4.01h27.26l.03-4.01h-27.27Z"/><path id="_パス_7090" class="cls-45" d="M548.3,194.46l-.02,4.01h44.35v-4.01s-44.33,0-44.33,0Z"/><path id="_パス_7091" class="cls-45" d="M597.72,194.46l-.02,4.01h11.28l.03-4.01h-11.28Z"/><path id="_パス_7092" class="cls-45" d="M581,231.93l-.03,4.01h27.26l.03-4.01h-27.26Z"/><path id="_パス_7093" class="cls-29" d="M547.87,219.87l-.02,4.01h44.35l.02-4.01h-44.34Z"/><path id="_パス_7094" class="cls-30" d="M597.29,219.87l-.02,4.01h11.28l.03-4.01h-11.28Z"/><path id="_パス_7095" class="cls-31" d="M586.93,182.39l.04,4.01h22.51l.03-4.01h-22.57Z"/><path id="_パス_7096" class="cls-25" d="M560.26,182.39l-.03,4.01h22.18l-.04-4.01h-22.11Z"/><path id="_パス_7097" class="cls-45" d="M630.11,182.39l.24,4.01h67.01l-.24-4.01h-67.02Z"/><path id="_パス_7098" class="cls-45" d="M662.96,194.46l.26,4.01h108.99l-.24-4.01h-109.01Z"/><path id="_パス_7099" class="cls-45" d="M630.28,194.46l.24,4.01h27.74l-.27-4.01h-27.72Z"/><path id="_パス_7100" class="cls-45" d="M629.97,206.52l.24,4.01h55.48l-.4-4.01h-55.32Z"/><path id="_パス_7101" class="cls-45" d="M689.16,206.52l.4,4.01h54.34l-.24-4.01h-54.5Z"/><path id="_パス_7102" class="cls-45" d="M704.01,182.39l.24,4.01h20.34l-.24-4.01h-20.34Z"/><path id="_パス_7103" class="cls-45" d="M779,194.46l.24,4.01h32.55l-.25-4.01h-32.55Z"/><path id="_パス_7104" class="cls-41" d="M749.89,206.52l.24,4.01h33l-.24-4.01h-32.99Z"/><path id="_パス_7105" class="cls-45" d="M663.88,219.87l.26,4.01h108.98l-.24-4.01h-109.01Z"/><path id="_パス_7106" class="cls-45" d="M631.19,219.87l.24,4.01h27.74l-.26-4.01h-27.72Z"/><path id="_パス_7107" class="cls-45" d="M630.87,231.93l.24,4.01h55.48l-.4-4.01h-55.32Z"/><path id="_パス_7108" class="cls-41" d="M690.07,231.93l.4,4.01h54.35l-.24-4.01h-54.51Z"/><path id="_パス_7109" class="cls-41" d="M779.91,219.87l.24,4.01h32.55l-.25-4.01h-32.54Z"/><path id="_パス_7110" class="cls-45" d="M750.79,231.93l.24,4.01h33l-.24-4.01h-32.99Z"/><path id="_パス_7111" class="cls-41" d="M733.46,182.39l.48,4.01h57.48l-.48-4.01h-57.48Z"/><path id="_パス_7112" class="cls-43" d="M670.63,115.16c0,5.85-4.75,10.6-10.6,10.6s-10.6-4.75-10.6-10.6,4.75-10.6,10.6-10.6h0c5.85,0,10.6,4.75,10.6,10.6Z"/><path id="_パス_7113" class="cls-42" d="M660.03,136.25c-11.64,0-21.08-9.44-21.08-21.09s9.44-21.08,21.09-21.08,21.08,9.44,21.08,21.08c-.01,11.64-9.45,21.07-21.09,21.09ZM660.03,95.23c-11.01,0-19.93,8.92-19.93,19.93,0,11.01,8.92,19.93,19.93,19.93,11.01,0,19.93-8.92,19.93-19.93-.01-11-8.93-19.92-19.93-19.93Z"/><path id="_パス_7114" class="cls-41" d="M487.65,346.12v253.38c0,5.92-4.8,10.71-10.72,10.71H130.08c-5.91,0-10.7-4.8-10.7-10.71v-253.36c0-7.55,6.11-13.68,13.67-13.69h340.92c7.55,0,13.68,6.12,13.68,13.67Z"/><path id="_パス_7115" class="cls-19" d="M487.64,379.56H119.38v-33.43c0-7.55,6.12-13.68,13.67-13.68h340.91c7.55,0,13.67,6.12,13.67,13.67h0v33.43Z"/><circle id="_楕円形_387" class="cls-45" cx="201.97" cy="356.01" r="7.23"/><path id="_パス_7116" class="cls-20" d="M166.89,356.01c0-4,3.24-7.24,7.23-7.24s7.24,3.24,7.24,7.23-3.24,7.24-7.23,7.24h0c-3.99,0-7.23-3.23-7.24-7.22h0Z"/><path id="_パス_7117" class="cls-42" d="M139.05,356.01c0-4,3.24-7.24,7.23-7.24s7.24,3.24,7.24,7.23-3.24,7.24-7.23,7.24h0c-4,0-7.24-3.23-7.24-7.23h0Z"/><path id="_パス_7118" class="cls-42" d="M453.17,350.72l3.58-3.58,5.12,5.12,5.12-5.12,3.58,3.58-5.12,5.12,5.12,5.11-3.58,3.58-5.12-5.12-5.12,5.12-3.58-3.58,5.12-5.11-5.12-5.12Z"/><path id="_パス_7119" class="cls-45" d="M205.22,575.19l-.13-6.07h-51.55l.13,6.07h51.55Z"/><path id="_パス_7120" class="cls-45" d="M276.58,575.19l-.13-6.07h-51.55l.13,6.07h51.55Z"/><path id="_パス_7121" class="cls-45" d="M185.11,557.59l-.13-6.07h-30.39l.13,6.07h30.39Z"/><path id="_パス_7122" class="cls-45" d="M218.34,539.32l-.13-6.07h-64.25l.13,6.07h64.25Z"/><path id="_パス_7123" class="cls-45" d="M197.45,557.59l-.13-6.07h-9.22l.13,6.07h9.22Z"/><path id="_パス_7124" class="cls-45" d="M256.46,557.59l-.13-6.07h-30.39l.13,6.07h30.38Z"/><path id="_パス_7125" class="cls-45" d="M289.69,539.32l-.13-6.07h-64.25l.13,6.07h64.25Z"/><path id="_パス_7126" class="cls-45" d="M268.81,557.59l-.13-6.07h-9.22l.13,6.07h9.22Z"/><path id="_パス_7127" class="cls-45" d="M366.4,575.19l-.13-6.07h-51.55l.13,6.07h51.55Z"/><path id="_パス_7128" class="cls-45" d="M437.76,575.19l-.13-6.07h-51.55l.13,6.07h51.55Z"/><path id="_パス_7129" class="cls-45" d="M346.29,557.59l-.13-6.07h-30.39l.13,6.07h30.39Z"/><path id="_パス_7130" class="cls-45" d="M379.51,539.32l-.13-6.07h-64.25l.13,6.07h64.25Z"/><path id="_パス_7131" class="cls-45" d="M358.63,557.59l-.13-6.07h-9.22l.13,6.07h9.22Z"/><path id="_パス_7132" class="cls-45" d="M417.64,557.59l-.13-6.07h-30.39l.13,6.07h30.38Z"/><path id="_パス_7133" class="cls-51" d="M450.88,539.32l-.13-6.07h-64.25l.13,6.07h64.25Z"/><path id="_パス_7134" class="cls-45" d="M429.99,557.59l-.13-6.07h-9.22l.13,6.07h9.22Z"/><path id="_パス_7135" class="cls-35" d="M205.47,482.01l-46.56-20.19v-11.2s46.5-20.19,46.5-20.19v13.19s-32.43,12.44-32.43,12.44l32.47,12.84.02,13.11Z"/><path id="_パス_7136" class="cls-34" d="M209.79,490.9l16.73-70.21h9.77s-16.91,70.21-16.91,70.21h-9.58Z"/><path id="_パス_7137" class="cls-32" d="M240.66,482.02v-13.1s32.47-12.82,32.47-12.82l-32.52-12.61v-13.01s46.59,20.09,46.59,20.09v11.11s-46.54,20.34-46.54,20.34Z"/><rect id="_長方形_2976" class="cls-33" x="343.15" y="411.27" width="78.44" height="78.44"/><path id="_パス_7138" class="cls-42" d="M349.82,484.33l22.96-45.54,13.68,28.75,9.61-15.21,18.77,31.81-65.02.19Z"/><path id="_パス_7139" class="cls-42" d="M392.53,433.48c-.03,2.8-2.32,5.05-5.12,5.03-2.8-.03-5.05-2.32-5.03-5.12.03-2.8,2.32-5.05,5.12-5.03h0c2.8.03,5.05,2.32,5.03,5.12,0,0,0,0,0,0Z"/><rect id="_長方形_2977" class="cls-40" x="334.47" y="449.98" width="95.81" height="1.01" transform="translate(-206.55 402.32) rotate(-45)"/><path id="_パス_7140" class="cls-40" d="M415.89,484.72l-67.75-67.75.72-.72,67.75,67.75-.71.72Z"/><path id="_パス_7141" class="cls-19" d="M414.86,485.35c-1.67,0-1.9-.36-1.9-.75s.22-.76,1.9-.76,1.89.38,1.89.76-.23.75-1.89.75Z"/><path id="_パス_7142" class="cls-19" d="M409.31,485.35c-1.66,0-1.89-.36-1.89-.75s.23-.76,1.89-.76,1.9.38,1.9.76-.23.75-1.9.75Z"/><path id="_パス_7143" class="cls-19" d="M403.76,485.35c-1.66,0-1.89-.36-1.89-.75s.23-.76,1.89-.76,1.9.38,1.9.76-.23.75-1.9.75Z"/><path id="_パス_7144" class="cls-19" d="M398.21,485.35c-1.66,0-1.89-.36-1.89-.75s.22-.76,1.89-.76,1.89.38,1.89.76-.23.75-1.89.75Z"/><path id="_パス_7145" class="cls-19" d="M392.66,485.35c-1.66,0-1.89-.36-1.89-.75s.23-.76,1.89-.76,1.89.38,1.89.76-.22.75-1.89.75Z"/><path id="_パス_7146" class="cls-19" d="M387.12,485.35c-1.66,0-1.89-.36-1.89-.75s.22-.76,1.89-.76,1.89.38,1.89.76-.23.75-1.89.75Z"/><path id="_パス_7147" class="cls-19" d="M381.57,485.35c-1.66,0-1.89-.36-1.89-.75s.23-.76,1.89-.76,1.89.38,1.9.76-.24.75-1.9.75Z"/><path id="_パス_7148" class="cls-19" d="M376.03,485.35c-1.67,0-1.9-.36-1.9-.75s.22-.76,1.9-.76,1.89.38,1.89.76-.24.75-1.89.75Z"/><path id="_パス_7149" class="cls-19" d="M370.48,485.35c-1.67,0-1.9-.36-1.9-.75s.23-.76,1.9-.76,1.89.38,1.89.76-.23.75-1.89.75Z"/><path id="_パス_7150" class="cls-19" d="M364.94,485.35c-1.67,0-1.9-.36-1.9-.75s.23-.76,1.9-.76,1.89.38,1.89.76-.23.75-1.89.75Z"/><path id="_パス_7151" class="cls-19" d="M359.39,485.35c-1.67,0-1.9-.36-1.9-.75s.22-.76,1.9-.76,1.89.38,1.89.76-.23.75-1.89.75Z"/><path id="_パス_7152" class="cls-19" d="M353.84,485.35c-1.67,0-1.9-.36-1.9-.75s.22-.76,1.9-.76,1.89.38,1.89.76-.23.75-1.89.75Z"/><path id="_パス_7153" class="cls-19" d="M349.25,485.63l-.38-.28h-.36s-.75.03-.75.03v-.97s-.01-.06-.01-.06l-.51-.51h.53c.08-1.15.41-1.33.73-1.33.35,0,.67.18.74,1.41.54.08.95.26.95.7s-.4.61-.94.69v.33Z"/><path id="_パス_7154" class="cls-19" d="M348.5,480.75c-.37,0-.75-.23-.75-1.9s.38-1.9.75-1.9c.39,0,.75.23.75,1.9s-.36,1.9-.75,1.9Z"/><path id="_パス_7155" class="cls-19" d="M348.5,475.2c-.37,0-.75-.23-.75-1.9s.38-1.89.75-1.89c.39,0,.75.23.75,1.89s-.36,1.9-.75,1.9Z"/><path id="_パス_7156" class="cls-19" d="M348.5,469.66c-.37,0-.75-.23-.75-1.9s.38-1.89.75-1.89c.39,0,.75.23.75,1.89s-.36,1.9-.75,1.9Z"/><path id="_パス_7157" class="cls-19" d="M348.5,464.11c-.37,0-.75-.23-.75-1.9s.38-1.89.75-1.89c.39,0,.75.23.75,1.89s-.36,1.9-.75,1.9Z"/><path id="_パス_7158" class="cls-19" d="M348.5,458.56c-.37,0-.75-.22-.75-1.9s.38-1.89.75-1.89c.39,0,.75.23.75,1.89s-.36,1.9-.75,1.9Z"/><path id="_パス_7159" class="cls-19" d="M348.5,453.01c-.37,0-.75-.23-.75-1.9s.38-1.89.75-1.89c.39,0,.75.23.75,1.89s-.36,1.9-.75,1.9Z"/><path id="_パス_7160" class="cls-19" d="M348.5,447.46c-.37,0-.75-.23-.75-1.9s.38-1.89.75-1.89c.39,0,.75.23.75,1.89s-.36,1.9-.75,1.9Z"/><path id="_パス_7161" class="cls-19" d="M348.5,441.92c-.37,0-.75-.23-.75-1.9s.38-1.89.75-1.89c.39,0,.75.23.75,1.89s-.36,1.9-.75,1.9Z"/><path id="_パス_7162" class="cls-19" d="M348.5,436.37c-.37,0-.75-.23-.75-1.89s.38-1.89.75-1.89c.39,0,.75.23.75,1.89s-.36,1.89-.75,1.89Z"/><path id="_パス_7163" class="cls-19" d="M348.5,430.82c-.37,0-.75-.22-.75-1.89s.38-1.89.75-1.89c.39,0,.75.23.75,1.89s-.36,1.89-.75,1.89Z"/><path id="_パス_7164" class="cls-19" d="M348.5,425.27c-.37,0-.75-.22-.75-1.89s.38-1.89.75-1.89c.39,0,.75.22.75,1.89s-.36,1.89-.75,1.89Z"/><path id="_パス_7165" class="cls-19" d="M353.08,417.61c-1.67,0-1.9-.38-1.9-.75,0-.39.23-.75,1.9-.75s1.89.35,1.89.75c0,.36-.23.75-1.89.75Z"/><path id="_パス_7166" class="cls-19" d="M358.62,417.61c-1.67,0-1.89-.38-1.89-.75,0-.39.23-.75,1.89-.75s1.9.35,1.9.75c0,.36-.23.75-1.9.75Z"/><path id="_パス_7167" class="cls-19" d="M364.17,417.61c-1.67,0-1.89-.38-1.89-.75,0-.39.23-.75,1.89-.75s1.9.35,1.9.75c0,.36-.23.75-1.9.75Z"/><path id="_パス_7168" class="cls-19" d="M369.71,417.61c-1.67,0-1.89-.38-1.89-.75,0-.39.23-.75,1.89-.75s1.9.35,1.9.75c0,.36-.23.75-1.9.75Z"/><path id="_パス_7169" class="cls-19" d="M375.26,417.61c-1.67,0-1.89-.38-1.89-.75,0-.39.23-.75,1.89-.75s1.9.35,1.9.75c0,.36-.23.75-1.9.75Z"/><path id="_パス_7170" class="cls-19" d="M380.81,417.61c-1.67,0-1.89-.38-1.89-.75,0-.39.23-.75,1.89-.75s1.9.35,1.9.75c0,.36-.23.75-1.9.75Z"/><path id="_パス_7171" class="cls-19" d="M386.36,417.61c-1.67,0-1.89-.38-1.89-.75,0-.39.23-.75,1.89-.75s1.9.35,1.9.75c0,.36-.23.75-1.9.75Z"/><path id="_パス_7172" class="cls-19" d="M391.9,417.61c-1.67,0-1.89-.38-1.89-.75,0-.39.23-.75,1.89-.75s1.9.35,1.9.75c0,.36-.23.75-1.9.75Z"/><path id="_パス_7173" class="cls-19" d="M397.45,417.61c-1.67,0-1.89-.38-1.89-.75,0-.39.23-.75,1.89-.75s1.9.35,1.9.75c0,.36-.23.75-1.9.75Z"/><path id="_パス_7174" class="cls-19" d="M403,417.61c-1.67,0-1.89-.38-1.89-.75,0-.39.23-.75,1.89-.75s1.9.35,1.9.75c0,.36-.23.75-1.9.75Z"/><path id="_パス_7175" class="cls-19" d="M408.55,417.61c-1.67,0-1.89-.38-1.89-.75,0-.39.23-.75,1.89-.75s1.9.35,1.9.75c0,.36-.23.75-1.9.75Z"/><path id="_パス_7176" class="cls-19" d="M414.1,417.61c-1.67,0-1.9-.38-1.9-.75,0-.39.23-.75,1.9-.75s1.9.35,1.9.75c0,.36-.23.75-1.9.75Z"/><path id="_パス_7177" class="cls-19" d="M416.24,422.15c-.39,0-.75-.23-.75-1.9s.36-1.89.75-1.89.75.23.75,1.89-.38,1.9-.75,1.9Z"/><path id="_パス_7178" class="cls-19" d="M416.24,427.7c-.39,0-.75-.23-.75-1.9s.36-1.89.75-1.89.75.23.75,1.89-.38,1.9-.75,1.9Z"/><path id="_パス_7179" class="cls-19" d="M416.24,433.25c-.39,0-.75-.23-.75-1.9s.36-1.89.75-1.89.75.23.75,1.89-.38,1.9-.75,1.9Z"/><path id="_パス_7180" class="cls-19" d="M416.24,438.79c-.39,0-.75-.23-.75-1.9s.36-1.89.75-1.89.75.22.75,1.89-.38,1.9-.75,1.9Z"/><path id="_パス_7181" class="cls-19" d="M416.24,444.35c-.39,0-.75-.23-.75-1.9s.36-1.89.75-1.89.75.22.75,1.89-.38,1.9-.75,1.9Z"/><path id="_パス_7182" class="cls-19" d="M416.24,449.9c-.39,0-.75-.23-.75-1.9s.36-1.9.75-1.9.75.23.75,1.9-.38,1.9-.75,1.9Z"/><path id="_パス_7183" class="cls-19" d="M416.24,455.44c-.39,0-.75-.23-.75-1.89s.36-1.9.75-1.9.75.23.75,1.9-.38,1.89-.75,1.89Z"/><path id="_パス_7184" class="cls-19" d="M416.24,460.99c-.39,0-.75-.23-.75-1.89s.36-1.89.75-1.89.75.22.75,1.89-.38,1.89-.75,1.89Z"/><path id="_パス_7185" class="cls-19" d="M416.24,466.53c-.39,0-.75-.23-.75-1.89s.36-1.89.75-1.89.75.22.75,1.89-.38,1.89-.75,1.89Z"/><path id="_パス_7186" class="cls-19" d="M416.24,472.08c-.39,0-.75-.23-.75-1.89s.36-1.89.75-1.89.75.22.75,1.89-.38,1.89-.75,1.89Z"/><path id="_パス_7187" class="cls-19" d="M416.24,477.63c-.39,0-.75-.23-.75-1.89s.36-1.9.75-1.9.75.23.75,1.9-.38,1.89-.75,1.89Z"/><path id="_パス_7188" class="cls-19" d="M416.24,483.17c-.39,0-.75-.23-.75-1.89s.36-1.9.75-1.9.75.23.75,1.9-.38,1.89-.75,1.89Z"/><rect id="_長方形_2978" class="cls-19" x="413.74" y="481.41" width="5.02" height="5.02"/><path id="_パス_7189" class="cls-19" d="M419.26,486.93h-6.03v-6.03h6.03v6.03ZM414.24,485.93h4.01v-4h-4.01v4Z"/><rect id="_長方形_2979" class="cls-19" x="345.99" y="482.1" width="5.02" height="5.02"/><path id="_パス_7190" class="cls-19" d="M351.52,487.62h-6.03v-6.03h6.03v6.03ZM346.5,486.61h4v-4h-4v4Z"/><rect id="_長方形_2980" class="cls-19" x="413.74" y="413.86" width="5.02" height="5.02"/><path id="_パス_7191" class="cls-19" d="M419.26,419.39h-6.03v-6.03h6.03v6.03ZM414.24,418.38h4.01v-4.01h-4.01v4.01Z"/><rect id="_長方形_2981" class="cls-19" x="345.99" y="414.35" width="5.02" height="5.02"/><path id="_パス_7192" class="cls-19" d="M351.52,419.88h-6.03v-6.03h6.03v6.03ZM346.5,418.86h4v-4h-4v4Z"/><path id="_パス_7193" class="cls-26" d="M772.7,363.8v112.48c0,2.63-2.13,4.75-4.76,4.76h-153.97c-2.63,0-4.76-2.13-4.76-4.76v-112.47c0-3.35,2.72-6.07,6.07-6.07h151.34c3.35,0,6.07,2.71,6.07,6.06Z"/><path id="_パス_7194" class="cls-42" d="M632.8,423.79v-8.8c1.38-.01,2.75-.29,4.03-.81.98-.5,1.79-1.27,2.35-2.22.72-1.19,1.18-2.52,1.35-3.9.24-2.03.34-4.08.29-6.12-.11-3.32.11-6.64.66-9.92.35-1.7,1.18-3.26,2.39-4.51,1.43-1.29,3.16-2.21,5.02-2.69,2.31-.53,4.67-.75,7.04-.66h1.94v8.77c-1.75-.1-3.51.05-5.22.46-.71.26-1.31.75-1.7,1.4-.44,1.01-.63,2.1-.55,3.2,0,1.54-.11,4.46-.34,8.77-.05,1.99-.37,3.97-.95,5.88-.43,1.34-1.1,2.6-1.96,3.72-1.05,1.19-2.28,2.22-3.65,3.04,1.34.75,2.54,1.74,3.54,2.91.96,1.2,1.67,2.58,2.1,4.05.57,2.08.89,4.22.96,6.38.17,4.06.26,6.65.26,7.77-.09,1.16.11,2.32.59,3.38.42.66,1.05,1.17,1.78,1.45,1.68.44,3.42.61,5.15.5v8.8h-1.94c-2.55.08-5.11-.18-7.59-.79-1.68-.48-3.21-1.38-4.45-2.62-1.22-1.25-2.07-2.82-2.44-4.53-.5-2.8-.7-5.64-.62-8.48,0-4.5-.2-7.42-.59-8.77-.34-1.62-1.2-3.1-2.44-4.19-1.49-.97-3.23-1.47-5.01-1.44Z"/><path id="_パス_7195" class="cls-42" d="M665.21,438.82v-10.3h10.3v10.3h-10.3Z"/><path id="_パス_7196" class="cls-42" d="M686.07,438.82v-10.3h10.3v10.3h-10.3Z"/><path id="_パス_7197" class="cls-42" d="M706.92,438.82v-10.3h10.3v10.3h-10.3Z"/><path id="_パス_7198" class="cls-42" d="M749.12,423.79c-1.38,0-2.75.28-4.03.8-.97.5-1.78,1.27-2.33,2.22-.7,1.2-1.17,2.52-1.38,3.9-.24,2.02-.34,4.05-.29,6.09.11,3.32-.11,6.65-.64,9.93-.33,1.7-1.16,3.28-2.36,4.53-1.44,1.3-3.18,2.22-5.06,2.69-2.31.53-4.67.75-7.03.66h-1.95v-8.8c1.72.1,3.46-.07,5.13-.5.73-.27,1.36-.77,1.78-1.43.45-.99.65-2.08.59-3.17.01-1.49.12-4.34.31-8.54.05-2.07.38-4.12.99-6.1.48-1.41,1.2-2.73,2.15-3.89.97-1.13,2.13-2.08,3.42-2.8-1.51-.91-2.85-2.07-3.96-3.44-1.24-1.85-2.04-3.96-2.34-6.16-.4-3.75-.59-7.52-.59-11.29.07-1.24-.1-2.49-.5-3.66-.36-.66-.94-1.16-1.65-1.41-1.74-.43-3.54-.6-5.33-.49v-8.77h1.94c2.55-.08,5.1.18,7.59.77,1.68.47,3.21,1.37,4.43,2.62,1.22,1.26,2.06,2.83,2.43,4.54.52,2.8.73,5.64.64,8.48-.12,2.93.07,5.87.55,8.76.34,1.63,1.2,3.1,2.46,4.2,1.5.96,3.24,1.47,5.02,1.45v8.8Z"/><path id="_パス_7199" class="cls-12" d="M301.64,59.85v112.48c0,2.63-2.13,4.75-4.76,4.76h-153.98c-2.62,0-4.75-2.13-4.75-4.76V59.86c0-3.35,2.71-6.07,6.06-6.07h151.34c3.35,0,6.07,2.71,6.08,6.06Z"/><path id="_パス_7200" class="cls-19" d="M203.88,139.52l-42.3-18.4v-10.18l42.3-18.31v12l-29.51,11.28,29.51,11.7v11.92Z"/><path id="_パス_7201" class="cls-19" d="M207.8,147.6l15.28-63.82h8.89l-15.45,63.82h-8.71Z"/><path id="_パス_7202" class="cls-19" d="M235.88,139.56v-11.91l29.55-11.62-29.55-11.49v-11.83l42.35,18.31v10.1l-42.35,18.44Z"/><path id="_パス_7203" class="cls-42" d="M230.5,130.13c0,5.85-4.75,10.6-10.6,10.6s-10.6-4.75-10.6-10.6,4.75-10.6,10.6-10.6h0c5.85,0,10.6,4.75,10.6,10.6Z"/><path id="_パス_7204" class="cls-42" d="M219.9,151.21c-11.64,0-21.08-9.44-21.08-21.08s9.44-21.08,21.08-21.08,21.08,9.44,21.08,21.08h0c-.01,11.64-9.44,21.07-21.08,21.08ZM219.9,110.19c-11.01,0-19.93,8.92-19.93,19.93s8.92,19.93,19.93,19.93c11.01,0,19.93-8.92,19.93-19.93-.01-11-8.93-19.92-19.93-19.93h0Z"/></g></svg>