<svg xmlns="http://www.w3.org/2000/svg" xmlns:xlink="http://www.w3.org/1999/xlink" width="644.922" height="563.576" viewBox="0 0 644.922 563.576"><defs><clipPath id="clip-path"><rect id="&#x9577;&#x65B9;&#x5F62;_3546" data-name="&#x9577;&#x65B9;&#x5F62; 3546" width="305.099" height="477" fill="none"></rect></clipPath><clipPath id="clip-path-2"><path id="&#x30D1;&#x30B9;_14360" data-name="&#x30D1;&#x30B9; 14360" d="M5.4,70.918l154.369,57.736-4.767,165.929,87.653-67.418,19.923-178.2L109.7,10.927q-1.471-.051-2.942-.049-50.635,0-101.35,60.04" transform="translate(-5.404 -10.878)" fill="none"></path></clipPath><linearGradient id="linear-gradient" x1="-0.08" y1="1.536" x2="-0.065" y2="1.536" gradientUnits="objectBoundingBox"><stop offset="0" stop-color="#cd824b"></stop><stop offset="1" stop-color="#b0652e"></stop></linearGradient><clipPath id="clip-path-3"><path id="&#x30D1;&#x30B9;_14361" data-name="&#x30D1;&#x30B9; 14361" d="M31.105,194.794l44.454,34.137,79.446,21.406,4.767-165.929L5.4,26.672Z" transform="translate(-5.404 -26.672)" fill="none"></path></clipPath><linearGradient id="linear-gradient-2" x1="-0.133" y1="1.679" x2="-0.108" y2="1.679" gradientUnits="objectBoundingBox"><stop offset="0" stop-color="#f3c89f"></stop><stop offset="0.012" stop-color="#f3c89f"></stop><stop offset="1" stop-color="#dd9866"></stop></linearGradient><clipPath id="clip-path-5"><rect id="&#x9577;&#x65B9;&#x5F62;_3540" data-name="&#x9577;&#x65B9;&#x5F62; 3540" width="324.977" height="461.576" fill="none"></rect></clipPath><clipPath id="clip-path-6"><path id="&#x30D1;&#x30B9;_14332" data-name="&#x30D1;&#x30B9; 14332" d="M8.927,68.07l1.154,26.142h97.745a406.088,406.088,0,0,1,56.716,30.218L151.512,295.2l95-63.009L267.34,44.939,106.852,4.973c-1.016-.035-2.033-.053-3.042-.053Q50.88,4.925,8.927,68.07" transform="translate(-8.927 -4.92)" fill="none"></path></clipPath><linearGradient id="linear-gradient-3" x1="-0.122" y1="1.53" x2="-0.108" y2="1.53" xlink:href="#linear-gradient"></linearGradient><clipPath id="clip-path-7"><path id="&#x30D1;&#x30B9;_14333" data-name="&#x30D1;&#x30B9; 14333" d="M9.254,30.22,39.292,189.735l31.725,36.334,22.514,11.163,57.154-6.024,13.03-170.77A406.091,406.091,0,0,0,107,30.22Z" transform="translate(-9.254 -30.22)" fill="none"></path></clipPath><linearGradient id="linear-gradient-4" x1="-0.211" y1="1.714" x2="-0.189" y2="1.714" xlink:href="#linear-gradient-2"></linearGradient><clipPath id="clip-path-9"><path id="&#x30D1;&#x30B9;_14336" data-name="&#x30D1;&#x30B9; 14336" d="M2.082,97.5,12.9,100.333Q9.617,71.269,15.553,56.647q-3.542,18.518,2.749,45.1l145.775,37.926q8.507-43.686,42.182-35.357-24.9-60.616-166.693-90.3c-.565-.018-1.122-.025-1.673-.025q-46.772,0-35.812,83.5" transform="translate(0 -13.992)" fill="none"></path></clipPath><linearGradient id="linear-gradient-5" x1="-0.07" y1="1.975" x2="-0.05" y2="1.975" gradientUnits="objectBoundingBox"><stop offset="0" stop-color="#551f09"></stop><stop offset="0.357" stop-color="#551f09"></stop><stop offset="0.525" stop-color="#8b330e"></stop><stop offset="0.682" stop-color="#551f09"></stop><stop offset="1" stop-color="#551f09"></stop></linearGradient></defs><g id="&#x30B0;&#x30EB;&#x30FC;&#x30D7;_9867" data-name="&#x30B0;&#x30EB;&#x30FC;&#x30D7; 9867" transform="translate(-4507.055 -382)"><g id="&#x30B0;&#x30EB;&#x30FC;&#x30D7;_9861" data-name="&#x30B0;&#x30EB;&#x30FC;&#x30D7; 9861" transform="translate(4507.055 382)"><path id="&#x30D1;&#x30B9;_14342" data-name="&#x30D1;&#x30B9; 14342" d="M119.082,129.863l-.867,2.5-3.862,11.013-11.64,3.6-4.767-.392-3.011-5.041.281,7.306,9.371,1.327,10.853-2.965,8.367-22.113-1.33-4.919Zm-70-9.686L45.8,121.309l-9.956,3.475-8.907-.585-4.064-3.71.471,4.375,2.615,1.407,10.347.7L59.2,120.024v-3.36Z" transform="translate(64.074 326.826)"></path><path id="&#x30D1;&#x30B9;_14343" data-name="&#x30D1;&#x30B9; 14343" d="M101.463,144.352l.939-3.44,6.132.43-1.369,3.246Zm2.148-7.854.939-3.475,7.071.779-1.175,2.851Zm10.431-7.538-7.344-4.136-4.919,3.121L99.429,140.76,94.905,150.6l.034.042,3.011,5.041,4.763.388,11.64-3.6,3.866-11.013-5.273-.118.859-2.262,5.276-.122,3.395-9.686-.468-6.481ZM35.8,117.829l6.132,2.539-4.22,2.266L33.341,119.7l-1.407.9,3.281,3.36-3.668,1.954-2.342-3.554-5,3.163-1.33,4.06L26.94,133.3l8.9.585L45.8,130.4l-5.976-4.919,2.186-1.251,7.074,5.037L59.2,125.759l-.7-7.892-9.139,2.342-8.515-6.793Z" transform="translate(64.074 317.727)" fill="#ac1a1a"></path><path id="&#x30D1;&#x30B9;_14344" data-name="&#x30D1;&#x30B9; 14344" d="M114.414,135.709l-.859,2.5-5.273-.118.859-2.262ZM96.795,141.1l.939-3.437,6.136.43-1.368,3.246Zm10.157-10.545-1.171,2.851-6.835-.156.935-3.474Zm-79.682-13.2,3.281,3.36-3.672,1.954L24.537,119.1Zm17.148,8.671-3.281,1.133-5.976-4.919,2.186-1.251Zm-15.742-9.568,1.175-.741,1.285-1.133,6.136,2.539-4.22,2.266Z" transform="translate(68.739 320.98)" fill="#fff" fill-rule="evenodd"></path><path id="&#x30D1;&#x30B9;_14345" data-name="&#x30D1;&#x30B9; 14345" d="M109.491,193.572l-7.033-3.2-3.513-2.186,1.718-7.268L85.588,135.84,58.324,124.827l-16.563-7.113h-.076l5.235,48.438-1.642,10L40.119,174.9l-7.968-6.717,2.973-8.048-11.8-58.512,1.251-4.22,3.908-2.422,74.759,26.8,8.671,65.309Z" transform="translate(65.341 266.086)" fill="#1d5082" fill-rule="evenodd"></path><path id="&#x30D1;&#x30B9;_14346" data-name="&#x30D1;&#x30B9; 14346" d="M44.793,118.437l.236,47.966L31.746,169.76l1.642-10-5.235-48.438h.076ZM95.96,187.182l2.422-6.485-8.671-65.309,28.123-18.125-3.592,37.653-2.19,40.938-2.889,4.375Z" transform="translate(78.872 272.476)" fill="#0f3051" fill-rule="evenodd"></path><path id="&#x30D1;&#x30B9;_14347" data-name="&#x30D1;&#x30B9; 14347" d="M57.891,128.988l-7.557-1.163L47.209,124.7l3.125-22.888,9.009,1.745Z" transform="translate(132.252 285.229)" fill="#e7b895" fill-rule="evenodd"></path><path id="&#x30D1;&#x30B9;_14348" data-name="&#x30D1;&#x30B9; 14348" d="M55.588,136.485l1.452-25.428-9.009-1.745L61.256,99.139l8.717,1.6,1.745,22.816Z" transform="translate(134.554 277.732)" fill="#c98959" fill-rule="evenodd"></path><path id="&#x30D1;&#x30B9;_14349" data-name="&#x30D1;&#x30B9; 14349" d="M28.418,177.877,99.9,201l3.281-9.45,1.015-4.531.076-6.094.316-16.875.076-4.687.392-26.481-67.263-21.8-2.422-4.14L21.7,99.131,63.966,70.384,150.52,92.022,141.066,193.5l-38.041,20.938L29.437,187.172Z" transform="translate(60.795 197.177)" fill="#4f6a15" fill-rule="evenodd"></path><path id="&#x30D1;&#x30B9;_14350" data-name="&#x30D1;&#x30B9; 14350" d="M22.145,93.578l-.156-3.516,11.017-2.5,9.139,7.42L53.628,91.7l10.309,8.827,9.922-4.06,8.987,9.139,11.8-2.657,9.218,8.28-.08,4.691-10.469-7.972-12.184,2.813-8.907-7.5-10.157,1.642-8.907-7.344L42.144,99.284,31.755,92.407Z" transform="translate(61.6 245.305)" fill="#dbdbdb" fill-rule="evenodd"></path><path id="&#x30D1;&#x30B9;_14351" data-name="&#x30D1;&#x30B9; 14351" d="M23.263,133.1l9.454-2.266,9.063,7.58,10.781-3.672,8.356,9.294,10.625-4.14,8.831,9.063,12.263-1.718,11.64,12.5-.08,6.094-1.015,4.531-3.281,9.45-71.478-23.12-4.691-6.877ZM22.8,117.006,21.7,77.946l13.674,7.812L37.8,89.9l67.259,21.8-.388,26.481-9.218-8.28-11.8,2.653-8.987-9.135-9.922,4.056-10.309-8.823-11.484,3.281-9.139-7.42Z" transform="translate(60.794 218.36)" fill="#6d8d29" fill-rule="evenodd"></path><path id="&#x30D1;&#x30B9;_14352" data-name="&#x30D1;&#x30B9; 14352" d="M103.353,129.225l-11.64-12.5L79.45,118.444l-8.827-9.063L60,113.521l-8.359-9.294L40.858,107.9l-9.063-7.58-9.45,2.266-.316-12.575,9.61-1.171,10.389,6.873,11.017-1.718,8.9,7.344L72.106,99.7l8.907,7.5L93.2,104.382l10.469,7.968Z" transform="translate(61.714 248.875)" fill="#47444d" fill-rule="evenodd"></path><path id="&#x30D1;&#x30B9;_14353" data-name="&#x30D1;&#x30B9; 14353" d="M50.276,107.643l4.128-5.387-.456,7.7-2.44,6.569-3.193,1.688Z" transform="translate(135.349 286.463)" fill="#d49464" fill-rule="evenodd"></path><path id="&#x30D1;&#x30B9;_14354" data-name="&#x30D1;&#x30B9; 14354" d="M53.245,105.043l-1.962,10.572-4.03-2.064,1.464-10.367Z" transform="translate(132.379 289.063)" fill="#e7b895" fill-rule="evenodd"></path><path id="&#x30D1;&#x30B9;_14355" data-name="&#x30D1;&#x30B9; 14355" d="M56.295,103.85l-4.128,5.387-4.528-1.859,4.125-5.691Z" transform="translate(133.458 284.869)" fill="#e2a06f" fill-rule="evenodd"></path><path id="&#x30D1;&#x30B9;_14356" data-name="&#x30D1;&#x30B9; 14356" d="M80.165,124.375l7.029,8.01-4.216,23.63L53.369,170.547v-96.6l24.139,2.463Z" transform="translate(149.51 207.163)" fill-rule="evenodd"></path><path id="&#x30D1;&#x30B9;_14357" data-name="&#x30D1;&#x30B9; 14357" d="M45.5,85.734l15,4.843,5.39,24.063-.316,30.894-12.419-3.71-2.3-3.239,4.881-23.945Z" transform="translate(127.46 240.179)" fill="#6d8d29" fill-rule="evenodd"></path><path id="&#x30D1;&#x30B9;_14358" data-name="&#x30D1;&#x30B9; 14358" d="M45.5,96.845l19.22-15.076,10.389,3.36,5.7,35.152L82.6,145.944l-3.63,5-.274,6.991L65.418,169.578l-13.2-6.8.935-9.846,12.419,3.71.316-30.894L60.5,101.688Z" transform="translate(127.46 229.069)" fill="#4f6a15" fill-rule="evenodd"></path><g id="&#x30B0;&#x30EB;&#x30FC;&#x30D7;_9801" data-name="&#x30B0;&#x30EB;&#x30FC;&#x30D7; 9801"><g id="&#x30B0;&#x30EB;&#x30FC;&#x30D7;_9800" data-name="&#x30B0;&#x30EB;&#x30FC;&#x30D7; 9800" clip-path="url(#clip-path)"><path id="&#x30D1;&#x30B9;_14359" data-name="&#x30D1;&#x30B9; 14359" d="M86.181,86.2Q75.752,89.357,67.588,99.171q-11.758,14.2-12.032,34.061l-3.592-2.657Q32.041,93.938,71.26,77.453Z" transform="translate(126.775 216.979)" fill-rule="evenodd"></path></g></g><g id="&#x30B0;&#x30EB;&#x30FC;&#x30D7;_9803" data-name="&#x30B0;&#x30EB;&#x30FC;&#x30D7; 9803" transform="translate(20.543 41.352)"><g id="&#x30B0;&#x30EB;&#x30FC;&#x30D7;_9802" data-name="&#x30B0;&#x30EB;&#x30FC;&#x30D7; 9802" clip-path="url(#clip-path-2)"><rect id="&#x9577;&#x65B9;&#x5F62;_3547" data-name="&#x9577;&#x65B9;&#x5F62; 3547" width="257.178" height="283.705" transform="translate(0 0)" fill="url(#linear-gradient)"></rect></g></g><g id="&#x30B0;&#x30EB;&#x30FC;&#x30D7;_9805" data-name="&#x30B0;&#x30EB;&#x30FC;&#x30D7; 9805" transform="translate(20.543 101.392)"><g id="&#x30B0;&#x30EB;&#x30FC;&#x30D7;_9804" data-name="&#x30B0;&#x30EB;&#x30FC;&#x30D7; 9804" clip-path="url(#clip-path-3)"><rect id="&#x9577;&#x65B9;&#x5F62;_3548" data-name="&#x9577;&#x65B9;&#x5F62; 3548" width="154.369" height="223.665" fill="url(#linear-gradient-2)"></rect></g></g><g id="&#x30B0;&#x30EB;&#x30FC;&#x30D7;_9807" data-name="&#x30B0;&#x30EB;&#x30FC;&#x30D7; 9807"><g id="&#x30B0;&#x30EB;&#x30FC;&#x30D7;_9806" data-name="&#x30B0;&#x30EB;&#x30FC;&#x30D7; 9806" clip-path="url(#clip-path)"><path id="&#x30D1;&#x30B9;_14362" data-name="&#x30D1;&#x30B9; 14362" d="M88.474,80.248V54.858L138.7,75.99V93.173ZM11.837,58.88,10.275,35.756l43.591,9.766,2.11,15.156Z" transform="translate(28.785 100.168)" fill="#432a12" fill-rule="evenodd"></path><path id="&#x30D1;&#x30B9;_14363" data-name="&#x30D1;&#x30B9; 14363" d="M70.231,7.575V7.537L114.917,28.4l13.043,6.835L149.833,0l42.306,29.294h.038l9.61,8.439,27.066-20.5,19.022,36.634,42.656,5.352L280.1,96.126l25,25.625-28.591,24.215L269.2,214.674l-10.7,32.263L242.953,189.52h-8.671l-8.591,18.2L182.18,155.3l-16.057,12.263-6.6-16.521L38.36,111.2,0,115.46,24.025,79.525l-13.947-33.2,39.607-.076,19.3.623Z" transform="translate(-0.001 -0.002)" fill="#900" fill-rule="evenodd"></path><path id="&#x30D1;&#x30B9;_14364" data-name="&#x30D1;&#x30B9; 14364" d="M78.3,28.4,113.184,0h.034L91.345,35.231ZM192.239,17.227l-27.066,20.5-9.61-8.439,36.676-12.108ZM33.617,7.575l-1.251,39.3-19.3-.623Z" transform="translate(36.615 -0.003)" fill="#ca0505" fill-rule="evenodd"></path><path id="&#x30D1;&#x30B9;_14365" data-name="&#x30D1;&#x30B9; 14365" d="M78.909,53.2q6.352,6.352,5.28,14.518Q83.282,75.805,75.609,81A26,26,0,0,1,61,85.624l1.072-34.076Q74.21,48.418,78.909,53.2" transform="translate(170.899 140.937)" fill="#e1a170" fill-rule="evenodd"></path><path id="&#x30D1;&#x30B9;_14366" data-name="&#x30D1;&#x30B9; 14366" d="M22.605,69.541,55.727,80.01l-1.015,5.432L22.605,72.978Z" transform="translate(63.328 194.815)" fill="#92501f" fill-rule="evenodd"></path><path id="&#x30D1;&#x30B9;_14367" data-name="&#x30D1;&#x30B9; 14367" d="M60.621,63.758A49.127,49.127,0,0,1,69.451,82.91a42.228,42.228,0,0,1,.779,7.318q-.074,12.579-8.907,18.35l.08,0q-9.22,5.628-22.029.909Q25.86,104.476,16.25,91.372,6.722,78.257,6.72,64.9q0-12.659,8.747-18.346,9.146-5.622,22.029-.909,13.44,5.012,23.124,18.114M91.089,87.247a17.6,17.6,0,0,1,7.732-10.184q9.141-5.548,21.953-.829,13.514,5.007,23.124,18.034a59.836,59.836,0,0,1,5.938,10.032.666.666,0,0,0,.08.312,41.315,41.315,0,0,1,3.589,16.206q0,12.579-8.823,18.266l-.08,0q-9.066,5.7-21.953.985-13.434-5.006-23.044-18.2Q90,108.845,89.994,95.489a26.035,26.035,0,0,1,.939-7.766c.053-.156.1-.316.156-.475" transform="translate(18.826 121.846)" fill="#fff" fill-rule="evenodd"></path><path id="&#x30D1;&#x30B9;_14368" data-name="&#x30D1;&#x30B9; 14368" d="M43.117,44.692Q57.96,50.12,68.507,64.448A56.013,56.013,0,0,1,77.494,82.5q6.637-2.184,13.9,3.665a22.517,22.517,0,0,1,8.6-9.591q10.931-7.014,26.4-1.292,14.923,5.428,25.394,19.676v.08a74.43,74.43,0,0,1,5.151,8.337l57.033-45.541a2.39,2.39,0,0,1,1.87-.532,2.327,2.327,0,0,1,1.638.962,2.261,2.261,0,0,1,.471,1.859,2.633,2.633,0,0,1-.939,1.673l-57.884,46.271a44.139,44.139,0,0,1,3.2,16.373q-.08,15.709-11.332,22.733-10.937,7.168-26.481,1.452-14.848-5.428-25.306-19.836-10.629-14.4-10.545-29.328a34.455,34.455,0,0,1,.855-8q-5.862-5.343-10.941-3.843a41.367,41.367,0,0,1,.475,6.234q0,15.7-11.328,22.809-11.022,7.093-26.488,1.372Q26.323,112.6,15.85,98.277,5.3,83.793,5.384,68.873q-.08-15.778,11.172-22.8h.08q10.937-7.093,26.481-1.376M94.836,91.046c-.053.156-.11.316-.156.475a25.907,25.907,0,0,0-.943,7.766q0,13.36,9.606,26.386,9.62,13.189,23.048,18.2,12.893,4.716,21.957-.985l.08,0q8.821-5.691,8.819-18.27a41.312,41.312,0,0,0-3.589-16.2.678.678,0,0,1-.08-.312,60.1,60.1,0,0,0-5.938-10.032q-9.614-13.029-23.124-18.034-12.807-4.721-21.953.829a17.566,17.566,0,0,0-7.728,10.184M64.364,67.557q-9.682-13.1-23.124-18.114-12.887-4.716-22.029.909Q10.469,56.043,10.459,68.7q0,13.36,9.53,26.469,9.608,13.109,23.128,18.114Q55.93,118,65.143,112.372l-.08,0q8.833-5.771,8.911-18.353a42.94,42.94,0,0,0-.779-7.314,49.182,49.182,0,0,0-8.831-19.152" transform="translate(15.082 118.051)" fill="#0e0e0e" fill-rule="evenodd"></path></g></g></g><g id="&#x30B0;&#x30EB;&#x30FC;&#x30D7;_9866" data-name="&#x30B0;&#x30EB;&#x30FC;&#x30D7; 9866" transform="translate(4827 484)"><path id="&#x30D1;&#x30B9;_14312" data-name="&#x30D1;&#x30B9; 14312" d="M26.637,154.159l.268,23.219-14.89-3.191,9.13-127.521L62.618,173.126,31.6,182.341Z" transform="translate(30.389 118.035)" fill="#551f09" fill-rule="evenodd"></path><path id="&#x30D1;&#x30B9;_14313" data-name="&#x30D1;&#x30B9; 14313" d="M66.025,123.415l-.265,9.039-5.319,2.128L59.2,131.568l-8.862,6.2-9.833.18-1.952-4.165,7.884-6.381,5.407-5.936Z" transform="translate(97.521 307.23)" fill-rule="evenodd"></path><g id="&#x30B0;&#x30EB;&#x30FC;&#x30D7;_9788" data-name="&#x30B0;&#x30EB;&#x30FC;&#x30D7; 9788"><g id="&#x30B0;&#x30EB;&#x30FC;&#x30D7;_9787" data-name="&#x30B0;&#x30EB;&#x30FC;&#x30D7; 9787" clip-path="url(#clip-path-5)"><path id="&#x30D1;&#x30B9;_14314" data-name="&#x30D1;&#x30B9; 14314" d="M55.08,132.085l19.185-8.509,4.609,14.978L72.5,142.183l-1.422-4.874-4.782,7.715q-3.018,3.277-11.608,3.988l-6.914-2.573.173-3.766,5.5-2.7Z" transform="translate(120.828 312.564)" fill-rule="evenodd"></path><path id="&#x30D1;&#x30B9;_14315" data-name="&#x30D1;&#x30B9; 14315" d="M52.743,150.854V121.959L63.994,117l-1.281,19.944-.4,6.378Z" transform="translate(133.403 295.922)" fill="#c77c44" fill-rule="evenodd"></path><path id="&#x30D1;&#x30B9;_14316" data-name="&#x30D1;&#x30B9; 14316" d="M60.492,118.4V147.3L50.48,145.7l-.8-23.308Z" transform="translate(125.653 299.48)" fill="#df9e6d" fill-rule="evenodd"></path><path id="&#x30D1;&#x30B9;_14317" data-name="&#x30D1;&#x30B9; 14317" d="M43.327,113.909,56.974,116.3l-4.433,28.8-1.6,1.062L45.9,147.85Z" transform="translate(109.587 288.113)" fill="#c77c44" fill-rule="evenodd"></path><path id="&#x30D1;&#x30B9;_14318" data-name="&#x30D1;&#x30B9; 14318" d="M54.916,151.154l-10.193-4.168L39.761,112.6l12.582,4.609Z" transform="translate(100.569 284.81)" fill="#df9e6d" fill-rule="evenodd"></path><path id="&#x30D1;&#x30B9;_14319" data-name="&#x30D1;&#x30B9; 14319" d="M34.212,105.447,97.4,129.464l2.658,32.876L42.63,136.463Z" transform="translate(86.534 266.71)" fill="#285471" fill-rule="evenodd"></path><path id="&#x30D1;&#x30B9;_14320" data-name="&#x30D1;&#x30B9; 14320" d="M98.159,135.686,34.974,111.669l-1.062-4.253,61.675,22.33,36.066-26.759-.085,5.41Z" transform="translate(85.773 260.487)" fill-rule="evenodd"></path><path id="&#x30D1;&#x30B9;_14321" data-name="&#x30D1;&#x30B9; 14321" d="M52.116,131.809,85.524,104.52l-10.5,52.767-14.753,5.982-5.5,1.415Z" transform="translate(131.817 264.364)" fill="#183445" fill-rule="evenodd"></path><path id="&#x30D1;&#x30B9;_14322" data-name="&#x30D1;&#x30B9; 14322" d="M31.531,116.726,31,87.394l75.238,28.182L98.7,150.046l4.609,20.029L40.3,147.3l2.922-10.193-.085-11.255,14.576,1.729,26.809,13.69-18.7-13.514,1.285-15.727-7.62,13.775Z" transform="translate(78.403 221.047)" fill="#930f0f" fill-rule="evenodd"></path><path id="&#x30D1;&#x30B9;_14323" data-name="&#x30D1;&#x30B9; 14323" d="M154.178,102.468,106.236,137.74,31,109.562,86.03,78.631Z" transform="translate(78.403 198.882)" fill="#350606" fill-rule="evenodd"></path><path id="&#x30D1;&#x30B9;_14324" data-name="&#x30D1;&#x30B9; 14324" d="M105.658,85.385,84.835,140.77,91.3,152.738,54.79,175.16l-4.609-20.029,7.535-34.474Z" transform="translate(126.923 215.965)" fill="#730d0d" fill-rule="evenodd"></path><path id="&#x30D1;&#x30B9;_14325" data-name="&#x30D1;&#x30B9; 14325" d="M42.757,108.2,31.149,99.069l27.959,9.081,7.62-13.775L65.443,110.1l18.7,13.514-26.809-13.69Z" transform="translate(78.786 238.704)" fill="#540a0a" fill-rule="evenodd"></path><path id="&#x30D1;&#x30B9;_14326" data-name="&#x30D1;&#x30B9; 14326" d="M86.652,129.213l-3.18,1.338-4.062.844-4.45.145-3.293-.057L65.7,131.2l.332-8.11-4.08,3.536-4.309-5.679L68.059,107.36l11.248-2.711,3.889,9.025Z" transform="translate(145.792 264.692)" fill="#e9ab7d" fill-rule="evenodd"></path><path id="&#x30D1;&#x30B9;_14327" data-name="&#x30D1;&#x30B9; 14327" d="M64.321,117.989,62.1,132.36l-1.486-1.489,1.655-10.676v-3.653l-2.216,4.775-1.871.113,2.389-8.015,4.083-3.54Zm9.261.332-.593,14.357-1.465-1.2-.159-10.881-1.542-.021.466-2.308Zm8.513-.988-.784,11.848-.96-.455.2-7.959-2.312.2-.208-2.788Z" transform="translate(147.166 277.909)" fill="#c8834f" fill-rule="evenodd"></path><path id="&#x30D1;&#x30B9;_14328" data-name="&#x30D1;&#x30B9; 14328" d="M67.014,116.188,64.547,128.36l-5.252-.388,2.22-14.371,5.968.275Zm3.169,12.1.593-14.354,4.45-.145.212,2.788L74.753,128.2Zm8.322-3.494.784-11.848,3.18-1.338-1.913,12.808Z" transform="translate(149.976 282.298)" fill="#de9b69" fill-rule="evenodd"></path><path id="&#x30D1;&#x30B9;_14329" data-name="&#x30D1;&#x30B9; 14329" d="M63.268,114.947l-2.393,8.015L57.12,119.74l1.839-10.471Z" transform="translate(144.474 276.376)" fill="#d49464" fill-rule="evenodd"></path><path id="&#x30D1;&#x30B9;_14330" data-name="&#x30D1;&#x30B9; 14330" d="M63.029,91.462Q74.2,113.527,74.9,149.77l-6.649-5.848q-2.742-26.406-11.873-40.231Z" transform="translate(142.611 231.337)" fill="#930f0f" fill-rule="evenodd"></path><path id="&#x30D1;&#x30B9;_14331" data-name="&#x30D1;&#x30B9; 14331" d="M70.142,153.9Q69.433,117.65,58.266,95.59q8.952-2.928,17.9-5.76,11.08,25.427,3.727,59.282Z" transform="translate(147.374 227.209)" fill="#730d0d" fill-rule="evenodd"></path></g></g><g id="&#x30B0;&#x30EB;&#x30FC;&#x30D7;_9790" data-name="&#x30B0;&#x30EB;&#x30FC;&#x30D7; 9790" transform="translate(31.506 17.364)"><g id="&#x30B0;&#x30EB;&#x30FC;&#x30D7;_9789" data-name="&#x30B0;&#x30EB;&#x30FC;&#x30D7; 9789" clip-path="url(#clip-path-6)"><rect id="&#x9577;&#x65B9;&#x5F62;_3541" data-name="&#x9577;&#x65B9;&#x5F62; 3541" width="258.414" height="290.28" transform="translate(0 0)" fill="url(#linear-gradient-3)"></rect></g></g><g id="&#x30B0;&#x30EB;&#x30FC;&#x30D7;_9792" data-name="&#x30B0;&#x30EB;&#x30FC;&#x30D7; 9792" transform="translate(32.66 106.656)"><g id="&#x30B0;&#x30EB;&#x30FC;&#x30D7;_9791" data-name="&#x30B0;&#x30EB;&#x30FC;&#x30D7; 9791" clip-path="url(#clip-path-7)"><rect id="&#x9577;&#x65B9;&#x5F62;_3542" data-name="&#x9577;&#x65B9;&#x5F62; 3542" width="154.461" height="207.012" transform="translate(0 0)" fill="url(#linear-gradient-4)"></rect></g></g><g id="&#x30B0;&#x30EB;&#x30FC;&#x30D7;_9794" data-name="&#x30B0;&#x30EB;&#x30FC;&#x30D7; 9794"><g id="&#x30B0;&#x30EB;&#x30FC;&#x30D7;_9793" data-name="&#x30B0;&#x30EB;&#x30FC;&#x30D7; 9793" clip-path="url(#clip-path-5)"><path id="&#x30D1;&#x30B9;_14334" data-name="&#x30D1;&#x30B9; 14334" d="M132.069,86.867l-60.08-2.742L72.431,73.4l65.314-1.415ZM15.361,47.169,61.087,70.83l-1.239,10.9-45.2-16.305Z" transform="translate(37.06 119.306)" fill="#551f09" fill-rule="evenodd"></path><path id="&#x30D1;&#x30B9;_14335" data-name="&#x30D1;&#x30B9; 14335" d="M177.905,139.712Q153,79.1,11.212,49.407q32.7-37.127,75.948-46.7,43.151-9.662,140.456,15.155,86.943,22.155,64.34,267.187-70.627-27.74-95.44,50.865l-18.97,3.187,9.575-73.639L172.234,333.7l-27.384-10.81q28.355-73.2,35.978-120.435,8.158-47.5-2.922-62.741" transform="translate(28.359 0)" fill="#551f09" fill-rule="evenodd"></path></g></g><g id="&#x30B0;&#x30EB;&#x30FC;&#x30D7;_9796" data-name="&#x30B0;&#x30EB;&#x30FC;&#x30D7; 9796" transform="translate(0.001 49.382)"><g id="&#x30B0;&#x30EB;&#x30FC;&#x30D7;_9795" data-name="&#x30B0;&#x30EB;&#x30FC;&#x30D7; 9795" clip-path="url(#clip-path-9)"><rect id="&#x9577;&#x65B9;&#x5F62;_3544" data-name="&#x9577;&#x65B9;&#x5F62; 3544" width="176.201" height="236.835" transform="matrix(0.259, -0.966, 0.966, 0.259, -36.688, 117.245)" fill="url(#linear-gradient-5)"></rect></g></g><g id="&#x30B0;&#x30EB;&#x30FC;&#x30D7;_9798" data-name="&#x30B0;&#x30EB;&#x30FC;&#x30D7; 9798"><g id="&#x30B0;&#x30EB;&#x30FC;&#x30D7;_9797" data-name="&#x30B0;&#x30EB;&#x30FC;&#x30D7; 9797" clip-path="url(#clip-path-5)"><path id="&#x30D1;&#x30B9;_14337" data-name="&#x30D1;&#x30B9; 14337" d="M49.709,79.877v3.5L26.578,79.033l1.331-3.014Z" transform="translate(67.225 192.277)" fill="#a56434" fill-rule="evenodd"></path><path id="&#x30D1;&#x30B9;_14338" data-name="&#x30D1;&#x30B9; 14338" d="M70.77,86.818a15.919,15.919,0,0,1-7.179,7.8q-8.772,5.5-22.065,3.635a45.286,45.286,0,0,1-22.866-10.1Q8.828,80.176,8.2,70.693t8.244-14.978q8.862-5.405,22.065-3.455A45.064,45.064,0,0,1,61.378,62.1q9.836,8.153,10.546,17.636a14.769,14.769,0,0,1-1.154,7.087m14.093,4.168A16.434,16.434,0,0,1,92.214,82.3q8.952-5.315,22.065-3.367a44.031,44.031,0,0,1,22.866,9.84q8.724,7.163,10.281,15.374a21.572,21.572,0,0,1,.265,2.259q.619,9.481-8.333,14.89-8.772,5.4-21.974,3.628a45.318,45.318,0,0,1-22.955-10.1q-9.746-8.063-10.457-17.544a15.524,15.524,0,0,1,.889-6.293" transform="translate(20.643 130.874)" fill="#fff" fill-rule="evenodd"></path><path id="&#x30D1;&#x30B9;_14339" data-name="&#x30D1;&#x30B9; 14339" d="M125.66,130.3a49.04,49.04,0,0,1-6.6-.462A48.439,48.439,0,0,1,94.645,119.1c-7.083-5.862-10.952-12.441-11.481-19.542a19.244,19.244,0,0,1,.653-6.268c-1.246-2.125-3.469-3.685-8.88-2.061a19.326,19.326,0,0,1-7.832,7.945c-6.335,3.97-14.407,5.326-23.918,4A48.341,48.341,0,0,1,18.874,92.418C11.734,86.63,7.859,80.065,7.393,72.94c-.484-7.436,2.742-13.362,9.6-17.611C23.476,51.372,31.548,50.077,41,51.471A48.062,48.062,0,0,1,65.274,61.935c7.157,5.933,11.054,12.54,11.58,19.641a18.846,18.846,0,0,1-.049,3.378c4.56-.572,7.645.78,9.709,2.647a21.471,21.471,0,0,1,6.247-5.689c6.565-3.9,14.626-5.16,24.01-3.766A47.094,47.094,0,0,1,141.055,88.62c4.835,3.974,8.2,8.276,10.02,12.829L190.487,72.3a2.882,2.882,0,1,1,3.427,4.634l-41.35,30.582c.028.254.046.512.06.766.491,7.45-2.778,13.351-9.713,17.541A32.338,32.338,0,0,1,125.66,130.3M89.612,94.07a12.847,12.847,0,0,0-.7,5.121c.406,5.414,3.579,10.644,9.416,15.476a42.768,42.768,0,0,0,21.543,9.473c8.047,1.08,14.8-.007,20.043-3.236,5.036-3.042,7.309-7.045,6.97-12.247a19.377,19.377,0,0,0-.233-1.938c-.907-4.758-4.027-9.356-9.268-13.662a41.415,41.415,0,0,0-21.423-9.208c-8.072-1.2-14.855-.187-20.209,2.989a13.506,13.506,0,0,0-6.1,7.133l-.007.007v.011l-.032.081M33.933,56.691a26.252,26.252,0,0,0-13.927,3.547c-4.959,3.07-7.207,7.108-6.868,12.324.367,5.538,3.438,10.577,9.4,15.413a42.74,42.74,0,0,0,21.476,9.49c8.1,1.133,14.883.049,20.117-3.226a13.114,13.114,0,0,0,6.021-6.406l.032-.074L70.2,87.7a11.965,11.965,0,0,0,.911-5.718C70.7,76.525,67.5,71.267,61.6,66.375a42.321,42.321,0,0,0-21.427-9.2,42.316,42.316,0,0,0-6.24-.484" transform="translate(18.579 128.814)" fill="#333"></path><path id="&#x30D1;&#x30B9;_14340" data-name="&#x30D1;&#x30B9; 14340" d="M20.861,62.534a5.93,5.93,0,0,1,2.3-5,6.266,6.266,0,0,1,5.467-1.055,9.737,9.737,0,0,1,5.467,3.473,9.379,9.379,0,0,1,2.276,5.82v.208a5.877,5.877,0,0,1-2.276,4.93,6.143,6.143,0,0,1-5.467,1.076,9.514,9.514,0,0,1-5.467-3.5,9.2,9.2,0,0,1-2.3-5.958" transform="translate(52.764 142.35)" fill="#1c1c1c" fill-rule="evenodd"></path><path id="&#x30D1;&#x30B9;_14341" data-name="&#x30D1;&#x30B9; 14341" d="M41.853,68.309a5.932,5.932,0,0,1,2.294-5,6.271,6.271,0,0,1,5.467-1.055,9.713,9.713,0,0,1,5.467,3.473,9.349,9.349,0,0,1,2.276,5.816v.212a5.868,5.868,0,0,1-2.276,4.93,6.139,6.139,0,0,1-5.467,1.076,9.536,9.536,0,0,1-5.467-3.5,9.233,9.233,0,0,1-2.294-5.957" transform="translate(105.86 156.957)" fill="#1c1c1c" fill-rule="evenodd"></path></g></g></g></g></svg>