<?xml version="1.0" encoding="UTF-8"?>
<svg id="_レイヤー_2" data-name="レイヤー 2" xmlns="http://www.w3.org/2000/svg" viewBox="0 0 463.85 321.47">
  <g id="_レイヤー_2-2" data-name="レイヤー 2">
    <g>
      <path d="M178.34,236.2h-20.57c-8.84,0-16.23-8.44-18.84-21.51-.2-1.02-.41-2.07-.62-3.13-2.95-15.05-6.61-33.78-17.18-33.78-11.35,0-22.65,19.64-26.61,37.84-2.72,12.5-10.05,20.57-18.67,20.57h-6.01c-2.49,0-4.5-2.01-4.5-4.5s2.01-4.5,4.5-4.5h6.01c4.02,0,8.18-5.67,9.88-13.49,3.93-18.06,16.6-44.93,35.41-44.93s22.43,22.76,26.01,41.05c.21,1.05.41,2.09.61,3.1,1.87,9.37,6.45,14.27,10.01,14.27h20.57c2.49,0,4.5,2.01,4.5,4.5s-2.01,4.5-4.5,4.5Z"/>
      <g>
        <path d="M434.46,321.47H29.39c-16.21,0-29.39-13.19-29.39-29.39V29.39C0,13.19,13.19,0,29.39,0h332.41c2.49,0,4.5,2.01,4.5,4.5s-2.01,4.5-4.5,4.5H29.39c-11.24,0-20.39,9.15-20.39,20.39v262.69c0,11.24,9.15,20.39,20.39,20.39h405.07c11.24,0,20.39-9.15,20.39-20.39V29.39c0-11.24-9.15-20.39-20.39-20.39h-6.66c-2.49,0-4.5-2.01-4.5-4.5s2.01-4.5,4.5-4.5h6.66c16.21,0,29.39,13.19,29.39,29.39v262.69c0,16.21-13.19,29.39-29.39,29.39Z"/>
        <path d="M456.22,63.15h-39.42c-2.49,0-4.5-2.01-4.5-4.5s2.01-4.5,4.5-4.5h39.42c2.49,0,4.5,2.01,4.5,4.5s-2.01,4.5-4.5,4.5Z"/>
        <path d="M322.8,63.15H7.63c-2.49,0-4.5-2.01-4.5-4.5s2.01-4.5,4.5-4.5h315.17c2.49,0,4.5,2.01,4.5,4.5s-2.01,4.5-4.5,4.5Z"/>
        <path d="M39.77,40.34c-4.88,0-8.85-3.97-8.85-8.85s3.97-8.85,8.85-8.85,8.85,3.97,8.85,8.85-3.97,8.85-8.85,8.85ZM39.77,31.34c-.08,0-.15.07-.15.15,0,.16.3.16.3,0,0-.08-.07-.15-.15-.15Z"/>
        <path d="M71.32,40.34c-4.88,0-8.85-3.97-8.85-8.85s3.97-8.85,8.85-8.85,8.85,3.97,8.85,8.85-3.97,8.85-8.85,8.85ZM71.32,31.34c-.08,0-.15.07-.15.15,0,.16.3.16.3,0,0-.08-.07-.15-.15-.15Z"/>
        <path d="M102.86,40.34c-4.88,0-8.85-3.97-8.85-8.85s3.97-8.85,8.85-8.85,8.85,3.97,8.85,8.85-3.97,8.85-8.85,8.85ZM102.86,31.34c-.08,0-.15.07-.15.15,0,.16.3.16.3,0,0-.08-.07-.15-.15-.15Z"/>
      </g>
      <g>
        <path d="M241.5,245.25c-8.93,0-17.3-1.38-23.07-2.95-14.75-4.01-15.46-8.9-15.69-10.51-.37-2.54.88-4.98,3.35-6.51,5.5-3.41,10.64-4.59,15.18-5.64,7.55-1.74,11.71-2.69,14.7-12.63,3.35-11.14,9.87-18.42,18.35-20.5,2.41-.59,4.85.89,5.44,3.3.59,2.41-.89,4.85-3.3,5.44-5.26,1.29-9.47,6.38-11.87,14.35-4.49,14.94-13.04,16.9-21.3,18.8-3.02.7-6.12,1.41-9.26,2.82,4.88,2.25,15.43,5.13,27.98,5.04,8.12-.06,22.87-1.59,30.48-11.09,4.41-5.51,6.48-10.24,6.12-14.05-.23-2.47,1.59-4.67,4.07-4.89,2.48-.23,4.67,1.59,4.89,4.07.58,6.3-2.06,13.01-8.07,20.5-8.9,11.1-24.12,14.42-38,14.42Z"/>
        <path d="M290.35,207.02c-.93,0-1.85-.29-2.62-.84l-28.61-20.47c-2.02-1.45-2.49-4.26-1.04-6.28l8.79-12.29c.7-.97,1.75-1.63,2.92-1.82,1.18-.2,2.38.09,3.35.78l28.61,20.47c2.02,1.45,2.49,4.26,1.04,6.28l-8.79,12.29c-.7.97-1.75,1.63-2.92,1.82-.25.04-.49.06-.74.06ZM268.02,181.01l21.29,15.23,3.55-4.97-21.29-15.23-3.55,4.97Z"/>
        <path d="M303.72,184.62c-.91,0-1.82-.27-2.61-.84-2.02-1.45-2.49-4.26-1.04-6.28L407.54,27.31c3.51-4.91,2.37-11.75-2.53-15.26-4.9-3.51-11.75-2.37-15.26,2.53l-107.47,150.19c-1.44,2.02-4.26,2.49-6.28,1.04-2.02-1.45-2.49-4.26-1.04-6.28L382.42,9.34c6.4-8.94,18.88-11.01,27.82-4.61,8.94,6.4,11.01,18.88,4.61,27.82l-107.47,150.19c-.88,1.23-2.26,1.88-3.66,1.88Z"/>
      </g>
    </g>
  </g>
</svg>