<?xml version="1.0" encoding="UTF-8"?>
<svg id="_レイヤー_2" data-name="レイヤー 2" xmlns="http://www.w3.org/2000/svg" viewBox="0 0 336.78 404.09">
  <g id="_レイヤー_2-2" data-name="レイヤー 2">
    <g>
      <g>
        <path d="M200.23,404.09H37c-20.4,0-37-16.6-37-37V37C0,16.6,16.6,0,37,0h163.23c5.97,0,11.9,1.46,17.16,4.21,2.2,1.15,3.05,3.87,1.9,6.07-1.15,2.2-3.88,3.05-6.08,1.9-4.03-2.11-8.39-3.18-12.98-3.18H37c-15.44,0-28,12.56-28,28v330.09c0,15.44,12.56,28,28,28h163.23c15.44,0,28-12.56,28-28v-206.15c0-2.49,2.01-4.5,4.5-4.5s4.5,2.01,4.5,4.5v206.15c0,20.4-16.6,37-37,37Z"/>
        <g>
          <path d="M158.27,60.27H4.5c-2.49,0-4.5-2.01-4.5-4.5s2.01-4.5,4.5-4.5h153.77c2.49,0,4.5,2.01,4.5,4.5s-2.01,4.5-4.5,4.5Z"/>
          <path d="M232.73,352.83H4.5c-2.49,0-4.5-2.01-4.5-4.5s2.01-4.5,4.5-4.5h228.23c2.49,0,4.5,2.01,4.5,4.5s-2.01,4.5-4.5,4.5Z"/>
        </g>
        <path d="M143.68,34.97h-50.13c-2.49,0-4.5-2.01-4.5-4.5s2.01-4.5,4.5-4.5h50.13c2.49,0,4.5,2.01,4.5,4.5s-2.01,4.5-4.5,4.5Z"/>
      </g>
      <g>
        <path d="M207.49,151.36c-2.03,0-3.96-.78-5.43-2.19-2.48-2.35-3.14-6.02-1.62-9.12l4.96-10.18c-19.45-9.53-31.76-29.13-31.76-51.18,0-31.47,25.6-57.07,57.07-57.07h49.02c31.47,0,57.07,25.6,57.07,57.07s-25.6,57.07-57.07,57.07h-41.47l-27.02,14.64c-1.08.61-2.4.96-3.74.96ZM206.91,142.51s-.03.02-.04.02l.04-.02ZM230.69,30.63c-26.5,0-48.07,21.56-48.07,48.07,0,19.96,11.97,37.52,30.49,44.75,1.17.46,2.1,1.38,2.56,2.55.46,1.17.4,2.48-.15,3.61l-5.45,11.17,24.88-13.48c.66-.36,1.4-.54,2.14-.54h42.61c26.5,0,48.07-21.56,48.07-48.07s-21.56-48.07-48.07-48.07h-49.02Z"/>
        <g>
          <path d="M286.29,71.07h-62.17c-2.49,0-4.5-2.01-4.5-4.5s2.01-4.5,4.5-4.5h62.17c2.49,0,4.5,2.01,4.5,4.5s-2.01,4.5-4.5,4.5Z"/>
          <path d="M266.52,95.33h-42.4c-2.49,0-4.5-2.01-4.5-4.5s2.01-4.5,4.5-4.5h42.4c2.49,0,4.5,2.01,4.5,4.5s-2.01,4.5-4.5,4.5Z"/>
        </g>
      </g>
      <g>
        <path d="M161.87,276.74h-86.5c-11.83,0-21.46-9.63-21.46-21.46v-86.5c0-11.84,9.63-21.46,21.46-21.46h86.5c11.84,0,21.46,9.63,21.46,21.46v86.5c0,11.84-9.63,21.46-21.46,21.46ZM75.36,156.31c-6.87,0-12.46,5.59-12.46,12.46v86.5c0,6.87,5.59,12.46,12.46,12.46h86.5c6.87,0,12.46-5.59,12.46-12.46v-86.5c0-6.87-5.59-12.46-12.46-12.46h-86.5Z"/>
        <path d="M118.62,156.31c-2.49,0-4.5-2.01-4.5-4.5v-10.57c0-2.49,2.01-4.5,4.5-4.5s4.5,2.01,4.5,4.5v10.57c0,2.49-2.01,4.5-4.5,4.5Z"/>
        <path d="M118.62,144.22c-11.73,0-21.27-9.54-21.27-21.27s9.54-21.27,21.27-21.27,21.27,9.54,21.27,21.27-9.54,21.27-21.27,21.27ZM118.62,110.67c-6.77,0-12.27,5.51-12.27,12.27s5.51,12.27,12.27,12.27,12.27-5.51,12.27-12.27-5.51-12.27-12.27-12.27Z"/>
        <g>
          <path d="M91.94,209.66c-8.36,0-15.17-6.8-15.17-15.17s6.8-15.17,15.17-15.17,15.17,6.8,15.17,15.17-6.8,15.17-15.17,15.17ZM91.94,188.32c-3.4,0-6.17,2.77-6.17,6.17s2.77,6.17,6.17,6.17,6.17-2.77,6.17-6.17-2.77-6.17-6.17-6.17Z"/>
          <path d="M145.29,209.66c-8.36,0-15.17-6.8-15.17-15.17s6.8-15.17,15.17-15.17,15.17,6.8,15.17,15.17-6.8,15.17-15.17,15.17ZM145.29,188.32c-3.4,0-6.17,2.77-6.17,6.17s2.77,6.17,6.17,6.17,6.17-2.77,6.17-6.17-2.77-6.17-6.17-6.17Z"/>
        </g>
        <path d="M180.16,234.05c-2.49,0-4.5-2.01-4.5-4.5s2.01-4.5,4.5-4.5c7.19,0,13.03-5.85,13.03-13.03s-5.85-13.03-13.03-13.03c-2.49,0-4.5-2.01-4.5-4.5s2.01-4.5,4.5-4.5c12.15,0,22.03,9.88,22.03,22.03s-9.88,22.03-22.03,22.03Z"/>
        <path d="M57.07,234.05c-12.15,0-22.03-9.88-22.03-22.03s9.88-22.03,22.03-22.03c2.49,0,4.5,2.01,4.5,4.5s-2.01,4.5-4.5,4.5c-7.19,0-13.03,5.85-13.03,13.03s5.85,13.03,13.03,13.03c2.49,0,4.5,2.01,4.5,4.5s-2.01,4.5-4.5,4.5Z"/>
        <path d="M118.62,247.93c-11.24,0-21.31-5.81-26.94-15.55-1.24-2.15-.51-4.9,1.65-6.15,2.15-1.24,4.91-.51,6.15,1.65,4,6.92,11.15,11.05,19.14,11.05,7.99,0,15.15-4.13,19.14-11.05,1.24-2.15,3.99-2.89,6.15-1.65,2.15,1.24,2.89,3.99,1.65,6.15-5.62,9.74-15.69,15.55-26.93,15.55Z"/>
      </g>
    </g>
  </g>
</svg>