<?xml version="1.0" encoding="UTF-8"?>
<svg id="_レイヤー_2" data-name="レイヤー 2" xmlns="http://www.w3.org/2000/svg" viewBox="0 0 439.81 435.28">
  <g id="_レイヤー_2-2" data-name="レイヤー 2">
    <g>
      <g>
        <g>
          <path d="M220.15,259.82c-21.68,0-42.06-8.44-57.39-23.78-1.76-1.76-1.76-4.61,0-6.36,1.76-1.76,4.61-1.76,6.36,0,13.63,13.63,31.75,21.14,51.03,21.14s37.4-7.51,51.03-21.14c1.76-1.76,4.61-1.76,6.36,0,1.76,1.76,1.76,4.61,0,6.36-15.33,15.33-35.71,23.78-57.39,23.78Z"/>
          <path d="M220.15,213.94c-14.09,0-27.85-4.98-39.79-14.4-13.67-10.78-24.52-27.05-30.8-46.1-2.62-.27-5.21-1.28-7.64-2.99-5.85-4.11-10.19-11.99-11.61-21.07-2.42-15.33,3.95-29,14.49-31.12,1.29-.27,2.64-.34,4.01-.22,2.47.22,4.3,2.41,4.07,4.89-.22,2.47-2.39,4.3-4.89,4.07-.48-.04-.95-.02-1.39.07-4.91.99-9.14,9.82-7.39,20.91,1.04,6.62,4.06,12.41,7.9,15.11,1.68,1.19,3.33,1.63,4.89,1.33,2.27-.44,4.5.92,5.16,3.14,5.55,18.7,15.77,34.65,28.78,44.91,10.34,8.16,22.17,12.47,34.22,12.47s23.88-4.31,34.23-12.47c13.01-10.26,23.23-26.21,28.78-44.91.66-2.22,2.89-3.58,5.16-3.14,1.56.3,3.21-.15,4.89-1.33,3.84-2.7,6.86-8.48,7.9-15.1,1.75-11.09-2.48-19.92-7.37-20.91-.47-.1-.94-.12-1.41-.08-2.5.22-4.66-1.6-4.89-4.07-.22-2.48,1.6-4.66,4.07-4.89,1.36-.12,2.71-.05,4.03.22,10.52,2.12,16.88,15.79,14.47,31.12-1.42,9.08-5.76,16.95-11.61,21.07-2.43,1.71-5.02,2.72-7.65,2.99-6.28,19.05-17.13,35.32-30.8,46.1-11.95,9.42-25.72,14.4-39.8,14.4Z"/>
          <path d="M302.23,95.73c-2.29,0-4.24-1.73-4.47-4.06-3.73-37.72-20.01-82.68-76.34-82.68s-72.6,44.96-76.33,82.68c-.25,2.47-2.44,4.28-4.92,4.03-2.47-.24-4.28-2.45-4.04-4.92,2.7-27.23,10.5-48.81,23.21-64.12C174.02,8.97,194.9,0,221.41,0s47.4,8.97,62.08,26.67c12.71,15.32,20.52,36.89,23.22,64.12.24,2.47-1.56,4.68-4.04,4.92-.15.01-.3.02-.45.02Z"/>
          <path d="M183.56,75.16c-3.64,0-7.04-.1-10.13-.25-2.48-.12-4.4-2.23-4.28-4.71.12-2.48,2.25-4.4,4.71-4.28,15.12.74,37.9.1,60.52-7.09,8.06-2.56,15.51-5.78,22.13-9.57,2.16-1.23,4.91-.48,6.14,1.67,1.23,2.16.48,4.91-1.67,6.14-7.17,4.1-15.2,7.57-23.87,10.33-19.24,6.12-38.49,7.75-53.55,7.75Z"/>
          <path d="M292.14,106.86c-.9,0-1.8-.27-2.59-.83-10.26-7.25-19.08-17.93-26.21-31.75-3.1-6.01-5.87-12.62-8.24-19.66-.79-2.36.48-4.91,2.83-5.7,2.36-.79,4.91.48,5.7,2.83,2.22,6.61,4.82,12.8,7.71,18.41,6.46,12.52,14.34,22.12,23.4,28.53,2.03,1.43,2.51,4.24,1.08,6.27-.88,1.24-2.27,1.9-3.68,1.9Z"/>
          <path d="M147.8,106.86c-1.71,0-3.34-.98-4.1-2.63-1.03-2.26-.04-4.93,2.23-5.96,6.06-2.77,14.33-8.09,19.3-17.74,1.59-3.08,2.72-6.41,3.36-9.88.45-2.44,2.8-4.06,5.24-3.61,2.44.45,4.06,2.8,3.61,5.24-.8,4.34-2.22,8.5-4.21,12.36-6.14,11.94-16.2,18.45-23.56,21.81-.61.28-1.24.41-1.87.41Z"/>
        </g>
        <path d="M381.6,420.95c-1.25,0-2.5-.52-3.39-1.54-1.64-1.87-1.45-4.71.42-6.35l25.21-22.07c4.16-3.64,6.54-8.9,6.54-14.43v-40.37c0-23.59-12.11-46.51-34.11-64.54-22.19-18.19-53.05-30.39-86.9-34.35-17.01-1.99-30.53-14.18-32.87-29.65l-1.7-11.23c-.37-2.46,1.32-4.75,3.77-5.12,2.45-.37,4.75,1.32,5.12,3.77l1.7,11.23c1.74,11.47,12.03,20.54,25.02,22.06,74.65,8.74,128.86,54,128.96,107.67v40.52c0,8.12-3.5,15.85-9.62,21.2l-25.21,22.07c-.85.75-1.91,1.11-2.96,1.11Z"/>
        <path d="M58.7,420.95c-1.05,0-2.11-.37-2.96-1.11l-25.21-22.07c-6.11-5.35-9.62-13.08-9.62-21.2v-40.52c.11-53.67,54.31-98.93,128.96-107.67,12.99-1.52,23.28-10.59,25.02-22.06l1.7-11.23c.37-2.46,2.67-4.15,5.12-3.78,2.46.37,4.15,2.67,3.78,5.12l-1.7,11.23c-2.34,15.47-15.86,27.66-32.87,29.65-33.84,3.96-64.71,16.16-86.9,34.35-22,18.03-34.11,40.95-34.11,64.54v40.37c0,5.53,2.38,10.79,6.54,14.43l25.21,22.07c1.87,1.64,2.06,4.48.42,6.35-.89,1.02-2.14,1.54-3.39,1.54Z"/>
        <path d="M346.19,421.66c-.1,0-.21,0-.31-.01-2.48-.17-4.35-2.32-4.18-4.8l9.21-134.22H89.4l9.21,134.22c.17,2.48-1.7,4.63-4.18,4.8-2.47.18-4.63-1.7-4.8-4.18l-9.54-139.03c-.09-1.24.35-2.47,1.2-3.38.85-.91,2.04-1.43,3.29-1.43h271.14c1.25,0,2.44.52,3.29,1.43.85.91,1.29,2.14,1.2,3.38l-9.54,139.03c-.16,2.37-2.14,4.19-4.48,4.19Z"/>
        <path d="M435.31,435.28H4.5c-2.49,0-4.5-2.01-4.5-4.5s2.01-4.5,4.5-4.5h430.81c2.49,0,4.5,2.01,4.5,4.5s-2.01,4.5-4.5,4.5Z"/>
      </g>
      <g>
        <g>
          <path d="M192.44,385.24c-1.06,0-2.13-.38-2.99-1.14l-28.1-25.01c-.96-.85-1.51-2.08-1.51-3.36s.55-2.51,1.51-3.36l28.1-25.01c1.86-1.65,4.7-1.49,6.35.37,1.65,1.86,1.49,4.7-.37,6.35l-24.32,21.65,24.32,21.65c1.86,1.65,2.02,4.5.37,6.35-.89,1-2.12,1.51-3.36,1.51Z"/>
          <path d="M249.38,385.24c-1.24,0-2.47-.51-3.36-1.51-1.65-1.86-1.49-4.7.37-6.35l24.32-21.65-24.32-21.65c-1.86-1.65-2.02-4.5-.37-6.35,1.65-1.86,4.5-2.02,6.35-.37l28.1,25.01c.96.85,1.51,2.08,1.51,3.36s-.55,2.51-1.51,3.36l-28.1,25.01c-.86.76-1.93,1.14-2.99,1.14Z"/>
        </g>
        <path d="M208.64,391.47c-.55,0-1.1-.1-1.64-.31-2.31-.91-3.45-3.52-2.54-5.83l24.54-62.47c.91-2.31,3.52-3.45,5.83-2.54,2.31.91,3.45,3.52,2.54,5.83l-24.54,62.47c-.7,1.77-2.39,2.86-4.19,2.86Z"/>
      </g>
    </g>
  </g>
</svg>