<?xml version="1.0" encoding="UTF-8"?>
<svg id="_レイヤー_2" data-name="レイヤー 2" xmlns="http://www.w3.org/2000/svg" viewBox="0 0 496.8 296.51">
  <g id="_レイヤー_2-2" data-name="レイヤー 2">
    <g>
      <g>
        <g>
          <path d="M424.53,241.34c-2.49,0-4.5-2.01-4.5-4.5V21.02c0-6.63-5.39-12.02-12.02-12.02H88.79c-6.63,0-12.02,5.39-12.02,12.02v215.82c0,2.49-2.01,4.5-4.5,4.5s-4.5-2.01-4.5-4.5V21.02c0-11.59,9.43-21.02,21.02-21.02h319.22c11.59,0,21.02,9.43,21.02,21.02v215.82c0,2.49-2.01,4.5-4.5,4.5Z"/>
          <path d="M424.53,43.73H72.27c-2.49,0-4.5-2.01-4.5-4.5s2.01-4.5,4.5-4.5h352.26c2.49,0,4.5,2.01,4.5,4.5s-2.01,4.5-4.5,4.5Z"/>
        </g>
        <g>
          <path d="M475.27,296.51H21.53c-1.74,0-3.32-1-4.06-2.57L.44,258.13c-.66-1.39-.57-3.03.26-4.34.83-1.31,2.26-2.1,3.8-2.1h487.8c1.54,0,2.98.79,3.8,2.1.82,1.31.92,2.94.26,4.34l-17.03,35.82c-.75,1.57-2.33,2.57-4.06,2.57ZM24.38,287.51h448.05l12.75-26.82H11.62l12.75,26.82Z"/>
          <path d="M271.26,278.6h-45.71c-2.49,0-4.5-2.01-4.5-4.5s2.01-4.5,4.5-4.5h45.71c2.49,0,4.5,2.01,4.5,4.5s-2.01,4.5-4.5,4.5Z"/>
        </g>
      </g>
      <g>
        <path d="M217.84,204.05c-20.84,0-37.8-16.96-37.8-37.8v-59.46c0-2.49,2.01-4.5,4.5-4.5s4.5,2.01,4.5,4.5v59.46c0,15.88,12.92,28.8,28.8,28.8s28.8-12.92,28.8-28.8v-59.46c0-2.49,2.01-4.5,4.5-4.5s4.5,2.01,4.5,4.5v59.46c0,20.84-16.96,37.8-37.8,37.8Z"/>
        <path d="M312.27,111.28h-33.3c-2.49,0-4.5-2.01-4.5-4.5s2.01-4.5,4.5-4.5h33.3c2.49,0,4.5,2.01,4.5,4.5s-2.01,4.5-4.5,4.5Z"/>
        <path d="M312.27,204.28h-33.3c-2.49,0-4.5-2.01-4.5-4.5s2.01-4.5,4.5-4.5h33.3c2.49,0,4.5,2.01,4.5,4.5s-2.01,4.5-4.5,4.5Z"/>
        <path d="M295.34,204.28c-2.49,0-4.5-2.01-4.5-4.5v-93c0-2.49,2.01-4.5,4.5-4.5s4.5,2.01,4.5,4.5v93c0,2.49-2.01,4.5-4.5,4.5Z"/>
      </g>
    </g>
  </g>
</svg>