<?xml version="1.0" encoding="UTF-8"?><svg id="_レイヤー_2" xmlns="http://www.w3.org/2000/svg" xmlns:xlink="http://www.w3.org/1999/xlink" viewBox="0 0 294.63 469.86"><defs><style>.cls-1{fill:none;}.cls-2{fill:#c98959;}.cls-2,.cls-3,.cls-4,.cls-5,.cls-6,.cls-7,.cls-8,.cls-9,.cls-10,.cls-11,.cls-12,.cls-13,.cls-14,.cls-15,.cls-16,.cls-17,.cls-18{fill-rule:evenodd;}.cls-3{fill:#fff;}.cls-4{fill:#a9561a;}.cls-5{fill:#432a12;}.cls-6{fill:#d49464;}.cls-7{fill:#284879;}.cls-19{fill:url(#_名称未設定グラデーション_5);}.cls-20{fill:url(#_名称未設定グラデーション_4);}.cls-21{fill:url(#_名称未設定グラデーション_3);}.cls-8{fill:#e2a06f;}.cls-9{fill:#d1bda9;}.cls-10{fill:#070707;}.cls-22{clip-path:url(#clippath-1);}.cls-23{clip-path:url(#clippath-3);}.cls-24{clip-path:url(#clippath-4);}.cls-25{clip-path:url(#clippath-2);}.cls-26{clip-path:url(#clippath-5);}.cls-11{fill:#163059;}.cls-13{fill:#102341;}.cls-14{fill:#181818;}.cls-15{fill:#92501f;}.cls-16{fill:#e5e5e5;}.cls-17{fill:#e7b895;}.cls-18{fill:#e1a170;}.cls-27{clip-path:url(#clippath);}</style><clipPath id="clippath"><rect class="cls-1" width="294.63" height="469.86"/></clipPath><clipPath id="clippath-1"><path class="cls-1" d="M18.45,81.9l161.25,60.31-4.98,173.33,91.56-70.43,20.81-186.13L127.39,19.23c-1.03-.04-2.06-.06-3.09-.06-35.26,0-70.54,20.91-105.85,62.72Z"/></clipPath><linearGradient id="_名称未設定グラデーション_3" x1="-652.63" y1="817.62" x2="-652.62" y2="817.62" gradientTransform="translate(175326.57 242480.3) scale(268.65 -296.36)" gradientUnits="userSpaceOnUse"><stop offset="0" stop-color="#cd824b"/><stop offset="1" stop-color="#b0652e"/></linearGradient><clipPath id="clippath-2"><polygon class="cls-1" points="45.29 257.52 91.72 293.17 174.72 315.54 179.7 142.21 18.45 81.9 45.29 257.52"/></clipPath><linearGradient id="_名称未設定グラデーション_4" x1="-651.05" y1="817.38" x2="-651.03" y2="817.38" gradientTransform="translate(104984.16 191172.88) scale(161.25 -233.64)" gradientUnits="userSpaceOnUse"><stop offset="0" stop-color="#f3c89f"/><stop offset=".01" stop-color="#f3c89f"/><stop offset="1" stop-color="#dd9866"/></linearGradient><clipPath id="clippath-3"><rect class="cls-1" width="294.63" height="469.86"/></clipPath><clipPath id="clippath-4"><path class="cls-1" d="M146.6,0c-11.54-.04-23.03,1.43-34.19,4.37-27.61,7.51-50.06,18.99-67.36,34.44C27.75,54.27,12.73,74.1,0,98.3c31.37,4.09,63.12,4.34,94.54.74l-12.12,8.24c-16.21,8.88-37.04,13.12-62.51,12.73,54.63,14.02,110.98,20.15,167.34,18.2l45.45,54.71,4.53-14.4,4.49-4.57h9.06l16.2,59.93c18.31-70.28,27.53-120.4,27.65-150.36v-1.2c-.05-12.51-1.75-21.37-5.09-26.59-11.63-18.16-37.16-33.13-76.59-44.93C189.12,3.69,167.44.08,147.93,0h-1.33Z"/></clipPath><linearGradient id="_名称未設定グラデーション_5" x1="-652.78" y1="817.38" x2="-652.76" y2="817.38" gradientTransform="translate(192326.99 191290) scale(294.63 -233.88)" gradientUnits="userSpaceOnUse"><stop offset="0" stop-color="#cd824b"/><stop offset="1" stop-color="#854516"/></linearGradient><clipPath id="clippath-5"><rect class="cls-1" width="294.63" height="469.86"/></clipPath></defs><g id="_レイヤー_1-2"><g id="_グループ_9869"><path id="_パス_14285" d="M160.61,463.65l3.43,5.79,5.47.41,13.14-4,9.14-26.28-23.34-1.47-7.83,25.54ZM99.15,436.39l-9.22,6.12.16,4.24,11.27.98,21.3-6.69-2.12-13.79-13.96-.9-7.43,10.03Z"/><path id="_パス_14286" class="cls-14" d="M182.31,453.45l-18.77-9.3,2.82-6.4-4.78-14.73-6.93-27.18-28.48-11.5-17.3-7.43-.82-6.2,6.2,56.8-1.71,10.44-12.08-2.94,3.43-11.67-8.9-35.01-5.39-28.24,1.31-4.41,4.08-2.53,78.09,27.99,9.06,68.23.16,4.07Z"/><path id="_パス_14287" class="cls-10" d="M126.16,384.34l-.25,52.39-13.38,1.23,1.71-10.45-6.2-56.8.82,6.2,17.3,7.43ZM182.31,453.45l-.16-4.07-9.06-68.23,29.38-18.93-8.16,74.55-12,16.69Z"/><path id="_パス_14288" class="cls-13" d="M148.85,313.5l-22.2-3.35-5.87-.89-.08-.09-2.37-1.63-17.71-12.08-17.46-9.96,44.15-30.03,90.42,22.6-47.49,42.68-21.38-7.26Z"/><g id="_グループ_9775"><g class="cls-27"><g id="_グループ_9774"><path id="_パス_14289" class="cls-7" d="M148.85,382.13v-68.63l21.38,7.26-5.39,53.61c.87,8.27,1.96,18.8,3.27,31.58l-19.26-7.43v-16.4Z"/><path id="_パス_14290" class="cls-3" d="M100.7,300.77l-.08-5.3,17.71,12.08-4.65,5.3-1.47,1.64-9.22-10.93-2.29-2.78ZM130.49,320.2l-2.61.24-1.23-10.28,22.2,3.34v4.49l-18.36,2.2Z"/><path id="_パス_14291" class="cls-9" d="M113.68,312.84l4.65-5.3,2.37,1.63-4.57,7.84-2.45-4.17ZM148.85,319.46l-17.63,4.17-.74-3.43,18.36-2.2v1.46ZM104.78,359.04l-3.59-1.06-.49-57.21,2.28,2.78,1.8,55.49Z"/><path id="_パス_14292" class="cls-16" d="M126.65,310.15l1.23,10.29,2.61-.25.74,3.43,17.63-4.17v52.88l-44.07-13.3-1.8-55.49,9.23,10.93,1.47-1.63,2.45,4.17,4.57-7.84.08.08,5.88.9Z"/><path id="_パス_14293" class="cls-11" d="M217.72,278.08l-12.57,70.02,2.69,35.99-39.74,21.86c-1.3-12.79-2.39-23.31-3.26-31.58l5.39-53.61,47.49-42.68ZM100.62,295.47l.08,5.3.49,57.21.08,10.36.08,10.28-19.02-4.65,5.14-28.07-4.32-60.39,17.46,9.96Z"/><path id="_パス_14294" class="cls-10" d="M104.78,359.03l44.07,13.3v9.79l-47.57-13.79-.08-10.36,3.59,1.06Z"/></g></g></g><g id="_グループ_9777"><g class="cls-22"><g id="_グループ_9776"><rect id="_長方形_3535" class="cls-21" x="18.45" y="19.18" width="268.65" height="296.36"/></g></g></g><g id="_グループ_9779"><g class="cls-25"><g id="_グループ_9778"><rect id="_長方形_3536" class="cls-20" x="18.45" y="81.9" width="161.25" height="233.64"/></g></g></g><g id="_グループ_9781"><g class="cls-23"><g id="_グループ_9780"><path id="_パス_14297" class="cls-5" d="M79.81,160.4l-38.44,2.05-.58-14.2,37.67-5.38,1.35,17.54ZM173.09,167.18l-5.3,11.59-50.6-14.2,6.61-15.5,49.29,18.11Z"/><path id="_パス_14298" class="cls-3" d="M165.01,211.49l4.65,34.76-57.04-24.72,6.2-25.78,46.19,15.75ZM85.69,212.88l-40.15-13.63,7.18-26.03,34.44,11.75-1.47,27.91Z"/><path id="_パス_14299" class="cls-12" d="M62.51,197.29c1.54-1.89,4.33-2.18,6.22-.63.23.19.44.4.63.63.97,1.11,1.49,2.53,1.47,4,.04,1.47-.49,2.9-1.47,4-1.42,1.89-4.11,2.27-6,.85-.32-.24-.61-.53-.85-.85-.98-1.1-1.51-2.53-1.47-4-.02-1.47.5-2.89,1.47-4"/><path id="_パス_14300" class="cls-12" d="M122.57,215.65c.97,1.11,1.49,2.53,1.47,4,.04,1.47-.49,2.9-1.47,4-1.43,1.89-4.13,2.27-6.02.83-.32-.24-.6-.52-.83-.83-.98-1.1-1.5-2.53-1.47-4-.02-1.47.5-2.89,1.47-4,1.53-1.89,4.31-2.19,6.2-.65.24.19.46.41.65.65"/></g></g></g><g id="_グループ_9783"><g class="cls-24"><g id="_グループ_9782"><rect id="_長方形_3538" class="cls-19" y="0" width="294.63" height="233.88"/></g></g></g><g id="_グループ_9785"><g class="cls-26"><g id="_グループ_9784"><path id="_パス_14302" class="cls-4" d="M0,98.3c31.37,4.09,63.12,4.34,94.54.74l-12.12,8.24c-26.01,2.78-53.48-.22-82.42-8.98"/><path id="_パス_14303" class="cls-18" d="M257.94,178.78c4.42,4.42,6.26,9.48,5.52,15.17-.63,5.63-3.62,10.25-8.96,13.88-4.48,3.11-9.8,4.79-15.26,4.82l1.12-35.59c8.45-2.19,14.31-1.61,17.58,1.72"/><path id="_パス_14304" class="cls-15" d="M91.56,260.86l21.14,3.19,8.81-3.34,1.23,2.53-9.95,3.43-21.23-4.16v-1.64Z"/><path id="_パス_14305" class="cls-17" d="M195.61,408.68l-7.89-1.21-3.27-3.26,3.27-23.91,9.41,1.82-1.52,26.57Z"/><path id="_パス_14306" class="cls-2" d="M187.72,380.29l13.81-10.63,9.11,1.67,1.82,23.83-16.85,13.51,1.52-26.57-9.41-1.82Z"/><path id="_パス_14307" class="cls-6" d="M190.89,387.67l4.31-5.63-.48,8.04-2.55,6.86-3.34,1.76,2.05-11.04Z"/><path id="_パス_14308" class="cls-17" d="M186.16,385.73l4.73,1.94-2.05,11.05-4.2-2.16,1.52-10.83Z"/><path id="_パス_14309" class="cls-8" d="M195.2,382.04l-4.31,5.63-4.73-1.94,4.31-5.94,4.73,2.26Z"/><path id="_パス_14310" class="cls-7" d="M198.47,392.41l-13.79-7.1,3.67-38.68-10.69-30.19,15.66,5.06,5.63,25.13-.48,45.78Z"/><path id="_パス_14311" class="cls-11" d="M177.66,316.44l20.07-15.76,10.86,3.51,5.96,36.72-2.21,39.33-13.87,12.16.49-45.78-5.63-25.14-15.66-5.06Z"/></g></g></g></g></g></svg>