<?xml version="1.0" encoding="UTF-8"?><svg id="_レイヤー_2" xmlns="http://www.w3.org/2000/svg" xmlns:xlink="http://www.w3.org/1999/xlink" viewBox="0 0 1133.67 930.5"><defs><style>.cls-1{fill:none;}.cls-2{fill:#ffd800;}.cls-3{opacity:.08;}.cls-3,.cls-4,.cls-5{isolation:isolate;}.cls-6{fill:#ffd2a7;}.cls-7{fill:url(#_名称未設定グラデーション_18-2);}.cls-8{fill:url(#_名称未設定グラデーション_18-3);}.cls-9{fill:url(#_名称未設定グラデーション_19-4);}.cls-10{fill:url(#_名称未設定グラデーション_19-8);}.cls-11{fill:url(#_名称未設定グラデーション_19-3);}.cls-12{fill:url(#_名称未設定グラデーション_19-9);}.cls-13{fill:url(#_名称未設定グラデーション_19-2);}.cls-14{fill:url(#_名称未設定グラデーション_19-7);}.cls-15{fill:url(#_名称未設定グラデーション_19-5);}.cls-16{fill:url(#_名称未設定グラデーション_19-6);}.cls-17{fill:#1c0a76;}.cls-18{fill:#1c0a75;}.cls-19{fill:url(#_名称未設定グラデーション_19-12);}.cls-20{fill:url(#_名称未設定グラデーション_19-10);}.cls-21{fill:url(#_名称未設定グラデーション_19-11);}.cls-22{fill:url(#_名称未設定グラデーション_19-13);}.cls-23{fill:#1b1b91;}.cls-24{fill:#98a0bf;}.cls-25{fill:url(#_名称未設定グラデーション_8);}.cls-26{fill:#ffbc8e;}.cls-27{fill:#6a6ae8;}.cls-28{fill:#b1bade;}.cls-29,.cls-5{fill:#fff;}.cls-30{fill:#d35600;}.cls-31{fill:#c8d3fb;}.cls-32{fill:url(#_名称未設定グラデーション_8-3);}.cls-33{fill:url(#_名称未設定グラデーション_8-2);}.cls-34{fill:#1e1b93;}.cls-35{fill:#3b31a1;}.cls-36{fill:#312890;}.cls-4{fill:#dae7ff;opacity:.51;}.cls-37{fill:#f4effc;}.cls-38{fill:#628ae2;}.cls-39{clip-path:url(#clippath);}.cls-40{fill:url(#_名称未設定グラデーション_18);}.cls-41{fill:url(#_名称未設定グラデーション_19);}.cls-5{opacity:.64;}</style><clipPath id="clippath"><polygon class="cls-1" points="409.69 416.82 372.86 306.66 409.69 119.65 736.3 0 944.27 119.65 944.27 416.82 409.69 416.82"/></clipPath><linearGradient id="_名称未設定グラデーション_19" x1="-390.98" y1="1145.85" x2="-389.98" y2="1145.85" gradientTransform="translate(11827.78 43861.17) scale(28.49 -38.18)" gradientUnits="userSpaceOnUse"><stop offset="0" stop-color="#ffae00"/><stop offset="1" stop-color="#ff7800"/></linearGradient><linearGradient id="_名称未設定グラデーション_19-2" x1="-391.75" y1="1139.53" x2="-390.75" y2="1139.53" gradientTransform="translate(21413.58 89875.12) scale(52.83 -78.81)" xlink:href="#_名称未設定グラデーション_19"/><linearGradient id="_名称未設定グラデーション_19-3" x1="-390.98" y1="1145.82" x2="-389.98" y2="1145.82" gradientTransform="translate(11946.79 43984.42) scale(28.64 -38.28)" xlink:href="#_名称未設定グラデーション_19"/><linearGradient id="_名称未設定グラデーション_19-4" x1="-389.4" y1="1165.4" x2="-388.4" y2="1165.4" gradientTransform="translate(6451.39 17304.73) scale(14.72 -14.72)" xlink:href="#_名称未設定グラデーション_19"/><linearGradient id="_名称未設定グラデーション_19-5" x1="-392.24" y1="1136.84" x2="-391.24" y2="1136.84" gradientTransform="translate(45541.84 163723.49) scale(115.2 -143.87)" xlink:href="#_名称未設定グラデーション_19"/><linearGradient id="_名称未設定グラデーション_8" x1="-391.69" y1="1196.54" x2="-390.69" y2="1196.54" gradientTransform="translate(19761.63 9136.27) scale(49.46 -7.43)" gradientUnits="userSpaceOnUse"><stop offset="0" stop-color="#6a6ae8"/><stop offset="1" stop-color="#312890"/></linearGradient><linearGradient id="_名称未設定グラデーション_8-2" x1="-391.69" y1="1196.58" x2="-390.69" y2="1196.58" gradientTransform="translate(19762.61 9144.92) scale(49.47 -7.43)" xlink:href="#_名称未設定グラデーション_8"/><linearGradient id="_名称未設定グラデーション_8-3" x1="-391.36" y1="1197.3" x2="-390.36" y2="1197.3" gradientTransform="translate(14881.29 9064.17) scale(37.02 -7.35)" xlink:href="#_名称未設定グラデーション_8"/><linearGradient id="_名称未設定グラデーション_19-6" x1="-386.94" y1="1148.57" x2="-385.94" y2="1148.57" gradientTransform="translate(3654.55 35952.79) scale(8.39 -31.25)" xlink:href="#_名称未設定グラデーション_19"/><linearGradient id="_名称未設定グラデーション_19-7" x1="-390.33" y1="1150.21" x2="-389.33" y2="1150.21" gradientTransform="translate(8392.06 32458.67) scale(20.58 -28.16)" xlink:href="#_名称未設定グラデーション_19"/><linearGradient id="_名称未設定グラデーション_19-8" x1="-391.05" y1="1159.83" x2="-390.05" y2="1159.83" gradientTransform="translate(11945.52 20789.46) scale(29.72 -17.84)" xlink:href="#_名称未設定グラデーション_19"/><linearGradient id="_名称未設定グラデーション_19-9" x1="-390.93" y1="1186.17" x2="-389.93" y2="1186.17" gradientTransform="translate(11132.24 10712.54) scale(27.67 -8.9)" xlink:href="#_名称未設定グラデーション_19"/><linearGradient id="_名称未設定グラデーション_19-10" x1="-390.35" y1="1150.4" x2="-389.35" y2="1150.4" gradientTransform="translate(8567.75 32099.47) scale(20.79 -27.85)" xlink:href="#_名称未設定グラデーション_19"/><linearGradient id="_名称未設定グラデーション_19-11" x1="-391.05" y1="1160.34" x2="-390.05" y2="1160.34" gradientTransform="translate(12148.74 20406.16) scale(29.85 -17.5)" xlink:href="#_名称未設定グラデーション_19"/><linearGradient id="_名称未設定グラデーション_19-12" x1="-390.93" y1="1184.48" x2="-389.93" y2="1184.48" gradientTransform="translate(11312.18 11048.86) scale(27.69 -9.2)" xlink:href="#_名称未設定グラデーション_19"/><linearGradient id="_名称未設定グラデーション_18" x1="-390.9" y1="1134.81" x2="-392.23" y2="1135.81" gradientTransform="translate(76390.17 265657.82) scale(194.41 -233.56)" gradientUnits="userSpaceOnUse"><stop offset="0" stop-color="#4f3bf2"/><stop offset="1" stop-color="#523bc9"/></linearGradient><linearGradient id="_名称未設定グラデーション_18-2" x1="-390.75" y1="1135.28" x2="-392.69" y2="1136.43" gradientTransform="translate(52548.96 228961.73) scale(133.31 -201.2)" xlink:href="#_名称未設定グラデーション_18"/><linearGradient id="_名称未設定グラデーション_18-3" x1="-391.59" y1="1142.02" x2="-393.19" y2="1146.59" gradientTransform="translate(64202.28 58488.28) scale(162.76 -50.75)" xlink:href="#_名称未設定グラデーション_18"/><linearGradient id="_名称未設定グラデーション_19-13" x1="-391.82" y1="1135.81" x2="-390.82" y2="1135.81" gradientTransform="translate(83559.76 240846.74) scale(211.32 -211.32)" xlink:href="#_名称未設定グラデーション_19"/></defs><g id="_レイヤー_1-2"><rect id="_長方形_2648" class="cls-28" x="852.06" y="545.41" width="11.03" height="384.47"/><path id="_パス_5529" class="cls-24" d="M323.54,929.87h11.03v-384.47h-11.03v384.47Z"/><rect id="_長方形_2649" class="cls-28" x="283.07" y="589.12" width="67.81" height="145.18"/><rect id="_長方形_2650" class="cls-28" x="732.08" y="519.3" width="192.25" height="16.71"/><rect id="_長方形_2651" class="cls-24" x="699.4" y="536.01" width="184.5" height="9.39"/><path id="_パス_5530" class="cls-31" d="M238.96,607.05h-113.59l-7.24-8.86h-27.24v128.45h182.55v-128.45h-27.24l-7.24,8.86Z"/><rect id="_長方形_2652" class="cls-31" y="519.3" width="733.39" height="16.71"/><rect id="_長方形_2653" class="cls-28" x="40.44" y="536.01" width="658.97" height="9.39"/><rect id="_長方形_2654" class="cls-28" x="658.64" y="545.41" width="11.03" height="384.47"/><path id="_パス_5531" class="cls-28" d="M283.06,589.12v3.16l.08,14.77c4.61,0,10.92-4.26,10.92-12.89v-48.78h-11v43.73Z"/><path id="_パス_5532" class="cls-24" d="M350.7,607.04c4.6-.06,10.81-4.32,10.81-12.87v-48.78h-10.81v61.64Z"/><path id="_パス_5533" class="cls-24" d="M81.28,734.3h201.78v-145.18H81.28v145.18ZM90.9,598.2h182.55v127.02H90.9v-127.02Z"/><path id="_パス_5534" class="cls-28" d="M125.38,607.05h113.58l7.24-8.86H118.13l7.25,8.86Z"/><path id="_パス_5535" class="cls-28" d="M125.38,656.85h113.58l7.24-8.86H118.13l7.25,8.86Z"/><path id="_パス_5536" class="cls-28" d="M125.38,695.46h113.58l7.24-8.85H118.13l7.25,8.85Z"/><path id="_パス_5537" class="cls-28" d="M70.17,929.87h11.03v-384.47h-11.03v384.47Z"/><path id="_パス_5538" class="cls-27" d="M1056.1,516.83c-.25-.87-1.03-1.47-1.94-1.48-18.99.31-42.79.37-58.86,12.11-14.98,10.94-17.23,30.24-16.89,47.44.05,1.13,1.01,2,2.14,1.95.39-.02.77-.15,1.1-.38.05.02.08.07.14.08,39.91,14.94,79.97-17.86,74.31-59.72Z"/><path id="_パス_5539" class="cls-27" d="M964.14,594.51c.15-13.22-2.93-26.58-13.07-35.76-11.64-10.52-28.48-16.52-42.23-23.66-1.4-.73-3.64.51-2.95,2.27,6.22,15.83,5.34,35.18,16.34,48.93,9.34,11.69,25.13,15.64,39.17,11.32,1.04-.92,1.96-1.96,2.74-3.1h0Z"/><path id="_パス_5540" class="cls-27" d="M1086.88,637.58c-9.34-7.24-21.37-6.5-32.67-6.01-12.52.54-25.12,2.46-36.54,7.89-19.88,9.46-33.86,30.34-26.66,52.44-.26,1.01.34,2.05,1.34,2.35,18.95,5.99,28.1-6.67,39.52-19.27,14.65-16.02,33.35-27.77,54.14-34.03,1.3-.4,2.15-2.38.89-3.37Z"/><path id="_パス_5541" class="cls-27" d="M1132.24,684.79c-.25-.09-.49-.19-.73-.32-8.05-3.46-15.25-10.02-22.57-16.34,0-.04-.04-.04-.08-.08-8.01-6.92-16.18-13.48-25.72-15.21-.08-.03-.16-.05-.25-.04-4.74-.83-9.61-.43-14.15,1.17-20.28,6.76-32.76,27.89-34.77,48.2-.03.42.08.83.32,1.17-.04.11-.08.2-.12.32-.35,1.16.31,2.39,1.48,2.74.11.03.22.06.34.07,17.38,2.05,34.45.04,51.47-3.54,15.08-3.18,32.14-5.76,45.26-14.49.95-.6,1.24-1.85.64-2.8-.26-.41-.65-.71-1.12-.86Z"/><path id="_パス_5542" class="cls-27" d="M1102.05,723.7c-22.2-4.44-68.05-15.74-71.18,19.64-.12.91.51,1.74,1.42,1.87.02,0,.05,0,.07,0,20.14,23.63,59.31,4.89,70.89-18.55.55-.98.21-2.22-.77-2.78-.13-.08-.28-.14-.42-.18Z"/><path id="_パス_5543" class="cls-27" d="M961.41,652.56c-5.89-13.03-19.57-26.49-33.03-31.41-1.08-.29-2.19.36-2.48,1.44-.04.16-.07.33-.07.5.22,25.68-6.08,66.09,21.85,80.29.19.08.38.13.59.16.53.94,1.72,1.28,2.67.75.3-.17.56-.42.73-.72,8.61-15.41,17.67-33.43,9.73-51.01Z"/><path id="_パス_5544" class="cls-27" d="M888.69,668.9c-13.65-11.15-35.19-13.57-51.06-5.52-22,11.18-18.06,37.69-21.41,58.12-.26,1.09.41,2.19,1.5,2.45.67.16,1.37-.02,1.87-.49,21.75-19.08,52.09-26.57,68.68-51.56h0c1.06-.63,1.62-2.01.42-3Z"/><path id="_パス_5545" class="cls-27" d="M888.83,689.12c-.53-.84-1.6-1.15-2.49-.73-.57-.81-1.66-1.05-2.51-.55-10.9,5.98-23.67,14.33-25.82,27.52-2.57,15.72,6.27,31.06,7.27,46.54.14,2.13,3.51,2.9,3.95.53,2.79-14.88,18.21-21.66,23.88-35.04,4.67-11.02,2.2-28.36-4.27-38.27Z"/><path id="_パス_5546" class="cls-27" d="M956.09,780.42c-12.81-17.98-25.98-33.35-48.22-38.98-1.61-.41-3.28,1.43-2.27,2.95,5.01,7.53,4.91,16.07,9.11,23.67,2.48,4.49,6.57,7.85,10.84,10.56,9.48,5.99,21.72,11.44,32.28,5.37,2.15-1.23.38-4.42-1.74-3.57Z"/><path id="_パス_5547" class="cls-27" d="M984.96,759.19c-.04-.2-.11-.4-.22-.58-8.8-14.05-9.18-31.91-21.34-44.01-.81-.78-2.1-.76-2.88.05-.11.11-.2.23-.28.36-5.96,9.54-8.84,21-4.11,31.7,5.13,11.57,15.9,14.73,27.64,15.95,2.07.22,2.43-2.32,1.18-3.46Z"/><path id="_パス_5548" class="cls-27" d="M1009.64,602.12c-2.5-2.1-5.86-.02-8.33,1.04-4.7,1.9-9.16,4.35-13.29,7.3-7.62,5.67-12.84,13.71-13.32,23.2-.06.24-.07.49-.04.74,0,.27-.05.54-.05.82.02,2.28,3.15,2.55,3.87.79,9.74-2.14,17.44-8.41,23.83-15.94,2.93-3.46,13.19-13.05,7.33-17.95Z"/><path id="_パス_5549" class="cls-27" d="M1014.06,760.79c-.31-.29-.56-.62-.85-.91,2.5-17.16,3.57-37.04-13.33-47.13-.98-.56-2.22-.21-2.77.76-.08.14-.14.29-.19.44-4.72,17.94.77,37.02,14.3,49.7,1.87,1.78,4.72-1.06,2.84-2.85Z"/><path id="_パス_5550" class="cls-36" d="M1130.51,682.78c-7.44-3.3-14.44-9.01-21.56-14.65,0-.04-.04-.04-.08-.08-8.17-6.47-16.46-12.84-25.72-15.21-.08-.03-.16-.05-.25-.04-4.74-.83-9.61-.43-14.15,1.17-20.28,6.76-32.76,27.89-34.77,48.2-.03.42.08.83.32,1.17-.04.11-.08.2-.12.32.7-.03,1.34-.39,1.73-.97.42-.05.8-.25,1.09-.56,6.6-7.04,13.65-13.6,20.57-20.32,3.34-3.22,6.6-7.29,10.38-9.98,8.05-5.76,14.96-4.67,23.42-2.22,10.09,2.94,19.31,8.17,28.49,13.19,3.42,1.93,6.76,5.2,10.66,3.42.66-.33,1.06-1.03,1.01-1.77.03-.71-.37-1.38-1.01-1.69Z"/><path id="_パス_5551" class="cls-36" d="M952.33,750.52c-1.92-7.8-4.07-15.71-6.71-23.43.03-.07.07-.11.1-.18,3.56-12.14,5-24.81,4.25-37.45.74-.1,1.35-.63,1.56-1.35,2.31-7.33,3.3-15.01,2.93-22.69-.12-2.58-4.14-2.59-4.02,0,.25,5.29-.18,10.58-1.27,15.76-.81-6.02-2.1-11.96-3.87-17.77-.76-2.47-4.65-1.41-3.89,1.07,5.65,18.15,6.27,37.5,1.78,55.97-3.61-9.63-8.61-18.69-14.83-26.88-14.91-19.08-42.01-30.68-63.46-21.68-.04-.81-.64-1.49-1.44-1.64-8.17-2.04-16.81-.72-24,3.66-2.22,1.34-.19,4.82,2.03,3.47,5.8-3.56,12.71-4.82,19.39-3.55-5.34,3.06-9.94,7.26-13.48,12.29-1.52,2.1,1.97,4.11,3.47,2.03,10.28-14.28,28.99-18.76,45.37-13.45,4.68,1.55,9.12,3.75,13.19,6.52-17.15-.35-30.15,11.13-41.87,22.55-1.86,1.81.99,4.65,2.85,2.85,2.33-2.27,4.7-4.55,7.14-6.73-.68,4.06-.8,8.18-.37,12.27.26,2.55,4.29,2.58,4.02,0-.57-5.22-.18-10.51,1.15-15.59.06-.25.08-.51.04-.76,8.29-6.56,17.56-11.32,28.94-10.51.87.11,1.68-.48,1.84-1.35,9.13,7.21,16.31,16.99,21.51,27.33,10.35,20.57,16.25,44.09,19.59,67.64-8.25-2.1-15.69-6.58-21.4-12.89-1.74-1.91-4.59.94-2.85,2.85,2.9,3.17,6.21,5.93,9.85,8.2-2.32.02-4.65-.14-6.94-.49-2.53-.39-3.62,3.48-1.07,3.89,3.83.61,7.72.81,11.59.58.72-.03,1.37-.46,1.67-1.12,2.99,1.39,6.13,2.46,9.34,3.2.13.02.27.03.4.02,1.47,11.41,2.36,22.79,2.88,33.8.12,2.58,4.14,2.6,4.02,0-1-22.4-4.17-44.65-9.47-66.44Z"/><path id="_パス_5552" class="cls-36" d="M1019.11,667.81c-3.6,2.61-7.06,5.4-10.38,8.36,1.91-7.12,5.05-13.86,9.3-19.89,1.49-2.12-2-4.13-3.48-2.03-5.23,7.41-8.88,15.82-10.7,24.7-.12.52-.02,1.08.27,1.53-8.99,8.79-16.66,18.82-22.79,29.8-1.09-13.87-1.99-27.76-2.68-41.66-.47-9.87-1.24-20.92-1.53-32.3,4.66-6.28,9.58-12.46,16.82-15.85,2.34-1.1.3-4.57-2.03-3.48-6.13,2.88-10.74,7.66-14.88,12.85-.03-5.34.06-10.71.39-16.05.34-.56.38-1.25.11-1.84,2.02-28.41,10.55-55.26,37.76-67.8,2.35-1.08.31-4.55-2.04-3.47-6.45,2.93-12.33,6.98-17.37,11.97-.22-3.9.41-7.8,1.85-11.43.93-2.41-2.95-3.46-3.88-1.07-1.99,5.14-2.55,10.73-1.62,16.17.02.08.05.15.09.22-11.58,13.81-16.36,32.26-18.1,51.38-5.84-6.76-11.67-13.53-17.49-20.3.64-.3,1.01-.98.92-1.68-.31-5.6-2.19-11-5.41-15.59-1.48-2.1-4.97-.09-3.47,2.03,2.38,3.36,3.94,7.22,4.56,11.29-2.16-2.52-4.33-5.02-6.5-7.54-1.69-1.96-4.53.89-2.84,2.84,9.93,11.53,19.87,23.07,29.82,34.6-.43,7.04-.49,14.1-.4,21.02-.08.12-.18.24-.26.35-.57.68-.48,1.69.19,2.26.04.03.08.06.11.09.14,6.77.4,13.39.65,19.61,1.29,32.09,3.7,64.09,7.24,96.01-7.25-4-11.22-11.55-14.84-18.77-1.16-2.32-4.63-.28-3.47,2.03,4.14,8.3,8.89,16.97,17.7,21,.34.15.71.21,1.08.16,2.31,20.49,5.07,40.93,8.26,61.3.4,2.55,4.27,1.47,3.88-1.07-5.24-33.46-9.26-67.07-12.09-100.83.41-.15.75-.45.93-.85,9.1-17.68,22.23-32.96,38.33-44.63,2.07-1.5.07-4.99-2.03-3.46Z"/><path id="_パス_5553" class="cls-36" d="M1085.69,670.99c-8.05-.14-16.01,1.69-23.18,5.34,2.97-3.19,6.2-6.13,9.66-8.79,2.03-1.55.03-5.04-2.03-3.47-6.72,5.12-12.65,11.2-17.6,18.04-.18.23-.29.5-.34.79-13.62,10.7-23.68,27.01-29.94,42.57-3.74,9.47-6.69,19.23-8.82,29.19-2.25-3.77-3.5-7.99-4.9-12.16-1.11-3.32-2.12-6.34-5.21-8.27-2.2-1.38-4.23,2.11-2.03,3.47,3.26,2.04,4.01,7.94,5.19,11.32,1.02,3.29,2.52,6.41,4.43,9.27.36.52.94.83,1.57.86-4.88,24.32-6.23,49.6-8.57,73.96-.24,2.57,3.78,2.55,4.03,0,2.17-22.68,3.57-45.86,7.69-68.43.32-.1.61-.29.84-.54,7.6-8.4,15.48-16.84,25.08-22.68,2.88,2.68,6.29,4.73,10.02,6,2.46.84,3.51-3.05,1.07-3.88-2.7-.92-5.2-2.33-7.38-4.15,2.69-1.41,5.49-2.57,8.39-3.47,2.48-.73,1.42-4.62-1.07-3.87-3.81,1.16-7.48,2.73-10.95,4.69-.62.06-1.19.4-1.54.92-8.69,5.18-16.06,12.33-23.04,19.88,1.34-6.34,2.85-12.63,4.77-18.82,3.88-12.54,10.03-26.44,18.6-38.05.07,0,.14-.01.21-.03,4.56-1.53,9.26-2.62,14.03-3.26,2.55-.34,1.47-4.22-1.07-3.88-2.98.42-5.94,1.03-8.86,1.8,10.5-12.13,24.07-20.64,40.96-20.32,2.58.04,2.58-3.98,0-4.02Z"/><path id="_パス_5554" class="cls-31" d="M1052.12,796.36l-3.2,19.94-5.76,35.72-12.5,77.86h-91.53l-12.51-77.86-5.74-35.71-3.2-19.94h134.44Z"/><path id="_パス_5555" class="cls-3" d="M955.9,816.3l-3.19-19.95h-35.02l3.2,19.94,5.74,35.71,12.51,77.86h35.02l-12.51-77.86-5.75-35.71Z"/><path id="_パス_5556" class="cls-5" d="M1019.94,923.45c-.12,0-.24,0-.37,0-2.36-.13-4.12-1.44-3.92-2.94l15.74-118.46c.19-1.5,2.24-2.62,4.63-2.48,2.36.12,4.12,1.44,3.92,2.93l-15.73,118.46c-.19,1.43-2.06,2.49-4.27,2.49Z"/><path id="_パス_5557" class="cls-17" d="M756.43,499.83h-79.46v19.47h136.3l-56.84-19.47Z"/><rect id="_長方形_2655" class="cls-17" x="736.3" y="441.3" width="20.13" height="59.84"/><path id="_パス_5558" class="cls-27" d="M743.13,499.82l-132.3,1.32v-59.84h132.3v58.52Z"/><rect id="_長方形_2656" class="cls-17" x="610.83" y="441.3" width="137.82" height="12.72"/><path id="_長方形_2657" class="cls-27" d="M401.05,110.66h551.85c.2,0,.36.16.36.36h0v329.92c0,.2-.16.36-.36.36H401.05c-.2,0-.36-.16-.36-.36V111.02c0-.2.16-.36.36-.36h0Z"/><rect id="_長方形_2658" class="cls-29" x="409.69" y="119.65" width="534.58" height="297.17"/><path id="_パス_5559" class="cls-27" d="M610.83,499.83s-7.31,10.44-73.94,10.44v9.03h140.09v-9.08s58.03-1.03,66.15-10.39h-132.3Z"/><g class="cls-39"><path id="_パス_5560" class="cls-26" d="M763.35,233.91c6.74,22.59,63.01,96.58,73.56,110.93,12.73,17.29,47.77,10.25,47.71-9.41-.05-16.75-68.15-117.65-77.4-127.04-16.69-16.96-52.31-2.74-43.87,25.52Z"/><path id="_パス_5561" class="cls-26" d="M699.76,231.43c-4.47,14.32-45.98,87.84-77.36,111.25-23.94,17.86-40.39-9.35-39.47-20.21,2.26-26.89,58.28-106.59,68.79-117,18.98-18.79,57.92-5.64,48.05,25.96Z"/><path id="_パス_5562" class="cls-17" d="M709.87,217.56c-2.81,9.02-32.48,63.39-60.1,100.84-17.91-13.3-33.58-29.37-46.44-47.6,21.22-39.09,53.57-77.01,64.13-84.94,21.34-16.05,52.29.11,42.41,31.7Z"/><path id="_パス_5563" class="cls-35" d="M753.85,177.89c15.92,2.05,44.98,9.25,53.64,24.44s2.33,160.19-8.68,255.07c0,0-131.78,55.69-178.55-4.13,0,0,32.61-244.37,51.27-267.03,15.57-18.9,66.39-10.4,82.32-8.35Z"/><path id="_パス_5564" class="cls-17" d="M810.27,306.2l-46.66-71.37,23.71,92.96s5.7,149.63-138.52,146.18c57.51,22.5,150.01-16.57,150.01-16.57,5.28-45.48,9.48-102.49,11.47-151.19Z"/><path id="_パス_5565" class="cls-6" d="M627.3,304.89c-35.25-7.08-170.86-.02-188.58-11.19s-31.72,34.52-5.99,32.46c25.8-2.07,124.22,23.4,161.23,24.22,54.37,1.22,42.34-43.69,33.33-45.49Z"/><path id="_パス_5566" class="cls-26" d="M392.12,303.27c18.03-.54,25.2-17.34,40.4-11.21s22.15,5.58,21.81,18.1-10.46,11.82-30.9,12.42c-19.96.59-58.09-18.52-31.31-19.31Z"/><path id="_パス_5567" class="cls-6" d="M836.19,336.12c1.07-31.3,36.74-135.73,31.16-154.18-3.79-12.54-7.13-12.39-6.3-22.92.61-7.81,12.08,14.56,13.19,11.38,6.16-17.66,18.06-31.91,26.33-38.52,6.07-4.85,7.41-.84,3.8,3.27-15.82,17.99,4.53,23.21,3.23,33.07-1.81,13.77-8.51,15.22-12.01,23.89-8.03,19.96-6.89,112.13-10.98,143.33-3.48,26.61-49.14,21.87-48.42.69Z"/><path id="_パス_5568" class="cls-35" d="M845.77,256.53c-3.67,10.19-17.08,38.55-37.44,63.71-21.18-26.74-41.03-63.04-45.37-88.74-7.78-45.92,37.87-44.9,51.2-27.96,3.25,4.14,16.39,28.17,31.61,52.99Z"/><path id="_パス_5569" class="cls-2" d="M753.66,144.38c.8-3.15,1.47-5.19,1.47-5.19,0,0-33.25-28.4-38.72-.9l37.25,6.09Z"/><path id="_パス_5570" class="cls-6" d="M773.53,182.49c-16.92,22.18-42.5,32.12-62.52,22.44-11.49-5.54-18.66-14.93-21.73-28.4,8.17-2.58,18.59-2.09,18.59-2.09,0,0,8.63-5.37,7.84-24.32-1.93-46.27,39.43-10.93,39.43-10.93,0,0-12.32,37.6,4.84,40.41,3.92.64,8.58,1.59,13.55,2.89Z"/><path id="_パス_5571" class="cls-6" d="M773.53,182.49c-16.92,22.18-42.5,32.12-62.52,22.44-11.49-5.54-18.66-14.93-21.73-28.4,5.81-.24,11.59-.98,17.27-2.21,0,0,9.95-5.25,9.15-24.2-1.93-46.27,39.43-10.93,39.43-10.93,0,0-12.32,37.6,4.84,40.41,3.92.64,8.59,1.59,13.56,2.89Z"/><path id="_パス_5572" class="cls-26" d="M760.03,178.84c-17.16-2.81-4.89-39.65-4.89-39.65,0,0-2.13-1.82-5.4-4.09l-2.94,17.92c-4.02,24.57-27.2,41.23-51.77,37.21,0,0,0,0,0,0h0c3.8,6.34,9.35,11.45,15.99,14.7,20.02,9.68,46.1-.67,63.01-22.85-4.96-1.29-10.08-2.59-13.99-3.23Z"/><path id="_パス_5573" class="cls-37" d="M689.77,70.92s-.5,21.17,1.04,31.7l4.67-2.24s-.62-19.42.26-27.68l-5.97-1.78Z"/><path id="_パス_5574" class="cls-41" d="M716.22,114.78c-.68,4.54-2.42,12.1-7.09,14.24-.22.1-.5.2-.72.3-11.14,4.43-21.29-5.65-20.47-19.56.59-10.16,7.03-16.86,16.48-17.55,1-.07,2.01.03,2.98.29,3.16.84,5.74,3.11,6.99,6.13,1.88,4.38,2.27,13.16,1.82,16.14Z"/><path id="_パス_5575" class="cls-38" d="M716.22,114.78c-.68,4.54-2.42,12.1-7.09,14.24-.22.1-.5.2-.72.3,5.68-12.02,6.74-25.53-1.01-36.82,3.16.84,5.74,3.11,6.99,6.13,1.89,4.37,2.27,13.16,1.82,16.14Z"/><path id="_パス_5576" class="cls-37" d="M770.53,106.01l-6.01-.95c.07-.42,6.46-42.55-9.64-62.05-5.06-6.14-11.67-9.3-20.19-9.66h-.29c-12.33-.43-21.91,2.76-28.48,9.52-11.17,11.47-10.19,29.66-10.17,29.84l-6.09.39c-.05-.85-1.19-21,11.85-34.45,7.83-8.06,18.96-11.89,33.1-11.41,10.32.5,18.77,4.36,24.99,11.89,17.83,21.63,11.23,65.03,10.93,66.87Z"/><path id="_パス_5577" class="cls-17" d="M767.85,102.06c-.2-1.62-10.59-10.78-11.77-10.26-.17,0-.99,37.02-2.85,40.3-1.38,2.41-3.51,7.93,0,9.49,3.26,1.45,7.48-.23,9.43-2.91,12.41-17.07,5.71-32.53,5.19-36.63Z"/><path id="_パス_5578" class="cls-6" d="M698.85,76.68l-2.37,55.89c-.65,15.11,12.2,27.93,28.66,28.63h0c16.47.7,30.35-10.98,30.99-26.1l.05-1.25s15.18,3.99,15.89-12.79-9.02-14.82-9.02-14.82l1.13-26.78-65.34-2.77Z"/><path id="_パス_5579" class="cls-26" d="M763.06,106.24l1.44-34.06-23.2-.98c0,.16-.5,12.25-.51,12.42l-2.46,57.99c-.43,10.14-10.58,17.95-20.74,17.17-3.01-.23-5.93-1.17-8.51-2.74,4.79,3.15,10.34,4.93,16.06,5.16,16.47.7,30.35-10.98,30.99-26.1l.05-1.25s15.18,3.99,15.89-12.79-9.02-14.82-9.02-14.82Z"/><path id="_パス_5580" class="cls-17" d="M766.32,51.68c-.02-.05-.01-.1-.03-.15-7.43-17.19-61.35-23.49-80.12-5.43-7.64,7.36-2.72,29.79,8.06,32.86,7.24,2.06,41.95,2.26,48.9-.4,2.57,12.22,4.22,36.22,10.86,36.49,3.24.13,10.21-4.98,9.08-8.81,16.61-2.02,18.94-49.1,3.25-54.56Z"/><path id="_パス_5581" class="cls-17" d="M720.62,106.04l-1.06-5.31c-.3-1.46.08-2.98,1.03-4.13.71-.86,1.78-1.35,2.9-1.32l18.24.77c2.26.27,3.89,2.31,3.65,4.58l-.41,9.77c.03,2.18-1.6,4.02-3.76,4.25l-10.71.37h-.67c-4.45-.19-8.19-3.79-9.21-8.97ZM741.14,112.69c1.13-.21,1.93-1.23,1.86-2.38l.41-9.76c.19-1.18-.59-2.3-1.77-2.53l-18.25-.77c-.52,0-1,.23-1.32.64-.56.69-.77,1.6-.59,2.47l1.04,5.3c.88,4.48,4.18,7.54,7.9,7.39l10.7-.36Z"/><path id="_パス_5582" class="cls-17" d="M701.08,113.77l-10.64-1.27c-2.14-.41-3.61-2.39-3.39-4.56l.41-9.76c-.05-2.28,1.74-4.17,4.02-4.25l18.25.77c1.11.07,2.14.64,2.77,1.56.85,1.22,1.1,2.77.68,4.2l-1.49,5.2c-1.46,5.08-5.49,8.35-9.94,8.16-.22,0-.44-.03-.66-.06ZM691.4,95.89c-1.03-.05-1.91,1.02-1.97,2.37l-.41,9.77c-.17,1.14.54,2.23,1.66,2.53l10.64,1.26c3.69.47,7.23-2.3,8.49-6.7l1.49-5.2c.26-.85.12-1.77-.38-2.51-.28-.43-.75-.7-1.26-.74l-18.25-.78Z"/><path id="_パス_5583" class="cls-17" d="M720.09,101.42l.87-1.76c-.22-.11-5.42-2.65-9.24-.31l1.03,1.68c2.88-1.77,7.3.38,7.34.39Z"/><rect id="_長方形_2659" class="cls-17" x="749.65" y="96.48" width="1.97" height="12.64" transform="translate(616.11 848.4) rotate(-87.57)"/><path id="_パス_5584" class="cls-13" d="M770.53,106.01l-6.01-.95c.07-.42,6.46-42.55-9.64-62.05-5.06-6.14-11.67-9.3-20.19-9.66h-.29c-4.63-.22-9.26.22-13.76,1.29l-1.49-5.91c5.06-1.21,10.27-1.71,15.47-1.48,10.32.5,18.77,4.36,24.99,11.89,17.84,21.62,11.23,65.02,10.94,66.86Z"/><path id="_パス_5585" class="cls-30" d="M730.47,159.88c-2.38-.09-4-.25-4.21-.28l.39-4.03c.17.01,16.84,1.58,23.73-2.1,4.8-2.57,8.32-16.45,9.41-24.61l4.02.54c-.31,2.37-3.31,23.26-11.52,27.65-5.66,3.03-16.02,3.08-21.83,2.84Z"/><path id="_パス_5586" class="cls-11" d="M750.1,121.57c.3,4.59,1.39,12.27,5.85,14.8.22.11.49.23.7.36,10.73,5.36,21.68-3.82,22.05-17.75.27-10.17-5.59-17.39-14.95-18.88-.99-.15-2-.14-2.99.04-3.22.57-5.98,2.61-7.48,5.51-2.25,4.21-3.39,12.92-3.19,15.93Z"/><path id="_パス_5587" class="cls-30" d="M750.1,121.57c.3,4.59,1.39,12.27,5.85,14.8.22.11.49.23.7.36-4.65-12.45-4.56-26.02,4.12-36.59-3.22.57-5.98,2.61-7.48,5.51-2.25,4.21-3.39,12.92-3.19,15.93Z"/><path id="_パス_5588" class="cls-4" d="M768.34,125.49c2-3.56,2.59-7.74,1.67-11.71-.76-3.42,4.55-4.65,5.3-1.22,1.21,5.41.35,11.07-2.4,15.88-1.7,3.06-6.28.11-4.57-2.95Z"/><path id="_パス_5589" class="cls-9" d="M721.15,156.59c.38,4.05,3.96,7.02,8.01,6.64,4.05-.38,7.02-3.96,6.64-8.01-.38-4.05-3.96-7.02-8.01-6.64-4.04.37-7.02,3.95-6.64,7.99,0,0,0,.01,0,.02Z"/></g><path id="_パス_5591" class="cls-15" d="M355.08,146.45c.23-31.81,26.2-57.41,58.01-57.18s57.41,26.2,57.18,58.01c-.1,14.22-5.46,27.9-15.05,38.41-11.47,12.56-19.77,28.73-19.89,45.73v1.71s-46.58-.35-46.58-.35v-1.53c.14-17.07-7.94-33.46-19.25-46.25-9.42-10.63-14.56-24.36-14.43-38.56Z"/><path id="_パス_5592" class="cls-17" d="M397.74,189.13c-.03-.12-2.91-12.7-4.95-25.23-.95-5.46-1.6-10.96-1.97-16.49-1.17-.31-2.28-.82-3.27-1.53-8.9-6.21-.65-18.97-.29-19.51.49-.46,1.23-.53,1.8-.17.71.35,1.04.98.76,1.42-2.19,3.33-6.59,12.87-.67,16.99.49.36,1.03.64,1.61.83-.14-7.85,1.73-8.14,2.81-8.3,1.58-.32,3.22.2,4.33,1.37,1.99,2.32.58,6.82-2.64,8.47-.53.27-1.1.46-1.69.56.5,9.7,3.33,26.28,6.9,41.82.14.55-.38.95-1.13.89-.19-.02-.38-.07-.56-.13-.48-.15-.87-.52-1.03-1ZM394.83,139.13c-.96.25-1.37,2.44-1.34,5.99,2.32-1.35,3.16-4.78,2.18-5.9-.03-.04-.07-.07-.12-.08-.24-.05-.48-.06-.72,0h0Z"/><path id="_パス_5593" class="cls-17" d="M425.95,190.33c-.18.06-.37.1-.56.12-.76.05-1.26-.36-1.12-.91,3.81-15.47,6.9-32.01,7.54-41.7-.59-.1-1.16-.3-1.68-.59-3.2-1.69-4.54-6.22-2.52-8.51,1.13-1.16,2.77-1.65,4.35-1.31,1.08.18,2.94.49,2.69,8.34.58-.18,1.12-.45,1.62-.79,5.97-4.03,1.73-13.65-.41-17.01-.28-.44.06-1.07.78-1.41.57-.36,1.32-.28,1.8.19.34.55,8.39,13.44-.61,19.51-1,.69-2.11,1.19-3.28,1.48-.45,5.52-1.19,11.01-2.23,16.45-2.23,12.5-5.31,25.02-5.34,25.15-.17.47-.56.84-1.04.98ZM429.96,139.39s-.09.05-.13.08c-.98,1.11-.2,4.55,2.1,5.94.08-3.55-.3-5.75-1.26-6.01-.23-.06-.48-.06-.72-.01Z"/><path id="_パス_5594" class="cls-17" d="M397.78,187.67l1.4-1.14c7.72-6.24,18.78-6.16,26.41.19l1.39,1.16-.34,46.54-29.2-.22.35-46.54ZM424.24,189.15l-.4-.33c-6.63-5.52-16.23-5.59-22.94-.17l-.4.33-.31,42.54,23.74.17.31-42.53Z"/><path id="_パス_5595" class="cls-17" d="M387.89,236.34l48.27.35c1.96.02,3.56-1.56,3.58-3.52,0,0,0,0,0,0h0c.01-1.96-1.56-3.56-3.53-3.58l-48.26-.35c-1.96-.01-3.57,1.56-3.59,3.53h0c0,1.96,1.57,3.56,3.53,3.58Z"/><path id="_パス_5596" class="cls-25" d="M390.41,243.49l43.11.32c1.86-.1,3.28-1.68,3.2-3.54h0c.11-1.86-1.3-3.45-3.15-3.58l-43.1-.32c-1.86.1-3.29,1.68-3.2,3.54h0c-.11,1.85,1.29,3.45,3.14,3.58Z"/><path id="_パス_5597" class="cls-17" d="M390.36,250.62l43.11.32c1.86-.1,3.29-1.68,3.2-3.54h0c.11-1.86-1.3-3.45-3.15-3.57l-43.1-.32c-1.86.1-3.28,1.68-3.2,3.53h0c-.11,1.85,1.29,3.45,3.14,3.58Z"/><path id="_パス_5598" class="cls-33" d="M390.3,257.75l43.1.32c1.86-.1,3.29-1.68,3.2-3.54h0c.11-1.86-1.29-3.45-3.15-3.58l-43.1-.31c-1.86.09-3.29,1.67-3.21,3.53h0c-.11,1.86,1.3,3.45,3.15,3.58Z"/><path id="_パス_5599" class="cls-17" d="M390.25,264.88l43.1.31c1.86-.09,3.29-1.67,3.2-3.53h0c.12-1.86-1.29-3.46-3.15-3.58l-43.1-.32c-1.86.1-3.29,1.67-3.2,3.53h0c-.11,1.86,1.29,3.46,3.15,3.58Z"/><path id="_パス_5600" class="cls-32" d="M423.14,272.26l-22.79-.18c-3.93-.02-7.09-3.23-7.06-7.15,0,0,0-.01,0-.02h0l37.02.29h0c-.03,3.93-3.24,7.09-7.17,7.06Z"/><path id="_パス_5601" class="cls-16" d="M412.34,71.91c-1.85-.45-3.15-2.11-3.14-4.02l.18-23.04c.02-2.27,1.87-4.09,4.14-4.07s4.09,1.87,4.07,4.14h0l-.18,23.05c-.02,2.27-1.87,4.09-4.14,4.07-.32,0-.63-.05-.94-.12Z"/><path id="_パス_5602" class="cls-14" d="M373.33,79.29c-1.05-.25-1.95-.9-2.52-1.82l-12.37-19.96c-1.2-1.93-.6-4.46,1.32-5.65,1.93-1.2,4.46-.6,5.65,1.32l12.37,19.96c1.19,1.92.6,4.45-1.32,5.65-.93.58-2.06.76-3.13.5h0Z"/><path id="_パス_5603" class="cls-10" d="M346.93,109.52c-.24-.06-.48-.14-.71-.24l-21.49-9.62c-2.07-.92-3-3.35-2.07-5.42.92-2.07,3.35-3,5.42-2.07l21.49,9.62c2.07.91,3.02,3.33,2.11,5.4-.8,1.83-2.81,2.82-4.75,2.33Z"/><path id="_パス_5604" class="cls-12" d="M317.98,158.64c-2.2-.52-3.57-2.73-3.05-4.93.43-1.81,2.02-3.1,3.87-3.15l19.5-.7c2.27-.05,4.14,1.76,4.19,4.02.04,2.22-1.68,4.07-3.9,4.18l-19.49.69c-.38.01-.75-.03-1.12-.11Z"/><path id="_パス_5605" class="cls-20" d="M454.12,79.92c-.44-.11-.86-.29-1.25-.53-1.9-1.22-2.46-3.76-1.23-5.66l12.68-19.77c1.29-1.86,3.85-2.32,5.71-1.03,1.76,1.22,2.28,3.6,1.19,5.45l-12.68,19.78c-.94,1.47-2.72,2.18-4.42,1.77Z"/><path id="_パス_5606" class="cls-21" d="M480.07,110.54c-2.2-.54-3.56-2.76-3.02-4.96.3-1.26,1.18-2.29,2.37-2.8l21.63-9.28c2.08-.9,4.5.07,5.4,2.15s-.07,4.5-2.15,5.4l-21.63,9.28c-.82.35-1.73.42-2.59.22Z"/><path id="_パス_5607" class="cls-19" d="M488.76,159.11c-2.2-.54-3.55-2.76-3.02-4.96.47-1.92,2.23-3.23,4.2-3.13l19.48.99c2.26.11,4,2.04,3.89,4.3-.11,2.26-2.04,4-4.3,3.89h0l-19.49-.99c-.26-.01-.51-.05-.76-.1Z"/><path id="_パス_5608" class="cls-17" d="M564.43,519.29c-4.61-18.63-23.44-30-42.07-25.39-12.52,3.1-22.3,12.87-25.39,25.39h67.47Z"/><path id="_パス_5609" class="cls-6" d="M547.39,499.82c-18.39,0-26.2,16.9-41.51,10.2s-22.41-6.35-21.69-19.1,11.01-11.73,31.87-11.73c20.36,0,58.65,20.63,31.33,20.63Z"/><path id="_パス_5610" class="cls-6" d="M350.44,902.01c-37.58,0-12.11-45.3-3.81-69.1l-35.73-8.41c-9.57,23.84-2.08,47.68-21.31,79.23-13.68,22.44,2.37,26.04,2.37,26.04h89.96s0-27.76-31.48-27.76Z"/><path id="_パス_5611" class="cls-18" d="M350.44,902.01c-10.67,0-16.25-3.66-18.6-9.44-6.95-1.39-6.67,2.78-11.46,6.31-14.17,10.44-28.7,1.41-30.8,4.85-13.68,22.44,2.37,26.04,2.37,26.04h89.96s0-27.76-31.48-27.76Z"/><path id="_パス_5612" class="cls-6" d="M527.32,898.66c-30.21-9.47-51.27-55.53-61.79-80.21l-35.25,14.34c8.02,11.68,27.83,30.52,31.76,70.93,2.8,28.74,10.54,26.04,10.54,26.04h97.71s-12.76-21.64-42.96-31.11Z"/><path id="_パス_5613" class="cls-18" d="M527.32,898.66c-9.12-2.86-17.4-9.07-24.81-16.99-2.23-2.45-4.64,8.07-7.21,11.5-5.17,6.89-27.24,9.78-33.91,5.05.34,2,.47,3.64.65,5.51,2.8,28.74,10.54,26.04,10.54,26.04h97.71s-12.76-21.64-42.96-31.11Z"/><path id="_パス_5614" class="cls-28" d="M225.6,653.43h-12.52l42.19,276.41h12.53l-42.19-276.41Z"/><path id="_パス_5615" class="cls-28" d="M372.94,653.43h-12.53l42.19,276.41h12.53l-42.19-276.41Z"/><path id="_パス_5616" class="cls-17" d="M384.38,607.05s79.98,205.99,90.9,228.35c0,0-15.55,17.61-36.63,18.23,0,0-117.44-187.99-128.39-209.11s74.12-37.47,74.12-37.47Z"/><path id="_パス_5617" class="cls-35" d="M415.12,637.11s-66.16,192.68-73.64,216.41c0,0-23.4,2.07-39.11-11.99,0,0,24.03-169.25,30.62-192.11s82.13-12.31,82.13-12.31Z"/><path id="_パス_5618" class="cls-6" d="M264.76,288.71s-12.6,1.6-14.24,10.83,3.78,18.06,3.78,18.06c0,0-26.84,7.1-50.79-2.13,0,0,12.14-23.94,12.36-49.42s48.89,22.66,48.89,22.66Z"/><path id="_パス_5619" class="cls-26" d="M237.9,305.65c.14-12.01,9.78-20.86,20.95-22.53-12.98-11.88-42.8-37.02-42.97-17.08-.22,25.49-12.36,49.42-12.36,49.42,11.79,4.54,24.28,5.13,33.92,4.56.11-4.8.4-9.58.46-14.37Z"/><path id="_パス_5620" class="cls-6" d="M294.55,212.74s2.61,16.9,1.33,30.77,3.86,32.23-9.47,47.9-43.83-1.78-50.86-20.73-.84-33.83,8.97-42.54,50.03-15.4,50.03-15.4Z"/><path id="_パス_5621" class="cls-26" d="M272.71,272.53c.24-6.84,8.22-57.12,8.22-57.12-12.63,2.74-30.35,7.35-36.41,12.73-9.81,8.7-16.01,23.58-8.97,42.54,6.66,17.94,34.33,34.51,48.58,22.94-7.21-4.57-11.53-12.55-11.42-21.09Z"/><path id="_パス_5622" class="cls-17" d="M279.71,224.22s-5.35,5.18-7.69,17.23-4.53,18.61-8.62,10.62-5.21-20.76-15.63-13.09c-6.89,5.07-6.76,15.09-4.66,20.57s-4.85,17.54-19.13,12.97-23.75-43.19-23.75-43.19c0,0,65.36-20.43,79.47-5.11Z"/><path id="_パス_5623" class="cls-17" d="M286.2,175.68s19.21,4.79,20.99,21.07c1.58,14.45-6.23,28.56-31.89,27.43s-27.36,14.85-40.92,19.12-27.21.27-33.73-13.1c-6.76-13.86-4.67-30.75,11.98-44.47s71.79-33.35,73.57-10.04Z"/><path id="_パス_5624" class="cls-35" d="M106.48,532.36c0,32.19-34.35,110.38,33.02,109.65,67.23-.74,273.62,0,273.62,0,0,0,14.06-27.69-5.06-45.04s-134.85-42.77-148.96-60.43-152.63-4.17-152.63-4.17Z"/><path id="_パス_5625" class="cls-17" d="M223.84,628.59c-120.42,0-86.34-94.36-87.52-98.64-17.59,1.22-29.84,2.41-29.84,2.41,0,32.19-34.35,110.38,33.02,109.65,48.15-.53,167.66-.3,231.63-.13-7.23-1.73-130.92-13.29-147.29-13.29Z"/><path id="_パス_5626" class="cls-40" d="M260.75,316.02c13.35.64,35.48,18.54,35.48,45.82,0,36.03-6.61,86.35-22.87,111.84s14.64,56.03-12.61,67.02-153.51,12.53-158.34-5.93,21.69-143.93,29.22-168.76c7.48-24.61,20.88-42.63,30.99-47.03s73.61-4.14,98.13-2.96Z"/><path id="_パス_5627" class="cls-23" d="M296.24,361.85c0-.86-.02-1.71-.07-2.54l-44.99-29.17s-9.45,40.16,21.19,101.93c14.73,29.7-8.83,32.49-11.61,46.31-4.9,24.3,17.74,48.86-10.95,65.33,3.73-.68,7.39-1.68,10.95-3,27.25-10.98-3.64-41.52,12.61-67.02s22.87-75.81,22.87-111.84Z"/><path id="_パス_5628" class="cls-34" d="M120.68,502.82c-.7-15.54-2.1-32.32,1.35-47.51,23.96-105.56,50.55-116.72,61.19-125.88,12.58-10.83,27.74-3.7,44.49-4.27,22.65-.76,31.07-9.2,31.27-9.23-25.66-1.1-86.48-1.24-96.35,3.05-10.11,4.39-23.51,22.41-30.99,47.03-7.53,24.83-34.06,150.31-29.22,168.76,2.12,8.1,27.6,12.35,57.84,13.64-21.44-5.18-38.41-19.89-39.57-45.59Z"/><path id="_パス_5629" class="cls-29" d="M260.75,316.02c-8.15-4.23-15.26-1.15-22.76-8.41-13.43-12.99-34.48-10.15-34.48-10.15l-10.46,17.81s39.37,20.03,67.7.74Z"/><path id="_パス_5630" class="cls-7" d="M255.59,321.22c10.85-9.74,39.77,2.59,58.67,26.76s58.29,115.61,68.21,136.43c9.23,19.4-18.9,53.17-49.66,21.98s-54.03-79.32-65.01-113.6-23.97-60.99-12.2-71.57Z"/><path id="_パス_5631" class="cls-28" d="M240.79,514.99H51.88c-4.45-.1-8.26-3.21-9.26-7.54l-13.34-53.43c-1.55-6.23,2.83-12.25,8.92-12.25h188.91c4.46.09,8.28,3.21,9.27,7.55l13.33,53.43c1.56,6.24-2.82,12.25-8.92,12.25Z"/><path id="_パス_5632" class="cls-31" d="M235.35,514.99H51.53c-4.22,0-7.89-2.88-8.88-6.98l-12.07-49.38c-1.2-4.91,1.82-9.86,6.73-11.06.71-.17,1.43-.26,2.16-.26h183.82c4.22,0,7.89,2.88,8.89,6.98l12.07,49.38c1.2,4.91-1.81,9.86-6.72,11.06-.71.17-1.44.26-2.17.26Z"/><rect id="_長方形_2660" class="cls-31" x="278.2" y="642.01" width="144.15" height="14.83"/><path id="_パス_5633" class="cls-28" d="M248.87,653.43h12.52l-42.19,276.41h-12.53l42.19-276.41Z"/><path id="_パス_5634" class="cls-28" d="M101.54,653.43h12.52l-42.19,276.41h-12.53l42.19-276.41Z"/><rect id="_長方形_2661" class="cls-28" x="86.7" y="642.01" width="191.5" height="14.83"/><path id="_パス_5635" class="cls-31" d="M257.91,652.01c-2.36,0-4.41-1.6-5-3.88l-44.84-174.86c-.69-2.77,1-5.57,3.76-6.26,2.74-.68,5.52.96,6.24,3.69l44.84,174.85c.71,2.76-.95,5.58-3.72,6.29-.42.11-.85.16-1.29.16h0Z"/><path id="_パス_5636" class="cls-28" d="M252.75,652.01c-2.36,0-4.41-1.6-5-3.88l-44.84-174.86c-.69-2.77,1-5.57,3.76-6.26,2.74-.68,5.52.96,6.24,3.69l44.84,174.85c.71,2.76-.95,5.58-3.72,6.29-.42.11-.85.16-1.29.16h0Z"/><path id="_パス_5637" class="cls-31" d="M111.7,652.01c-2.36,0-4.41-1.6-5-3.88l-44.84-174.86c-.73-2.76.92-5.58,3.68-6.31,2.76-.73,5.58.92,6.31,3.68,0,.02.01.05.02.07l44.84,174.85c.71,2.76-.95,5.58-3.72,6.29-.42.11-.85.16-1.29.16h0Z"/><path id="_パス_5638" class="cls-28" d="M106.53,652.01c-2.36,0-4.41-1.6-5-3.88l-44.84-174.86c-.75-2.75.87-5.59,3.62-6.34,2.75-.75,5.59.87,6.34,3.62.01.05.03.1.04.15l44.84,174.85c.71,2.76-.95,5.58-3.72,6.29-.42.11-.85.16-1.29.16Z"/><path id="_パス_5639" class="cls-8" d="M356.41,519.07c31.35,3.93,81.77,0,145.05-1.91,0,0,7.53-24.38-2.36-40.85,0,0-120.59-6.62-133.45-6.29s-41.88,44.97-9.24,49.05Z"/><path id="_パス_5640" class="cls-29" d="M664.9,265.33v1.97h3.46v9.69h2.35v-9.69h3.45v-1.97h-9.27Z"/><path id="_パス_5641" class="cls-29" d="M678.04,275.03v-3.18h5.86v-1.96h-5.86v-2.59h6.29v-1.97h-8.64v11.66h8.87v-1.96h-6.52Z"/><path id="_パス_5642" class="cls-29" d="M694.02,272.7c-.13.71-.47,1.37-.98,1.89-.44.39-1.01.6-1.6.59-.8.02-1.56-.32-2.07-.94-.61-.93-.89-2.04-.79-3.15-.1-1.07.19-2.14.81-3.02.52-.61,1.3-.95,2.1-.92.57-.02,1.13.16,1.59.51.45.37.75.88.87,1.44l2.34-.56c-.2-.81-.61-1.56-1.2-2.15-.94-.86-2.19-1.32-3.46-1.26-1.49-.07-2.93.52-3.96,1.6-1.07,1.26-1.61,2.88-1.51,4.52-.08,1.59.45,3.15,1.49,4.35.99,1.04,2.38,1.61,3.82,1.58,1.11.05,2.2-.28,3.1-.92.88-.72,1.5-1.72,1.74-2.84l-2.27-.72Z"/><path id="_パス_5643" class="cls-29" d="M705.29,265.33v4.58h-4.61v-4.58h-2.35v11.66h2.35v-5.1h4.61v5.1h2.36v-11.66h-2.36Z"/><path id="_パス_5644" class="cls-29" d="M717.17,265.33v7.78l-4.77-7.78h-2.29v11.66h2.18v-7.61l4.71,7.61h2.36v-11.66h-2.2Z"/><path id="_パス_5645" class="cls-29" d="M721.78,265.33v11.66h2.35v-11.66h-2.35Z"/><path id="_パス_5646" class="cls-29" d="M733.84,272.7c-.13.71-.46,1.37-.97,1.89-.45.39-1.03.6-1.62.59-.8.02-1.56-.33-2.08-.94-.61-.93-.89-2.04-.79-3.15-.09-1.07.2-2.14.81-3.02.53-.61,1.31-.95,2.12-.92.57-.01,1.13.17,1.59.51.45.36.75.87.85,1.44l2.34-.56c-.19-.81-.61-1.56-1.19-2.15-.95-.86-2.2-1.31-3.48-1.26-1.49-.06-2.93.52-3.96,1.6-1.06,1.26-1.59,2.88-1.49,4.52-.09,1.59.44,3.15,1.49,4.35,1.77,2.1,4.9,2.36,6.99.59.85-.71,1.43-1.69,1.66-2.78l-2.27-.72Z"/><path id="_パス_5647" class="cls-29" d="M743.99,265.33h-2.49l-4.54,11.66h2.5l.97-2.64h4.66l1.02,2.64h2.55l-4.67-11.66ZM741.15,272.38l1.57-4.34,1.61,4.34h-3.18Z"/><path id="_パス_5648" class="cls-29" d="M752.34,275.03v-9.6h-2.36v11.56h8.2v-1.96h-5.84Z"/><path id="_パス_5649" class="cls-29" d="M681.68,291.29c-.31-.51-.76-.92-1.29-1.19-.81-.38-1.66-.66-2.54-.84-.76-.13-1.5-.4-2.17-.78-.22-.17-.34-.43-.34-.71,0-.29.13-.56.38-.72.48-.31,1.04-.46,1.61-.43.53-.04,1.06.1,1.49.4.36.34.59.79.64,1.28l2.36-.09c0-.99-.43-1.92-1.18-2.57-.95-.71-2.12-1.06-3.3-.97-.78-.02-1.56.12-2.29.4-.6.24-1.11.66-1.47,1.19-.33.49-.5,1.07-.5,1.66,0,.9.39,1.77,1.08,2.35.79.57,1.7.97,2.65,1.14.98.26,1.6.42,1.89.52.32.09.62.26.85.5.16.2.25.45.24.7,0,.44-.22.86-.57,1.13-.5.35-1.11.52-1.72.48-.62.03-1.23-.16-1.71-.55-.47-.45-.77-1.05-.84-1.69l-2.29.22c.08,1.13.58,2.2,1.41,2.98.97.74,2.18,1.1,3.4,1.02.87.02,1.73-.12,2.54-.42.65-.25,1.2-.71,1.58-1.3.69-1.14.73-2.56.08-3.73h0Z"/><path id="_パス_5650" class="cls-29" d="M691.06,284.87v6.46c.02.66-.02,1.32-.1,1.97-.07.4-.28.76-.6,1.01-.45.31-.98.46-1.53.42-.55.03-1.1-.12-1.55-.43-.37-.28-.63-.69-.72-1.15-.08-.65-.11-1.3-.09-1.96v-6.32h-2.35v6.23c-.02.99.05,1.99.23,2.96.12.47.34.91.66,1.28.36.44.83.78,1.36,1,.81.31,1.67.44,2.54.4.76.02,1.53-.1,2.24-.37,1.06-.38,1.85-1.29,2.08-2.4.16-.98.22-1.98.19-2.97v-6.13h-2.36Z"/><path id="_パス_5651" class="cls-29" d="M704.16,286.19c-.41-.56-1.01-.96-1.68-1.13-.92-.16-1.86-.22-2.79-.18h-3.78v11.67h2.35v-4.39h1.54c.82.02,1.64-.04,2.45-.17.44-.11.85-.3,1.21-.56.42-.3.77-.69,1-1.15.27-.56.41-1.18.39-1.8.04-.82-.21-1.62-.69-2.28ZM702.15,289.4c-.18.26-.44.46-.73.58-.61.15-1.25.21-1.88.18h-1.29v-3.31h1.15c.56-.02,1.13.01,1.69.08.36.06.7.24.94.52.25.29.39.66.38,1.04,0,.32-.09.64-.27.91h0Z"/><path id="_パス_5652" class="cls-29" d="M715.03,286.19c-.42-.55-1.01-.95-1.68-1.13-.93-.16-1.87-.22-2.81-.18h-3.78v11.67h2.35v-4.39h1.54c.82.02,1.64-.04,2.45-.17.44-.1.85-.29,1.22-.56.42-.29.76-.69.99-1.15.28-.56.41-1.18.39-1.8.03-.81-.2-1.62-.67-2.28ZM713.01,289.4c-.18.26-.43.47-.73.58-.61.15-1.23.21-1.86.18h-1.3v-3.31h1.15c.56-.02,1.13.01,1.69.08.37.06.7.24.96.52.25.29.39.66.38,1.04,0,.32-.09.64-.28.91h0Z"/><path id="_パス_5653" class="cls-29" d="M726.93,286.27c-1.09-1.08-2.59-1.66-4.12-1.59-.86-.02-1.72.14-2.52.47-.57.24-1.09.59-1.51,1.04-.46.47-.83,1.01-1.09,1.61-.38.95-.56,1.97-.53,2.99-.09,1.6.46,3.17,1.53,4.36,2.34,2.13,5.92,2.13,8.26,0,1.07-1.21,1.62-2.8,1.52-4.41.09-1.63-.46-3.23-1.54-4.46ZM725.14,293.71c-.58.67-1.43,1.04-2.32,1.02-.89.02-1.73-.36-2.32-1.02-.66-.86-.99-1.93-.91-3.01-.08-1.08.23-2.15.88-3.02.6-.66,1.46-1.02,2.35-.99.89-.04,1.74.33,2.34.99.65.86.97,1.92.88,2.99.08,1.09-.23,2.17-.9,3.04h0Z"/><path id="_パス_5654" class="cls-29" d="M740.62,296.24l-1.25-1.97c-.39-.67-.84-1.3-1.33-1.9-.38-.38-.81-.71-1.28-.98.88-.06,1.7-.44,2.31-1.08.53-.59.81-1.37.78-2.16,0-.65-.17-1.28-.52-1.83-.31-.52-.79-.92-1.36-1.12-.88-.26-1.8-.37-2.71-.32h-4.96v11.67h2.37v-4.87h.47c.4-.02.8.03,1.19.14.27.1.51.26.7.48.45.54.87,1.12,1.25,1.72l1.7,2.53h2.81l-.18-.3ZM734.41,289.81h-1.73v-2.96h1.83c.96,0,1.53.01,1.72.04.34.05.66.21.9.46.21.27.32.61.3.95,0,.31-.07.61-.23.88-.16.23-.39.4-.65.49-.7.13-1.42.18-2.13.14h0Z"/><path id="_パス_5655" class="cls-29" d="M741.25,284.87v1.97h3.45v9.69h2.36v-9.69h3.46v-1.97h-9.27Z"/><path id="_パス_5656" class="cls-30" d="M630.9,767.09l-13.22,31.78,19.31,10.07c-1.78,9.98-1.79,20.2-.03,30.19l-19.36,10,13.11,31.79,20.78-6.54c5.8,8.32,13.01,15.56,21.3,21.39l-6.6,20.76,31.77,13.22,10.08-19.31c9.98,1.77,20.2,1.78,30.19.04l10.01,19.35,31.78-13.1-6.54-20.78c8.32-5.8,15.56-13.01,21.39-21.31l20.76,6.6,13.21-31.77-19.3-10.08c1.77-9.98,1.78-20.2.04-30.18l19.34-10-13.1-31.79-20.78,6.54c-5.8-8.32-13.01-15.56-21.3-21.39l6.6-20.76-31.78-13.21-10.07,19.31c-9.98-1.77-20.19-1.79-30.18-.04l-10.01-19.35-31.79,13.11,6.54,20.78c-8.32,5.8-15.55,13.01-21.39,21.3l-20.76-6.6ZM747.13,766.82c31.67,13.17,46.67,49.53,33.49,81.2-13.17,31.67-49.53,46.67-81.2,33.49-31.67-13.17-46.67-49.53-33.49-81.2,0,0,0,0,0,0,13.18-31.66,49.53-46.65,81.2-33.49h0Z"/><path id="_パス_5657" class="cls-22" d="M644.47,767.77l-13.21,31.78,19.31,10.08c-1.78,9.98-1.79,20.2-.04,30.18l-19.35,10,13.11,31.79,20.77-6.54c5.8,8.32,13.01,15.56,21.31,21.39l-6.6,20.76,31.77,13.22,10.08-19.31c9.98,1.77,20.2,1.78,30.19.04l10,19.35,31.79-13.1-6.54-20.78c8.32-5.8,15.56-13.01,21.39-21.31l20.76,6.6,13.21-31.77-19.3-10.08c1.76-9.98,1.77-20.2.03-30.18l19.35-10.01-13.1-31.78-20.78,6.54c-5.8-8.31-13.01-15.55-21.3-21.39l6.6-20.76-31.78-13.22-10.07,19.31c-9.98-1.78-20.19-1.79-30.18-.04l-10.01-19.35-31.79,13.11,6.54,20.78c-8.31,5.8-15.55,13.01-21.38,21.3l-20.77-6.6ZM760.7,767.5c31.67,13.18,46.66,49.53,33.49,81.2s-49.53,46.66-81.2,33.49c-31.67-13.18-46.66-49.53-33.49-81.2,13.18-31.67,49.53-46.66,81.2-33.49h0Z"/><path id="_パス_5658" class="cls-30" d="M698.3,718.5l13.58.67-10.91,4.5-2.67-5.17Z"/><path id="_パス_5659" class="cls-30" d="M748.56,718.58l13.58.67-2.13,4.09-11.45-4.76Z"/><path id="_パス_5660" class="cls-30" d="M815.82,767.41l13.58.67-11.78,3.7-1.8-4.37Z"/><path id="_パス_5661" class="cls-30" d="M815.63,881.24l13.57.67-12.23-3.89-1.34,3.22Z"/><path id="_パス_5664" class="cls-30" d="M644.29,881.59l-1.81-4.37-11.77,3.7,13.58.67Z"/><path id="_パス_5665" class="cls-30" d="M630.9,767.09l13.57.67-1.34,3.22-12.24-3.89Z"/><path id="_パス_5666" class="cls-17" d="M785.62,823.38l-8.67,20.83,12.66,6.61c-1.16,6.54-1.17,13.24-.02,19.79l-12.69,6.56,8.59,20.84,13.62-4.28c3.8,5.45,8.53,10.19,13.97,14.01l-4.33,13.61,20.83,8.67,6.6-12.66c6.55,1.16,13.24,1.16,19.79.03l6.55,12.68,20.84-8.59-4.29-13.62c5.46-3.8,10.2-8.53,14.02-13.97l13.61,4.33,8.66-20.83-12.66-6.6c1.16-6.54,1.17-13.24.03-19.79l12.67-6.56-8.59-20.83-13.62,4.28c-3.8-5.45-8.52-10.2-13.96-14.03l4.32-13.61-20.83-8.66-6.6,12.66c-6.54-1.17-13.24-1.17-19.78-.03l-6.56-12.69-20.84,8.59,4.29,13.63c-5.45,3.8-10.2,8.52-14.02,13.96l-13.61-4.32ZM861.81,823.21c20.76,8.64,30.59,32.47,21.95,53.23-8.64,20.76-32.47,30.59-53.23,21.95-20.76-8.64-30.58-32.46-21.95-53.22,8.64-20.76,32.47-30.59,53.23-21.96Z"/><path id="_パス_5667" class="cls-27" d="M794.52,823.82l-8.66,20.83,12.66,6.6c-1.16,6.55-1.17,13.24-.02,19.79l-12.69,6.55,8.59,20.84,13.62-4.28c3.8,5.45,8.53,10.19,13.97,14.01l-4.32,13.61,20.82,8.67,6.61-12.66c6.54,1.16,13.24,1.17,19.79.03l6.56,12.68,20.84-8.59-4.29-13.62c5.45-3.8,10.2-8.53,14.02-13.97l13.61,4.33,8.66-20.83-12.66-6.61c1.16-6.54,1.17-13.24.03-19.79l12.68-6.56-8.59-20.83-13.62,4.28c-3.8-5.45-8.53-10.19-13.96-14.01l4.32-13.61-20.82-8.66-6.6,12.66c-6.54-1.16-13.24-1.17-19.79-.02l-6.56-12.69-20.84,8.59,4.28,13.63c-5.45,3.8-10.2,8.52-14.02,13.96l-13.62-4.33ZM870.71,823.65c20.76,8.64,30.58,32.47,21.94,53.23s-32.47,30.58-53.23,21.94c-20.76-8.64-30.58-32.47-21.95-53.22,8.64-20.76,32.47-30.59,53.23-21.95Z"/><path id="_パス_5668" class="cls-17" d="M829.8,791.53l8.9.44-7.15,2.95-1.75-3.39Z"/><path id="_パス_5669" class="cls-17" d="M862.75,791.58l8.9.44-1.4,2.68-7.5-3.12Z"/><path id="_パス_5670" class="cls-17" d="M906.84,823.59l8.9.44-7.72,2.43-1.18-2.87Z"/><path id="_パス_5671" class="cls-17" d="M906.72,898.21l8.9.44-8.02-2.56-.88,2.11Z"/><path id="_パス_5674" class="cls-17" d="M794.4,898.44l-1.18-2.87-7.72,2.43,8.9.44Z"/><path id="_パス_5675" class="cls-17" d="M785.62,823.38l8.9.44-.88,2.11-8.02-2.55Z"/></g></svg>