<?xml version="1.0" encoding="UTF-8"?>
<svg id="_レイヤー_2" data-name="レイヤー 2" xmlns="http://www.w3.org/2000/svg" viewBox="0 0 337.76 496.59">
  <g id="_レイヤー_2-2" data-name="レイヤー 2">
    <g>
      <g>
        <path d="M87.51,132.11c-24.06,0-43.63-19.57-43.63-43.63s19.57-43.63,43.63-43.63,43.63,19.57,43.63,43.63-19.57,43.63-43.63,43.63ZM87.51,53.86c-19.09,0-34.63,15.53-34.63,34.63s15.53,34.63,34.63,34.63,34.63-15.53,34.63-34.63-15.53-34.63-34.63-34.63Z"/>
        <path d="M73.14,496.59h-21.22c-9.72,0-17.76-7.91-17.93-17.62l-4.31-247.47c-.04-2.48,1.94-4.53,4.42-4.58,2.45-.05,4.53,1.94,4.58,4.42l4.31,247.47c.08,4.84,4.09,8.78,8.93,8.78h21.22c4.93,0,8.94-4.01,8.94-8.94v-122.68c0-2.49,2.01-4.5,4.5-4.5s4.5,2.01,4.5,4.5v122.68c0,9.89-8.05,17.94-17.94,17.94Z"/>
        <path d="M121.23,496.59h-21.22c-9.89,0-17.93-8.05-17.93-17.94v-122.68c0-2.49,2.01-4.5,4.5-4.5s4.5,2.01,4.5,4.5v122.68c0,4.93,4.01,8.94,8.93,8.94h21.22c4.84,0,8.85-3.94,8.93-8.78l5.13-287.89c.04-2.48,2.14-4.45,4.58-4.42,2.49.04,4.46,2.09,4.42,4.58l-5.13,287.89c-.17,9.72-8.21,17.62-17.93,17.62Z"/>
        <path d="M36.19,349.03h-18.5c-9.75,0-17.69-7.93-17.69-17.69v-137.26c0-29.35,23.88-53.24,53.24-53.24h221.67c15.02,0,27.25,12.22,27.25,27.25s-12.22,27.25-27.25,27.25h-133.05c-2.49,0-4.5-2.01-4.5-4.5s2.01-4.5,4.5-4.5h133.05c10.06,0,18.25-8.19,18.25-18.25s-8.19-18.25-18.25-18.25H53.24c-24.39,0-44.24,19.84-44.24,44.24v137.26c0,4.79,3.9,8.69,8.69,8.69h18.5c2.49,0,4.5,2.01,4.5,4.5s-2.01,4.5-4.5,4.5Z"/>
      </g>
      <path d="M296.4,139.82c-2.35,0-4.33-1.82-4.49-4.2l-.42-6.28c0-.08,0-.17,0-.25,0-.74.02-1.46.08-2.21.15-2.18.59-4.41,1.3-6.57,1.32-4.01,3.57-7.69,6.51-10.63.86-.86,1.77-1.65,2.69-2.36,1.37-1.04,2.74-2.16,4.06-3.34,1.05-.93,2.06-1.88,3-2.82.01-.01.03-.03.04-.04,12.46-12.47,19.59-28.95,19.58-45.21,0-18.06-8.79-34.92-24.14-46.25-1.01-.75-2.38-.86-3.51-.3-.33.17-.62.38-.87.62-.62.62-.98,1.49-.98,2.37v36.75c0,1.64-.9,3.16-2.34,3.95l-30.62,16.79c-1.35.74-2.98.74-4.33,0l-30.64-16.79c-1.44-.79-2.34-2.3-2.34-3.95V12.38c0-1.27-.71-2.42-1.85-3.01-1.11-.56-2.49-.44-3.49.3-2.56,1.89-4.96,3.96-7.15,6.15-10.07,10.07-16.07,23.15-16.89,36.81-.07,1.12-.1,2.23-.1,3.3,0,19.2,10.22,38.89,26.68,51.39,1.55,1.19,2.97,2.54,4.22,4.04,4.15,4.91,6.41,11.25,6.36,17.84-.02,2.49-2,4.5-4.54,4.46-2.48-.02-4.48-2.05-4.46-4.54.04-4.44-1.48-8.69-4.25-11.98-.85-1.02-1.75-1.89-2.78-2.67-18.64-14.15-30.22-36.59-30.22-58.55,0-1.25.04-2.54.12-3.84.95-15.86,7.87-31,19.51-42.63,2.51-2.51,5.26-4.87,8.17-7.02,3.77-2.79,8.72-3.2,12.91-1.09,4.19,2.13,6.79,6.36,6.79,11.04v34.08s26.14,14.32,26.14,14.32l26.12-14.32V12.37c0-3.25,1.32-6.44,3.62-8.74.93-.93,2-1.7,3.18-2.29,4.18-2.11,9.13-1.69,12.9,1.09,17.67,13.05,27.8,32.55,27.79,53.49.01,18.64-8.1,37.45-22.25,51.6-.01.01-.03.03-.04.04-1.05,1.05-2.18,2.11-3.35,3.15-1.5,1.33-3.04,2.6-4.6,3.78-.6.46-1.2.98-1.77,1.55-1.95,1.95-3.45,4.4-4.33,7.08-.48,1.45-.77,2.95-.88,4.45-.04.47-.06.88-.06,1.29l.41,6.15c.16,2.48-1.71,4.62-4.19,4.79-.1,0-.2,0-.3,0Z"/>
      <path d="M264.17,496.59s-.03,0-.05,0c-10.19,0-19.81-4.04-27.09-11.38-7.55-7.62-11.64-17.8-11.53-28.67l.23-15.51,1.56-238.01c.02-2.48,2.03-4.47,4.5-4.47h.03c2.49.02,4.49,2.04,4.47,4.53l-1.56,238.05-.23,15.52c-.08,8.42,3.09,16.32,8.93,22.22,5.57,5.62,12.92,8.72,20.7,8.72.01,0,.02,0,.04,0,7.73,0,15.03-3.06,20.59-8.61,5.91-5.91,9.12-13.85,9.04-22.36v-.4c-.05-1.5-.17-6.5-.31-12.72l-1.53-240.42c-.02-2.48,1.99-4.51,4.47-4.53h.03c2.47,0,4.48,2,4.5,4.47l1.52,240.35c.14,6.14.26,11.14.3,12.64,0,.37.01.57.01.57.11,10.9-4.04,21.13-11.68,28.76-7.25,7.25-16.82,11.25-26.95,11.25Z"/>
    </g>
  </g>
</svg>