<?xml version="1.0" encoding="UTF-8"?><svg id="_レイヤー_2" xmlns="http://www.w3.org/2000/svg" xmlns:xlink="http://www.w3.org/1999/xlink" viewBox="0 0 198.13 309.76"><defs><style>.cls-1{fill:none;}.cls-2{fill:#c98959;}.cls-2,.cls-3,.cls-4,.cls-5,.cls-6,.cls-7,.cls-8,.cls-9,.cls-10,.cls-11,.cls-12,.cls-13,.cls-14,.cls-15,.cls-16,.cls-17,.cls-18,.cls-19{fill-rule:evenodd;}.cls-3{fill:#fff;}.cls-4{fill:#47444d;}.cls-5{fill:#ca0505;}.cls-6{fill:#432a12;}.cls-7{fill:#d49464;}.cls-8{fill:#6d8d29;}.cls-9{fill:#0f3051;}.cls-10{fill:#1d5082;}.cls-20{fill:url(#_名称未設定グラデーション_2);}.cls-11{fill:#dbdbdb;}.cls-12{fill:#e2a06f;}.cls-13{fill:#0e0e0e;}.cls-21{clip-path:url(#clippath-1);}.cls-22{clip-path:url(#clippath-3);}.cls-23{clip-path:url(#clippath-2);}.cls-15{fill:#900;}.cls-16{fill:#4f6a15;}.cls-17{fill:#92501f;}.cls-24{fill:url(#_名称未設定グラデーション);}.cls-18{fill:#e7b895;}.cls-19{fill:#e1a170;}.cls-25{clip-path:url(#clippath);}.cls-26{fill:#ac1a1a;}</style><clipPath id="clippath"><rect class="cls-1" width="198.13" height="309.76"/></clipPath><clipPath id="clippath-1"><path class="cls-1" d="M13.34,65.84l100.25,37.49-3.1,107.75,56.92-43.78,12.94-115.72-99.28-24.7c-.64-.02-1.27-.03-1.91-.03-21.92,0-43.86,13-65.81,38.99h0Z"/></clipPath><linearGradient id="_名称未設定グラデーション" x1="179.84" y1="693.42" x2="179.85" y2="693.42" gradientTransform="translate(-30034.11 127869.74) scale(167.01 -184.23)" gradientUnits="userSpaceOnUse"><stop offset="0" stop-color="#cd824b"/><stop offset="1" stop-color="#b0652e"/></linearGradient><clipPath id="clippath-2"><polygon class="cls-1" points="30.03 175.02 58.9 197.19 110.49 211.09 113.59 103.33 13.34 65.84 30.03 175.02"/></clipPath><linearGradient id="_名称未設定グラデーション_2" x1="179.06" y1="692.86" x2="179.09" y2="692.86" gradientTransform="translate(-17950.01 100772.38) scale(100.25 -145.24)" gradientUnits="userSpaceOnUse"><stop offset="0" stop-color="#f3c89f"/><stop offset=".01" stop-color="#f3c89f"/><stop offset="1" stop-color="#dd9866"/></linearGradient><clipPath id="clippath-3"><rect class="cls-1" width="198.13" height="309.76"/></clipPath></defs><g id="_レイヤー_1-2"><path id="_パス_14342" d="M118.94,296.57l-.56,1.62-2.51,7.15-7.56,2.34-3.1-.25-1.96-3.27.18,4.74,6.08.86,7.05-1.93,5.43-14.36-.86-3.19-2.2,6.29ZM73.48,290.28l-2.13.74-6.47,2.26-5.78-.38-2.64-2.41.31,2.84,1.7.91,6.72.46,14.87-4.51v-2.18l-6.57,2.28Z"/><path id="_パス_14343" class="cls-26" d="M107.5,300.07l.61-2.23,3.98.28-.89,2.11-3.7-.15ZM108.89,294.97l.61-2.26,4.59.51-.76,1.85-4.44-.1ZM115.67,290.07l-4.77-2.69-3.19,2.03-1.53,8.32-2.94,6.39.02.03,1.96,3.27,3.09.25,7.56-2.34,2.51-7.15-3.42-.08.56-1.47,3.43-.08,2.2-6.29-.3-4.21-5.17,4ZM64.86,282.84l3.98,1.65-2.74,1.47-2.84-1.9-.91.58,2.13,2.18-2.38,1.27-1.52-2.31-3.25,2.05-.86,2.64,2.64,2.41,5.78.38,6.47-2.26-3.88-3.19,1.42-.81,4.59,3.27,6.57-2.28-.46-5.12-5.93,1.52-5.53-4.41-3.27,2.86Z"/><path id="_パス_14344" class="cls-3" d="M118.94,296.57l-.56,1.62-3.42-.08.56-1.47,3.42-.08ZM107.49,300.07l.61-2.23,3.98.28-.89,2.11-3.71-.16ZM114.09,293.22l-.76,1.85-4.44-.1.61-2.26,4.59.51ZM62.35,284.65l2.13,2.18-2.39,1.27-1.52-2.31,1.78-1.14ZM73.49,290.28l-2.13.74-3.88-3.19,1.42-.81,4.59,3.27ZM63.26,284.06l.76-.48.83-.74,3.98,1.65-2.74,1.47-2.84-1.9Z"/><path id="_パス_14345" class="cls-10" d="M113.53,298.49l-4.57-2.08-2.28-1.42,1.12-4.72-9.79-29.27-17.7-7.15-10.76-4.61h-.05l3.4,31.46-1.07,6.49-3.35-.81-5.17-4.36,1.93-5.23-7.66-38,.81-2.74,2.54-1.57,48.55,17.4,5.63,42.41-1.58,4.22Z"/><path id="_パス_14346" class="cls-9" d="M80.31,253.85l.15,31.15-8.62,2.18,1.07-6.49-3.4-31.46h.05l10.76,4.62ZM113.53,298.49l1.57-4.21-5.63-42.41,18.26-11.77-2.33,24.45-1.42,26.59-1.88,2.84-8.57,4.51Z"/><path id="_パス_14347" class="cls-18" d="M123.48,268.99l-4.91-.75-2.03-2.03,2.03-14.86,5.85,1.13-.94,16.51Z"/><path id="_パス_14348" class="cls-2" d="M123.48,268.99l.94-16.51-5.85-1.13,8.59-6.61,5.66,1.04,1.13,14.82-10.47,8.4Z"/><path id="_パス_14349" class="cls-16" d="M57.93,243.55l46.42,15.01,2.13-6.14.66-2.94.05-3.96.2-10.96.05-3.04.25-17.2-43.67-14.15-1.57-2.69-8.88-5.07,27.45-18.67,56.21,14.05-6.14,65.9-24.7,13.6-47.79-17.7-.67-6.05Z"/><path id="_パス_14350" class="cls-11" d="M54.38,220.07l-.1-2.28,7.15-1.62,5.93,4.82,7.46-2.13,6.69,5.73,6.44-2.64,5.84,5.93,7.66-1.73,5.99,5.38-.06,3.05-6.8-5.18-7.91,1.83-5.78-4.87-6.6,1.07-5.78-4.77-7.15,1.12-6.75-4.47-6.23.76Z"/><path id="_パス_14351" class="cls-8" d="M54.59,228.23l6.14-1.47,5.88,4.92,7-2.39,5.43,6.04,6.9-2.69,5.74,5.89,7.96-1.12,7.56,8.12-.05,3.96-.66,2.94-2.13,6.14-46.42-15.01-3.05-4.47-.3-10.86ZM54.29,217.78l-.72-25.36,8.88,5.07,1.57,2.69,43.68,14.15-.25,17.2-5.99-5.38-7.66,1.72-5.83-5.93-6.44,2.63-6.69-5.73-7.46,2.13-5.93-4.82-7.15,1.62Z"/><path id="_パス_14352" class="cls-4" d="M107.19,245.53l-7.56-8.12-7.96,1.12-5.73-5.89-6.9,2.69-5.43-6.04-7,2.39-5.89-4.92-6.14,1.47-.2-8.17,6.24-.76,6.74,4.46,7.15-1.12,5.78,4.77,6.6-1.07,5.78,4.87,7.91-1.83,6.8,5.17-.21,10.96Z"/><path id="_パス_14353" class="cls-7" d="M120.54,255.93l2.68-3.5-.3,5-1.58,4.27-2.07,1.1,1.28-6.87Z"/><path id="_パス_14354" class="cls-18" d="M120.54,255.93l-1.27,6.86-2.62-1.34.95-6.73,2.94,1.21Z"/><path id="_パス_14355" class="cls-12" d="M123.22,252.43l-2.68,3.5-2.94-1.21,2.68-3.7,2.94,1.41Z"/><path id="_パス_14356" class="cls-14" d="M149.15,215.3l4.56,5.2-2.73,15.35-19.23,9.44v-62.73l15.68,1.6,1.72,31.15Z"/><path id="_パス_14357" class="cls-8" d="M112.32,211.64l9.74,3.14,3.5,15.63-.2,20.06-8.06-2.41-1.5-2.1,3.17-15.55-6.65-18.77Z"/><path id="_パス_14358" class="cls-16" d="M112.32,211.64l12.48-9.79,6.75,2.18,3.7,22.83,1.17,16.67-2.36,3.25-.18,4.54-8.62,7.56-8.57-4.41.61-6.39,8.06,2.41.2-20.06-3.49-15.63-9.74-3.14Z"/><g class="cls-25"><path id="_パス_14359" class="cls-14" d="M138.29,196.88c-4.77,1.54-8.98,4.47-12.07,8.42-5.12,6.23-7.89,14.06-7.81,22.12l-2.33-1.73c-8.63-15.86-4.45-27.36,12.53-34.5l9.69,5.69Z"/></g><g class="cls-21"><rect id="_長方形_3547" class="cls-24" x="13.34" y="26.85" width="167.01" height="184.23"/></g><g class="cls-23"><rect id="_長方形_3548" class="cls-20" x="13.34" y="65.84" width="100.25" height="145.24"/></g><g class="cls-22"><path id="_パス_14362" class="cls-6" d="M76.15,117.16v-16.49l32.62,13.72v11.16l-32.62-8.39ZM26.38,103.28l-1.02-15.02,28.31,6.34,1.37,9.84-28.66-1.17Z"/><path id="_パス_14363" class="cls-15" d="M45.61,4.92v-.03l29.02,13.55,8.47,4.44L97.3,0l27.47,19.02h.03l6.24,5.48,17.58-13.32,12.35,23.79,27.7,3.48-6.77,23.97,16.23,16.64-18.57,15.72-4.74,44.62-6.95,20.95-10.1-37.29h-5.63l-5.58,11.82-28.26-34.04-10.43,7.96-4.29-10.73-78.68-25.87-24.91,2.76,15.6-23.34L6.54,30.08l25.72-.05,12.53.4.81-25.51Z"/><path id="_パス_14364" class="cls-5" d="M74.63,18.44L97.28,0h.02l-14.21,22.88-8.47-4.44ZM148.61,11.19l-17.58,13.31-6.24-5.48,23.82-7.86v.03ZM45.61,4.92l-.81,25.52-12.53-.4,13.34-25.12Z"/><path id="_パス_14365" class="cls-19" d="M162.22,126.07c2.62,2.39,3.9,5.91,3.43,9.43-.44,3.58-2.49,6.75-5.57,8.62-2.79,1.93-6.09,2.98-9.48,3l.7-22.13c5.25-1.36,8.9-1,10.93,1.07"/><path id="_パス_14366" class="cls-17" d="M55.8,171.67l21.51,6.8-.66,3.53-20.85-8.1v-2.23Z"/><path id="_パス_14367" class="cls-3" d="M51.59,120.53c2.79,3.68,4.75,7.92,5.74,12.44.31,1.57.48,3.16.51,4.75-.03,5.45-1.96,9.42-5.78,11.92h.05c-3.99,2.44-8.76,2.63-14.31.59-6.07-2.33-11.3-6.43-15.02-11.76-4.13-5.68-6.19-11.41-6.19-17.19,0-5.48,1.89-9.45,5.68-11.91,3.96-2.43,8.73-2.63,14.31-.59,6.06,2.35,11.28,6.45,15.02,11.76M71.38,135.78c.79-2.76,2.58-5.12,5.02-6.61,3.96-2.4,8.71-2.58,14.26-.54,6.06,2.33,11.28,6.4,15.02,11.71,1.49,2.04,2.79,4.22,3.86,6.51,0,.07.02.14.05.2,1.48,3.31,2.27,6.89,2.33,10.52,0,5.45-1.91,9.4-5.73,11.86h-.05c-3.93,2.47-8.68,2.68-14.26.64-6.06-2.35-11.27-6.47-14.96-11.81-4.16-5.64-6.24-11.35-6.24-17.13-.05-1.7.15-3.4.61-5.04.03-.1.07-.2.1-.31"/><path id="_パス_14368" class="cls-13" d="M37.8,105.69c6.66,2.53,12.4,7,16.49,12.83,2.64,3.52,4.62,7.5,5.84,11.72,2.87-.95,5.88-.15,9.03,2.38,1.21-2.58,3.15-4.74,5.58-6.23,4.73-3.04,10.45-3.32,17.14-.84,6.66,2.5,12.41,6.95,16.49,12.78v.05c1.23,1.73,2.35,3.54,3.35,5.41l37.04-29.57c.34-.28.78-.41,1.21-.35.43.05.81.27,1.06.62.28.34.39.78.31,1.21-.06.43-.28.81-.61,1.09l-37.59,30.05c1.36,3.38,2.07,6.99,2.08,10.63-.03,6.8-2.49,11.72-7.36,14.76-4.73,3.1-10.47,3.42-17.2.94-6.65-2.53-12.38-7.02-16.43-12.88-4.6-6.24-6.88-12.58-6.85-19.04-.02-1.75.17-3.49.56-5.19-2.54-2.31-4.9-3.15-7.1-2.5.2,1.34.31,2.69.31,4.05,0,6.8-2.45,11.73-7.36,14.81-4.77,3.07-10.51,3.37-17.2.89-6.67-2.51-12.42-6.98-16.49-12.82-4.57-6.27-6.83-12.63-6.8-19.09-.03-6.83,2.38-11.77,7.26-14.81h.05c4.73-3.07,10.47-3.37,17.2-.89M71.38,135.79c-.03.1-.07.2-.1.31-.46,1.64-.66,3.34-.61,5.04,0,5.78,2.08,11.5,6.24,17.14,3.7,5.34,8.91,9.46,14.97,11.81,5.58,2.04,10.33,1.83,14.26-.64h.05c3.82-2.46,5.72-6.42,5.72-11.86-.06-3.63-.85-7.21-2.33-10.52-.03-.06-.05-.13-.05-.2-1.07-2.29-2.36-4.47-3.86-6.51-3.73-5.31-8.96-9.39-15.01-11.72-5.54-2.04-10.3-1.86-14.26.54-2.44,1.5-4.24,3.86-5.02,6.61M51.59,120.53c-3.73-5.32-8.96-9.41-15.02-11.76-5.58-2.04-10.35-1.84-14.31.59-3.78,2.47-5.68,6.44-5.68,11.91,0,5.78,2.06,11.51,6.19,17.19,3.72,5.33,8.95,9.43,15.02,11.76,5.55,2.04,10.31,1.85,14.3-.59h-.05c3.83-2.5,5.76-6.47,5.79-11.92-.03-1.59-.2-3.18-.51-4.75-.99-4.51-2.95-8.75-5.74-12.44"/></g></g></svg>