<svg xmlns="http://www.w3.org/2000/svg" xmlns:xlink="http://www.w3.org/1999/xlink" width="1483.2" height="191.04" viewBox="0 0 1483.2 191.04"><defs><linearGradient id="linear-gradient" x2="1" y2="1" gradientUnits="objectBoundingBox"><stop offset="0" stop-color="#533afc"></stop><stop offset="1" stop-color="#f28dff"></stop></linearGradient></defs><path id="&#x30D1;&#x30B9;_13898" data-name="&#x30D1;&#x30B9; 13898" d="M66-100.08h8.88q13.92,0,21.36-5.76t7.44-16.56q0-10.8-7.44-16.56t-21.36-5.76H66ZM169.44,0H110.88L66-69.6V0H18.96V-180.96h73.2q15.12,0,26.4,4.44a51.083,51.083,0,0,1,18.6,12.12,51.1,51.1,0,0,1,11.04,17.76,61.9,61.9,0,0,1,3.72,21.6q0,20.64-9.96,33.48t-29.4,17.4ZM316.08-141.12H260.16v30.24h52.8v39.84h-52.8v31.2h55.92V0H213.12V-180.96H316.08ZM472.32-67.2,451.2-127.44,430.08-67.2ZM484.8-31.44H417.6L406.8,0H356.64l68.88-180.96h51.36L545.76,0H495.6Zm204.96-103.2a58.088,58.088,0,0,0-15.36-9.24,40.788,40.788,0,0,0-14.88-3q-9.12,0-14.88,4.32a13.46,13.46,0,0,0-5.76,11.28,11.222,11.222,0,0,0,2.88,7.92,25.1,25.1,0,0,0,7.56,5.4A64.706,64.706,0,0,0,659.88-114q5.88,1.68,11.64,3.6,23.04,7.68,33.72,20.52T715.92-56.4a65.179,65.179,0,0,1-4.68,25.2,52.583,52.583,0,0,1-13.68,19.32A63.123,63.123,0,0,1,675.48.6a91.953,91.953,0,0,1-29.64,4.44q-34.32,0-63.6-20.4L602.4-53.28a81.777,81.777,0,0,0,20.88,13.92,50.186,50.186,0,0,0,20.4,4.56q11.52,0,17.16-5.28t5.64-12a16.206,16.206,0,0,0-1.44-7.08,15.334,15.334,0,0,0-4.8-5.52,38.469,38.469,0,0,0-8.76-4.68q-5.4-2.16-13.08-4.8-9.12-2.88-17.88-6.36a56.261,56.261,0,0,1-15.6-9.24,42.937,42.937,0,0,1-11.04-14.52q-4.2-8.76-4.2-22.2a64.133,64.133,0,0,1,4.44-24.36,54.135,54.135,0,0,1,12.48-18.72,55.629,55.629,0,0,1,19.68-12.12A74.393,74.393,0,0,1,652.32-186a113.98,113.98,0,0,1,28.08,3.72,123.85,123.85,0,0,1,28.08,10.92ZM810.48-90.48a48.219,48.219,0,0,0,4.08,19.92A50.369,50.369,0,0,0,825.6-54.72a49.9,49.9,0,0,0,16.2,10.44,51.879,51.879,0,0,0,19.56,3.72,51.879,51.879,0,0,0,19.56-3.72,51.3,51.3,0,0,0,16.32-10.44A49.432,49.432,0,0,0,908.4-70.56a48.219,48.219,0,0,0,4.08-19.92,48.219,48.219,0,0,0-4.08-19.92,49.433,49.433,0,0,0-11.16-15.84,51.3,51.3,0,0,0-16.32-10.44,51.879,51.879,0,0,0-19.56-3.72,51.879,51.879,0,0,0-19.56,3.72,49.9,49.9,0,0,0-16.2,10.44,50.369,50.369,0,0,0-11.04,15.84A48.219,48.219,0,0,0,810.48-90.48Zm-49.2,0a94.522,94.522,0,0,1,7.44-37.56,93.728,93.728,0,0,1,20.64-30.36,94.308,94.308,0,0,1,31.56-20.28A108.262,108.262,0,0,1,861.36-186a108.525,108.525,0,0,1,40.32,7.32,95.372,95.372,0,0,1,31.8,20.28,92.815,92.815,0,0,1,20.76,30.36,94.522,94.522,0,0,1,7.44,37.56,94.522,94.522,0,0,1-7.44,37.56,92.815,92.815,0,0,1-20.76,30.36,95.372,95.372,0,0,1-31.8,20.28,108.525,108.525,0,0,1-40.32,7.32,108.262,108.262,0,0,1-40.44-7.32,94.308,94.308,0,0,1-31.56-20.28,93.728,93.728,0,0,1-20.64-30.36A94.522,94.522,0,0,1,761.28-90.48ZM1015.44,0V-180.96h47.04l86.88,110.64V-180.96h46.8V0h-46.8l-86.88-110.64V0Zm242.4-23.04A27.993,27.993,0,0,1,1260-33.96a27.731,27.731,0,0,1,6-9,27.727,27.727,0,0,1,9-6,28,28,0,0,1,10.92-2.16,27.994,27.994,0,0,1,10.92,2.16,27.727,27.727,0,0,1,9,6,27.731,27.731,0,0,1,6,9A27.993,27.993,0,0,1,1314-23.04a27.993,27.993,0,0,1-2.16,10.92,27.731,27.731,0,0,1-6,9,27.727,27.727,0,0,1-9,6,27.994,27.994,0,0,1-10.92,2.16A28,28,0,0,1,1275,2.88a27.727,27.727,0,0,1-9-6,27.731,27.731,0,0,1-6-9A27.993,27.993,0,0,1,1257.84-23.04Zm164.64-87.36a26.843,26.843,0,0,0,3.24.24H1428q8.88,0,14.4-5.28a18.082,18.082,0,0,0,5.52-13.68q0-8.16-5.16-13.2t-13.32-5.04q-8.64,0-13.92,5.76t-5.28,14.88H1366.8a77.858,77.858,0,0,1,7.08-25.2,60.36,60.36,0,0,1,13.8-18.6,57.555,57.555,0,0,1,19.68-11.52,74.936,74.936,0,0,1,24.96-3.96,75.218,75.218,0,0,1,24.36,3.72,54.834,54.834,0,0,1,18.72,10.56,45.986,45.986,0,0,1,12,16.56,54.219,54.219,0,0,1,4.2,21.72q0,12.96-4.92,21.24a44.181,44.181,0,0,1-14.04,14.28,40.12,40.12,0,0,1,21.72,15.48q7.8,11.16,7.8,27.48a56.007,56.007,0,0,1-5.28,24.48,55.842,55.842,0,0,1-14.76,18.96A68.039,68.039,0,0,1,1459.56.72a91,91,0,0,1-28.68,4.32q-20.88,0-37.68-8.16t-26.88-25.92a51.824,51.824,0,0,1-6.12-15.84,83.013,83.013,0,0,1-1.56-16.08h46.56q.48,12.72,7.44,19.32t18.72,6.6q12.48,0,18.24-6.72a24.562,24.562,0,0,0,5.76-16.56q0-11.76-6.96-17.76a24.531,24.531,0,0,0-16.56-6,27.725,27.725,0,0,0-4.56.36q-2.16.36-4.8.84Z" transform="translate(-18.96 186)" fill="url(#linear-gradient)"></path></svg>