<?xml version="1.0" encoding="UTF-8"?><svg xmlns="http://www.w3.org/2000/svg" viewBox="0 0 1832.8 268.13"><defs><style>.cls-1{isolation:isolate;}.cls-2{mix-blend-mode:color-dodge;}.cls-3{fill:#0041c4;stroke:#0041c4;stroke-miterlimit:10;stroke-width:3px;}.cls-4{fill:#f2f2f2;}</style></defs><g class="cls-1"><g id="_レイヤー_2"><g id="_レイヤー_1-2"><g class="cls-2"><path class="cls-4" d="M107.9,73.25h30.89v59.27c-16.07,12.1-38.19,18.57-59.06,18.57C33.81,151.09,0,119.58,0,75.55S33.81,0,80.35,0c25.67,0,46.96,8.77,61.15,25.25l-21.7,20.04c-10.64-11.27-22.96-16.49-37.77-16.49-28.38,0-47.79,18.99-47.79,46.75s19.41,46.75,47.37,46.75c9.18,0,17.74-1.67,26.3-6.26v-42.78h-.01Z"/><path class="cls-4" d="M283.2,121.46v27.13h-113.11V2.5h110.4v27.13h-76.8v31.72h67.83v26.3h-67.83v33.81s79.51,0,79.51,0Z"/><path class="cls-4" d="M444.1,2.5v146.09h-27.76l-72.83-88.7v88.7h-33.39V2.5h27.96l72.63,88.7V2.5h33.39Z"/><path class="cls-4" d="M591.85,121.46v27.13h-113.11V2.5h110.4v27.13h-76.8v31.72h67.83v26.3h-67.83v33.81h79.51,0Z"/><path class="cls-4" d="M711.85,148.59l-28.17-40.7h-31.1v40.7h-33.81V2.5h63.23c39.03,0,63.44,20.24,63.44,53.01,0,21.91-11.06,37.98-30.05,46.12l32.77,46.96h-36.31ZM680.13,30.05h-27.55v50.92h27.55c20.66,0,31.1-9.6,31.1-25.46s-10.44-25.46-31.1-25.46Z"/><path class="cls-4" d="M868.37,117.29h-67.83l-12.94,31.3h-34.64L818.07,2.5h33.39l65.32,146.09h-35.48l-12.94-31.3h0ZM857.72,91.62l-23.17-55.93-23.17,55.93h46.34,0Z"/><path class="cls-4" d="M962.28,30.05h-46.75V2.5h127.3v27.55h-46.75v118.54h-33.81V30.05h0Z"/><path class="cls-4" d="M1060.99,2.5h33.81v146.09h-33.81V2.5Z"/><path class="cls-4" d="M1269.89,2.5l-63.23,146.09h-33.39L1110.24,2.5h36.52l44.45,104.35,45.08-104.35h33.6Z"/><path class="cls-4" d="M1398.23,121.46v27.13h-113.11V2.5h110.4v27.13h-76.8v31.72h67.83v26.3h-67.83v33.81s79.51,0,79.51,0Z"/><path class="cls-4" d="M1580.42,117.29h-67.83l-12.94,31.3h-34.64L1530.12,2.5h33.39l65.32,146.09h-35.48l-12.94-31.3s.01,0,.01,0ZM1569.77,91.62l-23.17-55.93-23.17,55.93h46.34Z"/><path class="cls-4" d="M1644.07,2.5h33.81v146.09h-33.81V2.5Z"/></g><path class="cls-3" d="M1567.93,186.97l.05.25,1.17.99.3.2.14.23c1.28,1.5,2.03,3.45,1.81,5.78l-.25.93.15-.12-.53,1.69-1.1,2.34-.3.24-.47,1.15.02.08-.25.05-.07.1-.3.24-1.53,1.98-1.09.67-1.02,1-.79.43-.49.19-.57.21-.32.15c-.22.22-.44.44-.77.51l.2.13-.2.3-.32.16-.08.02-.02-.09.05-.19-.08.02.02.08-.08.02c-3.11,1.96-7.85,4.17-12.7,6.22l-.61.48h-.35l-.17.02-.22.22-1.75.89-.27-.03-.39.25-.34.07-.3.24-.4.17-.17.03-.47.27-.77.51-.64.31-.83.26-2.61.54-.73.33-.28.32-.25.05-.19-.05-2.14.71.22.22-.39.26-.54-.06-1.4.46-1.28.62-1.06.39.32.29-.18.39-.71.41-.22-.22-.04-.17.29-.32-.57.21-.78.07-.32.15-.39.26-.67.14-.49.19-3.1,1.17-.15.12-.42.09c-.81.34-1.62.69-2.53.96l-.3.24-2.71.91-1.3.53-.4.17-5.09,1.75-3.19,1.18-.94.55-1.17.33-.37.34-2.21.81-.71-.03-.39.25-3.44,1.24-1.27.26c-.42.09-.83.26-1.23.43l-1.08.31-.98.38-1.3.53-2.04.77-1.18.24c-.91.28-1.91.57-2.8.93-.18,1.71-.25,3.48-.68,5.24-.21.66-.4,1.49-1.02,1.88l-.78,1.74-1.97,1.55c-.88-.43-.85-1.58-1.13-2.49.13-1.08.43-2.2.76-3.15l-.02-.08.13-.2-.05-.25-.19-.05.07-.1.08-.02.17-.47.08-.02.27-.41.15-.12c.1-.37.22-.66.42-.97l-.14-.67-.27-.03c-.57.21-1.06.39-1.57.5l.12.15-.37.34-.51.1-.2-.13-.02-.08c-3.46,1.15-7.03,2.15-10.59,3.24l-.07.1-5.78,1.81c-.24.14-.57.21-.83.26l-.47.27-.98.38-.24.14-1.65.52h-.35l-.51.09-.13.21-2.18.54-5.53,1.75.02.08-.25.05c-2.9.86-5.7,1.79-8.73,2.86l-.2.31-.29-.12-1.87.74-3.98,1.61-.67.14-.81.34-.17.04c-3.03,1.07-6,2.47-8.95,3.96l-.56.29-1.25.79-.34.07-3.25,1.72-.15.12-2.68,1.52-.07.1-.1-.07-1.89,1.09-2.98,1.76-.08.02c-.64.31-1.2.6-1.73.97-.08.02-.17.04-.19-.05l-.29.32-.34.07-.29-.12-.21-.57.29-.32.61-.04c.07-.1.15-.12.15-.12l3.92-2.3.94-.55c.07-.1.15-.12.24-.14.15-.12.3-.24.47-.27l.13-.2.34-.07c1.25-.79,2.51-1.48,3.85-2.2l.56-.29.2-.3,1.21-.51.2-.31.51-.1.45-.36.59-.12,2.46-1.3.79-.43.88-.44.02.08c.15-.12.39-.25.56-.29l-.03-.17.17-.04,1.03-.56,3.91-1.51c.08-.02.25-.05.4-.17l.79-.43,4.33-1.6,2.39-.76,1.21-.51.24-.14,1.04-.48.15-.12,1.01-.21.56-.29.12.15.3-.24,1.42-.38.52-.02c1.4-.47,2.78-1.01,4.43-1.53l.57-.21,1.26-.7,1.13-.06.59-.12c1.8-.64,3.62-1.19,6.02-1.95l.17-.04.72-.32,2.39-.76,1.36-.63,3.66-1.02,3.44-1.24.98-.38,1.13-.5,3.22-1.02,2.06-.69.86-.09,2.46-.86.2-.3.36-1.22.15-.12.21-.66.25-1.37.75-2.35.37-.78.68-2.25.32-.59.28-.76.83-2.37.26-.85.2-.31.08-.46.13-.2.26-.85.18-.39.47-1.15.85-2.29v-.36l.15-.2.18-.39.35-.86.31-1.03.03-.27.35-.86.38-1.13-.02-.52.13-.2h.36l.28-.75.13-.2,1.71-4.48-.08.02-.29-.12-.07-.34.13-.2.28-.32.02-.36.17-.03-.03-.17.43-.88.24-.14.97-2.13.37-.78.2-.74.32-.59.33-.51.25-.49c1.23-2.98,2.63-6,4.05-8.92l.17-.47.25-.49.07-.1.22-.66.87-1.76.47-1.15.45-.8.21-.66.17-.04c1.77-3.79,3.72-7.54,5.64-11.45l2.49-4.56c.12-.29.3-.68.15-1l1.13-2.61c.42-.09.35-.42.37-.78.84-1.05,1.27-2.37,2.11-3.42l2.61-6.08c.91-.71.98-2.05,1.59-2.97.57-.64,1-1.53,1.27-2.37l.54-.38,1.08-2.42-.17-.4c.27.03.37-.34.54-.38-.05-.25.06-.54.1-.81.44-.44.69-.93.92-1.51l.07-.1c.49-.63,1.25-.79,1.34-1.6l.48-1.07c.97-.82,1.17-1.56,2.42-2.35.96-.9,1.54-1.9,2.52-1.84l.19.05c1.54.21,3,.88,1.65,2.47l-1.6,1.65-.71.41c-1.04.48-1.42,2.05-2.12,1.67-.86.97-2.12,1.23-2.11,2.55l-1.12,1.37c-3.44,7.22-7.47,13.67-11.48,20.66l-.46,2.03c-.76.6-1.15,2.08-1.6,2.88l-1.38,3.54-.08.46-1.46,1.88c-.27.41-.32.59-.67,1.02-.01.35-.01.79-.42.97l-2.94,5.79.08-.02-.05.19-.13.2c-.2.31-.32.59-.43.88l-.1.37-.18.39.17-.03.07.34-.12.29-.17.04-.02-.08.03-.27-.12.29-.22.22-.13.2.05.25-.07.1-.15.12-.68,1.37-.02.35-.43.88-.15.56-.73,1.56-.1.37-1.63,3.59-.06.54-.33.51.05.25-.43.88-.2.3-.03.27-.67,1.46-.22.22-.12.29-.22.22-.2.74-.17.03-.15.56-.17.47-.35.86-.32.59-1.05,2.15-.06.54-.15.12-.17.04c-.96,2.57-1.93,5.15-2.79,7.79.21,1.01-.48,1.95-.81,2.89-.05.62-1.02,1.88-1.33,2.91-.1.81-.31,1.47-.22,2.33-.45.36-.56,1.52-.61,2.15l-.69,3.04c-.45.8-.75,1.47-1.1,2.34l-.14,1.44-.98,2.93c2.63-.89,5.26-1.79,7.96-2.78l.55-.29.84-.17,1.28-.62.24-.14,1.69-.35.86-.53.27.03,1.06-.39,1.55-.58.25-.05,1.65-.52,1.15-.41,2.7-1c.08-.02.07-.1.15-.12l.83-.26c.25-.05.49-.19.74-.24l2.53-.96.81-.34.91-.28,2.44-.94,3.39-1.49,1.23-.43,1.28-.62,4.11-1.38,2.76-1.1.57-.21,1.94-.84.64-.31.1.07c2.83-1.2,6.34-2.54,10.04-4.18l1.63-1.04.17-.03.64-.31-.03-.17.27.03,2.04-1.21.25-.05.22-.22,1.45-.65-.02-.08.62-.39.49-.19,1.41-.82.17-.03,1.16-.77,1.35-.72,1.95-1.19.44-.44.62-.39.13-.2,3.21-1.89.07-.1.32-.15,2.57-1.59.2-.31.03-.27.77-.51.54.06,1.36-1.51.1-.37.18-.39v-.44l.2-.31.22-.22.49-.19.39-.25c.4-.61.65-1.1.97-1.7.17-.47.23-1.02.21-1.54l-.05-.25-.14-.24-.09-.42c-.34-.81-.94-1.57-1.62-2.3l-.1-.07-.44-.44-.47-.17-.92-.6-.39-.62c-.02-.09-.1-.07-.12-.15-.9-.52-1.97-1-3.01-1.4l-.08.02-.37-.1-.49-.25-.1-.07c-1.79-.6-3.84-1.14-5.97-1.67l-.9-.08-1.35-.16-1.71-.61c-.35,0-.81-.1-1.18-.2l-1.64-.28-1.05.04h-1.32l-.71-.02-.51-.33-.53-.42-.73-.11-.35-.02-.25.05-.2.31-.3-.2-.32.16-.08.02-.62-.05-.07.1-.19-.05.15-.12-.31-.2-.39-.18-.12-.15-.08.02-.7-.38-.73-.55-.32-.29-.66-.22-.43-.79-.19-.49.06-.54.1-.37c-.15-.32-.22-.66-.29-.99l-.2-.13-.05-.25-.12-.15-.1-.07-.11-.51-.08.02-.02-.09.17-.04.03-.27-.05-.25.07-.1-.02-.08.05-.62.23-.58.1-.37.15-.12.02.08c.03-.27.15-.56.27-.85v-.35l.72-1.29.72-1.2.07-.1.42-.53.08-.46.2-.31.25-.05c.07-.1.12-.29.27-.41l.15-.56.13-.2.25-.49.89-.8.57-.64.08-.02.44-.44.42-.97.65-.66.3-.24.12-.29.34-.07,1.16-1.21.61-.48.87-.88.29-.32.74-.68.05-.19.4-.17.27-.41.61-.47.22-.22.49-.63,2.99-2.99.84-.61.71-.41,1.63-1.48.27-.41.35-.42.49-.19.08-.02.89-.8.07-.1-.05-.25.22-.22.05-.19-.02-.08.44-.44-.08.02.07-.1.12.15.47-.27.17-.04.54-.37.17-.04.52-.46.92-.63.52-.9,1.36-1.07.66-.22.76-.6.2-.31.08-.02.45-.36.97-1.26,1.38-.99.1.07c.5-.54,1.03-1,1.43-1.61l.38-.69.62-1.27.36-1.66.12-.29.17-.47c.06-.54.03-1.15-.09-1.74-.19-.93-.57-1.9-1.23-2.56l-.1-.07-.63-.49-.65-.57-.07.1-.1-.07.07-.1-.1-.07-.37-.1-.2-.13-.81-.1h-.88l-1.27-.17-1.94-.04-.73-.11-.62-.05-2.16-.26-2.3-.05-.83-.18-1.5-.04-.46-.08h-1.23l-.47-.18-1.86-.06-.59.12-.69.05-.66-.22c-1.89.21-3.8.34-5.28.39l-1.67.43-.84.17-.91-.16-1.62.25-1.94-.04-.42.09h-.44c-2.57.36-5.13.71-7.68,1.15l-.42.09-.83.26-1.86.38-.24.14-.52.02-.42.09-.37-.1-1.45.21-3.88.8-1.15.41-1.45.65-1.38.11-1.08.31-3.15.91-3.13,1-3.51.9-1.55.58-3.42.88-6.1,2.4-2.96,1.4-.35-.02-.54.38-.59.12c-2.17.98-4.33,2.04-6.4,3.08l-.54.37-.56.29-.71.41-2.46,1.3-2.56,1.23-.2.3-.24.14-2.76,1.54c-1.23.87-2.34,1.89-3.56,2.76-.77.95-1.58,1.73-2.25,2.75-.74.68-1.5,1.28-2.25,1.87l-.3.24-1.23,1.31-.7.85c-.15.12-.22.22-.39.26l-.06.54-.03.71-1.01,1.09-.76.16h-.35l-.13.19c.46.52-.48,1.07-.27,2.08-.15,1-.65,1.98-1.3,2.64l.02.52.04.61-.15.12-.27.41-.44.44c.51-.1.94-.11,1.45-.21.99-.29,1.96.12,1.93,1.27-.6,1.35-2.22,1.6-3.3,1.91-1.12-.3-2.55-.44-3.35-.89-1.61-.55-2.14-2.28-.29-5.22l.18-.83.59-1,.13-.2-.03-.17.35-.42.27-.41-.26-.39.17-.03.03.17.76-.6.42-.09.42-.53.37.1,1.12-1.38.7-.85.25-.49.62-.39.72-.76.13-.2.3-.24c.72-.76,1.54-1.46,2.28-2.14l.64-.75.61-.48.33-.51,1.21-.95.77-.51.54-.38.74-.24c.32-.15.55-.29.86-.53l.47-.27-.05-.25.22-.22.52-.02c.08-.02.24-.14.3-.24l.15-.12.17-.03c.54-.38,1.18-.68,1.8-1.08l.22-.22.77-.51.76-.6.32-.15.5-.54.25-.05.27-.41.22-.22.69-.05.71-.41,2.02-.86c.64-.31,1.36-.63,1.99-1.03l.39-.25.88-.45,2.46-1.3.19.05c2.16-1.06,4.33-2.04,6.5-3.01l.71-.41,1.16-.33,1.11-.58,1.96-.75.88-.44.93-.19,3.02-1.15,1.84-.91,5.08-1.4,1.48-.48,2.82-.84,1.5-.4,1.11-.58,1.35-.28.89-.36,2.77-.66,1.74-.1,1.69-.35.91.16,2.68-.64.62-.39.27.03.36.02.03.17,3.32-.51.86-.53.34-.07.64.13,1.72-.18,1.27-.26.3.2.08-.02c.25-.05.51-.1.86-.09l.76-.16,1.38-.11.08-.02.27.03.17-.03.4-.17.12.15,3.27-.32,2.52-.17.32-.15.46.08c.25-.05.61-.04.86-.09l.08-.02.22-.22.39.18c.19.05.35.01.61-.04l.24-.14,4.86-.3,1.15.03.93-.19,3.51-.02,2.54.36.68.3,2.81.39.08-.02.02.08,2.49.54.42-.09.73.11.29.12.73.55.12.15,1.59.9.27.03.1.07.15-.12.02.08-.07.1.3.2.14.23-.05.19c.54.5,1.02,1.11,1.34,1.83l.2.13.31,1.52-.03.27c-.03.27-.06.54-.18.83l.09.42-.22.22.02.08-.02.35-.37.78-.55.73-.54.81-.4,1.05-1.27,1.49-.79.87-1.14.85c-.59.56-1.01,1.09-1.53,1.55l-.3.24c-1.02,1-1.93,1.72-2.39,2.07l-1.92,1.8-.27.41-.74.68-.27.41-.24.14-.07.1-.27-.03-.08.02-4.25,3.69-.18.39-.71.41-1.11,1.02-2.35,2.24-.99.73-.3.24-1.96,1.99-1.16.77-1.11,1.02-.64.75-1.01.65-.07.1-.82,1.14-1.08.75c-1.09,1.1-2.1,2.19-2.85,3.23l-1.27,1.93c-.32.59-.55,1.17-.7,1.73l.19.05.21.57.21,1.01.19.49-.05.18.03.17-.13.2-.29.32c.44.88,1.11,1.53,1.96,2.24h.44l.2.13.19.05.22.22.65.57.22.22c.41.27.8.45,1.27.62l.08-.02h.35l.44.45.47.17c.86.35,1.69.53,2.25.68l.47.17-.02-.08.54.06.83.18.27.03.37.1.1.07.49.25.51-.1,1.01.23.73.11,1.3.35.12.15.15-.12.47.17h.44l.64.13.32.29c.07.05.13.06.19.05l.15-.12h.35l.54.08.2.13h.44l1.22.8,1.13.38.08-.02.64.13.32.29c2,.73,3.84,1.58,5.3,2.69l.08-.02.29.12.05.05Z"/><path class="cls-3" d="M1602.88,167.1l1.8-1.51.27-.41.22-.22.72-.33.22-.22.13-.21.32-.15,1.97-1.55.29-.32.55-.73.27.03.44-.44.24-.14.62-.39.13-.21.37-.34.56-.29.25-.05.76-.6c.08-.02.37-.34.69-.49l.05-.19.82-.7.24-.14.07-.1.41-.17.4-.61.42-.09.12.15c.08-.02.24-.14.39-.26l1.43-1.17h.35l.76-.58.44-.44.57-.21.35-.43.62-.39.24-.14.96-.02.39-.26.67-.14c1.55-.58,2.78-.57,3.16.4l.02.08.17-.04.51.33.09.42.25-.05.2.13-.13.2-.24.14-.08.46.17.84-.68,1.81.03,2.28-.38,1.13-.52.46-.4,1.05-.38,1.13-.28.76.42-.09.26.39-.3.68-.42.09-.09-.42-.12.29-.35.42-.22.66.05.25-.24.14c-.07.1-.13.2-.12.29l.05.25-.2.3-1.25,3.33-.07.1c-.12.29-.22.66-.42.96l-.02.35-.08.02-.4,1.05.02.08-.03.27-.18.39.05.25-.29.32.07.34-.69.93-.62,1.27-.21,1.1-.15.12-.23.58-.32.59-1.55,3.57-.3.24-.1.37-.57,1.52-.37.34c.02.08-.05.19-.12.29l-.25.93-.29.32-.21.66.02.08-.07.1-.2.75.04.17-.24.14-.13.2-.15.56-.5.98-.32.59-.3.68-.03.27-.87.88-.97,2.13-.06.54-.42.97-.58,1-1.9,4-.08.9-.27.41-.57.21-.19-.05-.38,1.13-.69.93-.15.12-1.02,1.88-.57,1.08-.02-.08-.7,1.29-.03.27-.47,1.15-.37.78-.35.42-1.08,2.42.02.08-.23,1.01-.55.73c-.97,2.13-1.83,4.33-2.59,6.6l.09.86-.38.7.02.52-.22.22-.08.02-.97,4.25-.65,1.98-.63,2.5-.46,2.03-.25.93-.26,1.72-.03.27.05.25-.03.27.02.52-.03.27v.36l.14.32-.2.3.06,1.57v.35l-.16,1v.36l-.14,1.08-.23.58.02.52-.17.47-.17.04.45,2.19.65,1.45.46.96.41,1.14.16.76-.1.37.05.25.21,1.45-.52,1.34-.25.05-.29-.12-.36-.45-.12.29h-.44l-.29-.11-.1-.07.17-.47-.25-2.06-.1-.51-.17-.41-.48-1.48-.14-.68.03-1.15-.07-.34.15-.56-.07-.34.12-.29c-.05-.69,0-1.32.04-1.94.06-.54.15-1,.13-1.52l-.09-.42.08-.46s.08-.02.07-.1l-.24-.74v-.35l.23-.66.13-.2c.07-1.77.32-3.58.58-5.31.05-.63.11-1.17.26-1.73l.25-2.6.23-.58.4-1.05.33-1.39.15-.56c.63-2.06,1.26-4.13,1.99-6.13l.23-1.02.25-.49.63-1.63.1-.37.35-.86.53-1.25.27-.85.25-.49c.08-.02.07-.1.13-.2l.17-.47.23-.58,1.5-3.39.07-.1-.04-.17.15-.12.57-1.08-.04-.17.33-.51.08-.46.4-.61.35-.86.28-.76.2-.31.38-.69.25-.93.52-.9.35-.42,3.25-6.39.03-.71.69-.93.29-.32.7-1.73.22-.22.27-.41.17-.47.55-1.17.38-.69.45-.8,1.28-2.73.07-.1.15-.56.81-2.02.27-.85,1.15-2.52.58-1.44,1.68-3.78,1.33-3.79.42-.96.37-1.22,1.43-3.29.78-2.18.75-1.47.05-.18.26-1.29v-.35l.15-.64-.12-.15-.25.05-.05-.25.25-.05-.68-1.18-.43-1.23.05-.63v-.35l-.46-.17-1.89.21-1.99.59c-1.72,1.06-3.31,2.27-4.93,3.39l-4.84,3.81-.67.58-.32.15-.15.12-.05.19-1.06.83-.25.05-.5.54-.47.27-.22.22-.18.39-.3.24-.34.07-.15.12.04.17-.37.34-.12.29h-.44l-.22.22-1.33,1.24-.41.17-1.63,1.48-.62.39-.89.8-.4.17-1.33,1.24-.2.3-.32.15-.13.2-.28.32-.15.12-.32.15-.52.46-.62.39-.59.56-.12.29-.67.58-1.63.6-1.06.83-.47.27-.34.07-.15.12.04.17-.27-.03.07-.1-.17.03c-.45.36-1.03.56-1.5.84l-1.25.78-1.09.67-.64.31-.76.16-.37-.1-.3-.2-1.1-1.09c-.02-.08-.12-.15-.14-.24-.53-.86-.59-2.43-.06-5,.16-.91.5-1.86.74-2.79.27-.85.41-1.41.98-2.49l.23-.58.15-1,.36-1.22.06-.54.28-1.2,1.25-2.02.68-1.81.49-.63.29-.32.1-.37-.2-.13.25-.05.03.17.32-.15-.02-.08.1-.37.72-.76.89-.36.1.07.22-.22c.15-.12.24-.14.44,0,.1.07.2.13.22.22.1.07.12.15.12.15l.08-.02.09.86-.1.81-.42.97-.53,1.25-.47,1.15.02.08-.57.65-.35.42-3.6,5.14-.18.39c-.35.86-.78,1.75-1.12,2.69l-.43,1.32v.79l-.06.62-.12.29-.3.68-.03.27-.15.12-.08.02c-.1.81-.04,1.5.23,1.97.5,1.13,1.85,1.29,4.76-.37l.71-.41.13-.2.99-.73.4-.17.25-.05.22-.22.25-.05,2.15-1.94.62-.39.81-.34.37-.34.94-.99.64-.31.54-.38.13-.2.17-.03,4.57-3.84.07-.1.35-.42.69-.49.17-.47.25-.05.72-.32v.13Z"/><path class="cls-3" d="M1769.28,78.97l2.01-.06c.96-.02,2.01-.06,2.99,0l.49-.19.62.05.22.22c2.06.19,4.18.63,6.19,1.01l.67-.14h.36l.61-.02h.36l.47-.26.17-.04.54.5.58.23.88.43c.1.07.19.05.27.03.19.05.3.2.32.29l1.37.68.21.57-.69.05-.8-.45-1.22-.36-8.86-1.16-.51.1-.76-.28c-.37-.1-.81-.1-1.17-.11l-.17.03-.1-.07c-.17.04-.27-.03-.44,0l-.08.02-.52.02-.25.05-.2-.13-1.61-.11c-2.01.06-4.12.06-6.3.16l-.49.19-.76.16-.32.15h-.35l-1.37-.26c-1.57.06-3.21.22-4.76.37l-.03.27-.29-.12-.1-.07-5.76.66-1.8.64-.42.09-3.11.29-.51.1-.02-.08-.93.19-1.45.21-.17.03-.27-.03-1.81.2c-.59.12-1.2.16-1.79.28l-.34.07c-.34.07-.69.05-.95.11l-1.86.38-.05.19-.95.11-.19-.05c-.59.12-1.2.16-1.79.28l-.07.1-.39-.18-.4.17-.2.31-.22.22-.15.12-.17.04-.52.02-.93.19-.69.06-.9-.08-.64.31.08-.02v.35l-.82.34-1.33.36-.95.11-.73-.11-.9-.08-2.28.47-.69.05-.61.04-6.24,1.29-1.42.38-.67.14-.81.34-1.52.31h-.79l-.74.23-.47.27-.9-.08c-.51.1-1.08.31-1.58.41l-.32.15-.81.34-.61.04-.39.26-.84.17-.39.26-.64-.13-.42.09-2.24.64c-.32.15-.57.21-.91.28l-.81.34-1.38.55-1.35.28-3.03,1.07-.93.63-1.48.48h-.35l-.51.09c-.32.15-.64.31-.98.38l-.22.22-.91.28-1.03.56-1.67.43-1.21.51-.07.1-.22.22-2.39.76.08-.02-.98.38-1.92.92-1.42.38-.25.05-1.47.57-.07.1-1.55.58-.24.14-.02-.08c-.08.02-.15.12-.15.12l-.32.15-.74.24.02.08-.17.04-1.04.48-.56.29-.23.14-.34.07-.24.14-1.15.41-.22.22-.57.21-.56.29-1.48.48-1.21.95-.64.31-.4.17-.19-.05-.17.04-.74.24-.73-.11-3.94,1.78c-1.46,1-3.13,1.88-4.65,2.63l-.13.2-.25.49-.25.05-.15.12-.89.36-1.87.74-1.06.4-2.46,1.3c-1.72,1.06-2.83,2.08-4.35,3.18-1.39,1.34-2.77,2.33-4.27,3.61l-.08.02c-.96.46-1.68,2.11-2.53,2.63-.3.24-.59.12-.79-.01l-.15.56.04,1.05-.12.29-.49.19-.27.41-.89.36-.22.22-.13.2-2.16,2.73-1.4-.41-.05-.25-.29-.56v-.44c-.1-.07-.16-.32-.04-.61l-.07-.34-.09-.86.08-.02.67-1.02-.25.05-.07-.34.47-.71.55-1.17.62-.83.25-.05.05-.19.45-.36.44-.44-.15-.32.29.12.79-.87.2.13.52-.02.33-.51.56.15.29.12.5-.54.74-.24.45-.36.3-.68.54-.81.94-.55,1.82-.55c.3-.24.6-.48.92-.63l.76-.6,1.26-.7,1.65-.96.74-.68.67-.14,1.97-1.11.57-.64.72-.33.12.15.45-.36.66-.66,1.01-.65.17-.04-.04-.17.51-.1.37-.34-.03-.17.17-.04.02.08.89-.36.19.05.34-.07.47-.27.29.12.51-.11.49-.19.42-.09.86-.53.22-.22.79-.43.89-.36,1.42-.38c2.43-1.03,4.55-1.82,6.23-2.61l1.13-.5.56-.29,4.3-1.76,1.16-.33.24-.14,4.19-1.83,1.25-.34.98-.38.02.08.47-.27,2.06-.69,2.14-1.15.98-.38,1.4-.46,1.75-.45,1.06-.39.96-.46,3.78-.87.34-.07c.51-.1,1.08-.31,1.57-.5l1.09-.67v-.35l.54-.02.76.28c.34-.07.59-.12.91-.28l.4-.17,1.3-.53.4-.17.76-.16.29.12,5.23-1.52.24-.14,1.15-.41.49-.19,1.3-.09c.25-.05.4-.17.66-.22l.17-.04,6.44-1.59.32-.16.59-.12.98-.38.51-.1.52-.46.42-.09,1.08.13,1.01-.21h.36l2.7-.54.07-.1.83-.26,1.16-.33.83-.26,1.42.06,3.8-.78.24-.14.05-.19.1.07.02.08.42-.09.02.08,3.75-.6.54-.38.98-.38h1.32l1.3-.54.59-.12h.88l1.05-.05.61-.04.67-.14,1.79.16c.67-.14,1.37-.19,2.06-.25l.24-.14.13-.21.31.2,3.78-.43,4.41-.38.49-.19.71.03h.44l1.4-.03.76-.16.1.07.61-.04,1.2-.16.42-.09.41.27,2.45-.07.57-.21.71.03,1.15.03,1.45-.21.2.13-.04.1ZM1670.78,167.61l-.03.27-.43.88-.1.37-.12.73-.17.47-.68,2.25-.48,1.94-.67,1.46-.3.24-.53,1.69.1.07-.08.02c-.22.66-.35,1.3-.56,1.96v.44l-.82,3.69.1.07-.15.12-.38,1.14.15.32-1.29,5.28-.29.32-.13.2c-.15.56-.21,1.1-.19,1.62-.07.1-.2.31-.28.32l.02.52-.08.46-.07.1-.68-.3v-.35l.4-.7-.08.02.35-3.41.67-3.13-.08.02.02-.35-.02-.08.08-.9c.18-.39.5-.54.71-.41.72-3.75,1.41-7.67,2.5-11.33l.62-2.94.33-.51c.18-.83.45-1.67.9-2.47l.43-1.76.5-.98-.02-.96,1.35-3.27.08-.9.75-1.91.52-1.34,1.29-1.41,1.37-3.18-.2-.13.27-.41.49-.63.1-.37.72-1.64.15-1,1.25-2.9.4-1.05,1.33-3.35.95-1.78.2-.74.13-.2.57-1.52-.02-.08.07-.1.47-1.15-.03-1.4.23-.58.49-.63.62-.39.03-.71.12-.29-.07-.34-.14-.24.27-.41v-.44l.25-.49-.2-.13.25-.05.47-.71.12.15-.02-.08.54-.81.33-.95,2.1-4.3.47-2.82.38-2.01.39-1.93.72-1.2.39-.25.32-.59,1.05-2.15,1.92-1.36.53.42.24.3.24-.14.44-.44.25-.05.02.08.74-.24.07-.1.4-.17.59-.12.49.25.29.55-.28.76-.53,1.25-.2.74-.15.12-.03.27h-.44l-.51.11-.62.39-.74.24-.3.24-.58,1.88-.62,1.27-.12.29-.08.02-1.72,4.05-.52.46-1.15,2.52.02.52.21,1.45-.37.78-.41,1.4-.3.24-.27.41-.25.05-.22.22-.47.27-.25.49-.13.64-.8,1.66-.23,1.45-.42.53-.3.68-.32.59-.2.3-1.1,2.34-.03.27-.15.56-.23.58-.1.37-.3.24-.18.39-.08.02-1.82,3.98-.1.81-.2.75-.35.86-.4,1.05-.52.9-.27-.03-.44,2.55-.59,1-.54-.06-1.15,2.96.08-.02-.27.41.06.69-.15.12-.23.58-.2.31-.25.49-.23.58-.37.78-.35.86-.45.36-1.13,3.05.02.08-.26.85-.07.1-1,2.41-.06-.06Z"/><path class="cls-3" d="M1706.92,154.79l.09.42-.33.51-.18.39c-.08.02-.07.1-.05.19l.05.25-.23.58.35,2.13c-.07.1.09,1.3.52,1.65.63.49.38.54,2.62.78l1.5.04,1.1-.23,1.23-.43,5.88-2.62,1.08-.75,3.06-1.78.59-.56.3-.24.17-.04,4.62-3.15.34-.07.52-.46.72-.33,2.58-1.58.32-.15c2.78-1.89,3.8-2.89,6.47-4.85l1.72-1.06.05-.19.46-.36,1.41-.82,1.46-1-.03-.17.25-.05.91-.71.05-.19,3.98-3.72.4-.17c.52-.46,1.02-1,1.59-1.65.13-.2.4-.17.52-.02l-.02-.08.29-.32.35.02.41.71-.39.26-.71.41-.39.26-1.66,1.75-.3.68-.42.09-.3.24c-.66.66-1.41,1.26-2.08,1.83l-.07.1-.52.46-.29.32-.25.05-2.42,1.91-.05.19-.32.16-.61.48-.15.12-1.02,1-2.93,2.01c-.91.72-1.8,1.52-2.72,2.15l-.2.3-3.8,2.89-.29.32-.22-.22-.81.78-.98.38-.6.48-.09.02c-.99.73-2,1.38-3.01,2.03l-1.13.94-2.35,1.8-.64.31-.98.38-1.35.72-.83.26-.3.24-.29.32-1.04.48-.17.04c-.94.55-2.07,1.04-3.22,1.45l-.2.31-.4.17.08-.02-1.62.69-.54-.06-.86.53-2.09.08-2.05-.54-1.09-1.01-.65-1.01-.5-1.13-.3-1.43.05-.19-.12-.15-.12-.59.16-2.23.38-1.13.36-1.66.33-.95.13-.2.11-.73.42-.53.13-.64.35-.86.2-.3.84-.61.25-.49.54-.37.57-.65.15-.12.69-.93.64-.75.42-.97.27-.41.32-.59.29-.32.47-.27.12-.29.34-.51.62-.39.39-.25c1.58-1.73,3.22-3.57,5-5.17l.13-.2.72-.76,1.01-.65c.08-.02.17-.04.15-.12l.87-.88.52-.46.24-.14,1.15-.41c.86-.53,1.72-1.06,2.59-1.5l.67-.58.84-.17.47-.27.29.12c.68-.14,1.35-.28,1.96-.32l.07-.1.23-.14.19.05.24-.14.07-.1.54.07-.02-.08.09-.02-.05.19.29.12.25-.05.12.15.08-.02.56.15.1.07c.49.25.88.43,1.05.84l.27.03-.05.19.08-.02-.07.1.09.42.15.32-.05.63-.12.29.1.51-.08,1.33-.45,1.24-.67,1.02-.81.78-.65.66-2.64,2.13-.35.42-.55.29c-1.66,1.75-3.53,3.37-5.41,4.9l-.05.19-2.2,1.69-.94.98-2,1.38-1.48.92-2.19.89-1.33.36-.59.12-.56-.15-.25-.39.12-.29.35-1.3.95-1.34,1.01-.65.67-.14.63.05.71.03,1.1-.23.98-.38,1.01-.65.34-.07.12-.29,2.27-1.35,2.05-1.57.98-.82.32-.59,1.01-.65.1-.37,1.18-.68.27-.41.92-1.07,3.13-3.99.25-.49.05-.62.12-.29.16-1.35-.1-.07-.12-.15-.26-.39-.53-.42-.64-.13-.63-.05-.93.19-.57.21h-.36c-2.17.96-4.36,2.73-5.65,3.7l-.91.72-.2.3-.35.42h-.35c-.05.06-.1.09-.15.1l.04.17-.47.27-.13.2-.17.03-1.65,1.39-.77.95-.47.71-.79.43-.3.24c-.66.66-1.21,1.39-1.85,2.14l-.32.59-.89,1.24-.47.71-.75,1.03-.94,1.43-.9,1.59-.2.31-.35.86-.42.96-.67,1.02-.52,1.34.02-.05Z"/><path class="cls-3" d="M1747.71,141.54c-.86.97-1.61,2-2.38,2.95l-.13.2-.49.63-.3.68-.17.47-.4.17-.02.35-.37.34-.03.27-.34.07-1.1,1.9.03.17-.13.2-.2.74-.18.39-.17.47c-.2.74-.16,1.35.28,1.79l.32.29.47.17.54.06.1.07c.81.1,1.72-.18,2.8-.49l1.01-.65.66-.22,1.1-.23,1.28-.62.67-.14.71-.41.15-.12,2.07-1.04.34-.07,1.26-.7.54-.38.69-.49.42-.53,1.94-.84.62-.39.35-.42,1.5-.84c1.8-1.08,3.47-1.95,5.12-2.9l2.41-1.55.25-.05.47-.27.56-.29,2.04-1.21.98-.38c.94-.55,1.97-1.11,2.98-1.76l2.25-1.43-.04-.17.19.05c.17-.04.32-.15.47-.27l.45-.36.05-.19,3.18-2.06c1.14-.85,2.34-1.89,3.61-2.94l.2-.3.24-.14.51-.1.34.37-.2.3-.84,1.05-.86.53c-2.96,2.72-4.49,3.83-6.03,4.85l.05.25-.13.2-.67.14-1.18.68-.84.61-.34.07-.71.41-1.94,1.28-.07.1-.17.04-2.07,1.48-1.33.8-.08.02-.3.24-.37.34-.86.53-.24.14-.4.17-.49.19-.86.53-2.51,1.48-.69.49-.34.07-2.59,1.94-3.63,1.98-2.59,1.5-2.02,1.3-2.24,1.52-1.43.73-1.91.57-.59.12-.22.22-1.57.06-1.64-.28-.17.04-1.35-.16-.51-.33-.09-.42-.26-.39-.19-.49.08-.46c-.1-.51-.19-.93-.21-1.45l-.2-.13-.05-.25-.12-.15.24-.14-.1-.51-.08.02-.02-.08.17-.04.03-.27-.05-.25.07-.1-.02-.08.05-.63.52-.9.1-.37.15-.12.02.08.23-.58-.02-.08.29-.32.15-.12.58-1,.12-.29.54-.81.35-.86.22-.22.54-.81.47-.27.13-.2.17-.47.35-.42.64-.31c.49-.63,1.07-1.19,1.73-1.85l.05-.19.15-.12.47-.71.24-.14c.3-.24.59-.56.87-.88l.4-.61.56-.29.29-.32.08-.02,3.54-3.28.49-.63,1.66-1.31.59-.56,1.88-1.53.15-.12,2.14-1.58.52-.46.67-.58.54-.81.37-.34,1.01-.21.27-.41.24-.14.05-.19.03-.27.24-.14.05-.19.07-.1.39-.26-.02-.08.05-.19.12.15.25-.05.24-.14.17-.04.57-.21,1.01-.21.12.15.91-.72,1.35-.28.32.29c.17-.04.27.03.29.12l.53.42.04.61.61.4.19.49.09.42-.52.9-.87.88-.25.05-1.25-.09-1.24-.45-.56.29-.1.81-.42.53-.69-.38-.15-.32-1.28.62-2.19,1.77-.96.46-.82.7-.57.21-1.71,1.5-.42.09-.33.51-.51.1-.92.63-1.5,1.28-.18.39-.2-.13-1.06.83-.24.14-.81.78-.38.69-.52.46-.76.6c-.07.1-.05.19-.13.2l-.92,1.07-.72.76-.33.51-.59.56h-.05Z"/><path class="cls-3" d="M1813.66,134.28l.12.59-.23.58-.07.1-.05.63.12.15-.17.47c-.01.35.05.69.12,1.03l.19.49.32.29.42.35.47.17.46.08c.34-.07.57-.21.89-.36l.62-.39.13-.2.25-.05,2.71-2.23.32-.15.39-.25,2.62-2.65c.08-.02.15-.12.24-.14l1.44-1.53.18-.39.34-.07.42-.53.91-.72,1.07-1.19.2-.3.74-.68.07-.1,1.11-1.46c.07-.1.15-.12.24-.14l.13-.2.3-.24.42.35.07.34-.22.22-.67.58-1.02,1-.27.41-.86.97c-.69.93-1.61,2-2.55,2.99l-.62.83-.25.05-.35.42-.18.39-.15.12-.17.47-.44.44-.3.24-.42.53-.2.3-.74.68-.27.41-.47.27-.64.31-.13.2-.76.6-1.14,1.29-.22.22-.42.53-.22.22-.17.03-.22.22-.6.48-.56.29-.83.26c-.47.27-.77.51-1.03.56-.25.05-.51.1-.69.06l-.49.19-.49-.25-.22-.22c-.02-.08-.1-.07-.1-.07l-.65-.57.02.08-.44-.44-.25-1.62-.23-1.54-.04-.61-.22-.66.05-.19.45-.36.1-.37.25-.49.02-.35.38-.69.1-.37.12-.29-.04-1.05.37-1.22c.08-1.33.46-2.91.62-4.26l.06-1.42c.38-1.13.65-1.98.32-3.14l.05-.19-.04-.61-.51-.33c-.59.12-1.3.53-2.14,1.14l-1.13.94-.56.29-.82.7-.57.65-.13.2-.61.48-.49.63-1.45,1.09-.39.26c-.39.25-.67.58-.89.8l-.2.3-3.97,3.37-.3.68-.42.09-.17.47-.27.41-.45.8-.81.34-1.09,1.54-2.23,2.83-1.81,2.31-1.73,1.85-.37.34-.52.46-.4.61.05.25-.54-.06-1.21.95-.81.78-.81.34-1.5.4-.27.41-.59.12-.51-.34-.33-.72-.06-1.13.16-1.35.05-.62.43-1.32.27-.84.25-1.37.05-.19.17-.47.11-.73-.09-.86.04-1.06.53-1.25.08-1.33.13-.64.28-.76.42-.96.23-.58.22-.66,1-1.96.4-1.49.02-.36.07-.1.03-.27.24-.14.73-1.56.12-.29.1-.37.08-.02.8-2.1.15-.56.32-.59.42-.96.16-.91.23-.58.74-1.12c.28-.76.57-1.52.93-2.3l.91-2.83.5-.54c1.07-2.51,2.22-5.03,3.37-7.55l.18-.39.1-.37.18-.83.55-.73.33-.95.22-.66-.04-.61.22-.22.62-.83.3-.68.22-.66.36-1.66.26-.85.37-.78.45-.8.45-1.67v-.36l.1-.46.2-.31-.05-.25.27-.85.07-.1.08-.02.17-.47.18-.39.15-.12.05-.19.42-.97.43-.88.23-.58.15-.12-.05.19.07-.1-.02-.08.13-.64v-.36l.5-.63.15-.56.18-.39.12-.29.75-1.47.26-.85.18-.83.1-.37.06-.54.18-.39-.19-.49.03-.27.64-.31.84-1.05.28-.76.97-1.26.37-.78.23-.58-.07-.34.29-.32.19.49.52-.9.61-.48.81.54.48,1.04-.62,3.38-1.47,3.12-.59,1-1.49,2.15-.79.87-2.5,5.79.1.07-.28.76-.38,1.13-.26.85-.4.61-.62.83-2.37,5.15.07.34-.51,1.34-.22.66-.35.42-.37.78-.52,1.34-1.54,2.78.04.61-1,1.53-.55,1.17-.06.54-.85,1.85-.55,1.61-.55.73-2.7,6.54c-.52,1.34-1.03,2.68-1.63,4.03v.36l-.15.2-.18.39c-.58,1.44-1.17,2.88-1.65,4.38l-.05.19-.15.12-.48,1.51.14.67-.5,1.86-.19,1.62-.54,2.49-.28,1.64v.88l-.34,1.3.07,1.21.44.44.37.1.42-.09.97-.82.4-.61.15-.12.18-.39.54-.38.25-.49.42-.53.27-.41.82-.7.3-.24.57-.64,2.28-2.14.55-.73.28-.32.4-.61.3-.24.97-.82,2.37-2.6.12-.29.54-.81,1.21-.95.87-.88.24-.14c.79-.87,1.59-1.65,2.4-2.43l.87-1.32.59-.56.18-.39.4-.17.2-.3.57-.64.72-.33,1.83-.91.34-.07c1.33-.8,2.76-1.1,4.5-.75.19.05.37.1.41.27l.47.17.76.28.27.47.05.69-.28,1.2-.07.1c-.41,1.4-.64,2.86-.89,4.23-.06.98-.39,1.93-.62,2.94l.16.76-.53,1.25-.31,1.47h.11Z"/></g></g></g></svg>