<?xml version="1.0" encoding="UTF-8"?><svg id="_レイヤー_2" xmlns="http://www.w3.org/2000/svg" viewBox="0 0 1456.31 512"><defs><style>.cls-1,.cls-2,.cls-3,.cls-4{fill:none;}.cls-2,.cls-3,.cls-5{stroke-width:35px;}.cls-2,.cls-5{stroke:#333;}.cls-3,.cls-4{stroke:#fff;}.cls-4{stroke-width:30px;}.cls-6{fill:#fff;}.cls-7{fill:#f6c44c;}</style></defs><g id="_レイヤー_1-2"><path id="_パス_685" class="cls-5" d="M1035.18,125.1v150.88"/><line id="_線_38" class="cls-2" x1="1126.5" y1="173.66" x2="1019.48" y2="173.66"/><path id="_パス_47" class="cls-6" d="M297.5,88.29l-38.35,117.9-51.92-117.9h-40.31l51.92,117.92h40.3l-33.24,102.22h40.31l71.67-220.14h-40.38Z"/><line id="_線_37" class="cls-3" x1="17.5" y1="57.48" x2="17.5" y2="272.48"/><rect class="cls-1" y="138.98" width="134" height="134"/><rect class="cls-3" x="17.5" y="156.48" width="99" height="99"/><path id="_パス_44" class="cls-7" d="M1456.31,345.52v-35.82h-128.33v35.82h128.33Z"/><path id="_パス_46" class="cls-6" d="M575.32,274.26h34.99V105.66h66.69v-34.98h-167.74v34.98h66.05v168.6Z"/><rect class="cls-1" x="383.77" width="905.21" height="345.52"/><rect class="cls-4" x="398.77" y="15" width="875.21" height="315.52"/><path id="_パス_11925" class="cls-6" d="M51.88,458.54h37.07v2.96c.09,6.05-.71,12.08-2.38,17.9-1.66,4.99-4.33,9.58-7.84,13.48-8.33,9.37-18.92,14.06-31.78,14.06-12.17.16-23.86-4.77-32.25-13.6-8.76-8.64-13.61-20.47-13.43-32.77-.23-12.45,4.71-24.45,13.66-33.12,8.72-8.95,20.75-13.89,33.24-13.66,6.79-.05,13.5,1.42,19.64,4.3,5.81,2.87,11.52,7.51,17.14,13.94l-9.65,9.24c-7.36-9.8-16.33-14.7-26.9-14.7-8.98-.21-17.64,3.35-23.88,9.82-6.43,6.43-9.65,14.49-9.65,24.17s3.58,18.23,10.75,24.69c6.7,6,13.96,9.01,21.79,9.01,6.61.02,12.99-2.38,17.96-6.74,5.31-4.53,8.27-9.96,8.89-16.27h-22.37v-12.73ZM203.08,428.27h-35.96v21.56h34.92v12.72h-34.92v29.98h35.97v12.73h-49.51v-89.71h49.51v12.72ZM268.47,505.26v-95.82l65.43,68.45v-62.35h13.54v95.18l-65.43-68.27v62.81h-13.54ZM466.04,428.27h-35.97v21.56h34.92v12.72h-34.92v29.98h35.97v12.73h-49.51v-89.71h49.51v12.72ZM561.81,467.03l27.77,38.23h-16.56l-25.62-36.72h-2.44v36.72h-13.54v-89.71h15.86c11.85,0,20.41,2.23,25.68,6.68,5.81,4.96,8.72,11.51,8.72,19.64.14,5.93-1.79,11.73-5.46,16.39-3.6,4.55-8.72,7.66-14.41,8.77h0ZM544.96,456.74h4.3c12.82,0,19.23-4.9,19.23-14.7,0-9.18-6.24-13.77-18.71-13.77h-4.82v28.47ZM703.36,483.47h-38.41l-9.99,21.79h-14.58l44.39-95.35,42.82,95.35h-14.82l-9.41-21.79ZM697.84,470.75l-13.31-30.5-13.95,30.5h27.25ZM806.16,428.27v76.99h-13.54v-76.99h-20.62v-12.72h54.73v12.72h-20.57ZM899.96,415.55v89.71h-13.54v-89.71h13.54ZM973.65,415.55l24.81,62.17,25.16-62.17h14.82l-40.27,96.45-39.34-96.45h14.82ZM1146.7,428.27h-35.97v21.56h34.92v12.72h-34.92v29.98h35.97v12.73h-49.51v-89.71h49.51v12.72ZM1349.1,483.47h-38.41l-9.99,21.79h-14.58l44.39-95.35,42.82,95.35h-14.82l-9.41-21.79ZM1343.58,470.75l-13.3-30.5-13.95,30.5h27.25ZM1445.68,415.55v89.71h-13.54v-89.71h13.54Z"/><rect id="_長方形_3359" class="cls-6" x="1017" y="75.26" width="36" height="201"/><rect id="_長方形_3360" class="cls-6" x="1019.5" y="155.76" width="122.14" height="36"/><rect id="_長方形_3361" class="cls-6" x="1105.64" y="155.76" width="36" height="120.5"/><rect id="_長方形_3362" class="cls-6" x="854.5" y="121.76" width="122.14" height="36"/><rect id="_長方形_3363" class="cls-6" x="854.5" y="151.69" width="36" height="122.14"/><rect id="_長方形_3364" class="cls-6" x="854.5" y="237.83" width="122.14" height="36"/><rect id="_長方形_3366" class="cls-6" x="692.5" y="121.76" width="36" height="152.07"/><rect id="_長方形_3367" class="cls-6" x="692.5" y="121.76" width="125.07" height="36"/><rect id="_長方形_3368" class="cls-6" x="692.5" y="176.76" width="125.07" height="36"/><rect id="_長方形_3370" class="cls-6" x="692.5" y="237.83" width="125.07" height="36"/><rect id="_長方形_3369" class="cls-6" x="781.57" y="121.76" width="36" height="91"/></g></svg>