<svg xmlns="http://www.w3.org/2000/svg" xmlns:xlink="http://www.w3.org/1999/xlink" width="226.146" height="181.947" viewBox="0 0 226.146 181.947">
  <defs>
    <linearGradient id="linear-gradient" x1="0.738" y1="0.633" x2="0.118" y2="0.202" gradientUnits="objectBoundingBox">
      <stop offset="0" stop-color="#f2f8fc"/>
      <stop offset="1" stop-color="#94c7f2"/>
    </linearGradient>
    <linearGradient id="linear-gradient-2" x1="-6.171" y1="-7.222" x2="-5.707" y2="-7.461" gradientUnits="objectBoundingBox">
      <stop offset="0" stop-color="#fff"/>
      <stop offset="1" stop-color="#94c7f2"/>
    </linearGradient>
  </defs>
  <g id="グループ_18616" data-name="グループ 18616" transform="translate(-540.525 -514.104)">
    <g id="グループ_18294" data-name="グループ 18294" transform="translate(575.715 547.379)">
      <g id="グループ_18293" data-name="グループ 18293" transform="translate(13.996 92.247)">
        <rect id="長方形_4758" data-name="長方形 4758" width="7.073" height="41.796" transform="translate(30.704)" fill="#c8c7cd"/>
        <g id="グループ_18288" data-name="グループ 18288" transform="translate(1.798 39.545)">
          <path id="パス_24922" data-name="パス 24922" d="M927.867,1578.456l-6.409-8.87a7.412,7.412,0,0,0-6.036-3.119H878.477a7.4,7.4,0,0,0-6.773,4.418l-3.411,7.743-4.119-1.815,3.41-7.743a11.906,11.906,0,0,1,10.892-7.1h36.944a11.92,11.92,0,0,1,9.708,5.016l6.921,9.758Z" transform="translate(-864.175 -1561.965)"/>
        </g>
        <g id="グループ_18289" data-name="グループ 18289" transform="translate(30.865 41.796)">
          <rect id="長方形_4759" data-name="長方形 4759" width="6.35" height="13.825"/>
        </g>
        <g id="グループ_18290" data-name="グループ 18290" transform="translate(0 51.039)">
          <path id="長方形_4760" data-name="長方形 4760" d="M4.662,0h0A4.662,4.662,0,0,1,9.324,4.662v.723a0,0,0,0,1,0,0H0a0,0,0,0,1,0,0V4.662A4.662,4.662,0,0,1,4.662,0Z"/>
        </g>
        <g id="グループ_18291" data-name="グループ 18291" transform="translate(29.579 51.039)">
          <path id="パス_24923" data-name="パス 24923" d="M1045.187,1634.928h0a4.662,4.662,0,0,0-4.662,4.662v.723h9.324v-.723A4.662,4.662,0,0,0,1045.187,1634.928Z" transform="translate(-1040.525 -1634.928)"/>
        </g>
        <g id="グループ_18292" data-name="グループ 18292" transform="translate(61.97 51.039)">
          <path id="パス_24924" data-name="パス 24924" d="M1250.811,1634.928h0a4.662,4.662,0,0,0-4.662,4.662v.723h9.324v-.723A4.662,4.662,0,0,0,1250.811,1634.928Z" transform="translate(-1246.149 -1634.928)"/>
        </g>
        <rect id="長方形_4761" data-name="長方形 4761" width="10.811" height="7.837" transform="translate(28.835 32.954)"/>
      </g>
      <path id="パス_24925" data-name="パス 24925" d="M865,1289.485H943.6a3.054,3.054,0,0,0,3.054-3.054h0a3.054,3.054,0,0,0-3.054-3.054H865a3.054,3.054,0,0,0-3.054,3.054h0A3.054,3.054,0,0,0,865,1289.485Z" transform="translate(-846.499 -1195.47)"/>
      <path id="パス_24926" data-name="パス 24926" d="M1104.068,814.539h0a6.149,6.149,0,0,1-6.873-5.328l-9.745-76.949a6.149,6.149,0,0,1,5.328-6.873h0a6.149,6.149,0,0,1,6.873,5.328l9.745,76.949A6.149,6.149,0,0,1,1104.068,814.539Z" transform="translate(-1036.442 -725.34)" fill="#f74537"/>
      <path id="パス_24927" data-name="パス 24927" d="M798.044,725.654H849l11.29,89.149H809.334Z" transform="translate(-792.667 -725.604)" fill="#f74537"/>
      <rect id="長方形_4762" data-name="長方形 4762" width="98.019" height="15.432" rx="7.716" transform="translate(9.696 74.725)" fill="#bd3132"/>
      <rect id="長方形_4763" data-name="長方形 4763" width="45.614" height="15.432" rx="7.716" transform="translate(9.696 74.725)" fill="#972f30"/>
      <path id="パス_24928" data-name="パス 24928" d="M780.578,814.539h0a6.149,6.149,0,0,1-6.873-5.328l-9.745-76.949a6.149,6.149,0,0,1,5.327-6.873h0a6.149,6.149,0,0,1,6.873,5.328l9.745,76.949A6.149,6.149,0,0,1,780.578,814.539Z" transform="translate(-763.911 -725.34)" fill="#972f30"/>
    </g>
    <g id="グループ_18302" data-name="グループ 18302" transform="translate(595.747 514.103)">
      <g id="グループ_18295" data-name="グループ 18295" transform="translate(36.323 35.706)">
        <path id="パス_24929" data-name="パス 24929" d="M1394.226,989.12l8.486-.358a3.141,3.141,0,0,1,2.448,1.017l5.233,5.715a.853.853,0,0,1-.4,1.4h0a.851.851,0,0,1-.545-.03l-1.38-.552-.2.045a7.3,7.3,0,0,1-3.075.025l-.2-.041-.512.138a3.941,3.941,0,0,1-2.544-.168h0l-1.948-1.258-2.4-.18-3.356-.929Z" transform="translate(-1350.96 -949.693)" fill="url(#linear-gradient)"/>
        <path id="パス_24930" data-name="パス 24930" d="M1126.4,740.764l-4.7,36.785a5.52,5.52,0,0,0,4.914,6.191l40.7,4.161,1.466-8.442-36.442-3.883L1136.9,742.1Z" transform="translate(-1121.657 -740.764)" fill="#002b6a"/>
      </g>
      <g id="グループ_18296" data-name="グループ 18296" transform="translate(55.477 92.533)">
        <path id="パス_24931" data-name="パス 24931" d="M1381.183,1639.814v4.616h3.019v-2.308l2.033,2.308h7.331a1.786,1.786,0,0,0-1.787-1.787h-3.019l-.981-2.829Z" transform="translate(-1359.455 -1555.016)" fill="#002b6a"/>
        <path id="パス_24932" data-name="パス 24932" d="M1243.9,1101.511h24.729a7.989,7.989,0,0,1,7.972,8.515l-5.022,76.283h-6.6s-8.026-60.589-2.521-69.24l-19.207-.053Z" transform="translate(-1243.25 -1101.511)" fill="#002b6a"/>
      </g>
      <g id="グループ_18297" data-name="グループ 18297" transform="translate(10.718 92.329)">
        <path id="パス_24933" data-name="パス 24933" d="M960.87,1100.216h50.323a9.739,9.739,0,0,1,9.654,11.021l-9.83,73.981h-6.6s-4.7-61.438,3.159-69.293H962.119a14.421,14.421,0,0,1-1.449-15.315Z" transform="translate(-959.118 -1100.216)" fill="#002b6a"/>
        <path id="パス_24934" data-name="パス 24934" d="M1246.693,1639.814v4.616h3.019v-2.308l2.033,2.308h7.332a1.787,1.787,0,0,0-1.787-1.787h-3.019l-.981-2.829Z" transform="translate(-1201.392 -1554.812)" fill="#002b6a"/>
      </g>
      <path id="パス_24935" data-name="パス 24935" d="M912,669.766l9.112,41.75L915.863,741.4l35.161,3.273,3.331-32.079,5.92-37.735L945.691,662.32l-14.812-1.379Z" transform="translate(-908.707 -637.81)" fill="#002b6a"/>
      <g id="グループ_18298" data-name="グループ 18298" transform="translate(22.187 23.133)">
        <path id="パス_24936" data-name="パス 24936" d="M1031.925,660.95l11.844,38.337,3.243-6.886a34.625,34.625,0,0,0-.275-30.072h0Z" transform="translate(-1031.925 -660.95)" fill="#fff"/>
        <path id="パス_24937" data-name="パス 24937" d="M1094.293,728.9l1.879.937,1.9-.585.662,3.231-1.8,1.5.531,16.428-2.884,6.125-2.114-6.841,2.228-15.8-2.458-2.034Z" transform="translate(-1082.733 -718.2)" fill="#e30613"/>
      </g>
      <g id="グループ_18300" data-name="グループ 18300" transform="translate(24.755 0)">
        <g id="グループ_18299" data-name="グループ 18299">
          <path id="パス_24938" data-name="パス 24938" d="M1113.875,518.467l.722-1.927a3.756,3.756,0,0,1,5.107-2.084,32.7,32.7,0,0,0,7.272,2.65,5.9,5.9,0,0,0,5.488-2.329s3.39,4.487-2.363,6.241S1113.875,518.467,1113.875,518.467Z" transform="translate(-1103.533 -514.103)" fill="#002b6a"/>
          <path id="パス_24939" data-name="パス 24939" d="M1098.255,530.523s-4.979-6.6-10.4-3.39,1.266,15.8-2.865,20.339C1084.987,547.472,1107.516,542.3,1098.255,530.523Z" transform="translate(-1079.196 -524.338)" fill="#002b6a"/>
          <path id="パス_24940" data-name="パス 24940" d="M1071.232,604.226l-6.306-.953-8.827,8.085-7.877-9.028,14.168-11.7Z" transform="translate(-1048.222 -578.575)" fill="url(#linear-gradient-2)"/>
          <path id="パス_24941" data-name="パス 24941" d="M1145.352,549.363s1.049,3.573.755,4.4-.866,1.224-.83,1.583c.025.254,1,3.178,1.57,4.864a.883.883,0,0,1-.8,1.164c-.544.024-1.094.1-1.221.32-.267.455.252,1.184.113,1.421a.775.775,0,0,1-.459.3s.36.593.03.95a1.215,1.215,0,0,0-.455.871c-.035.387.545,3.152-1.778,2.97s-9.278-2.174-10.187-4.482,3.848-15.986,3.848-15.986Z" transform="translate(-1118.783 -542.447)" fill="#fff"/>
          <path id="パス_24942" data-name="パス 24942" d="M1195.7,590.317s-.147.83-.562,1.059-2.4-.893-2.369-1.015a7.269,7.269,0,0,1,1.7-.188A1.993,1.993,0,0,1,1195.7,590.317Z" transform="translate(-1169.996 -578.172)" fill="#002b6a"/>
          <path id="パス_24943" data-name="パス 24943" d="M1126.9,577.8l-2.566-2.118a1.886,1.886,0,0,1-.254-2.655h0a1.886,1.886,0,0,1,2.655-.254l2.566,2.118Z" transform="translate(-1111.767 -563.164)" fill="#fff"/>
          <path id="パス_24944" data-name="パス 24944" d="M1144.743,538.024s-1.438,9.939-3.2,10.363.478-3.577-1.268-5.412-1.178-6.589-1.178-6.589Z" transform="translate(-1124.705 -532.876)" fill="#002b6a"/>
        </g>
      </g>
      <g id="グループ_18301" data-name="グループ 18301" transform="translate(0 31.956)">
        <path id="パス_24945" data-name="パス 24945" d="M1180.389,989.12l8.486-.358a3.14,3.14,0,0,1,2.448,1.017l5.234,5.715a.853.853,0,0,1-.4,1.4h0a.852.852,0,0,1-.545-.03l-1.38-.552-.2.045a7.3,7.3,0,0,1-3.076.025l-.2-.041-.512.138a3.942,3.942,0,0,1-2.544-.168h0l-1.948-1.258-2.4-.18-3.356-.929Z" transform="translate(-1134.486 -945.944)" fill="url(#linear-gradient)"/>
        <path id="パス_24946" data-name="パス 24946" d="M894.374,716.964,891.1,757.447a6.307,6.307,0,0,0,5.753,6.793l42.525,3.609,1.466-8.442-39.695-4.088,3.724-33.889Z" transform="translate(-891.078 -716.964)" fill="#002b6a"/>
      </g>
    </g>
    <g id="グループ_18308" data-name="グループ 18308" transform="translate(540.525 598.201)">
      <path id="パス_24958" data-name="パス 24958" d="M1870.674,1165.992h5.465l-6.9-94.076h-5.465Z" transform="translate(-1655.328 -1068.143)" fill="#1a5091"/>
      <path id="パス_24959" data-name="パス 24959" d="M1615.064,1165.992h5.465l-6.9-94.076h-5.465Z" transform="translate(-1439.984 -1068.143)" fill="#012754"/>
      <path id="パス_24960" data-name="パス 24960" d="M816.116,1165.992h-5.465l6.9-94.076h5.465Z" transform="translate(-768.098 -1068.143)" fill="#1a5091"/>
      <path id="パス_24961" data-name="パス 24961" d="M577.322,1165.992h-5.465l6.9-94.076h5.465Z" transform="translate(-566.922 -1068.143)" fill="#012754"/>
      <path id="パス_24962" data-name="パス 24962" d="M544.3,1055.509H762.9a3.773,3.773,0,0,0,3.773-3.773h0a3.773,3.773,0,0,0-3.773-3.774H544.3a3.774,3.774,0,0,0-3.773,3.774h0A3.774,3.774,0,0,0,544.3,1055.509Z" transform="translate(-540.525 -1047.962)" fill="#1a5091"/>
      <path id="パス_24963" data-name="パス 24963" d="M540.525,1051.735a3.773,3.773,0,0,0,3.773,3.775h58.813a3.774,3.774,0,1,0,0-7.548H544.3A3.774,3.774,0,0,0,540.525,1051.735Z" transform="translate(-540.525 -1047.962)" fill="#002b6a"/>
    </g>
    <g id="グループ_18310" data-name="グループ 18310" transform="translate(642.756 568.157)">
      <g id="グループ_18309" data-name="グループ 18309">
        <path id="パス_24964" data-name="パス 24964" d="M1374.7,886.371h-41.969a.279.279,0,0,1-.268-.356l8.227-28.571a.279.279,0,0,1,.268-.2h41.969a.279.279,0,0,1,.268.356l-8.227,28.571A.279.279,0,0,1,1374.7,886.371Z" transform="translate(-1309.928 -857.242)" fill="#fff"/>
        <path id="パス_24965" data-name="パス 24965" d="M1381.52,886.371h-41.969a.279.279,0,0,1-.268-.356l8.227-28.571a.279.279,0,0,1,.268-.2h41.969a.279.279,0,0,1,.268.356l-8.227,28.571A.279.279,0,0,1,1381.52,886.371Z" transform="translate(-1315.677 -857.242)" fill="#a7a9ac"/>
        <path id="パス_24966" data-name="パス 24966" d="M1379.261,886.371h-41.969a.279.279,0,0,1-.268-.356l8.227-28.571a.279.279,0,0,1,.268-.2h41.969a.279.279,0,0,1,.268.356l-8.227,28.571A.279.279,0,0,1,1379.261,886.371Z" transform="translate(-1313.774 -857.242)" fill="#a7a9ac"/>
        <rect id="長方形_4781" data-name="長方形 4781" width="66.137" height="0.915" rx="0.458" transform="translate(0 29.129)" fill="#a7a9ac"/>
      </g>
      <ellipse id="楕円形_619" data-name="楕円形 619" cx="3.886" cy="3.519" rx="3.886" ry="3.519" transform="translate(46.571 18.044) rotate(-62.082)" fill="#fff"/>
    </g>
  </g>
</svg>
