<svg xmlns="http://www.w3.org/2000/svg" width="6192.077" height="1021.084" viewBox="0 0 6192.077 1021.084"><g id="&#x30B0;&#x30EB;&#x30FC;&#x30D7;_18326" data-name="&#x30B0;&#x30EB;&#x30FC;&#x30D7; 18326" transform="translate(19718 7944.827)"><g id="&#x30B0;&#x30EB;&#x30FC;&#x30D7;_1207" data-name="&#x30B0;&#x30EB;&#x30FC;&#x30D7; 1207" transform="translate(-21907.947 -25177.141)"><g id="&#x30B0;&#x30EB;&#x30FC;&#x30D7;_1138" data-name="&#x30B0;&#x30EB;&#x30FC;&#x30D7; 1138" transform="translate(2189.947 17232.313)"><g id="&#x30B0;&#x30EB;&#x30FC;&#x30D7;_1136" data-name="&#x30B0;&#x30EB;&#x30FC;&#x30D7; 1136" transform="translate(0 0)"><g id="&#x30B0;&#x30EB;&#x30FC;&#x30D7;_1134" data-name="&#x30B0;&#x30EB;&#x30FC;&#x30D7; 1134" transform="translate(0)"><g id="&#x30B0;&#x30EB;&#x30FC;&#x30D7;_1131" data-name="&#x30B0;&#x30EB;&#x30FC;&#x30D7; 1131"><g id="&#x30B0;&#x30EB;&#x30FC;&#x30D7;_1127" data-name="&#x30B0;&#x30EB;&#x30FC;&#x30D7; 1127" transform="translate(0 0)"><g id="&#x30B0;&#x30EB;&#x30FC;&#x30D7;_1114" data-name="&#x30B0;&#x30EB;&#x30FC;&#x30D7; 1114" transform="translate(0 0)"><path id="&#x30D1;&#x30B9;_24163" data-name="&#x30D1;&#x30B9; 24163" d="M419.792,1634.395q-3.678.157-7.313.572c-2.424.295-4.833.71-7.17.987a84.455,84.455,0,0,0-13.761,3.1c-1.111.346-2.207.727-3.3,1.108-1.068.346-2.135.71-3.188,1.109-2.12.779-4.183,1.646-6.188,2.615a62.89,62.89,0,0,0-11.237,6.962,128.352,128.352,0,0,1-22.33,13.421,115.165,115.165,0,0,1-11.641,4.781c-3.823,1.385-7.559,2.58-11.107,3.62-1.76.52-3.491,1-5.136,1.437-1.658.363-3.231.71-4.7,1.022-2.986.624-5.655,1.108-7.876,1.472-4.457.727-7.14,1.022-7.14,1.022a149.181,149.181,0,0,0,16.358,11.343c4.5,2.494,9.217,4.953,14.093,7.239.692.312,1.385.641,2.091.952.952.433,1.89.849,2.842,1.265.043.017.072.034.115.052,6.693,2.6,13.6,5.091,20.628,7.118,7.126,1.8,14.295,3.5,21.421,4.658a144.852,144.852,0,0,0,21.869,1.559,135.746,135.746,0,0,0,20.238-2.165,119.813,119.813,0,0,0,18.031-5.542,59.994,59.994,0,0,0,8.049-3.844c2.568-1.4,5.02-2.91,7.343-4.469q3.484-2.363,6.592-4.935c1.039-.865,2.034-1.732,3-2.615.966-.936,1.9-1.906,2.813-2.875A70.488,70.488,0,0,0,472.4,1673.1a61.388,61.388,0,0,0,8.468-27.623l.058-.865-1.255-.537A145.679,145.679,0,0,0,419.792,1634.395Z" transform="translate(-63.3 -763.371)" fill="#f5c04b"></path><path id="&#x30D1;&#x30B9;_24164" data-name="&#x30D1;&#x30B9; 24164" d="M597.293,1630.466a67.255,67.255,0,0,0,29.6-7.031,58.082,58.082,0,0,0,5.958-3.463,53.489,53.489,0,0,0,5.366-4.243,52.084,52.084,0,0,0,14.54-22.029l.275-.762-1.01-.9a147.048,147.048,0,0,0-25-17.8,104.466,104.466,0,0,0-13.257-6.789,130.225,130.225,0,0,0-13.43-5.351c-4.558-1.368-8.987-2.771-13.444-3.741-2.221-.467-4.443-.866-6.65-1.16-1.111-.156-2.221-.277-3.318-.381-1.082-.139-2.149-.278-3.231-.363a65.408,65.408,0,0,0-12.622.017,57.849,57.849,0,0,0-6.059.953,45.153,45.153,0,0,0-5.712,1.438,101.508,101.508,0,0,1-11.5,2.944c-1.962.381-3.952.727-5.943,1.022-2,.312-4,.536-5.944.658a163.087,163.087,0,0,1-22.517.069c-6.765-.623-12.666-1.558-16.878-2.338-4.2-.762-6.693-1.368-6.693-1.368a185.918,185.918,0,0,0,12.1,15.552c2.207,2.667,4.674,5.057,7.155,7.534q3.743,3.688,7.732,7.326c1.326,1.178,2.64,2.425,4.039,3.55,1.4,1.109,2.813,2.234,4.227,3.36,2.841,2.217,5.727,4.4,8.641,6.512,1.471,1.056,2.914,2.147,4.414,3.134,1.515.952,3.029,1.922,4.544,2.875q4.565,2.831,9.131,5.49c12.881,7.239,25.777,11.9,37.938,13.941a70.11,70.11,0,0,0,8.915,1.177C591.61,1630.484,594.495,1630.535,597.293,1630.466Z" transform="translate(-349.307 -734.123)" fill="#f5c04b"></path><path id="&#x30D1;&#x30B9;_24165" data-name="&#x30D1;&#x30B9; 24165" d="M724.4,1477.37c1.269.52,2.568.952,3.837,1.385a80.538,80.538,0,0,0,14.728,3.533c19.1,2.269,34.5-4.26,44.01-17.768l.433-.607-.707-1.142a160.74,160.74,0,0,0-39.568-44.7,103.607,103.607,0,0,0-11.237-7.932c-1.9-1.177-3.88-2.217-5.77-3.256q-2.835-1.611-5.7-2.909a65.34,65.34,0,0,0-11.5-4.087,50.975,50.975,0,0,0-11.136-1.749,98.818,98.818,0,0,1-11.108-1.039c-1.875-.277-3.765-.623-5.64-.987-1.832-.416-3.65-.883-5.468-1.368a158.067,158.067,0,0,1-20.411-7.17c-5.986-2.736-11.122-5.437-14.757-7.481-3.635-2.026-5.77-3.36-5.77-3.36,2.062,5.784,4.573,11.794,7.458,17.907.722,1.524,1.443,3.083,2.236,4.589.837,1.49,1.659,3,2.51,4.5,1.7,3.013,3.476,6.044,5.337,9.057a194.634,194.634,0,0,0,12.175,17.578c2.179,2.823,4.284,5.715,6.636,8.365,2.308,2.667,4.659,5.3,7,7.862,2.481,2.685,4.919,5.3,7.472,7.672,2.582,2.356,5.179,4.572,7.76,6.668s5.164,4.052,7.732,5.888c2.611,1.784,5.28,3.343,7.876,4.832,2.611,1.472,5.207,2.806,7.761,4.018C721.876,1476.261,723.145,1476.833,724.4,1477.37Z" transform="translate(-583 -666.908)" fill="#f5c04b"></path><path id="&#x30D1;&#x30B9;_24166" data-name="&#x30D1;&#x30B9; 24166" d="M821.82,1280.776c1.024.832,2.048,1.611,3.058,2.373,1.039.744,2.106,1.437,3.144,2.113q3.138,2,6.232,3.585a59.863,59.863,0,0,0,12.088,4.763,44.1,44.1,0,0,0,11.627,1.265,34.84,34.84,0,0,0,20.065-7l.52-.4-.346-1.281a190.96,190.96,0,0,0-10.544-28.524c-2.265-4.416-4.356-8.936-6.823-13.11-2.423-4.226-5.121-8.174-7.688-12.105a110.22,110.22,0,0,0-8.4-10.859,105.255,105.255,0,0,0-8.857-9.4,78.8,78.8,0,0,0-9.448-7.481,48.316,48.316,0,0,0-9.651-5.265c-13.2-5.057-26.167-14.7-36.091-23.4-4.775-4.381-8.8-8.486-11.613-11.482s-4.443-4.867-4.443-4.867c1.8,23.553,10.818,52.319,23.08,76.859a145.728,145.728,0,0,0,21.854,32.731A125.84,125.84,0,0,0,821.82,1280.776Z" transform="translate(-752.95 -585.603)" fill="#f5c04b"></path><path id="&#x30D1;&#x30B9;_24167" data-name="&#x30D1;&#x30B9; 24167" d="M871.523,1056.686a77.9,77.9,0,0,0,9.131,11.447c6.463,6.564,13.142,11.1,19.748,13.491a31.77,31.77,0,0,0,19.777.606l.548-.173v-1.264c-.015-2.459-.145-4.884-.26-7.326q-.129-3.715-.432-7.377c-.4-4.884-1.169-9.7-2.02-14.461a131.911,131.911,0,0,0-2.985-14.115c-.577-2.3-1.341-4.555-1.947-6.823-.635-2.251-1.313-4.468-2.063-6.65a126.747,126.747,0,0,0-5.049-12.573,102.329,102.329,0,0,0-5.741-11.412,86.955,86.955,0,0,0-6.795-9.837,52.312,52.312,0,0,0-7.443-7.9c-2.64-2.234-5.236-4.693-7.775-7.308a103.9,103.9,0,0,1-7.255-8.226,204.565,204.565,0,0,1-12.146-17.093c-.866-1.385-1.688-2.7-2.481-3.966-.75-1.3-1.442-2.546-2.106-3.706-1.328-2.355-2.452-4.486-3.39-6.252-1.847-3.568-2.885-5.75-2.885-5.75-3.693,21.544-1.962,50,3.318,75.889.707,3.395,1.486,6.72,2.308,9.958.418,1.611.836,3.221,1.283,4.8.462,1.559,1,3.1,1.515,4.624a176.206,176.206,0,0,0,6.852,17.041A113.981,113.981,0,0,0,871.523,1056.686Z" transform="translate(-845.986 -499.557)" fill="#f5c04b"></path><path id="&#x30D1;&#x30B9;_24168" data-name="&#x30D1;&#x30B9; 24168" d="M868.718,811.349a122.708,122.708,0,0,0,4.01,15.482,103.33,103.33,0,0,0,5.568,13.2c8.367,16.019,19.7,25.042,31.966,25.942l.533.035.289-1.126a163.817,163.817,0,0,0,4.558-54,120.72,120.72,0,0,0-1.53-12.9c-.389-2.112-.779-4.174-1.183-6.182-.418-2.026-.909-4-1.428-5.94a96.949,96.949,0,0,0-3.824-11.031,56.374,56.374,0,0,0-4.947-9.491c-1.861-2.857-3.664-5.923-5.352-9.075-1.63-3.152-3.159-6.408-4.6-9.7-1.428-3.274-2.755-6.6-3.967-9.837s-2.193-6.374-3.131-9.369c-1.817-5.958-3.274-11.275-4.111-15.05-.837-3.758-1.255-6.044-1.255-6.044-1,2.269-1.991,4.642-2.9,7.135q-1.321,3.741-2.525,7.776t-2.323,8.261c-.707,2.84-1.3,5.767-1.89,8.728s-1.154,5.975-1.658,9.005-.851,6.148-1.226,9.231c-.36,3.1-.692,6.217-.981,9.317-.274,3.117-.39,6.252-.548,9.335q-.216,4.883-.2,9.612c0,3.152.216,6.269.418,9.3A129.955,129.955,0,0,0,868.718,811.349Z" transform="translate(-853.984 -415.73)" fill="#f5c04b"></path><path id="&#x30D1;&#x30B9;_24169" data-name="&#x30D1;&#x30B9; 24169" d="M819.588,624.825c.447,2.13.952,4.156,1.529,6.113.606,1.975,1.27,3.862,2.005,5.663a53.817,53.817,0,0,0,5.005,9.7,33.8,33.8,0,0,0,13.733,12.417l.462.208.533-.9c8.323-13.976,13.934-30.324,16.776-46.482a111.263,111.263,0,0,0,1.615-12.019c.275-4,.548-7.828.462-11.655a90.767,90.767,0,0,0-.88-11.067,59.874,59.874,0,0,0-2.265-10.1c-1.01-3.152-1.919-6.443-2.726-9.8-.779-3.36-1.385-6.737-1.933-10.131a178.146,178.146,0,0,1-2.078-19.362c-.317-5.871-.39-11.014-.375-14.686.044-3.637.188-5.767.188-5.767-11.063,13.49-21.219,34.758-27.783,56.319-.865,2.823-1.659,5.646-2.365,8.416-.722,2.789-1.241,5.611-1.76,8.365a129.51,129.51,0,0,0-2,16.141,130.87,130.87,0,0,0-.029,15.032A108.1,108.1,0,0,0,819.588,624.825Z" transform="translate(-769.167 -341.065)" fill="#f5c04b"></path><path id="&#x30D1;&#x30B9;_24170" data-name="&#x30D1;&#x30B9; 24170" d="M713.591,479.2l.361.346.692-.606a113.7,113.7,0,0,0,25.662-35.485,100.268,100.268,0,0,0,4.14-10.149,86.046,86.046,0,0,0,3.072-10.183,69.091,69.091,0,0,0,1.947-19.778c-.2-3.117-.288-6.356-.245-9.576.072-3.2.26-6.408.52-9.594a172.007,172.007,0,0,1,2.366-17.821c1.009-5.316,2.062-9.871,2.856-13.11.4-1.628.735-2.909.995-3.758.231-.762.361-1.212.375-1.316-12.68,8.451-26.268,23.934-36.856,40.767a124.92,124.92,0,0,0-7.4,13.4,140.338,140.338,0,0,0-5.409,13.526c-2.827,9.109-4.6,17.7-4.861,25.874a62.013,62.013,0,0,0,2.553,21.8A37.594,37.594,0,0,0,713.591,479.2Z" transform="translate(-591.377 -281.578)" fill="#f5c04b"></path><path id="&#x30D1;&#x30B9;_24171" data-name="&#x30D1;&#x30B9; 24171" d="M543.806,343.623l.736-.311c11.626-4.693,22.171-13.093,30.8-22.687a85.342,85.342,0,0,0,10.935-15.6,57.743,57.743,0,0,0,6.145-16.8,110.815,110.815,0,0,1,4.471-16.816,148.088,148.088,0,0,1,5.972-14.98c4.082-8.728,7.66-14.737,7.66-14.737-12.954,3.481-28.273,12.746-41.313,24.054-13.747,11.829-23.022,26.74-27.379,40.56-4.226,14.1-3.65,27,1.745,36.888Z" transform="translate(-343.826 -241.688)" fill="#f5c04b"></path><path id="&#x30D1;&#x30B9;_24172" data-name="&#x30D1;&#x30B9; 24172" d="M403.967,1501.241a97.761,97.761,0,0,0-6.606-12.763c-.62-1.005-1.255-2.009-1.919-3-.649-1.039-1.313-2.078-2.006-3.083q-2.034-3.04-4.269-5.922c-1.471-1.923-3.015-3.776-4.6-5.577-1.587-1.784-3.217-3.5-4.89-5.351a102.066,102.066,0,0,0-10.574-9.906,98.315,98.315,0,0,0-11.5-8.919,106.674,106.674,0,0,0-12.39-7.741c-16.373-8.989-32.9-17.734-47.516-21.181,0,0,.707,2.165,1.918,5.94.592,1.9,1.313,4.226,2.135,6.892.4,1.334.837,2.771,1.3,4.278.476,1.455.981,3,1.5,4.589,1.024,3.221,2.135,6.737,3.3,10.443s2.337,7.793,3.635,11.707c2.525,7.932,5.077,16.661,7.314,25.319a61.056,61.056,0,0,0,4.861,12.469,66.943,66.943,0,0,0,3.462,5.906c.635.953,1.284,1.922,1.976,2.857.693.9,1.414,1.767,2.149,2.633a78.659,78.659,0,0,0,10.04,9.7,44.3,44.3,0,0,0,5.8,4.052q3.03,1.87,6.232,3.481c17.123,8.573,38.27,10.166,56.358,2.58l1.169-.467-.044-.849A83.868,83.868,0,0,0,403.967,1501.241Z" transform="translate(6.777 -682.293)" fill="#f5c04b"></path><path id="&#x30D1;&#x30B9;_24173" data-name="&#x30D1;&#x30B9; 24173" d="M463.337,1338.793s.158,2.2.433,6.044c.26,3.862.562,9.4.88,16.124.418,6.529.894,14.2,1.211,22.5.072,2.1.173,4.174.274,6.235.087,2.1.173,4.191.26,6.321.145,4.26.217,8.59.2,12.919a54.082,54.082,0,0,0,1.4,13.058,75.913,75.913,0,0,0,4.183,12.954c.447,1.057.924,2.148,1.428,3.187.519,1.022,1.067,2.043,1.63,3.048,1.154,2.026,2.381,4.017,3.707,5.992a69.4,69.4,0,0,0,9.03,11.1,84.793,84.793,0,0,0,10.92,9.4,97.347,97.347,0,0,0,12.376,7.118c8.684,3.706,17.844,6.062,26.975,5.733l1.183-.017.158-.8a80.626,80.626,0,0,0,.779-27.623c-.317-2.321-.721-4.607-1.2-6.91-.447-2.356-.981-4.711-1.587-7.031a118.193,118.193,0,0,0-4.486-13.7,158.721,158.721,0,0,0-30.97-49.721C489.244,1360.719,476.088,1346.881,463.337,1338.793Z" transform="translate(-227.15 -652.695)" fill="#f5c04b"></path><path id="&#x30D1;&#x30B9;_24174" data-name="&#x30D1;&#x30B9; 24174" d="M654.7,1308.068c-.577-2.373-1.211-4.745-1.933-7.066-.707-2.355-1.515-4.624-2.323-6.945-.764-2.372-1.6-4.71-2.51-7.031q-1.364-3.455-2.943-6.806c-1.024-2.269-2.019-4.624-3.144-6.875-8.6-17.18-17.555-34.29-27.436-45.876,0,0-.346,2.077-.938,5.68-.62,3.6-1.558,8.763-2.769,15-1.126,6.165-2.337,13.248-3.909,20.921-.765,3.758-1.573,7.671-2.381,11.637-.822,3.914-1.73,7.863-2.712,11.776a57.938,57.938,0,0,0-1.76,12.383,78.346,78.346,0,0,0,.88,13.075q.52,3.351,1.3,6.753c.52,2.252,1.241,4.416,1.991,6.633a103.068,103.068,0,0,0,5.54,13.145c8.943,16.938,23.729,31.26,40.2,37.356l1.068.38.346-.658c7.732-14.807,9.463-33.614,7.328-52.249a127.247,127.247,0,0,0-2.265-14.148C655.78,1312.778,655.231,1310.406,654.7,1308.068Z" transform="translate(-430.816 -610.989)" fill="#f5c04b"></path><path id="&#x30D1;&#x30B9;_24175" data-name="&#x30D1;&#x30B9; 24175" d="M699.876,1195.033c4.169,18.218,13.791,36.385,27.379,47.365l.866.727.462-.467a59.939,59.939,0,0,0,12.521-19.725A89.46,89.46,0,0,0,744.969,1211a111.505,111.505,0,0,0,2.611-12.989c.318-2.216.563-4.45.75-6.7q.238-3.456.477-6.858a126.462,126.462,0,0,0,.014-14.028,178.047,178.047,0,0,0-3.476-28.9c-3.823-18.548-8.179-37.13-14.483-51.02,0,0-.779,1.784-2.135,4.884-1.385,3.083-3.39,7.481-5.885,12.764-4.674,10.374-11.251,24.471-18.19,37.252a54.546,54.546,0,0,0-4.429,10.633,64.518,64.518,0,0,0-2.207,12.106,83.979,83.979,0,0,0-.188,13.231A110.159,110.159,0,0,0,699.876,1195.033Z" transform="translate(-581.499 -559.677)" fill="#f5c04b"></path><path id="&#x30D1;&#x30B9;_24176" data-name="&#x30D1;&#x30B9; 24176" d="M790.009,1029.838c1.326-4.122,2.279-8.331,3.26-12.694a116.956,116.956,0,0,0,2.323-13.422l.346-3.429c.159-1.177.288-2.338.4-3.516.246-2.338.4-4.71.505-7.1.88-18.2,1.009-36.784-1.5-51.626,0,0-1.111,1.385-3.044,3.792-.981,1.2-2.178,2.633-3.548,4.3-.692.814-1.428,1.68-2.207,2.615-.75.9-1.53,1.87-2.337,2.875-3.289,4-7.2,8.642-11.5,13.456-2.121,2.356-4.3,4.8-6.52,7.291-2.221,2.425-4.515,4.832-6.852,7.135a45.014,45.014,0,0,0-6.448,8.14,56.411,56.411,0,0,0-4.76,10.184,85.692,85.692,0,0,0-3.275,11.845,100.98,100.98,0,0,0-1.284,12.955c-.087,2.234-.116,4.5-.072,6.771a67.178,67.178,0,0,0,.533,6.807,124.756,124.756,0,0,0,2.351,13.595,97.331,97.331,0,0,0,4.371,12.954c.851,2.078,1.774,4.122,2.755,6.1,1.024,1.974,2.178,3.845,3.346,5.68l.62.935.533-.26a46.861,46.861,0,0,0,15.839-13.318,83.032,83.032,0,0,0,11.771-20.21C787.109,1037.943,788.754,1033.925,790.009,1029.838Z" transform="translate(-658.577 -502.565)" fill="#f5c04b"></path><path id="&#x30D1;&#x30B9;_24177" data-name="&#x30D1;&#x30B9; 24177" d="M740.471,826.332a44.906,44.906,0,0,0-2.625,5.023,93.224,93.224,0,0,0-4.241,11.17c-4.63,15.776-5.063,34.688-.216,50.985l.332,1.039.548-.052c12.089-1.16,23.368-9.23,32.615-20.678,9.29-11.516,16.935-26.358,22.085-43.382,4.89-16.28,9.391-32.991,10.4-47.244,0,0-1.327.9-3.65,2.441-2.337,1.524-5.481,3.723-9.434,6.252-1.962,1.248-4.1,2.6-6.361,4.036-2.193,1.437-4.544,2.909-6.982,4.4s-4.977,2.979-7.573,4.433c-2.553,1.472-5.121,2.892-7.746,4.208a36.462,36.462,0,0,0-7.574,5.23,44.581,44.581,0,0,0-6.621,7.586C742.4,823.216,741.424,824.74,740.471,826.332Z" transform="translate(-652.055 -444.551)" fill="#f5c04b"></path><path id="&#x30D1;&#x30B9;_24178" data-name="&#x30D1;&#x30B9; 24178" d="M676.308,716.96l.491.139a34.163,34.163,0,0,0,17.036.173,47.178,47.178,0,0,0,8.539-2.909c1.4-.641,2.784-1.351,4.169-2.113s2.813-1.576,4.2-2.459a67.923,67.923,0,0,0,8.078-6.044,85.814,85.814,0,0,0,7.775-7.326c2.409-2.684,4.976-5.473,7.284-8.538,1.183-1.507,2.251-3.117,3.419-4.711,1.154-1.61,2.265-3.256,3.332-4.97,8.194-13.092,16.1-26.791,20.224-39.4,0,0-1.385.4-3.808,1.056-2.38.693-5.785,1.628-9.881,2.65-4.169.987-8.8,2.234-13.863,3.325-2.524.554-5.164,1.039-7.79,1.524-2.6.5-5.236.935-7.876,1.246a29.859,29.859,0,0,0-7.977,2.2,37.648,37.648,0,0,0-7.645,4.589,47.352,47.352,0,0,0-7.184,6.7,74.593,74.593,0,0,0-6.361,8.538,84.263,84.263,0,0,0-12.2,45.27Z" transform="translate(-579.958 -390.458)" fill="#f5c04b"></path><path id="&#x30D1;&#x30B9;_24179" data-name="&#x30D1;&#x30B9; 24179" d="M589.465,554.877l-.231.935.4.294a32.965,32.965,0,0,0,15.016,5.924,47.458,47.458,0,0,0,16.776-.97,67.566,67.566,0,0,0,17.195-6.72,68.36,68.36,0,0,0,8.525-5.248,101.011,101.011,0,0,0,8.295-6.494c10.371-9.093,20.6-18.9,27.134-28.957,0,0-1.328-.069-3.635-.208s-5.554-.364-9.463-.728c-3.938-.433-8.352-.779-13.126-1.42-2.38-.312-4.818-.675-7.285-1.109-2.438-.415-4.89-.866-7.3-1.42a28.263,28.263,0,0,0-15.449.987,46.182,46.182,0,0,0-7.92,3.585,55.429,55.429,0,0,0-7.559,5.541A69.313,69.313,0,0,0,589.465,554.877Z" transform="translate(-447.272 -341.498)" fill="#f5c04b"></path><path id="&#x30D1;&#x30B9;_24180" data-name="&#x30D1;&#x30B9; 24180" d="M503.254,397.646c-10.646,4.139-20.7,13.162-27.148,24.61l-.4.745.275.4c6.4,8.746,16.185,13.612,26.845,14.946,10.848,1.542,22.6-.415,34.49-5.282,11.309-4.71,22.662-10.165,30.725-17.093,0,0-4.659-1.784-11.454-4.919-3.418-1.645-7.255-3.29-11.337-5.4-4.082-2.061-8.367-4.433-12.377-6.892a27.61,27.61,0,0,0-13.877-4.122A38.616,38.616,0,0,0,503.254,397.646Z" transform="translate(-261.73 -298.984)" fill="#f5c04b"></path></g><g id="&#x30B0;&#x30EB;&#x30FC;&#x30D7;_1115" data-name="&#x30B0;&#x30EB;&#x30FC;&#x30D7; 1115" transform="translate(2166.477 0)"><path id="&#x30D1;&#x30B9;_24163-2" data-name="&#x30D1;&#x30B9; 24163" d="M358.832,1634.395q3.678.157,7.313.572c2.424.295,4.833.71,7.17.987a84.455,84.455,0,0,1,13.761,3.1c1.111.346,2.207.727,3.3,1.108,1.068.346,2.135.71,3.188,1.109,2.12.779,4.183,1.646,6.188,2.615a62.891,62.891,0,0,1,11.237,6.962,128.352,128.352,0,0,0,22.329,13.421,115.163,115.163,0,0,0,11.641,4.781c3.823,1.385,7.559,2.58,11.107,3.62,1.76.52,3.491,1,5.136,1.437,1.658.363,3.231.71,4.7,1.022,2.986.624,5.655,1.108,7.876,1.472,4.457.727,7.14,1.022,7.14,1.022a149.19,149.19,0,0,1-16.358,11.343c-4.5,2.494-9.217,4.953-14.093,7.239-.692.312-1.385.641-2.091.952-.952.433-1.89.849-2.842,1.265-.043.017-.072.034-.115.052-6.693,2.6-13.6,5.091-20.628,7.118-7.126,1.8-14.295,3.5-21.421,4.658a144.851,144.851,0,0,1-21.869,1.559,135.745,135.745,0,0,1-20.238-2.165,119.813,119.813,0,0,1-18.031-5.542,60,60,0,0,1-8.049-3.844c-2.568-1.4-5.02-2.91-7.342-4.469q-3.484-2.363-6.592-4.935c-1.039-.865-2.034-1.732-3-2.615-.966-.936-1.9-1.906-2.813-2.875a70.487,70.487,0,0,1-9.217-12.261,61.388,61.388,0,0,1-8.468-27.623l-.058-.865,1.255-.537A145.679,145.679,0,0,1,358.832,1634.395Z" transform="translate(-297.698 -763.371)" fill="#f5c04b"></path><path id="&#x30D1;&#x30B9;_24164-2" data-name="&#x30D1;&#x30B9; 24164" d="M535.569,1630.466a67.255,67.255,0,0,1-29.6-7.031,58.082,58.082,0,0,1-5.958-3.463,53.489,53.489,0,0,1-5.366-4.243A52.084,52.084,0,0,1,480.1,1593.7l-.275-.762,1.01-.9a147.048,147.048,0,0,1,25-17.8,104.467,104.467,0,0,1,13.257-6.789,130.225,130.225,0,0,1,13.43-5.351c4.558-1.368,8.987-2.771,13.444-3.741,2.221-.467,4.443-.866,6.65-1.16,1.111-.156,2.221-.277,3.318-.381,1.082-.139,2.149-.278,3.231-.363a65.408,65.408,0,0,1,12.622.017,57.849,57.849,0,0,1,6.059.953,45.153,45.153,0,0,1,5.712,1.438,101.508,101.508,0,0,0,11.5,2.944c1.962.381,3.952.727,5.943,1.022,2,.312,4,.536,5.944.658a163.087,163.087,0,0,0,22.517.069c6.765-.623,12.666-1.558,16.878-2.338,4.2-.762,6.693-1.368,6.693-1.368a185.918,185.918,0,0,1-12.1,15.552c-2.207,2.667-4.674,5.057-7.155,7.534q-3.743,3.688-7.732,7.326c-1.326,1.178-2.64,2.425-4.039,3.55-1.4,1.109-2.813,2.234-4.227,3.36-2.841,2.217-5.727,4.4-8.641,6.512-1.471,1.056-2.914,2.147-4.414,3.134-1.515.952-3.029,1.922-4.544,2.875q-4.565,2.831-9.131,5.49c-12.881,7.239-25.777,11.9-37.937,13.941a70.11,70.11,0,0,1-8.915,1.177C541.252,1630.484,538.367,1630.535,535.569,1630.466Z" transform="translate(-365.93 -734.123)" fill="#f5c04b"></path><path id="&#x30D1;&#x30B9;_24165-2" data-name="&#x30D1;&#x30B9; 24165" d="M701.652,1477.37c-1.269.52-2.568.952-3.837,1.385a80.538,80.538,0,0,1-14.728,3.533c-19.1,2.269-34.5-4.26-44.011-17.768l-.433-.607.707-1.142a160.74,160.74,0,0,1,39.568-44.7,103.607,103.607,0,0,1,11.237-7.932c1.9-1.177,3.88-2.217,5.77-3.256,1.89-1.074,3.794-2.044,5.7-2.909a65.34,65.34,0,0,1,11.5-4.087,50.975,50.975,0,0,1,11.136-1.749,98.818,98.818,0,0,0,11.108-1.039c1.875-.277,3.765-.623,5.64-.987,1.832-.416,3.65-.883,5.468-1.368a158.067,158.067,0,0,0,20.411-7.17c5.986-2.736,11.122-5.437,14.757-7.481,3.635-2.026,5.77-3.36,5.77-3.36-2.062,5.784-4.573,11.794-7.458,17.907-.722,1.524-1.443,3.083-2.236,4.589-.837,1.49-1.659,3-2.51,4.5-1.7,3.013-3.476,6.044-5.337,9.057a194.646,194.646,0,0,1-12.175,17.578c-2.179,2.823-4.284,5.715-6.636,8.365-2.308,2.667-4.659,5.3-7,7.862-2.481,2.685-4.919,5.3-7.472,7.672-2.582,2.356-5.179,4.572-7.76,6.668s-5.164,4.052-7.732,5.888c-2.611,1.784-5.28,3.343-7.876,4.832-2.611,1.472-5.207,2.806-7.761,4.018C704.176,1476.261,702.906,1476.833,701.652,1477.37Z" transform="translate(-425.426 -666.908)" fill="#f5c04b"></path><path id="&#x30D1;&#x30B9;_24166-2" data-name="&#x30D1;&#x30B9; 24166" d="M821.388,1280.776c-1.024.832-2.048,1.611-3.058,2.373-1.039.744-2.106,1.437-3.144,2.113q-3.138,2-6.232,3.585a59.863,59.863,0,0,1-12.088,4.763,44.1,44.1,0,0,1-11.627,1.265,34.841,34.841,0,0,1-20.065-7l-.52-.4L765,1286.2a190.952,190.952,0,0,1,10.544-28.524c2.265-4.416,4.356-8.936,6.823-13.11,2.423-4.226,5.121-8.174,7.688-12.105a110.23,110.23,0,0,1,8.4-10.859,105.246,105.246,0,0,1,8.857-9.4,78.8,78.8,0,0,1,9.448-7.481,48.316,48.316,0,0,1,9.651-5.265c13.2-5.057,26.167-14.7,36.091-23.4,4.775-4.381,8.8-8.486,11.612-11.482s4.443-4.867,4.443-4.867c-1.8,23.553-10.818,52.319-23.08,76.859a145.728,145.728,0,0,1-21.854,32.731A125.84,125.84,0,0,1,821.388,1280.776Z" transform="translate(-472.633 -585.603)" fill="#f5c04b"></path><path id="&#x30D1;&#x30B9;_24167-2" data-name="&#x30D1;&#x30B9; 24167" d="M895.19,1056.686a77.894,77.894,0,0,1-9.131,11.447c-6.463,6.564-13.141,11.1-19.748,13.491a31.77,31.77,0,0,1-19.777.606l-.548-.173v-1.264c.015-2.459.144-4.884.26-7.326q.129-3.715.432-7.377c.4-4.884,1.169-9.7,2.02-14.461a131.941,131.941,0,0,1,2.986-14.115c.577-2.3,1.341-4.555,1.947-6.823.635-2.251,1.313-4.468,2.063-6.65a126.747,126.747,0,0,1,5.049-12.573,102.329,102.329,0,0,1,5.741-11.412,86.939,86.939,0,0,1,6.795-9.837,52.318,52.318,0,0,1,7.443-7.9c2.64-2.234,5.236-4.693,7.775-7.308a103.9,103.9,0,0,0,7.256-8.226A204.563,204.563,0,0,0,907.9,949.694c.866-1.385,1.688-2.7,2.481-3.966.75-1.3,1.442-2.546,2.106-3.706,1.328-2.355,2.452-4.486,3.39-6.252,1.847-3.568,2.885-5.75,2.885-5.75,3.693,21.544,1.962,50-3.318,75.889-.707,3.395-1.486,6.72-2.308,9.958-.418,1.611-.836,3.221-1.283,4.8-.462,1.559-1,3.1-1.515,4.624a176.238,176.238,0,0,1-6.852,17.041A113.966,113.966,0,0,1,895.19,1056.686Z" transform="translate(-503.102 -499.557)" fill="#f5c04b"></path><path id="&#x30D1;&#x30B9;_24168-2" data-name="&#x30D1;&#x30B9; 24168" d="M913.515,811.349a122.728,122.728,0,0,1-4.01,15.482,103.33,103.33,0,0,1-5.568,13.2c-8.367,16.019-19.7,25.042-31.966,25.942l-.533.035-.289-1.126a163.817,163.817,0,0,1-4.558-54,120.72,120.72,0,0,1,1.53-12.9c.389-2.112.779-4.174,1.183-6.182.418-2.026.909-4,1.428-5.94a96.925,96.925,0,0,1,3.823-11.031,56.374,56.374,0,0,1,4.947-9.491c1.861-2.857,3.664-5.923,5.352-9.075,1.63-3.152,3.159-6.408,4.6-9.7,1.428-3.274,2.755-6.6,3.967-9.837s2.193-6.374,3.131-9.369c1.817-5.958,3.274-11.275,4.111-15.05.837-3.758,1.255-6.044,1.255-6.044,1,2.269,1.991,4.642,2.9,7.135q1.321,3.741,2.525,7.776t2.323,8.261c.707,2.84,1.3,5.767,1.89,8.728s1.154,5.975,1.658,9.005.851,6.148,1.226,9.231c.36,3.1.692,6.217.981,9.317.274,3.117.39,6.252.548,9.335q.216,4.883.2,9.612c0,3.152-.216,6.269-.418,9.3A129.975,129.975,0,0,1,913.515,811.349Z" transform="translate(-510.623 -415.73)" fill="#f5c04b"></path><path id="&#x30D1;&#x30B9;_24169-2" data-name="&#x30D1;&#x30B9; 24169" d="M859.634,624.825c-.447,2.13-.952,4.156-1.529,6.113-.606,1.975-1.27,3.862-2,5.663a53.813,53.813,0,0,1-5.005,9.7,33.8,33.8,0,0,1-13.732,12.417l-.462.208-.534-.9c-8.323-13.976-13.935-30.324-16.776-46.482a111.263,111.263,0,0,1-1.615-12.019c-.275-4-.548-7.828-.462-11.655a90.8,90.8,0,0,1,.88-11.067,59.886,59.886,0,0,1,2.265-10.1c1.01-3.152,1.919-6.443,2.726-9.8.779-3.36,1.385-6.737,1.933-10.131a178.13,178.13,0,0,0,2.078-19.362c.317-5.871.39-11.014.375-14.686-.044-3.637-.188-5.767-.188-5.767,11.063,13.49,21.219,34.758,27.783,56.319.865,2.823,1.658,5.646,2.365,8.416.722,2.789,1.241,5.611,1.76,8.365a129.5,129.5,0,0,1,2,16.141,130.87,130.87,0,0,1,.029,15.032A108.109,108.109,0,0,1,859.634,624.825Z" transform="translate(-492.429 -341.065)" fill="#f5c04b"></path><path id="&#x30D1;&#x30B9;_24170-2" data-name="&#x30D1;&#x30B9; 24170" d="M744.471,479.2l-.361.346-.692-.606a113.7,113.7,0,0,1-25.662-35.485,100.254,100.254,0,0,1-4.14-10.149,86.046,86.046,0,0,1-3.073-10.183,69.088,69.088,0,0,1-1.947-19.778c.2-3.117.288-6.356.245-9.576-.072-3.2-.26-6.408-.52-9.594a172.007,172.007,0,0,0-2.366-17.821c-1.009-5.316-2.062-9.871-2.856-13.11-.4-1.628-.735-2.909-.995-3.758-.231-.762-.361-1.212-.375-1.316,12.68,8.451,26.268,23.934,36.856,40.767a124.92,124.92,0,0,1,7.4,13.4,140.354,140.354,0,0,1,5.409,13.526c2.827,9.109,4.6,17.7,4.861,25.874a62.012,62.012,0,0,1-2.553,21.8A37.594,37.594,0,0,1,744.471,479.2Z" transform="translate(-449.06 -281.578)" fill="#f5c04b"></path><path id="&#x30D1;&#x30B9;_24171-2" data-name="&#x30D1;&#x30B9; 24171" d="M605.758,343.623l-.736-.311c-11.626-4.693-22.171-13.093-30.8-22.687a85.342,85.342,0,0,1-10.935-15.6,57.743,57.743,0,0,1-6.145-16.8,110.822,110.822,0,0,0-4.471-16.816,148.089,148.089,0,0,0-5.972-14.98c-4.082-8.728-7.66-14.737-7.66-14.737,12.954,3.481,28.273,12.746,41.313,24.054,13.747,11.829,23.022,26.74,27.379,40.56,4.226,14.1,3.65,27-1.745,36.888Z" transform="translate(-388.112 -241.688)" fill="#f5c04b"></path><path id="&#x30D1;&#x30B9;_24172-2" data-name="&#x30D1;&#x30B9; 24172" d="M304.579,1501.241a97.757,97.757,0,0,1,6.606-12.763c.62-1.005,1.255-2.009,1.919-3,.649-1.039,1.313-2.078,2.006-3.083q2.034-3.04,4.269-5.922c1.471-1.923,3.015-3.776,4.6-5.577,1.587-1.784,3.217-3.5,4.89-5.351a102.066,102.066,0,0,1,10.574-9.906,98.315,98.315,0,0,1,11.5-8.919,106.668,106.668,0,0,1,12.39-7.741c16.373-8.989,32.9-17.734,47.516-21.181,0,0-.707,2.165-1.918,5.94-.592,1.9-1.313,4.226-2.135,6.892-.4,1.334-.837,2.771-1.3,4.278-.476,1.455-.981,3-1.5,4.589-1.024,3.221-2.135,6.737-3.3,10.443s-2.337,7.793-3.635,11.707c-2.525,7.932-5.077,16.661-7.314,25.319a61.059,61.059,0,0,1-4.861,12.469,66.936,66.936,0,0,1-3.462,5.906c-.635.953-1.284,1.922-1.976,2.857-.693.9-1.414,1.767-2.149,2.633a78.661,78.661,0,0,1-10.04,9.7,44.3,44.3,0,0,1-5.8,4.052q-3.03,1.87-6.232,3.481c-17.123,8.573-38.27,10.166-56.358,2.58l-1.169-.467.044-.849A83.868,83.868,0,0,1,304.579,1501.241Z" transform="translate(-297.698 -682.293)" fill="#f5c04b"></path><path id="&#x30D1;&#x30B9;_24173-2" data-name="&#x30D1;&#x30B9; 24173" d="M541.189,1338.793s-.158,2.2-.433,6.044c-.26,3.862-.562,9.4-.88,16.124-.418,6.529-.894,14.2-1.211,22.5-.072,2.1-.173,4.174-.274,6.235-.087,2.1-.173,4.191-.26,6.321-.145,4.26-.217,8.59-.2,12.919a54.088,54.088,0,0,1-1.4,13.058,75.913,75.913,0,0,1-4.183,12.954c-.447,1.057-.924,2.148-1.428,3.187-.519,1.022-1.067,2.043-1.63,3.048-1.154,2.026-2.381,4.017-3.707,5.992a69.4,69.4,0,0,1-9.03,11.1,84.791,84.791,0,0,1-10.92,9.4,97.347,97.347,0,0,1-12.376,7.118c-8.684,3.706-17.844,6.062-26.975,5.733l-1.183-.017-.158-.8a80.629,80.629,0,0,1-.779-27.623c.317-2.321.721-4.607,1.2-6.91.447-2.356.981-4.711,1.587-7.031a118.193,118.193,0,0,1,4.486-13.7,158.721,158.721,0,0,1,30.97-49.721C515.282,1360.719,528.438,1346.881,541.189,1338.793Z" transform="translate(-359.751 -652.695)" fill="#f5c04b"></path><path id="&#x30D1;&#x30B9;_24174-2" data-name="&#x30D1;&#x30B9; 24174" d="M604.664,1308.068c.577-2.373,1.211-4.745,1.933-7.066.707-2.355,1.515-4.624,2.323-6.945.764-2.372,1.6-4.71,2.51-7.031q1.364-3.455,2.943-6.806c1.024-2.269,2.019-4.624,3.144-6.875,8.6-17.18,17.555-34.29,27.436-45.876,0,0,.346,2.077.938,5.68.62,3.6,1.558,8.763,2.769,15,1.126,6.165,2.337,13.248,3.909,20.921.765,3.758,1.573,7.671,2.381,11.637.822,3.914,1.73,7.863,2.712,11.776a57.934,57.934,0,0,1,1.76,12.383,78.339,78.339,0,0,1-.88,13.075q-.52,3.351-1.3,6.753c-.52,2.252-1.241,4.416-1.991,6.633a103.067,103.067,0,0,1-5.539,13.145c-8.943,16.938-23.729,31.26-40.2,37.356l-1.068.38-.346-.658c-7.732-14.807-9.463-33.614-7.328-52.249a127.262,127.262,0,0,1,2.265-14.148C603.582,1312.778,604.131,1310.406,604.664,1308.068Z" transform="translate(-410.921 -610.989)" fill="#f5c04b"></path><path id="&#x30D1;&#x30B9;_24175-2" data-name="&#x30D1;&#x30B9; 24175" d="M746.778,1195.033c-4.169,18.218-13.791,36.385-27.379,47.365l-.866.727-.462-.467a59.939,59.939,0,0,1-12.521-19.725A89.477,89.477,0,0,1,701.685,1211a111.505,111.505,0,0,1-2.611-12.989c-.318-2.216-.563-4.45-.75-6.7q-.238-3.456-.477-6.858a126.462,126.462,0,0,1-.014-14.028,178.034,178.034,0,0,1,3.476-28.9c3.823-18.548,8.179-37.13,14.483-51.02,0,0,.779,1.784,2.135,4.884,1.385,3.083,3.39,7.481,5.885,12.764,4.674,10.374,11.251,24.471,18.19,37.252a54.546,54.546,0,0,1,4.429,10.633,64.518,64.518,0,0,1,2.207,12.106,83.972,83.972,0,0,1,.188,13.231A110.159,110.159,0,0,1,746.778,1195.033Z" transform="translate(-447.53 -559.677)" fill="#f5c04b"></path><path id="&#x30D1;&#x30B9;_24176-2" data-name="&#x30D1;&#x30B9; 24176" d="M750.895,1029.838c-1.326-4.122-2.279-8.331-3.26-12.694a116.969,116.969,0,0,1-2.323-13.422l-.346-3.429c-.159-1.177-.288-2.338-.4-3.516-.246-2.338-.4-4.71-.505-7.1-.88-18.2-1.009-36.784,1.5-51.626,0,0,1.111,1.385,3.044,3.792.981,1.2,2.178,2.633,3.548,4.3.692.814,1.428,1.68,2.207,2.615.75.9,1.53,1.87,2.337,2.875,3.289,4,7.2,8.642,11.5,13.456,2.121,2.356,4.3,4.8,6.52,7.291,2.221,2.425,4.515,4.832,6.852,7.135a45.014,45.014,0,0,1,6.448,8.14,56.411,56.411,0,0,1,4.76,10.184,85.7,85.7,0,0,1,3.275,11.845,100.98,100.98,0,0,1,1.284,12.955c.087,2.234.116,4.5.072,6.771a67.16,67.16,0,0,1-.533,6.807,124.755,124.755,0,0,1-2.351,13.595,97.339,97.339,0,0,1-4.371,12.954c-.851,2.078-1.774,4.122-2.755,6.1-1.024,1.974-2.178,3.845-3.346,5.68l-.62.935-.533-.26a46.861,46.861,0,0,1-15.839-13.318,83.032,83.032,0,0,1-11.771-20.21C753.795,1037.943,752.15,1033.925,750.895,1029.838Z" transform="translate(-464.702 -502.565)" fill="#f5c04b"></path><path id="&#x30D1;&#x30B9;_24177-2" data-name="&#x30D1;&#x30B9; 24177" d="M788.837,826.332a44.9,44.9,0,0,1,2.625,5.023,93.224,93.224,0,0,1,4.241,11.17c4.63,15.776,5.063,34.688.216,50.985l-.332,1.039-.548-.052c-12.088-1.16-23.368-9.23-32.615-20.678-9.29-11.516-16.935-26.358-22.085-43.382-4.89-16.28-9.391-32.991-10.4-47.244,0,0,1.327.9,3.65,2.441,2.337,1.524,5.481,3.723,9.434,6.252,1.962,1.248,4.1,2.6,6.361,4.036,2.193,1.437,4.544,2.909,6.982,4.4s4.977,2.979,7.573,4.433c2.553,1.472,5.12,2.892,7.746,4.208a36.464,36.464,0,0,1,7.574,5.23,44.584,44.584,0,0,1,6.621,7.586C786.9,823.216,787.885,824.74,788.837,826.332Z" transform="translate(-459.628 -444.551)" fill="#f5c04b"></path><path id="&#x30D1;&#x30B9;_24178-2" data-name="&#x30D1;&#x30B9; 24178" d="M760.786,716.96l-.491.139a34.163,34.163,0,0,1-17.036.173,47.178,47.178,0,0,1-8.539-2.909c-1.4-.641-2.784-1.351-4.169-2.113s-2.813-1.576-4.2-2.459a67.923,67.923,0,0,1-8.078-6.044,85.806,85.806,0,0,1-7.775-7.326c-2.409-2.684-4.976-5.473-7.284-8.538-1.183-1.507-2.251-3.117-3.419-4.711-1.154-1.61-2.264-3.256-3.332-4.97-8.194-13.092-16.1-26.791-20.224-39.4,0,0,1.385.4,3.808,1.056,2.38.693,5.785,1.628,9.882,2.65,4.169.987,8.8,2.234,13.863,3.325,2.524.554,5.164,1.039,7.79,1.524,2.6.5,5.236.935,7.876,1.246a29.86,29.86,0,0,1,7.977,2.2,37.646,37.646,0,0,1,7.644,4.589,47.35,47.35,0,0,1,7.184,6.7,74.586,74.586,0,0,1,6.361,8.538,84.263,84.263,0,0,1,12.2,45.27Z" transform="translate(-439.511 -390.458)" fill="#f5c04b"></path><path id="&#x30D1;&#x30B9;_24179-2" data-name="&#x30D1;&#x30B9; 24179" d="M682.348,554.877l.231.935-.4.294a32.965,32.965,0,0,1-15.016,5.924,47.458,47.458,0,0,1-16.776-.97,67.566,67.566,0,0,1-17.195-6.72,68.356,68.356,0,0,1-8.525-5.248,101.021,101.021,0,0,1-8.295-6.494c-10.371-9.093-20.6-18.9-27.134-28.957,0,0,1.328-.069,3.635-.208s5.554-.364,9.463-.728c3.938-.433,8.352-.779,13.127-1.42,2.38-.312,4.818-.675,7.285-1.109,2.438-.415,4.89-.866,7.3-1.42a28.263,28.263,0,0,1,15.449.987,46.182,46.182,0,0,1,7.92,3.585,55.425,55.425,0,0,1,7.559,5.541A69.313,69.313,0,0,1,682.348,554.877Z" transform="translate(-406.916 -341.498)" fill="#f5c04b"></path><path id="&#x30D1;&#x30B9;_24180-2" data-name="&#x30D1;&#x30B9; 24180" d="M540.485,397.646c10.646,4.139,20.7,13.162,27.148,24.61l.4.745-.274.4c-6.4,8.746-16.185,13.612-26.845,14.946-10.848,1.542-22.6-.415-34.49-5.282-11.309-4.71-22.662-10.165-30.725-17.093,0,0,4.659-1.784,11.454-4.919,3.418-1.645,7.256-3.29,11.337-5.4,4.082-2.061,8.367-4.433,12.377-6.892a27.61,27.61,0,0,1,13.877-4.122A38.616,38.616,0,0,1,540.485,397.646Z" transform="translate(-364.383 -298.984)" fill="#f5c04b"></path></g><g id="&#x30B0;&#x30EB;&#x30FC;&#x30D7;_1118" data-name="&#x30B0;&#x30EB;&#x30FC;&#x30D7; 1118" transform="translate(589.756 376.878)"><path id="&#x30D1;&#x30B9;_24186" data-name="&#x30D1;&#x30B9; 24186" d="M153.744-192.8,101.88-231.316,213.8-383.874q-9.1,1.213-15.468,1.82t-10.312.607q-56.717,0-98.268-43.371Q48.5-467.888,48.5-528.547q0-64.6,45.8-110.4,46.1-46.1,110.4-46.1,64,0,111.31,45.495,47.314,45.191,47.314,106.76,0,54.593-46.1,117.982ZM117.348-533.7q0,37.912,25.78,63.692,26.084,26.083,62.783,26.083t62.479-25.78q26.084-26.084,26.084-62.782T268.39-595.272q-25.78-25.78-62.783-25.78-36.4,0-62.176,25.78Q117.348-569.189,117.348-533.7Zm533.2,194.11h49.741v64.3H650.545v66.422H579.876v-66.422h-229.9L650.545-712.042Zm-70.668,0V-496.4L471.9-339.593Z" transform="translate(-48.5 712.042)" fill="#333"></path><path id="&#x30D1;&#x30B9;_24187" data-name="&#x30D1;&#x30B9; 24187" d="M20.491-348.485q0-27.267,20.874-47.389Q62.614-416,90.446-416q28.584,0,49.269,20.31Q160.4-375.564,160.4-347.545q0,28.208-20.686,48.329T89.882-279.094q-28.584,0-49.081-20.5Q20.491-320.089,20.491-348.485Zm32.721.564a36.316,36.316,0,0,0,10.907,26.7,36.094,36.094,0,0,0,26.515,10.907,35.657,35.657,0,0,0,26.139-10.907,35.874,35.874,0,0,0,10.907-26.327,35.657,35.657,0,0,0-10.907-26.139,35.875,35.875,0,0,0-26.327-10.907,35.875,35.875,0,0,0-26.327,10.907Q53.212-362.777,53.212-347.921Zm202.155-70.143,20.5,11.659L109.627-117.935,88.941-130.346Zm-51.15,228.67q0-27.079,20.874-47.2,21.25-20.121,49.081-20.121,28.772,0,49.457,20.309,20.686,20.121,20.686,48.141,0,28.4-20.874,48.329Q302.944-120,273.608-120q-28.584,0-49.081-20.31Q204.217-160.622,204.217-189.394Zm32.909.752a36.644,36.644,0,0,0,10.719,26.7,36.094,36.094,0,0,0,26.515,10.907A35.258,35.258,0,0,0,300.5-161.939a35.874,35.874,0,0,0,10.907-26.327A35.874,35.874,0,0,0,300.5-214.593,35.477,35.477,0,0,0,274.172-225.5a35.657,35.657,0,0,0-26.139,10.907A35.442,35.442,0,0,0,237.126-188.642Z" transform="translate(723.614 637.179)" fill="#333"></path></g></g></g><path id="&#x30D1;&#x30B9;_24192" data-name="&#x30D1;&#x30B9; 24192" d="M98.255-150.661a12.974,12.974,0,0,1-9.519-3.951,12.974,12.974,0,0,1-3.951-9.519,12.974,12.974,0,0,1,3.951-9.519,12.974,12.974,0,0,1,9.519-3.951,12.974,12.974,0,0,1,9.519,3.951,12.974,12.974,0,0,1,3.951,9.519,12.974,12.974,0,0,1-3.951,9.519A12.974,12.974,0,0,1,98.255-150.661Zm0,32.507,59.267-59.267,5.208,5.208-59.267,59.267L162.73-53.679l-5.208,5.208L98.255-107.737,38.808-48.291,33.6-53.5l59.446-59.446L33.78-172.212l5.208-5.208Zm-37.715,5.208a12.974,12.974,0,0,1-3.951,9.519,12.974,12.974,0,0,1-9.519,3.951,12.974,12.974,0,0,1-9.519-3.951,12.974,12.974,0,0,1-3.951-9.519,12.974,12.974,0,0,1,3.951-9.519,12.974,12.974,0,0,1,9.519-3.951,12.974,12.974,0,0,1,9.519,3.951A12.974,12.974,0,0,1,60.539-112.945Zm75.43,0a12.974,12.974,0,0,1,3.951-9.519,12.974,12.974,0,0,1,9.519-3.951,12.974,12.974,0,0,1,9.519,3.951,12.974,12.974,0,0,1,3.951,9.519,12.974,12.974,0,0,1-3.951,9.519,12.974,12.974,0,0,1-9.519,3.951,12.974,12.974,0,0,1-9.519-3.951A12.974,12.974,0,0,1,135.97-112.945ZM98.255-75.23a12.974,12.974,0,0,1,9.519,3.951,12.974,12.974,0,0,1,3.951,9.519,12.974,12.974,0,0,1-3.951,9.519,12.974,12.974,0,0,1-9.519,3.951,12.974,12.974,0,0,1-9.519-3.951,12.974,12.974,0,0,1-3.951-9.519,12.974,12.974,0,0,1,3.951-9.519A12.974,12.974,0,0,1,98.255-75.23ZM203.069-44.7V-63.983h28.909v-84.349H207.966v-14.777a109.768,109.768,0,0,0,16.78-4.438,75.044,75.044,0,0,0,13.126-6.234h17.6v109.8h25.371V-44.7Z" transform="translate(1693.021 953.886)" fill="#333"></path></g></g><g id="&#x30B0;&#x30EB;&#x30FC;&#x30D7;_1139" data-name="&#x30B0;&#x30EB;&#x30FC;&#x30D7; 1139" transform="translate(2902.975 0)"><g id="&#x30B0;&#x30EB;&#x30FC;&#x30D7;_1134-2" data-name="&#x30B0;&#x30EB;&#x30FC;&#x30D7; 1134"><g id="&#x30B0;&#x30EB;&#x30FC;&#x30D7;_1131-2" data-name="&#x30B0;&#x30EB;&#x30FC;&#x30D7; 1131"><g id="&#x30B0;&#x30EB;&#x30FC;&#x30D7;_1127-2" data-name="&#x30B0;&#x30EB;&#x30FC;&#x30D7; 1127" transform="translate(0 0)"><g id="&#x30B0;&#x30EB;&#x30FC;&#x30D7;_1114-2" data-name="&#x30B0;&#x30EB;&#x30FC;&#x30D7; 1114" transform="translate(0 0)"><path id="&#x30D1;&#x30B9;_24163-3" data-name="&#x30D1;&#x30B9; 24163" d="M419.792,1634.395q-3.678.157-7.313.572c-2.424.295-4.833.71-7.17.987a84.455,84.455,0,0,0-13.761,3.1c-1.111.346-2.207.727-3.3,1.108-1.068.346-2.135.71-3.188,1.109-2.12.779-4.183,1.646-6.188,2.615a62.89,62.89,0,0,0-11.237,6.962,128.352,128.352,0,0,1-22.33,13.421,115.165,115.165,0,0,1-11.641,4.781c-3.823,1.385-7.559,2.58-11.107,3.62-1.76.52-3.491,1-5.136,1.437-1.658.363-3.231.71-4.7,1.022-2.986.624-5.655,1.108-7.876,1.472-4.457.727-7.14,1.022-7.14,1.022a149.181,149.181,0,0,0,16.358,11.343c4.5,2.494,9.217,4.953,14.093,7.239.692.312,1.385.641,2.091.952.952.433,1.89.849,2.842,1.265.043.017.072.034.115.052,6.693,2.6,13.6,5.091,20.628,7.118,7.126,1.8,14.295,3.5,21.421,4.658a144.852,144.852,0,0,0,21.869,1.559,135.746,135.746,0,0,0,20.238-2.165,119.813,119.813,0,0,0,18.031-5.542,59.994,59.994,0,0,0,8.049-3.844c2.568-1.4,5.02-2.91,7.343-4.469q3.484-2.363,6.592-4.935c1.039-.865,2.034-1.732,3-2.615.966-.936,1.9-1.906,2.813-2.875A70.488,70.488,0,0,0,472.4,1673.1a61.388,61.388,0,0,0,8.468-27.623l.058-.865-1.255-.537A145.679,145.679,0,0,0,419.792,1634.395Z" transform="translate(-63.3 -763.371)" fill="#f5c04b"></path><path id="&#x30D1;&#x30B9;_24164-3" data-name="&#x30D1;&#x30B9; 24164" d="M597.293,1630.466a67.255,67.255,0,0,0,29.6-7.031,58.082,58.082,0,0,0,5.958-3.463,53.489,53.489,0,0,0,5.366-4.243,52.084,52.084,0,0,0,14.54-22.029l.275-.762-1.01-.9a147.048,147.048,0,0,0-25-17.8,104.466,104.466,0,0,0-13.257-6.789,130.225,130.225,0,0,0-13.43-5.351c-4.558-1.368-8.987-2.771-13.444-3.741-2.221-.467-4.443-.866-6.65-1.16-1.111-.156-2.221-.277-3.318-.381-1.082-.139-2.149-.278-3.231-.363a65.408,65.408,0,0,0-12.622.017,57.849,57.849,0,0,0-6.059.953,45.153,45.153,0,0,0-5.712,1.438,101.508,101.508,0,0,1-11.5,2.944c-1.962.381-3.952.727-5.943,1.022-2,.312-4,.536-5.944.658a163.087,163.087,0,0,1-22.517.069c-6.765-.623-12.666-1.558-16.878-2.338-4.2-.762-6.693-1.368-6.693-1.368a185.918,185.918,0,0,0,12.1,15.552c2.207,2.667,4.674,5.057,7.155,7.534q3.743,3.688,7.732,7.326c1.326,1.178,2.64,2.425,4.039,3.55,1.4,1.109,2.813,2.234,4.227,3.36,2.841,2.217,5.727,4.4,8.641,6.512,1.471,1.056,2.914,2.147,4.414,3.134,1.515.952,3.029,1.922,4.544,2.875q4.565,2.831,9.131,5.49c12.881,7.239,25.777,11.9,37.938,13.941a70.11,70.11,0,0,0,8.915,1.177C591.61,1630.484,594.495,1630.535,597.293,1630.466Z" transform="translate(-349.307 -734.123)" fill="#f5c04b"></path><path id="&#x30D1;&#x30B9;_24165-3" data-name="&#x30D1;&#x30B9; 24165" d="M724.4,1477.37c1.269.52,2.568.952,3.837,1.385a80.538,80.538,0,0,0,14.728,3.533c19.1,2.269,34.5-4.26,44.01-17.768l.433-.607-.707-1.142a160.74,160.74,0,0,0-39.568-44.7,103.607,103.607,0,0,0-11.237-7.932c-1.9-1.177-3.88-2.217-5.77-3.256q-2.835-1.611-5.7-2.909a65.34,65.34,0,0,0-11.5-4.087,50.975,50.975,0,0,0-11.136-1.749,98.818,98.818,0,0,1-11.108-1.039c-1.875-.277-3.765-.623-5.64-.987-1.832-.416-3.65-.883-5.468-1.368a158.067,158.067,0,0,1-20.411-7.17c-5.986-2.736-11.122-5.437-14.757-7.481-3.635-2.026-5.77-3.36-5.77-3.36,2.062,5.784,4.573,11.794,7.458,17.907.722,1.524,1.443,3.083,2.236,4.589.837,1.49,1.659,3,2.51,4.5,1.7,3.013,3.476,6.044,5.337,9.057a194.634,194.634,0,0,0,12.175,17.578c2.179,2.823,4.284,5.715,6.636,8.365,2.308,2.667,4.659,5.3,7,7.862,2.481,2.685,4.919,5.3,7.472,7.672,2.582,2.356,5.179,4.572,7.76,6.668s5.164,4.052,7.732,5.888c2.611,1.784,5.28,3.343,7.876,4.832,2.611,1.472,5.207,2.806,7.761,4.018C721.876,1476.261,723.145,1476.833,724.4,1477.37Z" transform="translate(-583 -666.908)" fill="#f5c04b"></path><path id="&#x30D1;&#x30B9;_24166-3" data-name="&#x30D1;&#x30B9; 24166" d="M821.82,1280.776c1.024.832,2.048,1.611,3.058,2.373,1.039.744,2.106,1.437,3.144,2.113q3.138,2,6.232,3.585a59.863,59.863,0,0,0,12.088,4.763,44.1,44.1,0,0,0,11.627,1.265,34.84,34.84,0,0,0,20.065-7l.52-.4-.346-1.281a190.96,190.96,0,0,0-10.544-28.524c-2.265-4.416-4.356-8.936-6.823-13.11-2.423-4.226-5.121-8.174-7.688-12.105a110.22,110.22,0,0,0-8.4-10.859,105.255,105.255,0,0,0-8.857-9.4,78.8,78.8,0,0,0-9.448-7.481,48.316,48.316,0,0,0-9.651-5.265c-13.2-5.057-26.167-14.7-36.091-23.4-4.775-4.381-8.8-8.486-11.613-11.482s-4.443-4.867-4.443-4.867c1.8,23.553,10.818,52.319,23.08,76.859a145.728,145.728,0,0,0,21.854,32.731A125.84,125.84,0,0,0,821.82,1280.776Z" transform="translate(-752.95 -585.603)" fill="#f5c04b"></path><path id="&#x30D1;&#x30B9;_24167-3" data-name="&#x30D1;&#x30B9; 24167" d="M871.523,1056.686a77.9,77.9,0,0,0,9.131,11.447c6.463,6.564,13.142,11.1,19.748,13.491a31.77,31.77,0,0,0,19.777.606l.548-.173v-1.264c-.015-2.459-.145-4.884-.26-7.326q-.129-3.715-.432-7.377c-.4-4.884-1.169-9.7-2.02-14.461a131.911,131.911,0,0,0-2.985-14.115c-.577-2.3-1.341-4.555-1.947-6.823-.635-2.251-1.313-4.468-2.063-6.65a126.747,126.747,0,0,0-5.049-12.573,102.329,102.329,0,0,0-5.741-11.412,86.955,86.955,0,0,0-6.795-9.837,52.312,52.312,0,0,0-7.443-7.9c-2.64-2.234-5.236-4.693-7.775-7.308a103.9,103.9,0,0,1-7.255-8.226,204.565,204.565,0,0,1-12.146-17.093c-.866-1.385-1.688-2.7-2.481-3.966-.75-1.3-1.442-2.546-2.106-3.706-1.328-2.355-2.452-4.486-3.39-6.252-1.847-3.568-2.885-5.75-2.885-5.75-3.693,21.544-1.962,50,3.318,75.889.707,3.395,1.486,6.72,2.308,9.958.418,1.611.836,3.221,1.283,4.8.462,1.559,1,3.1,1.515,4.624a176.206,176.206,0,0,0,6.852,17.041A113.981,113.981,0,0,0,871.523,1056.686Z" transform="translate(-845.986 -499.557)" fill="#f5c04b"></path><path id="&#x30D1;&#x30B9;_24168-3" data-name="&#x30D1;&#x30B9; 24168" d="M868.718,811.349a122.708,122.708,0,0,0,4.01,15.482,103.33,103.33,0,0,0,5.568,13.2c8.367,16.019,19.7,25.042,31.966,25.942l.533.035.289-1.126a163.817,163.817,0,0,0,4.558-54,120.72,120.72,0,0,0-1.53-12.9c-.389-2.112-.779-4.174-1.183-6.182-.418-2.026-.909-4-1.428-5.94a96.949,96.949,0,0,0-3.824-11.031,56.374,56.374,0,0,0-4.947-9.491c-1.861-2.857-3.664-5.923-5.352-9.075-1.63-3.152-3.159-6.408-4.6-9.7-1.428-3.274-2.755-6.6-3.967-9.837s-2.193-6.374-3.131-9.369c-1.817-5.958-3.274-11.275-4.111-15.05-.837-3.758-1.255-6.044-1.255-6.044-1,2.269-1.991,4.642-2.9,7.135q-1.321,3.741-2.525,7.776t-2.323,8.261c-.707,2.84-1.3,5.767-1.89,8.728s-1.154,5.975-1.658,9.005-.851,6.148-1.226,9.231c-.36,3.1-.692,6.217-.981,9.317-.274,3.117-.39,6.252-.548,9.335q-.216,4.883-.2,9.612c0,3.152.216,6.269.418,9.3A129.955,129.955,0,0,0,868.718,811.349Z" transform="translate(-853.984 -415.73)" fill="#f5c04b"></path><path id="&#x30D1;&#x30B9;_24169-3" data-name="&#x30D1;&#x30B9; 24169" d="M819.588,624.825c.447,2.13.952,4.156,1.529,6.113.606,1.975,1.27,3.862,2.005,5.663a53.817,53.817,0,0,0,5.005,9.7,33.8,33.8,0,0,0,13.733,12.417l.462.208.533-.9c8.323-13.976,13.934-30.324,16.776-46.482a111.263,111.263,0,0,0,1.615-12.019c.275-4,.548-7.828.462-11.655a90.767,90.767,0,0,0-.88-11.067,59.874,59.874,0,0,0-2.265-10.1c-1.01-3.152-1.919-6.443-2.726-9.8-.779-3.36-1.385-6.737-1.933-10.131a178.146,178.146,0,0,1-2.078-19.362c-.317-5.871-.39-11.014-.375-14.686.044-3.637.188-5.767.188-5.767-11.063,13.49-21.219,34.758-27.783,56.319-.865,2.823-1.659,5.646-2.365,8.416-.722,2.789-1.241,5.611-1.76,8.365a129.51,129.51,0,0,0-2,16.141,130.87,130.87,0,0,0-.029,15.032A108.1,108.1,0,0,0,819.588,624.825Z" transform="translate(-769.167 -341.065)" fill="#f5c04b"></path><path id="&#x30D1;&#x30B9;_24170-3" data-name="&#x30D1;&#x30B9; 24170" d="M713.591,479.2l.361.346.692-.606a113.7,113.7,0,0,0,25.662-35.485,100.268,100.268,0,0,0,4.14-10.149,86.046,86.046,0,0,0,3.072-10.183,69.091,69.091,0,0,0,1.947-19.778c-.2-3.117-.288-6.356-.245-9.576.072-3.2.26-6.408.52-9.594a172.007,172.007,0,0,1,2.366-17.821c1.009-5.316,2.062-9.871,2.856-13.11.4-1.628.735-2.909.995-3.758.231-.762.361-1.212.375-1.316-12.68,8.451-26.268,23.934-36.856,40.767a124.92,124.92,0,0,0-7.4,13.4,140.338,140.338,0,0,0-5.409,13.526c-2.827,9.109-4.6,17.7-4.861,25.874a62.013,62.013,0,0,0,2.553,21.8A37.594,37.594,0,0,0,713.591,479.2Z" transform="translate(-591.377 -281.578)" fill="#f5c04b"></path><path id="&#x30D1;&#x30B9;_24171-3" data-name="&#x30D1;&#x30B9; 24171" d="M543.806,343.623l.736-.311c11.626-4.693,22.171-13.093,30.8-22.687a85.342,85.342,0,0,0,10.935-15.6,57.743,57.743,0,0,0,6.145-16.8,110.815,110.815,0,0,1,4.471-16.816,148.088,148.088,0,0,1,5.972-14.98c4.082-8.728,7.66-14.737,7.66-14.737-12.954,3.481-28.273,12.746-41.313,24.054-13.747,11.829-23.022,26.74-27.379,40.56-4.226,14.1-3.65,27,1.745,36.888Z" transform="translate(-343.826 -241.688)" fill="#f5c04b"></path><path id="&#x30D1;&#x30B9;_24172-3" data-name="&#x30D1;&#x30B9; 24172" d="M403.967,1501.241a97.761,97.761,0,0,0-6.606-12.763c-.62-1.005-1.255-2.009-1.919-3-.649-1.039-1.313-2.078-2.006-3.083q-2.034-3.04-4.269-5.922c-1.471-1.923-3.015-3.776-4.6-5.577-1.587-1.784-3.217-3.5-4.89-5.351a102.066,102.066,0,0,0-10.574-9.906,98.315,98.315,0,0,0-11.5-8.919,106.674,106.674,0,0,0-12.39-7.741c-16.373-8.989-32.9-17.734-47.516-21.181,0,0,.707,2.165,1.918,5.94.592,1.9,1.313,4.226,2.135,6.892.4,1.334.837,2.771,1.3,4.278.476,1.455.981,3,1.5,4.589,1.024,3.221,2.135,6.737,3.3,10.443s2.337,7.793,3.635,11.707c2.525,7.932,5.077,16.661,7.314,25.319a61.056,61.056,0,0,0,4.861,12.469,66.943,66.943,0,0,0,3.462,5.906c.635.953,1.284,1.922,1.976,2.857.693.9,1.414,1.767,2.149,2.633a78.659,78.659,0,0,0,10.04,9.7,44.3,44.3,0,0,0,5.8,4.052q3.03,1.87,6.232,3.481c17.123,8.573,38.27,10.166,56.358,2.58l1.169-.467-.044-.849A83.868,83.868,0,0,0,403.967,1501.241Z" transform="translate(6.777 -682.293)" fill="#f5c04b"></path><path id="&#x30D1;&#x30B9;_24173-3" data-name="&#x30D1;&#x30B9; 24173" d="M463.337,1338.793s.158,2.2.433,6.044c.26,3.862.562,9.4.88,16.124.418,6.529.894,14.2,1.211,22.5.072,2.1.173,4.174.274,6.235.087,2.1.173,4.191.26,6.321.145,4.26.217,8.59.2,12.919a54.082,54.082,0,0,0,1.4,13.058,75.913,75.913,0,0,0,4.183,12.954c.447,1.057.924,2.148,1.428,3.187.519,1.022,1.067,2.043,1.63,3.048,1.154,2.026,2.381,4.017,3.707,5.992a69.4,69.4,0,0,0,9.03,11.1,84.793,84.793,0,0,0,10.92,9.4,97.347,97.347,0,0,0,12.376,7.118c8.684,3.706,17.844,6.062,26.975,5.733l1.183-.017.158-.8a80.626,80.626,0,0,0,.779-27.623c-.317-2.321-.721-4.607-1.2-6.91-.447-2.356-.981-4.711-1.587-7.031a118.193,118.193,0,0,0-4.486-13.7,158.721,158.721,0,0,0-30.97-49.721C489.244,1360.719,476.088,1346.881,463.337,1338.793Z" transform="translate(-227.15 -652.695)" fill="#f5c04b"></path><path id="&#x30D1;&#x30B9;_24174-3" data-name="&#x30D1;&#x30B9; 24174" d="M654.7,1308.068c-.577-2.373-1.211-4.745-1.933-7.066-.707-2.355-1.515-4.624-2.323-6.945-.764-2.372-1.6-4.71-2.51-7.031q-1.364-3.455-2.943-6.806c-1.024-2.269-2.019-4.624-3.144-6.875-8.6-17.18-17.555-34.29-27.436-45.876,0,0-.346,2.077-.938,5.68-.62,3.6-1.558,8.763-2.769,15-1.126,6.165-2.337,13.248-3.909,20.921-.765,3.758-1.573,7.671-2.381,11.637-.822,3.914-1.73,7.863-2.712,11.776a57.938,57.938,0,0,0-1.76,12.383,78.346,78.346,0,0,0,.88,13.075q.52,3.351,1.3,6.753c.52,2.252,1.241,4.416,1.991,6.633a103.068,103.068,0,0,0,5.54,13.145c8.943,16.938,23.729,31.26,40.2,37.356l1.068.38.346-.658c7.732-14.807,9.463-33.614,7.328-52.249a127.247,127.247,0,0,0-2.265-14.148C655.78,1312.778,655.231,1310.406,654.7,1308.068Z" transform="translate(-430.816 -610.989)" fill="#f5c04b"></path><path id="&#x30D1;&#x30B9;_24175-3" data-name="&#x30D1;&#x30B9; 24175" d="M699.876,1195.033c4.169,18.218,13.791,36.385,27.379,47.365l.866.727.462-.467a59.939,59.939,0,0,0,12.521-19.725A89.46,89.46,0,0,0,744.969,1211a111.505,111.505,0,0,0,2.611-12.989c.318-2.216.563-4.45.75-6.7q.238-3.456.477-6.858a126.462,126.462,0,0,0,.014-14.028,178.047,178.047,0,0,0-3.476-28.9c-3.823-18.548-8.179-37.13-14.483-51.02,0,0-.779,1.784-2.135,4.884-1.385,3.083-3.39,7.481-5.885,12.764-4.674,10.374-11.251,24.471-18.19,37.252a54.546,54.546,0,0,0-4.429,10.633,64.518,64.518,0,0,0-2.207,12.106,83.979,83.979,0,0,0-.188,13.231A110.159,110.159,0,0,0,699.876,1195.033Z" transform="translate(-581.499 -559.677)" fill="#f5c04b"></path><path id="&#x30D1;&#x30B9;_24176-3" data-name="&#x30D1;&#x30B9; 24176" d="M790.009,1029.838c1.326-4.122,2.279-8.331,3.26-12.694a116.956,116.956,0,0,0,2.323-13.422l.346-3.429c.159-1.177.288-2.338.4-3.516.246-2.338.4-4.71.505-7.1.88-18.2,1.009-36.784-1.5-51.626,0,0-1.111,1.385-3.044,3.792-.981,1.2-2.178,2.633-3.548,4.3-.692.814-1.428,1.68-2.207,2.615-.75.9-1.53,1.87-2.337,2.875-3.289,4-7.2,8.642-11.5,13.456-2.121,2.356-4.3,4.8-6.52,7.291-2.221,2.425-4.515,4.832-6.852,7.135a45.014,45.014,0,0,0-6.448,8.14,56.411,56.411,0,0,0-4.76,10.184,85.692,85.692,0,0,0-3.275,11.845,100.98,100.98,0,0,0-1.284,12.955c-.087,2.234-.116,4.5-.072,6.771a67.178,67.178,0,0,0,.533,6.807,124.756,124.756,0,0,0,2.351,13.595,97.331,97.331,0,0,0,4.371,12.954c.851,2.078,1.774,4.122,2.755,6.1,1.024,1.974,2.178,3.845,3.346,5.68l.62.935.533-.26a46.861,46.861,0,0,0,15.839-13.318,83.032,83.032,0,0,0,11.771-20.21C787.109,1037.943,788.754,1033.925,790.009,1029.838Z" transform="translate(-658.577 -502.565)" fill="#f5c04b"></path><path id="&#x30D1;&#x30B9;_24177-3" data-name="&#x30D1;&#x30B9; 24177" d="M740.471,826.332a44.906,44.906,0,0,0-2.625,5.023,93.224,93.224,0,0,0-4.241,11.17c-4.63,15.776-5.063,34.688-.216,50.985l.332,1.039.548-.052c12.089-1.16,23.368-9.23,32.615-20.678,9.29-11.516,16.935-26.358,22.085-43.382,4.89-16.28,9.391-32.991,10.4-47.244,0,0-1.327.9-3.65,2.441-2.337,1.524-5.481,3.723-9.434,6.252-1.962,1.248-4.1,2.6-6.361,4.036-2.193,1.437-4.544,2.909-6.982,4.4s-4.977,2.979-7.573,4.433c-2.553,1.472-5.121,2.892-7.746,4.208a36.462,36.462,0,0,0-7.574,5.23,44.581,44.581,0,0,0-6.621,7.586C742.4,823.216,741.424,824.74,740.471,826.332Z" transform="translate(-652.055 -444.551)" fill="#f5c04b"></path><path id="&#x30D1;&#x30B9;_24178-3" data-name="&#x30D1;&#x30B9; 24178" d="M676.308,716.96l.491.139a34.163,34.163,0,0,0,17.036.173,47.178,47.178,0,0,0,8.539-2.909c1.4-.641,2.784-1.351,4.169-2.113s2.813-1.576,4.2-2.459a67.923,67.923,0,0,0,8.078-6.044,85.814,85.814,0,0,0,7.775-7.326c2.409-2.684,4.976-5.473,7.284-8.538,1.183-1.507,2.251-3.117,3.419-4.711,1.154-1.61,2.265-3.256,3.332-4.97,8.194-13.092,16.1-26.791,20.224-39.4,0,0-1.385.4-3.808,1.056-2.38.693-5.785,1.628-9.881,2.65-4.169.987-8.8,2.234-13.863,3.325-2.524.554-5.164,1.039-7.79,1.524-2.6.5-5.236.935-7.876,1.246a29.859,29.859,0,0,0-7.977,2.2,37.648,37.648,0,0,0-7.645,4.589,47.352,47.352,0,0,0-7.184,6.7,74.593,74.593,0,0,0-6.361,8.538,84.263,84.263,0,0,0-12.2,45.27Z" transform="translate(-579.958 -390.458)" fill="#f5c04b"></path><path id="&#x30D1;&#x30B9;_24179-3" data-name="&#x30D1;&#x30B9; 24179" d="M589.465,554.877l-.231.935.4.294a32.965,32.965,0,0,0,15.016,5.924,47.458,47.458,0,0,0,16.776-.97,67.566,67.566,0,0,0,17.195-6.72,68.36,68.36,0,0,0,8.525-5.248,101.011,101.011,0,0,0,8.295-6.494c10.371-9.093,20.6-18.9,27.134-28.957,0,0-1.328-.069-3.635-.208s-5.554-.364-9.463-.728c-3.938-.433-8.352-.779-13.126-1.42-2.38-.312-4.818-.675-7.285-1.109-2.438-.415-4.89-.866-7.3-1.42a28.263,28.263,0,0,0-15.449.987,46.182,46.182,0,0,0-7.92,3.585,55.429,55.429,0,0,0-7.559,5.541A69.313,69.313,0,0,0,589.465,554.877Z" transform="translate(-447.272 -341.498)" fill="#f5c04b"></path><path id="&#x30D1;&#x30B9;_24180-3" data-name="&#x30D1;&#x30B9; 24180" d="M503.254,397.646c-10.646,4.139-20.7,13.162-27.148,24.61l-.4.745.275.4c6.4,8.746,16.185,13.612,26.845,14.946,10.848,1.542,22.6-.415,34.49-5.282,11.309-4.71,22.662-10.165,30.725-17.093,0,0-4.659-1.784-11.454-4.919-3.418-1.645-7.255-3.29-11.337-5.4-4.082-2.061-8.367-4.433-12.377-6.892a27.61,27.61,0,0,0-13.877-4.122A38.616,38.616,0,0,0,503.254,397.646Z" transform="translate(-261.73 -298.984)" fill="#f5c04b"></path></g><g id="&#x30B0;&#x30EB;&#x30FC;&#x30D7;_1115-2" data-name="&#x30B0;&#x30EB;&#x30FC;&#x30D7; 1115" transform="translate(2871.477 0)"><path id="&#x30D1;&#x30B9;_24163-4" data-name="&#x30D1;&#x30B9; 24163" d="M358.832,1634.395q3.678.157,7.313.572c2.424.295,4.833.71,7.17.987a84.455,84.455,0,0,1,13.761,3.1c1.111.346,2.207.727,3.3,1.108,1.068.346,2.135.71,3.188,1.109,2.12.779,4.183,1.646,6.188,2.615a62.891,62.891,0,0,1,11.237,6.962,128.352,128.352,0,0,0,22.329,13.421,115.163,115.163,0,0,0,11.641,4.781c3.823,1.385,7.559,2.58,11.107,3.62,1.76.52,3.491,1,5.136,1.437,1.658.363,3.231.71,4.7,1.022,2.986.624,5.655,1.108,7.876,1.472,4.457.727,7.14,1.022,7.14,1.022a149.19,149.19,0,0,1-16.358,11.343c-4.5,2.494-9.217,4.953-14.093,7.239-.692.312-1.385.641-2.091.952-.952.433-1.89.849-2.842,1.265-.043.017-.072.034-.115.052-6.693,2.6-13.6,5.091-20.628,7.118-7.126,1.8-14.295,3.5-21.421,4.658a144.851,144.851,0,0,1-21.869,1.559,135.745,135.745,0,0,1-20.238-2.165,119.813,119.813,0,0,1-18.031-5.542,60,60,0,0,1-8.049-3.844c-2.568-1.4-5.02-2.91-7.342-4.469q-3.484-2.363-6.592-4.935c-1.039-.865-2.034-1.732-3-2.615-.966-.936-1.9-1.906-2.813-2.875a70.487,70.487,0,0,1-9.217-12.261,61.388,61.388,0,0,1-8.468-27.623l-.058-.865,1.255-.537A145.679,145.679,0,0,1,358.832,1634.395Z" transform="translate(-297.698 -763.371)" fill="#f5c04b"></path><path id="&#x30D1;&#x30B9;_24164-4" data-name="&#x30D1;&#x30B9; 24164" d="M535.569,1630.466a67.255,67.255,0,0,1-29.6-7.031,58.082,58.082,0,0,1-5.958-3.463,53.489,53.489,0,0,1-5.366-4.243A52.084,52.084,0,0,1,480.1,1593.7l-.275-.762,1.01-.9a147.048,147.048,0,0,1,25-17.8,104.467,104.467,0,0,1,13.257-6.789,130.225,130.225,0,0,1,13.43-5.351c4.558-1.368,8.987-2.771,13.444-3.741,2.221-.467,4.443-.866,6.65-1.16,1.111-.156,2.221-.277,3.318-.381,1.082-.139,2.149-.278,3.231-.363a65.408,65.408,0,0,1,12.622.017,57.849,57.849,0,0,1,6.059.953,45.153,45.153,0,0,1,5.712,1.438,101.508,101.508,0,0,0,11.5,2.944c1.962.381,3.952.727,5.943,1.022,2,.312,4,.536,5.944.658a163.087,163.087,0,0,0,22.517.069c6.765-.623,12.666-1.558,16.878-2.338,4.2-.762,6.693-1.368,6.693-1.368a185.918,185.918,0,0,1-12.1,15.552c-2.207,2.667-4.674,5.057-7.155,7.534q-3.743,3.688-7.732,7.326c-1.326,1.178-2.64,2.425-4.039,3.55-1.4,1.109-2.813,2.234-4.227,3.36-2.841,2.217-5.727,4.4-8.641,6.512-1.471,1.056-2.914,2.147-4.414,3.134-1.515.952-3.029,1.922-4.544,2.875q-4.565,2.831-9.131,5.49c-12.881,7.239-25.777,11.9-37.937,13.941a70.11,70.11,0,0,1-8.915,1.177C541.252,1630.484,538.367,1630.535,535.569,1630.466Z" transform="translate(-365.93 -734.123)" fill="#f5c04b"></path><path id="&#x30D1;&#x30B9;_24165-4" data-name="&#x30D1;&#x30B9; 24165" d="M701.652,1477.37c-1.269.52-2.568.952-3.837,1.385a80.538,80.538,0,0,1-14.728,3.533c-19.1,2.269-34.5-4.26-44.011-17.768l-.433-.607.707-1.142a160.74,160.74,0,0,1,39.568-44.7,103.607,103.607,0,0,1,11.237-7.932c1.9-1.177,3.88-2.217,5.77-3.256,1.89-1.074,3.794-2.044,5.7-2.909a65.34,65.34,0,0,1,11.5-4.087,50.975,50.975,0,0,1,11.136-1.749,98.818,98.818,0,0,0,11.108-1.039c1.875-.277,3.765-.623,5.64-.987,1.832-.416,3.65-.883,5.468-1.368a158.067,158.067,0,0,0,20.411-7.17c5.986-2.736,11.122-5.437,14.757-7.481,3.635-2.026,5.77-3.36,5.77-3.36-2.062,5.784-4.573,11.794-7.458,17.907-.722,1.524-1.443,3.083-2.236,4.589-.837,1.49-1.659,3-2.51,4.5-1.7,3.013-3.476,6.044-5.337,9.057a194.646,194.646,0,0,1-12.175,17.578c-2.179,2.823-4.284,5.715-6.636,8.365-2.308,2.667-4.659,5.3-7,7.862-2.481,2.685-4.919,5.3-7.472,7.672-2.582,2.356-5.179,4.572-7.76,6.668s-5.164,4.052-7.732,5.888c-2.611,1.784-5.28,3.343-7.876,4.832-2.611,1.472-5.207,2.806-7.761,4.018C704.176,1476.261,702.906,1476.833,701.652,1477.37Z" transform="translate(-425.426 -666.908)" fill="#f5c04b"></path><path id="&#x30D1;&#x30B9;_24166-4" data-name="&#x30D1;&#x30B9; 24166" d="M821.388,1280.776c-1.024.832-2.048,1.611-3.058,2.373-1.039.744-2.106,1.437-3.144,2.113q-3.138,2-6.232,3.585a59.863,59.863,0,0,1-12.088,4.763,44.1,44.1,0,0,1-11.627,1.265,34.841,34.841,0,0,1-20.065-7l-.52-.4L765,1286.2a190.952,190.952,0,0,1,10.544-28.524c2.265-4.416,4.356-8.936,6.823-13.11,2.423-4.226,5.121-8.174,7.688-12.105a110.23,110.23,0,0,1,8.4-10.859,105.246,105.246,0,0,1,8.857-9.4,78.8,78.8,0,0,1,9.448-7.481,48.316,48.316,0,0,1,9.651-5.265c13.2-5.057,26.167-14.7,36.091-23.4,4.775-4.381,8.8-8.486,11.612-11.482s4.443-4.867,4.443-4.867c-1.8,23.553-10.818,52.319-23.08,76.859a145.728,145.728,0,0,1-21.854,32.731A125.84,125.84,0,0,1,821.388,1280.776Z" transform="translate(-472.633 -585.603)" fill="#f5c04b"></path><path id="&#x30D1;&#x30B9;_24167-4" data-name="&#x30D1;&#x30B9; 24167" d="M895.19,1056.686a77.894,77.894,0,0,1-9.131,11.447c-6.463,6.564-13.141,11.1-19.748,13.491a31.77,31.77,0,0,1-19.777.606l-.548-.173v-1.264c.015-2.459.144-4.884.26-7.326q.129-3.715.432-7.377c.4-4.884,1.169-9.7,2.02-14.461a131.941,131.941,0,0,1,2.986-14.115c.577-2.3,1.341-4.555,1.947-6.823.635-2.251,1.313-4.468,2.063-6.65a126.747,126.747,0,0,1,5.049-12.573,102.329,102.329,0,0,1,5.741-11.412,86.939,86.939,0,0,1,6.795-9.837,52.318,52.318,0,0,1,7.443-7.9c2.64-2.234,5.236-4.693,7.775-7.308a103.9,103.9,0,0,0,7.256-8.226A204.563,204.563,0,0,0,907.9,949.694c.866-1.385,1.688-2.7,2.481-3.966.75-1.3,1.442-2.546,2.106-3.706,1.328-2.355,2.452-4.486,3.39-6.252,1.847-3.568,2.885-5.75,2.885-5.75,3.693,21.544,1.962,50-3.318,75.889-.707,3.395-1.486,6.72-2.308,9.958-.418,1.611-.836,3.221-1.283,4.8-.462,1.559-1,3.1-1.515,4.624a176.238,176.238,0,0,1-6.852,17.041A113.966,113.966,0,0,1,895.19,1056.686Z" transform="translate(-503.102 -499.557)" fill="#f5c04b"></path><path id="&#x30D1;&#x30B9;_24168-4" data-name="&#x30D1;&#x30B9; 24168" d="M913.515,811.349a122.728,122.728,0,0,1-4.01,15.482,103.33,103.33,0,0,1-5.568,13.2c-8.367,16.019-19.7,25.042-31.966,25.942l-.533.035-.289-1.126a163.817,163.817,0,0,1-4.558-54,120.72,120.72,0,0,1,1.53-12.9c.389-2.112.779-4.174,1.183-6.182.418-2.026.909-4,1.428-5.94a96.925,96.925,0,0,1,3.823-11.031,56.374,56.374,0,0,1,4.947-9.491c1.861-2.857,3.664-5.923,5.352-9.075,1.63-3.152,3.159-6.408,4.6-9.7,1.428-3.274,2.755-6.6,3.967-9.837s2.193-6.374,3.131-9.369c1.817-5.958,3.274-11.275,4.111-15.05.837-3.758,1.255-6.044,1.255-6.044,1,2.269,1.991,4.642,2.9,7.135q1.321,3.741,2.525,7.776t2.323,8.261c.707,2.84,1.3,5.767,1.89,8.728s1.154,5.975,1.658,9.005.851,6.148,1.226,9.231c.36,3.1.692,6.217.981,9.317.274,3.117.39,6.252.548,9.335q.216,4.883.2,9.612c0,3.152-.216,6.269-.418,9.3A129.975,129.975,0,0,1,913.515,811.349Z" transform="translate(-510.623 -415.73)" fill="#f5c04b"></path><path id="&#x30D1;&#x30B9;_24169-4" data-name="&#x30D1;&#x30B9; 24169" d="M859.634,624.825c-.447,2.13-.952,4.156-1.529,6.113-.606,1.975-1.27,3.862-2,5.663a53.813,53.813,0,0,1-5.005,9.7,33.8,33.8,0,0,1-13.732,12.417l-.462.208-.534-.9c-8.323-13.976-13.935-30.324-16.776-46.482a111.263,111.263,0,0,1-1.615-12.019c-.275-4-.548-7.828-.462-11.655a90.8,90.8,0,0,1,.88-11.067,59.886,59.886,0,0,1,2.265-10.1c1.01-3.152,1.919-6.443,2.726-9.8.779-3.36,1.385-6.737,1.933-10.131a178.13,178.13,0,0,0,2.078-19.362c.317-5.871.39-11.014.375-14.686-.044-3.637-.188-5.767-.188-5.767,11.063,13.49,21.219,34.758,27.783,56.319.865,2.823,1.658,5.646,2.365,8.416.722,2.789,1.241,5.611,1.76,8.365a129.5,129.5,0,0,1,2,16.141,130.87,130.87,0,0,1,.029,15.032A108.109,108.109,0,0,1,859.634,624.825Z" transform="translate(-492.429 -341.065)" fill="#f5c04b"></path><path id="&#x30D1;&#x30B9;_24170-4" data-name="&#x30D1;&#x30B9; 24170" d="M744.471,479.2l-.361.346-.692-.606a113.7,113.7,0,0,1-25.662-35.485,100.254,100.254,0,0,1-4.14-10.149,86.046,86.046,0,0,1-3.073-10.183,69.088,69.088,0,0,1-1.947-19.778c.2-3.117.288-6.356.245-9.576-.072-3.2-.26-6.408-.52-9.594a172.007,172.007,0,0,0-2.366-17.821c-1.009-5.316-2.062-9.871-2.856-13.11-.4-1.628-.735-2.909-.995-3.758-.231-.762-.361-1.212-.375-1.316,12.68,8.451,26.268,23.934,36.856,40.767a124.92,124.92,0,0,1,7.4,13.4,140.354,140.354,0,0,1,5.409,13.526c2.827,9.109,4.6,17.7,4.861,25.874a62.012,62.012,0,0,1-2.553,21.8A37.594,37.594,0,0,1,744.471,479.2Z" transform="translate(-449.06 -281.578)" fill="#f5c04b"></path><path id="&#x30D1;&#x30B9;_24171-4" data-name="&#x30D1;&#x30B9; 24171" d="M605.758,343.623l-.736-.311c-11.626-4.693-22.171-13.093-30.8-22.687a85.342,85.342,0,0,1-10.935-15.6,57.743,57.743,0,0,1-6.145-16.8,110.822,110.822,0,0,0-4.471-16.816,148.089,148.089,0,0,0-5.972-14.98c-4.082-8.728-7.66-14.737-7.66-14.737,12.954,3.481,28.273,12.746,41.313,24.054,13.747,11.829,23.022,26.74,27.379,40.56,4.226,14.1,3.65,27-1.745,36.888Z" transform="translate(-388.112 -241.688)" fill="#f5c04b"></path><path id="&#x30D1;&#x30B9;_24172-4" data-name="&#x30D1;&#x30B9; 24172" d="M304.579,1501.241a97.757,97.757,0,0,1,6.606-12.763c.62-1.005,1.255-2.009,1.919-3,.649-1.039,1.313-2.078,2.006-3.083q2.034-3.04,4.269-5.922c1.471-1.923,3.015-3.776,4.6-5.577,1.587-1.784,3.217-3.5,4.89-5.351a102.066,102.066,0,0,1,10.574-9.906,98.315,98.315,0,0,1,11.5-8.919,106.668,106.668,0,0,1,12.39-7.741c16.373-8.989,32.9-17.734,47.516-21.181,0,0-.707,2.165-1.918,5.94-.592,1.9-1.313,4.226-2.135,6.892-.4,1.334-.837,2.771-1.3,4.278-.476,1.455-.981,3-1.5,4.589-1.024,3.221-2.135,6.737-3.3,10.443s-2.337,7.793-3.635,11.707c-2.525,7.932-5.077,16.661-7.314,25.319a61.059,61.059,0,0,1-4.861,12.469,66.936,66.936,0,0,1-3.462,5.906c-.635.953-1.284,1.922-1.976,2.857-.693.9-1.414,1.767-2.149,2.633a78.661,78.661,0,0,1-10.04,9.7,44.3,44.3,0,0,1-5.8,4.052q-3.03,1.87-6.232,3.481c-17.123,8.573-38.27,10.166-56.358,2.58l-1.169-.467.044-.849A83.868,83.868,0,0,1,304.579,1501.241Z" transform="translate(-297.698 -682.293)" fill="#f5c04b"></path><path id="&#x30D1;&#x30B9;_24173-4" data-name="&#x30D1;&#x30B9; 24173" d="M541.189,1338.793s-.158,2.2-.433,6.044c-.26,3.862-.562,9.4-.88,16.124-.418,6.529-.894,14.2-1.211,22.5-.072,2.1-.173,4.174-.274,6.235-.087,2.1-.173,4.191-.26,6.321-.145,4.26-.217,8.59-.2,12.919a54.088,54.088,0,0,1-1.4,13.058,75.913,75.913,0,0,1-4.183,12.954c-.447,1.057-.924,2.148-1.428,3.187-.519,1.022-1.067,2.043-1.63,3.048-1.154,2.026-2.381,4.017-3.707,5.992a69.4,69.4,0,0,1-9.03,11.1,84.791,84.791,0,0,1-10.92,9.4,97.347,97.347,0,0,1-12.376,7.118c-8.684,3.706-17.844,6.062-26.975,5.733l-1.183-.017-.158-.8a80.629,80.629,0,0,1-.779-27.623c.317-2.321.721-4.607,1.2-6.91.447-2.356.981-4.711,1.587-7.031a118.193,118.193,0,0,1,4.486-13.7,158.721,158.721,0,0,1,30.97-49.721C515.282,1360.719,528.438,1346.881,541.189,1338.793Z" transform="translate(-359.751 -652.695)" fill="#f5c04b"></path><path id="&#x30D1;&#x30B9;_24174-4" data-name="&#x30D1;&#x30B9; 24174" d="M604.664,1308.068c.577-2.373,1.211-4.745,1.933-7.066.707-2.355,1.515-4.624,2.323-6.945.764-2.372,1.6-4.71,2.51-7.031q1.364-3.455,2.943-6.806c1.024-2.269,2.019-4.624,3.144-6.875,8.6-17.18,17.555-34.29,27.436-45.876,0,0,.346,2.077.938,5.68.62,3.6,1.558,8.763,2.769,15,1.126,6.165,2.337,13.248,3.909,20.921.765,3.758,1.573,7.671,2.381,11.637.822,3.914,1.73,7.863,2.712,11.776a57.934,57.934,0,0,1,1.76,12.383,78.339,78.339,0,0,1-.88,13.075q-.52,3.351-1.3,6.753c-.52,2.252-1.241,4.416-1.991,6.633a103.067,103.067,0,0,1-5.539,13.145c-8.943,16.938-23.729,31.26-40.2,37.356l-1.068.38-.346-.658c-7.732-14.807-9.463-33.614-7.328-52.249a127.262,127.262,0,0,1,2.265-14.148C603.582,1312.778,604.131,1310.406,604.664,1308.068Z" transform="translate(-410.921 -610.989)" fill="#f5c04b"></path><path id="&#x30D1;&#x30B9;_24175-4" data-name="&#x30D1;&#x30B9; 24175" d="M746.778,1195.033c-4.169,18.218-13.791,36.385-27.379,47.365l-.866.727-.462-.467a59.939,59.939,0,0,1-12.521-19.725A89.477,89.477,0,0,1,701.685,1211a111.505,111.505,0,0,1-2.611-12.989c-.318-2.216-.563-4.45-.75-6.7q-.238-3.456-.477-6.858a126.462,126.462,0,0,1-.014-14.028,178.034,178.034,0,0,1,3.476-28.9c3.823-18.548,8.179-37.13,14.483-51.02,0,0,.779,1.784,2.135,4.884,1.385,3.083,3.39,7.481,5.885,12.764,4.674,10.374,11.251,24.471,18.19,37.252a54.546,54.546,0,0,1,4.429,10.633,64.518,64.518,0,0,1,2.207,12.106,83.972,83.972,0,0,1,.188,13.231A110.159,110.159,0,0,1,746.778,1195.033Z" transform="translate(-447.53 -559.677)" fill="#f5c04b"></path><path id="&#x30D1;&#x30B9;_24176-4" data-name="&#x30D1;&#x30B9; 24176" d="M750.895,1029.838c-1.326-4.122-2.279-8.331-3.26-12.694a116.969,116.969,0,0,1-2.323-13.422l-.346-3.429c-.159-1.177-.288-2.338-.4-3.516-.246-2.338-.4-4.71-.505-7.1-.88-18.2-1.009-36.784,1.5-51.626,0,0,1.111,1.385,3.044,3.792.981,1.2,2.178,2.633,3.548,4.3.692.814,1.428,1.68,2.207,2.615.75.9,1.53,1.87,2.337,2.875,3.289,4,7.2,8.642,11.5,13.456,2.121,2.356,4.3,4.8,6.52,7.291,2.221,2.425,4.515,4.832,6.852,7.135a45.014,45.014,0,0,1,6.448,8.14,56.411,56.411,0,0,1,4.76,10.184,85.7,85.7,0,0,1,3.275,11.845,100.98,100.98,0,0,1,1.284,12.955c.087,2.234.116,4.5.072,6.771a67.16,67.16,0,0,1-.533,6.807,124.755,124.755,0,0,1-2.351,13.595,97.339,97.339,0,0,1-4.371,12.954c-.851,2.078-1.774,4.122-2.755,6.1-1.024,1.974-2.178,3.845-3.346,5.68l-.62.935-.533-.26a46.861,46.861,0,0,1-15.839-13.318,83.032,83.032,0,0,1-11.771-20.21C753.795,1037.943,752.15,1033.925,750.895,1029.838Z" transform="translate(-464.702 -502.565)" fill="#f5c04b"></path><path id="&#x30D1;&#x30B9;_24177-4" data-name="&#x30D1;&#x30B9; 24177" d="M788.837,826.332a44.9,44.9,0,0,1,2.625,5.023,93.224,93.224,0,0,1,4.241,11.17c4.63,15.776,5.063,34.688.216,50.985l-.332,1.039-.548-.052c-12.088-1.16-23.368-9.23-32.615-20.678-9.29-11.516-16.935-26.358-22.085-43.382-4.89-16.28-9.391-32.991-10.4-47.244,0,0,1.327.9,3.65,2.441,2.337,1.524,5.481,3.723,9.434,6.252,1.962,1.248,4.1,2.6,6.361,4.036,2.193,1.437,4.544,2.909,6.982,4.4s4.977,2.979,7.573,4.433c2.553,1.472,5.12,2.892,7.746,4.208a36.464,36.464,0,0,1,7.574,5.23,44.584,44.584,0,0,1,6.621,7.586C786.9,823.216,787.885,824.74,788.837,826.332Z" transform="translate(-459.628 -444.551)" fill="#f5c04b"></path><path id="&#x30D1;&#x30B9;_24178-4" data-name="&#x30D1;&#x30B9; 24178" d="M760.786,716.96l-.491.139a34.163,34.163,0,0,1-17.036.173,47.178,47.178,0,0,1-8.539-2.909c-1.4-.641-2.784-1.351-4.169-2.113s-2.813-1.576-4.2-2.459a67.923,67.923,0,0,1-8.078-6.044,85.806,85.806,0,0,1-7.775-7.326c-2.409-2.684-4.976-5.473-7.284-8.538-1.183-1.507-2.251-3.117-3.419-4.711-1.154-1.61-2.264-3.256-3.332-4.97-8.194-13.092-16.1-26.791-20.224-39.4,0,0,1.385.4,3.808,1.056,2.38.693,5.785,1.628,9.882,2.65,4.169.987,8.8,2.234,13.863,3.325,2.524.554,5.164,1.039,7.79,1.524,2.6.5,5.236.935,7.876,1.246a29.86,29.86,0,0,1,7.977,2.2,37.646,37.646,0,0,1,7.644,4.589,47.35,47.35,0,0,1,7.184,6.7,74.586,74.586,0,0,1,6.361,8.538,84.263,84.263,0,0,1,12.2,45.27Z" transform="translate(-439.511 -390.458)" fill="#f5c04b"></path><path id="&#x30D1;&#x30B9;_24179-4" data-name="&#x30D1;&#x30B9; 24179" d="M682.348,554.877l.231.935-.4.294a32.965,32.965,0,0,1-15.016,5.924,47.458,47.458,0,0,1-16.776-.97,67.566,67.566,0,0,1-17.195-6.72,68.356,68.356,0,0,1-8.525-5.248,101.021,101.021,0,0,1-8.295-6.494c-10.371-9.093-20.6-18.9-27.134-28.957,0,0,1.328-.069,3.635-.208s5.554-.364,9.463-.728c3.938-.433,8.352-.779,13.127-1.42,2.38-.312,4.818-.675,7.285-1.109,2.438-.415,4.89-.866,7.3-1.42a28.263,28.263,0,0,1,15.449.987,46.182,46.182,0,0,1,7.92,3.585,55.425,55.425,0,0,1,7.559,5.541A69.313,69.313,0,0,1,682.348,554.877Z" transform="translate(-406.916 -341.498)" fill="#f5c04b"></path><path id="&#x30D1;&#x30B9;_24180-4" data-name="&#x30D1;&#x30B9; 24180" d="M540.485,397.646c10.646,4.139,20.7,13.162,27.148,24.61l.4.745-.274.4c-6.4,8.746-16.185,13.612-26.845,14.946-10.848,1.542-22.6-.415-34.49-5.282-11.309-4.71-22.662-10.165-30.725-17.093,0,0,4.659-1.784,11.454-4.919,3.418-1.645,7.256-3.29,11.337-5.4,4.082-2.061,8.367-4.433,12.377-6.892a27.61,27.61,0,0,1,13.877-4.122A38.616,38.616,0,0,1,540.485,397.646Z" transform="translate(-364.383 -298.984)" fill="#f5c04b"></path></g></g></g><path id="&#x30D1;&#x30B9;_24198" data-name="&#x30D1;&#x30B9; 24198" d="M117.9-270.208a12.422,12.422,0,0,1-9.113-3.783,12.422,12.422,0,0,1-3.783-9.113,12.422,12.422,0,0,1,3.783-9.113A12.422,12.422,0,0,1,117.9-296a12.422,12.422,0,0,1,9.113,3.783A12.422,12.422,0,0,1,130.8-283.1a12.422,12.422,0,0,1-3.783,9.113A12.422,12.422,0,0,1,117.9-270.208Zm0,31.123,56.743-56.743,4.986,4.987L122.888-234.1l56.743,56.743-4.986,4.987L117.9-229.112,60.987-172.2,56-177.184,112.915-234.1,56.172-290.842l4.987-4.987ZM81.792-234.1a12.422,12.422,0,0,1-3.783,9.113A12.422,12.422,0,0,1,68.9-221.2a12.422,12.422,0,0,1-9.113-3.783A12.422,12.422,0,0,1,56-234.1a12.422,12.422,0,0,1,3.783-9.113,12.422,12.422,0,0,1,9.113-3.783,12.422,12.422,0,0,1,9.113,3.783A12.422,12.422,0,0,1,81.792-234.1Zm72.218,0a12.422,12.422,0,0,1,3.783-9.113,12.422,12.422,0,0,1,9.113-3.783,12.422,12.422,0,0,1,9.113,3.783A12.422,12.422,0,0,1,179.8-234.1a12.422,12.422,0,0,1-3.783,9.113,12.422,12.422,0,0,1-9.113,3.783,12.422,12.422,0,0,1-9.113-3.783A12.422,12.422,0,0,1,154.011-234.1ZM117.9-197.989a12.422,12.422,0,0,1,9.113,3.783,12.422,12.422,0,0,1,3.783,9.113,12.422,12.422,0,0,1-3.783,9.113A12.422,12.422,0,0,1,117.9-172.2a12.422,12.422,0,0,1-9.113-3.783,12.422,12.422,0,0,1-3.783-9.113,12.422,12.422,0,0,1,3.783-9.113A12.422,12.422,0,0,1,117.9-197.989Zm93.5,29.231v-11.561q17.668-17.318,30.321-30.8t19.417-24.425q6.764-10.94,6.764-20.615a27.216,27.216,0,0,0-2.356-11.752,17.424,17.424,0,0,0-7.122-7.758,23.274,23.274,0,0,0-11.891-2.782,23.935,23.935,0,0,0-13.595,4.171,59.735,59.735,0,0,0-11.324,9.872l-11.23-10.983a68.111,68.111,0,0,1,17.2-13.89q9.034-4.976,21.484-4.976,11.623,0,20.172,4.608A32.845,32.845,0,0,1,282.518-276.7a39.056,39.056,0,0,1,4.726,19.571q0,11.15-6.28,22.69a138.961,138.961,0,0,1-16.913,23.894q-10.633,12.353-23.819,26.185,4.89-.537,10.52-.939t10.232-.4h32.257v16.94Z" transform="translate(2441.862 1075.454)" fill="#333"></path></g></g></g></g><path id="&#x30D1;&#x30B9;_25032" data-name="&#x30D1;&#x30B9; 25032" d="M21.486-268.924H240.756v54.693h-29.3v-28.7H49.619v28.7H21.486Zm36.221,45.308h131.84v27.6H57.706ZM211.45-342.162,231.7-317.816q-21.192,3.948-45.84,7.1t-51,5.39Q108.5-303.089,81.984-301.6T30.475-299.45a57.3,57.3,0,0,0-2.437-13.135,110.893,110.893,0,0,0-4.247-12.353q24.937-.86,50.743-2.373t50.669-3.625q24.862-2.113,46.879-5.017T211.45-342.162Zm-165.7,47.489L71.91-302a125.239,125.239,0,0,1,8.607,15.04,88.743,88.743,0,0,1,5.773,14.372l-27.579,8.075a83.334,83.334,0,0,0-5.116-14.649A148.471,148.471,0,0,0,45.754-294.673Zm66.067-5.308,26.57-5.988a156.749,156.749,0,0,1,7.135,16.651,85.138,85.138,0,0,1,4.36,15.873l-28.13,6.879a90.987,90.987,0,0,0-3.61-16.123A154.455,154.455,0,0,0,111.82-299.981Zm79.4-6.488,31.87,7.458q-4.307,7.868-8.89,15.632t-9.025,14.708q-4.442,6.944-8.331,12.275l-24.624-7.153q3.5-6.113,7.063-13.53t6.754-15.14Q189.226-299.942,191.219-306.469Zm-12.761,82.854h6.293l5.265-1.087,20.364,12.144a144.031,144.031,0,0,1-29.138,42.474,169.993,169.993,0,0,1-41.089,30.143,260.677,260.677,0,0,1-50.337,19.994,411.488,411.488,0,0,1-56.678,11.833A67.892,67.892,0,0,0,28.668-117q-3-5.152-6.477-10.014a64,64,0,0,0-6.572-7.954A445.552,445.552,0,0,0,70.4-143.97,240.71,240.71,0,0,0,117.617-159.9,140.14,140.14,0,0,0,154.459-184.3a99.95,99.95,0,0,0,24-34.438ZM87.31-203.248q13.977,18.82,37.167,32.449T178.3-148.721a388.847,388.847,0,0,0,67.067,11.861,69.631,69.631,0,0,0-6.6,8.441q-3.51,5.153-6.6,10.377t-5.152,9.4a358.877,358.877,0,0,1-68.631-15.4,217.646,217.646,0,0,1-55.48-27.593,176.529,176.529,0,0,1-41.8-41ZM389.826-323.225H527.087v21.3H389.826Zm-6.477,62.744H531.593v22.666H383.349Zm-.387,94.423H532.18v23.506H382.962ZM408.626-196.4H508.65v18.57H408.626Zm-14.133-95.572H521.748V-271.2H394.492Zm21.579-48.849h26.766V-250.4H416.072Zm55.689,0h27.02V-250.4h-27.02Zm-27.5,91.82h24.62v96.847h-24.62ZM492.3-228.642h27.211v96.51q0,9.381-2.253,14.462t-8.683,8.087a45.262,45.262,0,0,1-15.6,3.271q-9.316.516-22.019.516a72.341,72.341,0,0,0-2.589-11.724,76.254,76.254,0,0,0-4.313-11.392q7.3.25,14.495.375t9.5.07a5.917,5.917,0,0,0,3.4-1.071,4.016,4.016,0,0,0,.848-2.931Zm-96.847,0H502.185v20.715H420.656V-105.6h-25.2Zm-88.381-33.571h68.779v22.67H307.073Zm1.309-70.667h66.524v22.67H308.383Zm-1.309,105.692h68.779v22.67H307.073Zm-11.089-71.081H383.22v23.7H295.985Zm25.046,106.5h55.822v76.037H321.031v-23.647h30.811v-28.689H321.031Zm-14.735,0H330.97v85.922H306.3ZM623.132-295.342H797.243v29.3H623.132Zm-10.389,73.626H787.566V-192.8H612.743Zm-28.888,79.422H810v29.3H583.855Zm97.253-198.391h31.308v212.877H681.108Zm-57.851,3.053,31.061,6.965A359.35,359.35,0,0,1,641.2-292.615a323.571,323.571,0,0,1-16.678,34.982,189.259,189.259,0,0,1-18.871,28.2,67.726,67.726,0,0,0-7.854-6.086q-4.958-3.385-10.111-6.7t-9.082-5.32a135.757,135.757,0,0,0,18.368-25.038A241.92,241.92,0,0,0,612.1-303.759,272.721,272.721,0,0,0,623.257-337.632Zm309.926,17.483h155.381v26.043H933.184Zm-7.641,44.44h170.308v26.379H925.542Zm52.711,107.24h63.9v21.7h-63.9ZM965.207-340.685H993.34v87.4H965.207Zm61.7,0h28.97v87.4h-28.97ZM969.85-197.995h17.6v65.949h-17.6Zm63.116,0h17.4v59.68h-17.4Zm28.982-36.307h27.993v99.915q0,9.631-2.156,15.3t-8.695,8.671a43.5,43.5,0,0,1-15.63,3.539q-9.287.584-21.982.584a82.331,82.331,0,0,0-2.687-12.519,97.978,97.978,0,0,0-4.36-12.437q7.129.25,14.059.375t9.345.07q4.112-.055,4.112-3.916Zm-129.194,0h139.5v25.984H959.379v102.326H932.754Zm-60.434-82.713,17.577-21.45q7.418,3.307,15.673,7.837t15.58,9.408a90.762,90.762,0,0,1,12.023,9.326l-18.691,23.619a79.073,79.073,0,0,0-11.268-9.8q-7.157-5.294-15.216-10.27A177.4,177.4,0,0,0,872.319-317.015ZM860.2-247.81l15.963-22.869a155.37,155.37,0,0,1,16.283,6.07q8.56,3.709,16.439,7.921a84.767,84.767,0,0,1,12.883,8.214l-16.936,25.288a82.68,82.68,0,0,0-12.171-8.56q-7.559-4.5-16.049-8.783A171.747,171.747,0,0,0,860.2-247.81Zm6.281,121.357q5.808-9.756,12.769-22.9t14.215-27.987q7.254-14.841,13.453-29.518L930.627-188.9q-5.5,13.4-11.728,27.253t-12.6,27.276q-6.377,13.422-12.881,25.8ZM995.443-257.405h28.72v42.717h-3.318v61.2H998.762v-61.2h-3.318Zm266.154,49.67h99.415v27.794H1261.6Zm-51.366,14.083q6.754,17.835,17.651,29.017a77.405,77.405,0,0,0,24.89,17.237,115.546,115.546,0,0,0,30.61,8.292,260.007,260.007,0,0,0,34.706,2.238h37.227q7.573,0,14.049-.1t10.678-.293a53.811,53.811,0,0,0-4.231,8.62,112.033,112.033,0,0,0-3.69,10.752q-1.573,5.474-2.41,9.789h-53.383a269.311,269.311,0,0,1-42.668-3.168,124.631,124.631,0,0,1-36.154-11.384,95.538,95.538,0,0,1-29.457-23.172q-13.012-14.956-22.271-38.533Zm37.968-52.265h30.921v123.429l-30.921-9.779Zm-42.42-55.412v34.239h115.385V-301.33Zm-29.889-28.72H1353v91.48H1175.89Zm10.792,106.384,31.421,3.733a362.043,362.043,0,0,1-9.623,42.14,196.248,196.248,0,0,1-16.439,39.971,106.121,106.121,0,0,1-25.632,31.272,83.432,83.432,0,0,0-6.283-6.922q-3.828-3.83-7.854-7.465a84.234,84.234,0,0,0-7.172-5.89,84.24,84.24,0,0,0,22.054-26.885,153.974,153.974,0,0,0,13.1-34.4A254.168,254.168,0,0,0,1186.682-223.666ZM1481.9-270.307h173.717v23.643H1481.9Zm1.88,72.848h137.382v23.5H1483.784Zm31.964-89.33h28.384v56.745h45.8V-286.79h29.5v79.414H1515.749Zm97.7,89.33h5.847l5.21-1.087,18.8,9.5a115.129,115.129,0,0,1-26.15,34.734,151.355,151.355,0,0,1-36.668,24.184,232.761,232.761,0,0,1-44.648,15.623,461.216,461.216,0,0,1-50.425,9.244,83.48,83.48,0,0,0-5.28-13.01,73.143,73.143,0,0,0-7.2-12.087,410.062,410.062,0,0,0,45.955-6.611,232.586,232.586,0,0,0,40.651-12.015,129.382,129.382,0,0,0,32.476-18.585,78.362,78.362,0,0,0,21.431-25.99Zm-78.234,18.484q11.194,14,29.989,23.907t43.381,15.836a364.047,364.047,0,0,0,53.428,8.454,66.718,66.718,0,0,0-6.5,7.757q-3.412,4.665-6.308,9.4a95.191,95.191,0,0,0-4.765,8.663,314.711,314.711,0,0,1-55.672-11.919,183.235,183.235,0,0,1-45.33-21.2,136.2,136.2,0,0,1-34.044-31.65Zm1.317-161.709h31.257v37.6h-31.257Zm-74.966,22.529H1657.04v26.766H1461.568Zm-14.681,0H1475.6v70.475q0,15.318-.944,33.7t-3.711,37.606a266.446,266.446,0,0,1-8.079,37.284,146.107,146.107,0,0,1-13.844,32.652,56.312,56.312,0,0,0-7.02-5.82q-4.569-3.314-9.3-6.31a52.754,52.754,0,0,0-8.272-4.415,122.294,122.294,0,0,0,12.4-29.213,224.938,224.938,0,0,0,6.656-32.648q2.154-16.748,2.779-32.939t.625-29.895Z" transform="translate(-19264.535 -7566.926)" fill="#333"></path><path id="&#x30D1;&#x30B9;_25034" data-name="&#x30D1;&#x30B9; 25034" d="M-692.072-420.85h-84.741l40.625-69.189h118.066V0h-73.95ZM-407.7-91.724l63.477,24.756-90.454,181.226-48.242-20Zm100.014-156.47q0-117.114,54.59-186.938,48.877-63.159,118.384-63.159t118.384,63.159q54.59,69.824,54.59,190.112,0,119.971-54.59,189.795Q-65.2,7.935-134.393,7.935t-118.7-63.159Q-307.684-125.049-307.684-248.193Zm72.681.317q0,81.567,28.247,135.522,28.247,53,72.046,53,43.481,0,72.046-53Q-34.1-165.039-34.1-245.337t-28.564-133.3q-28.564-52.686-72.046-52.686-43.164,0-71.729,52.686Q-235-326.27-235-247.876Zm328.491-.317q0-117.114,54.59-186.938,48.877-63.159,118.384-63.159t118.384,63.159q54.59,69.824,54.59,190.112,0,119.971-54.59,189.795Q335.969,7.935,266.779,7.935t-118.7-63.159Q93.488-125.049,93.488-248.193Zm72.681.317q0,81.567,28.247,135.522,28.247,53,72.046,53,43.481,0,72.046-53,28.564-52.686,28.564-132.983t-28.564-133.3q-28.564-52.686-72.046-52.686-43.164,0-71.729,52.686Q166.169-326.27,166.169-247.876Zm328.491-.317q0-117.114,54.59-186.938,48.877-63.159,118.384-63.159t118.384,63.159q54.59,69.824,54.59,190.112,0,119.971-54.59,189.795Q737.141,7.935,667.951,7.935T549.25-55.225Q494.66-125.049,494.66-248.193Zm72.681.317q0,81.567,28.247,135.522,28.247,53,72.046,53,43.481,0,72.046-53,28.564-52.686,28.564-132.983t-28.564-133.3q-28.564-52.686-72.046-52.686-43.164,0-71.729,52.686Q567.341-326.27,567.341-247.876Z" transform="translate(-15543 -7038)" fill="#333"></path><path id="&#x30D1;&#x30B9;_25035" data-name="&#x30D1;&#x30B9; 25035" d="M-24.36-240.99c1.16,7.83,1.45,13.05,1.45,24.07,0,28.13-3.48,59.16-8.99,80.91A177.268,177.268,0,0,1-80.91-51.04c-17.98,17.69-33.06,28.42-55.39,39.73,11.31,11.6,17.69,20.3,25.52,35.96,28.13-16.82,46.4-31.9,66.12-53.94C-20.88-55.39-9.86-76.56.29-115.42,10.44-83.81,21.75-61.77,39.15-39.44c19.14,24.36,38.86,42.05,72.5,64.38C120.35,7.25,124.99,0,137.46-13.92c-15.95-8.12-22.62-12.47-38.86-25.52C77.14-56.55,64.96-69.89,51.62-91.06c-23.2-36.25-32.19-71.34-32.19-124.41,0-9.86.58-20.59,1.74-25.52Z" transform="translate(-14510 -7057)" fill="#333"></path><path id="&#x30D1;&#x30B9;_25033" data-name="&#x30D1;&#x30B9; 25033" d="M-841.482-131.269h36.388a187.506,187.506,0,0,1,22.34.921,200.743,200.743,0,0,1-.921-23.031v-37.31c0-11.055.23-17.273.921-23.491-7.83.691-15.661.921-26.255.921H-934.3c-10.594,0-18.425-.23-26.025-.921.691,7.6.921,13.818.921,23.491v37.31c0,9.443-.23,15.431-.921,23.031a183.2,183.2,0,0,1,22.109-.921h42.146a145.084,145.084,0,0,1-14.74,13.818c-6.218-4.376-9.443-6.449-19.346-12.667l-22.57,17.734c23.261,12.667,34.085,19.576,43.989,27.867-54.122-.23-54.122-.23-65.407-2.073l3.224,29.249c4.606-1.152,11.976-1.382,36.158-2.073,2.3,0,2.533,0,14.049-.23-14.279,13.588-27.406,20.728-54.813,30.4,9.673,8.061,15.2,14.049,21.188,23.491,25.794-11.055,40.995-21.188,58.728-38.922l-23.031-14.97,29.94-.921v30.631a195.518,195.518,0,0,1-1.382,25.1h33.394c-1.152-7.83-1.382-13.818-1.382-25.1V-61.717c32.243-1.612,32.243-1.612,60.8-3.224,2.994,5.067,4.376,7.83,8.291,15.891L-764.1-66.093c-14.279-20.267-22.109-29.479-39.152-46.292l-23.261,14.049c7.14,6.218,9.212,8.291,12.206,11.285-23.952,1.152-23.952,1.152-42.146,1.612,5.988-4.376,10.824-8.061,17.043-13.358q20.728-17.273,23.491-19.346Zm-1.382,0c-5.988,8.291-19.346,20.5-38.692,35.7-3.224-2.764-4.145-3.455-9.9-7.83a275.1,275.1,0,0,0,30.17-27.867ZM-931.3-192.3h43.989v10.824H-931.3Zm119.3,0v10.824h-46.752V-192.3Zm-119.3,29.94h43.989v11.055H-931.3Zm119.3,0v11.055h-46.752v-11.055ZM-850.233-45.826c20.958,18.885,37.079,28.788,64.025,39.843,5.758-10.364,10.824-17.5,18.655-25.564-27.867-8.982-41.916-16.121-59.189-30.631Zm267.386-105.48h-11.746a225.945,225.945,0,0,1-28.328-1.382V-121.6a272.747,272.747,0,0,1,28.558-1.382h11.515v81.989c0,17.273-.461,26.946-1.612,35.7H-550.6c-1.151-9.9-1.612-19.346-1.612-35.7v-81.989h13.358A279.2,279.2,0,0,1-510.3-121.6v-31.091a224.382,224.382,0,0,1-28.1,1.382h-13.818v-39.382a227.521,227.521,0,0,1,1.382-28.558h-33.394c1.152,8.752,1.382,14.74,1.382,28.558ZM-713.2-190c5.758-.461,11.746-.691,20.5-.691h40.995c8.982,0,14.279.23,20.267.691V-214.41a157.251,157.251,0,0,1-20.267.921H-692.7a158.955,158.955,0,0,1-20.5-.921Zm-8.982,34.776a161.041,161.041,0,0,1,19.115-.921h61.262c10.364,0,14.279.23,19.346.921v-26.485a146.134,146.134,0,0,1-19.346.921h-61.031c-8.521,0-13.818-.23-19.346-1.152Zm9.443,32.473c4.836-.691,7.37-.691,14.509-.691h52.51c7.37,0,9.212,0,14.049.691V-146.93c-4.836.691-5.988.691-14.049.691h-52.51c-7.6,0-9.443,0-14.509-.691Zm0,32.934c4.836-.691,7.139-.691,14.279-.691h52.28a109.236,109.236,0,0,1,14.509.691V-114c-4.606.691-6.449.691-14.049.691h-52.51A109.23,109.23,0,0,1-712.74-114Zm27.867,74.619h26.255v6.679H-629.6c-.921-5.067-1.152-11.285-1.152-20.267V-63.79c0-7.37.23-12.437.691-17.5a112.5,112.5,0,0,1-14.279.691H-697.31c-8.982,0-11.746,0-16.352-.691a142.4,142.4,0,0,1,.921,17.734v36.388a154.967,154.967,0,0,1-1.152,21.879h29.019Zm-.691-42.146h27.176v18.425h-27.176Zm247.81-122.293A142.869,142.869,0,0,1-429-158.676H-442.59a213.781,213.781,0,0,1-23.952-.921c.691,9.443.921,13.127.921,20.5v16.812A116.169,116.169,0,0,1-467-103.633h29.249v12.9c7.37-.691,15.2-1.152,23.722-1.152H-335.5c-10.824,11.976-18.194,17.964-31.322,26.255C-378.8-72.772-386.4-78.99-399.062-91.657L-423.936-80.6c11.515,13.358,17.964,19.346,30.17,28.788-22.34,9.443-46.522,14.97-75.541,18.194,6.679,9.9,10.133,16.812,14.74,29.019,37.079-6.909,62.183-15.2,88.668-29.249,31.782,16.582,52.971,23.031,94.2,28.558a122.752,122.752,0,0,1,13.588-30.631c-34.546-3.224-55.274-7.37-79.456-16.121,14.509-10.824,19.346-15.431,36.388-34.546l10.364-11.055-17.5-20.728c-4.606.691-10.364.921-19.576.921h-86.135a207.477,207.477,0,0,1-22.57-.921v-12.9h143.711v28.1h30.4a112.824,112.824,0,0,1-1.152-18.425V-139.33c0-9.212.23-14.049.691-20.267-6.449.691-11.515.921-24.413.921h-13.127c3.455-5.758,3.455-5.758,12.667-23.491l-20.958-6.218c12.437-1.842,17.043-2.764,25.794-4.606,5.988-1.382,6.679-1.612,10.133-2.3l-18.655-26.485a240.394,240.394,0,0,1-44.68,9.212c-27.406,3.455-67.71,5.758-102.026,5.758-4.376,0-11.285,0-22.57-.23a128.609,128.609,0,0,1,9.443,27.406Zm52.28-1.842h.691a238.255,238.255,0,0,1,8.061,22.8H-398.6a194.011,194.011,0,0,0-8.752-21.649Zm37.77,22.8a202.183,202.183,0,0,0-7.83-25.1q6.564-.345,23.491-2.073c7.83-.691,8.521-.691,12.9-1.152a238.906,238.906,0,0,1-12.9,28.328Zm260.016,29.71v8.521h-26.025c-9.673,0-14.509-.23-20.037-.691.461,5.3.691,11.285.691,20.5v33.855a52.639,52.639,0,0,1-7.6-.921V-41.68a57.178,57.178,0,0,1,7.6-.921v6.679c0,15.431-.23,21.188-1.152,29.94h28.558c-.921-9.212-1.152-13.588-1.152-29.94V-42.6H-41.4V-35c0,4.146-1.612,4.836-9.9,4.836a193.824,193.824,0,0,1-20.267-1.382c3.224,9.9,4.146,13.818,4.836,23.261,14.279.691,17.043.691,19.346.691,9.9,0,20.728-1.382,24.412-3.455,5.527-2.764,7.83-8.061,7.83-18.885V-42.6c6.218.23,8.061.461,12.437.921V-67.935a78.973,78.973,0,0,1-12.437,1.152V-99.027a184.1,184.1,0,0,1,1.152-22.34,168.8,168.8,0,0,1-21.188.921H-61.2v-8.521h40.764a111.794,111.794,0,0,1,17.273.921v-23.031c-3.915.691-8.291.921-17.273.921H-36.329v-8.291H-26.2a130.576,130.576,0,0,1,14.97.691v-19.806a124.588,124.588,0,0,1-14.509.691H-36.329v-7.83H-21.82a102.877,102.877,0,0,1,15.431.921v-22.34a93.069,93.069,0,0,1-15.661.921H-36.329a53.846,53.846,0,0,1,1.382-14.049H-63.275c.921,4.146,1.152,5.527,1.152,14.049H-87.458c0-7.37.23-10.364,1.382-14.049H-114.4c.921,3.685,1.152,6.449,1.152,14.049H-122a83.635,83.635,0,0,1-16.352-1.152v22.57a100.927,100.927,0,0,1,15.431-.921h9.673v7.83h-6.218a123.481,123.481,0,0,1-14.74-.691v19.806a126.184,126.184,0,0,1,14.74-.691h6.218v8.291h-9.673a125.237,125.237,0,0,1-17.5-.921v23.031a125.236,125.236,0,0,1,17.5-.921Zm0,63.795H-106.8v-9.212h19.115Zm26.485,0v-9.212H-41.4v9.212ZM-87.688-91.887H-106.8v-9.443h19.115Zm26.485,0v-9.443H-41.4v9.443Zm-26.255-58.268v-8.291h25.334v8.291Zm0-26.716v-7.83h25.334v7.83ZM-210.9-190.458c5.988-.461,10.824-.691,19.806-.691h25.334c8.982,0,14.049.23,19.806.691V-215.1a149.4,149.4,0,0,1-19.806.921H-191.1A149.4,149.4,0,0,1-210.9-215.1Zm-6.909,35.007a140.614,140.614,0,0,1,18.194-.921h39.382c10.133,0,12.437,0,17.5.691v-26.946a121.581,121.581,0,0,1-18.194.921h-38.692a133.947,133.947,0,0,1-18.194-.921Zm7.83,32.243A112.5,112.5,0,0,1-195.7-123.9h36.158a107.878,107.878,0,0,1,13.588.691v-23.952a95.98,95.98,0,0,1-13.588.691H-195.7a110.03,110.03,0,0,1-14.279-.691Zm0,32.473a109.382,109.382,0,0,1,13.818-.691h35.928a100.684,100.684,0,0,1,14.279.691v-24.412a97.521,97.521,0,0,1-13.818.691H-195.7a110.029,110.029,0,0,1-14.279-.691ZM-186.72-5.983V-16.116h17.5v6.679h24.643q-.345-3.109-.691-15.2v-40.3c0-9.212,0-11.976.461-16.582a96.877,96.877,0,0,1-14.049.691h-37.079a131.3,131.3,0,0,1-16.352-.691,151.572,151.572,0,0,1,.921,18.425v34.546c0,7.83-.461,15.661-1.152,22.57Zm-.691-52.74h18.425v18.885h-18.425Zm309.3-71.165A386.257,386.257,0,0,1,32.762-91.426c7.6,9.9,11.055,16.121,15.891,27.637,22.109-9.443,22.8-9.673,32.013-14.509v45.37A235.918,235.918,0,0,1,79.284-5.983h31.782v-9.443h78.765v9.443h31.552C220.462-12.431,220-20.722,220-32.929V-91.887c0-12.667.23-18.885.921-25.334-5.988.461-12.9.691-24.182.691H146.534c7.139-4.376,13.127-8.061,20.728-13.358h49.286a254,254,0,0,1,29.71,1.382v-29.479a206.791,206.791,0,0,1-26.946,1.382H201.117a228.718,228.718,0,0,0,27.867-28.1c5.988-6.909,7.6-8.752,10.364-11.515L212.4-213.95c-4.606,8.752-14.279,21.649-24.643,32.934V-199.9a197.549,197.549,0,0,1-26.255,1.382H146.995v-2.3c0-8.982.23-13.588,1.382-19.576H115.443a114.278,114.278,0,0,1,1.382,19.576v2.3H84.582c-11.976,0-21.188-.461-27.406-1.382v28.1c6.218-.691,14.049-.921,26.255-.921h33.394V-156.6H66.848c-12.9,0-21.879-.461-28.558-1.382v29.479a237.528,237.528,0,0,1,28.1-1.382Zm25.1-26.716v-16.121h17.5c6.909,0,9.443,0,14.74.23A213.936,213.936,0,0,1,161.043-156.6ZM111.067-92.348H189.6V-79.22H111.067Zm0,37.54H189.6v14.049H111.067ZM375.919-216.713a113.183,113.183,0,0,1,1.152,19.115c0,22.34-2.764,46.983-7.14,64.256a140.78,140.78,0,0,1-38.922,67.48c-14.279,14.049-26.255,22.57-43.989,31.552C296-25.1,301.07-18.189,307.288-5.752c22.34-13.358,36.849-25.334,52.51-42.837,18.885-20.728,27.637-37.54,35.7-68.4,8.061,25.1,17.043,42.607,30.861,60.34,15.2,19.346,30.861,33.394,57.577,51.128,6.909-14.049,10.594-19.806,20.5-30.861-12.667-6.449-17.964-9.9-30.861-20.267-17.043-13.588-26.716-24.182-37.31-40.995-18.425-28.788-25.564-56.655-25.564-98.8,0-7.83.461-16.352,1.382-20.267Zm382.309,32.934c-5.3.921-10.594,1.152-21.879,1.152H699.731c2.073-7.6,2.533-8.752,3.685-13.588,3.224-13.127,4.376-17.5,4.836-19.115l-29.94-5.758c0,3.455-1.152,12.437-2.764,20.037-6.909,35.007-17.734,59.88-34.085,78.3a93.591,93.591,0,0,1,15.431,17.964,120.847,120.847,0,0,1-14.74.691H608.3c1.612-3.685,2.3-5.067,4.376-9.673l-28.558-5.067c-2.533,7.14-3.455,9.9-5.3,14.74H562.468c-8.752,0-13.588-.23-18.885-1.152v27.406c5.527-.921,10.594-1.152,18.885-1.152h4.376a180.778,180.778,0,0,1-15.431,22.57c16.352,5.758,22.34,8.291,33.394,13.127C571.68-35.923,560.856-32.468,541.74-29.7A108.284,108.284,0,0,1,555.789-4.371C579.741-10.128,595.4-17.5,610.832-30.4c10.824,5.988,13.588,7.83,22.109,14.509l7.6-12.206A78.861,78.861,0,0,1,656.2-4.6a171.7,171.7,0,0,0,47.443-37.31A155.271,155.271,0,0,0,745.792-5.061,134.459,134.459,0,0,1,761.683-34.08a120.369,120.369,0,0,1-40.534-32.243c14.049-25.334,20.267-49.286,23.261-89.82,7.6.23,9.443.23,13.818.921Zm-109.4,142.1c-8.752-4.836-11.976-6.679-19.115-9.9,5.988-9.212,8.982-15.891,12.437-27.406a161.119,161.119,0,0,1,17.734.921v-22.8a84.481,84.481,0,0,0,9.9-13.588c4.146,19.115,8.752,32.013,17.5,48.134-11.976,14.049-25.334,24.413-44.219,33.855Zm67.019-114.462c-1.152,25.1-4.836,44.449-11.976,62.183-8.982-19.576-12.206-31.091-15.891-55.043,1.151-2.994,1.612-4.146,2.764-7.14ZM613.826-78.99c-2.3,6.909-4.146,11.055-8.291,16.812-5.067-2.073-8.061-2.994-16.582-5.988,3.455-5.527,4.376-7.14,6.449-10.824Zm27.406-99.953H617.741v-26.025a85.812,85.812,0,0,1,.921-14.97H589.414a91.762,91.762,0,0,1,.921,15.431v25.564H564.08a153.9,153.9,0,0,1-19.806-.921v25.334a158.543,158.543,0,0,1,19.806-.921h9.673c-9.212,10.594-18.885,17.5-34.776,24.873,8.291,8.752,11.285,12.9,16.582,22.34,16.352-10.824,22.109-16.352,35.007-32.7-.23,3.685-.461,7.6-.461,9.443v6.679a34.633,34.633,0,0,1-.691,6.679H618.2a44.687,44.687,0,0,1-.461-7.83v-6.449c0-1.382-.461-5.988-.691-8.521,6.449,9.673,7.83,11.055,19.115,20.5a106.29,106.29,0,0,1,14.049-21.649c-8.291-4.376-13.358-8.061-18.425-13.358h12.9a102.3,102.3,0,0,1,14.509.691v-24.873a96.3,96.3,0,0,1-14.279.691h-1.612c6.679-10.133,9.212-14.97,16.812-30.17l-24.413-9.9c-3.915,10.824-8.752,19.576-16.121,30.17Zm-93.5-29.71c7.37,9.443,11.746,16.812,17.043,29.249l23.491-10.133c-5.3-11.515-8.752-17.273-17.5-28.788Z" transform="translate(-15046.295 -7667.515)" fill="#333"></path></g></svg>