<svg xmlns="http://www.w3.org/2000/svg" width="156.48" height="156.479" viewBox="0 0 156.48 156.479">
  <g id="グループ_18617" data-name="グループ 18617" transform="translate(9620.74 12227.146)">
    <g id="video_marketing" data-name="video marketing" transform="translate(-9621.74 -12228.146)">
      <g id="グループ_18268" data-name="グループ 18268" transform="translate(16.648 1)">
        <path id="パス_24908" data-name="パス 24908" d="M17.932,4.5H12.716a5.216,5.216,0,0,0,0,10.432h5.216a5.216,5.216,0,0,0,0-10.432Z" transform="translate(10.756 13.756)" fill="#011839"/>
        <path id="パス_24909" data-name="パス 24909" d="M21.932,4.5H16.716a5.216,5.216,0,1,0,0,10.432h5.216a5.216,5.216,0,0,0,0-10.432Z" transform="translate(27.62 13.756)" fill="#011839"/>
        <path id="パス_24910" data-name="パス 24910" d="M129.184,1H19.648A15.694,15.694,0,0,0,4,16.648V69.8a5.216,5.216,0,1,0,10.432,0V16.648a5.231,5.231,0,0,1,5.216-5.216H129.184a5.231,5.231,0,0,1,5.216,5.216v82.83a5.231,5.231,0,0,1-5.216,5.216H96.01a5.216,5.216,0,0,0,0,10.432h33.174a15.694,15.694,0,0,0,15.648-15.648V16.648A15.694,15.694,0,0,0,129.184,1Z" transform="translate(-4 -1)" fill="#011839"/>
      </g>
      <path id="パス_24912" data-name="パス 24912" d="M37.835,13.27a5.231,5.231,0,0,0-5.216,5.216v2.139L8,30.639V79.461L32.619,89.476v2.139a5.216,5.216,0,0,0,10.432,0V18.486a5.231,5.231,0,0,0-5.216-5.216Z" transform="translate(29.512 51.73)" fill="#2e6dc4"/>
      <path id="パス_24913" data-name="パス 24913" d="M16.72,18.41V48.35A15.994,15.994,0,0,0,27.152,33.223,15.534,15.534,0,0,0,16.72,18.41Z" transform="translate(66.275 73.4)" fill="#2e6dc4"/>
      <path id="パス_24914" data-name="パス 24914" d="M27.08,17.19H6.216A5.231,5.231,0,0,0,1,22.406V49.529H27.08V17.19Z" transform="translate(0 68.257)" fill="#2e6dc4"/>
      <path id="パス_24915" data-name="パス 24915" d="M1,49.436a5.231,5.231,0,0,0,5.216,5.216h7.355A13.512,13.512,0,0,0,27.08,41.142V25.39H1Z" transform="translate(0 102.828)" fill="#2e6dc4"/>
    </g>
    <g id="_x34_" transform="translate(-9548.583 -12205.156)">
      <path id="icon_6_" d="M30.295,28.025A2.373,2.373,0,1,0,32.667,30.4,2.37,2.37,0,0,0,30.295,28.025Zm9.918,0A2.373,2.373,0,1,0,42.586,30.4,2.368,2.368,0,0,0,40.213,28.025Zm0,0A2.373,2.373,0,1,0,42.586,30.4,2.368,2.368,0,0,0,40.213,28.025Zm-9.918,0A2.373,2.373,0,1,0,32.667,30.4,2.37,2.37,0,0,0,30.295,28.025Zm14.713-5.5h-19.5a3.155,3.155,0,0,0-3.159,3.159v9.42a3.159,3.159,0,0,0,3.159,3.159h19.5a3.164,3.164,0,0,0,3.159-3.159v-9.42A3.16,3.16,0,0,0,45.008,22.529ZM46.06,35.108a1.051,1.051,0,0,1-1.053,1.053h-19.5a1.051,1.051,0,0,1-1.053-1.053v-9.42a1.051,1.051,0,0,1,1.053-1.053h19.5a1.051,1.051,0,0,1,1.053,1.053Zm-5.847-7.083A2.373,2.373,0,1,0,42.586,30.4,2.368,2.368,0,0,0,40.213,28.025Zm-9.918,0A2.373,2.373,0,1,0,32.667,30.4,2.37,2.37,0,0,0,30.295,28.025Zm0,0A2.373,2.373,0,1,0,32.667,30.4,2.37,2.37,0,0,0,30.295,28.025Zm9.918,0A2.373,2.373,0,1,0,42.586,30.4,2.368,2.368,0,0,0,40.213,28.025Zm0,0A2.373,2.373,0,1,0,42.586,30.4,2.368,2.368,0,0,0,40.213,28.025Zm-9.918,0A2.373,2.373,0,1,0,32.667,30.4,2.37,2.37,0,0,0,30.295,28.025Zm14.713-5.5h-19.5a3.155,3.155,0,0,0-3.159,3.159v9.42a3.159,3.159,0,0,0,3.159,3.159h19.5a3.164,3.164,0,0,0,3.159-3.159v-9.42A3.16,3.16,0,0,0,45.008,22.529ZM46.06,35.108a1.051,1.051,0,0,1-1.053,1.053h-19.5a1.051,1.051,0,0,1-1.053-1.053v-9.42a1.051,1.051,0,0,1,1.053-1.053h19.5a1.051,1.051,0,0,1,1.053,1.053Zm-5.847-7.083A2.373,2.373,0,1,0,42.586,30.4,2.368,2.368,0,0,0,40.213,28.025Zm-9.918,0A2.373,2.373,0,1,0,32.667,30.4,2.37,2.37,0,0,0,30.295,28.025Zm0,0A2.373,2.373,0,1,0,32.667,30.4,2.37,2.37,0,0,0,30.295,28.025Zm9.918,0A2.373,2.373,0,1,0,42.586,30.4,2.368,2.368,0,0,0,40.213,28.025Zm0,0A2.373,2.373,0,1,0,42.586,30.4,2.368,2.368,0,0,0,40.213,28.025Zm-9.918,0A2.373,2.373,0,1,0,32.667,30.4,2.37,2.37,0,0,0,30.295,28.025Zm14.713-5.5h-19.5a3.155,3.155,0,0,0-3.159,3.159v9.42a3.159,3.159,0,0,0,3.159,3.159h19.5a3.164,3.164,0,0,0,3.159-3.159v-9.42A3.16,3.16,0,0,0,45.008,22.529ZM46.06,35.108a1.051,1.051,0,0,1-1.053,1.053h-19.5a1.051,1.051,0,0,1-1.053-1.053v-9.42a1.051,1.051,0,0,1,1.053-1.053h19.5a1.051,1.051,0,0,1,1.053,1.053Zm-5.847-7.083A2.373,2.373,0,1,0,42.586,30.4,2.368,2.368,0,0,0,40.213,28.025Zm-9.918,0A2.373,2.373,0,1,0,32.667,30.4,2.37,2.37,0,0,0,30.295,28.025Zm0,0A2.373,2.373,0,1,0,32.667,30.4,2.37,2.37,0,0,0,30.295,28.025Zm9.918,0A2.373,2.373,0,1,0,42.586,30.4,2.368,2.368,0,0,0,40.213,28.025Zm-9.918,0A2.373,2.373,0,1,0,32.667,30.4,2.37,2.37,0,0,0,30.295,28.025Zm9.918,0A2.373,2.373,0,1,0,42.586,30.4,2.368,2.368,0,0,0,40.213,28.025ZM23.4,54.145v2.106H47.113V54.145Zm0-3.376v2.106H47.113V50.768ZM55.7,21.7H52.623a19.44,19.44,0,0,0-13.1-10.255v-.639A1.637,1.637,0,0,0,37.89,9.171H36.654V4.931a2.665,2.665,0,0,0-.7-4.843,2.677,2.677,0,0,0-3.369,2.576,2.648,2.648,0,0,0,1.263,2.26V9.171H32.625a1.641,1.641,0,0,0-1.158.477,1.6,1.6,0,0,0-.484,1.158v.632A19.417,19.417,0,0,0,18.13,21.2c-.084.161-.175.33-.253.5H14.992a2.112,2.112,0,0,0-2.106,2.106V36.981a2.108,2.108,0,0,0,2.106,2.106H17.87c.084.168.168.33.26.5a19.426,19.426,0,0,0,34.494-.5H55.7a2.1,2.1,0,0,0,2.106-2.106V23.806A2.108,2.108,0,0,0,55.7,21.7ZM35.25,47.722A17.328,17.328,0,1,1,52.581,30.391,17.326,17.326,0,0,1,35.25,47.722Z" transform="translate(0 0)" fill="#011839"/>
    </g>
  </g>
</svg>
