<svg xmlns="http://www.w3.org/2000/svg" width="189.5" height="189.5" viewBox="0 0 189.5 189.5">
  <g id="help" transform="translate(-1 -1)">
    <path id="パス_24901" data-name="パス 24901" d="M184.183,119.7V31.267A25.26,25.26,0,0,0,158.917,6a6.317,6.317,0,0,0,0,12.633A12.67,12.67,0,0,1,171.55,31.267V94.433H19.95V31.267A12.67,12.67,0,0,1,32.583,18.633,6.317,6.317,0,1,0,32.583,6,25.26,25.26,0,0,0,7.317,31.267V119.7A6.335,6.335,0,0,0,1,126.017v18.95a19.006,19.006,0,0,0,18.95,18.95h151.6a19.006,19.006,0,0,0,18.95-18.95v-18.95A6.335,6.335,0,0,0,184.183,119.7ZM19.95,107.067h151.6V119.7H19.95Zm157.917,37.9a6.335,6.335,0,0,1-6.317,6.317H19.95a6.335,6.335,0,0,1-6.317-6.317V132.333H177.867Z" transform="translate(0 26.583)" fill="#011839"/>
    <path id="パス_24902" data-name="パス 24902" d="M58.533,102.067A50.533,50.533,0,1,0,8,51.533,50.6,50.6,0,0,0,58.533,102.067ZM52.217,30.183a6.317,6.317,0,0,1,12.633,0v3.158a6.317,6.317,0,1,1-12.633,0Zm0,23.687a6.317,6.317,0,1,1,12.633,0V72.82a6.317,6.317,0,0,1-12.633,0Z" transform="translate(37.217)" fill="#2e6dc4"/>
  </g>
</svg>
