<svg xmlns="http://www.w3.org/2000/svg" width="163.091" height="163.146" viewBox="0 0 163.091 163.146">
  <g id="meeting" transform="translate(-0.99 -0.99)">
    <g id="グループ_18267" data-name="グループ 18267" transform="translate(0.99 0.99)">
      <path id="パス_24903" data-name="パス 24903" d="M82.4,57.356a14.4,14.4,0,0,0-1.413-1.141,34.637,34.637,0,0,0-9.021-33.531L69.52,20.238a11.1,11.1,0,0,0-7.174-3.206,5.4,5.4,0,0,0-5.706,5.054A5.562,5.562,0,0,0,61.8,27.955L64.248,30.4a23.743,23.743,0,0,1,6.413,22.01,17.675,17.675,0,0,0-13.369,4.945,17.9,17.9,0,0,0-5.109,13.369,23.707,23.707,0,0,1-21.847-6.467l-2.446-2.446a.951.951,0,0,0-.054-.272,5.352,5.352,0,0,0-5.815-5,5.42,5.42,0,0,0-5,5.815,11.226,11.226,0,0,0,3.206,7.174l2.446,2.446A34.726,34.726,0,0,0,47.292,82.192,35.548,35.548,0,0,0,56.205,81a9.427,9.427,0,0,0,1.141,1.359l6.9,6.956a12.727,12.727,0,0,0,18.043,0l6.9-6.9a12.727,12.727,0,0,0,0-18.043l-6.9-6.9Zm-.761,17.336-6.9,6.9a1.9,1.9,0,0,1-2.717,0l-6.9-6.9a6.82,6.82,0,0,1,4.837-11.63,6.958,6.958,0,0,1,2.609.489h0a6.621,6.621,0,0,1,2.228,1.467l6.9,6.9a1.97,1.97,0,0,1,0,2.717Z" transform="translate(70.04 70.084)" fill="#011839"/>
      <path id="パス_24904" data-name="パス 24904" d="M71.965,56.606A5.534,5.534,0,0,0,66.1,61.768l-2.446,2.446A23.889,23.889,0,0,1,41.8,70.681,17.489,17.489,0,0,0,36.7,57.312a17.73,17.73,0,0,0-13.369-4.945,23.841,23.841,0,0,1,6.413-22.01l2.446-2.446a.951.951,0,0,0,.272-.054,5.423,5.423,0,0,0-.815-10.815,10.966,10.966,0,0,0-7.119,3.206l-2.446,2.446a34.764,34.764,0,0,0-9.021,33.531,14.4,14.4,0,0,0-1.413,1.141l-6.9,6.9a12.727,12.727,0,0,0,0,18.043l6.9,6.956a12.727,12.727,0,0,0,18.043,0l6.9-6.9c.435-.435.761-.924,1.141-1.359a35.549,35.549,0,0,0,8.913,1.2A34.509,34.509,0,0,0,71.2,71.985L73.65,69.54a11.088,11.088,0,0,0,3.206-7.119A5.4,5.4,0,0,0,71.8,56.714ZM29.032,74.594l-6.9,6.9a1.9,1.9,0,0,1-2.717,0l-6.9-6.956a1.97,1.97,0,0,1,0-2.717l6.9-6.9a6.621,6.621,0,0,1,2.228-1.467h0a6.958,6.958,0,0,1,2.609-.489,6.82,6.82,0,0,1,4.837,11.63Z" transform="translate(-0.99 70.129)" fill="#011839"/>
      <path id="パス_24905" data-name="パス 24905" d="M71.323,22.13a34.764,34.764,0,0,0-33.531-9.021A14.4,14.4,0,0,0,36.651,11.7l-6.9-6.956a12.792,12.792,0,0,0-18.1,0l-6.9,6.9a12.727,12.727,0,0,0,0,18.043l6.9,6.9c.435.435.924.761,1.359,1.141A34.666,34.666,0,0,0,22.032,71.2l2.446,2.446a11.1,11.1,0,0,0,7.174,3.206h.435A5.3,5.3,0,0,0,37.357,71.8a5.6,5.6,0,0,0-5.163-5.869l-2.446-2.446a23.889,23.889,0,0,1-6.467-21.847c.272,0,.6.109.87.109A17.579,17.579,0,0,0,41.759,23.217a23.707,23.707,0,0,1,21.847,6.467l2.446,2.446a.951.951,0,0,0,.054.272,5.453,5.453,0,0,0,5.435,5.054h.435a5.42,5.42,0,0,0,5-5.815,11.226,11.226,0,0,0-3.206-7.174l-2.446-2.446Zm-42.335,6.9a7,7,0,0,1-9.619,0l-6.9-6.9a1.97,1.97,0,0,1,0-2.717l6.9-6.9a1.97,1.97,0,0,1,2.717,0l6.9,6.9A6.79,6.79,0,0,1,28.988,29.032Z" transform="translate(-0.946 -0.99)" fill="#011839"/>
      <path id="パス_24906" data-name="パス 24906" d="M22.086,37.4h.38a5.6,5.6,0,0,0,5.489-5.163L30.4,29.793a23.889,23.889,0,0,1,21.847-6.467A17.579,17.579,0,0,0,69.856,41.858a4.224,4.224,0,0,0,.87-.109A23.748,23.748,0,0,1,64.258,63.6l-2.446,2.446a.951.951,0,0,0-.272.054,5.415,5.415,0,0,0,.435,10.815h.435A10.966,10.966,0,0,0,69.53,73.7l2.446-2.446A34.7,34.7,0,0,0,81,37.782a9.427,9.427,0,0,0,1.359-1.141l6.9-6.9a12.727,12.727,0,0,0,0-18.043l-6.9-6.956a12.792,12.792,0,0,0-18.1,0l-6.9,6.9a14.4,14.4,0,0,0-1.141,1.413,34.671,34.671,0,0,0-33.531,9.021l-2.446,2.446a11.088,11.088,0,0,0-3.206,7.119,5.4,5.4,0,0,0,5.054,5.706ZM65.019,19.413l6.9-6.9a1.97,1.97,0,0,1,2.717,0l6.9,6.956a1.97,1.97,0,0,1,0,2.717l-6.9,6.9a7,7,0,0,1-9.619,0,6.79,6.79,0,0,1,0-9.619Z" transform="translate(70.084 -0.99)" fill="#011839"/>
    </g>
    <path id="パス_24907" data-name="パス 24907" d="M90.019,49.259A40.759,40.759,0,1,0,49.259,90.019,40.774,40.774,0,0,0,90.019,49.259ZM23.989,30.89h50.6a4.619,4.619,0,1,1,0,9.239h-50.6a4.619,4.619,0,0,1,0-9.239Zm0,13.8h50.6a4.619,4.619,0,1,1,0,9.239h-50.6a4.619,4.619,0,0,1,0-9.239Zm50.6,22.988h-50.6a4.619,4.619,0,0,1,0-9.239h50.6a4.619,4.619,0,0,1,0,9.239Z" transform="translate(33.304 33.304)" fill="#2e6dc4"/>
  </g>
</svg>
