<svg xmlns="http://www.w3.org/2000/svg" width="3658.025" height="2468.712" viewBox="0 0 3658.025 2468.712"><g id="&#x30B0;&#x30EB;&#x30FC;&#x30D7;_6384" data-name="&#x30B0;&#x30EB;&#x30FC;&#x30D7; 6384" transform="matrix(0.966, -0.259, 0.259, 0.966, 358.818, 432.13)" opacity="0.3"><path id="&#x30D1;&#x30B9;_13248" data-name="&#x30D1;&#x30B9; 13248" d="M2911.656,1542.123S2032.5,986.764,1802.206,881.03C756.784,401.059,577.443,2057.291-356.686,1536.085" transform="translate(-33.268 364.588)" fill="none" stroke="#6f18f3" stroke-miterlimit="10" stroke-width="1"></path><path id="&#x30D1;&#x30B9;_13249" data-name="&#x30D1;&#x30B9; 13249" d="M2911.556,1512.657c-8.687,0-861.618-530.467-1090.12-626.6C786.265,447.352,582.99,2004.585-360,1524.05" transform="translate(-32.195 359.874)" fill="none" stroke="#7418f1" stroke-miterlimit="10" stroke-width="1.097"></path><path id="&#x30D1;&#x30B9;_13250" data-name="&#x30D1;&#x30B9; 13250" d="M2911.457,1483.484c-17.37,0-844.4-505.009-1070.8-592.115C814.329,496.5,588.534,1952.172-363.312,1512.308" transform="translate(-31.121 354.868)" fill="none" stroke="#7818ef" stroke-miterlimit="10" stroke-width="1.194"></path><path id="&#x30D1;&#x30B9;_13251" data-name="&#x30D1;&#x30B9; 13251" d="M2911.357,1454.064c-26.048,0-826.988-479.828-1051.484-557.627-1016.6-352.3-1265.8,1003.075-2226.5,603.881" transform="translate(-30.048 350.109)" fill="none" stroke="#7d18ee" stroke-miterlimit="10" stroke-width="1.29"></path><path id="&#x30D1;&#x30B9;_13252" data-name="&#x30D1;&#x30B9; 13252" d="M2911.258,1424.549c-34.725,0-809.553-454.646-1032.178-523.138C872.357,591.685,599.615,1846.757-369.937,1488.234" transform="translate(-28.975 345.444)" fill="none" stroke="#8218ec" stroke-miterlimit="10" stroke-width="1.387"></path><path id="&#x30D1;&#x30B9;_13253" data-name="&#x30D1;&#x30B9; 13253" d="M2911.159,1394.912c-43.4,0-792.089-429.466-1012.88-488.65C901.58,639.092,605.151,1793.88-373.25,1476.027" transform="translate(-27.902 340.903)" fill="none" stroke="#8618ea" stroke-miterlimit="10" stroke-width="1.484"></path><path id="&#x30D1;&#x30B9;_13254" data-name="&#x30D1;&#x30B9; 13254" d="M2911.059,1365.111c-52.067,0-774.594-404.292-993.589-454.161C930.955,686.3,610.683,1740.839-376.563,1463.656" transform="translate(-26.829 336.524)" fill="none" stroke="#8b18e8" stroke-miterlimit="10" stroke-width="1.581"></path><path id="&#x30D1;&#x30B9;_13255" data-name="&#x30D1;&#x30B9; 13255" d="M2910.96,1335.091c-60.735,0-757.071-379.129-974.306-419.673-976.17-182.184-1320.441,772.161-2316.53,535.649" transform="translate(-25.756 165.369)" fill="none" stroke="#9018e6" stroke-miterlimit="10" stroke-width="1.677"></path><path id="&#x30D1;&#x30B9;_13256" data-name="&#x30D1;&#x30B9; 13256" d="M2910.86,1304.764c-69.4,0-739.514-353.983-955.029-385.183-965.663-139.8-1334.091,714.432-2339.02,518.59" transform="translate(-24.682 148.98)" fill="none" stroke="#9418e5" stroke-miterlimit="10" stroke-width="1.774"></path><path id="&#x30D1;&#x30B9;_13257" data-name="&#x30D1;&#x30B9; 13257" d="M2910.761,1274c-78.058,0-721.93-328.859-935.761-350.7C1020,825.776,627.264,1580-386.5,1424.832" transform="translate(-23.609 134.286)" fill="none" stroke="#9918e3" stroke-miterlimit="10" stroke-width="1.871"></path><path id="&#x30D1;&#x30B9;_13258" data-name="&#x30D1;&#x30B9; 13258" d="M2910.662,1242.554c-86.716,0-704.319-303.762-916.5-316.206-944.2-55.378-1361.376,598.974-2383.975,484.474" transform="translate(-22.536 121.209)" fill="none" stroke="#9d18e1" stroke-miterlimit="10" stroke-width="1.968"></path><path id="&#x30D1;&#x30B9;_13259" data-name="&#x30D1;&#x30B9; 13259" d="M2910.563,1210.006c-95.368,0-686.686-278.7-897.248-281.718C1080.048,914.9,638.3,1469.534-393.127,1395.7" transform="translate(-21.463 109.849)" fill="none" stroke="#a218df" stroke-miterlimit="10" stroke-width="2.065"></path><path id="&#x30D1;&#x30B9;_13260" data-name="&#x30D1;&#x30B9; 13260" d="M2910.462,1176.031c-104.018,0-669.035-253.672-878-247.23-922.242,28.434-1388.643,483.518-2428.9,450.359" transform="translate(-20.39 100.415)" fill="none" stroke="#a718dd" stroke-miterlimit="10" stroke-width="2.161"></path><path id="&#x30D1;&#x30B9;_13261" data-name="&#x30D1;&#x30B9; 13261" d="M2910.364,1141.676c-112.667,0-651.376-228.688-858.764-212.741C1140.447,999,649.33,1354.724-399.753,1362.235" transform="translate(-19.317 92.981)" fill="none" stroke="#ab18dc" stroke-miterlimit="10" stroke-width="2.258"></path><path id="&#x30D1;&#x30B9;_13262" data-name="&#x30D1;&#x30B9; 13262" d="M2910.264,1106.969c-121.311,0-633.716-203.748-839.533-178.253C1170.7,1040.21,654.839,1296.777-403.066,1344.958" transform="translate(-18.244 86.689)" fill="none" stroke="#b018da" stroke-miterlimit="10" stroke-width="2.355"></path><path id="&#x30D1;&#x30B9;_13263" data-name="&#x30D1;&#x30B9; 13263" d="M2910.165,1071.809c-129.952,0-616.065-178.854-820.311-143.763-888.928,152.722-1429.508,310.332-2496.234,399.183" transform="translate(-17.17 80.829)" fill="none" stroke="#b518d8" stroke-miterlimit="10" stroke-width="2.452"></path><path id="&#x30D1;&#x30B9;_13264" data-name="&#x30D1;&#x30B9; 13264" d="M2910.065,1036.06c-138.59,0-598.429-154-801.094-109.275C1231.1,1120.54,665.849,1179.388-409.691,1308.91" transform="translate(-16.097 75.424)" fill="none" stroke="#b919d6" stroke-miterlimit="10" stroke-width="2.548"></path><path id="&#x30D1;&#x30B9;_13265" data-name="&#x30D1;&#x30B9; 13265" d="M2909.966,999.525c-147.223,0-580.821-129.2-781.885-74.786C1261.18,1159.341,671.35,1119.613-413,1289.806" transform="translate(-15.024 70.507)" fill="none" stroke="#be19d4" stroke-miterlimit="10" stroke-width="2.645"></path><path id="&#x30D1;&#x30B9;_13266" data-name="&#x30D1;&#x30B9; 13266" d="M2909.867,961.921c-155.855,0-563.245-104.432-762.684-40.3-856.049,275.284-1470.335,137.147-2563.5,348.01" transform="translate(-13.951 66.133)" fill="none" stroke="#c319d2" stroke-miterlimit="10" stroke-width="2.742"></path><path id="&#x30D1;&#x30B9;_13267" data-name="&#x30D1;&#x30B9; 13267" d="M2909.767,922.826c-164.484,0-545.71-79.7-743.49-5.809-845.342,315.82-1483.934,79.417-2585.908,330.951" transform="translate(-12.878 62.376)" fill="none" stroke="#c719d1" stroke-miterlimit="10" stroke-width="2.839"></path><path id="&#x30D1;&#x30B9;_13268" data-name="&#x30D1;&#x30B9; 13268" d="M2909.667,881.6c-173.109,0-528.217-55-724.3,28.679-834.8,356.239-1497.53,21.689-2608.307,313.893" transform="translate(-11.805 59.322)" fill="none" stroke="#cc19cf" stroke-miterlimit="10" stroke-width="2.935"></path><path id="&#x30D1;&#x30B9;_13269" data-name="&#x30D1;&#x30B9; 13269" d="M2909.569,837.293c-181.733,0-510.774-30.317-705.124,63.169-824.432,396.565-1511.12-36.04-2630.7,296.834" transform="translate(-10.732 57.027)" fill="none" stroke="#d119cd" stroke-miterlimit="10" stroke-width="3.032"></path><path id="&#x30D1;&#x30B9;_13270" data-name="&#x30D1;&#x30B9; 13270" d="M2909.469,788.959c-190.352,0-493.378-5.655-685.951,97.656-814.249,436.827-1524.706-93.768-2653.086,279.777" transform="translate(-9.659 55.305)" fill="none" stroke="#d519cb" stroke-miterlimit="10" stroke-width="3.129"></path><path id="&#x30D1;&#x30B9;_13271" data-name="&#x30D1;&#x30B9; 13271" d="M2909.37,738.428c-198.968,0-476.032,19-666.786,132.146C1438.337,1347.621,704.3,719.076-432.881,1133.292" transform="translate(-8.585 53.281)" fill="none" stroke="#da19c9" stroke-miterlimit="10" stroke-width="3.226"></path><path id="&#x30D1;&#x30B9;_13272" data-name="&#x30D1;&#x30B9; 13272" d="M2909.271,687.872c-207.581,0-458.734,43.643-647.629,166.634C1467.221,1371.758,709.776,645.28-436.194,1100.166" transform="translate(-7.512 50.399)" fill="none" stroke="#de19c8" stroke-miterlimit="10" stroke-width="3.323"></path><path id="&#x30D1;&#x30B9;_13273" data-name="&#x30D1;&#x30B9; 13273" d="M2909.171,637.315c-216.19,0-441.479,68.288-628.478,201.122-784.761,557.458-1565.439-266.954-2720.2,228.6" transform="translate(-6.439 46.593)" fill="none" stroke="#e319c6" stroke-miterlimit="10" stroke-width="3.419"></path><path id="&#x30D1;&#x30B9;_13274" data-name="&#x30D1;&#x30B9; 13274" d="M2909.071,586.758c-224.8,0-424.267,92.935-609.334,235.612C1524.482,1420.051,720.73,497.687-442.819,1033.914" transform="translate(-5.366 -81.886)" fill="none" stroke="#e819c4" stroke-miterlimit="10" stroke-width="3.516"></path><path id="&#x30D1;&#x30B9;_13275" data-name="&#x30D1;&#x30B9; 13275" d="M2908.972,536.2c-233.4,0-407.1,117.588-590.2,270.1C1552.883,1444.238,726.2,423.891-446.132,1000.788" transform="translate(-4.293 -65.509)" fill="none" stroke="#ec19c2" stroke-miterlimit="10" stroke-width="3.613"></path><path id="&#x30D1;&#x30B9;_13276" data-name="&#x30D1;&#x30B9; 13276" d="M2908.873,485.645c-242,0-389.96,142.25-571.069,304.589C1581.151,1468.465,731.672,350.094-449.445,967.661" transform="translate(-3.22 -49.131)" fill="none" stroke="#f119c0" stroke-miterlimit="10" stroke-width="3.71"></path><path id="&#x30D1;&#x30B9;_13277" data-name="&#x30D1;&#x30B9; 13277" d="M2908.774,435.089c-250.6,0-372.855,166.922-551.948,339.077C1609.3,1492.74,737.139,276.3-452.758,934.536" transform="translate(-2.146 -32.754)" fill="none" stroke="#f619bf" stroke-miterlimit="10" stroke-width="3.806"></path><path id="&#x30D1;&#x30B9;_13278" data-name="&#x30D1;&#x30B9; 13278" d="M2908.674,384.532c-259.2,0-356.064,191.41-532.831,373.566C1636.158,1516.248,742.6,202.5-456.071,901.41" transform="translate(-1.073 -16.377)" fill="none" stroke="#fa19bd" stroke-miterlimit="10" stroke-width="3.903"></path><path id="&#x30D1;&#x30B9;_13279" data-name="&#x30D1;&#x30B9; 13279" d="M2908.574,333.976c-267.788,0-338.729,216.3-513.723,408.054C1665.3,1541.452,748.066,128.705-459.384,868.284" transform="translate(0)" fill="none" stroke="#ff19bb" stroke-miterlimit="10" stroke-width="4"></path></g></svg>