<svg xmlns="http://www.w3.org/2000/svg" xmlns:xlink="http://www.w3.org/1999/xlink" width="242.991" height="243.001" viewBox="0 0 242.991 243.001"><defs><linearGradient id="linear-gradient" x1="0.194" y1="0.089" x2="0.701" y2="0.699" gradientUnits="objectBoundingBox"><stop offset="0" stop-color="#173c98"></stop><stop offset="1" stop-color="#3a84cc"></stop></linearGradient></defs><g id="&#x30B0;&#x30EB;&#x30FC;&#x30D7;_18264" data-name="&#x30B0;&#x30EB;&#x30FC;&#x30D7; 18264" transform="translate(-5089.48 -8860.746)"><path id="&#x30D1;&#x30B9;_24890" data-name="&#x30D1;&#x30B9; 24890" d="M-3.785-3.735-6.97-6.93l-.3.3L-4.073-3.42l-3.195,3.2.3.3L-3.785-3.1-.589.072l.288-.3-3.2-3.2L-.3-6.633l-.288-.3Zm.009-2.979a.691.691,0,0,0-.693.684.7.7,0,0,0,.693.693.686.686,0,0,0,.684-.693A.684.684,0,0,0-3.776-6.714Zm-2.583,2.6a.686.686,0,0,0-.693.684.7.7,0,0,0,.693.693.686.686,0,0,0,.684-.693A.684.684,0,0,0-6.359-4.113ZM-1.21-4.1a.684.684,0,0,0-.684.684.684.684,0,0,0,.684.684A.684.684,0,0,0-.527-3.42.684.684,0,0,0-1.21-4.1Zm-2.574,2.61-.018.018c-.009,0-.009,0-.018-.009a.033.033,0,0,0-.027-.009.725.725,0,0,0-.63.693.724.724,0,0,0,.693.693A.7.7,0,0,0-3.1-.8.686.686,0,0,0-3.785-1.494Zm5.742-.135a2.574,2.574,0,0,0,.522,1.08A3.055,3.055,0,0,0,4.918.36,3.3,3.3,0,0,0,7.285-.405a1.88,1.88,0,0,0,.549-1.323A1.779,1.779,0,0,0,7.411-2.97a2.045,2.045,0,0,0-1.269-.621,1.892,1.892,0,0,0,1.089-.594,1.737,1.737,0,0,0,.4-1.17,1.752,1.752,0,0,0-.5-1.224A2.964,2.964,0,0,0,4.99-7.3a3,3,0,0,0-2.214.774A2.448,2.448,0,0,0,2.146-5.4l1.6.252a1.21,1.21,0,0,1,.225-.495,1.161,1.161,0,0,1,.945-.4c.747,0,1.125.288,1.125.873a.865.865,0,0,1-.414.774,1.887,1.887,0,0,1-.99.207,6.71,6.71,0,0,1-.855-.054v1.323a9.652,9.652,0,0,1,1.089-.045c.9,0,1.359.351,1.359,1.026,0,.639-.5,1.044-1.3,1.044a1.489,1.489,0,0,1-1.062-.378,1.019,1.019,0,0,1-.333-.648Z" transform="translate(5324.472 9099.996)" fill="#fff"></path><g id="&#x30B0;&#x30EB;&#x30FC;&#x30D7;_18261" data-name="&#x30B0;&#x30EB;&#x30FC;&#x30D7; 18261" transform="translate(5109.48 8863.746)"><g id="&#x30B0;&#x30EB;&#x30FC;&#x30D7;_9009" data-name="&#x30B0;&#x30EB;&#x30FC;&#x30D7; 9009" transform="translate(-20 -3)"><g id="&#x30B0;&#x30EB;&#x30FC;&#x30D7;_9004" data-name="&#x30B0;&#x30EB;&#x30FC;&#x30D7; 9004" transform="translate(0 0.01)"><circle id="&#x6955;&#x5186;&#x5F62;_75" data-name="&#x6955;&#x5186;&#x5F62; 75" cx="121.496" cy="121.496" r="121.496" fill="url(#linear-gradient)"></circle><circle id="&#x6955;&#x5186;&#x5F62;_76" data-name="&#x6955;&#x5186;&#x5F62; 76" cx="94.947" cy="94.947" r="94.947" transform="translate(26.999 26.999)" fill="#fdfdfd"></circle></g><path id="&#x30D1;&#x30B9;_13536" data-name="&#x30D1;&#x30B9; 13536" d="M.039,1.054,6.131.628,11.688.486l11.773.568L21.315,28.395H1.695Z" transform="translate(109.792 -0.486)" fill="#fdfdfd"></path></g></g><path id="&#x30D1;&#x30B9;_24889" data-name="&#x30D1;&#x30B9; 24889" d="M-63.856-5.248V-.992h-.576a22.224,22.224,0,0,0-.432-3.472l-1.376.272a24.665,24.665,0,0,1,.368,3.68l.624-.112v1.6a12.877,12.877,0,0,1,1.68-.1h5.712a14.034,14.034,0,0,1,1.728.1V-1.072a4.414,4.414,0,0,1-.864.08h-.144V-11.264c0-.688.016-1.136.064-1.744a11.312,11.312,0,0,1-1.664.08H-62.32c-.624,0-1.056-.016-1.6-.064.048.56.064,1.04.064,1.648v5.92a19.313,19.313,0,0,0-1.168-3.3l-1.408.576c.24.576.3.72.464,1.152-.672.064-1.168.112-1.52.128a39.7,39.7,0,0,0,2.464-3.584,7.852,7.852,0,0,1,.448-.672l-1.68-.912A18.177,18.177,0,0,1-67.84-9.184c-.32-.384-.32-.384-.544-.656a25.094,25.094,0,0,0,1.424-2.4c.3-.576.3-.576.4-.736l-1.856-.672a11.207,11.207,0,0,1-1.136,2.512c-.224-.24-.32-.336-.624-.64l-.928,1.728a17.035,17.035,0,0,1,2.192,2.464c-.224.32-.336.48-.576.784H-69.9a5.709,5.709,0,0,1-1.056-.064l.208,1.968a3.868,3.868,0,0,1,.752-.1l1.488-.1V-.336a10.373,10.373,0,0,1-.1,1.744h2.048a10.04,10.04,0,0,1-.1-1.744v-4.9l.832-.08c.08-.016.208-.032.368-.048.08.288.1.384.176.72Zm1.968-5.76h2.752v2.032h-2.752Zm0,3.888h2.752v2.1h-2.752Zm0,3.968h2.752v2.16h-2.752Zm-8.56-1.312a12.467,12.467,0,0,1-.72,4.288l1.5.72a18.664,18.664,0,0,0,.72-4.8ZM-42.8-7.184A24.052,24.052,0,0,0-42.176-2.4a10.7,10.7,0,0,1-1.008,1.216V-5.12c0-.8,0-1.056.032-1.392a9.365,9.365,0,0,1-.992.048h-2.7a6.432,6.432,0,0,1-.976-.048c.032.4.048.656.048,1.376v4.72A11.348,11.348,0,0,1-47.84.96h1.76V0h1.616a4.872,4.872,0,0,1,1.12,1.392,10.842,10.842,0,0,0,1.84-1.9c.608,1.168,1.2,1.776,1.728,1.776.736,0,1.264-1.072,1.488-3.088A4.255,4.255,0,0,1-39.536-3.04a4.216,4.216,0,0,1-.3,1.7,6.063,6.063,0,0,1-.464-.944,24.939,24.939,0,0,0,1.312-2.864c.208-.56.208-.56.288-.752l-1.472-.864a14.929,14.929,0,0,1-.656,2.016c-.224-1.968-.224-1.968-.24-2.432h.752a13.2,13.2,0,0,1,1.792.08V-9.088a12.086,12.086,0,0,1-1.792.08h-.72c-.032-1.264-.032-1.392-.032-2.624A10.921,10.921,0,0,1-40.1-9.3l1.5-.624a14.982,14.982,0,0,0-1.328-2.688l-1.152.48a9.267,9.267,0,0,1,.1-1.264h-1.952a10.223,10.223,0,0,1,.048,1.232,7.832,7.832,0,0,1-.944.032h-.768a6.059,6.059,0,0,1,.08-1.264h-2.016a6.154,6.154,0,0,1,.08,1.264h-.9a6.25,6.25,0,0,1-.976-.064v.9l-1.36-.64a16.179,16.179,0,0,1-1.264,2.608c-.16-.24-.16-.24-.416-.608a18.914,18.914,0,0,0,.976-1.856,8.312,8.312,0,0,1,.592-1.216l-1.616-.624a12.535,12.535,0,0,1-.912,2.384l-.4-.512-.864,1.68A18.58,18.58,0,0,1-51.92-7.728c-.272.4-.288.432-.672.976a2.052,2.052,0,0,1-.288.016,3.467,3.467,0,0,1-.752-.064l.16,1.9c.176-.032.848-.08,2-.16v4.48a12.473,12.473,0,0,1-.1,2h1.856a12.115,12.115,0,0,1-.1-2V-5.184c.064,0,.256-.032.592-.064l.112.624,1.3-.512c-.192-.816-.24-.944-.56-2.016.368-.016.88-.032,1.376-.032Zm-5.856-.848c-.048-.144-.08-.208-.144-.384l-1.152.4c.736-1.152.8-1.264,1.632-2.768v.288c.224-.032.288-.032.512-.048a13.107,13.107,0,0,1,.32,1.536c-.528-.016-.784-.032-1.168-.064Zm2.736-.976a15.416,15.416,0,0,0-.208-1.536H-45.1a13.049,13.049,0,0,1-.3,1.536Zm2.144,0a13.754,13.754,0,0,0,.352-1.536c.336,0,.4.016.544.016.016.688.016.832.032,1.52Zm-6.192,1.024c.224.608.256.736.368,1.12-.352.032-.736.048-1.168.064.32-.448.4-.56.512-.752C-50.048-7.856-50.048-7.856-49.968-7.984Zm3.84,3.12h1.312V-4h-1.312Zm0,2.384h1.312v.912h-1.312ZM-53.12-4.5A16.954,16.954,0,0,1-53.648-.16l1.376.688A25.174,25.174,0,0,0-51.76-4.3Zm3.52.32A33.472,33.472,0,0,1-49.28-.24l1.264-.368a36.129,36.129,0,0,0-.368-3.824ZM-22.848-6.5a8.576,8.576,0,0,0-1.344-2.16l-1.36.608a10.233,10.233,0,0,1,1.328,2.224Zm1.856-.88A8.239,8.239,0,0,0-22.32-9.424l-1.328.576a10.616,10.616,0,0,1,1.3,2.144ZM-35.248-8.928A23.044,23.044,0,0,1-32.9-9.216c3.568-.272,3.632-.288,5.232-.464-2.224,1.28-3.376,3.04-3.376,5.2A4.359,4.359,0,0,0-28.512-.4,10.528,10.528,0,0,0-24.64.592a3.893,3.893,0,0,1,.56.08l.336-2.592c-.192.016-.3.016-.4.016a10.44,10.44,0,0,1-2.368-.368A2.5,2.5,0,0,1-28.592-4.7c0-1.456,1.088-2.944,2.9-3.968a7.372,7.372,0,0,1,3.408-.976,3.491,3.491,0,0,1,.384.016l-.128-2.448a9.43,9.43,0,0,1-1.792.144c-4.4.192-7.152.32-8.256.4-2.272.144-2.368.144-2.672.144-.064,0-.256,0-.624-.016ZM-9.392-10.1A3.112,3.112,0,0,1-7.9-9.584,3.888,3.888,0,0,1-6.192-6.24,4.395,4.395,0,0,1-8.4-2.3a8.021,8.021,0,0,1-3.168.768A6.56,6.56,0,0,1-10.384.736,11.422,11.422,0,0,0-7.84.08,6.277,6.277,0,0,0-3.824-6.1c0-3.744-2.56-6.144-6.576-6.144a7.423,7.423,0,0,0-5.632,2.3,6.9,6.9,0,0,0-1.792,4.752c0,2.752,1.408,4.688,3.392,4.688C-13.056-.5-12-1.44-11.1-3.472A22.574,22.574,0,0,0-9.392-10.1Zm-2.336.032a20.6,20.6,0,0,1-1.28,5.152c-.512,1.3-1.008,1.92-1.472,1.92-.624,0-1.136-.976-1.136-2.176a5.246,5.246,0,0,1,1.968-4.1A3.6,3.6,0,0,1-11.728-10.064ZM12.016.336c-.192-.4-.48-1.1-.784-1.92l-3.52-9.424a10.834,10.834,0,0,1-.544-1.664H3.728a12.285,12.285,0,0,1-.512,1.664L-.272-1.584A14.873,14.873,0,0,1-1.088.336H2.08a7.989,7.989,0,0,1,.432-1.7l.544-1.552H7.888L8.432-1.36a11.443,11.443,0,0,1,.416,1.7Zm-4.8-5.5H3.728L5.232-9.7c.112-.32.128-.4.224-.736.128.432.192.592.24.736Zm7.616-7.5a13.358,13.358,0,0,1,.128,2.208v8.592A13.733,13.733,0,0,1,14.832.336h2.944a13.482,13.482,0,0,1-.128-2.208v-8.592a13.236,13.236,0,0,1,.128-2.208ZM29.168-7.088v1.776H27.04c-.592,0-.928-.016-1.312-.048.032.4.048.864.048,1.36V-.336c0,.56-.032,1.264-.064,1.7h2.08V.624h4.96V1.36h2.16a16.177,16.177,0,0,1-.08-1.68V-3.936A12.387,12.387,0,0,1,34.9-5.36a12.58,12.58,0,0,1-1.3.048H31.28V-7.088h2.608a13.825,13.825,0,0,1,1.84.1V-9.12a13.992,13.992,0,0,1-1.84.1H31.28V-10.9c.912-.144,2.64-.448,3.184-.592.56-.128.56-.128.864-.208l-1.376-1.888c-1.472.7-5.072,1.264-8.624,1.344a5.613,5.613,0,0,1,.7,1.856c1.344-.064,1.856-.112,3.136-.256v1.616H26.9a14.235,14.235,0,0,1-1.824-.1v2.128a15.613,15.613,0,0,1,1.84-.1Zm-1.36,3.632h4.96V-1.28h-4.96ZM21.28-11.984A18.865,18.865,0,0,1,24.192-9.76l1.248-1.648a20.272,20.272,0,0,0-2.88-2.08Zm-.464,4.128a17.978,17.978,0,0,1,3.008,2.064l1.152-1.76a18.73,18.73,0,0,0-2.992-1.872ZM23.28-5.072a15.881,15.881,0,0,1-2.416,4.8L22.7,1.216A27.4,27.4,0,0,0,24.96-3.9ZM47.248-3.52h3.424v2.4c0,.32-.128.384-.752.384-.48,0-1.168-.048-1.9-.112A7.012,7.012,0,0,1,48.56,1.12c.5.032,1.3.064,1.744.064,1.9,0,2.448-.4,2.448-1.808V-11.1a19.181,19.181,0,0,1,.064-1.92,18.977,18.977,0,0,1-1.92.064H41.76c-.864,0-1.28-.016-1.872-.064a19.163,19.163,0,0,1,.08,2.112c0,7.1-.24,8.784-1.552,10.816A12.993,12.993,0,0,1,40.272,1.44,11.138,11.138,0,0,0,41.84-3.52h3.376v2.464A13.924,13.924,0,0,1,45.12.9h2.208a15.155,15.155,0,0,1-.08-1.968Zm0-5.648v-1.824h3.424v1.824Zm-2.032,0H42.048v-1.824h3.168ZM47.248-7.3h3.424v1.888H47.248Zm-2.032,0v1.888H41.968c.032-.848.048-1.2.048-1.888ZM59.984-9.008a20.282,20.282,0,0,0-1.856-1.552L56.672-9.248a11.62,11.62,0,0,1,2.448,2.24l1.392-1.376a15.585,15.585,0,0,1,1.648,1.44c-.416.384-.576.528-1.1.96h-.448l-.528-1.36a12.116,12.116,0,0,1-3.728,1.536l.672,2.016a22.953,22.953,0,0,0,2.928-1.376l.16.96c.192-.016.192-.016,2.4-.176v.992h-4.48a12.518,12.518,0,0,1-1.76-.1v2.064c.72-.064,1.264-.1,1.984-.1h4.256V-.16A10.189,10.189,0,0,1,62.4,1.472h2.32A9.8,9.8,0,0,1,64.608-.16V-1.52H69.12a18.3,18.3,0,0,1,1.984.1V-3.488a11.731,11.731,0,0,1-1.68.1H64.608v-1.12c.848-.064.848-.064,1.328-.112.1.256.128.352.24.64l1.648-.608c-.512-.944-.512-.944-.736-1.328A13.431,13.431,0,0,1,69.7-3.728l1.344-1.6a18.63,18.63,0,0,0-2.928-2.016c.224-.176.416-.32.528-.4.256-.192.416-.32.48-.368A14.422,14.422,0,0,0,70.448-9.28l-1.52-1.28A13.4,13.4,0,0,1,66.24-8.352l1.312,1.44-.608.7c-.272-.432-.448-.688-.96-1.408l-1.36.576c.272.448.368.592.528.864-.72.064-1.328.112-1.792.128a13.768,13.768,0,0,0,1.088-.96l.256-.24a19.432,19.432,0,0,0,1.872-1.92l-1.52-.992a17.768,17.768,0,0,1-1.632,1.968c-.192-.192-.336-.336-.544-.528a10.865,10.865,0,0,0,1.376-1.872h5.008c.72,0,1.2.016,1.712.064v-2a17.045,17.045,0,0,1-2.032.1h-4.3v-.176a4.5,4.5,0,0,1,.1-.944h-2.3a4.5,4.5,0,0,1,.1.944v.176H58.48a17.011,17.011,0,0,1-2-.1v2c.512-.048.992-.064,1.68-.064h4.032a5.045,5.045,0,0,1-.56.832c-.208-.144-.288-.208-.56-.4Z" transform="translate(5210.976 8957.333)" fill="#1b449f"></path><path id="&#x30D1;&#x30B9;_24888" data-name="&#x30D1;&#x30B9; 24888" d="M-72.649,0l9.844-11.316h-.184a6.962,6.962,0,0,1-2.116.943,7.811,7.811,0,0,1-1.472.161,11.211,11.211,0,0,1-4.669-.966,11.182,11.182,0,0,1-3.68-2.645,12.358,12.358,0,0,1-2.415-3.933,13.243,13.243,0,0,1-.874-4.83A12.918,12.918,0,0,1-77.2-27.715a12.045,12.045,0,0,1,2.921-4.14,13.787,13.787,0,0,1,4.623-2.783,17.415,17.415,0,0,1,6.118-1.012,17.557,17.557,0,0,1,6.164,1.012,14,14,0,0,1,4.623,2.76,11.93,11.93,0,0,1,2.921,4.071,12.246,12.246,0,0,1,1.012,4.945,17.917,17.917,0,0,1-1.311,6.371,24.5,24.5,0,0,1-4.025,6.739L-62.207,0Zm14.9-22.77A5.43,5.43,0,0,0-58.205-25a5.978,5.978,0,0,0-1.242-1.817,5.978,5.978,0,0,0-1.817-1.242,5.431,5.431,0,0,0-2.231-.46,5.431,5.431,0,0,0-2.231.46,5.978,5.978,0,0,0-1.817,1.242A5.978,5.978,0,0,0-68.785-25a5.431,5.431,0,0,0-.46,2.231,5.431,5.431,0,0,0,.46,2.231,5.978,5.978,0,0,0,1.242,1.817,5.978,5.978,0,0,0,1.817,1.242,5.431,5.431,0,0,0,2.231.46,5.431,5.431,0,0,0,2.231-.46,5.978,5.978,0,0,0,1.817-1.242,5.978,5.978,0,0,0,1.242-1.817A5.431,5.431,0,0,0-57.745-22.77Zm39.284-11.914-9.844,11.316h.184a6.962,6.962,0,0,1,2.116-.943,7.811,7.811,0,0,1,1.472-.161,11.054,11.054,0,0,1,4.646.966,11.508,11.508,0,0,1,3.68,2.645,12.146,12.146,0,0,1,2.438,3.933A13.243,13.243,0,0,1-12.9-12.1a12.918,12.918,0,0,1-1.012,5.129,12.045,12.045,0,0,1-2.921,4.14A13.787,13.787,0,0,1-21.451-.046,17.415,17.415,0,0,1-27.569.966,17.557,17.557,0,0,1-33.733-.046a14,14,0,0,1-4.623-2.76,11.93,11.93,0,0,1-2.921-4.071,12.246,12.246,0,0,1-1.012-4.945,17.917,17.917,0,0,1,1.311-6.371,24.5,24.5,0,0,1,4.025-6.739l8.05-9.752Zm-14.9,22.77a5.431,5.431,0,0,0,.46,2.231,5.978,5.978,0,0,0,1.242,1.817,5.978,5.978,0,0,0,1.817,1.242,5.431,5.431,0,0,0,2.231.46,5.431,5.431,0,0,0,2.231-.46,5.978,5.978,0,0,0,1.817-1.242,5.978,5.978,0,0,0,1.242-1.817,5.431,5.431,0,0,0,.46-2.231,5.431,5.431,0,0,0-.46-2.231,5.978,5.978,0,0,0-1.242-1.817A5.978,5.978,0,0,0-25.384-17.2a5.431,5.431,0,0,0-2.231-.46,5.431,5.431,0,0,0-2.231.46,5.978,5.978,0,0,0-1.817,1.242,5.978,5.978,0,0,0-1.242,1.817A5.431,5.431,0,0,0-33.365-11.914Zm28.428,7.5a5.366,5.366,0,0,1,.414-2.093,5.315,5.315,0,0,1,1.15-1.725,5.315,5.315,0,0,1,1.725-1.15A5.366,5.366,0,0,1,.445-9.8a5.366,5.366,0,0,1,2.093.414,5.315,5.315,0,0,1,1.725,1.15,5.315,5.315,0,0,1,1.15,1.725,5.366,5.366,0,0,1,.414,2.093,5.366,5.366,0,0,1-.414,2.093A5.315,5.315,0,0,1,4.263-.6,5.315,5.315,0,0,1,2.538.552,5.366,5.366,0,0,1,.445.966,5.366,5.366,0,0,1-1.648.552,5.315,5.315,0,0,1-3.373-.6a5.315,5.315,0,0,1-1.15-1.725A5.366,5.366,0,0,1-4.937-4.416Zm35.19-9.614V-27.692L22.295-14.03Zm8.372,0h4.186v6.9H38.625V0H30.253V-7.13H13.509v-5.8L26.757-34.684H38.625Zm30.64,8.72A2.516,2.516,0,0,0,70-3.48a2.441,2.441,0,0,0,1.815.75,2.455,2.455,0,0,0,1.8-.75,2.455,2.455,0,0,0,.75-1.8,2.413,2.413,0,0,0-.21-1.005,2.582,2.582,0,0,0-.57-.81,2.679,2.679,0,0,0-.825-.54,2.423,2.423,0,0,0-.945-.2,2.539,2.539,0,0,0-1.77.72A2.348,2.348,0,0,0,69.265-5.31ZM65.6-5.37a5.332,5.332,0,0,1,.465-2.265,4.96,4.96,0,0,1,1.29-1.71,5.713,5.713,0,0,1,1.995-1.08,8.419,8.419,0,0,1,2.58-.375,7.132,7.132,0,0,1,2.46.4,5.592,5.592,0,0,1,1.9,1.14,5.284,5.284,0,0,1,1.245,1.74,5.261,5.261,0,0,1,.45,2.175,5.7,5.7,0,0,1-.45,2.3,5.021,5.021,0,0,1-1.275,1.77,5.844,5.844,0,0,1-1.98,1.14,7.711,7.711,0,0,1-2.565.4,7.611,7.611,0,0,1-2.5-.39,5.541,5.541,0,0,1-1.935-1.125A4.915,4.915,0,0,1,66.04-3.03,6.059,6.059,0,0,1,65.6-5.37Zm3.42-17.25h2.91L58.825,0h-2.94Zm-15.51,5.25a2.575,2.575,0,0,0,.72,1.8,2.382,2.382,0,0,0,1.83.78A2.343,2.343,0,0,0,57.04-15a2.712,2.712,0,0,0,.81-.555,2.712,2.712,0,0,0,.555-.81,2.343,2.343,0,0,0,.21-.975,2.413,2.413,0,0,0-.21-1.005,2.582,2.582,0,0,0-.57-.81,2.679,2.679,0,0,0-.825-.54,2.423,2.423,0,0,0-.945-.195,2.5,2.5,0,0,0-1.785.735A2.383,2.383,0,0,0,53.515-17.37Zm-3.63-.06a5.434,5.434,0,0,1,.465-2.28,4.7,4.7,0,0,1,1.305-1.71,6.048,6.048,0,0,1,1.995-1.065,8.275,8.275,0,0,1,2.565-.375,6.95,6.95,0,0,1,2.4.405,5.9,5.9,0,0,1,1.92,1.125,5.03,5.03,0,0,1,1.26,1.725,5.334,5.334,0,0,1,.45,2.205,5.613,5.613,0,0,1-.465,2.325,5.187,5.187,0,0,1-1.29,1.77,5.655,5.655,0,0,1-1.98,1.125,7.882,7.882,0,0,1-2.535.39,6.31,6.31,0,0,1-4.44-1.515A5.323,5.323,0,0,1,49.885-17.43Z" transform="translate(5210.977 9008.333)" fill="#ffd215"></path></g></svg>