<svg xmlns="http://www.w3.org/2000/svg" xmlns:xlink="http://www.w3.org/1999/xlink" width="269.552" height="251.153" viewBox="0 0 269.552 251.153"><defs><linearGradient id="linear-gradient" x1="0.886" x2="0.608" y2="0.451" gradientUnits="objectBoundingBox"><stop offset="0" stop-color="#173c98"></stop><stop offset="1" stop-color="#3a84cc"></stop></linearGradient></defs><g id="&#x30B0;&#x30EB;&#x30FC;&#x30D7;_18390" data-name="&#x30B0;&#x30EB;&#x30FC;&#x30D7; 18390" transform="translate(-5484.632 -8843.893)"><g id="&#x30B0;&#x30EB;&#x30FC;&#x30D7;_18263" data-name="&#x30B0;&#x30EB;&#x30FC;&#x30D7; 18263"><g id="&#x30B0;&#x30EB;&#x30FC;&#x30D7;_18260" data-name="&#x30B0;&#x30EB;&#x30FC;&#x30D7; 18260" transform="translate(4193.178 6004.653)"><g id="&#x30B0;&#x30EB;&#x30FC;&#x30D7;_9015" data-name="&#x30B0;&#x30EB;&#x30FC;&#x30D7; 9015" transform="translate(17 2.581)"><g id="&#x30B0;&#x30EB;&#x30FC;&#x30D7;_9008" data-name="&#x30B0;&#x30EB;&#x30FC;&#x30D7; 9008" transform="translate(54 -1743.161)"><g id="&#x30B0;&#x30EB;&#x30FC;&#x30D7;_9003" data-name="&#x30B0;&#x30EB;&#x30FC;&#x30D7; 9003" transform="translate(18927 2830.714)"><g id="&#x30B0;&#x30EB;&#x30FC;&#x30D7;_9002" data-name="&#x30B0;&#x30EB;&#x30FC;&#x30D7; 9002" transform="translate(-18894 -1099)"><path id="down3" d="M12.737,211.7c.21,0,21.293-.192,42.718-16.75C83.179,173.53,98.5,134.115,99.99,80.641H65.162a8.735,8.735,0,0,1-6.177-14.915L120.148,4.562a8.728,8.728,0,0,1,12.355,0l61.163,61.163a8.735,8.735,0,0,1-6.177,14.915H152.4C147.706,224.942,26.761,229.18,12.737,229.18a8.738,8.738,0,0,1,0-17.475Z" transform="translate(1260.775 2846.106)" fill="url(#linear-gradient)"></path></g></g></g></g></g><path id="&#x30D1;&#x30B9;_24886" data-name="&#x30D1;&#x30B9; 24886" d="M-32.9-27.048H-47.4v-7.636h28.474L-38.793,0h-9.936Zm27.554,9.66A19.56,19.56,0,0,0-4.937-13.2,12.176,12.176,0,0,0-3.764-9.936,6.316,6.316,0,0,0-1.947-7.8a4,4,0,0,0,2.392.759A4.035,4.035,0,0,0,2.814-7.8,5.994,5.994,0,0,0,4.631-9.936,12.729,12.729,0,0,0,5.781-13.2a19.56,19.56,0,0,0,.414-4.186,19.647,19.647,0,0,0-.414-4.163,12.325,12.325,0,0,0-1.15-3.266,6.043,6.043,0,0,0-1.817-2.116,4.035,4.035,0,0,0-2.369-.759,4,4,0,0,0-2.392.759,6.374,6.374,0,0,0-1.817,2.116,11.8,11.8,0,0,0-1.173,3.266A19.646,19.646,0,0,0-5.351-17.388Zm-8.924,0a24.615,24.615,0,0,1,1.081-7.521,17.373,17.373,0,0,1,3.036-5.773,13.7,13.7,0,0,1,4.646-3.7A13.419,13.419,0,0,1,.445-35.7a13.461,13.461,0,0,1,5.934,1.311,13.409,13.409,0,0,1,4.646,3.7,17.622,17.622,0,0,1,3.013,5.773,24.615,24.615,0,0,1,1.081,7.521,24.615,24.615,0,0,1-1.081,7.521,17.9,17.9,0,0,1-3.013,5.8A13.3,13.3,0,0,1,6.379-.345,13.461,13.461,0,0,1,.445.966,13.419,13.419,0,0,1-5.512-.345a13.582,13.582,0,0,1-4.646-3.726,17.643,17.643,0,0,1-3.036-5.8A24.615,24.615,0,0,1-14.275-17.388ZM41.205-5.31a2.516,2.516,0,0,0,.735,1.83,2.441,2.441,0,0,0,1.815.75,2.455,2.455,0,0,0,1.8-.75,2.455,2.455,0,0,0,.75-1.8,2.413,2.413,0,0,0-.21-1.005,2.582,2.582,0,0,0-.57-.81,2.679,2.679,0,0,0-.825-.54,2.423,2.423,0,0,0-.945-.2,2.539,2.539,0,0,0-1.77.72A2.348,2.348,0,0,0,41.205-5.31Zm-3.66-.06a5.332,5.332,0,0,1,.465-2.265,4.96,4.96,0,0,1,1.29-1.71,5.713,5.713,0,0,1,1.995-1.08,8.419,8.419,0,0,1,2.58-.375,7.132,7.132,0,0,1,2.46.4,5.592,5.592,0,0,1,1.9,1.14,5.284,5.284,0,0,1,1.245,1.74,5.261,5.261,0,0,1,.45,2.175,5.7,5.7,0,0,1-.45,2.3,5.02,5.02,0,0,1-1.275,1.77,5.844,5.844,0,0,1-1.98,1.14,7.711,7.711,0,0,1-2.565.4,7.611,7.611,0,0,1-2.5-.39,5.541,5.541,0,0,1-1.935-1.125A4.915,4.915,0,0,1,37.98-3.03,6.059,6.059,0,0,1,37.545-5.37Zm3.42-17.25h2.91L30.765,0h-2.94Zm-15.51,5.25a2.575,2.575,0,0,0,.72,1.8,2.382,2.382,0,0,0,1.83.78A2.343,2.343,0,0,0,28.98-15a2.712,2.712,0,0,0,.81-.555,2.712,2.712,0,0,0,.555-.81,2.343,2.343,0,0,0,.21-.975,2.413,2.413,0,0,0-.21-1.005,2.582,2.582,0,0,0-.57-.81,2.679,2.679,0,0,0-.825-.54,2.423,2.423,0,0,0-.945-.195,2.5,2.5,0,0,0-1.785.735A2.383,2.383,0,0,0,25.455-17.37Zm-3.63-.06a5.434,5.434,0,0,1,.465-2.28A4.7,4.7,0,0,1,23.6-21.42a6.048,6.048,0,0,1,1.995-1.065,8.275,8.275,0,0,1,2.565-.375,6.95,6.95,0,0,1,2.4.405,5.9,5.9,0,0,1,1.92,1.125,5.03,5.03,0,0,1,1.26,1.725,5.334,5.334,0,0,1,.45,2.205,5.613,5.613,0,0,1-.465,2.325,5.187,5.187,0,0,1-1.29,1.77,5.655,5.655,0,0,1-1.98,1.125,7.882,7.882,0,0,1-2.535.39,6.31,6.31,0,0,1-4.44-1.515A5.323,5.323,0,0,1,21.825-17.43Z" transform="translate(5543.977 8970.246)" fill="#ffd214"></path><path id="&#x30D1;&#x30B9;_24885" data-name="&#x30D1;&#x30B9; 24885" d="M-48.448-13.168a8.331,8.331,0,0,1-1.984.752,29.23,29.23,0,0,1-6.912.9c-.24,0-.512-.016-1.024-.032a7.342,7.342,0,0,1,.7,2.064c2.4-.112,3.056-.16,4.336-.32v.272c0,.592-.016,1.408-.032,1.824h-3.68a14.082,14.082,0,0,1-2.3-.112v2.256a21.158,21.158,0,0,1,2.272-.08h3.5a4.671,4.671,0,0,1-2,3.488A8.1,8.1,0,0,1-58.032-.88a6.348,6.348,0,0,1,1.68,2.032,11.541,11.541,0,0,0,1.52-.8,8.376,8.376,0,0,0,2.624-2.56,8.231,8.231,0,0,0,1.072-3.44h3.168a20.711,20.711,0,0,1,2.224.08V-7.824a13.871,13.871,0,0,1-2.272.112h-2.976c.016-.528.032-1.056.048-2.432a20.951,20.951,0,0,0,3.136-.8c.528-.176.528-.176.88-.272Zm6.512,8.384c.624-.064,1.536-.1,2.928-.1h8.08c1.248,0,2.3.032,2.944.08V-7.424a21.006,21.006,0,0,1-2.928.112h-8.1a19.985,19.985,0,0,1-2.928-.128Zm22.16-8.256a16.084,16.084,0,0,1-.672,2.944,79.716,79.716,0,0,1-2.7,7.9c-.72.032-1.024.048-1.36.048a4.045,4.045,0,0,1-.432-.016l.336,2.576a8.409,8.409,0,0,1,1.52-.208,88.705,88.705,0,0,0,9.52-1.216A12.849,12.849,0,0,1-12.9.88l2.336-1.2A35.836,35.836,0,0,0-14.4-7.84l-2.16.832a20.444,20.444,0,0,1,1.488,2.576c.336.656.5.976.656,1.328a55.784,55.784,0,0,1-6.112.72c.992-2.432,2.016-5.456,3.072-8.976a6.249,6.249,0,0,1,.416-1.168ZM-.24-8.24A2.151,2.151,0,0,0-2.4-6.08,2.151,2.151,0,0,0-.24-3.92,2.151,2.151,0,0,0,1.92-6.08,2.151,2.151,0,0,0-.24-8.24ZM17.136-5.248V-.992H16.56a22.225,22.225,0,0,0-.432-3.472l-1.376.272a24.665,24.665,0,0,1,.368,3.68l.624-.112v1.6a12.877,12.877,0,0,1,1.68-.1h5.712a14.034,14.034,0,0,1,1.728.1V-1.072A4.414,4.414,0,0,1,24-.992h-.144V-11.264c0-.688.016-1.136.064-1.744a11.312,11.312,0,0,1-1.664.08H18.672c-.624,0-1.056-.016-1.6-.064.048.56.064,1.04.064,1.648v5.92a19.313,19.313,0,0,0-1.168-3.3l-1.408.576c.24.576.3.72.464,1.152-.672.064-1.168.112-1.52.128a39.7,39.7,0,0,0,2.464-3.584,7.852,7.852,0,0,1,.448-.672l-1.68-.912a18.178,18.178,0,0,1-1.584,2.848c-.32-.384-.32-.384-.544-.656a25.094,25.094,0,0,0,1.424-2.4c.3-.576.3-.576.4-.736l-1.856-.672a11.207,11.207,0,0,1-1.136,2.512c-.224-.24-.32-.336-.624-.64l-.928,1.728A17.035,17.035,0,0,1,12.08-7.584c-.224.32-.336.48-.576.784h-.416a5.709,5.709,0,0,1-1.056-.064L10.24-4.9a3.868,3.868,0,0,1,.752-.1l1.488-.1V-.336a10.373,10.373,0,0,1-.1,1.744h2.048a10.04,10.04,0,0,1-.1-1.744v-4.9l.832-.08c.08-.016.208-.032.368-.048.08.288.1.384.176.72Zm1.968-5.76h2.752v2.032H19.1Zm0,3.888h2.752v2.1H19.1Zm0,3.968h2.752v2.16H19.1Zm-8.56-1.312a12.467,12.467,0,0,1-.72,4.288l1.5.72a18.664,18.664,0,0,0,.72-4.8Zm27.648-2.72A24.053,24.053,0,0,0,38.816-2.4a10.7,10.7,0,0,1-1.008,1.216V-5.12c0-.8,0-1.056.032-1.392a9.365,9.365,0,0,1-.992.048h-2.7a6.432,6.432,0,0,1-.976-.048c.032.4.048.656.048,1.376v4.72A11.347,11.347,0,0,1,33.152.96h1.76V0h1.616a4.872,4.872,0,0,1,1.12,1.392,10.842,10.842,0,0,0,1.84-1.9c.608,1.168,1.2,1.776,1.728,1.776.736,0,1.264-1.072,1.488-3.088A4.255,4.255,0,0,1,41.456-3.04a4.216,4.216,0,0,1-.3,1.7,6.064,6.064,0,0,1-.464-.944A24.939,24.939,0,0,0,42-5.152c.208-.56.208-.56.288-.752l-1.472-.864a14.929,14.929,0,0,1-.656,2.016c-.224-1.968-.224-1.968-.24-2.432h.752a13.2,13.2,0,0,1,1.792.08V-9.088a12.086,12.086,0,0,1-1.792.08h-.72c-.032-1.264-.032-1.392-.032-2.624A10.92,10.92,0,0,1,40.9-9.3l1.5-.624a14.982,14.982,0,0,0-1.328-2.688l-1.152.48a9.268,9.268,0,0,1,.1-1.264H38.064a10.224,10.224,0,0,1,.048,1.232,7.832,7.832,0,0,1-.944.032H36.4a6.059,6.059,0,0,1,.08-1.264H34.464a6.154,6.154,0,0,1,.08,1.264h-.9a6.25,6.25,0,0,1-.976-.064v.9l-1.36-.64a16.179,16.179,0,0,1-1.264,2.608c-.16-.24-.16-.24-.416-.608a18.915,18.915,0,0,0,.976-1.856,8.311,8.311,0,0,1,.592-1.216l-1.616-.624a12.535,12.535,0,0,1-.912,2.384l-.4-.512-.864,1.68a18.58,18.58,0,0,1,1.664,2.352c-.272.4-.288.432-.672.976a2.052,2.052,0,0,1-.288.016A3.467,3.467,0,0,1,27.36-6.8l.16,1.9c.176-.032.848-.08,2-.16v4.48a12.472,12.472,0,0,1-.1,2H31.28a12.115,12.115,0,0,1-.1-2V-5.184c.064,0,.256-.032.592-.064l.112.624,1.3-.512c-.192-.816-.24-.944-.56-2.016.368-.016.88-.032,1.376-.032Zm-5.856-.848c-.048-.144-.08-.208-.144-.384l-1.152.4c.736-1.152.8-1.264,1.632-2.768v.288c.224-.032.288-.032.512-.048a13.107,13.107,0,0,1,.32,1.536c-.528-.016-.784-.032-1.168-.064Zm2.736-.976a15.416,15.416,0,0,0-.208-1.536h1.024a13.048,13.048,0,0,1-.3,1.536Zm2.144,0a13.753,13.753,0,0,0,.352-1.536c.336,0,.4.016.544.016.016.688.016.832.032,1.52ZM31.024-7.984c.224.608.256.736.368,1.12-.352.032-.736.048-1.168.064.32-.448.4-.56.512-.752C30.944-7.856,30.944-7.856,31.024-7.984Zm3.84,3.12h1.312V-4H34.864Zm0,2.384h1.312v.912H34.864ZM27.872-4.5A16.955,16.955,0,0,1,27.344-.16L28.72.528A25.174,25.174,0,0,0,29.232-4.3Zm3.52.32a33.473,33.473,0,0,1,.32,3.936l1.264-.368a36.128,36.128,0,0,0-.368-3.824ZM54-10.1a3.112,3.112,0,0,1,1.488.512A3.888,3.888,0,0,1,57.2-6.24,4.395,4.395,0,0,1,54.992-2.3a8.021,8.021,0,0,1-3.168.768A6.56,6.56,0,0,1,53.008.736,11.422,11.422,0,0,0,55.552.08,6.277,6.277,0,0,0,59.568-6.1c0-3.744-2.56-6.144-6.576-6.144a7.423,7.423,0,0,0-5.632,2.3,6.9,6.9,0,0,0-1.792,4.752C45.568-2.432,46.976-.5,48.96-.5c1.376,0,2.432-.944,3.328-2.976A22.574,22.574,0,0,0,54-10.1Zm-2.336.032a20.6,20.6,0,0,1-1.28,5.152c-.512,1.3-1.008,1.92-1.472,1.92-.624,0-1.136-.976-1.136-2.176a5.246,5.246,0,0,1,1.968-4.1A3.6,3.6,0,0,1,51.664-10.064Zm-88.152,20.5v2.672h-2.288a17.138,17.138,0,0,1-2.016-.08v2.08a19.138,19.138,0,0,1,2.048-.1h2.256v2.976h-3.824a21.577,21.577,0,0,1-2.368-.112v2.16a23.851,23.851,0,0,1,2.432-.112h9.568a21.98,21.98,0,0,1,2.336.112V17.88a20.727,20.727,0,0,1-2.384.112h-3.6V15.016h2.592c.784,0,1.44.032,2.1.1v-2.1a20.211,20.211,0,0,1-2.112.1h-2.576V10.44h3.152c.816,0,1.472.032,2.256.1V8.44c-.688.064-1.472.1-2.32.1h-3.088V7.56a13.32,13.32,0,0,1,.1-2.016H-36.6a13.7,13.7,0,0,1,.112,2.032v.96H-38.76c.128-.384.256-.768.336-1.04.128-.4.128-.416.176-.544.112-.3.112-.3.144-.416l-2.144-.528a7.836,7.836,0,0,1-.32,1.488,10.842,10.842,0,0,1-2.608,4.576,6,6,0,0,1,1.44,1.7A13.911,13.911,0,0,0-39.56,10.44ZM-21,17.08c.5-.032.9-.048,1.472-.048h1.76V18.1h-3.488a12.943,12.943,0,0,1-1.52-.064v1.968a13.9,13.9,0,0,1,1.568-.08h8.784a15.532,15.532,0,0,1,1.568.08V18.024a13,13,0,0,1-1.52.08h-3.408V17.032h2.32a12.032,12.032,0,0,1,1.424.048V15.24a9.984,9.984,0,0,1-1.424.064h-2.32v-.992h2.752a13.251,13.251,0,0,1,1.52.048v-1.9a8.665,8.665,0,0,1-1.5.08h-2.768a5.788,5.788,0,0,1,.064-.96h-2.128a4.645,4.645,0,0,1,.08.96h-1.52c.144-.352.144-.352.288-.672l-1.856-.544A8.9,8.9,0,0,1-22.5,14.472a28.248,28.248,0,0,0,.112-3.216h9.84a13.136,13.136,0,0,1,1.744.08V9.416a12.421,12.421,0,0,1-1.744.08H-14.52c.208-.368.24-.448.592-1.184h1.088a15.055,15.055,0,0,1,1.728.064V6.424a13.867,13.867,0,0,1-1.872.1H-16.76a4.9,4.9,0,0,1,.1-1.04h-2.32a5.183,5.183,0,0,1,.08,1.04h-3.76a12.918,12.918,0,0,1-1.824-.1V8.376a13.454,13.454,0,0,1,1.664-.064h1.3a6.568,6.568,0,0,1,.48,1.184h-1.584a16.9,16.9,0,0,1-1.808-.08c.048.576.064,1.072.064,1.776a23.11,23.11,0,0,1-.432,5.056,7.5,7.5,0,0,1-.88,2.224,9.519,9.519,0,0,1,1.52,1.952A11.71,11.71,0,0,0-22.616,15.4a10.877,10.877,0,0,1,.912,1.168c.352-.416.48-.592.7-.9Zm3.232-2.768V15.3h-1.776a11.546,11.546,0,0,1-1.184-.032,10.249,10.249,0,0,0,.608-.96ZM-18.824,9.5a11.4,11.4,0,0,0-.464-1.184h3.12A7.479,7.479,0,0,1-16.7,9.5ZM-3.96,8.952a11.37,11.37,0,0,1,.7,2.336l.64-.32a7.014,7.014,0,0,1-.576,1.072,11.6,11.6,0,0,1,1.808,1.04c-.256-.016-.4-.032-.688-.064v2.032c.416-.048,1.152-.08,1.824-.08H1.08v2.976H-1.352a15.131,15.131,0,0,1-1.936-.1v2.128a16.589,16.589,0,0,1,1.936-.1H5.016a16.4,16.4,0,0,1,1.936.1V17.848a14.959,14.959,0,0,1-1.936.1H3.144V14.968H4.488a16.2,16.2,0,0,1,1.808.08V13.016A12.356,12.356,0,0,1,4.5,13.1H3.144V10.568H4.792a15.538,15.538,0,0,1,1.792.1V8.552a11.813,11.813,0,0,1-1.792.1H3.144V7.208a12.976,12.976,0,0,1,.1-1.728H.984a13.67,13.67,0,0,1,.1,1.728v1.44H-.008c.08-.5.144-.912.176-1.152A4.9,4.9,0,0,1,.3,6.808L-1.72,6.44V6.6a14.8,14.8,0,0,1-.544,3.376,13.415,13.415,0,0,0-.7-1.76l-.992.48V7.176a11.069,11.069,0,0,1,.1-1.744H-6.072a13.409,13.409,0,0,1,.1,1.744V18.3a20.1,20.1,0,0,1-.1,2.1h2.208a13.266,13.266,0,0,1-.1-1.952Zm5.04,1.616V13.1H-.552c-.32,0-.512,0-.816-.016a9.826,9.826,0,0,0,.944-2.512Zm-7.808,2.688a20.154,20.154,0,0,0,.48-4.512L-7.56,8.568v.32a15.458,15.458,0,0,1-.5,3.856ZM18.984,6.328a14.172,14.172,0,0,1,.128,2.3V14.2a3.515,3.515,0,0,1-.544,2.128,2.991,2.991,0,0,1-2.5,1.024,3,3,0,0,1-2.416-.912,3.313,3.313,0,0,1-.64-2.24V8.632a13.678,13.678,0,0,1,.128-2.3h-2.9a14.3,14.3,0,0,1,.128,2.3V14.2a5.529,5.529,0,0,0,1.3,3.9A5.837,5.837,0,0,0,16.04,19.64c3.632,0,5.712-1.968,5.712-5.424v-5.6a14.457,14.457,0,0,1,.128-2.288Zm9.488,13.008a14.97,14.97,0,0,1-.128-2.24V14.728h2.8A4.749,4.749,0,0,0,34.7,13.5a4.219,4.219,0,0,0,1.136-3.088,3.989,3.989,0,0,0-1.04-2.88,4.864,4.864,0,0,0-3.6-1.2H27.784c-.944,0-1.472-.016-2.192-.048a16.309,16.309,0,0,1,.128,2.192v8.656a14.651,14.651,0,0,1-.128,2.208Zm-.128-6.864V8.584H31.08a1.964,1.964,0,0,1,1.552.528,1.9,1.9,0,0,1,.48,1.376,1.825,1.825,0,0,1-2.032,1.984Zm13.52,3.056c-.016-.4-.032-.56-.032-.736,0-.192,0-.192.048-1.152l.272-5.264c.032-.832.1-1.584.16-2.048h-3.12c.064.544.128,1.328.16,2.048l.272,5.264c.048.928.048.928.048,1.136,0,.176-.016.352-.032.752Zm.256,3.808V16.744H39.384v2.592Z" transform="translate(5543.977 8897.91)" fill="#ffd214"></path></g><path id="&#x30D1;&#x30B9;_26636" data-name="&#x30D1;&#x30B9; 26636" d="M-3.785-3.735-6.97-6.93l-.3.3L-4.073-3.42l-3.195,3.2.3.3L-3.785-3.1-.589.072l.288-.3-3.2-3.2L-.3-6.633l-.288-.3Zm.009-2.979a.691.691,0,0,0-.693.684.7.7,0,0,0,.693.693.686.686,0,0,0,.684-.693A.684.684,0,0,0-3.776-6.714Zm-2.583,2.6a.686.686,0,0,0-.693.684.7.7,0,0,0,.693.693.686.686,0,0,0,.684-.693A.684.684,0,0,0-6.359-4.113ZM-1.21-4.1a.684.684,0,0,0-.684.684.684.684,0,0,0,.684.684A.684.684,0,0,0-.527-3.42.684.684,0,0,0-1.21-4.1Zm-2.574,2.61-.018.018c-.009,0-.009,0-.018-.009a.033.033,0,0,0-.027-.009.725.725,0,0,0-.63.693.724.724,0,0,0,.693.693A.7.7,0,0,0-3.1-.8.686.686,0,0,0-3.785-1.494Zm5.6.1c.3-.027.6-.036,1.143-.036H5.467v.54A6.108,6.108,0,0,1,5.4.189H6.961A5.891,5.891,0,0,1,6.889-.873v-.549h.252a7.6,7.6,0,0,1,.936.054V-2.754a5.536,5.536,0,0,1-.936.072H6.889V-5.616a15.036,15.036,0,0,1,.063-1.512H5.431a9.151,9.151,0,0,1-.783,1.035L2.605-3.645c-.171.2-.432.5-.792.909ZM5.485-2.673H3.415L4.981-4.6c.234-.288.414-.513.549-.711-.036.495-.045.711-.045.981Z" transform="translate(5732.495 9094.856)" fill="#fff"></path></g></svg>