<svg xmlns="http://www.w3.org/2000/svg" width="467" height="144.656" viewBox="0 0 467 144.656"><g id="&#x30B0;&#x30EB;&#x30FC;&#x30D7;_18609" data-name="&#x30B0;&#x30EB;&#x30FC;&#x30D7; 18609" transform="translate(-252 -1141)"><circle id="&#x6955;&#x5186;&#x5F62;_773" data-name="&#x6955;&#x5186;&#x5F62; 773" cx="58.5" cy="58.5" r="58.5" transform="translate(252 1141)" fill="#f0f5f7"></circle><circle id="&#x6955;&#x5186;&#x5F62;_774" data-name="&#x6955;&#x5186;&#x5F62; 774" cx="58.5" cy="58.5" r="58.5" transform="translate(427 1141)" fill="#f0f5f7"></circle><circle id="&#x6955;&#x5186;&#x5F62;_775" data-name="&#x6955;&#x5186;&#x5F62; 775" cx="58.5" cy="58.5" r="58.5" transform="translate(602 1141)" fill="#f0f5f7"></circle><path id="&#x591A;&#x89D2;&#x5F62;_16" data-name="&#x591A;&#x89D2;&#x5F62; 16" d="M9.766,3.015a2,2,0,0,1,3.468,0L21.277,17a2,2,0,0,1-1.734,3H3.457a2,2,0,0,1-1.734-3Z" transform="translate(408.5 1188) rotate(90)" fill="#2e6dc4"></path><path id="&#x591A;&#x89D2;&#x5F62;_17" data-name="&#x591A;&#x89D2;&#x5F62; 17" d="M9.766,3.015a2,2,0,0,1,3.468,0L21.277,17a2,2,0,0,1-1.734,3H3.457a2,2,0,0,1-1.734-3Z" transform="translate(583.5 1188) rotate(90)" fill="#2e6dc4"></path><path id="&#x30D1;&#x30B9;_27124" data-name="&#x30D1;&#x30B9; 27124" d="M-34.11-12.276H-36.2a11.36,11.36,0,0,1-1.71-.09v1.872a15.16,15.16,0,0,1,1.71-.072h2.088V-9.9H-35.6c-.792,0-1.278-.018-1.8-.054A13.193,13.193,0,0,1-37.332-8.3V-5.94A13.29,13.29,0,0,1-37.4-4.248c.522-.018.918-.036,1.8-.036h1.494V-3.6h-1.764A14.7,14.7,0,0,1-37.6-3.672v1.836a16.9,16.9,0,0,1,1.71-.072h1.782v.864c-1.062.036-2.394.072-2.808.072a10.156,10.156,0,0,1-1.134-.036l.36,2.2c.486-.054.81-.09,1.116-.108,3.168-.216,3.258-.216,7.524-.63a6.93,6.93,0,0,1,1.044,1.206A11.957,11.957,0,0,0-26.568-.72a6.062,6.062,0,0,1,.36,1.98c.27.018.846.018,1.494.018,1.386,0,2.052-.36,2.34-1.3.432-1.3.63-3.654.7-8.262.054-2.682.054-2.736.126-3.456a14.7,14.7,0,0,1-1.728.072h-1.512c0-1.062.018-1.818.018-1.926a7.686,7.686,0,0,1,.108-1.548h-2.448A11.568,11.568,0,0,1-27-12.78v1.116h-.216a6.009,6.009,0,0,1-1.134-.072v2.3a8.406,8.406,0,0,1,1.3-.072c-.2,4.086-.648,6.138-1.836,8.154-2.2.18-2.2.18-3.186.234v-.792h2.07a4.674,4.674,0,0,1,1.152.09V-3.654c-.468.036-.81.054-1.728.054h-1.494v-.684h1.638c.882,0,1.278,0,1.6.036-.018-.414-.018-.414-.036-1.62v-2.5a10.545,10.545,0,0,1,.054-1.566c-.414.036-.63.036-1.476.036h-1.782v-.666h2.142a7.8,7.8,0,0,1,1.224.054v-1.836a12.932,12.932,0,0,1-1.692.072h-1.674v-.846c1.926-.234,1.926-.234,2.43-.306a2.093,2.093,0,0,1,.288-.054c.378-.054.378-.054.486-.072a1.275,1.275,0,0,1,.252-.018l-1.206-1.746c-1.134.5-4.266.846-7.992.864a7.986,7.986,0,0,1,.72,1.638c1.26-.036,1.728-.054,2.988-.144Zm0,3.816v.684h-1.26V-8.46Zm2.034,0H-30.8v.684h-1.278ZM-34.11-6.408v.684h-1.26v-.684Zm2.034,0H-30.8v.684h-1.278Zm8.3-3.1a53.428,53.428,0,0,1-.342,6.858C-24.3-1.134-24.462-.9-25.2-.9a9.912,9.912,0,0,1-1.224-.108c.99-2.286,1.422-4.536,1.566-8.5Zm12.744-3.1v1.332h-1.908a10.337,10.337,0,0,1-1.476-.072,9.788,9.788,0,0,1,.072,1.368v6.48a12.273,12.273,0,0,1-.054,1.35c.216-.018.756-.054.9-.054h7.2c.144,0,.666.036.882.054a11.4,11.4,0,0,1-.054-1.35v-6.48A9.465,9.465,0,0,1-5.4-11.34a10.214,10.214,0,0,1-1.458.072H-8.8V-12.6h4.77c.792,0,1.638.036,2.358.108v-2.322c-.774.072-1.53.108-2.376.108H-15.8a22.376,22.376,0,0,1-2.322-.108v2.322c.774-.072,1.53-.108,2.358-.108Zm.072,3.33v1.494H-12.33V-9.27Zm0,3.4V-4.14H-12.33V-5.868ZM-8.91-4.14V-5.868h1.458V-4.14Zm0-3.636V-9.27h1.458v1.494Zm4.392-3.312a10.788,10.788,0,0,1,.072,1.494V-1.26H-15.372v-8.3a9.931,9.931,0,0,1,.072-1.53h-2.43a20.383,20.383,0,0,1,.108,2.052V-.9a21.73,21.73,0,0,1-.126,2.5h2.43V.828h10.8V1.6h2.43A23.494,23.494,0,0,1-2.214-.936V-8.982c0-.612.036-1.44.108-2.106Zm17.532,6.48V.072c0,1.044.45,1.278,2.466,1.278,1.422,0,2.088-.162,2.394-.576.36-.468.522-1.368.612-3.186a7,7,0,0,1-1.926-.846A10.585,10.585,0,0,1,16.4-.99c-.054.18-.234.234-.738.234-.324,0-.45-.072-.45-.252v-3.6h.522c.324,0,1.314.036,1.692.054-.054-.666-.072-1.026-.072-1.818v-6.552a14.717,14.717,0,0,1,.072-1.8c-.486.036-.738.054-1.728.054H10.242A13.64,13.64,0,0,1,8.5-14.724a16.33,16.33,0,0,1,.054,1.8v6.552c0,.648-.018,1.242-.036,1.818.828-.054,1.044-.054,1.656-.054a4.5,4.5,0,0,1-.612,2.07,5.738,5.738,0,0,1-3.024,2.2A8.566,8.566,0,0,1,7.956,1.62a7.386,7.386,0,0,0,3.51-2.862,6.594,6.594,0,0,0,.918-3.366Zm-2.25-8.154h4.374v.954H10.764Zm0,2.664h4.374v.954H10.764Zm0,2.664h4.374v.99H10.764Zm-4.77,2.16a10.537,10.537,0,0,0,1.62,1.692,7.4,7.4,0,0,1,.9-2.3,8.208,8.208,0,0,1-2.07-1.728,19.486,19.486,0,0,0,1.584-2.9,6.584,6.584,0,0,1,.414-.864l-.99-1.1a5.546,5.546,0,0,1-.954.054h-.5v-1.458a10.83,10.83,0,0,1,.09-1.4H3.636a12.205,12.205,0,0,1,.09,1.386v1.476H3.06a10.236,10.236,0,0,1-1.386-.072v2.286a14.283,14.283,0,0,1,1.53-.072h2.34A10.5,10.5,0,0,1,3.69-7.506,10.631,10.631,0,0,1,1.1-5.328a8.762,8.762,0,0,1,.918,2.412A15.787,15.787,0,0,0,3.762-4.41v4a13.253,13.253,0,0,1-.108,1.98h2.43a14.582,14.582,0,0,1-.09-1.98Zm26.064,1.98c0-.342,0-.468.018-.756A12.786,12.786,0,0,1,33.57-2.718l1.4-1.53A17.15,17.15,0,0,0,33.1-5.58H35.82c.756,0,1.188.018,1.836.054a7.038,7.038,0,0,1-.072-1.206v-3.06a7.988,7.988,0,0,1,.072-1.224c-.468.036-1.026.054-1.728.054H33.8v-.9h2.5a16.814,16.814,0,0,1,1.836.072v-2.124a13.494,13.494,0,0,1-1.872.09H33.8a7.861,7.861,0,0,1,.09-1.4H31.518c.054.486.072.756.09,1.4H29.592a15.891,15.891,0,0,1-1.8-.072v-.918a9.657,9.657,0,0,1-1.656.09H22.95a7.443,7.443,0,0,1-1.62-.108v2.268a5.99,5.99,0,0,1,.738-.072v9.63a6.777,6.777,0,0,1-.918.108l.468,2.322c.306-.108.36-.126.594-.2,1.08-.288,2.034-.558,2.844-.81V-.45a18.425,18.425,0,0,1-.09,1.962h2.25a10.842,10.842,0,0,1-.09-1.782l1.332.882a13.507,13.507,0,0,0,1.476-4.374c.018.252.018.36.018.558V-.162c0,.648.108.954.45,1.152a3.806,3.806,0,0,0,2.07.306c1.674,0,2.214-.09,2.574-.45.432-.414.63-1.062.72-2.538a23.122,23.122,0,0,1,.72,2.268L38.412-.468A21.148,21.148,0,0,0,36.7-4.554l-1.908.846a10.046,10.046,0,0,1,.9,1.818,4.528,4.528,0,0,1-1.872-.63c-.072,1.692-.108,1.746-.936,1.746-.72,0-.828-.054-.828-.342Zm-7.974-9.342H25.11v1.746H24.084Zm3.042,0c.324.018.324.018.5.018v.828a15.209,15.209,0,0,1,1.836-.072h2.142v.9h-2.07c-.738,0-1.242-.018-1.746-.054a11.247,11.247,0,0,1,.054,1.188V-6.7a11.371,11.371,0,0,1-.054,1.17c.522-.036,1.044-.054,1.71-.054h2l-.774.648c.306.18.4.234.63.378H29.862a5.8,5.8,0,0,1,.072.666l-1.818-.7a9.43,9.43,0,0,1-.99,3.438ZM24.084-9H25.11v1.656H24.084Zm0,3.546H25.11v1.746c-.558.162-.594.162-1.026.27ZM29.7-9.126h.972v1.71H29.7Zm2.538,0h.918v1.71h-.918Zm2.5,0h.918v1.71H34.74Z" transform="translate(311 1284)"></path><path id="&#x30D1;&#x30B9;_27125" data-name="&#x30D1;&#x30B9; 27125" d="M-30.978-8.964c0,.45,0,.45-.018.882h-3.258a11.309,11.309,0,0,1-1.656-.072v2.016a11.634,11.634,0,0,1,1.656-.072h3.132a7.519,7.519,0,0,1-.144.882h-4.572a12.678,12.678,0,0,1-1.908-.09v2.16a18.839,18.839,0,0,1,2.052-.108h3.672a5.169,5.169,0,0,1-2.142,1.782,10.213,10.213,0,0,1-3.888.99,6.452,6.452,0,0,1,1.1,2.232A11.916,11.916,0,0,0-32.508.09a7.206,7.206,0,0,0,2.592-2.61A9.093,9.093,0,0,0-26.73.18a15.8,15.8,0,0,0,4.392,1.458,9.315,9.315,0,0,1,1.08-2.3,15.283,15.283,0,0,1-4.968-1.386,4.965,4.965,0,0,1-1.656-1.314h4.212a18.7,18.7,0,0,1,2.07.108v-2.16a13.357,13.357,0,0,1-1.962.09h-5.364c.072-.4.09-.54.126-.882h3.582a11.663,11.663,0,0,1,1.638.072V-8.154a11.016,11.016,0,0,1-1.638.072h-3.474c0-.324,0-.324.018-.882h3.564a12.97,12.97,0,0,1,1.674.072V-9.63h1.692A10.835,10.835,0,0,1-21.816-11V-12.51a11.61,11.61,0,0,1,.072-1.368c-.63.054-1.116.072-2.07.072H-28.62v-.288a6.73,6.73,0,0,1,.09-1.134h-2.592a5.647,5.647,0,0,1,.09,1.152v.27h-4.536c-.954,0-1.458-.018-2.07-.072a12.874,12.874,0,0,1,.072,1.4V-11a7.436,7.436,0,0,1-.09,1.368h1.692v.738a12.074,12.074,0,0,1,1.692-.072Zm6.93-2.826v.918c-.378.018-.558.018-1.062.018h-3.546a9.31,9.31,0,0,1,.018-.936Zm-6.912,0v.936h-3.312c-.5,0-.774,0-1.044-.018v-.918Zm15.822,9.972c-.288.09-.288.09-.63.18V-5.706a13.614,13.614,0,0,1,.072-1.71h-1.962a11.8,11.8,0,0,1,.09,1.8v4.428a5.152,5.152,0,0,1-.81.144l.432,2.448c.558-.2.756-.27,1.458-.5,1.836-.594,2.772-.918,3.924-1.35A8.157,8.157,0,0,1-11.5,1.44a18.358,18.358,0,0,0,5-2.088,4.559,4.559,0,0,0,3.276,2.16A1.531,1.531,0,0,0-1.89.846a4.847,4.847,0,0,0,.72-2.682A5.091,5.091,0,0,1-2.9-3.078a8.815,8.815,0,0,1-.18,1.746c-.054.324-.162.468-.324.468-.288,0-.756-.4-1.3-1.08a25.636,25.636,0,0,0,1.98-1.764c.306-.288.306-.306.432-.414L-4.05-5.382A7.022,7.022,0,0,1-5.67-3.8a7.241,7.241,0,0,1-.378-1.386l2.808-.324a13.826,13.826,0,0,1,1.71-.126l-.216-2.052c-.486.108-1.008.2-1.674.288l-2.934.324c-.054-.414-.054-.432-.09-.936l2.232-.252a15.335,15.335,0,0,1,1.566-.126H-2.5L-2.718-10.3a9.692,9.692,0,0,1-1.71.27l-2.142.252c-.018-.234-.018-.234-.054-.918l2.754-.288c.684-.072,1.17-.108,1.53-.108a.7.7,0,0,1,.162.018l-.2-2.034a14.636,14.636,0,0,1-1.638.252l1.17-.99a11.485,11.485,0,0,0-2.25-1.242l-1.278,1.152a10.472,10.472,0,0,1,1.89,1.116l-2.232.234c-.018-.54-.018-.666-.018-.972a6.686,6.686,0,0,1,.09-1.458H-9.09a8.653,8.653,0,0,1,.126,1.692c.036.828.036.828.036.954l-.918.09a12.113,12.113,0,0,1-1.26.09,2.443,2.443,0,0,1-.324-.018l.2,2.016a14.523,14.523,0,0,1,1.512-.2l.882-.09c.018.252.018.252.072.936l-.792.09c-.522.054-.918.09-1.224.09a.579.579,0,0,1-.144-.018l.216,1.926a10.971,10.971,0,0,1,1.368-.216l.7-.09c.054.432.054.45.108.936l-1.152.144a10.922,10.922,0,0,1-1.584.108l.18,2.052a15.538,15.538,0,0,1,1.638-.27l1.224-.144a10.5,10.5,0,0,0,.684,2.358A19.12,19.12,0,0,1-11.16-1.062l-.09-2.07c-.864.324-.954.36-1.8.648V-4.608h.324a6.228,6.228,0,0,1,1.1.054v-2.16a4.109,4.109,0,0,1-1.1.09h-.324V-8.568a13.607,13.607,0,0,1,1.368.054,13.367,13.367,0,0,1-.054-1.818V-12.87c0-.774.018-1.206.072-1.818a12.617,12.617,0,0,1-1.674.072h-2.61a14.677,14.677,0,0,1-1.674-.072c.036.738.054,1.08.054,1.818v2.538c0,.756-.018,1.152-.054,1.836a12.986,12.986,0,0,1,1.494-.072h.99Zm-.324-10.71h1.746v1.944h-1.746ZM7.632-.648A8.27,8.27,0,0,1,8.766.99a9.427,9.427,0,0,0,3.24-3.24c-.018.576-.018.684-.018,1.224v.918A8.688,8.688,0,0,1,11.88,1.53h2.268A10.857,10.857,0,0,1,14.04-.144v-.918c0-.486,0-.648-.036-1.242a12.517,12.517,0,0,0,3.4,3.33,10.774,10.774,0,0,1,1.17-2.214,8.613,8.613,0,0,1-3.618-2.97h1.566a10.768,10.768,0,0,1,1.728.09v-2.25a10.086,10.086,0,0,1-1.836.108H14.022v-.954h1.962a15.652,15.652,0,0,1,1.746.072,15.1,15.1,0,0,1-.072-1.728v-4.23a13.757,13.757,0,0,1,.072-1.728,14.9,14.9,0,0,1-1.512.054H10.08c-.774,0-1.224-.018-1.674-.054A12.444,12.444,0,0,1,8.478-13.1v4.356a13.377,13.377,0,0,1-.072,1.656,13.1,13.1,0,0,1,1.62-.072h1.962v.954H9.846a9.84,9.84,0,0,1-1.854-.108v2.25a10.768,10.768,0,0,1,1.728-.09h1.35A8.907,8.907,0,0,1,7.632-1.08V-3.06a11.285,11.285,0,0,1,.036-1.26,9.243,9.243,0,0,1-1.152.054H3.438A8.7,8.7,0,0,1,2.07-4.32a10.651,10.651,0,0,1,.072,1.368V-.18c0,.558-.036,1.206-.09,1.746H4.23V.774h1.4v.54H7.686C7.65.9,7.65.9,7.632.144ZM12.006-12.87v1.08H10.494v-1.08Zm2,0h1.638v1.08H14Zm-2,2.808v1.116H10.494v-1.116Zm2,0H15.66v1.116H14ZM4.176-2.538H5.652V-1.08H4.176Zm-2.052-10.3c.45-.036.846-.054,1.53-.054h2.43c.7,0,1.026.018,1.53.054V-14.76a11.04,11.04,0,0,1-1.53.072H3.654a10.875,10.875,0,0,1-1.53-.072ZM1.548-10.1a10.878,10.878,0,0,1,1.458-.072H6.462a8.839,8.839,0,0,1,1.386.054v-2.106a9.9,9.9,0,0,1-1.458.072H3.006a8.025,8.025,0,0,1-1.458-.09ZM2.142-7.56a6.017,6.017,0,0,1,1.1-.054H6.5A8.236,8.236,0,0,1,7.56-7.56V-9.414A5.29,5.29,0,0,1,6.5-9.36H3.24a6.122,6.122,0,0,1-1.1-.054ZM2.142-5a8.549,8.549,0,0,1,1.08-.054h3.24A8.1,8.1,0,0,1,7.56-5V-6.858A5.5,5.5,0,0,1,6.48-6.8H3.24a6.122,6.122,0,0,1-1.1-.054ZM25.02-2.5a5.005,5.005,0,0,1-.81-.918c.054-.648.072-.936.09-1.314a3.006,3.006,0,0,1,.036-.594L22.32-5.616c.018.216.036.342.036.486a12.509,12.509,0,0,1-.234,2.43,7.006,7.006,0,0,1-1.08,2.646,6.429,6.429,0,0,1,1.71,1.512,9.344,9.344,0,0,0,1.08-2.664A5.975,5.975,0,0,0,26.91.81a26.591,26.591,0,0,0,6.3.45c1.044,0,4.068-.054,4.59-.09a8.751,8.751,0,0,1,.612-2.358c-.414.036-.558.054-.918.09a7.4,7.4,0,0,1,.846-1.1A7.5,7.5,0,0,1,35.8-3.528h.126c.7,0,1.026.018,1.458.054a16.082,16.082,0,0,1-.072-1.692v-5.166c0-.666.018-1.08.054-1.476a14.152,14.152,0,0,1-1.458.054H34.524c.162-.342.306-.684.414-.972h1.35a16.561,16.561,0,0,1,1.746.09v-2.07a12.274,12.274,0,0,1-1.98.108H31.662a14.909,14.909,0,0,1-1.98-.09v2.034a17.544,17.544,0,0,1,1.764-.072H32.76a10.143,10.143,0,0,1-.4.972H31.68a10.214,10.214,0,0,1-1.476-.054c.036.468.054.864.054,1.458v5.436c0,.558-.018,1.026-.054,1.44a11.5,11.5,0,0,1,1.224-.054A6.357,6.357,0,0,1,28.854-2a7.517,7.517,0,0,1,.972,1.044,11.406,11.406,0,0,1-2.682-.36V-2.97h.828A10.541,10.541,0,0,1,29.43-2.9V-4.932c-.432.036-.846.054-1.44.054h-.846V-6.084h.99a12.516,12.516,0,0,1,1.638.072V-8.118a7.955,7.955,0,0,1-1.422.09H23.13a9.988,9.988,0,0,1-1.71-.09v2.106a13.073,13.073,0,0,1,1.71-.072h1.89Zm7.056-1.026H35.01l-1.134.792a8.746,8.746,0,0,0,2.2,1.746c-1.458.054-2.754.09-3.69.09H31.3a7.966,7.966,0,0,0,2.07-1.818Zm.252-6.624h2.916v.684H32.328Zm0,2.16h2.916v.684H32.328Zm0,2.124h2.916v.7H32.328ZM22.248-10.08c0,.828-.018,1.044-.054,1.53.468-.036.936-.054,1.548-.054H27.63c.594,0,1.062.018,1.548.054a14.416,14.416,0,0,1-.054-1.512v-3.114c0-.81.018-1.08.054-1.53a14.874,14.874,0,0,1-1.584.054H23.742a14.935,14.935,0,0,1-1.566-.054,11.9,11.9,0,0,1,.072,1.53Zm2.106-2.952h2.7v.72h-2.7Zm0,2.16h2.7v.756h-2.7Z" transform="translate(486 1284)"></path><path id="&#x30D1;&#x30B9;_27126" data-name="&#x30D1;&#x30B9; 27126" d="M-21.474-14.04a13.084,13.084,0,0,1-2.106.108h-4.068c.162-.324.2-.4.54-1.062l-2.214-.4a8.444,8.444,0,0,1-2.3,3.636c.018-.342.036-.486.054-.72h-2.106c.36-.936.36-.936.522-1.44.18-.486.216-.594.306-.792l-2.43-.612a14.222,14.222,0,0,1-3.258,6.876A11.859,11.859,0,0,1-37.6-5.814,7.857,7.857,0,0,0-36.576-7.38c-.036.792-.036,1.1-.036,1.908V-.558a19.711,19.711,0,0,1-.108,2.124h2.358a19.816,19.816,0,0,1-.09-2.142V-10.6c.414-1.008.666-1.584.72-1.746a15.709,15.709,0,0,1,.054,1.62v7.7a9.828,9.828,0,0,1-.108,1.872h2.232a13.069,13.069,0,0,1-.072-1.818v-8.1A5.047,5.047,0,0,1-30.51-9.954a5.885,5.885,0,0,0,.756-.774A9.968,9.968,0,0,0-28.548-9.27a11.788,11.788,0,0,1-3.024.882,6.551,6.551,0,0,1,.9,1.944,14.184,14.184,0,0,0,3.816-1.494,15.486,15.486,0,0,0,4.95,1.944,8.977,8.977,0,0,1,.846-2.25A12.652,12.652,0,0,1-24.966-9.27,9.72,9.72,0,0,0-22.914-11.9a11.47,11.47,0,0,1,1.44.072ZM-25.38-11.9a5.569,5.569,0,0,1-1.368,1.566A7.352,7.352,0,0,1-28.242-11.9Zm-1.638,4.536a9.342,9.342,0,0,1-4.5,1.872,6.819,6.819,0,0,1,.99,1.566A13.365,13.365,0,0,0-26.01-5.9c.36-.252.36-.252.522-.36Zm1.944,1.368a4.957,4.957,0,0,1-1.4,1.188,14.048,14.048,0,0,1-4.878,1.782A6.445,6.445,0,0,1-30.33-1.35a14.641,14.641,0,0,0,5.166-2.178c.468-.306,1.116-.81,1.8-1.35Zm2.034,1.53a7.392,7.392,0,0,1-2.034,1.818,16.649,16.649,0,0,1-7,2.376,8.1,8.1,0,0,1,1.1,1.926c4.122-.846,6.462-1.962,9-4.266.306-.27.45-.414.684-.594Zm16.956-7.668a14.339,14.339,0,0,1-3.132,2.34h-1.836a13.446,13.446,0,0,1,.09,1.818V-1.53c0,.342-.2.432-.846.432a20.575,20.575,0,0,1-2.772-.234,10.553,10.553,0,0,1,.63,2.52c1.422.072,1.89.09,2.484.09,2.25,0,2.988-.486,2.988-1.944V-7.6A27.8,27.8,0,0,0-5.436-9.738a28.788,28.788,0,0,0,2.7-2.412c.27-.27.45-.45.756-.72l-1.476-1.674a13.519,13.519,0,0,1-2.052.108H-14.6a23.286,23.286,0,0,1-2.574-.108v2.52c.828-.072,1.512-.108,2.574-.108ZM7.632-.648A8.27,8.27,0,0,1,8.766.99a9.427,9.427,0,0,0,3.24-3.24c-.018.576-.018.684-.018,1.224v.918A8.688,8.688,0,0,1,11.88,1.53h2.268A10.857,10.857,0,0,1,14.04-.144v-.918c0-.486,0-.648-.036-1.242a12.517,12.517,0,0,0,3.4,3.33,10.774,10.774,0,0,1,1.17-2.214,8.613,8.613,0,0,1-3.618-2.97h1.566a10.768,10.768,0,0,1,1.728.09v-2.25a10.086,10.086,0,0,1-1.836.108H14.022v-.954h1.962a15.652,15.652,0,0,1,1.746.072,15.1,15.1,0,0,1-.072-1.728v-4.23a13.757,13.757,0,0,1,.072-1.728,14.9,14.9,0,0,1-1.512.054H10.08c-.774,0-1.224-.018-1.674-.054A12.444,12.444,0,0,1,8.478-13.1v4.356a13.377,13.377,0,0,1-.072,1.656,13.1,13.1,0,0,1,1.62-.072h1.962v.954H9.846a9.84,9.84,0,0,1-1.854-.108v2.25a10.768,10.768,0,0,1,1.728-.09h1.35A8.907,8.907,0,0,1,7.632-1.08V-3.06a11.285,11.285,0,0,1,.036-1.26,9.243,9.243,0,0,1-1.152.054H3.438A8.7,8.7,0,0,1,2.07-4.32a10.651,10.651,0,0,1,.072,1.368V-.18c0,.558-.036,1.206-.09,1.746H4.23V.774h1.4v.54H7.686C7.65.9,7.65.9,7.632.144ZM12.006-12.87v1.08H10.494v-1.08Zm2,0h1.638v1.08H14Zm-2,2.808v1.116H10.494v-1.116Zm2,0H15.66v1.116H14ZM4.176-2.538H5.652V-1.08H4.176Zm-2.052-10.3c.45-.036.846-.054,1.53-.054h2.43c.7,0,1.026.018,1.53.054V-14.76a11.04,11.04,0,0,1-1.53.072H3.654a10.875,10.875,0,0,1-1.53-.072ZM1.548-10.1a10.878,10.878,0,0,1,1.458-.072H6.462a8.839,8.839,0,0,1,1.386.054v-2.106a9.9,9.9,0,0,1-1.458.072H3.006a8.025,8.025,0,0,1-1.458-.09ZM2.142-7.56a6.017,6.017,0,0,1,1.1-.054H6.5A8.236,8.236,0,0,1,7.56-7.56V-9.414A5.29,5.29,0,0,1,6.5-9.36H3.24a6.122,6.122,0,0,1-1.1-.054ZM2.142-5a8.549,8.549,0,0,1,1.08-.054h3.24A8.1,8.1,0,0,1,7.56-5V-6.858A5.5,5.5,0,0,1,6.48-6.8H3.24a6.122,6.122,0,0,1-1.1-.054ZM25.02-2.5a5.005,5.005,0,0,1-.81-.918c.054-.648.072-.936.09-1.314a3.006,3.006,0,0,1,.036-.594L22.32-5.616c.018.216.036.342.036.486a12.509,12.509,0,0,1-.234,2.43,7.006,7.006,0,0,1-1.08,2.646,6.429,6.429,0,0,1,1.71,1.512,9.344,9.344,0,0,0,1.08-2.664A5.975,5.975,0,0,0,26.91.81a26.591,26.591,0,0,0,6.3.45c1.044,0,4.068-.054,4.59-.09a8.751,8.751,0,0,1,.612-2.358c-.414.036-.558.054-.918.09a7.4,7.4,0,0,1,.846-1.1A7.5,7.5,0,0,1,35.8-3.528h.126c.7,0,1.026.018,1.458.054a16.082,16.082,0,0,1-.072-1.692v-5.166c0-.666.018-1.08.054-1.476a14.152,14.152,0,0,1-1.458.054H34.524c.162-.342.306-.684.414-.972h1.35a16.561,16.561,0,0,1,1.746.09v-2.07a12.274,12.274,0,0,1-1.98.108H31.662a14.909,14.909,0,0,1-1.98-.09v2.034a17.544,17.544,0,0,1,1.764-.072H32.76a10.143,10.143,0,0,1-.4.972H31.68a10.214,10.214,0,0,1-1.476-.054c.036.468.054.864.054,1.458v5.436c0,.558-.018,1.026-.054,1.44a11.5,11.5,0,0,1,1.224-.054A6.357,6.357,0,0,1,28.854-2a7.517,7.517,0,0,1,.972,1.044,11.406,11.406,0,0,1-2.682-.36V-2.97h.828A10.541,10.541,0,0,1,29.43-2.9V-4.932c-.432.036-.846.054-1.44.054h-.846V-6.084h.99a12.516,12.516,0,0,1,1.638.072V-8.118a7.955,7.955,0,0,1-1.422.09H23.13a9.988,9.988,0,0,1-1.71-.09v2.106a13.073,13.073,0,0,1,1.71-.072h1.89Zm7.056-1.026H35.01l-1.134.792a8.746,8.746,0,0,0,2.2,1.746c-1.458.054-2.754.09-3.69.09H31.3a7.966,7.966,0,0,0,2.07-1.818Zm.252-6.624h2.916v.684H32.328Zm0,2.16h2.916v.684H32.328Zm0,2.124h2.916v.7H32.328ZM22.248-10.08c0,.828-.018,1.044-.054,1.53.468-.036.936-.054,1.548-.054H27.63c.594,0,1.062.018,1.548.054a14.416,14.416,0,0,1-.054-1.512v-3.114c0-.81.018-1.08.054-1.53a14.874,14.874,0,0,1-1.584.054H23.742a14.935,14.935,0,0,1-1.566-.054,11.9,11.9,0,0,1,.072,1.53Zm2.106-2.952h2.7v.72h-2.7Zm0,2.16h2.7v.756h-2.7Z" transform="translate(661 1284)"></path><g id="certificate" transform="translate(628 1167)"><path id="&#x30D1;&#x30B9;_27114" data-name="&#x30D1;&#x30B9; 27114" d="M61.065,6H4.188A2.188,2.188,0,0,0,2,8.188v35a2.188,2.188,0,0,0,2.188,2.188h35V56.314a2.188,2.188,0,0,0,3.631,1.641l2.931-2.6,2.931,2.6a2.189,2.189,0,0,0,3.631-1.641V45.377h8.75a2.188,2.188,0,0,0,2.188-2.188v-35A2.188,2.188,0,0,0,61.065,6ZM47.939,51.436,47.2,50.8a2.188,2.188,0,0,0-2.888,0l-.744.634V40.7a7.963,7.963,0,0,0,4.375,0Zm-2.188-14.81a4.375,4.375,0,1,1,4.375-4.375A4.375,4.375,0,0,1,45.752,36.626ZM58.877,41H52.314V38.814a2.341,2.341,0,0,0-.131-.678,8.75,8.75,0,1,0-12.863,0,2.341,2.341,0,0,0-.131.678V41H6.375V10.375h52.5Z" transform="translate(0 0)" fill="#231f20"></path><path id="&#x30D1;&#x30B9;_27115" data-name="&#x30D1;&#x30B9; 27115" d="M8.188,14.375H30.063a2.188,2.188,0,1,0,0-4.375H8.188a2.188,2.188,0,1,0,0,4.375Z" transform="translate(4.75 4.75)" fill="#231f20"></path><path id="&#x30D1;&#x30B9;_27116" data-name="&#x30D1;&#x30B9; 27116" d="M8.188,17.375H21.313a2.188,2.188,0,1,0,0-4.375H8.188a2.188,2.188,0,0,0,0,4.375Z" transform="translate(4.75 8.313)" fill="#231f20"></path><path id="&#x30D1;&#x30B9;_27117" data-name="&#x30D1;&#x30B9; 27117" d="M8.188,20.375H21.313a2.188,2.188,0,1,0,0-4.375H8.188a2.188,2.188,0,0,0,0,4.375Z" transform="translate(4.75 11.876)" fill="#231f20"></path></g><g id="video-call" transform="translate(278.358 1171.337)"><path id="&#x30D1;&#x30B9;_27118" data-name="&#x30D1;&#x30B9; 27118" d="M53.115,35.317h2.993a3.725,3.725,0,0,0,2.777-1.163c1.787-1.959,1.292-5.576.71-9.753a33.414,33.414,0,0,1-.431-4.306c0-9.43-6.459-17.116-14.382-17.116H43.406a12.616,12.616,0,0,0-6.954,2.2H4.158A2.153,2.153,0,0,0,2,7.329V31.011a2.648,2.648,0,0,0,0,.431,2.153,2.153,0,0,0,.388.861l.194.237,6.33,8.375a2.153,2.153,0,0,0,1.7.861H27.84A15.91,15.91,0,0,0,25.687,49.7V59a2.153,2.153,0,0,0,2.153,2.153H60.134A2.153,2.153,0,0,0,62.287,59V49.7A15.673,15.673,0,0,0,53.115,35.317ZM42.652,37.47h0a15.415,15.415,0,0,0-1.895-2.153h6.954a3.9,3.9,0,0,0-.5.388,18.838,18.838,0,0,0-1.765,1.852,7.642,7.642,0,0,1-1.658.108,11.2,11.2,0,0,1-1.141-.194ZM44.805,7.329c5.425,0,9.839,5.748,9.839,12.81a35.934,35.934,0,0,0,.474,4.823,26.61,26.61,0,0,1,.431,6.05H32.4a9.666,9.666,0,0,1,0-2.153c.108-1.206.344-2.584.5-3.531a36.6,36.6,0,0,0,.689-5.081,14.919,14.919,0,0,1,.431-3.7,12.918,12.918,0,0,1,4.2-7.126l.388-.409h0a8.117,8.117,0,0,1,4.8-1.679ZM46.614,31.14ZM6.311,9.482H32.146a19.183,19.183,0,0,0-3.1,10.765,32.058,32.058,0,0,1-.56,4.521c-.237,1.507-.474,2.906-.581,4.2h0a6.459,6.459,0,0,0-6.459-6.459H19.228a6.459,6.459,0,0,0-6.459,6.459H6.311ZM8.464,33.164H28.335a2.885,2.885,0,0,0,.624.969,3.638,3.638,0,0,0,2.756,1.184h3.229a13.736,13.736,0,0,0-3.423,2.045l-.108.108h-19.7ZM57.981,56.846H29.993v-7.1A11.454,11.454,0,0,1,33.2,41.776a10.528,10.528,0,0,1,3.466-2.433,7.472,7.472,0,0,1,1.313-.5,14.4,14.4,0,0,1,.99,1.141,4.091,4.091,0,0,0,.581.8,2.605,2.605,0,0,0,1.227.71,3.876,3.876,0,0,0,.754.258h0a9.452,9.452,0,0,0,2.153.323,9.15,9.15,0,0,0,3.4-.3A2.3,2.3,0,0,0,48.4,41.13a4.564,4.564,0,0,0,.538-.667A15.479,15.479,0,0,1,50.381,39l1.141.431h0a11.3,11.3,0,0,1,6.459,10.4Z" transform="translate(0 0)" fill="#231f20"></path><circle id="&#x6955;&#x5186;&#x5F62;_776" data-name="&#x6955;&#x5186;&#x5F62; 776" cx="5.382" cy="5.382" r="5.382" transform="translate(14.922 11.635)" fill="#231f20"></circle></g><g id="e-learning" transform="translate(456 1173)"><path id="&#x30D1;&#x30B9;_27119" data-name="&#x30D1;&#x30B9; 27119" d="M51.938,5H7.155A5.175,5.175,0,0,0,2,10.155V43.132a5.175,5.175,0,0,0,5.155,5.155H51.938a5.175,5.175,0,0,0,5.155-5.155V10.155A5.175,5.175,0,0,0,51.938,5ZM7.155,8.935H51.938a1.22,1.22,0,0,1,1.22,1.22v4.683H5.935V10.155A1.22,1.22,0,0,1,7.155,8.935ZM51.938,44.352H7.155a1.22,1.22,0,0,1-1.22-1.22V18.773H53.157V43.132A1.22,1.22,0,0,1,51.938,44.352Z" fill="#231f20"></path><path id="&#x30D1;&#x30B9;_27120" data-name="&#x30D1;&#x30B9; 27120" d="M12.968,11.435a1.968,1.968,0,1,0,0-3.935h0a1.968,1.968,0,1,0,0,3.935Z" transform="translate(8.708 2.419)" fill="#231f20"></path><path id="&#x30D1;&#x30B9;_27121" data-name="&#x30D1;&#x30B9; 27121" d="M9.968,11.435a1.968,1.968,0,1,0,0-3.935h0a1.968,1.968,0,1,0,0,3.935Z" transform="translate(5.806 2.419)" fill="#231f20"></path><path id="&#x30D1;&#x30B9;_27122" data-name="&#x30D1;&#x30B9; 27122" d="M6.968,11.435a1.968,1.968,0,1,0,0-3.935h0a1.968,1.968,0,1,0,0,3.935Z" transform="translate(2.903 2.419)" fill="#231f20"></path><rect id="&#x9577;&#x65B9;&#x5F62;_4905" data-name="&#x9577;&#x65B9;&#x5F62; 4905" width="5.978" height="5.978" rx="1" transform="translate(7.978 20.542)" fill="#231f20"></rect><rect id="&#x9577;&#x65B9;&#x5F62;_4906" data-name="&#x9577;&#x65B9;&#x5F62; 4906" width="5.978" height="5.978" rx="1" transform="translate(7.978 28.91)" fill="#231f20"></rect><rect id="&#x9577;&#x65B9;&#x5F62;_4907" data-name="&#x9577;&#x65B9;&#x5F62; 4907" width="5.978" height="5.978" rx="1" transform="translate(7.978 36.083)" fill="#231f20"></rect><rect id="&#x9577;&#x65B9;&#x5F62;_4908" data-name="&#x9577;&#x65B9;&#x5F62; 4908" width="16.737" height="5.978" rx="1" transform="translate(16.346 20.542)" fill="#231f20"></rect><rect id="&#x9577;&#x65B9;&#x5F62;_4909" data-name="&#x9577;&#x65B9;&#x5F62; 4909" width="16.737" height="5.978" rx="1" transform="translate(16.346 28.91)" fill="#231f20"></rect><rect id="&#x9577;&#x65B9;&#x5F62;_4910" data-name="&#x9577;&#x65B9;&#x5F62; 4910" width="16.737" height="5.978" rx="1" transform="translate(16.346 36.083)" fill="#231f20"></rect><path id="&#x30D1;&#x30B9;_27123" data-name="&#x30D1;&#x30B9; 27123" d="M32.773,13H20.968A1.968,1.968,0,0,0,19,14.968V32.676a1.968,1.968,0,0,0,1.968,1.968H32.773a1.968,1.968,0,0,0,1.968-1.968V14.968A1.968,1.968,0,0,0,32.773,13ZM30.806,30.708h-7.87V16.935h7.87Z" transform="translate(16.449 7.741)" fill="#231f20"></path></g></g></svg>