<svg xmlns="http://www.w3.org/2000/svg" xmlns:xlink="http://www.w3.org/1999/xlink" width="269.252" height="232.5" viewBox="0 0 269.252 232.5"><defs><linearGradient id="linear-gradient" y1="0.06" x2="1" y2="1" gradientUnits="objectBoundingBox"><stop offset="0" stop-color="#173c98"></stop><stop offset="0.954" stop-color="#3881ca"></stop><stop offset="1" stop-color="#3a84cc"></stop></linearGradient><linearGradient id="linear-gradient-2" x1="0.5" x2="0.5" y2="1" gradientUnits="objectBoundingBox"><stop offset="0" stop-color="#173c98"></stop><stop offset="1" stop-color="#3a84cc"></stop></linearGradient></defs><g id="&#x30B0;&#x30EB;&#x30FC;&#x30D7;_18265" data-name="&#x30B0;&#x30EB;&#x30FC;&#x30D7; 18265" transform="translate(-4694.351 -8867.748)"><g id="&#x30B0;&#x30EB;&#x30FC;&#x30D7;_18262" data-name="&#x30B0;&#x30EB;&#x30FC;&#x30D7; 18262" transform="translate(4338.477 5956.997)"><g id="&#x30B0;&#x30EB;&#x30FC;&#x30D7;_9019" data-name="&#x30B0;&#x30EB;&#x30FC;&#x30D7; 9019" transform="translate(355.874 2938.999)"><g id="&#x30B0;&#x30EB;&#x30FC;&#x30D7;_9011" data-name="&#x30B0;&#x30EB;&#x30FC;&#x30D7; 9011"><g id="&#x30B0;&#x30EB;&#x30FC;&#x30D7;_9007" data-name="&#x30B0;&#x30EB;&#x30FC;&#x30D7; 9007"><g id="&#x30B0;&#x30EB;&#x30FC;&#x30D7;_9006" data-name="&#x30B0;&#x30EB;&#x30FC;&#x30D7; 9006"><line id="&#x7DDA;_46" data-name="&#x7DDA; 46" x2="269.252" transform="translate(0 172.5)" fill="none" stroke="#c8c6c6" stroke-width="3"></line><g id="&#x30B0;&#x30EB;&#x30FC;&#x30D7;_9005" data-name="&#x30B0;&#x30EB;&#x30FC;&#x30D7; 9005" transform="translate(17.374)"><path id="&#x9577;&#x65B9;&#x5F62;_4565" data-name="&#x9577;&#x65B9;&#x5F62; 4565" d="M5,0h96a5,5,0,0,1,5,5V171a0,0,0,0,1,0,0H0a0,0,0,0,1,0,0V5A5,5,0,0,1,5,0Z" fill="#c8c6c6"></path><path id="&#x9577;&#x65B9;&#x5F62;_4566" data-name="&#x9577;&#x65B9;&#x5F62; 4566" d="M5,0h96a5,5,0,0,1,5,5V45a0,0,0,0,1,0,0H0a0,0,0,0,1,0,0V5A5,5,0,0,1,5,0Z" transform="translate(126 126)" fill="url(#linear-gradient)"></path></g></g></g></g></g></g><path id="&#x30D1;&#x30B9;_24896" data-name="&#x30D1;&#x30B9; 24896" d="M-23.184.336c-.192-.4-.48-1.1-.784-1.92l-3.52-9.424a10.833,10.833,0,0,1-.544-1.664h-3.44a12.284,12.284,0,0,1-.512,1.664l-3.488,9.424a14.872,14.872,0,0,1-.816,1.92h3.168a7.989,7.989,0,0,1,.432-1.7l.544-1.552h4.832l.544,1.552a11.443,11.443,0,0,1,.416,1.7Zm-4.8-5.5h-3.488l1.5-4.528c.112-.32.128-.4.224-.736.128.432.192.592.24.736Zm7.616-7.5a13.359,13.359,0,0,1,.128,2.208v8.592A13.733,13.733,0,0,1-20.368.336h2.944a13.482,13.482,0,0,1-.128-2.208v-8.592a13.236,13.236,0,0,1,.128-2.208ZM-6.032-7.088v1.776H-8.16c-.592,0-.928-.016-1.312-.048.032.4.048.864.048,1.36V-.336c0,.56-.032,1.264-.064,1.7h2.08V.624h4.96V1.36h2.16A16.177,16.177,0,0,1-.368-.32V-3.936A12.388,12.388,0,0,1-.3-5.36a12.58,12.58,0,0,1-1.3.048H-3.92V-7.088h2.608a13.825,13.825,0,0,1,1.84.1V-9.12a13.992,13.992,0,0,1-1.84.1H-3.92V-10.9c.912-.144,2.64-.448,3.184-.592.56-.128.56-.128.864-.208l-1.376-1.888c-1.472.7-5.072,1.264-8.624,1.344a5.613,5.613,0,0,1,.7,1.856c1.344-.064,1.856-.112,3.136-.256v1.616H-8.3a14.235,14.235,0,0,1-1.824-.1v2.128a15.613,15.613,0,0,1,1.84-.1Zm-1.36,3.632h4.96V-1.28h-4.96Zm-6.528-8.528A18.865,18.865,0,0,1-11.008-9.76l1.248-1.648a20.272,20.272,0,0,0-2.88-2.08Zm-.464,4.128a17.978,17.978,0,0,1,3.008,2.064l1.152-1.76a18.73,18.73,0,0,0-2.992-1.872Zm2.464,2.784a15.881,15.881,0,0,1-2.416,4.8l1.84,1.488A27.4,27.4,0,0,0-10.24-3.9ZM12.048-3.52h3.424v2.4c0,.32-.128.384-.752.384-.48,0-1.168-.048-1.9-.112A7.012,7.012,0,0,1,13.36,1.12c.5.032,1.3.064,1.744.064,1.9,0,2.448-.4,2.448-1.808V-11.1a19.181,19.181,0,0,1,.064-1.92,18.977,18.977,0,0,1-1.92.064H6.56c-.864,0-1.28-.016-1.872-.064a19.163,19.163,0,0,1,.08,2.112c0,7.1-.24,8.784-1.552,10.816A12.993,12.993,0,0,1,5.072,1.44,11.138,11.138,0,0,0,6.64-3.52h3.376v2.464A13.924,13.924,0,0,1,9.92.9h2.208a15.154,15.154,0,0,1-.08-1.968Zm0-5.648v-1.824h3.424v1.824Zm-2.032,0H6.848v-1.824h3.168ZM12.048-7.3h3.424v1.888H12.048Zm-2.032,0v1.888H6.768c.032-.848.048-1.2.048-1.888Zm13.008-4.3a11.286,11.286,0,0,1-1.76-.1v2.032a13.106,13.106,0,0,1,1.76-.08H33.872a12.537,12.537,0,0,1,1.76.08V-11.7a12.518,12.518,0,0,1-1.76.1h-2.08a13.018,13.018,0,0,0,1.072-1.52l-2.192-.544A7.393,7.393,0,0,1,29.456-11.6h-2.08a14.036,14.036,0,0,0-1.312-2.08l-2.112.544A7.87,7.87,0,0,1,25.04-11.6Zm1.008,9.648h2.32v.976c0,.352-.064.432-.384.432a6.267,6.267,0,0,1-1.1-.1,6.792,6.792,0,0,1,.448,1.808c.544.032.784.032.912.032,1.7,0,2.1-.32,2.1-1.712V-7.424c0-.816.016-1.168.048-1.552a13.432,13.432,0,0,1-1.408.048H23.472c-.608,0-1.024-.016-1.488-.048a10.248,10.248,0,0,1,.064,1.44V-.56a12.737,12.737,0,0,1-.1,1.872h2.16a12.587,12.587,0,0,1-.08-1.728Zm0-1.68v-.944h2.32v.944Zm0-2.624v-.912h2.32v.912ZM29.52-8.672a13.476,13.476,0,0,1,.064,1.52v3.536a14.81,14.81,0,0,1-.064,1.68h2.128a14.242,14.242,0,0,1-.064-1.7v-3.5a12.727,12.727,0,0,1,.064-1.536Zm3.216-.416a10.447,10.447,0,0,1,.08,1.632v6.32c0,.416-.1.48-.736.48A17,17,0,0,1,30.192-.8a7.567,7.567,0,0,1,.576,1.984c1.216.048,1.312.048,1.776.048,1.072,0,1.584-.128,1.936-.512.272-.272.368-.7.368-1.488v-6.64a11.966,11.966,0,0,1,.08-1.68Z" transform="translate(4764.725 9097.996)" fill="#c8c6c6"></path><path id="&#x30D1;&#x30B9;_24895" data-name="&#x30D1;&#x30B9; 24895" d="M-19.356-.468a9.517,9.517,0,0,1-.072,1.524h1.692A10.949,10.949,0,0,1-17.808-.48V-1.644h1.836c.468,0,.828.024,1.26.06V-3.1a9.734,9.734,0,0,1-1.26.06h-1.836V-4.368h1.824c.456,0,.828.024,1.26.06v-1.5a12.057,12.057,0,0,1-1.248.06h-1.836V-7.08h2.124a11.089,11.089,0,0,1,1.392.072V-8.544a9.844,9.844,0,0,1-1.392.072H-18.7c.072-.18.108-.288.264-.72.084-.24.132-.348.252-.648l-1.632-.42A7.327,7.327,0,0,1-20.376-8.5a8.531,8.531,0,0,1-1.956,2.94,6.1,6.1,0,0,1,.984,1.4,13.735,13.735,0,0,0,1.992-2.916Zm-3.552-9.84a6.516,6.516,0,0,1-.492,1.56,8.914,8.914,0,0,1-2.184,3.192A6.209,6.209,0,0,1-24.9-3.792a8.6,8.6,0,0,0,1-1.164c-.012.768-.024,1.2-.024,1.308V-.492A13.194,13.194,0,0,1-24,1.008h1.668A14.2,14.2,0,0,1-22.4-.5V-7.188a18.985,18.985,0,0,0,.816-1.92c.12-.348.144-.4.264-.684Zm15.48,5.064v.468H-9.84a8.06,8.06,0,0,1-1.2-.06v1.212a11.149,11.149,0,0,1,1.2-.048h2.412v.456h-3.084A11.724,11.724,0,0,1-12-3.288v1.344a13.961,13.961,0,0,1,1.5-.072h1.992A8.525,8.525,0,0,1-12.276-.48,5.194,5.194,0,0,1-11.436.9,11.064,11.064,0,0,0-9.1-.072a7.076,7.076,0,0,0,1.7-1.272c-.024.432-.024.468-.024.756v.48a8.831,8.831,0,0,1-.072,1.2H-5.88a8.119,8.119,0,0,1-.072-1.2V-.6c0-.3,0-.36-.024-.768A9.115,9.115,0,0,0-1.7.9,5.662,5.662,0,0,1-.912-.54,8.449,8.449,0,0,1-4.836-2.016h2.172a13.812,13.812,0,0,1,1.476.072V-3.288a11.214,11.214,0,0,1-1.488.072H-5.94v-.456h2.556a11.149,11.149,0,0,1,1.2.048V-4.836a8.462,8.462,0,0,1-1.2.06H-5.94v-.468h3.12a11.586,11.586,0,0,1,1.2.048V-6.468a10.594,10.594,0,0,1-1.2.048H-4.068c.12-.228.132-.252.348-.708h1.1c.588,0,1.092.024,1.464.06V-8.46a10.245,10.245,0,0,1-1.38.072H-2.7a9.843,9.843,0,0,0,.672-1.068L-3.48-9.972A6.643,6.643,0,0,1-4.3-8.388H-4.86V-9.2a5.945,5.945,0,0,1,.06-.912H-6.348a5.364,5.364,0,0,1,.048.84v.888h-.708v-.888a7.545,7.545,0,0,1,.036-.84H-8.508a6.307,6.307,0,0,1,.06.912v.816h-.528a7.979,7.979,0,0,0-.852-1.56l-1.44.516a4.938,4.938,0,0,1,.732,1.044h-.18a10.419,10.419,0,0,1-1.368-.072v1.392c.372-.036.864-.06,1.44-.06h1.188a6.145,6.145,0,0,1,.36.708h-1.32A10.36,10.36,0,0,1-11.6-6.468V-5.2a11.34,11.34,0,0,1,1.188-.048ZM-7.536-6.42c-.108-.3-.168-.432-.288-.708h2.448a6.773,6.773,0,0,1-.312.708ZM6.972-2.976,5.76-2.208A8.394,8.394,0,0,1,7.248-.24L8.5-1.212A8.682,8.682,0,0,0,7-2.976H9.42V-.732c0,.252-.1.312-.444.312a9.112,9.112,0,0,1-1.356-.1A3.817,3.817,0,0,1,7.968.96c.42.012.732.024.84.024A3.176,3.176,0,0,0,10.44.708c.336-.192.456-.492.456-1.14V-2.976a8.4,8.4,0,0,1,1.236.06V-4.44a7.273,7.273,0,0,1-1.236.06v-.84H11a7.708,7.708,0,0,1,1.176.06V-6.648a12.056,12.056,0,0,1-1.344.06H9.4v-.948h1.152a11.662,11.662,0,0,1,1.26.048V-8.976a9.414,9.414,0,0,1-1.284.072H9.4v-.288a3.631,3.631,0,0,1,.084-.864H7.836a6.414,6.414,0,0,1,.06.876V-8.9H6.984A9.293,9.293,0,0,1,5.7-8.976v1.488c.156-.012.6-.024,1.344-.048H7.9v.948H6.828a12.4,12.4,0,0,1-1.368-.06V-5.16c.372-.036.852-.06,1.344-.06H9.42v.84H6.8A8.964,8.964,0,0,1,5.46-4.44v1.524c.408-.036.888-.06,1.308-.06Zm-5.508,1.8a11.807,11.807,0,0,1-.072,1.5H2.88V-.7h.876v.6H5.2C5.172-.42,5.172-.66,5.172-1.32V-8.352c0-.66,0-.9.024-1.176-.276.024-.492.036-1.02.036H2.448A7.446,7.446,0,0,1,1.416-9.54a12.442,12.442,0,0,1,.048,1.248Zm1.428-6.96h.876v2.292H2.892Zm0,3.636h.876v2.412H2.892Zm19.392.516c0-.456.012-.756.036-1.044-.372.024-.588.036-1.08.036h-2.9c-.48,0-.72-.012-1.08-.036.024.3.036.624.036,1.044v3.06c0,.468-.012.9-.048,1.248h1.44v-.6h2.532c.216,0,.324,0,.552.012A5.428,5.428,0,0,1,22.02.876C22.668.9,22.7.9,22.884.9A3.89,3.89,0,0,0,24.336.732c.432-.192.588-.552.588-1.356V-8.46c0-.6.012-.912.048-1.344a10.8,10.8,0,0,1-1.224.048H21.3A10.765,10.765,0,0,1,20.064-9.8c.024.384.036.684.036,1.1v2.016c0,.588,0,.708-.024,1.068.276-.012.672-.024,1.044-.024h2.3V-.852c0,.252-.084.3-.5.3-.156,0-.312-.012-.624-.036-.012-.24-.012-.42-.012-.684Zm-.756-4.668h1.9v.492h-1.9Zm0,1.464h1.9V-6.7h-1.9ZM18.684-3.8H20.9v.612h-2.22Zm0,1.74H20.9v.6h-2.22ZM16.2-5.64h2.136c.372,0,.768.012,1.044.024-.024-.276-.024-.48-.024-1.068V-8.7c0-.48.012-.756.036-1.1a9.886,9.886,0,0,1-1.224.048h-2.3A10.932,10.932,0,0,1,14.64-9.8a13.266,13.266,0,0,1,.048,1.356v7.9A11.518,11.518,0,0,1,14.616,1h1.656A11.309,11.309,0,0,1,16.2-.54Zm0-3.012h1.752v.492H16.2Zm0,1.464h1.752V-6.7H16.2Z" transform="translate(4764.725 8974.996)" fill="#fff"></path><path id="&#x30D1;&#x30B9;_24892" data-name="&#x30D1;&#x30B9; 24892" d="M-19.356-.468a9.517,9.517,0,0,1-.072,1.524h1.692A10.949,10.949,0,0,1-17.808-.48V-1.644h1.836c.468,0,.828.024,1.26.06V-3.1a9.734,9.734,0,0,1-1.26.06h-1.836V-4.368h1.824c.456,0,.828.024,1.26.06v-1.5a12.057,12.057,0,0,1-1.248.06h-1.836V-7.08h2.124a11.089,11.089,0,0,1,1.392.072V-8.544a9.844,9.844,0,0,1-1.392.072H-18.7c.072-.18.108-.288.264-.72.084-.24.132-.348.252-.648l-1.632-.42A7.327,7.327,0,0,1-20.376-8.5a8.531,8.531,0,0,1-1.956,2.94,6.1,6.1,0,0,1,.984,1.4,13.735,13.735,0,0,0,1.992-2.916Zm-3.552-9.84a6.516,6.516,0,0,1-.492,1.56,8.914,8.914,0,0,1-2.184,3.192A6.209,6.209,0,0,1-24.9-3.792a8.6,8.6,0,0,0,1-1.164c-.012.768-.024,1.2-.024,1.308V-.492A13.194,13.194,0,0,1-24,1.008h1.668A14.2,14.2,0,0,1-22.4-.5V-7.188a18.985,18.985,0,0,0,.816-1.92c.12-.348.144-.4.264-.684Zm15.48,5.064v.468H-9.84a8.06,8.06,0,0,1-1.2-.06v1.212a11.149,11.149,0,0,1,1.2-.048h2.412v.456h-3.084A11.724,11.724,0,0,1-12-3.288v1.344a13.961,13.961,0,0,1,1.5-.072h1.992A8.525,8.525,0,0,1-12.276-.48,5.194,5.194,0,0,1-11.436.9,11.064,11.064,0,0,0-9.1-.072a7.076,7.076,0,0,0,1.7-1.272c-.024.432-.024.468-.024.756v.48a8.831,8.831,0,0,1-.072,1.2H-5.88a8.119,8.119,0,0,1-.072-1.2V-.6c0-.3,0-.36-.024-.768A9.115,9.115,0,0,0-1.7.9,5.662,5.662,0,0,1-.912-.54,8.449,8.449,0,0,1-4.836-2.016h2.172a13.812,13.812,0,0,1,1.476.072V-3.288a11.214,11.214,0,0,1-1.488.072H-5.94v-.456h2.556a11.149,11.149,0,0,1,1.2.048V-4.836a8.462,8.462,0,0,1-1.2.06H-5.94v-.468h3.12a11.586,11.586,0,0,1,1.2.048V-6.468a10.594,10.594,0,0,1-1.2.048H-4.068c.12-.228.132-.252.348-.708h1.1c.588,0,1.092.024,1.464.06V-8.46a10.245,10.245,0,0,1-1.38.072H-2.7a9.843,9.843,0,0,0,.672-1.068L-3.48-9.972A6.643,6.643,0,0,1-4.3-8.388H-4.86V-9.2a5.945,5.945,0,0,1,.06-.912H-6.348a5.364,5.364,0,0,1,.048.84v.888h-.708v-.888a7.545,7.545,0,0,1,.036-.84H-8.508a6.307,6.307,0,0,1,.06.912v.816h-.528a7.979,7.979,0,0,0-.852-1.56l-1.44.516a4.938,4.938,0,0,1,.732,1.044h-.18a10.419,10.419,0,0,1-1.368-.072v1.392c.372-.036.864-.06,1.44-.06h1.188a6.145,6.145,0,0,1,.36.708h-1.32A10.36,10.36,0,0,1-11.6-6.468V-5.2a11.34,11.34,0,0,1,1.188-.048ZM-7.536-6.42c-.108-.3-.168-.432-.288-.708h2.448a6.773,6.773,0,0,1-.312.708ZM6.972-2.976,5.76-2.208A8.394,8.394,0,0,1,7.248-.24L8.5-1.212A8.682,8.682,0,0,0,7-2.976H9.42V-.732c0,.252-.1.312-.444.312a9.112,9.112,0,0,1-1.356-.1A3.817,3.817,0,0,1,7.968.96c.42.012.732.024.84.024A3.176,3.176,0,0,0,10.44.708c.336-.192.456-.492.456-1.14V-2.976a8.4,8.4,0,0,1,1.236.06V-4.44a7.273,7.273,0,0,1-1.236.06v-.84H11a7.708,7.708,0,0,1,1.176.06V-6.648a12.056,12.056,0,0,1-1.344.06H9.4v-.948h1.152a11.662,11.662,0,0,1,1.26.048V-8.976a9.414,9.414,0,0,1-1.284.072H9.4v-.288a3.631,3.631,0,0,1,.084-.864H7.836a6.414,6.414,0,0,1,.06.876V-8.9H6.984A9.293,9.293,0,0,1,5.7-8.976v1.488c.156-.012.6-.024,1.344-.048H7.9v.948H6.828a12.4,12.4,0,0,1-1.368-.06V-5.16c.372-.036.852-.06,1.344-.06H9.42v.84H6.8A8.964,8.964,0,0,1,5.46-4.44v1.524c.408-.036.888-.06,1.308-.06Zm-5.508,1.8a11.807,11.807,0,0,1-.072,1.5H2.88V-.7h.876v.6H5.2C5.172-.42,5.172-.66,5.172-1.32V-8.352c0-.66,0-.9.024-1.176-.276.024-.492.036-1.02.036H2.448A7.446,7.446,0,0,1,1.416-9.54a12.442,12.442,0,0,1,.048,1.248Zm1.428-6.96h.876v2.292H2.892Zm0,3.636h.876v2.412H2.892Zm19.392.516c0-.456.012-.756.036-1.044-.372.024-.588.036-1.08.036h-2.9c-.48,0-.72-.012-1.08-.036.024.3.036.624.036,1.044v3.06c0,.468-.012.9-.048,1.248h1.44v-.6h2.532c.216,0,.324,0,.552.012A5.428,5.428,0,0,1,22.02.876C22.668.9,22.7.9,22.884.9A3.89,3.89,0,0,0,24.336.732c.432-.192.588-.552.588-1.356V-8.46c0-.6.012-.912.048-1.344a10.8,10.8,0,0,1-1.224.048H21.3A10.765,10.765,0,0,1,20.064-9.8c.024.384.036.684.036,1.1v2.016c0,.588,0,.708-.024,1.068.276-.012.672-.024,1.044-.024h2.3V-.852c0,.252-.084.3-.5.3-.156,0-.312-.012-.624-.036-.012-.24-.012-.42-.012-.684Zm-.756-4.668h1.9v.492h-1.9Zm0,1.464h1.9V-6.7h-1.9ZM18.684-3.8H20.9v.612h-2.22Zm0,1.74H20.9v.6h-2.22ZM16.2-5.64h2.136c.372,0,.768.012,1.044.024-.024-.276-.024-.48-.024-1.068V-8.7c0-.48.012-.756.036-1.1a9.886,9.886,0,0,1-1.224.048h-2.3A10.932,10.932,0,0,1,14.64-9.8a13.266,13.266,0,0,1,.048,1.356v7.9A11.518,11.518,0,0,1,14.616,1h1.656A11.309,11.309,0,0,1,16.2-.54Zm0-3.012h1.752v.492H16.2Zm0,1.464h1.752V-6.7H16.2Z" transform="translate(4890.725 9040.996)" fill="#ffd214"></path><path id="&#x30D1;&#x30B9;_24894" data-name="&#x30D1;&#x30B9; 24894" d="M-33.046-3.672c.168-.024.288-.036.492-.06.828-.048.828-.048,1.38-.084V-.228a7.53,7.53,0,0,1-.072,1.308h1.56a7.7,7.7,0,0,1-.072-1.308V-3.936c.168-.012.168-.012.7-.072.048.216.072.288.108.528l1.128-.456a20.617,20.617,0,0,0-.924-2.472l-1,.384a8.4,8.4,0,0,1,.312.8c-.48.036-.588.048-1.2.072.492-.576,1.368-1.74,1.92-2.556.216-.336.312-.456.408-.588L-29.59-9A13.546,13.546,0,0,1-30.8-6.972c-.18-.228-.24-.288-.4-.48a17.864,17.864,0,0,0,1.092-1.824,3.518,3.518,0,0,1,.24-.432l-1.332-.516a8.507,8.507,0,0,1-.888,1.812c-.12-.132-.18-.2-.348-.408l-.756,1.236a11.206,11.206,0,0,1,1.572,1.776c-.228.324-.324.444-.552.72h-.408a2.745,2.745,0,0,1-.6-.048ZM-23.9-7a36.656,36.656,0,0,1-.312,5.556c-.144.732-.276.876-.816.876a12.134,12.134,0,0,1-1.548-.144,5.3,5.3,0,0,1,.4,1.584c.408.024.72.036,1.056.036A2.978,2.978,0,0,0-23.458.588c.432-.336.672-1,.852-2.412.12-.972.24-3.072.252-4.512a17.02,17.02,0,0,1,.06-2.2,6.5,6.5,0,0,1-.972.048H-25.8c.108-.288.24-.7.3-.888a4.282,4.282,0,0,1,.168-.516l-1.584-.264a8.762,8.762,0,0,1-.48,1.644A7.937,7.937,0,0,1-28.7-6.336,4.3,4.3,0,0,1-27.586-5.2,8.465,8.465,0,0,0-26.422-7Zm-8.868,3.66a11.962,11.962,0,0,1-.5,3.228l1.2.552a12.9,12.9,0,0,0,.516-3.624Zm3.324.2a28.768,28.768,0,0,1,.36,3.144l1.272-.24a24.406,24.406,0,0,0-.516-3.156Zm4.7.492A14.328,14.328,0,0,0-26.11-5.688l-1.32.624a13.613,13.613,0,0,1,1.26,3.1Zm6.6-7.664a13.991,13.991,0,0,1,1.792-.112h.7V-1.9A17.842,17.842,0,0,1-15.77.336h2.928A15.963,15.963,0,0,1-12.97-1.9v-8.24a22.136,22.136,0,0,1,.128-2.592,17.889,17.889,0,0,1-1.808.064h-1.744a10.487,10.487,0,0,1-1.744-.1ZM-1.13.608A4.932,4.932,0,0,0,3.254-1.744,9.468,9.468,0,0,0,4.23-6.176a10.578,10.578,0,0,0-.624-3.68,4.639,4.639,0,0,0-1.1-1.7,5,5,0,0,0-3.616-1.392,4.854,4.854,0,0,0-4.368,2.368,9.268,9.268,0,0,0-.992,4.432A10.552,10.552,0,0,0-5.85-2.48a4.853,4.853,0,0,0,1.1,1.7A4.973,4.973,0,0,0-1.13.608Zm.016-11.3c1.728,0,2.624,1.552,2.624,4.576A5.665,5.665,0,0,1,.47-2.288a2.133,2.133,0,0,1-1.584.64c-1.744,0-2.64-1.568-2.64-4.608C-3.754-9.056-2.778-10.688-1.114-10.688ZM13.309-3.224,12-2.392A9.094,9.094,0,0,1,13.608-.26L14.96-1.313a9.4,9.4,0,0,0-1.625-1.911h2.626V-.793c0,.273-.1.338-.481.338a9.871,9.871,0,0,1-1.469-.1,4.135,4.135,0,0,1,.377,1.6c.455.013.793.026.91.026a3.441,3.441,0,0,0,1.768-.3c.364-.208.494-.533.494-1.235V-3.224a9.1,9.1,0,0,1,1.339.065V-4.81a7.879,7.879,0,0,1-1.339.065v-.91h.117a8.35,8.35,0,0,1,1.274.065V-7.2a13.061,13.061,0,0,1-1.456.065h-1.56V-8.164h1.248a12.634,12.634,0,0,1,1.365.052V-9.724a10.2,10.2,0,0,1-1.391.078H15.935v-.312a3.934,3.934,0,0,1,.091-.936H14.245a6.949,6.949,0,0,1,.065.949v.3h-.988a10.067,10.067,0,0,1-1.391-.078v1.612c.169-.013.65-.026,1.456-.052h.923v1.027H13.153A13.43,13.43,0,0,1,11.671-7.2V-5.59c.4-.039.923-.065,1.456-.065h2.834v.91H13.127a9.711,9.711,0,0,1-1.456-.065v1.651c.442-.039.962-.065,1.417-.065ZM7.342-1.274A12.791,12.791,0,0,1,7.264.351H8.876v-1.1h.949V-.1h1.56c-.026-.351-.026-.611-.026-1.326V-9.048c0-.715,0-.975.026-1.274-.3.026-.533.039-1.1.039H8.408a8.066,8.066,0,0,1-1.118-.052,13.479,13.479,0,0,1,.052,1.352Zm1.547-7.54h.949v2.483H8.889Zm0,3.939h.949v2.613H8.889ZM29.9-4.316c0-.494.013-.819.039-1.131-.4.026-.637.039-1.17.039H25.62c-.52,0-.78-.013-1.17-.039.026.325.039.676.039,1.131V-1c0,.507-.013.975-.052,1.352H26V-.3H28.74c.234,0,.351,0,.6.013A5.881,5.881,0,0,1,29.611.949c.7.026.741.026.936.026A4.214,4.214,0,0,0,32.12.793c.468-.208.637-.6.637-1.469V-9.165c0-.65.013-.988.052-1.456a11.7,11.7,0,0,1-1.326.052H28.831a11.662,11.662,0,0,1-1.339-.052c.026.416.039.741.039,1.2v2.184c0,.637,0,.767-.026,1.157.3-.013.728-.026,1.131-.026h2.5V-.923c0,.273-.091.325-.546.325-.169,0-.338-.013-.676-.039C29.9-.9,29.9-1.092,29.9-1.378Zm-.819-5.057h2.054v.533H29.078Zm0,1.586h2.054v.533H29.078ZM26-4.121h2.4v.663H26Zm0,1.885h2.4v.65H26ZM23.306-6.11H25.62c.4,0,.832.013,1.131.026-.026-.3-.026-.52-.026-1.157V-9.425c0-.52.013-.819.039-1.2a10.71,10.71,0,0,1-1.326.052h-2.5a11.844,11.844,0,0,1-1.326-.052,14.371,14.371,0,0,1,.052,1.469V-.6a12.478,12.478,0,0,1-.078,1.677h1.794a12.251,12.251,0,0,1-.078-1.664Zm0-3.263h1.9v.533h-1.9Zm0,1.586h1.9v.533h-1.9Z" transform="translate(4764.725 8992.996)" fill="#fff"></path><path id="&#x30D1;&#x30B9;_24893" data-name="&#x30D1;&#x30B9; 24893" d="M-26.318-3.672c.168-.024.288-.036.492-.06.828-.048.828-.048,1.38-.084V-.228a7.53,7.53,0,0,1-.072,1.308h1.56A7.7,7.7,0,0,1-23.03-.228V-3.936c.168-.012.168-.012.7-.072.048.216.072.288.108.528l1.128-.456a20.617,20.617,0,0,0-.924-2.472l-1,.384a8.4,8.4,0,0,1,.312.8c-.48.036-.588.048-1.2.072.492-.576,1.368-1.74,1.92-2.556.216-.336.312-.456.408-.588L-22.862-9a13.546,13.546,0,0,1-1.212,2.028c-.18-.228-.24-.288-.4-.48a17.864,17.864,0,0,0,1.092-1.824,3.518,3.518,0,0,1,.24-.432l-1.332-.516a8.507,8.507,0,0,1-.888,1.812c-.12-.132-.18-.2-.348-.408l-.756,1.236A11.206,11.206,0,0,1-24.89-5.808c-.228.324-.324.444-.552.72h-.408a2.745,2.745,0,0,1-.6-.048ZM-17.174-7a36.656,36.656,0,0,1-.312,5.556c-.144.732-.276.876-.816.876A12.134,12.134,0,0,1-19.85-.708a5.3,5.3,0,0,1,.4,1.584c.408.024.72.036,1.056.036A2.978,2.978,0,0,0-16.73.588c.432-.336.672-1,.852-2.412.12-.972.24-3.072.252-4.512a17.02,17.02,0,0,1,.06-2.2,6.5,6.5,0,0,1-.972.048H-19.07c.108-.288.24-.7.3-.888a4.282,4.282,0,0,1,.168-.516l-1.584-.264a8.762,8.762,0,0,1-.48,1.644,7.937,7.937,0,0,1-1.308,2.172A4.3,4.3,0,0,1-20.858-5.2,8.465,8.465,0,0,0-19.694-7Zm-8.868,3.66a11.962,11.962,0,0,1-.5,3.228l1.2.552A12.9,12.9,0,0,0-24.83-3.18Zm3.324.2a28.768,28.768,0,0,1,.36,3.144l1.272-.24A24.406,24.406,0,0,0-21.6-3.384Zm4.7.492a14.328,14.328,0,0,0-1.368-3.048l-1.32.624a13.613,13.613,0,0,1,1.26,3.1Zm6.6-7.664a13.991,13.991,0,0,1,1.792-.112h.7V-1.9A17.842,17.842,0,0,1-9.042.336h2.928A15.962,15.962,0,0,1-6.242-1.9v-8.24a22.136,22.136,0,0,1,.128-2.592,17.889,17.889,0,0,1-1.808.064H-9.666a10.487,10.487,0,0,1-1.744-.1ZM6.581-3.224l-1.313.832A9.094,9.094,0,0,1,6.88-.26L8.232-1.313A9.4,9.4,0,0,0,6.607-3.224H9.233V-.793c0,.273-.1.338-.481.338a9.871,9.871,0,0,1-1.469-.1,4.135,4.135,0,0,1,.377,1.6c.455.013.793.026.91.026a3.441,3.441,0,0,0,1.768-.3c.364-.208.494-.533.494-1.235V-3.224a9.1,9.1,0,0,1,1.339.065V-4.81a7.879,7.879,0,0,1-1.339.065v-.91h.117a8.35,8.35,0,0,1,1.274.065V-7.2a13.061,13.061,0,0,1-1.456.065H9.207V-8.164h1.248a12.634,12.634,0,0,1,1.365.052V-9.724a10.2,10.2,0,0,1-1.391.078H9.207v-.312a3.934,3.934,0,0,1,.091-.936H7.517a6.949,6.949,0,0,1,.065.949v.3H6.594A10.067,10.067,0,0,1,5.2-9.724v1.612c.169-.013.65-.026,1.456-.052h.923v1.027H6.425A13.43,13.43,0,0,1,4.943-7.2V-5.59c.4-.039.923-.065,1.456-.065H9.233v.91H6.4A9.711,9.711,0,0,1,4.943-4.81v1.651c.442-.039.962-.065,1.417-.065ZM.614-1.274A12.791,12.791,0,0,1,.536.351H2.148v-1.1H3.1V-.1h1.56c-.026-.351-.026-.611-.026-1.326V-9.048c0-.715,0-.975.026-1.274-.3.026-.533.039-1.1.039H1.68a8.066,8.066,0,0,1-1.118-.052A13.479,13.479,0,0,1,.614-8.983Zm1.547-7.54H3.11v2.483H2.161Zm0,3.939H3.11v2.613H2.161Zm21.008.559c0-.494.013-.819.039-1.131-.4.026-.637.039-1.17.039H18.892c-.52,0-.78-.013-1.17-.039.026.325.039.676.039,1.131V-1c0,.507-.013.975-.052,1.352h1.56V-.3h2.743c.234,0,.351,0,.6.013A5.881,5.881,0,0,1,22.883.949c.7.026.741.026.936.026A4.214,4.214,0,0,0,25.392.793c.468-.208.637-.6.637-1.469V-9.165c0-.65.013-.988.052-1.456a11.7,11.7,0,0,1-1.326.052H22.1a11.662,11.662,0,0,1-1.339-.052c.026.416.039.741.039,1.2v2.184c0,.637,0,.767-.026,1.157.3-.013.728-.026,1.131-.026h2.5V-.923c0,.273-.091.325-.546.325-.169,0-.338-.013-.676-.039-.013-.26-.013-.455-.013-.741ZM22.35-9.373H24.4v.533H22.35Zm0,1.586H24.4v.533H22.35ZM19.269-4.121h2.4v.663h-2.4Zm0,1.885h2.4v.65h-2.4ZM16.578-6.11h2.314c.4,0,.832.013,1.131.026C20-6.383,20-6.6,20-7.241V-9.425c0-.52.013-.819.039-1.2a10.71,10.71,0,0,1-1.326.052h-2.5a11.844,11.844,0,0,1-1.326-.052,14.371,14.371,0,0,1,.052,1.469V-.6a12.478,12.478,0,0,1-.078,1.677h1.794a12.251,12.251,0,0,1-.078-1.664Zm0-3.263h1.9v.533h-1.9Zm0,1.586h1.9v.533h-1.9Z" transform="translate(4890.725 9058.996)" fill="#ffd214"></path><path id="&#x30D1;&#x30B9;_24898" data-name="&#x30D1;&#x30B9; 24898" d="M-23.184.336c-.192-.4-.48-1.1-.784-1.92l-3.52-9.424a10.833,10.833,0,0,1-.544-1.664h-3.44a12.284,12.284,0,0,1-.512,1.664l-3.488,9.424a14.872,14.872,0,0,1-.816,1.92h3.168a7.989,7.989,0,0,1,.432-1.7l.544-1.552h4.832l.544,1.552a11.443,11.443,0,0,1,.416,1.7Zm-4.8-5.5h-3.488l1.5-4.528c.112-.32.128-.4.224-.736.128.432.192.592.24.736Zm7.616-7.5a13.359,13.359,0,0,1,.128,2.208v8.592A13.733,13.733,0,0,1-20.368.336h2.944a13.482,13.482,0,0,1-.128-2.208v-8.592a13.236,13.236,0,0,1,.128-2.208ZM-6.032-7.088v1.776H-8.16c-.592,0-.928-.016-1.312-.048.032.4.048.864.048,1.36V-.336c0,.56-.032,1.264-.064,1.7h2.08V.624h4.96V1.36h2.16A16.177,16.177,0,0,1-.368-.32V-3.936A12.388,12.388,0,0,1-.3-5.36a12.58,12.58,0,0,1-1.3.048H-3.92V-7.088h2.608a13.825,13.825,0,0,1,1.84.1V-9.12a13.992,13.992,0,0,1-1.84.1H-3.92V-10.9c.912-.144,2.64-.448,3.184-.592.56-.128.56-.128.864-.208l-1.376-1.888c-1.472.7-5.072,1.264-8.624,1.344a5.613,5.613,0,0,1,.7,1.856c1.344-.064,1.856-.112,3.136-.256v1.616H-8.3a14.235,14.235,0,0,1-1.824-.1v2.128a15.613,15.613,0,0,1,1.84-.1Zm-1.36,3.632h4.96V-1.28h-4.96Zm-6.528-8.528A18.865,18.865,0,0,1-11.008-9.76l1.248-1.648a20.272,20.272,0,0,0-2.88-2.08Zm-.464,4.128a17.978,17.978,0,0,1,3.008,2.064l1.152-1.76a18.73,18.73,0,0,0-2.992-1.872Zm2.464,2.784a15.881,15.881,0,0,1-2.416,4.8l1.84,1.488A27.4,27.4,0,0,0-10.24-3.9ZM12.048-3.52h3.424v2.4c0,.32-.128.384-.752.384-.48,0-1.168-.048-1.9-.112A7.012,7.012,0,0,1,13.36,1.12c.5.032,1.3.064,1.744.064,1.9,0,2.448-.4,2.448-1.808V-11.1a19.181,19.181,0,0,1,.064-1.92,18.977,18.977,0,0,1-1.92.064H6.56c-.864,0-1.28-.016-1.872-.064a19.163,19.163,0,0,1,.08,2.112c0,7.1-.24,8.784-1.552,10.816A12.993,12.993,0,0,1,5.072,1.44,11.138,11.138,0,0,0,6.64-3.52h3.376v2.464A13.924,13.924,0,0,1,9.92.9h2.208a15.154,15.154,0,0,1-.08-1.968Zm0-5.648v-1.824h3.424v1.824Zm-2.032,0H6.848v-1.824h3.168ZM12.048-7.3h3.424v1.888H12.048Zm-2.032,0v1.888H6.768c.032-.848.048-1.2.048-1.888Zm18.976-6.416A9.1,9.1,0,0,1,27.44-11.5c-.224-.16-.384-.272-.752-.544L25.344-10.56a18.552,18.552,0,0,1,2.88,2.32l-.592.528c-.912.016-.912.016-1.136.032H26c-.16,0-.4-.016-.5-.016-.272-.032-.272-.032-.368-.048L25.344-5.7a13.509,13.509,0,0,1,1.792-.16c.336-.032.368-.032.832-.064a6.024,6.024,0,0,1-1.984,1.856,7.261,7.261,0,0,1-1.424.752V-6.976c.592-.816.912-1.264.976-1.36a5.543,5.543,0,0,1,.432-.64l-1.68-1.136a7.632,7.632,0,0,1-.944,1.52A12.194,12.194,0,0,1,20.736-6.08,7.729,7.729,0,0,1,21.552-4a6.576,6.576,0,0,0,1.008-.96c-.016.88-.016.88-.016,1.008V-.4a11.712,11.712,0,0,1-.1,1.728h2.176A18.5,18.5,0,0,1,24.56-.544V-3.136a6.571,6.571,0,0,1,1.072,1.52A11.9,11.9,0,0,0,27.36-2.8a9.093,9.093,0,0,0,1.184,1.168A12.5,12.5,0,0,1,24.576-.416a7.02,7.02,0,0,1,.9,1.84A13.529,13.529,0,0,0,30.256-.368a14.094,14.094,0,0,0,4.944,1.7,9.237,9.237,0,0,1,.88-2.08,12.959,12.959,0,0,1-4.048-.928,17.141,17.141,0,0,0,2.3-2.448,3.387,3.387,0,0,1,.24-.336l-1.12-1.024a9.306,9.306,0,0,1-1.264.064H29.744c.192-.288.24-.368.416-.656,1.008-.08,2.176-.192,3.52-.336.208.416.288.576.592,1.168l1.776-1.008a33.446,33.446,0,0,0-2.336-3.616L32.08-8.96c.384.544.48.672.7,1.008-.992.08-1.808.128-2.464.16.816-.768,2.272-2.272,2.752-2.864a9.575,9.575,0,0,1,.7-.832l-1.856-1.1a15.838,15.838,0,0,1-2.3,2.928c-.288-.288-.416-.4-.784-.72.56-.608,1.248-1.424,1.7-2.016.256-.352.256-.352.4-.544Zm2.576,9.888A11.138,11.138,0,0,1,30.224-2.64a5.366,5.366,0,0,1-1.28-1.184ZM24.176-13.76a4.592,4.592,0,0,1-.624.912,8.2,8.2,0,0,1-2.64,2.08,6.131,6.131,0,0,1,1.04,1.808,13.351,13.351,0,0,0,3.008-2.512c.5-.592.5-.592.88-1.072Z" transform="translate(4890.725 9097.996)" fill="#54a6ff"></path><path id="&#x30D1;&#x30B9;_24897" data-name="&#x30D1;&#x30B9; 24897" d="M-3.785-3.735-6.97-6.93l-.3.3L-4.073-3.42l-3.195,3.2.3.3L-3.785-3.1-.589.072l.288-.3-3.2-3.2L-.3-6.633l-.288-.3Zm.009-2.979a.691.691,0,0,0-.693.684.7.7,0,0,0,.693.693.686.686,0,0,0,.684-.693A.684.684,0,0,0-3.776-6.714Zm-2.583,2.6a.686.686,0,0,0-.693.684.7.7,0,0,0,.693.693.686.686,0,0,0,.684-.693A.684.684,0,0,0-6.359-4.113ZM-1.21-4.1a.684.684,0,0,0-.684.684.684.684,0,0,0,.684.684A.684.684,0,0,0-.527-3.42.684.684,0,0,0-1.21-4.1Zm-2.574,2.61-.018.018c-.009,0-.009,0-.018-.009a.033.033,0,0,0-.027-.009.725.725,0,0,0-.63.693.724.724,0,0,0,.693.693A.7.7,0,0,0-3.1-.8.686.686,0,0,0-3.785-1.494ZM2.947-5.8a7.87,7.87,0,0,1,1.008-.063h.4v4.788A10.036,10.036,0,0,1,4.279.189H5.926a8.979,8.979,0,0,1-.072-1.26V-5.706a12.451,12.451,0,0,1,.072-1.458,10.062,10.062,0,0,1-1.017.036H3.928a5.9,5.9,0,0,1-.981-.054Z" transform="translate(4823.725 9099.996)" fill="#fff"></path><path id="&#x30D1;&#x30B9;_24899" data-name="&#x30D1;&#x30B9; 24899" d="M-3.785-3.735-6.97-6.93l-.3.3L-4.073-3.42l-3.195,3.2.3.3L-3.785-3.1-.589.072l.288-.3-3.2-3.2L-.3-6.633l-.288-.3Zm.009-2.979a.691.691,0,0,0-.693.684.7.7,0,0,0,.693.693.686.686,0,0,0,.684-.693A.684.684,0,0,0-3.776-6.714Zm-2.583,2.6a.686.686,0,0,0-.693.684.7.7,0,0,0,.693.693.686.686,0,0,0,.684-.693A.684.684,0,0,0-6.359-4.113ZM-1.21-4.1a.684.684,0,0,0-.684.684.684.684,0,0,0,.684.684A.684.684,0,0,0-.527-3.42.684.684,0,0,0-1.21-4.1Zm-2.574,2.61-.018.018c-.009,0-.009,0-.018-.009a.033.033,0,0,0-.027-.009.725.725,0,0,0-.63.693.724.724,0,0,0,.693.693A.7.7,0,0,0-3.1-.8.686.686,0,0,0-3.785-1.494ZM6.331.189A13.856,13.856,0,0,1,7.78.252v-1.44A8.983,8.983,0,0,1,6.4-1.116H4.126a1.911,1.911,0,0,1,.423-.666,7.949,7.949,0,0,1,.99-.828,11.526,11.526,0,0,0,1.35-.99,2.147,2.147,0,0,0,.792-1.62c0-1.26-1.053-2.061-2.709-2.061a2.814,2.814,0,0,0-2.214.855,2.933,2.933,0,0,0-.639,1.521l1.593.18a1.683,1.683,0,0,1,.243-.8A1.2,1.2,0,0,1,5-6.012c.648,0,1.1.342,1.1.837,0,.468-.2.72-1.026,1.278A12.359,12.359,0,0,0,3.532-2.754,4.411,4.411,0,0,0,2.281-.882,4.226,4.226,0,0,0,2.065.225,10.16,10.16,0,0,1,3.316.189Z" transform="translate(4949.725 9099.996)" fill="#fff"></path><path id="down3" d="M6.742,7.486a24.256,24.256,0,0,1,13.409,5.258c8.7,6.725,13.511,19.1,13.98,35.884H23.2A2.742,2.742,0,0,0,21.26,53.31l19.2,19.2a2.74,2.74,0,0,0,3.878,0l19.2-19.2A2.742,2.742,0,0,0,61.6,48.628H50.583C49.11,3.33,11.144,2,6.742,2a2.743,2.743,0,0,0,0,5.486Z" transform="translate(4845.726 8941.34)" fill="#ffd214"></path><path id="&#x591A;&#x89D2;&#x5F62;_5" data-name="&#x591A;&#x89D2;&#x5F62; 5" d="M46.946,0l5.719,4.609L60,4.764l3.8,6.292,6.84,2.661,1.426,7.217,5.52,4.847-1.121,7.271L80,39.5l-3.534,6.448,1.121,7.271-5.52,4.847-1.426,7.217L63.8,67.943,60,74.236l-7.335.155L46.946,79,40,76.63,33.054,79l-5.719-4.609L20,74.236l-3.8-6.292-6.84-2.661L7.932,58.065l-5.52-4.847,1.121-7.271L0,39.5l3.534-6.448L2.412,25.782l5.52-4.847,1.426-7.217,6.84-2.661L20,4.764l7.335-.155L33.054,0,40,2.37Z" transform="translate(4877.977 8867.748)" fill="url(#linear-gradient-2)"></path><path id="&#x30D1;&#x30B9;_24891" data-name="&#x30D1;&#x30B9; 24891" d="M-29.663-4.59c.21-.03.36-.045.615-.075,1.035-.06,1.035-.06,1.725-.105V-.285a9.413,9.413,0,0,1-.09,1.635h1.95a9.62,9.62,0,0,1-.09-1.635V-4.92c.21-.015.21-.015.87-.09.06.27.09.36.135.66l1.41-.57a25.771,25.771,0,0,0-1.155-3.09l-1.245.48a10.5,10.5,0,0,1,.39,1c-.6.045-.735.06-1.5.09.615-.72,1.71-2.175,2.4-3.2.27-.42.39-.57.51-.735l-1.6-.885a16.933,16.933,0,0,1-1.515,2.535c-.225-.285-.3-.36-.495-.6a22.33,22.33,0,0,0,1.365-2.28,4.4,4.4,0,0,1,.3-.54l-1.665-.645a10.634,10.634,0,0,1-1.11,2.265c-.15-.165-.225-.255-.435-.51l-.945,1.545a14.008,14.008,0,0,1,1.965,2.22c-.285.4-.405.555-.69.9h-.51a3.431,3.431,0,0,1-.75-.06Zm11.43-4.155a45.82,45.82,0,0,1-.39,6.945C-18.8-.885-18.969-.7-19.644-.7a15.167,15.167,0,0,1-1.935-.18,6.619,6.619,0,0,1,.5,1.98c.51.03.9.045,1.32.045A3.722,3.722,0,0,0-17.679.735c.54-.42.84-1.245,1.065-3.015.15-1.215.3-3.84.315-5.64a21.275,21.275,0,0,1,.075-2.745,8.119,8.119,0,0,1-1.215.06H-20.6c.135-.36.3-.87.375-1.11a5.352,5.352,0,0,1,.21-.645L-22-12.69a10.953,10.953,0,0,1-.6,2.055A9.921,9.921,0,0,1-24.234-7.92a5.379,5.379,0,0,1,1.4,1.425,10.582,10.582,0,0,0,1.455-2.25ZM-29.319-4.17a14.952,14.952,0,0,1-.63,4.035l1.5.69a16.122,16.122,0,0,0,.645-4.53Zm4.155.255a35.959,35.959,0,0,1,.45,3.93l1.59-.3a30.508,30.508,0,0,0-.645-3.945Zm5.88.615a17.91,17.91,0,0,0-1.71-3.81l-1.65.78a17.017,17.017,0,0,1,1.575,3.87Zm6.435.564a5.105,5.105,0,0,0,1.615,2.28A6.2,6.2,0,0,0-7.282.741,5.8,5.8,0,0,0-2.969-.836C-1.677-2.109-.9-4.731-.9-7.733a9.589,9.589,0,0,0-1.216-5.149,5.791,5.791,0,0,0-4.921-2.489c-3.648,0-6.08,2.185-6.08,5.453,0,3.154,2.109,5.168,5.415,5.168A5.856,5.856,0,0,0-4.888-5.4a4.149,4.149,0,0,0,1.1-.969,7.287,7.287,0,0,1-.722,3.021,2.8,2.8,0,0,1-2.641,1.52,2.609,2.609,0,0,1-2-.741A2.351,2.351,0,0,1-9.657-3.5Zm5.567-4.541a2.583,2.583,0,0,1-2.736-2.774,2.71,2.71,0,0,1,2.869-2.774A2.734,2.734,0,0,1-4.2-10.089,2.831,2.831,0,0,1-7.282-7.277Zm16.3,8a5.857,5.857,0,0,0,5.206-2.793,11.244,11.244,0,0,0,1.159-5.263,12.561,12.561,0,0,0-.741-4.37,5.509,5.509,0,0,0-1.311-2.014,5.936,5.936,0,0,0-4.294-1.653,5.764,5.764,0,0,0-5.187,2.812A11.006,11.006,0,0,0,2.674-7.3a12.53,12.53,0,0,0,.741,4.351A5.763,5.763,0,0,0,4.726-.931,5.905,5.905,0,0,0,9.021.722Zm.019-13.414c2.052,0,3.116,1.843,3.116,5.434,0,2.09-.437,3.724-1.235,4.541a2.533,2.533,0,0,1-1.881.76C6.968-1.957,5.9-3.819,5.9-7.429,5.9-10.754,7.063-12.692,9.039-12.692ZM21.1-4.563a2.674,2.674,0,0,0,1.872-.689,3.182,3.182,0,0,0,.767-2.275,3.072,3.072,0,0,0-.767-2.262,2.583,2.583,0,0,0-1.872-.7c-1.677,0-2.665,1.092-2.665,2.964A3.126,3.126,0,0,0,19.2-5.265,2.668,2.668,0,0,0,21.1-4.563ZM21.09-9.23c.7,0,1.092.6,1.092,1.69,0,1.118-.39,1.729-1.092,1.729S20-6.422,20-7.553C20-8.632,20.387-9.23,21.09-9.23ZM27.368.481a2.636,2.636,0,0,0,1.885-.7A3.1,3.1,0,0,0,30.021-2.5a3.072,3.072,0,0,0-.767-2.262,2.583,2.583,0,0,0-1.872-.7,2.636,2.636,0,0,0-1.885.7,3.118,3.118,0,0,0-.78,2.262,3.16,3.16,0,0,0,.767,2.275A2.636,2.636,0,0,0,27.368.481Zm.013-4.68c.7,0,1.079.6,1.079,1.69,0,1.131-.377,1.742-1.092,1.742s-1.092-.611-1.092-1.755C26.277-3.614,26.667-4.2,27.382-4.2ZM19.737.1l.663.52L28.733-10.1l-.689-.52ZM-12.8,9.816h-1.7a9.619,9.619,0,0,1-1.152-.064,10.153,10.153,0,0,1,.064,1.344v7.392a16.485,16.485,0,0,1-.1,1.888h2.192c-.048-.592-.08-1.168-.08-1.9v-1.52h3.52V18.1c0,.256-.1.32-.448.32a14.1,14.1,0,0,1-1.568-.144,7.43,7.43,0,0,1,.416,1.888c.8.048,1.3.064,1.7.064.832,0,1.216-.112,1.5-.4A1.784,1.784,0,0,0-8.064,18.5V11.032c0-.544.016-.864.048-1.28a6.9,6.9,0,0,1-.9.064A26.1,26.1,0,0,0-7.3,6.68l-1.872-.864a12.35,12.35,0,0,1-1.488,3.136l1.648.864H-10.72V6.76a7.134,7.134,0,0,1,.08-1.3h-2.24a8.737,8.737,0,0,1,.08,1.312Zm-.768,4.464h3.52v.96h-3.52Zm3.52-1.728h-3.52v-.944h3.52ZM-16.272,6.68a14.118,14.118,0,0,1,1.5,3.088l1.68-.9a17.99,17.99,0,0,0-1.488-3.136Zm9.12.064a11.828,11.828,0,0,1,.08,1.68v6.5a14.67,14.67,0,0,1-.064,1.664h2.112a13.287,13.287,0,0,1-.064-1.664V8.376a10.83,10.83,0,0,1,.08-1.632ZM-4,5.624a12.729,12.729,0,0,1,.1,1.984V17.832c0,.4-.128.48-.768.48a13.335,13.335,0,0,1-1.984-.16,6.9,6.9,0,0,1,.528,2.032c.9.048,1.248.064,1.616.064a3.608,3.608,0,0,0,2.032-.384c.432-.3.592-.736.592-1.664V7.56a13.051,13.051,0,0,1,.1-1.936Zm15.072,7.632a6.921,6.921,0,0,1,.032-.7c-.176.016-.544.032-.832.032H8.544c-.528,0-.848-.016-1.056-.032.016.192.032.656.032,1.056v3.76a8.579,8.579,0,0,1-.048,1.024H8.96V17.56h1.568a14.8,14.8,0,0,1-2.08,1.568,6.6,6.6,0,0,1,1.5,1.36,12.476,12.476,0,0,0,2.768-2.544,8.71,8.71,0,0,0,.672,1.28c.48.672.928.976,1.456.976,1.04,0,1.568-1.072,1.7-3.5a7.153,7.153,0,0,1-1.408-.88,5.409,5.409,0,0,1-.272,2.1.056.056,0,0,1-.016-.032.948.948,0,0,0-.064-.1,7.47,7.47,0,0,1-.832-1.68,19.843,19.843,0,0,0,1.44-3.424c.56-1.808.56-1.808.608-1.952l-1.888-.72a14.7,14.7,0,0,1-.784,3.264c-.16-1.44-.24-2.672-.272-4.192h1.408a15.316,15.316,0,0,1,1.7.064v-2c-.24.032-.3.032-.528.048a8.062,8.062,0,0,0-.976-1.76l-1.392.624a8.316,8.316,0,0,1,.7,1.168h-.944a7.738,7.738,0,0,1,.112-1.744h-2.1a10.021,10.021,0,0,1,.1,1.744H6.928A15.607,15.607,0,0,1,5.2,7.144c.016.144.016.192.032.336A11.157,11.157,0,0,0,3.024,5.608L1.536,6.984a11.3,11.3,0,0,1,2.432,2.16l1.3-1.28c.032.464.048.96.048,1.536a51.2,51.2,0,0,1-.272,6.08,7.779,7.779,0,0,1-1.12,3.6A7.388,7.388,0,0,1,5.6,20.424a8.1,8.1,0,0,0,1.12-3.2,36.018,36.018,0,0,0,.432-5.5h4.176a21.383,21.383,0,0,0,.656,4.192,8.82,8.82,0,0,1-.912,1.136V13.256Zm-3.9-3.248V9.08h4c.032.64.032.64.048.928Zm1.7,4.144h.864v1.84H8.864Zm-7.6-3.008c.32.24.32.24,1.264.928.24.176.576.48,1.232,1.088l1.248-1.648A15.534,15.534,0,0,0,2.5,9.624Zm1.68,2.736A14.792,14.792,0,0,1,1.2,18.68L2.928,20.2c.352-.864.576-1.376.624-1.536a24.075,24.075,0,0,0,.976-3.488Z" transform="translate(4917.977 8906.997)" fill="#ffd214"></path></g></svg>