<svg xmlns="http://www.w3.org/2000/svg" width="467" height="144.764" viewBox="0 0 467 144.764"><g id="&#x30B0;&#x30EB;&#x30FC;&#x30D7;_18609" data-name="&#x30B0;&#x30EB;&#x30FC;&#x30D7; 18609" transform="translate(-855 -1139)"><circle id="&#x6955;&#x5186;&#x5F62;_777" data-name="&#x6955;&#x5186;&#x5F62; 777" cx="58.5" cy="58.5" r="58.5" transform="translate(855 1139)" fill="#f0f5f7"></circle><circle id="&#x6955;&#x5186;&#x5F62;_778" data-name="&#x6955;&#x5186;&#x5F62; 778" cx="58.5" cy="58.5" r="58.5" transform="translate(1030 1139)" fill="#f0f5f7"></circle><circle id="&#x6955;&#x5186;&#x5F62;_779" data-name="&#x6955;&#x5186;&#x5F62; 779" cx="58.5" cy="58.5" r="58.5" transform="translate(1205 1139)" fill="#f0f5f7"></circle><path id="&#x591A;&#x89D2;&#x5F62;_18" data-name="&#x591A;&#x89D2;&#x5F62; 18" d="M9.766,3.015a2,2,0,0,1,3.468,0L21.277,17a2,2,0,0,1-1.734,3H3.457a2,2,0,0,1-1.734-3Z" transform="translate(1011.5 1186) rotate(90)" fill="#2e6dc4"></path><path id="&#x591A;&#x89D2;&#x5F62;_19" data-name="&#x591A;&#x89D2;&#x5F62; 19" d="M9.766,3.015a2,2,0,0,1,3.468,0L21.277,17a2,2,0,0,1-1.734,3H3.457a2,2,0,0,1-1.734-3Z" transform="translate(1186.5 1186) rotate(90)" fill="#2e6dc4"></path><path id="&#x30D1;&#x30B9;_27127" data-name="&#x30D1;&#x30B9; 27127" d="M-35.478-13.914a16.614,16.614,0,0,1-2.052-.108v2.142a18.331,18.331,0,0,1,2.052-.09h.828V-7.2h-1.242a15.191,15.191,0,0,1-1.98-.108v2.16a15.888,15.888,0,0,1,2-.108h1.44a8.768,8.768,0,0,1-3.942,1.89,7.68,7.68,0,0,1,.954,2.2,14.9,14.9,0,0,0,3.186-1.674v1.1a14.677,14.677,0,0,1,1.674-.072h1.638v.954h-3.87a15.669,15.669,0,0,1-2.088-.108v2.16a19.57,19.57,0,0,1,2.25-.108h9.864a19.261,19.261,0,0,1,2.268.108V-.99a13.863,13.863,0,0,1-2.07.126h-4.158v-.954h1.89a14.279,14.279,0,0,1,1.674.072v-1.08A14.939,14.939,0,0,0-22-1.206a9.056,9.056,0,0,1,.99-2.214,9.3,9.3,0,0,1-4.05-1.836h1.53a15.3,15.3,0,0,1,2,.108v-2.16a18.794,18.794,0,0,1-2.088.108H-24.8v-4.77h.972a18.331,18.331,0,0,1,2.052.09v-2.142a15.82,15.82,0,0,1-2.052.108H-24.8a5.313,5.313,0,0,1,.09-1.17h-2.412a8.113,8.113,0,0,1,.09,1.17h-5.382a5.412,5.412,0,0,1,.09-1.17H-34.74a8.113,8.113,0,0,1,.09,1.17Zm3.06,6.786v-.63h5.382v.63Zm0-2.178v-.612h5.382v.612Zm0-2.16v-.612h5.382v.612Zm4.572,6.192a9.734,9.734,0,0,0,1.53,1.584h-2.412a5.335,5.335,0,0,1,.09-1.152h-2.376a5.042,5.042,0,0,1,.09,1.152h-2.232A10.083,10.083,0,0,0-31.7-5.274ZM-8.514-12.06a7.184,7.184,0,0,1,.9.072v-2.088A5.9,5.9,0,0,1-8.622-14h-.234a7.518,7.518,0,0,1,.072-1.206h-2.052A6.905,6.905,0,0,1-10.764-14h-1.008a3,3,0,0,1-.576-.036v-.738a14.771,14.771,0,0,1-1.89.09h-2a14.232,14.232,0,0,1-1.836-.09v2.268a12.894,12.894,0,0,1,1.566-.072h.27a11.573,11.573,0,0,1-.522,2.466,9.438,9.438,0,0,1-1.836,3.51,11.541,11.541,0,0,1,.666,2.79,5.625,5.625,0,0,0,.576-.846,3.172,3.172,0,0,0,.234-.36c-.018.432-.018.72-.018,1.17V-.666a18.626,18.626,0,0,1-.09,1.872h2.052V-.378h2.268c-.162.2-.252.306-.5.576A6.531,6.531,0,0,1-11.9,1.764,8.027,8.027,0,0,0-10.206-.72,5.373,5.373,0,0,0-8.118.666,12.3,12.3,0,0,0-3.4,1.332c.306,0,.9-.018,1.674-.036a8.575,8.575,0,0,1,.558-2.43c-1.692.162-2.376.216-3.15.216a13.632,13.632,0,0,1-1.71-.108V-2.394h1.764a14.849,14.849,0,0,1,1.746.072V-4.374A10.591,10.591,0,0,0-1.656-6.03a3.171,3.171,0,0,1,.252-.5L-2.646-7.668a11.529,11.529,0,0,1-1.62.072h-6.282a12.6,12.6,0,0,1-1.6-.072v2.124a11.729,11.729,0,0,1,1.6-.072h2.322v4A2.985,2.985,0,0,1-9.558-2.646a16.268,16.268,0,0,0,.4-2.07l-2.124-.324A7.512,7.512,0,0,1-12.528-.864V-7.7c0-.486.018-.81.036-1.152a3.251,3.251,0,0,1,.45.63A5.833,5.833,0,0,0-10.656-9.99c-.018.2-.018.2-.036.54a2.424,2.424,0,0,0-.018.4l-.018.27c0,.342,0,.342-.018.828H-8.8c-.018-.27-.018-.486-.018-.828v-.324c0-.162-.036-.576-.054-.846v-.162a4.407,4.407,0,0,0,.612.666,9.235,9.235,0,0,1,.846-1.44,3.907,3.907,0,0,1-1.26-1.17Zm-2.646,0a6.756,6.756,0,0,1-2.214,2.34,4.5,4.5,0,0,1,.774.774,7.124,7.124,0,0,1-.972.036H-14.94a16.619,16.619,0,0,0,.918-3.672c.72,0,.99,0,1.44.036v.54a7.994,7.994,0,0,1,.99-.054Zm5.13,7.776V-5.616H-4.1a3.459,3.459,0,0,1-.63.792,10.033,10.033,0,0,1,1.818.5c-.4.036-.684.036-1.35.036Zm-9.2-2.538h.954v4.536h-.954ZM-2.916-12.06c.432,0,.846.018,1.26.054v-2.07A9.232,9.232,0,0,1-3.06-14h-.9a6.647,6.647,0,0,1,.072-1.206H-5.94A8.48,8.48,0,0,1-5.85-14h-.5a3.927,3.927,0,0,1-.7-.036,1.329,1.329,0,0,1-.216-.036v2.088a7.187,7.187,0,0,1,.936-.072h.126A7.977,7.977,0,0,1-8.442-9.306c.09.108.09.108.36.45a6.108,6.108,0,0,1,.576.9A6.859,6.859,0,0,0-5.814-9.99c-.018.27-.036.666-.036.954v.252a7.32,7.32,0,0,1-.054.828h2c-.018-.234-.036-.558-.036-.846v-.324a7.6,7.6,0,0,0-.072-.936A6.532,6.532,0,0,0-1.908-8.028a8.389,8.389,0,0,1,.774-1.98,7.058,7.058,0,0,1-2.52-2.052Zm7.182-.486c-1.17,0-1.494-.018-2.178-.072a11.83,11.83,0,0,1,.072,1.494v1.818a8.05,8.05,0,0,1-.09,1.44H4.41v-2.682H15.7v2.682h2.322a11.347,11.347,0,0,1-.09-1.422v-1.836A11.3,11.3,0,0,1,18-12.618a22.078,22.078,0,0,1-2.232.072h-.576a21.582,21.582,0,0,0,1.17-2.034l-2.322-.558a11.34,11.34,0,0,1-1.314,2.592h-1.3a15.766,15.766,0,0,0-1.152-2.682l-2.286.5A11.585,11.585,0,0,1,9-12.546H7.434A15.923,15.923,0,0,0,5.9-15.03l-2.214.54a11.47,11.47,0,0,1,1.242,1.944Zm7.11,9.252h4.338a20.8,20.8,0,0,1,2.394.108V-5.544a17.127,17.127,0,0,1-2.376.126H11.718a27.72,27.72,0,0,0,3.2-2.5c.2-.18.27-.252.468-.414L14.238-9.612a8.53,8.53,0,0,1-1.386.072H7.164a17.987,17.987,0,0,1-1.872-.072v2.124A18.281,18.281,0,0,1,7.146-7.56h4.338A8.49,8.49,0,0,1,9.828-6.39H8.946A7.3,7.3,0,0,1,9-5.418H4.32a17.4,17.4,0,0,1-2.3-.126v2.358a19.852,19.852,0,0,1,2.322-.108H9V-1.08C9-.756,8.874-.7,8.118-.7c-.54,0-1.26-.054-2.214-.144a8.178,8.178,0,0,1,.684,2.268c.81.018,1.386.036,1.854.036,2.394,0,2.934-.342,2.934-1.908Zm26.01-9.666a15.865,15.865,0,0,1,.072-1.89,15.876,15.876,0,0,1-1.728.072H31.914a17.567,17.567,0,0,1-2.106-.108v2.16a11.382,11.382,0,0,1,1.314-.072l-.99,1.152a12.319,12.319,0,0,1,2.3,1.62,14.286,14.286,0,0,1-2.628.72l.45,1.386-.972-.162a4.945,4.945,0,0,0,.072-.936v-4a15.2,15.2,0,0,1,.054-1.872,11.732,11.732,0,0,1-1.854.09h-3.78a16.82,16.82,0,0,1-2.052-.108v2.178a8.712,8.712,0,0,1,1.6-.09l-1.062,1.17A10.669,10.669,0,0,1,24.5-10.062a16.289,16.289,0,0,1-2.952.882l.7,2.106a4.255,4.255,0,0,1,.846-.36c.828-.324,1.386-.54,2.34-.972a5.451,5.451,0,0,1,.252,1.332c.378.018.9.036,1.3.036a6.331,6.331,0,0,0,1.3-.108c-.216.378-.288.468-.45.72H25.416c-1.062,0-1.386-.018-1.98-.054a19.1,19.1,0,0,1,.072,2.088V-.666a15.842,15.842,0,0,1-.108,2.2h2.376V.81h7.83v.72H36a15.9,15.9,0,0,1-.09-2.2V-4.41a15.329,15.329,0,0,1,.072-2.07c-.558.036-.9.054-2,.054H30.276c.27-.4.342-.5.594-.918a4.387,4.387,0,0,1,.594-.234c.612-.234.972-.378,1.8-.738a7.083,7.083,0,0,1,.216,1.26c.54.018,1.08.036,1.35.036,1.224,0,1.782-.108,2.124-.4.342-.27.432-.612.432-1.566Zm-11.43,1.476A13.31,13.31,0,0,0,23.9-12.816h3.33v3.438c0,.342-.054.36-.594.378L26.6-10.962c-.954.45-1.3.594-1.836.81Zm7.812.036a12.5,12.5,0,0,0-2.088-1.368h3.546V-9.36c0,.342-.036.36-.594.378l-.036-1.98c-.918.432-1.242.576-1.926.846Zm-7.992,6.8h7.848v.936H25.776Zm0,2.7h7.848v.936H25.776Z" transform="translate(914 1282)"></path><path id="&#x30D1;&#x30B9;_27128" data-name="&#x30D1;&#x30B9; 27128" d="M-41.868-.648A8.27,8.27,0,0,1-40.734.99a9.427,9.427,0,0,0,3.24-3.24c-.018.576-.018.684-.018,1.224v.918A8.688,8.688,0,0,1-37.62,1.53h2.268A10.856,10.856,0,0,1-35.46-.144v-.918c0-.486,0-.648-.036-1.242a12.517,12.517,0,0,0,3.4,3.33,10.774,10.774,0,0,1,1.17-2.214,8.613,8.613,0,0,1-3.618-2.97h1.566a10.768,10.768,0,0,1,1.728.09v-2.25a10.086,10.086,0,0,1-1.836.108h-2.394v-.954h1.962a15.652,15.652,0,0,1,1.746.072,15.1,15.1,0,0,1-.072-1.728v-4.23a13.757,13.757,0,0,1,.072-1.728,14.9,14.9,0,0,1-1.512.054H-39.42c-.774,0-1.224-.018-1.674-.054a12.443,12.443,0,0,1,.072,1.674v4.356a13.377,13.377,0,0,1-.072,1.656,13.1,13.1,0,0,1,1.62-.072h1.962v.954h-2.142a9.84,9.84,0,0,1-1.854-.108v2.25a10.768,10.768,0,0,1,1.728-.09h1.35A8.907,8.907,0,0,1-41.868-1.08V-3.06a11.286,11.286,0,0,1,.036-1.26,9.243,9.243,0,0,1-1.152.054h-3.078A8.7,8.7,0,0,1-47.43-4.32a10.651,10.651,0,0,1,.072,1.368V-.18c0,.558-.036,1.206-.09,1.746h2.178V.774h1.4v.54h2.052C-41.85.9-41.85.9-41.868.144Zm4.374-12.222v1.08h-1.512v-1.08Zm2,0h1.638v1.08H-35.5Zm-2,2.808v1.116h-1.512v-1.116Zm2,0h1.656v1.116H-35.5Zm-9.828,7.524h1.476V-1.08h-1.476Zm-2.052-10.3c.45-.036.846-.054,1.53-.054h2.43c.7,0,1.026.018,1.53.054V-14.76a11.04,11.04,0,0,1-1.53.072h-2.43a10.875,10.875,0,0,1-1.53-.072Zm-.576,2.736a10.878,10.878,0,0,1,1.458-.072h3.456a8.839,8.839,0,0,1,1.386.054v-2.106a9.9,9.9,0,0,1-1.458.072h-3.384a8.025,8.025,0,0,1-1.458-.09Zm.594,2.538a6.017,6.017,0,0,1,1.1-.054H-43a8.236,8.236,0,0,1,1.062.054V-9.414A5.29,5.29,0,0,1-43-9.36H-46.26a6.122,6.122,0,0,1-1.1-.054Zm0,2.556a8.549,8.549,0,0,1,1.08-.054h3.24A8.1,8.1,0,0,1-41.94-5V-6.858a5.5,5.5,0,0,1-1.08.054h-3.24a6.122,6.122,0,0,1-1.1-.054ZM-24.48-2.5a5.005,5.005,0,0,1-.81-.918c.054-.648.072-.936.09-1.314a3.006,3.006,0,0,1,.036-.594l-2.016-.288c.018.216.036.342.036.486a12.509,12.509,0,0,1-.234,2.43,7.006,7.006,0,0,1-1.08,2.646,6.429,6.429,0,0,1,1.71,1.512,9.344,9.344,0,0,0,1.08-2.664A5.975,5.975,0,0,0-22.59.81a26.591,26.591,0,0,0,6.3.45c1.044,0,4.068-.054,4.59-.09a8.751,8.751,0,0,1,.612-2.358c-.414.036-.558.054-.918.09a7.4,7.4,0,0,1,.846-1.1A7.5,7.5,0,0,1-13.7-3.528h.126c.7,0,1.026.018,1.458.054a16.083,16.083,0,0,1-.072-1.692v-5.166c0-.666.018-1.08.054-1.476a14.152,14.152,0,0,1-1.458.054h-1.386c.162-.342.306-.684.414-.972h1.35a16.561,16.561,0,0,1,1.746.09v-2.07a12.274,12.274,0,0,1-1.98.108h-4.392a14.909,14.909,0,0,1-1.98-.09v2.034a17.544,17.544,0,0,1,1.764-.072h1.314a10.143,10.143,0,0,1-.4.972h-.684a10.214,10.214,0,0,1-1.476-.054c.036.468.054.864.054,1.458v5.436c0,.558-.018,1.026-.054,1.44a11.5,11.5,0,0,1,1.224-.054A6.357,6.357,0,0,1-20.646-2a7.517,7.517,0,0,1,.972,1.044,11.406,11.406,0,0,1-2.682-.36V-2.97h.828A10.541,10.541,0,0,1-20.07-2.9V-4.932c-.432.036-.846.054-1.44.054h-.846V-6.084h.99a12.516,12.516,0,0,1,1.638.072V-8.118a7.955,7.955,0,0,1-1.422.09h-5.22a9.988,9.988,0,0,1-1.71-.09v2.106a13.073,13.073,0,0,1,1.71-.072h1.89Zm7.056-1.026h2.934l-1.134.792a8.746,8.746,0,0,0,2.2,1.746c-1.458.054-2.754.09-3.69.09H-18.2a7.966,7.966,0,0,0,2.07-1.818Zm.252-6.624h2.916v.684h-2.916Zm0,2.16h2.916v.684h-2.916Zm0,2.124h2.916v.7h-2.916Zm-10.08-4.212c0,.828-.018,1.044-.054,1.53.468-.036.936-.054,1.548-.054h3.888c.594,0,1.062.018,1.548.054a14.416,14.416,0,0,1-.054-1.512v-3.114c0-.81.018-1.08.054-1.53a14.874,14.874,0,0,1-1.584.054h-3.852a14.935,14.935,0,0,1-1.566-.054,11.9,11.9,0,0,1,.072,1.53Zm2.106-2.952h2.7v.72h-2.7Zm0,2.16h2.7v.756h-2.7ZM1.62-11.358a3.5,3.5,0,0,1,1.674.576A4.374,4.374,0,0,1,5.22-7.02,4.944,4.944,0,0,1,2.736-2.592a9.024,9.024,0,0,1-3.564.864A7.38,7.38,0,0,1,.5.828,12.849,12.849,0,0,0,3.366.09,7.061,7.061,0,0,0,7.884-6.858c0-4.212-2.88-6.912-7.4-6.912A8.35,8.35,0,0,0-5.85-11.178,7.765,7.765,0,0,0-7.866-5.832c0,3.1,1.584,5.274,3.816,5.274C-2.5-.558-1.314-1.62-.306-3.906A25.4,25.4,0,0,0,1.62-11.358Zm-2.628.036a23.174,23.174,0,0,1-1.44,5.8c-.576,1.458-1.134,2.16-1.656,2.16-.7,0-1.278-1.1-1.278-2.448a5.9,5.9,0,0,1,2.214-4.608A4.045,4.045,0,0,1-1.008-11.322Zm19.53,2.358c0,.45,0,.45-.018.882H15.246a11.309,11.309,0,0,1-1.656-.072v2.016a11.634,11.634,0,0,1,1.656-.072h3.132a7.519,7.519,0,0,1-.144.882H13.662a12.678,12.678,0,0,1-1.908-.09v2.16a18.839,18.839,0,0,1,2.052-.108h3.672a5.168,5.168,0,0,1-2.142,1.782,10.213,10.213,0,0,1-3.888.99,6.452,6.452,0,0,1,1.1,2.232A11.916,11.916,0,0,0,16.992.09a7.206,7.206,0,0,0,2.592-2.61A9.093,9.093,0,0,0,22.77.18a15.8,15.8,0,0,0,4.392,1.458,9.315,9.315,0,0,1,1.08-2.3,15.283,15.283,0,0,1-4.968-1.386,4.965,4.965,0,0,1-1.656-1.314H25.83a18.7,18.7,0,0,1,2.07.108v-2.16a13.357,13.357,0,0,1-1.962.09H20.574c.072-.4.09-.54.126-.882h3.582a11.663,11.663,0,0,1,1.638.072V-8.154a11.016,11.016,0,0,1-1.638.072H20.808c0-.324,0-.324.018-.882H24.39a12.97,12.97,0,0,1,1.674.072V-9.63h1.692A10.835,10.835,0,0,1,27.684-11V-12.51a11.61,11.61,0,0,1,.072-1.368c-.63.054-1.116.072-2.07.072H20.88v-.288a6.73,6.73,0,0,1,.09-1.134H18.378a5.647,5.647,0,0,1,.09,1.152v.27H13.932c-.954,0-1.458-.018-2.07-.072a12.874,12.874,0,0,1,.072,1.4V-11a7.436,7.436,0,0,1-.09,1.368h1.692v.738a12.074,12.074,0,0,1,1.692-.072Zm6.93-2.826v.918c-.378.018-.558.018-1.062.018H20.844a9.31,9.31,0,0,1,.018-.936Zm-6.912,0v.936H15.228c-.5,0-.774,0-1.044-.018v-.918ZM42.012-6.3v2.61A11.64,11.64,0,0,1,41.958-2.2h2.106a9.507,9.507,0,0,1-.072-1.512V-6.84l1.314-.36c0,.684-.018,1.116-.054,1.62-.054.63-.108.72-.486.72a5.163,5.163,0,0,1-.684-.054,6.146,6.146,0,0,1,.468,1.98h.522c2.106,0,2.232-.342,2.322-5.958,0-.216.018-.576.018-1.026a4.172,4.172,0,0,1-.63.216,4.2,4.2,0,0,0-.45.126c-.324.09-.54.162-.63.18l-1.71.432v-.378a8.836,8.836,0,0,1,.09-1.386H41.94a10.663,10.663,0,0,1,.072,1.476v.792l-1.134.288v-.234a6.645,6.645,0,0,1,.072-1.368H39.744c.414-.612.522-.792.918-1.458H46.1a17.832,17.832,0,0,1,1.8.072v-2.286a13.271,13.271,0,0,1-1.872.108H41.688c.252-.558.288-.666.342-.792a5.676,5.676,0,0,1,.342-.756l-2.412-.45a10.952,10.952,0,0,1-1.692,3.762v-1.314a9.42,9.42,0,0,1-1.638.09h-.558v-.828a8.894,8.894,0,0,1,.09-1.548H33.678a12.6,12.6,0,0,1,.09,1.548v.828H32.9a8.852,8.852,0,0,1-1.692-.108v2.286a7.849,7.849,0,0,1,1.512-.09,37.992,37.992,0,0,1-.306,5.58A10.626,10.626,0,0,1,30.834-.378a8.347,8.347,0,0,1,1.62,2c1.4-2.088,2-4.3,2.3-8.568h1.08A42.154,42.154,0,0,1,35.55-1.89c-.162.972-.2,1.044-.738,1.044a8.177,8.177,0,0,1-1.044-.126,7.69,7.69,0,0,1,.45,2.25c.7.018.81.018,1.008.018,1.926,0,2.268-.54,2.484-3.87.072-1.116.144-3.4.144-4.662V-8.1c0-.162.018-.738.036-.972-.432.036-.81.054-1.4.054H34.848c0-.126.018-.7.036-1.692h1.764c.486,0,.684,0,.954.018-.2.216-.27.306-.522.576a7.45,7.45,0,0,1,1.746,1.368v1.08c-.36.09-.5.126-.846.2l.306,2.2a2.007,2.007,0,0,1,.36-.126,1.119,1.119,0,0,1,.18-.054V-.522c0,.81.216,1.206.828,1.476a8.364,8.364,0,0,0,3.33.342c2.736,0,3.474-.09,4-.486.666-.468.936-1.26,1.08-3.132a8.193,8.193,0,0,1-2.142-.594c-.018,1.206-.09,1.674-.306,1.854-.234.216-.63.252-2.9.252-1.62,0-1.836-.09-1.836-.72V-6.012Z" transform="translate(1089 1282)"></path><path id="&#x30D1;&#x30B9;_27129" data-name="&#x30D1;&#x30B9; 27129" d="M-40.878-8.964c0,.45,0,.45-.018.882h-3.258a11.309,11.309,0,0,1-1.656-.072v2.016a11.634,11.634,0,0,1,1.656-.072h3.132a7.518,7.518,0,0,1-.144.882h-4.572a12.678,12.678,0,0,1-1.908-.09v2.16a18.839,18.839,0,0,1,2.052-.108h3.672a5.169,5.169,0,0,1-2.142,1.782,10.213,10.213,0,0,1-3.888.99,6.452,6.452,0,0,1,1.1,2.232A11.916,11.916,0,0,0-42.408.09a7.206,7.206,0,0,0,2.592-2.61A9.093,9.093,0,0,0-36.63.18a15.8,15.8,0,0,0,4.392,1.458,9.315,9.315,0,0,1,1.08-2.3,15.283,15.283,0,0,1-4.968-1.386,4.965,4.965,0,0,1-1.656-1.314h4.212a18.7,18.7,0,0,1,2.07.108v-2.16a13.357,13.357,0,0,1-1.962.09h-5.364c.072-.4.09-.54.126-.882h3.582a11.663,11.663,0,0,1,1.638.072V-8.154a11.016,11.016,0,0,1-1.638.072h-3.474c0-.324,0-.324.018-.882h3.564a12.97,12.97,0,0,1,1.674.072V-9.63h1.692A10.835,10.835,0,0,1-31.716-11V-12.51a11.61,11.61,0,0,1,.072-1.368c-.63.054-1.116.072-2.07.072H-38.52v-.288a6.73,6.73,0,0,1,.09-1.134h-2.592a5.647,5.647,0,0,1,.09,1.152v.27h-4.536c-.954,0-1.458-.018-2.07-.072a12.874,12.874,0,0,1,.072,1.4V-11a7.436,7.436,0,0,1-.09,1.368h1.692v.738a12.074,12.074,0,0,1,1.692-.072Zm6.93-2.826v.918c-.378.018-.558.018-1.062.018h-3.546a9.309,9.309,0,0,1,.018-.936Zm-6.912,0v.936h-3.312c-.5,0-.774,0-1.044-.018v-.918Zm21.546,6.246a12.4,12.4,0,0,1-1.44-.054V-3.42a7.832,7.832,0,0,1,1.3-.072h.9C-19.242-2-20.394-1.08-22.59-.27a8.4,8.4,0,0,1,1.332,1.926c2.772-1.242,4.194-2.7,5.04-5.148h1.926a10.017,10.017,0,0,1-.2,1.908c-.162.7-.342.882-.9.882a11.466,11.466,0,0,1-2.034-.234,6.97,6.97,0,0,1,.522,2.2q1.161.108,1.89.108c1.458,0,1.98-.27,2.358-1.242a16.824,16.824,0,0,0,.648-4.608c.036-.468.036-.486.054-.612.018-.306.018-.306.036-.5a11.093,11.093,0,0,1-1.386.054h-2.466a3.435,3.435,0,0,0,.054-.5,1.583,1.583,0,0,1,.036-.252c.018-.2.018-.2.036-.324.018-.144.018-.144.036-.27l-1.818-.018A10.525,10.525,0,0,0-15.912-7.7a12.648,12.648,0,0,0,3.906,1.548,7.674,7.674,0,0,1,.972-2.25,12.3,12.3,0,0,1-3.15-.738,7.739,7.739,0,0,0,1.6-2.61,11.248,11.248,0,0,1,1.188.054v-2.178a13.625,13.625,0,0,1-1.962.108h-3.456c.18-.4.324-.756.4-.918l.108-.27-2.232-.414a5.9,5.9,0,0,1-.54,1.584,9.908,9.908,0,0,1-2.556,3.33,6.786,6.786,0,0,1,1.584,1.44,15.05,15.05,0,0,0,1.314-1.476,7.193,7.193,0,0,0,1.152,1.458,13.653,13.653,0,0,1-2.412.9l.036-.09-.918-1.116a11.53,11.53,0,0,1-1.314.054h-.7l.252-.27c-.234-.234-.306-.324-.468-.486a20.308,20.308,0,0,0,2.466-2.9,4.1,4.1,0,0,1,.4-.5L-21.4-14.688a9.462,9.462,0,0,1-1.548.072h-3.042a13.7,13.7,0,0,1-1.674-.072v2.2a12.587,12.587,0,0,1,1.494-.072h2.844a5.927,5.927,0,0,1-1.134,1.3c-.5-.432-.72-.594-1.44-1.134l-1.3,1.3a18.4,18.4,0,0,1,2.16,1.818H-26.55a12.837,12.837,0,0,1-1.584-.072v2.178a7.929,7.929,0,0,1,1.44-.09h1.116A9.624,9.624,0,0,1-28.4-3.2,8.348,8.348,0,0,1-27.522-.81a11.485,11.485,0,0,0,2.484-3.672l.018,3.42c0,.324-.09.4-.45.4a8.614,8.614,0,0,1-1.62-.18,6.54,6.54,0,0,1,.432,2.214c.576.036,1.044.054,1.44.054,1.728,0,2.25-.414,2.25-1.764l-.018-4.518A4.85,4.85,0,0,1-21.6-3.744a19.966,19.966,0,0,0,1.26-3.294,4.452,4.452,0,0,1,.162-.558A8.262,8.262,0,0,1-19.4-6.21c.7-.216.936-.288,1.458-.486v.162a9.862,9.862,0,0,1-.072.99Zm4.428-6.21A5.216,5.216,0,0,1-16-10.17a5.438,5.438,0,0,1-1.332-1.584ZM-23-7.272h.9a9.221,9.221,0,0,1-.882,2.232ZM-6.21-14.508a15.7,15.7,0,0,1-.288,1.8A37.533,37.533,0,0,0-7.2-5.67,34.167,34.167,0,0,0-6.732-.18c.054.414.072.558.09.882l2.61-.126C-4.05.324-4.05.234-4.05.054A14.044,14.044,0,0,1-2.574-5.364l-1.584-.648-.342.864c-.09.216-.09.216-.324.918A34.972,34.972,0,0,1-3.4-14.238Zm4.446,4.356c.27.018.414.018.5.036a25.824,25.824,0,0,0,2.9.144,38.37,38.37,0,0,0,4.77-.324,2.922,2.922,0,0,1,.378-.018l-.126-2.61a20.993,20.993,0,0,1-4.932.486,13.109,13.109,0,0,1-3.456-.306ZM-.576-7.47A6.543,6.543,0,0,0-2.25-3.618a3.29,3.29,0,0,0,.54,1.836C-.9-.648.594-.108,2.88-.108A21.74,21.74,0,0,0,6.66-.45c.4-.054.5-.072.792-.108l-.18-2.718a13.268,13.268,0,0,1-4.374.7c-1.656,0-2.574-.5-2.574-1.4a4.546,4.546,0,0,1,1.26-2.538ZM19.89-11.394l-1.4,1.224A16.494,16.494,0,0,1,23-6.948l1.638-1.746a26.156,26.156,0,0,0-4.068-2.7h5.238a18.875,18.875,0,0,1,2.2.09V-13.68a16.951,16.951,0,0,1-2.2.108H21.366v-.684a4.725,4.725,0,0,1,.072-.99H18.882a5.055,5.055,0,0,1,.09.954v.72h-4.5c-.828,0-1.3-.018-1.926-.072.054.63.072,1.35.072,2.52a58.138,58.138,0,0,1-.378,7.182A11.377,11.377,0,0,1,11.124-.414a9.459,9.459,0,0,1,1.908,1.89A15.869,15.869,0,0,0,14.4-2.9a44.474,44.474,0,0,0,.5-8.5ZM16.668.4a23.1,23.1,0,0,0,1.386-7.38l-2.16-.54A27.375,27.375,0,0,1,15.57-4.14,11.583,11.583,0,0,1,14.6-.846Zm2-8.838a9.974,9.974,0,0,1,.108,1.71v6.7a1.1,1.1,0,0,0,.72,1.188,7.446,7.446,0,0,0,2.394.234c1.6,0,2.322-.216,2.718-.792.378-.54.522-1.44.666-3.888a8.1,8.1,0,0,1-2.142-.72,14.522,14.522,0,0,1-.144,2.7c-.108.342-.324.432-1.08.432-.738,0-.864-.072-.864-.486V-6.714a10.768,10.768,0,0,1,.09-1.728ZM28.35-.972a32.961,32.961,0,0,0-2.3-6.66L24.03-6.66A21.709,21.709,0,0,1,26.1.108ZM40.968-3.96H44.82v2.7c0,.36-.144.432-.846.432-.54,0-1.314-.054-2.142-.126a7.889,7.889,0,0,1,.612,2.214c.558.036,1.458.072,1.962.072,2.142,0,2.754-.45,2.754-2.034v-11.79a21.578,21.578,0,0,1,.072-2.16,21.349,21.349,0,0,1-2.16.072H34.794c-.972,0-1.44-.018-2.106-.072a21.559,21.559,0,0,1,.09,2.376c0,7.992-.27,9.882-1.746,12.168A14.617,14.617,0,0,1,33.12,1.62a12.53,12.53,0,0,0,1.764-5.58h3.8v2.772a15.665,15.665,0,0,1-.108,2.2h2.484a17.049,17.049,0,0,1-.09-2.214Zm0-6.354v-2.052H44.82v2.052Zm-2.286,0H35.118v-2.052h3.564Zm2.286,2.106H44.82v2.124H40.968Zm-2.286,0v2.124H35.028c.036-.954.054-1.35.054-2.124Z" transform="translate(1264 1282)"></path><g id="certificate" transform="translate(1056 1165)"><path id="&#x30D1;&#x30B9;_27114" data-name="&#x30D1;&#x30B9; 27114" d="M61.065,6H4.188A2.188,2.188,0,0,0,2,8.188v35a2.188,2.188,0,0,0,2.188,2.188h35V56.314a2.188,2.188,0,0,0,3.631,1.641l2.931-2.6,2.931,2.6a2.189,2.189,0,0,0,3.631-1.641V45.377h8.75a2.188,2.188,0,0,0,2.188-2.188v-35A2.188,2.188,0,0,0,61.065,6ZM47.939,51.436,47.2,50.8a2.188,2.188,0,0,0-2.888,0l-.744.634V40.7a7.963,7.963,0,0,0,4.375,0Zm-2.188-14.81a4.375,4.375,0,1,1,4.375-4.375A4.375,4.375,0,0,1,45.752,36.626ZM58.877,41H52.314V38.814a2.341,2.341,0,0,0-.131-.678,8.75,8.75,0,1,0-12.863,0,2.341,2.341,0,0,0-.131.678V41H6.375V10.375h52.5Z" transform="translate(0 0)" fill="#231f20"></path><path id="&#x30D1;&#x30B9;_27115" data-name="&#x30D1;&#x30B9; 27115" d="M8.188,14.375H30.063a2.188,2.188,0,1,0,0-4.375H8.188a2.188,2.188,0,1,0,0,4.375Z" transform="translate(4.75 4.75)" fill="#231f20"></path><path id="&#x30D1;&#x30B9;_27116" data-name="&#x30D1;&#x30B9; 27116" d="M8.188,17.375H21.313a2.188,2.188,0,1,0,0-4.375H8.188a2.188,2.188,0,0,0,0,4.375Z" transform="translate(4.75 8.313)" fill="#231f20"></path><path id="&#x30D1;&#x30B9;_27117" data-name="&#x30D1;&#x30B9; 27117" d="M8.188,20.375H21.313a2.188,2.188,0,1,0,0-4.375H8.188a2.188,2.188,0,0,0,0,4.375Z" transform="translate(4.75 11.876)" fill="#231f20"></path></g><g id="video-call" transform="translate(881.358 1169.337)"><path id="&#x30D1;&#x30B9;_27118" data-name="&#x30D1;&#x30B9; 27118" d="M53.115,35.317h2.993a3.725,3.725,0,0,0,2.777-1.163c1.787-1.959,1.292-5.576.71-9.753a33.414,33.414,0,0,1-.431-4.306c0-9.43-6.459-17.116-14.382-17.116H43.406a12.616,12.616,0,0,0-6.954,2.2H4.158A2.153,2.153,0,0,0,2,7.329V31.011a2.648,2.648,0,0,0,0,.431,2.153,2.153,0,0,0,.388.861l.194.237,6.33,8.375a2.153,2.153,0,0,0,1.7.861H27.84A15.91,15.91,0,0,0,25.687,49.7V59a2.153,2.153,0,0,0,2.153,2.153H60.134A2.153,2.153,0,0,0,62.287,59V49.7A15.673,15.673,0,0,0,53.115,35.317ZM42.652,37.47h0a15.415,15.415,0,0,0-1.895-2.153h6.954a3.9,3.9,0,0,0-.5.388,18.838,18.838,0,0,0-1.765,1.852,7.642,7.642,0,0,1-1.658.108,11.2,11.2,0,0,1-1.141-.194ZM44.805,7.329c5.425,0,9.839,5.748,9.839,12.81a35.934,35.934,0,0,0,.474,4.823,26.61,26.61,0,0,1,.431,6.05H32.4a9.666,9.666,0,0,1,0-2.153c.108-1.206.344-2.584.5-3.531a36.6,36.6,0,0,0,.689-5.081,14.919,14.919,0,0,1,.431-3.7,12.918,12.918,0,0,1,4.2-7.126l.388-.409h0a8.117,8.117,0,0,1,4.8-1.679ZM46.614,31.14ZM6.311,9.482H32.146a19.183,19.183,0,0,0-3.1,10.765,32.058,32.058,0,0,1-.56,4.521c-.237,1.507-.474,2.906-.581,4.2h0a6.459,6.459,0,0,0-6.459-6.459H19.228a6.459,6.459,0,0,0-6.459,6.459H6.311ZM8.464,33.164H28.335a2.885,2.885,0,0,0,.624.969,3.638,3.638,0,0,0,2.756,1.184h3.229a13.736,13.736,0,0,0-3.423,2.045l-.108.108h-19.7ZM57.981,56.846H29.993v-7.1A11.454,11.454,0,0,1,33.2,41.776a10.528,10.528,0,0,1,3.466-2.433,7.472,7.472,0,0,1,1.313-.5,14.4,14.4,0,0,1,.99,1.141,4.091,4.091,0,0,0,.581.8,2.605,2.605,0,0,0,1.227.71,3.876,3.876,0,0,0,.754.258h0a9.452,9.452,0,0,0,2.153.323,9.15,9.15,0,0,0,3.4-.3A2.3,2.3,0,0,0,48.4,41.13a4.564,4.564,0,0,0,.538-.667A15.479,15.479,0,0,1,50.381,39l1.141.431h0a11.3,11.3,0,0,1,6.459,10.4Z" transform="translate(0 0)" fill="#231f20"></path><circle id="&#x6955;&#x5186;&#x5F62;_776" data-name="&#x6955;&#x5186;&#x5F62; 776" cx="5.382" cy="5.382" r="5.382" transform="translate(14.922 11.635)" fill="#231f20"></circle></g><g id="teacher-male" transform="translate(1234.354 1172.902)"><path id="&#x30D1;&#x30B9;_27124" data-name="&#x30D1;&#x30B9; 27124" d="M30.213,29.233l.217-.126a8.89,8.89,0,0,0,4.481-7.228c0-1.807,0-4.084,0-5.421a3.975,3.975,0,0,0,1.807-3.614A11.058,11.058,0,0,0,25.876,2H22.262A10.516,10.516,0,0,0,11.421,12.212a5.836,5.836,0,0,0,1.807,4.246v5.421a8.637,8.637,0,0,0,4.3,7.228l.271.145C10.933,30.787,6,36.334,6,42.6V50.79A1.807,1.807,0,0,0,7.807,52.6H40.332a1.807,1.807,0,0,0,1.807-1.807V42.6C42.139,36.551,37.025,30.913,30.213,29.233Zm-7.95,7.1h3.614V48.983H22.262Zm0-30.718h3.614A7.463,7.463,0,0,1,33.1,11.037a8.547,8.547,0,0,0-8.818.922,7.065,7.065,0,0,1-2.024,1.012,8.655,8.655,0,0,1-5.674-1.5,2.963,2.963,0,0,0-1.554-.434A7.228,7.228,0,0,1,22.262,5.616ZM16.842,21.879V16.458a12.486,12.486,0,0,0,6.631,0,10.408,10.408,0,0,0,2.981-1.319l.434-.289a4.571,4.571,0,0,1,2.367-.994,4.21,4.21,0,0,1,1.355.271c.687.542.7.163.687.542V21.9a4.337,4.337,0,0,1-1.807,3.614l-3.614,1.807v4.806l-.452.614H22.75c-.145-.163-.307-.4-.488-.632V30.913h0V27.3h0a20.436,20.436,0,0,1-3.614-1.807,5.421,5.421,0,0,1-1.807-3.614ZM9.614,42.6c0-4.445,3.614-8.529,8.691-9.776.108.145.235.289.343.452v15.7H16.842V41.755a1.807,1.807,0,1,0-3.614,0v7.228H9.614Zm28.911,6.379H34.911V41.755a1.807,1.807,0,1,0-3.614,0v7.228H29.49V33.244c.09-.145.2-.271.289-.4,5.041,1.373,8.746,5.421,8.746,9.757Z" transform="translate(-6 -1.997)"></path></g><g id="lightbulb" transform="translate(1267.001 1164.001)"><path id="&#x30D1;&#x30B9;_27125" data-name="&#x30D1;&#x30B9; 27125" d="M20,28H12a1,1,0,0,0,0,2h8a1,1,0,0,0,0-2Z" fill="#231f20"></path><path id="&#x30D1;&#x30B9;_27126" data-name="&#x30D1;&#x30B9; 27126" d="M26,12a10,10,0,1,0-15,8.66V22a2.26,2.26,0,0,0-2,2.24v.46A2.27,2.27,0,0,0,11.27,27h9.46A2.27,2.27,0,0,0,23,24.73v-.46A2.26,2.26,0,0,0,21,22V20.66A10,10,0,0,0,26,12ZM21,24.73a.27.27,0,0,1-.27.27H11.27a.27.27,0,0,1-.27-.27v-.46a.27.27,0,0,1,.27-.27h9.46a.27.27,0,0,1,.27.27Zm-2-5.32V22H13V19.41a7.59,7.59,0,0,1-2-1.18,8,8,0,1,1,10,0,7.59,7.59,0,0,1-2,1.18Z" fill="#231f20"></path></g></g></svg>