<?xml version="1.0" encoding="UTF-8"?>
<svg id="_レイヤー_2" data-name="レイヤー 2" xmlns="http://www.w3.org/2000/svg" viewBox="0 0 553.57 198.55">
  <defs>
    <style>
      .cls-1 {
        fill: #2a63b4;
      }

      .cls-2 {
        fill: #333;
      }
    </style>
  </defs>
  <g id="_レイヤー_1-2" data-name="レイヤー 1">
    <path id="_パス_685_-_アウトライン" data-name="パス 685 - アウトライン" class="cls-2" d="M400.14,104.91h-13.3v-57.35h13.3v57.35Z"/>
    <path id="_線_38" data-name="線 38" class="cls-2" d="M387.52,72.66v-13.3h40.68v13.3h-40.68Z"/>
    <path id="_パス_47" data-name="パス 47" class="cls-2" d="M113.09,33.56l-14.58,44.81-19.73-44.81h-15.32l19.74,44.82h15.32l-12.64,38.85h15.32l27.24-83.68h-15.34Z"/>
    <path id="_線_37" data-name="線 37" class="cls-2" d="M13.3,103.57H0V21.85h13.3v81.72Z"/>
    <path id="_長方形_222" data-name="長方形 222" class="cls-2" d="M13.3,66.13v24.33h24.33v-24.33H13.3M0,52.83h50.94v50.94H0v-50.94Z"/>
    <path id="_線_38-2" data-name="線 38-2" class="cls-2" d="M338.56,103.77h-13.3v-57.35h13.3v57.35Z"/>
    <path id="_パス_44" data-name="パス 44" class="cls-1" d="M553.57,131.34v-13.62h-48.78v13.62h48.78Z"/>
    <path id="_パス_46" data-name="パス 46" class="cls-2" d="M218.69,104.25h13.3V40.17h25.35v-13.3h-63.76v13.3h25.11v64.08Z"/>
    <path id="_長方形_22" data-name="長方形 22" class="cls-2" d="M157.28,11.4v108.53h321.28V11.4H157.28M145.88,0h344.08v131.34H145.88V0Z"/>
    <rect id="_長方形_3359" data-name="長方形 3359" class="cls-2" x="386.58" y="28.61" width="13.68" height="76.4"/>
    <rect id="_長方形_3360" data-name="長方形 3360" class="cls-2" x="387.53" y="59.21" width="46.43" height="13.68"/>
    <rect id="_長方形_3361" data-name="長方形 3361" class="cls-2" x="420.27" y="59.21" width="13.68" height="45.8"/>
    <rect id="_長方形_3362" data-name="長方形 3362" class="cls-2" x="324.81" y="46.28" width="46.43" height="13.68"/>
    <rect id="_長方形_3363" data-name="長方形 3363" class="cls-2" x="324.81" y="57.66" width="13.68" height="46.43"/>
    <rect id="_長方形_3364" data-name="長方形 3364" class="cls-2" x="324.81" y="90.4" width="46.43" height="13.68"/>
    <rect id="_長方形_3366" data-name="長方形 3366" class="cls-2" x="263.23" y="46.28" width="13.68" height="57.8"/>
    <rect id="_長方形_3367" data-name="長方形 3367" class="cls-2" x="263.23" y="46.28" width="47.54" height="13.68"/>
    <rect id="_長方形_3368" data-name="長方形 3368" class="cls-2" x="263.23" y="67.19" width="47.54" height="13.68"/>
    <rect id="_長方形_3370" data-name="長方形 3370" class="cls-2" x="263.23" y="90.4" width="47.54" height="13.68"/>
    <rect id="_長方形_3369" data-name="長方形 3369" class="cls-2" x="297.09" y="46.28" width="13.68" height="34.59"/>
    <path id="_パス_2" data-name="パス 2" class="cls-2" d="M5.15,195.94v-42.97h6.46c2.31-.06,4.62.17,6.87.67,1.62.39,3.12,1.16,4.37,2.25,1.24,1.14,2.22,2.54,2.87,4.09.71,1.58,1.08,3.28,1.08,5.01.04,3-1.26,5.86-3.53,7.82,2.21.72,4.11,2.16,5.4,4.09,1.35,1.98,2.05,4.34,2,6.74.06,3.21-1.23,6.3-3.56,8.52-1.34,1.37-2.99,2.4-4.81,2.98-2.39.59-4.85.86-7.32.81H5.15ZM11.63,171.42h2.03c2.41,0,4.18-.53,5.3-1.6,1.2-1.27,1.81-2.98,1.68-4.72.12-1.71-.51-3.39-1.73-4.61-1.41-1.14-3.2-1.7-5.01-1.57h-2.28v12.5ZM11.63,189.84h4.01c2.93,0,5.09-.58,6.46-1.73,1.41-1.16,2.21-2.9,2.17-4.73.03-1.79-.73-3.5-2.09-4.68-1.35-1.24-3.78-1.86-7.26-1.86h-3.28v13ZM85.23,152.97v25.88c0,3.69.6,6.39,1.81,8.1,1.74,2.44,4.6,3.83,7.6,3.7,3,.14,5.87-1.26,7.63-3.7,1.21-1.65,1.81-4.35,1.81-8.1v-25.89h6.49v27.67c.15,4.15-1.38,8.18-4.23,11.19-3.03,3.21-7.28,4.99-11.69,4.9-4.41.09-8.64-1.69-11.66-4.9-2.85-3.01-4.38-7.04-4.23-11.19v-27.66h6.48ZM185.06,159.37l-5.26,3.12c-.65-1.33-1.62-2.47-2.81-3.34-1.09-.64-2.33-.94-3.59-.89-1.63-.06-3.23.49-4.48,1.53-1.15.92-1.81,2.32-1.78,3.78,0,2.1,1.56,3.78,4.68,5.07l4.29,1.75c2.95,1.04,5.59,2.82,7.65,5.16,1.65,2.14,2.5,4.78,2.42,7.47.11,3.68-1.32,7.23-3.95,9.8-2.63,2.59-6.19,4-9.88,3.9-3.39.12-6.7-1.06-9.24-3.31-2.53-2.49-4.12-5.79-4.48-9.32l6.57-1.45c.3,2.52.82,4.27,1.56,5.23,1.35,1.86,3.55,2.91,5.85,2.78,1.89.05,3.71-.69,5.04-2.04,1.34-1.37,2.06-3.23,2-5.15,0-.78-.11-1.56-.35-2.3-.24-.7-.6-1.35-1.09-1.92-.55-.64-1.19-1.19-1.91-1.64-.88-.57-1.82-1.05-2.78-1.46l-4.15-1.73c-5.88-2.49-8.82-6.12-8.82-10.91-.05-3.12,1.31-6.1,3.7-8.1,2.55-2.22,5.84-3.39,9.21-3.28,4.96,0,8.83,2.42,11.61,7.24h0ZM240.38,152.97v42.97h-6.49v-42.97h6.49ZM290.61,195.94v-45.9l31.34,32.79v-29.86h6.48v45.59l-31.34-32.7v30.08h-6.48ZM402.34,159.06h-17.23v10.33h16.73v6.1h-16.73v14.35h17.23v6.1h-23.71v-42.97h23.71v6.1ZM475.05,159.37l-5.26,3.12c-.65-1.33-1.62-2.47-2.81-3.34-1.09-.64-2.33-.94-3.59-.89-1.63-.06-3.23.49-4.48,1.53-1.15.92-1.81,2.32-1.78,3.78,0,2.1,1.56,3.78,4.68,5.07l4.29,1.75c2.95,1.04,5.59,2.82,7.65,5.16,1.65,2.14,2.5,4.78,2.42,7.47.11,3.68-1.32,7.23-3.95,9.8-2.63,2.59-6.19,4-9.88,3.9-3.39.12-6.7-1.06-9.24-3.31-2.53-2.49-4.12-5.79-4.48-9.32l6.57-1.45c.3,2.52.82,4.27,1.56,5.23,1.35,1.86,3.55,2.91,5.85,2.78,1.89.05,3.72-.68,5.04-2.03,1.34-1.37,2.06-3.23,2-5.15,0-.78-.11-1.56-.35-2.3-.24-.7-.6-1.35-1.08-1.92-.55-.64-1.19-1.19-1.91-1.64-.88-.57-1.82-1.05-2.78-1.46l-4.15-1.73c-5.88-2.49-8.82-6.12-8.82-10.91-.05-3.12,1.31-6.1,3.7-8.1,2.55-2.22,5.84-3.39,9.21-3.28,4.96,0,8.83,2.41,11.61,7.24ZM548.18,159.37l-5.26,3.12c-.65-1.33-1.62-2.47-2.81-3.34-1.09-.64-2.33-.94-3.59-.89-1.63-.06-3.23.49-4.48,1.53-1.15.92-1.81,2.32-1.78,3.78,0,2.1,1.56,3.78,4.68,5.07l4.29,1.75c2.95,1.04,5.59,2.82,7.65,5.16,1.65,2.14,2.5,4.78,2.42,7.47.11,3.68-1.32,7.23-3.95,9.8-2.63,2.59-6.19,4-9.88,3.9-3.39.12-6.7-1.06-9.24-3.31-2.53-2.49-4.12-5.79-4.48-9.32l6.57-1.45c.3,2.52.82,4.27,1.56,5.23,1.35,1.86,3.55,2.91,5.84,2.78,1.89.05,3.72-.68,5.04-2.03,1.34-1.37,2.06-3.23,2-5.15,0-.78-.11-1.56-.35-2.3-.24-.7-.6-1.35-1.09-1.92-.55-.64-1.19-1.19-1.91-1.64-.88-.57-1.82-1.05-2.78-1.46l-4.15-1.73c-5.88-2.49-8.82-6.12-8.82-10.91-.05-3.12,1.31-6.1,3.7-8.1,2.55-2.22,5.84-3.39,9.21-3.28,4.96,0,8.83,2.41,11.61,7.24Z"/>
  </g>
</svg>