<svg xmlns="http://www.w3.org/2000/svg" xmlns:xlink="http://www.w3.org/1999/xlink" width="304" height="243" viewBox="0 0 304 243"><defs><linearGradient id="linear-gradient" x1="0.152" y1="0.053" x2="0.74" y2="0.769" gradientUnits="objectBoundingBox"><stop offset="0" stop-color="#2700ff"></stop><stop offset="1" stop-color="#10b6ff"></stop></linearGradient></defs><g id="&#x30B0;&#x30EB;&#x30FC;&#x30D7;_16216" data-name="&#x30B0;&#x30EB;&#x30FC;&#x30D7; 16216" transform="translate(-9839 3404)"><rect id="&#x9577;&#x65B9;&#x5F62;_45" data-name="&#x9577;&#x65B9;&#x5F62; 45" width="304" height="243" rx="15" transform="translate(9839 -3404)" fill="#fff"></rect><path id="&#x9577;&#x65B9;&#x5F62;_51" data-name="&#x9577;&#x65B9;&#x5F62; 51" d="M0,0H304a0,0,0,0,1,0,0V114a15,15,0,0,1-15,15H15A15,15,0,0,1,0,114V0A0,0,0,0,1,0,0Z" transform="translate(9839 -3290)" fill="#f3f7fd"></path><g id="&#x9577;&#x65B9;&#x5F62;_48" data-name="&#x9577;&#x65B9;&#x5F62; 48" transform="translate(9839 -3404)" fill="none" stroke="#2a63b4" stroke-width="3"><rect width="304" height="243" rx="15" stroke="none"></rect><rect x="1.5" y="1.5" width="301" height="240" rx="13.5" fill="none"></rect></g><path id="&#x30D1;&#x30B9;_569" data-name="&#x30D1;&#x30B9; 569" d="M-102.4-5.166a9.192,9.192,0,0,0,2.25,1.926A11.26,11.26,0,0,1-99-5.382a9.684,9.684,0,0,1-2.862-2.25,14.543,14.543,0,0,0,1.71-2.988,8.514,8.514,0,0,1,.414-.81l-1.008-1.08a6.715,6.715,0,0,1-1.044.054h-.63v-1.4a7.461,7.461,0,0,1,.108-1.386h-2.5a8.424,8.424,0,0,1,.108,1.368v1.422h-.864a10.184,10.184,0,0,1-1.4-.072v2.322a12.208,12.208,0,0,1,1.548-.072h2.718a9.426,9.426,0,0,1-1.89,2.646,12.433,12.433,0,0,1-2.97,2.25,8.812,8.812,0,0,1,1.026,2.214A11.9,11.9,0,0,0-104.724-4.5V-.36a13.409,13.409,0,0,1-.108,1.926h2.52a12.875,12.875,0,0,1-.09-1.872Zm7.794-2.97h1.656c.63,0,1.17.036,1.782.09v-2.43a11.825,11.825,0,0,1-1.782.09h-1.656v-2.826a13.65,13.65,0,0,1,.108-2h-2.646a17.384,17.384,0,0,1,.108,2v2.826H-98.19a15.653,15.653,0,0,1-1.764-.09v2.43c.594-.054,1.17-.09,1.764-.09h1.152V-1.35h-1.746a17.834,17.834,0,0,1-2.088-.09V1.026A19.084,19.084,0,0,1-98.82.918h6.03a20.628,20.628,0,0,1,2.106.108V-1.44a17.56,17.56,0,0,1-2.124.09h-1.8ZM-73.926-1.6c0,.63-.09.7-1.044.7A21.657,21.657,0,0,1-77.2-1.08a6.738,6.738,0,0,1,.684,2.394c.72.018,1.242.036,1.692.036,2.646,0,3.276-.4,3.276-2.052V-11.088a12.359,12.359,0,0,1,.09-1.818c-.648.054-1.08.072-2.178.072h-4.446c.018-.378.036-.486.054-.918a8.654,8.654,0,0,1,.126-1.512h-2.628a7.33,7.33,0,0,1,.126,1.548,8,8,0,0,1-.036.882h-4.23c-1.026,0-1.53-.018-2.232-.072a16.724,16.724,0,0,1,.072,1.8V-.756a16.472,16.472,0,0,1-.126,2.268h2.592A15.884,15.884,0,0,1-84.456-.7V-4.446A7.1,7.1,0,0,1-83.232-2.43a9.852,9.852,0,0,0,4-4.68A13.6,13.6,0,0,0-75.15-2.862a11.7,11.7,0,0,1,1.224-2.052Zm0-9.072v5.508a11.026,11.026,0,0,1-4.518-4.662,8.3,8.3,0,0,0,.144-.846Zm-10.53,0h3.816a8.564,8.564,0,0,1-1.4,3.888,7.335,7.335,0,0,1-2.412,2.142Zm26.676-.684a3.5,3.5,0,0,1,1.674.576A4.374,4.374,0,0,1-54.18-7.02a4.944,4.944,0,0,1-2.484,4.428,9.024,9.024,0,0,1-3.564.864A7.38,7.38,0,0,1-58.9.828,12.849,12.849,0,0,0-56.034.09a7.061,7.061,0,0,0,4.518-6.948c0-4.212-2.88-6.912-7.4-6.912a8.35,8.35,0,0,0-6.336,2.592,7.765,7.765,0,0,0-2.016,5.346c0,3.1,1.584,5.274,3.816,5.274,1.548,0,2.736-1.062,3.744-3.348A25.4,25.4,0,0,0-57.78-11.358Zm-2.628.036a23.174,23.174,0,0,1-1.44,5.8c-.576,1.458-1.134,2.16-1.656,2.16-.7,0-1.278-1.1-1.278-2.448a5.9,5.9,0,0,1,2.214-4.608A4.045,4.045,0,0,1-60.408-11.322Zm19.566,3.456v.7H-44.46a12.09,12.09,0,0,1-1.8-.09v1.818a16.724,16.724,0,0,1,1.8-.072h3.618v.684h-4.626A17.585,17.585,0,0,1-47.7-4.932v2.016a20.942,20.942,0,0,1,2.25-.108h2.988a12.788,12.788,0,0,1-5.652,2.3,7.79,7.79,0,0,1,1.26,2.07,16.6,16.6,0,0,0,3.51-1.458,10.615,10.615,0,0,0,2.556-1.908c-.036.648-.036.7-.036,1.134v.72a13.245,13.245,0,0,1-.108,1.8h2.412a12.178,12.178,0,0,1-.108-1.8V-.9c0-.45,0-.54-.036-1.152a13.673,13.673,0,0,0,6.408,3.4A8.493,8.493,0,0,1-31.068-.81a12.673,12.673,0,0,1-5.886-2.214H-33.7a20.718,20.718,0,0,1,2.214.108V-4.932a16.822,16.822,0,0,1-2.232.108h-4.9v-.684h3.834a16.724,16.724,0,0,1,1.8.072V-7.254a12.693,12.693,0,0,1-1.8.09H-38.61v-.7h4.68a17.38,17.38,0,0,1,1.8.072V-9.7a15.891,15.891,0,0,1-1.8.072H-35.8c.18-.342.2-.378.522-1.062h1.656c.882,0,1.638.036,2.2.09V-12.69a15.368,15.368,0,0,1-2.07.108h-.252a14.766,14.766,0,0,0,1.008-1.6l-2.178-.774a9.965,9.965,0,0,1-1.224,2.376h-.846v-1.224a8.918,8.918,0,0,1,.09-1.368h-2.322a8.046,8.046,0,0,1,.072,1.26v1.332h-1.062v-1.332a11.317,11.317,0,0,1,.054-1.26h-2.3a9.46,9.46,0,0,1,.09,1.368v1.224h-.792a11.968,11.968,0,0,0-1.278-2.34l-2.16.774a7.407,7.407,0,0,1,1.1,1.566h-.27a15.628,15.628,0,0,1-2.052-.108V-10.6c.558-.054,1.3-.09,2.16-.09h1.782a9.217,9.217,0,0,1,.54,1.062h-1.98A15.54,15.54,0,0,1-47.106-9.7v1.908a17.011,17.011,0,0,1,1.782-.072ZM-41-9.63c-.162-.45-.252-.648-.432-1.062h3.672a10.16,10.16,0,0,1-.468,1.062Zm21.69,4.086a12.4,12.4,0,0,1-1.44-.054V-3.42a7.832,7.832,0,0,1,1.3-.072h.9C-19.242-2-20.394-1.08-22.59-.27a8.4,8.4,0,0,1,1.332,1.926c2.772-1.242,4.194-2.7,5.04-5.148h1.926a10.017,10.017,0,0,1-.2,1.908c-.162.7-.342.882-.9.882a11.466,11.466,0,0,1-2.034-.234,6.97,6.97,0,0,1,.522,2.2q1.161.108,1.89.108c1.458,0,1.98-.27,2.358-1.242a16.824,16.824,0,0,0,.648-4.608c.036-.468.036-.486.054-.612.018-.306.018-.306.036-.5a11.093,11.093,0,0,1-1.386.054h-2.466a3.435,3.435,0,0,0,.054-.5,1.583,1.583,0,0,1,.036-.252c.018-.2.018-.2.036-.324.018-.144.018-.144.036-.27l-1.818-.018A10.525,10.525,0,0,0-15.912-7.7a12.648,12.648,0,0,0,3.906,1.548,7.674,7.674,0,0,1,.972-2.25,12.3,12.3,0,0,1-3.15-.738,7.739,7.739,0,0,0,1.6-2.61,11.248,11.248,0,0,1,1.188.054v-2.178a13.625,13.625,0,0,1-1.962.108h-3.456c.18-.4.324-.756.4-.918l.108-.27-2.232-.414a5.9,5.9,0,0,1-.54,1.584,9.908,9.908,0,0,1-2.556,3.33,6.786,6.786,0,0,1,1.584,1.44,15.05,15.05,0,0,0,1.314-1.476,7.193,7.193,0,0,0,1.152,1.458,13.653,13.653,0,0,1-2.412.9l.036-.09-.918-1.116a11.53,11.53,0,0,1-1.314.054h-.7l.252-.27c-.234-.234-.306-.324-.468-.486a20.308,20.308,0,0,0,2.466-2.9,4.1,4.1,0,0,1,.4-.5L-21.4-14.688a9.462,9.462,0,0,1-1.548.072h-3.042a13.7,13.7,0,0,1-1.674-.072v2.2a12.587,12.587,0,0,1,1.494-.072h2.844a5.927,5.927,0,0,1-1.134,1.3c-.5-.432-.72-.594-1.44-1.134l-1.3,1.3a18.4,18.4,0,0,1,2.16,1.818H-26.55a12.837,12.837,0,0,1-1.584-.072v2.178a7.929,7.929,0,0,1,1.44-.09h1.116A9.624,9.624,0,0,1-28.4-3.2,8.348,8.348,0,0,1-27.522-.81a11.485,11.485,0,0,0,2.484-3.672l.018,3.42c0,.324-.09.4-.45.4a8.614,8.614,0,0,1-1.62-.18,6.54,6.54,0,0,1,.432,2.214c.576.036,1.044.054,1.44.054,1.728,0,2.25-.414,2.25-1.764l-.018-4.518A4.85,4.85,0,0,1-21.6-3.744a19.966,19.966,0,0,0,1.26-3.294,4.452,4.452,0,0,1,.162-.558A8.262,8.262,0,0,1-19.4-6.21c.7-.216.936-.288,1.458-.486v.162a9.862,9.862,0,0,1-.072.99Zm4.428-6.21A5.216,5.216,0,0,1-16-10.17a5.438,5.438,0,0,1-1.332-1.584ZM-23-7.272h.9a9.221,9.221,0,0,1-.882,2.232ZM2-9.522C1.71-4.878.612-2.25-1.89-.18A5.829,5.829,0,0,1-.2,1.512C2.592-.936,3.87-4.122,4.23-9.522H5.652A42.311,42.311,0,0,1,5.184-1.98C5-1.044,4.878-.9,4.176-.9A8.844,8.844,0,0,1,2.52-1.1a6.851,6.851,0,0,1,.468,2.34,10.845,10.845,0,0,0,1.35.054A4.987,4.987,0,0,0,5.85,1.152,1.658,1.658,0,0,0,7.11-.036c.468-1.17.756-4.086.81-8.01A36.25,36.25,0,0,1,8.028-11.7a14.83,14.83,0,0,1-1.944.072H4.338a29.325,29.325,0,0,1,.108-3.384H1.98a8.466,8.466,0,0,1,.108,1.638c0,.36,0,.72-.018,1.746H1.8a10.956,10.956,0,0,1-1.3-.054V-13.14a11.971,11.971,0,0,1-1.782.09H-2.52v-.612a9.108,9.108,0,0,1,.09-1.494H-4.878a8.466,8.466,0,0,1,.09,1.494v.612H-6.3a12.151,12.151,0,0,1-1.764-.09v2.268c.576-.054,1.08-.09,1.674-.09h5.364c.666,0,1.044,0,1.422.036V-9.45a8.7,8.7,0,0,1,1.368-.072Zm-8.46,3.906A16.253,16.253,0,0,1-4.77-4a9.742,9.742,0,0,1-3.8,3.438A8.186,8.186,0,0,1-7.182,1.4a13.081,13.081,0,0,0,3.87-3.762c.45.54.648.792,1.242,1.62L-.45-2.412c-.738-.846-1.008-1.152-1.692-1.908A23.785,23.785,0,0,0-1.116-6.84c.288.378.432.558.864,1.044A8.708,8.708,0,0,1,1.26-7.326a10.115,10.115,0,0,1-2.394-3.51l-1.782.81a14.889,14.889,0,0,0,1.71,3.078L-3.114-7.9a7.922,7.922,0,0,1-.63,1.98c-.486-.45-.648-.594-1.278-1.116Zm.378-5.256A7.13,7.13,0,0,1-7-9.018a6.859,6.859,0,0,1-1.44,1.566A6.234,6.234,0,0,1-7.182-5.49a12.085,12.085,0,0,0,3.06-4.572Zm21.78.738a22.818,22.818,0,0,0-2.088-1.746L11.97-10.4a13.072,13.072,0,0,1,2.754,2.52L16.29-9.432a17.533,17.533,0,0,1,1.854,1.62c-.468.432-.648.594-1.242,1.08h-.5L15.8-8.262A13.63,13.63,0,0,1,11.61-6.534l.756,2.268A25.822,25.822,0,0,0,15.66-5.814l.18,1.08c.216-.018.216-.018,2.7-.2v1.116H13.5a14.083,14.083,0,0,1-1.98-.108V-1.6c.81-.072,1.422-.108,2.232-.108H18.54V-.18a11.462,11.462,0,0,1-.126,1.836h2.61A11.02,11.02,0,0,1,20.9-.18V-1.71h5.076a20.59,20.59,0,0,1,2.232.108V-3.924a13.2,13.2,0,0,1-1.89.108H20.9v-1.26c.954-.072.954-.072,1.494-.126.108.288.144.4.27.72l1.854-.684c-.576-1.062-.576-1.062-.828-1.494a15.11,15.11,0,0,1,2.934,2.466l1.512-1.8A20.959,20.959,0,0,0,24.84-8.262c.252-.2.468-.36.594-.45.288-.216.468-.36.54-.414a16.225,16.225,0,0,0,1.494-1.314l-1.71-1.44A15.069,15.069,0,0,1,22.734-9.4l1.476,1.62-.684.792c-.306-.486-.5-.774-1.08-1.584l-1.53.648c.306.5.414.666.594.972-.81.072-1.494.126-2.016.144a15.488,15.488,0,0,0,1.224-1.08l.288-.27a21.86,21.86,0,0,0,2.106-2.16L21.4-11.43a19.988,19.988,0,0,1-1.836,2.214c-.216-.216-.378-.378-.612-.594A12.223,12.223,0,0,0,20.5-11.916h5.634c.81,0,1.35.018,1.926.072v-2.25a19.175,19.175,0,0,1-2.286.108H20.934v-.2a5.058,5.058,0,0,1,.108-1.062H18.45a5.058,5.058,0,0,1,.108,1.062v.2H14a19.138,19.138,0,0,1-2.25-.108v2.25c.576-.054,1.116-.072,1.89-.072H18.18a5.675,5.675,0,0,1-.63.936c-.234-.162-.324-.234-.63-.45ZM41.274-6.588a27.979,27.979,0,0,0,6.012-4.086,3.223,3.223,0,0,1,.324-.252l-1.8-1.89a15.138,15.138,0,0,1-4.536,3.564V-12.78a17.837,17.837,0,0,1,.108-2.268H38.736a18.433,18.433,0,0,1,.108,2.268V-.954c0,1.764.558,2.106,3.474,2.106,2.9,0,3.924-.18,4.518-.828.558-.612.792-1.674.918-4.284a10.506,10.506,0,0,1-2.286-.792c-.054,2.106-.18,2.916-.468,3.312-.2.27-.828.378-2.178.378-1.224,0-1.548-.108-1.548-.54ZM33.642-.846c0,.864-.036,1.584-.108,2.376h2.592c-.072-.756-.108-1.6-.108-2.358V-10.62a30.786,30.786,0,0,0,1.242-3.006c.144-.378.18-.486.378-1.008l-2.466-.7a12.95,12.95,0,0,1-1.8,4.41A12.775,12.775,0,0,1,31-7.956,13.885,13.885,0,0,1,32.022-5.31a16.443,16.443,0,0,0,1.656-2.016c-.036,1.3-.036,1.494-.036,1.944ZM52.218-10.71a1.554,1.554,0,0,1,.27-.018h.252a1.125,1.125,0,0,0,.306.018c.054,0,.342,0,.684.018.522.018.666.018,1.674.018a2.758,2.758,0,0,0-.27.45,16.467,16.467,0,0,1-3.51,4.212l1.944,1.926a10.966,10.966,0,0,1,1.638-1.728A6.009,6.009,0,0,1,58.752-7.6a.82.82,0,0,1,.918.72A13.919,13.919,0,0,0,57.042-5.49a4.211,4.211,0,0,0-2.088,3.222,2.925,2.925,0,0,0,.7,1.944c.828.936,2.322,1.332,4.968,1.332A33.308,33.308,0,0,0,65.25.684a6.823,6.823,0,0,1,.9-.09l-.2-2.754a16.515,16.515,0,0,1-5.526.81c-1.962,0-2.736-.324-2.736-1.152a1.678,1.678,0,0,1,.846-1.3,9.34,9.34,0,0,1,1.44-.774.579.579,0,0,1,.018.144,13.429,13.429,0,0,1-.108,2.088l2.5-.072a10.91,10.91,0,0,1-.054-1.206V-4.842l-.018-.594c2.178-.738,2.178-.738,2.61-.846A13.627,13.627,0,0,1,66.96-6.75L66.006-9.2a6.126,6.126,0,0,1-1.4.54c-.81.27-.9.306-1.6.558-.468.162-.792.27-.954.324a2.441,2.441,0,0,0-2.682-1.818,4.59,4.59,0,0,0-2.484.7,12.917,12.917,0,0,0,1.17-1.782c1.818-.054,4.158-.2,5.472-.36.864-.09.864-.09,1.422-.144l-.108-2.43a24.964,24.964,0,0,1-4.644.594,10.9,10.9,0,0,0-1.116.072c.072-.144.072-.162.144-.324a9.229,9.229,0,0,1,.666-1.494l-2.79-.252a7.171,7.171,0,0,1-.648,2.106h-.9a16.1,16.1,0,0,1-3.294-.234ZM75.69-15.246a7.418,7.418,0,0,1-1.224,1.71,7.91,7.91,0,0,0-.522-.7c-.5-.612-.5-.612-.648-.81l-1.908,1.242a9.442,9.442,0,0,1,1.494,1.818A12.405,12.405,0,0,1,70.7-10.44a7.03,7.03,0,0,1,1.062,2.106A17.009,17.009,0,0,0,73.854-9.9a9.12,9.12,0,0,1,.378,1.656,13.214,13.214,0,0,1-3.438,3.42,8.009,8.009,0,0,1,.918,2.232,11.692,11.692,0,0,0,2.754-2.826v.432a16.861,16.861,0,0,1-.216,3.708.7.7,0,0,1-.792.5,9.521,9.521,0,0,1-1.908-.252A7.835,7.835,0,0,1,72.018,1.3c.7.054,1.062.072,1.4.072,1.314,0,1.962-.18,2.412-.648.648-.666.864-1.89.864-4.806a20.007,20.007,0,0,0-1.1-7.47c.54-.576.9-.99,1.458-1.692A8.011,8.011,0,0,1,77.67-14ZM86.292-1.08V-12.546c0-1.008.018-1.476.072-2.142a17.347,17.347,0,0,1-1.98.09H79.9a18.3,18.3,0,0,1-1.908-.072,16.005,16.005,0,0,1,.072,1.764V-1.08A6.334,6.334,0,0,1,76.7-1.17V1.17a17.793,17.793,0,0,1,2.142-.108h6.7a18.218,18.218,0,0,1,2.142.108V-1.17a5.412,5.412,0,0,1-1.278.09Zm-5.94,0V-3.51h3.654v2.43Zm0-4.536V-8.01h3.654v2.394Zm0-4.464v-2.358h3.654v2.358ZM94.266-12.4a42.428,42.428,0,0,0,8.8,1.1l.342-2.628c-.45.018-.774.018-.9.018a24.892,24.892,0,0,1-7.434-1.026ZM92.79-6.3a25.829,25.829,0,0,1,7.272-1.242,3.629,3.629,0,0,1,1.836.378,1.612,1.612,0,0,1,.756,1.422,3.224,3.224,0,0,1-1.4,2.556c-1.314,1.008-3.258,1.53-6.282,1.71a7.007,7.007,0,0,1,1.1,2.646,15.618,15.618,0,0,0,5.886-1.638,6.217,6.217,0,0,0,3.582-5.346,4.052,4.052,0,0,0-1.242-3.024,5.736,5.736,0,0,0-3.888-1.188,33.588,33.588,0,0,0-5.976.594,14.536,14.536,0,0,1-2.232.306Z" transform="translate(9967 -3367)" fill="#2a63b4"></path><path id="&#x30D1;&#x30B9;_570" data-name="&#x30D1;&#x30B9; 570" d="M3.406-5.8a9.423,9.423,0,0,1,1.287-.065H8.255A10.656,10.656,0,0,1,9.581-5.8v-.975a15.213,15.213,0,0,0,2.34,1.222,8.393,8.393,0,0,1,.871-1.742A11.6,11.6,0,0,1,9.854-8.71a9.353,9.353,0,0,1-2.483-2.34H5.486A6.99,6.99,0,0,1,3.952-9.36,11.561,11.561,0,0,1,.221-7.215,5.665,5.665,0,0,1,1.105-5.59,14.726,14.726,0,0,0,3.406-6.8ZM4.589-7.423h-.26A11.13,11.13,0,0,0,6.461-9.5a10.023,10.023,0,0,0,2.171,2.08H4.589Zm6.1,2.574a5.6,5.6,0,0,1-1.3.078H3.393c-.6,0-1.118-.026-1.677-.078v1.781c.611-.052,1.118-.078,1.664-.078H8.97L7.033-.741A8.907,8.907,0,0,1,6.058.312l1.729.962A12.842,12.842,0,0,1,8.606.13l2.457-3.172c.182-.234.455-.559.6-.7ZM25.493-1.508c-.195-.117-.273-.169-.481-.312A11.641,11.641,0,0,0,21.45-3.627c0-.195-.026-.65-.039-1.352.52-.026,1.365-.091,1.989-.156.78-.078.78-.078.962-.1.117,0,.195-.013.221-.013a1.232,1.232,0,0,1,.273-.026l-.052-1.7a17.893,17.893,0,0,1-3.419.442c0-.208,0-.559-.013-1.066.884-.039,1.7-.117,2.717-.247a8.522,8.522,0,0,1,1.079-.117l-.052-1.7a18.478,18.478,0,0,1-3.731.468,6.714,6.714,0,0,1,.1-1.469H19.526A8.084,8.084,0,0,1,19.6-9.139c-.338.013-.741.026-.9.026A16.969,16.969,0,0,1,15.145-9.4L15.119-7.67a1.436,1.436,0,0,1,.208-.013c.052,0,.169,0,.325.013,1.69.091,2.795.13,3.289.13.195,0,.351,0,.689-.013v.325l.013.754c-.351.013-.806.013-1.079.013a17.167,17.167,0,0,1-3.016-.208l-.013,1.664c.221,0,.338,0,.52.013,1.183.065,1.625.078,2.47.078.273,0,.78-.013,1.144-.013l.026,1.04c-.273-.013-.429-.026-.65-.026-2.314,0-3.705.871-3.705,2.327,0,1.4,1.118,2.2,3.094,2.2C20.514.611,21.5-.1,21.5-1.6a1.436,1.436,0,0,0-.013-.208,9.8,9.8,0,0,1,2.34,1.495,5.3,5.3,0,0,1,.611.6Zm-5.785-.728s.013.156.013.26c0,.754-.325,1.027-1.209,1.027-.767,0-1.222-.247-1.222-.65,0-.468.559-.754,1.469-.754A3.45,3.45,0,0,1,19.708-2.236ZM38.337-5.278a6.968,6.968,0,0,0-1.092-1.755l-1.1.494a8.314,8.314,0,0,1,1.079,1.807Zm1.508-.715a6.694,6.694,0,0,0-1.079-1.664l-1.079.468A8.625,8.625,0,0,1,38.74-5.447ZM28.262-7.254a18.724,18.724,0,0,1,1.911-.234c2.9-.221,2.951-.234,4.251-.377A4.785,4.785,0,0,0,31.681-3.64,3.542,3.542,0,0,0,33.735-.325a8.554,8.554,0,0,0,3.146.806,3.163,3.163,0,0,1,.455.065l.273-2.106c-.156.013-.247.013-.325.013a8.483,8.483,0,0,1-1.924-.3,2.029,2.029,0,0,1-1.69-1.976,4.032,4.032,0,0,1,2.353-3.224,5.99,5.99,0,0,1,2.769-.793,2.837,2.837,0,0,1,.312.013L39-9.815a7.662,7.662,0,0,1-1.456.117c-3.575.156-5.811.26-6.708.325-1.846.117-1.924.117-2.171.117-.052,0-.208,0-.507-.013Zm18.1-3.549a6.389,6.389,0,0,1,.065,1.079,16.029,16.029,0,0,1-.4,3.627,7.946,7.946,0,0,1-2.2,3.809A9.059,9.059,0,0,1,41.34-.507a5.642,5.642,0,0,1,1.144,1.612,11.692,11.692,0,0,0,2.964-2.418,7.981,7.981,0,0,0,2.015-3.861,10.26,10.26,0,0,0,1.742,3.406,12.63,12.63,0,0,0,3.25,2.886A6.264,6.264,0,0,1,53.612-.624,8.167,8.167,0,0,1,51.87-1.768a8.4,8.4,0,0,1-2.106-2.314,9.442,9.442,0,0,1-1.443-5.577A6.431,6.431,0,0,1,48.4-10.8ZM62.8-9.685A8.325,8.325,0,0,1,64.012-7.93L65.143-8.5a7.362,7.362,0,0,0-1.2-1.716Zm1.6-.689a9.384,9.384,0,0,1,1.183,1.7L66.7-9.256a7.664,7.664,0,0,0-1.2-1.651Zm-.78,3.029a8.5,8.5,0,0,1,.91,1.664,12.53,12.53,0,0,1,.962,2.938l1.794-.871A13.093,13.093,0,0,0,65.221-8.1Zm-8.19,1.6c.377-.1,1.261-.26,2.184-.39A19.586,19.586,0,0,1,55.081-.195L56.888.78c.078-.169.091-.195.208-.442a28.731,28.731,0,0,0,2.379-6.617,6.374,6.374,0,0,1,.65-.039c.468,0,.676.052.845.221.234.208.325.546.325,1.17a12.513,12.513,0,0,1-.351,2.964c-.156.52-.351.728-.676.728a5.6,5.6,0,0,1-1.846-.494,5.909,5.909,0,0,1,.169,1.391,5.143,5.143,0,0,1-.026.585,6.82,6.82,0,0,0,1.989.364A1.8,1.8,0,0,0,62.075.026c.663-.715,1.053-2.522,1.053-4.849a3.414,3.414,0,0,0-.611-2.392,2.51,2.51,0,0,0-2.028-.754c-.195,0-.377.013-.689.026.039-.156.039-.169.091-.442.182-1.066.286-1.625.3-1.677a3.2,3.2,0,0,1,.091-.377l-2.015-.2a1.285,1.285,0,0,1,.013.2,17.466,17.466,0,0,1-.325,2.626c-.663.1-2.223.247-2.613.247h-.078Zm21.554.234V-.949c0,.273-.052.3-.559.3-.325,0-1.079-.052-1.742-.13A5.842,5.842,0,0,1,75.127.949c.546.013.806.013,1.183.013A3.539,3.539,0,0,0,78.182.7c.377-.221.52-.572.52-1.287V-5.512h.468a14.79,14.79,0,0,1,1.6.078V-7.15a12.424,12.424,0,0,1-1.651.078H74.776c-.572,0-1.2-.026-1.586-.065L71.8-8.112A9.485,9.485,0,0,1,68.614-4.8a6.189,6.189,0,0,1,.728,1.7,5.722,5.722,0,0,0,1.053-.962c-.013.832-.013.962-.013,1.508V-.585a14.584,14.584,0,0,1-.078,1.69h1.833a14.4,14.4,0,0,1-.078-1.664V-5.642a7.394,7.394,0,0,0,.715-.91c.156-.221.208-.3.325-.442v1.56a15.9,15.9,0,0,1,1.664-.078Zm-5.369-5.6a3.392,3.392,0,0,1-.585.806A8.355,8.355,0,0,1,68.64-8.541a5.477,5.477,0,0,1,.923,1.5A11.955,11.955,0,0,0,72.28-9.217c.065-.065.325-.351.793-.845Zm1.989,2.366a14.963,14.963,0,0,1,1.6-.078h3.5a14.458,14.458,0,0,1,1.508.078v-1.716a11.843,11.843,0,0,1-1.547.078H75.205a12.331,12.331,0,0,1-1.6-.078ZM83.9-4.342a8.127,8.127,0,0,1,1.56-.455,15.634,15.634,0,0,1,3.38-.494,3.144,3.144,0,0,1,1.183.182A1.305,1.305,0,0,1,90.9-3.861,2.2,2.2,0,0,1,89.57-1.885a8.707,8.707,0,0,1-3.64.754h-.195A5.079,5.079,0,0,1,86.4.637a12.26,12.26,0,0,0,2.886-.52c2.184-.663,3.445-2.106,3.445-3.939a3.225,3.225,0,0,0-.494-1.794A3.591,3.591,0,0,0,89-6.968a19.76,19.76,0,0,0-4.056.533,9.419,9.419,0,0,1-1.417.247ZM95.8-7.228c.494-.091,1.2-.182,1.911-.247,2.9-.221,2.964-.221,4.251-.364a4.781,4.781,0,0,0-2.743,4.212A3.547,3.547,0,0,0,101.27-.3a8.331,8.331,0,0,0,3.146.793,2.96,2.96,0,0,1,.455.078l.273-2.106c-.156.013-.247.013-.325.013a8.483,8.483,0,0,1-1.924-.3A2.029,2.029,0,0,1,101.2-3.8a4.05,4.05,0,0,1,2.353-3.237,5.99,5.99,0,0,1,2.769-.793,1.432,1.432,0,0,1,.312.026l-.1-1.989a7.662,7.662,0,0,1-1.456.117c-3.575.156-5.811.26-6.708.325-1.846.117-1.924.117-2.171.117-.052,0-.208,0-.507-.013Zm13.832-2.483a6.906,6.906,0,0,1,.052.871c.078,3.939.26,5.59.793,6.916.546,1.352,1.313,2.041,2.262,2.041,1.2,0,2.041-1.157,2.73-3.7a6.4,6.4,0,0,1-1.534-1.4,10.874,10.874,0,0,1-.689,2.314c-.143.351-.3.533-.468.533-.663,0-1.144-2.3-1.144-5.408a15.256,15.256,0,0,1,.117-2.145ZM116.155-8.4a11.5,11.5,0,0,1,1.872,3.328,13.271,13.271,0,0,1,.793,3.887l1.963-.728a13.321,13.321,0,0,0-2.964-7.267Zm7.02,1.443c.117,0,.156-.013.247-.013l1.391.039h.364A28.64,28.64,0,0,1,122.9-.052l2,.741c.065-.234.169-.533.3-.9.6-1.716.741-2.145,1.131-3.562a31.366,31.366,0,0,0,.754-3.224,14.693,14.693,0,0,0,1.833-.195c.468-.078.468-.078.715-.1l-.065-1.781a13.653,13.653,0,0,1-2.171.364c.039-.26.052-.286.1-.637a9.121,9.121,0,0,1,.26-1.261l-2.054-.169v.221a14.772,14.772,0,0,1-.221,1.924c-.325.013-.338.013-.429.013a10.248,10.248,0,0,1-1.859-.13Zm10.53.026c-.819-.013-.871-.013-1.2-.013a18.392,18.392,0,0,0-4.1.416l.13,1.7a15.806,15.806,0,0,1,3.523-.351,13.89,13.89,0,0,1,1.677.091Zm-5.291,2.808a3.975,3.975,0,0,0-1,2.366,1.932,1.932,0,0,0,.962,1.69,5.125,5.125,0,0,0,2.691.559,14.719,14.719,0,0,0,2.483-.221c.325-.039.429-.052.663-.078l-.13-1.924a9.491,9.491,0,0,1-2.912.507c-1.261,0-1.859-.3-1.859-.91,0-.429.143-.741.663-1.43ZM9.633,7.783a8.345,8.345,0,0,1,.832,1.833l1.014-.429a9.248,9.248,0,0,0-.845-1.807Zm1.43-.533a11.044,11.044,0,0,1,.819,1.781l.975-.429a7.71,7.71,0,0,0-.845-1.742ZM3.419,7.172v.156a9.281,9.281,0,0,1-.1,1.3,16.977,16.977,0,0,1-1.17,4.446A8.965,8.965,0,0,1,.286,15.921a6.659,6.659,0,0,1,1.781,1.313,12.349,12.349,0,0,0,2.3-4.2,23.39,23.39,0,0,0,.988-4.407,8.222,8.222,0,0,1,.169-1.066Zm3.926.364a8.475,8.475,0,0,1,.169.988A22.681,22.681,0,0,0,8.7,13.23a13.7,13.7,0,0,0,2.223,4.017,6.669,6.669,0,0,1,1.729-1.4,11.109,11.109,0,0,1-1.508-2.158,15.082,15.082,0,0,1-1.365-3.6,18.105,18.105,0,0,1-.52-2.912Zm8.216,2.3a13.474,13.474,0,0,1,1.17,3.25l1.742-.533a15.131,15.131,0,0,0-1.287-3.185ZM18.4,9.278a15.275,15.275,0,0,1,1.17,3.159l1.7-.52a12.854,12.854,0,0,0-1.261-3.081ZM22.867,9.1a6.927,6.927,0,0,1-.234,1.495,7.319,7.319,0,0,1-2.9,4.511,9.24,9.24,0,0,1-2.288,1.2,5.627,5.627,0,0,1,1.235,1.547,10.1,10.1,0,0,0,4.134-3.289,12.006,12.006,0,0,0,1.7-4.3,4.6,4.6,0,0,1,.195-.728Zm9.347-2.977A5.01,5.01,0,0,1,31.59,7.77a10.159,10.159,0,0,1-3.406,3.861,4.8,4.8,0,0,1,1.547,1.326,13,13,0,0,0,3-3.315L36.426,9.6c-1.066,3.276-3.094,5.317-6.6,6.682a5.031,5.031,0,0,1,1.339,1.677,13.421,13.421,0,0,0,4.719-3.341,13.889,13.889,0,0,0,2.665-5.07,2.846,2.846,0,0,1,.338-.845l-.949-.936A2.827,2.827,0,0,1,37,7.913l-3.38.039c.143-.286.195-.4.312-.663a5.779,5.779,0,0,1,.377-.767Zm16.107,6.838.026,3.029v.286a10.792,10.792,0,0,1-.078,1.508h2.106a15.419,15.419,0,0,1-.091-1.807l-.065-5.655h.962c.741,0,1.339.026,1.794.065V8.5a9.425,9.425,0,0,1-1.833.091h-.936l-.013-.715V7.38c0-.351.013-.6.039-.975H48.191a10.521,10.521,0,0,1,.065,1.482l.013.689-4.225.013A12.51,12.51,0,0,1,42.172,8.5v1.885a16.341,16.341,0,0,1,1.833-.065l3.055-.013a10.032,10.032,0,0,1-1.677,2.028,13.224,13.224,0,0,1-3.952,2.691,5.059,5.059,0,0,1,1.3,1.638,16.607,16.607,0,0,0,3.822-2.782,12.14,12.14,0,0,0,1.794-2.21c-.026.611-.026.988-.026,1.1ZM65.247,7.211a3.29,3.29,0,0,1-1.183.143H58.11a13.29,13.29,0,0,1-2.041-.091V9.252a15.242,15.242,0,0,1,2.015-.078h5.694A8.659,8.659,0,0,1,59.9,14.6a10.558,10.558,0,0,1-2.8,1.287,5.9,5.9,0,0,1,1.378,1.859,12.958,12.958,0,0,0,4.9-3.419,12.506,12.506,0,0,0,2.626-5.486,1.993,1.993,0,0,1,.247-.65ZM76.908,8.446a9.718,9.718,0,0,1-2.366,2.288,15.813,15.813,0,0,1-5.252,2.483,6.418,6.418,0,0,1,.949,1.586,17.426,17.426,0,0,0,3.536-1.6v3.12a9.56,9.56,0,0,1-.078,1.508h1.989a10.92,10.92,0,0,1-.078-1.508V12.1A15.95,15.95,0,0,0,78.026,9.98a3.378,3.378,0,0,1,.442-.442ZM93.652,16a29.008,29.008,0,0,0-4.225-3.6A16.942,16.942,0,0,0,91.39,8.862a2.137,2.137,0,0,1,.429-.728l-1-1.04a1.95,1.95,0,0,1-1.092.156l-4.433.078h-.247A9.681,9.681,0,0,1,83.46,7.25l.026,1.976a11.711,11.711,0,0,1,1.82-.117l3.8-.065c-.3.663-.52,1.131-.689,1.417a12,12,0,0,1-3.406,3.757A11.746,11.746,0,0,1,82.121,15.8a5.879,5.879,0,0,1,1.248,1.729,14.957,14.957,0,0,0,4.849-3.627,23.151,23.151,0,0,1,3.861,3.783Zm6.981-4.68v.507H98.02a8.732,8.732,0,0,1-1.3-.065v1.313a12.078,12.078,0,0,1,1.3-.052h2.613v.494H97.292a12.7,12.7,0,0,1-1.612-.078v1.456a15.124,15.124,0,0,1,1.625-.078h2.158a9.236,9.236,0,0,1-4.082,1.664,5.626,5.626,0,0,1,.91,1.5,11.986,11.986,0,0,0,2.535-1.053,7.666,7.666,0,0,0,1.846-1.378c-.026.468-.026.507-.026.819v.52a9.567,9.567,0,0,1-.078,1.3h1.742a8.8,8.8,0,0,1-.078-1.3V16.35c0-.325,0-.39-.026-.832a9.875,9.875,0,0,0,4.628,2.457,6.133,6.133,0,0,1,.858-1.56,9.153,9.153,0,0,1-4.251-1.6h2.353a14.963,14.963,0,0,1,1.6.078V13.438a12.149,12.149,0,0,1-1.612.078h-3.536v-.494h2.769a12.078,12.078,0,0,1,1.3.052V11.761a9.167,9.167,0,0,1-1.3.065h-2.769v-.507h3.38a12.552,12.552,0,0,1,1.3.052V9.993a11.477,11.477,0,0,1-1.3.052h-1.352c.13-.247.143-.273.377-.767h1.2c.637,0,1.183.026,1.586.065V7.835a11.1,11.1,0,0,1-1.5.078h-.182a10.664,10.664,0,0,0,.728-1.157L104.91,6.2a7.2,7.2,0,0,1-.884,1.716h-.611V7.029a6.442,6.442,0,0,1,.065-.988H101.8a5.812,5.812,0,0,1,.052.91v.962h-.767V6.951a8.174,8.174,0,0,1,.039-.91H99.463a6.832,6.832,0,0,1,.065.988v.884h-.572a8.643,8.643,0,0,0-.923-1.69l-1.56.559a5.35,5.35,0,0,1,.793,1.131h-.195a11.287,11.287,0,0,1-1.482-.078V9.343c.4-.039.936-.065,1.56-.065h1.287a6.656,6.656,0,0,1,.39.767H97.4a11.223,11.223,0,0,1-1.287-.052v1.378a12.285,12.285,0,0,1,1.287-.052Zm-.117-1.274c-.117-.325-.182-.468-.312-.767h2.652a7.339,7.339,0,0,1-.338.767ZM115.531,13a8.954,8.954,0,0,1-1.04-.039V14.53a5.656,5.656,0,0,1,.936-.052h.65a4.491,4.491,0,0,1-2.912,2.327,6.066,6.066,0,0,1,.962,1.391,5.916,5.916,0,0,0,3.64-3.718h1.391a7.233,7.233,0,0,1-.143,1.378c-.117.507-.247.637-.65.637a8.281,8.281,0,0,1-1.469-.169,5.034,5.034,0,0,1,.377,1.586q.838.078,1.365.078c1.053,0,1.43-.2,1.7-.9a12.151,12.151,0,0,0,.468-3.328c.026-.338.026-.351.039-.442.013-.221.013-.221.026-.364a8.012,8.012,0,0,1-1,.039h-1.781a2.482,2.482,0,0,0,.039-.364,1.143,1.143,0,0,1,.026-.182c.013-.143.013-.143.026-.234s.013-.1.026-.195l-1.313-.013a7.6,7.6,0,0,0,1.092-.572,9.135,9.135,0,0,0,2.821,1.118,5.542,5.542,0,0,1,.7-1.625,8.884,8.884,0,0,1-2.275-.533,5.589,5.589,0,0,0,1.157-1.885,8.123,8.123,0,0,1,.858.039V6.977a9.84,9.84,0,0,1-1.417.078h-2.5c.13-.286.234-.546.286-.663L117.7,6.2l-1.612-.3a4.261,4.261,0,0,1-.39,1.144,7.156,7.156,0,0,1-1.846,2.4A4.9,4.9,0,0,1,115,10.487a10.869,10.869,0,0,0,.949-1.066,5.2,5.2,0,0,0,.832,1.053,9.861,9.861,0,0,1-1.742.65l.026-.065-.663-.806a8.328,8.328,0,0,1-.949.039h-.507l.182-.195c-.169-.169-.221-.234-.338-.351a14.667,14.667,0,0,0,1.781-2.093,2.957,2.957,0,0,1,.286-.364l-.832-.9a6.834,6.834,0,0,1-1.118.052h-2.2a9.9,9.9,0,0,1-1.209-.052V7.978a9.09,9.09,0,0,1,1.079-.052h2.054a4.281,4.281,0,0,1-.819.936c-.364-.312-.52-.429-1.04-.819l-.936.936a13.287,13.287,0,0,1,1.56,1.313h-1.092a9.271,9.271,0,0,1-1.144-.052v1.573a5.726,5.726,0,0,1,1.04-.065h.806a6.951,6.951,0,0,1-2.041,2.938,6.029,6.029,0,0,1,.637,1.729,8.3,8.3,0,0,0,1.794-2.652l.013,2.47c0,.234-.065.286-.325.286a6.221,6.221,0,0,1-1.17-.13,4.723,4.723,0,0,1,.312,1.6c.416.026.754.039,1.04.039,1.248,0,1.625-.3,1.625-1.274l-.013-3.263a3.5,3.5,0,0,1,1,.806,14.42,14.42,0,0,0,.91-2.379,3.215,3.215,0,0,1,.117-.4,5.967,5.967,0,0,1,.559,1c.507-.156.676-.208,1.053-.351v.117a7.122,7.122,0,0,1-.052.715Zm3.2-4.485a3.767,3.767,0,0,1-.806,1.144,3.928,3.928,0,0,1-.962-1.144Zm-5.863,3.237h.65a6.66,6.66,0,0,1-.637,1.612Z" transform="translate(9859 -3248)" fill="#2a63b4"></path><path id="&#x30D1;&#x30B9;_571" data-name="&#x30D1;&#x30B9; 571" d="M-8.525-6.314H-9.691a6.613,6.613,0,0,1-.792-.044,6.98,6.98,0,0,1,.044.924V-.352A11.334,11.334,0,0,1-10.5.946H-9c-.033-.407-.055-.8-.055-1.309V-1.408h2.42v.792c0,.176-.066.22-.308.22A9.7,9.7,0,0,1-8.019-.5,5.108,5.108,0,0,1-7.733.8c.55.033.891.044,1.166.044.572,0,.836-.077,1.034-.275a1.226,1.226,0,0,0,.264-.913V-5.478c0-.374.011-.594.033-.88a4.747,4.747,0,0,1-.616.044A17.945,17.945,0,0,0-4.741-8.47l-1.287-.594A8.491,8.491,0,0,1-7.051-6.908l1.133.594H-7.095v-2.1a4.9,4.9,0,0,1,.055-.891H-8.58a6.006,6.006,0,0,1,.055.9Zm-.528,3.069h2.42v.66h-2.42Zm2.42-1.188h-2.42v-.649h2.42ZM-10.912-8.47A9.706,9.706,0,0,1-9.878-6.347l1.155-.616A12.368,12.368,0,0,0-9.746-9.119Zm6.27.044a8.132,8.132,0,0,1,.055,1.155V-2.8a10.086,10.086,0,0,1-.044,1.144h1.452A9.135,9.135,0,0,1-3.223-2.8V-7.3a7.446,7.446,0,0,1,.055-1.122Zm2.167-.77a8.751,8.751,0,0,1,.066,1.364V-.8c0,.275-.088.33-.528.33A9.168,9.168,0,0,1-4.3-.583a4.746,4.746,0,0,1,.363,1.4c.616.033.858.044,1.111.044A2.481,2.481,0,0,0-1.43.594c.3-.209.407-.506.407-1.144V-7.865A8.972,8.972,0,0,1-.957-9.2ZM7.337-3.949a4.758,4.758,0,0,1,.022-.484c-.121.011-.374.022-.572.022H5.6c-.363,0-.583-.011-.726-.022.011.132.022.451.022.726v2.585a5.9,5.9,0,0,1-.033.7H5.885V-.99H6.963A10.172,10.172,0,0,1,5.533.088a4.536,4.536,0,0,1,1.034.935A8.577,8.577,0,0,0,8.47-.726a5.988,5.988,0,0,0,.462.88c.33.462.638.671,1,.671.715,0,1.078-.737,1.166-2.409a4.918,4.918,0,0,1-.968-.605A3.719,3.719,0,0,1,9.944-.748.038.038,0,0,1,9.933-.77a.652.652,0,0,0-.044-.066,5.136,5.136,0,0,1-.572-1.155,13.642,13.642,0,0,0,.99-2.354c.385-1.243.385-1.243.418-1.342l-1.3-.495a10.105,10.105,0,0,1-.539,2.244c-.11-.99-.165-1.837-.187-2.882h.968a10.53,10.53,0,0,1,1.166.044V-8.151c-.165.022-.209.022-.363.033A5.543,5.543,0,0,0,9.8-9.328L8.844-8.9a5.717,5.717,0,0,1,.484.8H8.679a5.32,5.32,0,0,1,.077-1.2H7.315a6.889,6.889,0,0,1,.066,1.2H4.488A10.73,10.73,0,0,1,3.3-8.151c.011.1.011.132.022.231A7.671,7.671,0,0,0,1.8-9.207L.781-8.261A7.771,7.771,0,0,1,2.453-6.776l.891-.88c.022.319.033.66.033,1.056A35.2,35.2,0,0,1,3.19-2.42,5.348,5.348,0,0,1,2.42.055,5.079,5.079,0,0,1,3.575.979a5.566,5.566,0,0,0,.77-2.2,24.763,24.763,0,0,0,.3-3.784H7.513a14.7,14.7,0,0,0,.451,2.882,6.064,6.064,0,0,1-.627.781V-3.949ZM4.653-6.182V-6.82H7.4c.022.44.022.44.033.638ZM5.819-3.333h.594v1.265H5.819ZM.594-5.4c.22.165.22.165.869.638.165.121.4.33.847.748l.858-1.133a10.679,10.679,0,0,0-1.727-1.3ZM1.749-3.52A10.17,10.17,0,0,1,.55-.22L1.738.825c.242-.594.4-.946.429-1.056a16.552,16.552,0,0,0,.671-2.4Z" transform="translate(10110 -3215)"></path><path id="&#x30D1;&#x30B9;_572" data-name="&#x30D1;&#x30B9; 572" d="M-62.1-3.735-65.286-6.93l-.3.3,3.195,3.213-3.195,3.2.3.3L-62.1-3.1-58.9.072l.288-.3-3.195-3.2,3.195-3.213-.288-.3Zm.009-2.979a.691.691,0,0,0-.693.684.7.7,0,0,0,.693.693.686.686,0,0,0,.684-.693A.684.684,0,0,0-62.091-6.714Zm-2.583,2.6a.686.686,0,0,0-.693.684.7.7,0,0,0,.693.693.686.686,0,0,0,.684-.693A.684.684,0,0,0-64.674-4.113Zm5.148.009a.684.684,0,0,0-.684.684.684.684,0,0,0,.684.684.684.684,0,0,0,.684-.684A.684.684,0,0,0-59.526-4.1ZM-62.1-1.494l-.018.009c-.009,0-.009,0-.018-.009h-.027a.725.725,0,0,0-.63.693.724.724,0,0,0,.693.693A.7.7,0,0,0-61.416-.8.686.686,0,0,0-62.1-1.494ZM-49.284.045c.522,0,.864.018,1.26.054V-.918a8.793,8.793,0,0,1-1.224.063H-51.93a3.646,3.646,0,0,1,1.692-1.89c.8-.54.927-.63,1.206-.837a1.923,1.923,0,0,0,.909-1.656c0-1.17-.927-1.9-2.421-1.9a2.469,2.469,0,0,0-1.953.756,2.631,2.631,0,0,0-.6,1.386l1.071.144a1.865,1.865,0,0,1,.288-.864,1.385,1.385,0,0,1,1.224-.558c.81,0,1.323.387,1.323,1.008,0,.549-.252.882-1.107,1.458a12.837,12.837,0,0,0-1.44,1.053A4.286,4.286,0,0,0-52.947-1.08,4.25,4.25,0,0,0-53.2.09,7.552,7.552,0,0,1-52.1.045Zm5.337.135A2.423,2.423,0,0,0-41.868-.837a4.763,4.763,0,0,0,.648-2.637,6.053,6.053,0,0,0-.351-2.088,2.318,2.318,0,0,0-.567-.873,2.456,2.456,0,0,0-1.8-.693,2.442,2.442,0,0,0-2.187,1.2,5.39,5.39,0,0,0-.531,2.466,6.038,6.038,0,0,0,.351,2.079,2.432,2.432,0,0,0,.567.873A2.435,2.435,0,0,0-43.947.18Zm0-6.444a1.387,1.387,0,0,1,1.332.81,4.96,4.96,0,0,1,.369,1.971,5.516,5.516,0,0,1-.243,1.665,1.774,1.774,0,0,1-.414.729,1.419,1.419,0,0,1-1.035.4,1.406,1.406,0,0,1-1.287-.729,4.616,4.616,0,0,1-.4-2.025,5.551,5.551,0,0,1,.243-1.683A1.775,1.775,0,0,1-45-5.8,1.286,1.286,0,0,1-43.947-6.264ZM-35.964.045c.522,0,.864.018,1.26.054V-.918a8.793,8.793,0,0,1-1.224.063H-38.61a3.646,3.646,0,0,1,1.692-1.89c.8-.54.927-.63,1.206-.837A1.923,1.923,0,0,0-34.8-5.238c0-1.17-.927-1.9-2.421-1.9a2.469,2.469,0,0,0-1.953.756,2.631,2.631,0,0,0-.6,1.386l1.071.144a1.865,1.865,0,0,1,.288-.864A1.385,1.385,0,0,1-37.2-6.273c.81,0,1.323.387,1.323,1.008,0,.549-.252.882-1.107,1.458a12.837,12.837,0,0,0-1.44,1.053A4.286,4.286,0,0,0-39.627-1.08,4.25,4.25,0,0,0-39.879.09a7.552,7.552,0,0,1,1.1-.045Zm4.221-6.183h2.106a7.619,7.619,0,0,1,1.17.072v-1a6.131,6.131,0,0,1-1.17.072h-2.07a8.409,8.409,0,0,1-.954-.036,1.212,1.212,0,0,0,.009.2v.162a4.63,4.63,0,0,1-.036.558l-.2,2.16c-.027.306-.045.405-.126.927l.945.09a.935.935,0,0,1,.252-.387,1.669,1.669,0,0,1,1.17-.468,1.407,1.407,0,0,1,1.53,1.521A1.483,1.483,0,0,1-30.681-.684,1.505,1.505,0,0,1-31.86-1.17a1.343,1.343,0,0,1-.27-.522l-1.044.234a2.484,2.484,0,0,0,.567.936A2.56,2.56,0,0,0-30.69.189a2.365,2.365,0,0,0,2.6-2.493,2.212,2.212,0,0,0-.621-1.647A2.322,2.322,0,0,0-30.393-4.6a2.2,2.2,0,0,0-1.575.576c.027-.162.045-.3.054-.387ZM-25.092-2.2h-.549a6.917,6.917,0,0,1-.954-.054v.873a7.1,7.1,0,0,1,.954-.054h3.123V-.18a4.87,4.87,0,0,1-.054.918h.945a4.736,4.736,0,0,1-.063-.909V-1.44h2.16a7.009,7.009,0,0,1,.954.054v-.873a6.739,6.739,0,0,1-.954.054h-2.16V-3.789h1.539a7.479,7.479,0,0,1,.855.036v-.81a5.8,5.8,0,0,1-.873.045H-21.69V-5.8h1.917a5.737,5.737,0,0,1,.864.045v-.828a5.523,5.523,0,0,1-.864.045h-4.32c.018-.045.054-.117.108-.225.108-.243.108-.243.189-.414.045-.1.054-.117.126-.252l-.9-.2a3.365,3.365,0,0,1-.216.648,5.705,5.705,0,0,1-1.773,2.322,2.352,2.352,0,0,1,.567.648A7.572,7.572,0,0,0-24.507-5.8h1.989v1.287h-1.971c-.234,0-.432-.009-.63-.027a4.7,4.7,0,0,1,.027.522Zm.792,0V-3.789h1.782V-2.2Zm8.667-3.933h2.106a7.619,7.619,0,0,1,1.17.072v-1a6.131,6.131,0,0,1-1.17.072H-15.6a8.41,8.41,0,0,1-.954-.036,1.212,1.212,0,0,0,.009.2v.162a4.63,4.63,0,0,1-.036.558l-.2,2.16c-.027.306-.045.405-.126.927l.945.09a.935.935,0,0,1,.252-.387,1.669,1.669,0,0,1,1.17-.468A1.407,1.407,0,0,1-13-2.268,1.483,1.483,0,0,1-14.571-.684,1.505,1.505,0,0,1-15.75-1.17a1.343,1.343,0,0,1-.27-.522l-1.044.234a2.484,2.484,0,0,0,.567.936A2.56,2.56,0,0,0-14.58.189a2.365,2.365,0,0,0,2.6-2.493A2.212,2.212,0,0,0-12.6-3.951,2.322,2.322,0,0,0-14.283-4.6a2.2,2.2,0,0,0-1.575.576c.027-.162.045-.3.054-.387ZM-4.392-2.169V-.432c0,.2-.063.252-.333.252a9.831,9.831,0,0,1-1.3-.1,3,3,0,0,1,.216.846C-5.373.594-5.067.6-4.77.6A1.625,1.625,0,0,0-3.843.45c.207-.135.3-.369.3-.765V-6.183a8.753,8.753,0,0,1,.036-.981,7.688,7.688,0,0,1-1,.045h-3.6a8.368,8.368,0,0,1-1.008-.045,13.4,13.4,0,0,1,.045,1.44,14.234,14.234,0,0,1-.351,4.113A3.642,3.642,0,0,1-10.431.045a2.778,2.778,0,0,1,.693.684A5.231,5.231,0,0,0-8.4-2.169ZM-8.3-2.934c.045-.531.072-1.044.072-1.368h3.834v1.368Zm.081-2.133V-6.336h3.825v1.269ZM3.987-5.8v.99H2.952a6.534,6.534,0,0,1-.963-.054v.819A7.2,7.2,0,0,1,2.943-4.1h2.3v.882h-2.3a7.851,7.851,0,0,1-.954-.045v.828a7.5,7.5,0,0,1,.936-.054H5.238V-.342c0,.216-.054.243-.4.243a5.847,5.847,0,0,1-.981-.09,2.025,2.025,0,0,1,.189.81c.486.009.738.018.738.018A2.535,2.535,0,0,0,5.634.531c.288-.108.378-.3.378-.783V-2.484H6.2a5.825,5.825,0,0,1,.882.054v-.828a6.829,6.829,0,0,1-.882.045H6.012V-4.1h.207a5.663,5.663,0,0,1,.882.054V-4.86a6.428,6.428,0,0,1-.945.054H4.77V-5.8H5.877a6.287,6.287,0,0,1,.891.045v-.8a6.089,6.089,0,0,1-.9.054H4.77v-.261a3.94,3.94,0,0,1,.054-.693H3.933a4.165,4.165,0,0,1,.054.693V-6.5H3.123a6.005,6.005,0,0,1-.9-.054v.8A9.123,9.123,0,0,1,3.15-5.8ZM-.72-.936A7.966,7.966,0,0,1-.774.1h.8V-.657H.99V-.2h.774c-.018-.216-.027-.432-.027-.9V-6.156c0-.5.009-.675.027-.882a7.675,7.675,0,0,1-.792.027H.054a7.875,7.875,0,0,1-.81-.027,8.076,8.076,0,0,1,.036.891ZM.036-6.3H.99v2.025H.036Zm0,2.718H.99v2.2H.036ZM4.3-.864A8.23,8.23,0,0,0,3.078-2.277l-.639.432A7.386,7.386,0,0,1,3.636-.36Zm8.415-4.914h2.457a7.93,7.93,0,0,1,.936.054v-.837a6.461,6.461,0,0,1-.936.054H12.717v-.2a5.259,5.259,0,0,1,.054-.819h-.963a5.132,5.132,0,0,1,.063.882V-4.77H10.485a9.985,9.985,0,0,1-1.017-.045A5.964,5.964,0,0,1,9.5-4.1v1.6a5.312,5.312,0,0,1-.036.666,8.288,8.288,0,0,1,.891-.036h4.194a8.4,8.4,0,0,1,.891.036,4.838,4.838,0,0,1-.036-.675V-4.1a5.407,5.407,0,0,1,.036-.711,7.172,7.172,0,0,1-1.017.045h-1.71ZM14.6-4.032v1.413H10.323V-4.032ZM9.072.7A6.153,6.153,0,0,0,10.179-1.35l-.738-.279a3.779,3.779,0,0,1-.45,1.035A3.651,3.651,0,0,1,8.325.27ZM11.943.549a12.16,12.16,0,0,0-.252-1.98l-.729.108A10.671,10.671,0,0,1,11.124.306V.7Zm2.2-.135A15.141,15.141,0,0,0,13.4-1.521l-.711.207A9.94,9.94,0,0,1,13.338.711ZM16.407.27a14.9,14.9,0,0,0-1.17-1.926l-.7.288a9.812,9.812,0,0,1,1.1,2.052Zm7.866-7.263L21.015,1.413h.936l3.24-8.406Zm7.425.585a8.9,8.9,0,0,1-1.089-.045,8.96,8.96,0,0,1,.045,1.107V-.405A7.383,7.383,0,0,1,30.6.639h.864V.153h4.563V.639H36.9a5.97,5.97,0,0,1-.054-1.044V-5.346a8.61,8.61,0,0,1,.045-1.107,9.158,9.158,0,0,1-1.1.045H33.669a10.423,10.423,0,0,0,.477-1.107l-.936-.108a4.467,4.467,0,0,1-.441,1.215Zm-.234.756h4.572V-4.5H31.464Zm0,1.89h4.572v1.17H31.464Zm0,1.908h4.572V-.6H31.464Zm9.846-1.08a5.293,5.293,0,0,0,1.206,1.062A3.057,3.057,0,0,1,42.93-2.6,5.5,5.5,0,0,1,41.49-3.78a7.479,7.479,0,0,0,.945-1.557,2.693,2.693,0,0,1,.2-.36l-.369-.4a3.278,3.278,0,0,1-.522.027H41.31v-.774a3.836,3.836,0,0,1,.054-.7h-.918a4.054,4.054,0,0,1,.054.684v.792h-.486a5.771,5.771,0,0,1-.711-.036v.837a6.1,6.1,0,0,1,.747-.036H41.6A5.78,5.78,0,0,1,40.59-3.834a6.658,6.658,0,0,1-1.6,1.3,2.647,2.647,0,0,1,.405.756,7.733,7.733,0,0,0,1.107-.9V-.189a6.359,6.359,0,0,1-.054.918h.909A6.105,6.105,0,0,1,41.31-.18Zm3.771-1.2h1.044c.324,0,.6.018.882.045v-.882a5.584,5.584,0,0,1-.882.054H45.081V-6.642a4.833,4.833,0,0,1,.063-.891H44.19a5.851,5.851,0,0,1,.063.891v1.728H43.5a5.792,5.792,0,0,1-.891-.054v.882c.279-.027.567-.045.891-.045h.756V-.5h-1.08a7.422,7.422,0,0,1-1.008-.054V.387a6.585,6.585,0,0,1,1-.063H46.3A6.792,6.792,0,0,1,47.3.387V-.549A7.153,7.153,0,0,1,46.3-.5H45.081Zm8.757-.855v.774h-.432a3.461,3.461,0,0,1-.567-.036v.711a3.461,3.461,0,0,1,.567-.036h1.575a3.257,3.257,0,0,1,.567.036v-.711a3.371,3.371,0,0,1-.576.036h-.459v-.774h.369a5.168,5.168,0,0,1,.594.027v-.684a3.9,3.9,0,0,1-.594.036h-.369a3.016,3.016,0,0,1,.045-.684h-.765a3.052,3.052,0,0,1,.045.639v.045h-.333a4.212,4.212,0,0,1-.576-.036v.684a5.383,5.383,0,0,1,.576-.027ZM52.65-6.507h3.1V-.378c0,.189-.063.234-.36.234a6.963,6.963,0,0,1-.99-.09,2.653,2.653,0,0,1,.171.792q.527.027.864.027C56.25.585,56.5.4,56.5-.207V-6.282a6.78,6.78,0,0,1,.045-.963,7.681,7.681,0,0,1-.927.036H52.8a8,8,0,0,1-.918-.036,12.106,12.106,0,0,1,.054,1.584,29.1,29.1,0,0,1-.261,4.644A4.224,4.224,0,0,1,51.3.171V-1.512a4.749,4.749,0,0,1,.027-.666c-.072.009-.252.009-.54.018H49.428a4.372,4.372,0,0,1-.594-.027,5.677,5.677,0,0,1,.036.711V-.171A8.692,8.692,0,0,1,48.825.7h.747V.216h1.053v.3h.7A2.747,2.747,0,0,1,51.3.189a2.538,2.538,0,0,1,.648.486,6.725,6.725,0,0,0,.468-1.647A32.477,32.477,0,0,0,52.65-5.5Zm-3.1,4.986h1.08v1.08h-1.08Zm-.675-4.968a5.292,5.292,0,0,1,.693-.036h1.1a5.292,5.292,0,0,1,.693.036v-.765a3.59,3.59,0,0,1-.693.045h-1.1a3.534,3.534,0,0,1-.693-.045Zm-.288,1.278a5.554,5.554,0,0,1,.72-.036h1.566a4.081,4.081,0,0,1,.675.036v-.783a4.735,4.735,0,0,1-.72.036H49.311A3.964,3.964,0,0,1,48.591-6Zm.279,1.242A4.787,4.787,0,0,1,49.455-4h1.3a4.659,4.659,0,0,1,.567.027v-.72a4.269,4.269,0,0,1-.567.027h-1.3a4.687,4.687,0,0,1-.585-.027Zm0,1.251a4.722,4.722,0,0,1,.576-.027h1.287a4.89,4.89,0,0,1,.585.027v-.72a4.333,4.333,0,0,1-.576.027H49.455a4.687,4.687,0,0,1-.585-.027Zm6.381.216a4.826,4.826,0,0,1,.027-.576,5.16,5.16,0,0,1-.621.027H53.586a5.808,5.808,0,0,1-.6-.027,5.873,5.873,0,0,1,.027.612v1.62a4.811,4.811,0,0,1-.036.72h.675V-.747h1.008c.342.018.342.018.432.018a1.1,1.1,0,0,1,.189.009,3.211,3.211,0,0,1-.027-.486Zm-1.6.09h.963v1.017h-.963Zm4.995.576a1.288,1.288,0,0,1,.171-.216,26.478,26.478,0,0,0,1.746-2.124c.378-.5.432-.549.594-.549s.279.081.486.324c.441.522,1.206,1.377,1.521,1.7.594.612,1.8,1.755,2.322,2.2a2.192,2.192,0,0,1,.288.27l.45-1.071a4.728,4.728,0,0,1-.873-.639,26.68,26.68,0,0,1-2.763-2.763c-.324-.369-.522-.594-.621-.684a1.1,1.1,0,0,0-.792-.369c-.441,0-.711.189-1.242.855a16.566,16.566,0,0,1-1.485,1.764,2.25,2.25,0,0,1-.414.369Zm4.788-4.176a6.614,6.614,0,0,1,.936,1.377l.558-.306a6.012,6.012,0,0,0-.936-1.35ZM64.5-6.525a6.869,6.869,0,0,1,.918,1.35l.549-.315A5.6,5.6,0,0,0,65.043-6.8Z" transform="translate(10054 -3180)"></path><path id="&#x30D1;&#x30B9;_568" data-name="&#x30D1;&#x30B9; 568" d="M.744-1.74a3.2,3.2,0,0,0,1,1.332A3.4,3.4,0,0,0,3.876.216a3.182,3.182,0,0,0,2.532-1A6.226,6.226,0,0,0,7.56-4.92a6.035,6.035,0,0,0-.588-2.988A3.21,3.21,0,0,0,4.08-9.528,3.174,3.174,0,0,0,.6-6.288a3.15,3.15,0,0,0,.84,2.256,3.208,3.208,0,0,0,2.34.84,2.949,2.949,0,0,0,2-.66,2.183,2.183,0,0,0,.576-.684c-.024.516-.048.828-.084,1.08A4.232,4.232,0,0,1,5.8-1.944,1.968,1.968,0,0,1,3.972-.888,1.886,1.886,0,0,1,2.52-1.416a1.928,1.928,0,0,1-.384-.708ZM1.932-6.324A2,2,0,0,1,2.5-7.812a2.093,2.093,0,0,1,1.5-.6A2.031,2.031,0,0,1,6.108-6.348,2.06,2.06,0,0,1,4-4.284,1.875,1.875,0,0,1,1.932-6.324ZM12.42-6.492v.648H11.208a7.334,7.334,0,0,1-.984-.048v.936A7,7,0,0,1,11.208-5H12.42v.732H10.608a6.309,6.309,0,0,1-1.068-.06v1a8.9,8.9,0,0,1,1.068-.048h4.464a7.988,7.988,0,0,1,1.044.048v-1a6.083,6.083,0,0,1-1.044.06H13.4V-5h1.14a6.81,6.81,0,0,1,.972.048v-.936a7.139,7.139,0,0,1-.972.048H13.4v-.648h.96a6.343,6.343,0,0,1,1.044.06v-.552h.744a7.67,7.67,0,0,1-.036-.816v-.528a7.993,7.993,0,0,1,.036-.816A13.041,13.041,0,0,1,14.82-9.1H13.476v-.1a4.4,4.4,0,0,1,.06-.876h-1.2a4.531,4.531,0,0,1,.06.888V-9.1H10.812a10.4,10.4,0,0,1-1.224-.048,5.462,5.462,0,0,1,.048.84v.576a5.364,5.364,0,0,1-.048.84h.828v.456a6.5,6.5,0,0,1,1.056-.06Zm-.948-.84c-.384,0-.564-.012-.852-.036v-.864h4.548v.876c-.24.012-.432.024-.8.024H13.4a2.724,2.724,0,0,1,.06-.624h-1.1a2.967,2.967,0,0,1,.06.624Zm-.144,4.6c-.432,0-.732-.012-1.032-.036a10.485,10.485,0,0,1,.048,1.116V-.12A6.742,6.742,0,0,1,10.272.96h1.116V.432h2.976V.816h1.1a6.365,6.365,0,0,1-.06-1.092V-1.7a8.646,8.646,0,0,1,.048-1.068c-.3.024-.552.036-.96.036Zm.06.888h2.976V-.456H11.388Zm5.3-7.4a8.328,8.328,0,0,1,.06,1.3V-3.18a8.509,8.509,0,0,1-.06,1.308h1.152a7.94,7.94,0,0,1-.06-1.308v-4.8a8.354,8.354,0,0,1,.06-1.272ZM18.84-9.96a10.885,10.885,0,0,1,.072,1.476V-.576c0,.312-.1.372-.624.372a10.966,10.966,0,0,1-1.38-.12A3.7,3.7,0,0,1,17.2.732c.456.036.84.048,1.128.048,1.308,0,1.632-.24,1.632-1.26V-8.508A8.278,8.278,0,0,1,20.04-9.96ZM28.3-7.8a2.82,2.82,0,0,1,1.284.336,3.043,3.043,0,0,1,1.644,2.808,3.488,3.488,0,0,1-2.088,3.264A8.091,8.091,0,0,1,27.144-.9,3.138,3.138,0,0,1,27.756.276,8.907,8.907,0,0,0,29.6-.24,4.529,4.529,0,0,0,32.46-4.6c0-2.592-1.836-4.308-4.632-4.308A5.252,5.252,0,0,0,23.8-7.26a5.054,5.054,0,0,0-1.3,3.42c0,1.824.936,3.156,2.208,3.156.936,0,1.668-.7,2.364-2.28A17.688,17.688,0,0,0,28.3-7.8Zm-1.224.012A16.533,16.533,0,0,1,26.04-3.576c-.468,1.092-.912,1.62-1.344,1.62-.576,0-1.032-.828-1.032-1.872a4.082,4.082,0,0,1,1.764-3.384A3.34,3.34,0,0,1,27.072-7.788Zm12.336-.4H36.192a9.785,9.785,0,0,1-1.44-.084v1.224a11.4,11.4,0,0,1,1.44-.072h2.2c-.1,2.52-.528,4-1.524,5.232A6.725,6.725,0,0,1,34.6-.048a3.034,3.034,0,0,1,.816.96A7.606,7.606,0,0,0,39.3-4.6h3.492a17.348,17.348,0,0,1-.312,3.288c-.168.84-.276.972-.792.972a10.485,10.485,0,0,1-1.812-.18A3.322,3.322,0,0,1,40.164.66c.672.06,1.224.1,1.656.1,1.092,0,1.416-.276,1.692-1.4a24.189,24.189,0,0,0,.432-4.14,6.035,6.035,0,0,1,.048-.792L44-5.7a7.624,7.624,0,0,1-1.248.06h-3.3c.084-.672.084-.72.144-1.476h4.44a9.851,9.851,0,0,1,1.428.072V-8.268a9.432,9.432,0,0,1-1.452.084H40.56v-.8A5.434,5.434,0,0,1,40.632-10H39.324a5.023,5.023,0,0,1,.084,1.008Zm8.256,2.676a18.3,18.3,0,0,1,2.268-.408A21.077,21.077,0,0,1,48.7-2.352a12.157,12.157,0,0,1-1.248,2.22l1.164.648c.432-.864.708-1.392.792-1.584a23.648,23.648,0,0,0,1.7-4.944,6.116,6.116,0,0,1,.768-.048c1,0,1.32.36,1.32,1.488a11.278,11.278,0,0,1-.312,2.808c-.192.672-.408.936-.792.936a4.951,4.951,0,0,1-1.752-.5,4.207,4.207,0,0,1,.084.828,3.682,3.682,0,0,1-.024.456,5.624,5.624,0,0,0,1.824.4A1.433,1.433,0,0,0,53.5-.192c.552-.672.876-2.292.876-4.272A2.678,2.678,0,0,0,53.8-6.516,2.2,2.2,0,0,0,52.1-7.1c-.264,0-.456.012-.78.036.036-.156.036-.192.084-.456l.288-1.6c.024-.144.048-.228.084-.384l-1.32-.132a1.387,1.387,0,0,1,.012.2,18.266,18.266,0,0,1-.324,2.46c-1.02.144-2.172.264-2.6.264ZM54.576-7.3a8.4,8.4,0,0,1,1.392,1.98,10.209,10.209,0,0,1,.984,2.6L58.08-3.3a11.383,11.383,0,0,0-2.5-4.5ZM56.7-10.164a9.159,9.159,0,0,1,1.224,1.8l.732-.42a7.461,7.461,0,0,0-1.236-1.752Zm-1.428.684A8.819,8.819,0,0,1,56.52-7.644l.744-.408a8.017,8.017,0,0,0-1.248-1.8Zm10.956,1.3a15.237,15.237,0,0,1-.06,1.608,10.236,10.236,0,0,1-1.152,4.368,6.592,6.592,0,0,1-1.776,2.1A3.282,3.282,0,0,1,64.056.8,9.043,9.043,0,0,0,65.28-.528a8.528,8.528,0,0,0,1.536-3.24,17.055,17.055,0,0,0,.492-4.416h1.9c-.024,2.124-.024,2.52-.072,3.72-.048,1.092-.156,2.316-.264,2.976-.144.924-.24,1.068-.768,1.068a10.988,10.988,0,0,1-1.608-.144A3.328,3.328,0,0,1,66.744.564c.576.048,1.02.072,1.4.072A2.2,2.2,0,0,0,69.12.492a1.152,1.152,0,0,0,.636-.756,30.744,30.744,0,0,0,.516-6.264c.012-.684.024-1.08.024-1.188.012-.756.012-.756.012-.828.012-.312.024-.432.048-.672a8.167,8.167,0,0,1-1.152.06h-3.42a11.033,11.033,0,0,1-1.4-.072v1.116a10.648,10.648,0,0,1,1.4-.072ZM64.4-6.084a6.854,6.854,0,0,1-1.2,1.728,3.653,3.653,0,0,1-.528-.48A12.02,12.02,0,0,0,64.068-7.08a4.344,4.344,0,0,1,.24-.48l-.468-.588a5.677,5.677,0,0,1-.876.048h-.348v-.948a4.25,4.25,0,0,1,.072-1H61.5a5.749,5.749,0,0,1,.072,1V-8.1h-.456a6.572,6.572,0,0,1-1.14-.06v1.068a8.864,8.864,0,0,1,1.116-.06h1.884A8.026,8.026,0,0,1,61.224-4.7a9.092,9.092,0,0,1-1.716,1.356,3.158,3.158,0,0,1,.54.984A11.005,11.005,0,0,0,61.56-3.612c0,.156-.012.576-.012.636V-.54A12.441,12.441,0,0,1,61.476.912h1.188a10.518,10.518,0,0,1-.072-1.44v-3.2a11.473,11.473,0,0,0,1.572,1.284,3.817,3.817,0,0,1,.576-.84,6.316,6.316,0,0,1-.852-.54A14.621,14.621,0,0,0,65.2-5.484Zm8.94,5.22a10.427,10.427,0,0,0,.912-2.412,24.42,24.42,0,0,0,.552-2.8l-1.116-.252a15.844,15.844,0,0,1-.5,2.58A8.414,8.414,0,0,1,72.252-1.5ZM80.3-8.232a19.556,19.556,0,0,0-4.056-1.836l-.636.936A16.223,16.223,0,0,1,79.6-7.2Zm3.3,6.48a20.761,20.761,0,0,0-2.04-4.74l-1.044.5a18.637,18.637,0,0,1,1.956,4.824Zm-6.84-4.536a7.178,7.178,0,0,1,.084-1.164H75.54a8.623,8.623,0,0,1,.084,1.188v5.7c0,1.02.36,1.188,2.436,1.188,1.9,0,2.4-.132,2.7-.72a7.4,7.4,0,0,0,.492-2.736,4.082,4.082,0,0,1-1.14-.408,6.57,6.57,0,0,1-.3,2.448c-.156.252-.54.324-1.632.324-1.176,0-1.416-.06-1.416-.384ZM90.1-5.544a20.89,20.89,0,0,1-5.184,2.412,3.755,3.755,0,0,1,.624,1c.948-.4,1.452-.612,2.076-.936-.012.18-.012.564-.012.744V-.4A10.186,10.186,0,0,1,87.528.912h1.164V.36H93.3V.912h1.164A7.368,7.368,0,0,1,94.392-.4V-3.252a11.782,11.782,0,0,1,.048-1.32,12.349,12.349,0,0,1-1.272.048H91.284c-.2,0-.564,0-1.068.012.54-.324,1.02-.648,1.548-1.032h2.664a11.862,11.862,0,0,1,1.428.072V-6.588a9.421,9.421,0,0,1-1.344.072H93a17.44,17.44,0,0,0,1.992-2c.216-.252.252-.288.384-.432l-1-.66A9.2,9.2,0,0,1,92.868-7.7V-8.76a9.117,9.117,0,0,1-1.332.072h-.96v-.288a5.429,5.429,0,0,1,.072-1.092H89.412a6.7,6.7,0,0,1,.072,1.092v.288H87.66a9.345,9.345,0,0,1-1.368-.072v1.08a9.7,9.7,0,0,1,1.332-.06h1.86v1.224H86.628a9.356,9.356,0,0,1-1.4-.072v1.116a11.359,11.359,0,0,1,1.392-.072Zm.48-.972V-7.74H91.62a7.741,7.741,0,0,1,1.224.06A13.018,13.018,0,0,1,91.5-6.516Zm-1.884,2.9H93.3V-2.58H88.692Zm0,1.944H93.3V-.552H88.692ZM98.076-5.58c.468-.12,1.332-.276,2.268-.408a20.709,20.709,0,0,1-1.236,3.564A12.156,12.156,0,0,1,97.86-.2l1.164.66c.432-.876.708-1.4.792-1.6a23.41,23.41,0,0,0,1.7-4.944,6.116,6.116,0,0,1,.768-.048c1,0,1.32.372,1.32,1.488a11.312,11.312,0,0,1-.312,2.82c-.192.672-.408.936-.792.936a4.766,4.766,0,0,1-1.752-.516,5.7,5.7,0,0,1,.084.828c0,.108-.012.264-.024.456a5.334,5.334,0,0,0,1.824.408,1.433,1.433,0,0,0,1.272-.54,7.862,7.862,0,0,0,.876-4.284,2.678,2.678,0,0,0-.576-2.052,2.256,2.256,0,0,0-1.692-.576c-.264,0-.456.012-.78.036.036-.168.036-.192.084-.468.168-.9.168-.9.2-1.164.036-.192.036-.192.084-.42.024-.156.048-.24.084-.4l-1.32-.132a1.628,1.628,0,0,1,.012.216,18.164,18.164,0,0,1-.324,2.448c-1.02.144-2.172.276-2.6.276Zm7.056-1.836a8.57,8.57,0,0,1,1.392,1.968,10.291,10.291,0,0,1,.984,2.616l1.128-.588a11.383,11.383,0,0,0-2.5-4.5ZM113.28-8.64a20.3,20.3,0,0,0,4.476,1.476l.42-1.14a17.741,17.741,0,0,1-4.308-1.332Zm-.972,1.164c-.024.252-.036.4-.084.672-.228,1.476-.384,2.544-.5,3.42-.06.444-.06.5-.1.708l1.284.036a4.854,4.854,0,0,1,3.648-1.44c1.344,0,2.148.528,2.148,1.392,0,1.1-1.236,1.86-3.012,1.86a9.219,9.219,0,0,1-3.156-.6,4.786,4.786,0,0,1,.132,1.3A11.082,11.082,0,0,0,115.716.3,5.274,5.274,0,0,0,118.8-.492a2.728,2.728,0,0,0,1.188-2.22c0-1.476-1.3-2.436-3.3-2.436A5.7,5.7,0,0,0,112.92-3.9,2.577,2.577,0,0,0,113-4.32c.2-1.428.384-2.424.552-3.084ZM127.9-6.6v2.352H125.9a9.926,9.926,0,0,1-1.368-.072v1.14a10.751,10.751,0,0,1,1.38-.072h1.98V-.48H124.62a12.107,12.107,0,0,1-1.56-.084V.612a13.228,13.228,0,0,1,1.6-.084h7.488a12.223,12.223,0,0,1,1.536.084V-.564a11.62,11.62,0,0,1-1.56.084h-3.072V-3.252h2.22a11.223,11.223,0,0,1,1.392.072V-4.32a11.033,11.033,0,0,1-1.4.072h-2.208V-6.6h2.7a14.963,14.963,0,0,1,1.5.072v-1.14a14.6,14.6,0,0,1-1.524.072h-2.676V-8.652a10.675,10.675,0,0,1,.072-1.368h-1.308a9.178,9.178,0,0,1,.084,1.368V-7.6h-2.16c.18-.48.3-.816.36-1,.084-.288.084-.288.228-.684l-1.188-.3a4.7,4.7,0,0,1-.252,1.116A9.35,9.35,0,0,1,122.8-4.872a3.507,3.507,0,0,1,.888.78A10.649,10.649,0,0,0,125.316-6.6Zm16.572.24a8.945,8.945,0,0,1-1.284,3.012,15.225,15.225,0,0,1-.648-3.888h2.316c.612,0,1.02.024,1.4.06V-8.292a6.537,6.537,0,0,1-1.272.072h-.408l.708-.54A8.325,8.325,0,0,0,143.856-10l-.744.516a6.868,6.868,0,0,1,1.38,1.26H142.5c-.024-.372-.024-.492-.024-.636a7.38,7.38,0,0,1,.072-1.164h-1.212a12.719,12.719,0,0,1,.084,1.8h-3.5c-.612,0-1.068-.024-1.5-.06a12.291,12.291,0,0,1,.06,1.56,24.338,24.338,0,0,1-.336,4.764,5.374,5.374,0,0,1-.864,1.968,2.684,2.684,0,0,1,.876.828,6.208,6.208,0,0,0,.96-2.244,17.593,17.593,0,0,0,.372-3.132H139.5a13.934,13.934,0,0,1-.168,2.244c-.072.4-.18.48-.552.48a6.91,6.91,0,0,1-1.272-.132,3.547,3.547,0,0,1,.24,1.068,7.029,7.029,0,0,0,1.068.072c1.4,0,1.56-.3,1.728-3.324.06-1.176.06-1.176.084-1.428a5.129,5.129,0,0,1-.864.048H137.52c.024-.984.024-.984.024-1.728h3.924a14.135,14.135,0,0,0,.96,4.86,9,9,0,0,1-3.372,2.328,3.05,3.05,0,0,1,.78.864,10.366,10.366,0,0,0,3.072-2.22,5.5,5.5,0,0,0,.924,1.212A2.322,2.322,0,0,0,145.164.6c.624,0,1.008-.648,1.284-2.22a3.036,3.036,0,0,1-.9-.684c-.144,1.068-.3,1.68-.456,1.68A1.535,1.535,0,0,1,144.54-1a5.048,5.048,0,0,1-.9-1.272,12.894,12.894,0,0,0,1.692-3.156,5.574,5.574,0,0,1,.228-.516ZM156.744.06a12.531,12.531,0,0,1-.624-1.4l-2.676-6.8a7.534,7.534,0,0,1-.408-1.176h-1.728a6.987,6.987,0,0,1-.384,1.176l-2.664,6.8a10.357,10.357,0,0,1-.636,1.4h1.68a5.7,5.7,0,0,1,.36-1.248l.54-1.4h3.984l.54,1.4A8.979,8.979,0,0,1,155.076.06Zm-2.94-3.8h-3.228l1.368-3.72c.036-.1.036-.1.24-.72.192.6.192.6.24.72Zm4.56-5.58a8.266,8.266,0,0,1,.1,1.464V-1.4a8.44,8.44,0,0,1-.1,1.464H159.9a8.264,8.264,0,0,1-.1-1.464V-7.86a8.438,8.438,0,0,1,.1-1.464Zm6.816,1a12.983,12.983,0,0,1-2.34-.144l-.024,1.14a1.187,1.187,0,0,1,.18-.012h.072c.168,0,.4.012.7.024l1.164.012h.2c-.348.576-.6.984-.744,1.212a10.081,10.081,0,0,1-1.932,2.184l.924.924a4.808,4.808,0,0,1,.984-1.056,4.289,4.289,0,0,1,2.556-1.248.749.749,0,0,1,.816.768c-2.076.888-3.072,1.848-3.072,2.964a1.655,1.655,0,0,0,.84,1.476A5.175,5.175,0,0,0,168.1.4,21.742,21.742,0,0,0,171.084.18a3.226,3.226,0,0,1,.528-.06l-.12-1.3a10.123,10.123,0,0,1-3.324.492c-1.68,0-2.3-.264-2.3-.984,0-.636.54-1.116,2.016-1.788v.288a14.29,14.29,0,0,1-.072,1.56l1.164-.024a4.292,4.292,0,0,1-.036-.588c0-.084,0-.216.012-.42V-3.2c0-.216,0-.216-.012-.648a19.322,19.322,0,0,1,3.156-1L171.6-6a3.094,3.094,0,0,1-.852.348c-.324.108-.972.348-1.944.708a1.444,1.444,0,0,0-.492-.912,1.809,1.809,0,0,0-1.164-.384,3,3,0,0,0-1.824.624,2.5,2.5,0,0,0-.252.192l-.012-.024a7.22,7.22,0,0,0,1.3-1.872c1.176-.024,2.724-.132,3.564-.24.672-.084.672-.084.936-.108l-.072-1.14a15.06,15.06,0,0,1-3.192.408c-.324.024-.54.036-.6.036h-.06a.338.338,0,0,1-.1.012c.024-.048.06-.132.1-.2.24-.564.24-.564.372-.876a1.21,1.21,0,0,1,.144-.276l-1.32-.168a5.023,5.023,0,0,1-.516,1.548Zm12.78,2.976h.276a6.981,6.981,0,0,1,.912.048v-.924a6.205,6.205,0,0,1-.912.048h-.276v-.864h.276a6.636,6.636,0,0,1,.912.048V-7.92a6.526,6.526,0,0,1-.912.048h-.276V-8.76h.4a6.593,6.593,0,0,1,1.056.06v-.972a9.706,9.706,0,0,1-1.272.06h-1.824a8.778,8.778,0,0,1-1.332-.06,12.479,12.479,0,0,1,.048,1.38v3.576a9.2,9.2,0,0,1-.048,1.2c.336-.024.636-.036,1.08-.036h2.412a21.287,21.287,0,0,1-.156,2.688c-.084.6-.192.744-.528.744a5.14,5.14,0,0,1-1.032-.12,2.5,2.5,0,0,1,.168,1.008,7.066,7.066,0,0,0,.792.048c.732,0,1.068-.156,1.236-.576a12.042,12.042,0,0,0,.432-3.42c.024-1.008.024-1.008.048-1.248a7,7,0,0,1-1.044.048h-.432Zm-.864,0v.972H175.98v-.972Zm0-.828H175.98v-.864H177.1Zm0-1.692H175.98V-8.76H177.1Zm8.076,5.8a27.035,27.035,0,0,0-1.44-2.412,23.074,23.074,0,0,0,.792-2.484c.132-.492.18-.648.252-.852l-1.056-.264a10.736,10.736,0,0,1-.648,2.64c-.48-.7-.516-.744-1.464-1.944l-.708.7a24.493,24.493,0,0,1,1.728,2.328A10.6,10.6,0,0,1,180.9-1.644a2.442,2.442,0,0,1,.792.744,12.6,12.6,0,0,0,1.548-2.508,17.853,17.853,0,0,1,1.128,2.076Zm.18-7.488a7.641,7.641,0,0,1-1.224.084h-3.312c-.468,0-.792-.012-1.056-.036a10.02,10.02,0,0,1,.048,1.092V-.36a10.051,10.051,0,0,1-.072,1.284h1.092V.348h3.42A8.77,8.77,0,0,1,185.46.42V-.7a7.894,7.894,0,0,1-1.2.084h-3.432v-7.92h3.36a7.594,7.594,0,0,1,1.164.072Zm-10.308,6.42A8.919,8.919,0,0,1,174.4-.036l.72.336a10.168,10.168,0,0,0,.636-3.288Zm.864.18a16.875,16.875,0,0,1,.108,1.908c0,.288,0,.48-.024.924l.66-.108a21.163,21.163,0,0,0-.192-2.8Zm.8-.036a11.441,11.441,0,0,1,.336,2.364l.576-.156a14.524,14.524,0,0,0-.4-2.292Zm.768-.072a8.111,8.111,0,0,1,.42,1.692l.48-.228a7.87,7.87,0,0,0-.444-1.6Zm15.72-.36a4.333,4.333,0,0,1-.444,1.3,3.543,3.543,0,0,1-.84-1.044L191-2.664c.048.048.072.084.1.108a10.757,10.757,0,0,0,1.08,1.176,6.19,6.19,0,0,1-2.628,1.344,4.891,4.891,0,0,1,.636.936A6.656,6.656,0,0,0,192.96-.768,10.51,10.51,0,0,0,197.7.84a5.262,5.262,0,0,1,.468-1.1,9.649,9.649,0,0,1-4.608-1.272,5.4,5.4,0,0,0,.672-1.9h2.028a10,10,0,0,1,1.176.048,10.16,10.16,0,0,1-.036-1.032V-5.9c0-.42.012-.708.036-1-.324.024-.588.036-1.128.036h-1.824v-1h2.388a8.331,8.331,0,0,1,1.164.06V-8.9a9.92,9.92,0,0,1-1.284.072h-2.268a10.3,10.3,0,0,1,.048-1.272h-1.188a7.775,7.775,0,0,1,.084,1.272h-1.992A9.271,9.271,0,0,1,190.2-8.9v1.1a7.671,7.671,0,0,1,1.14-.06h2.088c.012.36.012.66.012.672,0,.084,0,.084-.012.324h-1.9c-.588,0-.768-.012-1.092-.036a9.381,9.381,0,0,1,.036.948v1.644c0,.372-.012.6-.036.924a8.216,8.216,0,0,1,1.008-.048Zm.216-2.472c-.024.708-.036.984-.084,1.524H191.52V-5.9Zm2.928,0V-4.38h-1.992c.06-.576.072-.876.1-1.524Zm-8.1,5.46a12.07,12.07,0,0,1-.072,1.416h1.188c-.036-.456-.06-.888-.06-1.4V-7.14c.324-.732.5-1.188.648-1.62.2-.612.2-.612.36-1.092l-1.152-.276a10.3,10.3,0,0,1-2.328,4.944,4.538,4.538,0,0,1,.516,1.116,7.935,7.935,0,0,0,.936-1.452c-.024.684-.036.924-.036,1.38ZM201.768-9.5a4.734,4.734,0,0,1,.048.72c0,.216,0,.444-.012.816-.084,3.516-.1,4.164-.1,4.86,0,1.548.324,2.4,1.1,2.952a3.681,3.681,0,0,0,2.052.528,4.431,4.431,0,0,0,3.492-1.512,7.524,7.524,0,0,0,1.38-2.928,4.342,4.342,0,0,1-1.212-.792,7.113,7.113,0,0,1-.564,1.968,3.239,3.239,0,0,1-3,2.076,1.949,1.949,0,0,1-1.692-.672,3.353,3.353,0,0,1-.324-1.944c0-.816.072-3.468.12-4.5A10.771,10.771,0,0,1,203.2-9.48Zm10.416,2.64a32.222,32.222,0,0,1,3.732-.372,24.37,24.37,0,0,0,2.592-.264,4.718,4.718,0,0,0-1.44.96A4.325,4.325,0,0,0,215.5-3.36a3.088,3.088,0,0,0,1.56,2.724,6.568,6.568,0,0,0,2.712.84c.192.036.24.048.4.072l.18-1.356a1.628,1.628,0,0,1-.216.012,7.062,7.062,0,0,1-1.764-.336,2.161,2.161,0,0,1-1.632-2.064,4.168,4.168,0,0,1,2.64-3.408,5.411,5.411,0,0,1,2.244-.576h.2l-.084-1.26a8.84,8.84,0,0,1-1.392.12c-2.82.12-5.676.288-7.08.384a5.68,5.68,0,0,1-.732.036c-.192,0-.192,0-.42-.012ZM5.412,12.7v.684h-2.4a8.809,8.809,0,0,1-1.236-.06v.96a8.6,8.6,0,0,1,1.236-.06h2.4v.708h-3.3a9.922,9.922,0,0,1-1.4-.072v1.032a12.144,12.144,0,0,1,1.4-.072h2.5a7.023,7.023,0,0,1-1.716,1.092,9.6,9.6,0,0,1-2.388.78,3.4,3.4,0,0,1,.636.972,11.426,11.426,0,0,0,2.472-1.032,7.183,7.183,0,0,0,1.836-1.4c-.024.492-.024.624-.024.9v.66a8.9,8.9,0,0,1-.072,1.236H6.516A8.6,8.6,0,0,1,6.444,17.8v-.684c0-.264,0-.456-.036-.912a9.538,9.538,0,0,0,4.608,2.46,3.551,3.551,0,0,1,.612-1.02A9,9,0,0,1,7.26,15.816H9.936a12.667,12.667,0,0,1,1.416.072V14.856a9.966,9.966,0,0,1-1.428.072H6.456V14.22h2.52a8.975,8.975,0,0,1,1.26.06v-.96a8.871,8.871,0,0,1-1.26.06H6.444V12.7H9.636a9.059,9.059,0,0,1,1.272.06v-1a8.852,8.852,0,0,1-1.272.06H8.124c.2-.4.336-.66.528-1.092H9.936c.588,0,1.02.024,1.4.06V9.768a9.613,9.613,0,0,1-1.356.072H9.5c.216-.3.5-.732.8-1.224l-1.044-.4a6.591,6.591,0,0,1-.888,1.62H7.464V8.964A5.449,5.449,0,0,1,7.524,8H6.408a8.578,8.578,0,0,1,.048.924V9.84H5.436V8.928A8.693,8.693,0,0,1,5.472,8H4.356a5.217,5.217,0,0,1,.072.96V9.84H3.612a7.539,7.539,0,0,0-.984-1.572l-.984.4A6.282,6.282,0,0,1,2.52,9.84H1.956A9.231,9.231,0,0,1,.624,9.768v1.02c.372-.036.8-.06,1.38-.06h1.38A7.207,7.207,0,0,1,3.9,11.82H2.34A8.2,8.2,0,0,1,1.1,11.76v1A8.6,8.6,0,0,1,2.34,12.7Zm-.444-.876a9.013,9.013,0,0,0-.444-1.092H7.5a7.26,7.26,0,0,1-.48,1.092ZM20.952,14.5c.048-.3.072-.432.1-.624.036-.252.036-.264.084-.516l-1.14-.024A.792.792,0,0,1,20,13.5a5.872,5.872,0,0,1-.084,1H18.672a7.488,7.488,0,0,1-1.068-.048v1.044a6.951,6.951,0,0,1,1.008-.048H19.68a3.564,3.564,0,0,1-1.644,1.992,5.67,5.67,0,0,1-1.272.612,2.877,2.877,0,0,1,.636.888,5.254,5.254,0,0,0,3.348-3.492H22.56c-.216,2.268-.24,2.34-.828,2.34a7.769,7.769,0,0,1-1.416-.18,3.093,3.093,0,0,1,.228,1.044,8.509,8.509,0,0,0,1.3.108c1.32,0,1.524-.42,1.8-3.828.012-.228.012-.228.036-.48a5.746,5.746,0,0,1-.948.048ZM24.084,9a10.214,10.214,0,0,1-1.236.06H20.2c.1-.216.156-.348.24-.564.084-.18.144-.336.18-.42L19.584,7.86a3.553,3.553,0,0,1-.252.792,6.567,6.567,0,0,1-1.824,2.436,2.944,2.944,0,0,1,.756.672,10.529,10.529,0,0,0,.972-1.116,5.534,5.534,0,0,0,1.128,1.392,7.992,7.992,0,0,1-2.244.936,4.888,4.888,0,0,1,.24-.66l-.432-.528a7.589,7.589,0,0,1-.864.036H16.3l.288-.3c-.156-.168-.168-.18-.3-.324a11.028,11.028,0,0,0,1.668-1.884c.108-.132.2-.264.264-.336l-.54-.588a6.373,6.373,0,0,1-1.008.036H14.58a7.028,7.028,0,0,1-1.128-.06V9.42A6.523,6.523,0,0,1,14.5,9.36h2.28A5.54,5.54,0,0,1,15.66,10.6c-.336-.288-.516-.444-1.08-.876l-.648.6a8.546,8.546,0,0,1,1.692,1.5h-1.38a6.627,6.627,0,0,1-1.092-.06v1.068a5.929,5.929,0,0,1,1.032-.06h.96a7.4,7.4,0,0,1-2.2,3.276,3.075,3.075,0,0,1,.552,1.044A8.492,8.492,0,0,0,15.408,14.2l.012,3.456c0,.192-.084.264-.336.264a7.045,7.045,0,0,1-1.176-.12,2.809,2.809,0,0,1,.216.876.413.413,0,0,1-.012.108,9.8,9.8,0,0,0,1.092.048c.948,0,1.236-.228,1.236-.948l-.06-5.112h.912a6,6,0,0,1-.708,1.548,2.528,2.528,0,0,1,.756.528,12.94,12.94,0,0,0,.708-1.656,2.641,2.641,0,0,1,.408.708,9.685,9.685,0,0,0,2.664-1.272,8.42,8.42,0,0,0,2.76,1.212,3.24,3.24,0,0,1,.468-1.032,8.127,8.127,0,0,1-2.484-.828,5.55,5.55,0,0,0,1.284-1.992,8.649,8.649,0,0,1,.936.048Zm-2,.984a3.941,3.941,0,0,1-.984,1.464,4.6,4.6,0,0,1-1.188-1.464Zm9.936.216a2.82,2.82,0,0,1,1.284.336,3.043,3.043,0,0,1,1.644,2.808,3.488,3.488,0,0,1-2.088,3.264,8.092,8.092,0,0,1-1.992.492,3.138,3.138,0,0,1,.612,1.176,8.907,8.907,0,0,0,1.848-.516A4.529,4.529,0,0,0,36.18,13.4c0-2.592-1.836-4.308-4.632-4.308a5.252,5.252,0,0,0-4.032,1.644,5.054,5.054,0,0,0-1.3,3.42c0,1.824.936,3.156,2.208,3.156.936,0,1.668-.7,2.364-2.28A17.688,17.688,0,0,0,32.016,10.2Zm-1.224.012a16.533,16.533,0,0,1-1.032,4.212c-.468,1.092-.912,1.62-1.344,1.62-.576,0-1.032-.828-1.032-1.872a4.082,4.082,0,0,1,1.764-3.384A3.34,3.34,0,0,1,30.792,10.212Zm17,.612a6.3,6.3,0,0,1-1.7,1.452l-.108-.132a3.516,3.516,0,0,0-.768-1.152,7.7,7.7,0,0,0,.78-.624h2.052a9.9,9.9,0,0,1,1.14.06V9.4a9.153,9.153,0,0,1-1.14.06H46.92A9.428,9.428,0,0,0,47.7,8.2l-1.068-.288a7.8,7.8,0,0,1-.852,1.548H44.628a16.631,16.631,0,0,0-.876-1.512l-1.032.264a6.7,6.7,0,0,1,.792,1.248h-.864A8.937,8.937,0,0,1,41.52,9.4v1.032a7.306,7.306,0,0,1,1.128-.06h1.908a9.688,9.688,0,0,1-3.444,1.524,2.328,2.328,0,0,1,.528.84,14.591,14.591,0,0,0,2.832-1.26,3.313,3.313,0,0,1,.384.552,11.39,11.39,0,0,1-3.468,1.668,2.825,2.825,0,0,1,.528.852,13.19,13.19,0,0,0,3.276-1.776,4.114,4.114,0,0,1,.192.756,12.758,12.758,0,0,1-4.08,2.208,3.158,3.158,0,0,1,.612.84,13.911,13.911,0,0,0,3.552-2.064c0,.1.012.216.012.372a3.107,3.107,0,0,1-.156,1.188c-.084.168-.288.24-.66.24a7.761,7.761,0,0,1-1.164-.1,2.8,2.8,0,0,1,.276.972c.372.024.54.036.828.036a1.941,1.941,0,0,0,1.44-.372,2.5,2.5,0,0,0,.456-1.8,8.572,8.572,0,0,0-.048-.96,7.984,7.984,0,0,0,2.424,2.292,5.487,5.487,0,0,1,.516-1.068A7.857,7.857,0,0,1,47.676,14.1a9.276,9.276,0,0,1-1.02-1.044,15.147,15.147,0,0,0,2.076-1.6ZM38.448,8.892a11.734,11.734,0,0,1,1.932,2.2l.828-.8A13.552,13.552,0,0,0,39.24,8.16Zm-.06,4.776a4.322,4.322,0,0,1,.828-.06h.72V16.32a8.732,8.732,0,0,1-1.356,1.068c-.132.072-.228.12-.444.228l.516,1.128A18.886,18.886,0,0,0,40.44,17.22a2.623,2.623,0,0,0,1.608,1.188,12.929,12.929,0,0,0,3.2.24c1.272,0,2.844-.024,3.948-.072a4.2,4.2,0,0,1,.336-1.164,37.674,37.674,0,0,1-4.68.24,14.994,14.994,0,0,1-2.34-.144,2,2,0,0,1-1.536-1.14v-2.5a8.76,8.76,0,0,1,.048-1.284,6.749,6.749,0,0,1-.912.048h-.792a5.08,5.08,0,0,1-.936-.06Zm20.46-1.032v4.8c0,.252-.084.3-.54.3a12.166,12.166,0,0,1-1.656-.144,3.8,3.8,0,0,1,.288,1.128c.552.036.972.048,1.4.048,1.248,0,1.6-.252,1.6-1.164V12.636h.576a10.881,10.881,0,0,1,1.38.072v-1.14a9.692,9.692,0,0,1-1.4.072H56.364a10.727,10.727,0,0,1-1.416-.072v1.14a10.981,10.981,0,0,1,1.416-.072ZM53.7,7.908A3.894,3.894,0,0,1,52.92,9,7.674,7.674,0,0,1,51,10.5a3,3,0,0,1,.672.9A11.589,11.589,0,0,0,54.48,8.82c.084-.108.12-.156.2-.252Zm1.728,1.764A10.865,10.865,0,0,1,56.76,9.6h3.312a10.955,10.955,0,0,1,1.3.072V8.544a9.628,9.628,0,0,1-1.32.072H56.76a9.231,9.231,0,0,1-1.332-.072ZM52.7,17.436a11.81,11.81,0,0,1-.084,1.5h1.26a12.122,12.122,0,0,1-.072-1.488V12.66a10.473,10.473,0,0,0,.732-.984,6.3,6.3,0,0,1,.384-.528l-.972-.612a4.648,4.648,0,0,1-.636,1.056,9.683,9.683,0,0,1-2.34,2.208,3.129,3.129,0,0,1,.552,1.032,6.387,6.387,0,0,0,1.2-1.14c-.024.768-.024.9-.024,1.4Zm11.28-4.944a18.3,18.3,0,0,1,2.268-.408,21.077,21.077,0,0,1-1.236,3.564,12.157,12.157,0,0,1-1.248,2.22l1.164.648c.432-.864.708-1.392.792-1.584a23.648,23.648,0,0,0,1.7-4.944,6.116,6.116,0,0,1,.768-.048c1,0,1.32.36,1.32,1.488a11.278,11.278,0,0,1-.312,2.808c-.192.672-.408.936-.792.936a4.951,4.951,0,0,1-1.752-.5,4.207,4.207,0,0,1,.084.828,3.681,3.681,0,0,1-.024.456,5.624,5.624,0,0,0,1.824.4,1.433,1.433,0,0,0,1.272-.54c.552-.672.876-2.292.876-4.272a2.678,2.678,0,0,0-.576-2.052,2.2,2.2,0,0,0-1.692-.588c-.264,0-.456.012-.78.036.036-.156.036-.192.084-.456l.288-1.6c.024-.144.048-.228.084-.384l-1.32-.132a1.387,1.387,0,0,1,.012.2,18.267,18.267,0,0,1-.324,2.46c-1.02.144-2.172.264-2.6.264ZM70.9,10.7a8.4,8.4,0,0,1,1.392,1.98,10.209,10.209,0,0,1,.984,2.6L74.4,14.7a11.383,11.383,0,0,0-2.5-4.5ZM73.02,7.836a9.159,9.159,0,0,1,1.224,1.8l.732-.42A7.461,7.461,0,0,0,73.74,7.464Zm-1.428.684a8.819,8.819,0,0,1,1.248,1.836l.744-.408a8.017,8.017,0,0,0-1.248-1.8Zm5.04,2.58a35.382,35.382,0,0,1,3.732-.372c1.272-.084,1.752-.132,2.592-.252a4.382,4.382,0,0,0-1.44.96A4.3,4.3,0,0,0,79.944,14.6a3.077,3.077,0,0,0,1.548,2.724,6.679,6.679,0,0,0,2.724.852c.192.024.24.036.4.06l.18-1.356a1.628,1.628,0,0,1-.216.012,7.062,7.062,0,0,1-1.764-.336A2.171,2.171,0,0,1,81.18,14.5a4.168,4.168,0,0,1,2.64-3.408,5.411,5.411,0,0,1,2.244-.576,1.387,1.387,0,0,1,.2.012l-.084-1.272a8.84,8.84,0,0,1-1.392.12c-2.82.132-5.7.3-7.08.384-.288.012-.468.024-.684.024-.132,0-.276,0-.468-.012Zm7.4,1.176a8.819,8.819,0,0,1,1.248,1.836l.744-.408a8.017,8.017,0,0,0-1.248-1.8Zm1.428-.684a9.159,9.159,0,0,1,1.224,1.8l.732-.42a7.461,7.461,0,0,0-1.236-1.752Zm4.476-.576a6.359,6.359,0,0,1,.792-.024,29.322,29.322,0,0,0,3.216-.192c.36.768.42.864.564,1.14A23.589,23.589,0,0,1,90.9,12.2a7.6,7.6,0,0,1-1.068-.048l.036,1.1a5.852,5.852,0,0,1,.9-.048,29.678,29.678,0,0,0,4.2-.336,8.991,8.991,0,0,0,1.08,1.56,7.335,7.335,0,0,0-2.208-.3,5.352,5.352,0,0,0-2.772.588,1.924,1.924,0,0,0-1,1.608A1.849,1.849,0,0,0,91,17.916a5.205,5.205,0,0,0,2.748.552,10.675,10.675,0,0,0,3.132-.444c.384-.108.468-.132.7-.18l-.2-1.248a8.719,8.719,0,0,1-3.636.792A4.793,4.793,0,0,1,91.92,17.1a.915.915,0,0,1-.564-.78c0-.768.984-1.2,2.724-1.2a6.025,6.025,0,0,1,2.76.528L97.752,15A12.642,12.642,0,0,1,96.1,12.72a3.106,3.106,0,0,1,.444-.1c.444-.1.444-.1,1.26-.3.276-.06.5-.108.72-.156l-.108-1.1a13.732,13.732,0,0,1-2.784.72c-.288-.552-.36-.708-.54-1.128.432-.072,1.656-.324,2.268-.468a1.773,1.773,0,0,1,.3-.072c.264-.06.264-.06.384-.084l-.1-1.08a17.26,17.26,0,0,1-3.24.756,9.073,9.073,0,0,1-.54-1.548l-1.26.18c.1.168.432.936.66,1.5a20.214,20.214,0,0,1-2.484.144,9.975,9.975,0,0,1-1.188-.036Zm13.548-.96a4.615,4.615,0,0,1,.6-.06c1.824-.072,3.108-.156,3.54-.216l.012.012-.2.2a34.153,34.153,0,0,1-5.46,4.488l.7,1.068a7.573,7.573,0,0,1,4.992-2.028c1.524,0,2.46.636,2.46,1.692a1.747,1.747,0,0,1-.732,1.428,3,3,0,0,1-.9.432,3.374,3.374,0,0,0-.552-1.1,2.508,2.508,0,0,0-2.04-1,1.737,1.737,0,0,0-1.932,1.584,1.637,1.637,0,0,0,.72,1.356,4.046,4.046,0,0,0,2.22.5,5.8,5.8,0,0,0,2.82-.66,2.861,2.861,0,0,0,1.608-2.58c0-1.6-1.308-2.628-3.324-2.628a5.877,5.877,0,0,0-2.7.636l-.024-.036a25.731,25.731,0,0,0,3.8-3.156A2.57,2.57,0,0,1,109.7,9.5l-.648-.9a1.323,1.323,0,0,1-.672.144c-1.176.1-2.592.156-3.684.156a7.076,7.076,0,0,1-1.272-.072Zm3.912,7.308a3.975,3.975,0,0,1-.684.048c-1.008,0-1.62-.324-1.62-.852,0-.384.312-.624.8-.624C106.656,15.936,107.16,16.416,107.4,17.364Zm11.232-9.156a6.723,6.723,0,0,1,.048,1.02c.024,1.632.132,4.884.18,5.376l.012.06a4.252,4.252,0,0,0-1.164-.132c-1.716,0-2.892.84-2.892,2.064s1,1.944,2.676,1.944c1.74,0,2.628-.7,2.628-2.052a1.871,1.871,0,0,0-.036-.42c.144.084.216.108.384.192a8.421,8.421,0,0,1,1.692,1.032,3.962,3.962,0,0,1,.876.8l.78-1.152c-.192-.12-.228-.156-.6-.408a10.368,10.368,0,0,0-3.156-1.668c-.072-1.008-.108-1.944-.132-2.832,1.02-.036,1.788-.1,2.832-.228a6.626,6.626,0,0,1,.756-.084l-.108-1.224a12.72,12.72,0,0,1-3.5.432c-.024-.636-.024-.672-.024-.924a14.12,14.12,0,0,1,.072-1.8Zm.264,7.56s.024.372.024.516a1.172,1.172,0,0,1-.12.612,1.491,1.491,0,0,1-1.332.552c-.816,0-1.4-.348-1.4-.852,0-.564.672-.96,1.62-.96A4.58,4.58,0,0,1,118.9,15.768ZM129.144,9.5a24.559,24.559,0,0,0,5.364.768l.18-1.212a16.085,16.085,0,0,1-5.148-.72ZM128,13.464a16.554,16.554,0,0,1,4.74-.816,2.272,2.272,0,0,1,1.488.4,1.293,1.293,0,0,1,.48,1.008,2.523,2.523,0,0,1-1.128,2.064,7.55,7.55,0,0,1-3.912,1.2,3.284,3.284,0,0,1,.516,1.236,9.255,9.255,0,0,0,3.66-1.128,3.943,3.943,0,0,0,2.2-3.348,2.343,2.343,0,0,0-1.116-2.088,4.223,4.223,0,0,0-2.172-.48,20.826,20.826,0,0,0-3.732.42,11.172,11.172,0,0,1-1.32.2Zm12.8-4.992a7.989,7.989,0,0,1-.168,1.068,21.228,21.228,0,0,0-.516,4.68,19.552,19.552,0,0,0,.312,3.54,5.085,5.085,0,0,1,.06.528l1.236-.084a2.557,2.557,0,0,1-.012-.264,9.857,9.857,0,0,1,1.032-3.492l-.828-.372a7.863,7.863,0,0,0-.648,1.848h-.024v-1.08a28.65,28.65,0,0,1,.228-3.276,13.069,13.069,0,0,1,.66-2.928Zm2.676,2.52c.132.012.168.024.336.036a12.721,12.721,0,0,0,1.752.1,20.833,20.833,0,0,0,2.544-.156c.684-.084.756-.1.84-.1l-.06-1.224a12.623,12.623,0,0,1-3.36.336,8.227,8.227,0,0,1-2.04-.192Zm.84,2.124a3.774,3.774,0,0,0-1.08,2.352,1.936,1.936,0,0,0,.372,1.176,3.422,3.422,0,0,0,2.88.984,14.134,14.134,0,0,0,2.472-.228c.264-.048.3-.048.456-.072l-.108-1.284a8.037,8.037,0,0,1-2.82.444c-1.356,0-2.064-.4-2.064-1.14A2.764,2.764,0,0,1,145.3,13.6Zm10.668-4.992a11.033,11.033,0,0,1-.4,2.148c-.156.012-.372.012-.72.012a8.662,8.662,0,0,1-1.524-.1V11.34h.432c.48.012.48.012.816.012s.456,0,.708-.012a18.409,18.409,0,0,1-1.164,2.916,9.515,9.515,0,0,1-1.164,1.92l1.152.66c.048-.108.132-.252.228-.42.468-.828.576-1.032.852-1.62a23.817,23.817,0,0,0,1.32-3.492c.78-.06,1.488-.144,1.932-.228a2.734,2.734,0,0,1,.408-.06l-.048-1.164a9.324,9.324,0,0,1-2,.36c.132-.528.192-.78.276-1.164a4.481,4.481,0,0,1,.192-.78Zm7.428,3.192a17.277,17.277,0,0,0-3.3-1.584l-.6.948a14.072,14.072,0,0,1,3.348,1.668Zm-.012,5.376a.971.971,0,0,1-.18-.156c-.108-.084-.108-.1-.372-.3a8.077,8.077,0,0,0-1.98-1.152,14.915,14.915,0,0,1-.12-1.74,3.76,3.76,0,0,1,.156-1.152l-1.164-.084a5.767,5.767,0,0,0-.1,1.14c0,.468.024.924.072,1.536a6.075,6.075,0,0,0-1.212-.132c-1.464,0-2.5.816-2.5,1.992,0,1.14.972,1.86,2.508,1.86a2.565,2.565,0,0,0,1.956-.708,2.155,2.155,0,0,0,.432-1.26,1.947,1.947,0,0,0-.012-.252,6.813,6.813,0,0,1,1.932,1.536Zm-3.636-.816c0,.012.024.324.024.456,0,.732-.432,1.1-1.32,1.1-.828,0-1.308-.312-1.308-.852s.552-.912,1.416-.912A3.586,3.586,0,0,1,158.772,15.876Zm7.956-7.716a2.82,2.82,0,0,1-.036.408l-.192,1.524a27.147,27.147,0,0,0-.18,3.072c0,.2.024,1.116.036,1.428v.24a.646.646,0,0,1-.012.132l1.212-.024c-.012-.24-.012-.24-.012-.276a6.02,6.02,0,0,1,1.5-3.9,1.85,1.85,0,0,1,1.4-.7c1.08,0,1.692,1.02,1.692,2.82a3.83,3.83,0,0,1-2.04,3.8,6.7,6.7,0,0,1-2.568.708,3.715,3.715,0,0,1,.624,1.176,10.2,10.2,0,0,0,2.268-.684,5,5,0,0,0,2.964-4.836,5,5,0,0,0-.8-3.1,2.4,2.4,0,0,0-2.028-1.068,2.836,2.836,0,0,0-2.328,1.344,4.457,4.457,0,0,0-.72,1.584c-.06.216-.06.216-.084.3h-.036c.024-.348.06-.672.156-1.344a11.6,11.6,0,0,1,.468-2.52Zm20.364,8.676a4.113,4.113,0,0,1-.42-.276,11.044,11.044,0,0,0-3.3-1.716c-.012-.144-.024-.684-.06-1.608.72-.036,1.584-.108,2.076-.18a10.577,10.577,0,0,1,1.188-.144l-.048-1.128a15.634,15.634,0,0,1-3.228.456c-.012-.948-.012-.948-.024-1.368,1.116-.06,1.656-.12,2.652-.252a6.877,6.877,0,0,1,.888-.108l-.048-1.128a15.245,15.245,0,0,1-3.48.48,8.5,8.5,0,0,1,.084-1.56h-1.3a12,12,0,0,1,.048,1.6c-.36.012-.756.012-.948.012a16.775,16.775,0,0,1-3.168-.228L178,10.8a1.187,1.187,0,0,1,.18-.012,2.365,2.365,0,0,1,.252.012c.876.06,2.244.12,2.928.12.228,0,.42,0,.78-.012l.024,1.38c-.372.012-.756.024-1.02.024a15.367,15.367,0,0,1-2.784-.192l-.012,1.08h.1c.084,0,.192,0,.336.012.912.072,1.368.084,2.112.084.312,0,.816-.012,1.284-.012.012.24.012.42.024.54,0,.276.012.468.012.54a.955.955,0,0,0,.012.132v.168a6.571,6.571,0,0,0-.936-.048c-1.92,0-3.084.744-3.084,1.968,0,1.1.984,1.764,2.6,1.764,1.752,0,2.592-.684,2.592-2.124v-.2c.156.072.432.192.564.264a8.289,8.289,0,0,1,2.448,1.728Zm-4.86-1.092s.012.3.012.372a1.3,1.3,0,0,1-.168.768,1.391,1.391,0,0,1-1.224.432c-.924,0-1.44-.276-1.44-.78a.691.691,0,0,1,.216-.492,2.447,2.447,0,0,1,1.512-.408A4.558,4.558,0,0,1,182.232,15.744Zm7.752-4.644c.756-.12,3.648-.276,5.556-.3l.012.648v.516a1.016,1.016,0,0,1,.012.156,1.838,1.838,0,0,0-1.272-.408,2.127,2.127,0,0,0-2.3,2.1,2.007,2.007,0,0,0,2.112,2.016,1.879,1.879,0,0,0,1.788-1.008,2.668,2.668,0,0,1-1.344,2.028,5.534,5.534,0,0,1-2.028.78,3.6,3.6,0,0,1,.732,1.116,8.144,8.144,0,0,0,2.064-.972,3.859,3.859,0,0,0,1.7-3.192A3.512,3.512,0,0,0,196.68,13V10.788c.96-.024,1.164-.024,1.488-.024a19.74,19.74,0,0,1,2.016.06V9.66c-.42.048-1.332.072-3.516.084a9.924,9.924,0,0,1,.06-1.512h-1.272a9.941,9.941,0,0,1,.072,1.536c-2.112.06-2.112.06-2.892.084-1.332.06-1.812.072-2.148.072a4.541,4.541,0,0,1-.54-.024Zm4.4,1.548a1.225,1.225,0,0,1,.888.324.705.705,0,0,1,.24.588,1.192,1.192,0,0,1-1.26,1.212,1.024,1.024,0,0,1-1.092-1.056A1.128,1.128,0,0,1,194.388,12.648ZM203.016,15a1.938,1.938,0,1,0,1.944,1.932A1.931,1.931,0,0,0,203.016,15Zm0,.876a1.062,1.062,0,1,1-1.056,1.056A1.068,1.068,0,0,1,203.016,15.876Z" transform="translate(9859 -3339)"></path><line id="&#x7DDA;_50" data-name="&#x7DDA; 50" x2="261" transform="translate(9859.5 -3204.5)" fill="none" stroke="#2963b4" stroke-width="1"></line><path id="&#x30D1;&#x30B9;_565" data-name="&#x30D1;&#x30B9; 565" d="M32.988-45.234l-.762,6.24H18.34l-2.988,9.082q1.025-.205,1.919-.308a14.587,14.587,0,0,1,1.655-.1q6.182,0,9.727,3.9T32.2-15.762q0,7.383-4.395,11.895A15.387,15.387,0,0,1,16.26.645q-9.7,0-15.088-8.555L5.83-11.66a18.665,18.665,0,0,0,4.863,4.922,10.617,10.617,0,0,0,5.479,1.377,8.889,8.889,0,0,0,6.914-2.871,11.079,11.079,0,0,0,2.578-7.734,8.926,8.926,0,0,0-2.461-6.65,8.926,8.926,0,0,0-6.65-2.461q-4.248,0-9.785,3.164l7.471-23.32ZM72.1-26.279A42.9,42.9,0,0,1,70.43-14.59a28.682,28.682,0,0,1-4.307,9.4A13.586,13.586,0,0,1,54.844.645,12.312,12.312,0,0,1,44.326-4.687q-3.838-5.332-3.838-14.531,0-11.279,5.1-18.984,5.156-7.705,12.6-7.705A11.82,11.82,0,0,1,68.32-40.576Q72.1-35.244,72.1-26.279ZM65.566-26.6q0-6.27-1.963-9.727-1.963-3.545-5.42-3.545-4.717,0-7.969,6.211Q46.992-27.451,46.992-18.4q0,6.094,1.992,9.58a6.184,6.184,0,0,0,5.537,3.428q4.395,0,7.354-4.98A25.148,25.148,0,0,0,64.512-17.7,39.81,39.81,0,0,0,65.566-26.6ZM81.133-11.953a5.861,5.861,0,0,1-.85,3.271,2.487,2.487,0,0,1-2.139,1.289A2.155,2.155,0,0,1,76.318-8.3a4.124,4.124,0,0,1-.674-2.49A5.632,5.632,0,0,1,76.523-14a2.568,2.568,0,0,1,2.168-1.3,2.061,2.061,0,0,1,1.768.918A4.043,4.043,0,0,1,81.133-11.953ZM79.854-12a3.252,3.252,0,0,0-.308-1.543.937.937,0,0,0-.845-.566q-.752,0-1.26,1.006a5.3,5.3,0,0,0-.518,2.432,3.162,3.162,0,0,0,.308,1.528.951.951,0,0,0,.864.552q.742,0,1.25-.977A5.234,5.234,0,0,0,79.854-12Zm8.35-2.891L77.451.439,76.543-.2,87.285-15.527Zm.859,10.557a5.831,5.831,0,0,1-.85,3.271A2.49,2.49,0,0,1,86.074.215a2.164,2.164,0,0,1-1.836-.908,4.079,4.079,0,0,1-.674-2.48,5.614,5.614,0,0,1,.879-3.2,2.565,2.565,0,0,1,2.168-1.309,2.1,2.1,0,0,1,1.777.918A4.043,4.043,0,0,1,89.063-4.336Zm-1.279-.039a3.266,3.266,0,0,0-.308-1.562.937.937,0,0,0-.845-.557q-.752,0-1.26,1.006a5.322,5.322,0,0,0-.518,2.441,3.132,3.132,0,0,0,.308,1.523.952.952,0,0,0,.864.547q.742,0,1.25-.977A5.21,5.21,0,0,0,87.783-4.375Z" transform="translate(10003 -3215)" fill="url(#linear-gradient)"></path></g></svg>