<svg xmlns="http://www.w3.org/2000/svg" width="5091" height="280" viewBox="0 0 5091 280"><g id="&#x30B0;&#x30EB;&#x30FC;&#x30D7;_20935" data-name="&#x30B0;&#x30EB;&#x30FC;&#x30D7; 20935" transform="translate(2117 4011)"><path id="&#x5408;&#x4F53;_30" data-name="&#x5408;&#x4F53; 30" d="M5009,0l82,140-82,140ZM0,280V0H5009V280Z" transform="translate(-2117 -4011)" fill="#191722"></path><path id="&#x30D1;&#x30B9;_36618" data-name="&#x30D1;&#x30B9; 36618" d="M16.51-13c-5.98.39-8.19.52-9.62.52a20.223,20.223,0,0,1-2.6-.13L8.19,6.37A39.323,39.323,0,0,1,13.78,5.2C33.93,2.34,37.31,1.82,48.1-.26a104.049,104.049,0,0,1-.65,12.09H67.34A100.027,100.027,0,0,1,66.69-.13a55.349,55.349,0,0,1,5.72,11.44C81.25,7.15,85.8,4.55,92.04,0c7.15,4.68,14.04,7.8,26.52,11.96A72.792,72.792,0,0,1,127.01-6.5c-9.75-1.69-14.69-3.12-21.19-5.85a94.909,94.909,0,0,0,12.87-18.33c2.34-4.68,2.34-4.68,3.12-5.85l-9.23-10.01a61.232,61.232,0,0,1-9.62.52H80.47a78.815,78.815,0,0,1-10.92-.52V-29.9a74.067,74.067,0,0,1,10.4-.52h2.34L68.9-24.96c3.9,6.37,5.59,8.84,9.1,12.74A70.379,70.379,0,0,1,66.69-6.89V-49.92h43.55a114.526,114.526,0,0,1,15.21.65V-65.26a104.56,104.56,0,0,1-14.82.65H20.15c-7.67,0-11.18-.13-15.08-.65v15.99c3.64-.39,6.37-.52,11.44-.65ZM34.84-49.92H48.1v4.16H34.84Zm0,14.69H48.1v4.55H34.84Zm0,15.08H48.1v4.03q-9.555,1.17-13.26,1.56ZM98.41-30.42a41.815,41.815,0,0,1-7.15,8.58,40.077,40.077,0,0,1-6.63-8.58Zm14.56-65a95.98,95.98,0,0,1,.52-12.22,132.64,132.64,0,0,1-13.65.52H31.2a132.639,132.639,0,0,1-13.65-.52,101.346,101.346,0,0,1,.52,12.22v15.47a98.964,98.964,0,0,1-.52,12.09c3.77-.26,6.89-.39,12.87-.39h72.41c5.85.13,9.36.26,10.66.26a92.666,92.666,0,0,1-.52-11.96Zm-75.92-.26H93.73v3.9H37.05Zm0,13.13H93.73v3.77H37.05Zm128.31,4.42c0,11.31,0,11.31-.26,16.9h-6.76c-7.67,0-10.4-.13-14.56-.78v19.63c4.16-.65,7.28-.78,14.17-.78h5.2c-2.86,15.34-9.62,26.91-21.45,36.66a56.577,56.577,0,0,1,12.48,17.16,84.211,84.211,0,0,0,21.19-30.42c3.77,6.89,7.02,11.18,13.13,17.81,3.64-8.32,5.72-11.57,11.18-18.46-8.84-7.8-13.13-13.26-17.42-22.75h1.69a98.629,98.629,0,0,1,12.22.52V-61.88a68.521,68.521,0,0,1-11.44.65h-1.3c.39-6.11.39-6.11.52-16.9,5.2.13,7.54.13,10.79.52V-96.72a77.946,77.946,0,0,1-12.35.65H170.43a50.362,50.362,0,0,0,1.56-5.72c.78-2.99,1.56-5.46,2.08-7.02l-18.85-2.86a34.721,34.721,0,0,1-1.82,9.36c-3.12,10.66-6.5,17.94-12.35,26.26a50.288,50.288,0,0,1,14.56,13,87.4,87.4,0,0,0,8.19-15.08Zm50.18,40.56-14.82,6.76a100.075,100.075,0,0,1,9.75,20.54h-2.6c-6.89,0-9.75-.13-14.56-.52V8.71a114.473,114.473,0,0,1,14.56-.65h42.9a113.235,113.235,0,0,1,14.56.65v-19.5c-4.81.39-7.67.52-14.56.52H249.6c3.64-7.54,4.16-9.1,8.32-21.58l-15.6-5.72h3.77c5.59,0,8.97.13,13.65.39a135.408,135.408,0,0,1-.52-13.78V-68.38c0-6.63.13-9.62.52-14.17-3.9.26-8.45.39-14.95.39H213.85c-6.63,0-11.05-.13-14.95-.39.39,4.29.52,7.8.52,14.17v17.42a137.048,137.048,0,0,1-.52,13.78c4.42-.26,8.06-.39,13.52-.39Zm23.01,0a152.421,152.421,0,0,1-8.45,27.3H214.24l14.56-6.5c-5.46-12.22-5.72-12.87-10.27-20.8ZM218.14-64.74h21.71v9.62H218.14Zm-20.8-22.88c4.68-.39,8.32-.52,14.56-.52h36.92c6.37,0,9.88.13,14.56.52v-19.24a109.6,109.6,0,0,1-14.56.65H211.9a110.8,110.8,0,0,1-14.56-.65ZM333.58-65H309.53l16.77-8.84c-5.46-11.05-10.79-19.24-20.41-31.98L288.6-96.2A155.24,155.24,0,0,1,307.97-65h-3.25a125.354,125.354,0,0,1-14.69-.78v19.76c4.42-.39,8.45-.52,14.69-.52h72.15v8.58H306.93a103.336,103.336,0,0,1-13.13-.52v18.2c3.38-.26,6.76-.39,13.39-.39h69.68v9.23H304.2a113.33,113.33,0,0,1-15.21-.65V7.41a125.6,125.6,0,0,1,16.12-.78h71.5v5.85h20.8a127.424,127.424,0,0,1-.78-16.38V-53.82a97.355,97.355,0,0,1,.52-11.7,83.689,83.689,0,0,1-10.53.52h-6.76c7.15-10.27,11.83-18.33,18.85-32.11l-19.11-8.71c-5.85,14.04-9.88,21.32-17.81,32.11L376.74-65H353.73V-96.46a100.145,100.145,0,0,1,.78-14.04H332.8a112.536,112.536,0,0,1,.78,14.04Zm115.18-40.43c-5.98,0-10.66-.26-14.95-.65.39,5.33.65,10.01.65,14.82V-7.02c0,6.5-.26,12.48-.78,17.81h21.45V4.29h54.08v6.5h21.84a172.333,172.333,0,0,1-.78-17.81V-91.39c0-4.29.26-9.1.65-14.69a112.269,112.269,0,0,1-14.43.65Zm6.37,44.46V-86.19h54.08v25.22Zm54.08,18.59v27.17H455.13V-42.38Zm54.47-14.69a161.752,161.752,0,0,1,20.28-3.64c-5.2,20.54-16.12,46.41-24.44,57.46L580.97,8.06c.78-1.82,1.04-2.47,2.08-4.68,7.54-16.25,9.62-21.45,13.78-33.54a257.761,257.761,0,0,0,9.23-32.37,47.2,47.2,0,0,1,5.2-.26c4.55,0,6.37.52,7.8,2.21,1.69,1.82,2.47,4.94,2.47,10.53,0,9.88-1.56,23.14-3.51,28.86-1.43,4.16-3.12,5.85-5.85,5.85-3.77,0-10.4-1.82-17.81-4.68a60.052,60.052,0,0,1,1.95,15.47,58.008,58.008,0,0,1-.39,7.54c8.84,2.47,14.69,3.51,20.67,3.51a24.829,24.829,0,0,0,10.14-1.82,20.884,20.884,0,0,0,8.32-7.8c5.2-8.97,8.19-25.87,8.19-46.15,0-14.69-2.6-22.62-9.23-27.95-4.42-3.51-10.4-5.2-18.46-5.2-1.82,0-3.38.13-5.59.26.52-2.99,1.43-7.93,2.47-13.91,1.3-7.67,1.3-7.67,2.08-10.27l-23.53-2.21v2.21c0,4.42-.91,12.09-2.99,25.74-8.45,1.04-20.93,2.08-25.09,2.08h-1.17Zm75.4-26.52c11.96,14.17,20.02,33.02,24.31,56.81l21.32-10.14c-5.2-21.84-13.52-39.26-26.52-55.51Zm89.57-7.28c15.21,7.02,32.63,12.22,56.16,17.03l6.89-20.93c-6.11-.91-17.29-3.25-26.13-5.59-12.35-3.25-20.15-5.98-26.52-9.23Zm-10.01,8.45a75.628,75.628,0,0,1-.78,8.32c-2.6,17.94-5.33,38.74-5.98,44.98a15.6,15.6,0,0,1-.39,2.6l21.58.91a22.62,22.62,0,0,1,7.28-5.85,56.244,56.244,0,0,1,28.47-7.8c11.7,0,18.46,4.03,18.46,10.92,0,9.23-11.44,15.34-28.6,15.34-9.75,0-21.84-2.08-34.71-6.11,2.08,8.19,2.6,12.35,2.99,23.14a138.9,138.9,0,0,0,32.63,3.9c15.99,0,27.82-2.99,37.18-9.36a32.87,32.87,0,0,0,14.69-27.56c0-18.46-15.34-30.55-38.48-30.55-14.82,0-26.26,3.12-37.18,10.14a285.5,285.5,0,0,1,5.59-31.59Zm139.23-9.1c-7.93,0-11.31-.13-15.99-.52a85.044,85.044,0,0,1,.52,10.92v14.3a61.146,61.146,0,0,1-.65,10.79h19.76V-74.36h77.74v18.33h19.76a86.885,86.885,0,0,1-.65-10.66V-81.12a81.244,81.244,0,0,1,.52-10.92c-4.42.39-8.19.52-16.25.52h-2.6a145.468,145.468,0,0,0,7.28-13.78l-19.89-4.29a92.677,92.677,0,0,1-8.06,18.07h-7.67a108.8,108.8,0,0,0-7.67-18.59l-19.76,3.51a79.553,79.553,0,0,1,6.76,15.08h-8.71a136.737,136.737,0,0,0-9.88-17.29l-19.11,3.9a93,93,0,0,1,7.8,13.39Zm53.82,69.81h28.86a169.806,169.806,0,0,1,18.59.78V-40.69a167.662,167.662,0,0,1-18.33.91H916.76a215.4,215.4,0,0,0,18.2-15.47c1.95-1.82,2.47-2.34,3.9-3.51l-9.49-10.79a64.317,64.317,0,0,1-10.27.52H880.23a138.2,138.2,0,0,1-13.91-.52V-52a132.177,132.177,0,0,1,13.78-.52h26.91a47.455,47.455,0,0,1-8.84,6.63h-7.15a40.121,40.121,0,0,1,.39,6.11H859.43a144.2,144.2,0,0,1-17.68-.91v19.76a163.1,163.1,0,0,1,17.94-.78h31.72V-9.36c0,2.34-.91,2.73-6.11,2.73-3.64,0-8.58-.39-15.73-1.04a76.367,76.367,0,0,1,5.72,19.11c6.11.26,9.62.39,11.83.39,20.15,0,24.57-2.86,24.57-15.47Zm183.82-72.54a122.317,122.317,0,0,1,.52-14.04,90.432,90.432,0,0,1-12.48.52H1055.6a148.709,148.709,0,0,1-16.12-.78v18.2c3.64-.39,5.07-.39,9.62-.52l-7.93,7.67a83.634,83.634,0,0,1,15.34,11.7,101.671,101.671,0,0,1-17.29,4.29l3.12,9.62-6.24-1.04a36.835,36.835,0,0,0,.52-7.02V-94.64c0-8.19.13-11.05.39-13.91a89.605,89.605,0,0,1-13.65.65H996.19a136.357,136.357,0,0,1-15.73-.78v18.33c3.25-.52,5.2-.65,11.44-.65l-8.71,7.8c6.89,4.29,10.53,7.02,15.08,11.44a120.887,120.887,0,0,1-19.37,4.94l5.72,17.81a44.136,44.136,0,0,1,6.63-2.6c5.07-1.82,11.31-4.16,16.38-6.24a48.113,48.113,0,0,1,1.17,7.67c4.55.13,6.76.13,9.49.13a56.759,56.759,0,0,0,7.67-.39,25.445,25.445,0,0,1-2.47,3.9H1006.2a131.867,131.867,0,0,1-14.3-.39c.26,4.16.39,6.63.39,15.34V-5.2c0,8.58-.13,12.61-.65,16.64h19.89V6.5h54.34v4.94h20.02c-.52-3.9-.65-7.8-.65-16.64V-31.85c0-8.58.13-10.53.65-15.08-4.42.39-5.85.39-14.43.39h-27.04c1.69-2.34,1.69-2.34,2.6-3.77,2.08-.78,2.73-1.04,5.46-2.08a127.684,127.684,0,0,0,12.61-5.07,59.044,59.044,0,0,1,1.17,7.41c2.99,0,7.28.13,8.97.13,10.27,0,14.56-.78,17.16-3.25,2.34-2.08,3.12-4.94,3.12-12.35Zm-83.2,11.83A83.389,83.389,0,0,0,1000.22-91h18.46v21.84c0,2.08-.39,2.34-3.51,2.47l-.13-11.57c-6.5,2.73-8.84,3.77-12.74,5.07Zm57.2.26a85.356,85.356,0,0,0-12.35-8.71h20.02v21.84c0,2.21-.39,2.47-3.77,2.6V-78.26c-7.02,2.99-9.1,3.9-13.26,5.33Zm-57.98,49.92H1066v5.07h-54.47Zm0,18.59H1066v5.33h-54.47Zm225.55,2.6c-20.28-19.37-25.61-23.92-41.34-35.23,7.28-9.75,12.22-18.85,19.11-35.1,1.95-4.42,2.73-5.72,4.68-7.67l-11.44-11.7c-3.51,1.3-4.29,1.3-10.4,1.43l-44.46.65c-3.77.13-6.24.13-7.28.13a96.308,96.308,0,0,1-13.65-.91l.65,23.14c5.33-.78,9.49-1.04,20.67-1.3l33.8-.52c-6.11,15.08-14.04,26.65-26.13,38.22-11.83,11.31-25.22,19.76-42.12,26.26,7.28,7.54,10.01,11.44,14.56,20.54,20.15-9.75,35.62-21.19,47.84-35.62a209.011,209.011,0,0,1,37.31,36.92Zm56.81-99.45a83.39,83.39,0,0,1-7.54,18.2c-7.67,14.43-17.03,25.22-32.37,37.31A63.45,63.45,0,0,1,1272.7-40.3c13.13-11.57,22.1-22.23,29.64-35.23l36.01-.26A91.864,91.864,0,0,1,1327.17-52c-8.19-5.98-12.35-8.58-23.92-14.82L1289.6-50.44a139.76,139.76,0,0,1,24.18,16.12c-11.7,11.96-24.31,19.63-44.07,26.65,7.28,7.02,10.4,11.05,15.21,19.5A151.33,151.33,0,0,0,1307.28-.13a124.569,124.569,0,0,0,31.59-29.38c9.62-13,16.51-27.04,24.18-50.18,1.04-3.12,1.43-3.9,2.99-5.59l-11.57-11.44c-2.47,1.3-4.16,1.69-7.93,1.69l-34.97.39c3.64-7.41,5.46-11.05,5.59-11.31Zm100.49,73.45c7.93-.65,12.22-.78,26.78-.78h61.88c14.82,0,20.54.13,26.78.78V-62.14c-8.71.91-13.65,1.17-26.65,1.17h-62.14c-13.52,0-20.54-.26-26.65-1.17ZM1582.62,7.67a190.621,190.621,0,0,1-.78-19.89v-33.8c1.3.78,1.3.78,5.85,2.6a240.97,240.97,0,0,1,40.95,22.62l12.35-22.1a275.738,275.738,0,0,0-59.15-27.04V-87.75c0-8.71.13-15.21.65-18.98H1557.4c.78,7.02.91,8.32.91,18.85v75.66a185.537,185.537,0,0,1-.78,19.89Zm174.46-95.03v75.01c0,3.51-1.04,4.29-5.98,4.29a181.51,181.51,0,0,1-18.46-1.17c2.6,5.33,4.29,11.57,5.2,19.89,5.85.13,8.58.26,12.48.26,22.49,0,26.91-2.99,26.91-18.46V-87.23c5.46.13,8.58.26,13.39.65v-20.15c-5.98.52-11.57.78-18.2.78h-83.07c-7.02,0-12.22-.26-17.94-.78v20.15c6.5-.52,11.96-.78,18.2-.78Zm-11.83,20.54a87.809,87.809,0,0,1,.52-11.31,116.063,116.063,0,0,1-12.61.52h-38.09a100.328,100.328,0,0,1-12.09-.52,92.564,92.564,0,0,1,.65,12.61v40.95a110.184,110.184,0,0,1-.78,12.87H1703v-9.62h30.68c2.99,0,8.71.26,12.09.52a111.441,111.441,0,0,1-.52-11.31Zm-42.38,7.02h23.01v20.67h-23.01Zm119.08-8.32a75.882,75.882,0,0,1-8.32-.26c.26,3.9.39,7.41.39,11.83V-3.38a107.5,107.5,0,0,1-.78,15.34h20.54a136.334,136.334,0,0,1-.65-15.34V-14.04h15.34v5.85c0,1.04-1.17,1.56-3.25,1.56a38.661,38.661,0,0,1-7.28-.78,68.729,68.729,0,0,1,3.77,18.07c3.12.13,5.72.13,7.41.13,7.93,0,12.87-1.56,15.6-4.81,1.82-2.34,2.6-5.33,2.6-10.66V-56.16a103.753,103.753,0,0,1,.52-12.35c-2.73.26-4.16.26-8.06.39l13-7.67v11.57c0,5.46,1.95,8.19,6.89,9.75,3.64,1.04,7.8,1.43,16.77,1.43,17.16,0,23.4-.91,27.17-3.9,3.64-3.12,4.81-7.41,5.85-21.58a67.96,67.96,0,0,1-18.33-4.68c-.13,7.28-.39,10.14-1.17,11.05-1.3,1.3-3.9,1.69-10.53,1.69-6.37,0-7.28-.39-7.28-3.12v-4.81a186.83,186.83,0,0,0,32.5-11.96c2.21-1.04,3.12-1.43,5.46-2.34l-13.39-16.77a53.355,53.355,0,0,1-12.22,7.54c-4.68,2.34-4.81,2.47-12.35,5.07v-3.25a65,65,0,0,1,.52-9.88h-20.41a83.749,83.749,0,0,1,.52,10.92v15.73a154.334,154.334,0,0,0-13.13-22.75l-14.69,6.89c2.47,4.68,3.25,6.11,4.29,8.19-4.81.52-7.15.65-12.22,1.04,3.64-6.37,6.11-11.05,7.67-14.3a30.61,30.61,0,0,1,2.47-4.68l-21.06-2.86a82.489,82.489,0,0,1-8.97,22.62h-2.47c-1.82,0-4.55-.13-6.76-.26l1.82,19.76a69.657,69.657,0,0,1,8.58-.91c13.78-1.04,28.6-2.6,38.22-4.16.78,2.08,1.04,2.73,2.47,6.63h-37.05ZM1833-52.39h15.47v5.07H1833Zm0,19.11h15.47v5.2H1833Zm59.15-5.98a67.524,67.524,0,0,1,.52-10.27h-20.41a88.758,88.758,0,0,1,.52,11.44V-1.43c0,4.68,1.17,7.15,4.29,9.1,3.38,1.95,8.58,2.73,20.15,2.73,17.16,0,23.14-1.04,27.04-4.68,4.03-3.64,5.2-7.8,6.11-23.01a67.479,67.479,0,0,1-18.59-5.33c-.13,8.58-.39,11.83-1.17,13.13-1.04,1.56-3.64,2.08-9.75,2.08-6.89,0-8.71-.78-8.71-3.51v-8.45c14.3-3.64,22.62-6.5,38.87-13.78l-13.78-16.12c-7.02,5.07-14.69,8.58-25.09,11.7Zm127.01,10.53c-.13-3.25-.13-4.68-.13-5.98,0-1.95.13-4.55.39-10.01l2.6-41.21c.39-5.46,1.17-14.56,1.56-17.55h-30.29c.65,6.37,1.3,12.22,1.56,17.55l2.6,41.21c.52,7.67.52,7.67.52,10.14a48.118,48.118,0,0,1-.26,5.85Zm2.34,33.41V-19.89h-26.13V4.68Z" transform="translate(-608.5 -3822)" fill="#fff"></path></g></svg>