<svg xmlns="http://www.w3.org/2000/svg" width="981.514" height="431.092" viewBox="0 0 981.514 431.092"><path id="&#x30D1;&#x30B9;_36614" data-name="&#x30D1;&#x30B9; 36614" d="M241.17,3.406l-6.532,53.51H100.487L88.177,156.9H222.328L216.3,206.642H81.9L59.287,391.288H1.758L49.741,3.406ZM311.009,300.1,263.78,391.288H201.226L415.767-24.229l133.9,415.517H489.626L461.489,300.1Zm24.871-49.741H445.411l-41.7-137.919Zm626.29,156.51H897.355l-26.88-28.639q-41.2,20.6-93.2,20.6-87.424,0-142.441-55.268-54.766-55.52-54.766-143.2,0-88.68,58.785-146.712Q697.133-4.633,787.572-4.633q86.42,0,140.934,55.268,54.766,55.519,54.766,141.939,0,94.961-72.351,159.022ZM759.184,257.891h63.81l52.254,55.519q50.244-44.968,50.244-122.6,0-63.558-37.432-102.5T789.833,49.379q-65.568,0-109.029,42.707-42.959,42.707-42.958,108.276,0,61.046,38.688,102.749,38.688,42.2,101.995,42.2a176.7,176.7,0,0,0,53.761-8.29Z" transform="translate(-1.758 24.229)"></path></svg>