<svg xmlns="http://www.w3.org/2000/svg" width="306.246" height="39.997" viewBox="0 0 306.246 39.997"><g id="&#x30B0;&#x30EB;&#x30FC;&#x30D7;_4" data-name="&#x30B0;&#x30EB;&#x30FC;&#x30D7; 4" transform="translate(-1286.864 -740.831)"><path id="&#x30D1;&#x30B9;_9" data-name="&#x30D1;&#x30B9; 9" d="M17.136-8.532a20.59,20.59,0,0,1-2.916.144H3.78A22.811,22.811,0,0,1,.864-8.532v2.754A25.308,25.308,0,0,1,3.78-5.922H14.22a24.7,24.7,0,0,1,2.916.144Zm5.526-3.51h-.756a8.592,8.592,0,0,1-1.368-.09v2.3a11.932,11.932,0,0,1,1.35-.072h.774v3.042a14.7,14.7,0,0,1-2.3.414l.4,2.376a5.2,5.2,0,0,1,.792-.252c.054,0,.432-.108,1.116-.288v3.4c0,.4-.108.486-.486.486a14.615,14.615,0,0,1-1.782-.126,7.306,7.306,0,0,1,.5,2.25c.522.018.792.036,1.008.036a6.3,6.3,0,0,0,2.142-.27c.63-.234.9-.72.9-1.638V-5.31c.522-.162.7-.234,1.386-.468l-.018-2.07c-.612.18-.738.216-1.368.4V-9.9h.09c.486,0,.918.018,1.314.054v1.962a20.249,20.249,0,0,1,2.106-.09h1.836v2.016H28.08c-.54,0-.864-.018-1.332-.054.036.468.054.864.054,1.368v4.23c0,.648-.036,1.44-.072,1.98h2.358V.738H33.93v.828h2.43a19.323,19.323,0,0,1-.09-1.98V-4.626a13.761,13.761,0,0,1,.054-1.386,12.583,12.583,0,0,1-1.332.054h-2.34V-7.974h2.412a21.336,21.336,0,0,1,2.142.108V-10.26a16.98,16.98,0,0,1-2.142.108H32.652V-12.33a28.669,28.669,0,0,0,2.988-.63c.468-.126.576-.162,1.008-.252l-1.3-2.124a8.974,8.974,0,0,1-2.106.72,32.577,32.577,0,0,1-6.912.864,7.5,7.5,0,0,1,.81,2.07c1.332-.09,2.124-.18,3.15-.306v1.836H28.476a18,18,0,0,1-2.07-.108v-1.854a10.055,10.055,0,0,1-1.458.072v-1.3a12.509,12.509,0,0,1,.09-1.818H22.554a12.378,12.378,0,0,1,.108,1.836ZM29.106-3.87h4.842v2.484H29.106Zm18.7,2.5a14.9,14.9,0,0,1,1.71-.432l3.528-.774V-.63a13.79,13.79,0,0,1-.108,2.214h2.556a13.941,13.941,0,0,1-.108-2.2V-3.078c.882-.18,1.3-.252,1.782-.306L56.88-5.8a13.759,13.759,0,0,1-1.494.414V-13a13.686,13.686,0,0,1,.108-2.178H52.938A13.286,13.286,0,0,1,53.046-13v8.118l-3.852.81a10.6,10.6,0,0,1-1.71.252c.18-.36.252-.486.54-.99a9.806,9.806,0,0,1-2.268-2.358h.54a7.929,7.929,0,0,1,1.44.09v-2.25a6.831,6.831,0,0,1-1.4.09h-.738v-1.152l1.458.792A21.153,21.153,0,0,0,48.4-13.5l-1.692-.774a20.11,20.11,0,0,1-1.116,3.762v-3.006a9.657,9.657,0,0,1,.09-1.656h-2.43a10.294,10.294,0,0,1,.09,1.674v4.266H42.228a9.045,9.045,0,0,1-1.638-.09v2.25a9.786,9.786,0,0,1,1.656-.09h.81a12.205,12.205,0,0,1-2.79,4.338A8.741,8.741,0,0,1,41.31-.558a11.064,11.064,0,0,0,2.106-3.528c-.036.5-.054,1.152-.054,1.836V-.27A13.631,13.631,0,0,1,43.254,1.6h2.43a12.21,12.21,0,0,1-.09-1.818v-2.79a15.192,15.192,0,0,0-.09-1.746,13.2,13.2,0,0,0,1.512,2.106c.2-.522.252-.666.432-1.08Zm-7.362-12.1a16.093,16.093,0,0,1,1.062,3.852l1.674-.792a23.178,23.178,0,0,0-1.08-3.87Zm7.974,1.026A17.589,17.589,0,0,1,51.552-9.7l1.44-1.782a16.853,16.853,0,0,0-3.1-2.574Zm-.558,4.446a17.444,17.444,0,0,1,3.132,2.754l1.422-1.728a18.347,18.347,0,0,0-3.078-2.592ZM67.1-8.424v1.476h-4.05a18.5,18.5,0,0,1-2.07-.09v2.3a16.614,16.614,0,0,1,2.052-.108H67.1v3.726H62.748a20.6,20.6,0,0,1-2.3-.108V1.134a22.994,22.994,0,0,1,2.34-.108H74.16a21.567,21.567,0,0,1,2.232.108V-1.224a17.82,17.82,0,0,1-2.178.108h-1.26a28.752,28.752,0,0,0,1.458-2.79L72.144-4.68a12.141,12.141,0,0,1-1.278,2.808l2.052.756H69.5V-4.842h4.32a15.184,15.184,0,0,1,2.07.108v-2.3a17,17,0,0,1-2.052.09H69.5V-8.424h1.6a17.459,17.459,0,0,1,1.836.072V-9.2a18.007,18.007,0,0,0,3.006,1.512,10.672,10.672,0,0,1,1.1-2.394,14.913,14.913,0,0,1-4.788-2.376,10.513,10.513,0,0,1-2.574-2.556H67.05c-1.206,2.034-4.014,3.978-7.236,5.04A8.1,8.1,0,0,1,61-7.74a19.05,19.05,0,0,0,2.844-1.422v.81a17.832,17.832,0,0,1,1.8-.072Zm-1.368-2a12.31,12.31,0,0,0,2.646-2.538,12.543,12.543,0,0,0,2.682,2.538ZM62.352-3.888A15.021,15.021,0,0,1,63.72-1.134l2.142-.738A18.023,18.023,0,0,0,64.53-4.68Z" transform="translate(1286 774)" fill="#191722"></path><path id="&#x30D1;&#x30B9;_10" data-name="&#x30D1;&#x30B9; 10" d="M13.282-12.064h3.6v2.987H11.687v1.885h5.191V-4.2H11.687V0H7.105V-4.2H1.943V-7.192H7.105V-9.077H1.943v-2.987H5.626L.348-20.532H5.713l3.828,7.54,3.741-7.54h5.191Z" transform="translate(1376 776)" fill="#533afc"></path><path id="&#x30D1;&#x30B9;_11" data-name="&#x30D1;&#x30B9; 11" d="M3.2,0V-6.58L16.168-18.33a12.3,12.3,0,0,0,1.974-2.4,5.1,5.1,0,0,0,.752-2.726,3.865,3.865,0,0,0-1.128-2.891,4.114,4.114,0,0,0-3.008-1.1,4.128,4.128,0,0,0-3.22,1.387,6.259,6.259,0,0,0-1.481,3.642L2.491-23.453a11.811,11.811,0,0,1,1.387-4.512,11.653,11.653,0,0,1,2.8-3.36,12.083,12.083,0,0,1,3.878-2.115,14.544,14.544,0,0,1,4.63-.729,16.339,16.339,0,0,1,4.465.611,11.626,11.626,0,0,1,3.854,1.88,9.384,9.384,0,0,1,2.7,3.2,9.583,9.583,0,0,1,1.01,4.512,10.3,10.3,0,0,1-.47,3.219,10.7,10.7,0,0,1-1.293,2.656,15.3,15.3,0,0,1-1.88,2.28q-1.057,1.057-2.186,2.091L13.677-6.862H27.26V0Zm55.46-22.278A13.564,13.564,0,0,1,57.622-16.9a31.167,31.167,0,0,1-2.679,4.911L46.906,0H37.365l8.272-11.468.094-.141a5.9,5.9,0,0,1-1.152.282,8.2,8.2,0,0,1-1.2.094,11.336,11.336,0,0,1-4.183-.775,10.613,10.613,0,0,1-3.478-2.209,10.732,10.732,0,0,1-2.4-3.431,10.763,10.763,0,0,1-.893-4.441,12.046,12.046,0,0,1,1.034-5.076,11.087,11.087,0,0,1,2.82-3.807,12.481,12.481,0,0,1,4.183-2.374,15.531,15.531,0,0,1,5.076-.822,15.678,15.678,0,0,1,5.123.822,12.22,12.22,0,0,1,4.16,2.374,11.356,11.356,0,0,1,2.8,3.76A11.5,11.5,0,0,1,58.656-22.278Zm-7.9-.094a5.467,5.467,0,0,0-1.386-3.736,4.783,4.783,0,0,0-3.784-1.574,5.086,5.086,0,0,0-3.831,1.48,5.339,5.339,0,0,0-1.433,3.878,5.2,5.2,0,0,0,1.41,3.736,4.949,4.949,0,0,0,3.76,1.481A5.149,5.149,0,0,0,49.3-18.565,5.149,5.149,0,0,0,50.76-22.372ZM88.407-9.494a9.648,9.648,0,0,1-1.034,4.583,9.679,9.679,0,0,1-2.75,3.243A11.84,11.84,0,0,1,80.629.259,17.532,17.532,0,0,1,75.9.893,17.454,17.454,0,0,1,71.158.259a12.129,12.129,0,0,1-3.971-1.9,9.447,9.447,0,0,1-2.75-3.22A9.648,9.648,0,0,1,63.4-9.447a8.123,8.123,0,0,1,.47-2.8,7.883,7.883,0,0,1,1.292-2.3,8.736,8.736,0,0,1,1.9-1.739,8.658,8.658,0,0,1,2.3-1.1v-.094a8.231,8.231,0,0,1-3.619-2.608A7.074,7.074,0,0,1,64.3-24.675a8.648,8.648,0,0,1,.94-4.089,8.813,8.813,0,0,1,2.538-2.984,11.392,11.392,0,0,1,3.713-1.809,15.839,15.839,0,0,1,4.418-.611,16.176,16.176,0,0,1,4.395.587,11.34,11.34,0,0,1,3.689,1.763,8.9,8.9,0,0,1,2.562,2.938,8.34,8.34,0,0,1,.964,4.066,7.535,7.535,0,0,1-1.41,4.653,7.4,7.4,0,0,1-3.666,2.632v.141a8.5,8.5,0,0,1,2.35,1.1,8.279,8.279,0,0,1,1.88,1.739,8.2,8.2,0,0,1,1.269,2.3A7.983,7.983,0,0,1,88.407-9.494ZM79.9-24.252a3.546,3.546,0,0,0-1.175-2.726,4.02,4.02,0,0,0-2.82-1.081,3.875,3.875,0,0,0-2.867,1.081,3.7,3.7,0,0,0-1.081,2.726,4.009,4.009,0,0,0,1.057,2.773A3.692,3.692,0,0,0,75.9-20.3a3.8,3.8,0,0,0,2.867-1.175A3.871,3.871,0,0,0,79.9-24.252Zm.611,14.476A4.37,4.37,0,0,0,79.218-13,4.486,4.486,0,0,0,75.9-14.288a4.592,4.592,0,0,0-3.36,1.269,4.349,4.349,0,0,0-1.293,3.243,4.178,4.178,0,0,0,1.293,3.219,4.746,4.746,0,0,0,3.36,1.2,4.661,4.661,0,0,0,3.337-1.2A4.218,4.218,0,0,0,80.511-9.776Zm17.86,15.6H92.026L95.551-7.52h7.379Zm35.015-22.56a31.128,31.128,0,0,1-.705,6.721,17.169,17.169,0,0,1-2.256,5.616A11.678,11.678,0,0,1,126.406-.54,11.743,11.743,0,0,1,120.414.893,11.873,11.873,0,0,1,114.4-.54a11.819,11.819,0,0,1-4.065-3.854,16.861,16.861,0,0,1-2.28-5.616,31.129,31.129,0,0,1-.7-6.721,30.806,30.806,0,0,1,.7-6.7,16.345,16.345,0,0,1,2.28-5.546,11.764,11.764,0,0,1,4.065-3.784,12.032,12.032,0,0,1,6.016-1.41,11.9,11.9,0,0,1,5.993,1.41,11.621,11.621,0,0,1,4.019,3.784,16.64,16.64,0,0,1,2.256,5.546A30.805,30.805,0,0,1,133.386-16.732Zm-8.084,0q0-1.551-.188-3.431a17.111,17.111,0,0,0-.705-3.5,7.6,7.6,0,0,0-1.48-2.726,3.178,3.178,0,0,0-2.515-1.1,3.249,3.249,0,0,0-2.538,1.1,7.672,7.672,0,0,0-1.528,2.726,16.119,16.119,0,0,0-.729,3.5q-.188,1.88-.188,3.431,0,1.6.188,3.5a16.141,16.141,0,0,0,.729,3.525,7.672,7.672,0,0,0,1.528,2.726,3.249,3.249,0,0,0,2.538,1.1,3.178,3.178,0,0,0,2.515-1.1,7.6,7.6,0,0,0,1.48-2.726,17.13,17.13,0,0,0,.705-3.525Q125.3-15.134,125.3-16.732Zm38.446,0a31.128,31.128,0,0,1-.705,6.721,17.169,17.169,0,0,1-2.256,5.616A11.678,11.678,0,0,1,156.769-.54,11.743,11.743,0,0,1,150.776.893,11.873,11.873,0,0,1,144.76-.54a11.818,11.818,0,0,1-4.066-3.854,16.861,16.861,0,0,1-2.279-5.616,31.128,31.128,0,0,1-.705-6.721,30.805,30.805,0,0,1,.705-6.7,16.345,16.345,0,0,1,2.279-5.546,11.764,11.764,0,0,1,4.066-3.784,12.032,12.032,0,0,1,6.016-1.41,11.9,11.9,0,0,1,5.993,1.41,11.621,11.621,0,0,1,4.018,3.784,16.64,16.64,0,0,1,2.256,5.546A30.805,30.805,0,0,1,163.748-16.732Zm-8.084,0q0-1.551-.188-3.431a17.109,17.109,0,0,0-.705-3.5,7.6,7.6,0,0,0-1.48-2.726,3.178,3.178,0,0,0-2.514-1.1,3.249,3.249,0,0,0-2.538,1.1,7.672,7.672,0,0,0-1.527,2.726,16.117,16.117,0,0,0-.729,3.5q-.188,1.88-.188,3.431,0,1.6.188,3.5a16.14,16.14,0,0,0,.729,3.525,7.672,7.672,0,0,0,1.527,2.726,3.249,3.249,0,0,0,2.538,1.1,3.178,3.178,0,0,0,2.514-1.1,7.6,7.6,0,0,0,1.48-2.726,17.128,17.128,0,0,0,.705-3.525Q155.664-15.134,155.664-16.732Zm38.446,0a31.128,31.128,0,0,1-.705,6.721,17.169,17.169,0,0,1-2.256,5.616A11.678,11.678,0,0,1,187.131-.54,11.743,11.743,0,0,1,181.138.893,11.873,11.873,0,0,1,175.122-.54a11.818,11.818,0,0,1-4.066-3.854,16.861,16.861,0,0,1-2.279-5.616,31.128,31.128,0,0,1-.705-6.721,30.805,30.805,0,0,1,.705-6.7,16.345,16.345,0,0,1,2.279-5.546,11.764,11.764,0,0,1,4.066-3.784,12.032,12.032,0,0,1,6.016-1.41,11.9,11.9,0,0,1,5.993,1.41,11.621,11.621,0,0,1,4.018,3.784,16.64,16.64,0,0,1,2.256,5.546A30.805,30.805,0,0,1,194.11-16.732Zm-8.084,0q0-1.551-.188-3.431a17.109,17.109,0,0,0-.705-3.5,7.6,7.6,0,0,0-1.48-2.726,3.178,3.178,0,0,0-2.514-1.1,3.249,3.249,0,0,0-2.538,1.1,7.672,7.672,0,0,0-1.527,2.726,16.117,16.117,0,0,0-.729,3.5q-.188,1.88-.188,3.431,0,1.6.188,3.5a16.14,16.14,0,0,0,.729,3.525A7.672,7.672,0,0,0,178.6-6.979a3.249,3.249,0,0,0,2.538,1.1,3.178,3.178,0,0,0,2.514-1.1,7.6,7.6,0,0,0,1.48-2.726,17.128,17.128,0,0,0,.705-3.525Q186.026-15.134,186.026-16.732Z" transform="translate(1399 775)" fill="#191722"></path></g></svg>