<svg xmlns="http://www.w3.org/2000/svg" width="723" height="646" viewBox="0 0 723 646"><g id="&#x30B0;&#x30EB;&#x30FC;&#x30D7;_9040" data-name="&#x30B0;&#x30EB;&#x30FC;&#x30D7; 9040" transform="translate(15129 -6143)"><g id="&#x30B0;&#x30EB;&#x30FC;&#x30D7;_9028" data-name="&#x30B0;&#x30EB;&#x30FC;&#x30D7; 9028" transform="translate(-15354 -898)"><g id="&#x9577;&#x65B9;&#x5F62;_4567" data-name="&#x9577;&#x65B9;&#x5F62; 4567" transform="translate(225 7041)" fill="none" stroke="#e1e1e1" stroke-width="3"><rect width="347" height="309" rx="20" stroke="none"></rect><rect x="1.5" y="1.5" width="344" height="306" rx="18.5" fill="none"></rect></g><path id="&#x30D1;&#x30B9;_14055" data-name="&#x30D1;&#x30B9; 14055" d="M-103.017.713c-.3-.644-.667-1.587-1.1-2.806l-4.991-13.846a18.353,18.353,0,0,1-.782-2.484h-6a14.04,14.04,0,0,1-.736,2.484L-121.6-2.093A22.66,22.66,0,0,1-122.7.713h5.382a13.255,13.255,0,0,1,.575-2.484l.621-1.955h6.555l.621,1.955A18.679,18.679,0,0,1-108.4.713Zm-7.682-8.3h-4.324l2.139-6.9Zm10.419-10.833a21.481,21.481,0,0,1,.184,3.4V-2.691a22.043,22.043,0,0,1-.184,3.4h5.06a22.234,22.234,0,0,1-.184-3.4V-15.019a21.3,21.3,0,0,1,.184-3.4Zm11.822,3.7a30.03,30.03,0,0,1,3.335-.115h7.452c1.587,0,2.668.046,3.542.115v-3.864a22.058,22.058,0,0,1-3.611.184h-7.337a20.972,20.972,0,0,1-3.381-.184Zm-1.909,5.75a34.493,34.493,0,0,1,3.657-.138h9.959a10.006,10.006,0,0,1-3.542,4.6,15.844,15.844,0,0,1-6.072,2.691,12.822,12.822,0,0,1,2.576,3.772,20.7,20.7,0,0,0,6.555-3.588,17.329,17.329,0,0,0,5.106-7.889,4.612,4.612,0,0,1,.644-1.449L-73.278-12.9a3.743,3.743,0,0,1-1.84.253H-86.664a24.352,24.352,0,0,1-3.7-.184Zm39.1-10.1a16.877,16.877,0,0,1-4.186,4.209,33.325,33.325,0,0,1-12.213,5.98,12.35,12.35,0,0,1,2.208,3.7,39.149,39.149,0,0,0,7.521-3.4v6.348a31.249,31.249,0,0,1-.138,3.7h4.462a32.871,32.871,0,0,1-.138-3.726v-8.855a38.553,38.553,0,0,0,5.313-4.623,8.23,8.23,0,0,1,.9-.851Zm24.15,10.4a30.52,30.52,0,0,1,3.588.115V-12.4a23.49,23.49,0,0,1-3.657.161H-40a19.407,19.407,0,0,1-3.542-.184v3.864a30.848,30.848,0,0,1,3.473-.115h4.715c-.184,3.68-2,5.727-6.21,6.969A10.624,10.624,0,0,1-38.87,1.932c3.174-1.288,4.9-2.6,6.164-4.669A11.841,11.841,0,0,0-31.05-8.671Zm-14.076-5.773a29.808,29.808,0,0,1,3.5-.115h8.188a28.7,28.7,0,0,1,3.611.115v-3.887a19.813,19.813,0,0,1-3.68.184h-8.05a19.4,19.4,0,0,1-3.565-.184Zm36.409-.989a16.73,16.73,0,0,1-4.278,4.117,28.991,28.991,0,0,1-9.315,4.37A11.41,11.41,0,0,1-16.422-3.68a27.506,27.506,0,0,0,6-2.714v4.807a21.1,21.1,0,0,1-.161,3.174h4.094a22.845,22.845,0,0,1-.138-3.174V-8.671A25.85,25.85,0,0,0-2.369-12.42a6.286,6.286,0,0,1,.805-.8Zm10.143.874a24.564,24.564,0,0,1,6.256,4.853l2.714-3.588A33.553,33.553,0,0,0,8-17.8ZM6.785.9C7.406.713,7.544.69,8.441.483c4.278-.989,6.463-1.84,8.947-3.45,3.22-2.07,5.4-4.784,7.5-9.315A14.849,14.849,0,0,1,21.5-15.364a21.175,21.175,0,0,1-2.254,4.508,13.831,13.831,0,0,1-6.739,5.681A23.079,23.079,0,0,1,5.589-3.519ZM46.414-15.387l.713-.253a13.614,13.614,0,0,0-1.909-3.519l-2.277.736a13.912,13.912,0,0,1,1.311,2.208h-.506l-5.221.046a2.579,2.579,0,0,0,.184-.391c.023-.023.115-.253.276-.6.023-.069.115-.276.207-.483.069-.161.138-.3.161-.368.138-.3.161-.322.276-.552l-4.347-.782a8.762,8.762,0,0,1-.989,2.76,18.386,18.386,0,0,1-6.118,7.015,11.728,11.728,0,0,1,3.266,2.76,22.188,22.188,0,0,0,5.221-5.773l6.118-.069c-1.7,5.359-5.451,9.016-11.523,11.2a11.705,11.705,0,0,1,2.76,3.519c6.9-3.105,10.787-7.383,12.972-14.283a10.307,10.307,0,0,1,.6-1.564Zm-.138-4.025a17.047,17.047,0,0,1,1.886,3.519l2.185-.805a15.4,15.4,0,0,0-1.909-3.427Zm8.671.8a18.931,18.931,0,0,1-.345,2.461,49.749,49.749,0,0,0-.874,8.855,48.6,48.6,0,0,0,.6,7.268A9.24,9.24,0,0,1,54.441,1.2L58.4,1.012a6.438,6.438,0,0,1-.069-1.127,22.7,22.7,0,0,1,.9-6.44l-1.771-.6A43.241,43.241,0,0,1,59.2-18.262Zm6.026,5.98c.322.023.483.023.667.046A37.951,37.951,0,0,0,65.6-12.4c1.587,0,3.266-.092,4.853-.253,1.265-.138,1.5-.161,1.7-.161l-.161-3.933a29.836,29.836,0,0,1-6.854.575,19.211,19.211,0,0,1-4.094-.345ZM62.33-9.568c-.621.9-.759,1.127-1.081,1.656a7.208,7.208,0,0,0-1.1,3.588A4.261,4.261,0,0,0,62.261-.667,9.375,9.375,0,0,0,67.022.3,28.165,28.165,0,0,0,71,0c1.357-.207,1.357-.207,1.955-.276l-.23-4.071A17.093,17.093,0,0,1,67-3.4c-1.955,0-2.99-.575-2.99-1.633A5.675,5.675,0,0,1,65.55-8.211ZM85.1-19.182a17.131,17.131,0,0,1,.115,2.162c.046,3.128.184,7.843.276,9.683a10,10,0,0,0-1.61-.115A7.4,7.4,0,0,0,79.4-6.233,4.163,4.163,0,0,0,77.6-2.783,4.253,4.253,0,0,0,79.189.644a7.852,7.852,0,0,0,4.531,1.2A6.871,6.871,0,0,0,88.527.322a3.524,3.524,0,0,0,.966-2.6,2.659,2.659,0,0,0-.023-.391A15.443,15.443,0,0,1,94.208.943l2.484-3.611c-.253-.161-.322-.207-.736-.483a22.821,22.821,0,0,0-6.532-3.5c-.184-3.128-.184-3.128-.23-4.209,2.07-.046,2.967-.092,5.29-.322.943-.092,1.15-.115,1.61-.138l-.253-3.818a28.135,28.135,0,0,1-6.716.667v-.322c0-1.679.069-3.358.161-4.37Zm.483,15.41v.3a2.321,2.321,0,0,1-.115.989,2,2,0,0,1-1.909.874c-1.15,0-1.863-.46-1.863-1.219C81.7-3.542,82.57-4,83.95-4A5.185,5.185,0,0,1,85.583-3.772ZM104.167-14.49c.46-.046.9-.092,1.518-.115,3.243-.161,4.163-.207,5.382-.345-2.852,2.829-7.705,6.6-9.821,7.59l2.139,3.5a17.1,17.1,0,0,1,2.208-1.725,13.226,13.226,0,0,1,7.084-2.116c2.553,0,4.117.989,4.117,2.6A2.584,2.584,0,0,1,114.977-2.6a5.411,5.411,0,0,0-1.058-1.817A5.4,5.4,0,0,0,109.8-6.187c-2.668,0-4.577,1.541-4.577,3.68,0,2.553,2.369,4.094,6.256,4.094a12.5,12.5,0,0,0,6.1-1.449,6.007,6.007,0,0,0,3.174-5.405,5.105,5.105,0,0,0-1.679-3.979,7.069,7.069,0,0,0-4.922-1.564A11,11,0,0,0,111-10.4c1.541-1.127,1.955-1.472,3.174-2.507,3.105-2.668,3.105-2.668,3.7-3.013L115.989-18.7a4.636,4.636,0,0,1-1.748.322c-2.323.184-4.876.276-6.923.276a25.739,25.739,0,0,1-3.312-.161ZM111.55-1.564a3.491,3.491,0,0,1-.759.069c-1.242,0-1.978-.391-1.978-1.012a.792.792,0,0,1,.9-.759C110.607-3.266,111.251-2.668,111.55-1.564Z" transform="translate(399 7263)"></path><path id="&#x30D1;&#x30B9;_14056" data-name="&#x30D1;&#x30B9; 14056" d="M-61.18-15.433a25.857,25.857,0,0,1,2.6-.115H-54v3.91h-4.669a22.59,22.59,0,0,1-2.346-.092,21.312,21.312,0,0,1,.069,2.3V-.943c0,2.254.92,2.737,5.152,2.737,3.128,0,4.416-.253,5.083-.989.805-.874,1.15-2.3,1.288-5.5a14.6,14.6,0,0,1-3.542-1.035c-.023,2.484-.115,3.4-.3,3.7-.253.391-.805.529-2.047.529a5.987,5.987,0,0,1-1.656-.115c-.368-.138-.437-.253-.437-.69V-8.418h4.669A17.084,17.084,0,0,1-50.37-8.3c-.069-.828-.092-1.38-.092-2.392V-16.56a20.819,20.819,0,0,1,.115-2.392,19.478,19.478,0,0,1-2.53.115h-5.7a22.037,22.037,0,0,1-2.668-.138v3.151a16.276,16.276,0,0,1-1.794.069h-6.164a10.254,10.254,0,0,1-1.863-.115v3.128a14.346,14.346,0,0,1,1.863-.092H-63a14.572,14.572,0,0,1,1.817.069Zm-9.131-.989c.667-.046,1.1-.069,2.093-.069h4.255c.966,0,1.518.023,2.093.069v-2.714a16.681,16.681,0,0,1-2.093.092h-4.255a16.681,16.681,0,0,1-2.093-.092Zm.069,6.923a11.676,11.676,0,0,1,1.38-.046h5.681A10.638,10.638,0,0,1-61.87-9.5v-2.6a9.328,9.328,0,0,1-1.311.046h-5.681a11.474,11.474,0,0,1-1.38-.046Zm0,3.289a11.044,11.044,0,0,1,1.334-.046h5.658a11.474,11.474,0,0,1,1.38.046v-2.6a9.525,9.525,0,0,1-1.334.046h-5.658a11.474,11.474,0,0,1-1.38-.046Zm3.2,8.372V1.15h2.024v.69h3.312a.953.953,0,0,1-.023-.23,5,5,0,0,0-.023-.575c-.023-.322-.023-.391-.023-.6V-3.979a13.262,13.262,0,0,1,.046-1.541,6.907,6.907,0,0,1-1.4.069H-68.7A15.179,15.179,0,0,1-70.4-5.5a13.1,13.1,0,0,1,.092,1.7v3.7c0,.713-.046,1.472-.115,2.254Zm-.092-5.106H-65v1.38h-2.139Zm29.164-4.025h-6.463a15.962,15.962,0,0,1-2.484-.115v2.6A16.1,16.1,0,0,1-44.39-4.6h6.417v.69h-5.451a17.6,17.6,0,0,1-2.185-.069V-1.61a21.924,21.924,0,0,1,2.3-.092h5.336v.575c0,.414-.138.483-.851.483-.805,0-1.633-.069-2.852-.184a9.8,9.8,0,0,1,.874,2.9c.874.046,1.518.069,2.139.069,3.45,0,4.048-.437,4.048-2.967V-1.7h4.209v.9h3.473a19.774,19.774,0,0,1-.115-2.6v-1.1a11.119,11.119,0,0,1,1.61.115V-7.2a7.723,7.723,0,0,1-1.61.138v-.713a16.353,16.353,0,0,1,.069-2.116,18.537,18.537,0,0,1-2.346.069h-5.29v-.644h5.267c.713,0,1.288.023,1.817.069A14.7,14.7,0,0,1-27.6-11.96v-1.518c0-.736.023-1.127.069-1.656-.552.046-1.035.069-1.978.069h-5.106v-.667h6.187a24.235,24.235,0,0,1,2.76.115v-2.921a24.992,24.992,0,0,1-2.99.138h-5.957a5.625,5.625,0,0,1,.138-1.15h-3.634a5.243,5.243,0,0,1,.138,1.15h-5.819a25.159,25.159,0,0,1-3.013-.138v2.921A24.36,24.36,0,0,1-44-15.732h6.026v.667h-4.9c-.943,0-1.426-.023-2.07-.069.046.552.069,1.012.069,1.656v1.518a15.643,15.643,0,0,1-.069,1.564c.575-.046,1.173-.069,2-.069h4.968v.644h-5.451a16.572,16.572,0,0,1-2.139-.092V-7.59c.621-.046,1.311-.069,2.093-.069h5.5Zm3.358,0v-.69h4.209v.69Zm0,2.369h4.209v.69h-4.209Zm-3.358-8.51v.69h-3.588v-.69Zm3.358,0h3.7v.69h-3.7ZM-6.6-4.071-6.716-.207v.184c0,1.518.6,1.978,2.622,1.978,2.737,0,2.967-.46,3.174-6.417a4.717,4.717,0,0,1-1.817-.943c-.069,3.864-.115,4.324-.529,4.324-.253-.069-.253-.069-.253-.3l.368-12.052c.046-1.127.069-1.633.115-2.07-.552.046-.989.069-2,.069H-7.291v-2.024a13.648,13.648,0,0,1,.138-2.093h-3.588A12.758,12.758,0,0,1-10.6-17c0,.552,0,.552-.023,1.564a8.742,8.742,0,0,1-1.725-.138V-12.1A13.539,13.539,0,0,1-10.7-12.19c-.023.644-.069,1.449-.115,2l-.874-.874L-13.34-8.809c-.184,0-.6.023-.966.023.23-.736.368-1.242.529-1.932a8.448,8.448,0,0,1,.874.069v-3.2a15.465,15.465,0,0,1-2.139.092h-1.035v-1.081h.8a17.346,17.346,0,0,1,2.116.069V-17.94a14.658,14.658,0,0,1-2.116.115h-.8v-.207a10.964,10.964,0,0,1,.115-1.518h-3.473a11.83,11.83,0,0,1,.115,1.518v.207h-.713a14.477,14.477,0,0,1-2.208-.115v3.174a17.548,17.548,0,0,1,2.116-.069h.805v1.081h-1.127a15.109,15.109,0,0,1-2.277-.115v3.22c.483-.046.759-.069,1.219-.092A12.955,12.955,0,0,1-21-8.786a11.748,11.748,0,0,1-1.725-.092v3.22a14.748,14.748,0,0,1,2.162-.115h1.242v1.219h-.851a18.321,18.321,0,0,1-2.116-.092v3.22a15.871,15.871,0,0,1,2.277-.115h.69V-.46a15.518,15.518,0,0,1-.138,2.553h3.519A15.19,15.19,0,0,1-16.077-.46V-1.541h1.035c.506,0,1.1.023,1.38.046h.207A10.062,10.062,0,0,1-14.582-.3,9.929,9.929,0,0,1-11.96,2.185a15.168,15.168,0,0,0,3.174-5.5,11.381,11.381,0,0,1,.828,1.357Zm-6.325-.6a15.254,15.254,0,0,1-2.116.115h-1.035V-5.773h1.265a14.94,14.94,0,0,1,2.162.115V-7.774c.552.644.552.644,1.311,1.564a12.255,12.255,0,0,1-1.587,4Zm6.578-7.544-.207,6.647c-.368-.552-.874-1.242-1.334-1.84a33.1,33.1,0,0,0,.345-4.807Zm-10.4,1.472c-.115.575-.345,1.472-.483,1.955h-.9a16.779,16.779,0,0,0-.437-1.955Zm26.91-1.012v.644H4.278c-1.127,0-2-.046-2.76-.115V-8.74a19.639,19.639,0,0,1,2.461-.115h6.187v.667H6.141c-1.1,0-1.7-.023-2.3-.069v2.162c.575-.046,1.334-.069,2.3-.069h4.025v.644h-4.9a23.516,23.516,0,0,1-2.484-.092v2.3A24.079,24.079,0,0,1,5.267-3.4h4.9v.644H4.278c-1.058,0-1.909-.046-2.737-.115V-.23A25.043,25.043,0,0,1,4.462-.368h5.7a18.222,18.222,0,0,1-.138,2.53h3.7a14.414,14.414,0,0,1-.138-2.53h6.118a25.6,25.6,0,0,1,2.921.138V-2.875c-.759.069-1.633.115-2.737.115h-6.3V-3.4h5.244a24.655,24.655,0,0,1,2.484.092v-2.3a22.7,22.7,0,0,1-2.484.092H13.593v-.644h4.761c.874,0,1.679.023,2.254.069a9.872,9.872,0,0,1-.069-1.771v-.9h.184a10.2,10.2,0,0,1,1.909.115v-2.668a10.859,10.859,0,0,1-1.794.115h-.3v-1.081a10.22,10.22,0,0,1,.092-1.748,19.985,19.985,0,0,1-2.323.092H13.616v-.023a11.024,11.024,0,0,0,1.426-1.656h.69a11.205,11.205,0,0,1,.713,1.38l3.105-.414c-.253-.437-.3-.529-.575-.966h1.357a17.042,17.042,0,0,1,2.392.115v-3.036a18.158,18.158,0,0,1-2.576.115H16.606c.115-.276.23-.575.368-.874l-3.45-.46a5.589,5.589,0,0,1-1.564,2.875v-1.679a12.762,12.762,0,0,1-2.185.115H7.406l.437-.874-3.45-.46a6.879,6.879,0,0,1-1.127,2.139,8.676,8.676,0,0,1-2.254,2.047A13.68,13.68,0,0,1,2.99-12.949c.414-.322.552-.437.851-.69v1.955c.69-.046,1.288-.069,2.3-.069ZM6.417-15.64c.276.529.368.759.621,1.357l3.013-.414a6.862,6.862,0,0,1,.092.759h-4c-.782,0-1.472-.023-1.909-.046A13,13,0,0,0,5.7-15.64Zm4.278,0a5.018,5.018,0,0,1,.552.023,11.416,11.416,0,0,1,1.1.874H10.074c-.207-.391-.322-.575-.506-.9Zm2.9,7.452v-.667h3.565v.667Zm3.565-2.921H13.593v-.644h3.565ZM26.45-14.7c-.253-.023-.3-.023-.529-.046v2.852c.759-.069,1.564-.092,2.737-.092H30.82c-.621.69-.92,1.012-1.817,1.863,2.323.391,2.323.391,3.312.6a38.971,38.971,0,0,1-4.439.276c-.368,0-.9-.023-1.587-.046a8.807,8.807,0,0,1,1.288,2.737,36.654,36.654,0,0,0,6.67-.759,9.7,9.7,0,0,1,.069,1.219H28.359a21.493,21.493,0,0,1-2.622-.138v3.082a20.909,20.909,0,0,1,2.691-.115h3.036A21.459,21.459,0,0,1,25.047-.9a8.634,8.634,0,0,1,1.794,3.1A23.863,23.863,0,0,0,30.958.552a15.059,15.059,0,0,0,3.4-2.254c-.023.46-.046.966-.046,1.426V.46A9.1,9.1,0,0,1,34.2,2.093h3.634A9.988,9.988,0,0,1,37.72.46V-.3c0-.506-.023-.92-.046-1.472a20.732,20.732,0,0,0,7.912,3.887,10.255,10.255,0,0,1,1.633-3.243,18.792,18.792,0,0,1-6.693-2.139h3.519a20.085,20.085,0,0,1,2.668.115V-6.233a20.021,20.021,0,0,1-2.668.138H37.72a6.317,6.317,0,0,1,.138-1.518H35.489a17.9,17.9,0,0,0,2.047-.667,46.633,46.633,0,0,1,6.072,2.093l2.116-2.484a44.746,44.746,0,0,0-5.06-1.449,9.98,9.98,0,0,0,1.794-1.863h1.38c1.242,0,2,.023,2.714.092v-2.852c-.207.023-.276.023-.529.046v-1.909a15.437,15.437,0,0,1,.092-1.886c-.782.069-1.38.092-2.645.092H37.927a6.754,6.754,0,0,1,.115-1.311H34.178A6.834,6.834,0,0,1,34.27-18.4H29.118c-1.1,0-1.863-.023-2.76-.092a16.43,16.43,0,0,1,.092,1.84V-14.7Zm3.381.046v-.966h3.611c-.23.414-.345.6-.575.966Zm8.6,2.668a5.538,5.538,0,0,1-1.61,1.1c-1.127-.184-1.587-.253-2.783-.368.3-.345.391-.46.621-.736Zm-1.886-2.668c.207-.345.322-.529.575-.966h5.52v.966Zm25.461,2.806v3.7H58.7a22.1,22.1,0,0,1-2.76-.138v3.588a22.253,22.253,0,0,1,2.783-.138h3.289V-.782a18.967,18.967,0,0,1-.138,2.9h3.841a19.148,19.148,0,0,1-.138-2.9V-4.83h2.875a22.179,22.179,0,0,1,2.691.138V-8.28a21.95,21.95,0,0,1-2.737.138H65.573v-3.7h2.392c.805,0,1.357.023,2.6.115v-3.542a18.65,18.65,0,0,1-2.6.138H65.573v-1.7a15.029,15.029,0,0,1,.138-2.553H61.87a14.433,14.433,0,0,1,.138,2.507v1.748H60.674c.345-1.219.575-2.024.667-2.369l-3.4-.782a16.957,16.957,0,0,1-2.714,6.992v-2.76a41.236,41.236,0,0,0,1.863-4.784L53.5-19.826a12.467,12.467,0,0,1-.782,2.875,17.621,17.621,0,0,1-3.542,5.934,18.191,18.191,0,0,1,1.173,4.255,8.179,8.179,0,0,0,1.4-1.7C51.7-6.693,51.7-6.693,51.7-6.118V-.529a21.478,21.478,0,0,1-.138,2.645h3.795a21.253,21.253,0,0,1-.138-2.645V-11.017a13.426,13.426,0,0,1,2.6,2.3A19.444,19.444,0,0,0,59.5-11.845Z" transform="translate(399 7303)" fill="#583ffd"></path><text id="_" data-name="" transform="translate(399 7263)" fill="#583ffd" font-size="23" font-family="HiraginoSans-W8, Hiragino Sans"><tspan fill="#000"><tspan x="0" y="0"></tspan></tspan><tspan x="0" y="40"></tspan><tspan x="0" y="80"></tspan></text></g><g id="&#x30B0;&#x30EB;&#x30FC;&#x30D7;_9029" data-name="&#x30B0;&#x30EB;&#x30FC;&#x30D7; 9029" transform="translate(-15354 -898)"><g id="&#x9577;&#x65B9;&#x5F62;_4568" data-name="&#x9577;&#x65B9;&#x5F62; 4568" transform="translate(601 7041)" fill="none" stroke="#e1e1e1" stroke-width="3"><rect width="347" height="309" rx="20" stroke="none"></rect><rect x="1.5" y="1.5" width="344" height="306" rx="18.5" fill="none"></rect></g></g><path id="&#x30D1;&#x30B9;_14057" data-name="&#x30D1;&#x30B9; 14057" d="M-79.212.713c-.3-.644-.667-1.587-1.1-2.806l-4.991-13.846a18.354,18.354,0,0,1-.782-2.484h-6a14.04,14.04,0,0,1-.736,2.484L-97.8-2.093A22.66,22.66,0,0,1-98.9.713h5.382a13.254,13.254,0,0,1,.575-2.484l.621-1.955h6.555l.621,1.955A18.68,18.68,0,0,1-84.594.713Zm-7.682-8.3h-4.324l2.139-6.9Zm10.419-10.833a21.481,21.481,0,0,1,.184,3.4V-2.691a22.043,22.043,0,0,1-.184,3.4h5.06a22.234,22.234,0,0,1-.184-3.4V-15.019a21.3,21.3,0,0,1,.184-3.4Zm17.411,2.668v1.311h-2.208a12.647,12.647,0,0,1-1.863-.092,13.012,13.012,0,0,1,.092,1.794v8.3a11.787,11.787,0,0,1-.069,1.771c.253-.023.253-.023,1.1-.069h9.315c.828.046.828.046,1.081.069a10.653,10.653,0,0,1-.069-1.771v-8.3a12.39,12.39,0,0,1,.092-1.794,12.647,12.647,0,0,1-1.863.092H-55.66v-1.311h5.75c1.1,0,2.185.046,3.2.138v-3.45c-1.081.092-2.093.138-3.22.138H-64.791c-1.2,0-2.139-.046-3.174-.138v3.45c1.035-.092,2.116-.138,3.22-.138Zm.23,4.3v1.38h-1.311v-1.38Zm0,4.232v1.587h-1.311V-7.222Zm2.921,1.587V-7.222h1.38v1.587Zm0-4.439v-1.38h1.38v1.38Zm5.06-4.255a12.39,12.39,0,0,1,.092,1.794V-1.886h-13.2V-12.443a11.467,11.467,0,0,1,.092-1.886h-3.542c.092.966.138,1.863.138,2.714V-1.2a31.159,31.159,0,0,1-.161,3.335h3.565V1.265h13v.874h3.611c-.115-1.242-.161-2.254-.161-3.4V-11.523c0-.828.046-1.886.138-2.806Zm21.39,4.922a32.456,32.456,0,0,0,2.116,6.693,12.586,12.586,0,0,0,3.1,4.37A14.779,14.779,0,0,1-22.4-1.495a9.5,9.5,0,0,1-2.392-2.944A12.121,12.121,0,0,0-23.69-5.5c.943-1.012.943-1.012,1.219-1.288l-2.047-2.392a11.344,11.344,0,0,1-1.5,1.84,17.4,17.4,0,0,1-.552-2.07h1.633a13.743,13.743,0,0,1,1.863.069c-.046-.529-.069-1.035-.069-1.955v-1.978a15.045,15.045,0,0,1,.092-1.932,14.96,14.96,0,0,1-1.886.092h-1.817c.6-.713.644-.782,1.058-1.334a7.562,7.562,0,0,1,.805-1.012l-1.38-1.334a17.055,17.055,0,0,1-2.047.092H-30.8c.184-.3.23-.391.414-.69L-34.2-19.78c-.391,1.472-2.116,3.588-4.255,5.152.276-.621.667-1.564.874-2.162.713-1.978.713-2,.805-2.208l-3.772-.851a13.636,13.636,0,0,1-.782,2.921,15.388,15.388,0,0,1-3.105,5.359,19.108,19.108,0,0,1,1.15,4.209,13.016,13.016,0,0,0,1.15-1.495c-.023,1.058-.023,1.058-.023,2.507v5.8A21.252,21.252,0,0,1-42.3,2.093h3.657a25.322,25.322,0,0,1-.115-2.737,11.16,11.16,0,0,1,1.2,2.208A20.5,20.5,0,0,0-34.224-.115a9.427,9.427,0,0,1,.575,2.139c.667.046,1.012.069,1.426.069a6.025,6.025,0,0,0,2.875-.506c.782-.483,1.2-1.587,1.2-3.105A10.7,10.7,0,0,0-29.9-7.2a14.869,14.869,0,0,0-1.334-1.7c.276-.207.322-.253.644-.506Zm-5.014,0a13.813,13.813,0,0,1-4.278,1.334v-5.888a12.2,12.2,0,0,1,1.173,1.4v1.518a15.782,15.782,0,0,1-.069,1.7c.621-.046,1.2-.069,1.863-.069Zm1.219-5.7c.345-.414.437-.552.713-.92h2.576a8.887,8.887,0,0,1-.644.92Zm-5.5,10.764A9.973,9.973,0,0,1-37.628-2.3a25.641,25.641,0,0,0,5.5-2.76,6.118,6.118,0,0,1,.253.644,24.2,24.2,0,0,1-6.877,3.358Zm0-3.45a14.468,14.468,0,0,1,1.127,2.07A17.945,17.945,0,0,0-33.649-7.36c.207.253.276.322.414.506a19.906,19.906,0,0,1-5.52,2.231Zm7.36,5.819c-.023.805-.023.92-.115,1.127-.138.322-.391.414-1.081.414-.276,0-.391,0-.989-.046A19.5,19.5,0,0,0-31.395-1.978Zm-2.9-10.764h2.162v1.081h-2.162Zm5.428,0h2.3v1.081h-2.3ZM-10.6-12.1v3.45h-2.921a28.21,28.21,0,0,1-3.082-.115v3.45c.989-.092,1.932-.138,3.151-.138H-10.6V-1.7H-15.64c-1.334,0-2.484-.046-3.657-.161V1.7c1.334-.115,2.484-.161,3.795-.161H-2.093c1.265,0,2.231.046,3.542.161V-1.863A33.913,33.913,0,0,1-2.208-1.7H-6.946V-5.451h3.4c1.219,0,2.162.046,3.2.138V-8.786a31.629,31.629,0,0,1-3.22.138H-6.946V-12.1h4.117c1.242,0,2.323.046,3.473.138v-3.473c-1.1.092-2.231.138-3.588.138h-4v-1.058a21.194,21.194,0,0,1,.138-3.082h-3.933a25.936,25.936,0,0,1,.138,3.082V-15.3h-2.76c.161-.506.276-.851.391-1.311.184-.621.184-.621.46-1.4L-16.1-18.86a14.712,14.712,0,0,1-4.025,8.533,12.271,12.271,0,0,1,2.3,2.99A20.882,20.882,0,0,0-14.674-12.1Zm32.039-.322a14.2,14.2,0,0,1-1.541,4.3,35.647,35.647,0,0,1-.644-5.359h3.427a28.9,28.9,0,0,1,3.013.138v-3.473a13.854,13.854,0,0,1-2.277.115l1.357-1.127a16.79,16.79,0,0,0-2.921-2.139l-2.208,2.047a13.879,13.879,0,0,1,1.84,1.219H19.159v-1.081a11.689,11.689,0,0,1,.115-1.656H15.525a22.838,22.838,0,0,1,.138,2.737H9.154c-1.219,0-2.185-.046-3.128-.115a29.685,29.685,0,0,1,.138,3.036A48.2,48.2,0,0,1,5.5-4.439,10.67,10.67,0,0,1,3.979-.667a15.628,15.628,0,0,1,2.76,2.852,13.872,13.872,0,0,0,2.139-5.4A14.822,14.822,0,0,1,9.407-.69c.368.023.6.023.828.023A11.385,11.385,0,0,0,12.627-.92a13.636,13.636,0,0,1,1.7,2.76,21.2,21.2,0,0,0,4.6-3.427c1.587,2.277,3.013,3.4,4.324,3.4,1.4,0,2.3-1.5,2.9-4.945A12.327,12.327,0,0,1,23.506-5.2a11.2,11.2,0,0,1-.644,2.967,6.925,6.925,0,0,1-1.587-2.093,28.472,28.472,0,0,0,3.082-5.75,10.781,10.781,0,0,1,.437-1.1ZM9.591-11.086c.023-.759.023-1.127.023-2.392H15.8a29.448,29.448,0,0,0,1.564,8.832,16.9,16.9,0,0,1-3.151,2.484,14.587,14.587,0,0,0,.713-4.784c.138-3.565.138-3.565.184-4.209a12.664,12.664,0,0,1-1.518.069Zm2.024,3.128a12.268,12.268,0,0,1-.345,3.611c-.161.368-.345.46-.9.46a7.9,7.9,0,0,1-1.357-.138c.184-1.219.322-2.369.437-3.933ZM31.142-18.607a18.931,18.931,0,0,1-.345,2.461,49.749,49.749,0,0,0-.874,8.855,48.6,48.6,0,0,0,.6,7.268A9.241,9.241,0,0,1,30.636,1.2l3.956-.184a6.438,6.438,0,0,1-.069-1.127,22.7,22.7,0,0,1,.9-6.44l-1.771-.6A43.241,43.241,0,0,1,35.4-18.262Zm6.026,5.98c.322.023.483.023.667.046a37.951,37.951,0,0,0,3.956.184c1.587,0,3.266-.092,4.853-.253,1.265-.138,1.495-.161,1.7-.161l-.161-3.933a29.836,29.836,0,0,1-6.854.575,19.211,19.211,0,0,1-4.094-.345Zm1.357,3.059c-.621.9-.759,1.127-1.081,1.656a7.208,7.208,0,0,0-1.1,3.588A4.261,4.261,0,0,0,38.456-.667,9.375,9.375,0,0,0,43.217.3,28.165,28.165,0,0,0,47.2,0c1.357-.207,1.357-.207,1.955-.276l-.23-4.071a17.093,17.093,0,0,1-5.727.943c-1.955,0-2.99-.575-2.99-1.633a5.675,5.675,0,0,1,1.541-3.174ZM61.3-19.182a17.13,17.13,0,0,1,.115,2.162c.046,3.128.184,7.843.276,9.683a10,10,0,0,0-1.61-.115,7.4,7.4,0,0,0-4.485,1.219A4.163,4.163,0,0,0,53.8-2.783,4.253,4.253,0,0,0,55.384.644a7.852,7.852,0,0,0,4.531,1.2A6.871,6.871,0,0,0,64.722.322a3.524,3.524,0,0,0,.966-2.6,2.659,2.659,0,0,0-.023-.391A15.443,15.443,0,0,1,70.4.943l2.484-3.611c-.253-.161-.322-.207-.736-.483a22.821,22.821,0,0,0-6.532-3.5c-.184-3.128-.184-3.128-.23-4.209,2.07-.046,2.967-.092,5.29-.322.943-.092,1.15-.115,1.61-.138l-.253-3.818a28.135,28.135,0,0,1-6.716.667v-.322c0-1.679.069-3.358.161-4.37Zm.483,15.41v.3a2.321,2.321,0,0,1-.115.989,2,2,0,0,1-1.909.874c-1.15,0-1.863-.46-1.863-1.219,0-.713.874-1.173,2.254-1.173A5.185,5.185,0,0,1,61.778-3.772ZM80.362-14.49c.46-.046.9-.092,1.518-.115,3.243-.161,4.163-.207,5.382-.345-2.852,2.829-7.7,6.6-9.821,7.59l2.139,3.5a17.1,17.1,0,0,1,2.208-1.725,13.226,13.226,0,0,1,7.084-2.116c2.553,0,4.117.989,4.117,2.6A2.584,2.584,0,0,1,91.172-2.6a5.411,5.411,0,0,0-1.058-1.817A5.4,5.4,0,0,0,86-6.187c-2.668,0-4.577,1.541-4.577,3.68,0,2.553,2.369,4.094,6.256,4.094a12.5,12.5,0,0,0,6.1-1.449,6.007,6.007,0,0,0,3.174-5.405,5.105,5.105,0,0,0-1.679-3.979,7.069,7.069,0,0,0-4.922-1.564,11,11,0,0,0-3.151.414c1.541-1.127,1.955-1.472,3.174-2.507,3.105-2.668,3.105-2.668,3.7-3.013L92.184-18.7a4.636,4.636,0,0,1-1.748.322c-2.323.184-4.876.276-6.923.276a25.739,25.739,0,0,1-3.312-.161ZM87.745-1.564a3.491,3.491,0,0,1-.759.069c-1.242,0-1.978-.391-1.978-1.012a.792.792,0,0,1,.9-.759C86.8-3.266,87.446-2.668,87.745-1.564Z" transform="translate(-14579 6365)"></path><path id="&#x30D1;&#x30B9;_14058" data-name="&#x30D1;&#x30B9; 14058" d="M-85.813.575A27.562,27.562,0,0,0-87.768-3.8C-88.918-6-88.918-6-90.574-8.855l-3.2,1.472a43.377,43.377,0,0,1,2.392,4.278c-2,.322-3.312.483-5.589.69a73.1,73.1,0,0,0,2.9-7.912c.575-1.863.575-1.863.713-2.346l-4-.92c-.161,2.162-1.932,7.958-3.542,11.5-.644.046-1.2.069-1.541.069a5.06,5.06,0,0,1-.529-.023l.667,3.795c.368-.069.782-.115,1.357-.184,5.037-.6,6.923-.874,10.925-1.61a23.348,23.348,0,0,1,.782,2.208ZM-97.727-17.319h-5.428c-1.127,0-1.725-.023-2.507-.092.069.9.092,1.7.092,3.634,0,7.406-.437,10.051-2.116,12.926a15.836,15.836,0,0,1,2.76,3.036c2.254-3.795,2.967-7.728,2.967-16.169h13.041a22.722,22.722,0,0,1,2.852.138v-3.611a23.234,23.234,0,0,1-2.852.138h-5.175v-.9a5.457,5.457,0,0,1,.092-1.2h-3.818a5.678,5.678,0,0,1,.092,1.15Zm21.8.414q.655-1.414.759-1.656l-3.7-.874a7.024,7.024,0,0,1-.943,2.323,11.83,11.83,0,0,1-2.99,3.588,12.7,12.7,0,0,1,2.139,1.794,19.592,19.592,0,0,1-2.231-.138v3.5a25.288,25.288,0,0,1,2.875-.138h15.295a25.136,25.136,0,0,1,2.852.138v-3.5a23.393,23.393,0,0,1-2.875.138H-70.38v-2h4.439a26.363,26.363,0,0,1,2.668.115v-3.427a20.409,20.409,0,0,1-2.691.138H-70.38v-.437a13.5,13.5,0,0,1,.138-2.185h-3.841a11.573,11.573,0,0,1,.138,2.185v.437Zm-3.45,5.175a17.984,17.984,0,0,0,1.61-2h3.818v2Zm2.346,13.823V1.2h9.338v.9h3.657A20.783,20.783,0,0,1-64.17-.69V-5.014a19.1,19.1,0,0,1,.092-2.392c-.621.046-1.2.069-2.3.069H-78.292c-1.127,0-1.7-.023-2.323-.069a19.826,19.826,0,0,1,.092,2.392v4.3a22.664,22.664,0,0,1-.138,2.806Zm-.023-6.279h9.407v2.162H-77.05ZM-54.1-17.5c-.115,6.141-2.277,12.42-5.4,15.594A16.173,16.173,0,0,1-55.752.828c3.036-3.726,4.784-8.51,5.7-15.548l.092-.529.069-.46a3.264,3.264,0,0,1,.092-.644,1.835,1.835,0,0,1,.069-.368Zm7.061.736.092.276.023.23.161.874c0,.046.023.207.046.437.874,6.44,2.875,11.776,5.934,15.778a15.991,15.991,0,0,1,3.634-2.9,24.744,24.744,0,0,1-5.037-10.373,30.162,30.162,0,0,1-.828-4.991v-.092Zm4.347-1.449a19.669,19.669,0,0,1,1.38,3.8L-39.491-15a18.538,18.538,0,0,0-1.472-3.7Zm5.865,2.3a14.253,14.253,0,0,0-1.449-3.5l-1.7.529a19.324,19.324,0,0,1,1.426,3.611Zm15.318,2.208c0-.23.023-.506.023-.8,0-.92,0-.92.023-1.794a17.608,17.608,0,0,1,.138-2.507h-4.416a18.636,18.636,0,0,1,.138,2.438v1.748c-.023.6-.023.6-.023.92h-5.06a18,18,0,0,1-3.4-.184v4.048c1.15-.092,1.679-.115,3.335-.115h4.922c-.069.759-.069.759-.115,1.1a7.21,7.21,0,0,1-.966,2.9A10.546,10.546,0,0,1-32.338-1.7,11.092,11.092,0,0,1-29.3,1.817,22.174,22.174,0,0,0-26.956.345a12.764,12.764,0,0,0,3.68-4.025,13.357,13.357,0,0,0,1.61-6.279H-17.6a33.688,33.688,0,0,1,3.381.115v-4.048a19.292,19.292,0,0,1-3.45.184Zm11.293,7.153c1.4-.115,2.162-.138,4.738-.138H5.474a44.392,44.392,0,0,1,4.738.138v-4.439a37.737,37.737,0,0,1-4.715.207H-5.5a32.592,32.592,0,0,1-4.715-.207ZM18.561-9.43v1.15H16.445a20.375,20.375,0,0,1-2.277-.092A19.191,19.191,0,0,1,14.26-6.21V-1.4A12.645,12.645,0,0,1,14.145.736H17.48c-.046-.6-.069-1.173-.069-2.047V-5.175h1.15v4.9a14.591,14.591,0,0,1-.115,2.415h3.427A14.284,14.284,0,0,1,21.758-.23V-5.175h1.127v2.392c0,.253-.092.345-.368.345-.115,0-.483-.023-.69-.046a7.226,7.226,0,0,1,.621,2.99c.437.023.782.046.92.046,2.024,0,2.53-.46,2.53-2.277V-6.371a17.394,17.394,0,0,1,.069-1.978c-.621.046-1.012.069-2.139.069h-2.07V-9.43h2.116a17.763,17.763,0,0,1,2.231.092V-12.7a18.068,18.068,0,0,1-2.116.092H21.758v-1.2h1.7a20.993,20.993,0,0,1,2.254.092v-3.381a14.774,14.774,0,0,1-2.254.115h-1.7v-.437a11.58,11.58,0,0,1,.115-2.07H18.446a12.672,12.672,0,0,1,.115,2.116v.391h-.989c.115-.69.115-.713.138-.805l.115-.644c.023-.161.023-.184.046-.3l-3.128-.529a6.682,6.682,0,0,1-.115,1.058,13.362,13.362,0,0,1-1.449,4.186c1.058.483,1.7.805,2.829,1.4H15.64a16.166,16.166,0,0,1-2.024-.092v3.358a25.285,25.285,0,0,1,2.553-.092Zm0-3.174H16.33c.23-.6.276-.69.437-1.2h1.794Zm8.1-5.037a15.538,15.538,0,0,1,.115,2.369v9.43a12.974,12.974,0,0,1-.115,2.323h3.358a17.59,17.59,0,0,1-.092-2.323v-9.5a19.793,19.793,0,0,1,.092-2.3Zm4.14-1.725a23.2,23.2,0,0,1,.115,2.921v14.49c0,.6-.138.69-1.058.69-.621,0-1.587-.069-2.852-.184a7.886,7.886,0,0,1,.874,3.358c1.564.046,1.587.046,2,.046a6.445,6.445,0,0,0,3.565-.69c.644-.46.874-1.15.874-2.6V-16.583a15.665,15.665,0,0,1,.138-2.783ZM48.9-.989a24.063,24.063,0,0,1-.138,3.1h3.772a22.8,22.8,0,0,1-.138-3.128V-2.783h3.22a23.7,23.7,0,0,1,2.553.115V-6.049a20.754,20.754,0,0,1-2.553.115h-3.22V-8.073h3.2c.9,0,1.7.046,2.553.115v-3.358a19.31,19.31,0,0,1-2.507.115H52.394V-13.34H56.12a25.442,25.442,0,0,1,2.9.138v-3.427a22.221,22.221,0,0,1-2.921.138H50.876c.161-.391.23-.552.46-1.219.161-.437.253-.667.483-1.265l-3.68-.828a17.247,17.247,0,0,1-1.564,4.37,14.862,14.862,0,0,1-3.059,4.347V-13.8a27.581,27.581,0,0,0,1.564-3.7c.23-.69.276-.805.483-1.311l-3.588-1.1a11.582,11.582,0,0,1-.9,2.944A14.992,14.992,0,0,1,37.1-11.132a15.689,15.689,0,0,1,1.426,4.186,16.733,16.733,0,0,0,1.587-1.771c-.023.8-.023.8-.046,1.564V-.874a24.884,24.884,0,0,1-.138,2.9h3.726A28.3,28.3,0,0,1,43.516-.9v-9.936a15.628,15.628,0,0,1,2.024,3.1A23.766,23.766,0,0,0,48.9-12.42ZM62.675-14.7c-.253-.023-.3-.023-.529-.046v2.852c.759-.069,1.564-.092,2.737-.092h2.162c-.621.69-.92,1.012-1.817,1.863,2.323.391,2.323.391,3.312.6a38.971,38.971,0,0,1-4.439.276c-.368,0-.9-.023-1.587-.046A8.807,8.807,0,0,1,63.8-6.555a36.654,36.654,0,0,0,6.67-.759,9.7,9.7,0,0,1,.069,1.219H64.584a21.493,21.493,0,0,1-2.622-.138v3.082a20.909,20.909,0,0,1,2.691-.115h3.036A21.459,21.459,0,0,1,61.272-.9a8.634,8.634,0,0,1,1.794,3.1A23.863,23.863,0,0,0,67.183.552a15.059,15.059,0,0,0,3.4-2.254c-.023.46-.046.966-.046,1.426V.46a9.1,9.1,0,0,1-.115,1.633H74.06A9.988,9.988,0,0,1,73.945.46V-.3c0-.506-.023-.92-.046-1.472a20.732,20.732,0,0,0,7.912,3.887,10.255,10.255,0,0,1,1.633-3.243,18.792,18.792,0,0,1-6.693-2.139H80.27a20.085,20.085,0,0,1,2.668.115V-6.233a20.021,20.021,0,0,1-2.668.138H73.945a6.316,6.316,0,0,1,.138-1.518H71.714a17.9,17.9,0,0,0,2.047-.667,46.633,46.633,0,0,1,6.072,2.093l2.116-2.484a44.747,44.747,0,0,0-5.06-1.449,9.98,9.98,0,0,0,1.794-1.863h1.38c1.242,0,2,.023,2.714.092v-2.852c-.207.023-.276.023-.529.046v-1.909a15.437,15.437,0,0,1,.092-1.886c-.782.069-1.38.092-2.645.092H74.152a6.754,6.754,0,0,1,.115-1.311H70.4A6.834,6.834,0,0,1,70.5-18.4H65.343c-1.1,0-1.863-.023-2.76-.092a16.43,16.43,0,0,1,.092,1.84V-14.7Zm3.381.046v-.966h3.611c-.23.414-.345.6-.575.966Zm8.6,2.668a5.538,5.538,0,0,1-1.61,1.1c-1.127-.184-1.587-.253-2.783-.368.3-.345.391-.46.621-.736Zm-1.886-2.668c.207-.345.322-.529.575-.966h5.52v.966Zm25.461,2.806v3.7H94.921a22.1,22.1,0,0,1-2.76-.138v3.588a22.254,22.254,0,0,1,2.783-.138h3.289V-.782a18.968,18.968,0,0,1-.138,2.9h3.841a19.148,19.148,0,0,1-.138-2.9V-4.83h2.875a22.179,22.179,0,0,1,2.691.138V-8.28a21.95,21.95,0,0,1-2.737.138H101.8v-3.7h2.392c.8,0,1.357.023,2.6.115v-3.542a18.65,18.65,0,0,1-2.6.138H101.8v-1.7a15.029,15.029,0,0,1,.138-2.553H98.1a14.433,14.433,0,0,1,.138,2.507v1.748H96.9c.345-1.219.575-2.024.667-2.369l-3.4-.782a16.957,16.957,0,0,1-2.714,6.992v-2.76a41.235,41.235,0,0,0,1.863-4.784l-3.588-.989a12.467,12.467,0,0,1-.782,2.875A17.621,17.621,0,0,1,85.4-11.017a18.192,18.192,0,0,1,1.173,4.255,8.179,8.179,0,0,0,1.4-1.7c-.046,1.771-.046,1.771-.046,2.346V-.529a21.478,21.478,0,0,1-.138,2.645h3.795a21.253,21.253,0,0,1-.138-2.645V-11.017a13.426,13.426,0,0,1,2.6,2.3,19.444,19.444,0,0,0,1.679-3.128Z" transform="translate(-14579 6405)" fill="#583ffd"></path><g id="&#x30B0;&#x30EB;&#x30FC;&#x30D7;_9042" data-name="&#x30B0;&#x30EB;&#x30FC;&#x30D7; 9042" transform="translate(-752 337)"><g id="&#x30B0;&#x30EB;&#x30FC;&#x30D7;_9031" data-name="&#x30B0;&#x30EB;&#x30FC;&#x30D7; 9031" transform="translate(-15354 -898)"><g id="&#x9577;&#x65B9;&#x5F62;_4570" data-name="&#x9577;&#x65B9;&#x5F62; 4570" transform="translate(1353 7041)" fill="none" stroke="#e1e1e1" stroke-width="3"><rect width="347" height="309" rx="20" stroke="none"></rect><rect x="1.5" y="1.5" width="344" height="306" rx="18.5" fill="none"></rect></g><g id="Laptop" transform="translate(1463.1 7093.102)"><path id="&#x30D1;&#x30B9;_13866" data-name="&#x30D1;&#x30B9; 13866" d="M114.913,46.775H11.888A11.888,11.888,0,0,1,0,34.888V26.963A3.963,3.963,0,0,1,3.963,23H122.838a3.963,3.963,0,0,1,3.963,3.963v7.925A11.888,11.888,0,0,1,114.913,46.775ZM7.925,30.925v3.963a3.963,3.963,0,0,0,3.963,3.963H114.913a3.963,3.963,0,0,0,3.963-3.963V30.925Z" transform="translate(0 59.25)" fill="#021939"></path><path id="&#x30D1;&#x30B9;_13867" data-name="&#x30D1;&#x30B9; 13867" d="M5.963,90.176A3.963,3.963,0,0,1,2,86.213V14.888A11.888,11.888,0,0,1,13.888,3h87.176a11.888,11.888,0,0,1,11.888,11.888V70.363a3.963,3.963,0,1,1-7.925,0V14.888a3.963,3.963,0,0,0-3.963-3.963H13.888a3.963,3.963,0,0,0-3.963,3.963V86.213A3.963,3.963,0,0,1,5.963,90.176Z" transform="translate(5.925 0)" fill="#021939"></path><path id="&#x30D1;&#x30B9;_13868" data-name="&#x30D1;&#x30B9; 13868" d="M37.747,48.651a3.963,3.963,0,0,1-3.725-2.576L25.86,24.282,17.7,46.076a3.975,3.975,0,0,1-7.45-2.774L22.135,11.6a3.963,3.963,0,0,1,7.45,0L41.472,43.3a3.963,3.963,0,0,1-3.725,5.349Z" transform="translate(29.615 17.749)" fill="#583ffe"></path><path id="&#x30D1;&#x30B9;_13869" data-name="&#x30D1;&#x30B9; 13869" d="M22.963,48.625A3.963,3.963,0,0,1,19,44.663v-31.7a3.963,3.963,0,0,1,7.925,0v31.7A3.963,3.963,0,0,1,22.963,48.625Z" transform="translate(56.288 17.775)" fill="#583ffe"></path><path id="&#x30D1;&#x30B9;_13870" data-name="&#x30D1;&#x30B9; 13870" d="M30.813,22.925H14.963a3.963,3.963,0,1,1,0-7.925h15.85a3.963,3.963,0,1,1,0,7.925Z" transform="translate(32.588 35.55)" fill="#583ffe"></path></g></g><path id="&#x30D1;&#x30B9;_14061" data-name="&#x30D1;&#x30B9; 14061" d="M-88.688-2.576A21.951,21.951,0,0,1-88.872.782c.966-.046,1.61-.069,3.381-.069h4.853a8.874,8.874,0,0,0,6.463-2.3,10.154,10.154,0,0,0,2.668-7.429c0-3.059-.851-5.474-2.53-7.13a9.276,9.276,0,0,0-6.647-2.277h-4.807c-1.909,0-2.484-.023-3.4-.069a19.757,19.757,0,0,1,.207,3.381Zm4.554-.736V-14.4h3.013a4.7,4.7,0,0,1,3.565,1.173,5.853,5.853,0,0,1,1.334,4.278,6.221,6.221,0,0,1-1.449,4.416,4.452,4.452,0,0,1-3.381,1.219Zm16.077-15.111a21.481,21.481,0,0,1,.184,3.4V-2.691a22.043,22.043,0,0,1-.184,3.4H-63a22.234,22.234,0,0,1-.184-3.4V-15.019a21.3,21.3,0,0,1,.184-3.4ZM-57.04-9.775V-2.76A25.511,25.511,0,0,1-57.224.713h4.784a24.661,24.661,0,0,1-.184-3.473V-9.775h.713a22.871,22.871,0,0,1,3.013.161v-3.864c-.851.092-2.093.161-3.059.161h-.667v-.575c0-1.2.437-1.656,1.564-1.656a4.47,4.47,0,0,1,2.277.575l.713-3.381a12.1,12.1,0,0,0-3.5-.483c-3.749,0-5.474,1.4-5.474,4.439v1.081h-.621a20.847,20.847,0,0,1-2.576-.161v3.864a16.549,16.549,0,0,1,2.576-.161ZM-40.917-.529-41.4.46a1.953,1.953,0,0,1-1.863,1.081,3.507,3.507,0,0,1-1.794-.506l-.506,3.657a13.827,13.827,0,0,0,3.151.391c2.622,0,4.278-.989,5.2-3.151l5.267-12.167c.805-1.886.805-1.886,1.38-3.082h-4.991a13.721,13.721,0,0,1-.989,3.059l-2.047,5.221L-40.71-10.35a15.282,15.282,0,0,1-.9-2.967H-46.6c.3.575.391.782,1.38,3.082Zm13.731-13h.345c.322,0,.483,0,.805.023.989.023.989.023,1.978.023h.736c-.092.161-.092.161-.437.736-.345.552-1.265,1.886-1.771,2.507a15.792,15.792,0,0,1-2.438,2.392l2.921,2.9a14.611,14.611,0,0,1,2.208-2.323,7.6,7.6,0,0,1,4.37-2.208.95.95,0,0,1,.92.575c-.92.414-1.15.506-1.7.782a10.131,10.131,0,0,0-3.312,2.461,4.279,4.279,0,0,0-1.127,2.9A3.7,3.7,0,0,0-21.873.506C-20.631,1.242-19,1.564-16.4,1.564a45.392,45.392,0,0,0,5.543-.345,14.856,14.856,0,0,1,2.047-.207l-.253-4.14a21.783,21.783,0,0,1-7.36,1.15c-2.231,0-3.082-.345-3.082-1.219a1.587,1.587,0,0,1,.6-1.173,5.22,5.22,0,0,1,1.61-.966l.207-.092A18.879,18.879,0,0,1-17.2-2.99l3.749-.115a14.271,14.271,0,0,1-.092-1.978c0-1.012,0-1.035-.023-1.656A38.04,38.04,0,0,1-7.7-8.3l-1.4-3.634a9.644,9.644,0,0,1-1.84.69c-.736.23-1.357.437-1.426.46-1.219.414-1.219.414-1.61.552-.46-1.495-1.61-2.231-3.519-2.231a6.787,6.787,0,0,0-2.921.69,12.46,12.46,0,0,0,1.1-1.7c2.346-.069,5.221-.23,6.854-.391q1-.1,2.07-.207l-.138-3.657A33.712,33.712,0,0,1-16.353-17c-1.173.069-1.173.069-1.4.092.023-.046.161-.414.46-1.081a6.685,6.685,0,0,1,.483-1.081l-4.209-.322a8.323,8.323,0,0,1-.713,2.553h-.644a22.374,22.374,0,0,1-4.761-.322Zm28.7,2.645v.989a23.424,23.424,0,0,1,2.76-.138h2.9v2.116H4.232c-.874,0-1.4-.023-1.955-.069.046.552.069,1.242.069,1.932v5.52c0,.782-.046,1.725-.092,2.507H5.773V1.012h6.509v.966h3.634C15.847,1.288,15.8.46,15.8-.506V-5.934a19.15,19.15,0,0,1,.092-2.047,18.605,18.605,0,0,1-1.886.069H10.741v-2.116h3.542a20.953,20.953,0,0,1,2.737.138v-3.542a22.883,22.883,0,0,1-2.76.138H10.741v-2.277a45.112,45.112,0,0,0,5.29-.966,3.985,3.985,0,0,0,.46-.092l-2.3-3.174a11.468,11.468,0,0,1-3.243.9,56.893,56.893,0,0,1-9.154.943,9.693,9.693,0,0,1,1.173,3.082c1.863-.092,2.783-.138,4.209-.3v1.886H4.255a23,23,0,0,1-2.737-.138v2.254A26.328,26.328,0,0,0-2.691-13.8l-1.978,2.645A29.108,29.108,0,0,1-.3-8.142ZM5.8-4.784h6.509v2.622H5.8ZM-4.071-17.112a27.966,27.966,0,0,1,4.232,3.2l2.116-2.76a32.047,32.047,0,0,0-4.186-2.99Zm2.737,9.476c-1.15,3.4-2.231,5.727-3.289,7.015l3.059,2.553C-.851.529-.483-.253-.414-.391A45.764,45.764,0,0,0,1.518-5.658Zm33.9,2.9h4.278v2.829c0,.414-.184.506-1.012.506-.644,0-1.541-.046-2.553-.138a11.425,11.425,0,0,1,.92,3.312c.9.046,1.725.069,2.507.069,2.783,0,3.657-.667,3.657-2.806v-15a23.625,23.625,0,0,1,.115-2.944c-.759.069-1.449.092-2.875.092H24.2c-1.311,0-1.886-.023-2.737-.092.069.874.115,1.794.115,3.151,0,9.821-.368,12.443-2.116,15.364a12.059,12.059,0,0,1,3.128,2.622,16.154,16.154,0,0,0,2.162-6.969h4.393v3.243A21.51,21.51,0,0,1,29,1.426h3.68a23.173,23.173,0,0,1-.115-2.944Zm0-8.625v-2.162h4.278v2.162Zm-3.427,0H25.093v-2.162h4.048Zm3.427,3.2h4.278v2.208H32.568Zm-3.427,0v2.208H24.978c.046-1.012.046-1.265.069-2.208Zm18.124-8.487a10.8,10.8,0,0,1,.115,1.748c0,.9-.046,3.082-.092,5.405-.115,4.623-.115,4.623-.115,5.221,0,3.22.437,4.692,1.748,5.957a7.424,7.424,0,0,0,5.336,1.748,9.315,9.315,0,0,0,7.222-2.967c1.265-1.4,2.024-3.082,2.9-6.532a13.98,13.98,0,0,1-3.933-2.415,17.477,17.477,0,0,1-.92,4.163,5.318,5.318,0,0,1-5.106,3.887,3.1,3.1,0,0,1-2.691-1.1c-.391-.621-.483-1.311-.483-3.611,0-3.841.276-9.982.529-11.431Zm33.58,2.392a25.986,25.986,0,0,1-3.772.6c.207-1.173.345-1.84.368-1.978a7.271,7.271,0,0,1,.3-1.334l-4.3-.322v.345a22.182,22.182,0,0,1-.391,3.45h-.437a23.937,23.937,0,0,1-3.5-.23l-.069,3.749a4.635,4.635,0,0,1,.529-.023h.23c.989.046,1.472.069,2.208.069h.368A49.118,49.118,0,0,1,68.517-.161L72.749,1.38c.161-.552.161-.552.529-1.656.989-2.967,1.127-3.473,1.7-5.5.644-2.392,1.058-4.094,1.449-6.256.713-.046.989-.069,2.093-.184l.23,3.266a30.869,30.869,0,0,1,6.463-.575,20.727,20.727,0,0,1,3.013.161l-.069-3.887c-.483-.023-.966-.023-1.127-.023a39.1,39.1,0,0,0-6.1.345ZM78.407-7.705c-1.265,1.84-1.794,3.128-1.794,4.462q0,4.347,6.762,4.347A28.172,28.172,0,0,0,87.86.736c.552-.069.759-.092,1.219-.138L88.8-3.427a17.308,17.308,0,0,1-5.428.9c-1.932,0-2.875-.506-2.875-1.564A4.069,4.069,0,0,1,81.742-6.6Z" transform="translate(-13827 6365)"></path><path id="&#x30D1;&#x30B9;_14062" data-name="&#x30D1;&#x30B9; 14062" d="M-113.275-12.1v3.45H-116.2a28.21,28.21,0,0,1-3.082-.115v3.45c.989-.092,1.932-.138,3.151-.138h2.852V-1.7h-5.037c-1.334,0-2.484-.046-3.657-.161V1.7c1.334-.115,2.484-.161,3.8-.161h13.409c1.265,0,2.231.046,3.542.161V-1.863a33.913,33.913,0,0,1-3.657.161h-4.738V-5.451h3.4c1.219,0,2.162.046,3.2.138V-8.786a31.629,31.629,0,0,1-3.22.138h-3.381V-12.1h4.117c1.242,0,2.323.046,3.473.138v-3.473c-1.1.092-2.231.138-3.588.138h-4v-1.058a21.193,21.193,0,0,1,.138-3.082h-3.933a25.937,25.937,0,0,1,.138,3.082V-15.3h-2.76c.161-.506.276-.851.391-1.311.184-.621.184-.621.46-1.4l-3.588-.851a14.712,14.712,0,0,1-4.025,8.533,12.271,12.271,0,0,1,2.3,2.99,20.882,20.882,0,0,0,3.151-4.761Zm32.039-.322a14.2,14.2,0,0,1-1.541,4.3,35.645,35.645,0,0,1-.644-5.359h3.427a28.9,28.9,0,0,1,3.013.138v-3.473a13.854,13.854,0,0,1-2.277.115l1.357-1.127a16.79,16.79,0,0,0-2.921-2.139l-2.208,2.047A13.879,13.879,0,0,1-81.19-16.7h-2.323v-1.081a11.689,11.689,0,0,1,.115-1.656h-3.749a22.837,22.837,0,0,1,.138,2.737h-6.509c-1.219,0-2.185-.046-3.128-.115a29.686,29.686,0,0,1,.138,3.036,48.2,48.2,0,0,1-.667,9.338A10.67,10.67,0,0,1-98.693-.667a15.628,15.628,0,0,1,2.76,2.852,13.872,13.872,0,0,0,2.139-5.4,14.822,14.822,0,0,1,.529,2.53c.368.023.6.023.828.023A11.385,11.385,0,0,0-90.045-.92a13.636,13.636,0,0,1,1.7,2.76,21.2,21.2,0,0,0,4.6-3.427c1.587,2.277,3.013,3.4,4.324,3.4,1.4,0,2.3-1.5,2.9-4.945A12.327,12.327,0,0,1-79.166-5.2a11.2,11.2,0,0,1-.644,2.967A6.925,6.925,0,0,1-81.4-4.324a28.472,28.472,0,0,0,3.082-5.75,10.78,10.78,0,0,1,.437-1.1Zm-11.845,1.334c.023-.759.023-1.127.023-2.392h6.187a29.448,29.448,0,0,0,1.564,8.832,16.9,16.9,0,0,1-3.151,2.484,14.587,14.587,0,0,0,.713-4.784c.138-3.565.138-3.565.184-4.209a12.664,12.664,0,0,1-1.518.069Zm2.024,3.128A12.268,12.268,0,0,1-91.4-4.347c-.161.368-.345.46-.9.46a7.9,7.9,0,0,1-1.357-.138c.184-1.219.322-2.369.437-3.933Zm36,8.671c-.3-.644-.667-1.587-1.1-2.806l-4.991-13.846a18.354,18.354,0,0,1-.782-2.484h-6a14.04,14.04,0,0,1-.736,2.484L-73.646-2.093A22.66,22.66,0,0,1-74.75.713h5.382a13.255,13.255,0,0,1,.575-2.484l.621-1.955h6.555L-61-1.771A18.678,18.678,0,0,1-60.444.713Zm-7.682-8.3h-4.324l2.139-6.9Zm10.419-10.833a21.481,21.481,0,0,1,.184,3.4V-2.691a22.043,22.043,0,0,1-.184,3.4h5.06a22.234,22.234,0,0,1-.184-3.4V-15.019a21.3,21.3,0,0,1,.184-3.4Zm27.485.345a3.853,3.853,0,0,1-1.978.253H-38.87a21.894,21.894,0,0,1-3.726-.207v4.025a30.682,30.682,0,0,1,3.657-.161h10.971a8.706,8.706,0,0,1-3.864,3.91,2.978,2.978,0,0,0-.529.276c0-.23.023-.782.023-.805a12.34,12.34,0,0,1,.115-1.978h-4.324a6.248,6.248,0,0,1,.138,1.587c0,3.059-.391,4.692-1.495,6.118a10.283,10.283,0,0,1-5.267,3.2,11.576,11.576,0,0,1,2.622,3.726A20.954,20.954,0,0,0-37.306.092,11.456,11.456,0,0,0-33.718-3.8a12.978,12.978,0,0,0,1.334-5.589,12.074,12.074,0,0,1,2.576,2.507,15.556,15.556,0,0,0,6.417-7.613,2.967,2.967,0,0,1,.713-1.2ZM-.3-14.536a2.577,2.577,0,0,0,2.576-2.6,2.582,2.582,0,0,0-2.6-2.6A2.552,2.552,0,0,0-2.9-17.25h-11.73a22.11,22.11,0,0,1-3.864-.184v4.14a33.617,33.617,0,0,1,3.795-.138h9.614C-6.394-8.073-10.534-4-16.652-2.093a12.157,12.157,0,0,1,2.9,3.864c7.314-3.266,11.316-7.912,13.2-15.3l.138-.6c.023-.069.046-.138.069-.23l.023-.092Zm-.023-3.91A1.325,1.325,0,0,1,.989-17.135,1.321,1.321,0,0,1-.322-15.847a1.321,1.321,0,0,1-1.311-1.288A1.325,1.325,0,0,1-.322-18.446ZM7.5-18.4a23.028,23.028,0,0,1,.138,3.036v4.554A23.862,23.862,0,0,1,7.5-7.452H11.96a30.11,30.11,0,0,1-.115-3.289v-4.577A27.7,27.7,0,0,1,11.96-18.4Zm10.7,0a22.28,22.28,0,0,1,.138,3.151v2.392a39.057,39.057,0,0,1-.253,4.876,5.937,5.937,0,0,1-3.427,4.462,14.838,14.838,0,0,1-4.554,1.4,10.521,10.521,0,0,1,2.346,3.933A19.264,19.264,0,0,0,17.227-.069a9.459,9.459,0,0,0,4.784-5.842A29.72,29.72,0,0,0,22.54-12.6V-15.3c0-1.472.023-1.817.115-3.1ZM33.35-3.473c.46-.046.989-.069,1.863-.092A5.04,5.04,0,0,1,33.189-.414a10.452,10.452,0,0,1,2.6,2.231,8.461,8.461,0,0,0,2.576-5.382H40v2.99a13.688,13.688,0,0,1-.092,1.955h3.289A11.961,11.961,0,0,1,43.1-.552V-3.565c1.058.023,1.426.023,2.07.092V-6.325a15.6,15.6,0,0,1-2.07.092V-7.682c.943.023,1.242.046,1.794.092v-2.76a23.87,23.87,0,0,1-2.553.092h-6.21a22.489,22.489,0,0,1-2.461-.092v2.76c.529-.046,1.035-.069,1.84-.092-.023.69-.023,1.173-.046,1.449a16.169,16.169,0,0,1-2.116-.092ZM40-7.682v1.449H38.525c.023-.575.023-.874.023-1.449Zm-7.314-3.381H36.8c.621,0,1.4.023,1.886.046a19.633,19.633,0,0,1-.046-2v-3.933c0-.9.023-1.4.069-2.093a18.474,18.474,0,0,1-2.346.092H31.487a19.485,19.485,0,0,1-2.323-.092,25.644,25.644,0,0,1,.092,2.622V-1.127a23.82,23.82,0,0,1-.138,3.105h3.7a24.464,24.464,0,0,1-.138-3.059Zm0-5.635h2.783v.851H32.683Zm0,2.691h2.783v.851H32.683Zm16.606-2.438a25.714,25.714,0,0,1,.092-2.6,19.485,19.485,0,0,1-2.323.092H42.044a18.949,18.949,0,0,1-2.346-.092c.046.644.069,1.288.069,2.093v3.933c0,1.081,0,1.518-.046,2.024.69-.023,1.173-.046,1.886-.046h4.278V-2c0,.46-.115.529-.69.529a17.931,17.931,0,0,1-1.84-.115,10.726,10.726,0,0,1,.828,3.381c.322.023.483.023.6.023,2.6,0,3.427-.184,3.979-.874a3.554,3.554,0,0,0,.529-2.369Zm-6.3-.253h2.9v.851h-2.9Zm0,2.691h2.9v.851h-2.9Zm15.893,6.3H56a14.729,14.729,0,0,1-2.53-.138v3.358A19.051,19.051,0,0,1,56-4.6h2.507a3.882,3.882,0,0,1-1.7,2.116A12.053,12.053,0,0,1,52.923-.943a9.2,9.2,0,0,1,2.185,3.2,12.13,12.13,0,0,0,4.3-2.277A7.243,7.243,0,0,0,62.054-4.6h2.139V-.46c0,1.1.207,1.518.92,1.886a8.341,8.341,0,0,0,3.4.414c2.806,0,4.048-.276,4.715-1.058.483-.575.667-1.38.874-3.588a12.7,12.7,0,0,1-3.45-.966,4.678,4.678,0,0,0-.023.506c-.023.391-.023.506-.046.644a2.867,2.867,0,0,1-.184.92c-.184.3-.6.414-1.5.414C67.8-1.288,67.6-1.4,67.6-2V-4.6h3.151a20.474,20.474,0,0,1,2.576.115V-7.843a15.494,15.494,0,0,1-2.576.138H67.6V-9.43c.851.023,1.265.023,1.932.092v-.782a24.366,24.366,0,0,0,3.427,1.633A11.356,11.356,0,0,1,74.5-11.753a16.042,16.042,0,0,1-3.036-1.2,18.769,18.769,0,0,0,1.518-1.518c.736-.874.736-.874.9-1.058l-2.9-1.495a12.465,12.465,0,0,1-2.162,2.484c-.322-.23-.391-.276-.828-.621a20.379,20.379,0,0,0,2.047-2.185,3,3,0,0,1,.322-.368l-2.875-1.518a10.466,10.466,0,0,1-1.679,2,5.063,5.063,0,0,1-1.058-1.909,11.992,11.992,0,0,1-1.909.092h-4a12.339,12.339,0,0,1-2.116-.115v2.714c-.391-.345-.6-.529-1.242-1.1l-2.645,1.863a17.512,17.512,0,0,1,2.99,2.875A16.95,16.95,0,0,1,52.3-11.339,8.881,8.881,0,0,1,54.1-8.326a22.734,22.734,0,0,0,3.588-1.817v.805c.483-.046.644-.046,1.2-.069ZM62.307-9.43h1.886v1.725H62.284Zm-2.07-6.647a7.586,7.586,0,0,1-1.7,1.518c-.483-.552-.782-.874-1.4-1.5.3-.023.552-.023.851-.023Zm.69,3.68a17.729,17.729,0,0,0,2.6-2.645,14.185,14.185,0,0,0,2.6,2.645Zm16.859-2.3c-.253-.023-.3-.023-.529-.046v2.852c.759-.069,1.564-.092,2.737-.092h2.162c-.621.69-.92,1.012-1.817,1.863,2.323.391,2.323.391,3.312.6a38.971,38.971,0,0,1-4.439.276c-.368,0-.9-.023-1.587-.046a8.807,8.807,0,0,1,1.288,2.737,36.654,36.654,0,0,0,6.67-.759,9.7,9.7,0,0,1,.069,1.219H79.7a21.493,21.493,0,0,1-2.622-.138v3.082a20.909,20.909,0,0,1,2.691-.115H82.8A21.459,21.459,0,0,1,76.383-.9a8.634,8.634,0,0,1,1.794,3.1A23.863,23.863,0,0,0,82.294.552,15.059,15.059,0,0,0,85.7-1.7c-.023.46-.046.966-.046,1.426V.46a9.1,9.1,0,0,1-.115,1.633h3.634A9.988,9.988,0,0,1,89.056.46V-.3c0-.506-.023-.92-.046-1.472a20.732,20.732,0,0,0,7.912,3.887,10.255,10.255,0,0,1,1.633-3.243,18.792,18.792,0,0,1-6.693-2.139h3.519a20.085,20.085,0,0,1,2.668.115V-6.233a20.021,20.021,0,0,1-2.668.138H89.056a6.317,6.317,0,0,1,.138-1.518H86.825a17.9,17.9,0,0,0,2.047-.667,46.632,46.632,0,0,1,6.072,2.093L97.06-8.671A44.747,44.747,0,0,0,92-10.12a9.98,9.98,0,0,0,1.794-1.863h1.38c1.242,0,2,.023,2.714.092v-2.852c-.207.023-.276.023-.529.046v-1.909a15.437,15.437,0,0,1,.092-1.886c-.782.069-1.38.092-2.645.092H89.263a6.753,6.753,0,0,1,.115-1.311H85.514a6.834,6.834,0,0,1,.092,1.311H80.454c-1.1,0-1.863-.023-2.76-.092a16.43,16.43,0,0,1,.092,1.84V-14.7Zm3.381.046v-.966h3.611c-.23.414-.345.6-.575.966Zm8.6,2.668a5.538,5.538,0,0,1-1.61,1.1c-1.127-.184-1.587-.253-2.783-.368.3-.345.391-.46.621-.736Zm-1.886-2.668c.207-.345.322-.529.575-.966h5.52v.966Zm25.461,2.806v3.7h-3.312a22.1,22.1,0,0,1-2.76-.138v3.588a22.254,22.254,0,0,1,2.783-.138h3.289V-.782a18.968,18.968,0,0,1-.138,2.9h3.841a19.148,19.148,0,0,1-.138-2.9V-4.83h2.875a22.179,22.179,0,0,1,2.691.138V-8.28a21.95,21.95,0,0,1-2.737.138h-2.829v-3.7H119.3c.805,0,1.357.023,2.6.115v-3.542a18.65,18.65,0,0,1-2.6.138h-2.392v-1.7a15.029,15.029,0,0,1,.138-2.553h-3.841a14.433,14.433,0,0,1,.138,2.507v1.748H112.01c.345-1.219.575-2.024.667-2.369l-3.4-.782a16.957,16.957,0,0,1-2.714,6.992v-2.76a41.235,41.235,0,0,0,1.863-4.784l-3.588-.989a12.467,12.467,0,0,1-.782,2.875,17.621,17.621,0,0,1-3.542,5.934,18.192,18.192,0,0,1,1.173,4.255,8.179,8.179,0,0,0,1.4-1.7c-.046,1.771-.046,1.771-.046,2.346V-.529a21.478,21.478,0,0,1-.138,2.645H106.7a21.253,21.253,0,0,1-.138-2.645V-11.017a13.426,13.426,0,0,1,2.6,2.3,19.444,19.444,0,0,0,1.679-3.128Z" transform="translate(-13828 6405)" fill="#583ffd"></path></g><g id="Generate_Text" data-name="Generate Text" transform="translate(-15009.002 6185.942)"><path id="&#x30D1;&#x30B9;_13821" data-name="&#x30D1;&#x30B9; 13821" d="M40.126,73.565H13.375A13.375,13.375,0,0,1,0,60.19V13.375A13.375,13.375,0,0,1,13.375,0H80.253A13.375,13.375,0,0,1,93.628,13.375V43.47a3.344,3.344,0,0,1-6.688,0V13.375a6.688,6.688,0,0,0-6.688-6.688H13.375a6.688,6.688,0,0,0-6.688,6.688V60.19a6.688,6.688,0,0,0,6.688,6.688H40.126a3.344,3.344,0,0,1,0,6.688Z" fill="#011839"></path><path id="&#x30D1;&#x30B9;_13822" data-name="&#x30D1;&#x30B9; 13822" d="M61.814,69.5H25.032A10.032,10.032,0,0,1,15,59.47V26.032A10.032,10.032,0,0,1,25.032,16H61.814A10.032,10.032,0,0,1,71.846,26.032V59.47A10.032,10.032,0,0,1,61.814,69.5ZM25.032,22.688a3.344,3.344,0,0,0-3.344,3.344V59.47a3.344,3.344,0,0,0,3.344,3.344H61.814a3.344,3.344,0,0,0,3.344-3.344V26.032a3.344,3.344,0,0,0-3.344-3.344Z" transform="translate(35.158 37.502)" fill="#011839"></path><path id="&#x30D1;&#x30B9;_13823" data-name="&#x30D1;&#x30B9; 13823" d="M35.8,41.049a3.344,3.344,0,0,1-2.976-1.839l-3.712-7.39L25.4,39.21A3.344,3.344,0,1,1,19.446,36.2l6.688-13.375a3.344,3.344,0,0,1,5.952,0L38.773,36.2A3.344,3.344,0,0,1,35.8,41.049Z" transform="translate(44.456 49.235)" fill="#583ffd"></path><path id="&#x30D1;&#x30B9;_13824" data-name="&#x30D1;&#x30B9; 13824" d="M29.344,41.063A3.344,3.344,0,0,1,26,37.719V24.344a3.344,3.344,0,1,1,6.688,0V37.719A3.344,3.344,0,0,1,29.344,41.063Z" transform="translate(60.941 49.221)" fill="#583ffd"></path><path id="&#x30D1;&#x30B9;_13825" data-name="&#x30D1;&#x30B9; 13825" d="M27.407,10.688H7.344A3.344,3.344,0,1,1,7.344,4H27.407a3.344,3.344,0,1,1,0,6.688Z" transform="translate(9.375 9.375)" fill="#583ffd"></path><path id="&#x30D1;&#x30B9;_13826" data-name="&#x30D1;&#x30B9; 13826" d="M10.344,30.751A3.344,3.344,0,0,1,7,27.407V7.344a3.344,3.344,0,1,1,6.688,0V27.407A3.344,3.344,0,0,1,10.344,30.751Z" transform="translate(16.407 9.375)" fill="#583ffd"></path><path id="&#x30D1;&#x30B9;_13827" data-name="&#x30D1;&#x30B9; 13827" d="M46.439,12.688H16.344a3.344,3.344,0,0,1,0-6.688H46.439a3.344,3.344,0,0,1,0,6.688Z" transform="translate(30.47 14.063)" fill="#583ffd"></path><path id="&#x30D1;&#x30B9;_13828" data-name="&#x30D1;&#x30B9; 13828" d="M46.439,16.688H16.344a3.344,3.344,0,0,1,0-6.688H46.439a3.344,3.344,0,0,1,0,6.688Z" transform="translate(30.47 23.439)" fill="#583ffd"></path><path id="&#x30D1;&#x30B9;_13829" data-name="&#x30D1;&#x30B9; 13829" d="M27.407,20.688H7.344a3.344,3.344,0,1,1,0-6.688H27.407a3.344,3.344,0,0,1,0,6.688Z" transform="translate(9.375 32.814)" fill="#583ffd"></path></g><g id="Generate_Image" data-name="Generate Image" transform="translate(-14633.002 6185.942)"><path id="&#x30D1;&#x30B9;_13816" data-name="&#x30D1;&#x30B9; 13816" d="M9.333,37.3a3.344,3.344,0,0,1-2.608-5.417L20.1,15.165a3.344,3.344,0,0,1,5.216,0l3.11,3.879L36.552,5.668a3.344,3.344,0,0,1,5.718,0L58.99,32.419A3.344,3.344,0,0,1,56.147,37.3Zm28.356-6.688H50.128l-10.7-17.02-6.688,11Zm-21.4,0h12.84l-6.42-8.025Z" transform="translate(14.074 9.513)" fill="#583ffd"></path><path id="&#x30D1;&#x30B9;_13817" data-name="&#x30D1;&#x30B9; 13817" d="M40.126,73.565H13.375A13.375,13.375,0,0,1,0,60.19V13.375A13.375,13.375,0,0,1,13.375,0H80.253A13.375,13.375,0,0,1,93.628,13.375V43.47a3.344,3.344,0,0,1-6.688,0V13.375a6.688,6.688,0,0,0-6.688-6.688H13.375a6.688,6.688,0,0,0-6.688,6.688V60.19a6.688,6.688,0,0,0,6.688,6.688H40.126a3.344,3.344,0,0,1,0,6.688Z" fill="#011839"></path><path id="&#x30D1;&#x30B9;_13818" data-name="&#x30D1;&#x30B9; 13818" d="M61.814,69.5H25.032A10.032,10.032,0,0,1,15,59.47V26.032A10.032,10.032,0,0,1,25.032,16H61.814A10.032,10.032,0,0,1,71.846,26.032V59.47A10.032,10.032,0,0,1,61.814,69.5ZM25.032,22.688a3.344,3.344,0,0,0-3.344,3.344V59.47a3.344,3.344,0,0,0,3.344,3.344H61.814a3.344,3.344,0,0,0,3.344-3.344V26.032a3.344,3.344,0,0,0-3.344-3.344Z" transform="translate(35.158 37.502)" fill="#011839"></path><path id="&#x30D1;&#x30B9;_13819" data-name="&#x30D1;&#x30B9; 13819" d="M35.8,41.049a3.344,3.344,0,0,1-2.976-1.839l-3.712-7.39L25.4,39.21A3.344,3.344,0,1,1,19.446,36.2l6.688-13.375a3.344,3.344,0,0,1,5.952,0L38.773,36.2A3.344,3.344,0,0,1,35.8,41.049Z" transform="translate(44.456 49.235)" fill="#583ffd"></path><path id="&#x30D1;&#x30B9;_13820" data-name="&#x30D1;&#x30B9; 13820" d="M29.344,41.063A3.344,3.344,0,0,1,26,37.719V24.344a3.344,3.344,0,0,1,6.688,0V37.719A3.344,3.344,0,0,1,29.344,41.063Z" transform="translate(60.941 49.221)" fill="#583ffd"></path></g><g id="&#x30B0;&#x30EB;&#x30FC;&#x30D7;_9041" data-name="&#x30B0;&#x30EB;&#x30FC;&#x30D7; 9041" transform="translate(-752 337)"><g id="&#x30B0;&#x30EB;&#x30FC;&#x30D7;_9030" data-name="&#x30B0;&#x30EB;&#x30FC;&#x30D7; 9030" transform="translate(-15354 -898)"><g id="&#x9577;&#x65B9;&#x5F62;_4569" data-name="&#x9577;&#x65B9;&#x5F62; 4569" transform="translate(977 7041)" fill="none" stroke="#e1e1e1" stroke-width="3"><rect width="347" height="309" rx="20" stroke="none"></rect><rect x="1.5" y="1.5" width="344" height="306" rx="18.5" fill="none"></rect></g><path id="&#x30D1;&#x30B9;_14059" data-name="&#x30D1;&#x30B9; 14059" d="M-99.935-14.536a2.577,2.577,0,0,0,2.576-2.6,2.582,2.582,0,0,0-2.6-2.6,2.552,2.552,0,0,0-2.576,2.484h-11.73a22.111,22.111,0,0,1-3.864-.184v4.14a33.617,33.617,0,0,1,3.8-.138h9.614C-106.03-8.073-110.17-4-116.288-2.093a12.157,12.157,0,0,1,2.9,3.864c7.314-3.266,11.316-7.912,13.2-15.3l.138-.6c.023-.069.046-.138.069-.23l.023-.092Zm-.023-3.91a1.325,1.325,0,0,1,1.311,1.311,1.321,1.321,0,0,1-1.311,1.288,1.321,1.321,0,0,1-1.311-1.288A1.325,1.325,0,0,1-99.958-18.446Zm20.4,17.733V.828h4.163a31,31,0,0,1-.161-3.795V-14.628c0-1.081.023-1.909.069-2.714a26.138,26.138,0,0,1-2.852.092h-12.4a26.93,26.93,0,0,1-2.783-.092c.069.943.092,1.656.092,2.645V-2.875A29.3,29.3,0,0,1-93.61.874h4.186V-.713Zm0-3.68h-9.867V-13.57h9.867Zm9.775-10.166a24.564,24.564,0,0,1,6.256,4.853l2.714-3.588A33.553,33.553,0,0,0-67.137-17.8ZM-68.356.9C-67.735.713-67.6.69-66.7.483c4.278-.989,6.463-1.84,8.947-3.45,3.22-2.07,5.4-4.784,7.5-9.315a14.849,14.849,0,0,1-3.381-3.082,21.175,21.175,0,0,1-2.254,4.508,13.831,13.831,0,0,1-6.739,5.681,23.079,23.079,0,0,1-6.923,1.656Zm40.871-15.433a2.577,2.577,0,0,0,2.576-2.6,2.582,2.582,0,0,0-2.6-2.6,2.552,2.552,0,0,0-2.576,2.484h-11.73a22.11,22.11,0,0,1-3.864-.184v4.14a33.617,33.617,0,0,1,3.795-.138h9.614C-33.58-8.073-37.72-4-43.838-2.093a12.157,12.157,0,0,1,2.9,3.864c7.314-3.266,11.316-7.912,13.2-15.3l.138-.6c.023-.069.046-.138.069-.23l.023-.092Zm-.023-3.91A1.325,1.325,0,0,1-26.2-17.135a1.321,1.321,0,0,1-1.311,1.288,1.321,1.321,0,0,1-1.311-1.288A1.325,1.325,0,0,1-27.508-18.446Zm13.915,19.8a33.727,33.727,0,0,1-.138-3.519v-5.98a5.523,5.523,0,0,0,1.035.46,42.633,42.633,0,0,1,7.245,4l2.185-3.91a48.784,48.784,0,0,0-10.465-4.784v-3.151a29.74,29.74,0,0,1,.115-3.358h-4.439a21.76,21.76,0,0,1,.161,3.335V-2.162a32.827,32.827,0,0,1-.138,3.519ZM2.668-13.524h.345c.322,0,.483,0,.805.023.989.023.989.023,1.978.023h.736c-.092.161-.092.161-.437.736-.345.552-1.265,1.886-1.771,2.507A15.792,15.792,0,0,1,1.886-7.843l2.921,2.9A14.611,14.611,0,0,1,7.015-7.268a7.6,7.6,0,0,1,4.37-2.208.95.95,0,0,1,.92.575c-.92.414-1.15.506-1.7.782A10.131,10.131,0,0,0,7.291-5.658a4.279,4.279,0,0,0-1.127,2.9A3.7,3.7,0,0,0,7.981.506c1.242.736,2.875,1.058,5.474,1.058A45.392,45.392,0,0,0,19,1.219a14.856,14.856,0,0,1,2.047-.207l-.253-4.14a21.783,21.783,0,0,1-7.36,1.15c-2.231,0-3.082-.345-3.082-1.219a1.587,1.587,0,0,1,.6-1.173,5.22,5.22,0,0,1,1.61-.966l.207-.092A18.879,18.879,0,0,1,12.65-2.99L16.4-3.105a14.271,14.271,0,0,1-.092-1.978c0-1.012,0-1.035-.023-1.656A38.04,38.04,0,0,1,22.149-8.3l-1.4-3.634a9.644,9.644,0,0,1-1.84.69c-.736.23-1.357.437-1.426.46-1.219.414-1.219.414-1.61.552-.46-1.495-1.61-2.231-3.519-2.231a6.787,6.787,0,0,0-2.921.69,12.46,12.46,0,0,0,1.1-1.7c2.346-.069,5.221-.23,6.854-.391q1-.1,2.07-.207l-.138-3.657A33.712,33.712,0,0,1,13.5-17c-1.173.069-1.173.069-1.4.092.023-.046.161-.414.46-1.081a6.685,6.685,0,0,1,.483-1.081l-4.209-.322a8.323,8.323,0,0,1-.713,2.553H7.475a22.374,22.374,0,0,1-4.761-.322Zm30.82,3.542h.253c.437,0,.828.023,1.311.069v-2.254a7.648,7.648,0,0,1-1.311.069h-.253v-.943h.3a10.885,10.885,0,0,1,1.288.069v-2.277a11.765,11.765,0,0,1-1.288.069h-.3v-.966h.322a11.808,11.808,0,0,1,1.7.092v-2.967a22.925,22.925,0,0,1-2.622.115H28.865A24.46,24.46,0,0,1,26.22-19a19.7,19.7,0,0,1,.115,2.645v7.889a17.543,17.543,0,0,1-.115,2.139c.506-.046,1.242-.069,1.955-.069H32.89v.437c0,.345,0,.713-.069,2.254a12.878,12.878,0,0,0-.6-2.277l-.9.276a18.024,18.024,0,0,1,.621,3.174l.851-.506-.023.345c-.023.184-.046.322-.046.368-.069.989-.276,1.242-1.012,1.242a8.183,8.183,0,0,1-1.449-.138,7.985,7.985,0,0,1,.506,3.128c.414.023.644.023.782.023,1.5,0,2.392-.276,2.9-.9C35.1.276,35.4-2,35.466-6.624a20.069,20.069,0,0,1,.092-2.369,10.692,10.692,0,0,1-1.679.092h-.391Zm-2.76,0V-8.9H29.509V-9.982Zm0-2.116H29.509v-.943h1.219Zm0-3.082H29.509v-.966h1.219Zm16.33,9.913c-.552-.989-1.035-1.748-2.208-3.5.414-1.173.759-2.277.989-3.2.483-1.909.483-1.909.6-2.254l-3.1-1.15a19.26,19.26,0,0,1-.69,3.519c-.621-.805-.989-1.265-1.932-2.415l-1.38,1.61v-3.013h5.06a18.841,18.841,0,0,1,2.53.115v-3.4a24.84,24.84,0,0,1-2.806.138H38.088a16.122,16.122,0,0,1-2.139-.092,18.685,18.685,0,0,1,.092,1.978V-.621c0,1.012-.046,1.978-.115,2.714h3.4v-.92h5.014a23.278,23.278,0,0,1,2.737.138v-3.45A19.636,19.636,0,0,1,44.436-2H41.354A17.229,17.229,0,0,0,43.378-5.29a26.6,26.6,0,0,1,1.495,2.783ZM39.33-11.178c.552.667,1.2,1.541,2.07,2.783a15.888,15.888,0,0,1-2.07,3.45ZM39.33-2V-4a12.243,12.243,0,0,1,1.909,2ZM26.266-5.865A21.122,21.122,0,0,1,25.323.414l1.84.92a30.115,30.115,0,0,0,.92-6.716Zm2.047.414c.092,1.334.138,2.047.138,2.783,0,1.357-.023,1.863-.092,3.266L29.808.345V-.483a42.617,42.617,0,0,0-.3-5.129Zm1.564-.092a24.63,24.63,0,0,1,.437,4.14L31.6-1.7a38.635,38.635,0,0,0-.621-4.071ZM68.149-5.8A19.225,19.225,0,0,1,70.38-5.7a19.486,19.486,0,0,1-.092-2.323v-3.22a20.305,20.305,0,0,1,.092-2.3,19.04,19.04,0,0,1-2.208.092H65v-1.012h3.726c.943,0,1.61.023,2.438.092v-3.4a27.668,27.668,0,0,1-2.921.138H65c.023-.874.046-1.38.115-1.978H61.5a11.364,11.364,0,0,1,.115,1.978H58.65c-.782,0-1.587-.023-2.323-.092L56.718-19l-3.68-.805a13.437,13.437,0,0,1-.782,3.036A14.54,14.54,0,0,1,49.2-11.5a21.245,21.245,0,0,1,1.15,4.232A11.32,11.32,0,0,0,51.52-8.809c-.023,1.449-.046,2.231-.046,2.369V-.483a19.823,19.823,0,0,1-.138,2.622h3.657a20.382,20.382,0,0,1-.138-2.645V-.759a11.055,11.055,0,0,1,1.564,2.852A12.515,12.515,0,0,0,61.157-.23c2.668,1.4,5.014,2,9.108,2.3A12.7,12.7,0,0,1,71.53-1.541c-3.841,0-6.026-.322-8.234-1.2a10.471,10.471,0,0,0,1.2-3.059Zm-9.108,0L56.373-4.531c.115.138.276.322.391.46a20.352,20.352,0,0,0,1.541,1.725,10.648,10.648,0,0,1-3.45,1.265v-12.9c.46-.966.69-1.495,1.035-2.415v2.024c.828-.069,1.38-.092,2.3-.092h3.427v1.012H58.305a18.606,18.606,0,0,1-2.185-.092,19.35,19.35,0,0,1,.092,2.277v3.289A20.64,20.64,0,0,1,56.12-5.7,13.015,13.015,0,0,1,57.845-5.8Zm2.047,0a5.448,5.448,0,0,1-.575,1.4,4.938,4.938,0,0,1-1.265-1.4Zm.46-4.577c-.023.828-.023.943-.069,1.518H59.593v-1.518Zm5.336,0v1.518H64.86c.046-.828.046-.874.069-1.518Zm10.235-8.28a10.8,10.8,0,0,1,.115,1.748c0,.9-.046,3.082-.092,5.405-.115,4.623-.115,4.623-.115,5.221,0,3.22.437,4.692,1.748,5.957a7.424,7.424,0,0,0,5.336,1.748,9.315,9.315,0,0,0,7.222-2.967c1.265-1.4,2.024-3.082,2.9-6.532A13.981,13.981,0,0,1,90.3-10.488a17.477,17.477,0,0,1-.92,4.163,5.318,5.318,0,0,1-5.106,3.887,3.1,3.1,0,0,1-2.691-1.1c-.391-.621-.483-1.311-.483-3.611,0-3.841.276-9.982.529-11.431Zm33.58,2.392a25.986,25.986,0,0,1-3.772.6c.207-1.173.345-1.84.368-1.978a7.271,7.271,0,0,1,.3-1.334l-4.3-.322v.345a22.182,22.182,0,0,1-.391,3.45h-.437a23.937,23.937,0,0,1-3.5-.23L98.9-11.983a4.635,4.635,0,0,1,.529-.023h.23c.989.046,1.472.069,2.208.069h.368A49.118,49.118,0,0,1,98.371-.161L102.6,1.38c.161-.552.161-.552.529-1.656.989-2.967,1.127-3.473,1.7-5.5.644-2.392,1.058-4.094,1.449-6.256.713-.046.989-.069,2.093-.184l.23,3.266a30.869,30.869,0,0,1,6.463-.575,20.727,20.727,0,0,1,3.013.161l-.069-3.887c-.483-.023-.966-.023-1.127-.023a39.1,39.1,0,0,0-6.1.345Zm-2.438,8.556c-1.265,1.84-1.794,3.128-1.794,4.462q0,4.347,6.762,4.347a28.172,28.172,0,0,0,4.485-.368c.552-.069.759-.092,1.219-.138l-.276-4.025a17.308,17.308,0,0,1-5.428.9c-1.932,0-2.875-.506-2.875-1.564A4.069,4.069,0,0,1,111.6-6.6Z" transform="translate(1151 7263)"></path><path id="&#x30D1;&#x30B9;_14060" data-name="&#x30D1;&#x30B9; 14060" d="M-69.932-6.279v2.622a6.891,6.891,0,0,1-3.335.828,4.317,4.317,0,0,1-3.312-1.242,7.1,7.1,0,0,1-1.4-4.807c0-3.864,1.61-6,4.554-6a3.548,3.548,0,0,1,2.323.713,2.911,2.911,0,0,1,1.035,1.656l4.692-1.081A6.683,6.683,0,0,0-66.734-16.1a8.015,8.015,0,0,0-6.578-2.737c-5.8,0-9.453,3.841-9.453,9.89a10.694,10.694,0,0,0,2.714,7.636A9.148,9.148,0,0,0-73.221,1.15,15.363,15.363,0,0,0-68.344.368a11.394,11.394,0,0,0,2.921-1.449,23.467,23.467,0,0,1-.161-3.427V-7.084a21.828,21.828,0,0,1,.161-3.128c-1.012.092-1.863.115-3.036.115H-70.3a19.589,19.589,0,0,1-3.013-.138v4.071a14.741,14.741,0,0,1,2.277-.115ZM-56.753.713a29.863,29.863,0,0,1-.184-3.473V-5.7H-53.3c4.462,0,7.084-2.438,7.084-6.532,0-4-2.507-6.187-7.061-6.187h-5.037c-1.472,0-2.3-.023-3.381-.069a25.713,25.713,0,0,1,.184,3.358V-2.691A24.658,24.658,0,0,1-61.7.713Zm-.184-10.327v-4.9h3.427c1.656,0,2.553.828,2.553,2.415a2.3,2.3,0,0,1-2.553,2.484Zm23.759-4.738h2.6a29.658,29.658,0,0,1,3.588.161v-4.393a30.421,30.421,0,0,1-3.588.161H-40.653a31.524,31.524,0,0,1-3.427-.161v4.393a31.126,31.126,0,0,1,3.473-.161h2.714V-2.76A25.511,25.511,0,0,1-38.076.713h5.083a26.17,26.17,0,0,1-.184-3.473Zm5.842,10.879a5.338,5.338,0,0,0,.92,2.3c1.1,1.518,3.151,2.3,6.049,2.3,2.461,0,4.347-.575,5.451-1.679a4.217,4.217,0,0,0,1.173-3.059A3.606,3.606,0,0,0-15.951-7.13a14.088,14.088,0,0,0-3.772-1.1c-2.277-.506-2.76-.736-2.76-1.357,0-.6.736-.989,1.932-.989,1.242,0,1.817.414,1.932,1.357l4.439-.483a4.78,4.78,0,0,0-1.495-2.622,7.051,7.051,0,0,0-4.9-1.472c-3.841,0-6.164,1.679-6.164,4.439a4.36,4.36,0,0,0,.575,2.185,4.411,4.411,0,0,0,2.3,1.633,27.114,27.114,0,0,0,3.4.828,5.985,5.985,0,0,1,1.886.529.942.942,0,0,1,.506.828c0,.713-.782,1.1-2.162,1.1-1.541,0-2.323-.529-2.553-1.725ZM-5.923-9.43v1.15H-8.039a20.375,20.375,0,0,1-2.277-.092,19.191,19.191,0,0,1,.092,2.162V-1.4A12.645,12.645,0,0,1-10.339.736H-7c-.046-.6-.069-1.173-.069-2.047V-5.175h1.15v4.9a14.591,14.591,0,0,1-.115,2.415h3.427A14.284,14.284,0,0,1-2.726-.23V-5.175H-1.6v2.392c0,.253-.092.345-.368.345-.115,0-.483-.023-.69-.046A7.226,7.226,0,0,1-2.036.506c.437.023.782.046.92.046,2.024,0,2.53-.46,2.53-2.277V-6.371a17.394,17.394,0,0,1,.069-1.978C.862-8.3.471-8.28-.656-8.28h-2.07V-9.43H-.61a17.763,17.763,0,0,1,2.231.092V-12.7A18.068,18.068,0,0,1-.495-12.6H-2.726v-1.2h1.7a20.993,20.993,0,0,1,2.254.092v-3.381a14.774,14.774,0,0,1-2.254.115h-1.7v-.437a11.58,11.58,0,0,1,.115-2.07H-6.038a12.672,12.672,0,0,1,.115,2.116v.391h-.989c.115-.69.115-.713.138-.805l.115-.644c.023-.161.023-.184.046-.3l-3.128-.529a6.682,6.682,0,0,1-.115,1.058A13.362,13.362,0,0,1-11.3-14.007c1.058.483,1.7.805,2.829,1.4h-.368a16.166,16.166,0,0,1-2.024-.092v3.358A25.285,25.285,0,0,1-8.315-9.43Zm0-3.174H-8.154c.23-.6.276-.69.437-1.2h1.794Zm8.1-5.037a15.539,15.539,0,0,1,.115,2.369v9.43a12.974,12.974,0,0,1-.115,2.323H5.531a17.59,17.59,0,0,1-.092-2.323v-9.5a19.793,19.793,0,0,1,.092-2.3Zm4.14-1.725a23.2,23.2,0,0,1,.115,2.921v14.49c0,.6-.138.69-1.058.69-.621,0-1.587-.069-2.852-.184a7.886,7.886,0,0,1,.874,3.358c1.564.046,1.587.046,2,.046a6.445,6.445,0,0,0,3.565-.69c.644-.46.874-1.15.874-2.6V-16.583a15.665,15.665,0,0,1,.138-2.783ZM24.414-.989a24.064,24.064,0,0,1-.138,3.1h3.772a22.8,22.8,0,0,1-.138-3.128V-2.783h3.22a23.7,23.7,0,0,1,2.553.115V-6.049a20.754,20.754,0,0,1-2.553.115H27.91V-8.073h3.2c.9,0,1.7.046,2.553.115v-3.358a19.31,19.31,0,0,1-2.507.115H27.91V-13.34h3.726a25.442,25.442,0,0,1,2.9.138v-3.427a22.221,22.221,0,0,1-2.921.138H26.392c.161-.391.23-.552.46-1.219.161-.437.253-.667.483-1.265l-3.68-.828a17.247,17.247,0,0,1-1.564,4.37,14.862,14.862,0,0,1-3.059,4.347V-13.8A27.581,27.581,0,0,0,20.6-17.5c.23-.69.276-.805.483-1.311l-3.588-1.1a11.582,11.582,0,0,1-.9,2.944,14.992,14.992,0,0,1-3.979,5.842,15.689,15.689,0,0,1,1.426,4.186,16.734,16.734,0,0,0,1.587-1.771c-.023.8-.023.8-.046,1.564V-.874a24.885,24.885,0,0,1-.138,2.9H19.17A28.3,28.3,0,0,1,19.032-.9v-9.936a15.628,15.628,0,0,1,2.024,3.1,23.766,23.766,0,0,0,3.358-4.692ZM38.191-14.7c-.253-.023-.3-.023-.529-.046v2.852c.759-.069,1.564-.092,2.737-.092h2.162c-.621.69-.92,1.012-1.817,1.863,2.323.391,2.323.391,3.312.6a38.971,38.971,0,0,1-4.439.276c-.368,0-.9-.023-1.587-.046a8.807,8.807,0,0,1,1.288,2.737,36.654,36.654,0,0,0,6.67-.759,9.7,9.7,0,0,1,.069,1.219H40.1a21.493,21.493,0,0,1-2.622-.138v3.082a20.909,20.909,0,0,1,2.691-.115h3.036A21.459,21.459,0,0,1,36.788-.9a8.634,8.634,0,0,1,1.794,3.1A23.863,23.863,0,0,0,42.7.552,15.059,15.059,0,0,0,46.1-1.7c-.023.46-.046.966-.046,1.426V.46a9.1,9.1,0,0,1-.115,1.633h3.634A9.988,9.988,0,0,1,49.461.46V-.3c0-.506-.023-.92-.046-1.472a20.732,20.732,0,0,0,7.912,3.887A10.255,10.255,0,0,1,58.96-1.127a18.792,18.792,0,0,1-6.693-2.139h3.519a20.085,20.085,0,0,1,2.668.115V-6.233a20.021,20.021,0,0,1-2.668.138H49.461A6.317,6.317,0,0,1,49.6-7.613H47.23a17.9,17.9,0,0,0,2.047-.667,46.633,46.633,0,0,1,6.072,2.093l2.116-2.484a44.746,44.746,0,0,0-5.06-1.449A9.98,9.98,0,0,0,54.2-11.983h1.38c1.242,0,2,.023,2.714.092v-2.852c-.207.023-.276.023-.529.046v-1.909a15.437,15.437,0,0,1,.092-1.886c-.782.069-1.38.092-2.645.092H49.668a6.754,6.754,0,0,1,.115-1.311H45.919a6.834,6.834,0,0,1,.092,1.311H40.86c-1.1,0-1.863-.023-2.76-.092a16.43,16.43,0,0,1,.092,1.84V-14.7Zm3.381.046v-.966h3.611c-.23.414-.345.6-.575.966Zm8.6,2.668a5.538,5.538,0,0,1-1.61,1.1c-1.127-.184-1.587-.253-2.783-.368.3-.345.391-.46.621-.736Zm-1.886-2.668c.207-.345.322-.529.575-.966h5.52v.966Zm25.461,2.806v3.7H70.438a22.1,22.1,0,0,1-2.76-.138v3.588a22.254,22.254,0,0,1,2.783-.138h3.289V-.782a18.968,18.968,0,0,1-.138,2.9h3.841a19.148,19.148,0,0,1-.138-2.9V-4.83h2.875a22.179,22.179,0,0,1,2.691.138V-8.28a21.95,21.95,0,0,1-2.737.138H77.314v-3.7h2.392c.805,0,1.357.023,2.6.115v-3.542a18.65,18.65,0,0,1-2.6.138H77.314v-1.7a15.029,15.029,0,0,1,.138-2.553H73.612a14.433,14.433,0,0,1,.138,2.507v1.748H72.415c.345-1.219.575-2.024.667-2.369l-3.4-.782a16.957,16.957,0,0,1-2.714,6.992v-2.76a41.235,41.235,0,0,0,1.863-4.784l-3.588-.989a12.467,12.467,0,0,1-.782,2.875,17.621,17.621,0,0,1-3.542,5.934,18.191,18.191,0,0,1,1.173,4.255,8.179,8.179,0,0,0,1.4-1.7c-.046,1.771-.046,1.771-.046,2.346V-.529a21.478,21.478,0,0,1-.138,2.645H67.1a21.253,21.253,0,0,1-.138-2.645V-11.017a13.426,13.426,0,0,1,2.6,2.3,19.444,19.444,0,0,0,1.679-3.128Z" transform="translate(1150 7303)" fill="#583ffd"></path></g><g id="Chat_Ai" data-name="Chat Ai" transform="translate(-14261.806 6193.33)"><path id="&#x30D1;&#x30B9;_13703" data-name="&#x30D1;&#x30B9; 13703" d="M25.513,89.48,11.921,93.452a3.644,3.644,0,0,1-4.628-3.644V73.884A43.728,43.728,0,0,1,2.993,33.8a3.644,3.644,0,1,1,6.778,2.624A36.44,36.44,0,0,0,13.925,70.6c1.02,1.494.656,2.405.656,14.357,10.932-3.134,11.151-3.644,12.827-2.66A36.44,36.44,0,1,0,17.241,24.689a3.644,3.644,0,1,1-5.32-4.956A43.728,43.728,0,1,1,25.513,89.48Z" transform="translate(0 10.582)" fill="#011939"></path><path id="&#x30D1;&#x30B9;_13704" data-name="&#x30D1;&#x30B9; 13704" d="M31.517,49.464a3.644,3.644,0,0,1-3.425-2.369L20.585,27.053,13.078,47.095a3.655,3.655,0,1,1-6.851-2.551L17.159,15.392a3.644,3.644,0,0,1,6.851,0L34.942,44.544a3.644,3.644,0,0,1-3.425,4.919Z" transform="translate(15.86 29.062)" fill="#583ffe"></path><path id="&#x30D1;&#x30B9;_13705" data-name="&#x30D1;&#x30B9; 13705" d="M18.644,49.44A3.644,3.644,0,0,1,15,45.8V16.644a3.644,3.644,0,0,1,7.288,0V45.8A3.644,3.644,0,0,1,18.644,49.44Z" transform="translate(39.665 29.085)" fill="#583ffe"></path><path id="&#x30D1;&#x30B9;_13706" data-name="&#x30D1;&#x30B9; 13706" d="M25.22,26.288H10.644a3.644,3.644,0,0,1,0-7.288H25.22a3.644,3.644,0,0,1,0,7.288Z" transform="translate(18.513 44.95)" fill="#583ffe"></path><path id="&#x30D1;&#x30B9;_13707" data-name="&#x30D1;&#x30B9; 13707" d="M46.914,89.458a3.644,3.644,0,0,1-2.806-5.94A36.44,36.44,0,0,0,15.94,23.865H14.556a3.644,3.644,0,0,1-3.243-5.9A43.728,43.728,0,0,1,88.821,45.729C88.821,70.545,68.159,89.458,46.914,89.458ZM22.572,17.051A43.728,43.728,0,0,1,54.53,80.967,36.44,36.44,0,1,0,22.572,17.051Z" transform="translate(27.793 0)" fill="#011939"></path></g></g></g></svg>