<svg xmlns="http://www.w3.org/2000/svg" xmlns:xlink="http://www.w3.org/1999/xlink" width="1958" height="288.085" viewBox="0 0 1958 288.085"><defs><linearGradient id="linear-gradient" x1="0.045" x2="0.967" y2="1" gradientUnits="objectBoundingBox"><stop offset="0" stop-color="#ffc224"></stop><stop offset="1" stop-color="#ffd874"></stop></linearGradient></defs><g id="CTA_&#x7121;&#x6599;&#x8AAC;&#x660E;&#x4F1A;" transform="translate(7415 4371.465)"><g id="&#x30B0;&#x30EB;&#x30FC;&#x30D7;_3243" data-name="&#x30B0;&#x30EB;&#x30FC;&#x30D7; 3243" transform="translate(-7415 -4371.465)"><g id="&#x30B0;&#x30EB;&#x30FC;&#x30D7;_3200" data-name="&#x30B0;&#x30EB;&#x30FC;&#x30D7; 3200" transform="translate(0 0)"><g id="&#x30B0;&#x30EB;&#x30FC;&#x30D7;_3198" data-name="&#x30B0;&#x30EB;&#x30FC;&#x30D7; 3198"><rect id="&#x9577;&#x65B9;&#x5F62;_1809" data-name="&#x9577;&#x65B9;&#x5F62; 1809" width="1958" height="288.085" rx="144.042" transform="translate(0 0)" fill="url(#linear-gradient)"></rect><g id="&#x30B0;&#x30EB;&#x30FC;&#x30D7;_6499" data-name="&#x30B0;&#x30EB;&#x30FC;&#x30D7; 6499"><line id="&#x7DDA;_35" data-name="&#x7DDA; 35" x2="260" transform="translate(1584.5 156.296)" fill="none" stroke="#333" stroke-linecap="round" stroke-width="7"></line><line id="&#x7DDA;_36" data-name="&#x7DDA; 36" x2="44" y2="44" transform="translate(1800.5 112.296)" fill="none" stroke="#333" stroke-linecap="round" stroke-width="7"></line></g></g></g></g><path id="&#x30D1;&#x30B9;_11978" data-name="&#x30D1;&#x30B9; 11978" d="M51.951-70.352q-.155,1.3-.31,2.878T51.4-64.192q-.068,1.7-.135,4.62t-.1,6.4q-.034,3.486-.034,6.9v6.2q0,3.621.208,8.1t.493,9.036q.285,4.558.493,8.538t.208,6.553a12.228,12.228,0,0,1-1.892,6.69,12.943,12.943,0,0,1-5.689,4.742,22.646,22.646,0,0,1-9.52,1.759q-10.455,0-15.837-3.827a12.385,12.385,0,0,1-5.382-10.7,12.448,12.448,0,0,1,2.567-7.8,16.855,16.855,0,0,1,7.4-5.257A31.148,31.148,0,0,1,35.65-24.149a56.224,56.224,0,0,1,13.366,1.517A60.6,60.6,0,0,1,60.39-18.694a68.861,68.861,0,0,1,9.151,5.1q3.988,2.678,6.745,4.913L70,1.052a83.7,83.7,0,0,0-6.985-5.83,59.028,59.028,0,0,0-8.415-5.25,50.185,50.185,0,0,0-9.651-3.76A39.983,39.983,0,0,0,34.235-15.2a13.159,13.159,0,0,0-7.052,1.568,4.509,4.509,0,0,0-2.46,3.815A4.253,4.253,0,0,0,25.75-6.993a6.4,6.4,0,0,0,3.045,1.862A16.74,16.74,0,0,0,33.8-4.49a13.916,13.916,0,0,0,4.091-.536A4.883,4.883,0,0,0,40.58-6.966a6.8,6.8,0,0,0,.956-3.867q0-1.96-.164-5.534t-.329-7.869q-.164-4.295-.329-8.49t-.164-7.349q0-3.122.034-6.6t.034-6.853q0-3.376.034-6.218t.034-4.657q0-1.18-.111-2.964a17.607,17.607,0,0,0-.4-2.985ZM15.869-62.21q2.32.348,5.2.7t5.881.652q3,.3,5.692.435t4.7.131q8.9,0,17.685-.56t18.287-2.118L73.247-53q-4.425.59-10.269,1.112t-12.417.836q-6.572.314-13.131.314-2.743,0-6.671-.227t-7.867-.609q-3.939-.382-6.821-.711Zm-.484,18.793q2.115.348,4.986.686t5.882.512q3.011.174,5.688.3t4.405.131q8.072,0,14.644-.329t12.308-.87q5.737-.541,11.042-1.226L74.274-33.96q-4.486.541-8.734.909t-8.627.6q-4.379.237-9.424.333t-11.277.1q-2.511,0-6.276-.14t-7.631-.4q-3.866-.261-6.783-.609ZM145.612-68.89q-.068.669-.223,2.213t-.232,3.055q-.077,1.51-.145,2.217-.087,1.72-.121,4.664t-.034,6.512q0,3.568.044,7.18t.087,6.807q.044,3.2.044,5.283l-10.783-3.723v-4.383q0-2.737-.01-5.981t-.053-6.481q-.044-3.238-.121-5.818t-.164-3.992q-.2-2.633-.436-4.69t-.386-2.861ZM96.469-58.071q3.9-.019,8.761-.091t10.153-.178q5.289-.106,10.451-.2t9.659-.15q4.5-.053,7.79-.053,3.322,0,7.228-.024t7.721-.024q3.816,0,6.974.01t5.007.01l-.136,10.346q-4.1-.174-10.823-.363t-16.291-.189q-5.919,0-12.018.121t-12.087.338q-5.987.218-11.574.464t-10.526.545Zm47.113,25.745a34.768,34.768,0,0,1-1.72,11.81,14.3,14.3,0,0,1-5.111,7.078,14.273,14.273,0,0,1-8.384,2.371,14.593,14.593,0,0,1-5.2-1.005,15.465,15.465,0,0,1-4.883-3.017,15.161,15.161,0,0,1-3.608-4.991,16.379,16.379,0,0,1-1.374-6.925,15.416,15.416,0,0,1,2.37-8.6,16.161,16.161,0,0,1,6.365-5.667,19,19,0,0,1,8.716-2.025,17.028,17.028,0,0,1,9.615,2.578,16.16,16.16,0,0,1,5.868,6.925,23.378,23.378,0,0,1,1.979,9.792,30.812,30.812,0,0,1-1.393,8.884A29.762,29.762,0,0,1,142.2-6.091a33.494,33.494,0,0,1-8.6,7.967,47.413,47.413,0,0,1-13.335,5.83l-9.222-9.233A68.761,68.761,0,0,0,121.375-4.5a32.436,32.436,0,0,0,8.412-4.621A19.7,19.7,0,0,0,135.432-16a21.762,21.762,0,0,0,2.027-9.794q0-4.244-2.017-6.3a6.715,6.715,0,0,0-4.992-2.056,7.007,7.007,0,0,0-3.178.767,6.271,6.271,0,0,0-2.509,2.315,7.079,7.079,0,0,0-.98,3.857,6.028,6.028,0,0,0,2.066,4.78,6.857,6.857,0,0,0,4.621,1.8,5.778,5.778,0,0,0,3.746-1.333,6.8,6.8,0,0,0,2.128-4.4,20.693,20.693,0,0,0-.871-8.171Zm13.307-39.15q1.614,2.341,3.251,5.133t2.827,5.113l-7.342,3.069q-1.324-2.61-2.772-5.267a53.26,53.26,0,0,0-3.15-5.085Zm11.654-2.475q1.615,2.339,3.267,5.07t2.878,5.087L167.4-60.725q-1.324-2.648-2.855-5.276a57.961,57.961,0,0,0-3.252-4.988Zm48.141,20.532q3.789.348,7.565.556t7.72.208q7.947,0,15.865-.7A124.993,124.993,0,0,0,262.51-55.48v10.822q-6.843,1.014-14.742,1.546t-15.788.6q-3.858,0-7.629-.14t-7.6-.4Zm33.113-14.7q-.174,1.257-.3,2.728t-.217,2.892q-.087,1.4-.164,3.778T249-53.428q-.034,2.916-.034,6.07,0,5.97.208,11.129t.469,9.54q.261,4.382.468,8.067t.207,6.8a20.362,20.362,0,0,1-.929,6.285,13.262,13.262,0,0,1-2.931,5.03,13.113,13.113,0,0,1-5.248,3.326,23.491,23.491,0,0,1-7.945,1.174q-9.049,0-14.282-3.646a12,12,0,0,1-5.233-10.486,13.271,13.271,0,0,1,2.369-7.812,15.458,15.458,0,0,1,6.7-5.262A25.706,25.706,0,0,1,233.111-25.1a42.925,42.925,0,0,1,20.406,4.855,50.64,50.64,0,0,1,7.439,4.723q3.282,2.538,5.833,4.876L260.861-1.49a93.386,93.386,0,0,0-9.68-8.123,42.989,42.989,0,0,0-9.357-5.221,25.98,25.98,0,0,0-9.584-1.827,11.332,11.332,0,0,0-6.025,1.427,4.387,4.387,0,0,0-2.31,3.9,4.066,4.066,0,0,0,2.345,3.865,12.516,12.516,0,0,0,5.818,1.219,8.323,8.323,0,0,0,4.236-.926,5.1,5.1,0,0,0,2.233-2.694,12.355,12.355,0,0,0,.661-4.308q0-2.232-.174-5.918t-.4-8.189q-.227-4.5-.4-9.4t-.174-9.63q0-4.952-.034-9.023t-.082-6q0-1.015-.17-2.737t-.412-3.038Zm-42.463.941q-.309.86-.754,2.42t-.78,3.069q-.334,1.51-.508,2.293-.406,1.775-.923,4.877t-1.092,6.973q-.575,3.872-1.078,7.913t-.8,7.671q-.295,3.63-.295,6.237,0,1.247.077,2.785a25.408,25.408,0,0,0,.3,2.871q.58-1.554,1.261-3.047t1.37-2.968q.69-1.475,1.288-2.953l5.337,4.292q-1.21,3.59-2.481,7.5t-2.266,7.4q-1,3.49-1.5,5.879-.174.87-.329,2.084a13.4,13.4,0,0,0-.136,1.948q.019.677.038,1.678t.106,1.912l-9.832.735A85.918,85.918,0,0,1,191.926-7.34,110.988,110.988,0,0,1,190.867-23.4q0-4.9.42-10.224t1.024-10.31q.6-4.988,1.2-9.1t.961-6.645q.242-1.828.5-4.143t.325-4.387Zm87.2-6.748,10.24,3a68.484,68.484,0,0,1-5.583,9.42,78.712,78.712,0,0,1-6.9,8.516,72.057,72.057,0,0,1-7.322,6.866,24.746,24.746,0,0,0-2.5-2.306q-1.579-1.3-3.2-2.528t-2.853-2.015a52.24,52.24,0,0,0,10.405-9.251A49.211,49.211,0,0,0,294.533-73.926Zm-.711,9.178h59.943v9.192h-62.45ZM278.3-44.477h78.653v9.328H278.3Zm1.422,20.393h75.965v9.329H279.723Zm25.816-37.388h8.718v42.263h-8.718Zm-15.456,0h9.241v42.358h-9.241Zm30.591,0h8.7v42.358h-8.7Zm15.308,0h9.581v42.358h-9.581ZM302.908-9.9,312.586-11q.87,3.945,1.5,8.581a74.419,74.419,0,0,1,.72,7.828l-10.259,1.5q0-2.136-.193-5.017t-.551-5.981Q303.449-7.191,302.908-9.9Zm17.3.234,9.813-1.676q1.1,2.572,2.15,5.535t1.836,5.752a47.154,47.154,0,0,1,1.154,4.994L324.718,6.993a64.256,64.256,0,0,0-1.723-7.947Q321.715-5.654,320.209-9.665Zm17.3-.493,10-3.128q2.028,2.659,4.15,5.815t4,6.216a46.859,46.859,0,0,1,2.958,5.525l-10.7,3.574a46.508,46.508,0,0,0-2.632-5.5q-1.705-3.1-3.759-6.4T337.51-10.159Zm-50.274-2.78,10.153,2.46a57.406,57.406,0,0,1-4.111,9.973,37.43,37.43,0,0,1-5.82,8.4L277.41,3.843a31.675,31.675,0,0,0,5.7-7.39A44,44,0,0,0,287.236-12.939ZM381.892-73.48h9.649V7.583h-9.649ZM368.711-44.908h35.707v9.717H368.711Zm11.348,5.155,5.753,2.848q-1.083,4.388-2.58,9.227t-3.3,9.594q-1.8,4.756-3.836,8.971a52.446,52.446,0,0,1-4.228,7.339A28.376,28.376,0,0,0,370.6-5.355q-.823-1.943-1.747-3.861T367.1-12.529a49.24,49.24,0,0,0,5.131-7.973q2.511-4.744,4.588-9.83A79.413,79.413,0,0,0,380.06-39.754Zm11.326,5.081a25.571,25.571,0,0,1,2.088,2.158q1.324,1.492,2.962,3.326t3.2,3.713l2.807,3.38q1.247,1.5,1.789,2.255l-6.4,8.148q-.851-1.857-2.251-4.432t-3.047-5.3q-1.647-2.729-3.2-5.164t-2.717-3.993ZM368.611-66.809l7.284-1.9a58.508,58.508,0,0,1,2.082,6.8q.894,3.655,1.526,7.1a60.162,60.162,0,0,1,.844,6.242l-7.816,2.1a46.122,46.122,0,0,0-.622-6.31q-.565-3.515-1.424-7.2T368.611-66.809Zm28.645-2.344,8.8,1.926q-1.112,3.519-2.315,7.271t-2.406,7.184q-1.2,3.432-2.285,6.053l-6.6-1.888q.927-2.774,1.849-6.405t1.724-7.358Q396.831-66.1,397.256-69.153Zm32.93-4.8h9.8V7.719h-9.8ZM404.2-19.5l44.718-8.023,1.54,9.679L405.8-9.752Zm4.921-42.618,5.095-7.052q2.474,1.411,5.128,3.248t5.027,3.727a26.614,26.614,0,0,1,3.765,3.543L422.715-50.8a27.375,27.375,0,0,0-3.6-3.722q-2.272-2-4.9-4.026T409.116-62.117Zm-3.942,21.924,4.883-7.44q2.561,1.3,5.355,3.06t5.307,3.562a28.648,28.648,0,0,1,4.06,3.441l-5.24,8.332a30.673,30.673,0,0,0-3.866-3.587q-2.436-1.953-5.186-3.906T405.174-40.193Zm57.6-19.455q2.572-.087,4.937-.217t3.6-.218q2.7-.241,6.65-.608t8.843-.8q4.894-.43,10.47-.893t11.578-.986q4.5-.367,9.015-.672t8.554-.546q4.043-.242,7.08-.329l.068,11.179q-2.339-.019-5.389.068t-6.06.3a32.035,32.035,0,0,0-5.371.793,21.381,21.381,0,0,0-7.268,3.513,27.62,27.62,0,0,0-5.86,5.856,27.931,27.931,0,0,0-3.876,7.255,23.029,23.029,0,0,0-1.382,7.776,17.922,17.922,0,0,0,1.493,7.542,16.134,16.134,0,0,0,4.163,5.558,23.552,23.552,0,0,0,6.227,3.816,37.8,37.8,0,0,0,7.687,2.3A61.914,61.914,0,0,0,526.5-7.94L522.419,4A53.557,53.557,0,0,1,511.766,2.26a44.411,44.411,0,0,1-9.684-3.84A32.089,32.089,0,0,1,494.2-7.547a26.258,26.258,0,0,1-5.306-8.083,26.115,26.115,0,0,1-1.918-10.221,32.163,32.163,0,0,1,2-11.546,36.581,36.581,0,0,1,4.991-9.183,30.685,30.685,0,0,1,5.929-6.111q-2.452.28-5.88.657t-7.407.841q-3.979.464-8.05,1.005T470.7-49.014q-3.792.633-6.81,1.291Zm58.366,14.427q1.093,1.509,2.373,3.64t2.5,4.277q1.223,2.145,2.063,3.914l-6.575,2.914q-1.645-3.6-3.19-6.394a57.559,57.559,0,0,0-3.595-5.659Zm9.717-3.984q1.112,1.509,2.47,3.572t2.658,4.175q1.3,2.111,2.208,3.812l-6.507,3.118q-1.8-3.53-3.413-6.215t-3.748-5.567Zm62.621.593h31.165v9.445H593.481Zm.038,20.558h31.165v9.445H593.519ZM593.5-7.477h31.165V1.987H593.5ZM588.541-69.24h41V6.537H619.055V-59.368H598.548V7.08H588.541Zm-36.53,13.291h33.431v9.87H552.011ZM564.55-73.926h10.006V7.748H564.55Zm-.542,24.652,6.216,2.189q-1.1,5.307-2.651,10.919T564-25.185a105.683,105.683,0,0,1-4.334,10.005,47.694,47.694,0,0,1-4.924,7.99,36.26,36.26,0,0,0-2.236-5.014q-1.482-2.815-2.731-4.791a48.367,48.367,0,0,0,4.488-6.648,84.113,84.113,0,0,0,4.052-8.145q1.883-4.338,3.356-8.811A77.477,77.477,0,0,0,564.007-49.273Zm9.843,7.683a36.329,36.329,0,0,1,2.779,3q1.822,2.132,3.89,4.645t3.812,4.645q1.744,2.131,2.459,3.021l-5.974,8.438q-.938-1.915-2.426-4.507t-3.212-5.319q-1.724-2.727-3.343-5.13t-2.8-4.057ZM693.538-49.5l6.422-6.9q3.789,2.115,8.264,4.821t8.589,5.436a75.32,75.32,0,0,1,6.743,4.943l-6.9,7.856a61.25,61.25,0,0,0-6.393-5.175q-3.987-2.875-8.429-5.77T693.538-49.5Zm6,12.5h5.24v13.239a18.061,18.061,0,0,0,.527,4.031,22.094,22.094,0,0,0,1.789,4.806,23.176,23.176,0,0,0,3.5,5.05,30.024,30.024,0,0,0,5.652,4.818,39.435,39.435,0,0,0,8.143,4.09Q723.03.84,721.208,3.451T718.33,7.922A29.431,29.431,0,0,1,711,3.954a34.378,34.378,0,0,1-5.6-5.2,33.543,33.543,0,0,1-3.828-5.419,25.581,25.581,0,0,1-2.093-4.639,23.65,23.65,0,0,1-2.308,4.614,33.979,33.979,0,0,1-4.21,5.357,36.81,36.81,0,0,1-6.125,5.143,38.421,38.421,0,0,1-8.071,4.108,27.483,27.483,0,0,0-1.6-2.805q-1.017-1.594-2.136-3.139a25.061,25.061,0,0,0-2.078-2.554,39.8,39.8,0,0,0,8.643-4.113,33.186,33.186,0,0,0,6.047-4.939,26.114,26.114,0,0,0,3.861-5.142,20.592,20.592,0,0,0,2.021-4.888,16.871,16.871,0,0,0,.595-4.109V-37Zm-4.671-36.9H705.1a122.233,122.233,0,0,1-1.3,14.225,40.685,40.685,0,0,1-3.484,11.506,26.082,26.082,0,0,1-7.237,8.95,41.952,41.952,0,0,1-12.648,6.576,23.057,23.057,0,0,0-2.437-4.345,20.43,20.43,0,0,0-3.356-3.919A33.821,33.821,0,0,0,685.406-46a19.736,19.736,0,0,0,5.89-7.031,29.568,29.568,0,0,0,2.622-9.185Q694.589-67.394,694.869-73.907Zm-12.827,5.148,8.544,1.7a39.192,39.192,0,0,1-2.344,8.856,21.931,21.931,0,0,1-4.565,7.388l-8.158-3.515a19.881,19.881,0,0,0,4.141-6.37A33.945,33.945,0,0,0,682.042-68.759Zm-.968,37.81,9.086,1.811a45.979,45.979,0,0,1-2.894,9.881,24.327,24.327,0,0,1-5.261,8.055l-8.545-4.387a19.484,19.484,0,0,0,4.782-6.714A38.759,38.759,0,0,0,681.074-30.949Zm31.716-38.36,10.036,3.137q-2.2,3.886-4.437,7.646t-4.05,6.457l-7.769-2.9q1.12-1.963,2.323-4.476t2.24-5.123Q712.171-67.172,712.79-69.309Zm.51,37.7L723.54-28.4q-2.311,4.079-4.693,8.139a74.742,74.742,0,0,1-4.478,6.863L706.3-16.363q1.275-2.069,2.574-4.732t2.467-5.423Q712.507-29.277,713.3-31.607ZM646.184-47.234h26.269v7.884H646.184Zm.28-23.958h25.757v7.884H646.464Zm-.28,35.83h26.269v7.883H646.184Zm-4.138-24.1h33.277v8.242H642.046Zm8.632,36.178h21.91V3.177h-21.91V-5.065h12.989v-9.979H650.678Zm-4.7,0h8.786v29.9H645.98ZM763.112-69q-.4,2.719-.688,5.856t-.446,5.76q-.154,3.49-.338,8.577t-.348,10.7q-.164,5.609-.261,10.965t-.1,9.383a13.134,13.134,0,0,0,1.58,6.942,8.777,8.777,0,0,0,4.3,3.642,16.335,16.335,0,0,0,6.1,1.087,31.716,31.716,0,0,0,9.816-1.44,32.016,32.016,0,0,0,8.079-3.89,36.754,36.754,0,0,0,6.582-5.669,54.368,54.368,0,0,0,5.3-6.778l7.886,9.641a46.9,46.9,0,0,1-5.457,6.579,46.937,46.937,0,0,1-8.064,6.512,43.353,43.353,0,0,1-10.767,4.946,45.131,45.131,0,0,1-13.5,1.9,32.186,32.186,0,0,1-12.372-2.187,16.94,16.94,0,0,1-8.167-6.863q-2.887-4.676-2.887-12.073,0-3.517.087-8.093t.227-9.539q.14-4.963.237-9.709t.184-8.587q.087-3.842.087-6.042,0-3.165-.257-6.171a39.454,39.454,0,0,0-.856-5.581Zm62.647,9.159q2.572-.087,4.937-.217t3.6-.218q2.7-.242,6.649-.609t8.843-.8q4.9-.43,10.471-.894t11.578-.986q4.5-.367,9.015-.672t8.554-.546q4.043-.242,7.078-.329l.068,11.18q-2.338-.019-5.387.068t-6.06.3a32.18,32.18,0,0,0-5.371.792,21.381,21.381,0,0,0-7.268,3.513,27.614,27.614,0,0,0-5.86,5.857,27.944,27.944,0,0,0-3.876,7.255,23.023,23.023,0,0,0-1.383,7.775,17.93,17.93,0,0,0,1.492,7.542,16.122,16.122,0,0,0,4.163,5.558,23.567,23.567,0,0,0,6.227,3.816,37.811,37.811,0,0,0,7.687,2.3,61.724,61.724,0,0,0,8.561,1.015L885.4,3.8a53.557,53.557,0,0,1-10.653-1.737,44.412,44.412,0,0,1-9.684-3.84,32.1,32.1,0,0,1-7.883-5.966,26.25,26.25,0,0,1-5.306-8.082,26.119,26.119,0,0,1-1.918-10.223,32.167,32.167,0,0,1,2-11.545,36.569,36.569,0,0,1,4.991-9.183,30.693,30.693,0,0,1,5.93-6.112q-2.454.28-5.881.657t-7.406.841q-3.978.464-8.049,1t-7.863,1.175q-3.793.633-6.809,1.291Zm103.705-6q1.77.155,3.825.266t3.428.111q1.906,0,4.389-.063t5.086-.169q2.6-.106,4.956-.246l3.842-.227a29.236,29.236,0,0,0,3.209-.489,17.8,17.8,0,0,0,2.745-.78L967.861-62q-.89.979-1.656,1.84a10.468,10.468,0,0,0-1.287,1.78,72.326,72.326,0,0,0-3.388,6.647q-1.948,4.24-4.056,9.127t-4.128,9.459q-1.3,2.988-2.711,6.293t-2.865,6.547q-1.459,3.241-2.84,6.087a45.843,45.843,0,0,1-2.724,4.915,17.887,17.887,0,0,1-5.845,5.773,15.293,15.293,0,0,1-7.733,1.854A13.135,13.135,0,0,1,919.1-5.407q-3.832-3.724-3.832-10.363a20.639,20.639,0,0,1,2.35-9.713,24.3,24.3,0,0,1,6.624-7.857,31.517,31.517,0,0,1,10.129-5.212,42.364,42.364,0,0,1,12.8-1.847,60.42,60.42,0,0,1,14.643,1.755,81.88,81.88,0,0,1,13.154,4.432,102.694,102.694,0,0,1,11.041,5.6q4.94,2.925,8.371,5.282L989.32-11.247a96.794,96.794,0,0,0-8.846-7.015A83.62,83.62,0,0,0,970.083-24.5a60.477,60.477,0,0,0-11.754-4.482,49.608,49.608,0,0,0-12.914-1.668A26.64,26.64,0,0,0,934.6-28.66a17.3,17.3,0,0,0-6.858,5.021,10.038,10.038,0,0,0-2.347,6.2,4.414,4.414,0,0,0,1.1,3.261,3.573,3.573,0,0,0,2.609,1.1,3.949,3.949,0,0,0,2.318-.686,10.39,10.39,0,0,0,2.193-2.311,32,32,0,0,0,2.22-3.78q1.111-2.187,2.279-4.77t2.318-5.292q1.149-2.709,2.318-5.24,1.574-3.5,3.2-7.281t3.178-7.339q1.55-3.555,2.864-6.221-1.3.019-3.226.082t-4.083.169l-4.17.2q-2.008.1-3.487.184-1.343.087-3.39.275t-3.728.43Zm57.272,20.559a142.849,142.849,0,0,1-1.861,16.951,56.973,56.973,0,0,1-4.263,14.014,39.878,39.878,0,0,1-7.946,11.4,50.633,50.633,0,0,1-12.844,9.143l-9.3-7.566a44.225,44.225,0,0,0,12.9-7.981,33.887,33.887,0,0,0,7.322-9.482,38.113,38.113,0,0,0,3.411-9.706,75.925,75.925,0,0,0,1.231-8.546q.155-2.546.164-5.032a39.243,39.243,0,0,0-.213-4.479Zm34.655-21.005q1.809.223,3.919.334t3.979.111q1.373,0,4.175-.053t6.314-.126q3.513-.073,7.015-.179t6.329-.246q2.827-.14,4.334-.227,2.712-.242,4.276-.464a17.571,17.571,0,0,0,2.377-.464l5.625,7.777q-1.48.949-3.024,1.9t-3.043,2.093q-1.751,1.218-4.2,3.144t-5.156,4.132q-2.7,2.206-5.285,4.3t-4.677,3.754a25.346,25.346,0,0,1,4.194-.789q1.994-.192,4.059-.192a30.028,30.028,0,0,1,13.27,2.853,23.735,23.735,0,0,1,9.317,7.761,19.178,19.178,0,0,1,3.433,11.271,23.089,23.089,0,0,1-3.489,12.461,23.886,23.886,0,0,1-10.47,8.884q-6.981,3.284-17.545,3.284a31.8,31.8,0,0,1-10.84-1.741,17.785,17.785,0,0,1-7.6-4.947,11.194,11.194,0,0,1-2.777-7.572,12.207,12.207,0,0,1,1.96-6.627,14.425,14.425,0,0,1,5.5-5.013,16.935,16.935,0,0,1,8.156-1.907,19.845,19.845,0,0,1,10.114,2.393,16.612,16.612,0,0,1,6.339,6.405,18.63,18.63,0,0,1,2.314,8.78l-10.153,1.325a12.66,12.66,0,0,0-2.435-7.671,7.4,7.4,0,0,0-6.131-2.929,5.824,5.824,0,0,0-3.943,1.278,3.792,3.792,0,0,0-1.481,2.927,4.448,4.448,0,0,0,2.451,3.91,12.231,12.231,0,0,0,6.408,1.487,36.957,36.957,0,0,0,12.3-1.768,15.293,15.293,0,0,0,7.433-5.124,13.056,13.056,0,0,0,2.477-7.973,10.711,10.711,0,0,0-2.382-6.9,15.537,15.537,0,0,0-6.479-4.621,24.439,24.439,0,0,0-9.206-1.651,31.783,31.783,0,0,0-9.224,1.272A32.651,32.651,0,0,0,1032-28.047a47.029,47.029,0,0,0-7.186,5.578q-3.484,3.262-6.979,7.225l-7.924-8.177q2.318-1.864,5.274-4.288t6.038-5q3.082-2.575,5.837-4.894t4.648-3.885L1036-44.957q2.459-1.99,5.062-4.148t4.95-4.114q2.348-1.956,3.933-3.367-1.324.019-3.433.116t-4.579.179q-2.47.082-4.954.188t-4.618.237q-2.134.131-3.507.217-1.741.087-3.668.266t-3.435.42Z" transform="translate(-6980 -4185.052)" fill="#333"></path><path id="&#x30D1;&#x30B9;_3326" data-name="&#x30D1;&#x30B9; 3326" d="M1253.155,2268.144a25.905,25.905,0,0,0-18.876-24.883,48.408,48.408,0,0,0-96.073,0,25.856,25.856,0,0,0,7.085,50.751,7.477,7.477,0,0,0,7.495-7.4v-36.971s-.112-.131-.112-.2-.019-.131-.019-.2a33.624,33.624,0,1,1,67.247,0c0,.074-.056.13-.056.2s-.093.13-.093.2v33.568a33.629,33.629,0,0,1-33.568,33.642,7.4,7.4,0,0,0,.056,14.8,48.518,48.518,0,0,0,47.4-38.459,25.908,25.908,0,0,0,19.527-25.051Zm-115.247,8.257c-3.719-2.028-3.7-4.984-3.7-8.257s-.019-6.23,3.7-8.257Zm96.705,0v-16.514c1.86,2.027,3.7,4.984,3.7,8.257S1236.474,2274.374,1234.614,2276.4Z" transform="translate(-8396.787 -6489.327)" fill="#333"></path></g></svg>