<svg xmlns="http://www.w3.org/2000/svg" xmlns:xlink="http://www.w3.org/1999/xlink" id="Layer_1" x="0px" y="0px" width="2500px" height="2064.2px" viewBox="0 0 2500 2064.2" style="enable-background:new 0 0 2500 2064.2;" xml:space="preserve"><style type="text/css">	.st0{fill:#E9F0F7;}	.st1{fill:#6A0000;}	.st2{fill:#D44C37;}	.st3{fill:#E36646;}	.st4{fill:#F88257;}	.st5{fill:#53B484;}	.st6{fill:#279E65;}	.st7{fill:#148A56;}	.st8{fill:#17945C;}	.st9{fill:#B81A3C;}	.st10{fill:#FF8666;}	.st11{fill:#ED4944;}	.st12{fill:#C95F34;}	.st13{fill:#AA4A23;}	.st14{fill:#FBC977;}	.st15{fill:#F89D1F;}	.st16{fill:#114077;}	.st17{fill:#0C3461;}	.st18{fill:#071F3B;}	.st19{fill:#175294;}	.st20{fill:#AEC7E6;}	.st21{fill:#98ADD4;}	.st22{fill:#F2A29B;}	.st23{fill:#FFC5B3;}	.st24{fill:#5386B4;}	.st25{fill:#144B8A;}	.st26{fill:#DB8918;}	.st27{fill:#9BA2AA;}	.st28{fill:#F8AB37;}	.st29{fill:#B4BCC5;}	.st30{fill:#F9B142;}	.st31{opacity:0.2;}	.st32{fill:#F9B953;}	.st33{fill:#005C9D;}</style><g>	<g>		<path class="st0" d="M2234.2,127.6c-37.8,29-5.6,70.1,31,90.2c-37.7,61.6-62.3,137.2-78.7,213.7c0.4-123.5-14.4-246.2-69.9-316.1   c-3-26.7-23.9-47.9-72.1-51c-8.7-2.8-17.8-4.9-27.5-6.2c-0.3,0-0.5,0-0.8-0.1c-0.8-21.1-11.6-85.9-117.7-44.8   c-108.4,41.9-164.1,175.6-99.2,304.2c19.2-77.4,179.5-28.1,270.7-108c23.4-20.4,40.8-48,45.5-73.7c2.5,3.7,4.9,7.6,7.2,11.6   c22.4,39,37.6,93.3,45.1,161.6c7.3,66.2,6.8,139.3,3.3,208.3c-4,28-7.2,55.4-9.6,81.5c-3.5-0.1-7-0.1-10.5-0.1   c0.1-14.7,0.6-31,1.6-50.1c4.1-82.9-22.5-156.2-67.9-186.6c-23.2-15.6-49.7-19-77.3-10.2c-15.3-15.9-79.6-70.6-177.6,16.8   c-104.1,92.8-15.7,258.5-15.7,258.5s17.9-52.7,66.8-63.7c69.6-15.7,137.1-29.1,163.1-80.1c22.9-44.8,13.1-104.6-18.8-122.7   c18.8-2.7,36.6,1.2,52.5,11.9c41.8,28,66.2,96.9,62.3,175.5c-1,19.3-1.5,35.8-1.6,50.6c-33.4-15.1-98.8-32.2-124.1,29.1   c-4.7,2.3-9.3,4.7-13.8,7.3c-37,21.5-57.5,49-61.4,77.2l-387.6-223.8V360.6c12.7-14,18.6-26.2,18.8-26.7c0,0,0,0,0,0   c-9.1,1.5-15,1.6-18.9,0.1v-57.5l-10.6-6.1c-1.6-10.2-4.2-21.8-8.2-34.7c-24.7-78.7-101.7-70.5-101.7-70.5s-24.2-10.8-58.4,2.7   c0,0-0.1,0-0.1,0c-14,5.5-29.6,15.1-45.9,31.2c-28.5,28-36.1,61.3-36.8,87.4c-0.5,0.3-1.1,0.6-1.9,1.1c0,0,0,0,0,0c0,0,0,0,0,0   c-13.1,7.6-69.2,39.9-131.1,75.7c-32.4,18.7-57.5,35.4-76,55.4c0,0-0.1,0-0.1,0.1c-12.2,9.7-30.5,25.1-47.3,46.5l-36.4,21   L538.3,751.1v100.3l-42.5-125.5c-4.6-17.8-18.6-35-42.3-48.7c-58.9-34.2-154.6-34.2-213.8,0c-22.3,12.9-36.2,28.8-41.8,45.4h0   l-94.2,278.3c0,0,0,0.1,0,0.1l0,0.1h0c-15.2,45.1,7.1,93.6,67.2,128.5c24,14,51.8,24.4,81.4,31.4L0,1306.7v508.2   c0,0,0.1,43.6,0.1,43.6c0,3.5,1.1,7.4,4.3,9.3l29.9,17.4c0,0-0.1-0.1-0.1-0.1c2.7,1.6,6.4,1.5,10.5-0.9   c8.1-4.7,14.6-15.9,14.6-25.2c0-3.1,0.2-6.3,0.5-9.6L308.6,1993c0,0.2,0.1,43.5,0.1,43.5c0,2,0.3,4,1.1,5.8   c0.7,1.4,1.8,2.7,3.1,3.5l29.9,17.4c0,0-0.1,0-0.1-0.1c2.7,1.6,6.4,1.4,10.5-0.9c8.1-4.7,14.6-15.9,14.6-25.2   c0-8.9,1.5-18.5,4.4-28.4l6.4-21.5l273.7-158c0.4,2.8,0.6,5.7,0.6,8.6c0,2,0.3,4,1.2,5.8c0.7,1.4,1.8,2.7,3.1,3.5l29.9,17.4l0,0   c-0.3-0.2-0.5-0.3-0.8-0.5c2.7,2.1,6.7,2.1,11.1-0.5c8.1-4.7,14.6-15.9,14.6-25.2l-0.1-43.6V1699l313.4,180.9l91.8-53l0-31.3   l431.7-249.2v-0.1l458.8-264.8v0l27.1,15.6l91.8-53l0-192.6c12.3,1.3,24.6,1.7,36.8,1.2c39.6-2,86.4-13.8,113.4-44.7   c4.9-5.7,8.8-12.3,11.3-19.4c8.3-36.5,16.1-73,23.8-109.7c5.2-3.3,10.2-6.9,15.1-10.7c18.3-14.6,33.6-34.3,38.4-57.6   c2.5-8.6,1.3-67.8,1.6-84.4c0-0.7,0-1.5,0.1-2.2c0-0.2,0-0.4,0-0.6c0,0.1,0,0.3,0,0.4c0.3-32.1-20.8-64.3-63.1-88.8   c-35.1-20.3-79.4-32.1-125.2-35.3c2.1-26.3,4.1-53.9,5.5-82.2c0.5-3.3,1-6.5,1.5-9.8c19.8,25.2,81.8,5.7,111.3-20.5   c34.6-30.7,61-29.4,61-29.4s-18.5-35.8-98.9-39.1c-31.2-1.3-50.1,9.3-61.6,22.7c15.7-76,39.5-151.4,76.1-212.8   c47.4,98.5,178.6,48,207.9-13c18.6-38.7,18.6-62.5,18.6-62.5C2399.5,95.8,2290.2,84.7,2234.2,127.6z"></path>		<polygon class="st0" points="687.2,1864.5 687.2,1864.5 687.2,1864.5   "></polygon>		<polygon class="st0" points="687.2,1864.5 687.2,1864.5 687.2,1864.5   "></polygon>	</g>	<g id="wfh_00000169518097263468350250000005132542683595732400_">		<g>			<g>				<g>					<g>						<path class="st1" d="M2280.2,835.7c-72.5,40.7-188.4,39.5-258.9-2.6c-70.5-42.1-68.8-109.3,3.7-149.9       c72.5-40.7,188.4-39.5,258.9,2.6C2354.3,727.8,2352.7,795,2280.2,835.7z"></path>					</g>					<path class="st2" d="M2334.3,772.7c-6.2,28.4-29.6,49.2-54.1,62.9v0c-56.5,31-130,36.3-192.4,22.8c-47.6-9.8-107.7-40-117-86.7      c14.5,70.1,28.9,140.2,43.4,210.3c3.5,16.9,16.2,33.3,38.3,46.5c33.2,19.4,72.7,25.8,110.8,24.3c39.6-2,86.4-13.8,113.4-44.7      c4.9-5.7,8.8-12.3,11.3-19.4C2304.4,917,2318.6,844.7,2334.3,772.7z"></path>				</g>				<g>					<path class="st2" d="M2283.9,646.6c-66.2-37.5-161.4-40.6-232.2-14.6c-28.3,10.7-56.5,26.8-73.4,52.7      c-5.7,8.8-9.8,18.7-11.2,29.1c-0.8,1.3-0.9,77.4-0.9,81.6c1.3-51.9,57.1-82.7,101.3-95.7c42.2-12.2,87.2-14.6,130.7-8.3      c58.8,7.9,139.7,43,140.4,105l0.2-73.1C2338.9,695.6,2320.6,667.7,2283.9,646.6z"></path>					<path class="st3" d="M2366.7,727.2c-4.2,62-77.2,97.5-130.6,110.1c-47.1,11.2-96.5,12.5-144.2,4.4      c-65.9-10.6-152.7-50.9-153.3-119.5c0,0-0.2,73.1-0.2,73.1c-1.8,34,29.9,73.3,73.5,93.9c40.8,20.5,86.7,29.3,132.1,30.6      c62.4,1.3,133.1-12,183-51.5c18.3-14.6,33.6-34.3,38.4-57.6c2.7-9.2,1.2-76.6,1.6-87.3C2366.8,724.7,2366.7,726,2366.7,727.2z"></path>					<g>						<path class="st4" d="M2303.7,635.1c83.8,48.4,84.3,127.2,1,175.5c-83.3,48.4-219.2,48.4-303.1,0       c-83.8-48.4-84.3-127.1-1-175.5C2083.9,586.7,2219.8,586.7,2303.7,635.1z M2021.3,799.2c72.9,42.1,191,42.1,263.5,0       c72.4-42.1,72-110.5-0.9-152.6c-72.9-42.1-191-42.1-263.4,0C1948.1,688.6,1948.5,757.1,2021.3,799.2L2021.3,799.2z"></path>					</g>				</g>			</g>			<g>				<g>					<path class="st5" d="M2179.4,490.8c0,0-0.8-75.4,79.5-72.1c80.3,3.3,98.9,39.1,98.9,39.1s-26.4-1.3-61,29.4      C2262.2,518,2183.1,539.4,2179.4,490.8z"></path>					<path class="st6" d="M2211.3,476.7c20.8-32.3,70.4-53.7,123.1-33.1c-52.7-19.2-100.8,3.3-119.9,34.9c-0.6,0.8-1.7,1.2-2.6,0.7      l0,0C2211,478.7,2210.7,477.6,2211.3,476.7z"></path>					<path class="st6" d="M2234.9,474.4c2.4-0.2,4.9,0.3,7.2,1.2c2.3,1,4.4,2.4,6.1,4.1c1.8,1.7,3.2,3.8,4.1,6.1      c1,2.3,1.5,4.7,1.2,7.2c-1.1-2.2-2.2-4.1-3.4-6c-1.3-1.8-2.7-3.5-4.2-5.1c-1.5-1.5-3.2-3-5.1-4.2      C2239.1,476.5,2237.1,475.4,2234.9,474.4z"></path>					<path class="st6" d="M2273.2,453.5c2.2-0.3,4.5,0,6.7,0.7c2.2,0.7,4.2,1.8,6,3.2c1.8,1.4,3.3,3.1,4.6,5c1.2,1.9,2.1,4,2.3,6.3      c-1.4-1.7-2.8-3.3-4.3-4.8c-1.4-1.5-3-2.8-4.6-4c-1.6-1.2-3.3-2.4-5-3.4C2277.1,455.4,2275.2,454.5,2273.2,453.5z"></path>					<path class="st6" d="M2310.9,444.2c1.9-0.1,3.8,0.4,5.6,1.3c1.7,0.9,3.3,2.1,4.5,3.6c1.3,1.5,2.2,3.2,2.8,5.1      c0.5,1.9,0.7,3.8,0.3,5.7c-0.8-1.7-1.6-3.3-2.5-4.7c-0.9-1.4-1.9-2.8-2.9-4.1c-1.1-1.3-2.2-2.5-3.5-3.6      C2313.8,446.4,2312.4,445.3,2310.9,444.2z"></path>					<path class="st6" d="M2287.9,425.8c0.6-0.7,1.5-0.9,2.3-0.9c0.8,0,1.6,0.4,2.3,0.9c0.6,0.5,1.1,1.2,1.4,2      c0.2,0.8,0.2,1.7-0.4,2.5l-1.8-1.2c-0.5-0.3-0.9-0.6-1.2-0.9c-0.4-0.3-0.7-0.6-1.1-1C2289.1,426.9,2288.6,426.5,2287.9,425.8z"></path>					<path class="st6" d="M2245.4,425.4c1.5-0.8,3.3-1,5-0.8c1.7,0.2,3.4,0.8,4.8,1.8c1.5,0.9,2.7,2.2,3.6,3.6      c0.9,1.5,1.4,3.1,1.3,4.8c-1.1-1.2-2.2-2.3-3.3-3.3c-1.1-1-2.2-1.8-3.4-2.6c-1.2-0.8-2.4-1.4-3.7-2      C2248.4,426.4,2247.1,425.9,2245.4,425.4z"></path>					<path class="st6" d="M2205.8,445.7c1.2-1,2.8-1.5,4.4-1.7c1.6-0.1,3.2,0.2,4.7,0.8c1.5,0.6,2.8,1.6,3.8,2.8      c1,1.2,1.7,2.7,1.8,4.3c-1.2-1-2.3-1.8-3.5-2.5c-1.1-0.7-2.2-1.3-3.4-1.8c-1.2-0.5-2.4-0.9-3.6-1.3      C2208.6,446.2,2207.3,445.9,2205.8,445.7z"></path>				</g>				<path class="st7" d="M2157.5,774.8c-0.1,0-0.2,0-0.3,0c-3.5-0.2-6.2-3.1-6-6.6c0.3-7,0.7-14.8,1.1-23.1     c7-155.4,23.6-519.2,215.9-633.4c3-1.8,6.9-0.8,8.7,2.2c1.8,3,0.8,6.9-2.2,8.7c-186.4,110.6-202.7,469.7-209.7,623.1     c-0.4,8.3-0.7,16.1-1.1,23.1C2163.6,772.1,2160.8,774.8,2157.5,774.8z"></path>				<path class="st8" d="M2157.5,774.8c-3.2,0-6-2.4-6.3-5.7c-1.9-19.8-3.7-36.8-5.3-51.7c-6.2-58.8-9.7-91.1-5.8-169.3     c3.9-78.6-20.6-147.5-62.3-175.5c-23.5-15.8-51.2-16.9-80-3.4c-3.2,1.5-6.9,0.1-8.4-3c-1.5-3.2-0.1-6.9,3-8.4     c33-15.5,65-14.1,92.4,4.3c45.4,30.4,72.1,103.7,67.9,186.6c-3.8,77.2-0.4,109.2,5.7,167.3c1.6,15,3.4,32,5.3,51.8     c0.3,3.5-2.2,6.6-5.7,6.9C2157.9,774.8,2157.7,774.8,2157.5,774.8z"></path>				<path class="st6" d="M2157.5,774.8c-0.1,0-0.2,0-0.3,0c-3.5-0.2-6.2-3.2-6-6.7c1.2-21.5,3.9-50.1,7-83.3     c9.4-99.6,23.7-250.2,9.8-375.7c-7.5-68.2-22.7-122.6-45.1-161.6c-25.7-44.7-61.9-70.6-107.5-76.8c-3.5-0.5-5.9-3.7-5.4-7.1     c0.5-3.5,3.7-5.9,7.1-5.4c210.5,28.6,173.6,418.4,153.7,627.8c-3.1,33-5.8,61.6-7,82.8C2163.6,772.2,2160.8,774.8,2157.5,774.8z     "></path>				<g>					<path class="st5" d="M2158.3,609.8c-8.3-8.4-146-82.3-154,68.1c0,0,29.1-17.9,74.9-11.3      C2124.3,673.2,2190.1,642.8,2158.3,609.8z"></path>					<path class="st6" d="M2133.9,609.2c-50.1-2.3-92.2,18.1-117.1,46.5c24-29.1,65.5-51,116-50.4c1.4,0,2.7,1,3,2l0,0      C2136.1,608.5,2135.2,609.3,2133.9,609.2z"></path>					<path class="st6" d="M2126.3,618.9c1.9-0.1,3.8,0.3,5.6,1c1.8,0.7,3.4,1.6,4.9,2.8c1.5,1.2,2.8,2.5,3.9,4.1      c1.1,1.6,1.9,3.3,2.3,5.1c-1.5-1.2-2.8-2.4-4.2-3.5c-1.3-1.1-2.7-2.2-4-3.2c-1.4-1-2.7-2.1-4.1-3.1      C2129.3,621,2127.9,620.1,2126.3,618.9z"></path>					<path class="st6" d="M2097.4,626.7c2.5,0.3,5,1.4,7.1,2.8c2.2,1.4,4.1,3.2,5.6,5.3c1.6,2.1,2.7,4.5,3.4,7      c0.7,2.5,1,5.1,0.5,7.6c-0.9-2.4-1.8-4.6-2.8-6.7c-1.1-2.1-2.3-4.1-3.7-6c-1.4-1.9-2.9-3.6-4.6-5.3      C2101.3,629.7,2099.4,628.2,2097.4,626.7z"></path>					<path class="st6" d="M2062.1,640.3c1.5,0,2.9,0.5,4.2,1.3c1.3,0.7,2.4,1.7,3.3,2.8c0.9,1.1,1.7,2.4,2.1,3.8      c0.4,1.4,0.7,2.9,0.4,4.3c-1-1.1-1.8-2.2-2.6-3.2l-2.4-3l-2.4-2.9C2063.9,642.5,2063,641.5,2062.1,640.3z"></path>					<path class="st6" d="M2031.4,611.3c1.2-0.5,2.4-0.6,3.6-0.4c1.2,0.2,2.4,0.6,3.4,1.3c1,0.6,1.9,1.5,2.6,2.5      c0.7,1,1.2,2.2,1.2,3.4c-1.2-0.6-2.1-1.1-3-1.7l-2.6-1.6l-2.6-1.6C2033.3,612.7,2032.4,612.1,2031.4,611.3z"></path>					<path class="st6" d="M2058.4,594.9c1.9-0.6,4-0.6,6-0.1c2,0.5,3.9,1.5,5.5,2.8c1.6,1.3,3,2.9,3.9,4.8c0.9,1.8,1.4,3.9,1.2,5.9      c-1.1-1.7-2.1-3.2-3.3-4.5c-1.2-1.3-2.4-2.6-3.8-3.6c-1.4-1.1-2.8-2.1-4.4-2.9C2062,596.3,2060.3,595.6,2058.4,594.9z"></path>					<path class="st6" d="M2097.5,590c1.9-0.2,3.7,0.2,5.5,0.9c1.7,0.7,3.3,1.7,4.7,3c1.4,1.3,2.6,2.7,3.4,4.4      c0.9,1.7,1.4,3.5,1.5,5.3c-1.3-1.4-2.3-2.7-3.5-3.9c-1.1-1.2-2.3-2.4-3.5-3.5c-1.2-1.1-2.5-2.1-3.8-3.1      C2100.5,592.1,2099,591.1,2097.5,590z"></path>				</g>				<g>					<path class="st5" d="M2016.2,64.5c0,0,8.1-99.8-117.6-51.1c-108.4,41.9-164.1,175.6-99.2,304.2c19.2-77.4,179.5-28.1,270.7-108      C2130.5,156.7,2151.1,56.1,2016.2,64.5z"></path>					<path class="st6" d="M2004.2,64.5c0,0-178.6-8.4-203.9,196.8C1800.3,261.3,1832.7,90.5,2004.2,64.5z"></path>					<path class="st6" d="M1849.6,200.6c0.8-0.5,1.6-0.8,2.5-1.2c0.8-0.3,1.7-0.7,2.6-0.9c0.9-0.2,1.8-0.3,2.7-0.4      c0.5-0.1,0.9-0.1,1.4-0.1c0.5,0,0.9,0,1.4,0.1c0.9,0.1,1.9,0.1,2.8,0.3c0.9,0.2,1.8,0.5,2.8,0.7c0.9,0.2,1.8,0.7,2.7,1.1      c0.9,0.4,1.7,0.9,2.5,1.4c3.2,2.1,5.8,5.2,7.3,8.7c1.5,3.4,2.2,7.2,1.3,10.8c-2.4-2.8-4.4-5.3-6.5-7.4c-2.1-2.2-4.3-4-6.6-5.5      c-0.5-0.5-1.2-0.8-1.8-1.1c-0.6-0.4-1.2-0.8-1.8-1c-0.6-0.3-1.3-0.6-1.9-1c-0.7-0.3-1.4-0.5-2.1-0.9c-0.3-0.1-0.7-0.3-1-0.5      l-1.1-0.4c-0.7-0.3-1.5-0.6-2.3-0.9C1853,201.9,1851.4,201.4,1849.6,200.6z"></path>					<path class="st6" d="M1881.7,146.4c8.2-1.8,17.1-1.3,25.4,1.2c8.3,2.4,16,6.9,22.7,12.4c6.7,5.5,12.3,12.1,16.9,19.2      c4.5,7.2,8.2,14.9,10.1,23.1c-4.9-6.8-9.9-13.3-15.1-19.4c-5.3-6.1-10.9-11.8-16.9-16.8c-3-2.6-6.2-4.8-9.5-7      c-3.3-2.2-6.7-4-10.3-5.7C1897.8,150,1890,147.9,1881.7,146.4z"></path>					<path class="st6" d="M1926.5,108.2c5.1-1.8,10.8-2,16.2-1.5c5.5,0.6,10.9,1.9,16.1,3.8c10.4,3.8,19.8,9.6,28.5,16.2      c8.6,6.7,16.4,14.4,23.1,23.1c3.3,4.3,6.3,9,8.7,13.9c0.6,1.2,1.2,2.5,1.7,3.8c0.5,1.3,1,2.6,1.4,3.9c0.7,2.6,1.3,5.4,1.1,8.1      c-1.5-5.2-4.4-9.6-7.5-13.7c-3.1-4.2-6.6-8.1-10.1-11.9c-7.2-7.5-15-14.5-23.2-20.9c-8.2-6.3-16.9-12.1-26.1-16.8      c-4.6-2.3-9.4-4.3-14.4-5.7C1937.1,109,1931.9,108.2,1926.5,108.2z"></path>					<path class="st6" d="M1985.3,81.7c8.2-2.4,17-3,25.7-2.1c8.7,1,17.2,3.6,25.1,7.5c7.9,3.9,15,9,21.3,14.9      c6.3,5.9,11.8,12.5,16.3,19.8c-6.9-5.1-13.5-10.2-20.2-15c-6.7-4.7-13.7-9-20.9-12.6c-7.2-3.6-14.8-6.4-22.7-8.4      C2002,83.7,1993.8,82.6,1985.3,81.7z"></path>					<path class="st6" d="M1961.3,53.5c-0.7-2.1-1.4-3.8-2.3-5.6c-0.4-0.9-0.9-1.7-1.3-2.5l-1.5-2.4c-2-3.1-4.2-6-6.6-8.7      c-2.4-2.7-4.9-5.3-7.7-7.8c-2.8-2.5-5.8-4.9-9.2-7.6c4.3-0.4,8.6,0.6,12.5,2.4c3.9,1.8,7.5,4.5,10.3,7.8      c2.9,3.3,5.1,7.2,6.3,11.4c0.3,1.1,0.5,2.2,0.7,3.2c0.1,1.1,0.2,2.2,0.2,3.3c0,1.1-0.1,2.2-0.4,3.3      C1962.3,51.5,1961.8,52.5,1961.3,53.5z"></path>					<path class="st6" d="M1907.9,66.1c-2.7-3.3-5-6.2-7.4-9c-2.4-2.7-4.9-5.1-7.5-7.4c-2.7-2.2-5.5-4.2-8.6-6.1      c-3.1-1.9-6.5-3.6-10.2-5.6c4-1.3,8.3-1.2,12.5-0.2c4.1,1,8.1,3,11.4,5.8c3.3,2.8,6,6.3,7.7,10.1      C1907.5,57.7,1908.4,61.9,1907.9,66.1z"></path>					<path class="st6" d="M1848.3,113.2c-3.1-1.9-5.5-4.2-7.8-6.2c-2.3-2-4.5-3.8-6.8-5.3c-2.3-1.6-4.7-2.9-7.4-4.2      c-2.7-1.3-5.6-2.4-8.8-4.2c3.2-1.6,6.8-2.2,10.4-1.8c3.6,0.4,7.2,1.6,10.3,3.7c3.1,2.1,5.5,5,7.2,8.1      C1847.1,106.4,1847.9,109.7,1848.3,113.2z"></path>					<path class="st6" d="M1808.8,176.7c-2.8-0.7-4.9-1.8-6.9-2.6c-2-0.8-3.7-1.5-5.4-2.1c-1.7-0.6-3.4-1-5.5-1.4      c-2.1-0.4-4.5-0.7-7.2-1.7c1.8-2.2,4-3.6,6.6-4.5c2.6-0.8,5.7-0.9,8.5,0c2.8,0.9,5.2,2.7,6.9,4.7      C1807.5,171.4,1808.6,173.9,1808.8,176.7z"></path>				</g>				<g>					<path class="st5" d="M2011,355.8c0,0-68.2-87.9-181.1,12.9c-104.1,92.8-15.7,258.5-15.7,258.5s17.9-52.7,66.8-63.7      c69.6-15.7,137.1-29.1,163.1-80.1C2070,432.4,2053.8,362.1,2011,355.8z"></path>					<path class="st6" d="M1995.1,360.4c0,0-188.4,10.8-182.1,200.5C1813,561,1820,397.7,1995.1,360.4z"></path>					<path class="st6" d="M1840.1,507.9c1-0.5,2-0.8,3-1.1c0.5-0.2,1-0.3,1.6-0.5c0.5-0.1,1.1-0.1,1.6-0.2c1.1-0.1,2.2-0.2,3.3-0.2      c1.1,0.1,2.2,0.2,3.3,0.4c4.4,0.8,8.7,2.6,12.2,5.3c3.5,2.7,6.4,6.1,8.6,9.8c2.1,3.7,3.6,7.8,3.8,12.2l-8.7-8.4      c-2.8-2.6-5.6-5.1-8.4-7.3c-2.9-2.3-5.9-4-9.2-5.7c-0.8-0.4-1.7-0.8-2.5-1.2c-0.9-0.3-1.8-0.6-2.7-1c-0.5-0.2-0.9-0.4-1.4-0.6      c-0.5-0.1-1-0.3-1.4-0.4C1842.2,508.6,1841.2,508.3,1840.1,507.9z"></path>					<path class="st6" d="M1864.7,458.3c8.2-1.8,17.1-1.3,25.4,1.2c8.3,2.4,16,6.9,22.7,12.4c6.7,5.5,12.3,12.1,16.9,19.2      c4.5,7.2,8.2,14.9,10.1,23.1c-4.9-6.8-9.9-13.3-15.1-19.4c-5.3-6.1-10.9-11.8-16.9-16.8c-3-2.6-6.2-4.8-9.5-7      c-3.3-2.2-6.7-4-10.3-5.7C1880.8,461.9,1873,459.8,1864.7,458.3z"></path>					<path class="st6" d="M1895.9,419.3c5.1-1.8,10.8-2,16.2-1.5c5.5,0.6,10.9,1.9,16.1,3.8c10.4,3.8,19.8,9.6,28.5,16.2      c8.6,6.7,16.4,14.4,23.1,23.1c3.3,4.3,6.3,9,8.7,13.9c0.6,1.2,1.2,2.5,1.7,3.8c0.5,1.3,1,2.6,1.4,3.9c0.7,2.6,1.3,5.4,1.1,8.1      c-1.5-5.2-4.4-9.6-7.5-13.7c-3.1-4.2-6.6-8.1-10.1-11.9c-7.2-7.5-15-14.5-23.2-20.9c-8.2-6.3-16.9-12.1-26.1-16.8      c-4.6-2.3-9.4-4.3-14.4-5.7C1906.5,420.1,1901.3,419.3,1895.9,419.3z"></path>					<path class="st6" d="M1948.5,392.5c8.2-2.4,17-3,25.7-2.1c8.7,1,17.2,3.6,25.1,7.5c7.9,3.9,15,9,21.3,14.9      c6.3,5.9,11.8,12.5,16.3,19.8c-6.9-5.1-13.5-10.2-20.2-15c-6.7-4.7-13.7-9-20.9-12.6c-7.2-3.6-14.8-6.4-22.7-8.4      C1965.2,394.5,1957,393.4,1948.5,392.5z"></path>					<path class="st6" d="M1930.8,367.4c-0.7-2.1-1.7-3.6-2.8-5.1c-1.1-1.5-2.3-2.9-3.6-4.3c-2.5-2.7-5.2-5.3-7.9-7.7      c-2.7-2.5-5.5-4.8-8.5-7c-3-2.2-6-4.3-9.9-6c2-0.9,4.2-1.1,6.4-0.9c2.2,0.1,4.3,0.6,6.4,1.4c4.1,1.5,7.8,3.8,10.9,6.7      c3.2,2.9,5.8,6.3,7.7,10.2c0.9,2,1.7,4.1,2,6.3C1932,363,1931.9,365.5,1930.8,367.4z"></path>					<path class="st6" d="M1885.8,388.4c-2.7-3.3-5-6.2-7.4-9c-2.4-2.7-4.9-5.1-7.5-7.4c-2.7-2.2-5.5-4.2-8.6-6.1      c-3.1-1.9-6.5-3.6-10.2-5.6c4-1.3,8.3-1.2,12.5-0.2c4.1,1,8.1,3,11.4,5.8c3.3,2.8,6,6.3,7.7,10.1      C1885.4,380,1886.2,384.2,1885.8,388.4z"></path>					<path class="st6" d="M1838.8,428.7c-3.1-1.9-5.5-4.2-7.8-6.2c-2.3-2-4.5-3.8-6.8-5.3c-2.3-1.6-4.7-2.9-7.4-4.2      c-2.7-1.3-5.6-2.4-8.8-4.2c3.2-1.6,6.8-2.2,10.4-1.8c3.6,0.4,7.2,1.6,10.3,3.7c3.1,2.1,5.5,5,7.2,8.1      C1837.5,421.9,1838.4,425.1,1838.8,428.7z"></path>					<path class="st6" d="M1811.8,487.6c-2.8-0.7-4.9-1.8-6.9-2.6c-2-0.8-3.7-1.5-5.4-2.1c-1.7-0.6-3.4-1-5.5-1.4      c-2.1-0.4-4.5-0.7-7.2-1.7c1.8-2.2,4-3.6,6.6-4.5c2.6-0.8,5.7-0.9,8.5,0c2.8,0.9,5.2,2.7,6.9,4.7      C1810.5,482.3,1811.5,484.8,1811.8,487.6z"></path>				</g>				<g>					<path class="st5" d="M2269.7,220.2c-38.4-19.1-74.8-62.4-35.5-92.6c55.9-42.9,165.3-31.9,265.8,25.5c0,0,0,23.8-18.6,62.5      C2451.2,278.3,2313.5,329.9,2269.7,220.2z"></path>					<path class="st6" d="M2288.2,205.8c0,0,23.2-76.6,169.4-57.6C2457.6,148.1,2363.4,141.8,2288.2,205.8z"></path>					<path class="st6" d="M2442.7,157.4c4.3-0.4,8.6,0.2,12.6,1.6c4,1.3,7.8,3.3,11.2,5.8c3.4,2.4,6.5,5.3,9.1,8.6      c2.6,3.3,4.8,6.9,6,11.2c-3.7-2.2-7-4.4-10.3-6.6l-9.5-6.7c-3.1-2.3-6.2-4.4-9.4-6.7C2449.4,162.2,2446.1,160.2,2442.7,157.4z"></path>					<path class="st6" d="M2391.2,117.9c3.3-0.3,6.7,0.2,9.8,1.3c3.1,1,6.1,2.6,8.7,4.5c2.7,1.9,5.1,4.1,7.1,6.7      c2,2.6,3.7,5.4,4.6,8.7c-2.9-1.7-5.5-3.4-8-5.2l-7.3-5.2c-2.4-1.8-4.8-3.4-7.3-5.2C2396.4,121.7,2393.8,120.1,2391.2,117.9z"></path>					<path class="st6" d="M2380.3,169.6c8.2-1.8,17.1-1.3,25.4,1.2c8.3,2.4,16,6.9,22.7,12.4c6.7,5.5,12.3,12.1,16.9,19.2      c4.5,7.2,8.2,14.9,10.1,23.1c-4.9-6.8-9.9-13.3-15.1-19.4c-5.3-6.1-10.9-11.8-16.9-16.8c-3-2.6-6.2-4.8-9.5-7      c-3.3-2.2-6.7-4-10.3-5.7C2396.4,173.2,2388.6,171.1,2380.3,169.6z"></path>					<path class="st6" d="M2320.1,110.8c1.1,0.1,2.2,0.2,3.3,0.4c0.6,0.1,1.1,0.2,1.7,0.2l1.6,0.4c1.1,0.3,2.2,0.6,3.3,0.9      c1.1,0.4,2.1,0.8,3.1,1.3c4.1,1.8,8.1,4.2,11.6,7c3.5,2.8,6.7,6,9.4,9.6c2.7,3.5,5.1,7.4,6.7,11.6c-3.1-3.2-6.1-6.3-9.2-9.4      c-3.1-3-6.3-5.8-9.6-8.5c-3.3-2.7-6.8-5.1-10.4-7.4C2328,114.6,2324.1,112.8,2320.1,110.8z"></path>					<path class="st6" d="M2336.8,184.6c9,0.1,18,2,26.5,5.4c4.3,1.6,8.4,3.7,12.3,6c4,2.3,7.7,4.9,11.3,7.7      c7.2,5.7,13.6,12.3,19,19.6c5.4,7.3,10,15.2,12.7,23.9c-5.6-7-11.4-13.6-17.4-19.8c-6.1-6.2-12.4-12-19.1-17.4      c-6.7-5.3-13.9-10.1-21.4-14.3C2353.2,191.3,2345.2,187.9,2336.8,184.6z"></path>					<path class="st6" d="M2268.3,118.3c5.7-0.2,11.5,0.9,16.7,3.2c5.3,2.3,10.2,5.4,14.5,9.1c4.3,3.8,8.1,8.1,11.2,12.8      c3.1,4.7,5.7,9.8,7,15.4c-4.2-3.9-8-7.7-11.8-11.4c-3.8-3.7-7.7-7.3-11.6-10.8c-3.9-3.5-8-6.6-12.3-9.7      C2277.8,123.8,2273.2,121.3,2268.3,118.3z"></path>					<path class="st6" d="M2314.5,211.4c6.2,4,11.8,8.5,17.4,13c5.5,4.6,11,9.2,16.3,14c5.3,4.8,10.5,9.8,15.5,15      c5,5.2,9.8,10.6,14,16.7c-6.5-3.6-12.4-7.7-18.2-12c-5.8-4.3-11.3-8.9-16.7-13.8c-5.3-4.9-10.5-10-15.3-15.4      C2322.8,223.4,2318.3,217.7,2314.5,211.4z"></path>					<path class="st6" d="M2237.9,145.1c4.3,2.3,8.3,5,12.2,7.7c3.9,2.7,7.8,5.5,11.5,8.4c3.8,2.9,7.5,5.9,11.1,9      c3.6,3.2,7.1,6.5,10.2,10.2c-4.5-2-8.6-4.4-12.7-7c-4-2.6-8-5.3-11.8-8.2c-3.8-2.9-7.5-6-10.9-9.4      C2244.1,152.6,2240.8,149.1,2237.9,145.1z"></path>				</g>			</g>		</g>		<g>			<g>				<g>					<polygon class="st9" points="1455.9,539.2 2034.7,873.4 2034.7,1297.2 1455.9,963      "></polygon>					<polygon class="st10" points="1455.9,539.2 1547.6,486.2 2126.4,820.4 2034.7,873.4      "></polygon>					<polygon class="st11" points="2034.7,873.4 2126.4,820.4 2126.4,1244.2 2034.7,1297.2      "></polygon>				</g>			</g>			<g>				<g>					<g>						<polygon class="st9" points="2007.6,1281.5 2007.6,1069.6 1548.8,1334.5 1548.8,1546.4       "></polygon>						<g>							<polygon class="st10" points="1575.9,1244.2 997.1,910 1455.9,645.1 2034.7,979.3        "></polygon>							<polygon class="st11" points="1575.9,1350.1 2034.7,1085.3 2034.7,979.3 1575.9,1244.2        "></polygon>						</g>					</g>					<g>						<polygon class="st9" points="1548.8,1546.4 1548.8,1334.5 1090,1599.4 1090,1811.3       "></polygon>						<g>							<polygon class="st10" points="1117.1,1509.1 538.3,1174.9 997.1,910 1575.9,1244.2        "></polygon>							<polygon class="st11" points="1117.1,1615 1575.9,1350.1 1575.9,1244.2 1117.1,1509.1        "></polygon>						</g>					</g>				</g>				<g>					<g>						<polygon class="st11" points="1551.6,276.6 1551.6,700.4 1092.8,965.3 1092.8,541.4       "></polygon>						<polygon class="st12" points="1092.8,541.4 997.1,486.2 997.1,910.1 1092.8,965.3       "></polygon>						<polygon class="st10" points="997.1,486.2 1455.9,221.3 1551.6,276.6 1092.8,541.4       "></polygon>					</g>				</g>				<g>					<g>						<polygon class="st11" points="1092.8,541.4 1092.8,965.3 634,1230.1 634,806.3       "></polygon>						<polygon class="st9" points="634,806.3 538.3,751.1 538.3,1175 634,1230.1       "></polygon>						<polygon class="st10" points="538.3,751.1 997.1,486.2 1092.8,541.4 634,806.3       "></polygon>					</g>				</g>			</g>			<path class="st13" d="M1862,990c-22.3-9.7-48.3-12.5-64.8-19.5c-16.5-6.9-113.2-1.7-119.9-4.9c-6.7-3.2-172.1-103-203-115.8    c-30.9-12.8-63.5-13.9-83.2-8.5c-19.7,5.3-31.4,17.1-40.2,21.3c-8.9,4.3-49.4,24-77.2,25.6c-27.7,1.6-71.5,6.9-108.3,21.9    c-36.8,14.9-74.2,38.4-88,60.3c-13.9,21.9-17.6,49.1-28.3,57.1c-10.7,8-47,20.3-51.2,28.3c-4.3,8-14.9,20.8,13.3,44.8    c28.3,24,170.7,121.6,171.8,127s-11.5,24.3,4.5,44.3c16,20,58,17.8,79.9,23.7c0,0-5,29.7,4.1,47c16.5,31.3,81.3,37.7,113.9,13.3    c56.9-42.7,65.2-115.1,93.2-143.1c0,0,336.1-156.6,373.5-170C1889.5,1029.5,1888.4,1001.5,1862,990z"></path>			<g>				<g>					<path class="st14" d="M1506.1,426.2c29.2,9.9,11.5,56.5,38.6,83.4c27.1,26.9,58,50.2,81.2,80.5c24.5,32.1,39.4,71.5,42.3,111.9      c2,29.1-2.7,60.1-20.7,83c-12.3,15.6-29.6,26.3-46.5,36.7c-95.5,58.4-192.5,114.5-286.5,175.2      c-38.2,24.6-166.6-95.2-212.2-313.3c-6.9-33-3.8-87.5,28.6-94.6c67.8-14.8,85.8-25.3,127.7-55.7      c35.8-25.9,63.5-30.1,101.9-51.9c21.3-12.1,42.8-23.9,64.3-35.6C1431.2,442.6,1476.9,416.4,1506.1,426.2z"></path>					<g>						<path class="st15" d="M1556.3,520.9c-16.2,7.9-32.5,15.7-48.7,23.6c-35,16.9-70.1,33.9-106.4,47.8       c-18.2,6.9-36.7,13.1-55.5,18.5c54-32.6,105.4-69.6,153.5-110.4c6.7-5.7,18.2-20.6,28.9-27.1c2.4,13,6.2,26.2,16.6,36.5       C1548.5,513.5,1552.4,517.2,1556.3,520.9z"></path>						<path class="st15" d="M1660.5,761.7c-3.2,8.4-7.5,16.3-13.1,23.4c-12.3,15.6-29.6,26.3-46.5,36.7       c-95.5,58.4-192.5,114.5-286.5,175.2c-38.2,24.7-166.6-95.2-212.2-313.3c-5.2-24.8-4.7-61.8,9.6-81.6       c25.6,13,50.9,38.7,60.7,54.3c20.8,33.2,27.1,73.2,40,110.2c12.9,37,36.4,74.7,74.2,85.3c23.9,6.7,49.9,1.2,72-10       c22.2-11.1,41.2-27.5,60-43.7c0,0,10.3,46.8-72.9,97.3c-10.9,6.6-25.2,9.2-32.5,19.6c-7.4,10.4-5.8,28,6.2,32.4       c8.2,3,17.1-1.2,24.8-5.4c33.9-18.3,67.8-36.6,101.7-54.9C1518.9,848,1592.1,808.4,1660.5,761.7z"></path>						<path class="st15" d="M1249.9,548.8c-8.8,9.2-19.2,16.9-30.7,22.3c-16.1,7.6-34.2,10.7-52,9.3c39.8-11.1,58-22.7,91.1-46.7       C1259.2,538.5,1253.9,544.5,1249.9,548.8z"></path>					</g>				</g>				<g>					<path class="st14" d="M1033.8,702.7c29.2,9.9,11.5,56.5,38.6,83.4c27.1,26.9,58,50.2,81.2,80.5c24.5,32.1,39.4,71.5,42.3,111.9      c2,29.1-2.7,60.1-20.7,83c-12.3,15.6-29.6,26.3-46.5,36.7c-95.5,58.4-192.5,114.5-286.5,175.2      c-38.2,24.6-166.6-95.2-212.2-313.3c-6.9-33-3.8-87.5,28.6-94.6c67.8-14.8,85.8-25.3,127.7-55.7      c35.8-25.9,63.5-30.1,101.9-51.9c21.3-12.1,42.8-23.9,64.3-35.6C958.9,719.1,1004.6,692.9,1033.8,702.7z"></path>					<path class="st14" d="M1175.1,1061.6c-12.3,15.6-29.6,26.3-46.5,36.7c-18,11-36,21.9-54.1,32.8      c-77.9,46.9-156.1,93.1-232.5,142.4c-38.2,24.6-166.6-95.2-212.2-313.2c-6.9-33-3.8-87.5,28.6-94.6      c67.8-14.8,85.8-25.3,127.7-55.7c35.8-25.9,63.5-30.1,101.9-51.9c15.9-9,31.8-17.9,47.8-26.6c5.5-3,11-6,16.5-9      c6.5-3.5,52.2-29.7,81.4-19.8c29.2,9.9,11.5,56.5,38.6,83.4c27.1,26.9,58,50.2,81.2,80.6c24.5,32.1,39.4,71.5,42.3,111.8      C1197.8,1007.7,1193.1,1038.7,1175.1,1061.6z"></path>					<g>						<path class="st15" d="M1084,797.4c-16.2,7.9-32.5,15.7-48.7,23.6c-35,16.9-70.1,33.9-106.4,47.8       c-18.2,6.9-36.7,13.1-55.5,18.5c54-32.6,105.4-69.6,153.5-110.4c6.7-5.7,18.2-20.6,28.9-27.1c2.4,13,6.2,26.2,16.6,36.5       C1076.2,790,1080.1,793.7,1084,797.4z"></path>						<path class="st15" d="M1188.2,1038.2c-3.2,8.4-7.5,16.3-13.1,23.4c-12.3,15.6-29.6,26.3-46.5,36.7       c-95.5,58.4-192.5,114.5-286.5,175.2c-38.2,24.7-166.6-95.2-212.2-313.3c-5.2-24.8-4.7-61.8,9.6-81.6       c25.6,13,50.9,38.7,60.7,54.3c20.8,33.2,27.1,73.2,40,110.2c12.9,37,36.4,74.7,74.2,85.3c23.9,6.7,49.9,1.2,72-10       c22.2-11.1,41.2-27.5,60-43.7c0,0,10.3,46.8-72.9,97.3c-10.9,6.6-25.2,9.2-32.5,19.6c-7.4,10.4-5.8,28,6.2,32.4       c8.2,3,17.1-1.2,24.8-5.4c33.9-18.3,67.8-36.6,101.7-54.9C1046.6,1124.5,1119.7,1084.9,1188.2,1038.2z"></path>						<path class="st15" d="M777.6,825.2c-8.8,9.2-19.2,16.9-30.7,22.3c-16.1,7.6-34.2,10.7-52,9.3c39.8-11.1,58-22.7,91.1-46.7       C786.9,815,781.6,821,777.6,825.2z"></path>					</g>					<path class="st15" d="M1175.1,1061.6c-12.3,15.6-29.6,26.3-46.5,36.7c-18,11-36,21.9-54.1,32.8c-13.7-16.6-25.7-34.3-31.9-54.6      c-14.7-48.1,4.8-105.5-23.2-147.3c-14.6-21.8-39.4-34.3-58.3-52.7c-21.3-20.7-33.5-49.7-36-79.1c-1.8-21.9,2.5-44.4,10.7-65.9      c5.5-3,11-6,16.5-9c6.5-3.5,52.2-29.7,81.4-19.8c29.2,9.9,11.5,56.5,38.6,83.4c27.1,26.9,58,50.2,81.2,80.6      c24.5,32.1,39.4,71.5,42.3,111.8C1197.8,1007.7,1193.1,1038.7,1175.1,1061.6z"></path>				</g>			</g>			<g>				<g>					<polygon class="st9" points="446.5,1121.9 1025.4,1456.1 1025.4,1879.9 446.5,1545.7      "></polygon>					<polygon class="st10" points="446.5,1121.9 538.3,1068.9 1117.1,1403.1 1025.4,1456.1      "></polygon>					<polygon class="st11" points="1025.4,1456.1 1117.1,1403.1 1117.1,1826.9 1025.4,1879.9      "></polygon>				</g>			</g>			<g>				<g>					<path class="st16" d="M1356.5,795.5c0,0,29.8,83.1,36.8,110.8c14.7,58.8-200,160.7-224.9,175.1c-24.9,14.4-92.1-0.7-112-57.8      c-19.9-57.2-20.1-112.5-13.3-149.8c3.5-19.5,200.7-115,259.9-114.8C1323.1,759.1,1344,762.3,1356.5,795.5z"></path>					<path class="st17" d="M1056.4,1023.5c12,34.6,41.4,53.7,68.2,60.3c-21.4-35.3-52.5-93.8-52.2-134.6      c0.3-41.2,9.1-83.6,14.9-107.6c-25.7,14.3-43.2,26.5-44.2,32.2C1036.3,911,1036.5,966.4,1056.4,1023.5z"></path>					<g>						<g>							<path class="st16" d="M1819.4,878.7c-39.4-15.6-181.8-64-280-69.5c-98.2-5.5-155.3-6.5-178.1-1.4        c-109.8,24.2-223.7,160.4-126.4,214.9c6.1,3.4,42.4,6.7,112.8,5.7c118.5-1.6,341.8-2.9,401.2-20.8        C1808.2,989.7,1863.8,896.3,1819.4,878.7z"></path>							<path class="st17" d="M1234.9,1022.7c6.1,3.4,42.4,6.7,112.8,5.7c118.5-1.6,341.8-2.9,401.2-20.8c23-7,45.5-25.3,61.8-46.1        c-52.9-28.7-126.8-59-153.5-48.3c-54.3,21.9-93.1,51-121.1,56.5c-28.1,5.5-178.7-1-201.9-12.5        c-23.2-11.4-60.2-31.4-60.2-31.4l-61-4.8C1189.9,958.7,1190.5,997.9,1234.9,1022.7z"></path>						</g>						<g>							<g>								<path class="st16" d="M1450.9,1222.8c42.5-30.4,108.2-80.9,174.2-116.3c66-35.5,151.2-85.6,195.6-128.1         c2-1.9,3.9-3.8,5.6-5.7c37.5-40.6,23.9-81.1-5.3-93.3c-36.5-15.2-105.2,4.4-123.3,11.8c-54.7,22.5-118.5,83.1-149.1,108.1         c-10.8,8.8-33.2,26-58.1,45c-45.5,34.6-99.6,74.9-107.5,80.3C1357,1142.1,1415.1,1248.6,1450.9,1222.8z"></path>								<path class="st17" d="M1450.9,1222.8c42.5-30.4,108.2-80.9,174.2-116.3c66-35.5,151.2-85.6,195.6-128.1         c2-1.9,3.9-3.8,5.6-5.7c-2.1,1.6-4.2,3.1-6.1,4.4c-14,9.2-28,18.4-42,27.6c-31.8,20.9-64.5,42.2-101.6,50.8         c-60.9,14-123.7-8.1-186.1-11.2c-45.5,34.6-99.6,74.9-107.5,80.3C1357,1142.1,1415.1,1248.6,1450.9,1222.8z"></path>							</g>							<g>								<path class="st18" d="M1390,1132.3c-10.1,4.6-14.8,1.2-24.5-5.3s-18.6-15.9-41.6-16.4c-23-0.5-33.1,18.5-38.4,34.8         c-5.2,16.3-0.9,39.1,3.6,51.1c4.5,12,7,14.6,9.4,36.7c1.6,15.6-0.8,33.3,0.8,63.5c1.6,30.3,3.4,51.4,18.9,61.9         c10.1,6.8,36.6,11.8,57.3-9.4c19.2-19.7,22.5-54.7,25.2-77.8c2.7-23.1,37.1-51.6,45.8-57.8         C1456,1206.8,1412.5,1122,1390,1132.3z"></path>								<path class="st19" d="M1289.2,1196.4c4.5,12,7,14.6,9.4,36.7c1.6,15.6-0.8,33.3,0.8,63.5c1.6,30.3,3.4,51.4,18.9,61.9         c0.1,0.1,0.3,0.2,0.4,0.3c0,0,0,0,0,0c5.7,1.6,12.3,0.9,19.7-2.9c42-21.1,30.8-72.5,17.7-106c-8.8-22.4-14.1-46.1-15.4-70.1         c-1.5-27.3-15.3-69.2-33.9-65.2c-11.5,6.4-17.6,19.3-21.3,30.8C1280.3,1161.6,1284.7,1184.4,1289.2,1196.4z"></path>							</g>						</g>					</g>					<g>						<path class="st18" d="M1374.9,1039.2c-0.4-15.6,2-25.3,13.2-35.8c9.6-8.9,23.6-11.5,43.9-7.9c34.2,6.2,63,23.4,73.9,23       c26.9-0.9,103.1-39,151.6-3.1c48.5,35.8,31.9,76.1-19.9,84.6c-29,4.7-101-8.8-167.2,14.8c-7.4,2.7-23.4,11.9-32.1,18.8       c-32.5,26-94.6-50-61.6-63.4L1374.9,1039.2z"></path>						<g>							<path class="st16" d="M1218.8,1245.2c18.1,11.4,66.1,24.7,85.9,10c0,0,138.8-116.2,161.4-134.1c9.7-7.7,6.4-25.3-4.4-40.9        c-14.5-20.9-42.3-38.3-70.7-23.8c-40.8,20.9-57.8,24.7-73.6,27.9c-3.4,0.7-6.8,1.4-10.3,2.2c-19.9,4.6-76.6,5.4-109.5,59.5        C1164.7,1200.1,1200.7,1233.8,1218.8,1245.2z"></path>							<path class="st17" d="M1218.8,1245.2c18.1,11.4,66.1,24.7,85.9,10c0,0,138.8-116.2,161.4-134.1c9.7-7.7,6.4-25.3-4.4-40.9        c-29.6,22.8-114.2,87.6-124.2,89.2c-9.1,1.4-13.9-52.4-20.1-85.1c-3.4,0.7-6.8,1.4-10.3,2.2c-19.9,4.6-76.6,5.4-109.5,59.5        C1164.7,1200.1,1200.7,1233.8,1218.8,1245.2z"></path>						</g>						<g>							<path class="st16" d="M1276.1,933.9c0,0,37.8,171.9,43,208.3c5.2,36.4,26.1,68.3-7,105.7c-33.1,37.5-80.8,20.6-123.9-26.7        s-109.8-135.3-128.7-190c-18.9-54.6,22.6-115.6,86.3-136.6C1209.4,873.6,1264.3,879.5,1276.1,933.9z"></path>							<path class="st16" d="M1059.4,1031.3c18.9,54.6,85.6,142.7,128.7,190c43.1,47.3,90.8,64.2,123.9,26.7        c4.8-5.4,8.5-10.7,11.2-16c0.2-0.4,0.4-0.7,0.5-1c0.3-0.6,0.6-1.2,0.9-1.8c0.2-0.3,0.3-0.6,0.4-1c0.3-0.7,0.6-1.3,0.8-2        c0.1-0.3,0.3-0.7,0.4-1c0.1-0.3,0.2-0.6,0.3-0.8c10.3-27.9-3.5-53.7-7.6-82.2c-5.2-36.4-43-208.3-43-208.3        c-11.8-54.4-66.7-60.4-130.4-39.3c-31.4,10.4-57.3,30.4-73.4,54.6C1055.8,974.2,1049.8,1003.5,1059.4,1031.3z"></path>							<path class="st17" d="M1059.4,1031.3c18.9,54.6,85.6,142.7,128.7,190c43.1,47.3,90.8,64.2,123.9,26.7        c4.8-5.4,8.5-10.7,11.2-16c0.2-0.4,0.4-0.7,0.5-1c0.3-0.6,0.6-1.2,0.9-1.8c0.2-0.3,0.3-0.6,0.4-1c0.3-0.7,0.6-1.3,0.8-2        c0.1-0.3,0.3-0.7,0.4-1c0.1-0.3,0.2-0.6,0.3-0.8c-5.5,3.9-11.6,7-18.1,8.9c-26.1,7.6-54.8-0.8-77.3-16.1        c-22.5-15.3-39.9-36.8-57-58c-44.6-55.3-90.6-113.7-103.4-183.5c-2.5-10.3,1.3-25.7,1.4-26.5        C1055.8,974.2,1049.8,1003.5,1059.4,1031.3z"></path>						</g>					</g>				</g>				<g>					<g>						<path class="st20" d="M1771.9,924.8c0,1.4-0.9,2.9-2.8,4l-326.3,188.4c-0.5,0.3-0.9,0.5-1.5,0.7c-0.1,0-0.2,0.1-0.2,0.1       c-0.4,0.2-0.9,0.3-1.3,0.4c-0.1,0-0.2,0-0.3,0.1c-0.5,0.1-1,0.2-1.5,0.3c-0.1,0-0.2,0-0.2,0c-0.5,0.1-1.1,0.1-1.6,0.1       c-0.1,0-0.2,0-0.3,0c-0.5,0-1.1,0-1.6-0.1c-0.1,0-0.2,0-0.3,0c-0.4,0-0.8-0.1-1.2-0.2c-0.3-0.1-0.6-0.2-1-0.2       c-0.2-0.1-0.5-0.1-0.7-0.2c-0.7-0.2-1.3-0.5-1.9-0.8l-219.4-127.5c-0.2-0.1-0.4-0.3-0.6-0.4c-0.2-0.2-0.5-0.3-0.7-0.5       c-0.3-0.3-0.6-0.6-0.8-0.8c0-0.1-0.1-0.1-0.1-0.2c-0.2-0.3-0.4-0.6-0.5-0.9c0,0,0-0.1,0-0.1c-0.1-0.3-0.2-0.7-0.2-1l0,8.8       c0,0,0,0.1,0,0.1c0,0.2,0,0.4,0.1,0.6c0,0.1,0.1,0.2,0.1,0.4c0,0,0,0.1,0,0.1c0,0,0,0.1,0,0.1c0.1,0.2,0.2,0.4,0.3,0.5       c0.1,0.1,0.1,0.2,0.2,0.3c0,0.1,0.1,0.1,0.1,0.2c0,0,0.1,0.1,0.1,0.2c0.2,0.2,0.4,0.4,0.6,0.6c0,0,0,0,0.1,0       c0.2,0.2,0.4,0.3,0.7,0.5c0.2,0.1,0.3,0.2,0.5,0.4c0,0,0.1,0,0.1,0.1l219.4,127.5c0.6,0.3,1.2,0.6,1.9,0.8       c0.1,0,0.1,0.1,0.2,0.1c0.2,0.1,0.3,0.1,0.5,0.1c0.3,0.1,0.6,0.2,1,0.2c0.1,0,0.2,0.1,0.3,0.1c0.3,0,0.5,0.1,0.8,0.1       c0.1,0,0.2,0,0.3,0c0,0,0.1,0,0.1,0c0.4,0,0.7,0.1,1.1,0.1c0.1,0,0.3,0,0.4,0c0.1,0,0.2,0,0.3,0c0.1,0,0.2,0,0.3,0       c0.3,0,0.6,0,0.9-0.1c0.1,0,0.2,0,0.3,0c0.1,0,0.2,0,0.2,0c0.1,0,0.2,0,0.4,0c0.3,0,0.6-0.1,1-0.2c0.1,0,0.2,0,0.2-0.1       c0.1,0,0.2,0,0.3-0.1c0.2,0,0.3-0.1,0.5-0.1c0.3-0.1,0.6-0.2,0.8-0.3c0.1,0,0.2-0.1,0.2-0.1c0,0,0.1,0,0.1,0       c0.5-0.2,1-0.4,1.4-0.7l326.3-188.4c1.9-1.1,2.8-2.5,2.8-4L1771.9,924.8z"></path>						<g>							<path class="st0" d="M1209.7,981.8c-3.8,2.2-3.8,5.7,0,7.9l219.4,127.5c3.7,2.2,9.8,2.2,13.6,0L1769,928.8        c3.8-2.2,3.8-5.7,0.1-7.9l-219.4-127.5c-3.7-2.2-9.8-2.2-13.6,0L1209.7,981.8z"></path>						</g>					</g>					<g>						<g>							<polygon class="st21" points="1598.3,842.1 1724.5,915 1422.3,1089.5 1296.1,1016.6        "></polygon>							<g>								<g>									<g>										<path class="st17" d="M1585.1,856.1c-1.5-0.9-1.7-2.2-0.4-2.9l11.6-6.7c1.3-0.7,3.6-0.7,5.1,0.2l13.4,7.7           c1.5,0.9,1.7,2.2,0.4,2.9l-11.6,6.7c-1.3,0.7-3.6,0.7-5.1-0.2L1585.1,856.1z"></path>									</g>									<g>										<path class="st17" d="M1565.8,867.2c-1.5-0.9-1.7-2.2-0.4-2.9l11.6-6.7c1.3-0.8,3.6-0.7,5.1,0.2l13.4,7.7           c1.5,0.9,1.7,2.2,0.4,2.9l-11.6,6.7c-1.3,0.8-3.6,0.7-5.1-0.2L1565.8,867.2z"></path>									</g>									<g>										<path class="st17" d="M1546.6,878.3c-1.5-0.9-1.7-2.2-0.4-2.9l11.6-6.7c1.3-0.8,3.6-0.7,5.1,0.2l13.4,7.7           c1.5,0.9,1.7,2.2,0.4,2.9l-11.6,6.7c-1.3,0.7-3.6,0.7-5.1-0.2L1546.6,878.3z"></path>									</g>									<g>										<path class="st17" d="M1361.6,985.1c-1.5-0.9-1.7-2.2-0.4-2.9l11.6-6.7c1.3-0.8,3.6-0.7,5.1,0.2l13.4,7.7           c1.5,0.9,1.7,2.2,0.4,2.9l-11.6,6.7c-1.3,0.7-3.6,0.7-5.1-0.2L1361.6,985.1z"></path>									</g>									<g>										<path class="st17" d="M1511.9,898.3c-1.5-0.9-1.7-2.2-0.4-2.9l27-15.6c1.3-0.8,3.6-0.7,5.1,0.2l13.4,7.7           c1.5,0.9,1.7,2.2,0.4,2.9l-26.9,15.6c-1.3,0.7-3.6,0.7-5.1-0.2L1511.9,898.3z"></path>									</g>									<g>										<path class="st17" d="M1380.9,974c-1.5-0.9-1.7-2.2-0.4-2.9l27-15.6c1.3-0.8,3.6-0.7,5.1,0.2l13.4,7.7           c1.5,0.9,1.7,2.2,0.4,2.9l-26.9,15.6c-1.3,0.7-3.6,0.7-5.1-0.2L1380.9,974z"></path>									</g>									<g>										<path class="st17" d="M1415.5,954c-1.5-0.9-1.7-2.2-0.4-2.9l88.7-51.2c1.3-0.7,3.6-0.7,5.1,0.2l13.4,7.7           c1.5,0.9,1.7,2.2,0.4,2.9l-88.7,51.2c-1.3,0.7-3.6,0.7-5.1-0.2L1415.5,954z"></path>									</g>									<g>										<path class="st17" d="M1342.3,996.3c-1.5-0.9-1.7-2.2-0.4-2.9l11.6-6.7c1.3-0.7,3.6-0.7,5.1,0.2l4,2.3           c1.5,0.9,1.7,2.2,0.4,2.9l-11.6,6.7c-1.3,0.8-3.6,0.7-5.1-0.2L1342.3,996.3z"></path>									</g>									<g>										<path class="st17" d="M1323,1007.4c-1.5-0.9-1.7-2.2-0.4-2.9l11.6-6.7c1.3-0.7,3.6-0.7,5.1,0.2l4,2.3           c1.5,0.9,1.7,2.2,0.4,2.9l-11.6,6.7c-1.3,0.7-3.6,0.7-5.1-0.2L1323,1007.4z"></path>									</g>									<g>										<path class="st17" d="M1332.5,1012.8c-1.5-0.9-1.7-2.2-0.4-2.9l11.6-6.7c1.3-0.8,3.6-0.7,5.1,0.2l4,2.3           c1.5,0.9,1.7,2.2,0.4,2.9l-11.6,6.7c-1.3,0.7-3.6,0.7-5.1-0.2L1332.5,1012.8z"></path>									</g>									<g>										<path class="st17" d="M1303.8,1018.5c-1.5-0.9-1.7-2.2-0.4-2.9l11.6-6.7c1.3-0.7,3.6-0.7,5.1,0.2l4,2.3           c1.5,0.9,1.7,2.2,0.4,2.9l-11.6,6.7c-1.3,0.7-3.6,0.7-5.1-0.2L1303.8,1018.5z"></path>									</g>								</g>								<g>									<g>										<path class="st17" d="M1694.2,921.6c-1.5-0.9-1.7-2.2-0.4-2.9l13.8-8c1.3-0.7,3.6-0.7,5.1,0.2l4,2.3           c1.5,0.9,1.7,2.2,0.4,2.9l-13.8,8c-1.3,0.7-3.6,0.7-5.1-0.2L1694.2,921.6z"></path>									</g>									<g>										<path class="st17" d="M1672.7,934c-1.5-0.9-1.7-2.2-0.4-2.9l13.8-8c1.3-0.8,3.6-0.7,5.1,0.2l4,2.3           c1.5,0.9,1.7,2.2,0.4,2.9l-13.8,8c-1.3,0.7-3.6,0.7-5.1-0.2L1672.7,934z"></path>									</g>									<g>										<path class="st17" d="M1651.3,946.4c-1.5-0.9-1.7-2.2-0.4-2.9l13.8-8c1.3-0.8,3.6-0.7,5.1,0.2l4,2.3           c1.5,0.9,1.7,2.2,0.4,2.9l-13.8,8c-1.3,0.8-3.6,0.7-5.1-0.2L1651.3,946.4z"></path>									</g>									<g>										<path class="st17" d="M1629.8,958.8c-1.5-0.9-1.7-2.2-0.4-2.9l13.8-8c1.3-0.7,3.6-0.7,5.1,0.2l4,2.3           c1.5,0.9,1.7,2.2,0.4,2.9l-13.8,8c-1.3,0.8-3.6,0.7-5.1-0.2L1629.8,958.8z"></path>									</g>									<g>										<path class="st17" d="M1608.3,971.2c-1.5-0.9-1.7-2.2-0.4-2.9l13.8-8c1.3-0.8,3.6-0.7,5.1,0.2l4,2.3           c1.5,0.9,1.7,2.2,0.4,2.9l-13.8,8c-1.3,0.7-3.6,0.7-5.1-0.2L1608.3,971.2z"></path>									</g>									<g>										<path class="st17" d="M1586.9,983.6c-1.5-0.9-1.7-2.2-0.4-2.9l13.8-8c1.3-0.7,3.6-0.7,5.1,0.2l4,2.3           c1.5,0.9,1.7,2.2,0.4,2.9l-13.8,8c-1.3,0.7-3.6,0.7-5.1-0.2L1586.9,983.6z"></path>									</g>									<g>										<path class="st17" d="M1565.4,996c-1.5-0.9-1.7-2.2-0.4-2.9l13.8-8c1.3-0.8,3.6-0.7,5.1,0.2l4,2.3           c1.5,0.9,1.7,2.2,0.4,2.9l-13.8,8c-1.3,0.8-3.6,0.7-5.1-0.2L1565.4,996z"></path>									</g>									<g>										<path class="st17" d="M1543.9,1008.4c-1.5-0.9-1.7-2.2-0.4-2.9l13.8-8c1.3-0.7,3.6-0.7,5.1,0.2l4,2.3           c1.5,0.9,1.7,2.2,0.4,2.9l-13.8,8c-1.3,0.7-3.6,0.7-5.1-0.2L1543.9,1008.4z"></path>									</g>									<g>										<path class="st17" d="M1522.4,1020.8c-1.5-0.9-1.7-2.2-0.4-2.9l13.8-8c1.3-0.7,3.6-0.7,5.1,0.2l4,2.3           c1.5,0.9,1.7,2.2,0.4,2.9l-13.8,8c-1.3,0.7-3.6,0.7-5.1-0.2L1522.4,1020.8z"></path>									</g>									<g>										<path class="st17" d="M1501,1033.2c-1.5-0.9-1.7-2.2-0.4-2.9l13.8-8c1.3-0.7,3.6-0.7,5.1,0.2l4,2.3           c1.5,0.9,1.7,2.2,0.4,2.9l-13.8,8c-1.3,0.7-3.6,0.7-5.1-0.2L1501,1033.2z"></path>									</g>									<g>										<path class="st17" d="M1479.5,1045.6c-1.5-0.9-1.7-2.2-0.4-2.9l13.8-8c1.3-0.7,3.6-0.7,5.1,0.2l4,2.3           c1.5,0.9,1.7,2.2,0.4,2.9l-13.8,8c-1.3,0.8-3.6,0.7-5.1-0.2L1479.5,1045.6z"></path>									</g>									<g>										<path class="st17" d="M1458,1058c-1.5-0.9-1.7-2.2-0.4-2.9l13.8-8c1.3-0.8,3.6-0.7,5.1,0.2l4,2.3c1.5,0.9,1.7,2.2,0.4,2.9           l-13.8,8c-1.3,0.7-3.6,0.7-5.1-0.2L1458,1058z"></path>									</g>									<g>										<path class="st17" d="M1436.5,1070.4c-1.5-0.9-1.7-2.2-0.4-2.9l13.8-8c1.3-0.7,3.6-0.7,5.1,0.2l4,2.3           c1.5,0.9,1.7,2.2,0.4,2.9l-13.8,8c-1.3,0.7-3.6,0.7-5.1-0.2L1436.5,1070.4z"></path>									</g>									<g>										<path class="st17" d="M1415.1,1082.8c-1.5-0.9-1.7-2.2-0.4-2.9l13.8-8c1.3-0.8,3.6-0.7,5.1,0.2l4,2.3           c1.5,0.9,1.7,2.2,0.4,2.9l-13.8,8c-1.3,0.8-3.6,0.7-5.1-0.2L1415.1,1082.8z"></path>									</g>								</g>								<g>									<g>										<path class="st17" d="M1674.2,907.5c-1.5-0.9-1.7-2.2-0.4-2.9l11.6-6.7c1.3-0.7,3.6-0.7,5.1,0.2l13.4,7.7           c1.5,0.9,1.7,2.2,0.4,2.9l-11.6,6.7c-1.3,0.8-3.6,0.7-5.1-0.2L1674.2,907.5z"></path>									</g>									<g>										<path class="st17" d="M1654.9,918.6c-1.5-0.9-1.7-2.2-0.4-2.9l11.6-6.7c1.3-0.8,3.6-0.7,5.1,0.2l13.4,7.7           c1.5,0.9,1.7,2.2,0.4,2.9l-11.6,6.7c-1.3,0.8-3.6,0.7-5.1-0.2L1654.9,918.6z"></path>									</g>									<g>										<path class="st17" d="M1635.6,929.8c-1.5-0.9-1.7-2.2-0.4-2.9l11.6-6.7c1.3-0.8,3.6-0.7,5.1,0.2l13.4,7.7           c1.5,0.9,1.7,2.2,0.4,2.9l-11.6,6.7c-1.3,0.7-3.6,0.7-5.1-0.2L1635.6,929.8z"></path>									</g>									<g>										<path class="st17" d="M1616.3,940.9c-1.5-0.9-1.7-2.2-0.4-2.9l11.6-6.7c1.3-0.7,3.6-0.7,5.1,0.2l13.4,7.7           c1.5,0.9,1.7,2.2,0.4,2.9l-11.6,6.7c-1.3,0.8-3.6,0.7-5.1-0.2L1616.3,940.9z"></path>									</g>									<g>										<path class="st17" d="M1597,952c-1.5-0.9-1.7-2.2-0.4-2.9l11.6-6.7c1.3-0.8,3.6-0.7,5.1,0.2l13.4,7.7           c1.5,0.9,1.7,2.2,0.4,2.9l-11.6,6.7c-1.3,0.8-3.6,0.7-5.1-0.2L1597,952z"></path>									</g>									<g>										<path class="st17" d="M1577.8,963.2c-1.5-0.9-1.7-2.2-0.4-2.9l11.6-6.7c1.3-0.8,3.6-0.7,5.1,0.2l13.4,7.7           c1.5,0.9,1.7,2.2,0.4,2.9l-11.6,6.7c-1.3,0.7-3.6,0.7-5.1-0.2L1577.8,963.2z"></path>									</g>									<g>										<path class="st17" d="M1558.5,974.3c-1.5-0.9-1.7-2.2-0.4-2.9l11.6-6.7c1.3-0.7,3.6-0.7,5.1,0.2l13.4,7.7           c1.5,0.9,1.7,2.2,0.4,2.9l-11.6,6.7c-1.3,0.8-3.6,0.7-5.1-0.2L1558.5,974.3z"></path>									</g>									<g>										<path class="st17" d="M1539.2,985.4c-1.5-0.9-1.7-2.2-0.4-2.9l11.6-6.7c1.3-0.8,3.6-0.7,5.1,0.2l13.4,7.7           c1.5,0.9,1.7,2.2,0.4,2.9l-11.6,6.7c-1.3,0.8-3.6,0.7-5.1-0.2L1539.2,985.4z"></path>									</g>									<g>										<path class="st17" d="M1519.9,996.5c-1.5-0.9-1.7-2.2-0.4-2.9l11.6-6.7c1.3-0.7,3.6-0.7,5.1,0.2l13.4,7.7           c1.5,0.9,1.7,2.2,0.4,2.9l-11.6,6.7c-1.3,0.7-3.6,0.7-5.1-0.2L1519.9,996.5z"></path>									</g>									<g>										<path class="st17" d="M1500.6,1007.7c-1.5-0.9-1.7-2.2-0.4-2.9l11.6-6.7c1.3-0.7,3.6-0.7,5.1,0.2l13.4,7.7           c1.5,0.9,1.7,2.2,0.4,2.9l-11.6,6.7c-1.3,0.7-3.6,0.7-5.1-0.2L1500.6,1007.7z"></path>									</g>									<g>										<path class="st17" d="M1481.4,1018.8c-1.5-0.9-1.7-2.2-0.4-2.9l11.6-6.7c1.3-0.8,3.6-0.7,5.1,0.2l13.4,7.7           c1.5,0.9,1.7,2.2,0.4,2.9l-11.6,6.7c-1.3,0.8-3.6,0.7-5.1-0.2L1481.4,1018.8z"></path>									</g>									<g>										<path class="st17" d="M1462.1,1029.9c-1.5-0.9-1.7-2.2-0.4-2.9l11.6-6.7c1.3-0.8,3.6-0.7,5.1,0.2l13.4,7.7           c1.5,0.9,1.7,2.2,0.4,2.9l-11.6,6.7c-1.3,0.7-3.6,0.7-5.1-0.2L1462.1,1029.9z"></path>									</g>									<g>										<path class="st17" d="M1442.8,1041.1c-1.5-0.9-1.7-2.2-0.4-2.9l11.6-6.7c1.3-0.8,3.6-0.7,5.1,0.2l13.4,7.7           c1.5,0.9,1.7,2.2,0.4,2.9l-11.6,6.7c-1.3,0.8-3.6,0.7-5.1-0.2L1442.8,1041.1z"></path>									</g>									<g>										<path class="st17" d="M1423.5,1052.2c-1.5-0.9-1.7-2.2-0.4-2.9l11.6-6.7c1.3-0.7,3.6-0.7,5.1,0.2l13.4,7.7           c1.5,0.9,1.7,2.2,0.4,2.9l-11.6,6.7c-1.3,0.8-3.6,0.7-5.1-0.2L1423.5,1052.2z"></path>									</g>									<g>										<path class="st17" d="M1392.8,1069.9c-1.5-0.9-1.7-2.2-0.4-2.9l23-13.3c1.3-0.8,3.6-0.7,5.1,0.2l13.4,7.7           c1.5,0.9,1.7,2.2,0.4,2.9l-23,13.3c-1.3,0.8-3.6,0.7-5.1-0.2L1392.8,1069.9z"></path>									</g>								</g>								<g>									<g>										<path class="st17" d="M1400.3,1055.4c1.5,0.9,1.7,2.2,0.4,2.9l-11.6,6.7c-1.3,0.8-3.6,0.7-5.1-0.2l-13.4-7.7           c-1.5-0.9-1.7-2.2-0.4-2.9l11.6-6.7c1.3-0.8,3.6-0.7,5.1,0.2L1400.3,1055.4z"></path>									</g>									<g>										<path class="st17" d="M1419.5,1044.3c1.5,0.9,1.7,2.2,0.4,2.9l-11.6,6.7c-1.3,0.8-3.6,0.7-5.1-0.2l-13.4-7.7           c-1.5-0.9-1.7-2.2-0.4-2.9l11.6-6.7c1.3-0.8,3.6-0.7,5.1,0.2L1419.5,1044.3z"></path>									</g>									<g>										<path class="st17" d="M1438.8,1033.1c1.5,0.9,1.7,2.2,0.4,2.9l-11.6,6.7c-1.3,0.7-3.6,0.7-5.1-0.2l-13.4-7.7           c-1.5-0.9-1.7-2.2-0.4-2.9l11.6-6.7c1.3-0.8,3.6-0.7,5.1,0.2L1438.8,1033.1z"></path>									</g>									<g>										<path class="st17" d="M1458.1,1022c1.5,0.9,1.7,2.2,0.4,2.9l-11.6,6.7c-1.3,0.7-3.6,0.7-5.1-0.2l-13.4-7.7           c-1.5-0.9-1.7-2.2-0.4-2.9l11.6-6.7c1.3-0.8,3.6-0.7,5.1,0.2L1458.1,1022z"></path>									</g>									<g>										<path class="st17" d="M1477.4,1010.9c1.5,0.9,1.7,2.2,0.4,2.9l-11.6,6.7c-1.3,0.7-3.6,0.7-5.1-0.2l-13.4-7.7           c-1.5-0.9-1.7-2.2-0.4-2.9l11.6-6.7c1.3-0.7,3.6-0.7,5.1,0.2L1477.4,1010.9z"></path>									</g>									<g>										<path class="st17" d="M1496.7,999.7c1.5,0.9,1.7,2.2,0.4,2.9l-11.6,6.7c-1.3,0.7-3.6,0.7-5.1-0.2l-13.4-7.7           c-1.5-0.9-1.7-2.2-0.4-2.9l11.6-6.7c1.3-0.7,3.6-0.7,5.1,0.2L1496.7,999.7z"></path>									</g>									<g>										<path class="st17" d="M1516,988.6c1.5,0.9,1.7,2.2,0.4,2.9l-11.6,6.7c-1.3,0.8-3.6,0.7-5.1-0.2l-13.4-7.7           c-1.5-0.9-1.7-2.2-0.4-2.9l11.6-6.7c1.3-0.7,3.6-0.7,5.1,0.2L1516,988.6z"></path>									</g>									<g>										<path class="st17" d="M1535.2,977.5c1.5,0.9,1.7,2.2,0.4,2.9l-11.6,6.7c-1.3,0.8-3.6,0.7-5.1-0.2l-13.4-7.7           c-1.5-0.9-1.7-2.2-0.4-2.9l11.6-6.7c1.3-0.7,3.6-0.7,5.1,0.2L1535.2,977.5z"></path>									</g>									<g>										<path class="st17" d="M1554.5,966.3c1.5,0.9,1.7,2.2,0.4,2.9l-11.6,6.7c-1.3,0.7-3.6,0.7-5.1-0.2l-13.4-7.7           c-1.5-0.9-1.7-2.2-0.4-2.9l11.6-6.7c1.3-0.8,3.6-0.7,5.1,0.2L1554.5,966.3z"></path>									</g>									<g>										<path class="st17" d="M1573.8,955.2c1.5,0.9,1.7,2.2,0.4,2.9l-11.6,6.7c-1.3,0.7-3.6,0.7-5.1-0.2l-13.4-7.7           c-1.5-0.9-1.7-2.2-0.4-2.9l11.6-6.7c1.3-0.8,3.6-0.7,5.1,0.2L1573.8,955.2z"></path>									</g>									<g>										<path class="st17" d="M1593.1,944.1c1.5,0.9,1.7,2.2,0.4,2.9l-11.6,6.7c-1.3,0.7-3.6,0.7-5.1-0.2l-13.4-7.7           c-1.5-0.9-1.7-2.2-0.4-2.9l11.6-6.7c1.3-0.8,3.6-0.7,5.1,0.2L1593.1,944.1z"></path>									</g>									<g>										<path class="st17" d="M1612.4,932.9c1.5,0.9,1.7,2.2,0.4,2.9l-11.6,6.7c-1.3,0.7-3.6,0.7-5.1-0.2l-13.4-7.7           c-1.5-0.9-1.7-2.2-0.4-2.9l11.6-6.7c1.3-0.7,3.6-0.7,5.1,0.2L1612.4,932.9z"></path>									</g>									<g>										<path class="st17" d="M1631.6,921.8c1.5,0.9,1.7,2.2,0.4,2.9l-11.6,6.7c-1.3,0.8-3.6,0.7-5.1-0.2l-13.4-7.7           c-1.5-0.9-1.7-2.2-0.4-2.9l11.6-6.7c1.3-0.7,3.6-0.7,5.1,0.2L1631.6,921.8z"></path>									</g>									<g>										<path class="st17" d="M1650.9,910.7c1.5,0.9,1.7,2.2,0.4,2.9l-11.6,6.7c-1.3,0.8-3.6,0.7-5.1-0.2l-13.4-7.7           c-1.5-0.9-1.7-2.2-0.4-2.9l11.6-6.7c1.3-0.7,3.6-0.7,5.1,0.2L1650.9,910.7z"></path>									</g>									<g>										<path class="st17" d="M1681.6,892.9c1.5,0.9,1.7,2.2,0.4,2.9l-23,13.3c-1.3,0.7-3.6,0.7-5.1-0.2l-13.4-7.7           c-1.5-0.9-1.7-2.2-0.4-2.9l23-13.3c1.3-0.8,3.6-0.7,5.1,0.2L1681.6,892.9z"></path>									</g>								</g>								<g>									<g>										<path class="st17" d="M1422.3,1017c1.5,0.9,1.7,2.2,0.4,2.9l-11.6,6.7c-1.3,0.8-3.6,0.7-5.1-0.2l-13.4-7.7           c-1.5-0.9-1.7-2.2-0.4-2.9l11.6-6.7c1.3-0.8,3.6-0.7,5.1,0.2L1422.3,1017z"></path>									</g>									<g>										<path class="st17" d="M1441.6,1005.8c1.5,0.9,1.7,2.2,0.4,2.9l-11.6,6.7c-1.3,0.7-3.6,0.7-5.1-0.2l-13.4-7.7           c-1.5-0.9-1.7-2.2-0.4-2.9l11.6-6.7c1.3-0.7,3.6-0.7,5.1,0.2L1441.6,1005.8z"></path>									</g>									<g>										<path class="st17" d="M1460.8,994.7c1.5,0.9,1.7,2.2,0.4,2.9l-11.6,6.7c-1.3,0.8-3.6,0.7-5.1-0.2l-13.4-7.7           c-1.5-0.9-1.7-2.2-0.4-2.9l11.6-6.7c1.3-0.7,3.6-0.7,5.1,0.2L1460.8,994.7z"></path>									</g>									<g>										<path class="st17" d="M1480.1,983.6c1.5,0.9,1.7,2.2,0.4,2.9l-11.6,6.7c-1.3,0.8-3.6,0.7-5.1-0.2l-13.4-7.7           c-1.5-0.9-1.7-2.2-0.4-2.9l11.6-6.7c1.3-0.7,3.6-0.7,5.1,0.2L1480.1,983.6z"></path>									</g>									<g>										<path class="st17" d="M1499.4,972.4c1.5,0.9,1.7,2.2,0.4,2.9l-11.6,6.7c-1.3,0.7-3.6,0.7-5.1-0.2l-13.4-7.7           c-1.5-0.9-1.7-2.2-0.4-2.9l11.6-6.7c1.3-0.8,3.6-0.7,5.1,0.2L1499.4,972.4z"></path>									</g>									<g>										<path class="st17" d="M1518.7,961.3c1.5,0.9,1.7,2.2,0.4,2.9l-11.6,6.7c-1.3,0.7-3.6,0.7-5.1-0.2L1489,963           c-1.5-0.9-1.7-2.2-0.4-2.9l11.6-6.7c1.3-0.8,3.6-0.7,5.1,0.2L1518.7,961.3z"></path>									</g>									<g>										<path class="st17" d="M1538,950.2c1.5,0.9,1.7,2.2,0.4,2.9l-11.6,6.7c-1.3,0.7-3.6,0.7-5.1-0.2l-13.4-7.7           c-1.5-0.9-1.7-2.2-0.4-2.9l11.6-6.7c1.3-0.8,3.6-0.7,5.1,0.2L1538,950.2z"></path>									</g>									<g>										<path class="st17" d="M1557.2,939.1c1.5,0.9,1.7,2.2,0.4,2.9l-11.6,6.7c-1.3,0.7-3.6,0.7-5.1-0.2l-13.4-7.7           c-1.5-0.9-1.7-2.2-0.4-2.9l11.6-6.7c1.3-0.7,3.6-0.7,5.1,0.2L1557.2,939.1z"></path>									</g>									<g>										<path class="st17" d="M1576.5,927.9c1.5,0.9,1.7,2.2,0.4,2.9l-11.6,6.7c-1.3,0.8-3.6,0.7-5.1-0.2l-13.4-7.7           c-1.5-0.9-1.7-2.2-0.4-2.9l11.6-6.7c1.3-0.7,3.6-0.7,5.1,0.2L1576.5,927.9z"></path>									</g>									<g>										<path class="st17" d="M1595.8,916.8c1.5,0.9,1.7,2.2,0.4,2.9l-11.6,6.7c-1.3,0.8-3.6,0.7-5.1-0.2l-13.4-7.7           c-1.5-0.9-1.7-2.2-0.4-2.9l11.6-6.7c1.3-0.7,3.6-0.7,5.1,0.2L1595.8,916.8z"></path>									</g>									<g>										<path class="st17" d="M1615.1,905.7c1.5,0.9,1.7,2.2,0.4,2.9l-11.6,6.7c-1.3,0.8-3.6,0.7-5.1-0.2l-13.4-7.7           c-1.5-0.9-1.7-2.2-0.4-2.9l11.6-6.7c1.3-0.7,3.6-0.7,5.1,0.2L1615.1,905.7z"></path>									</g>									<g>										<path class="st17" d="M1604.7,896.2c-1.5-0.9-1.7-2.2-0.4-2.9l36.6-21.1c1.3-0.7,3.6-0.7,5.1,0.2l13.4,7.7           c1.5,0.9,1.7,2.2,0.4,2.9l-36.6,21.1c-1.3,0.7-3.6,0.7-5.1-0.2L1604.7,896.2z"></path>									</g>									<g>										<path class="st17" d="M1389.6,1020.4c-1.5-0.9-3.8-1-5.1-0.2l-36.6,21.1c-1.3,0.8-1.1,2.1,0.4,2.9l13.4,7.7           c1.5,0.9,3.8,1,5.1,0.2l36.6-21.1c1.3-0.7,1.1-2.1-0.4-2.9L1389.6,1020.4z"></path>									</g>								</g>								<g>									<g>										<g>											<path class="st17" d="M1409.6,998.6c1.5,0.9,1.7,2.2,0.4,2.9l-11.6,6.7c-1.3,0.8-3.6,0.7-5.1-0.2l-13.4-7.7            c-1.5-0.9-1.7-2.2-0.4-2.9l11.6-6.7c1.3-0.7,3.6-0.7,5.1,0.2L1409.6,998.6z"></path>										</g>										<g>											<g>												<path class="st17" d="M1428.9,987.4c1.5,0.9,1.7,2.2,0.4,2.9l-11.6,6.7c-1.3,0.7-3.6,0.7-5.1-0.2l-13.4-7.7             c-1.5-0.9-1.7-2.2-0.4-2.9l11.6-6.7c1.3-0.8,3.6-0.7,5.1,0.2L1428.9,987.4z"></path>											</g>											<g>												<path class="st17" d="M1448.2,976.3c1.5,0.9,1.7,2.2,0.4,2.9l-11.6,6.7c-1.3,0.7-3.6,0.7-5.1-0.2l-13.4-7.7             c-1.5-0.9-1.7-2.2-0.4-2.9l11.6-6.7c1.3-0.8,3.6-0.7,5.1,0.2L1448.2,976.3z"></path>											</g>											<g>												<path class="st17" d="M1467.5,965.2c1.5,0.9,1.7,2.2,0.4,2.9l-11.6,6.7c-1.3,0.8-3.6,0.7-5.1-0.2l-13.4-7.7             c-1.5-0.9-1.7-2.2-0.4-2.9l11.6-6.7c1.3-0.7,3.6-0.7,5.1,0.2L1467.5,965.2z"></path>											</g>											<g>												<path class="st17" d="M1486.8,954c1.5,0.9,1.7,2.2,0.4,2.9l-11.6,6.7c-1.3,0.7-3.6,0.7-5.1-0.2l-13.4-7.7             c-1.5-0.9-1.7-2.2-0.4-2.9l11.6-6.7c1.3-0.8,3.6-0.7,5.1,0.2L1486.8,954z"></path>											</g>											<g>												<path class="st17" d="M1506.1,942.9c1.5,0.9,1.7,2.2,0.4,2.9l-11.6,6.7c-1.3,0.8-3.6,0.7-5.1-0.2l-13.4-7.7             c-1.5-0.9-1.7-2.2-0.4-2.9l11.6-6.7c1.3-0.7,3.6-0.7,5.1,0.2L1506.1,942.9z"></path>											</g>											<g>												<path class="st17" d="M1525.3,931.8c1.5,0.9,1.7,2.2,0.4,2.9l-11.6,6.7c-1.3,0.8-3.6,0.7-5.1-0.2l-13.4-7.7             c-1.5-0.9-1.7-2.2-0.4-2.9l11.6-6.7c1.3-0.7,3.6-0.7,5.1,0.2L1525.3,931.8z"></path>											</g>											<g>												<path class="st17" d="M1544.6,920.6c1.5,0.9,1.7,2.2,0.4,2.9l-11.6,6.7c-1.3,0.7-3.6,0.7-5.1-0.2l-13.4-7.7             c-1.5-0.9-1.7-2.2-0.4-2.9l11.6-6.7c1.3-0.8,3.6-0.7,5.1,0.2L1544.6,920.6z"></path>											</g>											<g>												<path class="st17" d="M1563.9,909.5c1.5,0.9,1.7,2.2,0.4,2.9l-11.6,6.7c-1.3,0.7-3.6,0.7-5.1-0.2l-13.4-7.7             c-1.5-0.9-1.7-2.2-0.4-2.9l11.6-6.7c1.3-0.8,3.6-0.7,5.1,0.2L1563.9,909.5z"></path>											</g>											<g>												<path class="st17" d="M1583.2,898.4c1.5,0.9,1.7,2.2,0.4,2.9l-11.6,6.7c-1.3,0.8-3.6,0.7-5.1-0.2l-13.4-7.7             c-1.5-0.9-1.7-2.2-0.4-2.9l11.6-6.7c1.3-0.8,3.6-0.7,5.1,0.2L1583.2,898.4z"></path>											</g>										</g>									</g>									<g>										<g>											<path class="st17" d="M1572.7,888.9c-1.5-0.9-1.7-2.2-0.4-2.9l46.2-26.7c1.3-0.7,3.6-0.7,5.1,0.2l13.4,7.7            c1.5,0.9,1.7,2.2,0.4,2.9l-46.2,26.7c-1.3,0.7-3.6,0.7-5.1-0.2L1572.7,888.9z"></path>										</g>										<g>											<path class="st17" d="M1377,1002c-1.5-0.9-3.8-1-5.1-0.2l-46.2,26.7c-1.3,0.7-1.1,2.1,0.4,2.9l13.4,7.7            c1.5,0.9,3.8,1,5.1,0.2l46.2-26.7c1.3-0.7,1.1-2.1-0.4-2.9L1377,1002z"></path>										</g>									</g>								</g>							</g>							<polygon class="st21" points="1342.3,918.4 1428,868.9 1484.6,901.5 1398.8,951        "></polygon>						</g>					</g>				</g>				<g>					<path class="st20" d="M1443.9,790.6c-17.9-19-120.6-164.7-126.9-178.1c-6.3-13.4-59.1-307.6-29.1-324.9      c91.1-52.6,142.6,52,140.4,107.5c-1.2,30.4-6.2,85.7-22.7,183.7c39.8,39.8,75.2,153.7,91.8,172.2      C1510.5,765.6,1456.9,804.4,1443.9,790.6z"></path>					<g>						<g>							<path class="st22" d="M1497.1,760.1l1.9,3c0,0,19.5,5.5,32.4,12.6c13,7.1,38.8,18.5,48.6,29.4c2.6,2.9-0.8,7.1-2.1,10        c-1.3,2.9-47.1,32.2-52.6,32.2c-5.5,0-30.5-10-44.7-18.8c-14.3-8.8-28.2-39.5-28.2-39.5l-2.4-2.9        C1445.7,781.2,1490.3,749.8,1497.1,760.1z"></path>							<path class="st22" d="M1580,805.1l19.6,24.8l10.6,30.6c0,0,4.9,15.5,5.6,18.8c0.7,3.4-10.5,8.2-14.2,3        c-3.8-5.2-7.3-16.6-7.3-16.6l-11-23.5c0,0-16.6-16.8-20.3-20.9C1559.1,817.3,1570.8,794.3,1580,805.1z"></path>							<path class="st22" d="M1567.3,808.4l28,30.2l13.4,32.7c0,0,6.2,16.6,7.1,20.2c0.9,3.6-10.9,9.6-15.4,4.1        c-4.4-5.5-9-17.6-9-17.6l-13.4-25c0,0-23.4-21.1-27.7-25.4C1546.1,823.4,1556.7,797.1,1567.3,808.4z"></path>							<path class="st22" d="M1551.3,817.8l30.7,31.2l16,32.7c0,0,6.6,17.7,7.6,21.6c1,3.9-11.7,10.2-16.4,4.4        c-4.7-5.8-9.6-18.8-9.6-18.8l-16-24.5c0,0-27-22.5-31.5-27C1527.5,832.9,1541.9,808.2,1551.3,817.8z"></path>							<path class="st22" d="M1533.5,827.1l28.2,29.7l15.1,28.2c0,0,6.6,17.7,7.6,21.6c1,3.9-11.7,10.2-16.4,4.4        c-4.7-5.8-9.6-18.8-9.6-18.8l-14.6-22.4c0,0-24.8-20.9-29.4-25.4C1509.9,839.9,1525.3,818.7,1533.5,827.1z"></path>						</g>						<path class="st22" d="M1452.4,789c0,0-4.6,21.4,2.1,39.3c6.7,17.9,13.8,23.4,13.8,23.4l25.8,27.2c0,0,20.9,18.4,25,21.2       c4.1,2.8,10.8-11.5,5.8-19.4c-5-8-14.3-13-14.3-13l-12.7-20.3c0,0,1.1,1.3,0-9.7c-1.1-11-6.8-32.8-19.3-41       C1466.1,788.3,1452.4,789,1452.4,789z"></path>					</g>				</g>				<g>					<path class="st0" d="M1152.7,910.3c93.4-8.8,212.8-80.9,208.5-108c-7.6-48.2-42.9-102.9-47.7-117.7c-1.4-4.5-2-11.8-2-20.1      c0.1-19.3,3.8-43.9,9.1-50.6c7.6-9.6,64.1-41.9,75.5-105.2c8.6-47.9,12.2-128.9-19.5-181.1c-31.7-52.2-66.6-52.9-85.9-41.8      c0,0-63.2,36.5-134,77.3c-33.6,19.4-59.3,36.6-78,57.6c-14.3,16-24.4,34.3-30.7,57.4c-0.1,0.4-0.2,0.8-0.3,1.2      c-17.3,74.6,8,187.6,11.9,254c3.9,66.4-16.9,85.2-20.7,141.7C1037.4,899.5,1103.6,914.9,1152.7,910.3z"></path>					<path class="st20" d="M1152.7,910.3c93.4-8.8,212.8-80.9,208.5-108c-7.6-48.2-42.9-102.9-47.7-117.7c-1.4-4.5-2-11.8-2-20.1      c-53,45.1-162,80.4-187.2,51c-27.4-31.9,19.7-157.4,19.7-157.4c29.6-99.7-27.7-128.9-65.2-137.4c-14.3,16-24.4,34.3-30.7,57.4      c-0.1,0.4-0.2,0.8-0.3,1.2c-17.3,74.6,8,187.6,11.9,254c3.9,66.4-16.9,85.2-20.7,141.7C1037.4,899.5,1103.6,914.9,1152.7,910.3      z"></path>				</g>				<g>					<path class="st22" d="M1366.6,390.3c0,0-13.7,7.4-19.9,33.3c-3.3,13.6-8.6,19.4-22.9,24.1c-23.7,7.8-78,2.1-89.3-43.4      c-8.9-35.7-14.9-58.3,20.6-80.8c33.5-21.2,42.9-45.3,57.9-68.4C1327.9,232,1403.7,312.5,1366.6,390.3z"></path>					<g>						<path class="st20" d="M1323.6,447.6l25.6,25.6c0,0,22.1-35.2,5.5-69.9c-3,4.9-5.9,11.6-8.1,20.3c-0.1,0.5-0.3,1.1-0.4,1.6       c-2.9,10.3-8.9,16-14.4,19.1c0,0,0,0-0.1,0C1328.7,446.1,1325.8,447,1323.6,447.6z"></path>						<path class="st20" d="M1323.6,447.6l-16.3,43.5c0,0-72.6-17.2-83.7-83.9c-11.1-67.2,24.8-93,56.8-104.5       c0,0-29.4,36.2-11.5,88.5C1290.4,454.1,1323.6,447.6,1323.6,447.6z"></path>					</g>				</g>				<g>					<g>						<path class="st23" d="M1330.5,413.4c6.1,8,22.1,28.2,37.8,41.2c9.3,7.7,18.5,12.8,25.6,11.4c0,0,35.3-11.4,39.7-12.6       c4.4-1.2,25.3,4.6,32.4-0.4c1.4-12.9,0.5-28.2,7.9-39.1c0,0,84.9-54,59.1-152.6c-14.1-53.9-55.6-77.3-85.5-87.4       c-23.8-8-49.7-8-73.4,0.3c-18.6,6.5-38.3,17.5-53.7,34.9c-11.7,13.3-20.9,30.2-25.1,51.5       C1280.2,338.9,1320.7,400.6,1330.5,413.4z"></path>						<path class="st23" d="M1302.9,359.7c0,0,0,0,0.1,0.1c9.5,27.7,22.5,47.1,27.5,53.6c6.1,8,22.1,28.2,37.8,41.2       c9.3,7.7,18.5,12.8,25.6,11.4c0,0,35.3-11.4,39.7-12.6c4.4-1.2,25.3,4.6,32.4-0.4c0.5-4.3,0.7-8.8,1-13.4       c0.7-9.2,1.9-18.4,6.9-25.7c0,0,84.9-54,59.1-152.6c-14.1-53.9-55.6-77.3-85.5-87.4c-23.8-8-49.7-8-73.4,0.3       c-18.6,6.5-38.3,17.5-53.7,34.9c-11.7,13.3-20.9,30.2-25.1,51.5C1288,298.9,1293.9,333.1,1302.9,359.7z"></path>						<path class="st22" d="M1358.4,420.8c16.6,9.8,38-1.9,38.3-21.1c0-0.5,0-1,0-1.6c-0.5-13.4-9.8-24.5-18-35       c-34-44.1-54.5-98.4-58.3-153.9c15.4-17.4,35.1-28.4,53.7-34.9c23.7-8.3,49.6-8.3,73.4-0.3c29.9,10.1,71.4,33.5,85.5,87.4       c25.8,98.6-59.1,152.6-59.1,152.6c-5,7.3-6.2,16.5-6.9,25.7c0,0,0,0,0,0c-0.2,2.7-0.4,5.3-0.5,7.9c0,0.4-0.1,0.8-0.1,1.2       c0,0.5-0.1,1-0.1,1.6c-0.1,1-0.2,1.9-0.3,2.8c-7.1,5.1-28-0.8-32.4,0.4c-4.4,1.2-39.7,12.6-39.7,12.6       c-7.1,1.4-16.3-3.7-25.6-11.4c-15.7-13-31.7-33.2-37.8-41.2c-5-6.5-18-25.8-27.5-53.6C1304.1,362.2,1320.5,398.4,1358.4,420.8       z"></path>					</g>					<path class="st16" d="M1295.3,330.7c0,0,1.1-11.5,10.8-16.3c9.8-4.9,30,2.1,33.7,19.1c2.8,13-7.2,19.9-11.5,23.7      c-3.9,3.5-4.7,17.4-0.6,14.7l11.1-9.1c7.7-6.3,18.9-5.8,25.9,1.2c14.7,14.6,43.8,36.5,87.7,38.1c83.6,3.2,117.5-67.1,118-68.1      c0,0,0,0,0,0c-44.3,7.5-13-19.5-37.7-98.2c-24.7-78.7-101.7-70.5-101.7-70.5s-24.2-10.8-58.4,2.7c0,0-0.1,0-0.1,0      c-14,5.5-29.6,15.1-45.9,31.2C1270.2,254.5,1295.3,330.7,1295.3,330.7z"></path>					<path class="st17" d="M1295.3,330.7c0,0,1.1-11.5,10.8-16.3c9.8-4.9,30,2.1,33.7,19.1c2.8,13-7.2,19.9-11.5,23.7      c-3.9,3.5-4.7,17.4-0.6,14.7l11.1-9.1c7.7-6.3,18.9-5.8,25.9,1.2c14.7,14.6,43.8,36.5,87.7,38.1c83.6,3.2,117.5-67.1,118-68.1      c-1,0.6-67.8,38.7-148.3,0c-81.1-39-57.1-56.1-91.8-65.4c-34.7-9.3,8.2-84.8,42.2-100.5c-14,5.5-29.6,15.1-45.9,31.2      C1270.2,254.5,1295.3,330.7,1295.3,330.7z"></path>				</g>				<g>					<path class="st0" d="M1251.5,881.1c-42.6-19.3-151.2-107.1-201.6-124.6c0,0,83.1-151.4,98.7-216.4      c21.5-89.4-44.5-140.1-67.9-121.4c-23.4,18.7-69.5,58.1-84.4,121.9c-14.9,63.8-60.5,173.1-59.1,237.4c1.4,64.2,28.7,77.1,70,87      c41.3,9.9,163.9,55.5,200.8,75.3C1225.3,949.6,1269.3,889.2,1251.5,881.1z"></path>					<g>						<path class="st22" d="M1254,886.1c0,0,59.6,2.9,92,16.4c0,0,29.2,14.1,31.8,16.3c2.6,2.2,28.1,26.4,28.1,26.4       s-0.7,9.6-16.7,7.3c-17.2-2.6-24-14.1-24-14.1l-28.4-9.5c0,0-22.5,20.4-63.6,2.1C1232.1,912.7,1245.6,885,1254,886.1z"></path>						<g>							<path class="st23" d="M1253.2,885.8l0.8,0.3c0,0,43.5,5.1,63.3,11.8c19.8,6.7,28.2,9.4,30.4,10.9c2.1,1.5,4.8,10.7,3.4,14.3        c-1.4,3.6-58.5,46.9-63.4,48.1c-4.9,1.2-32.1-6.2-40.8-10.2c-8.7-4-31.1-23.2-31.1-23.2l-0.7-0.3        C1193.1,925.9,1236.4,876.5,1253.2,885.8z"></path>							<path class="st23" d="M1347.7,908.8c4.8,3,29.8,17.7,31.1,19c1.3,1.3,23,22.2,24,23.9c1,1.7,16.2,22.1,17.5,23.9        c1.3,1.8-3.8,8.8-9.8,9c-6.1,0.2-20.6-16.6-22.9-20.3c0,0-16-10.5-22.8-20.1c0,0-25.1-9.2-30.1-12.7        C1325.5,925.2,1336.9,902.1,1347.7,908.8z"></path>							<path class="st23" d="M1335.6,921.7c4.8,3,29.9,16.9,31.3,18.2c1.3,1.3,21.7,22.7,22.7,24.4c1,1.7,19.1,24.3,20.4,26.1        c1.3,1.8-3.8,8.8-9.8,9c-6.1,0.2-20.6-16.6-22.9-20.3c0,0-16-10.5-22.8-20.1c0,0-28-13-32.9-16.5        C1312.4,936.1,1324.9,915.1,1335.6,921.7z"></path>							<path class="st23" d="M1318.8,937.2c4.8,3,29.5,19.3,30.8,20.6c1.3,1.3,21.4,23.7,22.5,25.4c1,1.7,12.3,21.6,13.5,23.4        c1.3,1.8-3.7,7.8-9.7,8c-6.1,0.2-16.7-15.1-19.1-18.8c0,0-14.2-11.7-19.6-18c0,0-27.3-15.9-32.2-19.4        C1295.8,952.1,1308,930.6,1318.8,937.2z"></path>							<path class="st23" d="M1296.8,949.5c4.7,3.1,26.7,19.1,28,20.4c1.3,1.3,19.6,19.4,20.6,21.1c1,1.7,11.8,16.7,13,18.5        c1.3,1.8-0.9,7.8-6.9,8.1c-6.1,0.2-15.9-9.8-18.2-13.6c0,0-14.9-11.5-19-15.6c0,0-24.4-13.7-29.4-17.1        C1275.8,964.8,1288.6,944.1,1296.8,949.5z"></path>						</g>					</g>				</g>				<g>					<g>						<g>							<g>								<path class="st20" d="M1429.7,873.5c0-0.1,0-0.2,0-0.3c0-0.1,0-0.2,0-0.3c0-0.1,0-0.2,0-0.3c0-0.1,0-0.2,0-0.3c0,0,0,0,0,0         c0,0,0,0,0,0c0-0.1,0-0.2,0.1-0.3c0-0.1,0-0.2,0.1-0.3c0-0.1,0.1-0.2,0.1-0.4c0-0.1,0.1-0.2,0.1-0.4c0-0.1,0.1-0.2,0.1-0.3         c0,0,0,0,0,0c0,0,0,0,0-0.1c0-0.1,0.1-0.2,0.1-0.3c0-0.1,0.1-0.2,0.1-0.3c0-0.1,0.1-0.2,0.1-0.3c0-0.1,0.1-0.2,0.1-0.3         c0-0.1,0.1-0.2,0.1-0.2c0,0,0,0,0,0c0,0,0,0,0-0.1c0-0.1,0.1-0.2,0.1-0.3c0.1-0.1,0.1-0.2,0.2-0.4c0.1-0.1,0.1-0.3,0.2-0.4         c0.1-0.1,0.2-0.3,0.2-0.4c0,0,0-0.1,0-0.1c0,0,0-0.1,0.1-0.1c0.2-0.3,0.3-0.5,0.5-0.8c0.1-0.2,0.3-0.4,0.4-0.6c0,0,0,0,0,0         c0,0,0,0,0,0c0.1-0.1,0.2-0.3,0.3-0.4c0.1-0.1,0.2-0.2,0.3-0.3c0.1-0.1,0.2-0.2,0.3-0.3c0.1-0.1,0.2-0.2,0.3-0.3         c0,0,0,0,0,0c0,0,0,0,0,0c0.1-0.1,0.1-0.1,0.2-0.2c0.1-0.1,0.2-0.2,0.3-0.3c0.1-0.1,0.2-0.2,0.3-0.3         c0.1-0.1,0.2-0.2,0.3-0.3c0,0,0.1-0.1,0.1-0.1c0,0,0,0,0,0c0,0,0.1-0.1,0.1-0.1c0.1-0.1,0.2-0.1,0.3-0.2         c0.1-0.1,0.2-0.1,0.3-0.2c0.1-0.1,0.2-0.1,0.3-0.2c0.1-0.1,0.2-0.1,0.3-0.2c0,0,0,0,0.1,0l318.9-184.1         c0.1,0,0.1-0.1,0.2-0.1c0.1,0,0.2-0.1,0.3-0.1c0.1,0,0.2-0.1,0.3-0.1c0.1,0,0.2-0.1,0.3-0.1c0.1,0,0.2-0.1,0.3-0.1         c0,0,0,0,0.1,0c0,0,0,0,0,0c0.1,0,0.1,0,0.2-0.1c0.1,0,0.2-0.1,0.3-0.1c0.1,0,0.2,0,0.3-0.1c0.1,0,0.2,0,0.3,0         c0.1,0,0.1,0,0.2,0c0,0,0,0,0,0c0,0,0,0,0.1,0c0.1,0,0.2,0,0.3,0c0.1,0,0.2,0,0.3,0c0.1,0,0.3,0,0.4,0.1c0,0,0,0,0,0         c0,0,0,0,0,0c0.2,0,0.3,0.1,0.4,0.1c0.2,0.1,0.4,0.2,0.5,0.3l5,2.9c-0.3-0.2-0.6-0.3-1-0.4c0,0,0,0,0,0         c-0.4-0.1-0.7-0.1-1.1-0.1c0,0,0,0,0,0c-0.4,0-0.8,0.1-1.2,0.3c0,0,0,0,0,0c-0.4,0.1-0.9,0.4-1.3,0.6l-318.9,184.1         c-0.5,0.3-0.9,0.6-1.3,0.9c0,0,0,0,0,0c-0.4,0.3-0.8,0.7-1.2,1.1c0,0,0,0,0,0c-0.4,0.4-0.8,0.9-1.1,1.3c0,0,0,0,0,0         c-0.3,0.5-0.7,1-1,1.5c0,0,0,0.1,0,0.1c-0.3,0.5-0.6,1-0.8,1.5c0,0,0,0,0,0c-0.2,0.5-0.4,1.1-0.6,1.6c0,0,0,0,0,0         c-0.2,0.6-0.3,1.1-0.4,1.6l0,0c-0.1,0.6-0.1,1.1-0.1,1.6l0.7,248c0,0.5,0,1,0.1,1.4c0,0,0,0,0,0c0.1,0.4,0.2,0.8,0.4,1.2         c0,0,0,0,0,0c0.1,0.2,0.3,0.4,0.4,0.6c0.3,0.4,0.6,0.8,1,1l-5-2.9c-0.4-0.2-0.7-0.6-1-1c0-0.1-0.1-0.1-0.1-0.1         c-0.1-0.1-0.2-0.3-0.3-0.5c0,0,0,0,0,0c0,0,0,0,0,0c-0.1-0.1-0.1-0.2-0.1-0.3c0-0.1-0.1-0.2-0.1-0.3c0-0.1-0.1-0.2-0.1-0.3         c0,0,0-0.1,0-0.1c0,0,0,0,0,0c0,0,0-0.1,0-0.1c0-0.1,0-0.2,0-0.3c0-0.1,0-0.2,0-0.3c0-0.1,0-0.2,0-0.3c0-0.1,0-0.2,0-0.3         c0,0,0,0,0,0l-0.7-248C1429.7,873.7,1429.7,873.6,1429.7,873.5z"></path>								<g>									<path class="st0" d="M1441.3,865.2c-3.7,2.1-6.6,7.3-6.6,11.5l0.7,248c0,4.2,3,5.9,6.7,3.8l318.9-184.1          c3.7-2.1,6.7-7.3,6.7-11.5l-0.7-248c0-4.2-3-5.9-6.7-3.8L1441.3,865.2z"></path>								</g>							</g>						</g>						<g>							<path class="st20" d="M1613.8,874.2c14.3-8.3,26-1.6,26,14.8c0,16.5-11.5,36.5-25.8,44.8c-14.3,8.3-26,1.6-26-14.8        C1588,902.5,1599.5,882.5,1613.8,874.2z"></path>						</g>					</g>				</g>			</g>		</g>		<g>			<path class="st13" d="M1979.5,834.3c3.1,6.5,71.2-38.9,74.9-39.4c0,0,0,0,0,0c0,0,0,0,0,0c0,0,0,0,0.1,0c0,0,0,0,0,0    c0.3-0.2,0.5-0.5,0.7-0.8l0,0c0-0.1,0.1-0.2,0.1-0.3l0,0c0-0.1,0-0.2,0-0.3v0c0,0,0,0,0,0v0c0-0.1,0-0.2,0-0.2l0,0l0,0l0,0    c0-0.2-0.1-0.3-0.1-0.5c0,0,0,0,0,0c-0.1-0.3-0.4-0.5-0.6-0.7c0,0-137.8-79.5-137.8-79.5c-2.3-1.3-5.2-1.3-7.5,0l-67.1,38.8    c-1.4,0.8-1.4,2.7,0,3.5L1979.5,834.3z"></path>			<g>				<g>					<g>						<g>							<path class="st0" d="M1981.1,825.2c2.1,1.2,4.7,1.2,6.9,0l68.1-39.4c0,0,0,0,0,0c0,0,0,0,0,0c0,0,0,0,0,0c0,0,0,0,0,0        c0,0,0,0,0.1,0c0,0,0,0,0,0c0.3-0.2,0.5-0.5,0.7-0.8l0,0c0,0,0,0,0,0c0-0.1,0.1-0.2,0.1-0.3l0,0c0-0.1,0-0.2,0-0.3v0        c0,0,0,0,0,0v0c0-0.1,0-0.2,0-0.2l0,0l0,0l0,0c0-0.2-0.1-0.3-0.1-0.5c0,0,0,0,0,0c0,0,0,0,0,0c-0.1-0.3-0.4-0.5-0.6-0.7v0        l-137.8-79.5c-2.3-1.3-5.2-1.3-7.5,0l-67.1,38.8c-1.4,0.8-1.4,2.7,0,3.5L1981.1,825.2z"></path>							<g>								<path class="st18" d="M1984.8,825.6c-1.2,0-2.3-0.3-3.1-0.8l-135.8-78.6c-0.9-0.5-1.4-1.3-1.4-2c0-0.8,0.5-1.5,1.4-2         l66.1-38.1c0.8-0.5,1.9-0.7,3.1-0.7c1.2,0,2.3,0.3,3.1,0.8l135.7,78.4c0.9,0.5,1.4,1.3,1.4,2c0,0.8-0.5,1.5-1.4,2.1         l-66,38.4C1987.1,825.4,1985.9,825.6,1984.8,825.6C1984.8,825.6,1984.8,825.6,1984.8,825.6z"></path>								<path class="st17" d="M1846,742.5c-1.6,0.9-1.6,2.4,0,3.4l135.8,78.6c1.6,0.9,4.2,0.9,5.8,0l66-38.4c1.6-0.9,1.6-2.4,0-3.4         l-135.7-78.4c-1.6-0.9-4.2-0.9-5.8,0L1846,742.5z"></path>								<path class="st19" d="M1917.9,704.4c-1.6-0.9-4.2-0.9-5.8,0l-66.1,38.1c-1.6,0.9-1.6,2.4,0,3.4l103.3,59.8v-83.2         L1917.9,704.4z"></path>								<path class="st24" d="M2054.1,783.2c0.1,0.7-0.3,1.3-1.2,1.9l-65.3,38c-1.6,0.9-4.1,0.9-5.7,0l-134.5-77.9         c-1.3-0.7-1.5-1.8-0.7-2.7l0,0c-1.6,0.9-1.6,2.4,0,3.3l135.4,78.4c1.6,0.9,4.1,0.9,5.7,0l65.7-38.2         C2054.7,785.2,2054.9,784.1,2054.1,783.2z"></path>								<path class="st24" d="M1917.8,705.1c-1.6-0.9-4-0.9-5.5,0l-10.6,5.7l10.5-6.1c1.6-0.9,4.1-0.9,5.7,0l65.7,38.2L1917.8,705.1         z"></path>							</g>							<g>								<path class="st20" d="M2057.7,786.6L2057.7,786.6c0-0.3,0-0.4-0.1-0.7l0,0.1l0-0.1l0,0c-0.2-1-0.3-1.3-1.1-2.5         c0.1,0.1,0.1,0.2,0.2,0.3c0,0,0,0,0,0c0,0,0,0,0,0c0.1,0.2,0.1,0.3,0.2,0.5l0,0c0,0,0,0.1,0,0.1c0,0,0,0.1,0,0.1v0         c0,0,0,0,0,0v0c0,0.5-0.3,1.1-0.8,1.4c0,0,0,0,0,0c0,0,0,0-0.1,0c0,0,0,0,0,0c0,0,0,0,0,0c0,0,0,0,0,0c0,0,0,0,0,0         c0,0-68.1,39.4-68.1,39.4c-2.1,1.2-4.7,1.2-6.9,0l-5.7-3.3c-0.7-0.3-131-75.7-131.7-76.1c-1.4-0.8-1.4-2.7,0-3.5         c-1.1,0.7-1.8,1.6-2.1,2.1c-0.2,0.4-0.3,0.7-0.4,1.1h0c0,0,0,0,0,0c-0.1,0.4-0.2,0.8-0.2,1.3c0,0,0,0,0,0c0,0.2,0,0.3,0,0.4         c0,0.1,0,0.2,0,0.3c0,0,0,0,0,0c0.2,1.5,1.1,2.9,2.5,3.6l0,0l136.2,78.8c2.6,1.5,5.9,1.5,8.5,0l67-38.9v0c0,0,0,0,0,0         c0,0,0,0,0,0c0,0,0,0,0,0c0,0,0,0,0,0c0,0,0.1-0.1,0.2-0.1c0,0,0,0-0.1,0c0.9-0.6,1.7-1.4,2-2.4l0,0         C2057.5,787.8,2057.7,787.2,2057.7,786.6L2057.7,786.6C2057.7,786.6,2057.7,786.6,2057.7,786.6z"></path>								<path class="st21" d="M2057.7,786.6L2057.7,786.6C2057.7,786.6,2057.7,786.6,2057.7,786.6L2057.7,786.6c0,0.2,0,0.3,0,0.4         c0,0,0,0,0,0v0c0,0,0,0,0,0c0,0.1,0,0.1,0,0.2c0,0,0,0,0,0c0,0,0,0.1,0,0.1c0,0,0,0,0,0l0,0c0,0.1,0,0.2-0.1,0.4         c0,0.1,0,0.2-0.1,0.3c0,0,0,0,0,0c0,0,0,0,0,0l0,0l0,0c0,0,0,0.1,0,0.1c-0.2,0.3-0.5,0.5-0.8,0.7l-68.1,39.5         c-1.4,0.8-3,1.2-4.5,1.2c-1.6,0-3.1-0.4-4.5-1.2l-137.3-79.5c-0.3-0.2-0.5-0.4-0.7-0.6c0,0,0-0.1,0-0.1c0,0,0,0,0,0         c0,0,0,0,0-0.1c0-0.1,0-0.1-0.1-0.2c0,0,0,0,0,0c0,0,0,0,0,0c0-0.1-0.1-0.2-0.1-0.3c0-0.1,0-0.1,0-0.2c0,0,0,0,0,0l0-0.1         l0,0c0,0,0-0.1,0-0.1c0,0,0-0.1,0-0.1v0c0,0,0,0,0,0c0-0.1,0-0.2,0-0.4v0c0,0,0,0,0,0v0c0-0.2,0-0.3,0-0.5c0,0,0,0,0,0l0,0         c0,0,0-0.1,0-0.1c0,0,0,0,0,0c0,0,0,0,0,0c0-0.1,0-0.2,0-0.2l0,0c0,0,0,0.1,0,0.1c0,0.9,0.5,1.7,1.2,2.1l137.6,79.7         c2.4,1.4,5.5,1.4,7.9,0l68.7-39.9c0.7-0.4,1.1-1.1,1.1-1.9c0,0,0,0,0,0l0,0v0c0,0.1,0,0.1,0,0.2c0,0,0,0.1,0,0.1         c0,0,0,0,0,0C2057.6,786.3,2057.7,786.4,2057.7,786.6z"></path>								<path class="st18" d="M1850,753.8c0,0.6,0.2,1.1,0.6,1.3c0,0,0,0,0,0l-0.8-0.4c0,0,0,0,0,0c0,0,0,0,0,0         c-0.4-0.2-0.6-0.7-0.6-1.3c0-1.2,0.8-2.6,1.8-3.4l0.8,0.4C1850.8,751.2,1850,752.6,1850,753.8z"></path>								<path class="st18" d="M1973.5,825.3c0,0.6,0.2,1.1,0.6,1.3c0,0,0,0,0,0l-0.8-0.5c-0.4-0.2-0.6-0.7-0.6-1.4         c0-1.2,0.8-2.7,1.8-3.4l0.8,0.5C1974.3,822.6,1973.5,824.1,1973.5,825.3z"></path>								<g>									<g>										<path class="st18" d="M2026.8,805.8C2026.8,805.8,2026.8,805.9,2026.8,805.8c0,0.1,0,0.1,0,0.2l0,0v0c0,0,0,0.1,0,0.1           c0,0,0,0,0,0c0,0,0,0,0,0c0,0,0,0.1,0,0.1c0,0.1-0.1,0.2-0.1,0.3c0,0,0,0,0,0.1c0,0,0,0,0,0.1c0,0,0,0,0,0           c-0.1,0.1-0.1,0.2-0.2,0.3c0,0,0,0,0,0c0,0,0,0,0,0c0,0,0,0,0,0c0,0,0,0,0,0c0,0,0,0,0,0c0,0-0.1,0.1-0.1,0.1c0,0,0,0,0,0           c0,0-0.1,0.1-0.1,0.1c0,0-0.1,0.1-0.1,0.1c0,0,0,0-0.1,0l-5.1,2.9c0,0,0,0-0.1,0c0,0,0,0-0.1,0c0,0,0,0,0,0c0,0,0,0,0,0           c0,0,0,0-0.1,0c0,0,0,0,0,0c0,0,0,0-0.1,0c0,0,0,0-0.1,0h-0.1c0,0,0,0,0,0h0c0,0,0,0,0,0c0,0,0,0,0,0c0,0,0,0,0,0           c0,0,0,0,0,0c0,0,0,0,0,0c0,0,0,0,0,0c0,0,0,0,0,0c0,0,0,0,0,0c-0.2-0.1-0.3-0.3-0.3-0.6c0-0.5,0.2-1,0.6-1.4           c0.1-0.1,0.3-0.3,0.4-0.3l3.6-2.1l1.4-0.8c0.3-0.2,0.5-0.2,0.7-0.1c0,0,0,0,0,0c0,0,0,0,0,0c0,0,0,0,0,0c0,0,0,0,0,0           c0,0,0,0,0,0c0,0,0,0,0,0c0,0.1,0.1,0.1,0.1,0.2c0,0,0,0,0,0.1c0,0,0,0,0,0c0,0,0,0.1,0,0.1           C2026.8,805.7,2026.8,805.7,2026.8,805.8C2026.8,805.8,2026.8,805.8,2026.8,805.8z"></path>										<path class="st17" d="M2025,806.4C2024.9,806.4,2024.9,806.4,2025,806.4C2024.9,806.4,2024.9,806.4,2025,806.4           C2024.9,806.4,2024.9,806.4,2025,806.4C2024.9,806.4,2024.9,806.4,2025,806.4C2024.9,806.4,2024.9,806.4,2025,806.4           c-0.1,0-0.1,0-0.1,0h0c0,0,0,0,0,0c0,0,0,0,0,0s0,0,0,0h0c0,0,0,0,0,0c0,0,0,0,0,0c0,0,0,0-0.1,0c0,0-0.1,0-0.1,0           l-2.6,1.5c0,0-0.1,0-0.1,0.1c-0.1,0-0.1,0.1-0.1,0.1c0,0-0.1,0.1-0.1,0.1c0,0,0,0,0,0.1c0,0,0,0.1-0.1,0.1           c0,0,0,0.1,0,0.1c0,0,0,0,0,0c0,0,0,0.1,0,0.1v0c0,0,0,0,0,0l0,0.1v0.1c0,0,0,0,0,0v0c0,0,0,0,0,0c0,0,0,0,0,0           c0,0.1,0,0.1,0.1,0.2c0,0,0,0,0,0c0,0,0,0,0,0c0,0,0,0,0,0l-1.3-0.7c0.1-0.1,0.3-0.3,0.4-0.3l3.6-2.1L2025,806.4           C2025,806.4,2025,806.4,2025,806.4z"></path>										<g>											<path class="st25" d="M2024.6,806.5c0.3-0.2,0.5,0,0.5,0.3c0,0.3-0.2,0.8-0.5,0.9l-2.6,1.5c-0.3,0.2-0.5,0-0.5-0.3            c0-0.3,0.2-0.8,0.5-0.9L2024.6,806.5z"></path>										</g>									</g>									<g>										<g>											<path class="st18" d="M1996.5,822.4c0.4-0.2,0.8,0,0.8,0.4c0,0.5-0.3,1.1-0.8,1.3c-0.4,0.2-0.8,0-0.8-0.4            C1995.7,823.2,1996,822.6,1996.5,822.4z"></path>										</g>										<g>											<path class="st18" d="M1998.8,821c0.4-0.2,0.8,0,0.8,0.4c0,0.5-0.3,1.1-0.8,1.3c-0.4,0.2-0.8,0-0.8-0.4            C1998,821.9,1998.4,821.3,1998.8,821z"></path>										</g>										<g>											<path class="st18" d="M2001.1,819.7c0.4-0.2,0.8,0,0.8,0.4c0,0.5-0.3,1.1-0.8,1.3c-0.4,0.2-0.8,0-0.8-0.4            C2000.4,820.5,2000.7,819.9,2001.1,819.7z"></path>										</g>										<g>											<path class="st18" d="M2003.5,818.3c0.4-0.2,0.8,0,0.8,0.4c0,0.5-0.3,1.1-0.8,1.3c-0.4,0.2-0.8,0-0.8-0.4            C2002.7,819.2,2003.1,818.6,2003.5,818.3z"></path>										</g>										<g>											<path class="st18" d="M2005.8,817c0.4-0.2,0.8,0,0.8,0.4c0,0.5-0.3,1.1-0.8,1.3c-0.4,0.2-0.8,0-0.8-0.4            C2005.1,817.8,2005.4,817.2,2005.8,817z"></path>										</g>										<g>											<path class="st18" d="M2008.2,815.6c0.4-0.2,0.8,0,0.8,0.4c0,0.5-0.3,1.1-0.8,1.3c-0.4,0.2-0.8,0-0.8-0.4            C2007.4,816.5,2007.7,815.9,2008.2,815.6z"></path>										</g>									</g>									<g>										<g>											<path class="st18" d="M2038.4,798.1c0.4-0.2,0.8,0,0.8,0.4c0,0.5-0.3,1.1-0.8,1.3c-0.4,0.2-0.8,0-0.8-0.4            C2037.6,798.9,2038,798.3,2038.4,798.1z"></path>										</g>										<g>											<path class="st18" d="M2040.7,796.7c0.4-0.2,0.8,0,0.8,0.4c0,0.5-0.3,1.1-0.8,1.3c-0.4,0.2-0.8,0-0.8-0.4            C2040,797.6,2040.3,797,2040.7,796.7z"></path>										</g>										<g>											<path class="st18" d="M2043.1,795.4c0.4-0.2,0.8,0,0.8,0.4c0,0.5-0.3,1.1-0.8,1.3c-0.4,0.2-0.8,0-0.8-0.4            C2042.3,796.2,2042.6,795.6,2043.1,795.4z"></path>										</g>										<g>											<path class="st18" d="M2045.4,794c0.4-0.2,0.8,0,0.8,0.4c0,0.5-0.3,1.1-0.8,1.3c-0.4,0.2-0.8,0-0.8-0.4            C2044.6,794.9,2045,794.3,2045.4,794z"></path>										</g>										<g>											<path class="st18" d="M2047.8,792.7c0.4-0.2,0.8,0,0.8,0.4c0,0.5-0.3,1.1-0.8,1.3c-0.4,0.2-0.8,0-0.8-0.4            C2047,793.5,2047.3,792.9,2047.8,792.7z"></path>										</g>										<g>											<path class="st18" d="M2050.1,791.3c0.4-0.2,0.8,0,0.8,0.4c0,0.5-0.3,1.1-0.8,1.3c-0.4,0.2-0.8,0-0.8-0.4            C2049.3,792.2,2049.7,791.6,2050.1,791.3z"></path>										</g>									</g>								</g>							</g>						</g>					</g>				</g>			</g>		</g>		<g>			<g>				<g>					<path class="st26" d="M338.6,2010.3c0,0,0.1,43.6,0.1,43.6c0,3.6,1.1,7.4,4.3,9.3l-29.9-17.4c-1.3-0.8-2.4-2.1-3.1-3.5      c-0.8-1.8-1.1-3.8-1.1-5.8c0,0-0.1-43.6-0.1-43.6L338.6,2010.3z"></path>					<g>						<polygon class="st27" points="378.7,1987.1 348.7,1969.7 308.6,1992.9 338.6,2010.3       "></polygon>					</g>					<g>						<path class="st28" d="M338.6,2010.3l0.1,43.6c0,9.2,6.6,13,14.6,8.3c8.1-4.7,14.6-15.9,14.6-25.2c0-8.9,1.5-18.5,4.4-28.4       l6.4-21.5L338.6,2010.3z"></path>					</g>				</g>				<g>					<path class="st26" d="M29.9,1832.2l0.1,43.6c0,2.1,0.3,4.1,1.2,5.8c0.7,1.4,1.7,2.7,3.1,3.5l-29.9-17.4      c-3.1-1.9-4.3-5.8-4.3-9.3c0,0-0.1-43.6-0.1-43.6L29.9,1832.2z"></path>					<g>						<polygon class="st27" points="70.1,1809.1 40.1,1791.7 0,1814.8 29.9,1832.2       "></polygon>					</g>					<g>						<path class="st28" d="M29.9,1832.2l0.1,43.6c0,9.2,6.6,13,14.6,8.3c8.1-4.7,14.6-15.9,14.6-25.2c0-8.9,1.5-18.5,4.4-28.4       l6.4-21.5L29.9,1832.2z"></path>					</g>				</g>				<g>					<path class="st26" d="M651.9,1825.6c-1-7.3-7-18.4-10-25.1l29.9,17.4c3.2,7.2,9.2,18.2,10.2,26.1c0.5,2.7,0.7,5.5,0.9,8.3      c0,4.4,0.1,9.7,4.3,12.2l0,0l0,0l0,0l-29.9-17.4c-1.3-0.8-2.4-2.1-3.1-3.5c-0.8-1.8-1.2-3.8-1.2-5.8      C653,1833.6,652.6,1829.5,651.9,1825.6z"></path>					<g>						<polygon class="st27" points="712,1794.7 682,1777.3 641.9,1800.5 671.8,1817.9       "></polygon>					</g>					<g>						<path class="st28" d="M712,1794.7l-40.2,23.2l6.5,14.1c3,6.4,4.6,14.3,4.6,23.2c0,9.2,6.6,13,14.6,8.3       c8.1-4.7,14.6-15.9,14.6-25.2L712,1794.7z"></path>					</g>				</g>				<g>					<path class="st26" d="M343.3,1647.5c-1-7.3-7-18.4-10-25.1l29.9,17.4c3.2,7.2,9.2,18.2,10.2,26.1c0.5,2.7,0.7,5.5,0.9,8.3      c0,4.4,0.1,9.7,4.3,12.2l0,0l0,0l0,0l-29.9-17.4c-1.3-0.8-2.4-2.1-3.1-3.5c-0.8-1.8-1.2-3.8-1.2-5.8      C344.4,1655.5,344,1651.5,343.3,1647.5z"></path>					<g>						<polygon class="st27" points="403.4,1616.6 373.4,1599.2 333.3,1622.4 363.2,1639.8       "></polygon>					</g>					<g>						<path class="st28" d="M403.4,1616.6l-40.2,23.2l6.5,14.1c3,6.4,4.6,14.3,4.6,23.2c0,9.2,6.6,13,14.6,8.3       c8.1-4.7,14.6-15.9,14.6-25.2L403.4,1616.6z"></path>					</g>				</g>				<g>					<polygon class="st29" points="0,1814.8 338.6,2010.3 712,1794.7 373.4,1599.2      "></polygon>					<polygon class="st28" points="712,1286.5 712,1794.7 338.6,2010.3 338.6,1502.1      "></polygon>					<polygon class="st14" points="0,1306.7 338.6,1502.1 712,1286.5 373.4,1091.1      "></polygon>					<polygon class="st26" points="0,1306.7 0,1814.8 338.6,2010.3 338.6,1502.1      "></polygon>					<g>						<polygon class="st30" points="688.5,1540.6 688.5,1327.2 362,1515.7 362,1729.1       "></polygon>						<g>							<g class="st31">								<path d="M573.1,1488.2l0.1,18.5c0,31.2-8.9,35.8-19.9,42.1l-52.2,30.2c-11,6.4-20-6.4-20.1-19l-0.1-18.5l17-9.9l0.1,18.5         c0,4.8,3.4,6.7,7.6,4.3l43.5-25.1c4.2-2.4,7.5-8.2,7.5-13l-0.1-18.5L573.1,1488.2z"></path>							</g>							<g>								<g>									<path class="st29" d="M575.1,1509.3c0.5,0.8,0.8,1.6,0.8,2.4l0-10.8c0-1.6-1.1-3.2-3.2-4.4l-16.2-9.4l0,10.8l16.2,9.4          C573.7,1507.8,574.5,1508.5,575.1,1509.3z"></path>									<path class="st20" d="M593.5,1501.7c-0.4,4.8-4.2,8.4-8.2,10.7c-2.4,1.2-51.8,30.7-53.1,30.2c-9.9,3.4-21,3.4-30.8-0.3          c-3.4-1.1-17.2-9.7-20.5-11.4l0,10.8c3.2,1.8,17.2,10.3,20.3,11.3c7,2.6,14.7,3.4,22,2.5c4.9-0.6,9.8-2,14-4.4          c0,0,48.1-27.9,48.1-27.9c1-0.6,2-1.3,2.9-2c2.5-2,4.6-4.7,5.2-7.8c0.4-1.1,0.1-11.2,0.2-12.6          C593.6,1501.1,593.5,1501.4,593.5,1501.7z"></path>								</g>								<g>									<path class="st0" d="M585.2,1489.1c11.1,6.4,11.2,16.8,0.1,23.3l-48.1,27.9c-11.1,6.4-29.1,6.4-40.2,0l-16.2-9.4l12.5-7.2          l16.2,9.4c4.2,2.4,11,2.4,15.2,0l48.1-27.9c4.2-2.4,4.1-6.4,0-8.8l-16.2-9.4l12.5-7.2L585.2,1489.1z"></path>								</g>							</g>						</g>					</g>					<g>						<polygon class="st30" points="688.5,1781.1 688.5,1567.8 362,1756.3 362,1969.6       "></polygon>						<g>							<g class="st31">								<path d="M573.1,1728.8l0.1,18.5c0,31.2-8.9,35.8-19.9,42.1l-52.2,30.2c-11,6.4-20-6.4-20.1-19l-0.1-18.5l17-9.9l0.1,18.5         c0,4.8,3.4,6.7,7.6,4.3L549,1770c4.2-2.4,7.5-8.2,7.5-13l-0.1-18.5L573.1,1728.8z"></path>							</g>							<g>								<g>									<path class="st29" d="M575.1,1749.8c0.5,0.8,0.8,1.6,0.8,2.4l0-10.8c0-1.6-1.1-3.2-3.2-4.4l-16.2-9.4l0,10.8l16.2,9.4          C573.7,1748.4,574.5,1749.1,575.1,1749.8z"></path>									<path class="st20" d="M593.5,1742.3c-0.4,4.8-4.2,8.4-8.2,10.7c-2.4,1.2-51.8,30.7-53.1,30.2c-9.9,3.4-21,3.4-30.8-0.3          c-3.4-1.1-17.2-9.7-20.5-11.4l0,10.8c3.2,1.8,17.2,10.3,20.3,11.3c7,2.6,14.7,3.4,22,2.5c4.9-0.6,9.8-2,14-4.4          c0,0,48.1-27.9,48.1-27.9c1-0.6,2-1.3,2.9-2c2.5-2,4.6-4.7,5.2-7.8c0.4-1.1,0.1-11.2,0.2-12.6          C593.6,1741.7,593.5,1742,593.5,1742.3z"></path>								</g>								<g>									<path class="st0" d="M585.2,1729.7c11.1,6.4,11.2,16.8,0.1,23.3l-48.1,27.9c-11.1,6.4-29.1,6.4-40.2,0l-16.2-9.4l12.5-7.2          l16.2,9.4c4.2,2.4,11,2.4,15.2,0l48.1-27.9c4.2-2.4,4.1-6.4,0-8.8l-16.2-9.4l12.5-7.2L585.2,1729.7z"></path>								</g>							</g>						</g>					</g>				</g>			</g>			<g>				<path class="st32" d="M157.1,1270.4c7.1-21.2,24.9-41.5,53.3-57.9c75.5-43.6,197.6-43.6,272.6,0c30.1,17.5,48.1,39.4,53.9,62.1     c8.7,33.9-9.6,69.7-54.8,95.8c-75.5,43.6-197.6,43.6-272.6,0C162.8,1343.2,145.3,1305.5,157.1,1270.4z"></path>				<g>					<g>						<path class="st0" d="M224.1,1275.9c0.8,16.5,11.7,30.6,24.5,40.3c19.7,14.9,44.1,22.5,68.4,26c25.2,3.4,51.1,2.5,75.8-3.4       c34.3-7.6,76.1-31.6,75.7-65.7c0,0,0,16,0,16c0.6,28.4-30.2,51.6-60.8,61.5c-42.9,14.2-94.8,13.2-136.3-5       c-19.2-8.7-38.6-22.4-45.4-43.3c-2.8-7.6-1.8-20.5-2-28.5C224,1274.5,224.1,1275.2,224.1,1275.9z"></path>						<g>							<path class="st20" d="M260.1,1223.3c-47.9,27.7-48.2,72.5-0.6,100.1c47.6,27.6,125,27.6,172.9,0        c47.9-27.6,48.1-72.5,0.6-100.1C385.4,1195.7,308,1195.7,260.1,1223.3z"></path>						</g>					</g>					<g>						<path class="st21" d="M328.2,968.7c3.6,8.9,19,9.8,26.9,6.8c4.1-1.2,8.7-5.2,8.4-8.8c0,0,1.2,306.2,1.2,306.2       c0.3,3.6-4.3,7.5-8.4,8.8c-5.8,2.1-12.3,2-18.1,0.3c-3.5-1.3-7.3-3.2-8.7-6.9c-0.2-0.7-0.4-1.3-0.4-2c0,0-1.2-306.2-1.2-306.2       C327.8,967.4,328,968.1,328.2,968.7z"></path>						<g>							<path class="st33" d="M333.1,959.5c-7,4-7,10.6-0.1,14.6c6.9,4,18.2,4,25.2,0c7-4,7-10.5,0.1-14.6        C351.3,955.5,340.1,955.5,333.1,959.5z"></path>						</g>					</g>				</g>				<g>					<path class="st0" d="M197.9,722.6c5.6-16.6,19.5-32.5,41.8-45.4c59.2-34.2,155-34.2,213.8,0c23.6,13.7,37.7,30.9,42.3,48.7      c6.8,26.6-7.5,54.7-43,75.1c-59.3,34.2-155,34.2-213.9,0C202.3,779.7,188.6,750.1,197.9,722.6z"></path>					<path class="st21" d="M197.9,742c5.6-16.6,19.5-32.5,41.8-45.4c59.2-34.2,155-34.2,213.8,0c23.6,13.7,37.7,30.9,42.3,48.7      c6.8,26.6-7.5,54.7-43,75.1c-59.3,34.2-155,34.2-213.9,0C202.3,799.2,188.6,769.6,197.9,742z"></path>					<path class="st0" d="M103.6,1001.1L103.6,1001.1l0-0.1c0,0,0-0.1,0-0.1l94.2-278.3h0c-9.3,27.6,4.4,57.1,41.1,78.5      c58.9,34.2,154.6,34.2,213.9,0c35.5-20.5,49.8-48.6,43-75.1l90.6,267.7c20,47.2-2,99.1-65.8,136c-96.9,55.9-253.5,55.9-349.8,0      C110.7,1094.7,88.4,1046.2,103.6,1001.1z"></path>				</g>			</g>		</g>	</g></g></svg>