<svg xmlns="http://www.w3.org/2000/svg" xmlns:xlink="http://www.w3.org/1999/xlink" width="1090.998" height="1019.24" viewBox="0 0 1090.998 1019.24"><defs><linearGradient id="linear-gradient" y1="0.5" x2="1" y2="0.5" gradientUnits="objectBoundingBox"><stop offset="0" stop-color="#c79317"></stop><stop offset="0.5" stop-color="#eee64a"></stop><stop offset="1" stop-color="#c79416"></stop></linearGradient><linearGradient id="linear-gradient-9" x1="0.5" y1="0.096" x2="0.5" y2="1" xlink:href="#linear-gradient"></linearGradient></defs><g id="&#x30B0;&#x30EB;&#x30FC;&#x30D7;_20891" data-name="&#x30B0;&#x30EB;&#x30FC;&#x30D7; 20891" transform="translate(3280.518 -2689.854)"><g id="&#x30B0;&#x30EB;&#x30FC;&#x30D7;_20881" data-name="&#x30B0;&#x30EB;&#x30FC;&#x30D7; 20881" transform="translate(-3280.517 2689.854)"><g id="&#x30B0;&#x30EB;&#x30FC;&#x30D7;_20697" data-name="&#x30B0;&#x30EB;&#x30FC;&#x30D7; 20697" transform="translate(0 0)"><path id="&#x30D1;&#x30B9;_36179" data-name="&#x30D1;&#x30B9; 36179" d="M3632.677,620.587c-2.7-14.714-8.1-31.339-17.3-49.339-.019-.006-.108,7.946-1.345,20.215-.628,6.135-1.557,13.341-2.917,21.143s-3.155,16.2-5.437,24.706a245.361,245.361,0,0,1-8.272,25.423,188.2,188.2,0,0,1-10.884,23.378c-5.152,9.25-10.848,17.161-16.674,23a473.7,473.7,0,0,0,2.236-168.4,63.827,63.827,0,0,0,6.451-2.62,55.855,55.855,0,0,0,23.862-20.883,58.314,58.314,0,0,0,7.747-20.36,82.1,82.1,0,0,0-.078-28.5,130.506,130.506,0,0,0-12.293-36.581,196.728,196.728,0,0,0-29.26-42.621c-.018,0,2.282,7.614,4.9,19.664a327.489,327.489,0,0,1,6.627,46.014c.607,8.738.834,17.711.57,26.469a199.635,199.635,0,0,1-2.263,25.178c-1.659,10.488-4.225,19.764-7.549,26.95a465.092,465.092,0,0,0-58.287-154.638c1.17-1.1,2.445-2.384,3.76-3.857a52.208,52.208,0,0,0,12.845-26.668,54.543,54.543,0,0,0-.792-20.312,76.759,76.759,0,0,0-10.471-24.435,122.02,122.02,0,0,0-23.89-26.909,184.294,184.294,0,0,0-40.637-25.949c-.019.007,4.724,5.715,11.355,15.114a307.288,307.288,0,0,1,22.447,37.107c3.706,7.281,7.175,14.9,10.147,22.521a187.579,187.579,0,0,1,7.259,22.445,103.407,103.407,0,0,1,3.4,23.456q-8.587-13.77-18.15-26.982a470.088,470.088,0,0,0-84.353-89.17c.726-1.44,1.486-3.086,2.218-4.925a52.189,52.189,0,0,0,2.939-29.451,54.437,54.437,0,0,0-7.692-18.811,76.762,76.762,0,0,0-18.208-19.378,121.941,121.941,0,0,0-31.68-17.111,183.9,183.9,0,0,0-47.114-10.447c-.014.013,6.409,3.745,15.871,10.3A306.187,306.187,0,0,1,3355.6,192.5c5.977,5.574,11.85,11.55,17.249,17.691a186.871,186.871,0,0,1,14.5,18.6,103.335,103.335,0,0,1,11.235,20.9q-4.214-3.3-8.5-6.51a466.666,466.666,0,0,0-120.7-65.014c.4-.6.8-1.256,1.192-1.956a22.818,22.818,0,0,0,2.445-17.436,27.958,27.958,0,0,0-6.4-11.134,56.468,56.468,0,0,0-15.139-11.47,118.616,118.616,0,0,0-26.341-10.129,206.389,206.389,0,0,0-39.173-6.183c-.01,0,5.33,2.215,13.2,6.1a258.753,258.753,0,0,1,28.128,16.085c4.973,3.3,9.856,6.837,14.344,10.475a125.8,125.8,0,0,1,12.059,11.01,56.862,56.862,0,0,1,9.65,12.959l-.619,1.793c-8.213,1.254-19.095.152-31.145-1.784-14.352-2.335-30.382-5.789-45.485-8.773-15.1-3.025-29.265-5.594-39.689-7.307s-17.085-2.694-17.085-2.714c14.673,12.03,27,21.659,37.828,29.089,10.815,7.437,20.126,12.686,28.446,16.132a66.413,66.413,0,0,0,22.209,5.429,45.691,45.691,0,0,0,17.631-2.523c10.4-3.677,18.316-10.707,23.664-16.927,1.216-1.412,2.289-2.778,3.231-4.05a458.41,458.41,0,0,1,115.94,60.338c-8.2,1.239-19.067.143-31.088-1.787-14.352-2.337-30.381-5.789-45.486-8.777-15.1-3.021-29.264-5.592-39.688-7.307s-17.085-2.694-17.085-2.714c14.671,12.032,27,21.659,37.824,29.091s20.128,12.686,28.447,16.134a66.457,66.457,0,0,0,22.211,5.427,45.623,45.623,0,0,0,17.628-2.525c10.406-3.675,18.319-10.705,23.667-16.927a69,69,0,0,0,6.332-8.611,460.135,460.135,0,0,1,104.67,106.4c-9.628-.715-21.611-4.251-34.673-8.83-15.472-5.457-32.507-12.342-48.643-18.579-16.114-6.274-31.311-11.935-42.54-15.933s-18.441-6.462-18.435-6.477c13.007,14.469,24.089,26.183,34.124,35.524s18.987,16.329,27.357,21.425a83.736,83.736,0,0,0,23.425,10.127,64.261,64.261,0,0,0,20.569,1.754,75.662,75.662,0,0,0,31.511-10.1,80.076,80.076,0,0,0,9.236-6.161,460,460,0,0,1,70.7,159.976c-8.009-4.572-16.807-13.2-26.083-23.359-10.061-11.054-20.757-23.9-31.015-35.84-10.226-11.965-20-23.034-27.3-31.075s-12.045-13.117-12.033-13.13c4.051,16.987,7.77,30.98,11.7,42.662s8.03,21.05,12.509,28.687a76,76,0,0,0,14.4,18.164,60.269,60.269,0,0,0,15.848,10.4,72.619,72.619,0,0,0,30.045,6,73.866,73.866,0,0,0,12.264-1.05,461,461,0,0,1,7.34,160.581c-4.74-7.1-8.8-16.663-12.7-27.318-5.122-14.1-10.012-30.138-14.864-45.154-2.412-7.513-4.8-14.774-7.045-21.438s-4.372-12.728-6.2-17.856c-3.671-10.256-6.127-16.777-6.111-16.782-4.13,17.388-7.141,31.861-8.78,44.258s-1.958,22.707-1.021,31.549a65.844,65.844,0,0,0,6.165,22.434,55.62,55.62,0,0,0,11.5,15.671c8.9,8.563,19.769,13.75,28.522,16.806a93.559,93.559,0,0,0,9.847,2.85,456.155,456.155,0,0,1-53.161,158.116c-.591-7.422-.127-16.156.769-25.557,1.468-15.045,3.991-31.837,6.073-47.664,2.126-15.82,3.841-30.673,4.915-41.6s1.647-17.923,1.668-17.923c-11.593,15.233-20.828,28.037-27.864,39.3s-11.9,20.946-14.94,29.633a66.608,66.608,0,0,0-4.162,23.242,50.118,50.118,0,0,0,3.845,18.568c4.562,10.995,12.467,19.431,19.341,25.161,2.144,1.787,4.184,3.305,5.98,4.543A462.948,462.948,0,0,1,3412.128,965c-.056-9.451,1.952-21.167,4.76-33.94,3.8-17.126,8.984-36.2,13.573-54.187,4.634-17.98,8.7-34.867,11.5-47.3s4.465-20.394,4.485-20.392c-14.5,16.825-26.16,31.008-35.268,43.541-9.116,12.516-15.691,23.376-20.2,33.167a87.161,87.161,0,0,0-7.887,26.391,59.816,59.816,0,0,0,1.251,21.414c3.142,12.788,10.19,22.8,16.563,29.659a77.111,77.111,0,0,0,6.194,5.98,459.005,459.005,0,0,1-172.364,91.844c5.639-10.965,15.567-23.234,27.194-36.24,13.944-15.534,30.285-32.193,45.444-48.121,15.188-15.887,29.211-31,39.366-42.274s16.553-18.556,16.57-18.543c-23.037,7.989-41.963,15.106-57.65,22.2-15.68,7.075-28.129,14.112-38.119,21.41a106.133,106.133,0,0,0-23.225,22.564,84.025,84.025,0,0,0-12.221,23.483c-5.224,15.64-5.345,31-4.1,42.579a107.075,107.075,0,0,0,2.458,14.124,457.21,457.21,0,0,1-91.607,15.065q-14.171.875-28.567.879l-20.905,54.681-20.9-54.681q-14.391,0-28.568-.879a457.229,457.229,0,0,1-91.608-15.065,106.654,106.654,0,0,0,2.46-14.124c1.245-11.577,1.122-26.939-4.1-42.579a84.16,84.16,0,0,0-12.221-23.483,106.205,106.205,0,0,0-23.227-22.564c-9.99-7.3-22.437-14.335-38.122-21.41-15.683-7.1-34.61-14.215-57.646-22.2.015-.013,6.412,7.283,16.569,18.543s24.18,26.387,39.368,42.274c15.156,15.927,31.5,32.587,45.443,48.121,11.627,13.005,21.555,25.275,27.192,36.24a459.011,459.011,0,0,1-172.364-91.844,77.105,77.105,0,0,0,6.2-5.98c6.371-6.861,13.421-16.871,16.561-29.659a59.723,59.723,0,0,0,1.25-21.414,87.193,87.193,0,0,0-7.885-26.391c-4.511-9.791-11.086-20.65-20.2-33.167-9.106-12.533-20.762-26.716-35.266-43.541.021,0,1.686,7.957,4.485,20.392s6.863,29.323,11.5,47.3c4.589,17.99,9.769,37.061,13.572,54.187,2.807,12.773,4.818,24.489,4.76,33.94a462.926,462.926,0,0,1-95.671-115.814c1.8-1.237,3.838-2.755,5.979-4.543,6.878-5.73,14.781-14.166,19.34-25.161a50.123,50.123,0,0,0,3.848-18.568,66.675,66.675,0,0,0-4.162-23.242c-3.039-8.687-7.894-18.384-14.941-29.633s-16.271-24.065-27.862-39.3c.017,0,.587,6.995,1.665,17.923s2.791,25.782,4.916,41.6c2.083,15.827,4.605,32.619,6.075,47.664.894,9.4,1.359,18.135.768,25.557A456.158,456.158,0,0,1,2613.4,683.372a93.363,93.363,0,0,0,9.847-2.85c8.754-3.056,19.623-8.243,28.524-16.806a55.743,55.743,0,0,0,11.5-15.671,65.784,65.784,0,0,0,6.163-22.434c.938-8.842.634-19.16-1.016-31.549s-4.652-26.87-8.782-44.258c.015.006-2.439,6.527-6.11,16.782-1.828,5.128-3.946,11.194-6.2,17.856s-4.634,13.925-7.043,21.438c-4.855,15.015-9.748,31.052-14.868,45.154-3.9,10.655-7.961,20.217-12.7,27.318a461.148,461.148,0,0,1,7.338-160.581,73.861,73.861,0,0,0,12.266,1.05,72.633,72.633,0,0,0,30.045-6,60.336,60.336,0,0,0,15.85-10.4,76.083,76.083,0,0,0,14.395-18.164c4.479-7.638,8.594-17.009,12.51-28.687s7.646-25.676,11.7-42.662c.01.013-4.734,5.089-12.032,13.13s-17.077,19.11-27.3,31.075c-10.257,11.941-20.955,24.786-31.013,35.84-9.277,10.155-18.073,18.787-26.085,23.359a460.026,460.026,0,0,1,70.7-159.976,79.516,79.516,0,0,0,9.236,6.161,75.657,75.657,0,0,0,31.51,10.1,64.254,64.254,0,0,0,20.568-1.754,83.762,83.762,0,0,0,23.428-10.127c8.372-5.1,17.336-12.076,27.355-21.425,10.038-9.341,21.119-21.055,34.121-35.524.007.015-7.208,2.475-18.432,6.477s-26.426,9.659-42.541,15.933c-16.134,6.237-33.168,13.122-48.639,18.579-13.064,4.58-25.05,8.115-34.675,8.83a460.128,460.128,0,0,1,104.669-106.4,69.154,69.154,0,0,0,6.334,8.611c5.347,6.222,13.261,13.252,23.663,16.927a45.654,45.654,0,0,0,17.633,2.525,66.446,66.446,0,0,0,22.208-5.427c8.318-3.448,17.63-8.7,28.446-16.134s23.155-17.059,37.826-29.091c0,.02-6.667,1-17.085,2.714s-24.589,4.286-39.688,7.307c-15.1,2.987-31.136,6.439-45.486,8.777-12.021,1.93-22.884,3.026-31.089,1.787a458.451,458.451,0,0,1,115.94-60.338c.942,1.273,2.014,2.638,3.233,4.05,5.347,6.22,13.258,13.25,23.664,16.927a45.672,45.672,0,0,0,17.629,2.523,66.368,66.368,0,0,0,22.208-5.429c8.322-3.446,17.634-8.695,28.448-16.132,10.83-7.43,23.157-17.059,37.828-29.089,0,.02-6.666,1-17.087,2.714s-24.589,4.282-39.686,7.307c-15.106,2.984-31.138,6.438-45.488,8.773-12.049,1.936-22.932,3.038-31.146,1.784l-.616-1.793a56.8,56.8,0,0,1,9.649-12.959,125.8,125.8,0,0,1,12.059-11.01c4.491-3.638,9.371-7.175,14.345-10.475a258.719,258.719,0,0,1,28.126-16.085c7.868-3.881,13.208-6.092,13.2-6.1a206.409,206.409,0,0,0-39.173,6.183,118.611,118.611,0,0,0-26.341,10.129,56.462,56.462,0,0,0-15.138,11.47,27.992,27.992,0,0,0-6.4,11.134,22.815,22.815,0,0,0,2.447,17.436q.591,1.051,1.193,1.956a466.637,466.637,0,0,0-120.7,65.014q-4.292,3.2-8.5,6.51a103.492,103.492,0,0,1,11.235-20.9,186.472,186.472,0,0,1,14.506-18.6c5.4-6.14,11.27-12.117,17.248-17.691a306.12,306.12,0,0,1,33.832-27.173c9.46-6.555,15.885-10.287,15.872-10.3a183.877,183.877,0,0,0-47.114,10.447,121.913,121.913,0,0,0-31.681,17.111,76.731,76.731,0,0,0-18.208,19.378,54.475,54.475,0,0,0-7.693,18.811,52.194,52.194,0,0,0,2.941,29.451c.732,1.839,1.492,3.485,2.22,4.925a470.043,470.043,0,0,0-84.354,89.17q-9.562,13.2-18.149,26.982a103.212,103.212,0,0,1,3.4-23.456,187.233,187.233,0,0,1,7.259-22.445c2.97-7.619,6.441-15.24,10.147-22.521a306.86,306.86,0,0,1,22.445-37.107c6.63-9.4,11.372-15.106,11.358-15.114a184.257,184.257,0,0,0-40.64,25.949,121.932,121.932,0,0,0-23.886,26.909,76.75,76.75,0,0,0-10.475,24.435,54.513,54.513,0,0,0-.789,20.312,52.18,52.18,0,0,0,12.847,26.668c1.312,1.473,2.588,2.757,3.759,3.857a465.066,465.066,0,0,0-58.287,154.638c-3.325-7.186-5.891-16.463-7.55-26.95a199.641,199.641,0,0,1-2.261-25.178c-.266-8.758-.037-17.732.57-26.469a327.168,327.168,0,0,1,6.627-46.014c2.618-12.05,4.918-19.664,4.9-19.664a196.766,196.766,0,0,0-29.259,42.621,130.6,130.6,0,0,0-12.3,36.581,82.134,82.134,0,0,0-.076,28.5,58.391,58.391,0,0,0,7.747,20.36A55.848,55.848,0,0,0,2600.2,538.1a63.808,63.808,0,0,0,6.452,2.62,473.758,473.758,0,0,0,2.235,168.4c-5.824-5.841-11.52-13.752-16.673-23a188.27,188.27,0,0,1-10.885-23.378,246.6,246.6,0,0,1-8.271-25.423c-2.278-8.509-4.078-16.9-5.436-24.706s-2.291-15.008-2.919-21.143c-1.238-12.269-1.326-20.221-1.345-20.215-9.2,18-14.6,34.625-17.3,49.339-2.7,14.731-2.724,27.569-1.031,38.486a75.329,75.329,0,0,0,9.464,27.22,60.223,60.223,0,0,0,15.216,17.159c11.181,8.528,23.488,11.742,32.879,12.931,2.956.372,5.631.544,7.909.609A466.2,466.2,0,0,0,2676,874.227c-8.857-2.324-19.062-7.032-29.605-13.516a218.267,218.267,0,0,1-22.531-16.031,285.917,285.917,0,0,1-21.419-19.2,341.405,341.405,0,0,1-32.91-37.86c-7.935-10.618-12.457-17.839-12.47-17.824a196.688,196.688,0,0,0,12.708,53.451,133.163,133.163,0,0,0,20.758,35.679A88.211,88.211,0,0,0,2614,879.175a65.277,65.277,0,0,0,58.353,4.085,76.893,76.893,0,0,0,7.365-3.4c.149.215.291.438.44.654a470.287,470.287,0,0,0,101.249,108.173c-10.208,3.688-24.572,4.914-40.92,3.831a238.793,238.793,0,0,1-31.03-4.249,326.977,326.977,0,0,1-31.993-8.175,410.206,410.206,0,0,1-54.445-21.289c-14.073-6.687-22.835-11.727-22.841-11.7,15.183,20.719,30.753,36.789,45.572,48.964,14.84,12.182,28.946,20.485,41.763,25.834,12.834,5.351,24.4,7.755,34.545,8.134a67.194,67.194,0,0,0,26.339-4.046c14.875-5.6,24.476-15.733,30.419-24.269a77.524,77.524,0,0,0,6.06-10.358q10.665,8.135,21.758,15.636a466.574,466.574,0,0,0,157.884,68.424c-12.79,6.406-30.943,11.147-51.846,13.9a362.468,362.468,0,0,1-41.527,2.9c-14.4.227-29.117-.284-43.409-1.364a577.144,577.144,0,0,1-75.012-10.789c-19.573-4.139-31.891-7.719-31.891-7.69,23.205,19.9,46.209,34.4,67.627,44.626,21.445,10.231,41.327,16.208,59.054,19.127,17.747,2.913,33.364,2.77,46.79.672a105.524,105.524,0,0,0,34.059-11.214,91.874,91.874,0,0,0,36.226-35.363,93.864,93.864,0,0,0,6.348-13.384,467.245,467.245,0,0,0,68.483,9.261c9.185.556,30.657,14.051,49.546,47.92l-1.939,5.078c.773-1.492,1.553-2.941,2.335-4.36.785,1.419,1.563,2.869,2.336,4.36l-1.942-5.078c18.889-33.869,40.362-47.365,49.546-47.92a467.209,467.209,0,0,0,68.483-9.261,93.881,93.881,0,0,0,6.35,13.384,91.858,91.858,0,0,0,36.227,35.363,105.494,105.494,0,0,0,34.057,11.214c13.43,2.1,29.043,2.241,46.792-.672,17.729-2.919,37.611-8.9,59.054-19.127,21.417-10.228,44.419-24.723,67.626-44.626,0-.03-12.32,3.55-31.89,7.69a577.118,577.118,0,0,1-75.012,10.789c-14.291,1.08-29.009,1.59-43.411,1.364a362.458,362.458,0,0,1-41.525-2.9c-20.9-2.748-39.056-7.489-51.847-13.9A466.519,466.519,0,0,0,3372.094,1007q11.086-7.491,21.76-15.636a77.331,77.331,0,0,0,6.059,10.358c5.944,8.537,15.545,18.672,30.421,24.269a67.177,67.177,0,0,0,26.337,4.046c10.149-.379,21.713-2.783,34.545-8.134,12.817-5.349,26.924-13.651,41.763-25.834,14.819-12.175,30.39-28.245,45.573-48.964-.006-.024-8.769,5.016-22.843,11.7a410.275,410.275,0,0,1-54.442,21.289,327.051,327.051,0,0,1-32,8.175,238.73,238.73,0,0,1-31.026,4.249c-16.349,1.083-30.712-.143-40.92-3.831a470.456,470.456,0,0,0,101.25-108.173c.147-.216.292-.439.439-.654a76.727,76.727,0,0,0,7.363,3.4,65.281,65.281,0,0,0,58.355-4.085A88.213,88.213,0,0,0,3588.2,858.93a133.178,133.178,0,0,0,20.76-35.679,196.651,196.651,0,0,0,12.708-53.451c-.013-.015-4.534,7.207-12.472,17.824a341.37,341.37,0,0,1-32.909,37.86,285.8,285.8,0,0,1-21.421,19.2,217.985,217.985,0,0,1-22.529,16.031c-10.543,6.484-20.75,11.192-29.6,13.516a466.174,466.174,0,0,0,65.5-157.235c2.28-.065,4.953-.238,7.911-.609,9.39-1.189,21.7-4.4,32.879-12.931a60.25,60.25,0,0,0,15.215-17.159,75.324,75.324,0,0,0,9.462-27.22C3635.4,648.156,3635.377,635.318,3632.677,620.587Z" transform="translate(-2543.867 -119.854)" fill="url(#linear-gradient)"></path><g id="&#x30B0;&#x30EB;&#x30FC;&#x30D7;_20695" data-name="&#x30B0;&#x30EB;&#x30FC;&#x30D7; 20695" transform="translate(462.248 134.807)"><path id="&#x30D1;&#x30B9;_36180" data-name="&#x30D1;&#x30B9; 36180" d="M2815.449,283.794l-4.143-2.157c-14.877-7.426-22.385-26.181-16.771-41.832,3.444-9.594,11.017-15.835,19.793-17.5a38.979,38.979,0,0,0,7.552,44.3l17.113,17.189Zm56.372,0h-22.5L2828.534,260.3c-9.131-10.283-10.711-25.893-4.738-38.008a32.421,32.421,0,0,1,3.669-5.815c.346-.429.7-.868,1.069-1.28,11.041-12.435,28.838-12.438,39.877-.006l3.409,3.952Zm7.132,0V219.146l3.6-3.959c11.038-12.433,28.979-12.433,40.023,0,.423.479.847.966,1.239,1.464a32.12,32.12,0,0,1,3.589,5.726c5.9,12.093,4.309,27.673-4.791,37.925l-20.773,23.493Zm61.589-2.157-4.143,2.157h-25.8l17.286-17.375a39.04,39.04,0,0,0,7.657-44.386c9.6,1.052,18.075,7.478,21.776,17.793C2962.925,255.478,2955.421,274.211,2940.542,281.637Z" transform="translate(-2792.673 -180.877)" fill="url(#linear-gradient)"></path><path id="&#x30D1;&#x30B9;_36181" data-name="&#x30D1;&#x30B9; 36181" d="M2929.455,261.358c0,.964-.48,1.871-1.287,1.871H2805.162a1.89,1.89,0,0,1-1.642-1.871v-7.052a1.642,1.642,0,0,1,1.642-1.613h123.006c.808,0,1.287.648,1.287,1.613Z" transform="translate(-2783.368 -140.702)" fill="url(#linear-gradient)"></path><path id="&#x30D1;&#x30B9;_36182" data-name="&#x30D1;&#x30B9; 36182" d="M2843.534,192.414l4.05,8.2,9.054,1.316-6.552,6.387,1.548,9.019-8.1-4.258-8.1,4.258,1.547-9.019-6.553-6.387,9.056-1.316Z" transform="translate(-2760.283 -192.414)" fill="url(#linear-gradient)"></path></g></g><g id="&#x30B0;&#x30EB;&#x30FC;&#x30D7;_20700" data-name="&#x30B0;&#x30EB;&#x30FC;&#x30D7; 20700" transform="translate(0 0)" style="mix-blend-mode: multiply;isolation: isolate"><path id="&#x30D1;&#x30B9;_36187" data-name="&#x30D1;&#x30B9; 36187" d="M3632.677,620.587c-2.7-14.714-8.1-31.339-17.3-49.339-.019-.006-.108,7.946-1.345,20.215-.628,6.135-1.557,13.341-2.917,21.143s-3.155,16.2-5.437,24.706a245.361,245.361,0,0,1-8.272,25.423,188.2,188.2,0,0,1-10.884,23.378c-5.152,9.25-10.848,17.161-16.674,23a473.7,473.7,0,0,0,2.236-168.4,63.827,63.827,0,0,0,6.451-2.62,55.855,55.855,0,0,0,23.862-20.883,58.314,58.314,0,0,0,7.747-20.36,82.1,82.1,0,0,0-.078-28.5,130.506,130.506,0,0,0-12.293-36.581,196.728,196.728,0,0,0-29.26-42.621c-.018,0,2.282,7.614,4.9,19.664a327.489,327.489,0,0,1,6.627,46.014c.607,8.738.834,17.711.57,26.469a199.635,199.635,0,0,1-2.263,25.178c-1.659,10.488-4.225,19.764-7.549,26.95a465.092,465.092,0,0,0-58.287-154.638c1.17-1.1,2.445-2.384,3.76-3.857a52.208,52.208,0,0,0,12.845-26.668,54.543,54.543,0,0,0-.792-20.312,76.759,76.759,0,0,0-10.471-24.435,122.02,122.02,0,0,0-23.89-26.909,184.294,184.294,0,0,0-40.637-25.949c-.019.007,4.724,5.715,11.355,15.114a307.288,307.288,0,0,1,22.447,37.107c3.706,7.281,7.175,14.9,10.147,22.521a187.579,187.579,0,0,1,7.259,22.445,103.407,103.407,0,0,1,3.4,23.456q-8.587-13.77-18.15-26.982a470.088,470.088,0,0,0-84.353-89.17c.726-1.44,1.486-3.086,2.218-4.925a52.189,52.189,0,0,0,2.939-29.451,54.437,54.437,0,0,0-7.692-18.811,76.762,76.762,0,0,0-18.208-19.378,121.941,121.941,0,0,0-31.68-17.111,183.9,183.9,0,0,0-47.114-10.447c-.014.013,6.409,3.745,15.871,10.3A306.187,306.187,0,0,1,3355.6,192.5c5.977,5.574,11.85,11.55,17.249,17.691a186.871,186.871,0,0,1,14.5,18.6,103.335,103.335,0,0,1,11.235,20.9q-4.214-3.3-8.5-6.51a466.666,466.666,0,0,0-120.7-65.014c.4-.6.8-1.256,1.192-1.956a22.818,22.818,0,0,0,2.445-17.436,27.958,27.958,0,0,0-6.4-11.134,56.468,56.468,0,0,0-15.139-11.47,118.616,118.616,0,0,0-26.341-10.129,206.389,206.389,0,0,0-39.173-6.183c-.01,0,5.33,2.215,13.2,6.1a258.753,258.753,0,0,1,28.128,16.085c4.973,3.3,9.856,6.837,14.344,10.475a125.8,125.8,0,0,1,12.059,11.01,56.862,56.862,0,0,1,9.65,12.959l-.619,1.793c-8.213,1.254-19.095.152-31.145-1.784-14.352-2.335-30.382-5.789-45.485-8.773-15.1-3.025-29.265-5.594-39.689-7.307s-17.085-2.694-17.085-2.714c14.673,12.03,27,21.659,37.828,29.089,10.815,7.437,20.126,12.686,28.446,16.132a66.413,66.413,0,0,0,22.209,5.429,45.691,45.691,0,0,0,17.631-2.523c10.4-3.677,18.316-10.707,23.664-16.927,1.216-1.412,2.289-2.778,3.231-4.05a458.41,458.41,0,0,1,115.94,60.338c-8.2,1.239-19.067.143-31.088-1.787-14.352-2.337-30.381-5.789-45.486-8.777-15.1-3.021-29.264-5.592-39.688-7.307s-17.085-2.694-17.085-2.714c14.671,12.032,27,21.659,37.824,29.091s20.128,12.686,28.447,16.134a66.457,66.457,0,0,0,22.211,5.427,45.623,45.623,0,0,0,17.628-2.525c10.406-3.675,18.319-10.705,23.667-16.927a69,69,0,0,0,6.332-8.611,460.135,460.135,0,0,1,104.67,106.4c-9.628-.715-21.611-4.251-34.673-8.83-15.472-5.457-32.507-12.342-48.643-18.579-16.114-6.274-31.311-11.935-42.54-15.933s-18.441-6.462-18.435-6.477c13.007,14.469,24.089,26.183,34.124,35.524s18.987,16.329,27.357,21.425a83.736,83.736,0,0,0,23.425,10.127,64.261,64.261,0,0,0,20.569,1.754,75.662,75.662,0,0,0,31.511-10.1,80.076,80.076,0,0,0,9.236-6.161,460,460,0,0,1,70.7,159.976c-8.009-4.572-16.807-13.2-26.083-23.359-10.061-11.054-20.757-23.9-31.015-35.84-10.226-11.965-20-23.034-27.3-31.075s-12.045-13.117-12.033-13.13c4.051,16.987,7.77,30.98,11.7,42.662s8.03,21.05,12.509,28.687a76,76,0,0,0,14.4,18.164,60.269,60.269,0,0,0,15.848,10.4,72.619,72.619,0,0,0,30.045,6,73.866,73.866,0,0,0,12.264-1.05,461,461,0,0,1,7.34,160.581c-4.74-7.1-8.8-16.663-12.7-27.318-5.122-14.1-10.012-30.138-14.864-45.154-2.412-7.513-4.8-14.774-7.045-21.438s-4.372-12.728-6.2-17.856c-3.671-10.256-6.127-16.777-6.111-16.782-4.13,17.388-7.141,31.861-8.78,44.258s-1.958,22.707-1.021,31.549a65.844,65.844,0,0,0,6.165,22.434,55.62,55.62,0,0,0,11.5,15.671c8.9,8.563,19.769,13.75,28.522,16.806a93.559,93.559,0,0,0,9.847,2.85,456.155,456.155,0,0,1-53.161,158.116c-.591-7.422-.127-16.156.769-25.557,1.468-15.045,3.991-31.837,6.073-47.664,2.126-15.82,3.841-30.673,4.915-41.6s1.647-17.923,1.668-17.923c-11.593,15.233-20.828,28.037-27.864,39.3s-11.9,20.946-14.94,29.633a66.608,66.608,0,0,0-4.162,23.242,50.118,50.118,0,0,0,3.845,18.568c4.562,10.995,12.467,19.431,19.341,25.161,2.144,1.787,4.184,3.305,5.98,4.543A462.948,462.948,0,0,1,3412.128,965c-.056-9.451,1.952-21.167,4.76-33.94,3.8-17.126,8.984-36.2,13.573-54.187,4.634-17.98,8.7-34.867,11.5-47.3s4.465-20.394,4.485-20.392c-14.5,16.825-26.16,31.008-35.268,43.541-9.116,12.516-15.691,23.376-20.2,33.167a87.161,87.161,0,0,0-7.887,26.391,59.816,59.816,0,0,0,1.251,21.414c3.142,12.788,10.19,22.8,16.563,29.659a77.111,77.111,0,0,0,6.194,5.98,459.005,459.005,0,0,1-172.364,91.844c5.639-10.965,15.567-23.234,27.194-36.24,13.944-15.534,30.285-32.193,45.444-48.121,15.188-15.887,29.211-31,39.366-42.274s16.553-18.556,16.57-18.543c-23.037,7.989-41.963,15.106-57.65,22.2-15.68,7.075-28.129,14.112-38.119,21.41a106.133,106.133,0,0,0-23.225,22.564,84.025,84.025,0,0,0-12.221,23.483c-5.224,15.64-5.345,31-4.1,42.579a107.075,107.075,0,0,0,2.458,14.124,457.21,457.21,0,0,1-91.607,15.065q-14.171.875-28.567.879l-20.905,54.681-20.9-54.681q-14.391,0-28.568-.879a457.229,457.229,0,0,1-91.608-15.065,106.654,106.654,0,0,0,2.46-14.124c1.245-11.577,1.122-26.939-4.1-42.579a84.16,84.16,0,0,0-12.221-23.483,106.205,106.205,0,0,0-23.227-22.564c-9.99-7.3-22.437-14.335-38.122-21.41-15.683-7.1-34.61-14.215-57.646-22.2.015-.013,6.412,7.283,16.569,18.543s24.18,26.387,39.368,42.274c15.156,15.927,31.5,32.587,45.443,48.121,11.627,13.005,21.555,25.275,27.192,36.24a459.011,459.011,0,0,1-172.364-91.844,77.105,77.105,0,0,0,6.2-5.98c6.371-6.861,13.421-16.871,16.561-29.659a59.723,59.723,0,0,0,1.25-21.414,87.193,87.193,0,0,0-7.885-26.391c-4.511-9.791-11.086-20.65-20.2-33.167-9.106-12.533-20.762-26.716-35.266-43.541.021,0,1.686,7.957,4.485,20.392s6.863,29.323,11.5,47.3c4.589,17.99,9.769,37.061,13.572,54.187,2.807,12.773,4.818,24.489,4.76,33.94a462.926,462.926,0,0,1-95.671-115.814c1.8-1.237,3.838-2.755,5.979-4.543,6.878-5.73,14.781-14.166,19.34-25.161a50.123,50.123,0,0,0,3.848-18.568,66.675,66.675,0,0,0-4.162-23.242c-3.039-8.687-7.894-18.384-14.941-29.633s-16.271-24.065-27.862-39.3c.017,0,.587,6.995,1.665,17.923s2.791,25.782,4.916,41.6c2.083,15.827,4.605,32.619,6.075,47.664.894,9.4,1.359,18.135.768,25.557A456.158,456.158,0,0,1,2613.4,683.372a93.363,93.363,0,0,0,9.847-2.85c8.754-3.056,19.623-8.243,28.524-16.806a55.743,55.743,0,0,0,11.5-15.671,65.784,65.784,0,0,0,6.163-22.434c.938-8.842.634-19.16-1.016-31.549s-4.652-26.87-8.782-44.258c.015.006-2.439,6.527-6.11,16.782-1.828,5.128-3.946,11.194-6.2,17.856s-4.634,13.925-7.043,21.438c-4.855,15.015-9.748,31.052-14.868,45.154-3.9,10.655-7.961,20.217-12.7,27.318a461.148,461.148,0,0,1,7.338-160.581,73.861,73.861,0,0,0,12.266,1.05,72.633,72.633,0,0,0,30.045-6,60.336,60.336,0,0,0,15.85-10.4,76.083,76.083,0,0,0,14.395-18.164c4.479-7.638,8.594-17.009,12.51-28.687s7.646-25.676,11.7-42.662c.01.013-4.734,5.089-12.032,13.13s-17.077,19.11-27.3,31.075c-10.257,11.941-20.955,24.786-31.013,35.84-9.277,10.155-18.073,18.787-26.085,23.359a460.026,460.026,0,0,1,70.7-159.976,79.516,79.516,0,0,0,9.236,6.161,75.657,75.657,0,0,0,31.51,10.1,64.254,64.254,0,0,0,20.568-1.754,83.762,83.762,0,0,0,23.428-10.127c8.372-5.1,17.336-12.076,27.355-21.425,10.038-9.341,21.119-21.055,34.121-35.524.007.015-7.208,2.475-18.432,6.477s-26.426,9.659-42.541,15.933c-16.134,6.237-33.168,13.122-48.639,18.579-13.064,4.58-25.05,8.115-34.675,8.83a460.128,460.128,0,0,1,104.669-106.4,69.154,69.154,0,0,0,6.334,8.611c5.347,6.222,13.261,13.252,23.663,16.927a45.654,45.654,0,0,0,17.633,2.525,66.446,66.446,0,0,0,22.208-5.427c8.318-3.448,17.63-8.7,28.446-16.134s23.155-17.059,37.826-29.091c0,.02-6.667,1-17.085,2.714s-24.589,4.286-39.688,7.307c-15.1,2.987-31.136,6.439-45.486,8.777-12.021,1.93-22.884,3.026-31.089,1.787a458.451,458.451,0,0,1,115.94-60.338c.942,1.273,2.014,2.638,3.233,4.05,5.347,6.22,13.258,13.25,23.664,16.927a45.672,45.672,0,0,0,17.629,2.523,66.368,66.368,0,0,0,22.208-5.429c8.322-3.446,17.634-8.695,28.448-16.132,10.83-7.43,23.157-17.059,37.828-29.089,0,.02-6.666,1-17.087,2.714s-24.589,4.282-39.686,7.307c-15.106,2.984-31.138,6.438-45.488,8.773-12.049,1.936-22.932,3.038-31.146,1.784l-.616-1.793a56.8,56.8,0,0,1,9.649-12.959,125.8,125.8,0,0,1,12.059-11.01c4.491-3.638,9.371-7.175,14.345-10.475a258.719,258.719,0,0,1,28.126-16.085c7.868-3.881,13.208-6.092,13.2-6.1a206.409,206.409,0,0,0-39.173,6.183,118.611,118.611,0,0,0-26.341,10.129,56.462,56.462,0,0,0-15.138,11.47,27.992,27.992,0,0,0-6.4,11.134,22.815,22.815,0,0,0,2.447,17.436q.591,1.051,1.193,1.956a466.637,466.637,0,0,0-120.7,65.014q-4.292,3.2-8.5,6.51a103.492,103.492,0,0,1,11.235-20.9,186.472,186.472,0,0,1,14.506-18.6c5.4-6.14,11.27-12.117,17.248-17.691a306.12,306.12,0,0,1,33.832-27.173c9.46-6.555,15.885-10.287,15.872-10.3a183.877,183.877,0,0,0-47.114,10.447,121.913,121.913,0,0,0-31.681,17.111,76.731,76.731,0,0,0-18.208,19.378,54.475,54.475,0,0,0-7.693,18.811,52.194,52.194,0,0,0,2.941,29.451c.732,1.839,1.492,3.485,2.22,4.925a470.043,470.043,0,0,0-84.354,89.17q-9.562,13.2-18.149,26.982a103.212,103.212,0,0,1,3.4-23.456,187.233,187.233,0,0,1,7.259-22.445c2.97-7.619,6.441-15.24,10.147-22.521a306.86,306.86,0,0,1,22.445-37.107c6.63-9.4,11.372-15.106,11.358-15.114a184.257,184.257,0,0,0-40.64,25.949,121.932,121.932,0,0,0-23.886,26.909,76.75,76.75,0,0,0-10.475,24.435,54.513,54.513,0,0,0-.789,20.312,52.18,52.18,0,0,0,12.847,26.668c1.312,1.473,2.588,2.757,3.759,3.857a465.066,465.066,0,0,0-58.287,154.638c-3.325-7.186-5.891-16.463-7.55-26.95a199.641,199.641,0,0,1-2.261-25.178c-.266-8.758-.037-17.732.57-26.469a327.168,327.168,0,0,1,6.627-46.014c2.618-12.05,4.918-19.664,4.9-19.664a196.766,196.766,0,0,0-29.259,42.621,130.6,130.6,0,0,0-12.3,36.581,82.134,82.134,0,0,0-.076,28.5,58.391,58.391,0,0,0,7.747,20.36A55.848,55.848,0,0,0,2600.2,538.1a63.808,63.808,0,0,0,6.452,2.62,473.758,473.758,0,0,0,2.235,168.4c-5.824-5.841-11.52-13.752-16.673-23a188.27,188.27,0,0,1-10.885-23.378,246.6,246.6,0,0,1-8.271-25.423c-2.278-8.509-4.078-16.9-5.436-24.706s-2.291-15.008-2.919-21.143c-1.238-12.269-1.326-20.221-1.345-20.215-9.2,18-14.6,34.625-17.3,49.339-2.7,14.731-2.724,27.569-1.031,38.486a75.329,75.329,0,0,0,9.464,27.22,60.223,60.223,0,0,0,15.216,17.159c11.181,8.528,23.488,11.742,32.879,12.931,2.956.372,5.631.544,7.909.609A466.2,466.2,0,0,0,2676,874.227c-8.857-2.324-19.062-7.032-29.605-13.516a218.267,218.267,0,0,1-22.531-16.031,285.917,285.917,0,0,1-21.419-19.2,341.405,341.405,0,0,1-32.91-37.86c-7.935-10.618-12.457-17.839-12.47-17.824a196.688,196.688,0,0,0,12.708,53.451,133.163,133.163,0,0,0,20.758,35.679A88.211,88.211,0,0,0,2614,879.175a65.277,65.277,0,0,0,58.353,4.085,76.893,76.893,0,0,0,7.365-3.4c.149.215.291.438.44.654a470.287,470.287,0,0,0,101.249,108.173c-10.208,3.688-24.572,4.914-40.92,3.831a238.793,238.793,0,0,1-31.03-4.249,326.977,326.977,0,0,1-31.993-8.175,410.206,410.206,0,0,1-54.445-21.289c-14.073-6.687-22.835-11.727-22.841-11.7,15.183,20.719,30.753,36.789,45.572,48.964,14.84,12.182,28.946,20.485,41.763,25.834,12.834,5.351,24.4,7.755,34.545,8.134a67.194,67.194,0,0,0,26.339-4.046c14.875-5.6,24.476-15.733,30.419-24.269a77.524,77.524,0,0,0,6.06-10.358q10.665,8.135,21.758,15.636a466.574,466.574,0,0,0,157.884,68.424c-12.79,6.406-30.943,11.147-51.846,13.9a362.468,362.468,0,0,1-41.527,2.9c-14.4.227-29.117-.284-43.409-1.364a577.144,577.144,0,0,1-75.012-10.789c-19.573-4.139-31.891-7.719-31.891-7.69,23.205,19.9,46.209,34.4,67.627,44.626,21.445,10.231,41.327,16.208,59.054,19.127,17.747,2.913,33.364,2.77,46.79.672a105.524,105.524,0,0,0,34.059-11.214,91.874,91.874,0,0,0,36.226-35.363,93.864,93.864,0,0,0,6.348-13.384,467.245,467.245,0,0,0,68.483,9.261c9.185.556,30.657,14.051,49.546,47.92l-1.939,5.078c.773-1.492,1.553-2.941,2.335-4.36.785,1.419,1.563,2.869,2.336,4.36l-1.942-5.078c18.889-33.869,40.362-47.365,49.546-47.92a467.209,467.209,0,0,0,68.483-9.261,93.881,93.881,0,0,0,6.35,13.384,91.858,91.858,0,0,0,36.227,35.363,105.494,105.494,0,0,0,34.057,11.214c13.43,2.1,29.043,2.241,46.792-.672,17.729-2.919,37.611-8.9,59.054-19.127,21.417-10.228,44.419-24.723,67.626-44.626,0-.03-12.32,3.55-31.89,7.69a577.118,577.118,0,0,1-75.012,10.789c-14.291,1.08-29.009,1.59-43.411,1.364a362.458,362.458,0,0,1-41.525-2.9c-20.9-2.748-39.056-7.489-51.847-13.9A466.519,466.519,0,0,0,3372.094,1007q11.086-7.491,21.76-15.636a77.331,77.331,0,0,0,6.059,10.358c5.944,8.537,15.545,18.672,30.421,24.269a67.177,67.177,0,0,0,26.337,4.046c10.149-.379,21.713-2.783,34.545-8.134,12.817-5.349,26.924-13.651,41.763-25.834,14.819-12.175,30.39-28.245,45.573-48.964-.006-.024-8.769,5.016-22.843,11.7a410.275,410.275,0,0,1-54.442,21.289,327.051,327.051,0,0,1-32,8.175,238.73,238.73,0,0,1-31.026,4.249c-16.349,1.083-30.712-.143-40.92-3.831a470.456,470.456,0,0,0,101.25-108.173c.147-.216.292-.439.439-.654a76.727,76.727,0,0,0,7.363,3.4,65.281,65.281,0,0,0,58.355-4.085A88.213,88.213,0,0,0,3588.2,858.93a133.178,133.178,0,0,0,20.76-35.679,196.651,196.651,0,0,0,12.708-53.451c-.013-.015-4.534,7.207-12.472,17.824a341.37,341.37,0,0,1-32.909,37.86,285.8,285.8,0,0,1-21.421,19.2,217.985,217.985,0,0,1-22.529,16.031c-10.543,6.484-20.75,11.192-29.6,13.516a466.174,466.174,0,0,0,65.5-157.235c2.28-.065,4.953-.238,7.911-.609,9.39-1.189,21.7-4.4,32.879-12.931a60.25,60.25,0,0,0,15.215-17.159,75.324,75.324,0,0,0,9.462-27.22C3635.4,648.156,3635.377,635.318,3632.677,620.587Z" transform="translate(-2543.867 -119.854)" fill="url(#linear-gradient)"></path><g id="&#x30B0;&#x30EB;&#x30FC;&#x30D7;_20698" data-name="&#x30B0;&#x30EB;&#x30FC;&#x30D7; 20698" transform="translate(462.248 134.807)"><path id="&#x30D1;&#x30B9;_36188" data-name="&#x30D1;&#x30B9; 36188" d="M2815.449,283.794l-4.143-2.157c-14.877-7.426-22.385-26.181-16.771-41.832,3.444-9.594,11.017-15.835,19.793-17.5a38.979,38.979,0,0,0,7.552,44.3l17.113,17.189Zm56.372,0h-22.5L2828.534,260.3c-9.131-10.283-10.711-25.893-4.738-38.008a32.421,32.421,0,0,1,3.669-5.815c.346-.429.7-.868,1.069-1.28,11.041-12.435,28.838-12.438,39.877-.006l3.409,3.952Zm7.132,0V219.146l3.6-3.959c11.038-12.433,28.979-12.433,40.023,0,.423.479.847.966,1.239,1.464a32.12,32.12,0,0,1,3.589,5.726c5.9,12.093,4.309,27.673-4.791,37.925l-20.773,23.493Zm61.589-2.157-4.143,2.157h-25.8l17.286-17.375a39.04,39.04,0,0,0,7.657-44.386c9.6,1.052,18.075,7.478,21.776,17.793C2962.925,255.478,2955.421,274.211,2940.542,281.637Z" transform="translate(-2792.673 -180.877)" fill="url(#linear-gradient)"></path><path id="&#x30D1;&#x30B9;_36189" data-name="&#x30D1;&#x30B9; 36189" d="M2929.455,261.358c0,.964-.48,1.871-1.287,1.871H2805.162a1.89,1.89,0,0,1-1.642-1.871v-7.052a1.642,1.642,0,0,1,1.642-1.613h123.006c.808,0,1.287.648,1.287,1.613Z" transform="translate(-2783.368 -140.702)" fill="url(#linear-gradient)"></path><path id="&#x30D1;&#x30B9;_36190" data-name="&#x30D1;&#x30B9; 36190" d="M2843.534,192.414l4.05,8.2,9.054,1.316-6.552,6.387,1.548,9.019-8.1-4.258-8.1,4.258,1.547-9.019-6.553-6.387,9.056-1.316Z" transform="translate(-2760.283 -192.414)" fill="url(#linear-gradient)"></path></g></g></g><path id="&#x30D1;&#x30B9;_36592" data-name="&#x30D1;&#x30B9; 36592" d="M213.173-107.808,185.686,116.715,58.184-46.03,39.95,102.291H8.789L36.14-119.238l127.5,162.473,18.506-151.043ZM375.1,36.975q0,29.392-20.411,49.4-20.275,20-50.075,20-31.161,0-50.892-18.914-19.867-19.05-19.867-48.17,0-29.8,20.547-49.531Q275.087-30.11,306.112-30.11q30.481,0,49.667,18.778Q375.1,7.175,375.1,36.975Zm-30.345-1.5q0-18.506-10.75-29.256Q323.257-4.936,305.84-4.936q-18.1,0-29.936,12.383Q264.065,19.966,264.065,38.88q0,19.05,11.158,30.617,11.158,11.838,28.848,11.838t29.12-12.927Q344.757,55.617,344.757,35.478Zm98.79,51.98a16.725,16.725,0,0,1-5.579,12.519,18.189,18.189,0,0,1-12.927,5.307,17.218,17.218,0,0,1-12.791-5.443,18.375,18.375,0,0,1-5.307-13.335,17.885,17.885,0,0,1,4.9-12.791,16.894,16.894,0,0,1,12.383-5.171,18.515,18.515,0,0,1,13.607,5.579A17.986,17.986,0,0,1,443.547,87.459ZM573.09-107.808l-25.854,210.1H516.075L538.527-78.824H497.16l14.152-28.984Z" transform="translate(-3010.057 3332.84)" fill="url(#linear-gradient-9)"></path><path id="&#x30D1;&#x30B9;_36593" data-name="&#x30D1;&#x30B9; 36593" d="M213.173-107.808,185.686,116.715,58.184-46.03,39.95,102.291H8.789L36.14-119.238l127.5,162.473,18.506-151.043ZM375.1,36.975q0,29.392-20.411,49.4-20.275,20-50.075,20-31.161,0-50.892-18.914-19.867-19.05-19.867-48.17,0-29.8,20.547-49.531Q275.087-30.11,306.112-30.11q30.481,0,49.667,18.778Q375.1,7.175,375.1,36.975Zm-30.345-1.5q0-18.506-10.75-29.256Q323.257-4.936,305.84-4.936q-18.1,0-29.936,12.383Q264.065,19.966,264.065,38.88q0,19.05,11.158,30.617,11.158,11.838,28.848,11.838t29.12-12.927Q344.757,55.617,344.757,35.478Zm98.79,51.98a16.725,16.725,0,0,1-5.579,12.519,18.189,18.189,0,0,1-12.927,5.307,17.218,17.218,0,0,1-12.791-5.443,18.375,18.375,0,0,1-5.307-13.335,17.885,17.885,0,0,1,4.9-12.791,16.894,16.894,0,0,1,12.383-5.171,18.515,18.515,0,0,1,13.607,5.579A17.986,17.986,0,0,1,443.547,87.459ZM573.09-107.808l-25.854,210.1H516.075L538.527-78.824H497.16l14.152-28.984Z" transform="translate(-3010.057 3332.84)" fill="#191722"></path><path id="&#x30D1;&#x30B9;_36601" data-name="&#x30D1;&#x30B9; 36601" d="M63.756,1.617c-.924-1.925-2.31-5.313-3.773-9.24L43.043-52.976a52.136,52.136,0,0,1-2.618-8.008H23.87a59.12,59.12,0,0,1-2.464,8.008L4.62-7.623A71.575,71.575,0,0,1,.693,1.617H15.939a38.448,38.448,0,0,1,2.079-8.162l2.618-7.469H43.89l2.618,7.469a55.068,55.068,0,0,1,2,8.162Zm-23.1-26.488H23.87l7.238-21.791c.539-1.54.616-1.925,1.078-3.542.616,2.079.924,2.849,1.155,3.542Zm32.8-36.113a64.287,64.287,0,0,1,.616,10.626V-9.009a66.09,66.09,0,0,1-.616,10.626H87.626A64.882,64.882,0,0,1,87.01-9.009V-50.358a63.7,63.7,0,0,1,.616-10.626Zm71.687,3.619a49.31,49.31,0,0,1,7.161,10.4l6.7-3.388a43.6,43.6,0,0,0-7.084-10.164Zm9.471-4.081a55.582,55.582,0,0,1,7.007,10.087l6.622-3.465a45.4,45.4,0,0,0-7.084-9.779ZM150-43.505a50.357,50.357,0,0,1,5.39,9.856,74.215,74.215,0,0,1,5.7,17.4l10.626-5.159a77.551,77.551,0,0,0-12.243-26.565Zm-48.51,9.471c2.233-.616,7.469-1.54,12.936-2.31-3.234,12.859-9.779,28.336-15.015,35.189l10.7,5.775c.462-1,.539-1.155,1.232-2.618,7.161-14.938,11.4-26.642,14.091-39.193a37.752,37.752,0,0,1,3.85-.231c2.772,0,4,.308,5,1.309,1.386,1.232,1.925,3.234,1.925,6.93,0,5.852-.924,13.86-2.079,17.556-.924,3.08-2.079,4.312-4,4.312-2.541,0-7.007-1.232-10.934-2.926A35,35,0,0,1,120.2-2a30.462,30.462,0,0,1-.154,3.465c5.236,1.54,8.47,2.156,11.781,2.156,4.235,0,6.7-.924,9.009-3.465,3.927-4.235,6.237-14.938,6.237-28.721,0-7.238-1-11.011-3.619-14.168-2.541-3-6.545-4.466-12.012-4.466-1.155,0-2.233.077-4.081.154.231-.924.231-1,.539-2.618,1.078-6.314,1.694-9.625,1.771-9.933a18.939,18.939,0,0,1,.539-2.233l-11.935-1.155a7.615,7.615,0,0,1,.077,1.155c0,2.926-.539,7.469-1.925,15.554-3.927.616-13.167,1.463-15.477,1.463h-.462ZM224.84-53.515a81.781,81.781,0,0,1-14.476,2.772v-3.773a53.8,53.8,0,0,1,.462-8.932h-11.4a58.931,58.931,0,0,1,.462,9.548v3.85a7.555,7.555,0,0,1-1.54.077c-2.849.077-3.08.077-3.773.077a51.179,51.179,0,0,1-9.7-.693l.077,10.241c.847-.077,1.54-.077,1.925-.077h1.309c4,.154,4.158.154,4.851.154,1,0,3.08-.077,6.93-.154v10.549c-5.082,2.233-8.547,4.235-11.319,6.622-4.389,3.85-6.853,8.239-6.853,12.166,0,4.081,2.233,7.777,6.468,10.626a25.577,25.577,0,0,0,13.706,4.389c3.08,0,5.775-1.155,7.084-3.157,1.078-1.54,1.309-3.157,1.309-8.932V-22.638a43.565,43.565,0,0,1,13.321-2.079c8.085,0,13.09,3.85,13.09,9.933,0,4.389-2.849,7.546-6.7,7.546-3.542,0-5.082-2.387-5.082-7.931a23.188,23.188,0,0,1,.385-4.235,37.977,37.977,0,0,1-10.164,4.158,14.437,14.437,0,0,0-.077,1.617c0,11.088,5.159,17.248,14.476,17.248,10.549,0,18.326-7.777,18.326-18.4a18.436,18.436,0,0,0-7.777-15.246c-4.158-2.772-9.548-4.158-16.324-4.158a51.736,51.736,0,0,0-13.552,1.617v-8.393c3.542-.385,5.621-.693,9.471-1.309a48.88,48.88,0,0,1,5.467-.847ZM199.969-9.856c0,2.541-.308,3.157-1.463,3.157a8.747,8.747,0,0,1-4.235-1.463c-1.463-.924-2.156-1.925-2.156-3,0-2.541,3.157-5.775,7.854-8.085ZM251.4-42.273a65.869,65.869,0,0,0-15.4-16.555l-8.47,6.006A67.63,67.63,0,0,1,242.858-35.5Zm11.858-.924c6.622-.924,16.632-1.463,34.958-2v4.7a11.355,11.355,0,0,1,.077,1.232,13.971,13.971,0,0,0-7.238-1.694c-9.548,0-16.324,6.006-16.324,14.4a12.641,12.641,0,0,0,5.159,10.549,15.158,15.158,0,0,0,9.24,3.08c4.851,0,8.162-1.309,10.857-4.312a10.9,10.9,0,0,1-4.158,6.314c-3.85,3.311-9.24,5.39-17.4,6.776C281.589-.693,282.59,1,284.823,6.237c6.853-2.079,10.78-3.773,14.63-6.314,8.085-5.236,12.166-12.4,12.166-21.252a23.434,23.434,0,0,0-2.849-11.627v-1.771l.077-6.314v-2.541l-.077-1.771c3.927-.077,4.543-.077,8.624-.077,8.239,0,10.087.077,13.4.308l-.077-10.626c-3.08.308-9.009.462-22.022.539a59.228,59.228,0,0,1,.462-8.547H297.528c.385,2.618.385,3,.539,8.778-21.714.616-29.414.847-31.108.847a39.04,39.04,0,0,1-4-.154Zm28.952,10.626c3.619,0,6.006,1.925,6.006,4.7,0,3.234-2.926,5.775-6.7,5.775-3.388,0-5.852-2.156-5.852-5.082C285.67-30.261,288.442-32.571,292.215-32.571Zm51.9-10.626c6.622-.924,16.632-1.463,34.958-2v4.7a11.355,11.355,0,0,1,.077,1.232,13.971,13.971,0,0,0-7.238-1.694c-9.548,0-16.324,6.006-16.324,14.4a12.641,12.641,0,0,0,5.159,10.549,15.158,15.158,0,0,0,9.24,3.08c4.851,0,8.162-1.309,10.857-4.312a10.9,10.9,0,0,1-4.158,6.314c-3.85,3.311-9.24,5.39-17.4,6.776C362.439-.693,363.44,1,365.673,6.237c6.853-2.079,10.78-3.773,14.63-6.314,8.085-5.236,12.166-12.4,12.166-21.252a23.434,23.434,0,0,0-2.849-11.627v-1.771l.077-6.314v-2.541l-.077-1.771c3.927-.077,4.543-.077,8.624-.077,8.239,0,10.087.077,13.4.308l-.077-10.626c-3.08.308-9.009.462-22.022.539a59.228,59.228,0,0,1,.462-8.547H378.378c.385,2.618.385,3,.539,8.778-21.714.616-29.414.847-31.108.847a39.04,39.04,0,0,1-4-.154Zm28.952,10.626c3.619,0,6.006,1.925,6.006,4.7,0,3.234-2.926,5.775-6.7,5.775-3.388,0-5.852-2.156-5.852-5.082C366.52-30.261,369.292-32.571,373.065-32.571ZM431.277-58.6a20.612,20.612,0,0,1,.847,2.695c1.463,7.007,2.31,10.934,2.618,11.935-8.008,6.237-12.32,14.63-12.32,24.1,0,11.088,5.775,18.557,14.4,18.557,5.929,0,11.55-3.7,17.479-11.55,5.313-6.93,9.933-16.555,13.552-27.8,7.238,2.464,10.78,7.007,10.78,13.937,0,11.781-8.932,18.634-25.872,19.789,3.542,4.62,4.389,6.314,5.7,11.011A66.14,66.14,0,0,0,471.7.308c11.627-4.851,18.326-14.322,18.326-26.1a23.707,23.707,0,0,0-9.086-19.327,28.387,28.387,0,0,0-10.4-4.928c.385-1.155,1.463-5.082,2.387-8.7a15.57,15.57,0,0,1,.77-2.233l-11.473-2.233c-.154,2.772-.539,5.159-2.156,11.7a18.272,18.272,0,0,0-1.848-.077,35.432,35.432,0,0,0-14.091,2.849,74.712,74.712,0,0,1-1.771-11.935Zm6.314,25.8a78.613,78.613,0,0,0,5.852,16.4c-2.156,2.695-4.158,4.081-6.083,4.081-2.926,0-4.774-3.234-4.774-8.239A18.654,18.654,0,0,1,437.591-32.8Zm8.47-6.391a22.039,22.039,0,0,1,11.319-2.772,76.132,76.132,0,0,1-6.93,16.324A98.456,98.456,0,0,1,446.061-39.193Zm57.442-4c6.622-.924,16.632-1.463,34.958-2v4.7a11.36,11.36,0,0,1,.077,1.232,13.971,13.971,0,0,0-7.238-1.694c-9.548,0-16.324,6.006-16.324,14.4a12.641,12.641,0,0,0,5.159,10.549,15.158,15.158,0,0,0,9.24,3.08c4.851,0,8.162-1.309,10.857-4.312a10.9,10.9,0,0,1-4.158,6.314c-3.85,3.311-9.24,5.39-17.4,6.776C521.829-.693,522.83,1,525.063,6.237c6.853-2.079,10.78-3.773,14.63-6.314,8.085-5.236,12.166-12.4,12.166-21.252a23.435,23.435,0,0,0-2.849-11.627v-1.771l.077-6.314v-2.541l-.077-1.771c3.927-.077,4.543-.077,8.624-.077,8.239,0,10.087.077,13.4.308l-.077-10.626c-3.08.308-9.009.462-22.022.539a59.242,59.242,0,0,1,.462-8.547H537.768c.385,2.618.385,3,.539,8.778-21.714.616-29.414.847-31.108.847a39.04,39.04,0,0,1-4-.154Zm28.952,10.626c3.619,0,6.006,1.925,6.006,4.7,0,3.234-2.926,5.775-6.7,5.775-3.388,0-5.852-2.156-5.852-5.082C525.91-30.261,528.682-32.571,532.455-32.571ZM594.825-49.2c2.31-.308,3-.308,5.467-.462,11.319-.539,12.628-.616,18.942-1.155-10.857,10.857-26.95,23.639-34.188,27.1l6.16,9.933c9.548-8.547,20.1-12.936,31.416-12.936,8.855,0,14.553,3.619,14.553,9.24,0,4.851-2.233,7.777-7.7,10.01a19.644,19.644,0,0,0-3.542-6.622,17.083,17.083,0,0,0-13.552-6.237c-8.162,0-14.168,5-14.168,11.627a11.529,11.529,0,0,0,4.7,9.394c3.234,2.464,8.932,3.85,15.631,3.85,7.392,0,14.168-1.617,19.327-4.62,6.93-4,10.549-10.01,10.549-17.479,0-5.39-1.848-9.625-5.621-12.782-4.158-3.465-9.548-5.236-16.093-5.236A42.3,42.3,0,0,0,614-33.726c6.237-4.389,8.7-6.391,16.709-13.552,6.006-5.313,6.083-5.313,7.7-6.237l-5.467-8.008c-1.309.616-2.233.77-5.236,1-7.161.539-16.709.924-23.331.924a68.733,68.733,0,0,1-10.01-.539ZM619.619-4.7a11.223,11.223,0,0,1-3.234.385c-5.005,0-7.931-1.54-7.931-4.235,0-1.848,1.54-3.08,3.85-3.08C615.923-11.627,618.464-9.24,619.619-4.7Z" transform="translate(-3063.019 3061.09)" fill="#191722"></path><path id="&#x30D1;&#x30B9;_36602" data-name="&#x30D1;&#x30B9; 36602" d="M34.188-41.2v12.859H23.177a82.479,82.479,0,0,1-9.7-.385v10.01a92.1,92.1,0,0,1,9.856-.462H34.188V-4.851h-18.4a103.841,103.841,0,0,1-11.4-.539V5a114.786,114.786,0,0,1,11.7-.539H62.139A105.78,105.78,0,0,1,73.381,5V-5.39a99.75,99.75,0,0,1-11.473.539H44.583V-19.173H57.057c3.773,0,6.93.154,10.087.462V-28.8a97.266,97.266,0,0,1-10.164.462h-12.4V-41.2H59.752c3.927,0,7.084.154,10.857.462V-50.82c-3.311.308-7.084.462-11.165.462H44.583v-4.7a64.1,64.1,0,0,1,.462-9.7h-11.4a65.937,65.937,0,0,1,.539,9.779v4.62H23.254c.616-1.848,1.232-3.7,1.617-5.005.616-1.925.616-2,.847-2.618.539-1.463.539-1.463.693-2L16.093-62.524a37.709,37.709,0,0,1-1.54,7.161A52.176,52.176,0,0,1,2-33.341a28.865,28.865,0,0,1,6.93,8.162A66.947,66.947,0,0,0,19.4-41.2Zm106.953-.154c-.693,4.774-2.695,10.087-6.237,16.709-1.463-5.544-2.31-11.858-2.926-21.021h12.705a88.074,88.074,0,0,1,9.7.462v-9.933a53.073,53.073,0,0,1-8.085.385h-2l4.389-2.926a52.9,52.9,0,0,0-7.546-7.469l-7.161,4.466a30.791,30.791,0,0,1,6.237,5.929H131.67c-.077-1.54-.077-3.542-.077-3.7a49.4,49.4,0,0,1,.462-6.314h-10.78c.308,1.694.308,1.694.539,10.01h-22.1c-4.081,0-7.315-.154-10.164-.385a89.236,89.236,0,0,1,.462,11.55c0,13.321-.847,24.1-2.464,30.646a31.765,31.765,0,0,1-5,11.55A38.867,38.867,0,0,1,90.4,6.622c3.85-5.775,5.929-11.4,7.392-20.1a35.667,35.667,0,0,1,2.233,9.086c1.848.077,3.08.077,3.619.077a36.772,36.772,0,0,0,5.082-.308c3-.308,4.312-.77,5.7-2.079,2.156-2.156,3.08-6.083,3.542-15.092.616-13.167.616-13.167.847-14.861a45.945,45.945,0,0,1-5.313.231H99.715c.077-3.311.077-4.851.077-9.24H122.2c.924,14.245,2.387,22.253,5.775,30.723A54.779,54.779,0,0,1,109.263-2.387,37.114,37.114,0,0,1,116.039,5.7,74.3,74.3,0,0,0,132.363-6.391c4.928,7.315,10.164,11.55,14.476,11.55,2.464,0,4.235-1.386,5.775-4.466,1.463-2.926,2.156-5.313,3.234-11.165a32.765,32.765,0,0,1-7.854-6.006c-1,7.469-1.617,10.241-2.387,10.241a.969.969,0,0,1-.539-.308s-.308-.308-.847-.77a24.558,24.558,0,0,1-5.236-7.084,74.415,74.415,0,0,0,5.7-9.548c1.54-3,3.7-7.7,4.543-9.856.77-1.925,1.155-2.772,1.617-3.927ZM108.647-27.566c-.231,9.009-.308,9.933-1,12.166-.462,1.617-1.155,2-3.311,2a47.146,47.146,0,0,1-6.468-.616A132.963,132.963,0,0,0,99.33-27.566ZM225.456,1.617c-.924-1.925-2.31-5.313-3.773-9.24l-16.94-45.353a52.137,52.137,0,0,1-2.618-8.008H185.57a59.118,59.118,0,0,1-2.464,8.008L166.32-7.623a71.572,71.572,0,0,1-3.927,9.24h15.246a38.448,38.448,0,0,1,2.079-8.162l2.618-7.469H205.59l2.618,7.469a55.068,55.068,0,0,1,2,8.162Zm-23.1-26.488H185.57l7.238-21.791c.539-1.54.616-1.925,1.078-3.542.616,2.079.924,2.849,1.155,3.542Zm32.8-36.113a64.287,64.287,0,0,1,.616,10.626V-9.009a66.09,66.09,0,0,1-.616,10.626h14.168a64.884,64.884,0,0,1-.616-10.626V-50.358a63.7,63.7,0,0,1,.616-10.626ZM330.946-5.929c-13.167-12.551-15.092-14.245-25.025-21.329A100.352,100.352,0,0,0,317.548-48.2a12.658,12.658,0,0,1,2.541-4.312l-5.929-6.16c-1.848.847-2.233.924-6.468.924l-26.257.462h-1.463a57.338,57.338,0,0,1-9.394-.462l.154,11.7c2.926-.462,4.389-.539,10.78-.693L304-47.124c-1.771,3.927-3.08,6.7-4.081,8.393a71.068,71.068,0,0,1-20.174,22.253,69.575,69.575,0,0,1-17.094,9.394,34.823,34.823,0,0,1,7.392,10.241c11.7-5.7,21.868-13.321,28.721-21.483A137.129,137.129,0,0,1,321.629,4.081Zm37.268-58.52c-.385,2.695-1.463,5.621-3.7,9.779A60.173,60.173,0,0,1,344.344-31.8c4.543,2.772,5.929,3.927,9.163,7.854a77,77,0,0,0,17.787-19.635l21.868-.231c-6.314,19.4-18.326,31.493-39.116,39.578,4.081,3.7,5.39,5.236,7.931,9.933C374.22.077,383-6.16,389.928-14.091c6.7-7.623,12.089-18.018,15.785-30.03.924-3.08,1.232-3.773,2-5l-5.621-5.544a16.744,16.744,0,0,1-5.544.847l-20.02.231c.847-1.694,1.155-2.387,1.848-3.927a34.235,34.235,0,0,1,2.233-4.543Zm56.672,41.426c3-.308,7.392-.462,14.091-.462h38.885c6.006,0,11.088.154,14.168.385V-35.728c-3.542.462-6.314.539-14.091.539H438.977c-7.854,0-10.626-.154-14.091-.616Zm92.477-37.961a59.663,59.663,0,0,1,.308,7.777c0,4.158-.154,9.394-.308,13.167-.462,8.162-1.155,12.628-2.772,17.71-2.31,7.469-5.621,12.4-11.55,17.633,4.158,2.926,5.621,4.312,9.317,9.009A50.173,50.173,0,0,0,522.907-10.4c4.081-8.393,5.544-16.4,6.083-32.417.539-15.169.539-15.169.847-17.479Zm21.1-.539a55.651,55.651,0,0,1,.308,7.084v2.156l-.308,43.274a29.194,29.194,0,0,1-.77,7.392l5.7,6.083a16.27,16.27,0,0,1,3.542-1.54C554.785,0,558.712-2.233,563.178-6.083c5.467-4.774,9.548-10.7,12.782-18.711a41.6,41.6,0,0,1-8.624-8.624,38.5,38.5,0,0,1-6.853,13.629,31.2,31.2,0,0,1-10.549,8.624l.385-40.964a54.34,54.34,0,0,1,.616-9.317Z" transform="translate(-3025.441 3157.999)" fill="#191722"></path><path id="&#x30D1;&#x30B9;_36603" data-name="&#x30D1;&#x30B9; 36603" d="M27.5-22.825,8.03-42.35,6.215-40.535,25.74-20.9,6.215-1.375,8.03.44,27.5-18.92,47.025.44l1.76-1.815L29.26-20.9,48.785-40.535l-1.76-1.815Zm.055-18.2a4.225,4.225,0,0,0-4.235,4.18,4.273,4.273,0,0,0,4.235,4.235,4.19,4.19,0,0,0,4.18-4.235A4.178,4.178,0,0,0,27.555-41.03ZM11.77-25.135a4.19,4.19,0,0,0-4.235,4.18A4.273,4.273,0,0,0,11.77-16.72a4.19,4.19,0,0,0,4.18-4.235A4.178,4.178,0,0,0,11.77-25.135Zm31.46.055a4.178,4.178,0,0,0-4.18,4.18,4.178,4.178,0,0,0,4.18,4.18,4.178,4.178,0,0,0,4.18-4.18A4.178,4.178,0,0,0,43.23-25.08ZM27.5-9.13l-.11.11c-.055,0-.055,0-.11-.055a.2.2,0,0,0-.165-.055c-1.87,0-3.85,2.145-3.85,4.235A4.426,4.426,0,0,0,27.5-.66a4.262,4.262,0,0,0,4.18-4.235A4.19,4.19,0,0,0,27.5-9.13Z" transform="translate(-3071.475 3397.669)"></path></g></svg>