<svg xmlns="http://www.w3.org/2000/svg" width="1178.1" height="412.463" viewBox="0 0 1178.1 412.463"><path id="&#x30D1;&#x30B9;_36611" data-name="&#x30D1;&#x30B9; 36611" d="M46.519,1.551h73.353q47.808,0,72.884,15.936Q213.38,30.376,225.1,53.812a115,115,0,0,1,11.718,50.855q0,38.9-21.795,68.431-32.341,43.824-101.944,43.824H73.47L55.425,363.394H1.758Zm47.34,49.917-14.53,117.88h34.919q33.044,0,50.738-16.991t17.694-49.1q0-51.792-66.088-51.792ZM367.351,1.551l-38.2,311.926H431.564l-6.093,49.917H269.391L313.918,1.551ZM562.8,278.323l-44.059,85.071H460.389L660.528-24.229,785.439,363.394H729.428l-26.248-85.071Zm23.2-46.4H688.182l-38.9-128.661ZM1179.857,1.551l-47.34,386.685L912.928,107.947l-31.4,255.446H827.857L874.962-18.135l219.59,279.819L1126.425,1.551Z" transform="translate(-1.758 24.229)"></path></svg>