<svg xmlns="http://www.w3.org/2000/svg" width="373.209" height="39.997" viewBox="0 0 373.209 39.997"><g id="&#x30B0;&#x30EB;&#x30FC;&#x30D7;_5" data-name="&#x30B0;&#x30EB;&#x30FC;&#x30D7; 5" transform="translate(-837.539 -955.831)"><path id="&#x30D1;&#x30B9;_12" data-name="&#x30D1;&#x30B9; 12" d="M25.8,7.9v5.686c0,.706-.26.892-1.338.892a41.232,41.232,0,0,1-5.612-.446,17.261,17.261,0,0,1,1.3,4.943c1.821.074,3.122.111,4.274.111,2.713,0,3.939-.223,4.868-.818,1.078-.743,1.487-1.858,1.487-4.014V-9.6a39.639,39.639,0,0,1,.149-4.423,33.958,33.958,0,0,1-4.46.186H10.381a40.06,40.06,0,0,1-4.571-.186,51.352,51.352,0,0,1,.223,5.76c0,15.274-.892,19.177-5.277,23.748a21.3,21.3,0,0,1,4.088,4.088A22.018,22.018,0,0,0,10.233,7.9ZM10.753,3.445c.111-1.635.186-2.973.26-4.237H25.8V3.445Zm.3-8.7v-3.9H25.8v3.9ZM43.866,15.412a30.671,30.671,0,0,1-.186,3.531h4.534V17.122h4.534v1.524h4.311c-.037-.818-.074-1.338-.074-1.524V16.6a10.462,10.462,0,0,1,2.341,3.122,24.558,24.558,0,0,0,6.987-5.463l-2.824-2.3h5.835L66.611,14.3a21.824,21.824,0,0,0,7.581,5.352,15.839,15.839,0,0,1,2.6-4.237c-3.233-1.189-4.646-1.97-6.318-3.456h.892c.632,0,2.007.037,2.75.074a1.4,1.4,0,0,0,.446.037c-.074-1.338-.111-2.3-.111-3.977V-4.768c0-1.375.037-2.081.111-3.27a25.336,25.336,0,0,1-3.754.111H68.766a18.02,18.02,0,0,0,.818-2.156H71.7a30.866,30.866,0,0,1,3.679.149,2,2,0,0,1,.409.037v-4.646a29.34,29.34,0,0,1-4.088.186H62.188a26.961,26.961,0,0,1-4.051-.186v2.23a22.907,22.907,0,0,1-2.564.074h-2.9v-.52a7.032,7.032,0,0,1,.223-2.3H47.88a13.444,13.444,0,0,1,.149,2.23v.595H44.721a24.393,24.393,0,0,1-2.936-.111c.074,1,.111,1.933.111,2.564v2.044c0,.706-.037,1.375-.111,2.193a1.28,1.28,0,0,1-.037.334h4.014a18.673,18.673,0,0,1-4.794,4.051,12.219,12.219,0,0,1,2.3,3.456A16.724,16.724,0,0,0,45.539.472a17.339,17.339,0,0,0,1.821,1.9,20.282,20.282,0,0,1-6.727,2.824,11.231,11.231,0,0,1,2.081,3.9c.557-.223.595-.223,1.152-.446v6.764Zm10.7-8.362H47.285a24.017,24.017,0,0,0,3.382-2.193A27.353,27.353,0,0,0,55.276,7.05Zm-6.281-9.4h4.2A19.876,19.876,0,0,1,50.3.138a11.354,11.354,0,0,1-2.23-2.193Zm9.663-1.375-1.524-1.6h2.044a13.253,13.253,0,0,1-.111-2.639v-1.97c.669-.074,2.416-.149,3.828-.149h2.824a14.446,14.446,0,0,1-.855,2.156h-1.97A26.672,26.672,0,0,1,59.1-8c.074,1.264.111,2.416.111,3.493V3.705A20,20,0,0,1,53.752,2.07,30.362,30.362,0,0,0,57.32-2.836c.186-.3.186-.3.446-.669Zm-3.6-2.156H50.667a2.22,2.22,0,0,1,.223-.409c.149-.223.26-.446.334-.557a.871.871,0,0,1,.186-.372l-4.125-.743A8.488,8.488,0,0,1,46.1-5.66V-8.336h8.25ZM56.985,9.912c0-1.524,0-1.561.037-2.267l.669.186a15,15,0,0,1,1.524-3.939V8.648c0,.669-.037,2.676-.074,3.382,1.487-.037,2.416-.074,2.75-.074h.483a14.35,14.35,0,0,1-5.389,3.791Zm-8.771.78h4.5v2.713h-4.5ZM63.526-4.248h6.615v1.821H63.526Zm0,5.2h6.615V2.813H63.526Zm0,5.314h6.615V8.128H63.526ZM97.9,13.331a30.77,30.77,0,0,1,3.531-.892l7.284-1.6v4.014a28.472,28.472,0,0,1-.223,4.571h5.277a28.783,28.783,0,0,1-.223-4.534V9.8c1.821-.372,2.676-.52,3.679-.632l-.595-4.98a28.408,28.408,0,0,1-3.085.855v-15.72a28.257,28.257,0,0,1,.223-4.5h-5.277a27.43,27.43,0,0,1,.223,4.5V6.084l-7.953,1.672a21.884,21.884,0,0,1-3.531.52c.372-.743.52-1,1.115-2.044a20.246,20.246,0,0,1-4.683-4.868h1.115a16.371,16.371,0,0,1,2.973.186V-3.1a14.1,14.1,0,0,1-2.9.186H93.332V-5.288l3.01,1.635a43.674,43.674,0,0,0,2.787-8.065l-3.493-1.6a41.521,41.521,0,0,1-2.3,7.767v-6.206a19.938,19.938,0,0,1,.186-3.419H88.5a21.254,21.254,0,0,1,.186,3.456V-2.91h-2.3A18.675,18.675,0,0,1,83-3.1V1.55a20.2,20.2,0,0,1,3.419-.186h1.672a25.2,25.2,0,0,1-5.76,8.957A18.047,18.047,0,0,1,84.487,15c1.784-1.97,2.713-3.531,4.348-7.284-.074,1.041-.111,2.378-.111,3.791V15.6a28.143,28.143,0,0,1-.223,3.865h5.017a25.211,25.211,0,0,1-.186-3.754V9.949a31.367,31.367,0,0,0-.186-3.6,27.248,27.248,0,0,0,3.122,4.348c.409-1.078.52-1.375.892-2.23ZM82.7-11.643A33.227,33.227,0,0,1,84.9-3.69l3.456-1.635a47.854,47.854,0,0,0-2.23-7.99ZM99.166-9.525a36.316,36.316,0,0,1,6.467,5.649l2.973-3.679a34.8,34.8,0,0,0-6.392-5.314ZM98.014-.346a36.017,36.017,0,0,1,6.467,5.686l2.936-3.568a37.88,37.88,0,0,0-6.355-5.352Zm39.728-.892V1.81h-8.362a38.19,38.19,0,0,1-4.274-.186V6.381a34.3,34.3,0,0,1,4.237-.223h8.4v7.693h-8.994a42.538,42.538,0,0,1-4.757-.223V18.5a47.475,47.475,0,0,1,4.831-.223h23.488a44.528,44.528,0,0,1,4.608.223V13.628a36.792,36.792,0,0,1-4.5.223h-2.6a59.36,59.36,0,0,0,3.01-5.76l-4.683-1.6a25.068,25.068,0,0,1-2.639,5.8l4.237,1.561h-7.061V6.158H151.6a31.351,31.351,0,0,1,4.274.223V1.624a35.094,35.094,0,0,1-4.237.186h-8.957V-1.237h3.308a36.046,36.046,0,0,1,3.791.149V-2.836A37.179,37.179,0,0,0,155.99.286a22.034,22.034,0,0,1,2.267-4.943,30.79,30.79,0,0,1-9.886-4.906,21.706,21.706,0,0,1-5.314-5.277h-5.426c-2.49,4.2-8.288,8.213-14.94,10.406A16.728,16.728,0,0,1,125.144.175a39.331,39.331,0,0,0,5.872-2.936v1.672a36.817,36.817,0,0,1,3.716-.149Zm-2.824-4.125a25.417,25.417,0,0,0,5.463-5.24,25.9,25.9,0,0,0,5.537,5.24ZM127.931,8.128a31.012,31.012,0,0,1,2.824,5.686l4.423-1.524a37.212,37.212,0,0,0-2.75-5.8Z" transform="translate(836.783 971.005)" fill="#8d8d8d"></path><path id="&#x30D1;&#x30B9;_13" data-name="&#x30D1;&#x30B9; 13" d="M22.5-6.027h6.16V-.911H19.77V2.318h8.892V7.434H19.77v7.2H11.922v-7.2H3.08V2.318h8.842V-.911H3.08V-6.027H9.389L.348-20.532h9.19L16.095-7.617,22.5-20.532h8.892Z" transform="translate(1012.079 976.363)" fill="#8d8d8d"></path><path id="&#x30D1;&#x30B9;_14" data-name="&#x30D1;&#x30B9; 14" d="M13.3,0V-24.44L7.1-19.646,3.008-25.239l10.951-8.037H21.2V0ZM33.558,0V-6.58L46.53-18.33a12.3,12.3,0,0,0,1.974-2.4,5.1,5.1,0,0,0,.752-2.726,3.865,3.865,0,0,0-1.128-2.891,4.114,4.114,0,0,0-3.008-1.1,4.128,4.128,0,0,0-3.22,1.387,6.259,6.259,0,0,0-1.48,3.642l-7.567-1.034a11.811,11.811,0,0,1,1.386-4.512,11.653,11.653,0,0,1,2.8-3.36,12.083,12.083,0,0,1,3.877-2.115,14.544,14.544,0,0,1,4.63-.729,16.339,16.339,0,0,1,4.465.611,11.626,11.626,0,0,1,3.854,1.88,9.384,9.384,0,0,1,2.7,3.2,9.583,9.583,0,0,1,1.01,4.512,10.3,10.3,0,0,1-.47,3.219,10.7,10.7,0,0,1-1.292,2.656,15.3,15.3,0,0,1-1.88,2.28q-1.058,1.057-2.186,2.091L44.039-6.862H57.622V0ZM68.009,5.828H61.664L65.189-7.52h7.379ZM99.029-6.486V0H91.65V-6.486H76v-6.627L89.535-33.276h9.447v20.4h4.606v6.392ZM91.7-25.192h-.141l-7.9,12.314H91.7Zm41.689,8.46a31.128,31.128,0,0,1-.705,6.721,17.169,17.169,0,0,1-2.256,5.616A11.678,11.678,0,0,1,126.406-.54,11.743,11.743,0,0,1,120.414.893,11.873,11.873,0,0,1,114.4-.54a11.819,11.819,0,0,1-4.065-3.854,16.861,16.861,0,0,1-2.28-5.616,31.129,31.129,0,0,1-.7-6.721,30.806,30.806,0,0,1,.7-6.7,16.345,16.345,0,0,1,2.28-5.546,11.764,11.764,0,0,1,4.065-3.784,12.032,12.032,0,0,1,6.016-1.41,11.9,11.9,0,0,1,5.993,1.41,11.621,11.621,0,0,1,4.019,3.784,16.64,16.64,0,0,1,2.256,5.546A30.805,30.805,0,0,1,133.386-16.732Zm-8.084,0q0-1.551-.188-3.431a17.111,17.111,0,0,0-.705-3.5,7.6,7.6,0,0,0-1.48-2.726,3.178,3.178,0,0,0-2.515-1.1,3.249,3.249,0,0,0-2.538,1.1,7.672,7.672,0,0,0-1.528,2.726,16.119,16.119,0,0,0-.729,3.5q-.188,1.88-.188,3.431,0,1.6.188,3.5a16.141,16.141,0,0,0,.729,3.525,7.672,7.672,0,0,0,1.528,2.726,3.249,3.249,0,0,0,2.538,1.1,3.178,3.178,0,0,0,2.515-1.1,7.6,7.6,0,0,0,1.48-2.726,17.13,17.13,0,0,0,.705-3.525Q125.3-15.134,125.3-16.732Zm38.446,0a31.128,31.128,0,0,1-.705,6.721,17.169,17.169,0,0,1-2.256,5.616A11.678,11.678,0,0,1,156.769-.54,11.743,11.743,0,0,1,150.776.893,11.873,11.873,0,0,1,144.76-.54a11.818,11.818,0,0,1-4.066-3.854,16.861,16.861,0,0,1-2.279-5.616,31.128,31.128,0,0,1-.705-6.721,30.805,30.805,0,0,1,.705-6.7,16.345,16.345,0,0,1,2.279-5.546,11.764,11.764,0,0,1,4.066-3.784,12.032,12.032,0,0,1,6.016-1.41,11.9,11.9,0,0,1,5.993,1.41,11.621,11.621,0,0,1,4.018,3.784,16.64,16.64,0,0,1,2.256,5.546A30.805,30.805,0,0,1,163.748-16.732Zm-8.084,0q0-1.551-.188-3.431a17.109,17.109,0,0,0-.705-3.5,7.6,7.6,0,0,0-1.48-2.726,3.178,3.178,0,0,0-2.514-1.1,3.249,3.249,0,0,0-2.538,1.1,7.672,7.672,0,0,0-1.527,2.726,16.117,16.117,0,0,0-.729,3.5q-.188,1.88-.188,3.431,0,1.6.188,3.5a16.14,16.14,0,0,0,.729,3.525,7.672,7.672,0,0,0,1.527,2.726,3.249,3.249,0,0,0,2.538,1.1,3.178,3.178,0,0,0,2.514-1.1,7.6,7.6,0,0,0,1.48-2.726,17.128,17.128,0,0,0,.705-3.525Q155.664-15.134,155.664-16.732Z" transform="translate(1047 990)" fill="#8d8d8d"></path></g></svg>