<svg xmlns="http://www.w3.org/2000/svg" width="2210.844" height="441.188" viewBox="0 0 2210.844 441.188"><path id="&#x30D1;&#x30B9;_36598" data-name="&#x30D1;&#x30B9; 36598" d="M48.625,11.069h76.8q50.057,0,76.312,16.686,21.593,13.5,33.862,38.033a120.414,120.414,0,0,1,12.269,53.247q0,40.732-22.82,71.65Q191.189,236.57,118.312,236.57H76.843L57.949,389.931H1.758ZM98.191,63.334,82.977,186.759h36.561q34.6,0,53.124-17.79t18.526-51.406q0-54.228-69.2-54.228ZM431.658,230.19l95.206,159.74H467.483L377.675,234.116H357.309L338.169,389.931H281.978L328.6,11.069h74.349q36.316,0,57.664,6.625a81.752,81.752,0,0,1,36.806,22.575q29.69,30.427,29.691,78.521Q527.109,206.88,431.658,230.19ZM378.166,63.334,363.443,185.041h25.765q28.464,0,42.45-5.4a54.531,54.531,0,0,0,25.028-18.4q13.741-18.158,13.741-42.7,0-28.709-16.563-41.959t-52.143-13.25ZM973.2,193.139q0,64.779-34.353,117.535a184.956,184.956,0,0,1-71.159,64.043q-43.922,22.575-97.169,22.575-85.146,0-138.883-54.228Q577.9,288.59,577.9,202.218q0-86.127,56.927-142.318Q692,3.462,779.111,3.462t140.6,52.265Q973.2,107.748,973.2,193.139Zm-56.437-.491q0-62.08-36.807-99.378-36.806-37.052-98.887-37.052-62.326,0-104.776,41.714-41.959,41.714-41.959,104.285,0,61.835,39.015,102.322,39.015,40.242,98.641,40.242,62.08,0,103.3-43.432Q916.767,258.409,916.767,192.648Zm149.68-181.579h70.178q33.126,0,53.737,7.116a76.79,76.79,0,0,1,34.107,24.047q22.329,26.746,22.329,64.534,0,57.418-55.21,87.6,66.988,16.686,66.988,83.919a119.245,119.245,0,0,1-11.778,52.265,99.167,99.167,0,0,1-31.9,39.26,90.523,90.523,0,0,1-36.07,15.949,227.162,227.162,0,0,1-24.783,3.067q-14.477,1.1-34.353,1.1h-99.868Zm49.566,52.265L1102.272,176.7h15.949q72.141,0,72.141-67.233,0-46.131-54.964-46.131ZM1096.628,221.6,1082.4,337.665h37.788q42.2,0,57.909-10.551,24.047-15.949,24.047-53,0-13.986-4.049-23.924a37.646,37.646,0,0,0-12.637-16.318q-8.588-6.38-22.207-9.324T1130.49,221.6Zm318.5-210.533-40,326.6h107.23l-6.38,52.265H1312.56l46.622-378.861Zm355.551,0-6.38,52.265H1625.169l-12.023,98.151h139.128l-5.889,48.585H1607.257l-15.7,127.6h139.129l-6.625,52.265H1528.982L1575.6,11.069Zm410.76-35.825L2212.6,389.931h-53.492L2142.178,148.48,1995.443,416.431l-81.22-267.951-75.576,241.451h-57.418L1912.26-15.677,2008.2,293.988Z" transform="translate(-1.758 24.756)"></path></svg>