<svg xmlns="http://www.w3.org/2000/svg" width="2693.242" height="576.795" viewBox="0 0 2693.242 576.795"><path id="&#x30D1;&#x30B9;_36610" data-name="&#x30D1;&#x30B9; 36610" d="M201.67,304.479,328.827,517.828H249.518L129.57,309.723h-27.2L76.807,517.828H1.758L64.026,11.821h99.3q48.5,0,77.015,8.849A109.189,109.189,0,0,1,289.5,50.82q39.655,40.638,39.655,104.872Q329.155,273.346,201.67,304.479ZM130.226,81.627,110.562,244.178h34.411q38.016,0,56.7-7.21A72.832,72.832,0,0,0,235.1,212.389q18.353-24.252,18.353-57.024,0-38.344-22.121-56.041t-69.642-17.7ZM724.391,11.821,715.87,81.627H530.05l-16.059,131.09h185.82l-7.865,64.889H506.126L485.152,448.023h185.82l-8.849,69.805H401.582L463.85,11.821ZM861.708,398.864,800.1,517.828h-81.6L998.369-24.228l174.677,542.057H1094.72l-36.705-118.964Zm32.445-64.889H1037.04l-54.4-179.921ZM1560.417,76.383l-50.142,47.848q-35.722-52.436-81.931-52.436-33.428,0-55.386,20.647T1351,144.222q0,24.907,15.075,42.932,7.538,8.521,22.121,19.336t36.541,23.924q65.217,38.016,87.175,68.822,22.285,31.134,22.285,81.6,0,65.545-43.26,106.183-42.6,40.638-112.41,40.638-56.369,0-95.368-24.252a161.611,161.611,0,0,1-36.705-31.625q-17.042-19.5-32.772-47.356l57.024-38.672q23.268,40.966,45.554,56.369t58.007,15.4q39.655,0,62.1-20.974t22.449-59.646q0-26.546-16.386-44.9-8.193-9.5-24.416-21.3t-41.13-26.546q-57.024-33.756-79.637-64.234-21.63-30.478-21.63-76.36,0-61.285,42.6-101.595,42.6-40.638,107.494-40.638,42.276,0,72.1,17.042Q1528.3,35.417,1560.417,76.383Zm580.073,178.61q0,86.519-45.882,156.98a247.027,247.027,0,0,1-95.04,85.536q-58.663,30.151-129.779,30.151-113.721,0-185.492-72.427-71.772-72.755-71.772-188.114,0-115.031,76.032-190.08,76.36-75.377,192.7-75.377t187.786,69.805Q2140.49,140.945,2140.49,254.993Zm-75.377-.655q0-82.914-49.159-132.729Q1966.8,72.123,1883.881,72.123q-83.242,0-139.938,55.713Q1687.9,183.549,1687.9,267.119q0,82.587,52.108,136.661,52.108,53.747,131.745,53.747,82.915,0,137.972-58.007Q2065.113,342.168,2065.113,254.338ZM2695,11.821l-66.2,540.746L2321.721,160.608l-43.915,357.22h-75.049L2268.63-15.708l307.078,391.3,44.571-363.774Z" transform="translate(-1.758 24.229)"></path></svg>