<svg xmlns="http://www.w3.org/2000/svg" width="1497" height="186" viewBox="0 0 1497 186"><g id="&#x30B0;&#x30EB;&#x30FC;&#x30D7;_18733" data-name="&#x30B0;&#x30EB;&#x30FC;&#x30D7; 18733" transform="translate(-141 -1170)"><g id="&#x9577;&#x65B9;&#x5F62;_4977" data-name="&#x9577;&#x65B9;&#x5F62; 4977" transform="translate(141 1170)" fill="#fff" stroke="#533afc" stroke-width="9"><rect width="1497" height="186" rx="93" stroke="none"></rect><rect x="4.5" y="4.5" width="1488" height="177" rx="88.5" fill="none"></rect></g><path id="&#x30D1;&#x30B9;_32909" data-name="&#x30D1;&#x30B9; 32909" d="M25.207-68.159v1.274a66.773,66.773,0,0,1-.819,8.827,110.668,110.668,0,0,1-8.554,31.213C12.012-18.473,8.281-12.922,2.821-7.462,7.189-5.1,8.918-3.731,13.195.364,25.389-13.65,32.487-31.577,36.309-57.694l.273-2.184.455-2.639.182-1.547a10.49,10.49,0,0,1,.455-1.82Zm27.027,2.184a38.237,38.237,0,0,1,1.274,6.552C57.057-34.944,65.52-14.014,77.623.455a37.456,37.456,0,0,1,10.01-8.372C78.169-18.109,71.8-30.394,67.34-47.229c-2.093-7.826-3.731-16.744-3.822-20.93Zm12.194-5.642A59.712,59.712,0,0,1,71.89-56.784l6.916-2.184a54.271,54.271,0,0,0-7.553-14.651Zm26.3,9.009a53.85,53.85,0,0,0-7.462-14.1L76.531-74.8a62.5,62.5,0,0,1,7.28,14.378Zm67.067-11.284c-2.639,4.459-8.827,10.738-16.926,17.017a132.9,132.9,0,0,1-47.775,23.66,34.227,34.227,0,0,1,6.1,10.374c16.744-6.006,21.84-8.372,32.487-14.742V-5.551c0,5.369-.091,7.189-.546,9.828h12.74a68.839,68.839,0,0,1-.455-10.1V-44.681a160.92,160.92,0,0,0,21.476-18.746,37.483,37.483,0,0,1,3.367-3.185Zm93.73,36.764a90.041,90.041,0,0,1,11.557.455V-47.5c-3.458.546-5.551.637-11.739.637H198.107c-6.279,0-8.281-.091-11.739-.637v10.829a90.041,90.041,0,0,1,11.557-.455h22.2c-.273,7.1-1.638,13.013-4,17.2-3.822,7.007-10.647,11.83-21.567,15.2,3.913,3.822,5.1,5.369,7.371,10.01C214.214.364,220.857-4.641,225.68-12.649c3.913-6.461,5.915-14.014,6.37-24.479Zm-55.965-22.2a85.729,85.729,0,0,1,11.557-.455h35.308a85.729,85.729,0,0,1,11.557.455v-11.1c-3.367.546-5.187.637-11.739.637H207.3c-6.552,0-8.372-.091-11.739-.637ZM284.83-49.5a91.041,91.041,0,0,1,8.281,22.022l10.283-3.276c-3.276-10.192-5.1-14.56-8.918-21.567ZM304.3-53.326a100.067,100.067,0,0,1,8.281,21.385l10.1-3.185c-2.275-7.917-4-11.921-8.827-20.93Zm31.3-.91a40.366,40.366,0,0,1-1.638,10.465c-3.913,14.56-10.01,23.842-20.657,31.577a59.028,59.028,0,0,1-15.47,8.372,33.053,33.053,0,0,1,7.28,9.009c13.468-6.825,21.021-12.74,27.755-21.931,5.824-7.917,9.919-17.927,12.558-30.3a19.153,19.153,0,0,1,1.274-4.641Zm99.463-9.737c-2.093.728-3.094.91-6.643.91L408.5-62.79c-1.729,0-3.185.091-4.368.182a21.459,21.459,0,0,0,1.456-2.912l1.183-2.366a18.366,18.366,0,0,1,1.183-2.548,18.6,18.6,0,0,1,1.547-2.821l-12.467-2.457c-.364,3.276-1.82,6.825-4.641,12.012-6.643,12.012-13.2,19.292-23.569,26.39,4.732,2.912,6.1,4.1,8.827,7.826a89.07,89.07,0,0,0,21.294-23.3l27.391-.455c-5.005,16.289-13.559,28.756-26.572,38.4C394.03-10.556,388.934-7.826,379.834-4.1a28.039,28.039,0,0,1,7.735,9.555C401.583-1,411.593-8.1,419.965-17.654c8.008-9.009,14.469-21.294,18.655-35.126,1-3.276,1.365-4.1,2.275-5.46Zm82.082-7.371L484.211,14.833H495.4l32.851-86.177Zm68.25,3.185v1.274a66.767,66.767,0,0,1-.819,8.827,110.667,110.667,0,0,1-8.554,31.213c-3.822,8.372-7.553,13.923-13.013,19.383,4.368,2.366,6.1,3.731,10.374,7.826,12.194-14.014,19.292-31.941,23.114-58.058l.273-2.184.455-2.639.182-1.547a10.489,10.489,0,0,1,.455-1.82Zm27.027,2.184a38.238,38.238,0,0,1,1.274,6.552c3.549,24.479,12.012,45.409,24.115,59.878a37.456,37.456,0,0,1,10.01-8.372c-9.464-10.192-15.834-22.477-20.293-39.312-2.093-7.826-3.731-16.744-3.822-20.93Zm12.194-5.642a59.712,59.712,0,0,1,7.462,14.833L639-58.968a54.27,54.27,0,0,0-7.553-14.651Zm26.3,9.009a53.85,53.85,0,0,0-7.462-14.1L636.727-74.8a62.5,62.5,0,0,1,7.28,14.378ZM717.99-73.892c-2.639,4.459-8.827,10.738-16.926,17.017a132.9,132.9,0,0,1-47.775,23.66,34.228,34.228,0,0,1,6.1,10.374c16.744-6.006,21.84-8.372,32.487-14.742V-5.551c0,5.369-.091,7.189-.546,9.828h12.74a68.838,68.838,0,0,1-.455-10.1V-44.681a160.921,160.921,0,0,0,21.476-18.746,37.483,37.483,0,0,1,3.367-3.185Zm93.73,36.764a90.041,90.041,0,0,1,11.557.455V-47.5c-3.458.546-5.551.637-11.739.637H758.3c-6.279,0-8.281-.091-11.739-.637v10.829a90.041,90.041,0,0,1,11.557-.455h22.2c-.273,7.1-1.638,13.013-4,17.2-3.822,7.007-10.647,11.83-21.567,15.2,3.913,3.822,5.1,5.369,7.371,10.01C774.41.364,781.053-4.641,785.876-12.649c3.913-6.461,5.915-14.014,6.37-24.479Zm-55.965-22.2a85.729,85.729,0,0,1,11.557-.455H802.62a85.729,85.729,0,0,1,11.557.455v-11.1c-3.367.546-5.187.637-11.739.637H767.494c-6.552,0-8.372-.091-11.739-.637ZM845.026-49.5a91.041,91.041,0,0,1,8.281,22.022l10.283-3.276c-3.276-10.192-5.1-14.56-8.918-21.567ZM864.5-53.326a100.065,100.065,0,0,1,8.281,21.385l10.1-3.185c-2.275-7.917-4-11.921-8.827-20.93Zm31.3-.91a40.367,40.367,0,0,1-1.638,10.465c-3.913,14.56-10.01,23.842-20.657,31.577a59.029,59.029,0,0,1-15.47,8.372,33.054,33.054,0,0,1,7.28,9.009c13.468-6.825,21.021-12.74,27.755-21.931,5.824-7.917,9.919-17.927,12.558-30.3a19.149,19.149,0,0,1,1.274-4.641Zm99.463-9.737c-2.093.728-3.094.91-6.643.91L968.7-62.79c-1.729,0-3.185.091-4.368.182a21.466,21.466,0,0,0,1.456-2.912l1.183-2.366a18.364,18.364,0,0,1,1.183-2.548,18.615,18.615,0,0,1,1.547-2.821l-12.467-2.457c-.364,3.276-1.82,6.825-4.641,12.012-6.643,12.012-13.2,19.292-23.569,26.39,4.732,2.912,6.1,4.1,8.827,7.826a89.069,89.069,0,0,0,21.294-23.3l27.391-.455c-5.005,16.289-13.559,28.756-26.572,38.4C954.226-10.556,949.13-7.826,940.03-4.1a28.039,28.039,0,0,1,7.735,9.555C961.779-1,971.789-8.1,980.161-17.654c8.008-9.009,14.469-21.294,18.655-35.126,1-3.276,1.365-4.1,2.275-5.46Zm57.421,65.065h12.285a73.187,73.187,0,0,1-.728-11.375V-34.762c0-6.188-1.183-9.646-4.277-12.558-3.913-3.822-9.191-5.369-17.927-5.369-7.826,0-12.922,1.365-17.381,4.641-3.458,2.457-5.1,4.823-7.189,10.1l11.648,2.093c1.092-3.276,1.911-4.55,3.64-5.824,2.093-1.638,5.824-2.639,9.464-2.639,6.916,0,10.465,2.73,10.465,8.008v4.641c-13.013.273-19.747,1.183-25.662,3.64a16.143,16.143,0,0,0-10.283,14.742c0,9.555,6.734,15.288,17.836,15.288A32.2,32.2,0,0,0,1043.042.91c3.731-1,6.006-2.275,9.646-5.733Zm0-20.293a10.845,10.845,0,0,1-3.276,8.008,18.478,18.478,0,0,1-12.649,4.823c-5.1,0-8.281-2.639-8.281-6.916,0-7.1,6.825-10.1,24.206-10.465ZM1075.8-71.344v11.557h13.377V-71.344Zm0,20.2a74.79,74.79,0,0,1,.728,11.83v28.574a81.78,81.78,0,0,1-.728,11.83h13.286a91.423,91.423,0,0,1-.637-11.921V-39.221a81.8,81.8,0,0,1,.637-11.921Z" transform="translate(243 1300)"></path><g id="&#x30B0;&#x30EB;&#x30FC;&#x30D7;_18732" data-name="&#x30B0;&#x30EB;&#x30FC;&#x30D7; 18732" transform="translate(92.876 -85.13) rotate(4)"><g id="&#x6955;&#x5186;&#x5F62;_18" data-name="&#x6955;&#x5186;&#x5F62; 18" transform="translate(1429 1194)" fill="none" stroke="#533afc" stroke-width="13"><circle cx="49.274" cy="49.274" r="49.274" stroke="none"></circle><circle cx="49.274" cy="49.274" r="42.774" fill="none"></circle></g><line id="&#x7DDA;_1" data-name="&#x7DDA; 1" x2="30.395" y2="25.771" transform="translate(1512.781 1269.869)" fill="none" stroke="#533afc" stroke-width="13"></line></g></g></svg>