<svg xmlns="http://www.w3.org/2000/svg" width="1213.468" height="80.108" viewBox="0 0 1213.468 80.108"><g id="&#x30B0;&#x30EB;&#x30FC;&#x30D7;_16195" data-name="&#x30B0;&#x30EB;&#x30FC;&#x30D7; 16195" transform="translate(5960.64 2737.204)"><path id="&#x5408;&#x4F53;_23" data-name="&#x5408;&#x4F53; 23" d="M22767-17431h0l-44-44Z" transform="translate(-27517 14740.626)"></path><path id="&#x5408;&#x4F53;_23_-_&#x30A2;&#x30A6;&#x30C8;&#x30E9;&#x30A4;&#x30F3;" data-name="&#x5408;&#x4F53; 23 - &#x30A2;&#x30A6;&#x30C8;&#x30E9;&#x30A4;&#x30F3;" d="M22767-17427h-260v-8h250.344l-37.174-37.174,5.656-5.656,44,44L22767-17431Z" transform="translate(-27517 14740.626)"></path><path id="&#x30D1;&#x30B9;_24246" data-name="&#x30D1;&#x30B9; 24246" d="M26.08-40.8A71.79,71.79,0,0,1,34-41.12H46.64v4.08H35.36c-2.72,0-4.56-.08-6.32-.24.16,2,.24,3.84.24,6v17.84c0,2.8-.08,3.92-.24,5.92,1.84-.16,3.76-.24,6.16-.24h5.6A20.733,20.733,0,0,1,36.96-4.8C33.04-2.48,29.28-1.2,23.28-.16a29.038,29.038,0,0,1,4.56,7.2A42.669,42.669,0,0,0,38.8,2.96a27.972,27.972,0,0,0,8.08-5.92l-4.64-4.8H58.32l-4.4,4.48C60.96,2.64,62.8,3.68,73.04,7.28A38.8,38.8,0,0,1,77.2-.48,44.921,44.921,0,0,1,65.6-4.16a25.058,25.058,0,0,1-5.84-3.6H66.8c2.48,0,4.32.08,6.16.24-.16-1.68-.24-3.68-.24-6.8V-31.2c0-2.56.08-4.4.24-6.08-1.76.16-3.44.24-6.32.24H54.24v-4.08H68.88a69,69,0,0,1,7.92.4v-7.84a70.072,70.072,0,0,1-8.24.4H63.92v-5.36h3.44q5.04,0,7.68.24v-7.68a72.437,72.437,0,0,1-7.76.4H63.92v-1.12a23.45,23.45,0,0,1,.4-5.36H55.6a35.059,35.059,0,0,1,.32,5.36v1.12H45.68v-1.2A32.045,32.045,0,0,1,46-67.04H37.28a23.961,23.961,0,0,1,.4,5.28v1.2H35.6a67.315,67.315,0,0,1-7.44-.4v7.76a64.084,64.084,0,0,1,7.52-.32h2v5.36H33.84a60.177,60.177,0,0,1-7.12-.32V-53.2a27.94,27.94,0,0,1-4.72.32H20.48v-6.24a55.348,55.348,0,0,1,.4-8.24h-9.2a53.949,53.949,0,0,1,.4,8.32v6.16H9.12a30.689,30.689,0,0,1-5.36-.32v8.4a23.45,23.45,0,0,1,5.36-.4h2.32C9.28-35.84,5.76-27.68,1.36-21.84A31.213,31.213,0,0,1,6-14c2.32-3.36,3.92-7.12,6.64-15.52-.32,7.04-.48,10.8-.48,11.2V-2.88a81.179,81.179,0,0,1-.48,9.84h9.28a80.269,80.269,0,0,1-.48-9.84V-22.8c0-4.24-.16-7.92-.4-11.36a60.635,60.635,0,0,0,4.48,8.56,29.909,29.909,0,0,1,4.4-6.64,32.794,32.794,0,0,1-8-12.96h1.2c1.28,0,2.8.08,3.92.16Zm29.84-7.36H45.68v-5.36H55.92ZM46.64-30.32v4.72H37.28v-4.72Zm0,10.88v4.88H37.28v-4.88Zm7.6,4.88v-4.88H64.72v4.88Zm0-11.04v-4.72H64.72v4.72ZM105.12,1.92c-.08-1.04-.08-1.68-.08-2.16,0-5.68,2.72-14.96,7.12-24.24l-6.4-2.88c-3.12,7.2-3.28,7.76-4.16,10.56.08-2,.16-2.64.16-4.4a133.572,133.572,0,0,1,1.2-17.68c1.28-10.24,3.12-19.2,5.04-23.92L97.44-63.92a52.348,52.348,0,0,1-1.2,7.44A153.583,153.583,0,0,0,92.96-25.2,139.541,139.541,0,0,0,95.04-1.28c.24,1.84.32,2.32.4,3.76ZM116.16-46c8.48.88,8.56.88,14.4.88a143.3,143.3,0,0,0,17.12-.96c3.84-.48,5.04-.64,5.68-.72l-.48-9.68c-5.28,1.44-12.88,2.16-21.76,2.16-6.96,0-11.2-.32-14.8-1.28Zm5.52,13.2c-4.96,5.92-7.36,11.28-7.36,16.48a13.4,13.4,0,0,0,2.4,7.84c3.52,4.72,9.92,6.96,19.84,6.96a98.654,98.654,0,0,0,16.56-1.52,26.737,26.737,0,0,1,3.28-.48l-.8-10.16a56.22,56.22,0,0,1-19.04,3.04c-8.32,0-12.72-2.4-12.72-6.96,0-3.44,1.68-6.88,5.68-11.52ZM242.64-5.68c-9.68-9.36-9.68-9.36-11.68-11.12a124,124,0,0,0-14.8-11.6,105.95,105.95,0,0,0,12.48-22.08,15.386,15.386,0,0,1,2.56-4.32l-5.28-5.44c-2,.72-2.64.8-7.12.88l-28.16.4h-1.92a35.01,35.01,0,0,1-7.04-.48L182-49.2a63.047,63.047,0,0,1,8.72-.64c25.2-.4,25.2-.4,26.48-.48l-.88,2.08c-5.2,12.48-14.8,24.08-26.88,32.56a66.048,66.048,0,0,1-16,8.8A32.092,32.092,0,0,1,179.92,2,95.07,95.07,0,0,0,210.4-21.12,153.786,153.786,0,0,1,234.96,2.64Zm74.24-50.56a14.172,14.172,0,0,1-5.84.8l-17.52.24c-1.52,0-2.8.08-3.84.16a18.862,18.862,0,0,0,1.28-2.56L292-59.68a16.142,16.142,0,0,1,1.04-2.24,16.356,16.356,0,0,1,1.36-2.48l-10.96-2.16c-.32,2.88-1.6,6-4.08,10.56-5.84,10.56-11.6,16.96-20.72,23.2,4.16,2.56,5.36,3.6,7.76,6.88A78.3,78.3,0,0,0,285.12-46.4l24.08-.4c-4.4,14.32-11.92,25.28-23.36,33.76-5.04,3.76-9.52,6.16-17.52,9.44a24.649,24.649,0,0,1,6.8,8.4C287.44-.88,296.24-7.12,303.6-15.52c7.04-7.92,12.72-18.72,16.4-30.88a15.049,15.049,0,0,1,2-4.8Zm78.4,51.6V.88H405.6a54.832,54.832,0,0,1-.32-6.96V-51.84c0-2.96.08-4.56.24-6.64-1.84.16-3.28.24-6.72.24H353.36c-3.2,0-4.88-.08-6.8-.24a53.133,53.133,0,0,1,.32,6.72V-5.92a53.462,53.462,0,0,1-.32,6.88h10.32v-5.6Zm0-9.12h-38.4V-49.2h38.4Zm30.4-11.36c3.2-.4,4.08-.4,13.04-.4H481.2c8.96,0,9.84,0,13.04.4V-36.24c-3.52.48-5.04.56-12.96.56H438.64c-7.92,0-9.44-.08-12.96-.56Zm94.56-37.44a40.207,40.207,0,0,1,.32,7.28c0,22.4-1.84,32.72-7.6,41.92a32.868,32.868,0,0,1-8.24,9.2c3.76,2.56,4.96,3.76,8.08,7.76,5.28-5.2,8.32-9.28,11.04-14.8,4.16-8.24,5.92-17.28,6.48-32.88.48-15.68.48-15.68.8-17.92Zm21.2-.56a34.626,34.626,0,0,1,.32,5.28v2.4l-.4,45.12c-.08,4.4-.16,6.16-.72,8.48l5.12,5.44a34.807,34.807,0,0,1,3.44-1.44c8.32-3.28,12.48-5.68,17.04-9.6,5.28-4.72,9.44-10.72,12.72-18.64a33.533,33.533,0,0,1-7.52-7.52,39.092,39.092,0,0,1-7.84,14.64c-3.44,4.08-6.64,6.48-12.24,9.12l.4-45.52a43.351,43.351,0,0,1,.56-7.6Zm50.64,17.76a100.406,100.406,0,0,1,13.28-1.6c15.52-1.12,20.48-1.6,26.96-2.56a35.377,35.377,0,0,0-11.12,8.08,27.857,27.857,0,0,0-7.6,18.8c0,8.32,4.08,15.12,11.44,19.28,4.88,2.72,9.92,4.16,18.72,5.28,1.52.24,1.68.24,2.72.48l1.44-10.88c-.8.08-1.52.08-1.6.08a48.548,48.548,0,0,1-11.92-2.08c-6.72-2-10.64-6.8-10.64-13.04,0-8.08,6-16.08,16.16-21.36a35.778,35.778,0,0,1,15.84-4.32,12.386,12.386,0,0,1,1.68.08l-.56-10.16c-1.28.32-1.68.32-8.24.64-21.36,1.04-35.04,1.76-40.88,2.08-11.76.8-11.76.8-13.2.8-.4,0-1.28,0-3.04-.08Zm48.96,7.68a53.992,53.992,0,0,1,8.4,11.92l5.6-2.96a51.845,51.845,0,0,0-8.4-11.76Zm23.52,3.76a46.266,46.266,0,0,0-8.32-11.28l-5.36,2.8a58.944,58.944,0,0,1,8.16,11.6Zm16.16-12.16c1.68-.08,2.08-.16,5.44-.16a192.87,192.87,0,0,0,21.44-1.12c.64,1.44.88,1.92,1.68,3.6.64,1.52.96,2,1.44,2.96a157.389,157.389,0,0,1-22.64,1.52c-5.44,0-5.92,0-8.24-.32l.32,8.72c1.36-.16,1.92-.16,3.28-.24,17.36-.56,22.48-.88,30.96-2.16,3.36,5.52,4.88,7.76,6.16,8.96A55.131,55.131,0,0,0,706.72-26c-8.08,0-14.48,1.36-18.64,4-4.32,2.8-6.72,6.8-6.72,11.12A12.885,12.885,0,0,0,687.52.08C692,2.8,697.84,4,707.04,4a77.023,77.023,0,0,0,20.48-2.72,39.564,39.564,0,0,1,5.2-1.2l-1.44-9.84c-5.04,2.8-16.32,5.2-24.64,5.2-4.64,0-8.88-.64-11.44-1.76a5.274,5.274,0,0,1-3.44-4.64c0-1.92,1.2-3.6,3.44-4.88,2.72-1.44,7.36-2.24,13.44-2.24,7.84,0,12.64.88,18.4,3.28l7.04-5.04a80,80,0,0,1-10.72-14.64c.96-.24.96-.24,2.96-.64,1.92-.4,4.56-.96,7.84-1.76,1.84-.48,3.52-.8,5.04-1.04l-.8-8.72a40.4,40.4,0,0,1-7.6,2.32c-.48.08-4.16.88-11.04,2.32a72.049,72.049,0,0,1-3.12-6.56c2.48-.32,11.36-2.08,16.72-3.36,1.92-.4,1.92-.4,2.72-.56l-.8-8.48a134.4,134.4,0,0,1-21.6,4.8c-2.16-5.28-2.96-7.68-3.28-9.68l-10,1.36c.08.16,1.2,2.64,3.2,7.28.64,1.44.64,1.44.88,2.08a142.178,142.178,0,0,1-16.48.88,67.115,67.115,0,0,1-7.68-.32Zm144.8,37.6c-1.12-.64-1.52-.96-2.88-1.84-8.64-6.08-14.88-9.2-21.92-11.28-.08-1.92-.08-1.92-.32-9.68,3.12-.16,4.32-.24,5.44-.32,6-.56,9.6-.96,10.8-1.12,1.84-.24,3.84-.48,5.2-.56l-.24-8.8a59.206,59.206,0,0,1-9.92,1.76c-7.36.8-7.36.8-11.36,1.04-.08-4.96-.08-5.92-.16-7.92,7.04-.4,10.16-.64,17.2-1.6a50.039,50.039,0,0,1,6.32-.72l-.4-8.88c-5.2,1.52-12.16,2.4-23.04,3.04.08-6.56.16-7.6.56-9.76H790.64c.32,2,.32,2.08.4,10.08-2,.08-4.72.16-6,.16-9.2,0-17.44-.64-21.52-1.68l-.08,8.88h1.28c.24,0,.88,0,1.76.08,5.36.4,15.68.8,19.6.8,1.2,0,2.48,0,5.04-.08.08,4.56.08,7.28.08,8-2.24.08-4.96.16-6.56.16-7.6,0-15.2-.56-18.64-1.36l-.16,8.64c1.2,0,2,0,3.04.08,6.64.48,9.6.56,14.48.56,1.68,0,4.16-.08,8-.16.08,3.2.08,3.2.16,4.32v1.76a15.412,15.412,0,0,1,.08,1.92,41.8,41.8,0,0,0-5.36-.32c-13.44,0-21.36,5.12-21.36,13.84,0,7.92,6.72,12.48,18.4,12.48,5.84,0,10.16-1.12,13.2-3.44s4.48-5.76,4.48-10.8v-.88a35.6,35.6,0,0,1,4.32,2A53.98,53.98,0,0,1,820.08.88Zm-33.76-6.16v1.92a10.141,10.141,0,0,1-.96,5.12c-1.12,1.6-3.6,2.56-6.96,2.56-5.68,0-9.12-1.84-9.12-4.8,0-3.44,3.92-5.52,10.4-5.52A28.077,28.077,0,0,1,791.76-14.64ZM889.2-42.56v-5.2c6.32-.16,7.76-.16,9.68-.16,6.64,0,10.48.16,13.44.4l-.08-9.2c-2.96.32-9.2.48-23.12.56.08-6.88.08-7.04.4-9.52l-10.08.08c.4,2.08.4,2.08.48,9.68-4.16.16-4.16.16-6.8.24-6.56.16-7.36.16-12.56.32-10.32.4-11.6.4-13.6.4a34.837,34.837,0,0,1-3.92-.16l.32,9.52c2.16-.32,2.16-.32,14.24-1.2,3.52-.24,11.04-.48,22.48-.8,0,2.16,0,6.64.08,6.8a3.3,3.3,0,0,0,.08.96c-1.84-1.52-4.88-2.4-8.32-2.4-9.28,0-15.92,6.08-15.92,14.56a12.5,12.5,0,0,0,5.52,10.8A14.743,14.743,0,0,0,870.8-14c5.28,0,9.44-2,11.76-5.68-.64,4.48-3.84,8.56-9.28,11.68-3.76,2.24-7.04,3.36-13.6,4.64,2.64,2.88,3.44,4.08,5.68,9.04,7.44-2.56,11.12-4.24,14.48-6.56,7.76-5.36,11.92-12.88,11.92-21.6a24.346,24.346,0,0,0-2.56-11.28c0-.96-.08-1.6-.08-1.92ZM880-29.36c0,4.16-3.28,7.2-7.84,7.2-4,0-6.8-2.64-6.8-6.32,0-3.52,3.36-6.4,7.44-6.4C877.2-34.88,880-32.72,880-29.36Z" transform="translate(-5962 -2664.376)"></path></g></svg>