<svg xmlns="http://www.w3.org/2000/svg" width="593" height="72" viewBox="0 0 593 72"><g id="&#x30B0;&#x30EB;&#x30FC;&#x30D7;_20885" data-name="&#x30B0;&#x30EB;&#x30FC;&#x30D7; 20885" transform="translate(23656 21924)"><rect id="&#x9577;&#x65B9;&#x5F62;_6" data-name="&#x9577;&#x65B9;&#x5F62; 6" width="591" height="69" transform="translate(-23655 -21923)" fill="#fff"></rect><path id="&#x9577;&#x65B9;&#x5F62;_6_-_&#x30A2;&#x30A6;&#x30C8;&#x30E9;&#x30A4;&#x30F3;" data-name="&#x9577;&#x65B9;&#x5F62; 6 - &#x30A2;&#x30A6;&#x30C8;&#x30E9;&#x30A4;&#x30F3;" d="M3,3V66H588V3H3M0,0H591V69H0Z" transform="translate(-23655 -21923)" fill="#191722"></path><rect id="&#x9577;&#x65B9;&#x5F62;_7" data-name="&#x9577;&#x65B9;&#x5F62; 7" width="556" height="72" transform="translate(-23637 -21924)" fill="#fff"></rect><rect id="&#x9577;&#x65B9;&#x5F62;_8" data-name="&#x9577;&#x65B9;&#x5F62; 8" width="593" height="37" transform="translate(-23656 -21907)" fill="#fff"></rect><path id="&#x30D1;&#x30B9;_36597" data-name="&#x30D1;&#x30B9; 36597" d="M22.23-21.27a19.257,19.257,0,0,1,1.92,4.23l2.34-.99a21.342,21.342,0,0,0-1.95-4.17Zm3.3-1.23a25.486,25.486,0,0,1,1.89,4.11l2.25-.99a17.793,17.793,0,0,0-1.95-4.02ZM7.89-22.68v.36a21.417,21.417,0,0,1-.24,3A39.178,39.178,0,0,1,4.95-9.06,20.688,20.688,0,0,1,.66-2.49,15.367,15.367,0,0,1,4.77.54a28.5,28.5,0,0,0,5.31-9.69,53.976,53.976,0,0,0,2.28-10.17,18.973,18.973,0,0,1,.39-2.46Zm9.06.84a19.559,19.559,0,0,1,.39,2.28A52.341,52.341,0,0,0,20.07-8.7,31.621,31.621,0,0,0,25.2.57a15.389,15.389,0,0,1,3.99-3.24,25.636,25.636,0,0,1-3.48-4.98,34.8,34.8,0,0,1-3.15-8.31,41.782,41.782,0,0,1-1.2-6.72Zm34.71-2.73a23.793,23.793,0,0,1-5.55,5.55,44.339,44.339,0,0,1-15.81,7.8,14.851,14.851,0,0,1,2.43,4.08c5.43-2.01,7.14-2.79,10.26-4.65v9.12a29.366,29.366,0,0,1-.18,4.35h4.95a37.41,37.41,0,0,1-.15-4.44V-14.58a50.758,50.758,0,0,0,7.02-6.12,10.191,10.191,0,0,1,1.14-1.08ZM82.29-11.7a38.837,38.837,0,0,1,4.35.15v-4.29a30.639,30.639,0,0,1-4.44.21H65.28a33.883,33.883,0,0,1-4.32-.21v4.32a32.3,32.3,0,0,1,4.26-.18h6.66a11.7,11.7,0,0,1-1.11,4.83C69.54-4.5,67.32-2.94,63.6-1.8a11.974,11.974,0,0,1,2.97,3.99C70.5.6,72.69-.99,74.28-3.51a16.239,16.239,0,0,0,2.34-8.19ZM64.02-19.14a38.991,38.991,0,0,1,4.26-.15H79.23a33.756,33.756,0,0,1,4.38.15v-4.29a27.648,27.648,0,0,1-4.44.21H68.34a28.407,28.407,0,0,1-4.32-.21Zm29.19,2.61a31.093,31.093,0,0,1,2.7,7.5l4.02-1.23a34.917,34.917,0,0,0-2.97-7.35Zm6.54-1.29a35.249,35.249,0,0,1,2.7,7.29l3.93-1.2a29.664,29.664,0,0,0-2.91-7.11Zm10.32-.42a15.986,15.986,0,0,1-.54,3.45c-1.23,4.8-3.21,7.89-6.69,10.41a21.324,21.324,0,0,1-5.28,2.76,12.986,12.986,0,0,1,2.85,3.57c4.74-2.4,7.41-4.53,9.54-7.59a27.707,27.707,0,0,0,3.93-9.93,10.611,10.611,0,0,1,.45-1.68Zm20.07-6.87a11.562,11.562,0,0,1-1.44,3.81,23.444,23.444,0,0,1-7.86,8.91,11.065,11.065,0,0,1,3.57,3.06,30,30,0,0,0,6.93-7.65l8.52-.09C137.4-9.51,132.72-4.8,124.62-1.65a11.611,11.611,0,0,1,3.09,3.87A30.971,30.971,0,0,0,138.6-5.49a32.051,32.051,0,0,0,6.15-11.7,6.568,6.568,0,0,1,.78-1.95l-2.19-2.16a6.524,6.524,0,0,1-2.16.33l-7.8.09c.33-.66.45-.93.72-1.53a13.338,13.338,0,0,1,.87-1.77Zm29.4,10.62a.528.528,0,0,1,.18-.03c.39,0,.39,0,.87.03,1.29.09,3.96.18,5.04.18.66,0,1.17,0,2.04-.03.09,3.18.15,4.53.18,5.55a9,9,0,0,0-2.16-.24c-3.96,0-6.57,2.13-6.57,5.37s2.52,5.22,6.66,5.22c3.81,0,6.21-1.68,6.21-4.32a3.469,3.469,0,0,0-.03-.51,18.08,18.08,0,0,1,3.87,3.09l1.65-4.32c-.33-.21-.42-.27-.87-.57a24.219,24.219,0,0,0-4.59-2.61c-.24-3.84-.27-4.5-.3-6.93a34.277,34.277,0,0,0,3.81-.6,7.374,7.374,0,0,1,1.17-.18l-.15-4.08a25.416,25.416,0,0,1-4.86.99,34.12,34.12,0,0,1,.21-5.49h-4.44a7.658,7.658,0,0,1,.12,1.56c.03,2.01.03,2.01.03,4.23-1.02.03-1.56.03-2.4.03a26.541,26.541,0,0,1-5.61-.45Zm8.4,9.57a2.792,2.792,0,0,1,.03.63c0,1.5-.75,2.16-2.49,2.16-1.47,0-2.37-.6-2.37-1.56,0-1.02,1.05-1.68,2.64-1.68A5.4,5.4,0,0,1,167.94-4.92ZM153.3-24.09a16.746,16.746,0,0,1-.36,2.55c-.6,3.24-.6,3.24-.72,4.14a53.8,53.8,0,0,0-.57,8.07,60.712,60.712,0,0,0,.81,9.84c.09.63.09.81.12,1.2l4.29-.21c-.03-.54-.06-.84-.06-.96,0-2.28,1.11-6,2.7-9.15l-2.55-1.02c-.48.96-.69,1.5-1.35,3.12,0-.48.03-1.65.03-2.25a57.436,57.436,0,0,1,.39-5.79c.45-3.6,1.35-7.86,1.98-9.12Zm31.59,5.31a5.2,5.2,0,0,1,1.05.09,56.345,56.345,0,0,0,6.21.36,26.683,26.683,0,0,0,3.42-.18c-.87.51-2.91,1.77-3.96,2.46l3.06,2.28a56.291,56.291,0,0,1,8.19-5.13l-.15-3.96a40.257,40.257,0,0,1-7.86.54,45.016,45.016,0,0,1-9.69-.75Zm2.4,6.36c-2.85,2.28-4.08,4.38-4.08,6.84s1.32,4.2,4.02,5.22a23.06,23.06,0,0,0,7.89.99A47.268,47.268,0,0,0,201.9.15a25.739,25.739,0,0,1,2.7-.27l-.33-4.92a32.057,32.057,0,0,1-9.75,1.32c-4.68,0-6.75-.78-6.75-2.52,0-1.17.87-2.43,2.7-3.9Zm31.53-12.51c-.18,1.17-.78,2.97-3.21,9.84C210.57-.93,210.57-.93,210.09.09l4.65,1.44a35.125,35.125,0,0,1,2.46-6.9c1.29-2.61,2.88-4.08,4.41-4.08a1.223,1.223,0,0,1,1.2.66,3.763,3.763,0,0,1,.21,1.53v.3c-.03.99-.03,2.04-.03,2.22,0,2.16.36,3.39,1.26,4.44a5.529,5.529,0,0,0,4.32,1.59,7.89,7.89,0,0,0,6.45-3.21,16.137,16.137,0,0,0,2.55-6.51,12.273,12.273,0,0,1-4.02-2.61,17.828,17.828,0,0,1-1.08,5.01c-.78,1.95-1.92,2.97-3.33,2.97a2,2,0,0,1-1.38-.42c-.45-.42-.54-.84-.54-3.18,0-1.41-.03-2.13-.06-2.7a5.123,5.123,0,0,0-.78-2.85,4.17,4.17,0,0,0-3.39-1.62,5.692,5.692,0,0,0-4.05,1.77l2.13-5.31c1.32-3.36,1.32-3.36,1.47-3.75a23.151,23.151,0,0,1,1.2-2.7Zm28.71-.03a24.014,24.014,0,0,1-.81,5.01c-.57.03-1.14.06-1.32.06a22.359,22.359,0,0,1-4.2-.3v4.08h1.14c1.02.06,1.02.06,1.35.06h.36c.72-.03.72-.03,1.62-.03a39.877,39.877,0,0,1-5.64,11.61l4.11,2.28c.18-.39.18-.39.57-1.14,1.14-2.16,1.41-2.7,2.1-4.17a59.7,59.7,0,0,0,3.27-8.7c2.4-.21,3.63-.33,4.68-.48a7.164,7.164,0,0,1,.93-.12l-.09-4.14a21.339,21.339,0,0,1-4.53.78c.06-.3.06-.3.18-.75.21-1.05.36-1.71.42-1.98a9,9,0,0,1,.42-1.62Zm19.98,7.56a46.4,46.4,0,0,0-8.73-4.02l-2.13,3.48a39.163,39.163,0,0,1,8.94,4.26Zm-.18,13.62c-.24-.18-.24-.18-.51-.39-.51-.42-.78-.63-1.17-.9a20.6,20.6,0,0,0-4.53-2.61,28.908,28.908,0,0,1-.27-4.05,9.1,9.1,0,0,1,.39-2.97l-4.17-.21a18.87,18.87,0,0,0-.24,3.33,27.332,27.332,0,0,0,.15,2.91,12.946,12.946,0,0,0-2.19-.18,8.889,8.889,0,0,0-3.21.45,5.336,5.336,0,0,0-3.81,5.04c0,3.21,2.7,5.34,6.81,5.34,2.46,0,4.5-.75,5.55-2.04a4.792,4.792,0,0,0,1.02-3.21A17.744,17.744,0,0,1,265.41.24ZM257.07-4.86a4.547,4.547,0,0,1,.06.84c0,1.47-.87,2.22-2.67,2.22-1.59,0-2.52-.66-2.52-1.74,0-1.05,1.11-1.77,2.76-1.77A6.354,6.354,0,0,1,257.07-4.86Zm24.21-20.07a14.743,14.743,0,0,1,.15,2.49,36.992,36.992,0,0,1-.93,8.37,18.338,18.338,0,0,1-5.07,8.79,20.905,20.905,0,0,1-5.73,4.11,13.019,13.019,0,0,1,2.64,3.72,26.983,26.983,0,0,0,6.84-5.58,18.418,18.418,0,0,0,4.65-8.91,23.677,23.677,0,0,0,4.02,7.86,29.147,29.147,0,0,0,7.5,6.66,14.457,14.457,0,0,1,2.67-4.02A18.847,18.847,0,0,1,294-4.08a19.382,19.382,0,0,1-4.86-5.34c-2.4-3.75-3.33-7.38-3.33-12.87a14.842,14.842,0,0,1,.18-2.64Zm22.17.75a26.174,26.174,0,0,1-.48,3A62.553,62.553,0,0,0,301.8-9.45a56.945,56.945,0,0,0,.78,9.15c.09.69.12.93.15,1.47l4.35-.21c-.03-.42-.03-.57-.03-.87a23.407,23.407,0,0,1,2.46-9.03l-2.64-1.08-.57,1.44c-.15.36-.15.36-.54,1.53.09-6.36,1.05-13.11,2.37-16.68Zm7.41,7.26c.45.03.69.03.84.06a43.04,43.04,0,0,0,4.83.24,63.951,63.951,0,0,0,7.95-.54,4.87,4.87,0,0,1,.63-.03l-.21-4.35a34.988,34.988,0,0,1-8.22.81,21.849,21.849,0,0,1-5.76-.51Zm1.98,4.47c-1.86,2.37-2.79,4.53-2.79,6.42a5.484,5.484,0,0,0,.9,3.06c1.35,1.89,3.84,2.79,7.65,2.79a36.233,36.233,0,0,0,6.3-.57c.66-.09.84-.12,1.32-.18l-.3-4.53a22.113,22.113,0,0,1-7.29,1.17c-2.76,0-4.29-.84-4.29-2.34,0-1.11.69-2.46,2.1-4.23Zm34.44-8.4a31.863,31.863,0,0,1-5.64,1.08v-1.47a20.96,20.96,0,0,1,.18-3.48h-4.44a22.956,22.956,0,0,1,.18,3.72v1.5a2.944,2.944,0,0,1-.6.03c-1.11.03-1.2.03-1.47.03a19.94,19.94,0,0,1-3.78-.27l.03,3.99c.33-.03.6-.03.75-.03H333c1.56.06,1.62.06,1.89.06.39,0,1.2-.03,2.7-.06v4.11a17.078,17.078,0,0,0-4.41,2.58,6.763,6.763,0,0,0-2.67,4.74,5.011,5.011,0,0,0,2.52,4.14,9.965,9.965,0,0,0,5.34,1.71A3.234,3.234,0,0,0,341.13.3c.42-.6.51-1.23.51-3.48V-8.82a16.974,16.974,0,0,1,5.19-.81c3.15,0,5.1,1.5,5.1,3.87a2.7,2.7,0,0,1-2.61,2.94c-1.38,0-1.98-.93-1.98-3.09a9.034,9.034,0,0,1,.15-1.65,14.8,14.8,0,0,1-3.96,1.62,5.625,5.625,0,0,0-.03.63c0,4.32,2.01,6.72,5.64,6.72a6.944,6.944,0,0,0,7.14-7.17,7.183,7.183,0,0,0-3.03-5.94,11.23,11.23,0,0,0-6.36-1.62,20.157,20.157,0,0,0-5.28.63v-3.27c1.38-.15,2.19-.27,3.69-.51a19.045,19.045,0,0,1,2.13-.33ZM337.59-3.84c0,.99-.12,1.23-.57,1.23a3.408,3.408,0,0,1-1.65-.57,1.455,1.455,0,0,1-.84-1.17c0-.99,1.23-2.25,3.06-3.15Zm20.04-12.63a25.663,25.663,0,0,0-6-6.45l-3.3,2.34a26.349,26.349,0,0,1,5.97,6.75Zm3.12-.36c2.58-.36,6.48-.57,13.62-.78v1.83a4.424,4.424,0,0,1,.03.48,5.443,5.443,0,0,0-2.82-.66c-3.72,0-6.36,2.34-6.36,5.61a4.925,4.925,0,0,0,2.01,4.11,5.906,5.906,0,0,0,3.6,1.2,5.189,5.189,0,0,0,4.23-1.68,4.246,4.246,0,0,1-1.62,2.46c-1.5,1.29-3.6,2.1-6.78,2.64a11.359,11.359,0,0,1,2.49,4.05,20.25,20.25,0,0,0,5.7-2.46,9.473,9.473,0,0,0,4.74-8.28,9.13,9.13,0,0,0-1.11-4.53v-.69l.03-2.46v-.99l-.03-.69c1.53-.03,1.77-.03,3.36-.03,3.21,0,3.93.03,5.22.12l-.03-4.14c-1.2.12-3.51.18-8.58.21a23.078,23.078,0,0,1,.18-3.33H374.1a22.023,22.023,0,0,1,.21,3.42c-8.46.24-11.46.33-12.12.33a15.211,15.211,0,0,1-1.56-.06Zm11.28,4.14c1.41,0,2.34.75,2.34,1.83a2.421,2.421,0,0,1-2.61,2.25,2.08,2.08,0,0,1-2.28-1.98A2.294,2.294,0,0,1,372.03-12.69Zm18.72-4.14c2.58-.36,6.48-.57,13.62-.78v1.83a4.424,4.424,0,0,1,.03.48,5.443,5.443,0,0,0-2.82-.66c-3.72,0-6.36,2.34-6.36,5.61a4.925,4.925,0,0,0,2.01,4.11,5.906,5.906,0,0,0,3.6,1.2,5.189,5.189,0,0,0,4.23-1.68,4.246,4.246,0,0,1-1.62,2.46c-1.5,1.29-3.6,2.1-6.78,2.64a11.359,11.359,0,0,1,2.49,4.05,20.25,20.25,0,0,0,5.7-2.46,9.473,9.473,0,0,0,4.74-8.28,9.13,9.13,0,0,0-1.11-4.53v-.69l.03-2.46v-.99l-.03-.69c1.53-.03,1.77-.03,3.36-.03,3.21,0,3.93.03,5.22.12l-.03-4.14c-1.2.12-3.51.18-8.58.21a23.078,23.078,0,0,1,.18-3.33H404.1a22.023,22.023,0,0,1,.21,3.42c-8.46.24-11.46.33-12.12.33a15.211,15.211,0,0,1-1.56-.06Zm11.28,4.14c1.41,0,2.34.75,2.34,1.83a2.421,2.421,0,0,1-2.61,2.25,2.08,2.08,0,0,1-2.28-1.98A2.294,2.294,0,0,1,402.03-12.69Zm21.18-10.14a8.035,8.035,0,0,1,.33,1.05c.57,2.73.9,4.26,1.02,4.65a11.685,11.685,0,0,0-4.8,9.39c0,4.32,2.25,7.23,5.61,7.23,2.31,0,4.5-1.44,6.81-4.5a36.439,36.439,0,0,0,5.28-10.83c2.82.96,4.2,2.73,4.2,5.43,0,4.59-3.48,7.26-10.08,7.71a10,10,0,0,1,2.22,4.29A25.768,25.768,0,0,0,438.96.12c4.53-1.89,7.14-5.58,7.14-10.17a9.236,9.236,0,0,0-3.54-7.53,11.06,11.06,0,0,0-4.05-1.92c.15-.45.57-1.98.93-3.39a6.068,6.068,0,0,1,.3-.87l-4.47-.87a22.887,22.887,0,0,1-.84,4.56,7.119,7.119,0,0,0-.72-.03,13.8,13.8,0,0,0-5.49,1.11,29.107,29.107,0,0,1-.69-4.65Zm2.46,10.05a30.63,30.63,0,0,0,2.28,6.39c-.84,1.05-1.62,1.59-2.37,1.59-1.14,0-1.86-1.26-1.86-3.21A7.268,7.268,0,0,1,425.67-12.78Zm3.3-2.49a8.587,8.587,0,0,1,4.41-1.08,29.662,29.662,0,0,1-2.7,6.36A38.36,38.36,0,0,1,428.97-15.27Z" transform="translate(-23583 -21877)"></path></g></svg>