<svg xmlns="http://www.w3.org/2000/svg" width="406" height="132" viewBox="0 0 406 132"><g id="&#x30B0;&#x30EB;&#x30FC;&#x30D7;_20884" data-name="&#x30B0;&#x30EB;&#x30FC;&#x30D7; 20884" transform="translate(23519 21426.844)"><rect id="&#x9577;&#x65B9;&#x5F62;_1" data-name="&#x9577;&#x65B9;&#x5F62; 1" width="406" height="110" transform="translate(-23519 -21426.844)" fill="#fff"></rect><path id="&#x9577;&#x65B9;&#x5F62;_1_-_&#x30A2;&#x30A6;&#x30C8;&#x30E9;&#x30A4;&#x30F3;" data-name="&#x9577;&#x65B9;&#x5F62; 1 - &#x30A2;&#x30A6;&#x30C8;&#x30E9;&#x30A4;&#x30F3;" d="M3,3V107H403V3H3M0,0H406V110H0Z" transform="translate(-23519 -21426.844)" fill="#191722"></path><g id="&#x30B0;&#x30EB;&#x30FC;&#x30D7;_6482" data-name="&#x30B0;&#x30EB;&#x30FC;&#x30D7; 6482" transform="translate(-23451.107 -21399.518)"><g id="&#x30B0;&#x30EB;&#x30FC;&#x30D7;_6475" data-name="&#x30B0;&#x30EB;&#x30FC;&#x30D7; 6475" transform="translate(0 0)"><g id="&#x30B0;&#x30EB;&#x30FC;&#x30D7;_6474" data-name="&#x30B0;&#x30EB;&#x30FC;&#x30D7; 6474"><g id="&#x30B0;&#x30EB;&#x30FC;&#x30D7;_68" data-name="&#x30B0;&#x30EB;&#x30FC;&#x30D7; 68"><g id="&#x30B0;&#x30EB;&#x30FC;&#x30D7;_65" data-name="&#x30B0;&#x30EB;&#x30FC;&#x30D7; 65" transform="translate(0 6.147)"><g id="&#x30B0;&#x30EB;&#x30FC;&#x30D7;_6320" data-name="&#x30B0;&#x30EB;&#x30FC;&#x30D7; 6320" transform="translate(108.828 7.231)"><path id="&#x30D1;&#x30B9;_685" data-name="&#x30D1;&#x30B9; 685" d="M0,0V16.135" transform="translate(1.871 0)" fill="rgba(0,0,0,0)"></path><path id="&#x30D1;&#x30B9;_685_-_&#x30A2;&#x30A6;&#x30C8;&#x30E9;&#x30A4;&#x30F3;" data-name="&#x30D1;&#x30B9; 685 - &#x30A2;&#x30A6;&#x30C8;&#x30E9;&#x30A4;&#x30F3;" d="M-13.757,16.135H-17.5V0h3.743Z" transform="translate(17.5 0)" fill="#333"></path><path id="&#x7DDA;_38" data-name="&#x7DDA; 38" d="M3.743,11.444H0V0H3.743Z" transform="translate(11.637 3.322) rotate(90)" fill="#333"></path></g><path id="&#x30D1;&#x30B9;_47" data-name="&#x30D1;&#x30B9; 47" d="M187.051-109.805,182.95-97.2,177.4-109.805h-4.311L178.64-97.2h4.31l-3.555,10.931h4.311l7.664-23.541Z" transform="translate(-155.237 113.1)" fill="#333"></path><g id="&#x30B0;&#x30EB;&#x30FC;&#x30D7;_437" data-name="&#x30B0;&#x30EB;&#x30FC;&#x30D7; 437"><path id="&#x7DDA;_37" data-name="&#x7DDA; 37" d="M-13.757,22.991H-17.5V0h3.743Z" transform="translate(17.5)" fill="#333"></path><path id="&#x9577;&#x65B9;&#x5F62;_222" data-name="&#x9577;&#x65B9;&#x5F62; 222" d="M3.743,3.743v6.844h6.844V3.743H3.743M0,0H14.33V14.33H0Z" transform="translate(0 8.715)" fill="#333"></path></g><g id="&#x30B0;&#x30EB;&#x30FC;&#x30D7;_438" data-name="&#x30B0;&#x30EB;&#x30FC;&#x30D7; 438" transform="translate(91.504 6.91)"><path id="&#x7DDA;_38-2" data-name="&#x7DDA; 38" d="M-13.757,16.135H-17.5V0h3.743Z" transform="translate(17.5 0)" fill="#333"></path><path id="&#x30D1;&#x30B9;_11923" data-name="&#x30D1;&#x30B9; 11923" transform="translate(12.813 1.789) rotate(180)" fill="#333"></path></g></g><path id="&#x30D1;&#x30B9;_44" data-name="&#x30D1;&#x30B9; 44" d="M24.073,24.788v-3.83H10.35v3.83Z" transform="translate(131.66 12.16)" fill="#f6c44c"></path><g id="&#x30B0;&#x30EB;&#x30FC;&#x30D7;_69" data-name="&#x30B0;&#x30EB;&#x30FC;&#x30D7; 69" transform="translate(41.039)"><path id="&#x30D1;&#x30B9;_46" data-name="&#x30D1;&#x30B9; 46" d="M6.374-139.23h3.742v-18.03h7.131V-161H-.69v3.741H6.374Z" transform="translate(14.11 168.559)" fill="#333"></path><path id="&#x9577;&#x65B9;&#x5F62;_22" data-name="&#x9577;&#x65B9;&#x5F62; 22" d="M3.208,3.208V33.741H93.592V3.208H3.208M0,0H96.8V36.949H0Z" transform="translate(0)" fill="#333"></path></g></g></g><path id="&#x30D1;&#x30B9;_11924" data-name="&#x30D1;&#x30B9; 11924" d="M11.68-90.566h3.964v.317a6.548,6.548,0,0,1-.255,1.914,4.067,4.067,0,0,1-.839,1.442,4.347,4.347,0,0,1-3.4,1.5A4.672,4.672,0,0,1,7.7-86.844a4.821,4.821,0,0,1-1.436-3.5,4.81,4.81,0,0,1,1.46-3.541,4.837,4.837,0,0,1,3.554-1.461,4.864,4.864,0,0,1,2.1.46A6.058,6.058,0,0,1,15.216-93.4l-1.032.988a3.5,3.5,0,0,0-2.877-1.572,3.437,3.437,0,0,0-2.554,1.05,3.506,3.506,0,0,0-1.032,2.585,3.4,3.4,0,0,0,1.15,2.641,3.43,3.43,0,0,0,2.33.963,2.893,2.893,0,0,0,1.92-.721,2.565,2.565,0,0,0,.951-1.74H11.68ZM27.849-93.8H24V-91.5h3.734v1.361H24v3.206h3.846v1.361H22.555v-9.594h5.294Zm6.992,8.233V-95.816l7,7.32v-6.667h1.448v10.178l-7-7.3v6.717ZM55.968-93.8H52.122V-91.5h3.734v1.361H52.122v3.206h3.846v1.361H50.674v-9.594h5.294ZM66.21-89.658l2.97,4.089H67.409L64.669-89.5h-.261v3.927H62.96v-9.594h1.7a4.238,4.238,0,0,1,2.746.715,2.625,2.625,0,0,1,.932,2.1,2.726,2.726,0,0,1-.584,1.752,2.6,2.6,0,0,1-1.541.938Zm-1.8-1.1h.46q2.057,0,2.057-1.572,0-1.473-2-1.473h-.516ZM81.347-87.9H77.24l-1.069,2.33h-1.56l4.747-10.2,4.579,10.2H82.354Zm-.59-1.361-1.423-3.262-1.491,3.262ZM92.34-93.8v8.233H90.893V-93.8H88.687v-1.361H94.54V-93.8Zm10.03-1.361v9.594h-1.448v-9.594Zm7.88,0,2.653,6.649,2.691-6.649h1.584l-4.306,10.315-4.207-10.315ZM128.756-93.8H124.91V-91.5h3.734v1.361H124.91v3.206h3.847v1.361h-5.294v-9.594h5.294ZM150.4-87.9h-4.107l-1.069,2.33h-1.56l4.747-10.2,4.579,10.2h-1.584Zm-.59-1.361-1.423-3.262L146.9-89.261Zm10.918-5.9v9.594h-1.448v-9.594Z" transform="translate(-6.132 139.601)" fill="#333"></path></g><g id="&#x30B0;&#x30EB;&#x30FC;&#x30D7;_6478" data-name="&#x30B0;&#x30EB;&#x30FC;&#x30D7; 6478" transform="translate(108.756 8.048)"><rect id="&#x9577;&#x65B9;&#x5F62;_3359" data-name="&#x9577;&#x65B9;&#x5F62; 3359" width="3.85" height="21.494" fill="#333"></rect><rect id="&#x9577;&#x65B9;&#x5F62;_3360" data-name="&#x9577;&#x65B9;&#x5F62; 3360" width="3.85" height="13.061" transform="translate(13.329 8.608) rotate(90)" fill="#333"></rect><rect id="&#x9577;&#x65B9;&#x5F62;_3361" data-name="&#x9577;&#x65B9;&#x5F62; 3361" width="3.85" height="12.886" transform="translate(9.479 8.608)" fill="#333"></rect></g><g id="&#x30B0;&#x30EB;&#x30FC;&#x30D7;_6479" data-name="&#x30B0;&#x30EB;&#x30FC;&#x30D7; 6479" transform="translate(91.378 13.021)"><rect id="&#x9577;&#x65B9;&#x5F62;_3362" data-name="&#x9577;&#x65B9;&#x5F62; 3362" width="3.85" height="13.061" transform="translate(13.061) rotate(90)" fill="#333"></rect><rect id="&#x9577;&#x65B9;&#x5F62;_3363" data-name="&#x9577;&#x65B9;&#x5F62; 3363" width="3.85" height="13.061" transform="translate(3.85 16.262) rotate(180)" fill="#333"></rect><rect id="&#x9577;&#x65B9;&#x5F62;_3364" data-name="&#x9577;&#x65B9;&#x5F62; 3364" width="3.85" height="13.061" transform="translate(0 16.262) rotate(-90)" fill="#333"></rect></g><g id="&#x30B0;&#x30EB;&#x30FC;&#x30D7;_6481" data-name="&#x30B0;&#x30EB;&#x30FC;&#x30D7; 6481" transform="translate(74.053 13.021)"><rect id="&#x9577;&#x65B9;&#x5F62;_3366" data-name="&#x9577;&#x65B9;&#x5F62; 3366" width="3.85" height="16.262" transform="translate(3.85 16.262) rotate(180)" fill="#333"></rect><g id="&#x30B0;&#x30EB;&#x30FC;&#x30D7;_6480" data-name="&#x30B0;&#x30EB;&#x30FC;&#x30D7; 6480" transform="translate(0)"><rect id="&#x9577;&#x65B9;&#x5F62;_3367" data-name="&#x9577;&#x65B9;&#x5F62; 3367" width="3.85" height="13.375" transform="translate(13.375) rotate(90)" fill="#333"></rect><rect id="&#x9577;&#x65B9;&#x5F62;_3368" data-name="&#x9577;&#x65B9;&#x5F62; 3368" width="3.85" height="13.375" transform="translate(13.375 5.882) rotate(90)" fill="#333"></rect><rect id="&#x9577;&#x65B9;&#x5F62;_3370" data-name="&#x9577;&#x65B9;&#x5F62; 3370" width="3.85" height="13.375" transform="translate(13.375 12.412) rotate(90)" fill="#333"></rect><rect id="&#x9577;&#x65B9;&#x5F62;_3369" data-name="&#x9577;&#x65B9;&#x5F62; 3369" width="3.85" height="9.731" transform="translate(13.375 9.731) rotate(180)" fill="#333"></rect></g></g></g><path id="&#x30D1;&#x30B9;_36594" data-name="&#x30D1;&#x30B9; 36594" d="M11.026-29.637a15.724,15.724,0,0,1,.592,2.4A94.276,94.276,0,0,0,14.1-17.2a22.838,22.838,0,0,0-5.032,3.182A8.689,8.689,0,0,0,5.772-7.4,7,7,0,0,0,8.991-1.221C11.359.185,14.578.814,19.721.814A78.192,78.192,0,0,0,28.379.259a23.065,23.065,0,0,1,3-.259l-.407-5.069A40.508,40.508,0,0,1,19.018-3.552c-5.957,0-8.473-1.147-8.473-3.848,0-2.664,2.7-5.032,8.1-7.03a90.4,90.4,0,0,1,12.21-3.552l-1.591-4.662a10.126,10.126,0,0,1-1.406.555c-7.178,2.368-7.178,2.368-9.583,3.256a62.141,62.141,0,0,1-2.442-11.581Zm39.22,11.026a.651.651,0,0,1,.222-.037,1.7,1.7,0,0,1,.37.037,5.509,5.509,0,0,1,.629.037c.185,0,.592.037,1.11.037,1.739.148,3.219.185,4.588.185.962,0,1.85-.037,3.33-.074.148,5.143.185,6.956.3,7.881a8.8,8.8,0,0,0-3.293-.518c-4.477,0-7.622,2.516-7.622,6.1,0,3.774,2.96,6.068,7.807,6.068,3.589,0,6.179-1.3,7.03-3.478a6.473,6.473,0,0,0,.3-2.072v-.518c.222.148,1.073.7,2.331,1.517a13.862,13.862,0,0,1,2.775,2.368L71.891-5.55a7.039,7.039,0,0,1-1.036-.629,29.5,29.5,0,0,0-5.809-3.367c-.37-6.216-.37-6.29-.37-8.362v-.814c1.961-.222,3.885-.555,5.143-.814a6.394,6.394,0,0,1,1.073-.185L70.744-23.9l-.3.074c-.592.222-.592.222-.814.3a37.2,37.2,0,0,1-5,.888v-1.7a36.2,36.2,0,0,1,.259-5.439l-4.625.111a10.351,10.351,0,0,1,.111,1.776c0,1.517.037,3.367.037,5.55-1.3.074-2.109.074-3.4.074a26.665,26.665,0,0,1-6.7-.592ZM60.865-6.771v1a3.105,3.105,0,0,1-.481,2,3.637,3.637,0,0,1-3,1.147c-2.072,0-3.4-.925-3.4-2.294,0-1.517,1.48-2.442,3.848-2.442A7.745,7.745,0,0,1,60.865-6.771ZM46.4,1.11a7.249,7.249,0,0,1-.074-1c0-2.442,1.48-7.03,3.663-11.322L46.916-12.58a7.051,7.051,0,0,1-.444,1.147c-.37.888-.37.888-.7,1.665-.185.592-.37,1-.444,1.258-.259.666-.259.666-.444,1.073h-.037a6.3,6.3,0,0,0,.037-.777v-.592c0-.592,0-.592.037-1.924.037-6.438,1.443-15.355,2.96-18.574l-4.995-.518v.148a19.861,19.861,0,0,1-.407,2.738c-.814,4.181-.814,4.181-1,5.291a66.134,66.134,0,0,0-.7,9.8,70.166,70.166,0,0,0,1,11.766,13.5,13.5,0,0,1,.185,1.443ZM94.276-7.474a17.658,17.658,0,0,1-.111-1.887c0-1.961.592-2.849,2.886-4.4,3-2.035,3.7-2.627,4.551-3.811a6.953,6.953,0,0,0,1.3-4.366,6.365,6.365,0,0,0-2.627-5.18,11.566,11.566,0,0,0-7.437-2.22c-3.478,0-6.29.888-8.177,2.59a9.358,9.358,0,0,0-2.923,5.587l5.476.666A5.368,5.368,0,0,1,88.1-23.31a5.184,5.184,0,0,1,4.44-2.109c3.145,0,5.106,1.406,5.106,3.663,0,1.7-.851,2.849-3.256,4.44s-2.7,1.85-3.478,2.775a7.411,7.411,0,0,0-1.517,4.81l.037.7a12.731,12.731,0,0,1-.111,1.554ZM89.1-4.4V.666h5.365V-4.4Z" transform="translate(-23283.049 -21349.168)" fill="#191722"></path><path id="&#x9577;&#x65B9;&#x5F62;_2" data-name="&#x9577;&#x65B9;&#x5F62; 2" d="M0,0H4V25H0Z" transform="translate(-23320 -21319.844)" fill="#191722"></path><rect id="&#x9577;&#x65B9;&#x5F62;_3" data-name="&#x9577;&#x65B9;&#x5F62; 3" width="29" height="11" transform="translate(-23316 -21326.844)" fill="#fff"></rect></g></svg>