<svg xmlns="http://www.w3.org/2000/svg" width="8774.105" height="1516.625" viewBox="0 0 8774.105 1516.625"><g id="&#x30B0;&#x30EB;&#x30FC;&#x30D7;_18722" data-name="&#x30B0;&#x30EB;&#x30FC;&#x30D7; 18722" transform="translate(-7049.949 -20176.625)"><g id="&#x30B0;&#x30EB;&#x30FC;&#x30D7;_18720" data-name="&#x30B0;&#x30EB;&#x30FC;&#x30D7; 18720" transform="translate(0 2066.625)"><g id="&#x30B0;&#x30EB;&#x30FC;&#x30D7;_1207" data-name="&#x30B0;&#x30EB;&#x30FC;&#x30D7; 1207" transform="translate(218 877.688)"><g id="&#x30B0;&#x30EB;&#x30FC;&#x30D7;_1138" data-name="&#x30B0;&#x30EB;&#x30FC;&#x30D7; 1138" transform="translate(-1796.947 -1003.375)"><g id="&#x30B0;&#x30EB;&#x30FC;&#x30D7;_1139" data-name="&#x30B0;&#x30EB;&#x30FC;&#x30D7; 1139" transform="translate(28)"><g id="&#x30B0;&#x30EB;&#x30FC;&#x30D7;_1134" data-name="&#x30B0;&#x30EB;&#x30FC;&#x30D7; 1134" transform="translate(0 3070)"><g id="&#x30B0;&#x30EB;&#x30FC;&#x30D7;_1131" data-name="&#x30B0;&#x30EB;&#x30FC;&#x30D7; 1131"><g id="&#x30B0;&#x30EB;&#x30FC;&#x30D7;_1127" data-name="&#x30B0;&#x30EB;&#x30FC;&#x30D7; 1127" transform="translate(8519.196 14924)"><g id="&#x30B0;&#x30EB;&#x30FC;&#x30D7;_1114" data-name="&#x30B0;&#x30EB;&#x30FC;&#x30D7; 1114" transform="translate(81.698 241.688)"><path id="&#x30D1;&#x30B9;_24163" data-name="&#x30D1;&#x30B9; 24163" d="M492.932,1634.5q-5.881.25-11.694.914c-3.876.471-7.728,1.136-11.465,1.579a135.052,135.052,0,0,0-22.005,4.957c-1.776.553-3.529,1.163-5.282,1.772-1.707.554-3.414,1.136-5.1,1.773-3.39,1.246-6.689,2.631-9.9,4.181a100.565,100.565,0,0,0-17.969,11.133,205.224,205.224,0,0,1-35.706,21.461,184.116,184.116,0,0,1-18.615,7.644c-6.113,2.215-12.087,4.126-17.761,5.788-2.814.831-5.582,1.606-8.212,2.3-2.652.581-5.167,1.136-7.52,1.634-4.774,1-9.042,1.772-12.594,2.354-7.127,1.163-11.418,1.634-11.418,1.634a238.518,238.518,0,0,0,26.158,18.138c7.2,3.988,14.739,7.92,22.536,11.576,1.107.5,2.214,1.025,3.344,1.523,1.522.692,3.022,1.357,4.545,2.022.069.027.115.055.184.083,10.7,4.154,21.751,8.141,32.985,11.382,11.4,2.88,22.858,5.594,34.253,7.449a231.616,231.616,0,0,0,34.969,2.492,217.086,217.086,0,0,0,32.362-3.461,191.583,191.583,0,0,0,28.833-8.862,95.958,95.958,0,0,0,12.871-6.147c4.106-2.244,8.027-4.653,11.741-7.146q5.571-3.778,10.541-7.892c1.661-1.384,3.253-2.769,4.8-4.181,1.545-1.5,3.045-3.047,4.5-4.6a112.719,112.719,0,0,0,14.739-19.606,98.163,98.163,0,0,0,13.54-44.17l.093-1.384-2.007-.859A232.949,232.949,0,0,0,492.932,1634.5Z" transform="translate(77.115 -241.688)" fill="#f5c04b"></path><path id="&#x30D1;&#x30B9;_24164" data-name="&#x30D1;&#x30B9; 24164" d="M667.66,1674.984c8.973-.276,17.3-.969,25.327-3.157a108.906,108.906,0,0,0,22.005-8.086,92.926,92.926,0,0,0,9.527-5.538,85.532,85.532,0,0,0,8.58-6.785,83.287,83.287,0,0,0,23.251-35.226l.439-1.218-1.615-1.44c-12.594-10.855-25.95-20.8-39.974-28.468A167.025,167.025,0,0,0,694,1574.21a208.2,208.2,0,0,0-21.475-8.557c-7.289-2.187-14.37-4.431-21.5-5.982-3.552-.747-7.1-1.384-10.634-1.855-1.776-.249-3.552-.443-5.3-.609-1.73-.222-3.437-.444-5.167-.581a104.581,104.581,0,0,0-20.183.027,92.5,92.5,0,0,0-9.688,1.523,72.221,72.221,0,0,0-9.134,2.3,162.23,162.23,0,0,1-18.384,4.707c-3.137.609-6.32,1.163-9.5,1.634-3.206.5-6.39.858-9.5,1.052a260.8,260.8,0,0,1-36.006.111c-10.818-1-20.253-2.492-26.988-3.738-6.712-1.219-10.7-2.188-10.7-2.188a297.249,297.249,0,0,0,19.353,24.868c3.529,4.265,7.474,8.086,11.441,12.047q5.985,5.9,12.364,11.714c2.121,1.883,4.221,3.877,6.458,5.676,2.237,1.773,4.5,3.573,6.759,5.373,4.543,3.545,9.157,7.034,13.817,10.413,2.352,1.689,4.659,3.433,7.058,5.012,2.422,1.523,4.843,3.074,7.266,4.6q7.3,4.527,14.6,8.779c20.6,11.575,41.219,19.024,60.664,22.293a112.083,112.083,0,0,0,14.255,1.883C658.572,1675.013,663.185,1675.1,667.66,1674.984Z" transform="translate(-271.118 -241.688)" fill="#f5c04b"></path><path id="&#x30D1;&#x30B9;_24165" data-name="&#x30D1;&#x30B9; 24165" d="M775.772,1537.656c2.03.831,4.106,1.523,6.136,2.215a128.792,128.792,0,0,0,23.551,5.649c30.54,3.628,55.175-6.812,70.375-28.412l.692-.97-1.13-1.827a257.036,257.036,0,0,0-63.271-71.475,165.687,165.687,0,0,0-17.969-12.684c-3.044-1.883-6.205-3.545-9.226-5.206-3.022-1.717-6.067-3.268-9.112-4.652a104.485,104.485,0,0,0-18.383-6.536,81.509,81.509,0,0,0-17.807-2.8,158,158,0,0,1-17.762-1.662c-3-.443-6.02-1-9.018-1.578-2.93-.665-5.836-1.412-8.743-2.188a252.756,252.756,0,0,1-32.639-11.465c-9.572-4.375-17.784-8.695-23.6-11.963-5.812-3.24-9.226-5.372-9.226-5.372,3.3,9.249,7.312,18.859,11.925,28.634,1.154,2.437,2.307,4.93,3.575,7.338,1.338,2.382,2.653,4.791,4.014,7.2,2.722,4.818,5.559,9.665,8.534,14.483,5.767,9.8,12.618,18.942,19.468,28.108,3.484,4.514,6.851,9.139,10.611,13.376,3.691,4.265,7.45,8.474,11.188,12.572,3.967,4.293,7.865,8.475,11.948,12.268,4.129,3.767,8.281,7.311,12.409,10.662s8.258,6.48,12.364,9.415c4.175,2.853,8.443,5.345,12.594,7.727,4.175,2.354,8.327,4.486,12.41,6.425C771.736,1535.883,773.766,1536.8,775.772,1537.656Z" transform="translate(-549.668 -241.688)" fill="#f5c04b"></path><path id="&#x30D1;&#x30B9;_24166" data-name="&#x30D1;&#x30B9; 24166" d="M856.066,1353.3c1.638,1.33,3.275,2.576,4.89,3.8,1.661,1.19,3.367,2.3,5.028,3.378q5.017,3.2,9.965,5.732a95.728,95.728,0,0,0,19.329,7.616,70.525,70.525,0,0,0,18.592,2.022,55.712,55.712,0,0,0,32.085-11.188l.831-.637-.554-2.049a305.338,305.338,0,0,0-16.861-45.611c-3.622-7.061-6.966-14.289-10.911-20.963-3.875-6.757-8.188-13.071-12.294-19.357a176.257,176.257,0,0,0-13.425-17.364,168.277,168.277,0,0,0-14.163-15.037,126.008,126.008,0,0,0-15.108-11.963,77.263,77.263,0,0,0-15.432-8.419c-21.105-8.086-41.842-23.511-57.711-37.413-7.635-7.006-14.071-13.569-18.569-18.36-4.521-4.791-7.1-7.782-7.1-7.782,2.883,37.662,17.3,83.66,36.906,122.9a233.031,233.031,0,0,0,34.945,52.339A201.252,201.252,0,0,0,856.066,1353.3Z" transform="translate(-745.939 -241.688)" fill="#f5c04b"></path><path id="&#x30D1;&#x30B9;_24167" data-name="&#x30D1;&#x30B9; 24167" d="M886.821,1132.565c4.706,6.868,9.319,13.071,14.6,18.305,10.334,10.5,21.014,17.751,31.578,21.573,10.864,3.711,21.5,4.016,31.624.969l.877-.277v-2.021c-.024-3.933-.231-7.81-.416-11.715q-.207-5.94-.691-11.8c-.646-7.809-1.869-15.507-3.23-23.123a210.956,210.956,0,0,0-4.774-22.57c-.923-3.683-2.145-7.283-3.114-10.911-1.015-3.6-2.1-7.144-3.3-10.634a202.677,202.677,0,0,0-8.073-20.1,163.632,163.632,0,0,0-9.18-18.249,139.036,139.036,0,0,0-10.865-15.73,83.655,83.655,0,0,0-11.9-12.628c-4.221-3.572-8.373-7.5-12.433-11.686a166.119,166.119,0,0,1-11.6-13.154A327.128,327.128,0,0,1,866.5,961.479c-1.385-2.215-2.7-4.32-3.968-6.342-1.2-2.077-2.306-4.071-3.367-5.926-2.123-3.766-3.921-7.173-5.421-10-2.953-5.705-4.613-9.194-4.613-9.194-5.9,34.45-3.137,79.949,5.3,121.35,1.13,5.428,2.376,10.745,3.691,15.923.669,2.576,1.337,5.151,2.052,7.671.739,2.493,1.592,4.957,2.423,7.394a281.755,281.755,0,0,0,10.956,27.25A182.243,182.243,0,0,0,886.821,1132.565Z" transform="translate(-845.986 -241.688)" fill="#f5c04b"></path><path id="&#x30D1;&#x30B9;_24168" data-name="&#x30D1;&#x30B9; 24168" d="M870.309,874.3a196.22,196.22,0,0,0,6.412,24.757,165.237,165.237,0,0,0,8.9,21.1c13.379,25.615,31.509,40.043,51.116,41.483l.853.056.462-1.8c7.4-28.024,9.526-58.154,7.289-86.346a193.044,193.044,0,0,0-2.446-20.631c-.622-3.378-1.245-6.674-1.891-9.886-.669-3.24-1.453-6.4-2.283-9.5a154.99,154.99,0,0,0-6.114-17.64,90.134,90.134,0,0,0-7.911-15.176c-2.976-4.569-5.859-9.471-8.558-14.511-2.606-5.04-5.051-10.246-7.358-15.507-2.283-5.235-4.4-10.552-6.343-15.73-1.914-5.179-3.506-10.192-5.006-14.982-2.906-9.527-5.235-18.029-6.573-24.065-1.338-6.01-2.007-9.665-2.007-9.665-1.592,3.628-3.183,7.422-4.636,11.409q-2.112,5.982-4.037,12.435-1.938,6.438-3.714,13.209c-1.13,4.542-2.076,9.222-3.022,13.957s-1.845,9.554-2.652,14.4-1.361,9.831-1.961,14.761c-.576,4.957-1.107,9.942-1.568,14.9-.438,4.985-.623,10-.877,14.927q-.345,7.809-.323,15.37c0,5.04.346,10.024.669,14.87A207.837,207.837,0,0,0,870.309,874.3Z" transform="translate(-846.749 -241.688)" fill="#f5c04b"></path><path id="&#x30D1;&#x30B9;_24169" data-name="&#x30D1;&#x30B9; 24169" d="M820.842,695.434c.715,3.406,1.522,6.646,2.445,9.775.969,3.158,2.03,6.176,3.206,9.056a86.054,86.054,0,0,0,8,15.508c6,9.139,13.425,15.841,21.959,19.856l.739.332.853-1.44c13.309-22.348,22.282-48.49,26.826-74.327a177.925,177.925,0,0,0,2.583-19.219c.439-6.4.877-12.517.739-18.637a145.183,145.183,0,0,0-1.407-17.7,95.757,95.757,0,0,0-3.622-16.145c-1.615-5.04-3.068-10.3-4.359-15.674-1.246-5.373-2.215-10.772-3.091-16.2a284.851,284.851,0,0,1-3.322-30.961c-.507-9.388-.623-17.612-.6-23.483.07-5.816.3-9.222.3-9.222-17.691,21.572-33.93,55.58-44.426,90.057-1.384,4.514-2.652,9.028-3.782,13.458-1.154,4.459-1.984,8.973-2.815,13.376a207.08,207.08,0,0,0-3.206,25.81,209.27,209.27,0,0,0-.046,24.037A172.879,172.879,0,0,0,820.842,695.434Z" transform="translate(-740.216 -241.688)" fill="#f5c04b"></path><path id="&#x30D1;&#x30B9;_24170" data-name="&#x30D1;&#x30B9; 24170" d="M720.7,557.69l.577.554,1.107-.969c16.839-15.37,31.07-35.392,41.035-56.743a160.335,160.335,0,0,0,6.62-16.228,137.6,137.6,0,0,0,4.913-16.283c2.445-10.994,3.829-21.49,3.114-31.626-.322-4.984-.461-10.163-.392-15.313.115-5.124.415-10.247.831-15.342a275.075,275.075,0,0,1,3.783-28.5c1.614-8.5,3.3-15.784,4.567-20.963.646-2.6,1.176-4.652,1.591-6.009.369-1.219.577-1.938.6-2.105-20.276,13.514-42,38.272-58.935,65.189a199.755,199.755,0,0,0-11.833,21.434,224.415,224.415,0,0,0-8.65,21.629c-4.521,14.566-7.358,28.3-7.773,41.373-.554,12.932.761,24.646,4.083,34.864C709.164,542.819,714.146,551.238,720.7,557.69Z" transform="translate(-525.27 -241.688)" fill="#f5c04b"></path><path id="&#x30D1;&#x30B9;_24171" data-name="&#x30D1;&#x30B9; 24171" d="M546.66,404.687l1.177-.5c18.591-7.505,35.453-20.936,49.246-36.278,6.735-7.948,12.848-16.034,17.485-24.951,4.659-8.806,8.188-17.668,9.826-26.862a177.207,177.207,0,0,1,7.15-26.89,236.806,236.806,0,0,1,9.55-23.954c6.527-13.957,12.248-23.566,12.248-23.566-20.714,5.566-45.21,20.381-66.062,38.464-21.982,18.915-36.814,42.758-43.78,64.857-6.758,22.542-5.836,43.173,2.791,58.986Z" transform="translate(-226.883 -241.688)" fill="#f5c04b"></path><path id="&#x30D1;&#x30B9;_24172" data-name="&#x30D1;&#x30B9; 24172" d="M467.628,1551.225a156.329,156.329,0,0,0-10.564-20.409c-.992-1.607-2.007-3.212-3.068-4.791-1.038-1.662-2.1-3.323-3.207-4.93q-3.252-4.86-6.827-9.47c-2.353-3.075-4.821-6.038-7.358-8.918-2.537-2.852-5.144-5.594-7.82-8.557a163.192,163.192,0,0,0-16.908-15.84,157.205,157.205,0,0,0-18.384-14.262,170.568,170.568,0,0,0-19.813-12.378C347.5,1437.3,321.064,1423.312,297.7,1417.8c0,0,1.13,3.462,3.067,9.5.947,3.046,2.1,6.757,3.414,11.021.646,2.133,1.338,4.431,2.076,6.841.761,2.326,1.569,4.791,2.4,7.338,1.638,5.151,3.414,10.773,5.282,16.7s3.737,12.462,5.813,18.72c4.037,12.684,8.119,26.641,11.695,40.487a97.638,97.638,0,0,0,7.773,19.939,107.01,107.01,0,0,0,5.536,9.444c1.015,1.523,2.053,3.073,3.16,4.568,1.108,1.441,2.261,2.825,3.437,4.21a125.766,125.766,0,0,0,16.055,15.508,70.849,70.849,0,0,0,9.272,6.48q4.845,2.991,9.965,5.566c27.38,13.708,61.195,16.256,90.12,4.126l1.869-.747-.07-1.357A134.11,134.11,0,0,0,467.628,1551.225Z" transform="translate(189.172 -241.688)" fill="#f5c04b"></path><path id="&#x30D1;&#x30B9;_24173" data-name="&#x30D1;&#x30B9; 24173" d="M463.337,1338.793s.253,3.518.692,9.665c.415,6.176.9,15.037,1.407,25.783.669,10.44,1.43,22.707,1.937,35.972.115,3.351.277,6.675.438,9.97.139,3.351.277,6.7.415,10.108.232,6.812.347,13.735.324,20.658a86.486,86.486,0,0,0,2.237,20.881,121.392,121.392,0,0,0,6.689,20.714c.715,1.69,1.477,3.434,2.284,5.1.83,1.634,1.707,3.267,2.606,4.874,1.846,3.239,3.807,6.424,5.928,9.581a110.972,110.972,0,0,0,14.44,17.751,135.574,135.574,0,0,0,17.462,15.037,155.63,155.63,0,0,0,19.79,11.382c13.886,5.926,28.533,9.693,43.134,9.167l1.892-.028.253-1.274a128.929,128.929,0,0,0,1.246-44.17c-.507-3.711-1.153-7.367-1.915-11.049-.715-3.767-1.568-7.533-2.537-11.243a188.986,188.986,0,0,0-7.174-21.906,253.806,253.806,0,0,0-49.523-79.506C504.764,1373.853,483.727,1351.726,463.337,1338.793Z" transform="translate(-85.663 -241.688)" fill="#f5c04b"></path><path id="&#x30D1;&#x30B9;_24174" data-name="&#x30D1;&#x30B9; 24174" d="M687.509,1356.351c-.923-3.794-1.937-7.588-3.091-11.3-1.13-3.766-2.422-7.394-3.714-11.1-1.222-3.793-2.56-7.532-4.013-11.243q-2.181-5.524-4.706-10.883c-1.637-3.628-3.229-7.394-5.028-10.994-13.747-27.471-28.072-54.832-43.872-73.358,0,0-.554,3.322-1.5,9.083-.991,5.76-2.491,14.012-4.428,23.982-1.8,9.858-3.737,21.185-6.251,33.453-1.223,6.009-2.515,12.267-3.807,18.609-1.314,6.259-2.767,12.573-4.336,18.831a92.641,92.641,0,0,0-2.814,19.8,125.268,125.268,0,0,0,1.407,20.908q.831,5.358,2.076,10.8c.831,3.6,1.984,7.062,3.183,10.607a164.817,164.817,0,0,0,8.858,21.019c14.3,27.084,37.944,49.986,64.286,59.734l1.707.608.553-1.052c12.364-23.677,15.132-53.751,11.718-83.549a203.482,203.482,0,0,0-3.622-22.624C689.239,1363.883,688.362,1360.089,687.509,1356.351Z" transform="translate(-329.51 -241.688)" fill="#f5c04b"></path><path id="&#x30D1;&#x30B9;_24175" data-name="&#x30D1;&#x30B9; 24175" d="M701.211,1257.654c6.667,29.132,22.052,58.182,43.78,75.739l1.384,1.163.739-.747c8.488-8.557,15.085-19.44,20.021-31.542a143.063,143.063,0,0,0,6.182-19.081,178.305,178.305,0,0,0,4.175-20.77c.508-3.544.9-7.116,1.2-10.716q.381-5.526.762-10.967a202.228,202.228,0,0,0,.023-22.431c-.392-15.287-2.561-30.546-5.559-46.219-6.113-29.659-13.079-59.373-23.159-81.583,0,0-1.245,2.852-3.414,7.809-2.214,4.929-5.42,11.963-9.411,20.41-7.474,16.588-17.991,39.13-29.086,59.567a87.218,87.218,0,0,0-7.082,17,103.156,103.156,0,0,0-3.529,19.358,134.287,134.287,0,0,0-.3,21.157A176.154,176.154,0,0,0,701.211,1257.654Z" transform="translate(-511.921 -241.688)" fill="#f5c04b"></path><path id="&#x30D1;&#x30B9;_24176" data-name="&#x30D1;&#x30B9; 24176" d="M817.881,1084.823c2.121-6.591,3.644-13.321,5.213-20.3a187.028,187.028,0,0,0,3.714-21.462l.553-5.483c.254-1.883.461-3.738.645-5.622.393-3.738.646-7.532.808-11.354,1.407-29.105,1.614-58.819-2.4-82.552,0,0-1.776,2.215-4.867,6.064-1.568,1.911-3.483,4.21-5.674,6.868-1.107,1.3-2.284,2.687-3.529,4.182-1.2,1.44-2.446,2.991-3.737,4.6-5.259,6.4-11.51,13.819-18.384,21.517-3.391,3.767-6.873,7.671-10.426,11.659-3.552,3.877-7.22,7.726-10.957,11.409a71.975,71.975,0,0,0-10.31,13.016,90.211,90.211,0,0,0-7.612,16.284,137.025,137.025,0,0,0-5.236,18.941,161.467,161.467,0,0,0-2.053,20.715c-.139,3.572-.185,7.2-.115,10.827a107.444,107.444,0,0,0,.853,10.884,199.484,199.484,0,0,0,3.76,21.739,155.646,155.646,0,0,0,6.989,20.714c1.361,3.323,2.837,6.591,4.406,9.748,1.637,3.156,3.483,6.148,5.351,9.083l.992,1.495.853-.415c9.642-4.735,18.107-12.157,25.327-21.3a132.773,132.773,0,0,0,18.822-32.317C813.244,1097.783,815.874,1091.358,817.881,1084.823Z" transform="translate(-607.714 -241.688)" fill="#f5c04b"></path><path id="&#x30D1;&#x30B9;_24177" data-name="&#x30D1;&#x30B9; 24177" d="M746.78,852.175a71.8,71.8,0,0,0-4.2,8.032,149.076,149.076,0,0,0-6.782,17.862c-7.4,25.227-8.1,55.468-.346,81.527l.531,1.661.876-.083c19.33-1.855,37.367-14.76,52.153-33.065,14.855-18.415,27.08-42.148,35.315-69.37,7.819-26.032,15.016-52.755,16.631-75.546,0,0-2.122,1.44-5.836,3.9-3.737,2.437-8.765,5.954-15.086,10-3.137,1.995-6.55,4.154-10.172,6.453-3.506,2.3-7.266,4.652-11.164,7.034s-7.958,4.763-12.11,7.089c-4.083,2.354-8.188,4.625-12.386,6.729a58.306,58.306,0,0,0-12.111,8.363,71.286,71.286,0,0,0-10.587,12.13C749.872,847.191,748.3,849.628,746.78,852.175Z" transform="translate(-605.399 -241.688)" fill="#f5c04b"></path><path id="&#x30D1;&#x30B9;_24178" data-name="&#x30D1;&#x30B9; 24178" d="M676.348,763.78l.785.222a54.628,54.628,0,0,0,27.241.276,75.451,75.451,0,0,0,13.655-4.652c2.238-1.025,4.452-2.16,6.666-3.379,2.237-1.218,4.5-2.52,6.713-3.932a108.63,108.63,0,0,0,12.917-9.665,137.227,137.227,0,0,0,12.433-11.714c3.852-4.292,7.957-8.751,11.648-13.652,1.892-2.41,3.6-4.985,5.467-7.533,1.845-2.575,3.621-5.206,5.328-7.948,13.1-20.935,25.742-42.84,32.339-63,0,0-2.214.637-6.089,1.689-3.806,1.108-9.25,2.6-15.8,4.238-6.666,1.578-14.07,3.572-22.167,5.317-4.036.886-8.257,1.661-12.456,2.437-4.151.8-8.372,1.5-12.594,1.993a47.743,47.743,0,0,0-12.756,3.518,60.193,60.193,0,0,0-12.224,7.338,75.716,75.716,0,0,0-11.488,10.717A119.269,119.269,0,0,0,695.793,689.7c-12.479,19.994-20.16,46.607-19.514,72.389Z" transform="translate(-522.279 -241.688)" fill="#f5c04b"></path><path id="&#x30D1;&#x30B9;_24179" data-name="&#x30D1;&#x30B9; 24179" d="M589.6,582.891l-.369,1.495.646.47a52.712,52.712,0,0,0,24.012,9.472,75.886,75.886,0,0,0,26.826-1.551,108.036,108.036,0,0,0,27.495-10.745,109.3,109.3,0,0,0,13.632-8.391,161.537,161.537,0,0,0,13.264-10.384c16.584-14.54,32.938-30.214,43.388-46.3,0,0-2.123-.111-5.813-.332-3.668-.222-8.881-.582-15.132-1.164-6.3-.692-13.355-1.246-20.99-2.27-3.806-.5-7.7-1.08-11.649-1.773-3.9-.664-7.819-1.385-11.671-2.271a45.2,45.2,0,0,0-24.7,1.579,73.843,73.843,0,0,0-12.664,5.733,88.627,88.627,0,0,0-12.087,8.861C608.1,538.887,594.955,559.712,589.6,582.891Z" transform="translate(-362.23 -241.688)" fill="#f5c04b"></path><path id="&#x30D1;&#x30B9;_24180" data-name="&#x30D1;&#x30B9; 24180" d="M519.759,399.453c-17.023,6.619-33.1,21.047-43.411,39.352L475.7,440l.439.636c10.241,13.985,25.88,21.767,42.926,23.9,17.346,2.465,36.145-.664,55.152-8.446,18.084-7.532,36.237-16.255,49.131-27.332,0,0-7.45-2.853-18.315-7.866-5.466-2.63-11.6-5.261-18.129-8.64-6.528-3.3-13.379-7.089-19.791-11.021a44.149,44.149,0,0,0-22.19-6.591A61.747,61.747,0,0,0,519.759,399.453Z" transform="translate(-133.551 -241.688)" fill="#f5c04b"></path></g><g id="&#x30B0;&#x30EB;&#x30FC;&#x30D7;_1115" data-name="&#x30B0;&#x30EB;&#x30FC;&#x30D7; 1115" transform="translate(3546 241.688)"><path id="&#x30D1;&#x30B9;_24163-2" data-name="&#x30D1;&#x30B9; 24163" d="M395.454,1634.5q5.881.25,11.694.914c3.876.471,7.728,1.136,11.465,1.579a135.052,135.052,0,0,1,22.005,4.957c1.776.553,3.529,1.163,5.282,1.772,1.707.554,3.414,1.136,5.1,1.773,3.39,1.246,6.689,2.631,9.9,4.181a100.565,100.565,0,0,1,17.969,11.133,205.224,205.224,0,0,0,35.706,21.461,184.116,184.116,0,0,0,18.615,7.644c6.113,2.215,12.087,4.126,17.761,5.788,2.814.831,5.582,1.606,8.212,2.3,2.652.581,5.167,1.136,7.52,1.634,4.774,1,9.042,1.772,12.594,2.354,7.127,1.163,11.418,1.634,11.418,1.634a238.529,238.529,0,0,1-26.158,18.138c-7.2,3.988-14.739,7.92-22.536,11.576-1.107.5-2.214,1.025-3.344,1.523-1.522.692-3.022,1.357-4.545,2.022-.069.027-.115.055-.184.083-10.7,4.154-21.751,8.141-32.985,11.382-11.4,2.88-22.858,5.594-34.253,7.449a231.616,231.616,0,0,1-34.969,2.492,217.086,217.086,0,0,1-32.362-3.461,191.583,191.583,0,0,1-28.833-8.862,95.958,95.958,0,0,1-12.871-6.147c-4.106-2.244-8.027-4.653-11.741-7.146q-5.571-3.778-10.541-7.892c-1.661-1.384-3.253-2.769-4.8-4.181-1.545-1.5-3.045-3.047-4.5-4.6a112.719,112.719,0,0,1-14.739-19.606,98.163,98.163,0,0,1-13.54-44.17l-.093-1.384,2.007-.859A232.949,232.949,0,0,1,395.454,1634.5Z" transform="translate(-297.698 -241.688)" fill="#f5c04b"></path><path id="&#x30D1;&#x30B9;_24164-2" data-name="&#x30D1;&#x30B9; 24164" d="M568.959,1674.984c-8.973-.276-17.3-.969-25.327-3.157a108.906,108.906,0,0,1-22.005-8.086,92.926,92.926,0,0,1-9.527-5.538,85.532,85.532,0,0,1-8.58-6.785,83.287,83.287,0,0,1-23.251-35.226l-.439-1.218,1.615-1.44c12.594-10.855,25.95-20.8,39.974-28.468a167.025,167.025,0,0,1,21.2-10.856,208.2,208.2,0,0,1,21.475-8.557c7.289-2.187,14.37-4.431,21.5-5.982,3.552-.747,7.1-1.384,10.634-1.855,1.776-.249,3.552-.443,5.3-.609,1.73-.222,3.437-.444,5.167-.581a104.581,104.581,0,0,1,20.183.027,92.5,92.5,0,0,1,9.688,1.523,72.221,72.221,0,0,1,9.134,2.3,162.23,162.23,0,0,0,18.384,4.707c3.137.609,6.32,1.163,9.5,1.634,3.206.5,6.39.858,9.5,1.052a260.8,260.8,0,0,0,36.006.111c10.818-1,20.253-2.492,26.988-3.738,6.712-1.219,10.7-2.188,10.7-2.188a297.249,297.249,0,0,1-19.353,24.868c-3.529,4.265-7.474,8.086-11.441,12.047q-5.985,5.9-12.364,11.714c-2.121,1.883-4.221,3.877-6.458,5.676-2.237,1.773-4.5,3.573-6.759,5.373-4.543,3.545-9.157,7.034-13.817,10.413-2.352,1.689-4.659,3.433-7.058,5.012-2.422,1.523-4.843,3.074-7.266,4.6q-7.3,4.527-14.6,8.779c-20.6,11.575-41.219,19.024-60.664,22.293a112.083,112.083,0,0,1-14.255,1.883C578.047,1675.013,573.434,1675.1,568.959,1674.984Z" transform="translate(-297.698 -241.688)" fill="#f5c04b"></path><path id="&#x30D1;&#x30B9;_24165-2" data-name="&#x30D1;&#x30B9; 24165" d="M739.4,1537.656c-2.03.831-4.106,1.523-6.136,2.215a128.792,128.792,0,0,1-23.551,5.649c-30.54,3.628-55.175-6.812-70.375-28.412l-.692-.97,1.13-1.827a257.036,257.036,0,0,1,63.271-71.475,165.687,165.687,0,0,1,17.969-12.684c3.044-1.883,6.205-3.545,9.226-5.206,3.022-1.717,6.067-3.268,9.112-4.652a104.484,104.484,0,0,1,18.383-6.536,81.509,81.509,0,0,1,17.807-2.8A158,158,0,0,0,793.3,1409.3c3-.443,6.02-1,9.018-1.578,2.93-.665,5.836-1.412,8.743-2.188a252.756,252.756,0,0,0,32.639-11.465c9.572-4.375,17.784-8.695,23.6-11.963,5.812-3.24,9.226-5.372,9.226-5.372-3.3,9.249-7.312,18.859-11.925,28.634-1.154,2.437-2.307,4.93-3.575,7.338-1.338,2.382-2.653,4.791-4.014,7.2-2.722,4.818-5.559,9.665-8.534,14.483-5.767,9.8-12.618,18.942-19.468,28.108-3.484,4.514-6.851,9.139-10.611,13.376-3.691,4.265-7.45,8.474-11.188,12.572-3.967,4.293-7.865,8.475-11.948,12.268-4.129,3.767-8.281,7.311-12.409,10.662s-8.258,6.48-12.364,9.415c-4.175,2.853-8.443,5.345-12.594,7.727-4.175,2.354-8.327,4.486-12.41,6.425C743.433,1535.883,741.4,1536.8,739.4,1537.656Z" transform="translate(-297.698 -241.688)" fill="#f5c04b"></path><path id="&#x30D1;&#x30B9;_24166-2" data-name="&#x30D1;&#x30B9; 24166" d="M855.374,1353.3c-1.638,1.33-3.275,2.576-4.89,3.8-1.661,1.19-3.367,2.3-5.028,3.378q-5.017,3.2-9.965,5.732a95.728,95.728,0,0,1-19.329,7.616,70.525,70.525,0,0,1-18.592,2.022,55.712,55.712,0,0,1-32.085-11.188l-.831-.637.554-2.049a305.338,305.338,0,0,1,16.861-45.611c3.622-7.061,6.966-14.289,10.911-20.963,3.875-6.757,8.188-13.071,12.294-19.357a176.257,176.257,0,0,1,13.425-17.364,168.277,168.277,0,0,1,14.163-15.037,126.008,126.008,0,0,1,15.108-11.963,77.263,77.263,0,0,1,15.432-8.419c21.105-8.086,41.842-23.511,57.711-37.413,7.635-7.006,14.071-13.569,18.569-18.36,4.521-4.791,7.1-7.782,7.1-7.782-2.883,37.662-17.3,83.66-36.906,122.9a233.031,233.031,0,0,1-34.945,52.339A201.252,201.252,0,0,1,855.374,1353.3Z" transform="translate(-297.698 -241.688)" fill="#f5c04b"></path><path id="&#x30D1;&#x30B9;_24167-2" data-name="&#x30D1;&#x30B9; 24167" d="M924.666,1132.565c-4.706,6.868-9.319,13.071-14.6,18.305-10.334,10.5-21.014,17.751-31.578,21.573-10.864,3.711-21.5,4.016-31.624.969l-.877-.277v-2.021c.024-3.933.231-7.81.416-11.715q.207-5.94.691-11.8c.646-7.809,1.869-15.507,3.23-23.123a210.956,210.956,0,0,1,4.774-22.57c.923-3.683,2.145-7.283,3.114-10.911,1.015-3.6,2.1-7.144,3.3-10.634a202.677,202.677,0,0,1,8.073-20.1,163.632,163.632,0,0,1,9.18-18.249,139.036,139.036,0,0,1,10.865-15.73,83.655,83.655,0,0,1,11.9-12.628c4.221-3.572,8.373-7.5,12.433-11.686a166.119,166.119,0,0,0,11.6-13.154,327.128,327.128,0,0,0,19.422-27.333c1.385-2.215,2.7-4.32,3.968-6.342,1.2-2.077,2.306-4.071,3.367-5.926,2.123-3.766,3.921-7.173,5.421-10,2.953-5.705,4.613-9.194,4.613-9.194,5.9,34.45,3.137,79.949-5.3,121.35-1.13,5.428-2.376,10.745-3.691,15.923-.669,2.576-1.337,5.151-2.052,7.671-.739,2.493-1.592,4.957-2.423,7.394a281.755,281.755,0,0,1-10.956,27.25A182.243,182.243,0,0,1,924.666,1132.565Z" transform="translate(-297.698 -241.688)" fill="#f5c04b"></path><path id="&#x30D1;&#x30B9;_24168-2" data-name="&#x30D1;&#x30B9; 24168" d="M941.942,874.3a196.22,196.22,0,0,1-6.412,24.757,165.237,165.237,0,0,1-8.9,21.1c-13.379,25.615-31.509,40.043-51.116,41.483l-.853.056-.462-1.8c-7.4-28.024-9.526-58.154-7.289-86.346a193.044,193.044,0,0,1,2.446-20.631c.622-3.378,1.245-6.674,1.891-9.886.669-3.24,1.453-6.4,2.283-9.5a154.99,154.99,0,0,1,6.114-17.64,90.134,90.134,0,0,1,7.911-15.176c2.976-4.569,5.859-9.471,8.558-14.511,2.606-5.04,5.051-10.246,7.358-15.507,2.283-5.235,4.4-10.552,6.343-15.73,1.914-5.179,3.506-10.192,5.006-14.982,2.906-9.527,5.235-18.029,6.573-24.065,1.338-6.01,2.007-9.665,2.007-9.665,1.592,3.628,3.183,7.422,4.636,11.409q2.112,5.982,4.037,12.435,1.938,6.438,3.714,13.209c1.13,4.542,2.076,9.222,3.022,13.957s1.845,9.554,2.652,14.4,1.361,9.831,1.961,14.761c.576,4.957,1.107,9.942,1.568,14.9.438,4.985.623,10,.877,14.927q.345,7.809.323,15.37c0,5.04-.346,10.024-.669,14.87A207.837,207.837,0,0,1,941.942,874.3Z" transform="translate(-297.698 -241.688)" fill="#f5c04b"></path><path id="&#x30D1;&#x30B9;_24169-2" data-name="&#x30D1;&#x30B9; 24169" d="M884.876,695.434c-.715,3.406-1.522,6.646-2.445,9.775-.969,3.158-2.03,6.176-3.206,9.056a86.054,86.054,0,0,1-8,15.508c-6,9.139-13.425,15.841-21.959,19.856l-.739.332-.853-1.44c-13.309-22.348-22.282-48.49-26.826-74.327a177.925,177.925,0,0,1-2.583-19.219c-.439-6.4-.877-12.517-.739-18.637a145.183,145.183,0,0,1,1.407-17.7,95.757,95.757,0,0,1,3.622-16.145c1.615-5.04,3.068-10.3,4.359-15.674,1.246-5.373,2.215-10.772,3.091-16.2a284.851,284.851,0,0,0,3.322-30.961c.507-9.388.623-17.612.6-23.483-.07-5.816-.3-9.222-.3-9.222,17.691,21.572,33.93,55.58,44.426,90.057,1.384,4.514,2.652,9.028,3.782,13.458,1.154,4.459,1.984,8.973,2.815,13.376a207.08,207.08,0,0,1,3.206,25.81A209.27,209.27,0,0,1,887.9,673.7,172.879,172.879,0,0,1,884.876,695.434Z" transform="translate(-297.698 -241.688)" fill="#f5c04b"></path><path id="&#x30D1;&#x30B9;_24170-2" data-name="&#x30D1;&#x30B9; 24170" d="M770.075,557.69l-.577.554-1.107-.969c-16.839-15.37-31.07-35.392-41.035-56.743a160.335,160.335,0,0,1-6.62-16.228,137.6,137.6,0,0,1-4.913-16.283c-2.445-10.994-3.829-21.49-3.114-31.626.322-4.984.461-10.163.392-15.313-.115-5.124-.415-10.247-.831-15.342a275.075,275.075,0,0,0-3.783-28.5c-1.614-8.5-3.3-15.784-4.567-20.963-.646-2.6-1.176-4.652-1.591-6.009-.369-1.219-.577-1.938-.6-2.105,20.276,13.514,42,38.272,58.935,65.189A199.755,199.755,0,0,1,772.5,434.789a224.415,224.415,0,0,1,8.65,21.629c4.521,14.566,7.358,28.3,7.773,41.373.554,12.932-.761,24.646-4.083,34.864C781.608,542.819,776.626,551.238,770.075,557.69Z" transform="translate(-297.698 -241.688)" fill="#f5c04b"></path><path id="&#x30D1;&#x30B9;_24171-2" data-name="&#x30D1;&#x30B9; 24171" d="M645.724,404.687l-1.177-.5c-18.591-7.505-35.453-20.936-49.246-36.278-6.735-7.948-12.848-16.034-17.485-24.951-4.659-8.806-8.188-17.668-9.826-26.862a177.207,177.207,0,0,0-7.15-26.89,236.806,236.806,0,0,0-9.55-23.954c-6.527-13.957-12.248-23.566-12.248-23.566,20.714,5.566,45.21,20.381,66.062,38.464,21.982,18.915,36.814,42.758,43.78,64.857,6.758,22.542,5.836,43.173-2.791,58.986Z" transform="translate(-297.698 -241.688)" fill="#f5c04b"></path><path id="&#x30D1;&#x30B9;_24172-2" data-name="&#x30D1;&#x30B9; 24172" d="M308.7,1551.225a156.329,156.329,0,0,1,10.564-20.409c.992-1.607,2.007-3.212,3.068-4.791,1.038-1.662,2.1-3.323,3.207-4.93q3.252-4.86,6.827-9.47c2.353-3.075,4.821-6.038,7.358-8.918,2.537-2.852,5.144-5.594,7.82-8.557a163.192,163.192,0,0,1,16.908-15.84,157.205,157.205,0,0,1,18.384-14.262,170.567,170.567,0,0,1,19.813-12.378c26.181-14.373,52.615-28.358,75.981-33.869,0,0-1.13,3.462-3.067,9.5-.947,3.046-2.1,6.757-3.414,11.021-.646,2.133-1.338,4.431-2.076,6.841-.761,2.326-1.569,4.791-2.4,7.338-1.638,5.151-3.414,10.773-5.282,16.7s-3.737,12.462-5.813,18.72c-4.037,12.684-8.119,26.641-11.695,40.487a97.638,97.638,0,0,1-7.773,19.939,107.01,107.01,0,0,1-5.536,9.444c-1.015,1.523-2.053,3.073-3.16,4.568-1.108,1.441-2.261,2.825-3.437,4.21a125.766,125.766,0,0,1-16.055,15.508,70.849,70.849,0,0,1-9.272,6.48q-4.845,2.991-9.965,5.566c-27.38,13.708-61.195,16.256-90.12,4.126l-1.869-.747.07-1.357A134.11,134.11,0,0,1,308.7,1551.225Z" transform="translate(-297.698 -241.688)" fill="#f5c04b"></path><path id="&#x30D1;&#x30B9;_24173-2" data-name="&#x30D1;&#x30B9; 24173" d="M587.827,1338.793s-.253,3.518-.692,9.665c-.415,6.176-.9,15.037-1.407,25.783-.669,10.44-1.43,22.707-1.937,35.972-.115,3.351-.277,6.675-.438,9.97-.139,3.351-.277,6.7-.415,10.108-.232,6.812-.347,13.735-.324,20.658a86.486,86.486,0,0,1-2.237,20.881,121.392,121.392,0,0,1-6.689,20.714c-.715,1.69-1.477,3.434-2.284,5.1-.83,1.634-1.707,3.267-2.606,4.874-1.846,3.239-3.807,6.424-5.928,9.581a110.972,110.972,0,0,1-14.44,17.751,135.574,135.574,0,0,1-17.462,15.037,155.63,155.63,0,0,1-19.79,11.382c-13.886,5.926-28.533,9.693-43.134,9.167l-1.892-.028-.253-1.274a128.929,128.929,0,0,1-1.246-44.17c.507-3.711,1.153-7.367,1.915-11.049.715-3.767,1.568-7.533,2.537-11.243a188.986,188.986,0,0,1,7.174-21.906,253.806,253.806,0,0,1,49.523-79.506C546.4,1373.853,567.437,1351.726,587.827,1338.793Z" transform="translate(-297.698 -241.688)" fill="#f5c04b"></path><path id="&#x30D1;&#x30B9;_24174-2" data-name="&#x30D1;&#x30B9; 24174" d="M607.5,1356.351c.923-3.794,1.937-7.588,3.091-11.3,1.13-3.766,2.422-7.394,3.714-11.1,1.222-3.793,2.56-7.532,4.013-11.243q2.181-5.524,4.706-10.883c1.637-3.628,3.229-7.394,5.028-10.994,13.747-27.471,28.072-54.832,43.872-73.358,0,0,.554,3.322,1.5,9.083.991,5.76,2.491,14.012,4.428,23.982,1.8,9.858,3.737,21.185,6.251,33.453,1.223,6.009,2.515,12.267,3.807,18.609,1.314,6.259,2.767,12.573,4.336,18.831a92.641,92.641,0,0,1,2.814,19.8,125.268,125.268,0,0,1-1.407,20.908q-.831,5.358-2.076,10.8c-.831,3.6-1.984,7.062-3.183,10.607a164.817,164.817,0,0,1-8.858,21.019c-14.3,27.084-37.944,49.986-64.286,59.734l-1.707.608-.553-1.052c-12.364-23.677-15.132-53.751-11.718-83.549a203.482,203.482,0,0,1,3.622-22.624C605.773,1363.883,606.65,1360.089,607.5,1356.351Z" transform="translate(-297.698 -241.688)" fill="#f5c04b"></path><path id="&#x30D1;&#x30B9;_24175-2" data-name="&#x30D1;&#x30B9; 24175" d="M776.211,1257.654c-6.667,29.132-22.052,58.182-43.78,75.739l-1.384,1.163-.739-.747c-8.488-8.557-15.085-19.44-20.021-31.542a143.072,143.072,0,0,1-6.182-19.081,178.305,178.305,0,0,1-4.175-20.77c-.508-3.544-.9-7.116-1.2-10.716q-.381-5.526-.762-10.967a202.228,202.228,0,0,1-.023-22.431c.392-15.287,2.561-30.546,5.559-46.219,6.113-29.659,13.079-59.373,23.159-81.583,0,0,1.245,2.852,3.414,7.809,2.214,4.929,5.42,11.963,9.411,20.41,7.474,16.588,17.991,39.13,29.086,59.567a87.218,87.218,0,0,1,7.082,17,103.156,103.156,0,0,1,3.529,19.358,134.287,134.287,0,0,1,.3,21.157A176.154,176.154,0,0,1,776.211,1257.654Z" transform="translate(-297.698 -241.688)" fill="#f5c04b"></path><path id="&#x30D1;&#x30B9;_24176-2" data-name="&#x30D1;&#x30B9; 24176" d="M755.335,1084.823c-2.121-6.591-3.644-13.321-5.213-20.3a187.028,187.028,0,0,1-3.714-21.462l-.553-5.483c-.254-1.883-.461-3.738-.645-5.622-.393-3.738-.646-7.532-.808-11.354-1.407-29.105-1.614-58.819,2.4-82.552,0,0,1.776,2.215,4.867,6.064,1.568,1.911,3.483,4.21,5.674,6.868,1.107,1.3,2.284,2.687,3.529,4.182,1.2,1.44,2.446,2.991,3.737,4.6,5.259,6.4,11.51,13.819,18.384,21.517,3.391,3.767,6.873,7.671,10.426,11.659,3.552,3.877,7.22,7.726,10.957,11.409a71.978,71.978,0,0,1,10.31,13.016,90.211,90.211,0,0,1,7.612,16.284,137.025,137.025,0,0,1,5.236,18.941,161.467,161.467,0,0,1,2.053,20.715c.139,3.572.185,7.2.115,10.827a107.444,107.444,0,0,1-.853,10.884,199.484,199.484,0,0,1-3.76,21.739,155.646,155.646,0,0,1-6.989,20.714c-1.361,3.323-2.837,6.591-4.406,9.748-1.637,3.156-3.483,6.148-5.351,9.083l-.992,1.495-.853-.415c-9.642-4.735-18.107-12.157-25.327-21.3a132.773,132.773,0,0,1-18.822-32.317C759.972,1097.783,757.342,1091.358,755.335,1084.823Z" transform="translate(-297.698 -241.688)" fill="#f5c04b"></path><path id="&#x30D1;&#x30B9;_24177-2" data-name="&#x30D1;&#x30B9; 24177" d="M824.12,852.175a71.8,71.8,0,0,1,4.2,8.032,149.076,149.076,0,0,1,6.782,17.862c7.4,25.227,8.1,55.468.346,81.527l-.531,1.661-.876-.083c-19.33-1.855-37.367-14.76-52.153-33.065-14.855-18.415-27.08-42.148-35.315-69.37-7.819-26.032-15.016-52.755-16.631-75.546,0,0,2.122,1.44,5.836,3.9,3.737,2.437,8.765,5.954,15.086,10,3.137,1.995,6.55,4.154,10.172,6.453,3.506,2.3,7.266,4.652,11.164,7.034s7.958,4.763,12.11,7.089c4.083,2.354,8.188,4.625,12.386,6.729a58.306,58.306,0,0,1,12.111,8.363,71.286,71.286,0,0,1,10.587,12.13C821.028,847.191,822.6,849.628,824.12,852.175Z" transform="translate(-297.698 -241.688)" fill="#f5c04b"></path><path id="&#x30D1;&#x30B9;_24178-2" data-name="&#x30D1;&#x30B9; 24178" d="M811.433,763.78l-.785.222a54.628,54.628,0,0,1-27.241.276,75.451,75.451,0,0,1-13.655-4.652c-2.238-1.025-4.452-2.16-6.666-3.379-2.237-1.218-4.5-2.52-6.713-3.932a108.63,108.63,0,0,1-12.917-9.665,137.227,137.227,0,0,1-12.433-11.714c-3.852-4.292-7.957-8.751-11.648-13.652-1.892-2.41-3.6-4.985-5.467-7.533-1.845-2.575-3.621-5.206-5.328-7.948-13.1-20.935-25.742-42.84-32.339-63,0,0,2.214.637,6.089,1.689,3.806,1.108,9.25,2.6,15.8,4.238,6.666,1.578,14.07,3.572,22.167,5.317,4.036.886,8.257,1.661,12.456,2.437,4.151.8,8.372,1.5,12.594,1.993a47.743,47.743,0,0,1,12.756,3.518,60.193,60.193,0,0,1,12.224,7.338,75.716,75.716,0,0,1,11.488,10.717A119.269,119.269,0,0,1,791.988,689.7c12.479,19.994,20.16,46.607,19.514,72.389Z" transform="translate(-297.698 -241.688)" fill="#f5c04b"></path><path id="&#x30D1;&#x30B9;_24179-2" data-name="&#x30D1;&#x30B9; 24179" d="M738.128,582.891l.369,1.495-.646.47a52.712,52.712,0,0,1-24.012,9.472,75.886,75.886,0,0,1-26.826-1.551,108.036,108.036,0,0,1-27.495-10.745,109.3,109.3,0,0,1-13.632-8.391,161.537,161.537,0,0,1-13.264-10.384c-16.584-14.54-32.938-30.214-43.388-46.3,0,0,2.123-.111,5.813-.332,3.668-.222,8.881-.582,15.132-1.164,6.3-.692,13.355-1.246,20.99-2.27,3.806-.5,7.7-1.08,11.649-1.773,3.9-.664,7.819-1.385,11.671-2.271a45.2,45.2,0,0,1,24.7,1.579,73.843,73.843,0,0,1,12.664,5.733,88.627,88.627,0,0,1,12.087,8.861C719.629,538.887,732.776,559.712,738.128,582.891Z" transform="translate(-297.698 -241.688)" fill="#f5c04b"></path><path id="&#x30D1;&#x30B9;_24180-2" data-name="&#x30D1;&#x30B9; 24180" d="M579.293,399.453c17.023,6.619,33.1,21.047,43.411,39.352L623.35,440l-.439.636c-10.241,13.985-25.88,21.767-42.926,23.9-17.346,2.465-36.145-.664-55.152-8.446-18.084-7.532-36.237-16.255-49.131-27.332,0,0,7.45-2.853,18.315-7.866,5.466-2.63,11.6-5.261,18.129-8.64,6.528-3.3,13.379-7.089,19.791-11.021a44.149,44.149,0,0,1,22.19-6.591A61.747,61.747,0,0,1,579.293,399.453Z" transform="translate(-297.698 -241.688)" fill="#f5c04b"></path></g><g id="&#x30B0;&#x30EB;&#x30FC;&#x30D7;_1118" data-name="&#x30B0;&#x30EB;&#x30FC;&#x30D7; 1118" transform="translate(-1431.753 383.073)"><path id="&#x30D1;&#x30B9;_24187" data-name="&#x30D1;&#x30B9; 24187" d="M20.491-306.8q0-43.6,33.378-75.777,33.979-32.175,78.483-32.175,45.707,0,78.784,32.476,33.077,32.175,33.077,76.98,0,45.105-33.077,77.281T131.45-195.845q-45.707,0-78.483-32.777Q20.491-261.4,20.491-306.8Zm52.322.9q0,25.259,17.441,42.7t42.4,17.441q24.357,0,41.8-17.441a57.365,57.365,0,0,0,17.441-42.1q0-24.357-17.441-41.8a57.365,57.365,0,0,0-42.1-17.441,57.365,57.365,0,0,0-42.1,17.441Q72.813-329.657,72.813-305.9ZM396.069-418.064l32.777,18.644L163.024,61.858,129.947,42.011ZM314.278-52.409q0-43.3,33.378-75.476,33.979-32.175,78.484-32.175,46.008,0,79.085,32.476Q538.3-95.41,538.3-50.605q0,45.406-33.378,77.281Q472.147,58.55,425.237,58.55q-45.707,0-78.483-32.476Q314.278-6.4,314.278-52.409Zm52.623,1.2q0,25.259,17.14,42.7,17.441,17.441,42.4,17.441,24.658,0,41.8-17.441a57.365,57.365,0,0,0,17.441-42.1,57.365,57.365,0,0,0-17.441-42.1q-17.14-17.441-42.1-17.441-24.357,0-41.8,17.441T366.9-51.207Z" transform="translate(3625.87 1229.701)" fill="#fff"></path></g></g></g><path id="&#x30D1;&#x30B9;_24199" data-name="&#x30D1;&#x30B9; 24199" d="M25-225.05H375.625v87.456H328.769v-45.9H69.988v45.9H25ZM82.919-152.6H293.738v44.138H82.919ZM328.763-342.162l32.375,38.931q-33.888,6.312-73.3,11.356t-81.553,8.619q-42.141,3.575-84.544,5.953t-82.366,3.441a91.619,91.619,0,0,0-3.9-21,177.32,177.32,0,0,0-6.791-19.753q39.875-1.375,81.141-3.794t81.022-5.8q39.756-3.378,74.963-8.022T328.763-342.162ZM63.806-266.225l41.825-11.712a200.264,200.264,0,0,1,13.763,24.05,141.9,141.9,0,0,1,9.231,22.981l-44.1,12.912a133.256,133.256,0,0,0-8.181-23.425A237.409,237.409,0,0,0,63.806-266.225Zm105.644-8.487,42.488-9.575a250.64,250.64,0,0,1,11.409,26.625,136.138,136.138,0,0,1,6.972,25.381l-44.981,11a145.493,145.493,0,0,0-5.772-25.781A246.985,246.985,0,0,0,169.45-274.712Zm126.963-10.375,50.962,11.925q-6.887,12.581-14.216,25t-14.431,23.519q-7.1,11.1-13.322,19.628l-39.375-11.437q5.594-9.775,11.294-21.634t10.8-24.209Q293.225-274.65,296.413-285.087ZM276.006-152.6h10.063l8.419-1.737,32.563,19.419Q309.094-95.625,280.456-67a271.828,271.828,0,0,1-65.7,48.2,416.835,416.835,0,0,1-80.491,31.972A657.989,657.989,0,0,1,43.631,32.094a108.563,108.563,0,0,0-7.147-14.206Q31.694,9.65,26.128,1.875A102.336,102.336,0,0,0,15.619-10.844a712.459,712.459,0,0,0,87.6-14.4q41.419-9.613,75.5-25.469t58.913-39.025a159.826,159.826,0,0,0,38.375-55.069Zm-145.75,32.569q22.35,30.094,59.431,51.887t86.069,35.3Q324.744-19.331,383-13.875a111.344,111.344,0,0,0-10.556,13.5q-5.613,8.241-10.556,16.594T353.65,31.25Q293.606,23.431,243.906,6.625T155.191-37.5a282.278,282.278,0,0,1-66.847-65.566Zm483.738-191.85H833.481v34.063H613.994ZM603.638-211.55h237.05v36.244H603.638Zm-.619,150.988H841.625v37.587H603.019Zm41.038-48.525H804v29.694H644.056Zm-22.6-152.825H824.944v33.219H621.456Zm34.506-78.113h42.8v144.594h-42.8Zm89.05,0h43.206v144.594H745.013ZM701.031-193.2H740.4V-38.337H701.031Zm76.825,32.563h43.513V-6.312q0,15-3.6,23.125T803.881,29.744q-10.056,4.406-24.953,5.231t-35.209.825a115.679,115.679,0,0,0-4.141-18.747,121.936,121.936,0,0,0-6.9-18.216q11.669.4,23.178.6t15.2.113q4.087-.4,5.444-1.712t1.356-4.687Zm-154.862,0H793.662v33.125H663.294V36.112h-40.3ZM481.669-214.319H591.65v36.25H481.669Zm2.094-113H590.138v36.25H483.763Zm-2.094,169.006H591.65v36.25H481.669ZM463.938-271.975H603.431v37.894H463.938Zm40.05,170.294H593.25V19.906H503.987V-17.906h49.269V-63.781H503.987Zm-23.562,0h39.456V35.713H480.425ZM987.063-267.294h278.412v46.856H987.063ZM970.45-149.562H1250v46.238H970.45Zm-46.194,127h361.625V24.294H924.256ZM1079.769-339.8h50.063V.6h-50.062Zm-92.506,4.881,49.669,11.138a574.609,574.609,0,0,1-20.981,60.847A517.392,517.392,0,0,1,989.281-207a302.635,302.635,0,0,1-30.175,45.091,108.3,108.3,0,0,0-12.559-9.731q-7.928-5.412-16.169-10.713t-14.522-8.506a217.078,217.078,0,0,0,29.372-40.038,386.836,386.836,0,0,0,24.2-49.859A436.1,436.1,0,0,0,987.263-334.919Zm495.587,27.956h248.463v41.644H1482.85ZM1470.631-235.9h272.331v42.181H1470.631Zm84.287,171.481h102.175v34.694H1554.919ZM1534.056-339.8h44.987v139.762h-44.987Zm98.662,0h46.325v139.762h-46.325Zm-91.238,228.169h28.138V-6.175h-28.138Zm100.925,0h27.825V-16.2h-27.825Zm46.344-58.056h44.762V-9.919q0,15.4-3.447,24.459t-13.9,13.866q-10.144,4.725-24.994,5.659t-35.15.934a131.629,131.629,0,0,0-4.3-20.019,156.668,156.668,0,0,0-6.972-19.888q11.4.4,22.481.6t14.944.113q6.575-.088,6.575-6.263Zm-206.588,0h223.063v41.55H1524.738V35.487h-42.575ZM1385.525-301.95l28.106-34.3q11.862,5.287,25.063,12.531t24.912,15.044a145.139,145.139,0,0,1,19.225,14.913l-29.888,37.769a126.439,126.439,0,0,0-18.019-15.666q-11.444-8.466-24.331-16.422A283.686,283.686,0,0,0,1385.525-301.95ZM1366.15-191.288l25.525-36.569a248.44,248.44,0,0,1,26.037,9.706q13.688,5.931,26.287,12.666a135.543,135.543,0,0,1,20.6,13.134l-27.081,40.437a132.214,132.214,0,0,0-19.463-13.687q-12.088-7.2-25.662-14.044A274.628,274.628,0,0,0,1366.15-191.288ZM1376.194,2.769q9.287-15.6,20.419-36.622t22.731-44.753q11.6-23.731,21.512-47.2l37.906,28.725q-8.8,21.425-18.753,43.578t-20.15,43.616q-10.2,21.463-20.6,41.25Zm206.213-209.4h45.925v68.306h-5.306v97.869h-35.312v-97.869h-5.306ZM2008-127.206h158.969v44.444H2008Zm-82.137,22.519q10.8,28.519,28.225,46.4a123.776,123.776,0,0,0,39.8,27.563,184.764,184.764,0,0,0,48.947,13.259,415.764,415.764,0,0,0,55.5,3.578h59.528q12.109,0,22.466-.156t17.075-.469a86.049,86.049,0,0,0-6.766,13.784,179.1,179.1,0,0,0-5.9,17.194q-2.516,8.753-3.853,15.653h-85.363a430.64,430.64,0,0,1-68.228-5.066,199.291,199.291,0,0,1-57.812-18.2q-26.3-13.138-47.1-37.053t-35.613-61.616Zm60.712-83.575h49.444V9.106L1986.575-6.531Zm-67.831-88.606v54.75H2103.25v-54.75Zm-47.794-45.925h283.213v146.281H1870.95Zm17.256,170.112,50.244,5.969a578.914,578.914,0,0,1-15.387,67.384,313.8,313.8,0,0,1-26.287,63.916,169.689,169.689,0,0,1-40.988,50.006,133.414,133.414,0,0,0-10.047-11.069q-6.122-6.125-12.559-11.937a134.689,134.689,0,0,0-11.469-9.419,134.7,134.7,0,0,0,35.266-42.991,246.218,246.218,0,0,0,20.944-55.006A406.427,406.427,0,0,0,1888.206-152.681Zm472.075-74.581h277.781v37.806H2360.281Zm3.006,116.487h219.681v37.581H2363.288ZM2414.4-253.619h45.388v90.737h73.237v-90.737h47.169v126.987H2414.4Zm156.231,142.844h9.35l8.331-1.737,30.063,15.188a184.1,184.1,0,0,1-41.816,55.541,242.025,242.025,0,0,1-58.634,38.672,372.2,372.2,0,0,1-71.394,24.981A737.513,737.513,0,0,1,2365.9,36.65a133.488,133.488,0,0,0-8.444-20.8,116.944,116.944,0,0,0-11.512-19.328,655.706,655.706,0,0,0,73.484-10.572,371.919,371.919,0,0,0,65-19.212q29.744-12.016,51.931-29.719a125.305,125.305,0,0,0,34.269-41.559Zm-125.1,29.556q17.9,22.381,47.953,38.228t69.369,25.322A582.128,582.128,0,0,0,2648.288-4.15a106.681,106.681,0,0,0-10.4,12.4q-5.456,7.459-10.087,15.031a152.232,152.232,0,0,0-7.619,13.853q-48.525-6.175-89.022-19.059t-72.484-33.9a217.791,217.791,0,0,1-54.437-50.609Zm2.106-258.581h49.981v60.119h-49.981Zm-119.875,36.025h312.569v42.8H2327.762Zm-23.475,0h45.919v112.694q0,24.494-1.51,53.884t-5.934,60.134a426.1,426.1,0,0,1-12.919,59.619,233.637,233.637,0,0,1-22.137,52.213,90.054,90.054,0,0,0-11.225-9.306q-7.306-5.3-14.878-10.091a84.353,84.353,0,0,0-13.228-7.059A195.55,195.55,0,0,0,2288.2-38.4a359.691,359.691,0,0,0,10.644-52.206q3.444-26.781,4.444-52.672t1-47.8Z" transform="translate(9337 15565)" fill="#fff"></path><path id="&#x30D1;&#x30B9;_24198" data-name="&#x30D1;&#x30B9; 24198" d="M154.983-254.757a19.863,19.863,0,0,1-14.573-6.049,19.863,19.863,0,0,1-6.049-14.573,19.863,19.863,0,0,1,6.049-14.573A19.863,19.863,0,0,1,154.983-296a19.863,19.863,0,0,1,14.573,6.049,19.863,19.863,0,0,1,6.049,14.573,19.863,19.863,0,0,1-6.049,14.573A19.863,19.863,0,0,1,154.983-254.757Zm0,49.767,90.735-90.735,7.974,7.974-90.735,90.735,90.735,90.735-7.974,7.974-90.735-90.735-91.01,91.01L56-106.007l91.01-91.01L56.275-287.751l7.974-7.974Zm-57.74,7.974a19.863,19.863,0,0,1-6.049,14.573,19.863,19.863,0,0,1-14.573,6.049,19.863,19.863,0,0,1-14.573-6.049A19.863,19.863,0,0,1,56-197.016a19.863,19.863,0,0,1,6.049-14.573,19.863,19.863,0,0,1,14.573-6.049,19.863,19.863,0,0,1,14.573,6.049A19.863,19.863,0,0,1,97.243-197.016Zm115.481,0a19.863,19.863,0,0,1,6.049-14.573,19.863,19.863,0,0,1,14.573-6.049,19.863,19.863,0,0,1,14.573,6.049,19.863,19.863,0,0,1,6.049,14.573,19.863,19.863,0,0,1-6.049,14.573,19.863,19.863,0,0,1-14.573,6.049,19.863,19.863,0,0,1-14.573-6.049A19.863,19.863,0,0,1,212.724-197.016Zm-57.74,57.74a19.863,19.863,0,0,1,14.573,6.049,19.863,19.863,0,0,1,6.049,14.573,19.863,19.863,0,0,1-6.049,14.573,19.863,19.863,0,0,1-14.573,6.049,19.863,19.863,0,0,1-14.573-6.049,19.863,19.863,0,0,1-6.049-14.573,19.863,19.863,0,0,1,6.049-14.573A19.863,19.863,0,0,1,154.983-139.276ZM304.494-92.534V-111.02q28.252-27.693,48.484-49.255t31.048-39.056q10.816-17.494,10.816-32.964a43.52,43.52,0,0,0-3.768-18.791,27.863,27.863,0,0,0-11.389-12.405q-7.621-4.449-19.015-4.449a38.273,38.273,0,0,0-21.739,6.67,95.52,95.52,0,0,0-18.108,15.786l-17.958-17.563a108.913,108.913,0,0,1,27.51-22.211q14.446-7.956,34.354-7.957,18.585,0,32.256,7.368a52.521,52.521,0,0,1,21.227,20.714q7.557,13.346,7.557,31.3,0,17.829-10.042,36.283t-27.044,38.208q-17,19.754-38.088,41.87,7.819-.859,16.822-1.5t16.362-.642h51.58v27.087Z" transform="translate(11307 16690.135)" fill="#fff"></path></g></g><g id="&#x30B0;&#x30EB;&#x30FC;&#x30D7;_1137" data-name="&#x30B0;&#x30EB;&#x30FC;&#x30D7; 1137"><g id="&#x30B0;&#x30EB;&#x30FC;&#x30D7;_1135" data-name="&#x30B0;&#x30EB;&#x30FC;&#x30D7; 1135" transform="translate(4670 3070)"><g id="&#x30B0;&#x30EB;&#x30FC;&#x30D7;_1131-2" data-name="&#x30B0;&#x30EB;&#x30FC;&#x30D7; 1131"><g id="&#x30B0;&#x30EB;&#x30FC;&#x30D7;_1127-2" data-name="&#x30B0;&#x30EB;&#x30FC;&#x30D7; 1127" transform="translate(8519.196 14924)"><g id="&#x30B0;&#x30EB;&#x30FC;&#x30D7;_1114-2" data-name="&#x30B0;&#x30EB;&#x30FC;&#x30D7; 1114" transform="translate(81.698 241.688)"><path id="&#x30D1;&#x30B9;_24163-3" data-name="&#x30D1;&#x30B9; 24163" d="M492.932,1634.5q-5.881.25-11.694.914c-3.876.471-7.728,1.136-11.465,1.579a135.052,135.052,0,0,0-22.005,4.957c-1.776.553-3.529,1.163-5.282,1.772-1.707.554-3.414,1.136-5.1,1.773-3.39,1.246-6.689,2.631-9.9,4.181a100.565,100.565,0,0,0-17.969,11.133,205.224,205.224,0,0,1-35.706,21.461,184.116,184.116,0,0,1-18.615,7.644c-6.113,2.215-12.087,4.126-17.761,5.788-2.814.831-5.582,1.606-8.212,2.3-2.652.581-5.167,1.136-7.52,1.634-4.774,1-9.042,1.772-12.594,2.354-7.127,1.163-11.418,1.634-11.418,1.634a238.518,238.518,0,0,0,26.158,18.138c7.2,3.988,14.739,7.92,22.536,11.576,1.107.5,2.214,1.025,3.344,1.523,1.522.692,3.022,1.357,4.545,2.022.069.027.115.055.184.083,10.7,4.154,21.751,8.141,32.985,11.382,11.4,2.88,22.858,5.594,34.253,7.449a231.616,231.616,0,0,0,34.969,2.492,217.086,217.086,0,0,0,32.362-3.461,191.583,191.583,0,0,0,28.833-8.862,95.958,95.958,0,0,0,12.871-6.147c4.106-2.244,8.027-4.653,11.741-7.146q5.571-3.778,10.541-7.892c1.661-1.384,3.253-2.769,4.8-4.181,1.545-1.5,3.045-3.047,4.5-4.6a112.719,112.719,0,0,0,14.739-19.606,98.163,98.163,0,0,0,13.54-44.17l.093-1.384-2.007-.859A232.949,232.949,0,0,0,492.932,1634.5Z" transform="translate(77.115 -241.688)" fill="#f5c04b"></path><path id="&#x30D1;&#x30B9;_24164-3" data-name="&#x30D1;&#x30B9; 24164" d="M667.66,1674.984c8.973-.276,17.3-.969,25.327-3.157a108.906,108.906,0,0,0,22.005-8.086,92.926,92.926,0,0,0,9.527-5.538,85.532,85.532,0,0,0,8.58-6.785,83.287,83.287,0,0,0,23.251-35.226l.439-1.218-1.615-1.44c-12.594-10.855-25.95-20.8-39.974-28.468A167.025,167.025,0,0,0,694,1574.21a208.2,208.2,0,0,0-21.475-8.557c-7.289-2.187-14.37-4.431-21.5-5.982-3.552-.747-7.1-1.384-10.634-1.855-1.776-.249-3.552-.443-5.3-.609-1.73-.222-3.437-.444-5.167-.581a104.581,104.581,0,0,0-20.183.027,92.5,92.5,0,0,0-9.688,1.523,72.221,72.221,0,0,0-9.134,2.3,162.23,162.23,0,0,1-18.384,4.707c-3.137.609-6.32,1.163-9.5,1.634-3.206.5-6.39.858-9.5,1.052a260.8,260.8,0,0,1-36.006.111c-10.818-1-20.253-2.492-26.988-3.738-6.712-1.219-10.7-2.188-10.7-2.188a297.249,297.249,0,0,0,19.353,24.868c3.529,4.265,7.474,8.086,11.441,12.047q5.985,5.9,12.364,11.714c2.121,1.883,4.221,3.877,6.458,5.676,2.237,1.773,4.5,3.573,6.759,5.373,4.543,3.545,9.157,7.034,13.817,10.413,2.352,1.689,4.659,3.433,7.058,5.012,2.422,1.523,4.843,3.074,7.266,4.6q7.3,4.527,14.6,8.779c20.6,11.575,41.219,19.024,60.664,22.293a112.083,112.083,0,0,0,14.255,1.883C658.572,1675.013,663.185,1675.1,667.66,1674.984Z" transform="translate(-271.118 -241.688)" fill="#f5c04b"></path><path id="&#x30D1;&#x30B9;_24165-3" data-name="&#x30D1;&#x30B9; 24165" d="M775.772,1537.656c2.03.831,4.106,1.523,6.136,2.215a128.792,128.792,0,0,0,23.551,5.649c30.54,3.628,55.175-6.812,70.375-28.412l.692-.97-1.13-1.827a257.036,257.036,0,0,0-63.271-71.475,165.687,165.687,0,0,0-17.969-12.684c-3.044-1.883-6.205-3.545-9.226-5.206-3.022-1.717-6.067-3.268-9.112-4.652a104.485,104.485,0,0,0-18.383-6.536,81.509,81.509,0,0,0-17.807-2.8,158,158,0,0,1-17.762-1.662c-3-.443-6.02-1-9.018-1.578-2.93-.665-5.836-1.412-8.743-2.188a252.756,252.756,0,0,1-32.639-11.465c-9.572-4.375-17.784-8.695-23.6-11.963-5.812-3.24-9.226-5.372-9.226-5.372,3.3,9.249,7.312,18.859,11.925,28.634,1.154,2.437,2.307,4.93,3.575,7.338,1.338,2.382,2.653,4.791,4.014,7.2,2.722,4.818,5.559,9.665,8.534,14.483,5.767,9.8,12.618,18.942,19.468,28.108,3.484,4.514,6.851,9.139,10.611,13.376,3.691,4.265,7.45,8.474,11.188,12.572,3.967,4.293,7.865,8.475,11.948,12.268,4.129,3.767,8.281,7.311,12.409,10.662s8.258,6.48,12.364,9.415c4.175,2.853,8.443,5.345,12.594,7.727,4.175,2.354,8.327,4.486,12.41,6.425C771.736,1535.883,773.766,1536.8,775.772,1537.656Z" transform="translate(-549.668 -241.688)" fill="#f5c04b"></path><path id="&#x30D1;&#x30B9;_24166-3" data-name="&#x30D1;&#x30B9; 24166" d="M856.066,1353.3c1.638,1.33,3.275,2.576,4.89,3.8,1.661,1.19,3.367,2.3,5.028,3.378q5.017,3.2,9.965,5.732a95.728,95.728,0,0,0,19.329,7.616,70.525,70.525,0,0,0,18.592,2.022,55.712,55.712,0,0,0,32.085-11.188l.831-.637-.554-2.049a305.338,305.338,0,0,0-16.861-45.611c-3.622-7.061-6.966-14.289-10.911-20.963-3.875-6.757-8.188-13.071-12.294-19.357a176.257,176.257,0,0,0-13.425-17.364,168.277,168.277,0,0,0-14.163-15.037,126.008,126.008,0,0,0-15.108-11.963,77.263,77.263,0,0,0-15.432-8.419c-21.105-8.086-41.842-23.511-57.711-37.413-7.635-7.006-14.071-13.569-18.569-18.36-4.521-4.791-7.1-7.782-7.1-7.782,2.883,37.662,17.3,83.66,36.906,122.9a233.031,233.031,0,0,0,34.945,52.339A201.252,201.252,0,0,0,856.066,1353.3Z" transform="translate(-745.939 -241.688)" fill="#f5c04b"></path><path id="&#x30D1;&#x30B9;_24167-3" data-name="&#x30D1;&#x30B9; 24167" d="M886.821,1132.565c4.706,6.868,9.319,13.071,14.6,18.305,10.334,10.5,21.014,17.751,31.578,21.573,10.864,3.711,21.5,4.016,31.624.969l.877-.277v-2.021c-.024-3.933-.231-7.81-.416-11.715q-.207-5.94-.691-11.8c-.646-7.809-1.869-15.507-3.23-23.123a210.956,210.956,0,0,0-4.774-22.57c-.923-3.683-2.145-7.283-3.114-10.911-1.015-3.6-2.1-7.144-3.3-10.634a202.677,202.677,0,0,0-8.073-20.1,163.632,163.632,0,0,0-9.18-18.249,139.036,139.036,0,0,0-10.865-15.73,83.655,83.655,0,0,0-11.9-12.628c-4.221-3.572-8.373-7.5-12.433-11.686a166.119,166.119,0,0,1-11.6-13.154A327.128,327.128,0,0,1,866.5,961.479c-1.385-2.215-2.7-4.32-3.968-6.342-1.2-2.077-2.306-4.071-3.367-5.926-2.123-3.766-3.921-7.173-5.421-10-2.953-5.705-4.613-9.194-4.613-9.194-5.9,34.45-3.137,79.949,5.3,121.35,1.13,5.428,2.376,10.745,3.691,15.923.669,2.576,1.337,5.151,2.052,7.671.739,2.493,1.592,4.957,2.423,7.394a281.755,281.755,0,0,0,10.956,27.25A182.243,182.243,0,0,0,886.821,1132.565Z" transform="translate(-845.986 -241.688)" fill="#f5c04b"></path><path id="&#x30D1;&#x30B9;_24168-3" data-name="&#x30D1;&#x30B9; 24168" d="M870.309,874.3a196.22,196.22,0,0,0,6.412,24.757,165.237,165.237,0,0,0,8.9,21.1c13.379,25.615,31.509,40.043,51.116,41.483l.853.056.462-1.8c7.4-28.024,9.526-58.154,7.289-86.346a193.044,193.044,0,0,0-2.446-20.631c-.622-3.378-1.245-6.674-1.891-9.886-.669-3.24-1.453-6.4-2.283-9.5a154.99,154.99,0,0,0-6.114-17.64,90.134,90.134,0,0,0-7.911-15.176c-2.976-4.569-5.859-9.471-8.558-14.511-2.606-5.04-5.051-10.246-7.358-15.507-2.283-5.235-4.4-10.552-6.343-15.73-1.914-5.179-3.506-10.192-5.006-14.982-2.906-9.527-5.235-18.029-6.573-24.065-1.338-6.01-2.007-9.665-2.007-9.665-1.592,3.628-3.183,7.422-4.636,11.409q-2.112,5.982-4.037,12.435-1.938,6.438-3.714,13.209c-1.13,4.542-2.076,9.222-3.022,13.957s-1.845,9.554-2.652,14.4-1.361,9.831-1.961,14.761c-.576,4.957-1.107,9.942-1.568,14.9-.438,4.985-.623,10-.877,14.927q-.345,7.809-.323,15.37c0,5.04.346,10.024.669,14.87A207.837,207.837,0,0,0,870.309,874.3Z" transform="translate(-846.749 -241.688)" fill="#f5c04b"></path><path id="&#x30D1;&#x30B9;_24169-3" data-name="&#x30D1;&#x30B9; 24169" d="M820.842,695.434c.715,3.406,1.522,6.646,2.445,9.775.969,3.158,2.03,6.176,3.206,9.056a86.054,86.054,0,0,0,8,15.508c6,9.139,13.425,15.841,21.959,19.856l.739.332.853-1.44c13.309-22.348,22.282-48.49,26.826-74.327a177.925,177.925,0,0,0,2.583-19.219c.439-6.4.877-12.517.739-18.637a145.183,145.183,0,0,0-1.407-17.7,95.757,95.757,0,0,0-3.622-16.145c-1.615-5.04-3.068-10.3-4.359-15.674-1.246-5.373-2.215-10.772-3.091-16.2a284.851,284.851,0,0,1-3.322-30.961c-.507-9.388-.623-17.612-.6-23.483.07-5.816.3-9.222.3-9.222-17.691,21.572-33.93,55.58-44.426,90.057-1.384,4.514-2.652,9.028-3.782,13.458-1.154,4.459-1.984,8.973-2.815,13.376a207.08,207.08,0,0,0-3.206,25.81,209.27,209.27,0,0,0-.046,24.037A172.879,172.879,0,0,0,820.842,695.434Z" transform="translate(-740.216 -241.688)" fill="#f5c04b"></path><path id="&#x30D1;&#x30B9;_24170-3" data-name="&#x30D1;&#x30B9; 24170" d="M720.7,557.69l.577.554,1.107-.969c16.839-15.37,31.07-35.392,41.035-56.743a160.335,160.335,0,0,0,6.62-16.228,137.6,137.6,0,0,0,4.913-16.283c2.445-10.994,3.829-21.49,3.114-31.626-.322-4.984-.461-10.163-.392-15.313.115-5.124.415-10.247.831-15.342a275.075,275.075,0,0,1,3.783-28.5c1.614-8.5,3.3-15.784,4.567-20.963.646-2.6,1.176-4.652,1.591-6.009.369-1.219.577-1.938.6-2.105-20.276,13.514-42,38.272-58.935,65.189a199.755,199.755,0,0,0-11.833,21.434,224.415,224.415,0,0,0-8.65,21.629c-4.521,14.566-7.358,28.3-7.773,41.373-.554,12.932.761,24.646,4.083,34.864C709.164,542.819,714.146,551.238,720.7,557.69Z" transform="translate(-525.27 -241.688)" fill="#f5c04b"></path><path id="&#x30D1;&#x30B9;_24171-3" data-name="&#x30D1;&#x30B9; 24171" d="M546.66,404.687l1.177-.5c18.591-7.505,35.453-20.936,49.246-36.278,6.735-7.948,12.848-16.034,17.485-24.951,4.659-8.806,8.188-17.668,9.826-26.862a177.207,177.207,0,0,1,7.15-26.89,236.806,236.806,0,0,1,9.55-23.954c6.527-13.957,12.248-23.566,12.248-23.566-20.714,5.566-45.21,20.381-66.062,38.464-21.982,18.915-36.814,42.758-43.78,64.857-6.758,22.542-5.836,43.173,2.791,58.986Z" transform="translate(-226.883 -241.688)" fill="#f5c04b"></path><path id="&#x30D1;&#x30B9;_24172-3" data-name="&#x30D1;&#x30B9; 24172" d="M467.628,1551.225a156.329,156.329,0,0,0-10.564-20.409c-.992-1.607-2.007-3.212-3.068-4.791-1.038-1.662-2.1-3.323-3.207-4.93q-3.252-4.86-6.827-9.47c-2.353-3.075-4.821-6.038-7.358-8.918-2.537-2.852-5.144-5.594-7.82-8.557a163.192,163.192,0,0,0-16.908-15.84,157.205,157.205,0,0,0-18.384-14.262,170.568,170.568,0,0,0-19.813-12.378C347.5,1437.3,321.064,1423.312,297.7,1417.8c0,0,1.13,3.462,3.067,9.5.947,3.046,2.1,6.757,3.414,11.021.646,2.133,1.338,4.431,2.076,6.841.761,2.326,1.569,4.791,2.4,7.338,1.638,5.151,3.414,10.773,5.282,16.7s3.737,12.462,5.813,18.72c4.037,12.684,8.119,26.641,11.695,40.487a97.638,97.638,0,0,0,7.773,19.939,107.01,107.01,0,0,0,5.536,9.444c1.015,1.523,2.053,3.073,3.16,4.568,1.108,1.441,2.261,2.825,3.437,4.21a125.766,125.766,0,0,0,16.055,15.508,70.849,70.849,0,0,0,9.272,6.48q4.845,2.991,9.965,5.566c27.38,13.708,61.195,16.256,90.12,4.126l1.869-.747-.07-1.357A134.11,134.11,0,0,0,467.628,1551.225Z" transform="translate(189.172 -241.688)" fill="#f5c04b"></path><path id="&#x30D1;&#x30B9;_24173-3" data-name="&#x30D1;&#x30B9; 24173" d="M463.337,1338.793s.253,3.518.692,9.665c.415,6.176.9,15.037,1.407,25.783.669,10.44,1.43,22.707,1.937,35.972.115,3.351.277,6.675.438,9.97.139,3.351.277,6.7.415,10.108.232,6.812.347,13.735.324,20.658a86.486,86.486,0,0,0,2.237,20.881,121.392,121.392,0,0,0,6.689,20.714c.715,1.69,1.477,3.434,2.284,5.1.83,1.634,1.707,3.267,2.606,4.874,1.846,3.239,3.807,6.424,5.928,9.581a110.972,110.972,0,0,0,14.44,17.751,135.574,135.574,0,0,0,17.462,15.037,155.63,155.63,0,0,0,19.79,11.382c13.886,5.926,28.533,9.693,43.134,9.167l1.892-.028.253-1.274a128.929,128.929,0,0,0,1.246-44.17c-.507-3.711-1.153-7.367-1.915-11.049-.715-3.767-1.568-7.533-2.537-11.243a188.986,188.986,0,0,0-7.174-21.906,253.806,253.806,0,0,0-49.523-79.506C504.764,1373.853,483.727,1351.726,463.337,1338.793Z" transform="translate(-85.663 -241.688)" fill="#f5c04b"></path><path id="&#x30D1;&#x30B9;_24174-3" data-name="&#x30D1;&#x30B9; 24174" d="M687.509,1356.351c-.923-3.794-1.937-7.588-3.091-11.3-1.13-3.766-2.422-7.394-3.714-11.1-1.222-3.793-2.56-7.532-4.013-11.243q-2.181-5.524-4.706-10.883c-1.637-3.628-3.229-7.394-5.028-10.994-13.747-27.471-28.072-54.832-43.872-73.358,0,0-.554,3.322-1.5,9.083-.991,5.76-2.491,14.012-4.428,23.982-1.8,9.858-3.737,21.185-6.251,33.453-1.223,6.009-2.515,12.267-3.807,18.609-1.314,6.259-2.767,12.573-4.336,18.831a92.641,92.641,0,0,0-2.814,19.8,125.268,125.268,0,0,0,1.407,20.908q.831,5.358,2.076,10.8c.831,3.6,1.984,7.062,3.183,10.607a164.817,164.817,0,0,0,8.858,21.019c14.3,27.084,37.944,49.986,64.286,59.734l1.707.608.553-1.052c12.364-23.677,15.132-53.751,11.718-83.549a203.482,203.482,0,0,0-3.622-22.624C689.239,1363.883,688.362,1360.089,687.509,1356.351Z" transform="translate(-329.51 -241.688)" fill="#f5c04b"></path><path id="&#x30D1;&#x30B9;_24175-3" data-name="&#x30D1;&#x30B9; 24175" d="M701.211,1257.654c6.667,29.132,22.052,58.182,43.78,75.739l1.384,1.163.739-.747c8.488-8.557,15.085-19.44,20.021-31.542a143.063,143.063,0,0,0,6.182-19.081,178.305,178.305,0,0,0,4.175-20.77c.508-3.544.9-7.116,1.2-10.716q.381-5.526.762-10.967a202.228,202.228,0,0,0,.023-22.431c-.392-15.287-2.561-30.546-5.559-46.219-6.113-29.659-13.079-59.373-23.159-81.583,0,0-1.245,2.852-3.414,7.809-2.214,4.929-5.42,11.963-9.411,20.41-7.474,16.588-17.991,39.13-29.086,59.567a87.218,87.218,0,0,0-7.082,17,103.156,103.156,0,0,0-3.529,19.358,134.287,134.287,0,0,0-.3,21.157A176.154,176.154,0,0,0,701.211,1257.654Z" transform="translate(-511.921 -241.688)" fill="#f5c04b"></path><path id="&#x30D1;&#x30B9;_24176-3" data-name="&#x30D1;&#x30B9; 24176" d="M817.881,1084.823c2.121-6.591,3.644-13.321,5.213-20.3a187.028,187.028,0,0,0,3.714-21.462l.553-5.483c.254-1.883.461-3.738.645-5.622.393-3.738.646-7.532.808-11.354,1.407-29.105,1.614-58.819-2.4-82.552,0,0-1.776,2.215-4.867,6.064-1.568,1.911-3.483,4.21-5.674,6.868-1.107,1.3-2.284,2.687-3.529,4.182-1.2,1.44-2.446,2.991-3.737,4.6-5.259,6.4-11.51,13.819-18.384,21.517-3.391,3.767-6.873,7.671-10.426,11.659-3.552,3.877-7.22,7.726-10.957,11.409a71.975,71.975,0,0,0-10.31,13.016,90.211,90.211,0,0,0-7.612,16.284,137.025,137.025,0,0,0-5.236,18.941,161.467,161.467,0,0,0-2.053,20.715c-.139,3.572-.185,7.2-.115,10.827a107.444,107.444,0,0,0,.853,10.884,199.484,199.484,0,0,0,3.76,21.739,155.646,155.646,0,0,0,6.989,20.714c1.361,3.323,2.837,6.591,4.406,9.748,1.637,3.156,3.483,6.148,5.351,9.083l.992,1.495.853-.415c9.642-4.735,18.107-12.157,25.327-21.3a132.773,132.773,0,0,0,18.822-32.317C813.244,1097.783,815.874,1091.358,817.881,1084.823Z" transform="translate(-607.714 -241.688)" fill="#f5c04b"></path><path id="&#x30D1;&#x30B9;_24177-3" data-name="&#x30D1;&#x30B9; 24177" d="M746.78,852.175a71.8,71.8,0,0,0-4.2,8.032,149.076,149.076,0,0,0-6.782,17.862c-7.4,25.227-8.1,55.468-.346,81.527l.531,1.661.876-.083c19.33-1.855,37.367-14.76,52.153-33.065,14.855-18.415,27.08-42.148,35.315-69.37,7.819-26.032,15.016-52.755,16.631-75.546,0,0-2.122,1.44-5.836,3.9-3.737,2.437-8.765,5.954-15.086,10-3.137,1.995-6.55,4.154-10.172,6.453-3.506,2.3-7.266,4.652-11.164,7.034s-7.958,4.763-12.11,7.089c-4.083,2.354-8.188,4.625-12.386,6.729a58.306,58.306,0,0,0-12.111,8.363,71.286,71.286,0,0,0-10.587,12.13C749.872,847.191,748.3,849.628,746.78,852.175Z" transform="translate(-605.399 -241.688)" fill="#f5c04b"></path><path id="&#x30D1;&#x30B9;_24178-3" data-name="&#x30D1;&#x30B9; 24178" d="M676.348,763.78l.785.222a54.628,54.628,0,0,0,27.241.276,75.451,75.451,0,0,0,13.655-4.652c2.238-1.025,4.452-2.16,6.666-3.379,2.237-1.218,4.5-2.52,6.713-3.932a108.63,108.63,0,0,0,12.917-9.665,137.227,137.227,0,0,0,12.433-11.714c3.852-4.292,7.957-8.751,11.648-13.652,1.892-2.41,3.6-4.985,5.467-7.533,1.845-2.575,3.621-5.206,5.328-7.948,13.1-20.935,25.742-42.84,32.339-63,0,0-2.214.637-6.089,1.689-3.806,1.108-9.25,2.6-15.8,4.238-6.666,1.578-14.07,3.572-22.167,5.317-4.036.886-8.257,1.661-12.456,2.437-4.151.8-8.372,1.5-12.594,1.993a47.743,47.743,0,0,0-12.756,3.518,60.193,60.193,0,0,0-12.224,7.338,75.716,75.716,0,0,0-11.488,10.717A119.269,119.269,0,0,0,695.793,689.7c-12.479,19.994-20.16,46.607-19.514,72.389Z" transform="translate(-522.279 -241.688)" fill="#f5c04b"></path><path id="&#x30D1;&#x30B9;_24179-3" data-name="&#x30D1;&#x30B9; 24179" d="M589.6,582.891l-.369,1.495.646.47a52.712,52.712,0,0,0,24.012,9.472,75.886,75.886,0,0,0,26.826-1.551,108.036,108.036,0,0,0,27.495-10.745,109.3,109.3,0,0,0,13.632-8.391,161.537,161.537,0,0,0,13.264-10.384c16.584-14.54,32.938-30.214,43.388-46.3,0,0-2.123-.111-5.813-.332-3.668-.222-8.881-.582-15.132-1.164-6.3-.692-13.355-1.246-20.99-2.27-3.806-.5-7.7-1.08-11.649-1.773-3.9-.664-7.819-1.385-11.671-2.271a45.2,45.2,0,0,0-24.7,1.579,73.843,73.843,0,0,0-12.664,5.733,88.627,88.627,0,0,0-12.087,8.861C608.1,538.887,594.955,559.712,589.6,582.891Z" transform="translate(-362.23 -241.688)" fill="#f5c04b"></path><path id="&#x30D1;&#x30B9;_24180-3" data-name="&#x30D1;&#x30B9; 24180" d="M519.759,399.453c-17.023,6.619-33.1,21.047-43.411,39.352L475.7,440l.439.636c10.241,13.985,25.88,21.767,42.926,23.9,17.346,2.465,36.145-.664,55.152-8.446,18.084-7.532,36.237-16.255,49.131-27.332,0,0-7.45-2.853-18.315-7.866-5.466-2.63-11.6-5.261-18.129-8.64-6.528-3.3-13.379-7.089-19.791-11.021a44.149,44.149,0,0,0-22.19-6.591A61.747,61.747,0,0,0,519.759,399.453Z" transform="translate(-133.551 -241.688)" fill="#f5c04b"></path></g><g id="&#x30B0;&#x30EB;&#x30FC;&#x30D7;_1115-2" data-name="&#x30B0;&#x30EB;&#x30FC;&#x30D7; 1115" transform="translate(3546 241.688)"><path id="&#x30D1;&#x30B9;_24163-4" data-name="&#x30D1;&#x30B9; 24163" d="M395.454,1634.5q5.881.25,11.694.914c3.876.471,7.728,1.136,11.465,1.579a135.052,135.052,0,0,1,22.005,4.957c1.776.553,3.529,1.163,5.282,1.772,1.707.554,3.414,1.136,5.1,1.773,3.39,1.246,6.689,2.631,9.9,4.181a100.565,100.565,0,0,1,17.969,11.133,205.224,205.224,0,0,0,35.706,21.461,184.116,184.116,0,0,0,18.615,7.644c6.113,2.215,12.087,4.126,17.761,5.788,2.814.831,5.582,1.606,8.212,2.3,2.652.581,5.167,1.136,7.52,1.634,4.774,1,9.042,1.772,12.594,2.354,7.127,1.163,11.418,1.634,11.418,1.634a238.529,238.529,0,0,1-26.158,18.138c-7.2,3.988-14.739,7.92-22.536,11.576-1.107.5-2.214,1.025-3.344,1.523-1.522.692-3.022,1.357-4.545,2.022-.069.027-.115.055-.184.083-10.7,4.154-21.751,8.141-32.985,11.382-11.4,2.88-22.858,5.594-34.253,7.449a231.616,231.616,0,0,1-34.969,2.492,217.086,217.086,0,0,1-32.362-3.461,191.583,191.583,0,0,1-28.833-8.862,95.958,95.958,0,0,1-12.871-6.147c-4.106-2.244-8.027-4.653-11.741-7.146q-5.571-3.778-10.541-7.892c-1.661-1.384-3.253-2.769-4.8-4.181-1.545-1.5-3.045-3.047-4.5-4.6a112.719,112.719,0,0,1-14.739-19.606,98.163,98.163,0,0,1-13.54-44.17l-.093-1.384,2.007-.859A232.949,232.949,0,0,1,395.454,1634.5Z" transform="translate(-297.698 -241.688)" fill="#f5c04b"></path><path id="&#x30D1;&#x30B9;_24164-4" data-name="&#x30D1;&#x30B9; 24164" d="M568.959,1674.984c-8.973-.276-17.3-.969-25.327-3.157a108.906,108.906,0,0,1-22.005-8.086,92.926,92.926,0,0,1-9.527-5.538,85.532,85.532,0,0,1-8.58-6.785,83.287,83.287,0,0,1-23.251-35.226l-.439-1.218,1.615-1.44c12.594-10.855,25.95-20.8,39.974-28.468a167.025,167.025,0,0,1,21.2-10.856,208.2,208.2,0,0,1,21.475-8.557c7.289-2.187,14.37-4.431,21.5-5.982,3.552-.747,7.1-1.384,10.634-1.855,1.776-.249,3.552-.443,5.3-.609,1.73-.222,3.437-.444,5.167-.581a104.581,104.581,0,0,1,20.183.027,92.5,92.5,0,0,1,9.688,1.523,72.221,72.221,0,0,1,9.134,2.3,162.23,162.23,0,0,0,18.384,4.707c3.137.609,6.32,1.163,9.5,1.634,3.206.5,6.39.858,9.5,1.052a260.8,260.8,0,0,0,36.006.111c10.818-1,20.253-2.492,26.988-3.738,6.712-1.219,10.7-2.188,10.7-2.188a297.249,297.249,0,0,1-19.353,24.868c-3.529,4.265-7.474,8.086-11.441,12.047q-5.985,5.9-12.364,11.714c-2.121,1.883-4.221,3.877-6.458,5.676-2.237,1.773-4.5,3.573-6.759,5.373-4.543,3.545-9.157,7.034-13.817,10.413-2.352,1.689-4.659,3.433-7.058,5.012-2.422,1.523-4.843,3.074-7.266,4.6q-7.3,4.527-14.6,8.779c-20.6,11.575-41.219,19.024-60.664,22.293a112.083,112.083,0,0,1-14.255,1.883C578.047,1675.013,573.434,1675.1,568.959,1674.984Z" transform="translate(-297.698 -241.688)" fill="#f5c04b"></path><path id="&#x30D1;&#x30B9;_24165-4" data-name="&#x30D1;&#x30B9; 24165" d="M739.4,1537.656c-2.03.831-4.106,1.523-6.136,2.215a128.792,128.792,0,0,1-23.551,5.649c-30.54,3.628-55.175-6.812-70.375-28.412l-.692-.97,1.13-1.827a257.036,257.036,0,0,1,63.271-71.475,165.687,165.687,0,0,1,17.969-12.684c3.044-1.883,6.205-3.545,9.226-5.206,3.022-1.717,6.067-3.268,9.112-4.652a104.484,104.484,0,0,1,18.383-6.536,81.509,81.509,0,0,1,17.807-2.8A158,158,0,0,0,793.3,1409.3c3-.443,6.02-1,9.018-1.578,2.93-.665,5.836-1.412,8.743-2.188a252.756,252.756,0,0,0,32.639-11.465c9.572-4.375,17.784-8.695,23.6-11.963,5.812-3.24,9.226-5.372,9.226-5.372-3.3,9.249-7.312,18.859-11.925,28.634-1.154,2.437-2.307,4.93-3.575,7.338-1.338,2.382-2.653,4.791-4.014,7.2-2.722,4.818-5.559,9.665-8.534,14.483-5.767,9.8-12.618,18.942-19.468,28.108-3.484,4.514-6.851,9.139-10.611,13.376-3.691,4.265-7.45,8.474-11.188,12.572-3.967,4.293-7.865,8.475-11.948,12.268-4.129,3.767-8.281,7.311-12.409,10.662s-8.258,6.48-12.364,9.415c-4.175,2.853-8.443,5.345-12.594,7.727-4.175,2.354-8.327,4.486-12.41,6.425C743.433,1535.883,741.4,1536.8,739.4,1537.656Z" transform="translate(-297.698 -241.688)" fill="#f5c04b"></path><path id="&#x30D1;&#x30B9;_24166-4" data-name="&#x30D1;&#x30B9; 24166" d="M855.374,1353.3c-1.638,1.33-3.275,2.576-4.89,3.8-1.661,1.19-3.367,2.3-5.028,3.378q-5.017,3.2-9.965,5.732a95.728,95.728,0,0,1-19.329,7.616,70.525,70.525,0,0,1-18.592,2.022,55.712,55.712,0,0,1-32.085-11.188l-.831-.637.554-2.049a305.338,305.338,0,0,1,16.861-45.611c3.622-7.061,6.966-14.289,10.911-20.963,3.875-6.757,8.188-13.071,12.294-19.357a176.257,176.257,0,0,1,13.425-17.364,168.277,168.277,0,0,1,14.163-15.037,126.008,126.008,0,0,1,15.108-11.963,77.263,77.263,0,0,1,15.432-8.419c21.105-8.086,41.842-23.511,57.711-37.413,7.635-7.006,14.071-13.569,18.569-18.36,4.521-4.791,7.1-7.782,7.1-7.782-2.883,37.662-17.3,83.66-36.906,122.9a233.031,233.031,0,0,1-34.945,52.339A201.252,201.252,0,0,1,855.374,1353.3Z" transform="translate(-297.698 -241.688)" fill="#f5c04b"></path><path id="&#x30D1;&#x30B9;_24167-4" data-name="&#x30D1;&#x30B9; 24167" d="M924.666,1132.565c-4.706,6.868-9.319,13.071-14.6,18.305-10.334,10.5-21.014,17.751-31.578,21.573-10.864,3.711-21.5,4.016-31.624.969l-.877-.277v-2.021c.024-3.933.231-7.81.416-11.715q.207-5.94.691-11.8c.646-7.809,1.869-15.507,3.23-23.123a210.956,210.956,0,0,1,4.774-22.57c.923-3.683,2.145-7.283,3.114-10.911,1.015-3.6,2.1-7.144,3.3-10.634a202.677,202.677,0,0,1,8.073-20.1,163.632,163.632,0,0,1,9.18-18.249,139.036,139.036,0,0,1,10.865-15.73,83.655,83.655,0,0,1,11.9-12.628c4.221-3.572,8.373-7.5,12.433-11.686a166.119,166.119,0,0,0,11.6-13.154,327.128,327.128,0,0,0,19.422-27.333c1.385-2.215,2.7-4.32,3.968-6.342,1.2-2.077,2.306-4.071,3.367-5.926,2.123-3.766,3.921-7.173,5.421-10,2.953-5.705,4.613-9.194,4.613-9.194,5.9,34.45,3.137,79.949-5.3,121.35-1.13,5.428-2.376,10.745-3.691,15.923-.669,2.576-1.337,5.151-2.052,7.671-.739,2.493-1.592,4.957-2.423,7.394a281.755,281.755,0,0,1-10.956,27.25A182.243,182.243,0,0,1,924.666,1132.565Z" transform="translate(-297.698 -241.688)" fill="#f5c04b"></path><path id="&#x30D1;&#x30B9;_24168-4" data-name="&#x30D1;&#x30B9; 24168" d="M941.942,874.3a196.22,196.22,0,0,1-6.412,24.757,165.237,165.237,0,0,1-8.9,21.1c-13.379,25.615-31.509,40.043-51.116,41.483l-.853.056-.462-1.8c-7.4-28.024-9.526-58.154-7.289-86.346a193.044,193.044,0,0,1,2.446-20.631c.622-3.378,1.245-6.674,1.891-9.886.669-3.24,1.453-6.4,2.283-9.5a154.99,154.99,0,0,1,6.114-17.64,90.134,90.134,0,0,1,7.911-15.176c2.976-4.569,5.859-9.471,8.558-14.511,2.606-5.04,5.051-10.246,7.358-15.507,2.283-5.235,4.4-10.552,6.343-15.73,1.914-5.179,3.506-10.192,5.006-14.982,2.906-9.527,5.235-18.029,6.573-24.065,1.338-6.01,2.007-9.665,2.007-9.665,1.592,3.628,3.183,7.422,4.636,11.409q2.112,5.982,4.037,12.435,1.938,6.438,3.714,13.209c1.13,4.542,2.076,9.222,3.022,13.957s1.845,9.554,2.652,14.4,1.361,9.831,1.961,14.761c.576,4.957,1.107,9.942,1.568,14.9.438,4.985.623,10,.877,14.927q.345,7.809.323,15.37c0,5.04-.346,10.024-.669,14.87A207.837,207.837,0,0,1,941.942,874.3Z" transform="translate(-297.698 -241.688)" fill="#f5c04b"></path><path id="&#x30D1;&#x30B9;_24169-4" data-name="&#x30D1;&#x30B9; 24169" d="M884.876,695.434c-.715,3.406-1.522,6.646-2.445,9.775-.969,3.158-2.03,6.176-3.206,9.056a86.054,86.054,0,0,1-8,15.508c-6,9.139-13.425,15.841-21.959,19.856l-.739.332-.853-1.44c-13.309-22.348-22.282-48.49-26.826-74.327a177.925,177.925,0,0,1-2.583-19.219c-.439-6.4-.877-12.517-.739-18.637a145.183,145.183,0,0,1,1.407-17.7,95.757,95.757,0,0,1,3.622-16.145c1.615-5.04,3.068-10.3,4.359-15.674,1.246-5.373,2.215-10.772,3.091-16.2a284.851,284.851,0,0,0,3.322-30.961c.507-9.388.623-17.612.6-23.483-.07-5.816-.3-9.222-.3-9.222,17.691,21.572,33.93,55.58,44.426,90.057,1.384,4.514,2.652,9.028,3.782,13.458,1.154,4.459,1.984,8.973,2.815,13.376a207.08,207.08,0,0,1,3.206,25.81A209.27,209.27,0,0,1,887.9,673.7,172.879,172.879,0,0,1,884.876,695.434Z" transform="translate(-297.698 -241.688)" fill="#f5c04b"></path><path id="&#x30D1;&#x30B9;_24170-4" data-name="&#x30D1;&#x30B9; 24170" d="M770.075,557.69l-.577.554-1.107-.969c-16.839-15.37-31.07-35.392-41.035-56.743a160.335,160.335,0,0,1-6.62-16.228,137.6,137.6,0,0,1-4.913-16.283c-2.445-10.994-3.829-21.49-3.114-31.626.322-4.984.461-10.163.392-15.313-.115-5.124-.415-10.247-.831-15.342a275.075,275.075,0,0,0-3.783-28.5c-1.614-8.5-3.3-15.784-4.567-20.963-.646-2.6-1.176-4.652-1.591-6.009-.369-1.219-.577-1.938-.6-2.105,20.276,13.514,42,38.272,58.935,65.189A199.755,199.755,0,0,1,772.5,434.789a224.415,224.415,0,0,1,8.65,21.629c4.521,14.566,7.358,28.3,7.773,41.373.554,12.932-.761,24.646-4.083,34.864C781.608,542.819,776.626,551.238,770.075,557.69Z" transform="translate(-297.698 -241.688)" fill="#f5c04b"></path><path id="&#x30D1;&#x30B9;_24171-4" data-name="&#x30D1;&#x30B9; 24171" d="M645.724,404.687l-1.177-.5c-18.591-7.505-35.453-20.936-49.246-36.278-6.735-7.948-12.848-16.034-17.485-24.951-4.659-8.806-8.188-17.668-9.826-26.862a177.207,177.207,0,0,0-7.15-26.89,236.806,236.806,0,0,0-9.55-23.954c-6.527-13.957-12.248-23.566-12.248-23.566,20.714,5.566,45.21,20.381,66.062,38.464,21.982,18.915,36.814,42.758,43.78,64.857,6.758,22.542,5.836,43.173-2.791,58.986Z" transform="translate(-297.698 -241.688)" fill="#f5c04b"></path><path id="&#x30D1;&#x30B9;_24172-4" data-name="&#x30D1;&#x30B9; 24172" d="M308.7,1551.225a156.329,156.329,0,0,1,10.564-20.409c.992-1.607,2.007-3.212,3.068-4.791,1.038-1.662,2.1-3.323,3.207-4.93q3.252-4.86,6.827-9.47c2.353-3.075,4.821-6.038,7.358-8.918,2.537-2.852,5.144-5.594,7.82-8.557a163.192,163.192,0,0,1,16.908-15.84,157.205,157.205,0,0,1,18.384-14.262,170.567,170.567,0,0,1,19.813-12.378c26.181-14.373,52.615-28.358,75.981-33.869,0,0-1.13,3.462-3.067,9.5-.947,3.046-2.1,6.757-3.414,11.021-.646,2.133-1.338,4.431-2.076,6.841-.761,2.326-1.569,4.791-2.4,7.338-1.638,5.151-3.414,10.773-5.282,16.7s-3.737,12.462-5.813,18.72c-4.037,12.684-8.119,26.641-11.695,40.487a97.638,97.638,0,0,1-7.773,19.939,107.01,107.01,0,0,1-5.536,9.444c-1.015,1.523-2.053,3.073-3.16,4.568-1.108,1.441-2.261,2.825-3.437,4.21a125.766,125.766,0,0,1-16.055,15.508,70.849,70.849,0,0,1-9.272,6.48q-4.845,2.991-9.965,5.566c-27.38,13.708-61.195,16.256-90.12,4.126l-1.869-.747.07-1.357A134.11,134.11,0,0,1,308.7,1551.225Z" transform="translate(-297.698 -241.688)" fill="#f5c04b"></path><path id="&#x30D1;&#x30B9;_24173-4" data-name="&#x30D1;&#x30B9; 24173" d="M587.827,1338.793s-.253,3.518-.692,9.665c-.415,6.176-.9,15.037-1.407,25.783-.669,10.44-1.43,22.707-1.937,35.972-.115,3.351-.277,6.675-.438,9.97-.139,3.351-.277,6.7-.415,10.108-.232,6.812-.347,13.735-.324,20.658a86.486,86.486,0,0,1-2.237,20.881,121.392,121.392,0,0,1-6.689,20.714c-.715,1.69-1.477,3.434-2.284,5.1-.83,1.634-1.707,3.267-2.606,4.874-1.846,3.239-3.807,6.424-5.928,9.581a110.972,110.972,0,0,1-14.44,17.751,135.574,135.574,0,0,1-17.462,15.037,155.63,155.63,0,0,1-19.79,11.382c-13.886,5.926-28.533,9.693-43.134,9.167l-1.892-.028-.253-1.274a128.929,128.929,0,0,1-1.246-44.17c.507-3.711,1.153-7.367,1.915-11.049.715-3.767,1.568-7.533,2.537-11.243a188.986,188.986,0,0,1,7.174-21.906,253.806,253.806,0,0,1,49.523-79.506C546.4,1373.853,567.437,1351.726,587.827,1338.793Z" transform="translate(-297.698 -241.688)" fill="#f5c04b"></path><path id="&#x30D1;&#x30B9;_24174-4" data-name="&#x30D1;&#x30B9; 24174" d="M607.5,1356.351c.923-3.794,1.937-7.588,3.091-11.3,1.13-3.766,2.422-7.394,3.714-11.1,1.222-3.793,2.56-7.532,4.013-11.243q2.181-5.524,4.706-10.883c1.637-3.628,3.229-7.394,5.028-10.994,13.747-27.471,28.072-54.832,43.872-73.358,0,0,.554,3.322,1.5,9.083.991,5.76,2.491,14.012,4.428,23.982,1.8,9.858,3.737,21.185,6.251,33.453,1.223,6.009,2.515,12.267,3.807,18.609,1.314,6.259,2.767,12.573,4.336,18.831a92.641,92.641,0,0,1,2.814,19.8,125.268,125.268,0,0,1-1.407,20.908q-.831,5.358-2.076,10.8c-.831,3.6-1.984,7.062-3.183,10.607a164.817,164.817,0,0,1-8.858,21.019c-14.3,27.084-37.944,49.986-64.286,59.734l-1.707.608-.553-1.052c-12.364-23.677-15.132-53.751-11.718-83.549a203.482,203.482,0,0,1,3.622-22.624C605.773,1363.883,606.65,1360.089,607.5,1356.351Z" transform="translate(-297.698 -241.688)" fill="#f5c04b"></path><path id="&#x30D1;&#x30B9;_24175-4" data-name="&#x30D1;&#x30B9; 24175" d="M776.211,1257.654c-6.667,29.132-22.052,58.182-43.78,75.739l-1.384,1.163-.739-.747c-8.488-8.557-15.085-19.44-20.021-31.542a143.072,143.072,0,0,1-6.182-19.081,178.305,178.305,0,0,1-4.175-20.77c-.508-3.544-.9-7.116-1.2-10.716q-.381-5.526-.762-10.967a202.228,202.228,0,0,1-.023-22.431c.392-15.287,2.561-30.546,5.559-46.219,6.113-29.659,13.079-59.373,23.159-81.583,0,0,1.245,2.852,3.414,7.809,2.214,4.929,5.42,11.963,9.411,20.41,7.474,16.588,17.991,39.13,29.086,59.567a87.218,87.218,0,0,1,7.082,17,103.156,103.156,0,0,1,3.529,19.358,134.287,134.287,0,0,1,.3,21.157A176.154,176.154,0,0,1,776.211,1257.654Z" transform="translate(-297.698 -241.688)" fill="#f5c04b"></path><path id="&#x30D1;&#x30B9;_24176-4" data-name="&#x30D1;&#x30B9; 24176" d="M755.335,1084.823c-2.121-6.591-3.644-13.321-5.213-20.3a187.028,187.028,0,0,1-3.714-21.462l-.553-5.483c-.254-1.883-.461-3.738-.645-5.622-.393-3.738-.646-7.532-.808-11.354-1.407-29.105-1.614-58.819,2.4-82.552,0,0,1.776,2.215,4.867,6.064,1.568,1.911,3.483,4.21,5.674,6.868,1.107,1.3,2.284,2.687,3.529,4.182,1.2,1.44,2.446,2.991,3.737,4.6,5.259,6.4,11.51,13.819,18.384,21.517,3.391,3.767,6.873,7.671,10.426,11.659,3.552,3.877,7.22,7.726,10.957,11.409a71.978,71.978,0,0,1,10.31,13.016,90.211,90.211,0,0,1,7.612,16.284,137.025,137.025,0,0,1,5.236,18.941,161.467,161.467,0,0,1,2.053,20.715c.139,3.572.185,7.2.115,10.827a107.444,107.444,0,0,1-.853,10.884,199.484,199.484,0,0,1-3.76,21.739,155.646,155.646,0,0,1-6.989,20.714c-1.361,3.323-2.837,6.591-4.406,9.748-1.637,3.156-3.483,6.148-5.351,9.083l-.992,1.495-.853-.415c-9.642-4.735-18.107-12.157-25.327-21.3a132.773,132.773,0,0,1-18.822-32.317C759.972,1097.783,757.342,1091.358,755.335,1084.823Z" transform="translate(-297.698 -241.688)" fill="#f5c04b"></path><path id="&#x30D1;&#x30B9;_24177-4" data-name="&#x30D1;&#x30B9; 24177" d="M824.12,852.175a71.8,71.8,0,0,1,4.2,8.032,149.076,149.076,0,0,1,6.782,17.862c7.4,25.227,8.1,55.468.346,81.527l-.531,1.661-.876-.083c-19.33-1.855-37.367-14.76-52.153-33.065-14.855-18.415-27.08-42.148-35.315-69.37-7.819-26.032-15.016-52.755-16.631-75.546,0,0,2.122,1.44,5.836,3.9,3.737,2.437,8.765,5.954,15.086,10,3.137,1.995,6.55,4.154,10.172,6.453,3.506,2.3,7.266,4.652,11.164,7.034s7.958,4.763,12.11,7.089c4.083,2.354,8.188,4.625,12.386,6.729a58.306,58.306,0,0,1,12.111,8.363,71.286,71.286,0,0,1,10.587,12.13C821.028,847.191,822.6,849.628,824.12,852.175Z" transform="translate(-297.698 -241.688)" fill="#f5c04b"></path><path id="&#x30D1;&#x30B9;_24178-4" data-name="&#x30D1;&#x30B9; 24178" d="M811.433,763.78l-.785.222a54.628,54.628,0,0,1-27.241.276,75.451,75.451,0,0,1-13.655-4.652c-2.238-1.025-4.452-2.16-6.666-3.379-2.237-1.218-4.5-2.52-6.713-3.932a108.63,108.63,0,0,1-12.917-9.665,137.227,137.227,0,0,1-12.433-11.714c-3.852-4.292-7.957-8.751-11.648-13.652-1.892-2.41-3.6-4.985-5.467-7.533-1.845-2.575-3.621-5.206-5.328-7.948-13.1-20.935-25.742-42.84-32.339-63,0,0,2.214.637,6.089,1.689,3.806,1.108,9.25,2.6,15.8,4.238,6.666,1.578,14.07,3.572,22.167,5.317,4.036.886,8.257,1.661,12.456,2.437,4.151.8,8.372,1.5,12.594,1.993a47.743,47.743,0,0,1,12.756,3.518,60.193,60.193,0,0,1,12.224,7.338,75.716,75.716,0,0,1,11.488,10.717A119.269,119.269,0,0,1,791.988,689.7c12.479,19.994,20.16,46.607,19.514,72.389Z" transform="translate(-297.698 -241.688)" fill="#f5c04b"></path><path id="&#x30D1;&#x30B9;_24179-4" data-name="&#x30D1;&#x30B9; 24179" d="M738.128,582.891l.369,1.495-.646.47a52.712,52.712,0,0,1-24.012,9.472,75.886,75.886,0,0,1-26.826-1.551,108.036,108.036,0,0,1-27.495-10.745,109.3,109.3,0,0,1-13.632-8.391,161.537,161.537,0,0,1-13.264-10.384c-16.584-14.54-32.938-30.214-43.388-46.3,0,0,2.123-.111,5.813-.332,3.668-.222,8.881-.582,15.132-1.164,6.3-.692,13.355-1.246,20.99-2.27,3.806-.5,7.7-1.08,11.649-1.773,3.9-.664,7.819-1.385,11.671-2.271a45.2,45.2,0,0,1,24.7,1.579,73.843,73.843,0,0,1,12.664,5.733,88.627,88.627,0,0,1,12.087,8.861C719.629,538.887,732.776,559.712,738.128,582.891Z" transform="translate(-297.698 -241.688)" fill="#f5c04b"></path><path id="&#x30D1;&#x30B9;_24180-4" data-name="&#x30D1;&#x30B9; 24180" d="M579.293,399.453c17.023,6.619,33.1,21.047,43.411,39.352L623.35,440l-.439.636c-10.241,13.985-25.88,21.767-42.926,23.9-17.346,2.465-36.145-.664-55.152-8.446-18.084-7.532-36.237-16.255-49.131-27.332,0,0,7.45-2.853,18.315-7.866,5.466-2.63,11.6-5.261,18.129-8.64,6.528-3.3,13.379-7.089,19.791-11.021a44.149,44.149,0,0,1,22.19-6.591A61.747,61.747,0,0,1,579.293,399.453Z" transform="translate(-297.698 -241.688)" fill="#f5c04b"></path></g></g></g><path id="&#x30D1;&#x30B9;_24195" data-name="&#x30D1;&#x30B9; 24195" d="M198.319-288.068q-.668,6.586-1.336,16.677T195.94-254.55q-1.582,55.955-9.349,99.147t-22.346,76.68a237.711,237.711,0,0,1-37.107,59.881A292.241,292.241,0,0,1,73.506,29.606L29.863-5.722A292.7,292.7,0,0,0,54.752-21.514a169.494,169.494,0,0,0,24.426-20.8A195.3,195.3,0,0,0,110.2-82.045a216.974,216.974,0,0,0,20.456-47.106,324.474,324.474,0,0,0,11.412-56.435,595.479,595.479,0,0,0,3.718-68q0-4.207-.334-10.65t-1-12.927q-.668-6.484-1.418-10.9Zm127.367,80.355q-.75,4.582-1.565,10.568a90.611,90.611,0,0,0-.9,9.232q-.375,12.007-1.272,30.7t-2.584,40.3q-1.688,21.6-4.166,43.063t-5.936,39.647q-3.457,18.189-8.415,29.779-5.836,14.14-17.286,21.5T252.8,24.438q-16.1,0-32.352-1T190.578,21.4l-5.889-50.112q13.87,2.379,27.8,3.753t24.933,1.374q9.17,0,13.709-3.126t7.328-10.17a99.633,99.633,0,0,0,5.784-19.6q2.578-12.4,4.474-27.863t3.249-31.988q1.354-16.527,1.916-31.956t.563-27.722H91.437q-9.534,0-23.448.334t-25.967,1.377v-49.269q11.971,1.248,25.361,1.957t23.972.709H264.838q7.29,0,14.529-.668t13.961-1.916Zm397.923-70.563q-.375,7.752-.9,17.031t-.522,20.582V-166.5a421.755,421.755,0,0,1-2.86,52.556,208.6,208.6,0,0,1-8.447,39.248A140.363,140.363,0,0,1,697.231-44.9a161.572,161.572,0,0,1-18.7,24.5A147.431,147.431,0,0,1,650.26,3.911a227.82,227.82,0,0,1-32.4,18.066,311.226,311.226,0,0,1-30.213,11.96L548.35-7.492A225.9,225.9,0,0,0,599.007-25.3a139.941,139.941,0,0,0,39.682-29.51A118.623,118.623,0,0,0,654.4-76.487a96.086,96.086,0,0,0,9.27-24.192,190.016,190.016,0,0,0,4.459-30.058q1.272-16.838,1.272-38.894v-71.032q0-11.3-.668-20.582t-1.711-17.031ZM549.8-275.071q-.375,6.469-.894,13.111t-.519,15.525v126.687q0,7.125.519,16.548t.894,16.1H495.267q.457-5.215,1.125-14.849t.668-18.095V-246.434q0-5.168-.375-13.668t-1.125-14.969Zm433.157,20.064q-1.705-8.127-3.645-14.966t-4.108-13.466L1028.28-292q.668,5.461,1.647,13.844t2.315,15.18q.961,5.385,3.44,19.574t6.311,34.461q3.832,20.272,8.458,43.664t9.25,47.268q4.623,23.875,8.79,45.357t7.459,37.842q3.293,16.36,4.834,24.464,1.875,8.168,4.418,17.922t5.168,18.842l-54.115,9.522q-1.5-10.383-2.373-20.014a136.369,136.369,0,0,0-2.748-17.881q-1.254-7.307-4.067-22.979t-6.791-36.673q-3.979-21-8.6-44.581t-9.062-47.227q-4.439-23.647-8.459-44.273t-6.938-35.695Q984.3-248.45,982.961-255.007Zm-102.4,47.8q8.76-.668,17.412-1.231t17.359-1.606q8.122-1.125,23.246-3.188t34.479-4.916q19.355-2.854,40.169-6.082t40.315-6.457q19.5-3.229,34.857-5.854t23.852-4.207q8.965-1.793,18.69-3.944t16.445-4.067l9.141,49.269q-6.053.375-16.132,1.858t-18.5,2.608q-9.961,1.5-26.339,4.084t-36.169,5.772q-19.791,3.188-40.461,6.522t-39.48,6.375q-18.81,3.041-33.1,5.373t-21.321,3.539q-8.8,1.711-16.744,3.419t-17.7,4.38Zm.3,110.016q7.465-.375,18.81-1.565t19.976-2.526q10.126-1.418,27.084-4.043t38.164-6.041q21.206-3.416,43.769-7.02t43.851-7.248q21.288-3.645,38.976-6.686t28.434-4.916q10.876-2.168,20.866-4.5t17.415-4.421l9.938,49.48a173.683,173.683,0,0,0-18.042,2.086Q1159.4-92.88,1148.609-91q-11.954,1.875-30.014,4.77t-39.6,6.457q-21.543,3.563-43.98,7.125t-43.145,7.125q-20.708,3.563-37.145,6.334t-25.894,4.647q-12.094,2.086-21.581,3.879T891.467-47Zm673.746-68.758a54.915,54.915,0,0,0-2.109,8.1q-.855,4.547-1.442,7.594-1.043,7.829-3.106,21.637T1543.409-98q-2.479,16.809-5.1,33.535T1533.576-33.8q-2.1,13.934-3.6,22.021h-51.407q1.418-7.506,3.375-19.75t4.371-26.732q2.414-14.488,4.453-29.058t3.624-26.955q1.585-12.385,1.878-19.8H1394.859q-8.96,0-19.208.48t-18.294,1.148v-49.485q5,.668,11.743,1.19t13.665.856q6.926.334,11.719.334h96.24q4,0,9.534-.48t10.794-1.4a25.328,25.328,0,0,0,7.477-2.168ZM1323.024-29.981q7.547.668,17.351,1.333t19.56.665H1556.7q7,0,18.206-.478t18.628-1.146V18.748q-3.879-.375-10.553-.522t-13.5-.293q-6.823-.146-11.951-.146h-197.6q-9.756,0-17.951.188t-18.959.856ZM1777.64-274.953q7.706,1.037,18.616,1.559t20.333.522H1960.7q8.913,0,20.849-.522t19.689-1.559v48.6q-7.465-.75-19.147-1.043t-22.059-.293H1816.59q-9.048,0-19.853.334t-19.1,1Zm255.338,108.979q-1.922,3.551-4.029,8.057a67.88,67.88,0,0,0-3.068,7.471,404.942,404.942,0,0,1-21.549,53.971,210.643,210.643,0,0,1-33.919,49.893,249.735,249.735,0,0,1-63.186,51.22,328.91,328.91,0,0,1-70.78,30.014L1799.075-7.82q42.389-8.965,75.45-26.34t54.63-39.442a145.316,145.316,0,0,0,24.207-32.287,190.307,190.307,0,0,0,14.134-32.4H1786.629q-6.956,0-19.39.334t-24.277,1.377v-48.771q12.135,1.043,23.544,1.752t20.122.709H1971.99a108.708,108.708,0,0,0,16.463-1.107,48.179,48.179,0,0,0,11.16-2.819Zm281.449-104.075q-3.633,8.467-7.679,18.772t-8.3,23.02q-3.5,10.378-8.754,26.712t-11.6,35.7q-6.352,19.369-13.2,39.738t-13.328,39.527q-6.475,19.158-12.077,34.76t-9.727,25.27l-55.462,1.834q5.086-12.089,11.5-29.381t13.518-37.663q7.1-20.371,14.061-41.657t13.2-41.282q6.246-20,11.35-36.767t8.022-27.529q3.879-14.339,5.778-24.06t3.147-19.15Zm67.188,121.062q10.044,15.259,21.646,35.428t23.058,42.064q11.456,21.895,21.248,42.275T2463.78,7l-50.616,22.6q-6.334-17.011-15.563-38.789T2377.727-53.6q-10.644-22.63-21.663-42.612a282.294,282.294,0,0,0-21.145-33.4ZM2170.729-41.338q13-.545,31.1-1.94T2241-46.67q21.075-2,43.049-4.225t43.136-4.705q21.163-2.479,39.433-4.77t31.191-4.084L2409-16.3q-13.759,1.787-33.113,3.935t-41.475,4.626q-22.121,2.479-45.056,5.039t-44.636,4.893q-21.7,2.332-40.092,4.1T2173.53,9.484q-7.125.668-16.679,2.045t-18.514,2.5l-8.772-54.912q9.551.082,20.919,0T2170.729-41.338ZM2541.222-110.2h189.709v36.324H2541.222Zm4.389-132.389h184.113v35.446H2545.611Zm63.227,105.628,41.675,8.772q-9.34,19.3-20.114,40.092t-21.215,39.987q-10.442,19.191-19.565,34.4l-39.383-11.977q9.047-14.462,19.489-33.609t20.735-39.568Q2600.751-119.284,2608.838-136.957Zm53.113,51.911,41.381,3.668q-5.086,29.515-15.464,50.687a113.117,113.117,0,0,1-27.421,36Q2643.4,20.143,2618.94,30.078t-58.011,16.768a79.711,79.711,0,0,0-7.2-19.941A92.4,92.4,0,0,0,2542.769,9.6q37.449-4.823,61.63-15.268t37.907-29.618Q2656.032-54.463,2661.95-85.045Zm26.474-216.277,38,15.071q-9.177,12.54-17.884,24.743t-16.079,20.869l-28.894-12.938q6.416-9.838,13.557-23.415A236.83,236.83,0,0,0,2688.425-301.322Zm-71.389-4.858h41.3v174.438h-41.3Zm-62.248,19.929,32.363-13.489a186.793,186.793,0,0,1,13.888,23.791,115.367,115.367,0,0,1,8.848,22.871l-34.4,15.118q-1.828-9.838-7.826-23.4A218.126,218.126,0,0,0,2554.788-286.251Zm63.42,61.293,29.1,17.667a197.931,197.931,0,0,1-23.565,29.888,288.515,288.515,0,0,1-30.585,28.1,249.85,249.85,0,0,1-32.229,21.956,197.5,197.5,0,0,0-10.251-17.058,91.4,91.4,0,0,0-12.754-15.8,177.6,177.6,0,0,0,30.538-16.551A216.628,216.628,0,0,0,2597-199.515,127.7,127.7,0,0,0,2618.208-224.958Zm36.412,10.9q5.168,2.414,14.459,7.7t19.976,11.45q10.685,6.162,19.451,11.45t12.6,8.078l-23.8,31.1q-5.168-5-13.416-12.021t-17.638-14.541q-9.39-7.518-18.054-14.35t-14.875-11.087Zm101.045-23.96h137.868v41.587H2755.665Zm4.1-68.166,45.478,6.557a718.308,718.308,0,0,1-15.206,74.715,463.355,463.355,0,0,1-22.671,66.816q-13.255,30.7-30.758,53.751a86.755,86.755,0,0,0-9.938-10.3q-6.557-5.953-13.592-11.9t-12.045-9.625q15.833-19.46,27.33-46.274a379.458,379.458,0,0,0,19.328-58.483A568.269,568.269,0,0,0,2759.761-306.18Zm68.1,93.726,46.063,4.213q-8.081,64.088-25.138,112.9t-47.039,84.084q-29.981,35.273-77.439,58.934a119.157,119.157,0,0,0-6.745-13.135q-4.529-7.832-9.686-15.517a93.136,93.136,0,0,0-9.586-12.32q42.7-18.862,69.192-48.809t40.649-72.409Q2822.284-156.974,2827.857-212.454Zm-46.626,7.747a531.807,531.807,0,0,0,21.8,89.021q14.265,41.628,37.531,73.033a167.249,167.249,0,0,0,57.645,49.359,118.736,118.736,0,0,0-11.087,11.257q-6.077,6.914-11.485,14.307a136,136,0,0,0-8.872,13.568,197.7,197.7,0,0,1-62.3-58.167q-24.623-35.706-39.662-82.766T2740.389-198.15ZM2583.3-25.364l24.054-30.611q22,8.338,44.018,19.235t40.9,22.4a308.651,308.651,0,0,1,31.663,21.71L2692.655,39.4a248.805,248.805,0,0,0-29.407-22.232Q2645.584,5.517,2624.961-5.57A457.578,457.578,0,0,0,2583.3-25.364Z" transform="translate(9202.911 15554.825)" fill="#fff"></path><path id="&#x30D1;&#x30B9;_24194" data-name="&#x30D1;&#x30B9; 24194" d="M126.051-243.748l39.808-19.2a322.746,322.746,0,0,1,22.739,28.44q11.062,15.48,19.921,30.561a242.768,242.768,0,0,1,14.181,27.6L180.4-153.619A195.144,195.144,0,0,0,167.324-182q-8.682-15.862-19.46-32.043T126.051-243.748ZM9.259-54.613q18.641-6.233,42.8-15.528t51-20.171q26.837-10.876,53.156-21.794l10.024,42.373q-23.957,10.761-48.912,21.594T68.591-27.267Q44.814-17.229,24.249-8.589ZM220.191-86.844l33.272-30.392q12.195,12.876,26.415,27.658t28.041,30.066q13.821,15.283,25.661,29.545A274.837,274.837,0,0,1,353.059-3.859L316.181,31.9A281.181,281.181,0,0,0,297.9,4.913Q286.7-9.951,273.482-25.833T246.465-57.42Q232.667-73.125,220.191-86.844Zm49.072-198.281,47.869,4.247q-6.435,61.194-18.655,110.393t-32.836,87.6a253.424,253.424,0,0,1-51.688,67.05Q182.88,12.814,138.459,32.816a104.928,104.928,0,0,0-9.222-11.967q-6.252-7.237-13.067-14.572A133.17,133.17,0,0,0,103.984-5.507q43.1-16.318,72.444-41.155a206.1,206.1,0,0,0,48.1-59.231q18.754-34.394,29.309-78.944T269.263-285.126ZM50.085-283.843l45.461-1.766L103.6-51.553,58.337-49.787Zm526.4,86.1H726.294v43.571H576.484ZM422.426-29.036H751.534V14.535H422.426ZM552.032-301.388h46.384v296.4H552.032Z" transform="translate(11125.723 16579.344)" fill="#fff"></path></g></g></g><path id="&#x30D1;&#x30B9;_24512" data-name="&#x30D1;&#x30B9; 24512" d="M329.511-405.742l74.443,55.723-160.64,218.54q13.06-1.741,22.2-2.612t14.366-.871q81.844,0,141.485,62.689,59.206,61.818,59.206,148.886,0,92.292-66.172,158.464-65.736,65.736-158.028,65.736-91.421,0-160.2-64.866Q28.691,171.082,28.691,82.273q0-79.667,65.736-168.912ZM381.752,83.144q0-53.547-37-90.551-37.439-37.439-90.115-37.439-53.111,0-90.115,37t-37,89.68q0,52.676,37,89.68t90.551,37q52.241,0,89.245-37Q381.752,134.079,381.752,83.144ZM567.641-50.505q0-160.64,74.878-256.415,67.042-86.633,162.382-86.633T967.283-306.92q74.878,95.775,74.878,260.768,0,164.558-74.878,260.333-67.042,86.632-161.946,86.632T642.52,214.181Q567.641,118.406,567.641-50.505Zm99.693.435q0,111.882,38.745,185.89,38.745,72.7,98.822,72.7,59.642,0,98.822-72.7Q942.9,63.554,942.9-46.587T903.723-229.43Q864.543-301.7,804.9-301.7q-59.206,0-98.387,72.266Q667.334-157.6,667.334-50.07Zm450.576-.435q0-160.64,74.878-256.415,67.042-86.633,162.382-86.633t162.382,86.633q74.878,95.775,74.878,260.768,0,164.558-74.878,260.333-67.042,86.632-161.946,86.632t-162.817-86.632Q1117.91,118.406,1117.91-50.505Zm99.693.435q0,111.882,38.745,185.89,38.745,72.7,98.822,72.7,59.642,0,98.822-72.7,39.181-72.266,39.181-182.407T1453.992-229.43q-39.18-72.266-98.822-72.266-59.206,0-98.387,72.266Q1217.6-157.6,1217.6-50.07Z" transform="translate(12324.275 18396.367)" fill="#fff"></path></g><path id="&#x30D1;&#x30B9;_32885" data-name="&#x30D1;&#x30B9; 32885" d="M203.143,424.285l-85.969-63.848L302.686,107.558q-15.082,2.011-25.64,3.016t-17.093,1.005q-94.013,0-162.888-71.892Q28.691-31.7,28.691-132.25q0-107.084,75.914-183,76.417-76.417,183-76.417,106.079,0,184.506,75.411,78.428,74.909,78.428,176.965,0,90.494-76.417,195.567ZM142.814-140.8q0,62.843,42.733,105.576Q228.783,8.015,289.615,8.015T393.179-34.718q43.236-43.236,43.236-104.068T393.179-242.854q-42.733-42.733-104.068-42.733-60.329,0-103.062,42.733Q142.814-199.618,142.814-140.8Zm868.738-264.945,85.969,64.351L912.009-89.015q15.082-2.011,25.64-3.016t16.591-1.005q94.516,0,163.391,72.395Q1186,50.748,1186,151.3q0,106.581-76.417,183-75.914,75.914-182.5,75.914-105.576,0-185.009-74.909-77.925-74.909-77.925-177.468,0-92,75.914-195.064Zm60.329,564.579q0-61.837-42.733-104.57Q985.912,11.031,925.081,11.031q-61.334,0-104.068,42.733T778.28,157.329q0,60.832,42.733,103.565t104.57,42.733q60.329,0,103.062-42.733Q1071.881,217.658,1071.881,158.837Z" transform="translate(7880 19202.34)" fill="#fff"></path></g></g></svg>