<svg xmlns="http://www.w3.org/2000/svg" width="2206" height="960" viewBox="0 0 2206 960"><g id="&#x30B0;&#x30EB;&#x30FC;&#x30D7;_20900" data-name="&#x30B0;&#x30EB;&#x30FC;&#x30D7; 20900" transform="translate(-135 -19366)"><path id="&#x30D1;&#x30B9;_36614" data-name="&#x30D1;&#x30B9; 36614" d="M0,0H529V465H0Z" transform="translate(135 19366)" fill="#fff"></path><path id="&#x30D1;&#x30B9;_36614_-_&#x30A2;&#x30A6;&#x30C8;&#x30E9;&#x30A4;&#x30F3;" data-name="&#x30D1;&#x30B9; 36614 - &#x30A2;&#x30A6;&#x30C8;&#x30E9;&#x30A4;&#x30F3;" d="M2,2V463H527V2H2M0,0H529V465H0Z" transform="translate(135 19366)" fill="#e2e2e2"></path><path id="&#x30D1;&#x30B9;_33886" data-name="&#x30D1;&#x30B9; 33886" d="M-139.975-1.925v3.3h8.8a53.362,53.362,0,0,1-.275-8.14v-27.72c0-2.365,0-2.365.165-6-1.485.11-3.9.165-6.875.165H-162.3a54.063,54.063,0,0,1-8.635-.44v8.525a77.8,77.8,0,0,1,8.525-.275h22.44V-9.79h-23.21a49.645,49.645,0,0,1-8.525-.44v8.58c2.915-.22,4.29-.275,8.36-.275Zm33.22-34.6A154.33,154.33,0,0,1-75.68-30.2l2.53-7.92c-12.98-3.41-19.305-4.62-30.69-5.885Zm-.77,15.235A128.005,128.005,0,0,1-93.17-18.92a94.829,94.829,0,0,1,15.51,4.51l2.42-7.975a165.378,165.378,0,0,0-29.37-6.325ZM-112.09-5.72a162.64,162.64,0,0,1,17.6,3.08A107.408,107.408,0,0,1-74.58,3.52l2.695-8.36a173.248,173.248,0,0,0-37.125-8.415Zm90.97.165c1.1-6.215,1.925-11.66,2.64-17.545a8.83,8.83,0,0,1,.99-3.685l-3.575-3.08a8.855,8.855,0,0,1-3.63.55h-13.31a41.568,41.568,0,0,1-6.49-.33v7.26a60.638,60.638,0,0,1,6.27-.22h11.88c-.55,5.445-1.375,10.78-2.53,17.05h-14.63a38.729,38.729,0,0,1-6.49-.33v7.26c1.595-.165,3.575-.22,6.49-.22h26.51c2.75,0,5.06.055,6.49.22v-7.26a37.6,37.6,0,0,1-6.435.33ZM12.54-30.14a73.046,73.046,0,0,1,7.975-.275h19.25a74.545,74.545,0,0,1,8.2.275v-8.635a53.856,53.856,0,0,1-8.36.385H20.625a53.63,53.63,0,0,1-8.085-.385ZM6.985-2.97c2.09-.165,4.895-.275,8.525-.275H44.715c4.29,0,6.325.055,8.745.275v-8.745a79.02,79.02,0,0,1-8.91.385H15.62a54.542,54.542,0,0,1-8.635-.385Zm99.33-18.48a71.2,71.2,0,0,1,7.975.275V-29.04a56.172,56.172,0,0,1-8.14.385H75.13a62.118,62.118,0,0,1-7.92-.385v7.92a59.222,59.222,0,0,1,7.81-.33H87.23A21.457,21.457,0,0,1,85.195-12.6C82.94-8.25,78.87-5.39,72.05-3.3A21.952,21.952,0,0,1,77.5,4.015C84.7,1.1,88.715-1.815,91.63-6.435c2.585-3.96,3.85-8.525,4.29-15.015ZM72.82-35.09a71.484,71.484,0,0,1,7.81-.275h20.075a61.886,61.886,0,0,1,8.03.275v-7.865a50.688,50.688,0,0,1-8.14.385H80.74a52.08,52.08,0,0,1-7.92-.385Zm89.76-1.1c-1.6,2.64-5.335,6.215-10.01,9.68a66.9,66.9,0,0,1-22.22,10.5,27.151,27.151,0,0,1,4.015,6.71c7.59-2.805,11.11-4.345,14.96-6.765v13.2a40.443,40.443,0,0,1-.33,6.38h8.415a46.2,46.2,0,0,1-.33-6.38V-20.735A67.483,67.483,0,0,0,167.31-29.7a14.289,14.289,0,0,1,1.87-1.87Zm-322.3,90.775c.66,0,.715,0,2.035.055a59.453,59.453,0,0,1-.22-5.995V35.335a47.886,47.886,0,0,1,.22-6.1,39.754,39.754,0,0,1-5.06.22h-16.5a28.583,28.583,0,0,1-5.225-.275c.165,2.2.22,3.52.22,5.94V70.59a43.421,43.421,0,0,1-6.105.77l1.265,7.37c.55-.165,1.155-.33,2.255-.605l7.315-1.6c5.335-1.265,6.765-1.65,10.835-2.805l-.055-5a33.021,33.021,0,0,0,2.64,3.3,35.871,35.871,0,0,0,8.36,6.82,22.329,22.329,0,0,1,3.85-6.765,26.891,26.891,0,0,1-8.965-6.875c1.98-1.43,4.015-3.025,5.115-4.015a31.022,31.022,0,0,1,2.97-2.475Zm-1.98-.055h1.265a35.587,35.587,0,0,1-5.83,5.225,21.612,21.612,0,0,1-1.65-5.225Zm-15.73,0h3.135a36.458,36.458,0,0,0,4.675,12.76,77.057,77.057,0,0,1-7.81,1.925Zm0-18.81h12.76v3.465h-12.76Zm0,9.295h12.76V48.7h-12.76ZM-204.1,71.8a58.477,58.477,0,0,1-.33,6.875h7.48c-.22-2.255-.275-4.4-.275-6.875V35.5h5.17a57.077,57.077,0,0,1-4.62,11.77,16.838,16.838,0,0,1,3.355,5.17,13.905,13.905,0,0,1,1.155,5.5c0,1.65-.605,2.145-2.53,2.145a15.761,15.761,0,0,1-1.98-.165c.935,1.98,1.21,3.465,1.32,6.82a18.164,18.164,0,0,0,6.1-.88c2.475-.935,3.85-3.3,3.85-6.435,0-4.62-1.045-7.48-4.455-12.54a98.656,98.656,0,0,0,4.84-11.605c.275-.77.495-1.43.715-1.925l-3.41-4.51a15.86,15.86,0,0,1-4.125.275h-8.305a26.594,26.594,0,0,1-4.18-.22c.22,3.135.22,3.685.22,5.555Zm81.29-3.025a14.816,14.816,0,0,1-7.535-6.82c.825-2.7,1.54-5.225,2.2-7.975l-7.2-1.32a36.744,36.744,0,0,1-3.74,11.88,33.353,33.353,0,0,1-6.71,8.855,23.011,23.011,0,0,1,5.61,5.445,40.06,40.06,0,0,0,7.1-10.23,19.594,19.594,0,0,0,8.745,6.765c3.74,1.485,9.295,2.2,17.05,2.2,2.97,0,6.27-.055,11-.165a28.17,28.17,0,0,1,1.7-7.37c-6.05.5-9.57.66-13.2.66a70.876,70.876,0,0,1-8.14-.385v-8.14h10.12a38.22,38.22,0,0,1,5.555.275V55.575a35.977,35.977,0,0,1-5.555.275h-10.12V49.8h8.195a39.808,39.808,0,0,1,5.72.275V45.95h6.16a30.853,30.853,0,0,1-.275-4.565v-4.73a33.678,33.678,0,0,1,.22-4.18c-2.145.165-4.125.22-6.325.22H-116.71v-1.65a17.025,17.025,0,0,1,.275-3.465h-7.92a17.585,17.585,0,0,1,.275,3.52v1.595h-13.915c-2.2,0-4.18-.055-6.325-.22a34.861,34.861,0,0,1,.22,4.18V41.33a27.333,27.333,0,0,1-.275,4.62h6.27v4.125a40.278,40.278,0,0,1,5.72-.275h9.57ZM-102.96,43.31c-1.375.11-2.75.165-4.785.165h-24.64c-2.09,0-3.465-.055-4.785-.165V39.185h34.21Zm47.245-6.05V33.795a34.024,34.024,0,0,1,.275-5.115h-9.02a39.693,39.693,0,0,1,.275,5.17v3.41h-10.34a43.7,43.7,0,0,1-6.325-.275c.11,1.6.165,2.915.165,5.555v6.655a46.948,46.948,0,0,1-.275,6.435h8.8a44.049,44.049,0,0,1-.275-6.435V44.52H-47.08c-1.045,9.79-5.17,16.28-13.475,21.12-3.3,1.98-6.215,3.025-11.385,4.18a25.921,25.921,0,0,1,5.28,7.92A51,51,0,0,0-55.77,72.9,34.669,34.669,0,0,0-41.855,57.885c1.87-4.125,2.86-7.755,3.8-14.3a7.691,7.691,0,0,1,.88-3.135l-3.685-3.74c-1.21.44-2.2.55-4.95.55ZM4.4,51.285H9.845a63,63,0,0,1,7.205.275V44.3a45.394,45.394,0,0,1-7.205.385H-8.58a53.325,53.325,0,0,1-6.93-.33v7.2c1.815-.165,3.8-.275,6.985-.275h5.39v17.05H-11.99A40.809,40.809,0,0,1-18.92,68V75.32a46.933,46.933,0,0,1,6.985-.275h24.86c3.465,0,5.665.11,7.59.275V68a54.688,54.688,0,0,1-7.535.33H4.4Zm67.815-19.91A33.2,33.2,0,0,1,76.78,38.91l4.785-2.2a29.993,29.993,0,0,0-4.62-7.37Zm6.49-2.86a36.175,36.175,0,0,1,4.565,7.37l4.675-2.255a32.762,32.762,0,0,0-4.675-7.15ZM51.37,37.81a42.053,42.053,0,0,1,.33-6.875H42.845a51.4,51.4,0,0,1,.33,6.82v24.09c0,6.93.66,9.46,3.08,11.22,2.365,1.7,6.1,2.365,13.42,2.365,4.235,0,10.725-.33,15.62-.825,3.52-.33,4.4-.44,5.555-.44l-.33-8.69a40.327,40.327,0,0,1-9.13,1.705,101.188,101.188,0,0,1-10.56.605c-4.785,0-7.755-.44-8.58-1.265-.825-.77-.88-1.32-.88-5.72V54.145a100.452,100.452,0,0,0,26.29-8.69,18.7,18.7,0,0,1,1.87-.88L74.36,37.2a18.9,18.9,0,0,1-4.84,3.025,76.857,76.857,0,0,1-18.15,6.215Zm74.415,4.125c0-.6,0-.6.055-1.98,0-1.32,0-2.915.055-4.895a30.069,30.069,0,0,1,.33-5.61h-9.02a54.154,54.154,0,0,1,.275,7.2c0,.605,0,2.365-.055,5.28h-12.65A49.172,49.172,0,0,1,96.8,41.55V49.8a73.362,73.362,0,0,1,7.81-.275h12.43c-.44,5.17-1.045,7.48-2.585,10.34-2.475,4.455-6.435,7.645-13.2,10.505a22.6,22.6,0,0,1,6.1,7.15,60.888,60.888,0,0,0,5.445-3.355,29.59,29.59,0,0,0,8.745-9.4c2.475-4.18,3.355-7.59,3.9-15.235H135.52a75.459,75.459,0,0,1,8.03.275V41.55a58.409,58.409,0,0,1-8.14.385Zm30.91,15.62c2.145-.22,5.28-.33,10.065-.33h27.775c4.29,0,7.92.11,10.12.275V48.48a72.208,72.208,0,0,1-10.065.385H166.76a68.7,68.7,0,0,1-10.065-.44Z" transform="translate(399.223 19702.369)" fill="#333"></path><g id="&#x30B0;&#x30EB;&#x30FC;&#x30D7;_20903" data-name="&#x30B0;&#x30EB;&#x30FC;&#x30D7; 20903" transform="translate(-4)"><rect id="&#x9577;&#x65B9;&#x5F62;_5131" data-name="&#x9577;&#x65B9;&#x5F62; 5131" width="529" height="465" transform="translate(1257 19366)" fill="#fff"></rect><path id="&#x9577;&#x65B9;&#x5F62;_5131_-_&#x30A2;&#x30A6;&#x30C8;&#x30E9;&#x30A4;&#x30F3;" data-name="&#x9577;&#x65B9;&#x5F62; 5131 - &#x30A2;&#x30A6;&#x30C8;&#x30E9;&#x30A4;&#x30F3;" d="M2,2V463H527V2H2M0,0H529V465H0Z" transform="translate(1257 19366)" fill="#e2e2e2"></path><path id="&#x30D1;&#x30B9;_33884" data-name="&#x30D1;&#x30B9; 33884" d="M-117.315-17.1l.11,12.815v1.21a45.656,45.656,0,0,1-.33,6.38h8.91a65.233,65.233,0,0,1-.385-7.645l-.275-23.925h4.07c3.135,0,5.665.11,7.59.275V-35.97a39.877,39.877,0,0,1-7.755.385h-3.96l-.055-3.025V-40.7c0-1.485.055-2.53.165-4.125h-8.635a44.508,44.508,0,0,1,.275,6.27l.055,2.915-17.875.055a52.927,52.927,0,0,1-7.92-.385V-28a69.137,69.137,0,0,1,7.755-.275l12.925-.055a42.443,42.443,0,0,1-7.095,8.58A55.949,55.949,0,0,1-146.465-8.36a21.405,21.405,0,0,1,5.5,6.93c7.425-4.235,11.44-7.15,16.17-11.77a51.363,51.363,0,0,0,7.59-9.35c-.11,2.585-.11,4.18-.11,4.675ZM-82.17-35.09A58.108,58.108,0,0,1-67.705-23.7l5.555-7.2c-4.4-4.07-7.535-6.38-14.63-10.67Zm2.64,36.63A20.067,20.067,0,0,1-76.78.77c1.045-.22,1.045-.22,2.42-.5a69.82,69.82,0,0,0,16-5.72c9.57-5.06,16.06-12.32,21.505-24.09a29.92,29.92,0,0,1-6.985-6.38A47.635,47.635,0,0,1-49.39-24.97,34.17,34.17,0,0,1-65.56-11.495,52.579,52.579,0,0,1-81.95-7.48Zm62.535-37.345c1.7-.165,3.9-.275,7.425-.275H8.745a51.441,51.441,0,0,1,7.37.275V-43.78c-1.98.385-3.025.44-7.48.44H-9.405a43.044,43.044,0,0,1-7.59-.44Zm-4.62,13.53a70.29,70.29,0,0,1,8.2-.275H11.6a27.1,27.1,0,0,1-8.69,11.935c-4.07,3.19-8.25,5.115-14.9,6.82A24.09,24.09,0,0,1-6.82,3.85C.715.88,4.455-1.045,8.195-4.07,13.64-8.47,17.875-14.8,20.68-22.88a16.677,16.677,0,0,1,1.54-3.465l-3.685-4.07c-1.595.495-2.145.55-5.335.55H-13.31a49.012,49.012,0,0,1-8.3-.385ZM74.91-45.045c-1.65,2.75-5.335,6.435-10.175,10.175A81.288,81.288,0,0,1,35.75-20.57a27.227,27.227,0,0,1,4.455,7.48c9.955-3.685,13.09-5.115,18.81-8.525v16.72a53.839,53.839,0,0,1-.33,7.975H67.76a68.586,68.586,0,0,1-.275-8.14V-26.73a93.057,93.057,0,0,0,12.87-11.22,18.684,18.684,0,0,1,2.09-1.98ZM99.33-35.09A58.108,58.108,0,0,1,113.795-23.7l5.555-7.2c-4.4-4.07-7.535-6.38-14.63-10.67Zm2.64,36.63a20.067,20.067,0,0,1,2.75-.77c1.045-.22,1.045-.22,2.42-.5a69.82,69.82,0,0,0,16-5.72c9.57-5.06,16.06-12.32,21.5-24.09a29.92,29.92,0,0,1-6.985-6.38A47.635,47.635,0,0,1,132.11-24.97a34.17,34.17,0,0,1-16.17,13.475A52.579,52.579,0,0,1,99.55-7.48ZM-144.87,35.775a58.416,58.416,0,0,1-10.34,1.98V35.06a38.425,38.425,0,0,1,.33-6.38h-8.14a42.092,42.092,0,0,1,.33,6.82v2.75a5.4,5.4,0,0,1-1.1.055c-2.035.055-2.2.055-2.7.055a36.556,36.556,0,0,1-6.93-.5l.055,7.315c.6-.055,1.1-.055,1.375-.055h.935c2.86.11,2.97.11,3.465.11.715,0,2.2-.055,4.95-.11V52.66a31.311,31.311,0,0,0-8.085,4.73c-3.135,2.75-4.9,5.885-4.9,8.69,0,2.915,1.6,5.555,4.62,7.59a18.269,18.269,0,0,0,9.79,3.135,5.929,5.929,0,0,0,5.06-2.255c.77-1.1.935-2.255.935-6.38V57.83a31.118,31.118,0,0,1,9.515-1.485c5.775,0,9.35,2.75,9.35,7.095,0,3.135-2.035,5.39-4.785,5.39-2.53,0-3.63-1.705-3.63-5.665a16.562,16.562,0,0,1,.275-3.025,27.126,27.126,0,0,1-7.26,2.97,10.31,10.31,0,0,0-.055,1.155c0,7.92,3.685,12.32,10.34,12.32A12.731,12.731,0,0,0-128.37,63.44a13.169,13.169,0,0,0-5.555-10.89c-2.97-1.98-6.82-2.97-11.66-2.97a36.954,36.954,0,0,0-9.68,1.155v-6c2.53-.275,4.015-.495,6.765-.935a34.914,34.914,0,0,1,3.9-.6ZM-162.635,66.96c0,1.815-.22,2.255-1.045,2.255a6.248,6.248,0,0,1-3.025-1.045,2.668,2.668,0,0,1-1.54-2.145c0-1.815,2.255-4.125,5.61-5.775Zm36.74-23.155a47.049,47.049,0,0,0-11-11.825l-6.05,4.29A48.307,48.307,0,0,1-132,48.645Zm44.385,1.6a36.664,36.664,0,0,1-2.475,7.645c-1.6-1.485-2.585-2.365-5.225-4.565l-4.07,3.96a37.229,37.229,0,0,1,.165-4.4h-7.205a36.661,36.661,0,0,1,.22,5v19.25c0,2.695-.11,4.9-.275,6.49h7.1v-2.2h19.25v2.2h7.15a58.305,58.305,0,0,1-.275-6.27V52.99a31.2,31.2,0,0,1,.275-5h-7.315a48.4,48.4,0,0,1,.165,4.84V63.6c-2.585-3.08-3.355-3.96-5.39-6.05a64.057,64.057,0,0,0,3.135-7.535c.5-1.43.605-1.6.88-2.365Zm7.48,18.92v5.94H-93.28v-4.9a24.375,24.375,0,0,1,4.84,4.455,44.254,44.254,0,0,0,5.72-6.71,65.045,65.045,0,0,1,4.565,6.05ZM-93.28,52.825a49.764,49.764,0,0,1,6.27,5.555,30.188,30.188,0,0,1-6.27,6.765ZM-103.455,39.13a47.761,47.761,0,0,1,2.75,8.47l4.015-1.87a57.589,57.589,0,0,0-3.355-8.36l-3.41,1.54V33.465a36.907,36.907,0,0,1,.33-5.94h-7.535a45.187,45.187,0,0,1,.33,5.94V71.58a68.007,68.007,0,0,1-.33,7.26h7.48a59.028,59.028,0,0,1-.275-6.875Zm-9.46,15.51a59.231,59.231,0,0,0,1.65-15.29l-4.51-.935v1.32a46.178,46.178,0,0,1-1.65,12.98Zm24.64-11.88A107.672,107.672,0,0,0-93.94,29.175l-6.1,2.475A89.437,89.437,0,0,1-94.38,45.455Zm15.18,4.455c2.53-4.125,4.235-7.92,7.59-16.555l-6.93-2.31C-74.8,36.1-75.955,38.8-79.42,44.41Zm-4.84-6.38c-2.365-7.535-3.135-9.625-4.9-13.42L-89.1,29.45a82.3,82.3,0,0,1,4.675,13.53ZM-48.07,38.36c1.6-.165,2.86-.22,3.74-.275,5.115-.275,8.47-.44,9.9-.6-.88,3.465-1.925,7.095-3.025,10.45-4.675.22-7.755,1.045-10.615,2.805A14.474,14.474,0,0,0-55.055,63.22a11.717,11.717,0,0,0,3.025,8.36,9.464,9.464,0,0,0,6.6,2.915c3.135,0,5.83-1.76,7.975-5.28,1.6-2.64,3.135-6.49,5.5-13.585a43.279,43.279,0,0,1,11.11,3.52,19.957,19.957,0,0,1-4.84,7.59c-2.2,2.2-4.18,3.52-8.25,5.5a28.953,28.953,0,0,1,5.83,6,33.946,33.946,0,0,0,8.085-6,26.109,26.109,0,0,0,6.16-9.515,46.158,46.158,0,0,1,7.205,4.84l2.86-8.69a15.744,15.744,0,0,1-2.255-1.1c-1.6-.935-4.51-2.42-5.775-3.08a87.894,87.894,0,0,0,.99-11.495,19.331,19.331,0,0,1,.33-3.85l-8.2-.33a16.975,16.975,0,0,1,.22,3.025,66.975,66.975,0,0,1-.5,9.625,47.019,47.019,0,0,0-10.78-3.025c.935-3.19,3.41-10.725,3.85-11.99a9.932,9.932,0,0,1,1.265-2.42l-5.115-4.345a4.948,4.948,0,0,1-2.2.66c-2.31.275-7.315.495-10.78.495a31.771,31.771,0,0,1-5.61-.275Zm8.58,16.665a73,73,0,0,1-3.19,8.085c-1.1,2.365-1.925,3.3-2.805,3.3-1.32,0-2.31-1.54-2.31-3.575A7.088,7.088,0,0,1-45.98,58.1,8.926,8.926,0,0,1-39.49,55.025Zm61.765-11.33a22.917,22.917,0,0,1,3.355.22V36.93a21.591,21.591,0,0,1-3.465.275h-2.75V33.08a40.752,40.752,0,0,1,.275-5.72H12.155a38.767,38.767,0,0,1,.33,5.775V37.2H9.625A20.042,20.042,0,0,1,5.5,36.93v7.04a19.83,19.83,0,0,1,4.015-.275H11.77A43.181,43.181,0,0,1,3.9,59.7,30.747,30.747,0,0,1,7.04,67.345,45.6,45.6,0,0,0,9.955,62.34a40.592,40.592,0,0,0,2.86-6.875c-.165,1.595-.275,5.06-.275,7.425v9.075a48.768,48.768,0,0,1-.385,6.93h7.59a59.507,59.507,0,0,1-.33-6.93V59.1c0-2.75-.055-4.18-.22-6.545a36.135,36.135,0,0,0,4.62,7.81,28.573,28.573,0,0,1,3.025-6.93,27.148,27.148,0,0,1-6.985-9.735ZM34.155,78.73V75.815h12.21V78.62h7.37a65.053,65.053,0,0,1-.275-7.1V34.73c0-2.365.055-3.96.165-5.665a39.206,39.206,0,0,1-5.06.22H32.01c-2.09,0-3.575-.055-5.115-.165.165,2.585.22,3.96.22,5.775v36.63c0,2.64-.11,5-.33,7.205Zm0-42.68h12.21v6.655H34.155Zm0,13.035h12.21V56.07H34.155Zm0,13.365h12.21v6.82H34.155Zm62.26-34.6a13.586,13.586,0,0,1,.22,2.42c0,4.345-.495,7.26-1.65,9.68-2.035,4.235-5.335,6.82-11.11,8.69a22.861,22.861,0,0,1,3.74,5.885,21.991,21.991,0,0,1-3.52,8.855l5.83,2.64c1.65-2.97,2.475-5.17,3.795-10.175L88.33,54.2c6.05-2.805,9.9-6.545,11.88-11.77a18.808,18.808,0,0,0,4.29,6.1,28.214,28.214,0,0,0,8.69,5.94,29.768,29.768,0,0,1,3.575-6.435c-4.455-1.54-6.655-2.805-8.91-5.005a14.169,14.169,0,0,1-3.245-4.62,21.124,21.124,0,0,1,5.61,3.08,45.422,45.422,0,0,0,5.72-9.57l-6.27-2.42a27.563,27.563,0,0,1-5.115,8.745,23.983,23.983,0,0,1-1.1-7.26,18.7,18.7,0,0,1,.22-3.135ZM85.085,39.35l5.445,2.09a35.294,35.294,0,0,0,3.685-10.01l-6.16-1.375a22.786,22.786,0,0,1-2.97,8.36v-1.87a30.242,30.242,0,0,1-4.455.22h-11a24.521,24.521,0,0,1-4.455-.275v6.545a33.24,33.24,0,0,1,4.455-.22H80.85a26.238,26.238,0,0,1,4.235.165Zm-1.21,33.77a22.623,22.623,0,0,1,2.75,6.215A23.771,23.771,0,0,0,94.6,74.44a19.326,19.326,0,0,0,5.61-8.085,28.171,28.171,0,0,0,13.365,12.87,28.99,28.99,0,0,1,3.63-7.04c-5.885-2.2-10.065-5.555-12.155-9.9a25.121,25.121,0,0,1,5.5,3.19,45.037,45.037,0,0,0,5.115-9.075l-6.325-2.255a27.149,27.149,0,0,1-4.345,7.975A23.408,23.408,0,0,1,103.4,53.1a25.066,25.066,0,0,1,.165-3.025h-7.26a16.974,16.974,0,0,1,.22,3.19c0,6.6-1.265,10.89-4.29,14.245a18.628,18.628,0,0,1-8.36,5.225v-8.47a32.841,32.841,0,0,1,.11-3.795,15.57,15.57,0,0,1-3.245.165H70.62a35.561,35.561,0,0,1-3.8-.165,34.264,34.264,0,0,1,.22,4.18v8.69c0,1.65-.11,3.465-.275,5.39h6.71V76.145h4.4V78.07h6.105a30.6,30.6,0,0,1-.11-3.575ZM73.26,65.75h4.62v4.785H73.26ZM67.155,34.565c1.32-.11,2.53-.165,4.675-.165h7.26c2.2,0,3.135.055,4.675.165V28.79a34.244,34.244,0,0,1-4.675.22H71.83a34.244,34.244,0,0,1-4.675-.22ZM67.21,50.79a18.385,18.385,0,0,1,3.355-.165h9.9a18.013,18.013,0,0,1,3.245.165V45.07a17.075,17.075,0,0,1-3.245.165h-9.9a26.49,26.49,0,0,1-3.355-.165Zm0,7.755a24.381,24.381,0,0,1,3.3-.165h9.845a23.663,23.663,0,0,1,3.355.165v-5.72a22.92,22.92,0,0,1-3.245.165h-9.9a25.32,25.32,0,0,1-3.355-.165Zm69.85-8.525a46.47,46.47,0,0,1,4.9-.22H160.6a45.467,45.467,0,0,1,5.115.22V46.28a51.443,51.443,0,0,0,8.8,4.51,32.619,32.619,0,0,1,3.41-7.37,52.55,52.55,0,0,1-13.64-6.765A33.323,33.323,0,0,1,154.99,27.8h-7.645a34.161,34.161,0,0,1-8.965,9.075,46.745,46.745,0,0,1-13.255,6.93,23.491,23.491,0,0,1,3.63,6.82,59.105,59.105,0,0,0,8.3-4.29Zm4.565-6.765a42.121,42.121,0,0,0,9.68-9.13,43.114,43.114,0,0,0,9.735,9.13Zm.22,17a69.846,69.846,0,0,1-5.39,10.12c-2.035.055-3.355.055-3.9.055-1.375,0-2.2,0-3.85-.11l.935,7.865c1.265-.22,3.52-.5,6.05-.66,2.09-.11,18.205-1.54,20.9-1.815,3.025-.275,3.135-.275,8.415-.99.88,1.32,1.375,2.035,2.915,4.455l6.435-4.07a116.487,116.487,0,0,0-12.485-14.685l-6.6,2.75c2.64,2.75,3.52,3.74,5.28,5.72-4.675.55-4.675.55-15.73,1.1a66.195,66.195,0,0,0,5.28-9.735h18.59a53.107,53.107,0,0,1,6.545.33V53.265c-1.815.165-3.9.275-6.545.275H134.2c-2.475,0-4.675-.11-6.545-.275V60.58a52.49,52.49,0,0,1,6.545-.33Z" transform="translate(1521.166 19702.369)" fill="#333"></path><g id="Discussion_Group" data-name="Discussion Group" transform="translate(1424.531 19417.129)"><circle id="&#x6955;&#x5186;&#x5F62;_491" data-name="&#x6955;&#x5186;&#x5F62; 491" cx="24.249" cy="24.249" r="24.249" transform="translate(7.658 113.161)" fill="#533afc"></circle><path id="&#x30D1;&#x30B9;_33655" data-name="&#x30D1;&#x30B9; 33655" d="M64.645,52.323H0a32.323,32.323,0,1,1,64.645,0Z" transform="translate(0 141.613)" fill="#533afc"></path><circle id="&#x6955;&#x5186;&#x5F62;_492" data-name="&#x6955;&#x5186;&#x5F62; 492" cx="24.249" cy="24.249" r="24.249" transform="translate(136.984 113.161)" fill="#533afc"></circle><path id="&#x30D1;&#x30B9;_33656" data-name="&#x30D1;&#x30B9; 33656" d="M80.645,52.323H16a32.323,32.323,0,0,1,64.645,0Z" transform="translate(113.29 141.613)" fill="#533afc"></path><circle id="&#x6955;&#x5186;&#x5F62;_493" data-name="&#x6955;&#x5186;&#x5F62; 493" cx="24.249" cy="24.249" r="24.249" transform="translate(72.321 113.161)" fill="#c3baff"></circle><path id="&#x30D1;&#x30B9;_33657" data-name="&#x30D1;&#x30B9; 33657" d="M87.806,52.323H7A32.323,32.323,0,0,1,39.323,20H55.484A32.323,32.323,0,0,1,87.806,52.323Z" transform="translate(49.565 141.613)" fill="#c3baff"></path><path id="&#x30D1;&#x30B9;_33658" data-name="&#x30D1;&#x30B9; 33658" d="M1,0V80.806H25.242V96.968L41.4,80.806h96.968l16.161,16.161V80.806h24.242V0Z" transform="translate(7.081)" fill="#ed6dde"></path><rect id="&#x9577;&#x65B9;&#x5F62;_5346" data-name="&#x9577;&#x65B9;&#x5F62; 5346" width="145.493" height="16.166" transform="translate(23.823 16.166)" fill="#fff"></rect><rect id="&#x9577;&#x65B9;&#x5F62;_5347" data-name="&#x9577;&#x65B9;&#x5F62; 5347" width="145.493" height="16.166" transform="translate(23.823 48.498)" fill="#fff"></rect></g></g><g id="&#x30B0;&#x30EB;&#x30FC;&#x30D7;_20904" data-name="&#x30B0;&#x30EB;&#x30FC;&#x30D7; 20904" transform="translate(1116)"><path id="&#x30D1;&#x30B9;_36615" data-name="&#x30D1;&#x30B9; 36615" d="M0,0H529V465H0Z" transform="translate(696 19861)" fill="#fff"></path><path id="&#x30D1;&#x30B9;_36615_-_&#x30A2;&#x30A6;&#x30C8;&#x30E9;&#x30A4;&#x30F3;" data-name="&#x30D1;&#x30B9; 36615 - &#x30A2;&#x30A6;&#x30C8;&#x30E9;&#x30A4;&#x30F3;" d="M2,2V463H527V2H2M0,0H529V465H0Z" transform="translate(696 19861)" fill="#e2e2e2"></path><path id="&#x30D1;&#x30B9;_33888" data-name="&#x30D1;&#x30B9; 33888" d="M-170.445,1.155c-.66-1.375-1.65-3.8-2.695-6.6l-12.1-32.395a37.241,37.241,0,0,1-1.87-5.72h-11.825a42.229,42.229,0,0,1-1.76,5.72l-11.99,32.395a51.124,51.124,0,0,1-2.805,6.6h10.89a27.464,27.464,0,0,1,1.485-5.83l1.87-5.335h16.61l1.87,5.335a39.335,39.335,0,0,1,1.43,5.83Zm-16.5-18.92h-11.99l5.17-15.565c.385-1.1.44-1.375.77-2.53.44,1.485.66,2.035.825,2.53Zm26.18-25.8a45.919,45.919,0,0,1,.44,7.59V-6.435a47.207,47.207,0,0,1-.44,7.59h10.12a46.347,46.347,0,0,1-.44-7.59V-35.97a45.5,45.5,0,0,1,.44-7.59Zm49.28,19.2v6.1H-118.8c-2.035,0-3.19-.055-4.51-.165.11,1.375.165,2.97.165,4.675v12.6c0,1.925-.11,4.345-.22,5.83h7.15V2.145h17.05v2.53h7.425A55.61,55.61,0,0,1-92.015-1.1V-13.53a42.582,42.582,0,0,1,.22-4.9,43.245,43.245,0,0,1-4.455.165h-7.975v-6.1h8.965a47.524,47.524,0,0,1,6.325.33V-31.35a48.1,48.1,0,0,1-6.325.33h-8.965v-6.435c3.135-.5,9.075-1.54,10.945-2.035,1.925-.44,1.925-.44,2.97-.715l-4.73-6.49c-5.06,2.42-17.435,4.345-29.645,4.62a19.3,19.3,0,0,1,2.42,6.38c4.62-.22,6.38-.385,10.78-.88v5.555h-7.81a48.931,48.931,0,0,1-6.27-.33v7.315a53.668,53.668,0,0,1,6.325-.33ZM-116.16-11.88h17.05V-4.4h-17.05ZM-138.6-41.195a64.85,64.85,0,0,1,10.01,7.645l4.29-5.665a69.685,69.685,0,0,0-9.9-7.15ZM-140.195-27a61.8,61.8,0,0,1,10.34,7.095l3.96-6.05A64.387,64.387,0,0,0-136.18-32.4Zm8.47,9.57c-2.8,7.865-5.335,12.87-8.3,16.5l6.325,5.115a94.193,94.193,0,0,0,7.755-17.6Zm82.39,5.335h11.77v8.25c0,1.1-.44,1.32-2.585,1.32-1.65,0-4.015-.165-6.545-.385a24.1,24.1,0,0,1,1.87,6.765c1.705.11,4.455.22,6,.22,6.545,0,8.415-1.375,8.415-6.215V-38.17a65.935,65.935,0,0,1,.22-6.6,65.233,65.233,0,0,1-6.6.22H-68.2c-2.97,0-4.4-.055-6.435-.22a65.873,65.873,0,0,1,.275,7.26c0,24.42-.825,30.195-5.335,37.18a44.663,44.663,0,0,1,6.38,5.28c3.08-5.06,4.51-9.625,5.39-17.05H-56.32v8.47a47.864,47.864,0,0,1-.33,6.71h7.59a52.093,52.093,0,0,1-.275-6.765Zm0-19.415v-6.27h11.77v6.27Zm-6.985,0H-67.21v-6.27h10.89Zm6.985,6.435h11.77v6.49h-11.77Zm-6.985,0v6.49H-67.485c.11-2.915.165-4.125.165-6.49Zm44.33-19.25a47.984,47.984,0,0,1-.88,5.5,114.685,114.685,0,0,0-2.145,21.5A104.4,104.4,0,0,0-13.585-.55c.165,1.265.22,1.7.275,2.695l7.975-.385C-5.39.99-5.39.715-5.39.165-5.39-4.18-3.8-10.01-.88-16.39l-4.84-1.98-1.045,2.64c-.275.66-.275.66-.99,2.805C-7.59-24.585-5.83-36.96-3.41-43.505ZM1.6-31.02c.825.055,1.265.055,1.54.11a78.906,78.906,0,0,0,8.855.44,117.243,117.243,0,0,0,14.575-.99,8.928,8.928,0,0,1,1.155-.055l-.385-7.975A64.145,64.145,0,0,1,12.265-38c-5.005,0-7.865-.22-10.56-.935Zm3.63,8.2C1.815-18.48.11-14.52.11-11.055a10.054,10.054,0,0,0,1.65,5.61C4.235-1.98,8.8-.33,15.785-.33a66.428,66.428,0,0,0,11.55-1.045c1.21-.165,1.54-.22,2.42-.33L29.2-10.01A40.54,40.54,0,0,1,15.84-7.865c-5.06,0-7.865-1.54-7.865-4.29,0-2.035,1.265-4.51,3.85-7.755ZM77.55-8.525a32.153,32.153,0,0,1,4.29.22v-5.83a27.853,27.853,0,0,1-4.235.22h-7.48c.055-.935.11-1.32.165-2.585h7.1a30.525,30.525,0,0,1,3.575.165v-5.61a21.611,21.611,0,0,1-3.63.22H75.955a34.989,34.989,0,0,0,2.035-3.63l-6.38-1.1a29.364,29.364,0,0,1-2.2,4.73h-3.8a33.349,33.349,0,0,0-2.86-4.785l-6.05,1.32a32.82,32.82,0,0,1,2.365,3.465H57.64a19.119,19.119,0,0,1-3.465-.22v5.61a31.579,31.579,0,0,1,3.63-.165h6c0,1.43-.055,1.76-.11,2.585H57.42a27.967,27.967,0,0,1-4.18-.22V-8.25a40.381,40.381,0,0,1,4.675-.275h4.4a10.23,10.23,0,0,1-3.9,3.74c-1.65,1.045-3.135,1.54-6.435,2.42A21.242,21.242,0,0,1,55.55,3.3c5.995-1.925,9.3-4.235,11.88-8.305A25.137,25.137,0,0,0,77.66,1.87,19.949,19.949,0,0,1,78.6-.88a24.255,24.255,0,0,1,.99,5.06c2.09.055,2.09.055,2.695.055,7.48,0,8.855-1.045,8.855-6.93V-38.94c0-2.805.055-4.18.22-6.215a47.061,47.061,0,0,1-5.61.22H74.36a46.472,46.472,0,0,1-5.61-.22c.11,1.595.165,3.08.165,5.115v8.305c0,2.53,0,3.52-.11,4.9,1.705-.055,3.025-.11,4.785-.11H84.205V-3.685c0,1.21-.275,1.375-2.09,1.375a20.62,20.62,0,0,1-2.805-.22c.385-.825.55-1.1,1.045-1.98a17.994,17.994,0,0,1-8.69-4.015Zm-2.09-31.68h8.745V-38H75.46Zm0,6.49h8.745v2.145H75.46ZM50.985-27H60.94c1.7,0,3.52.055,4.785.11-.055-1.045-.11-2.2-.11-4.84V-40.04c0-2.2.055-3.52.165-5.115a45.313,45.313,0,0,1-5.61.22H49.445a47.656,47.656,0,0,1-5.61-.22,62.014,62.014,0,0,1,.22,6.27V-2.53a52.791,52.791,0,0,1-.33,7.1h7.59a51.605,51.605,0,0,1-.33-6.93Zm0-13.2H59.18V-38H50.985Zm0,6.49H59.18v2.145H50.985Zm53.075,2.86c4.73-.66,11.88-1.045,24.97-1.43v3.355a8.112,8.112,0,0,1,.055.88,9.979,9.979,0,0,0-5.17-1.21c-6.82,0-11.66,4.29-11.66,10.285a9.029,9.029,0,0,0,3.685,7.535,10.827,10.827,0,0,0,6.6,2.2c3.465,0,5.83-.935,7.755-3.08a7.784,7.784,0,0,1-2.97,4.51c-2.75,2.365-6.6,3.85-12.43,4.84,2.255,2.475,2.97,3.685,4.565,7.425,4.895-1.485,7.7-2.695,10.45-4.51,5.775-3.74,8.69-8.855,8.69-15.18a16.739,16.739,0,0,0-2.035-8.305v-1.265l.055-4.51V-31.13l-.055-1.265c2.8-.055,3.245-.055,6.16-.055,5.885,0,7.2.055,9.57.22l-.055-7.59c-2.2.22-6.435.33-15.73.385a42.309,42.309,0,0,1,.33-6.1h-8.3a40.386,40.386,0,0,1,.385,6.27c-15.51.44-21.01.6-22.22.6a27.886,27.886,0,0,1-2.86-.11Zm20.68,7.59c2.585,0,4.29,1.375,4.29,3.355,0,2.31-2.09,4.125-4.785,4.125-2.42,0-4.18-1.54-4.18-3.63C120.065-21.615,122.045-23.265,124.74-23.265Zm47.3-11.88c1.65-.22,2.145-.22,3.9-.33,8.085-.385,9.02-.44,13.53-.825-7.755,7.755-19.25,16.885-24.42,19.36l4.4,7.1c6.82-6.1,14.355-9.24,22.44-9.24,6.325,0,10.4,2.585,10.4,6.6,0,3.465-1.6,5.555-5.5,7.15a14.031,14.031,0,0,0-2.53-4.73,12.2,12.2,0,0,0-9.68-4.455c-5.83,0-10.12,3.575-10.12,8.3a8.235,8.235,0,0,0,3.355,6.71c2.31,1.76,6.38,2.75,11.165,2.75a27.711,27.711,0,0,0,13.805-3.3c4.95-2.86,7.535-7.15,7.535-12.485a11.241,11.241,0,0,0-4.015-9.13,17.4,17.4,0,0,0-11.495-3.74,30.214,30.214,0,0,0-9.075,1.32,105.121,105.121,0,0,0,11.935-9.68c4.29-3.8,4.345-3.8,5.5-4.455l-3.9-5.72a9.334,9.334,0,0,1-3.74.715c-5.115.385-11.935.66-16.665.66a49.094,49.094,0,0,1-7.15-.385Zm17.71,31.79a8.017,8.017,0,0,1-2.31.275c-3.575,0-5.665-1.1-5.665-3.025,0-1.32,1.1-2.2,2.75-2.2C187.11-8.3,188.925-6.6,189.75-3.355ZM-83.16,35.28l.11-1.485c5.72-.22,5.72-.22,15.84-1.7l-4.07-5.39a41.467,41.467,0,0,1-7.7,1.65c-2.2.275-7.37.6-9.24.6a11.048,11.048,0,0,1-1.76-.11,13.382,13.382,0,0,1,.165,2.09,28.588,28.588,0,0,1-.88,7.15,10.356,10.356,0,0,1-2.475,4.9,32.119,32.119,0,0,1,3.41,1.98h-6.875V40.89h.99a25.345,25.345,0,0,1,3.74.22v-6.1a25.817,25.817,0,0,1-3.9.22h-10.34c0-.5.055-.715.055-1.43,7.26-.33,9.46-.6,14.795-1.815l-3.85-5.39a24.633,24.633,0,0,1-6,1.54,80.043,80.043,0,0,1-9.9.825c-.385,0-.55,0-2.035-.055.055.66.165,1.925.165,2.365,0,7.26-1.1,11.11-4.18,14.245a18.578,18.578,0,0,1,5.445,5.665,20.5,20.5,0,0,0,1.6-2.2v14.3c0,3.025-.055,4.895-.22,6.6a57.086,57.086,0,0,1,5.885-.22h3.025c-3.8,1.925-7.26,2.695-14.96,3.245a24.423,24.423,0,0,1,3.41,6.49c7.865-1.155,11.22-2.255,18.535-6l-5.06-3.74H-82.5l-4.95,3.41a37.361,37.361,0,0,0,7.59,3.63A55.743,55.743,0,0,0-68.585,79.39,25.266,25.266,0,0,1-65.34,72.9c-7.15-.5-10.78-1.265-15.29-3.245H-77a53.288,53.288,0,0,1,5.83.22,54.049,54.049,0,0,1-.22-6.325V52a69.392,69.392,0,0,1,.22-7.205c-1.045.055-1.43.11-2.035.11V40.89h3.245a23.948,23.948,0,0,1,4.125.275v-6.1a30.933,30.933,0,0,1-4.18.22Zm3.3,5.61v4.07h-5.83a24.174,24.174,0,0,0,1.6-4.07Zm-23.32,4.07h-1.54c-.495,0-1.65,0-3.355-.055a31.78,31.78,0,0,0,1.21-4.015h3.685Zm.11,5.115h24.695v2.09H-103.07Zm0,6.16h24.695v2.09H-103.07Zm0,6.215h24.695v2.035H-103.07Zm87.615,1.54h3.52a47.647,47.647,0,0,1,5.39.22V57.5a33.608,33.608,0,0,1-5.39.275h-3.52V50.24h3.85a22.453,22.453,0,0,1-2.365,3.8A27.085,27.085,0,0,1-8.855,56.4,40.41,40.41,0,0,0-5.28,49.36,17.814,17.814,0,0,1-4.29,47L-7.37,44.08a33.739,33.739,0,0,1-4.95.22h-2.145a3.558,3.558,0,0,0-.44-.495,59.373,59.373,0,0,0,8.03-8.415c.935-1.155,1.21-1.43,1.7-1.98L-9.02,29.5a33.335,33.335,0,0,1-4.9.22H-24.09A57.851,57.851,0,0,1-30.2,29.45v6.325a35.952,35.952,0,0,1,5.17-.165h1.045l-4.785,3.19a56.935,56.935,0,0,1,6.27,5.5h-3.9a35.8,35.8,0,0,1-5.225-.22v6.38a37.923,37.923,0,0,1,5.17-.22h4.895V68.39a16.033,16.033,0,0,1-3.19-4.95c.275-2.09.66-5.225.77-6.71A27.2,27.2,0,0,1-23.7,53.6l-6.325-.77a14.38,14.38,0,0,1,.11,2.2A41.971,41.971,0,0,1-31.845,67.73a23.813,23.813,0,0,1-3.74,6.765A20.443,20.443,0,0,1-30.47,79.28a33.909,33.909,0,0,0,3.9-8.25,13.974,13.974,0,0,0,4.785,4.73c2.805,1.65,7.315,2.475,13.09,2.475.6,0,1.54,0,2.805-.055a24.546,24.546,0,0,1,1.925-7.1,67.35,67.35,0,0,1-7.04.5,25.235,25.235,0,0,1-4.455-.385Zm.44-28.38a36.055,36.055,0,0,1-3.8,4.015,45.645,45.645,0,0,0-4.84-4.015Zm-31.68,28.765c-1.375,4.015-4.07,6.49-9.625,8.8a18.024,18.024,0,0,1,4.18,5.72c5.335-2.915,7.865-5.225,9.955-9.075a24.839,24.839,0,0,0,4.84,5.5,21.86,21.86,0,0,1,4.015-5.61,19.087,19.087,0,0,1-5.775-5.335h2.53a41.573,41.573,0,0,1,4.84.22V58.1a27.426,27.426,0,0,1-4.84.275h-2.64c.055-1.21.055-1.54.165-3.795h1.32c2.2,0,3.685.055,5.115.165V48.59a28.676,28.676,0,0,1-5.115.275h-6.93c.385-.935.44-1.045,1.045-2.585,10.725-.055,11.77-.77,12.595-8.14a20.714,20.714,0,0,1-6.16-1.87c-.055,2.86-.22,3.63-.99,4.015-.605.275-.605.275-3.41.44-4.62,0-5-.11-5-1.485V37.975A112.389,112.389,0,0,0-31.3,34.07l-3.575-5.61a40.167,40.167,0,0,1-11.715,3.9,21.155,21.155,0,0,1,.275-4.345h-7.1a24.82,24.82,0,0,1,.275,4.51v9.515c0,2.145.825,3.19,3.135,3.795-1.21,3.355-2.805,5.555-6.16,8.47a17.282,17.282,0,0,1,4.565,4.07A31.78,31.78,0,0,1-55.6,58.1V64.6a44.474,44.474,0,0,1,4.9-.22Zm-4.015-6h-.55A21.189,21.189,0,0,0-47.9,54.585h2.475c-.055,2.255-.055,2.585-.165,3.795ZM30.525,39.185l-4.29,3.74a50.4,50.4,0,0,1,13.8,9.845l5.005-5.335a79.92,79.92,0,0,0-12.43-8.25H48.62a57.672,57.672,0,0,1,6.71.275V32.2a51.8,51.8,0,0,1-6.71.33H35.035V30.44a14.436,14.436,0,0,1,.22-3.025h-7.81a15.445,15.445,0,0,1,.275,2.915v2.2H13.97c-2.53,0-3.96-.055-5.885-.22.165,1.925.22,4.125.22,7.7,0,8.3-.5,17.985-1.155,21.945a34.765,34.765,0,0,1-3.41,10.78A28.9,28.9,0,0,1,9.57,78.51a48.49,48.49,0,0,0,4.18-13.365c1.155-6.215,1.54-12.375,1.54-25.96ZM20.68,75.21c2.585-7.15,3.52-11.935,4.235-22.55l-6.6-1.65a83.647,83.647,0,0,1-.99,10.34,35.393,35.393,0,0,1-2.97,10.065Zm6.1-27a30.476,30.476,0,0,1,.33,5.225V73.89c0,1.925.66,3.025,2.2,3.63,1.155.5,3.575.715,7.315.715,4.895,0,7.095-.66,8.305-2.42,1.155-1.65,1.595-4.4,2.035-11.88a24.748,24.748,0,0,1-6.545-2.2,44.373,44.373,0,0,1-.44,8.25c-.33,1.045-.99,1.32-3.3,1.32-2.255,0-2.64-.22-2.64-1.485V53.485a32.9,32.9,0,0,1,.275-5.28ZM56.375,71.03a100.715,100.715,0,0,0-7.04-20.35l-6.16,2.97A66.332,66.332,0,0,1,49.5,74.33Zm20.79-33.11a41.012,41.012,0,0,1,2.2,6.875l5.61-1.375C80.41,47.765,72.82,51.395,64.46,53.155a27.821,27.821,0,0,1,3.465,6.765A58.659,58.659,0,0,0,78.65,55.465V58.38c1.7-.11,2.53-.165,4.895-.165h14.41c1.54,0,3.41.055,4.84.165V55.465A81.689,81.689,0,0,0,113.85,59.7a28.021,28.021,0,0,1,3.3-7.1,60.312,60.312,0,0,1-12.375-3.685c-4.675-2.035-7.975-4.125-10.23-6.545a47.28,47.28,0,0,0,2.86-4.4H99.77a36.1,36.1,0,0,1,2.915,7.37l6.765-1.87a43.419,43.419,0,0,0-2.75-5.555h3.465a55.43,55.43,0,0,1,5.61.275v-6.82a39.525,39.525,0,0,1-5.61.275H100.43c.33-.88.33-.88,1.375-3.52l-7.04-1.045a28.928,28.928,0,0,1-4.62,9.79v-5.5a24.207,24.207,0,0,1-5.06.33h-6c.715-1.705.715-1.705,1.54-3.52l-7.1-1.155A27.58,27.58,0,0,1,64.9,40.01a24.582,24.582,0,0,1,4.345,5.445,44.633,44.633,0,0,0,6.38-7.535Zm8.635,0a34.208,34.208,0,0,1,3.465.11L88.22,39.24a24.945,24.945,0,0,1,3.135,2.585h-5l-.6.77a44.342,44.342,0,0,0-1.98-4.675ZM83.765,52.495A46.864,46.864,0,0,0,90.31,47.38a38.705,38.705,0,0,0,6.985,5.115ZM79.53,76.145h22.44v2.42h7.26a44.258,44.258,0,0,1-.275-5.94v-6.6a41.262,41.262,0,0,1,.22-5.39,38.552,38.552,0,0,1-5.115.22H77.5c-2.42,0-3.8-.055-5.06-.165a44.335,44.335,0,0,1,.22,5.28v6.545c0,2.31-.11,4.235-.275,6h7.15Zm0-9.46h22.495V70.15H79.53Z" transform="translate(958.799 20197.973)" fill="#333"></path><g id="Discussion" transform="translate(863.533 19924.732)"><rect id="&#x9577;&#x65B9;&#x5F62;_5348" data-name="&#x9577;&#x65B9;&#x5F62; 5348" width="113.423" height="79.954" transform="translate(32.63 16.092)" fill="#7965ff"></rect><circle id="&#x6955;&#x5186;&#x5F62;_494" data-name="&#x6955;&#x5186;&#x5F62; 494" cx="24.172" cy="24.172" r="24.172" transform="translate(15.896 112.78)" fill="#533afc"></circle><path id="&#x30D1;&#x30B9;_33659" data-name="&#x30D1;&#x30B9; 33659" d="M80.807,52.323H0A32.323,32.323,0,0,1,32.323,20H48.484A32.323,32.323,0,0,1,80.807,52.323Z" transform="translate(0 141.613)" fill="#533afc"></path><circle id="&#x6955;&#x5186;&#x5F62;_495" data-name="&#x6955;&#x5186;&#x5F62; 495" cx="24.172" cy="24.172" r="24.172" transform="translate(129.318 112.78)" fill="#533afc"></circle><path id="&#x30D1;&#x30B9;_33660" data-name="&#x30D1;&#x30B9; 33660" d="M94.807,52.323H14A32.323,32.323,0,0,1,46.323,20H62.484A32.323,32.323,0,0,1,94.807,52.323Z" transform="translate(99.129 141.613)" fill="#533afc"></path><path id="&#x30D1;&#x30B9;_33661" data-name="&#x30D1;&#x30B9; 33661" d="M6,0V80.806H94.887l24.242,16.161V0Z" transform="translate(42.484)" fill="#ed6dde"></path><rect id="&#x9577;&#x65B9;&#x5F62;_5349" data-name="&#x9577;&#x65B9;&#x5F62; 5349" width="65.079" height="16.734" transform="translate(129.318 64.436) rotate(180)" fill="#fff"></rect><rect id="&#x9577;&#x65B9;&#x5F62;_5350" data-name="&#x9577;&#x65B9;&#x5F62; 5350" width="81.813" height="16.734" transform="translate(146.053 32.826) rotate(180)" fill="#fff"></rect></g></g><g id="&#x30B0;&#x30EB;&#x30FC;&#x30D7;_20902" data-name="&#x30B0;&#x30EB;&#x30FC;&#x30D7; 20902" transform="translate(-2)"><rect id="&#x9577;&#x65B9;&#x5F62;_5129" data-name="&#x9577;&#x65B9;&#x5F62; 5129" width="529" height="465" transform="translate(696 19366)" fill="#fff"></rect><path id="&#x9577;&#x65B9;&#x5F62;_5129_-_&#x30A2;&#x30A6;&#x30C8;&#x30E9;&#x30A4;&#x30F3;" data-name="&#x9577;&#x65B9;&#x5F62; 5129 - &#x30A2;&#x30A6;&#x30C8;&#x30E9;&#x30A4;&#x30F3;" d="M2,2V463H527V2H2M0,0H529V465H0Z" transform="translate(696 19366)" fill="#e2e2e2"></path><path id="&#x30D1;&#x30B9;_33885" data-name="&#x30D1;&#x30B9; 33885" d="M-116.215-36.74v-3.465a34.024,34.024,0,0,1,.275-5.115h-9.02a39.693,39.693,0,0,1,.275,5.17v3.41h-10.34a43.7,43.7,0,0,1-6.325-.275c.11,1.6.165,2.915.165,5.555v6.655a46.948,46.948,0,0,1-.275,6.435h8.8a44.049,44.049,0,0,1-.275-6.435V-29.48h25.355c-1.045,9.79-5.17,16.28-13.475,21.12-3.3,1.98-6.215,3.025-11.385,4.18a25.921,25.921,0,0,1,5.28,7.92A51,51,0,0,0-116.27-1.1a34.669,34.669,0,0,0,13.915-15.015c1.87-4.125,2.86-7.755,3.8-14.3a7.691,7.691,0,0,1,.88-3.135l-3.685-3.74c-1.21.44-2.2.55-4.95.55ZM-56.1-22.715h5.445a63,63,0,0,1,7.205.275V-29.7a45.394,45.394,0,0,1-7.205.385H-69.08a53.324,53.324,0,0,1-6.93-.33v7.2c1.815-.165,3.795-.275,6.985-.275h5.39v17.05H-72.49a40.809,40.809,0,0,1-6.93-.33V1.32a46.933,46.933,0,0,1,6.985-.275h24.86c3.465,0,5.665.11,7.59.275V-5.995a54.688,54.688,0,0,1-7.535.33H-56.1Zm67.815-19.91A33.2,33.2,0,0,1,16.28-35.09l4.785-2.2a29.993,29.993,0,0,0-4.62-7.37Zm6.49-2.86a36.175,36.175,0,0,1,4.565,7.37l4.675-2.255a32.762,32.762,0,0,0-4.675-7.15ZM-9.13-36.19a42.053,42.053,0,0,1,.33-6.875h-8.855a51.4,51.4,0,0,1,.33,6.82v24.09c0,6.93.66,9.46,3.08,11.22C-11.88.77-8.14,1.43-.825,1.43,3.41,1.43,9.9,1.1,14.795.605c3.52-.33,4.4-.44,5.555-.44l-.33-8.69a40.328,40.328,0,0,1-9.13,1.7A101.189,101.189,0,0,1,.33-6.215c-4.785,0-7.755-.44-8.58-1.265-.825-.77-.88-1.32-.88-5.72v-6.655a100.453,100.453,0,0,0,26.29-8.69,18.7,18.7,0,0,1,1.87-.88L13.86-36.8A18.9,18.9,0,0,1,9.02-33.77,76.858,76.858,0,0,1-9.13-27.555Zm74.415,4.125c0-.6,0-.6.055-1.98,0-1.32,0-2.915.055-4.895a30.069,30.069,0,0,1,.33-5.61h-9.02a54.154,54.154,0,0,1,.275,7.2c0,.605,0,2.365-.055,5.28H44.275A49.172,49.172,0,0,1,36.3-32.45v8.25a73.361,73.361,0,0,1,7.81-.275H56.54c-.44,5.17-1.045,7.48-2.585,10.34C51.48-9.68,47.52-6.49,40.755-3.63a22.6,22.6,0,0,1,6.1,7.15A60.889,60.889,0,0,0,52.305.165a29.59,29.59,0,0,0,8.745-9.4c2.475-4.18,3.355-7.59,3.9-15.235H75.02a75.458,75.458,0,0,1,8.03.275v-8.25a58.409,58.409,0,0,1-8.14.385Zm30.91,15.62c2.145-.22,5.28-.33,10.065-.33h27.775c4.29,0,7.92.11,10.12.275v-9.02a72.207,72.207,0,0,1-10.065.385H106.26a68.7,68.7,0,0,1-10.065-.44ZM-160.215,31.43c-1.375.495-1.925.55-5.06.55h-28.38a51.491,51.491,0,0,1-8.58-.44v8.25c2.475-.22,5.17-.33,8.47-.33h27.225c-2.805,5.225-6.215,8.305-12.155,11.11.055-1.6.055-2.31.055-2.585a34.011,34.011,0,0,1,.275-4.675h-8.855A15.831,15.831,0,0,1-186.945,47c0,7.645-.99,11.77-3.74,15.235-2.86,3.63-6.765,6.05-12.815,7.92a23.108,23.108,0,0,1,5.225,7.535c8.47-3.63,13.2-7.535,16.335-13.31,1.98-3.74,2.86-7.37,3.19-13.42a21.482,21.482,0,0,1,5.775,5.61c7.205-4.18,11.825-9.405,15.565-17.545a8.456,8.456,0,0,1,1.6-2.695Zm14.135,26.125c2.145-.22,5.28-.33,10.065-.33h27.775c4.29,0,7.92.11,10.12.275V48.48a72.208,72.208,0,0,1-10.065.385h-27.83a68.7,68.7,0,0,1-10.065-.44ZM-75.515,38.91a37.569,37.569,0,0,1-7.7-.44l.055,8.03c1.98-.33,2.09-.33,7.535-.33h7.15l-.275,1.6a27.845,27.845,0,0,1-2.64,8.8c-2.805,5.665-7.15,9.845-14.3,13.585a26.9,26.9,0,0,1,5.995,6.985c7.15-4.62,12.1-9.68,15.125-15.455,2.365-4.675,3.465-8.58,4.29-15.51l11.715-.055A124.7,124.7,0,0,1-49.61,62.12c-.825,5.28-1.54,6.38-4.125,6.38a28.221,28.221,0,0,1-7.2-1.21c1.21,3.08,1.43,4.235,1.595,8.25a41.8,41.8,0,0,0,6.93.6c5.555,0,7.975-1.595,9.46-6.1,1.265-3.685,2.2-13.365,2.53-24.695.055-2.2.165-2.75.66-3.795l-3.685-3.245a10.392,10.392,0,0,1-4.015.55h-12.1c.11-1.76.165-2.09.22-3.245a46.862,46.862,0,0,1,.495-6.6l-8.745-.22a17.44,17.44,0,0,1,.11,2.31c0,2.585-.11,5.445-.275,7.81ZM13.31,28.955C11.66,31.705,7.975,35.39,3.135,39.13A81.288,81.288,0,0,1-25.85,53.43a27.227,27.227,0,0,1,4.455,7.48c9.955-3.685,13.09-5.115,18.81-8.525v16.72a53.839,53.839,0,0,1-.33,7.975H6.16a68.586,68.586,0,0,1-.275-8.14V47.27a93.057,93.057,0,0,0,12.87-11.22,18.684,18.684,0,0,1,2.09-1.98Zm64.735,7.26,2.145-.825a34.2,34.2,0,0,0-4.345-7.37l-4.565,1.7a27.283,27.283,0,0,1,2.8,4.4,27.13,27.13,0,0,1-3.025.165H46.09a56.229,56.229,0,0,1-8.635-.385V42.32a64.486,64.486,0,0,1,8.525-.33H70.07A36.636,36.636,0,0,1,53.68,64.925,44.667,44.667,0,0,1,41.855,70.37a24.982,24.982,0,0,1,5.83,7.865c7.92-3.52,13.2-6.93,17.93-11.5Q75.1,57.583,78.98,42.6a21.589,21.589,0,0,1,1.21-4.015Zm-.22-8.58a37.64,37.64,0,0,1,4.29,7.37l4.51-1.925a28.915,28.915,0,0,0-4.345-7.2Zm25.19,7.755v3.685H101.86c-3.025,0-4.125-.055-5.72-.165A62.639,62.639,0,0,1,96.415,46v24.97a76.047,76.047,0,0,1-.33,7.755h6.435V75.98H114.4V77.9h6.27a61.845,61.845,0,0,1-.22-6.325V45.29c0-2.475.055-4.675.165-6.38-1.6.11-2.64.165-5.61.165h-.88V35.39h1.43c1.815,0,4.18.055,5.665.22V28.735a54.66,54.66,0,0,1-6.38.33H101.42a52.036,52.036,0,0,1-6.27-.33V35.61c1.6-.165,3.74-.22,6.215-.22Zm4.785,0h1.485v3.685H107.8Zm-5.5,21.34a12.186,12.186,0,0,1,2.255,3.96,14.661,14.661,0,0,0,2.255-5.28,45.3,45.3,0,0,0,.99-9.57V44.575h1.485v10.34c0,2.2.6,2.53,4.125,2.53h1.21V60.91H102.3Zm0-12.155h1.87c-.11,5.775-.44,7.755-1.87,10.725Zm10.56,0h1.76V52c-1.65,0-1.76-.055-1.76-1.045ZM102.3,66.41h12.32v3.41H102.3Zm41.195-31.955c0-2.475.055-3.3.22-5.665a42.977,42.977,0,0,1-5.83.275H128.81a50.483,50.483,0,0,1-6.325-.33V36a39.683,39.683,0,0,1,6.325-.33h7.7v10.67h-8.14a54.7,54.7,0,0,1-5.61-.22,48.723,48.723,0,0,1,.22,5.445V72.13c0,5.005,1.265,5.775,9.9,5.775,6.875,0,9.515-.6,10.89-2.585,1.1-1.54,1.54-4.4,1.815-11.165a22.391,22.391,0,0,1-6.71-2.475c0,4.895-.275,7.645-.825,8.635-.495.77-1.6,1.045-4.51,1.045a9.062,9.062,0,0,1-3.19-.385c-.385-.22-.44-.495-.44-1.54v-16.5h8.25a39.628,39.628,0,0,1,5.555.275,54.241,54.241,0,0,1-.22-5.555Zm23.43,5.885a66.113,66.113,0,0,0,3.19-8.36c.385-1.265.605-1.815.88-2.64l-7.15-2.475a33.064,33.064,0,0,1-1.98,7.48,37.331,37.331,0,0,1-7.92,13.365,39.665,39.665,0,0,1,2.64,8.195,22.685,22.685,0,0,0,3.52-4.895c-.11,3.85-.11,4.455-.11,5.885v15.4a46.634,46.634,0,0,1-.33,6.38h7.59a47.742,47.742,0,0,1-.33-6.325Zm35.31-11.275a54.393,54.393,0,0,1-5.94.275h-17.93a43.719,43.719,0,0,1-5.72-.275v6.16a41.6,41.6,0,0,1,5.005-.22H196.9a48.46,48.46,0,0,1,5.335.22Zm0,16.335a30.594,30.594,0,0,1-4.125.22H175.78a31.332,31.332,0,0,1-3.685-.165v5.72a31.984,31.984,0,0,1,3.685-.165h22.385a28.727,28.727,0,0,1,4.07.22Zm0,7.7a29.228,29.228,0,0,1-4.07.22H175.78a31.331,31.331,0,0,1-3.685-.165v5.72a30.069,30.069,0,0,1,3.685-.165h22.44a29.411,29.411,0,0,1,4.015.22Zm-23.65,23.21H195.36v2.365h7.205a38.462,38.462,0,0,1-.275-5.225V65.365a34.676,34.676,0,0,1,.22-4.51c-1.155.11-2.365.165-4.455.165h-22c-1.87,0-3.3-.055-4.51-.165a38.46,38.46,0,0,1,.22,4.565v8.14a45.813,45.813,0,0,1-.275,5.17h7.1Zm0-5.83V66.85H195.36v3.63Zm-9.35-27.005a38.7,38.7,0,0,1,4.51-.22H200.8a34.024,34.024,0,0,1,5.115.275V37.04a41.283,41.283,0,0,1-5.115.275h-27.06a26.727,26.727,0,0,1-4.51-.275Z" transform="translate(967.936 19702.369)" fill="#333"></path><g id="Live_Mobile" data-name="Live Mobile" transform="translate(859.604 19416.82)"><rect id="&#x9577;&#x65B9;&#x5F62;_5362" data-name="&#x9577;&#x65B9;&#x5F62; 5362" width="132.852" height="15.403" transform="translate(34.303 0.309)" fill="#5345b2"></rect><rect id="&#x9577;&#x65B9;&#x5F62;_5363" data-name="&#x9577;&#x65B9;&#x5F62; 5363" width="132.852" height="32.732" transform="translate(34.303 167.817)" fill="#5345b2"></rect><rect id="&#x9577;&#x65B9;&#x5F62;_5364" data-name="&#x9577;&#x65B9;&#x5F62; 5364" width="132.852" height="152.106" transform="translate(34.303 15.712)" fill="#c3baff"></rect><rect id="&#x9577;&#x65B9;&#x5F62;_5365" data-name="&#x9577;&#x65B9;&#x5F62; 5365" width="32.732" height="17.328" transform="translate(84.364 175.519)" fill="#fff"></rect><path id="&#x30D1;&#x30B9;_33702" data-name="&#x30D1;&#x30B9; 33702" d="M105.042,7,79.94,23.735V7H13V73.94H79.94V57.2l25.1,16.735Z" transform="translate(96.104 51.287)" fill="#533afc"></path><circle id="&#x6955;&#x5186;&#x5F62;_527" data-name="&#x6955;&#x5186;&#x5F62; 527" cx="16.366" cy="16.366" r="16.366" transform="translate(126.722 75.399)" fill="#fff"></circle><rect id="&#x9577;&#x65B9;&#x5F62;_5366" data-name="&#x9577;&#x65B9;&#x5F62; 5366" width="84.717" height="67.389" transform="translate(-0.354 58.07)" fill="#ed6dde"></rect></g></g><g id="Live_Streaming" data-name="Live Streaming" transform="translate(293.717 19417.129)"><rect id="&#x9577;&#x65B9;&#x5F62;_5371" data-name="&#x9577;&#x65B9;&#x5F62; 5371" width="176.473" height="141.99" transform="translate(8.312 16.853)" fill="#c3baff"></rect><rect id="&#x9577;&#x65B9;&#x5F62;_5372" data-name="&#x9577;&#x65B9;&#x5F62; 5372" width="139.962" height="105.478" transform="translate(26.568 35.109)" fill="#fff"></rect><path id="&#x30D1;&#x30B9;_33709" data-name="&#x30D1;&#x30B9; 33709" d="M86.522,1,68.892,18.631V1H16V53.892H68.892V36.261L86.522,53.892Z" transform="translate(125.045 -1)" fill="#533afc"></path><circle id="&#x6955;&#x5186;&#x5F62;_529" data-name="&#x6955;&#x5186;&#x5F62; 529" cx="9.128" cy="9.128" r="9.128" transform="translate(158.416 16.853)" fill="#fff"></circle><path id="&#x30D1;&#x30B9;_33710" data-name="&#x30D1;&#x30B9; 33710" d="M0,19H193.936V36.631a17.631,17.631,0,0,1-17.631,17.631H17.631A17.631,17.631,0,0,1,0,36.631Z" transform="translate(0 139.675)" fill="#5344b2"></path><rect id="&#x9577;&#x65B9;&#x5F62;_5373" data-name="&#x9577;&#x65B9;&#x5F62; 5373" width="68.967" height="18.256" transform="translate(71.193 158.843)" fill="#806eff"></rect><g id="&#x30B0;&#x30EB;&#x30FC;&#x30D7;_16145" data-name="&#x30B0;&#x30EB;&#x30FC;&#x30D7; 16145" transform="translate(75.66 61.524)"><g id="&#x30B0;&#x30EB;&#x30FC;&#x30D7;_16136" data-name="&#x30B0;&#x30EB;&#x30FC;&#x30D7; 16136" transform="translate(0 0)"><g id="&#x30B0;&#x30EB;&#x30FC;&#x30D7;_16135" data-name="&#x30B0;&#x30EB;&#x30FC;&#x30D7; 16135" transform="translate(0 0)"><g id="&#x30B0;&#x30EB;&#x30FC;&#x30D7;_16130" data-name="&#x30B0;&#x30EB;&#x30FC;&#x30D7; 16130"><path id="&#x524D;&#x9762;&#x30AA;&#x30D6;&#x30B8;&#x30A7;&#x30AF;&#x30C8;&#x3067;&#x578B;&#x629C;&#x304D;_4" data-name="&#x524D;&#x9762;&#x30AA;&#x30D6;&#x30B8;&#x30A7;&#x30AF;&#x30C8;&#x3067;&#x578B;&#x629C;&#x304D; 4" d="M40.737,41.058H9.5L0,30.321V0H28.516V5.888h5.86v5.888h6.362V41.057Zm-28.572-28.9h0V28.931H28.58V12.158H12.165Z" transform="translate(1.036 11.593)" fill="#533afc"></path><g id="&#x30B0;&#x30EB;&#x30FC;&#x30D7;_16129" data-name="&#x30B0;&#x30EB;&#x30FC;&#x30D7; 16129"><g id="&#x30B0;&#x30EB;&#x30FC;&#x30D7;_16126" data-name="&#x30B0;&#x30EB;&#x30FC;&#x30D7; 16126" transform="translate(1.036)"><g id="&#x30B0;&#x30EB;&#x30FC;&#x30D7;_17945" data-name="&#x30B0;&#x30EB;&#x30FC;&#x30D7; 17945" transform="translate(0)"><g id="&#x30B0;&#x30EB;&#x30FC;&#x30D7;_8890" data-name="&#x30B0;&#x30EB;&#x30FC;&#x30D7; 8890"><g id="&#x30B0;&#x30EB;&#x30FC;&#x30D7;_2225" data-name="&#x30B0;&#x30EB;&#x30FC;&#x30D7; 2225"><path id="&#x7DDA;_37" data-name="&#x7DDA; 37" d="M-15.343,40.906H-27.5V0h12.157Z" transform="translate(27.5)" fill="#533afc"></path><rect id="&#x9577;&#x65B9;&#x5F62;_881" data-name="&#x9577;&#x65B9;&#x5F62; 881" width="28.58" height="28.9" transform="translate(6.079 17.672)" fill="rgba(0,0,0,0)"></rect></g></g></g></g><rect id="&#x9577;&#x65B9;&#x5F62;_3435" data-name="&#x9577;&#x65B9;&#x5F62; 3435" width="4.692" height="4.692" transform="translate(37.081 11.331)" fill="#f6c44c"></rect><rect id="&#x9577;&#x65B9;&#x5F62;_3447" data-name="&#x9577;&#x65B9;&#x5F62; 3447" width="3.439" height="3.439" transform="translate(0 46.571)" fill="#533afc"></rect><rect id="&#x9577;&#x65B9;&#x5F62;_3448" data-name="&#x9577;&#x65B9;&#x5F62; 3448" width="2.392" height="2.391" transform="translate(3.439 50.011)" fill="#533afc"></rect><rect id="&#x9577;&#x65B9;&#x5F62;_3436" data-name="&#x9577;&#x65B9;&#x5F62; 3436" width="2.505" height="2.505" transform="translate(39.268 17.102)" fill="#f6c44c"></rect></g><path id="&#x9577;&#x65B9;&#x5F62;_3439" data-name="&#x9577;&#x65B9;&#x5F62; 3439" d="M2.358,2.358V18.338H18.338V2.358H2.358M0,0H20.7V20.7H0Z" transform="translate(11.057 21.774)" fill="#533afc"></path></g></g><rect id="&#x9577;&#x65B9;&#x5F62;_3444" data-name="&#x9577;&#x65B9;&#x5F62; 3444" width="12.575" height="5.501" transform="translate(25.105 29.334)" fill="#533afc"></rect></g></g></g><g id="&#x30B0;&#x30EB;&#x30FC;&#x30D7;_20901" data-name="&#x30B0;&#x30EB;&#x30FC;&#x30D7; 20901" transform="translate(555 -495)"><rect id="&#x9577;&#x65B9;&#x5F62;_5132" data-name="&#x9577;&#x65B9;&#x5F62; 5132" width="529" height="465" transform="translate(1257 19861)" fill="#fff"></rect><path id="&#x9577;&#x65B9;&#x5F62;_5132_-_&#x30A2;&#x30A6;&#x30C8;&#x30E9;&#x30A4;&#x30F3;" data-name="&#x9577;&#x65B9;&#x5F62; 5132 - &#x30A2;&#x30A6;&#x30C8;&#x30E9;&#x30A4;&#x30F3;" d="M2,2V463H527V2H2M0,0H529V465H0Z" transform="translate(1257 19861)" fill="#e2e2e2"></path><path id="&#x30D1;&#x30B9;_33889" data-name="&#x30D1;&#x30B9; 33889" d="M-206.69-17.1l.11,12.815v1.21a45.655,45.655,0,0,1-.33,6.38H-198a65.234,65.234,0,0,1-.385-7.645l-.275-23.925h4.07c3.135,0,5.665.11,7.59.275V-35.97a39.877,39.877,0,0,1-7.755.385h-3.96l-.055-3.025V-40.7c0-1.485.055-2.53.165-4.125h-8.635a44.509,44.509,0,0,1,.275,6.27l.055,2.915-17.875.055a52.927,52.927,0,0,1-7.92-.385V-28a69.137,69.137,0,0,1,7.755-.275l12.925-.055a42.443,42.443,0,0,1-7.1,8.58A55.949,55.949,0,0,1-235.84-8.36a21.405,21.405,0,0,1,5.5,6.93c7.425-4.235,11.44-7.15,16.17-11.77a51.363,51.363,0,0,0,7.59-9.35c-.11,2.585-.11,4.18-.11,4.675Zm35.145-17.985A58.108,58.108,0,0,1-157.08-23.7l5.555-7.2c-4.4-4.07-7.535-6.38-14.63-10.67Zm2.64,36.63a20.067,20.067,0,0,1,2.75-.77c1.045-.22,1.045-.22,2.42-.5a69.82,69.82,0,0,0,16.005-5.72c9.57-5.06,16.06-12.32,21.5-24.09a29.92,29.92,0,0,1-6.985-6.38,47.635,47.635,0,0,1-5.555,10.945,34.17,34.17,0,0,1-16.17,13.475,52.579,52.579,0,0,1-16.39,4.015Zm74.03,3.96c-3.3-4.73-4.675-7.26-5.94-11a36.277,36.277,0,0,1-1.7-11.495,38.058,38.058,0,0,1,1.815-11.99c1.265-3.8,2.64-6.27,5.94-10.945l-6.655-4.455c-4.07,5.61-5.775,8.745-7.315,13.42a43.213,43.213,0,0,0-2.2,13.64A44.414,44.414,0,0,0-107.415-.11a47.385,47.385,0,0,0,6,10.175Zm38.06-22.6.11,12.815v1.21a45.656,45.656,0,0,1-.33,6.38h8.91a65.234,65.234,0,0,1-.385-7.645l-.275-23.925h4.07c3.135,0,5.665.11,7.59.275V-35.97a39.877,39.877,0,0,1-7.755.385h-3.96L-48.9-38.61V-40.7c0-1.485.055-2.53.165-4.125h-8.635a44.507,44.507,0,0,1,.275,6.27l.055,2.915-17.875.055a52.927,52.927,0,0,1-7.92-.385V-28a69.137,69.137,0,0,1,7.755-.275l12.925-.055a42.443,42.443,0,0,1-7.1,8.58A55.949,55.949,0,0,1-85.965-8.36a21.4,21.4,0,0,1,5.5,6.93c7.425-4.235,11.44-7.15,16.17-11.77a51.363,51.363,0,0,0,7.59-9.35c-.11,2.585-.11,4.18-.11,4.675Zm74.36-24.31a13.918,13.918,0,0,1-5.005.605H-12.65a56.228,56.228,0,0,1-8.635-.385v8.415a64.486,64.486,0,0,1,8.525-.33H11.33A36.636,36.636,0,0,1-5.06-10.175,44.667,44.667,0,0,1-16.885-4.73a24.982,24.982,0,0,1,5.83,7.865C-1.6-1.1,4.62-5.39,9.68-11.33c5.28-6.1,8.525-12.98,11.11-23.21a8.434,8.434,0,0,1,1.045-2.75Zm16.72,1.485c3.3,4.675,4.675,7.15,5.94,10.945a37.813,37.813,0,0,1,1.815,11.99A36.038,36.038,0,0,1,40.315-5.5C39.05-1.76,37.675.77,34.32,5.5l6.6,4.565a49.8,49.8,0,0,0,6-10.175,43.308,43.308,0,0,0,3.52-17.27,42.872,42.872,0,0,0-2.2-13.585c-1.54-4.675-3.245-7.81-7.315-13.42ZM72.38-35.805c1.705-.165,3.905-.275,7.425-.275H98.12a51.441,51.441,0,0,1,7.37.275V-43.78c-1.98.385-3.025.44-7.48.44H79.97a43.045,43.045,0,0,1-7.59-.44Zm-4.62,13.53a70.29,70.29,0,0,1,8.195-.275H100.98a27.1,27.1,0,0,1-8.69,11.935c-4.07,3.19-8.25,5.115-14.9,6.82a24.09,24.09,0,0,1,5.17,7.645C90.09.88,93.83-1.045,97.57-4.07c5.445-4.4,9.68-10.725,12.485-18.81a16.678,16.678,0,0,1,1.54-3.465l-3.685-4.07c-1.6.495-2.145.55-5.335.55H76.065a49.012,49.012,0,0,1-8.305-.385Zm96.525-22.77c-1.65,2.75-5.335,6.435-10.175,10.175a81.288,81.288,0,0,1-28.985,14.3,27.227,27.227,0,0,1,4.455,7.48c9.955-3.685,13.09-5.115,18.81-8.525v16.72a53.838,53.838,0,0,1-.33,7.975h9.075a68.586,68.586,0,0,1-.275-8.14V-26.73a93.057,93.057,0,0,0,12.87-11.22,18.684,18.684,0,0,1,2.09-1.98Zm24.42,9.955A58.108,58.108,0,0,1,203.17-23.7l5.555-7.2c-4.4-4.07-7.535-6.38-14.63-10.67Zm2.64,36.63A20.067,20.067,0,0,1,194.1.77c1.045-.22,1.045-.22,2.42-.5a69.82,69.82,0,0,0,16.005-5.72c9.57-5.06,16.06-12.32,21.5-24.09a29.92,29.92,0,0,1-6.985-6.38,47.635,47.635,0,0,1-5.555,10.945,34.17,34.17,0,0,1-16.17,13.475,52.579,52.579,0,0,1-16.39,4.015ZM-73.59,28.955c-1.65,2.75-5.335,6.435-10.175,10.175a81.288,81.288,0,0,1-28.985,14.3,27.227,27.227,0,0,1,4.455,7.48c9.955-3.685,13.09-5.115,18.81-8.525v16.72a53.839,53.839,0,0,1-.33,7.975h9.075a68.586,68.586,0,0,1-.275-8.14V47.27a93.057,93.057,0,0,0,12.87-11.22,18.684,18.684,0,0,1,2.09-1.98Zm48.84,9.735a37.191,37.191,0,0,1,4.95,7.975l4.73-2.31A33.263,33.263,0,0,0-20.02,36.6Zm6.545-2.97a45.166,45.166,0,0,1,4.84,7.7l4.675-2.31a33.6,33.6,0,0,0-4.95-7.425ZM-53.4,64.155c.825-.99,1.155-1.43,1.98-2.42,4.125-4.95,7.315-8.965,9.845-12.32,2.255-2.97,2.31-3.025,3.135-3.025.66,0,1.21.33,2.09,1.32,12.265,13.585,17,18.48,25.3,26.07l4.125-9.02a35.555,35.555,0,0,1-5.555-4.51A198.029,198.029,0,0,1-29.81,42.925c-4.345-4.95-5.775-5.885-8.745-5.885a7.62,7.62,0,0,0-3.96,1.045A17.293,17.293,0,0,0-46.86,42.54c-3.19,4.07-8.36,10.175-9.955,11.825a10.4,10.4,0,0,1-2.145,1.76ZM5.83,38.91A58.108,58.108,0,0,1,20.3,50.295l5.555-7.2c-4.4-4.07-7.535-6.38-14.63-10.67ZM8.47,75.54a20.067,20.067,0,0,1,2.75-.77c1.045-.22,1.045-.22,2.42-.495a69.82,69.82,0,0,0,16-5.72c9.57-5.06,16.06-12.32,21.505-24.09a29.92,29.92,0,0,1-6.985-6.38A47.635,47.635,0,0,1,38.61,49.03,34.17,34.17,0,0,1,22.44,62.505,52.579,52.579,0,0,1,6.05,66.52Zm75.02,1.375a68.061,68.061,0,0,1-.33-7.645V53.43a18.867,18.867,0,0,0,2.09.99,120.783,120.783,0,0,1,18.425,10.01l4.51-7.92A132.543,132.543,0,0,0,83.16,44.96V36.6a48.454,48.454,0,0,1,.33-7.37H74.525a48.017,48.017,0,0,1,.33,7.37V69.16a56.839,56.839,0,0,1-.33,7.755Z" transform="translate(1516.943 20197.973)" fill="#333"></path><g id="Networking_peoples" data-name="Networking peoples" transform="translate(1419.977 19924.732)"><path id="&#x30D1;&#x30B9;_33733" data-name="&#x30D1;&#x30B9; 33733" d="M134.439,143.915,3.891,73.62,134.439,3.326ZM38.074,73.62l80.157,43.162V30.458Z" transform="translate(27.347 23.053)" fill="#ed6dde"></path><circle id="&#x6955;&#x5186;&#x5F62;_546" data-name="&#x6955;&#x5186;&#x5F62; 546" cx="40.093" cy="40.093" r="40.093" transform="translate(113.751 113.751)" fill="#7864ff"></circle><circle id="&#x6955;&#x5186;&#x5F62;_547" data-name="&#x6955;&#x5186;&#x5F62; 547" cx="48.484" cy="48.484" r="48.484" transform="translate(0 48.484)" fill="#d1cbff"></circle><circle id="&#x6955;&#x5186;&#x5F62;_548" data-name="&#x6955;&#x5186;&#x5F62; 548" cx="40.093" cy="40.093" r="40.093" transform="translate(113.751)" fill="#7864ff"></circle><ellipse id="&#x6955;&#x5186;&#x5F62;_549" data-name="&#x6955;&#x5186;&#x5F62; 549" cx="24.242" cy="25.174" rx="24.242" ry="25.174" transform="translate(24.242 63.402)" fill="#533afc"></ellipse><path id="&#x30D1;&#x30B9;_33734" data-name="&#x30D1;&#x30B9; 33734" d="M76.261,28.746A48.511,48.511,0,0,1,38.821,46.411,48.511,48.511,0,0,1,1.38,28.746a54.905,54.905,0,0,1,74.881,0Z" transform="translate(9.509 98.884)" fill="#533afc"></path><path id="&#x30D1;&#x30B9;_33735" data-name="&#x30D1;&#x30B9; 33735" d="M74.662,25.5A40.577,40.577,0,0,1,45,38.387,40.577,40.577,0,0,1,15.34,25.5a32.311,32.311,0,0,1,59.322,0Z" transform="translate(108.681 42.079)" fill="#c3baff"></path><ellipse id="&#x6955;&#x5186;&#x5F62;_550" data-name="&#x6955;&#x5186;&#x5F62; 550" cx="15.851" cy="16.783" rx="15.851" ry="16.783" transform="translate(137.993 14.918)" fill="#c3baff"></ellipse><path id="&#x30D1;&#x30B9;_33736" data-name="&#x30D1;&#x30B9; 33736" d="M74.662,39.5a40.577,40.577,0,0,1-59.322,0,32.311,32.311,0,0,1,59.322,0Z" transform="translate(108.681 141.536)" fill="#c3baff"></path><ellipse id="&#x6955;&#x5186;&#x5F62;_551" data-name="&#x6955;&#x5186;&#x5F62; 551" cx="15.851" cy="16.783" rx="15.851" ry="16.783" transform="translate(137.993 128.669)" fill="#c3baff"></ellipse></g></g><g id="&#x30B0;&#x30EB;&#x30FC;&#x30D7;_20908" data-name="&#x30B0;&#x30EB;&#x30FC;&#x30D7; 20908" transform="translate(1253 19861)"><rect id="&#x9577;&#x65B9;&#x5F62;_5137" data-name="&#x9577;&#x65B9;&#x5F62; 5137" width="529" height="465" fill="#fff"></rect><path id="&#x9577;&#x65B9;&#x5F62;_5137_-_&#x30A2;&#x30A6;&#x30C8;&#x30E9;&#x30A4;&#x30F3;" data-name="&#x9577;&#x65B9;&#x5F62; 5137 - &#x30A2;&#x30A6;&#x30C8;&#x30E9;&#x30A4;&#x30F3;" d="M2,2V463H527V2H2M0,0H529V465H0Z" fill="#e2e2e2"></path><path id="&#x30D1;&#x30B9;_33890" data-name="&#x30D1;&#x30B9; 33890" d="M-199.045,1.155c-.66-1.375-1.65-3.8-2.695-6.6l-12.1-32.395a37.241,37.241,0,0,1-1.87-5.72h-11.825a42.229,42.229,0,0,1-1.76,5.72l-11.99,32.395a51.124,51.124,0,0,1-2.805,6.6h10.89a27.464,27.464,0,0,1,1.485-5.83l1.87-5.335h16.61l1.87,5.335a39.335,39.335,0,0,1,1.43,5.83Zm-16.5-18.92h-11.99l5.17-15.565c.385-1.1.44-1.375.77-2.53.44,1.485.66,2.035.825,2.53Zm26.18-25.8a45.919,45.919,0,0,1,.44,7.59V-6.435a47.207,47.207,0,0,1-.44,7.59h10.12a46.347,46.347,0,0,1-.44-7.59V-35.97a45.5,45.5,0,0,1,.44-7.59ZM-118.2-4.235c-9.4-8.965-10.78-10.175-17.875-15.235a71.68,71.68,0,0,0,8.305-14.96,9.041,9.041,0,0,1,1.815-3.08l-4.235-4.4c-1.32.6-1.6.66-4.62.66l-18.755.33h-1.045a40.956,40.956,0,0,1-6.71-.33l.11,8.36a49.545,49.545,0,0,1,7.7-.495l16.06-.275c-1.265,2.805-2.2,4.785-2.915,5.995a50.763,50.763,0,0,1-14.41,15.9,49.7,49.7,0,0,1-12.21,6.71,24.873,24.873,0,0,1,5.28,7.315c8.36-4.07,15.62-9.515,20.515-15.345A97.949,97.949,0,0,1-124.85,2.915ZM-90.75-34.65l-8.58,1.32a47.307,47.307,0,0,1-7.425.77l1.265,8.03a71.8,71.8,0,0,1,7.48-1.485l8.58-1.32L-88-19.25l-11.55,1.815a50.148,50.148,0,0,1-7.26.77l1.32,7.975a48.313,48.313,0,0,1,6.93-1.43l11.88-1.87,1.54,8.415a56.98,56.98,0,0,1,1.045,7.7l8.91-1.485a48.637,48.637,0,0,1-1.76-7.7l-1.54-8.2L-67.32-14.96a50.466,50.466,0,0,1,7.205-.99l-1.375-7.92a41.3,41.3,0,0,1-7.37,1.595l-11,1.76-1.485-8.03,9.68-1.54c4.51-.66,4.51-.66,6.93-.88l-1.32-7.92A41.178,41.178,0,0,1-73.04-37.4l-9.68,1.485-.66-3.245a39.733,39.733,0,0,1-.825-6.325L-92.84-44.11c.66,1.76.66,1.76,1.485,6.325Zm50.16-8.91A42.611,42.611,0,0,1-40.37-38c0,2.97-.11,6.71-.22,9.4-.33,5.83-.825,9.02-1.98,12.65A25.456,25.456,0,0,1-50.82-3.355,25.231,25.231,0,0,1-44.165,3.08,35.838,35.838,0,0,0-36.63-7.425c2.915-5.995,3.96-11.715,4.345-23.155.385-10.835.385-10.835.605-12.485Zm15.07-.385a39.754,39.754,0,0,1,.22,5.06v1.54l-.22,30.91a20.854,20.854,0,0,1-.55,5.28L-22,3.19a11.622,11.622,0,0,1,2.53-1.1c5.61-2.09,8.415-3.685,11.6-6.435A33.751,33.751,0,0,0,1.265-17.71,29.715,29.715,0,0,1-4.9-23.87a27.5,27.5,0,0,1-4.9,9.735,22.287,22.287,0,0,1-7.535,6.16l.275-29.26a38.814,38.814,0,0,1,.44-6.655Zm39.16,11.22a4.75,4.75,0,0,1,.825-.055h.77a3.439,3.439,0,0,0,.935.055c.165,0,1.045,0,2.09.055,1.6.055,2.035.055,5.115.055a8.427,8.427,0,0,0-.825,1.375c-2.86,4.9-7.645,10.615-10.725,12.87l5.94,5.885a33.508,33.508,0,0,1,5-5.28C26.895-21.34,30.635-23.21,33.6-23.21a2.507,2.507,0,0,1,2.805,2.2,42.531,42.531,0,0,0-8.03,4.235C24.2-13.75,22-10.34,22-6.93A8.938,8.938,0,0,0,24.145-.99c2.53,2.86,7.1,4.07,15.18,4.07A101.774,101.774,0,0,0,53.46,2.09a20.849,20.849,0,0,1,2.75-.275L55.6-6.6c-4.29,1.595-10.23,2.475-16.885,2.475-5.995,0-8.36-.99-8.36-3.52,0-1.375.88-2.75,2.585-3.96a28.539,28.539,0,0,1,4.4-2.365,1.769,1.769,0,0,1,.055.44,41.034,41.034,0,0,1-.33,6.38l7.645-.22a33.335,33.335,0,0,1-.165-3.685V-14.8l-.055-1.815c6.655-2.255,6.655-2.255,7.975-2.585a41.639,41.639,0,0,1,6.215-1.43L55.77-28.1c-.935.55-1.155.6-4.29,1.65-2.475.825-2.75.935-4.9,1.7-1.43.495-2.42.825-2.915.99-.99-3.685-3.74-5.555-8.195-5.555a14.026,14.026,0,0,0-7.59,2.145,39.469,39.469,0,0,0,3.575-5.445c5.555-.165,12.705-.6,16.72-1.1,2.64-.275,2.64-.275,4.345-.44l-.33-7.425A76.279,76.279,0,0,1,38-39.765a33.3,33.3,0,0,0-3.41.22c.22-.44.22-.5.44-.99,1.65-3.96,1.65-3.96,2.035-4.565l-8.525-.77a21.912,21.912,0,0,1-1.98,6.435h-2.75A49.194,49.194,0,0,1,13.75-40.15Zm84.975,8.36v6.1H91.3c-2.035,0-3.19-.055-4.51-.165.11,1.375.165,2.97.165,4.675v12.6c0,1.925-.11,4.345-.22,5.83h7.15V2.145h17.05v2.53h7.425a55.61,55.61,0,0,1-.275-5.775V-13.53a42.582,42.582,0,0,1,.22-4.9,43.245,43.245,0,0,1-4.455.165h-7.975v-6.1h8.965a47.524,47.524,0,0,1,6.325.33V-31.35a48.1,48.1,0,0,1-6.325.33h-8.965v-6.435c3.135-.5,9.075-1.54,10.945-2.035,1.925-.44,1.925-.44,2.97-.715l-4.73-6.49c-5.06,2.42-17.435,4.345-29.645,4.62a19.3,19.3,0,0,1,2.42,6.38c4.62-.22,6.38-.385,10.78-.88v5.555h-7.81a48.931,48.931,0,0,1-6.27-.33v7.315a53.668,53.668,0,0,1,6.325-.33ZM93.94-11.88h17.05V-4.4H93.94ZM71.5-41.195A64.85,64.85,0,0,1,81.51-33.55l4.29-5.665a69.685,69.685,0,0,0-9.9-7.15ZM69.905-27a61.8,61.8,0,0,1,10.34,7.095l3.96-6.05A64.386,64.386,0,0,0,73.92-32.4Zm8.47,9.57C75.57-9.57,73.04-4.565,70.07-.935L76.4,4.18a94.193,94.193,0,0,0,7.755-17.6Zm54.34-7.37c1.6-.44,5.335-1.1,9.24-1.65C139.645-17.27,134.97-6.27,131.23-1.32L138.875,2.8c.33-.715.385-.825.88-1.87,5.115-10.67,8.14-19.03,10.065-28.05,1.21-.055,1.815-.11,2.75-.11,1.98,0,2.86.22,3.575.935.99.88,1.375,2.31,1.375,4.95A52.938,52.938,0,0,1,156.035-8.8c-.66,2.2-1.485,3.08-2.86,3.08a22.692,22.692,0,0,1-7.81-2.145,25.42,25.42,0,0,1,.715,5.94A22.25,22.25,0,0,1,145.97.55a28.855,28.855,0,0,0,8.415,1.54c3.025,0,4.785-.66,6.435-2.475,2.8-3.025,4.455-10.67,4.455-20.515,0-5.17-.715-7.865-2.585-10.12-1.815-2.145-4.675-3.19-8.58-3.19-.825,0-1.6.055-2.915.11.165-.715.165-.715.385-1.87.77-4.51,1.21-6.93,1.265-7.1a13.528,13.528,0,0,1,.385-1.6l-8.525-.825a4.749,4.749,0,0,1,.055.825,73.9,73.9,0,0,1-1.375,11.11c-2.805.44-9.4,1.045-11.055,1.045H132Zm32.01-10.175c5.06,5.665,8.69,13.585,10.56,22.88l7.535-3.685A55.514,55.514,0,0,0,171.6-38.17Zm28.435,4.125c4.73-.66,11.88-1.045,24.97-1.43v3.355a8.112,8.112,0,0,1,.055.88,9.979,9.979,0,0,0-5.17-1.21c-6.82,0-11.66,4.29-11.66,10.285a9.029,9.029,0,0,0,3.685,7.535,10.827,10.827,0,0,0,6.6,2.2c3.465,0,5.83-.935,7.755-3.08a7.784,7.784,0,0,1-2.97,4.51c-2.75,2.365-6.6,3.85-12.43,4.84,2.255,2.475,2.97,3.685,4.565,7.425,4.895-1.485,7.7-2.695,10.45-4.51,5.775-3.74,8.69-8.855,8.69-15.18a16.739,16.739,0,0,0-2.035-8.305v-1.265l.055-4.51V-31.13l-.055-1.265c2.8-.055,3.245-.055,6.16-.055,5.885,0,7.2.055,9.57.22l-.055-7.59c-2.2.22-6.435.33-15.73.385a42.309,42.309,0,0,1,.33-6.1h-8.3a40.386,40.386,0,0,1,.385,6.27c-15.51.44-21.01.6-22.22.6a27.886,27.886,0,0,1-2.86-.11Zm20.68,7.59c2.585,0,4.29,1.375,4.29,3.355,0,2.31-2.09,4.125-4.785,4.125-2.42,0-4.18-1.54-4.18-3.63C209.165-21.615,211.145-23.265,213.84-23.265ZM-115,44.685a51.408,51.408,0,0,1,6.27-.275h6.38a46.8,46.8,0,0,1-5.225,5.225c3.63.55,3.63.55,9.295,1.485a78.3,78.3,0,0,1-14.135,1.21h-1.98a16.583,16.583,0,0,1,2.695,5.61,89.737,89.737,0,0,0,16.72-2.09,23.462,23.462,0,0,1,.275,3.685h-14.63a48.869,48.869,0,0,1-6.16-.33V65.64a47.7,47.7,0,0,1,6.27-.275h8.91a51.587,51.587,0,0,1-16.885,7.1,20.4,20.4,0,0,1,3.795,6.325,57.75,57.75,0,0,0,10.725-4.565,36.584,36.584,0,0,0,8.03-5.72c0,.99-.055,3.025-.055,3.9V74.5a23.865,23.865,0,0,1-.33,4.29H-87.5a20.546,20.546,0,0,1-.275-4.29v-2.2c0-.935-.055-2.53-.165-3.9a45.525,45.525,0,0,0,8.635,5.885,57.845,57.845,0,0,0,11.055,4.4,24.237,24.237,0,0,1,3.465-6.6c-7.7-1.54-11.77-3.135-17.545-6.71h9.955A48.54,48.54,0,0,1-66,65.64V59.205a49.62,49.62,0,0,1-6.38.33h-15.4a18.874,18.874,0,0,1,.275-3.74h-7.37a42.755,42.755,0,0,0,7.04-2.2,110.6,110.6,0,0,1,15.07,5.115l4.345-5.17A121.988,121.988,0,0,0-81.455,49.8a25.51,25.51,0,0,0,5.06-5.39h3.685a48.733,48.733,0,0,1,6.27.275v-5.94a7.6,7.6,0,0,1-1.375.165c-.055-.715-.055-1.1-.055-1.925v-2.53a30.931,30.931,0,0,1,.22-4.18,60.976,60.976,0,0,1-6.16.22H-87.34a21.5,21.5,0,0,1,.275-3.41h-7.92a26.691,26.691,0,0,1,.275,3.41h-12.815c-2.53,0-4.29-.055-6.325-.22a33.357,33.357,0,0,1,.22,4.125v2.75c0,.55-.055.99-.055,1.76a9.612,9.612,0,0,1-1.32-.165Zm8.25-5.665V36.16h10.23a32.766,32.766,0,0,1-1.7,2.86Zm22.385,5.39A15.15,15.15,0,0,1-89.32,48.1c-2.805-.5-4.015-.715-7.535-1.21,1.1-1.21,1.265-1.375,2.145-2.475Zm-6.49-5.39c.715-1.155.935-1.54,1.705-2.86h14.41v2.86Zm64.845-.495h-4.4c.22-.77.44-1.375.55-1.76a7.847,7.847,0,0,0,.44-1.485c.66-2.31.66-2.31.935-3.19l-7.095-1.65a27.619,27.619,0,0,1-1.375,5.995,40.722,40.722,0,0,1-5.885,11.77,25.938,25.938,0,0,1,5.72,4.73,48.1,48.1,0,0,0,4.29-7.7h6.82v9.57H-34.76a48.449,48.449,0,0,1-6.38-.33v7.37a51.785,51.785,0,0,1,6.435-.33h8.69V72.13a43.559,43.559,0,0,1-.33,6.6h7.865a43.131,43.131,0,0,1-.33-6.6V61.515H-11a51.07,51.07,0,0,1,6.215.33v-7.37a48.1,48.1,0,0,1-6.325.33h-7.7v-9.57h6.325c1.87,0,3.245.055,6.05.275V38.195a41.967,41.967,0,0,1-6.05.33H-18.81v-4.62a35.33,35.33,0,0,1,.33-5.94h-7.865a42.043,42.043,0,0,1,.33,5.885ZM-50.49,72.4a48.084,48.084,0,0,1-.33,6.38h7.81a47.741,47.741,0,0,1-.33-6.325V40.725a77.37,77.37,0,0,0,3.685-9.13A26.833,26.833,0,0,1-38.72,28.9l-7.37-2.035a29.82,29.82,0,0,1-1.925,6.985A43.393,43.393,0,0,1-56.98,48.81,34.2,34.2,0,0,1-54.4,57.225a23.154,23.154,0,0,0,4.015-5.28c-.11,2.97-.11,4.015-.11,5.83ZM17.16,37.26H13.64a51.4,51.4,0,0,1-6.27-.33v7.535a40.578,40.578,0,0,1,6.27-.33h3.52v10.67H12.54a63.967,63.967,0,0,1-7.37-.33v7.59a64.631,64.631,0,0,1,7.37-.33H48.125a64.9,64.9,0,0,1,7.315.33v-7.59a63.311,63.311,0,0,1-7.37.33H43.23V44.135h3.8a49.62,49.62,0,0,1,6.38.33V36.93a50.825,50.825,0,0,1-6.38.33h-3.8V34.29a32.433,32.433,0,0,1,.33-5.83H35.64a37.466,37.466,0,0,1,.275,5.775V37.26H24.475V34.07a36.652,36.652,0,0,1,.275-5.72H16.83a31.711,31.711,0,0,1,.33,5.83Zm7.315,17.545V44.135h11.44v10.67ZM20.3,62.23A23.324,23.324,0,0,1,14.19,68,38.537,38.537,0,0,1,5.115,72.57a33.82,33.82,0,0,1,4.95,6.105,42.583,42.583,0,0,0,8.36-4.785,44.95,44.95,0,0,0,8.305-7.975Zm13.31,3.8a48.6,48.6,0,0,0,7.535,7.04,48.039,48.039,0,0,0,9.9,5.775,32.038,32.038,0,0,1,4.73-6.38c-8.03-3.19-11.44-5.39-15.9-10.285Zm42.24,5.28a63.825,63.825,0,0,1-.33,7.26h7.7a62.366,62.366,0,0,1-.33-7.15v-4.18h19.25v3.08c0,1.265-.385,1.485-2.475,1.485a61.542,61.542,0,0,1-6.435-.5,20.4,20.4,0,0,1,1.705,6.82c2.53.11,3.685.165,5,.165,3.575,0,5.61-.275,6.82-.99,1.65-.88,2.42-2.475,2.42-4.9V49.03a47.8,47.8,0,0,1,.275-6.215,51.054,51.054,0,0,1-5.72.22H85.085c1.045-1.65,1.43-2.255,2.31-3.85h21.78a56.724,56.724,0,0,1,6.71.33v-7.15a54.2,54.2,0,0,1-6.71.33H90.53a13.71,13.71,0,0,0,.605-1.54,30.655,30.655,0,0,1,1.265-3.08l-8.085-.88a28.372,28.372,0,0,1-1.485,5.5H72.82a57.456,57.456,0,0,1-6.82-.33v7.15a57.739,57.739,0,0,1,6.765-.33h6.93A45.5,45.5,0,0,1,64.46,54.31a22.516,22.516,0,0,1,4.29,6.545,70.57,70.57,0,0,0,7.1-6.325Zm26.29-13.09v3.3H82.885v-3.3Zm0-5.72H82.885v-3.19h19.25Z" transform="translate(264.375 334.6)" fill="#333"></path><g id="Networking_office" data-name="Networking office" transform="translate(183.5 63.999)"><path id="&#x30D1;&#x30B9;_33729" data-name="&#x30D1;&#x30B9; 33729" d="M102,124.326,60.781,41.874,19.559,124.326,5.1,117.107,60.781,5.764l55.676,111.343Z" transform="translate(19.829 40.971)" fill="#ed6dde"></path><rect id="&#x9577;&#x65B9;&#x5F62;_5384" data-name="&#x9577;&#x65B9;&#x5F62; 5384" width="48" height="97" transform="translate(32)" fill="#c3baff"></rect><circle id="&#x6955;&#x5186;&#x5F62;_542" data-name="&#x6955;&#x5186;&#x5F62; 542" cx="32.5" cy="32.5" r="32.5" transform="translate(0 129)" fill="#c3baff"></circle><circle id="&#x6955;&#x5186;&#x5F62;_543" data-name="&#x6955;&#x5186;&#x5F62; 543" cx="15.5" cy="15.5" r="15.5" transform="translate(17 146)" fill="#533afc"></circle><path id="&#x30D1;&#x30B9;_33730" data-name="&#x30D1;&#x30B9; 33730" d="M51.146,27.408a32.3,32.3,0,0,1-48.126,0,56.241,56.241,0,0,1,48.126,0Z" transform="translate(5.078 155.84)" fill="#533afc"></path><circle id="&#x6955;&#x5186;&#x5F62;_544" data-name="&#x6955;&#x5186;&#x5F62; 544" cx="32.5" cy="32.5" r="32.5" transform="translate(97 129)" fill="#c3baff"></circle><circle id="&#x6955;&#x5186;&#x5F62;_545" data-name="&#x6955;&#x5186;&#x5F62; 545" cx="15.5" cy="15.5" r="15.5" transform="translate(114 146)" fill="#533afc"></circle><path id="&#x30D1;&#x30B9;_33731" data-name="&#x30D1;&#x30B9; 33731" d="M63.146,27.408a32.3,32.3,0,0,1-48.126,0,56.241,56.241,0,0,1,48.126,0Z" transform="translate(89.976 155.84)" fill="#533afc"></path><path id="&#x30D1;&#x30B9;_33732" data-name="&#x30D1;&#x30B9; 33732" d="M12,2,60.449,18.15v64.6H12Z" transform="translate(68.61 14.342)" fill="#7864ff"></path><rect id="&#x9577;&#x65B9;&#x5F62;_5385" data-name="&#x9577;&#x65B9;&#x5F62; 5385" width="17" height="17" transform="translate(48 15)" fill="#fff"></rect><rect id="&#x9577;&#x65B9;&#x5F62;_5386" data-name="&#x9577;&#x65B9;&#x5F62; 5386" width="17" height="15" transform="translate(48 49)" fill="#fff"></rect><rect id="&#x9577;&#x65B9;&#x5F62;_5387" data-name="&#x9577;&#x65B9;&#x5F62; 5387" width="17" height="17" transform="translate(97 39)" fill="#fff"></rect><rect id="&#x9577;&#x65B9;&#x5F62;_5388" data-name="&#x9577;&#x65B9;&#x5F62; 5388" width="17" height="17" transform="translate(97 80.002)" fill="#fff"></rect></g></g><g id="&#x30B0;&#x30EB;&#x30FC;&#x30D7;_20909" data-name="&#x30B0;&#x30EB;&#x30FC;&#x30D7; 20909" transform="translate(135 19861)"><g id="&#x30B0;&#x30EB;&#x30FC;&#x30D7;_20906" data-name="&#x30B0;&#x30EB;&#x30FC;&#x30D7; 20906"><rect id="&#x9577;&#x65B9;&#x5F62;_5135" data-name="&#x9577;&#x65B9;&#x5F62; 5135" width="529" height="465" fill="#fff"></rect><path id="&#x9577;&#x65B9;&#x5F62;_5135_-_&#x30A2;&#x30A6;&#x30C8;&#x30E9;&#x30A4;&#x30F3;" data-name="&#x9577;&#x65B9;&#x5F62; 5135 - &#x30A2;&#x30A6;&#x30C8;&#x30E9;&#x30A4;&#x30F3;" d="M2,2V463H527V2H2M0,0H529V465H0Z" fill="#e2e2e2"></path><path id="&#x30D1;&#x30B9;_33892" data-name="&#x30D1;&#x30B9; 33892" d="M-139.975-1.925v3.3h8.8a53.362,53.362,0,0,1-.275-8.14v-27.72c0-2.365,0-2.365.165-6-1.485.11-3.9.165-6.875.165H-162.3a54.063,54.063,0,0,1-8.635-.44v8.525a77.8,77.8,0,0,1,8.525-.275h22.44V-9.79h-23.21a49.645,49.645,0,0,1-8.525-.44v8.58c2.915-.22,4.29-.275,8.36-.275Zm33.22-34.6A154.33,154.33,0,0,1-75.68-30.2l2.53-7.92c-12.98-3.41-19.305-4.62-30.69-5.885Zm-.77,15.235A128.005,128.005,0,0,1-93.17-18.92a94.829,94.829,0,0,1,15.51,4.51l2.42-7.975a165.378,165.378,0,0,0-29.37-6.325ZM-112.09-5.72a162.64,162.64,0,0,1,17.6,3.08A107.408,107.408,0,0,1-74.58,3.52l2.695-8.36a173.248,173.248,0,0,0-37.125-8.415Zm90.97.165c1.1-6.215,1.925-11.66,2.64-17.545a8.83,8.83,0,0,1,.99-3.685l-3.575-3.08a8.855,8.855,0,0,1-3.63.55h-13.31a41.568,41.568,0,0,1-6.49-.33v7.26a60.638,60.638,0,0,1,6.27-.22h11.88c-.55,5.445-1.375,10.78-2.53,17.05h-14.63a38.729,38.729,0,0,1-6.49-.33v7.26c1.595-.165,3.575-.22,6.49-.22h26.51c2.75,0,5.06.055,6.49.22v-7.26a37.6,37.6,0,0,1-6.435.33ZM12.54-30.14a73.046,73.046,0,0,1,7.975-.275h19.25a74.545,74.545,0,0,1,8.2.275v-8.635a53.856,53.856,0,0,1-8.36.385H20.625a53.63,53.63,0,0,1-8.085-.385ZM6.985-2.97c2.09-.165,4.895-.275,8.525-.275H44.715c4.29,0,6.325.055,8.745.275v-8.745a79.02,79.02,0,0,1-8.91.385H15.62a54.542,54.542,0,0,1-8.635-.385Zm99.33-18.48a71.2,71.2,0,0,1,7.975.275V-29.04a56.172,56.172,0,0,1-8.14.385H75.13a62.118,62.118,0,0,1-7.92-.385v7.92a59.222,59.222,0,0,1,7.81-.33H87.23A21.457,21.457,0,0,1,85.195-12.6C82.94-8.25,78.87-5.39,72.05-3.3A21.952,21.952,0,0,1,77.5,4.015C84.7,1.1,88.715-1.815,91.63-6.435c2.585-3.96,3.85-8.525,4.29-15.015ZM72.82-35.09a71.484,71.484,0,0,1,7.81-.275h20.075a61.886,61.886,0,0,1,8.03.275v-7.865a50.688,50.688,0,0,1-8.14.385H80.74a52.08,52.08,0,0,1-7.92-.385Zm89.76-1.1c-1.6,2.64-5.335,6.215-10.01,9.68a66.9,66.9,0,0,1-22.22,10.5,27.151,27.151,0,0,1,4.015,6.71c7.59-2.805,11.11-4.345,14.96-6.765v13.2a40.443,40.443,0,0,1-.33,6.38h8.415a46.2,46.2,0,0,1-.33-6.38V-20.735A67.483,67.483,0,0,0,167.31-29.7a14.289,14.289,0,0,1,1.87-1.87ZM-188.54,31.43c-1.375.495-1.925.55-5.06.55h-28.38a51.491,51.491,0,0,1-8.58-.44v8.25c2.475-.22,5.17-.33,8.47-.33h27.225c-2.805,5.225-6.215,8.305-12.155,11.11.055-1.6.055-2.31.055-2.585a34.011,34.011,0,0,1,.275-4.675h-8.855A15.831,15.831,0,0,1-215.27,47c0,7.645-.99,11.77-3.74,15.235-2.86,3.63-6.765,6.05-12.815,7.92a23.108,23.108,0,0,1,5.225,7.535c8.47-3.63,13.2-7.535,16.335-13.31,1.98-3.74,2.86-7.37,3.19-13.42a21.482,21.482,0,0,1,5.775,5.61c7.205-4.18,11.825-9.405,15.565-17.545a8.456,8.456,0,0,1,1.6-2.695Zm18.645,7.48A58.109,58.109,0,0,1-155.43,50.295l5.555-7.2c-4.4-4.07-7.535-6.38-14.63-10.67Zm2.64,36.63a20.067,20.067,0,0,1,2.75-.77c1.045-.22,1.045-.22,2.42-.495a69.82,69.82,0,0,0,16.005-5.72c9.57-5.06,16.06-12.32,21.5-24.09a29.92,29.92,0,0,1-6.985-6.38,47.635,47.635,0,0,1-5.555,10.945,34.17,34.17,0,0,1-16.17,13.475,52.579,52.579,0,0,1-16.39,4.015ZM-77.77,35.005a35.3,35.3,0,0,1,3.52,7.755l4.29-1.815A39.127,39.127,0,0,0-73.535,33.3Zm6.05-2.255a46.724,46.724,0,0,1,3.465,7.535l4.125-1.815a32.62,32.62,0,0,0-3.575-7.37Zm-32.34-.33v.66a39.263,39.263,0,0,1-.44,5.5,71.826,71.826,0,0,1-4.95,18.81,37.929,37.929,0,0,1-7.865,12.045,28.172,28.172,0,0,1,7.535,5.555,52.247,52.247,0,0,0,9.735-17.765,98.956,98.956,0,0,0,4.18-18.645,34.783,34.783,0,0,1,.715-4.51Zm16.61,1.54a35.858,35.858,0,0,1,.715,4.18,95.958,95.958,0,0,0,5,19.91,57.972,57.972,0,0,0,9.4,16.995,28.213,28.213,0,0,1,7.315-5.94,47,47,0,0,1-6.38-9.13A63.808,63.808,0,0,1-77.165,44.74a76.6,76.6,0,0,1-2.2-12.32Zm50.325,5.83V35.72a35.99,35.99,0,0,1,.275-6.05h-8.58a46.779,46.779,0,0,1,.275,6.215V39.79H-47.74a46.289,46.289,0,0,1-7.535-.385v8.03a65.638,65.638,0,0,1,7.37-.275h2.75V53.1a55.967,55.967,0,0,1-.275,6.435h8.525a41.238,41.238,0,0,1-.22-6.325V47.16H-24.09c-.055,3.135-.11,4.345-.165,5.445-.44,6.38-1.98,9.9-5.83,13.035-2.53,2.09-5.335,3.41-10.615,4.95a22.91,22.91,0,0,1,5.06,7.1,38.287,38.287,0,0,0,5.83-2.475,24.185,24.185,0,0,0,9.35-8.085c2.255-3.355,3.355-6.6,3.85-11.6a82.559,82.559,0,0,0,.385-8.36h3.08c3.19,0,5.445.11,7.37.275V39.4a52.7,52.7,0,0,1-7.48.385H-16.17c.055-3.685.055-3.685.055-4.73a37.8,37.8,0,0,1,.22-5.335h-8.3a49.135,49.135,0,0,1,.22,6.05V39.79ZM48.4,35.775l2.09-.77a25.38,25.38,0,0,0-4.125-7.15l-4.785,1.6a31.571,31.571,0,0,1,3.08,5.115,14.086,14.086,0,0,1-2.145.165l-14.52.11c.55-.99.715-1.375,1.21-2.365a27.16,27.16,0,0,1,1.43-2.86l-8.415-1.76a32.352,32.352,0,0,1-3.19,7.7A47.561,47.561,0,0,1,5.28,51.285a21.591,21.591,0,0,1,6.655,5.28,59.673,59.673,0,0,0,12.7-14.74l16.115-.165a45.512,45.512,0,0,1-5.39,11.44A70.7,70.7,0,0,0,24.8,46.28l-5,5.885a57.643,57.643,0,0,1,10.78,7.37,38.24,38.24,0,0,1-8.69,7.095,58.427,58.427,0,0,1-10.5,5.17,23.9,23.9,0,0,1,5.445,6.875c7.81-3.575,13.805-7.59,18.645-12.6C41.3,60.03,45.54,52.6,49.17,41.99c.935-2.75.99-2.86,1.76-3.74Zm.165-8.14a32.563,32.563,0,0,1,3.96,7.26l4.73-1.925a28.4,28.4,0,0,0-4.015-6.93Zm15.18,29.92c2.145-.22,5.28-.33,10.065-.33h27.775c4.29,0,7.92.11,10.12.275V48.48a72.208,72.208,0,0,1-10.065.385H73.81a68.7,68.7,0,0,1-10.065-.44ZM135.41,40.5v3.85h-7.37a29.393,29.393,0,0,1-4.84-.275v6.93a41.52,41.52,0,0,1,5.83-.275h6.38v3.63h-5.39a48.907,48.907,0,0,1-5.39-.22,45.271,45.271,0,0,1,.22,5.17V70.04a31.261,31.261,0,0,1-.275,5.28h6.93c-.11-1.485-.165-2.86-.165-5.17V60.635h4.07v12.32a30.966,30.966,0,0,1-.33,5.885h7.15a36.162,36.162,0,0,1-.275-5.775V60.635h3.9V67.95c0,.66-.275.825-1.21.825-.6,0-1.65-.055-2.42-.11a16.752,16.752,0,0,1,1.265,6.16c1.21.055,1.6.055,2.42.055,4.84,0,6.16-1.045,6.16-4.84V58.985a35.305,35.305,0,0,1,.165-4.84,40.736,40.736,0,0,1-5.115.22h-5.17v-3.63h5.665a43.042,43.042,0,0,1,5.335.22v-6.82a43.812,43.812,0,0,1-5.06.22h-5.94V40.5h4.4a49.357,49.357,0,0,1,5.445.22V33.85a35.688,35.688,0,0,1-5.445.275h-4.4V32.75a28.727,28.727,0,0,1,.275-5.06h-7.15a30.185,30.185,0,0,1,.33,5.17v1.265h-3.355c.33-1.43.495-2.255.55-2.42.11-.715.385-1.815.495-2.255l-6.545-1.1a14.747,14.747,0,0,1-.33,2.64,32.886,32.886,0,0,1-3.85,10.12,56.259,56.259,0,0,1,6.27,3.19c.77-1.815.99-2.365,1.54-3.8ZM154.5,31.76a37.276,37.276,0,0,1,.33,5.775V59.81a32.885,32.885,0,0,1-.275,5.72h7.15a35.666,35.666,0,0,1-.22-5.72V37.37a47.654,47.654,0,0,1,.22-5.61Zm10.175-3.85a51.787,51.787,0,0,1,.33,6.875V70.15c0,1.375-.44,1.65-2.53,1.65a59.9,59.9,0,0,1-6.82-.55,17.685,17.685,0,0,1,1.815,6.93c3.245.11,3.685.11,4.29.11a32.637,32.637,0,0,0,4.9-.33,6.249,6.249,0,0,0,3.85-1.54c1.045-.99,1.485-2.42,1.485-5.225V34.565a38.228,38.228,0,0,1,.33-6.655Zm36.08,18.37v4.84a33.993,33.993,0,0,1-.165,3.575c1.155-.055,1.485-.055,3.685-.055H221.1c2.145,0,2.145,0,3.52.055a31.858,31.858,0,0,1-.165-3.575V46.28h4.62a32.54,32.54,0,0,1,4.785.22V40.12a39.223,39.223,0,0,1-4.84.22h-4.565V37.26h3.52c2.585,0,3.85.055,5.775.22V30.935a53.522,53.522,0,0,1-6.875.33H213.84V30.33a11.545,11.545,0,0,1,.275-3.025h-7.81a15.607,15.607,0,0,1,.275,2.97v.99H193.325c-2.53,0-4.51-.11-6.545-.275.165,2.145.22,4.015.22,7.26,0,20.4-.935,27-4.73,34.265a28.3,28.3,0,0,1,5.39,6.215,39.161,39.161,0,0,0,4.84-13.365,112.662,112.662,0,0,0,1.485-19.085Zm6.93-.22h9.845v3.245H207.68Zm9.845-5.72h-9.9V38.36l.11-1.1h9.79v3.08Zm-16.775,0h-6.71V37.26H200.7c.055.715.055.99.055,1.265Zm3.685,22.385L198.44,65.09c.77.605.77.605,3.575,2.86a25.849,25.849,0,0,0,2.86,2.145,48.16,48.16,0,0,1-13.695,2.09,28.045,28.045,0,0,1,2.475,6.71c7.92-1.045,12.485-2.255,18.205-4.84,5.72,2.695,11.165,4.015,19.965,4.84a32.369,32.369,0,0,1,2.64-7.37H233.09a49.267,49.267,0,0,1-13.75-1.76,40.846,40.846,0,0,0,7.59-6.93c1.43-1.65,1.43-1.65,1.925-2.145l-3.52-3.685c-1.375.11-2.475.165-4.9.165H201.3a53.87,53.87,0,0,1-6.1-.22v5.995a52.025,52.025,0,0,1,5.61-.22Zm13.7,0a25.3,25.3,0,0,1-5.885,4.4,27.351,27.351,0,0,1-6.655-4.4Z" transform="translate(264.111 334.6)" fill="#333"></path><g id="Player" transform="translate(176 57.338)"><path id="&#x30D1;&#x30B9;_33567" data-name="&#x30D1;&#x30B9; 33567" d="M76.423,30.606V57.014l-35.211,8.8L6,57.014V30.606L14.8,13H67.62Z" transform="translate(46.817 101.437)" fill="#7864ff"></path><path id="&#x30D1;&#x30B9;_33568" data-name="&#x30D1;&#x30B9; 33568" d="M49.014,85.226A44.014,44.014,0,0,1,5,41.211V6H93.029V41.211A44.014,44.014,0,0,1,49.014,85.226Z" transform="translate(39.014 46.817)" fill="#c3baff"></path><path id="&#x30D1;&#x30B9;_33569" data-name="&#x30D1;&#x30B9; 33569" d="M176.057,32.606V76.62H0V32.606L52.817,15,88.029,32.606,123.24,15Z" transform="translate(0 117.043)" fill="#5847c9"></path><path id="&#x30D1;&#x30B9;_33571" data-name="&#x30D1;&#x30B9; 33571" d="M40.211,0h70.423V35.211A17.606,17.606,0,0,1,93.029,52.817H5V35.211A35.211,35.211,0,0,1,40.211,0Z" transform="translate(39.014)" fill="#533afc"></path></g></g><g id="&#x30B0;&#x30EB;&#x30FC;&#x30D7;_19500" data-name="&#x30B0;&#x30EB;&#x30FC;&#x30D7; 19500" transform="translate(304.283 196.561)"><g id="&#x30B0;&#x30EB;&#x30FC;&#x30D7;_16136-2" data-name="&#x30B0;&#x30EB;&#x30FC;&#x30D7; 16136" transform="translate(0 0)"><g id="&#x30B0;&#x30EB;&#x30FC;&#x30D7;_16135-2" data-name="&#x30B0;&#x30EB;&#x30FC;&#x30D7; 16135" transform="translate(0 0)"><g id="&#x30B0;&#x30EB;&#x30FC;&#x30D7;_16130-2" data-name="&#x30B0;&#x30EB;&#x30FC;&#x30D7; 16130"><path id="&#x524D;&#x9762;&#x30AA;&#x30D6;&#x30B8;&#x30A7;&#x30AF;&#x30C8;&#x3067;&#x578B;&#x629C;&#x304D;_4-2" data-name="&#x524D;&#x9762;&#x30AA;&#x30D6;&#x30B8;&#x30A7;&#x30AF;&#x30C8;&#x3067;&#x578B;&#x629C;&#x304D; 4" d="M29.808,30.043H6.949L0,22.186V0H20.865V4.308h4.288V8.617h4.655V30.042ZM8.9,8.9h0V21.17H20.912V8.9H8.9Z" transform="translate(0.758 8.483)" fill="#fff"></path><g id="&#x30B0;&#x30EB;&#x30FC;&#x30D7;_16129-2" data-name="&#x30B0;&#x30EB;&#x30FC;&#x30D7; 16129"><g id="&#x30B0;&#x30EB;&#x30FC;&#x30D7;_16126-2" data-name="&#x30B0;&#x30EB;&#x30FC;&#x30D7; 16126" transform="translate(0.758)"><g id="&#x30B0;&#x30EB;&#x30FC;&#x30D7;_17945-2" data-name="&#x30B0;&#x30EB;&#x30FC;&#x30D7; 17945" transform="translate(0)"><g id="&#x30B0;&#x30EB;&#x30FC;&#x30D7;_8890-2" data-name="&#x30B0;&#x30EB;&#x30FC;&#x30D7; 8890"><g id="&#x30B0;&#x30EB;&#x30FC;&#x30D7;_2225-2" data-name="&#x30B0;&#x30EB;&#x30FC;&#x30D7; 2225"><path id="&#x7DDA;_37-2" data-name="&#x7DDA; 37" d="M-18.6,29.931h-8.9V0h8.9Z" transform="translate(27.5)" fill="#fff"></path><rect id="&#x9577;&#x65B9;&#x5F62;_881-2" data-name="&#x9577;&#x65B9;&#x5F62; 881" width="20.912" height="21.146" transform="translate(4.448 12.931)" fill="rgba(0,0,0,0)"></rect></g></g></g></g><rect id="&#x9577;&#x65B9;&#x5F62;_3435-2" data-name="&#x9577;&#x65B9;&#x5F62; 3435" width="3.433" height="3.433" transform="translate(27.133 8.291)" fill="#f6c44c"></rect><rect id="&#x9577;&#x65B9;&#x5F62;_3447-2" data-name="&#x9577;&#x65B9;&#x5F62; 3447" width="2.517" height="2.517" transform="translate(0 34.077)" fill="#fff"></rect><rect id="&#x9577;&#x65B9;&#x5F62;_3448-2" data-name="&#x9577;&#x65B9;&#x5F62; 3448" width="1.75" height="1.75" transform="translate(2.517 36.594)" fill="#fff"></rect><rect id="&#x9577;&#x65B9;&#x5F62;_3436-2" data-name="&#x9577;&#x65B9;&#x5F62; 3436" width="1.833" height="1.833" transform="translate(28.733 12.514)" fill="#f6c44c"></rect></g><path id="&#x9577;&#x65B9;&#x5F62;_3439-2" data-name="&#x9577;&#x65B9;&#x5F62; 3439" d="M1.725,1.725V13.418H13.418V1.725H1.725M0,0H15.144V15.144H0Z" transform="translate(8.09 15.932)" fill="#fff"></path></g></g><rect id="&#x9577;&#x65B9;&#x5F62;_3444-2" data-name="&#x9577;&#x65B9;&#x5F62; 3444" width="9.201" height="4.026" transform="translate(18.37 21.464)" fill="#fff"></rect></g></g></g><g id="&#x30B0;&#x30EB;&#x30FC;&#x30D7;_19501" data-name="&#x30B0;&#x30EB;&#x30FC;&#x30D7; 19501" transform="translate(880.717 19483.738)"><g id="&#x30B0;&#x30EB;&#x30FC;&#x30D7;_16136-3" data-name="&#x30B0;&#x30EB;&#x30FC;&#x30D7; 16136" transform="translate(0 0)"><g id="&#x30B0;&#x30EB;&#x30FC;&#x30D7;_16135-3" data-name="&#x30B0;&#x30EB;&#x30FC;&#x30D7; 16135" transform="translate(0 0)"><g id="&#x30B0;&#x30EB;&#x30FC;&#x30D7;_16130-3" data-name="&#x30B0;&#x30EB;&#x30FC;&#x30D7; 16130"><path id="&#x524D;&#x9762;&#x30AA;&#x30D6;&#x30B8;&#x30A7;&#x30AF;&#x30C8;&#x3067;&#x578B;&#x629C;&#x304D;_4-3" data-name="&#x524D;&#x9762;&#x30AA;&#x30D6;&#x30B8;&#x30A7;&#x30AF;&#x30C8;&#x3067;&#x578B;&#x629C;&#x304D; 4" d="M37.654,37.95H8.778L0,28.025V0H26.357V5.442h5.416v5.443h5.881V37.949ZM11.244,11.237h0v15.5H26.416v-15.5H11.244Z" transform="translate(0.958 10.715)" fill="#fff"></path><g id="&#x30B0;&#x30EB;&#x30FC;&#x30D7;_16129-3" data-name="&#x30B0;&#x30EB;&#x30FC;&#x30D7; 16129"><g id="&#x30B0;&#x30EB;&#x30FC;&#x30D7;_16126-3" data-name="&#x30B0;&#x30EB;&#x30FC;&#x30D7; 16126" transform="translate(0.958)"><g id="&#x30B0;&#x30EB;&#x30FC;&#x30D7;_17945-3" data-name="&#x30B0;&#x30EB;&#x30FC;&#x30D7; 17945" transform="translate(0)"><g id="&#x30B0;&#x30EB;&#x30FC;&#x30D7;_8890-3" data-name="&#x30B0;&#x30EB;&#x30FC;&#x30D7; 8890"><g id="&#x30B0;&#x30EB;&#x30FC;&#x30D7;_2225-3" data-name="&#x30B0;&#x30EB;&#x30FC;&#x30D7; 2225"><path id="&#x7DDA;_37-3" data-name="&#x7DDA; 37" d="M-16.263,37.809H-27.5V0h11.237Z" transform="translate(27.5)" fill="#fff"></path><rect id="&#x9577;&#x65B9;&#x5F62;_881-3" data-name="&#x9577;&#x65B9;&#x5F62; 881" width="26.417" height="26.712" transform="translate(5.618 16.334)" fill="rgba(0,0,0,0)"></rect></g></g></g></g><rect id="&#x9577;&#x65B9;&#x5F62;_3435-3" data-name="&#x9577;&#x65B9;&#x5F62; 3435" width="4.337" height="4.337" transform="translate(34.274 10.473)" fill="#f6c44c"></rect><rect id="&#x9577;&#x65B9;&#x5F62;_3447-3" data-name="&#x9577;&#x65B9;&#x5F62; 3447" width="3.179" height="3.179" transform="translate(0 43.046)" fill="#fff"></rect><rect id="&#x9577;&#x65B9;&#x5F62;_3448-3" data-name="&#x9577;&#x65B9;&#x5F62; 3448" width="2.21" height="2.21" transform="translate(3.179 46.225)" fill="#fff"></rect><rect id="&#x9577;&#x65B9;&#x5F62;_3436-3" data-name="&#x9577;&#x65B9;&#x5F62; 3436" width="2.315" height="2.315" transform="translate(36.296 15.807)" fill="#f6c44c"></rect></g><path id="&#x9577;&#x65B9;&#x5F62;_3439-3" data-name="&#x9577;&#x65B9;&#x5F62; 3439" d="M2.179,2.179V16.95H16.95V2.179H2.179M0,0H19.129V19.129H0Z" transform="translate(10.22 20.125)" fill="#fff"></path></g></g><rect id="&#x9577;&#x65B9;&#x5F62;_3444-3" data-name="&#x9577;&#x65B9;&#x5F62; 3444" width="11.623" height="5.085" transform="translate(23.205 27.114)" fill="#fff"></rect></g></g><g id="&#x30B0;&#x30EB;&#x30FC;&#x30D7;_20910" data-name="&#x30B0;&#x30EB;&#x30FC;&#x30D7; 20910" transform="translate(696 19861)"><g id="&#x30B0;&#x30EB;&#x30FC;&#x30D7;_20907" data-name="&#x30B0;&#x30EB;&#x30FC;&#x30D7; 20907"><rect id="&#x9577;&#x65B9;&#x5F62;_5136" data-name="&#x9577;&#x65B9;&#x5F62; 5136" width="529" height="465" fill="#fff"></rect><path id="&#x9577;&#x65B9;&#x5F62;_5136_-_&#x30A2;&#x30A6;&#x30C8;&#x30E9;&#x30A4;&#x30F3;" data-name="&#x9577;&#x65B9;&#x5F62; 5136 - &#x30A2;&#x30A6;&#x30C8;&#x30E9;&#x30A4;&#x30F3;" d="M2,2V463H527V2H2M0,0H529V465H0Z" fill="#e2e2e2"></path><path id="&#x30D1;&#x30B9;_33891" data-name="&#x30D1;&#x30B9; 33891" d="M-181.17-16.335h3.685c1.98,6.6,4.95,11.33,9.68,15.18A41.577,41.577,0,0,0-159.06,4.07a29.971,29.971,0,0,1,3.135-6.215c-4.51-1.6-6.93-2.915-9.68-5.335a48.864,48.864,0,0,0,5.335-4.895l-6.1-3.52a16.881,16.881,0,0,1-3.3,3.63,16.78,16.78,0,0,1-1.87-4.07h2.09a20.387,20.387,0,0,1,3.41.165V-20.3a30.8,30.8,0,0,1-3.3.165H-193.71a28.642,28.642,0,0,1-3.575-.165v4.125a21.817,21.817,0,0,1,3.52-.165h4.51A63.712,63.712,0,0,1-205.04-13.2a13.152,13.152,0,0,1,2.365,4.07,71.089,71.089,0,0,0,16.17-4.62c.5.55.66.77,1.1,1.265a55.954,55.954,0,0,1-8.745,3.3A83.962,83.962,0,0,1-206.2-6.71a12.369,12.369,0,0,1,2.585,4.125c8.14-1.815,15.235-4.235,20.185-6.875a9.386,9.386,0,0,1,.6,1.485,79.667,79.667,0,0,1-23.7,7.865,17.034,17.034,0,0,1,3.19,4.62C-194.92,1.98-194.7,1.925-190.3.165a19.726,19.726,0,0,1,1.485,4.51c1.98.055,2.75.055,3.63.055,5.06,0,7.48-.77,8.635-2.695a10.475,10.475,0,0,0,1.265-5.225,20.541,20.541,0,0,0-2.2-8.03,18.211,18.211,0,0,0-3.9-5Zm-.715,12.98a4.327,4.327,0,0,1-.5,2.365c-.44.6-1.43.88-3.355.88-.66,0-2.145-.11-3.41-.22a42.15,42.15,0,0,0,7.26-3.74ZM-200.2-43.89a43.351,43.351,0,0,1-6.215-.275v5.885a49.929,49.929,0,0,1,5.94-.22H-162.8a50.811,50.811,0,0,1,6.1.22v-5.885a41.21,41.21,0,0,1-6.05.275H-178.42a12.8,12.8,0,0,1,.33-2.915h-7.92a17.53,17.53,0,0,1,.33,2.915Zm31.735,15.95c1.925,0,2.8,0,5.005.11a24.386,24.386,0,0,1-.11-2.86v-3.575a16.024,16.024,0,0,1,.165-2.915c-1.925.11-2.97.165-5.115.165h-26.125c-2.2,0-2.915,0-5.225-.165a19.481,19.481,0,0,1,.165,2.86v3.685a21.4,21.4,0,0,1-.165,2.8c1.815-.055,3.245-.11,5.115-.11Zm-24.42-5.555h22.44v2.035h-22.44Zm28.985,17h7.1a19.474,19.474,0,0,1-.22-3.3v-3.465a16.19,16.19,0,0,1,.165-3.3c-1.815.165-3.52.22-6.215.22h-37.07a57.741,57.741,0,0,1-6.1-.22,25.7,25.7,0,0,1,.165,3.41v3.245a15.238,15.238,0,0,1-.275,3.41h7.04v-5.17h35.42Zm55.11-26.565v-.55a15.054,15.054,0,0,1,.22-2.75h-7.48a15.872,15.872,0,0,1,.22,2.75v.55h-10.89v-.55a14.666,14.666,0,0,1,.22-2.75h-7.48a15.054,15.054,0,0,1,.22,2.75v.55h-5.39a52.61,52.61,0,0,1-6.655-.33v6.765c1.925-.165,3.96-.275,6.655-.275h5.39v2.86h-4.73a34.619,34.619,0,0,1-5.28-.275v6.1a50.663,50.663,0,0,1,5.28-.22h.825v3.19h-2.915a47.01,47.01,0,0,1-6.05-.33v6.435a48.228,48.228,0,0,1,6.05-.33h2.915v3.19h-.825a45.531,45.531,0,0,1-5.28-.22v6.05a48.667,48.667,0,0,1,5.28-.22h13.64v2.585h-14.025a63.307,63.307,0,0,1-6.71-.275v6.325a59.053,59.053,0,0,1,6.655-.33h14.08v1.65a40.549,40.549,0,0,1-.33,5.72h7.755a39.17,39.17,0,0,1-.33-5.665v-1.7h14.96a57.023,57.023,0,0,1,6.655.33V-8.36c-1.925.165-4.015.275-6.6.275h-15.015V-10.67H-103.4a49.56,49.56,0,0,1,5.225.22V-16.5a46.322,46.322,0,0,1-5.225.22h-.88v-3.19h2.915a45.254,45.254,0,0,1,6.05.33v-6.435a44.126,44.126,0,0,1-6.05.33h-2.915v-3.19h.88a49.561,49.561,0,0,1,5.225.22v-6.1a34.712,34.712,0,0,1-5.225.275h-5.39V-36.9h6.215c2.64,0,4.675.11,6.6.275V-43.4a50.84,50.84,0,0,1-6.655.33Zm-17.93,6.16h10.89v2.86h-10.89Zm-4.125,8.47h6.105v3.19h-6.105Zm12.98,0h6.875v3.19h-6.875Zm-12.98,8.965h6.105v3.19h-6.105Zm12.98,0h6.875v3.19h-6.875Zm58.3,5.83-5.17,3.19A40.316,40.316,0,0,1-57.97-1.43l5.72-4.345a38.786,38.786,0,0,0-6.6-7.865h11.165v9.845c0,1.32-.33,1.595-2.145,1.595a53.474,53.474,0,0,1-6.105-.55,20.366,20.366,0,0,1,1.65,6.93c1.65.11,3.575.165,4.62.165,6.82,0,8.91-1.375,8.91-5.775V-13.64a36.7,36.7,0,0,1,5.5.33v-7.04a32.664,32.664,0,0,1-5.5.275v-3.85a54.459,54.459,0,0,1,5.72.275v-6.875a59.58,59.58,0,0,1-6.435.275h-6.49V-34.6h5.225a57.074,57.074,0,0,1,5.995.275v-7.04a45.507,45.507,0,0,1-5.995.33H-47.96v-1.485a20.5,20.5,0,0,1,.33-3.96h-7.535a28.563,28.563,0,0,1,.275,3.96v1.485h-3.9a43.716,43.716,0,0,1-5.885-.33v7.04a55.54,55.54,0,0,1,5.885-.275h3.9v4.345h-5.335c-2.145,0-3.63-.055-5.445-.165v-5.72a22.063,22.063,0,0,1-4.455.275v-6.1a28.193,28.193,0,0,1,.33-4.565h-7.48a29.688,29.688,0,0,1,.33,4.565v6.1h-1.98c.11-1.54.11-2.035.165-2.75a22.78,22.78,0,0,1,.165-2.695l-5.885-.66a13.312,13.312,0,0,1,.11,2.09A51.348,51.348,0,0,1-86.79-24.09a20.093,20.093,0,0,1,5.335,2.86,46.877,46.877,0,0,0,1.815-8.03h2.695v10.835A66.33,66.33,0,0,1-86.02-16.28l1.375,7.48a26.218,26.218,0,0,1,3.355-1.21c1.32-.385,2.42-.77,4.345-1.43v9.68a53.828,53.828,0,0,1-.33,6.655h7.48a59.052,59.052,0,0,1-.33-6.655V-13.915c1.65-.66,1.65-.66,3.74-1.6v2.2A32.2,32.2,0,0,1-61-13.64Zm-10.56-15.62h.6c.825,0,1.815.055,2.86.11v5.5a48.373,48.373,0,0,1,6.49-.275h12.485v3.85H-60.06a48.6,48.6,0,0,1-5.72-.22l-.055-2.145c-1.87.715-2.09.825-4.29,1.65Zm61.16-11h-7.04a51.976,51.976,0,0,1-5.445-.22,40.971,40.971,0,0,1,.22,4.84v20.13a28.074,28.074,0,0,1-3.96-.33v7.15a55.323,55.323,0,0,1,6.875-.33H-9.79a33.617,33.617,0,0,1-4.125,2.915,36,36,0,0,1-12.1,4.4,24.339,24.339,0,0,1,4.565,6.6,40.556,40.556,0,0,0,9.075-3.74,47.425,47.425,0,0,0,8.69-6.16L-8.745-9.02H7.865L3.135-4.895a48.831,48.831,0,0,0,8.8,6.05A41.744,41.744,0,0,0,22.11,5.17,27.5,27.5,0,0,1,26.07-1.7a39.674,39.674,0,0,1-12.045-4.07A29.5,29.5,0,0,1,8.965-9.02h9.9a57.191,57.191,0,0,1,6.875.33v-7.15a26.06,26.06,0,0,1-3.96.33V-35.585a39.628,39.628,0,0,1,.22-4.9,44.393,44.393,0,0,1-5.5.22H9.515v-.825a25.766,25.766,0,0,1,.33-5.115H2.585a27.875,27.875,0,0,1,.275,5.17v.77H-2.31v-.77a23.529,23.529,0,0,1,.33-5.17H-9.3a22.682,22.682,0,0,1,.33,5.06Zm0,24.75H-14.19v-6.325h5.225Zm6.655,0v-6.325H2.86v6.325Zm11.825,0v-6.325H14.74v6.325ZM-8.965-28.16H-14.19v-5.61h5.225Zm6.655,0v-5.61H2.86v5.61Zm11.825,0v-5.61H14.74v5.61Zm29.81-4.07a8.757,8.757,0,0,1,1.485-.11h.99c1.045.055,1.925.055,2.64.11,2.97.11,3.355.11,4.4.11h1.54q-.165,3.465-.165,5.775A21.4,21.4,0,0,0,42.68-21.4a17.509,17.509,0,0,0-5.5,12.54c0,6.16,3.795,10.34,9.4,10.34,4.675,0,9.35-2.475,14.52-7.7A45.9,45.9,0,0,0,70.95-20.79c3.355,1.54,4.84,3.52,4.84,6.545,0,3.63-2.365,6.6-6.6,8.3A25.146,25.146,0,0,1,59.4-4.345a27.78,27.78,0,0,1,3.3,7.7C68.035,2.64,71.115,1.925,73.865.66c6.38-2.97,9.9-8.085,9.9-14.41a12.59,12.59,0,0,0-4.9-10.34A14.647,14.647,0,0,0,73.205-27a9.446,9.446,0,0,0,.6-1.54c.55-1.375.55-1.375.715-1.76L67.1-32.4a21.162,21.162,0,0,1-.935,3.85,15.035,15.035,0,0,0-1.925-.165,28.066,28.066,0,0,0-6.875.66c0-1.045,0-1.595.055-2.255a17.049,17.049,0,0,0,.11-2.035c4.73-.11,13.53-.935,19.25-1.76,1.21-.165,1.485-.22,2.31-.275l-.385-7.535c-4.565,1.375-11.5,2.31-20.68,2.86a26.206,26.206,0,0,1,.88-6.27l-8.03-.385a10.217,10.217,0,0,1,.055,1.43c0,1.54,0,1.65-.055,2.585-.165,2.035-.165,2.035-.22,2.86h-1.21A54.755,54.755,0,0,1,39.27-39.6Zm11,13.365A71.191,71.191,0,0,0,51.26-7.48a6.34,6.34,0,0,1-3.96,1.6c-1.76,0-2.75-1.375-2.75-3.685C44.55-13.09,46.64-16.39,50.325-18.865Zm6.93-2.75a14.9,14.9,0,0,1,5.225-.88,5.414,5.414,0,0,1,1.54.11,37.619,37.619,0,0,1-6.325,9.955C57.42-15.29,57.31-17.435,57.255-21.615ZM105-45.21a11.963,11.963,0,0,1-.11,1.925c-.11.99-.33,3.19-.715,6.655-.44,3.96-.77,10.01-.77,14.685,0,1.155.055,2.805.11,4.785.055,2.915.055,2.915.055,3.135a5.7,5.7,0,0,1-.055.88l7.865-.11v-.825a24.739,24.739,0,0,1,7.1-17.765,7.677,7.677,0,0,1,5.5-2.585c4.345,0,6.765,4.125,6.765,11.5,0,12.21-6.38,17.765-21.78,18.975a27.444,27.444,0,0,1,3.795,7.975A51.6,51.6,0,0,0,124.08.99c9.79-4.125,14.85-11.99,14.85-23.045,0-5.83-.88-9.735-2.97-13.365-2.585-4.455-6.545-6.875-11.11-6.875a13.276,13.276,0,0,0-9.075,3.795,22.194,22.194,0,0,0-4.895,7.26c1.1-8.36,1.595-11.11,2.42-13.585ZM186.45-34.7a10.7,10.7,0,0,1,5.115,1.76,13.367,13.367,0,0,1,5.885,11.5,15.106,15.106,0,0,1-7.59,13.53c-2.585,1.375-5.995,2.255-10.89,2.64a22.551,22.551,0,0,1,4.07,7.81A39.262,39.262,0,0,0,191.785.275c8.8-3.465,13.8-11.22,13.8-21.23,0-12.87-8.8-21.12-22.6-21.12-7.865,0-14.63,2.75-19.36,7.92a23.728,23.728,0,0,0-6.16,16.335c0,9.46,4.84,16.115,11.66,16.115,4.73,0,8.36-3.245,11.44-10.23A77.6,77.6,0,0,0,186.45-34.7Zm-8.03.11a70.809,70.809,0,0,1-4.4,17.71c-1.76,4.455-3.465,6.6-5.06,6.6-2.145,0-3.905-3.355-3.905-7.48a18.032,18.032,0,0,1,6.765-14.08A12.359,12.359,0,0,1,178.42-34.6ZM-138.82,75.155c-.66-1.375-1.65-3.795-2.695-6.6l-12.1-32.4a37.241,37.241,0,0,1-1.87-5.72H-167.31a42.229,42.229,0,0,1-1.76,5.72l-11.99,32.4a51.124,51.124,0,0,1-2.805,6.6h10.89a27.464,27.464,0,0,1,1.485-5.83l1.87-5.335h16.61l1.87,5.335a39.336,39.336,0,0,1,1.43,5.83Zm-16.5-18.92h-11.99l5.17-15.565c.385-1.1.44-1.375.77-2.53.44,1.485.66,2.035.825,2.53Zm26.18-25.8a45.919,45.919,0,0,1,.44,7.59V67.565a47.207,47.207,0,0,1-.44,7.59h10.12a46.345,46.345,0,0,1-.44-7.59V38.03a45.5,45.5,0,0,1,.44-7.59Zm58.025,41.635v3.3h8.8a53.36,53.36,0,0,1-.275-8.14V39.515c0-2.365,0-2.365.165-6-1.485.11-3.905.165-6.875.165H-93.445a54.063,54.063,0,0,1-8.635-.44V41.77a77.8,77.8,0,0,1,8.525-.275h22.44V64.21h-23.21a49.645,49.645,0,0,1-8.525-.44v8.58c2.915-.22,4.29-.275,8.36-.275ZM-43.56,38.91A58.109,58.109,0,0,1-29.095,50.295l5.555-7.2c-4.4-4.07-7.535-6.38-14.63-10.67Zm2.64,36.63a20.067,20.067,0,0,1,2.75-.77c1.045-.22,1.045-.22,2.42-.495a69.82,69.82,0,0,0,16-5.72c9.57-5.06,16.06-12.32,21.505-24.09a29.92,29.92,0,0,1-6.985-6.38A47.635,47.635,0,0,1-10.78,49.03,34.17,34.17,0,0,1-26.95,62.505,52.579,52.579,0,0,1-43.34,66.52ZM54.175,52.55a71.2,71.2,0,0,1,7.975.275V44.96a56.172,56.172,0,0,1-8.14.385H22.99a62.118,62.118,0,0,1-7.92-.385v7.92a59.223,59.223,0,0,1,7.81-.33H35.09A21.457,21.457,0,0,1,33.055,61.4C30.8,65.75,26.73,68.61,19.91,70.7a21.952,21.952,0,0,1,5.445,7.315c7.2-2.915,11.22-5.83,14.135-10.45,2.585-3.96,3.85-8.525,4.29-15.015ZM20.68,38.91a71.484,71.484,0,0,1,7.81-.275H48.565a61.886,61.886,0,0,1,8.03.275V31.045a50.688,50.688,0,0,1-8.14.385H28.6a52.08,52.08,0,0,1-7.92-.385Zm100.1,30.855C111.375,60.8,110,59.59,102.9,54.53a71.68,71.68,0,0,0,8.305-14.96,9.041,9.041,0,0,1,1.815-3.08l-4.235-4.4c-1.32.6-1.595.66-4.62.66l-18.755.33H84.37a40.956,40.956,0,0,1-6.71-.33l.11,8.36a49.545,49.545,0,0,1,7.7-.495l16.06-.275c-1.265,2.805-2.2,4.785-2.915,5.995a50.763,50.763,0,0,1-14.41,15.9A49.7,49.7,0,0,1,72,68.94a24.873,24.873,0,0,1,5.28,7.315c8.36-4.07,15.62-9.515,20.515-15.345a97.949,97.949,0,0,1,16.335,16.005Zm31.57,7.15a68.058,68.058,0,0,1-.33-7.645V53.43a18.867,18.867,0,0,0,2.09.99,120.783,120.783,0,0,1,18.425,10.01l4.51-7.92A132.543,132.543,0,0,0,152.02,44.96V36.6a48.452,48.452,0,0,1,.33-7.37h-8.965a48.016,48.016,0,0,1,.33,7.37V69.16a56.838,56.838,0,0,1-.33,7.755Z" transform="translate(260.043 334.6)" fill="#333"></path><g id="Tournament" transform="translate(181 64)"><path id="&#x30D1;&#x30B9;_33585" data-name="&#x30D1;&#x30B9; 33585" d="M128.366,47.431H94.935a8.358,8.358,0,0,1-8.358-8.358V14H69.862V39.073A8.358,8.358,0,0,1,61.5,47.431H28.073A25.073,25.073,0,0,0,3,72.5H19.715a8.358,8.358,0,0,1,8.358-8.358H61.5A25.073,25.073,0,0,0,78.22,57.627a25.073,25.073,0,0,0,16.715,6.519h33.431a8.358,8.358,0,0,1,8.358,8.358h16.715A25.073,25.073,0,0,0,128.366,47.431Z" transform="translate(5.012 103.008)" fill="#ed6dde"></path><path id="&#x30D1;&#x30B9;_33586" data-name="&#x30D1;&#x30B9; 33586" d="M53.146,66.862H36.431A33.431,33.431,0,1,1,36.431,0h8.358V16.715H36.431a16.715,16.715,0,1,0,0,33.431H53.146Z" transform="translate(5.012)" fill="#7864ff"></path><path id="&#x30D1;&#x30B9;_33587" data-name="&#x30D1;&#x30B9; 33587" d="M31.715,66.862H15V50.146H31.715a16.715,16.715,0,1,0,0-33.431H23.358V0h8.358a33.431,33.431,0,1,1,0,66.862Z" transform="translate(93.305)" fill="#7864ff"></path><rect id="&#x9577;&#x65B9;&#x5F62;_5319" data-name="&#x9577;&#x65B9;&#x5F62; 5319" width="32.693" height="25.001" transform="translate(67.31 75.596)" fill="#7864ff"></rect><path id="&#x30D1;&#x30B9;_33588" data-name="&#x30D1;&#x30B9; 33588" d="M48.789,83.577A41.789,41.789,0,0,1,7,41.789V0H90.577V41.789A41.789,41.789,0,0,1,48.789,83.577Z" transform="translate(34.443)" fill="#c3baff"></path><rect id="&#x9577;&#x65B9;&#x5F62;_5320" data-name="&#x9577;&#x65B9;&#x5F62; 5320" width="67.31" height="32.693" transform="translate(50.002 100.597)" fill="#c3baff"></rect><circle id="&#x6955;&#x5186;&#x5F62;_460" data-name="&#x6955;&#x5186;&#x5F62; 460" cx="16.347" cy="16.347" r="16.347" transform="translate(0 167.907)" fill="#c3baff"></circle><ellipse id="&#x6955;&#x5186;&#x5F62;_461" data-name="&#x6955;&#x5186;&#x5F62; 461" cx="17.308" cy="16.347" rx="17.308" ry="16.347" transform="translate(132.697 167.907)" fill="#c3baff"></ellipse></g></g><g id="&#x30B0;&#x30EB;&#x30FC;&#x30D7;_19502" data-name="&#x30B0;&#x30EB;&#x30FC;&#x30D7; 19502" transform="translate(245.195 72.392)"><g id="&#x30B0;&#x30EB;&#x30FC;&#x30D7;_16136-4" data-name="&#x30B0;&#x30EB;&#x30FC;&#x30D7; 16136" transform="translate(0 0)"><g id="&#x30B0;&#x30EB;&#x30FC;&#x30D7;_16135-4" data-name="&#x30B0;&#x30EB;&#x30FC;&#x30D7; 16135" transform="translate(0 0)"><g id="&#x30B0;&#x30EB;&#x30FC;&#x30D7;_16130-4" data-name="&#x30B0;&#x30EB;&#x30FC;&#x30D7; 16130"><path id="&#x524D;&#x9762;&#x30AA;&#x30D6;&#x30B8;&#x30A7;&#x30AF;&#x30C8;&#x3067;&#x578B;&#x629C;&#x304D;_4-4" data-name="&#x524D;&#x9762;&#x30AA;&#x30D6;&#x30B8;&#x30A7;&#x30AF;&#x30C8;&#x3067;&#x578B;&#x629C;&#x304D; 4" d="M37.654,37.95H8.778L0,28.025V0H26.357V5.442h5.416v5.443h5.881V37.949ZM11.244,11.237h0v15.5H26.416v-15.5H11.244Z" transform="translate(0.958 10.715)" fill="#fff"></path><g id="&#x30B0;&#x30EB;&#x30FC;&#x30D7;_16129-4" data-name="&#x30B0;&#x30EB;&#x30FC;&#x30D7; 16129"><g id="&#x30B0;&#x30EB;&#x30FC;&#x30D7;_16126-4" data-name="&#x30B0;&#x30EB;&#x30FC;&#x30D7; 16126" transform="translate(0.958)"><g id="&#x30B0;&#x30EB;&#x30FC;&#x30D7;_17945-4" data-name="&#x30B0;&#x30EB;&#x30FC;&#x30D7; 17945" transform="translate(0)"><g id="&#x30B0;&#x30EB;&#x30FC;&#x30D7;_8890-4" data-name="&#x30B0;&#x30EB;&#x30FC;&#x30D7; 8890"><g id="&#x30B0;&#x30EB;&#x30FC;&#x30D7;_2225-4" data-name="&#x30B0;&#x30EB;&#x30FC;&#x30D7; 2225"><path id="&#x7DDA;_37-4" data-name="&#x7DDA; 37" d="M-16.263,37.809H-27.5V0h11.237Z" transform="translate(27.5)" fill="#fff"></path><rect id="&#x9577;&#x65B9;&#x5F62;_881-4" data-name="&#x9577;&#x65B9;&#x5F62; 881" width="26.417" height="26.712" transform="translate(5.618 16.334)" fill="rgba(0,0,0,0)"></rect></g></g></g></g><rect id="&#x9577;&#x65B9;&#x5F62;_3435-4" data-name="&#x9577;&#x65B9;&#x5F62; 3435" width="4.337" height="4.337" transform="translate(34.274 10.473)" fill="#f6c44c"></rect><rect id="&#x9577;&#x65B9;&#x5F62;_3447-4" data-name="&#x9577;&#x65B9;&#x5F62; 3447" width="3.179" height="3.179" transform="translate(0 43.046)" fill="#fff"></rect><rect id="&#x9577;&#x65B9;&#x5F62;_3448-4" data-name="&#x9577;&#x65B9;&#x5F62; 3448" width="2.21" height="2.21" transform="translate(3.179 46.225)" fill="#fff"></rect><rect id="&#x9577;&#x65B9;&#x5F62;_3436-4" data-name="&#x9577;&#x65B9;&#x5F62; 3436" width="2.315" height="2.315" transform="translate(36.296 15.807)" fill="#f6c44c"></rect></g><path id="&#x9577;&#x65B9;&#x5F62;_3439-4" data-name="&#x9577;&#x65B9;&#x5F62; 3439" d="M2.179,2.179V16.95H16.95V2.179H2.179M0,0H19.129V19.129H0Z" transform="translate(10.22 20.125)" fill="#fff"></path></g></g><rect id="&#x9577;&#x65B9;&#x5F62;_3444-4" data-name="&#x9577;&#x65B9;&#x5F62; 3444" width="11.623" height="5.085" transform="translate(23.205 27.114)" fill="#fff"></rect></g></g></g></g></svg>