<svg xmlns="http://www.w3.org/2000/svg" width="1433.711" height="424.906" viewBox="0 0 1433.711 424.906"><path id="&#x30D1;&#x30B9;_36613" data-name="&#x30D1;&#x30B9; 36613" d="M242.648-10l-6.572,53.84H101.1l-12.386,100.6H223.69l-6.066,50.048H82.391L59.642,380.28H1.758L50.037-10Zm120.066,0-41.2,336.437h110.46L425.4,380.28H257.055L305.082-10ZM866.736,177.559q0,66.731-35.388,121.077a190.529,190.529,0,0,1-73.3,65.973q-45.246,23.255-100.1,23.255-87.711,0-143.068-55.862-55.357-56.115-55.357-145.09,0-88.722,58.643-146.607,58.9-58.137,148.629-58.137t144.837,53.84Q866.736,89.595,866.736,177.559Zm-58.137-.506q0-63.951-37.915-102.372Q732.768,36.513,668.818,36.513q-64.2,0-107.933,42.971-43.224,42.971-43.224,107.427,0,63.7,40.19,105.405,40.19,41.454,101.614,41.454,63.951,0,106.416-44.74Q808.6,244.8,808.6,177.053ZM1435.469-10l-204.238,406.96-77.348-272.992L1017.64,401.513,897.827-10h59.148l73.051,266.672L1167.28-23.394,1245.891,249.6,1373.54-10Z" transform="translate(-1.758 23.395)"></path></svg>