<svg xmlns="http://www.w3.org/2000/svg" width="939.742" height="35.207" viewBox="0 0 939.742 35.207"><path id="&#x30D1;&#x30B9;_36598" data-name="&#x30D1;&#x30B9; 36598" d="M22.14-20.952a7.926,7.926,0,0,1-.468,2.052,13.588,13.588,0,0,0-1.692-.072,19.016,19.016,0,0,0-3.492.324c.036-.756.036-.864.036-1.08.036-.612.036-.612.072-.972,3.6-.144,9.072-.576,12.528-1.08.828-.108.972-.108,1.548-.144l-.252-5.832a68.352,68.352,0,0,1-13.5,1.8,20.523,20.523,0,0,1,.576-3.78L11.3-29.988a9.205,9.205,0,0,1,.072,1.512c0,.4,0,.792-.036,1.152-.072,1.08-.072,1.08-.108,1.548l-.5.036h-.216a33.359,33.359,0,0,1-6.7-.54l.072,5.688c.5-.036.648-.036,1.152-.036.648,0,1.224,0,1.764.036,2.664.036,2.664.036,4.212.072-.036,1.548-.036,1.908-.036,3.132a14.067,14.067,0,0,0-5,3.276,11.78,11.78,0,0,0-3.6,8.352c0,4.5,2.7,7.344,6.948,7.344A12.854,12.854,0,0,0,17.676-2.16a19.447,19.447,0,0,1,2.016,4.752A21.932,21.932,0,0,0,26.964.936C31.32-1.008,33.732-4.5,33.732-8.856a8.66,8.66,0,0,0-2.952-6.768,9.166,9.166,0,0,0-3.636-2.016,18.167,18.167,0,0,1,.756-1.8Zm-3.132,17.6a28.345,28.345,0,0,0,6.3-9.4,3.548,3.548,0,0,1,2.3,3.456,5.516,5.516,0,0,1-3.42,4.824A13.906,13.906,0,0,1,19.008-3.348Zm-7.956-8.028a40.933,40.933,0,0,0,.54,6.516,3.38,3.38,0,0,1-1.98.684c-1.008,0-1.548-.756-1.548-2.088A6.237,6.237,0,0,1,11.052-11.376Zm5.4-2.484a9.366,9.366,0,0,1,2.844-.4,5.317,5.317,0,0,1,.756.036,23.417,23.417,0,0,1-3.384,5.544A44.128,44.128,0,0,1,16.452-13.86Zm31.32-16.452a24.04,24.04,0,0,1-.54,4.284,12.372,12.372,0,0,0-.324,1.512c-.72.036-.9.036-1.3.036a29.43,29.43,0,0,1-5.256-.36v5.76h1.4c.828.036.828.036,1.656.036h2.016a48.932,48.932,0,0,1-6.66,13.608l5.868,3.2a14.552,14.552,0,0,1,.684-1.4c1.4-2.808,1.728-3.456,2.484-5.112a74.014,74.014,0,0,0,3.924-10.44c.9-.072,2.88-.252,3.852-.36,1.8-.216,1.8-.216,2.664-.288l-.108-5.832a27.708,27.708,0,0,1-5,.864c.18-.828.252-1.152.432-2.016a15.734,15.734,0,0,1,.684-2.88ZM72.72-21.528a60.065,60.065,0,0,0-10.836-4.86L58.9-21.42a50.935,50.935,0,0,1,11.2,5.184ZM72.4-5.04c-1.08-.864-1.656-1.332-1.764-1.4a26.366,26.366,0,0,0-5.544-3.2,32.058,32.058,0,0,1-.288-4.176,16.728,16.728,0,0,1,.4-4.068l-5.94-.252c-.144,1.62-.216,2.772-.216,4.248,0,.828.036,1.512.144,2.88a14.735,14.735,0,0,0-2.52-.216c-5,0-8.5,2.916-8.5,7.092a6.288,6.288,0,0,0,1.8,4.464,9.45,9.45,0,0,0,6.8,2.376c2.88,0,5.4-.828,6.8-2.232a5.323,5.323,0,0,0,1.512-3.744A19.279,19.279,0,0,1,69.732.648Zm-13.1-.612a3.664,3.664,0,0,1,.072.792c0,1.512-.936,2.3-2.736,2.3-1.548,0-2.556-.684-2.556-1.728,0-1.116,1.08-1.836,2.772-1.836A6.258,6.258,0,0,1,59.292-5.652Zm37.476-19.8a40.674,40.674,0,0,1-5.9.936c.324-1.836.54-2.88.576-3.1a11.381,11.381,0,0,1,.468-2.088l-6.732-.5v.54a34.72,34.72,0,0,1-.612,5.4H83.88a37.467,37.467,0,0,1-5.472-.36L78.3-18.756a7.255,7.255,0,0,1,.828-.036h.36c1.548.072,2.3.108,3.456.108h.576A76.881,76.881,0,0,1,77.472-.252L84.1,2.16c.252-.864.252-.864.828-2.592,1.548-4.644,1.764-5.436,2.664-8.6,1.008-3.744,1.656-6.408,2.268-9.792,1.116-.072,1.548-.108,3.276-.288L93.492-14a48.317,48.317,0,0,1,10.116-.9,32.442,32.442,0,0,1,4.716.252l-.108-6.084c-.756-.036-1.512-.036-1.764-.036a61.2,61.2,0,0,0-9.54.54ZM92.952-12.06c-1.98,2.88-2.808,4.9-2.808,6.984q0,6.8,10.584,6.8a44.1,44.1,0,0,0,7.02-.576c.864-.108,1.188-.144,1.908-.216l-.432-6.3a27.091,27.091,0,0,1-8.5,1.4c-3.024,0-4.5-.792-4.5-2.448,0-1.116.576-2.3,1.944-3.924Zm42.192-10.224a6.033,6.033,0,0,1,3.024,1.26,8.471,8.471,0,0,1,3.168,7.092c0,3.852-1.548,6.876-4.32,8.352a18.723,18.723,0,0,1-7.56,1.836,17.688,17.688,0,0,1,3.06,5.9c5.04-.792,7.884-1.944,10.332-4.14a15.491,15.491,0,0,0,4.788-11.628,14.314,14.314,0,0,0-3.528-10.008c-2.664-2.808-6.912-4.428-11.736-4.428a17.213,17.213,0,0,0-13.032,5.292,16,16,0,0,0-4.14,10.98c0,6.588,3.384,11.2,8.208,11.2,3.276,0,5.688-2.016,7.776-6.624A50.431,50.431,0,0,0,135.144-22.284Zm-6.228.072a46.675,46.675,0,0,1-2.7,10.98c-1.08,2.736-2.016,4-2.916,4-1.26,0-2.232-2.016-2.232-4.572a11.648,11.648,0,0,1,3.924-8.568A7.2,7.2,0,0,1,128.916-22.212ZM164.88-1.188a21.983,21.983,0,0,1,2.412,3.636,20.163,20.163,0,0,0,5.8-6.228,19.909,19.909,0,0,0-.072,2.16V-.036a21.831,21.831,0,0,1-.18,3.276H178.2a23.422,23.422,0,0,1-.216-3.348v-1.62c0-.972,0-.972-.072-2.124a16.827,16.827,0,0,0,2.52,3.2,30.173,30.173,0,0,0,3.528,3.06,25.693,25.693,0,0,1,2.664-5.256,17.938,17.938,0,0,1-6.336-5.184h2.3a28.173,28.173,0,0,1,3.492.144V-12.96a25.4,25.4,0,0,1-3.78.18h-4.356v-1.4h3.708a32.431,32.431,0,0,1,3.528.144,29.7,29.7,0,0,1-.144-3.492v-8.892a27.149,27.149,0,0,1,.144-3.456c-.72.072-1.584.108-2.988.108H169.452c-1.584,0-2.52-.036-3.42-.108a26.385,26.385,0,0,1,.144,3.312v9.18a28.168,28.168,0,0,1-.144,3.348,26.312,26.312,0,0,1,3.2-.144h3.816v1.4h-3.78a25.4,25.4,0,0,1-3.78-.18v5.076a27.8,27.8,0,0,1,3.492-.144H170.5a17.069,17.069,0,0,1-5.616,5.364V-6.336a19.732,19.732,0,0,1,.072-2.376,18.564,18.564,0,0,1-2.2.108H155.88a24.15,24.15,0,0,1-2.7-.072,20.156,20.156,0,0,1,.144,2.664v5.8c0,1.116-.072,2.376-.18,3.492h5.112V1.8H160.2v.972h4.788a17.341,17.341,0,0,1-.108-2.2Zm8.244-24.3v1.764h-2.232v-1.764Zm4.716,0h2.376v1.764H177.84Zm-4.716,5.472v1.764h-2.232v-1.764Zm4.716,0h2.412v1.764H177.84ZM158.112-4.68h2.124v2.2h-2.124Zm-4.68-20.988c.9-.072,1.8-.108,3.2-.108h4.932c1.44,0,2.268.036,3.2.108v-4.248a24.847,24.847,0,0,1-3.2.144h-4.932a24.493,24.493,0,0,1-3.2-.144Zm-1.116,5.76a22.454,22.454,0,0,1,2.916-.144h7.092a17.976,17.976,0,0,1,2.844.108v-4.788c-.9.072-1.44.108-2.916.108h-7.02a16.05,16.05,0,0,1-2.916-.18Zm1.116,5.076a17.311,17.311,0,0,1,2.124-.072h7.128a15.437,15.437,0,0,1,2.016.072V-18.9a14.016,14.016,0,0,1-2.016.072h-7.128a17.311,17.311,0,0,1-2.124-.072Zm0,5.112a16.349,16.349,0,0,1,2.052-.072h7.056c1.116,0,1.62.036,2.16.072v-4.068a14.6,14.6,0,0,1-2.052.072h-7.092a17.312,17.312,0,0,1-2.124-.072Zm43.956,3.888a8.075,8.075,0,0,1-1.188-1.44c.072-1.044.108-1.548.108-2.232s0-.756.036-1.26l-4.464-.54c.036.432.072.756.072,1.008,0,1.224-.144,3.132-.252,4.032a13.829,13.829,0,0,1-2.052,5.832,17.208,17.208,0,0,1,3.78,3.636,17,17,0,0,0,2.016-5.256,11.782,11.782,0,0,0,6.444,4.1c2.484.54,5.544.72,12.276.72,1.044,0,1.044,0,5.652-.108,2.2-.036,3.276-.072,3.276-.072a20.918,20.918,0,0,1,1.368-5.508c-.792.072-1.332.144-1.656.18A19.176,19.176,0,0,1,224.5-4.968a14.74,14.74,0,0,1-4.572-2.34A23.845,23.845,0,0,1,222.7-7.2a32.611,32.611,0,0,1-.144-3.384v-10.3c0-1.224.036-2.052.108-2.844a20.655,20.655,0,0,1-2.88.108H217.4c.252-.54.54-1.152.684-1.476h2.2a33.317,33.317,0,0,1,3.528.18v-4.752a34.877,34.877,0,0,1-4.1.18h-8.5c-1.764,0-2.88-.036-4.068-.144v4.68c1.116-.108,2.34-.144,3.528-.144h2.268a14.411,14.411,0,0,1-.648,1.476h-1.368a20.381,20.381,0,0,1-2.88-.108,23.244,23.244,0,0,1,.144,2.808V-9.9a20.371,20.371,0,0,1-.144,2.7,18.794,18.794,0,0,1,2.088-.108A12.624,12.624,0,0,1,205.38-4.5a17.35,17.35,0,0,1,1.944,2.124,24.319,24.319,0,0,1-4.968-.612V-5.544h1.512a22.1,22.1,0,0,1,2.916.144v-4.752c-.972.072-1.692.108-2.916.108h-1.512v-1.98h1.692a26.185,26.185,0,0,1,3.276.108v-4.752a19.251,19.251,0,0,1-2.736.144H193.752a24.147,24.147,0,0,1-3.384-.144v4.788a24.483,24.483,0,0,1,3.384-.144h3.636Zm14.8-1.476h5.364l-2.34,1.656a15.424,15.424,0,0,0,3.672,3.168c-2.556.108-5.22.18-7.632.18a15.582,15.582,0,0,0,3.6-3.384Zm.936-12.78h4.5v1.152h-4.5Zm0,4h4.5V-14.9h-4.5Zm0,4h4.5v1.188h-4.5Zm-21.348-8.28a19.67,19.67,0,0,1-.144,2.988c1.116-.072,1.908-.108,3.06-.108h8.568c1.152,0,1.944.036,3.06.108a19.084,19.084,0,0,1-.108-2.952v-6.3a21.027,21.027,0,0,1,.108-3.024,21.37,21.37,0,0,1-3.132.108h-8.5a27.781,27.781,0,0,1-3.06-.108,24.279,24.279,0,0,1,.144,3.024Zm5.076-5.616h4.32v1.224h-4.32Zm0,4.068h4.32V-20.7h-4.32Zm45.108-7.092a7.148,7.148,0,0,1-1.728.144h-3.06c.252-.612.324-.792.54-1.224l-5.544-.864a18.918,18.918,0,0,1-1.656,4.86,16.329,16.329,0,0,1-3.132,4.608,18.235,18.235,0,0,1,1.944,1.548c.036.9.036,1.368.036,2.844,0,9.936-.4,13.068-1.944,16.056a16.644,16.644,0,0,1,3.852,4.14,20.838,20.838,0,0,0,2.2-8.316h6.408v2.664c0,.612-.288.72-1.692.72-.576,0-1.476-.072-2.7-.18a15.945,15.945,0,0,1,1.188,4.968h1.476c2.772,0,3.852-.18,4.68-.756.936-.648,1.3-1.548,1.3-3.276v-8.5a21.771,21.771,0,0,1,4.032,1.944,26.478,26.478,0,0,1-3.276-.144v5.292a21.813,21.813,0,0,1,3.456-.18h2.592V-.612a23.38,23.38,0,0,1-.216,3.888h5.8a22.874,22.874,0,0,1-.216-3.888V-2.664h1.872a21.493,21.493,0,0,1,3.492.18V-7.776a30.092,30.092,0,0,1-3.492.144h-1.872V-9.756h1.764a22.248,22.248,0,0,1,2.988.144V-14.8a15.048,15.048,0,0,1-2.988.18h-1.764c0-1.008,0-1.548.036-2.412h-5.364a10.942,10.942,0,0,1,.18,2.412h-1.188q.108-.864.216-1.62l-2.016-.432a11.48,11.48,0,0,0,3.924-4.536,22.868,22.868,0,0,1,.648,3.42c1.3.072,1.8.072,2.3.072,2.124,0,3.168-.216,3.924-.756,1.044-.756,1.548-2.34,1.8-5.724.324-4.788.324-4.788.432-5.616a24.781,24.781,0,0,1-3.1.144h-9.54a30.826,30.826,0,0,1-3.96-.18v5.184a22.16,22.16,0,0,1,3.024-.144h.4a5.968,5.968,0,0,1-1.26,2.484,6.355,6.355,0,0,1-2.628,1.908c0-.972.036-1.368.072-1.98-.576.072-1.152.072-2.268.108.468-.864,1.116-2.088,1.512-2.952a13.616,13.616,0,0,1,.684-1.3Zm2.16,8.712a14.032,14.032,0,0,1,2.628,3.312l-1.116-.252v.4a24.663,24.663,0,0,1-.4,3.348,17.969,17.969,0,0,1-1.116,3.42V-20.3Zm11.376-4.5a5.882,5.882,0,0,1-.4,2.088c-.144.288-.468.4-1.116.4-.324,0-.828-.036-1.4-.072a19.944,19.944,0,0,0,.684-2.412Zm-21.1,2.52c.36-.72.54-1.008.936-1.908h2.34a19.64,19.64,0,0,1-.864,1.908Zm-.684,12.708.036-2.016h1.44v2.016Zm6.156,0H238.5v-2.016h1.368Zm0-6.192H238.5v-1.98h1.368Zm-4.68-1.98v1.98H233.82v-1.98Zm13.14,10.116c.36-1.188.468-1.62.612-2.124h1.98v2.124Zm46.908-3.132a36.87,36.87,0,0,1,4.284.216v-5.616a22.238,22.238,0,0,1-2.52.18v-7.344a18.615,18.615,0,0,1,.144-2.736,27.438,27.438,0,0,1-3.492.144h-5.436v-1.44a14.76,14.76,0,0,1,.216-3.132h-5.94a18.075,18.075,0,0,1,.216,3.276v1.3h-1.836a35.121,35.121,0,0,1-4.1-.18v5.436c1.116-.108,2.412-.18,4.1-.18h1.872c-.108,3.888-.108,3.888-.18,4.9h-2.916c-1.8,0-3.1-.072-4.32-.18v5.58a36.052,36.052,0,0,1,4.356-.216h2.3A12.222,12.222,0,0,1,278.6-4.932a15.29,15.29,0,0,1-5.616,3.456A19.971,19.971,0,0,1,276.336,3.6c5.256-2.772,8.064-5.688,9.972-10.224a19.307,19.307,0,0,0,3.924,5.292,23.509,23.509,0,0,0,6.876,4.68,29.016,29.016,0,0,1,2.7-5.832c-4.86-1.692-8.064-4.248-10.368-8.28Zm-7.2-5.184c.108-1.908.144-2.952.144-4.9h3.456v4.9Zm-21.672-10.62a36.766,36.766,0,0,1,6.588,5.04l3.456-4.428A40.71,40.71,0,0,0,269.82-30.6Zm-.972,9.216a46,46,0,0,1,6.732,4.824l3.1-4.572a41.93,41.93,0,0,0-6.7-4.392Zm4.932,5.544a40.729,40.729,0,0,1-3.6,8.964,11.039,11.039,0,0,1-1.368,2.016l4.716,4.14a52.321,52.321,0,0,0,4.716-11.988ZM307.3-27.4a44.191,44.191,0,0,1,2.3,6.588c-.468.144-.684.216-1.224.36-4.068,1.26-4.068,1.26-5.112,1.4l1.872,5.94a53.408,53.408,0,0,1,5.976-2.3c1.224,4.536,1.98,7.488,2.3,8.892a81.289,81.289,0,0,1,1.908,9.936l6.768-1.548a11.442,11.442,0,0,1-.684-1.944c-1.8-7.308-3.528-13.968-4.428-17.028,4.608-1.3,7.524-1.872,9.612-1.872,2.52,0,3.924,1.008,3.924,2.844,0,2.088-1.908,3.42-4.9,3.42a15.58,15.58,0,0,1-5.4-1.08,26.335,26.335,0,0,1,.936,6.012,20.78,20.78,0,0,0,5.112.72,11.654,11.654,0,0,0,7.272-2.2,8.8,8.8,0,0,0,3.384-6.948,8.623,8.623,0,0,0-1.044-4.32c-1.4-2.484-4.32-3.96-7.776-3.96a13.735,13.735,0,0,0-1.548.072v-2.844a23.33,23.33,0,0,1,.18-2.7h-6.408a15.387,15.387,0,0,1,.288,3.744c.036,1.692.036,1.692.072,2.52-1.908.4-2.664.576-5.22,1.26-.576-2.016-.612-2.124-1.08-3.744a19.109,19.109,0,0,1-.72-2.916Zm63.756,2.736a23.121,23.121,0,0,0-2.988-5.508l-3.456,1.08a25.109,25.109,0,0,1,1.62,2.556H350.352a35.049,35.049,0,0,1-6.3-.324V-20.3a53.9,53.9,0,0,1,6.192-.18h13.968v14.04h-14.4a39.23,39.23,0,0,1-6.264-.288V-.18A46.133,46.133,0,0,1,349.7-.4h14.508V1.728h6.768a52.424,52.424,0,0,1-.216-5.94v-20.34ZM369.9-30.492a28.523,28.523,0,0,1,2.952,5.508l3.312-1.188a24.106,24.106,0,0,0-2.988-5.364ZM380.016-10.26c2.2-.18,3.384-.216,7.416-.216h17.136a69.483,69.483,0,0,1,7.416.216v-6.948a59.067,59.067,0,0,1-7.38.324H387.4a51.013,51.013,0,0,1-7.38-.324ZM422.892-28.8a26.385,26.385,0,0,1,.144,3.312c0,9.324-.576,13.788-2.268,17.316a16.079,16.079,0,0,1-4.284,5.724,19.524,19.524,0,0,1,5.148,5.04,23.949,23.949,0,0,0,5-7.2c1.728-3.924,2.448-7.92,2.664-15.444.252-7.128.252-7.128.4-8.352Zm10.224-.18a21.394,21.394,0,0,1,.144,2.808v1.3l-.18,21.312a7.881,7.881,0,0,1-.4,3.024l3.1,3.24a8.055,8.055,0,0,1,1.764-.756,21.538,21.538,0,0,0,7.56-4.1,22.056,22.056,0,0,0,6.228-9.144,23.894,23.894,0,0,1-4.788-4.752A18.231,18.231,0,0,1,443.736-9.9a13.914,13.914,0,0,1-4.32,3.96L439.6-24.8a25.763,25.763,0,0,1,.288-4.176ZM473.148-2.34a32.277,32.277,0,0,1-6.3-.5,4.433,4.433,0,0,1-3.024-2.124v-8.388a36.338,36.338,0,0,1,.144-4.068,21.524,21.524,0,0,1-2.772.144H457.74a17.691,17.691,0,0,1-2.988-.18v5.436a12.921,12.921,0,0,1,2.232-.18H458.5v6.8A17.943,17.943,0,0,1,454.1-2.664l2.34,5.8A43.4,43.4,0,0,0,461.3-.5c2.7,2.772,4.752,3.276,13.536,3.276,4.9,0,10.008-.072,13.032-.18A20.716,20.716,0,0,1,489.2-3.024a64.725,64.725,0,0,1-7.92.54c-.576.036-1.548.036-2.7.072V-4.1h5.724a29.633,29.633,0,0,1,3.384.144V-8.136a28.065,28.065,0,0,1-3.384.144h-5.724V-9.144h4.932c1.116,0,2.016.036,2.916.108v-4a21.757,21.757,0,0,1-2.916.144h-4.932v-1.224h5.472a19.978,19.978,0,0,1,3.384.144v-4.176a26.288,26.288,0,0,1-3.42.108h-.972c.252-.5.54-1.08.756-1.62h.972c1.764,0,2.412.036,3.384.108V-23.76a26.263,26.263,0,0,1-3.384.108h-6.264V-24.84h5.436c1.224,0,2.088.036,2.916.108v-4.212c-1.152.108-2.268.18-3.636.18h-4.716a14.956,14.956,0,0,1,.18-1.908h-5.724a11.009,11.009,0,0,1,.18,1.908h-4.5a25.08,25.08,0,0,1-3.6-.18v4.212A21.255,21.255,0,0,1,468-24.84h5.148v1.188h-5.8a26.1,26.1,0,0,1-2.808-.072l.576-.54a43.847,43.847,0,0,0-6.516-6.372l-4.068,3.888a37.539,37.539,0,0,1,6.408,6.732L463.9-23.04v3.492c.972-.072,1.584-.108,3.456-.108h.468a10.369,10.369,0,0,1,.864,1.62h-.324c-2.016,0-2.52-.036-3.456-.108v4.176a25.73,25.73,0,0,1,3.456-.144h4.788v1.224H468.5a23.053,23.053,0,0,1-2.952-.144v4c.936-.072,1.836-.108,2.952-.108h4.644v1.152H468.18a29.02,29.02,0,0,1-3.456-.144v4.1a10.833,10.833,0,0,1,1.116-.036h.72c.72-.036,1.3-.036,1.62-.036h4.968Zm4.968-17.316c-.18.5-.36.972-.648,1.62h-3.42a10.637,10.637,0,0,0-.756-1.62Zm41.184.216a22.223,22.223,0,0,1-2.412,6.732A55.79,55.79,0,0,1,515.88-21.1h5.364a45.229,45.229,0,0,1,4.716.216v-5.436a21.684,21.684,0,0,1-3.564.18L524.52-27.9a26.281,26.281,0,0,0-4.572-3.348l-3.456,3.2a21.725,21.725,0,0,1,2.88,1.908h-3.636v-1.692a18.292,18.292,0,0,1,.18-2.592h-5.868a35.75,35.75,0,0,1,.216,4.284H500.076c-1.908,0-3.42-.072-4.9-.18a46.46,46.46,0,0,1,.216,4.752,75.45,75.45,0,0,1-1.044,14.616,16.7,16.7,0,0,1-2.376,5.9A24.461,24.461,0,0,1,496.3,3.42a21.712,21.712,0,0,0,3.348-8.46,23.2,23.2,0,0,1,.828,3.96c.576.036.936.036,1.3.036a17.819,17.819,0,0,0,3.744-.4,21.345,21.345,0,0,1,2.664,4.32,33.173,33.173,0,0,0,7.2-5.364c2.484,3.564,4.716,5.328,6.768,5.328,2.2,0,3.6-2.34,4.536-7.74a19.3,19.3,0,0,1-4.14-3.24,17.525,17.525,0,0,1-1.008,4.644,10.841,10.841,0,0,1-2.484-3.276,44.563,44.563,0,0,0,4.824-9,16.873,16.873,0,0,1,.684-1.728Zm-18.54,2.088c.036-1.188.036-1.764.036-3.744h9.684c.4,6.336,1.008,9.72,2.448,13.824A26.451,26.451,0,0,1,508-3.384c.612-1.332.972-3.852,1.116-7.488.216-5.58.216-5.58.288-6.588a19.822,19.822,0,0,1-2.376.108Zm3.168,4.9c-.108,3.564-.216,4.932-.54,5.652-.252.576-.54.72-1.4.72A12.363,12.363,0,0,1,499.86-6.3c.288-1.908.5-3.708.684-6.156Zm30.564-16.668a29.631,29.631,0,0,1-.54,3.852,77.865,77.865,0,0,0-1.368,13.86A76.059,76.059,0,0,0,533.52-.036a14.469,14.469,0,0,1,.18,1.908l6.192-.288a10.074,10.074,0,0,1-.108-1.764,35.523,35.523,0,0,1,1.4-10.08l-2.772-.936a67.681,67.681,0,0,1,2.736-17.388Zm9.432,9.36c.5.036.756.036,1.044.072a59.4,59.4,0,0,0,6.192.288c2.484,0,5.112-.144,7.6-.4,1.98-.216,2.34-.252,2.664-.252l-.252-6.156a46.7,46.7,0,0,1-10.728.9,30.07,30.07,0,0,1-6.408-.54Zm2.124,4.788c-.972,1.4-1.188,1.764-1.692,2.592a11.282,11.282,0,0,0-1.728,5.616,6.669,6.669,0,0,0,3.312,5.724C547.812,0,550.044.468,553.392.468A44.083,44.083,0,0,0,559.62,0c2.124-.324,2.124-.324,3.06-.432L562.32-6.8a26.755,26.755,0,0,1-8.964,1.476c-3.06,0-4.68-.9-4.68-2.556,0-1.3.756-2.844,2.412-4.968ZM582.336-4.9A48.381,48.381,0,0,0,592.6-16.56a66.637,66.637,0,0,1,4.572,14.076l5.256-2.736A79.317,79.317,0,0,0,597.276-19.3L593.1-17.352a66.714,66.714,0,0,0,3.384-6.156c1.08-2.124,1.08-2.124,1.62-3.168l-5.688-2.232a24.26,24.26,0,0,1-2.052,5.292,45.18,45.18,0,0,1-8.028,11.448v-6.8c0-1.368.072-2.484.18-3.708h-5.868a34.2,34.2,0,0,1,.18,3.924V-7.38a43.486,43.486,0,0,1-9.072,5.22,19.525,19.525,0,0,1,3.636,4.824,58.564,58.564,0,0,0,5.472-3.42c.36,2.916,1.872,3.6,7.956,3.6,4.14,0,6.48-.288,7.668-.972C594.4.792,595.08-1.4,595.548-7.92a22.088,22.088,0,0,1-5.292-1.836,23.772,23.772,0,0,1-.576,6.192c-.4,1.116-1.116,1.368-3.96,1.368-2.808,0-3.384-.144-3.384-.9Zm-5.9-21.672a45.358,45.358,0,0,1,10.44,5.256l3.2-4.9a59.1,59.1,0,0,0-10.3-4.644Zm-5.76,6.516A41.955,41.955,0,0,1,567.864-7.6l4.968,2.376c1.476-3.96,2.2-7.416,2.844-13.68Zm40.392,7.812a33.179,33.179,0,0,1-4.356-.18v4.9a36.469,36.469,0,0,1,4.356-.216h2.772c-.972,1.116-1.548,1.728-3.132,3.276,3.348.72,4.284.936,8.064,1.908a34.824,34.824,0,0,1-9.252.972c-.468,0-1.224,0-2.448-.036A19.092,19.092,0,0,1,609.12,3.2c7.668-.36,12.456-1.368,16.668-3.564a87.738,87.738,0,0,1,9.36,3.888l3.276-4.464a86.7,86.7,0,0,0-8.28-2.88,15.309,15.309,0,0,0,2.52-3.924h2.376a35.818,35.818,0,0,1,4.32.216v-4.9a30.92,30.92,0,0,1-4.32.18H623.124c.18-.324.18-.324.288-.54.144-.216.288-.54.5-.9h9.18a36.339,36.339,0,0,1,4.068.144c-.072-.936-.108-1.944-.108-3.924v-2.124a36.166,36.166,0,0,1,.144-3.96,41.283,41.283,0,0,1-4.176.144h-3.708v-1.4h5.8c1.692,0,2.988.072,4.32.18v-5a38.563,38.563,0,0,1-4.824.216h-23a42.745,42.745,0,0,1-4.824-.216v5c1.332-.108,2.664-.18,4.356-.18h5.58v1.4h-3.708c-1.8,0-2.916-.036-4.1-.144a39.586,39.586,0,0,1,.144,4v2.16a37.375,37.375,0,0,1-.144,3.852c1.224-.108,2.34-.144,4.176-.144h4.86c-.36.72-.468.864-.792,1.44Zm15.408,4.5a8.971,8.971,0,0,1-1.944,2.34c-1.224-.36-1.224-.36-5.508-1.3.468-.5.612-.648.936-1.044ZM621.828-24.8H624.2v1.4h-2.376Zm-5.112,5.04v2.484h-2.34v-2.484Zm5.112,0H624.2v2.484h-2.376Zm7.488,0h2.448v2.484h-2.448Zm23.256-10.548a24.044,24.044,0,0,1-.54,4.284,12.373,12.373,0,0,0-.324,1.512c-.72.036-.9.036-1.3.036a29.43,29.43,0,0,1-5.256-.36v5.76h1.4c.828.036.828.036,1.656.036h2.016a48.931,48.931,0,0,1-6.66,13.608l5.868,3.2a14.56,14.56,0,0,1,.684-1.4c1.4-2.808,1.728-3.456,2.484-5.112a74.015,74.015,0,0,0,3.924-10.44c.9-.072,2.88-.252,3.852-.36,1.8-.216,1.8-.216,2.664-.288l-.108-5.832a27.709,27.709,0,0,1-5,.864c.18-.828.252-1.152.432-2.016a15.734,15.734,0,0,1,.684-2.88Zm24.948,8.784a60.063,60.063,0,0,0-10.836-4.86L663.7-21.42a50.935,50.935,0,0,1,11.2,5.184ZM677.2-5.04c-1.08-.864-1.656-1.332-1.764-1.4a26.366,26.366,0,0,0-5.544-3.2,32.059,32.059,0,0,1-.288-4.176,16.73,16.73,0,0,1,.4-4.068l-5.94-.252c-.144,1.62-.216,2.772-.216,4.248,0,.828.036,1.512.144,2.88a14.735,14.735,0,0,0-2.52-.216c-5,0-8.5,2.916-8.5,7.092a6.287,6.287,0,0,0,1.8,4.464,9.45,9.45,0,0,0,6.8,2.376c2.88,0,5.4-.828,6.8-2.232a5.323,5.323,0,0,0,1.512-3.744A19.281,19.281,0,0,1,674.532.648Zm-13.1-.612a3.663,3.663,0,0,1,.072.792c0,1.512-.936,2.3-2.736,2.3-1.548,0-2.556-.684-2.556-1.728,0-1.116,1.08-1.836,2.772-1.836A6.258,6.258,0,0,1,664.092-5.652Zm22.752-19.692c-2.2,0-3.132-.036-4.428-.144a23.543,23.543,0,0,1,.144,3.024v3.96a16.928,16.928,0,0,1-.18,2.988h5.472v-5.076H709.38v5.076h5.472a24.054,24.054,0,0,1-.18-2.952v-4a22.493,22.493,0,0,1,.144-3.024c-1.224.108-2.268.144-4.5.144h-.72a40.276,40.276,0,0,0,2.016-3.816L706.1-30.348a25.661,25.661,0,0,1-2.232,5h-2.124a30.129,30.129,0,0,0-2.124-5.148l-5.472.972a22.034,22.034,0,0,1,1.872,4.176h-2.412a37.866,37.866,0,0,0-2.736-4.788l-5.292,1.08a25.757,25.757,0,0,1,2.16,3.708Zm14.9,19.332h7.992a47.023,47.023,0,0,1,5.148.216v-5.472a46.429,46.429,0,0,1-5.076.252h-6.66a59.642,59.642,0,0,0,5.04-4.284c.54-.5.684-.648,1.08-.972l-2.628-2.988a17.811,17.811,0,0,1-2.844.144H693.036a38.27,38.27,0,0,1-3.852-.144v4.86A36.6,36.6,0,0,1,693-14.544h7.452A13.14,13.14,0,0,1,698-12.708h-1.98a11.116,11.116,0,0,1,.108,1.692h-8.856a39.932,39.932,0,0,1-4.9-.252V-5.8a45.168,45.168,0,0,1,4.968-.216h8.784v3.42c0,.648-.252.756-1.692.756-1.008,0-2.376-.108-4.356-.288a21.15,21.15,0,0,1,1.584,5.292c1.692.072,2.664.108,3.276.108,5.58,0,6.8-.792,6.8-4.284ZM751.932-26.1a33.882,33.882,0,0,1,.144-3.888,25.042,25.042,0,0,1-3.456.144h-7.74a41.18,41.18,0,0,1-4.464-.216v5.04c1.008-.108,1.4-.108,2.664-.144l-2.2,2.124a23.163,23.163,0,0,1,4.248,3.24,28.154,28.154,0,0,1-4.788,1.188l.864,2.664-1.728-.288a10.2,10.2,0,0,0,.144-1.944v-8.028c0-2.268.036-3.06.108-3.852a24.813,24.813,0,0,1-3.78.18h-7.524a37.76,37.76,0,0,1-4.356-.216v5.076a16.976,16.976,0,0,1,3.168-.18l-2.412,2.16A21.759,21.759,0,0,1,725-19.872,33.477,33.477,0,0,1,719.64-18.5l1.584,4.932a12.223,12.223,0,0,1,1.836-.72c1.4-.5,3.132-1.152,4.536-1.728a13.324,13.324,0,0,1,.324,2.124c1.26.036,1.872.036,2.628.036a15.718,15.718,0,0,0,2.124-.108,7.049,7.049,0,0,1-.684,1.08H727.2A36.518,36.518,0,0,1,723.24-13c.072,1.152.108,1.836.108,4.248V-1.44a35.233,35.233,0,0,1-.18,4.608h5.508V1.8h15.048V3.168h5.544a34.214,34.214,0,0,1-.18-4.608V-8.82a29.185,29.185,0,0,1,.18-4.176,36.547,36.547,0,0,1-4,.108h-7.488c.468-.648.468-.648.72-1.044.576-.216.756-.288,1.512-.576a35.362,35.362,0,0,0,3.492-1.4,16.358,16.358,0,0,1,.324,2.052c.828,0,2.016.036,2.484.036,2.844,0,4.032-.216,4.752-.9.648-.576.864-1.368.864-3.42Zm-23.04,3.276a23.093,23.093,0,0,0-3.348-2.376h5.112v6.048c0,.576-.108.648-.972.684l-.036-3.2c-1.8.756-2.448,1.044-3.528,1.4Zm15.84.072a23.634,23.634,0,0,0-3.42-2.412h5.544v6.048c0,.612-.108.684-1.044.72v-3.276c-1.944.828-2.52,1.08-3.672,1.476ZM728.676-8.928H743.76v1.4H728.676Zm0,5.148H743.76V-2.3H728.676Zm61.2-1.764-3.024-1.548c1.332.036,1.8.072,2.124.108a15.852,15.852,0,0,1-.108-2.088v-3.42a19.469,19.469,0,0,1,.108-2.268c-.756.072-1.944.108-3.456.108H772.236c-1.368,0-2.268-.036-3.24-.108a16.7,16.7,0,0,1,.108,2.268v3.24A14.639,14.639,0,0,1,769-6.984a26.9,26.9,0,0,1,2.916-.108H773.6c-2.124,2.412-4.824,4.068-9.5,5.832a18.972,18.972,0,0,1,3.24,4.536c4.068-2.124,5.9-3.456,8.064-5.94C775.332-1.62,775.3-1.08,775.3-.72V.756a13.6,13.6,0,0,1-.18,2.664h5.652a12.646,12.646,0,0,1-.18-2.412V-.252A14.651,14.651,0,0,0,780.48-2.2c2.16,2.412,4.356,3.852,8.424,5.4A35.961,35.961,0,0,1,791.5-1.908a19.733,19.733,0,0,1-4.284-1.224,12.87,12.87,0,0,0,1.836-1.656c.468-.432.468-.432.54-.468Zm-5-1.548A17.714,17.714,0,0,1,782.964-5.4a9.935,9.935,0,0,1-1.98-1.692Zm-10.548-4.392h9.252V-10.3h-9.252ZM760.212-24.192v5.652a12.216,12.216,0,0,1-2.16-.144v5.04a19.756,19.756,0,0,1,2.16-.144V-7.02a14.248,14.248,0,0,1-3.456.9L757.872-.4c.5-.252,1.008-.468,1.908-.828a83.107,83.107,0,0,0,8.46-3.708v-5.184c-1.44.612-1.836.792-2.7,1.152v-4.824c.792.036.936.072,1.548.108v-4.968a10.81,10.81,0,0,1-1.548.108v-5.652h.252a8.136,8.136,0,0,1,1.764.18V-29.3a28.161,28.161,0,0,1-3.312.18h-3.528a28.074,28.074,0,0,1-3.2-.18v5.256a14.794,14.794,0,0,1,2.34-.144Zm8.136.648a24.114,24.114,0,0,1-.072,2.664c1.008-.072,1.332-.072,2.844-.072h15.84c1.584,0,1.872,0,2.844.072-.072-.864-.108-1.872-.108-2.664v-3.528a26.824,26.824,0,0,1,.144-2.736c-1.44.108-2.412.144-2.916.144h-15.84a24.255,24.255,0,0,1-2.844-.144,21.084,21.084,0,0,1,.108,2.736Zm5.868-.792h-1.584V-25.92h1.584Zm5.436,0h-1.584V-25.92h1.584Zm5.4,0h-1.584V-25.92h1.584Zm-17.28,8.856a24,24,0,0,1,3.528-.18h15.984a24.992,24.992,0,0,1,3.492.18v-4.644a24.3,24.3,0,0,1-3.528.18H771.3a23.707,23.707,0,0,1-3.528-.18ZM816.048-5.292V.216c0,2.3,1.08,2.88,5.4,2.88,3.42,0,4.9-.252,5.8-.936,1.116-.9,1.512-2.268,1.692-5.76a17.342,17.342,0,0,1-4.9-1.584v.648c0,2.628,0,2.628-1.476,2.628-1.152,0-1.368-.072-1.368-.54V-5.292h2.736a24.322,24.322,0,0,1,3.1.072,25.561,25.561,0,0,1-.144-2.988v-6.336a21.743,21.743,0,0,1,.144-2.808c-.828.072-1.512.072-3.348.072H809.928c-1.944,0-2.376,0-3.384-.072.072.828.108,1.584.108,2.88v6.444a27.267,27.267,0,0,1-.072,2.808c1.62-.072,1.62-.072,3.024-.072a3.635,3.635,0,0,1-1.368,2.412c-1.26,1.008-3.636,1.656-6.8,1.836A16.346,16.346,0,0,1,804.1,3.672c5.8-1.008,8.676-2.844,9.972-6.408a14.8,14.8,0,0,0,.612-2.556Zm-4.212-8.64h9.792v1.116h-9.792Zm0,4.14h9.792v1.116h-9.792Zm-13.824-12.1h-.432a15.59,15.59,0,0,1-2.628-.18v5.328a15.692,15.692,0,0,1,2.592-.18h.468v9.36a24.164,24.164,0,0,1-3.564.972l.936,5.868c.468-.216,1.188-.54,1.836-.792,3.78-1.476,5.544-2.232,8.424-3.528l-.036-5.472c-1.944.828-1.944.828-2.412,1.044V-16.92a16.48,16.48,0,0,1,1.908.108V-21.96a14.792,14.792,0,0,1-1.908.072v-4.32a23.713,23.713,0,0,1,.216-4.068H797.8a24.468,24.468,0,0,1,.216,4.068ZM819.468-28.3v-.5a8.056,8.056,0,0,1,.18-1.872H813.78a11.477,11.477,0,0,1,.18,1.944v.432h-3.528a37.2,37.2,0,0,1-4.176-.18v4.464a25.639,25.639,0,0,1,2.664-.108,14,14,0,0,1,.576,1.584h-.756a17.861,17.861,0,0,1-3.024-.144v4.572a20.847,20.847,0,0,1,3.2-.108h15.768c1.8,0,2.664.036,3.96.144V-22.68a31.5,31.5,0,0,1-3.708.144h-1.152c.252-.612.36-.828.648-1.584,1.512,0,2.2.036,3.348.108v-4.464c-1.116.108-2.556.18-4.14.18Zm-4.644,5.76c-.288-.828-.36-1.044-.576-1.584h4.716a14.318,14.318,0,0,1-.612,1.584Zm20.052,1.368h.54c.5,0,.756,0,1.26.036,1.548.036,1.548.036,3.1.036h1.152c-.144.252-.144.252-.684,1.152-.54.864-1.98,2.952-2.772,3.924a24.718,24.718,0,0,1-3.816,3.744l4.572,4.536a22.867,22.867,0,0,1,3.456-3.636c2.52-2.2,5-3.456,6.84-3.456a1.487,1.487,0,0,1,1.44.9c-1.44.648-1.8.792-2.664,1.224a15.857,15.857,0,0,0-5.184,3.852,6.7,6.7,0,0,0-1.764,4.536A5.788,5.788,0,0,0,843.192.792c1.944,1.152,4.5,1.656,8.568,1.656a71.048,71.048,0,0,0,8.676-.54,23.253,23.253,0,0,1,3.2-.324l-.4-6.48a34.1,34.1,0,0,1-11.52,1.8c-3.492,0-4.824-.54-4.824-1.908a2.484,2.484,0,0,1,.936-1.836,8.169,8.169,0,0,1,2.52-1.512l.324-.144a29.559,29.559,0,0,1-.18,3.816l5.868-.18a22.332,22.332,0,0,1-.144-3.1c0-1.584,0-1.62-.036-2.592A59.541,59.541,0,0,1,865.368-13l-2.2-5.688a15.1,15.1,0,0,1-2.88,1.08c-1.152.36-2.124.684-2.232.72-1.908.648-1.908.648-2.52.864-.72-2.34-2.52-3.492-5.508-3.492a10.623,10.623,0,0,0-4.572,1.08,19.5,19.5,0,0,0,1.728-2.664c3.672-.108,8.172-.36,10.728-.612q1.566-.162,3.24-.324l-.216-5.724a52.767,52.767,0,0,1-9.108,1.152c-1.836.108-1.836.108-2.2.144.036-.072.252-.648.72-1.692a10.461,10.461,0,0,1,.756-1.692l-6.588-.5a13.026,13.026,0,0,1-1.116,4H842.4a35.021,35.021,0,0,1-7.452-.5Zm49.932,10.4a22,22,0,0,1,2.952-.144h1.62l-3.924,1.98a45.54,45.54,0,0,0,3.96,4.824,22.513,22.513,0,0,1-5.472,2.16V-6.48a20.054,20.054,0,0,1,.072-2.376,10.811,10.811,0,0,1-2.2.108h-7.632c-1.188,0-1.8-.036-2.664-.108a21.462,21.462,0,0,1,.144,2.7V-.4c0,1.152-.072,2.34-.18,3.564h5.148V1.692h2.484v.972h4.932a16.353,16.353,0,0,1-.108-2.628V-.648a20.308,20.308,0,0,1,2.232,3.888,28.992,28.992,0,0,0,7.56-3.708A31.418,31.418,0,0,0,902.52,3.24a30.512,30.512,0,0,1,2.376-5.4,24.251,24.251,0,0,1-6.948-2.2,28.664,28.664,0,0,0,4.284-7.452,14.94,14.94,0,0,1,.72-1.692l-2.52-2.448a16.078,16.078,0,0,1-2.376.108h-9.72c2.232-2.376,3.168-4.788,3.312-8.892H894.1v5.076c0,1.3.216,1.836.9,2.16.756.4,1.764.5,4.824.5,4.068,0,4.68-.864,5-7.092a19.124,19.124,0,0,1-4.1-1.62c-.072,3.924-.108,4-1.044,4-.576,0-.72-.072-.72-.432v-5.04a26.615,26.615,0,0,1,.108-2.664,25.569,25.569,0,0,1-2.988.144h-6.7a23.084,23.084,0,0,1-2.844-.144,13.424,13.424,0,0,1,.144,2.124,15.189,15.189,0,0,1-.972,6.3,6.091,6.091,0,0,1-1.944,2.34,13.718,13.718,0,0,1-1.98.072h-7.812a17.648,17.648,0,0,1-2.16-.072v4.068a17.03,17.03,0,0,1,2.16-.072h7.812a16.075,16.075,0,0,1,2.088.072V-18.36a29.815,29.815,0,0,1,3.2,2.52,13.566,13.566,0,0,1-2.268-.144Zm11.268-.144a15.106,15.106,0,0,1-2.556,3.636,20.1,20.1,0,0,1-3.1-3.636ZM876.528-4.86h2.592v2.34h-2.592ZM871.74-25.884c.972-.072,1.836-.108,3.276-.108h5.58c1.548,0,2.2.036,3.276.108V-30.1a26.109,26.109,0,0,1-3.276.144h-5.58a26.109,26.109,0,0,1-3.276-.144Zm-1.08,5.8a21.417,21.417,0,0,1,2.916-.144h8.1a17.212,17.212,0,0,1,2.844.108v-4.788a28.306,28.306,0,0,1-2.916.108h-8.028a16.293,16.293,0,0,1-2.916-.18ZM871.812-9.9a16.075,16.075,0,0,1,2.088-.072h7.812a17.029,17.029,0,0,1,2.16.072v-4.068a14.908,14.908,0,0,1-2.088.072h-7.812a16.725,16.725,0,0,1-2.16-.072Zm52.38-4.86c1.4-.144,3.024-.216,4.608-.216h1.548V-2.412a44.57,44.57,0,0,1-.252,5.724h6.156A46.845,46.845,0,0,1,936-2.412V-14.976h1.656c1.584,0,2.844.072,4.464.216v-5.616a35.716,35.716,0,0,1-4.428.216H936v-5.76a30.187,30.187,0,0,1,.216-4.608h-6.084a31.045,31.045,0,0,1,.216,4.608v5.76h-1.584a40.78,40.78,0,0,1-4.248-.18V-24.8a20.673,20.673,0,0,1-2.952.144h-9.9a16.733,16.733,0,0,1-2.952-.18v4.86a23.784,23.784,0,0,1,2.952-.144h9.9c1.4,0,2.052.036,2.628.072ZM910.008-25.74c.936-.072,1.8-.108,3.312-.108h6.624c1.512,0,2.376.036,3.276.108v-4.212a25.746,25.746,0,0,1-3.276.144H913.32a26.385,26.385,0,0,1-3.312-.144ZM910.08-14.9c.576-.036,1.08-.072,2.16-.072h8.892a15.754,15.754,0,0,1,2.052.072v-4.1a14.6,14.6,0,0,1-2.052.072H912.24a17.96,17.96,0,0,1-2.16-.072Zm0,5.148a16.979,16.979,0,0,1,2.088-.072h8.856a17.03,17.03,0,0,1,2.16.072v-4.1a16.074,16.074,0,0,1-2.088.072H912.24c-1.08,0-1.548-.036-2.16-.072Zm5.04,11.628h3.132v.936h5.256a25.121,25.121,0,0,1-.144-3.24V-6.048c0-1.08.036-1.908.108-2.664a15.841,15.841,0,0,1-2.2.108H912.42a22.627,22.627,0,0,1-2.592-.072,20.506,20.506,0,0,1,.144,2.664v5.9a30.724,30.724,0,0,1-.144,3.42h5.292Zm-.144-6.48h3.312v2.2h-3.312Z" transform="translate(-2.377 31.535)" fill="#b4a481"></path></svg>