<svg xmlns="http://www.w3.org/2000/svg" width="2586.883" height="419.377" viewBox="0 0 2586.883 419.377"><path id="&#x30D1;&#x30B9;_36612" data-name="&#x30D1;&#x30B9; 36612" d="M103.1-3.532,57.143,369.893H1.758L47.71-3.532Zm407.042,0L461.283,395.529,234.664,106.27,202.256,369.893H146.871l48.613-393.74L422.1,264.927,454.995-3.532Zm187.2,51.515L657.669,369.893H602.284L641.949,47.983H552.7l6.288-51.515H789l-6.288,51.515ZM1029.884-3.532,1023.6,47.983H886.464l-11.851,96.742h137.132l-5.8,47.887H868.809L853.33,318.377H990.462l-6.53,51.515H791.657L837.609-3.532Zm172.685,215.977,93.84,157.448H1237.88l-88.519-153.578h-20.074l-18.865,153.578h-55.385L1100.99-3.532h73.282q35.795,0,56.836,6.53a80.579,80.579,0,0,1,36.278,22.251q29.264,29.99,29.265,77.394Q1296.651,189.469,1202.569,212.445ZM1149.844,47.983l-14.511,119.96h25.395q28.055,0,41.841-5.321a53.749,53.749,0,0,0,24.669-18.139q13.544-17.9,13.544-42.083,0-28.3-16.325-41.357t-51.394-13.06ZM1665-3.532,1452.405,386.823,1334.864-3.532h56.11L1468.368,256.7,1605.258-3.532Zm104,0-45.953,373.424h-55.385L1713.609-3.532Zm282,0-6.289,51.515H1907.577l-11.851,96.742h137.132l-5.8,47.887H1889.922l-15.479,125.765h137.132l-6.53,51.515H1812.77L1858.722-3.532Zm537.644,0L2393.222,385.855l-74.008-261.2-130.36,265.557L2074.215-3.532h56.594l69.9,255.157L2332.033-16.35l75.217,261.2L2529.387-3.532Z" transform="translate(-1.758 23.848)"></path></svg>