<svg xmlns="http://www.w3.org/2000/svg" width="6574.645" height="1082.277" viewBox="0 0 6574.645 1082.277"><path id="&#x30D1;&#x30B9;_36596" data-name="&#x30D1;&#x30B9; 36596" d="M280.823,805.475,160,1038.769H-.029l548.851-1063,342.55,1063H737.77L665.79,805.475Zm63.626-127.251h280.21L517.973,325.391ZM1129.807,46.467h183.807q86.762,0,140.748,18.638,52.7,18.638,89.333,62.983,58.484,70.052,58.484,169.026,0,150.388-144.6,229.438,175.453,43.7,175.453,219.8,0,72.623-30.849,136.891-29.563,63.625-83.549,102.829a237.1,237.1,0,0,1-94.474,41.774q-26.993,5.141-64.911,8.033t-89.976,2.892H1007.7Zm129.822,136.891-35.99,296.919h41.774q188.949,0,188.949-176.1,0-120.824-143.961-120.824Zm-50.772,414.53-37.276,303.989h98.973q110.541,0,151.673-27.635,62.983-41.774,62.983-138.819,0-36.633-10.6-62.662a98.605,98.605,0,0,0-33.1-42.738q-22.494-16.71-58.163-24.422t-85.8-7.712Zm1604.136-74.551q0,169.668-89.976,307.845-71.338,108.613-186.378,167.74t-254.5,59.127q-223.011,0-363.758-142.033-140.748-142.676-140.748-368.9,0-225.582,149.1-372.756,149.745-147.817,377.9-147.817t368.257,136.891Q2812.993,299.684,2812.993,523.337Zm-147.817-1.285q0-162.6-96.4-260.286-96.4-97.045-259-97.045-163.242,0-274.425,109.256-109.9,109.256-109.9,273.14,0,161.956,102.186,268,102.186,105.4,258.358,105.4,162.6,0,270.569-113.755Q2665.176,694.291,2665.176,522.052ZM3798.225,46.467l-71.98,587.412q-24.422,194.09-91.261,284.066-107.328,140.1-298.2,140.1-152.959,0-255.145-92.546Q2980.09,871.671,2980.09,732.852q0-29.563,2.25-62.34t6.748-69.41l68.125-554.635h146.532L3133.691,619.74q-3.214,25.707-4.82,47.559t-1.607,40.489q0,98.973,55.271,156.172,55.913,57.2,151.673,57.2,111.827,0,169.668-71.98,57.842-72.623,78.407-235.865l69.41-566.846ZM4295.02,183.358l-105.4,855.411H4042.445l105.4-855.411h-237.15L3927.4,46.467H4538.6l-16.71,136.891ZM5814.963,46.467l-71.98,587.412q-24.421,194.09-91.26,284.066-107.328,140.1-298.205,140.1-152.959,0-255.145-92.546-101.544-93.832-101.544-232.651,0-29.563,2.25-62.34t6.748-69.41l68.125-554.635h146.532L5150.43,619.74q-3.213,25.707-4.82,47.559T5144,707.787q0,98.973,55.271,156.172,55.913,57.2,151.673,57.2,111.826,0,169.667-71.98,57.842-72.623,78.407-235.865l69.41-566.846Zm759.651,126.608-98.331,93.832q-70.052-102.829-160.67-102.829-65.554,0-108.614,40.489T6163.94,306.11q0,48.844,29.563,84.191,14.782,16.71,43.381,37.918t71.659,46.916Q6436.438,549.687,6479.5,610.1q43.7,61.055,43.7,160.028,0,128.537-84.834,208.229-83.55,79.693-220.44,79.693-110.541,0-187.021-47.559-38.561-23.779-71.98-62.019T5894.656,855.6l111.827-75.836q45.63,80.335,89.333,110.541t113.755,30.206q77.765,0,121.788-41.132t44.024-116.968q0-52.057-32.134-88.048-16.067-18.638-47.88-41.774t-80.656-52.057q-111.827-66.2-156.172-125.966-42.417-59.769-42.417-149.745,0-120.182,83.549-199.232Q6183.22,25.9,6310.472,25.9q82.906,0,141.39,33.419Q6511.632,92.74,6574.615,173.075Z" transform="translate(0.029 24.229)"></path></svg>