<svg xmlns="http://www.w3.org/2000/svg" xmlns:xlink="http://www.w3.org/1999/xlink" width="1920" height="5526" viewBox="0 0 1920 5526"><defs><clipPath id="a"><rect width="10782.713" height="5461.098" fill="none"></rect></clipPath><clipPath id="c"><rect width="1157.848" height="1172.817" fill="none"></rect></clipPath><clipPath id="d"><rect width="845.472" height="856.401" fill="none"></rect></clipPath><clipPath id="g"><path d="M0,0,499.592,2.771l2.293,410.652L2.293,410.652Z" fill="none"></path></clipPath><clipPath id="h"><path d="M0,0,376.974,2.091l2.293,410.652L2.293,410.652Z" fill="none"></path></clipPath><clipPath id="i"><path d="M0,0,71.53.4l2.293,410.652-71.53-.4Z" fill="none"></path></clipPath><clipPath id="k"><rect width="1920" height="5526"></rect></clipPath></defs><g id="j" clip-path="url(#k)"><rect width="1920" height="5526" fill="#fff"></rect><g transform="matrix(0.995, -0.105, 0.105, 0.995, -4687.242, 229.434)"><g clip-path="url(#a)"><rect width="10782.713" height="5461.098" fill="#203341"></rect><g clip-path="url(#a)"><g transform="translate(4816.502 2144.136)" opacity="0.5"><g clip-path="url(#c)"><path d="M2807.7,1958.054H1923.638L1786.752,1819.4V923.9c53.456-54.15,83.429-84.51,136.886-138.66H2807.7c53.457,54.15,83.428,84.51,136.886,138.66V1819.4Z" transform="translate(-1786.747 -785.237)" fill="#2b6566"></path></g></g><g transform="translate(4968.62 2302.344)" opacity="0.49"><g clip-path="url(#d)"><path d="M2575.731,1699.576H1956.092c-62.356,0-112.908-51.2-112.908-114.369V957.552c0-63.163,50.552-114.369,112.908-114.369h619.639c62.357,0,112.908,51.206,112.908,114.369v627.655c0,63.165-50.552,114.369-112.908,114.369" transform="translate(-1843.175 -843.175)" fill="#23beb0"></path></g></g><path d="M41.885-2.5H803.571a44.35,44.35,0,0,1,44.385,44.385V814.508a44.35,44.35,0,0,1-44.385,44.385H41.885A44.35,44.35,0,0,1-2.5,814.508V41.885A44.35,44.35,0,0,1,41.885-2.5ZM803.571,853.893a39.35,39.35,0,0,0,39.385-39.385V41.885A39.35,39.35,0,0,0,803.571,2.5H41.885A39.35,39.35,0,0,0,2.5,41.885V814.508a39.35,39.35,0,0,0,39.385,39.385Z" transform="translate(4968.628 2302.351)" fill="#55d7b3"></path><path d="M1887.859,859.561c0,21.435-17.153,38.809-38.314,38.809s-38.314-17.375-38.314-38.809,17.152-38.809,38.314-38.809,38.314,17.374,38.314,38.809" transform="translate(3071.264 1420.351)" fill="#203341"></path><path d="M2233.444,859.561c0,21.435-17.155,38.809-38.313,38.809s-38.314-17.375-38.314-38.809,17.152-38.809,38.314-38.809,38.313,17.374,38.313,38.809" transform="translate(3657.267 1420.351)" fill="#203341"></path><path d="M1887.859,1197.389c0,21.435-17.153,38.809-38.314,38.809s-38.314-17.374-38.314-38.809,17.152-38.81,38.314-38.81,38.314,17.375,38.314,38.81" transform="translate(3071.264 2004.979)" fill="#203341"></path><path d="M2233.444,1197.389c0,21.435-17.155,38.809-38.313,38.809s-38.314-17.374-38.314-38.809,17.152-38.81,38.314-38.81,38.313,17.375,38.313,38.81" transform="translate(3657.267 2004.979)" fill="#203341"></path><path d="M2263.677,877.7h-48.919V843.66h48.919a8.5,8.5,0,0,1,8.439,8.549v16.943a8.5,8.5,0,0,1-8.439,8.55" transform="translate(3755.517 1459.995)" fill="#55d7b3"></path><path d="M2263.677,902.719h-48.919V868.677h48.919a8.5,8.5,0,0,1,8.439,8.549v16.943a8.5,8.5,0,0,1-8.439,8.549" transform="translate(3755.517 1503.288)" fill="#55d7b3"></path><path d="M2263.677,927.738h-48.919V893.694h48.919a8.5,8.5,0,0,1,8.439,8.552v16.943a8.5,8.5,0,0,1-8.439,8.549" transform="translate(3755.517 1546.581)" fill="#55d7b3"></path><path d="M2263.677,952.757h-48.919V918.712h48.919a8.5,8.5,0,0,1,8.439,8.552v16.943a8.5,8.5,0,0,1-8.439,8.549" transform="translate(3755.517 1589.876)" fill="#55d7b3"></path><path d="M2263.677,977.773h-48.919V943.731h48.919a8.5,8.5,0,0,1,8.439,8.549v16.943a8.5,8.5,0,0,1-8.439,8.549" transform="translate(3755.517 1633.172)" fill="#55d7b3"></path><path d="M2263.677,1002.791h-48.919V968.749h48.919a8.5,8.5,0,0,1,8.439,8.549v16.943a8.5,8.5,0,0,1-8.439,8.549" transform="translate(3755.517 1676.467)" fill="#55d7b3"></path><path d="M2263.677,1027.809h-48.919V993.767h48.919a8.5,8.5,0,0,1,8.439,8.549v16.943a8.5,8.5,0,0,1-8.439,8.549" transform="translate(3755.517 1719.762)" fill="#55d7b3"></path><path d="M2263.677,1052.827h-48.919v-34.042h48.919a8.5,8.5,0,0,1,8.439,8.55v16.943a8.5,8.5,0,0,1-8.439,8.549" transform="translate(3755.517 1763.057)" fill="#55d7b3"></path><path d="M2263.677,1077.844h-48.919V1043.8h48.919a8.5,8.5,0,0,1,8.439,8.549v16.943a8.5,8.5,0,0,1-8.439,8.55" transform="translate(3755.517 1806.35)" fill="#55d7b3"></path><path d="M2263.677,1102.862h-48.919V1068.82h48.919a8.5,8.5,0,0,1,8.439,8.55v16.943a8.5,8.5,0,0,1-8.439,8.549" transform="translate(3755.517 1849.645)" fill="#55d7b3"></path><path d="M2263.677,1127.88h-48.919v-34.042h48.919a8.5,8.5,0,0,1,8.439,8.549v16.943a8.5,8.5,0,0,1-8.439,8.55" transform="translate(3755.517 1892.939)" fill="#55d7b3"></path><path d="M2263.677,1152.9h-48.919v-34.042h48.919a8.5,8.5,0,0,1,8.439,8.55v16.943a8.5,8.5,0,0,1-8.439,8.549" transform="translate(3755.517 1936.234)" fill="#55d7b3"></path><path d="M2263.677,1177.916h-48.919v-34.041h48.919a8.5,8.5,0,0,1,8.439,8.549v16.943a8.5,8.5,0,0,1-8.439,8.549" transform="translate(3755.517 1979.529)" fill="#55d7b3"></path><path d="M2188.411,2094.866h-2v-992.95l-96.928-98.182V436.93l.288-.292L2337.5,185.7V13.4h2V186.524l-.288.292L2091.482,437.751v565.162l96.928,98.182Z" transform="translate(3544.784 23.181)" fill="#55d7b3"></path><path d="M2215.512,26.785a20.273,20.273,0,1,0-20.272,20.531,20.406,20.406,0,0,0,20.272-20.531" transform="translate(3688.048 10.818)" fill="#55d7b3"></path><path d="M2193.485,2094.866h-2V1304.053l-145.392-147.272V272l.288-.292,120.871-122.435V13.4h2V150.1l-.288.292L2048.094,272.823V1155.96l145.392,147.272Z" transform="translate(3471.212 23.181)" fill="#55d7b3"></path><path d="M2125.061,26.785a20.272,20.272,0,1,0-20.271,20.531,20.407,20.407,0,0,0,20.271-20.531" transform="translate(3534.675 10.818)" fill="#55d7b3"></path><path d="M2152.064,1807.38h-2V775.505l.288-.292L2298.3,625.347V165.908h2V626.167l-.288.292L2152.064,776.326Z" transform="translate(3647.513 287.112)" fill="#55d7b3"></path><path d="M2239.078,179.3a20.272,20.272,0,1,0-20.272,20.534,20.407,20.407,0,0,0,20.272-20.534" transform="translate(3728.011 274.751)" fill="#55d7b3"></path><rect width="5.391" height="81.081" transform="translate(5750.637 778.75)" fill="#23beb0"></rect><rect width="5.391" height="81.081" transform="translate(5793.397 778.75)" fill="#23beb0"></rect><rect width="5.391" height="81.081" transform="translate(5836.16 778.75)" fill="#23beb0"></rect><rect width="5.391" height="81.083" transform="translate(5750.637 670.462)" fill="#23beb0"></rect><rect width="5.391" height="81.083" transform="translate(5793.397 670.462)" fill="#23beb0"></rect><rect width="5.391" height="81.083" transform="translate(5836.16 670.462)" fill="#23beb0"></rect><rect width="5.391" height="81.083" transform="translate(5750.637 562.174)" fill="#23beb0"></rect><rect width="5.391" height="81.083" transform="translate(5793.397 562.174)" fill="#23beb0"></rect><rect width="5.391" height="81.083" transform="translate(5836.16 562.174)" fill="#23beb0"></rect><path d="M2226.946,2090.72h-2V1499.626l-238.358-241.441V200.131l.288-.292,64.521-65.356V13.4h2V135.3l-.289.292-64.521,65.356V1257.364l238.358,241.44Z" transform="translate(3370.312 23.181)" fill="#55d7b3"></path><path d="M2044.652,26.785a20.272,20.272,0,1,0-20.272,20.531,20.406,20.406,0,0,0,20.272-20.531" transform="translate(3398.328 10.818)" fill="#55d7b3"></path><path d="M2158.586,1232.668h-2V677.1L1989.752,508.109l1.423-1.405,167.411,169.578Z" transform="translate(3375.185 878.092)" fill="#55d7b3"></path><path d="M2017.812,506.166a20.09,20.09,0,0,0-28.666,0,20.727,20.727,0,0,0,0,29.039,20.1,20.1,0,0,0,28.666,0,20.725,20.725,0,0,0,0-29.039" transform="translate(3362.885 865.539)" fill="#55d7b3"></path><path d="M2100.531,1193.708h-2V659.461L1980.9,540.308l1.423-1.405L2100.531,658.64Z" transform="translate(3360.174 933.813)" fill="#55d7b3"></path><path d="M2008.96,538.365a20.09,20.09,0,0,0-28.666,0,20.723,20.723,0,0,0,0,29.036,20.089,20.089,0,0,0,28.666,0,20.722,20.722,0,0,0,0-29.036" transform="translate(3347.875 921.261)" fill="#55d7b3"></path><path d="M2048.532,1142.46h-2V643.742l-72.877-73.82,1.423-1.405,73.454,74.4Z" transform="translate(3347.89 985.061)" fill="#55d7b3"></path><path d="M2001.715,567.979a20.09,20.09,0,0,0-28.666,0,20.723,20.723,0,0,0,0,29.036,20.09,20.09,0,0,0,28.666,0,20.722,20.722,0,0,0,0-29.036" transform="translate(3335.591 972.509)" fill="#55d7b3"></path><path d="M2025.551,1707.48h-2V1308.248l-77.279-78.279V242.721h2v986.426l77.279,78.279Z" transform="translate(3301.945 420.041)" fill="#55d7b3"></path><path d="M1980.292,256.111a20.272,20.272,0,1,0-20.272,20.534,20.407,20.407,0,0,0,20.272-20.534" transform="translate(3289.195 407.677)" fill="#55d7b3"></path><path d="M2038.71,1188.6h-2V505.018L1925.1,391.968V13.4h2V391.147L2038.71,504.2Z" transform="translate(3266.052 23.181)" fill="#55d7b3"></path><path d="M2000.526,456.421a20.272,20.272,0,1,1-20.271-20.531,20.406,20.406,0,0,1,20.271,20.531" transform="translate(3323.505 754.329)" fill="#55d7b3"></path><path d="M1959.126,26.785a20.272,20.272,0,1,0-20.272,20.531,20.406,20.406,0,0,0,20.272-20.531" transform="translate(3253.302 10.818)" fill="#55d7b3"></path><path d="M2034.653,1758.869h-2V1501.756L1904,1371.443V733.487l.288-.292,51.016-51.675V213.026h2V682.34l-.288.292L1906,734.308v636.314l128.648,130.313Z" transform="translate(3230.274 368.652)" fill="#55d7b3"></path><path d="M1957.057,226.416a20.272,20.272,0,1,0-20.272,20.534,20.406,20.406,0,0,0,20.272-20.534" transform="translate(3249.795 356.289)" fill="#55d7b3"></path><path d="M1938.435,2074.209h-2V1342.7l-97.875-99.141V13.4h2V1242.74l97.875,99.141Z" transform="translate(3119.302 23.182)" fill="#55d7b3"></path><path d="M1872.581,26.785a20.272,20.272,0,1,0-20.271,20.531,20.406,20.406,0,0,0,20.271-20.531" transform="translate(3106.552 10.818)" fill="#55d7b3"></path><path d="M1988.82,1414.961h-2V1207.59l-99.077-100.359V411.754h2V1106.41l99.077,100.359Z" transform="translate(3202.699 712.56)" fill="#55d7b3"></path><path d="M1921.763,425.144a20.272,20.272,0,1,0-20.272,20.534,20.406,20.406,0,0,0,20.272-20.534" transform="translate(3189.948 700.197)" fill="#55d7b3"></path><path d="M1,178.209H-1V0H1Z" transform="translate(5124.176 1949.312)" fill="#55d7b3"></path><path d="M1933.906,727.281a20.272,20.272,0,1,0-20.271,20.534,20.406,20.406,0,0,0,20.271-20.534" transform="translate(3210.539 1223.06)" fill="#55d7b3"></path><path d="M1922.975,1897.69h-2v-664l-110.49-111.92V115.4h2V1120.948l110.49,111.92Z" transform="translate(3071.695 199.701)" fill="#55d7b3"></path><path d="M1844.505,128.788a20.272,20.272,0,1,0-20.271,20.531,20.406,20.406,0,0,0,20.271-20.531" transform="translate(3058.944 187.339)" fill="#55d7b3"></path><path d="M2144.831,771.031v49.552h33.607V771.031a8.5,8.5,0,0,0-8.44-8.549h-16.727a8.5,8.5,0,0,0-8.439,8.549" transform="translate(3636.943 1319.512)" fill="#55d7b3"></path><path d="M2119.813,771.031v49.552h33.607V771.031a8.5,8.5,0,0,0-8.44-8.549h-16.726a8.5,8.5,0,0,0-8.441,8.549" transform="translate(3594.521 1319.512)" fill="#55d7b3"></path><path d="M2094.795,771.031v49.552h33.61V771.031a8.5,8.5,0,0,0-8.442-8.549h-16.725a8.5,8.5,0,0,0-8.443,8.549" transform="translate(3552.098 1319.512)" fill="#55d7b3"></path><path d="M2069.777,771.031v49.552h33.61V771.031a8.5,8.5,0,0,0-8.443-8.549h-16.725a8.5,8.5,0,0,0-8.442,8.549" transform="translate(3509.676 1319.512)" fill="#55d7b3"></path><path d="M2044.759,771.031v49.552h33.61V771.031a8.5,8.5,0,0,0-8.444-8.549H2053.2a8.5,8.5,0,0,0-8.44,8.549" transform="translate(3467.253 1319.512)" fill="#55d7b3"></path><path d="M2019.741,771.031v49.552h33.607V771.031a8.5,8.5,0,0,0-8.438-8.549h-16.73a8.5,8.5,0,0,0-8.44,8.549" transform="translate(3424.831 1319.512)" fill="#55d7b3"></path><path d="M1994.724,771.031v49.552h33.607V771.031a8.5,8.5,0,0,0-8.44-8.549h-16.727a8.5,8.5,0,0,0-8.44,8.549" transform="translate(3382.41 1319.512)" fill="#55d7b3"></path><path d="M1969.706,771.031v49.552h33.61V771.031a8.5,8.5,0,0,0-8.443-8.549h-16.727a8.5,8.5,0,0,0-8.44,8.549" transform="translate(3339.987 1319.512)" fill="#55d7b3"></path><path d="M1944.688,771.031v49.552H1978.3V771.031a8.5,8.5,0,0,0-8.44-8.549h-16.727a8.5,8.5,0,0,0-8.44,8.549" transform="translate(3297.564 1319.512)" fill="#55d7b3"></path><path d="M1919.67,771.031v49.552h33.607V771.031a8.5,8.5,0,0,0-8.44-8.549H1928.11a8.5,8.5,0,0,0-8.44,8.549" transform="translate(3255.143 1319.512)" fill="#55d7b3"></path><path d="M1894.652,771.031v49.552h33.61V771.031a8.5,8.5,0,0,0-8.442-8.549h-16.727a8.5,8.5,0,0,0-8.44,8.549" transform="translate(3212.72 1319.512)" fill="#55d7b3"></path><path d="M1869.634,771.031v49.552h33.61V771.031a8.5,8.5,0,0,0-8.443-8.549h-16.727a8.5,8.5,0,0,0-8.44,8.549" transform="translate(3170.297 1319.512)" fill="#55d7b3"></path><path d="M1844.616,771.031v49.552h33.607V771.031a8.5,8.5,0,0,0-8.438-8.549h-16.729a8.5,8.5,0,0,0-8.44,8.549" transform="translate(3127.875 1319.512)" fill="#55d7b3"></path><path d="M1893.9,1124.389l-40.6-41.125V959.418l.288-.292,99.921-101.213V441.181l-65.521-66.369V70.153h2V373.991l65.521,66.369V858.734l-.288.292L1855.3,960.239v122.2l40.023,40.541Z" transform="translate(3144.293 121.403)" fill="#55d7b3"></path><path d="M1896.067,454.213a20.717,20.717,0,0,1,0,29.037,20.09,20.09,0,0,1-28.666,0,20.729,20.729,0,0,1,0-29.037,20.09,20.09,0,0,1,28.666,0" transform="translate(3156.45 775.632)" fill="#55d7b3"></path><path d="M1900.187,83.543a20.272,20.272,0,1,0-20.271,20.531,20.406,20.406,0,0,0,20.271-20.531" transform="translate(3153.363 109.04)" fill="#55d7b3"></path><path d="M2339.5,3310.886h-2V3133.48l-248.021-251.23v-566.8l.288-.292,96.64-97.891v-992.95h2v993.771l-.288.292-96.64,97.891V2881.43L2339.5,3132.66Z" transform="translate(3544.784 2118.736)" fill="#55d7b3"></path><path d="M2174.969,2001.111a20.273,20.273,0,1,0,20.274-20.534,20.406,20.406,0,0,0-20.274,20.534" transform="translate(3688.048 3427.485)" fill="#55d7b3"></path><path d="M2169.254,3310.886h-2v-140.98l-121.16-122.728V2162.4l.288-.292,145.1-146.981V1224.315h2v791.633l-.288.292-145.1,146.98v883.138l121.16,122.727Z" transform="translate(3471.212 2118.736)" fill="#55d7b3"></path><path d="M2084.52,2001.111a20.272,20.272,0,1,0,20.272-20.534,20.405,20.405,0,0,0-20.272,20.534" transform="translate(3534.675 3427.485)" fill="#55d7b3"></path><path d="M2300.3,2874.413h-2V2414.975l-148.24-150.159V1232.941h2V2264l148.24,150.159Z" transform="translate(3647.513 2133.664)" fill="#55d7b3"></path><path d="M2198.537,1846.729a20.272,20.272,0,1,0,20.271-20.534,20.406,20.406,0,0,0-20.271,20.534" transform="translate(3728.011 3160.319)" fill="#55d7b3"></path><rect width="5.391" height="81.081" transform="translate(5750.637 4601.267)" fill="#23beb0"></rect><rect width="5.391" height="81.081" transform="translate(5793.397 4601.267)" fill="#23beb0"></rect><rect width="5.391" height="81.081" transform="translate(5836.16 4601.267)" fill="#23beb0"></rect><rect width="5.391" height="81.084" transform="translate(5750.637 4709.552)" fill="#23beb0"></rect><rect width="5.391" height="81.084" transform="translate(5793.397 4709.552)" fill="#23beb0"></rect><rect width="5.391" height="81.084" transform="translate(5836.16 4709.552)" fill="#23beb0"></rect><rect width="5.391" height="81.084" transform="translate(5750.637 4817.84)" fill="#23beb0"></rect><rect width="5.391" height="81.084" transform="translate(5793.397 4817.84)" fill="#23beb0"></rect><rect width="5.391" height="81.084" transform="translate(5836.16 4817.84)" fill="#23beb0"></rect><path d="M2053.4,3308.26h-2V3182.07l-64.81-65.647V2058.368l.288-.292,238.069-241.149V1225.833h2v591.915l-.288.292-238.069,241.149V3115.6l64.81,65.647Z" transform="translate(3370.312 2121.363)" fill="#55d7b3"></path><path d="M2004.113,2001.111a20.272,20.272,0,1,0,20.271-20.534,20.405,20.405,0,0,0-20.271,20.534" transform="translate(3398.328 3427.485)" fill="#55d7b3"></path><path d="M1991.175,1952.948l-1.423-1.405,166.834-168.995V1226.983h2v556.386l-.288.292Z" transform="translate(3375.185 2123.354)" fill="#55d7b3"></path><path d="M1989.146,1490.821a20.724,20.724,0,0,0,0,29.037,20.09,20.09,0,0,0,28.666,0,20.722,20.722,0,0,0,0-29.037,20.09,20.09,0,0,0-28.666,0" transform="translate(3362.885 2569.532)" fill="#55d7b3"></path><path d="M1982.323,1875.65l-1.423-1.405,117.631-119.153V1220.845h2v535.068l-.288.292Z" transform="translate(3360.174 2112.731)" fill="#55d7b3"></path><path d="M1980.294,1458.623a20.72,20.72,0,0,0,0,29.034,20.085,20.085,0,0,0,28.666,0,20.719,20.719,0,0,0,0-29.034,20.09,20.09,0,0,0-28.666,0" transform="translate(3347.875 2513.812)" fill="#55d7b3"></path><path d="M1975.079,1794.788l-1.423-1.405,72.877-73.821V1220.845h2v499.539l-.288.292Z" transform="translate(3347.89 2112.731)" fill="#55d7b3"></path><path d="M1973.049,1429.009a20.724,20.724,0,0,0,0,29.037,20.091,20.091,0,0,0,28.666,0,20.723,20.723,0,0,0,0-29.037,20.09,20.09,0,0,0-28.666,0" transform="translate(3335.591 2462.563)" fill="#55d7b3"></path><path d="M1948.271,2685.6h-2V1698.357l.288-.292,76.991-77.987V1220.845h2V1620.9l-.288.292-76.991,77.987Z" transform="translate(3301.945 2112.731)" fill="#55d7b3"></path><path d="M1939.752,1769.917a20.272,20.272,0,1,0,20.271-20.534,20.406,20.406,0,0,0-20.271,20.534" transform="translate(3289.195 3027.392)" fill="#55d7b3"></path><path d="M1927.1,2736.516h-2V2352.844l.288-.292,111.318-112.759V1556.215h2v684.4l-.288.292L1927.1,2353.664Z" transform="translate(3266.052 2693.105)" fill="#55d7b3"></path><path d="M1959.986,1569.6a20.272,20.272,0,1,1,20.271,20.531,20.406,20.406,0,0,1-20.271-20.531" transform="translate(3323.505 2680.742)" fill="#55d7b3"></path><path d="M1918.584,2001.111a20.272,20.272,0,1,0,20.271-20.534,20.406,20.406,0,0,0-20.271,20.534" transform="translate(3253.301 3427.485)" fill="#55d7b3"></path><path d="M1957.309,2766.689h-2V2298.195l-51.3-51.968V1608.271l.288-.292,128.36-130.021V1220.845h2v257.934l-.288.292L1906,1609.092v636.314l51.3,51.968Z" transform="translate(3230.274 2112.731)" fill="#55d7b3"></path><path d="M1916.516,1799.61a20.272,20.272,0,1,0,20.271-20.531,20.406,20.406,0,0,0-20.271,20.531" transform="translate(3249.794 3078.782)" fill="#55d7b3"></path><path d="M1840.56,3297.793h-2V2062.528l.288-.292,97.586-98.848V1231.88h2v732.328l-.288.292-97.586,98.848Z" transform="translate(3119.302 2131.827)" fill="#55d7b3"></path><path d="M1832.041,2001.111a20.272,20.272,0,1,0,20.272-20.534,20.405,20.405,0,0,0-20.272,20.534" transform="translate(3106.552 3427.485)" fill="#55d7b3"></path><path d="M1889.743,2224.052h-2V1528.574l.288-.292,98.789-100.067V1220.845h2v208.192l-.288.292L1889.743,1529.4Z" transform="translate(3202.699 2112.731)" fill="#55d7b3"></path><path d="M1881.223,1600.884a20.272,20.272,0,1,0,20.271-20.533,20.406,20.406,0,0,0-20.271,20.533" transform="translate(3189.948 2734.872)" fill="#55d7b3"></path><path d="M1,178.209H-1V0H1Z" transform="translate(5124.176 3333.576)" fill="#55d7b3"></path><path d="M1893.366,1298.745a20.272,20.272,0,1,0,20.272-20.531,20.406,20.406,0,0,0-20.272,20.531" transform="translate(3210.539 2212.011)" fill="#55d7b3"></path><path d="M1812.485,3014.171h-2V2007.8l.288-.292,110.2-111.628v-664h2V1896.7l-.288.292-110.2,111.628Z" transform="translate(3071.695 2131.827)" fill="#55d7b3"></path><path d="M1803.965,1897.241a20.272,20.272,0,1,0,20.271-20.534,20.407,20.407,0,0,0-20.271,20.534" transform="translate(3058.944 3247.733)" fill="#55d7b3"></path><path d="M2144.831,1265.791V1216.24h33.607v49.551a8.5,8.5,0,0,1-8.44,8.549h-16.727a8.5,8.5,0,0,1-8.439-8.549" transform="translate(3636.943 2104.762)" fill="#55d7b3"></path><path d="M2119.813,1265.791V1216.24h33.607v49.551a8.5,8.5,0,0,1-8.44,8.549h-16.726a8.5,8.5,0,0,1-8.441-8.549" transform="translate(3594.521 2104.762)" fill="#55d7b3"></path><path d="M2094.795,1265.791V1216.24h33.61v49.551a8.5,8.5,0,0,1-8.442,8.549h-16.725a8.5,8.5,0,0,1-8.443-8.549" transform="translate(3552.098 2104.762)" fill="#55d7b3"></path><path d="M2069.777,1265.791V1216.24h33.61v49.551a8.5,8.5,0,0,1-8.443,8.549h-16.725a8.5,8.5,0,0,1-8.442-8.549" transform="translate(3509.676 2104.762)" fill="#55d7b3"></path><path d="M2044.759,1265.791V1216.24h33.61v49.551a8.5,8.5,0,0,1-8.444,8.549H2053.2a8.5,8.5,0,0,1-8.44-8.549" transform="translate(3467.253 2104.762)" fill="#55d7b3"></path><path d="M2019.741,1265.791V1216.24h33.607v49.551a8.5,8.5,0,0,1-8.438,8.549h-16.73a8.5,8.5,0,0,1-8.44-8.549" transform="translate(3424.831 2104.762)" fill="#55d7b3"></path><path d="M1994.724,1265.791V1216.24h33.607v49.551a8.5,8.5,0,0,1-8.44,8.549h-16.727a8.5,8.5,0,0,1-8.44-8.549" transform="translate(3382.41 2104.762)" fill="#55d7b3"></path><path d="M1969.706,1265.791V1216.24h33.61v49.551a8.5,8.5,0,0,1-8.443,8.549h-16.727a8.5,8.5,0,0,1-8.44-8.549" transform="translate(3339.987 2104.762)" fill="#55d7b3"></path><path d="M1944.688,1265.791V1216.24H1978.3v49.551a8.5,8.5,0,0,1-8.44,8.549h-16.727a8.5,8.5,0,0,1-8.44-8.549" transform="translate(3297.564 2104.762)" fill="#55d7b3"></path><path d="M1919.67,1265.791V1216.24h33.607v49.551a8.5,8.5,0,0,1-8.44,8.549H1928.11a8.5,8.5,0,0,1-8.44-8.549" transform="translate(3255.143 2104.762)" fill="#55d7b3"></path><path d="M1894.652,1265.791V1216.24h33.61v49.551a8.5,8.5,0,0,1-8.442,8.549h-16.727a8.5,8.5,0,0,1-8.44-8.549" transform="translate(3212.72 2104.762)" fill="#55d7b3"></path><path d="M1869.634,1265.791V1216.24h33.61v49.551a8.5,8.5,0,0,1-8.443,8.549h-16.727a8.5,8.5,0,0,1-8.44-8.549" transform="translate(3170.297 2104.762)" fill="#55d7b3"></path><path d="M1844.616,1265.791V1216.24h33.607v49.551a8.5,8.5,0,0,1-8.438,8.549h-16.729a8.5,8.5,0,0,1-8.44-8.549" transform="translate(3127.875 2104.762)" fill="#55d7b3"></path><path d="M1889.986,2597.548h-2V2292.889l.288-.292,65.233-66.077V1809.789L1853.3,1708.283V1584.437l.288-.292,40.312-40.832,1.423,1.405-40.023,40.54v122.2l100.209,101.505v418.373l-.288.292-65.233,66.077Z" transform="translate(3144.293 2671.993)" fill="#55d7b3"></path><path d="M1867.4,1542.775a20.09,20.09,0,0,1,28.666,0,20.723,20.723,0,0,1,0,29.037,20.09,20.09,0,0,1-28.666,0,20.724,20.724,0,0,1,0-29.037" transform="translate(3156.449 2659.441)" fill="#55d7b3"></path><path d="M1859.647,1942.485a20.272,20.272,0,1,0,20.272-20.534,20.406,20.406,0,0,0-20.272,20.534" transform="translate(3153.363 3326.029)" fill="#55d7b3"></path><path d="M2807.234,1960.554H1921.086l-.734-.744-72.934-73.876-63.955-64.781-.721-.73V922.876l138.344-140.134h886.148l.734.744,73.521,74.473,63.365,64.187.721.73v897.546l-.721.73Zm-884.058-5h881.969l135.431-137.183V924.928l-62.645-63.456-72.787-73.73H1923.176L1787.742,924.928V1818.37l63.234,64.051Z" transform="translate(3027.195 1358.899)" fill="#55d7b3"></path><path d="M3859.609,1070.7H3300.018l-.293-.3-96.635-97.885H2222.833v-2h981.092l.294.3,96.635,97.885h557.919l248.02-251.23H5444.867v2H4107.629Z" transform="translate(3769.209 1416.399)" fill="#55d7b3"></path><path d="M3430.468,852.014A20.534,20.534,0,1,0,3410.2,831.48a20.406,20.406,0,0,0,20.272,20.533" transform="translate(5782.594 1403.386)" fill="#55d7b3"></path><path d="M6440.138,1158.654H5970.5l-.293-.3L5740.3,925.473h-898.59L4720.549,1048.2H3148.925l-.294-.3-145.1-146.975h-780.7v-2H3004.37l.294.3,145.1,146.975H4719.712l121.16-122.727h900.262l.294.3,229.909,232.883h468.8Z" transform="translate(3769.209 1557.37)" fill="#55d7b3"></path><path d="M3799.678,1027.86a20.534,20.534,0,1,0-20.272-20.534,20.406,20.406,0,0,0,20.272,20.534" transform="translate(6408.655 1707.697)" fill="#55d7b3"></path><path d="M3250.167,946.059H2231.459v-2H3249.331L3397.574,793.9h454.391v2H3398.41Z" transform="translate(3783.836 1375.615)" fill="#55d7b3"></path><path d="M2844.984,828.446a20.534,20.534,0,1,0-20.271-20.534,20.406,20.406,0,0,0,20.271,20.534" transform="translate(4789.804 1362.601)" fill="#55d7b3"></path><path d="M3296.974,1059.28a18.92,18.92,0,1,1-18.918-19.163,19.041,19.041,0,0,1,18.918,19.163" transform="translate(5526.447 1799.971)" fill="#23beb0"></path><path d="M3327.386,1059.28a18.919,18.919,0,1,1-18.918-19.163,19.041,19.041,0,0,1,18.918,19.163" transform="translate(5578.018 1799.971)" fill="#23beb0"></path><path d="M3357.8,1059.28a18.921,18.921,0,1,1-18.918-19.163,19.041,19.041,0,0,1,18.918,19.163" transform="translate(5629.585 1799.971)" fill="#23beb0"></path><path d="M3388.213,1059.28a18.921,18.921,0,1,1-18.918-19.163,19.041,19.041,0,0,1,18.918,19.163" transform="translate(5681.155 1799.971)" fill="#23beb0"></path><path d="M3418.626,1059.28a18.921,18.921,0,1,1-18.918-19.163,19.042,19.042,0,0,1,18.918,19.163" transform="translate(5732.724 1799.971)" fill="#23beb0"></path><path d="M3449.035,1059.28a18.92,18.92,0,1,1-18.918-19.163,19.041,19.041,0,0,1,18.918,19.163" transform="translate(5784.295 1799.971)" fill="#23beb0"></path><path d="M3479.449,1059.28a18.92,18.92,0,1,1-18.919-19.163,19.041,19.041,0,0,1,18.919,19.163" transform="translate(5835.867 1799.971)" fill="#23beb0"></path><path d="M3509.861,1059.28a18.92,18.92,0,1,1-18.919-19.163,19.042,19.042,0,0,1,18.919,19.163" transform="translate(5887.435 1799.971)" fill="#23beb0"></path><path d="M3296.974,1091.641a18.92,18.92,0,1,1-18.918-19.163,19.042,19.042,0,0,1,18.918,19.163" transform="translate(5526.447 1855.975)" fill="#23beb0"></path><path d="M3327.386,1091.641a18.919,18.919,0,1,1-18.918-19.163,19.041,19.041,0,0,1,18.918,19.163" transform="translate(5578.018 1855.975)" fill="#23beb0"></path><path d="M3357.8,1091.641a18.921,18.921,0,1,1-18.918-19.163,19.042,19.042,0,0,1,18.918,19.163" transform="translate(5629.585 1855.975)" fill="#23beb0"></path><path d="M3388.213,1091.641a18.921,18.921,0,1,1-18.918-19.163,19.042,19.042,0,0,1,18.918,19.163" transform="translate(5681.155 1855.975)" fill="#23beb0"></path><path d="M3418.626,1091.641a18.921,18.921,0,1,1-18.918-19.163,19.042,19.042,0,0,1,18.918,19.163" transform="translate(5732.724 1855.975)" fill="#23beb0"></path><path d="M3449.035,1091.641a18.92,18.92,0,1,1-18.918-19.163,19.042,19.042,0,0,1,18.918,19.163" transform="translate(5784.295 1855.975)" fill="#23beb0"></path><path d="M3479.449,1091.641a18.92,18.92,0,1,1-18.919-19.163,19.042,19.042,0,0,1,18.919,19.163" transform="translate(5835.867 1855.975)" fill="#23beb0"></path><path d="M3509.861,1091.641a18.92,18.92,0,1,1-18.919-19.163,19.042,19.042,0,0,1,18.919,19.163" transform="translate(5887.435 1855.975)" fill="#23beb0"></path><rect width="80.046" height="5.461" transform="translate(7234.189 2363.776)" fill="#23beb0"></rect><rect width="80.046" height="5.461" transform="translate(7234.189 2320.458)" fill="#23beb0"></rect><rect width="80.046" height="5.461" transform="translate(7234.189 2277.144)" fill="#23beb0"></rect><rect width="80.048" height="5.461" transform="translate(7341.094 2363.776)" fill="#23beb0"></rect><rect width="80.048" height="5.461" transform="translate(7341.094 2320.458)" fill="#23beb0"></rect><rect width="80.048" height="5.461" transform="translate(7341.094 2277.144)" fill="#23beb0"></rect><rect width="80.048" height="5.461" transform="translate(7447.999 2363.776)" fill="#23beb0"></rect><rect width="80.048" height="5.461" transform="translate(7447.999 2320.458)" fill="#23beb0"></rect><rect width="80.048" height="5.461" transform="translate(7447.999 2277.144)" fill="#23beb0"></rect><path d="M6662.055,1244.012H5824.6l-.294-.3-140.165-141.975H4708.022l-64.812,65.648H3046.242l-.294-.3L2807.884,925.946H2224.351v-2h584.37l.294.3,238.063,241.143h1595.3l64.812-65.648h977.79l.294.3,140.165,141.976h836.62Z" transform="translate(3771.783 1600.665)" fill="#55d7b3"></path><path d="M3882.955,1074.975a20.534,20.534,0,1,0-20.271-20.533,20.406,20.406,0,0,0,20.271,20.533" transform="translate(6549.867 1789.233)" fill="#55d7b3"></path><path d="M2940.789,1118.486,2773.958,949.5H2225.5v-2h549.293l.294.3,167.124,169.286Z" transform="translate(3773.734 1641.42)" fill="#55d7b3"></path><path d="M2489.263,1037.758a20.09,20.09,0,0,0,28.666,0,20.722,20.722,0,0,0,0-29.036,20.089,20.089,0,0,0-28.666,0,20.722,20.722,0,0,0,0,29.036" transform="translate(4210.924 1735.236)" fill="#55d7b3"></path><path d="M2864.4,1095.75,2746.775,976.6H2219.363v-2h528.248l.294.3,117.92,119.446Z" transform="translate(3763.325 1688.327)" fill="#55d7b3"></path><path d="M2457.064,1046.611a20.089,20.089,0,0,0,28.666,0,20.723,20.723,0,0,0,0-29.036,20.089,20.089,0,0,0-28.666,0,20.722,20.722,0,0,0,0,29.036" transform="translate(4156.324 1750.557)" fill="#55d7b3"></path><path d="M2784.572,1074.264l-72.873-73.815H2219.363v-2h493.172l.294.3L2786,1072.859Z" transform="translate(3763.325 1729.594)" fill="#55d7b3"></path><path d="M2427.45,1053.855a20.09,20.09,0,0,0,28.666,0,20.718,20.718,0,0,0,0-29.037,20.09,20.09,0,0,0-28.666,0,20.723,20.723,0,0,0,0,29.037" transform="translate(4106.108 1763.093)" fill="#55d7b3"></path><path d="M3665.416,1104.3H2690.764l-.294-.3-76.985-77.982H2219.363v-2h394.958l.294.3L2691.6,1102.3h973.816Z" transform="translate(3763.325 1773.843)" fill="#55d7b3"></path><path d="M2768.173,1087.231A20.534,20.534,0,1,0,2747.9,1066.7a20.405,20.405,0,0,0,20.272,20.534" transform="translate(4659.555 1810.441)" fill="#55d7b3"></path><path d="M4218.588,1147.5H3341.175l-.293-.3-111.314-112.753H2554.732v-2H3230.4l.294.3L3342.011,1145.5h876.578Z" transform="translate(4332.004 1788.438)" fill="#55d7b3"></path><path d="M2567.86,1067a20.534,20.534,0,1,1,20.271-20.533A20.406,20.406,0,0,1,2567.86,1067" transform="translate(4319.891 1775.425)" fill="#55d7b3"></path><path d="M3184.339,1108.4a20.534,20.534,0,1,0-20.271-20.534,20.406,20.406,0,0,0,20.271,20.534" transform="translate(5365.241 1847.073)" fill="#55d7b3"></path><path d="M3231.662,1179.542H2601.828l-.294-.3-128.355-130.015H2219.363v-2h254.653l.294.3,128.355,130.015h628.162l51.305-51.968h463.333v2h-462.5Z" transform="translate(3763.325 1814.011)" fill="#55d7b3"></path><path d="M2797.868,1110.467a20.534,20.534,0,1,0-20.272-20.534,20.407,20.407,0,0,0,20.272,20.534" transform="translate(4709.908 1850.652)" fill="#55d7b3"></path><path d="M4256.777,1225.23H3050.425l-.293-.3-97.58-98.844H2230.4v-2h722.99l.294.3,97.58,98.844H4256.777Z" transform="translate(3782.037 1947.021)" fill="#55d7b3"></path><path d="M2994.487,1194.943a20.534,20.534,0,1,0-20.272-20.536,20.408,20.408,0,0,0,20.272,20.536" transform="translate(5043.312 1996.842)" fill="#55d7b3"></path><path d="M3209.757,1176.82H2523.15l-.294-.3-98.784-100.061H2219.363v-2h205.546l.294.3,98.784,100.061h685.771Z" transform="translate(3763.325 1861.137)" fill="#55d7b3"></path><path d="M2599.14,1145.76a20.534,20.534,0,1,0-20.272-20.534,20.406,20.406,0,0,0,20.272,20.534" transform="translate(4372.93 1911.729)" fill="#55d7b3"></path><path d="M175.933,1H0V-1H175.933Z" transform="translate(5982.688 3003.798)" fill="#55d7b3"></path><path d="M2297,1133.617a20.534,20.534,0,1,0-20.271-20.534A20.4,20.4,0,0,0,2297,1133.617" transform="translate(3860.603 1890.714)" fill="#55d7b3"></path><path d="M4899.912,1261.4H2996.4l-.293-.3-110.2-111.622H2230.4v-2h656.344l.294.3,110.2,111.622H4899.076l105.694-107.062H6006.4v2H5005.606Z" transform="translate(3782.037 1987.508)" fill="#55d7b3"></path><path d="M3643.532,1183.809a20.534,20.534,0,1,0-20.27-20.534,20.4,20.4,0,0,0,20.27,20.534" transform="translate(6143.886 1977.574)" fill="#55d7b3"></path><path d="M4828.3,2475.877H3491.023l-.293-.3-760.781-770.622V1344.284l-118.638-120.169H2266.178v-2h345.969l.293.3,119.509,121.05v360.674l759.911,769.741h1335.6l275.637-279.2H6394.7v2H5103.938Z" transform="translate(3842.708 2116.66)" fill="#55d7b3"></path><path d="M2279.306,1256.66a20.534,20.534,0,1,1,20.271-20.534,20.407,20.407,0,0,1-20.271,20.534" transform="translate(3830.594 2103.646)" fill="#55d7b3"></path><path d="M3810.088,1612.839a20.534,20.534,0,1,0-20.271-20.534,20.406,20.406,0,0,0,20.271,20.534" transform="translate(6426.308 2720.031)" fill="#55d7b3"></path><path d="M4070.159,2151.735h-886.3l-.293-.3-524.935-531.725V1446.421L2464.721,1250l1.423-1.405,194.488,197v173.291L3184.7,2149.735h884.626L4300.079,1916h1181.5v2H4300.915Z" transform="translate(4180.582 2161.972)" fill="#55d7b3"></path><path d="M2464.116,1277.1a20.721,20.721,0,0,1,0-29.036,20.09,20.09,0,0,1,28.667,0,20.725,20.725,0,0,1,0,29.036,20.09,20.09,0,0,1-28.667,0" transform="translate(4168.283 2149.421)" fill="#55d7b3"></path><path d="M3596.689,1527.373a20.534,20.534,0,1,0-20.271-20.534,20.406,20.406,0,0,0,20.271,20.534" transform="translate(6064.454 2572.128)" fill="#55d7b3"></path><path d="M6183.412,1468.311H4478.15l-.293-.3-172.748-174.984H2848.272l-.293-.3-107.053-108.438H2303.9v-2h437.859l.293.3,107.053,108.439H4305.945l.294.3,172.748,174.984H6183.412Z" transform="translate(3906.677 2047.745)" fill="#55d7b3"></path><path d="M3755.437,1279.788a20.534,20.534,0,1,1-20.271,20.534,20.406,20.406,0,0,1,20.271-20.534" transform="translate(6333.637 2214.735)" fill="#55d7b3"></path><path d="M2317.031,1175.773a20.534,20.534,0,1,0,20.271,20.534,20.4,20.4,0,0,0-20.271-20.534" transform="translate(3894.564 2034.732)" fill="#55d7b3"></path><path d="M3639.408,1709.345H3161.19l-.293-.3-414.172-419.53H2552.433v-2H2747.56l.294.3,414.172,419.53h476.547l165.078-167.213H5460.328v2H3804.486Z" transform="translate(4328.104 2229.843)" fill="#55d7b3"></path><path d="M2565.561,1322.064a20.534,20.534,0,1,1,20.269-20.534,20.4,20.4,0,0,1-20.269,20.534" transform="translate(4315.991 2216.831)" fill="#55d7b3"></path><path d="M3643.532,1414.578a20.534,20.534,0,1,0-20.27-20.534,20.4,20.4,0,0,0,20.27,20.534" transform="translate(6143.886 2376.931)" fill="#55d7b3"></path><path d="M4777.325,1450.816H3616.191l-.293-.3L3469.8,1302.53H2705.616v-2h765.017l.294.3,146.1,147.988h1160.3Z" transform="translate(4587.854 2252.361)" fill="#55d7b3"></path><path d="M2718.743,1335.076a20.534,20.534,0,1,1,20.269-20.534,20.4,20.4,0,0,1-20.269,20.534" transform="translate(4575.739 2239.349)" fill="#55d7b3"></path><path d="M3486.522,1389.382a20.534,20.534,0,1,0-20.271-20.533,20.406,20.406,0,0,0,20.271,20.533" transform="translate(5877.644 2333.327)" fill="#55d7b3"></path><path d="M3198.483,1453.055H3009.422l-.294-.3-90.339-91.506H2735.732v-2h183.893l.294.3,90.339,91.506h187.389l97.51-98.77h128.6v2H3295.993Z" transform="translate(4638.919 2341.926)" fill="#55d7b3"></path><path d="M2748.859,1389.382a20.534,20.534,0,1,1,20.269-20.533,20.4,20.4,0,0,1-20.269,20.533" transform="translate(4626.807 2333.327)" fill="#55d7b3"></path><path d="M3003.341,1386.831a20.534,20.534,0,1,0-20.271-20.534,20.407,20.407,0,0,0,20.271,20.534" transform="translate(5058.325 2328.913)" fill="#55d7b3"></path><path d="M4185.886,2828.758h-975.7l-.293-.3L2537.231,2147.1V1870.544l-345.157-349.623V1299.877l.288-.292,103.366-104.7,1.423,1.405L2194.073,1300.7v219.4l345.157,349.623v276.558l671.789,680.476H4185.05l183.441-185.81H5470.706v2H4369.327Z" transform="translate(3718.746 2069.017)" fill="#55d7b3"></path><path d="M2229.57,1194.344a20.09,20.09,0,0,1,28.666,0,20.722,20.722,0,0,1,0,29.037,20.089,20.089,0,0,1-28.666,0,20.723,20.723,0,0,1,0-29.037" transform="translate(3770.566 2056.465)" fill="#55d7b3"></path><path d="M3421.332,1758.827a20.534,20.534,0,1,0-20.269-20.534,20.4,20.4,0,0,0,20.269,20.534" transform="translate(5767.108 2972.67)" fill="#55d7b3"></path><path d="M3608.488,2438.2H3090.552l-.294-.3-436.574-442.218v-270.87L2225.629,1291.22l1.423-1.405,428.632,434.179v270.87l435.7,441.336h517.1Z" transform="translate(3775.156 2233.303)" fill="#55d7b3"></path><path d="M2225.023,1318.314a20.721,20.721,0,0,1,0-29.036,20.089,20.089,0,0,1,28.666,0,20.723,20.723,0,0,1,0,29.036,20.088,20.088,0,0,1-28.666,0" transform="translate(3762.856 2220.752)" fill="#55d7b3"></path><path d="M2751.442,1744.009a20.534,20.534,0,1,0-20.272-20.531,20.406,20.406,0,0,0,20.272,20.531" transform="translate(4631.187 2947.027)" fill="#55d7b3"></path><path d="M3255.354,1828.168H2576.176v-2h678.343l121.014-122.58h402.722v2H3376.369Z" transform="translate(4368.364 2949.872)" fill="#55d7b3"></path><path d="M2589.3,1783.025a20.534,20.534,0,1,1,20.272-20.534,20.407,20.407,0,0,1-20.272,20.534" transform="translate(4356.25 3014.546)" fill="#55d7b3"></path><path d="M3034.48,1738.134a20.534,20.534,0,1,0-20.272-20.534,20.407,20.407,0,0,0,20.272,20.534" transform="translate(5111.126 2936.86)" fill="#55d7b3"></path><path d="M2883.343,2162.819h-2V1997.329l-370.322-375.115V1464.773L2304.812,1255.9l1.423-1.405,206.785,209.46v157.441l370.322,375.115Z" transform="translate(3909.426 2172.175)" fill="#55d7b3"></path><path d="M2304.207,1282.991a20.723,20.723,0,0,1,0-29.036,20.09,20.09,0,0,1,28.666,0,20.721,20.721,0,0,1,0,29.036,20.09,20.09,0,0,1-28.666,0" transform="translate(3897.128 2159.624)" fill="#55d7b3"></path><path d="M2511.984,1600.227a20.272,20.272,0,1,0,20.271-20.531,20.407,20.407,0,0,0-20.271,20.531" transform="translate(4259.516 2733.74)" fill="#55d7b3"></path><path d="M3043.683,1984.536l-61.653-62.451H2716.749l-.294-.3-283.105-286.77V1497.782h2V1634.2l282.235,285.888h265.281l.294.3,61.946,62.748Z" transform="translate(4127.874 2591.985)" fill="#55d7b3"></path><path d="M2426.831,1511.172A20.272,20.272,0,1,1,2447.1,1531.7a20.406,20.406,0,0,1-20.272-20.531" transform="translate(4115.125 2579.621)" fill="#55d7b3"></path><path d="M2658.806,1703.052a20.091,20.091,0,0,0,28.667,0,20.724,20.724,0,0,0,0-29.037,20.091,20.091,0,0,0-28.667,0,20.724,20.724,0,0,0,0,29.037" transform="translate(4498.414 2886.559)" fill="#55d7b3"></path><path d="M3697.47,1768.757H3006.7l-.294-.3-392.237-397.311,1.423-1.405,391.944,397.014h689.1l160.393-162.468H4348.1v2H3857.863Z" transform="translate(4433.99 2371.622)" fill="#55d7b3"></path><path d="M2613.56,1398.241a20.722,20.722,0,0,1,0-29.037,20.089,20.089,0,0,1,28.666,0,20.72,20.72,0,0,1,0,29.037,20.089,20.089,0,0,1-28.666,0" transform="translate(4421.691 2359.07)" fill="#55d7b3"></path><path d="M3270.217,1490a20.534,20.534,0,1,0-20.271-20.534A20.406,20.406,0,0,0,3270.217,1490" transform="translate(5510.862 2507.447)" fill="#55d7b3"></path><path d="M3228.617,1591.877H2848.342v-2h379.439l167.436-169.6H4656.906v2H3396.053Z" transform="translate(4829.871 2459.58)" fill="#55d7b3"></path><path d="M2861.47,1516.932a20.534,20.534,0,1,1,20.271-20.534,20.407,20.407,0,0,1-20.271,20.534" transform="translate(4817.757 2554.059)" fill="#55d7b3"></path><path d="M3531.628,1454.818a20.534,20.534,0,1,0-20.27-20.534,20.406,20.406,0,0,0,20.27,20.534" transform="translate(5954.135 2446.568)" fill="#55d7b3"></path><path d="M3213.285,1902.341H2992.606l-.294-.3-393.238-398.324,1.423-1.405,392.945,398.027h219.007l81.18-82.233h763.142l231.785-234.784h705.637v2h-704.8l-231.785,234.784H3294.465Z" transform="translate(4408.4 2601.043)" fill="#55d7b3"></path><path d="M2598.469,1530.812a20.723,20.723,0,0,1,0-29.036,20.09,20.09,0,0,1,28.666,0,20.718,20.718,0,0,1,0,29.036,20.089,20.089,0,0,1-28.666,0" transform="translate(4396.101 2588.49)" fill="#55d7b3"></path><path d="M3500.4,1566.339a20.534,20.534,0,1,0-20.272-20.534,20.407,20.407,0,0,0,20.272,20.534" transform="translate(5901.178 2639.561)" fill="#55d7b3"></path><path d="M4353.552,1444.144h-460.6l-.294-.3-140.838-142.663H3120.562l-.294-.3-45.439-46.029H2601.051v-2h474.614l.294.3,45.438,46.029h631.256l.294.3,140.838,142.663h459.766Z" transform="translate(4410.545 2169.861)" fill="#55d7b3"></path><path d="M2614.179,1287.4a20.534,20.534,0,1,1,20.271-20.534,20.406,20.406,0,0,1-20.271,20.534" transform="translate(4398.431 2156.849)" fill="#55d7b3"></path><path d="M3263.541,1356.724a20.534,20.534,0,1,0-20.271-20.534,20.406,20.406,0,0,0,20.271,20.534" transform="translate(5499.542 2276.812)" fill="#55d7b3"></path><path d="M2612.147,1571.219H2266.177v-2H2611.31l118.638-120.169V1088.377l.288-.292,760.787-770.629H4828.3l.293.3,275.343,278.9h764.618v2H5103.1l-.293-.3-275.343-278.9H3491.86L2731.948,1089.2v360.673l-.289.292Z" transform="translate(3842.708 551.104)" fill="#55d7b3"></path><path d="M2279.306,810.431a20.534,20.534,0,1,1,20.271-20.534,20.407,20.407,0,0,1-20.271,20.534" transform="translate(3830.594 1331.425)" fill="#55d7b3"></path><path d="M3614.905,454.252a20.534,20.534,0,1,0-20.269-20.534,20.4,20.4,0,0,0,20.269,20.534" transform="translate(6095.345 715.04)" fill="#55d7b3"></path><path d="M2466.145,1322.71l-1.423-1.4,193.911-196.419V951.594l.289-.292,524.94-531.73h886.3l.294.3,230.462,233.443H5951.6v2H4300.079l-.293-.3L4069.323,421.571H3184.7L2660.632,952.415v173.292l-.288.292Z" transform="translate(4180.582 727.819)" fill="#55d7b3"></path><path d="M2492.784,777.965a20.091,20.091,0,0,1-28.667,0,20.719,20.719,0,0,1,0-29.037,20.091,20.091,0,0,1,28.667,0,20.725,20.725,0,0,1,0,29.037" transform="translate(4168.28 1285.652)" fill="#55d7b3"></path><path d="M3771.05,539.718a20.534,20.534,0,1,0-20.269-20.534,20.405,20.405,0,0,0,20.269,20.534" transform="translate(6360.117 862.943)" fill="#55d7b3"></path><path d="M2741.76,997.711H2303.9v-2h437.021l107.347-108.736H4305.107L4478.15,711.693H6148.333v2H4478.986L4305.943,888.975H2849.106Z" transform="translate(3906.678 1233.349)" fill="#55d7b3"></path><path d="M3742.423,705.173a20.534,20.534,0,1,1-20.269,20.534,20.4,20.4,0,0,1,20.269-20.534" transform="translate(6311.575 1220.336)" fill="#55d7b3"></path><path d="M2317.031,809.188a20.534,20.534,0,1,0,20.271,20.534,20.4,20.4,0,0,0-20.271-20.534" transform="translate(3894.564 1400.339)" fill="#55d7b3"></path><path d="M2747.56,978.557H2552.433v-2h194.292L3161.19,556.73h478.219l.293.3,164.784,166.916H5460.328v2H3803.65l-.294-.3L3638.573,558.73H3162.026Z" transform="translate(4328.104 965.179)" fill="#55d7b3"></path><path d="M2565.561,745.025a20.533,20.533,0,1,1,20.269-20.534,20.4,20.4,0,0,1-20.269,20.534" transform="translate(4315.991 1218.242)" fill="#55d7b3"></path><path d="M3643.532,652.513a20.534,20.534,0,1,0-20.27-20.534,20.4,20.4,0,0,0,20.27,20.534" transform="translate(6143.886 1058.14)" fill="#55d7b3"></path><path d="M3470.632,793.45H2705.616v-2H3469.8l146.4-148.286H4777.325v2h-1160.3Z" transform="translate(4587.854 1114.757)" fill="#55d7b3"></path><path d="M2718.743,732.016a20.534,20.534,0,1,1,20.269-20.536,20.405,20.405,0,0,1-20.269,20.536" transform="translate(4575.739 1195.724)" fill="#55d7b3"></path><path d="M3486.522,677.709a20.534,20.534,0,1,0-20.271-20.534,20.406,20.406,0,0,0,20.271,20.534" transform="translate(5877.644 1101.743)" fill="#55d7b3"></path><path d="M3423.757,710.312h-128.6l-.294-.3-97.216-98.472H3010.258l-90.632,91.8H2735.732v-2H2918.79l90.632-91.8h189.061l.294.3,97.216,98.472h127.765Z" transform="translate(4638.919 1056.573)" fill="#55d7b3"></path><path d="M2748.859,677.709a20.534,20.534,0,1,1,20.269-20.534,20.4,20.4,0,0,1-20.269,20.534" transform="translate(4626.807 1101.743)" fill="#55d7b3"></path><path d="M3003.341,680.258a20.533,20.533,0,1,0-20.271-20.534,20.4,20.4,0,0,0,20.271,20.534" transform="translate(5058.325 1106.16)" fill="#55d7b3"></path><path d="M2295.728,1839.547l-103.655-104.995V1513.506l.288-.292,344.869-349.33V887.326l.288-.292L3210.183,205.67h975.7l.294.3,183.147,185.514H5470.706v2H4368.491l-.293-.3L4185.05,207.67H3211.02L2539.231,888.146v276.559l-.289.292-344.869,349.33v219.4l103.078,104.41Z" transform="translate(3718.746 357.652)" fill="#55d7b3"></path><path d="M2258.236,802.644a20.722,20.722,0,0,1,0,29.037,20.089,20.089,0,0,1-28.666,0,20.723,20.723,0,0,1,0-29.037,20.09,20.09,0,0,1,28.666,0" transform="translate(3770.566 1378.609)" fill="#55d7b3"></path><path d="M3421.332,308.264a20.534,20.534,0,1,0-20.269-20.534,20.4,20.4,0,0,0,20.269,20.534" transform="translate(5767.108 462.401)" fill="#55d7b3"></path><path d="M2227.052,1436.922l-1.423-1.405,428.055-433.6V731.052l.288-.292,436.579-442.223h517.936v2h-517.1l-435.7,441.336v270.87l-.288.292Z" transform="translate(3775.156 501.057)" fill="#55d7b3"></path><path d="M2253.689,736.747a20.09,20.09,0,0,1-28.666,0,20.722,20.722,0,0,1,0-29.036,20.089,20.089,0,0,1,28.666,0,20.723,20.723,0,0,1,0,29.036" transform="translate(3762.856 1214.323)" fill="#55d7b3"></path><path d="M2751.442,323.082a20.534,20.534,0,1,0-20.272-20.534,20.406,20.406,0,0,0,20.272,20.534" transform="translate(4631.187 488.044)" fill="#55d7b3"></path><path d="M3778.255,374.1H3375.533l-.294-.3-120.72-122.28H2576.176v-2h679.179l.294.3,120.72,122.28h401.886Z" transform="translate(4368.364 433.537)" fill="#55d7b3"></path><path d="M2589.3,284.066a20.534,20.534,0,1,1,20.272-20.534,20.406,20.406,0,0,1-20.272,20.534" transform="translate(4356.25 420.525)" fill="#55d7b3"></path><path d="M3034.48,328.957a20.534,20.534,0,1,0-20.272-20.534,20.407,20.407,0,0,0,20.272,20.534" transform="translate(5111.126 498.211)" fill="#55d7b3"></path><path d="M2306.236,1320.735l-1.423-1.405,206.209-208.876V953.013l.288-.292L2881.343,577.9V412.409h2v166.31l-.288.292L2513.021,953.834v157.44l-.288.292Z" transform="translate(3909.426 713.694)" fill="#55d7b3"></path><path d="M2332.874,772.069a20.089,20.089,0,0,1-28.666,0,20.717,20.717,0,0,1,0-29.036,20.089,20.089,0,0,1,28.666,0,20.723,20.723,0,0,1,0,29.036" transform="translate(3897.125 1275.449)" fill="#55d7b3"></path><path d="M2552.525,425.8a20.272,20.272,0,1,0-20.272,20.534,20.406,20.406,0,0,0,20.272-20.534" transform="translate(4259.516 701.331)" fill="#55d7b3"></path><path d="M2435.35,810.264h-2V673.029l.288-.292,283.111-286.776h265.281l61.653-62.451,1.423,1.405-62.24,63.046H2717.585L2435.35,673.85Z" transform="translate(4127.874 561.066)" fill="#55d7b3"></path><path d="M2467.371,514.854a20.272,20.272,0,1,1-20.271-20.531,20.406,20.406,0,0,1,20.271,20.531" transform="translate(4115.125 855.45)" fill="#55d7b3"></path><path d="M2687.472,352.009a20.724,20.724,0,0,0,0-29.037,20.091,20.091,0,0,0-28.667,0,20.724,20.724,0,0,0,0,29.037,20.09,20.09,0,0,0,28.667,0" transform="translate(4498.414 548.515)" fill="#55d7b3"></path><path d="M2615.589,882.062l-1.423-1.4L3006.7,483.049H3697.47l.294.3,160.1,162.17H4348.1v2H3857.027l-.294-.3-160.1-162.17h-689.1Z" transform="translate(4433.99 837.67)" fill="#55d7b3"></path><path d="M2642.226,656.82a20.089,20.089,0,0,1-28.666,0,20.722,20.722,0,0,1,0-29.037,20.089,20.089,0,0,1,28.666,0,20.722,20.722,0,0,1,0,29.037" transform="translate(4421.691 1076.003)" fill="#55d7b3"></path><path d="M3270.217,577.094a20.534,20.534,0,1,0-20.271-20.534,20.406,20.406,0,0,0,20.271,20.534" transform="translate(5510.862 927.624)" fill="#55d7b3"></path><path d="M4656.906,687.219H3395.217l-.294-.3L3227.781,517.614H2848.342v-2h380.275l.294.3,167.142,169.308H4656.906Z" transform="translate(4829.871 894.025)" fill="#55d7b3"></path><path d="M2861.47,550.159a20.534,20.534,0,1,1,20.271-20.534,20.407,20.407,0,0,1-20.271,20.534" transform="translate(4817.757 881.012)" fill="#55d7b3"></path><path d="M3531.628,612.273a20.534,20.534,0,1,0-20.27-20.534,20.406,20.406,0,0,0,20.27,20.534" transform="translate(5954.135 988.503)" fill="#55d7b3"></path><path d="M2600.5,750.133l-1.423-1.4,393.532-398.622h220.679l.294.3,80.886,81.936h763.142l.294.3,231.491,234.486h704.8v2H4288.556l-.294-.3L4056.771,434.34H3293.629l-.293-.3-80.886-81.936H2993.442Z" transform="translate(4408.4 607.607)" fill="#55d7b3"></path><path d="M2627.135,524.248a20.09,20.09,0,0,1-28.666,0,20.724,20.724,0,0,1,0-29.037,20.09,20.09,0,0,1,28.666,0,20.724,20.724,0,0,1,0,29.037" transform="translate(4396.101 846.583)" fill="#55d7b3"></path><path d="M3500.4,500.752a20.534,20.534,0,1,0-20.272-20.534,20.407,20.407,0,0,0,20.272,20.534" transform="translate(5901.178 795.511)" fill="#55d7b3"></path><path d="M3075.666,867.108H2601.051v-2H3074.83l45.732-46.326h631.256l141.132-142.961h460.6v2H3893.785L3752.654,820.782H3121.4Z" transform="translate(4410.545 1171.271)" fill="#55d7b3"></path><path d="M2614.179,779.688a20.534,20.534,0,1,1,20.271-20.533,20.406,20.406,0,0,1-20.271,20.533" transform="translate(4398.431 1278.223)" fill="#55d7b3"></path><path d="M3263.541,710.367a20.534,20.534,0,1,0-20.271-20.534,20.406,20.406,0,0,0,20.271,20.534" transform="translate(5499.542 1158.26)" fill="#55d7b3"></path><path d="M2704.716,1211.991H2582.427l-.294-.3-40.312-40.833,1.423-1.405,40.019,40.535H2703.88l100.21-101.505h413.056l.294.3,65.228,66.071h852.345v2H3281.831l-.294-.3-65.228-66.071H2804.926Z" transform="translate(4311.318 1920.018)" fill="#55d7b3"></path><path d="M2541.216,1159.5a20.723,20.723,0,0,1,0-29.036,20.09,20.09,0,0,1,28.667,0,20.723,20.723,0,0,1,0,29.036,20.091,20.091,0,0,1-28.667,0" transform="translate(4299.019 1945.919)" fill="#55d7b3"></path><path d="M3145.659,1167.337a20.534,20.534,0,1,0-20.268-20.534,20.4,20.4,0,0,0,20.268,20.534" transform="translate(5299.657 1949.068)" fill="#55d7b3"></path><path d="M3042.987,3060.89h-2V2665l-621.678-629.719V1604.966l-232.48-235.488,1.423-1.405,233.057,236.073v430.318l621.678,629.719Z" transform="translate(3709.364 2368.731)" fill="#55d7b3"></path><path d="M2186.223,1396.571a20.723,20.723,0,0,1,0-29.037,20.089,20.089,0,0,1,28.666,0,20.72,20.72,0,0,1,0,29.037,20.089,20.089,0,0,1-28.666,0" transform="translate(3697.065 2356.18)" fill="#55d7b3"></path><path d="M2496.99,2001.111a20.272,20.272,0,1,0,20.271-20.534,20.4,20.4,0,0,0-20.271,20.534" transform="translate(4234.091 3427.485)" fill="#55d7b3"></path><path d="M2440.166,2957.677h-2V2304.234L2309.72,2174.122V1778.455l-128.231-129.889V1428.417h2v219.328l128.231,129.889V2173.3l128.446,130.112Z" transform="translate(3700.799 2471.944)" fill="#55d7b3"></path><path d="M2174.969,1441.806a20.273,20.273,0,1,1,20.274,20.531,20.407,20.407,0,0,1-20.274-20.531" transform="translate(3688.048 2459.58)" fill="#55d7b3"></path><path d="M2270.188,2001.111a20.272,20.272,0,1,0,20.272-20.534,20.406,20.406,0,0,0-20.272,20.534" transform="translate(3849.508 3427.485)" fill="#55d7b3"></path><path d="M2616.422,2547.024h-2V2014.108l-343.25-347.692,1.423-1.405,343.827,348.276Z" transform="translate(3852.381 2882.599)" fill="#55d7b3"></path><path d="M2270.565,1693.51a20.723,20.723,0,0,1,0-29.037,20.09,20.09,0,0,1,28.666,0,20.724,20.724,0,0,1,0,29.037,20.09,20.09,0,0,1-28.666,0" transform="translate(3840.081 2870.047)" fill="#55d7b3"></path><path d="M2391.8,2001.111a20.273,20.273,0,1,0,20.271-20.534,20.405,20.405,0,0,0-20.271,20.534" transform="translate(4055.729 3427.485)" fill="#55d7b3"></path><path d="M2342.574,2393.322h-2v-308.9l.288-.292,88.27-89.413V1866.031l-109.383-110.8,1.423-1.405,109.959,111.381v130.328l-.288.292-88.27,89.412Z" transform="translate(3934.754 3036.301)" fill="#55d7b3"></path><path d="M2319.144,1782.328a20.722,20.722,0,0,1,0-29.036,20.089,20.089,0,0,1,28.666,0,20.723,20.723,0,0,1,0,29.036,20.09,20.09,0,0,1-28.666,0" transform="translate(3922.456 3023.749)" fill="#55d7b3"></path><path d="M2320.773,2001.111a20.272,20.272,0,1,0,20.271-20.534,20.405,20.405,0,0,0-20.271,20.534" transform="translate(3935.283 3427.485)" fill="#55d7b3"></path><path d="M4129.6,2324.026H3027.74l-.294-.3L2331.2,1618.472l1.424-1.405,695.957,704.96H4128.763L4276.9,2171.979h964.015l365.369-370.1H6065.77v2H5607.116l-365.369,370.1H4277.732Z" transform="translate(3954.165 2799.627)" fill="#55d7b3"></path><path d="M2330.591,1645.566a20.722,20.722,0,0,1,0-29.037,20.09,20.09,0,0,1,28.666,0,20.722,20.722,0,0,1,0,29.037,20.09,20.09,0,0,1-28.666,0" transform="translate(3941.866 2787.076)" fill="#55d7b3"></path><path d="M3729.412,1719.109a20.534,20.534,0,1,0-20.271-20.534,20.406,20.406,0,0,0,20.271,20.534" transform="translate(6289.509 2903.937)" fill="#55d7b3"></path><path d="M4170.711,1955.385H3097.024v-2H4169.875l160.256-162.328h824.087v2H4330.967Z" transform="translate(5251.557 3101.241)" fill="#55d7b3"></path><path d="M3110.151,1885.051a20.534,20.534,0,1,1,20.27-20.534,20.4,20.4,0,0,1-20.27,20.534" transform="translate(5239.441 3191.109)" fill="#55d7b3"></path><path d="M3872.545,1825.6a20.534,20.534,0,1,0-20.271-20.534,20.406,20.406,0,0,0,20.271,20.534" transform="translate(6532.217 3088.228)" fill="#55d7b3"></path><path d="M3826.179,2031.295H2691.511l-.175-.069-2.229-.87-.153-.161-150.7-158.127,1.448-1.38,150.551,157.965,1.64.64H3825.343l144.982-146.857H5054.593l.293.3,78.841,79.861h616v2H5132.892l-.293-.3-78.842-79.861h-1082.6Z" transform="translate(4305.282 3238.513)" fill="#55d7b3"></path><path d="M2537.4,1898.923a20.725,20.725,0,0,1,.5-29.034,20.09,20.09,0,0,1,28.664.513,20.722,20.722,0,0,1-.5,29.031,20.092,20.092,0,0,1-28.663-.511" transform="translate(4292.974 3225.967)" fill="#55d7b3"></path><path d="M3742.423,1938.7a20.534,20.534,0,1,0-20.269-20.533,20.4,20.4,0,0,0,20.269,20.533" transform="translate(6311.575 3283.943)" fill="#55d7b3"></path><path d="M6193.932,2041.078H4889.742l-.294-.3-118.314-119.846H4129.8L4012.67,2039.582H2545.927v-2H4011.834l117.133-118.648h643l.293.3,118.315,119.846H6193.932Z" transform="translate(4317.072 3322.539)" fill="#55d7b3"></path><path d="M2559.054,1996.932a20.534,20.534,0,1,1,20.272-20.533,20.406,20.406,0,0,1-20.272,20.533" transform="translate(4304.958 3384.723)" fill="#55d7b3"></path><path d="M3911.582,1997.48a20.534,20.534,0,1,0-20.271-20.534,20.407,20.407,0,0,0,20.271,20.534" transform="translate(6598.409 3385.671)" fill="#55d7b3"></path><path d="M3443.2,1969.337H2690.361v-2h752l209.011-211.716h274.709l.294.3,73.233,74.181h488.513v2H3998.775l-.294-.3-73.233-74.181H3652.21Z" transform="translate(4561.985 3039.917)" fill="#55d7b3"></path><path d="M2703.489,1867.7a20.534,20.534,0,1,1,20.269-20.534,20.4,20.4,0,0,1-20.269,20.534" transform="translate(4549.872 3161.084)" fill="#55d7b3"></path><path d="M3369.641,1817.442a20.534,20.534,0,1,0-20.269-20.534,20.4,20.4,0,0,0,20.269,20.534" transform="translate(5679.457 3074.106)" fill="#55d7b3"></path><path d="M2188.252,1706.213l-1.423-1.405,232.48-235.488V1039l.288-.292,621.39-629.427V13.4h2V410.1l-.288.292-621.39,629.427v430.318l-.288.292Z" transform="translate(3709.364 23.181)" fill="#55d7b3"></path><path d="M2214.888,660.357a20.089,20.089,0,0,1-28.666,0,20.723,20.723,0,0,1,0-29.036,20.089,20.089,0,0,1,28.666,0,20.722,20.722,0,0,1,0,29.036" transform="translate(3697.065 1082.126)" fill="#55d7b3"></path><path d="M2537.531,26.785a20.272,20.272,0,1,0-20.272,20.531,20.406,20.406,0,0,0,20.272-20.531" transform="translate(4234.091 10.818)" fill="#55d7b3"></path><path d="M2183.489,1542.656h-2V1322.507l.288-.292,127.942-129.6V796.95l.288-.292L2438.166,666.84V13.4h2V667.661l-.288.292L2311.72,797.771v395.668l-.288.292-127.942,129.6Z" transform="translate(3700.799 23.182)" fill="#55d7b3"></path><path d="M2215.512,586.088a20.273,20.273,0,1,1-20.272-20.531,20.406,20.406,0,0,1,20.272,20.531" transform="translate(3688.048 978.724)" fill="#55d7b3"></path><path d="M2310.729,26.785a20.272,20.272,0,1,0-20.272,20.531,20.407,20.407,0,0,0,20.272-20.531" transform="translate(3849.508 10.818)" fill="#55d7b3"></path><path d="M2272.595,895.407,2271.171,894l343.25-347.692V13.395h2V547.131l-.288.292Z" transform="translate(3852.381 23.181)" fill="#55d7b3"></path><path d="M2299.232,363.418a20.089,20.089,0,0,1-28.666,0,20.722,20.722,0,0,1,0-29.036,20.089,20.089,0,0,1,28.666,0,20.722,20.722,0,0,1,0,29.036" transform="translate(3840.083 568.259)" fill="#55d7b3"></path><path d="M2432.347,26.785a20.273,20.273,0,1,0-20.274,20.531,20.407,20.407,0,0,0,20.274-20.531" transform="translate(4055.729 10.818)" fill="#55d7b3"></path><path d="M2321.173,652.888l-1.423-1.405,109.383-110.8V412l-88.558-89.7V13.395h2V321.474l88.558,89.7V541.506l-.288.292Z" transform="translate(3934.754 23.181)" fill="#55d7b3"></path><path d="M2347.812,274.6a20.091,20.091,0,0,1-28.667,0,20.718,20.718,0,0,1,0-29.037,20.091,20.091,0,0,1,28.667,0,20.723,20.723,0,0,1,0,29.037" transform="translate(3922.454 414.556)" fill="#55d7b3"></path><path d="M2361.313,26.785a20.272,20.272,0,1,0-20.271,20.531,20.406,20.406,0,0,0,20.271-20.531" transform="translate(3935.283 10.818)" fill="#55d7b3"></path><path d="M2332.62,831.774l-1.423-1.4L3027.74,124.815H4129.6l.294.3,147.839,149.749h964.015l.293.3,365.076,369.8h528.808v2H5606.28l-.294-.3-365.075-369.8H4276.9l-.293-.3L4128.763,126.815H3028.576Z" transform="translate(3954.165 217.729)" fill="#55d7b3"></path><path d="M2359.257,411.363a20.089,20.089,0,0,1-28.666,0,20.722,20.722,0,0,1,0-29.037,20.089,20.089,0,0,1,28.666,0,20.722,20.722,0,0,1,0,29.037" transform="translate(3941.866 651.23)" fill="#55d7b3"></path><path d="M3755.437,349.85a20.534,20.534,0,1,0-20.271-20.534,20.406,20.406,0,0,0,20.271,20.534" transform="translate(6333.637 534.367)" fill="#55d7b3"></path><path d="M4677.181,313.69h-347.05l-.294-.3L4169.875,151.362H3097.024v-2H4170.711l.293.3L4330.967,311.69h346.214Z" transform="translate(5251.557 260.209)" fill="#55d7b3"></path><path d="M3110.151,183.9a20.533,20.533,0,1,1,20.27-20.534,20.4,20.4,0,0,1-20.27,20.534" transform="translate(5239.441 247.197)" fill="#55d7b3"></path><path d="M3695.582,243.357a20.534,20.534,0,1,0-20.272-20.534,20.406,20.406,0,0,0,20.272,20.534" transform="translate(6232.143 350.076)" fill="#55d7b3"></path><path d="M2539.7,231.895l-1.448-1.38L2689.107,72.228l.207-.08,2.2-.857H3826.179l.293.3,144.688,146.56h1082.6l79.135-80.158h820.279v2H5133.728l-79.135,80.158H3970.325L3825.344,73.29H2691.888l-1.64.64Z" transform="translate(4305.282 125.101)" fill="#55d7b3"></path><path d="M2566.569,157.492a20.093,20.093,0,0,1-28.664.511,20.722,20.722,0,0,1-.5-29.031,20.09,20.09,0,0,1,28.663-.513,20.725,20.725,0,0,1,.5,29.034" transform="translate(4292.974 212.336)" fill="#55d7b3"></path><path d="M3817.9,130.263a20.534,20.534,0,1,0-20.272-20.534,20.407,20.407,0,0,0,20.272,20.534" transform="translate(6439.545 154.361)" fill="#55d7b3"></path><path d="M4771.969,159.078h-643l-.293-.3L4011.834,40.43H2545.927v-2H4012.67l.293.3L4129.8,157.078h641.331L4889.742,36.934H6144.824v2H4890.579Z" transform="translate(4317.072 65.646)" fill="#55d7b3"></path><path d="M2559.054,72.027a20.534,20.534,0,1,1,20.272-20.534,20.407,20.407,0,0,1-20.272,20.534" transform="translate(4304.958 53.581)" fill="#55d7b3"></path><path d="M3893.364,71.479a20.534,20.534,0,1,0-20.271-20.534,20.407,20.407,0,0,0,20.271,20.534" transform="translate(6567.519 52.633)" fill="#55d7b3"></path><path d="M3926.084,380.427H3651.375l-.294-.3L3442.364,168.711h-752v-2H3443.2l209.01,211.716h273.038l73.527-74.478h489.349v2H3999.611Z" transform="translate(4561.985 290.233)" fill="#55d7b3"></path><path d="M2703.489,201.257a20.534,20.534,0,1,1,20.269-20.534,20.4,20.4,0,0,1-20.269,20.534" transform="translate(4549.872 277.22)" fill="#55d7b3"></path><path d="M3369.641,251.517a20.534,20.534,0,1,0-20.269-20.534,20.4,20.4,0,0,0,20.269,20.534" transform="translate(5679.457 364.197)" fill="#55d7b3"></path><path d="M3298.8,961.143H2923.927v-2h374.04l93.8-95.01h1494.75v2H3392.6Z" transform="translate(4958.038 1497.155)" fill="#55d7b3"></path><path d="M2937.055,933.474a20.534,20.534,0,1,1,20.271-20.534,20.406,20.406,0,0,1-20.271,20.534" transform="translate(4945.925 1544.357)" fill="#55d7b3"></path><path d="M3664.351,898.679a20.534,20.534,0,1,0-20.268-20.534,20.407,20.407,0,0,0,20.268,20.534" transform="translate(6179.189 1484.143)" fill="#55d7b3"></path><path d="M1771.149,877.7h48.919V843.66h-48.919a8.5,8.5,0,0,0-8.44,8.549v16.943a8.5,8.5,0,0,0,8.44,8.55" transform="translate(2988.987 1459.995)" fill="#55d7b3"></path><path d="M1771.149,902.719h48.919V868.677h-48.919a8.5,8.5,0,0,0-8.44,8.549v16.943a8.5,8.5,0,0,0,8.44,8.549" transform="translate(2988.987 1503.288)" fill="#55d7b3"></path><path d="M1771.149,927.738h48.919V893.694h-48.919a8.5,8.5,0,0,0-8.44,8.552v16.943a8.5,8.5,0,0,0,8.44,8.549" transform="translate(2988.987 1546.581)" fill="#55d7b3"></path><path d="M1771.149,952.757h48.919V918.712h-48.919a8.5,8.5,0,0,0-8.44,8.552v16.943a8.5,8.5,0,0,0,8.44,8.549" transform="translate(2988.987 1589.876)" fill="#55d7b3"></path><path d="M1771.149,977.773h48.919V943.731h-48.919a8.5,8.5,0,0,0-8.44,8.549v16.943a8.5,8.5,0,0,0,8.44,8.549" transform="translate(2988.987 1633.172)" fill="#55d7b3"></path><path d="M1771.149,1002.791h48.919V968.749h-48.919a8.5,8.5,0,0,0-8.44,8.549v16.943a8.5,8.5,0,0,0,8.44,8.549" transform="translate(2988.987 1676.467)" fill="#55d7b3"></path><path d="M1771.149,1027.809h48.919V993.767h-48.919a8.5,8.5,0,0,0-8.44,8.549v16.943a8.5,8.5,0,0,0,8.44,8.549" transform="translate(2988.987 1719.762)" fill="#55d7b3"></path><path d="M1771.149,1052.827h48.919v-34.042h-48.919a8.5,8.5,0,0,0-8.44,8.55v16.943a8.5,8.5,0,0,0,8.44,8.549" transform="translate(2988.987 1763.057)" fill="#55d7b3"></path><path d="M1771.149,1077.844h48.919V1043.8h-48.919a8.5,8.5,0,0,0-8.44,8.549v16.943a8.5,8.5,0,0,0,8.44,8.55" transform="translate(2988.987 1806.35)" fill="#55d7b3"></path><path d="M1771.149,1102.862h48.919V1068.82h-48.919a8.5,8.5,0,0,0-8.44,8.55v16.943a8.5,8.5,0,0,0,8.44,8.549" transform="translate(2988.987 1849.645)" fill="#55d7b3"></path><path d="M1771.149,1127.88h48.919v-34.042h-48.919a8.5,8.5,0,0,0-8.44,8.549v16.943a8.5,8.5,0,0,0,8.44,8.55" transform="translate(2988.987 1892.939)" fill="#55d7b3"></path><path d="M1771.149,1152.9h48.919v-34.042h-48.919a8.5,8.5,0,0,0-8.44,8.55v16.943a8.5,8.5,0,0,0,8.44,8.549" transform="translate(2988.987 1936.234)" fill="#55d7b3"></path><path d="M1771.149,1177.916h48.919v-34.041h-48.919a8.5,8.5,0,0,0-8.44,8.549v16.943a8.5,8.5,0,0,0,8.44,8.549" transform="translate(2988.987 1979.529)" fill="#55d7b3"></path><path d="M2331.357,1070.7H1771.766l-.294-.3L1523.747,819.468H813.094v-2h711.489l.294.3L1772.6,1068.7h557.918l96.928-98.183h981.092v2H2428.285Z" transform="translate(1378.746 1416.399)" fill="#55d7b3"></path><path d="M826.221,810.949a20.534,20.534,0,1,0,20.269,20.534,20.406,20.406,0,0,0-20.269-20.534" transform="translate(1366.632 1403.386)" fill="#55d7b3"></path><path d="M693.374,1158.654H204.192v-2H692.538l230.2-233.181H1823l.294.3,120.866,122.43H3514.115l145.392-147.272h781.537v2h-780.7L3514.952,1048.2H1943.327l-.294-.3-120.866-122.43H923.577Z" transform="translate(346.244 1557.37)" fill="#55d7b3"></path><path d="M217.319,986.8a20.534,20.534,0,1,0,20.269,20.534A20.406,20.406,0,0,0,217.319,986.8" transform="translate(334.13 1707.697)" fill="#55d7b3"></path><path d="M2786.643,946.059H1767.935l-.294-.3L1619.692,795.9H1166.136v-2h454.392l.294.3,147.95,149.861H2786.643Z" transform="translate(1977.391 1375.615)" fill="#55d7b3"></path><path d="M1179.263,787.381a20.534,20.534,0,1,0,20.271,20.534,20.407,20.407,0,0,0-20.271-20.534" transform="translate(1965.276 1362.601)" fill="#55d7b3"></path><path d="M725.571,1059.28a18.92,18.92,0,1,0,18.918-19.163,19.041,19.041,0,0,0-18.918,19.163" transform="translate(1230.335 1799.971)" fill="#23beb0"></path><path d="M695.159,1059.28a18.92,18.92,0,1,0,18.918-19.163,19.041,19.041,0,0,0-18.918,19.163" transform="translate(1178.766 1799.971)" fill="#23beb0"></path><path d="M664.747,1059.28a18.92,18.92,0,1,0,18.918-19.163,19.041,19.041,0,0,0-18.918,19.163" transform="translate(1127.197 1799.971)" fill="#23beb0"></path><path d="M634.334,1059.28a18.92,18.92,0,1,0,18.918-19.163,19.041,19.041,0,0,0-18.918,19.163" transform="translate(1075.626 1799.971)" fill="#23beb0"></path><path d="M603.922,1059.28a18.92,18.92,0,1,0,18.918-19.163,19.041,19.041,0,0,0-18.918,19.163" transform="translate(1024.057 1799.971)" fill="#23beb0"></path><path d="M573.51,1059.28a18.92,18.92,0,1,0,18.918-19.163,19.041,19.041,0,0,0-18.918,19.163" transform="translate(972.488 1799.971)" fill="#23beb0"></path><path d="M543.1,1059.28a18.92,18.92,0,1,0,18.918-19.163A19.041,19.041,0,0,0,543.1,1059.28" transform="translate(920.918 1799.971)" fill="#23beb0"></path><path d="M512.685,1059.28a18.92,18.92,0,1,0,18.918-19.163,19.041,19.041,0,0,0-18.918,19.163" transform="translate(869.349 1799.971)" fill="#23beb0"></path><path d="M725.571,1091.641a18.92,18.92,0,1,0,18.918-19.163,19.042,19.042,0,0,0-18.918,19.163" transform="translate(1230.335 1855.975)" fill="#23beb0"></path><path d="M695.159,1091.641a18.92,18.92,0,1,0,18.918-19.163,19.042,19.042,0,0,0-18.918,19.163" transform="translate(1178.766 1855.975)" fill="#23beb0"></path><path d="M664.747,1091.641a18.92,18.92,0,1,0,18.918-19.163,19.042,19.042,0,0,0-18.918,19.163" transform="translate(1127.197 1855.975)" fill="#23beb0"></path><path d="M634.334,1091.641a18.92,18.92,0,1,0,18.918-19.163,19.042,19.042,0,0,0-18.918,19.163" transform="translate(1075.626 1855.975)" fill="#23beb0"></path><path d="M603.922,1091.641a18.92,18.92,0,1,0,18.918-19.163,19.042,19.042,0,0,0-18.918,19.163" transform="translate(1024.057 1855.975)" fill="#23beb0"></path><path d="M573.51,1091.641a18.92,18.92,0,1,0,18.918-19.163,19.042,19.042,0,0,0-18.918,19.163" transform="translate(972.488 1855.975)" fill="#23beb0"></path><path d="M543.1,1091.641a18.92,18.92,0,1,0,18.918-19.163,19.042,19.042,0,0,0-18.918,19.163" transform="translate(920.918 1855.975)" fill="#23beb0"></path><path d="M512.685,1091.641a18.92,18.92,0,1,0,18.918-19.163,19.042,19.042,0,0,0-18.918,19.163" transform="translate(869.349 1855.975)" fill="#23beb0"></path><rect width="80.045" height="5.461" transform="translate(3465.092 2363.776)" fill="#23beb0"></rect><rect width="80.045" height="5.461" transform="translate(3465.092 2320.458)" fill="#23beb0"></rect><rect width="80.045" height="5.461" transform="translate(3465.092 2277.144)" fill="#23beb0"></rect><rect width="80.048" height="5.461" transform="translate(3358.187 2363.776)" fill="#23beb0"></rect><rect width="80.048" height="5.461" transform="translate(3358.187 2320.458)" fill="#23beb0"></rect><rect width="80.048" height="5.461" transform="translate(3358.187 2277.144)" fill="#23beb0"></rect><rect width="80.048" height="5.461" transform="translate(3251.281 2363.776)" fill="#23beb0"></rect><rect width="80.048" height="5.461" transform="translate(3251.281 2320.458)" fill="#23beb0"></rect><rect width="80.048" height="5.461" transform="translate(3251.281 2277.144)" fill="#23beb0"></rect><path d="M966.146,1244.012H127.855v-2H965.31l140.459-142.273h977.793l.293.3,64.516,65.351h1595.3l238.357-241.441h584.369v2H3982.861L3744.5,1167.387H2147.535l-64.809-65.648H1106.6Z" transform="translate(216.801 1600.665)" fill="#55d7b3"></path><path d="M140.982,1033.911a20.534,20.534,0,1,0,20.269,20.533,20.406,20.406,0,0,0-20.269-20.533" transform="translate(204.685 1789.233)" fill="#55d7b3"></path><path d="M1508.345,1118.486l-1.423-1.405L1674.34,947.5h549.293v2H1675.176Z" transform="translate(2556.461 1641.42)" fill="#55d7b3"></path><path d="M1506.316,1008.722a20.723,20.723,0,0,0,0,29.036,20.089,20.089,0,0,0,28.665,0,20.722,20.722,0,0,0,0-29.036,20.089,20.089,0,0,0-28.665,0" transform="translate(2544.161 1735.236)" fill="#55d7b3"></path><path d="M1540.544,1095.75l-1.423-1.405L1657.334,974.6h528.248v2H1658.17Z" transform="translate(2611.059 1688.327)" fill="#55d7b3"></path><path d="M1538.515,1017.574a20.723,20.723,0,0,0,0,29.036,20.09,20.09,0,0,0,28.666,0,20.723,20.723,0,0,0,0-29.036,20.09,20.09,0,0,0-28.666,0" transform="translate(2598.76 1750.556)" fill="#55d7b3"></path><path d="M1570.158,1074.264l-1.423-1.405,73.459-74.41h493.172v2H1643.03Z" transform="translate(2661.275 1729.594)" fill="#55d7b3"></path><path d="M1568.129,1024.819a20.723,20.723,0,0,0,0,29.037,20.089,20.089,0,0,0,28.666,0,20.723,20.723,0,0,0,0-29.037,20.09,20.09,0,0,0-28.666,0" transform="translate(2648.976 1763.093)" fill="#55d7b3"></path><path d="M2217.6,1104.3H1242.948v-2h973.817l77.28-78.279H2689v2H2294.88Z" transform="translate(2107.64 1773.843)" fill="#55d7b3"></path><path d="M1256.076,1046.166a20.534,20.534,0,1,0,20.269,20.534,20.406,20.406,0,0,0-20.269-20.534" transform="translate(2095.525 1810.441)" fill="#55d7b3"></path><path d="M1704.2,1147.5H826.781v-2h876.58l111.6-113.051h675.672v2H1815.8Z" transform="translate(1401.954 1788.438)" fill="#55d7b3"></path><path d="M1456.386,1025.932a20.534,20.534,0,1,1-20.269,20.534,20.406,20.406,0,0,1,20.269-20.534" transform="translate(2435.192 1775.425)" fill="#55d7b3"></path><path d="M839.909,1067.334a20.534,20.534,0,1,0,20.269,20.534,20.406,20.406,0,0,0-20.269-20.534" transform="translate(1389.84 1847.073)" fill="#55d7b3"></path><path d="M2356.889,1179.542H1727.055l-.294-.3-51.01-51.67h-462.5v-2h463.334l.294.3,51.01,51.67h628.163L2484.7,1047.229h254.653v2H2485.538Z" transform="translate(2057.286 1814.011)" fill="#55d7b3"></path><path d="M1226.381,1069.4a20.534,20.534,0,1,0,20.272,20.534,20.407,20.407,0,0,0-20.272-20.534" transform="translate(2045.173 1850.652)" fill="#55d7b3"></path><path d="M2222.984,1225.23H1016.633v-2H2222.149l97.875-99.141h722.989v2H2320.859Z" transform="translate(1723.882 1947.021)" fill="#55d7b3"></path><path d="M1029.762,1153.877a20.534,20.534,0,1,0,20.269,20.534,20.406,20.406,0,0,0-20.269-20.534" transform="translate(1711.77 1996.84)" fill="#55d7b3"></path><path d="M2098.589,1176.82H1411.981v-2h685.772l99.077-100.359h205.545v2H2197.667Z" transform="translate(2394.265 1861.137)" fill="#55d7b3"></path><path d="M1425.109,1104.695a20.534,20.534,0,1,0,20.268,20.534,20.407,20.407,0,0,0-20.268-20.534" transform="translate(2382.152 1911.729)" fill="#55d7b3"></path><path d="M175.933,1H0V-1H175.933Z" transform="translate(4620.707 3003.798)" fill="#55d7b3"></path><path d="M1727.245,1092.552a20.534,20.534,0,1,0,20.271,20.534,20.406,20.406,0,0,0-20.271-20.534" transform="translate(2894.477 1890.714)" fill="#55d7b3"></path><path d="M3360.463,1261.4H1456.947l-.294-.3-105.4-106.765H377.686v-2h974.4l.294.3,105.4,106.764H3359.627l110.491-111.919h656.344v2H3470.953Z" transform="translate(640.434 1987.508)" fill="#55d7b3"></path><path d="M390.814,1142.744a20.534,20.534,0,1,0,20.269,20.534,20.406,20.406,0,0,0-20.269-20.534" transform="translate(628.32 1977.574)" fill="#55d7b3"></path><path d="M2769.861,2475.877H1432.583l-.294-.3-275.341-278.9H398.505v-2h759.278l.294.3,275.342,278.9H2769.026l759.911-769.741V1343.463l.288-.292,119.513-121.055h345.969v2H3649.573l-118.636,120.168v360.673l-.289.292Z" transform="translate(675.736 2116.66)" fill="#55d7b3"></path><path d="M1744.941,1215.595a20.534,20.534,0,1,1-20.269,20.534,20.407,20.407,0,0,1,20.269-20.534" transform="translate(2924.488 2103.646)" fill="#55d7b3"></path><path d="M411.633,1571.774a20.534,20.534,0,1,0,20.269,20.534,20.406,20.406,0,0,0-20.269-20.534" transform="translate(663.622 2720.031)" fill="#55d7b3"></path><path d="M3092.178,2151.735h-886.3l-.293-.3L1975.123,1918H190.313v-2H1975.959l.294.3,230.462,233.443h884.626l524.065-530.844V1445.6l.288-.292,194.2-196.712,1.423,1.405-193.91,196.42v173.291l-.289.292Z" transform="translate(322.709 2161.972)" fill="#55d7b3"></path><path d="M1531.464,1248.059a20.089,20.089,0,0,1,28.666,0,20.728,20.728,0,0,1,0,29.036,20.089,20.089,0,0,1-28.666,0,20.717,20.717,0,0,1,0-29.036" transform="translate(2586.802 2149.421)" fill="#55d7b3"></path><path d="M203.44,1486.308a20.534,20.534,0,1,0,20.269,20.534,20.406,20.406,0,0,0-20.269-20.534" transform="translate(310.594 2572.128)" fill="#55d7b3"></path><path d="M1358.332,1468.31H611.065v-2H1357.5l173.041-175.282H2987.373l107.348-108.736h437.859v2H3095.556l-107.348,108.736H1531.373Z" transform="translate(1036.17 2047.745)" fill="#55d7b3"></path><path d="M624.192,1320.853a20.534,20.534,0,1,1,20.269-20.534,20.406,20.406,0,0,1-20.269,20.534" transform="translate(1024.056 2214.735)" fill="#55d7b3"></path><path d="M1707.217,1216.838a20.534,20.534,0,1,0-20.271-20.534,20.406,20.406,0,0,0,20.271,20.534" transform="translate(2860.517 2034.732)" fill="#55d7b3"></path><path d="M2767.278,1709.346H2289.059l-.294-.3-164.784-166.916H308.288v-2H2124.816l.294.3L2289.9,1707.346h476.547l414.466-419.827h195.127v2H3181.743Z" transform="translate(522.757 2229.843)" fill="#55d7b3"></path><path d="M1458.686,1281a20.534,20.534,0,1,1-20.269,20.534A20.406,20.406,0,0,1,1458.686,1281" transform="translate(2439.092 2216.829)" fill="#55d7b3"></path><path d="M321.415,1373.513a20.534,20.534,0,1,0,20.269,20.534,20.406,20.406,0,0,0-20.269-20.534" transform="translate(510.643 2376.931)" fill="#55d7b3"></path><path d="M1685.735,1450.816H524.6v-2H1684.9l146.391-148.285h765.017v2H1832.127Z" transform="translate(889.551 2252.361)" fill="#55d7b3"></path><path d="M1305.5,1294.011a20.534,20.534,0,1,1-20.269,20.534,20.406,20.406,0,0,1,20.269-20.534" transform="translate(2179.343 2239.349)" fill="#55d7b3"></path><path d="M537.726,1348.318A20.534,20.534,0,1,0,558,1368.851a20.406,20.406,0,0,0-20.269-20.533" transform="translate(877.437 2333.327)" fill="#55d7b3"></path><path d="M1422.117,1453.055H1233.055l-.294-.3-97.217-98.472H1007.78v-2h128.6l97.511,98.77h187.39l90.629-91.8h183.9v2h-183.06Z" transform="translate(1708.87 2341.926)" fill="#55d7b3"></path><path d="M1275.387,1348.318a20.534,20.534,0,1,1-20.269,20.533,20.406,20.406,0,0,1,20.269-20.533" transform="translate(2128.276 2333.327)" fill="#55d7b3"></path><path d="M1020.907,1345.766a20.534,20.534,0,1,0,20.269,20.534,20.407,20.407,0,0,0-20.269-20.534" transform="translate(1696.756 2328.913)" fill="#55d7b3"></path><path d="M2850.31,2828.758h-975.7l-.293-.3-183.147-185.512H589.787v-2H1692l.294.3,183.147,185.513h974.031l671.788-680.477V1869.724l.288-.292,344.869-349.33V1300.7l-103.077-104.41,1.423-1.405,103.654,104.995v221.045l-.288.292-344.869,349.33V2147.1l-.288.292Z" transform="translate(1000.089 2069.017)" fill="#55d7b3"></path><path d="M1766.009,1223.38a20.722,20.722,0,0,1,0-29.037,20.09,20.09,0,0,1,28.666,0,20.723,20.723,0,0,1,0,29.037,20.089,20.089,0,0,1-28.666,0" transform="translate(2984.517 2056.465)" fill="#55d7b3"></path><path d="M602.915,1717.762a20.534,20.534,0,1,0,20.269,20.534,20.407,20.407,0,0,0-20.269-20.534" transform="translate(987.975 2972.67)" fill="#55d7b3"></path><path d="M1777.615,2438.2H1259.677v-2h517.1l435.7-441.336v-270.87l.288-.292,428.345-433.887,1.423,1.405-428.057,433.594v270.87l-.288.292Z" transform="translate(2136.007 2233.303)" fill="#55d7b3"></path><path d="M1770.555,1289.276a20.09,20.09,0,0,1,28.665,0,20.722,20.722,0,0,1,0,29.037,20.089,20.089,0,0,1-28.665,0,20.723,20.723,0,0,1,0-29.037" transform="translate(2992.226 2220.751)" fill="#55d7b3"></path><path d="M1272.805,1702.944a20.534,20.534,0,1,0,20.271,20.534,20.406,20.406,0,0,0-20.271-20.534" transform="translate(2123.895 2947.027)" fill="#55d7b3"></path><path d="M2178.72,1828.168H1499.54l-.294-.3-120.721-122.282H976.641v-2h402.721l.294.3,120.721,122.282H2178.72Z" transform="translate(1656.069 2949.872)" fill="#55d7b3"></path><path d="M1434.945,1741.96a20.534,20.534,0,1,1-20.272,20.534,20.406,20.406,0,0,1,20.272-20.534" transform="translate(2398.83 3014.546)" fill="#55d7b3"></path><path d="M989.769,1697.069a20.534,20.534,0,1,0,20.269,20.534,20.406,20.406,0,0,0-20.269-20.534" transform="translate(1643.955 2936.86)" fill="#55d7b3"></path><path d="M1480.242,2162.819h-2v-166.31l.288-.292,370.033-374.823V1463.953l.288-.292,206.5-209.168,1.423,1.405-206.209,208.876v157.441l-.288.292-370.033,374.823Z" transform="translate(2508.318 2172.175)" fill="#55d7b3"></path><path d="M1691.372,1253.955a20.09,20.09,0,0,1,28.666,0,20.722,20.722,0,0,1,0,29.036,20.09,20.09,0,0,1-28.666,0,20.723,20.723,0,0,1,0-29.036" transform="translate(2857.957 2159.624)" fill="#55d7b3"></path><path d="M1471.722,1600.227a20.272,20.272,0,1,0,20.271-20.531,20.407,20.407,0,0,0-20.271,20.531" transform="translate(2495.567 2733.74)" fill="#55d7b3"></path><path d="M1338.8,1984.536l-1.423-1.405,62.24-63.046H1664.9L1947.135,1634.2V1497.782h2v137.235l-.288.292-283.111,286.776H1400.454Z" transform="translate(2268.969 2591.985)" fill="#55d7b3"></path><path d="M1556.875,1511.172a20.272,20.272,0,1,1,20.272,20.531,20.406,20.406,0,0,1-20.272-20.531" transform="translate(2639.959 2579.621)" fill="#55d7b3"></path><path d="M1336.773,1674.014a20.723,20.723,0,0,0,0,29.037,20.09,20.09,0,0,0,28.666,0,20.723,20.723,0,0,0,0-29.037,20.09,20.09,0,0,0-28.666,0" transform="translate(2256.671 2886.559)" fill="#55d7b3"></path><path d="M2082.308,1768.757H1391.535l-.294-.3-160.1-162.17H740.9v-2H1231.98l.294.3,160.1,162.17h689.1l391.944-397.014,1.423,1.405Z" transform="translate(1256.334 2371.622)" fill="#55d7b3"></path><path d="M1382.018,1369.2a20.09,20.09,0,0,1,28.666,0,20.723,20.723,0,0,1,0,29.037,20.09,20.09,0,0,1-28.666,0,20.722,20.722,0,0,1,0-29.037" transform="translate(2333.392 2359.07)" fill="#55d7b3"></path><path d="M754.031,1448.932a20.534,20.534,0,1,0,20.269,20.534,20.406,20.406,0,0,0-20.269-20.534" transform="translate(1244.219 2507.447)" fill="#55d7b3"></path><path d="M2288.053,1591.877H1907.779l-.294-.3-167.143-169.307H479.49v-2H1741.178l.294.3,167.143,169.307h379.438Z" transform="translate(813.061 2459.58)" fill="#55d7b3"></path><path d="M1162.776,1475.867a20.534,20.534,0,1,1-20.269,20.534,20.409,20.409,0,0,1,20.269-20.534" transform="translate(1937.324 2554.059)" fill="#55d7b3"></path><path d="M492.619,1413.753a20.534,20.534,0,1,0,20.269,20.533,20.406,20.406,0,0,0-20.269-20.533" transform="translate(800.948 2446.568)" fill="#55d7b3"></path><path d="M2512.307,1902.341h-220.68l-.293-.3-80.886-81.935H1447.306l-.294-.3L1215.52,1585.324H510.72v-2h705.637l.294.3,231.492,234.486h763.141l.294.3,80.886,81.936h219.008l392.944-398.027,1.423,1.405Z" transform="translate(866.016 2601.043)" fill="#55d7b3"></path><path d="M1397.11,1501.776a20.09,20.09,0,0,1,28.666,0,20.723,20.723,0,0,1,0,29.036,20.089,20.089,0,0,1-28.666,0,20.723,20.723,0,0,1,0-29.036" transform="translate(2358.983 2588.49)" fill="#55d7b3"></path><path d="M523.848,1525.274a20.534,20.534,0,1,0,20.269,20.533,20.406,20.406,0,0,0-20.269-20.533" transform="translate(853.903 2639.561)" fill="#55d7b3"></path><path d="M1208.181,1444.144h-460.6v-2h459.767l141.132-142.96h631.255l45.732-46.327h474.615v2H2026.3l-45.732,46.327H1349.313Z" transform="translate(1267.652 2169.861)" fill="#55d7b3"></path><path d="M1410.071,1246.338a20.534,20.534,0,1,1-20.274,20.534,20.408,20.408,0,0,1,20.274-20.534" transform="translate(2356.648 2156.849)" fill="#55d7b3"></path><path d="M760.707,1315.659a20.534,20.534,0,1,0,20.268,20.533,20.406,20.406,0,0,0-20.268-20.533" transform="translate(1255.539 2276.812)" fill="#55d7b3"></path><path d="M3994.707,1571.219H3648.738l-.294-.3-119.507-121.05V1089.2L2769.025,319.456H1433.419l-275.636,279.2H398.505v-2h758.443l275.635-279.2H2769.861l.294.3,760.782,770.623V1449.05l118.637,120.169h345.133Z" transform="translate(675.736 551.104)" fill="#55d7b3"></path><path d="M1744.941,769.365a20.534,20.534,0,1,1-20.269,20.534,20.406,20.406,0,0,1,20.269-20.534" transform="translate(2924.488 1331.423)" fill="#55d7b3"></path><path d="M411.633,413.187A20.534,20.534,0,1,0,431.9,433.721a20.406,20.406,0,0,0-20.269-20.534" transform="translate(663.622 715.04)" fill="#55d7b3"></path><path d="M3124.2,1322.71l-194.488-197V952.415L2405.649,421.571H1521.021L1290.266,655.312H594.689v-2H1289.43l230.756-233.741h886.3l.294.3,524.935,531.725v173.292L3125.624,1321.3Z" transform="translate(1008.402 727.819)" fill="#55d7b3"></path><path d="M1560.129,748.929a20.723,20.723,0,0,1,0,29.037,20.085,20.085,0,0,1-28.666,0,20.723,20.723,0,0,1,0-29.037,20.09,20.09,0,0,1,28.666,0" transform="translate(2586.803 1285.652)" fill="#55d7b3"></path><path d="M607.817,498.653a20.534,20.534,0,1,0,20.269,20.534,20.406,20.406,0,0,0-20.269-20.534" transform="translate(996.289 862.943)" fill="#55d7b3"></path><path d="M3798.872,997.711H3361.015l-107.35-108.736H1796.832l-.294-.3-172.75-174.985H454.023v-2h1170.6l.294.3,172.75,174.985H3254.5l.294.3,107.056,108.439h437.021Z" transform="translate(769.877 1233.349)" fill="#55d7b3"></path><path d="M467.15,746.238A20.534,20.534,0,1,1,487.419,725.7a20.406,20.406,0,0,1-20.269,20.534" transform="translate(757.763 1220.336)" fill="#55d7b3"></path><path d="M1707.217,850.253a20.534,20.534,0,1,0-20.271-20.534,20.406,20.406,0,0,0,20.271,20.534" transform="translate(2860.517 1400.339)" fill="#55d7b3"></path><path d="M3276.01,978.557H3080.883l-.294-.3L2666.417,558.73H2189.87L2024.792,725.943H367.276v-2h1656.68L2189.034,556.73h478.219l.294.3,414.172,419.53H3276.01Z" transform="translate(622.782 965.179)" fill="#55d7b3"></path><path d="M1458.686,703.962a20.534,20.534,0,1,1-20.269,20.534,20.407,20.407,0,0,1,20.269-20.534" transform="translate(2439.092 1218.24)" fill="#55d7b3"></path><path d="M380.4,611.448a20.534,20.534,0,1,0,20.269,20.534A20.406,20.406,0,0,0,380.4,611.448" transform="translate(610.668 1058.14)" fill="#55d7b3"></path><path d="M2596.308,793.45H1831.291l-.294-.3L1684.9,645.164H524.6v-2H1685.735l.294.3,146.1,147.988h764.182Z" transform="translate(889.551 1114.757)" fill="#55d7b3"></path><path d="M1305.5,690.95a20.534,20.534,0,1,1-20.269,20.534A20.406,20.406,0,0,1,1305.5,690.95" transform="translate(2179.343 1195.723)" fill="#55d7b3"></path><path d="M537.726,636.644A20.534,20.534,0,1,0,558,657.178a20.406,20.406,0,0,0-20.269-20.534" transform="translate(877.437 1101.743)" fill="#55d7b3"></path><path d="M1136.38,710.312h-128.6v-2h127.764l97.511-98.769h189.062l.294.3,90.335,91.506h183.06v2h-183.9l-.294-.3-90.335-91.506h-187.39Z" transform="translate(1708.87 1056.573)" fill="#55d7b3"></path><path d="M1275.387,636.644a20.534,20.534,0,1,1-20.269,20.534,20.406,20.406,0,0,1,20.269-20.534" transform="translate(2128.276 1101.743)" fill="#55d7b3"></path><path d="M1020.907,639.2a20.534,20.534,0,1,0,20.269,20.534,20.406,20.406,0,0,0-20.269-20.534" transform="translate(1696.756 1106.158)" fill="#55d7b3"></path><path d="M3764.765,1839.547l-1.423-1.405,103.077-104.41v-219.4l-345.157-349.622V888.147L2849.474,207.67H1875.443L1692,393.481H589.787v-2H1691.166L1874.606,205.67h975.7l672.952,681.656v276.558l345.157,349.622v221.045l-.288.292Z" transform="translate(1000.089 357.652)" fill="#55d7b3"></path><path d="M1794.675,831.68a20.089,20.089,0,0,1-28.666,0,20.722,20.722,0,0,1,0-29.037,20.089,20.089,0,0,1,28.666,0,20.723,20.723,0,0,1,0,29.037" transform="translate(2984.517 1378.609)" fill="#55d7b3"></path><path d="M602.915,267.2a20.534,20.534,0,1,0,20.269,20.534A20.406,20.406,0,0,0,602.915,267.2" transform="translate(987.975 462.401)" fill="#55d7b3"></path><path d="M2641.112,1436.922l-428.634-434.179V731.872l-435.7-441.336h-517.1v-2h517.937l.294.3,436.57,442.218v270.87l428.057,433.6Z" transform="translate(2136.007 501.057)" fill="#55d7b3"></path><path d="M1799.222,707.71a20.724,20.724,0,0,1,0,29.037,20.09,20.09,0,0,1-28.666,0,20.723,20.723,0,0,1,0-29.037,20.09,20.09,0,0,1,28.666,0" transform="translate(2992.228 1214.321)" fill="#55d7b3"></path><path d="M1272.805,282.017a20.534,20.534,0,1,0,20.271,20.534,20.406,20.406,0,0,0-20.271-20.534" transform="translate(2123.895 488.044)" fill="#55d7b3"></path><path d="M1379.362,374.1H976.641v-2h401.885L1499.54,249.52h679.18v2H1500.376Z" transform="translate(1656.069 433.537)" fill="#55d7b3"></path><path d="M1434.945,243a20.534,20.534,0,1,1-20.272,20.534A20.406,20.406,0,0,1,1434.945,243" transform="translate(2398.83 420.525)" fill="#55d7b3"></path><path d="M989.769,287.892a20.534,20.534,0,1,0,20.269,20.534,20.406,20.406,0,0,0-20.269-20.534" transform="translate(1643.955 498.211)" fill="#55d7b3"></path><path d="M2055.349,1320.735l-206.785-209.461V953.834L1478.242,578.719V412.409h2V577.9l370.322,375.115v157.44l206.209,208.876Z" transform="translate(2508.318 713.694)" fill="#55d7b3"></path><path d="M1720.038,743.033a20.723,20.723,0,0,1,0,29.036,20.09,20.09,0,0,1-28.666,0,20.723,20.723,0,0,1,0-29.036,20.09,20.09,0,0,1,28.666,0" transform="translate(2857.957 1275.449)" fill="#55d7b3"></path><path d="M1512.262,425.8a20.272,20.272,0,1,0-20.271,20.534,20.406,20.406,0,0,0,20.271-20.534" transform="translate(2495.567 701.331)" fill="#55d7b3"></path><path d="M1949.135,810.264h-2V673.85L1664.9,387.961H1399.618l-.294-.3-61.947-62.748,1.423-1.405,61.653,62.451h265.282l.294.3,283.106,286.77Z" transform="translate(2268.969 561.066)" fill="#55d7b3"></path><path d="M1597.415,514.854a20.272,20.272,0,1,1-20.271-20.531,20.406,20.406,0,0,1,20.271,20.531" transform="translate(2639.959 855.45)" fill="#55d7b3"></path><path d="M1365.439,322.973a20.09,20.09,0,0,0-28.666,0,20.723,20.723,0,0,0,0,29.037,20.089,20.089,0,0,0,28.666,0,20.723,20.723,0,0,0,0-29.037" transform="translate(2256.671 548.515)" fill="#55d7b3"></path><path d="M2473.415,882.062,2081.472,485.049h-689.1L1231.98,647.516H740.9v-2h490.241l160.391-162.468h690.773l.294.3,392.237,397.311Z" transform="translate(1256.334 837.67)" fill="#55d7b3"></path><path d="M1410.684,627.783a20.722,20.722,0,0,1,0,29.037,20.089,20.089,0,0,1-28.665,0,20.723,20.723,0,0,1,0-29.037,20.089,20.089,0,0,1,28.665,0" transform="translate(2333.394 1076.003)" fill="#55d7b3"></path><path d="M754.031,536.029A20.534,20.534,0,1,0,774.3,556.563a20.406,20.406,0,0,0-20.269-20.534" transform="translate(1244.219 927.624)" fill="#55d7b3"></path><path d="M1741.178,687.219H479.49v-2H1740.343l167.437-169.605h380.274v2H1908.615Z" transform="translate(813.061 894.025)" fill="#55d7b3"></path><path d="M1162.776,509.094a20.534,20.534,0,1,1-20.269,20.534,20.408,20.408,0,0,1,20.269-20.534" transform="translate(1937.324 881.012)" fill="#55d7b3"></path><path d="M492.619,571.208a20.534,20.534,0,1,0,20.269,20.534,20.406,20.406,0,0,0-20.269-20.534" transform="translate(800.948 988.503)" fill="#55d7b3"></path><path d="M2904.415,750.133,2511.471,352.107H2292.463l-81.18,82.233H1448.142L1216.356,669.124H510.72v-2h704.8L1447.306,432.34h763.141l81.18-82.233h220.68l.294.3,393.237,398.324Z" transform="translate(866.016 607.607)" fill="#55d7b3"></path><path d="M1425.776,495.212a20.723,20.723,0,0,1,0,29.037,20.09,20.09,0,0,1-28.666,0,20.723,20.723,0,0,1,0-29.037,20.09,20.09,0,0,1,28.666,0" transform="translate(2358.983 846.583)" fill="#55d7b3"></path><path d="M523.848,459.687a20.534,20.534,0,1,0,20.269,20.534,20.406,20.406,0,0,0-20.269-20.534" transform="translate(853.903 795.511)" fill="#55d7b3"></path><path d="M2500.079,867.108H2025.464l-.293-.3-45.438-46.029H1348.477l-.294-.3L1207.345,677.821H747.578v-2h460.6l.293.3,140.839,142.663h631.255l.294.3,45.438,46.029h473.778Z" transform="translate(1267.652 1171.271)" fill="#55d7b3"></path><path d="M1410.071,738.623a20.534,20.534,0,1,1-20.274,20.534,20.408,20.408,0,0,1,20.274-20.534" transform="translate(2356.648 1278.223)" fill="#55d7b3"></path><path d="M760.707,669.3a20.533,20.533,0,1,0,20.268,20.534A20.4,20.4,0,0,0,760.707,669.3" transform="translate(1255.539 1158.26)" fill="#55d7b3"></path><path d="M2418.045,1211.991h-122.29l-.294-.3-99.916-101.208H1784.162l-65.521,66.369H865.458v-2H1717.8l65.521-66.369h413.056l.294.3,99.916,101.208h120.618l40.017-40.535,1.423,1.405Z" transform="translate(1467.539 1920.018)" fill="#55d7b3"></path><path d="M1454.363,1130.465a20.089,20.089,0,0,1,28.666,0,20.727,20.727,0,0,1,0,29.036,20.089,20.089,0,0,1-28.666,0,20.722,20.722,0,0,1,0-29.036" transform="translate(2456.066 1945.919)" fill="#55d7b3"></path><path d="M878.586,1126.272a20.534,20.534,0,1,0,20.269,20.534,20.406,20.406,0,0,0-20.269-20.534" transform="translate(1455.424 1949.068)" fill="#55d7b3"></path><path d="M1495.236,3060.89h-2V2664.182l.288-.292,621.389-629.427V1604.145l.288-.292,232.769-235.781,1.423,1.405-232.481,235.488v430.318l-.288.292L1495.236,2665Z" transform="translate(2533.742 2368.731)" fill="#55d7b3"></path><path d="M1809.355,1367.535a20.089,20.089,0,0,1,28.666,0,20.722,20.722,0,0,1,0,29.037,20.089,20.089,0,0,1-28.666,0,20.724,20.724,0,0,1,0-29.037" transform="translate(3058.018 2356.18)" fill="#55d7b3"></path><path d="M1486.716,2001.111a20.272,20.272,0,1,0,20.272-20.534,20.406,20.406,0,0,0-20.272,20.534" transform="translate(2520.992 3427.485)" fill="#55d7b3"></path><path d="M1722.037,2723.732h-2V2069.467l.288-.292,128.161-129.818V1563.6h2v376.574l-.288.292-128.161,129.819Z" transform="translate(2918.325 2705.891)" fill="#55d7b3"></path><path d="M1761.168,1576.993a20.272,20.272,0,1,1,20.272,20.534,20.406,20.406,0,0,1-20.272-20.534" transform="translate(2986.374 2693.528)" fill="#55d7b3"></path><path d="M1713.518,2001.111a20.272,20.272,0,1,0,20.272-20.534,20.406,20.406,0,0,0-20.272,20.534" transform="translate(2905.575 3427.485)" fill="#55d7b3"></path><path d="M1600.421,2547.024h-2V2013.287l.288-.292,343.54-347.984,1.423,1.405-343.252,347.692Z" transform="translate(2712.103 2882.599)" fill="#55d7b3"></path><path d="M1725.013,1664.474a20.09,20.09,0,0,1,28.666,0,20.723,20.723,0,0,1,0,29.037,20.09,20.09,0,0,1-28.666,0,20.723,20.723,0,0,1,0-29.037" transform="translate(2915.001 2870.047)" fill="#55d7b3"></path><path d="M1591.9,2001.111a20.272,20.272,0,1,0,20.271-20.534,20.406,20.406,0,0,0-20.271,20.534" transform="translate(2699.352 3427.485)" fill="#55d7b3"></path><path d="M1727.158,2393.322h-2V2085.243l-88.558-89.7V1865.21l.288-.292,109.671-111.089,1.423,1.405-109.382,110.8v128.686l88.558,89.7Z" transform="translate(2776.842 3036.301)" fill="#55d7b3"></path><path d="M1676.435,1753.291a20.088,20.088,0,0,1,28.666,0,20.722,20.722,0,0,1,0,29.036,20.089,20.089,0,0,1-28.666,0,20.722,20.722,0,0,1,0-29.036" transform="translate(2832.629 3023.749)" fill="#55d7b3"></path><path d="M1662.933,2001.111a20.272,20.272,0,1,0,20.272-20.534,20.406,20.406,0,0,0-20.272,20.534" transform="translate(2819.799 3427.485)" fill="#55d7b3"></path><path d="M3357.039,2324.026H2255.18l-.293-.3L2107.047,2173.98H1143.032l-.293-.3-365.073-369.8H259.71v-2H778.5l.294.3,365.074,369.8h964.014l.293.3,147.839,149.75H3356.2l695.957-704.959,1.424,1.405Z" transform="translate(440.384 2799.627)" fill="#55d7b3"></path><path d="M1664.988,1616.529a20.09,20.09,0,0,1,28.666,0,20.724,20.724,0,0,1,0,29.037,20.091,20.091,0,0,1-28.666,0,20.724,20.724,0,0,1,0-29.037" transform="translate(2813.218 2787.076)" fill="#55d7b3"></path><path d="M272.837,1678.044a20.534,20.534,0,1,0,20.269,20.533,20.406,20.406,0,0,0-20.269-20.533" transform="translate(428.271 2903.937)" fill="#55d7b3"></path><path d="M2255.135,1955.385H1181.448l-.294-.3-159.962-162.031H103.565v-2h918.464l.293.3,159.962,162.031h1072.85Z" transform="translate(175.614 3101.241)" fill="#55d7b3"></path><path d="M914.092,1843.987a20.534,20.534,0,1,1-20.266,20.533,20.408,20.408,0,0,1,20.266-20.533" transform="translate(1515.641 3191.109)" fill="#55d7b3"></path><path d="M116.692,1784.537a20.534,20.534,0,1,0,20.269,20.534,20.406,20.406,0,0,0-20.269-20.534" transform="translate(163.499 3088.228)" fill="#55d7b3"></path><path d="M3312.732,2031.295H2178.065l-.294-.3-144.688-146.56H950.486L871.351,1964.6H277.059v-2H870.515l79.134-80.159h1084.27l.294.3,144.688,146.56H3312.355l1.64-.64,150.551-157.965,1.448,1.38-150.858,158.287Z" transform="translate(469.803 3238.513)" fill="#55d7b3"></path><path d="M1457.677,1870.4a20.091,20.091,0,0,1,28.663-.51,20.721,20.721,0,0,1,.5,29.031,20.089,20.089,0,0,1-28.663.514,20.724,20.724,0,0,1-.5-29.034" transform="translate(2462.109 3225.969)" fill="#55d7b3"></path><path d="M290.186,1897.631a20.534,20.534,0,1,0,20.269,20.534,20.406,20.406,0,0,0-20.269-20.534" transform="translate(457.689 3283.943)" fill="#55d7b3"></path><path d="M1302.759,2041.078H159.083v-2H1301.924l118.61-120.144h643.006l.294.3,116.836,118.35H3646.576v2H2179.833l-.294-.3L2062.7,1920.935H1421.369Z" transform="translate(269.754 3322.539)" fill="#55d7b3"></path><path d="M1465.192,1955.867a20.534,20.534,0,1,1-20.269,20.534,20.406,20.406,0,0,1,20.269-20.534" transform="translate(2450.124 3384.723)" fill="#55d7b3"></path><path d="M172.211,1956.415a20.534,20.534,0,1,0,20.269,20.533,20.406,20.406,0,0,0-20.269-20.533" transform="translate(257.64 3385.671)" fill="#55d7b3"></path><path d="M2439.242,1969.337H1686.4l-.294-.3-208.719-211.418H1204.355l-73.527,74.479H641.478v-2h488.513l73.527-74.479h274.709l.294.3,208.719,211.418h752Z" transform="translate(1087.74 3039.917)" fill="#55d7b3"></path><path d="M1320.758,1826.637a20.534,20.534,0,1,1-20.269,20.534,20.406,20.406,0,0,1,20.269-20.534" transform="translate(2205.21 3161.084)" fill="#55d7b3"></path><path d="M654.606,1776.377a20.534,20.534,0,1,0,20.269,20.534,20.407,20.407,0,0,0-20.269-20.534" transform="translate(1075.626 3074.106)" fill="#55d7b3"></path><path d="M2347.97,1706.213l-233.057-236.072V1039.823L1493.236,410.1V13.4h2V409.283L2116.913,1039V1469.32l232.481,235.488Z" transform="translate(2533.742 23.181)" fill="#55d7b3"></path><path d="M1838.022,631.321a20.722,20.722,0,0,1,0,29.036,20.084,20.084,0,0,1-28.666,0,20.723,20.723,0,0,1,0-29.036,20.089,20.089,0,0,1,28.666,0" transform="translate(3058.02 1082.126)" fill="#55d7b3"></path><path d="M1527.257,26.785a20.272,20.272,0,1,0-20.272,20.531,20.406,20.406,0,0,0,20.272-20.531" transform="translate(2520.992 10.818)" fill="#55d7b3"></path><path d="M1850.486,1173.523h-2V797.771L1720.037,667.66V13.4h2V666.839L1850.486,796.95Z" transform="translate(2918.325 23.181)" fill="#55d7b3"></path><path d="M1801.709,450.9a20.272,20.272,0,1,1-20.272-20.531,20.406,20.406,0,0,1,20.272,20.531" transform="translate(2986.374 744.776)" fill="#55d7b3"></path><path d="M1754.058,26.785a20.272,20.272,0,1,0-20.272,20.531,20.406,20.406,0,0,0,20.272-20.531" transform="translate(2905.575 10.818)" fill="#55d7b3"></path><path d="M1942.25,895.407,1598.421,547.131V13.395h2V546.31L1943.673,894Z" transform="translate(2712.103 23.181)" fill="#55d7b3"></path><path d="M1753.677,334.382a20.722,20.722,0,0,1,0,29.036,20.09,20.09,0,0,1-28.666,0,20.728,20.728,0,0,1,0-29.036,20.089,20.089,0,0,1,28.666,0" transform="translate(2915.002 568.259)" fill="#55d7b3"></path><path d="M1632.441,26.785a20.272,20.272,0,1,0-20.271,20.531,20.406,20.406,0,0,0,20.271-20.531" transform="translate(2699.352 10.818)" fill="#55d7b3"></path><path d="M1746.559,652.888,1636.6,541.506V411.175l.288-.292,88.27-89.409V13.395h2v308.9l-.288.292L1638.6,412V540.685l109.382,110.8Z" transform="translate(2776.842 23.181)" fill="#55d7b3"></path><path d="M1705.1,245.565a20.723,20.723,0,0,1,0,29.037,20.089,20.089,0,0,1-28.666,0,20.723,20.723,0,0,1,0-29.037,20.089,20.089,0,0,1,28.666,0" transform="translate(2832.629 414.556)" fill="#55d7b3"></path><path d="M1703.474,26.785A20.272,20.272,0,1,0,1683.2,47.316a20.406,20.406,0,0,0,20.271-20.531" transform="translate(2819.799 10.818)" fill="#55d7b3"></path><path d="M4116.882,831.774,3420.925,126.815H2320.739L2172.606,276.861H1208.59l-365.367,370.1H221.541v-2H842.388l365.367-370.1H2171.77L2319.9,124.815H3421.761l.294.3,696.25,705.257Z" transform="translate(375.662 217.729)" fill="#55d7b3"></path><path d="M1693.654,382.327a20.723,20.723,0,0,1,0,29.037,20.09,20.09,0,0,1-28.666,0,20.723,20.723,0,0,1,0-29.037,20.09,20.09,0,0,1,28.666,0" transform="translate(2813.218 651.23)" fill="#55d7b3"></path><path d="M234.669,308.785a20.534,20.534,0,1,0,20.269,20.534,20.406,20.406,0,0,0-20.269-20.534" transform="translate(363.548 534.367)" fill="#55d7b3"></path><path d="M674.885,313.69h-366.6v-2h365.76L834.3,149.362H1907.99v2H835.14Z" transform="translate(522.758 260.209)" fill="#55d7b3"></path><path d="M914.092,142.842a20.534,20.534,0,1,1-20.266,20.534,20.409,20.409,0,0,1,20.266-20.534" transform="translate(1515.641 247.195)" fill="#55d7b3"></path><path d="M321.415,202.292a20.533,20.533,0,1,0,20.269,20.534,20.4,20.4,0,0,0-20.269-20.534" transform="translate(510.643 350.076)" fill="#55d7b3"></path><path d="M3558.687,231.895,3408.135,73.929l-1.64-.64H2273.041L2128.06,220.147H1043.79l-.294-.3-78.84-79.86H221.541v-2h743.95l.294.3,78.84,79.86h1082.6L2272.205,71.29H3406.872l2.4.938.153.161,150.7,158.126Z" transform="translate(375.662 125.101)" fill="#55d7b3"></path><path d="M1486.844,128.97a20.725,20.725,0,0,1-.5,29.034,20.09,20.09,0,0,1-28.663-.513,20.721,20.721,0,0,1,.5-29.031,20.092,20.092,0,0,1,28.663.511" transform="translate(2462.109 212.338)" fill="#55d7b3"></path><path d="M234.669,89.2a20.534,20.534,0,1,0,20.269,20.534A20.406,20.406,0,0,0,234.669,89.2" transform="translate(363.548 154.361)" fill="#55d7b3"></path><path d="M2063.539,159.078H1420.533l-.294-.3L1301.923,38.934H159.083v-2H1302.759l.294.3L1421.37,157.078H2062.7L2179.833,38.43H3646.576v2H2180.669Z" transform="translate(269.754 65.646)" fill="#55d7b3"></path><path d="M1465.192,30.962A20.534,20.534,0,1,1,1444.923,51.5a20.406,20.406,0,0,1,20.269-20.534" transform="translate(2450.124 53.581)" fill="#55d7b3"></path><path d="M172.211,30.414a20.534,20.534,0,1,0,20.269,20.534,20.406,20.406,0,0,0-20.269-20.534" transform="translate(257.64 52.633)" fill="#55d7b3"></path><path d="M1478.228,380.427H1203.519l-.294-.3-73.234-74.181H641.478v-2h489.349l.294.3,73.233,74.181h273.037L1686.4,166.711h752.838v2h-752Z" transform="translate(1087.74 290.233)" fill="#55d7b3"></path><path d="M1320.758,160.192a20.534,20.534,0,1,1-20.269,20.534,20.406,20.406,0,0,1,20.269-20.534" transform="translate(2205.21 277.22)" fill="#55d7b3"></path><path d="M654.606,210.452a20.534,20.534,0,1,0,20.269,20.534,20.406,20.406,0,0,0-20.269-20.534" transform="translate(1075.626 364.197)" fill="#55d7b3"></path><path d="M2351.07,961.143H1976.193l-.293-.3-93.5-94.712H322.168v-2H1883.233l.294.3,93.5,94.712H2351.07Z" transform="translate(546.293 1497.155)" fill="#55d7b3"></path><path d="M1087.192,892.409a20.534,20.534,0,1,1-20.269,20.534,20.406,20.406,0,0,1,20.269-20.534" transform="translate(1809.158 1544.357)" fill="#55d7b3"></path><path d="M335.3,857.614a20.534,20.534,0,1,0,20.269,20.534A20.406,20.406,0,0,0,335.3,857.614" transform="translate(534.179 1484.143)" fill="#55d7b3"></path><g style="mix-blend-mode:overlay;isolation:isolate"><g clip-path="url(#a)"><g clip-path="url(#a)"><path d="M0,0H10782.714V5461.1H0Z" fill="none"></path></g></g></g><g transform="translate(5120.021 2517.156)" opacity="0.71"><g clip-path="url(#g)"><g opacity="0.82"><g clip-path="url(#h)"><path d="M267.713,315.662l-160.1-.888L74.654,410.2,0,409.788,153.829,0l64.437.357,158.7,411.522-74.941-.416ZM127.449,257.35l119.788.665L186.392,87.33Z" transform="translate(2.301 0.863)" fill="#a7e5df"></path></g></g><g transform="translate(428.062 2.375)" opacity="0.82"><g clip-path="url(#i)"><path d="M0,0,71.532.4l2.293,410.654-71.532-.4Z" transform="translate(0.009 -0.003)" fill="#a7e5df"></path></g></g></g></g><path d="M379.156,413.391l-78.19-.434-34.312-95.8-157.973-.876L75.721,411.708l-77.881-.432.756-2.015L152.792-1.506l66.505.369.368.955Zm-76.073-3.422,71.692.4L217.234,1.852l-62.368-.346L2.161,408.3l71.426.4,32.962-95.428,162.223.9ZM249.369,259.526l-2.14-.012-121.883-.676L186.372,82.807Zm-119.816-3.665,115.553.641L186.411,91.852Z" transform="translate(5122.322 2518.019)" fill="#99e7d1"></path><path d="M-1.508-1.508l74.533.413L73.032.388l2.3,412.171L.8,412.146l-.008-1.483Zm71.549,3.4L1.508,1.508,3.784,409.163l68.532.38Z" transform="translate(5548.327 2517.18)" fill="#99e7d1"></path></g></g></g></g></svg>