<svg xmlns="http://www.w3.org/2000/svg" width="705" height="134" viewBox="0 0 705 134"><g id="&#x30B0;&#x30EB;&#x30FC;&#x30D7;_20902" data-name="&#x30B0;&#x30EB;&#x30FC;&#x30D7; 20902" transform="translate(23656 21924)"><rect id="&#x9577;&#x65B9;&#x5F62;_6" data-name="&#x9577;&#x65B9;&#x5F62; 6" width="703" height="131" transform="translate(-23655 -21923)" fill="#fff"></rect><path id="&#x9577;&#x65B9;&#x5F62;_6_-_&#x30A2;&#x30A6;&#x30C8;&#x30E9;&#x30A4;&#x30F3;" data-name="&#x9577;&#x65B9;&#x5F62; 6 - &#x30A2;&#x30A6;&#x30C8;&#x30E9;&#x30A4;&#x30F3;" d="M3,3V128H700V3H3M0,0H703V131H0Z" transform="translate(-23655 -21923)" fill="#191722"></path><rect id="&#x9577;&#x65B9;&#x5F62;_7" data-name="&#x9577;&#x65B9;&#x5F62; 7" width="661" height="134" transform="translate(-23633 -21924)" fill="#fff"></rect><rect id="&#x9577;&#x65B9;&#x5F62;_8" data-name="&#x9577;&#x65B9;&#x5F62; 8" width="705" height="99" transform="translate(-23656 -21907)" fill="#fff"></rect><path id="&#x30D1;&#x30B9;_36599" data-name="&#x30D1;&#x30B9; 36599" d="M26.5.672c-.384-.8-.96-2.208-1.568-3.84l-7.04-18.848A21.667,21.667,0,0,1,16.8-25.344H9.92A24.569,24.569,0,0,1,8.9-22.016L1.92-3.168A29.745,29.745,0,0,1,.288.672H6.624A15.978,15.978,0,0,1,7.488-2.72l1.088-3.1H18.24l1.088,3.1A22.885,22.885,0,0,1,20.16.672ZM16.9-10.336H9.92l3.008-9.056c.224-.64.256-.8.448-1.472.256.864.384,1.184.48,1.472ZM30.528-25.344a26.717,26.717,0,0,1,.256,4.416V-3.744A27.466,27.466,0,0,1,30.528.672h5.888a26.964,26.964,0,0,1-.256-4.416V-20.928a26.471,26.471,0,0,1,.256-4.416ZM53.92-13.984v1.248H47.488a21.493,21.493,0,0,1-3.2-.16v3.232a29.732,29.732,0,0,1,3.2-.128H53.92v1.216H45.7a31.263,31.263,0,0,1-3.968-.192v3.584a37.229,37.229,0,0,1,4-.192H51.04c-2.592,1.984-5.6,3.232-10.048,4.1a13.849,13.849,0,0,1,2.24,3.68,29.5,29.5,0,0,0,6.24-2.592,18.87,18.87,0,0,0,4.544-3.392c-.064,1.152-.064,1.248-.064,2.016v1.28a23.548,23.548,0,0,1-.192,3.2h4.288a21.65,21.65,0,0,1-.192-3.2V-1.6c0-.8,0-.96-.064-2.048C60.576-.864,64.128,1.024,69.184,2.4A15.1,15.1,0,0,1,71.3-1.44c-4.672-.768-8-2.016-10.464-3.936h5.792a36.832,36.832,0,0,1,3.936.192V-8.768a29.9,29.9,0,0,1-3.968.192h-8.7V-9.792H64.7a29.732,29.732,0,0,1,3.2.128V-12.9a22.566,22.566,0,0,1-3.2.16H57.888v-1.248h8.32a30.9,30.9,0,0,1,3.2.128v-3.392a28.251,28.251,0,0,1-3.2.128H62.88c.32-.608.352-.672.928-1.888h2.944c1.568,0,2.912.064,3.9.16V-22.56a27.32,27.32,0,0,1-3.68.192h-.448a26.25,26.25,0,0,0,1.792-2.848l-3.872-1.376a17.715,17.715,0,0,1-2.176,4.224h-1.5v-2.176a15.854,15.854,0,0,1,.16-2.432H56.8a14.3,14.3,0,0,1,.128,2.24v2.368H55.04v-2.368a20.121,20.121,0,0,1,.1-2.24h-4.1a16.818,16.818,0,0,1,.16,2.432v2.176H49.792a21.276,21.276,0,0,0-2.272-4.16l-3.84,1.376a13.169,13.169,0,0,1,1.952,2.784h-.48A27.783,27.783,0,0,1,41.5-22.56v3.712c.992-.1,2.3-.16,3.84-.16h3.168a16.387,16.387,0,0,1,.96,1.888h-3.52a27.627,27.627,0,0,1-3.168-.128v3.392a30.241,30.241,0,0,1,3.168-.128Zm-.288-3.136c-.288-.8-.448-1.152-.768-1.888h6.528a18.063,18.063,0,0,1-.832,1.888Zm29.6,4.512a12.839,12.839,0,0,1-4,2.752,31.5,31.5,0,0,1-4.8,1.728,16.583,16.583,0,0,1,2.048,3.9A26.584,26.584,0,0,0,83.456-7.9c0,2.976-.96,4.608-3.456,5.888a15.059,15.059,0,0,1-4.224,1.44,11.749,11.749,0,0,1,2.5,3.616C81.856,1.888,83.52.992,85.056-.608a10.9,10.9,0,0,0,2.592-7.2,10.655,10.655,0,0,1,.128-1.408h-2.72a16.04,16.04,0,0,0,3.072-3.392h2.944a20.628,20.628,0,0,0,3.3,3.392H92.256a18.525,18.525,0,0,1,.128,2.56v5.7a29.733,29.733,0,0,1-.192,3.68H96.8a30.276,30.276,0,0,1-.192-3.648v-6.56a32.748,32.748,0,0,0,6.528,3.3,17.617,17.617,0,0,1,1.952-4.128,31.5,31.5,0,0,1-4.864-1.7A14.854,14.854,0,0,1,96.1-12.608h2.4c1.6,0,2.56.032,3.584.128a25.122,25.122,0,0,1-.16-3.488v-6.656a25.588,25.588,0,0,1,.16-3.552c-1.024.1-1.952.128-3.584.128H81.056c-1.664,0-2.592-.032-3.616-.128a26.448,26.448,0,0,1,.16,3.552v6.656a25.98,25.98,0,0,1-.16,3.488c.992-.1,2.016-.128,3.52-.128Zm-1.6-10.048h5.984v1.888H81.632Zm0,4.96h5.984v1.92H81.632Zm9.952-4.96h6.3v1.888h-6.3Zm0,4.96h6.3v1.92h-6.3Zm34.624-2.5a6.224,6.224,0,0,1,2.976,1.024,7.777,7.777,0,0,1,3.424,6.688,8.789,8.789,0,0,1-4.416,7.872,16.043,16.043,0,0,1-6.336,1.536,13.121,13.121,0,0,1,2.368,4.544A22.843,22.843,0,0,0,129.312.16c5.12-2.016,8.032-6.528,8.032-12.352,0-7.488-5.12-12.288-13.152-12.288a14.845,14.845,0,0,0-11.264,4.608,13.805,13.805,0,0,0-3.584,9.5c0,5.5,2.816,9.376,6.784,9.376,2.752,0,4.864-1.888,6.656-5.952A45.148,45.148,0,0,0,126.208-20.192Zm-4.672.064a41.2,41.2,0,0,1-2.56,10.3c-1.024,2.592-2.016,3.84-2.944,3.84-1.248,0-2.272-1.952-2.272-4.352a10.491,10.491,0,0,1,3.936-8.192A7.191,7.191,0,0,1,121.536-20.128ZM145.28-2.816c-1.216.1-2.048.128-2.656.128h-.48l.832,3.936c1.184-.224,1.184-.224,3.872-.608C148.9.352,151.008,0,153.44-.448a23.08,23.08,0,0,1-.16,3.264h4.128a23.134,23.134,0,0,1-.192-3.072,10.469,10.469,0,0,1,1.568,2.816,23.683,23.683,0,0,0,4.8-2.88,26.959,26.959,0,0,0,6.5,3.072,16.224,16.224,0,0,1,1.856-3.808A23.373,23.373,0,0,1,166.4-2.848a29.363,29.363,0,0,0,3.488-4.96,12.078,12.078,0,0,1,.64-1.088l-1.952-2.144a14.562,14.562,0,0,1-2.368.128h-5.472a19.108,19.108,0,0,1-2.688-.128v3.52a18.1,18.1,0,0,1,2.5-.128h.7l-3.008,1.28a21.632,21.632,0,0,0,2.5,3.52,21.312,21.312,0,0,1-3.52,1.7V-12.1H168.16a26.159,26.159,0,0,1,3.552.16v-3.488a24.016,24.016,0,0,1-3.488.16H145.76a24.017,24.017,0,0,1-3.488-.16v3.488a25.4,25.4,0,0,1,3.008-.16Zm3.808-9.28h4.352v1.088h-4.352Zm0,3.616h4.352v1.216h-4.352Zm0,3.744h4.352v1.024c-2.624.384-2.624.384-4.352.576Zm16.544-2.912a15.889,15.889,0,0,1-2.144,2.656A10.937,10.937,0,0,1,161.6-7.648Zm2.816-15.744a22.645,22.645,0,0,1,.128-2.88,33.33,33.33,0,0,1-3.392.128H148.928a33.735,33.735,0,0,1-3.392-.128,22.968,22.968,0,0,1,.128,2.88v4.352a22.729,22.729,0,0,1-.128,2.848c.96-.064,1.792-.1,3.232-.1h17.024c2.08.032,2.08.032,2.784.1a23.3,23.3,0,0,1-.128-2.88Zm-18.816-.1h14.816V-22.3H149.632Zm0,3.488h14.816v1.184H149.632Zm30.08-3.2a22.573,22.573,0,0,1-3.52-.192v4.064a26.213,26.213,0,0,1,3.52-.16h21.7a25.073,25.073,0,0,1,3.52.16v-4.064a25.037,25.037,0,0,1-3.52.192h-4.16a26.035,26.035,0,0,0,2.144-3.04l-4.384-1.088a14.787,14.787,0,0,1-2.432,4.128h-4.16a28.072,28.072,0,0,0-2.624-4.16l-4.224,1.088a15.741,15.741,0,0,1,2.176,3.072Zm2.016,19.3h4.64v1.952c0,.7-.128.864-.768.864a12.534,12.534,0,0,1-2.208-.192,13.583,13.583,0,0,1,.9,3.616c1.088.064,1.568.064,1.824.064,3.392,0,4.192-.64,4.192-3.424V-14.848c0-1.632.032-2.336.1-3.1a26.864,26.864,0,0,1-2.816.1h-6.976c-1.216,0-2.048-.032-2.976-.1a20.5,20.5,0,0,1,.128,2.88V-1.12a25.474,25.474,0,0,1-.192,3.744h4.32a25.173,25.173,0,0,1-.16-3.456Zm0-3.36V-9.152h4.64v1.888Zm0-5.248v-1.824h4.64v1.824ZM192.7-17.344a26.949,26.949,0,0,1,.128,3.04v7.072a29.617,29.617,0,0,1-.128,3.36h4.256a28.487,28.487,0,0,1-.128-3.392v-7.008a25.456,25.456,0,0,1,.128-3.072Zm6.432-.832a20.892,20.892,0,0,1,.16,3.264v12.64c0,.832-.192.96-1.472.96a33.993,33.993,0,0,1-3.776-.288A15.135,15.135,0,0,1,195.2,2.368c2.432.1,2.624.1,3.552.1,2.144,0,3.168-.256,3.872-1.024.544-.544.736-1.408.736-2.976v-13.28a23.932,23.932,0,0,1,.16-3.36Zm10.656,8.288c.672-.1.96-.128,1.856-.192.864-.032,1.088-.064,2.4-.128V-.64a27.338,27.338,0,0,1-.192,3.456h3.968a18.844,18.844,0,0,1-.192-3.424V-10.5c.736-.064,1.024-.1,1.12-.1.64-.1.64-.1.992-.128l.192.9,1.12-.48v3.3a11.825,11.825,0,0,1,1.7-.1h1.28a11.767,11.767,0,0,1-1.92,3.424,14.476,14.476,0,0,1-2.88,2.5,14.535,14.535,0,0,1,2.592,3.072,26.037,26.037,0,0,0,2.784-2.944,11.976,11.976,0,0,1,.8,3.456c.544.032,1.568.064,2.24.064,2.944,0,4.1-.864,4.128-3.072V-2.56c0-.544-.064-1.728-.224-3.456a18.891,18.891,0,0,0,5.824,7.808,13.906,13.906,0,0,1,2.4-3.808,18.1,18.1,0,0,1-4.544-4.128,34.852,34.852,0,0,0,3.936-3.648L236.48-12.16a17.927,17.927,0,0,1-3.168,3.232,17.271,17.271,0,0,1-1.5-3.456h2.816c.992,0,2.112.032,3.04.1a25.974,25.974,0,0,1-.128-3.136V-21.5a29.9,29.9,0,0,1,.128-3.264,23.75,23.75,0,0,1-3.1.128h-3.328c.416-.928.512-1.184.9-2.208l-4.256-.544a18.533,18.533,0,0,1-.864,2.752H225.28a25.043,25.043,0,0,1-3.1-.128c.1.928.128,2.08.128,3.2v6.144c0,.992-.032,2.176-.1,2.88a43.882,43.882,0,0,0-1.536-4.768l-2.56.928a23.418,23.418,0,0,1,.832,2.528c-.96.1-1.5.128-2.976.192,1.408-1.792,3.072-4.192,4.448-6.368,1.024-1.664,1.024-1.664,1.28-2.048l-3.2-1.76a34.063,34.063,0,0,1-2.912,5.344c-.576-.736-.576-.736-.992-1.28a43.689,43.689,0,0,0,2.848-4.96,9.853,9.853,0,0,1,.7-1.376l-3.68-1.28a20.4,20.4,0,0,1-2.176,4.928l-1.056-1.12-1.92,3.328a38.548,38.548,0,0,1,4.224,4.736c-.576.832-.768,1.088-1.472,1.984-.64.032-.7.032-.928.032a9.146,9.146,0,0,1-1.7-.128Zm12.8-1.088c-.16-.64-.16-.672-.32-1.312q1.584-.1,3.072-.1h2.624v3.2l-1.12-1.5a14.077,14.077,0,0,1-1.44.064H222.88a8.769,8.769,0,0,1-1.056-.032Zm5.376,9.088c0,.608-.192.768-.992.768a11.656,11.656,0,0,1-2.176-.224,17.589,17.589,0,0,0,2.592-5.44c.32-.928.32-.96.576-1.728ZM226.048-21.6h7.712v1.5h-7.712Zm0,4.512h7.712v1.6h-7.712Zm-15.616,8.16c-.192,4.736-.384,6.368-1.12,8.64l2.816,1.664c.7-2.56.96-4.576,1.184-9.952Zm7.744.32a41.807,41.807,0,0,1,.608,6.272l2.592-.64a53.364,53.364,0,0,0-.928-6.144Zm50.72-4.384a17.152,17.152,0,0,0-2.688-4.32l-2.72,1.216a20.465,20.465,0,0,1,2.656,4.448Zm3.712-1.76a16.479,16.479,0,0,0-2.656-4.1L267.3-17.7a21.23,21.23,0,0,1,2.592,4.288Zm-28.512-3.1a46.089,46.089,0,0,1,4.7-.576c7.136-.544,7.264-.576,10.464-.928-4.448,2.56-6.752,6.08-6.752,10.4A8.718,8.718,0,0,0,257.568-.8c1.92,1.024,4.16,1.568,7.744,1.984a7.786,7.786,0,0,1,1.12.16L267.1-3.84c-.384.032-.608.032-.8.032a20.88,20.88,0,0,1-4.736-.736c-2.688-.768-4.16-2.5-4.16-4.864,0-2.912,2.176-5.888,5.792-7.936a14.744,14.744,0,0,1,6.816-1.952,6.982,6.982,0,0,1,.768.032l-.256-4.9a18.86,18.86,0,0,1-3.584.288c-8.8.384-14.3.64-16.512.8-4.544.288-4.736.288-5.344.288-.128,0-.512,0-1.248-.032Zm48.7,3.68v3.552h-4.256c-1.184,0-1.856-.032-2.624-.1.064.8.1,1.728.1,2.72V-.672c0,1.12-.064,2.528-.128,3.392h4.16V1.248h9.92V2.72h4.32a32.36,32.36,0,0,1-.16-3.36V-7.872a24.773,24.773,0,0,1,.128-2.848,25.161,25.161,0,0,1-2.592.1h-4.64v-3.552h5.216a27.65,27.65,0,0,1,3.68.192V-18.24a27.985,27.985,0,0,1-3.68.192h-5.216v-3.744c1.824-.288,5.28-.9,6.368-1.184,1.12-.256,1.12-.256,1.728-.416l-2.752-3.776c-2.944,1.408-10.144,2.528-17.248,2.688a11.226,11.226,0,0,1,1.408,3.712c2.688-.128,3.712-.224,6.272-.512v3.232h-4.544a28.469,28.469,0,0,1-3.648-.192v4.256a31.225,31.225,0,0,1,3.68-.192Zm-2.72,7.264H300V-2.56h-9.92ZM277.024-23.968a37.732,37.732,0,0,1,5.824,4.448l2.5-3.3a40.545,40.545,0,0,0-5.76-4.16Zm-.928,8.256a35.957,35.957,0,0,1,6.016,4.128l2.3-3.52a37.461,37.461,0,0,0-5.984-3.744Zm4.928,5.568c-1.632,4.576-3.1,7.488-4.832,9.6l3.68,2.976a54.8,54.8,0,0,0,4.512-10.24Zm33.92,7.328c-.448.128-.448.128-1.024.256v-7.872a25.5,25.5,0,0,1,.128-2.848H310.88a19.149,19.149,0,0,1,.16,2.912V-1.92a8.677,8.677,0,0,1-1.184.192l.544,4.192a15.181,15.181,0,0,1,1.7-.544,87.03,87.03,0,0,0,8.9-2.912l-.032-3.68-2.5.832V-8.448h.64c.672,0,.768,0,1.216.032a13.293,13.293,0,0,1,.9,2.208,6.815,6.815,0,0,0,1.248-1.6c-.032.576-.064,1.664-.064,2.4V-.672a21.077,21.077,0,0,1-.192,3.616h4V1.856h10.464a25.607,25.607,0,0,1,3.264.192V-1.5a22.211,22.211,0,0,1-3.1.128H333.7V-2.592h2.464a22.04,22.04,0,0,1,2.56.1V-5.408a20.2,20.2,0,0,1-2.56.1H333.7V-6.56h2.432a22.426,22.426,0,0,1,2.56.1v-2.88a19.492,19.492,0,0,1-2.56.1H333.7v-1.184h3.1c1.184,0,2.144.032,2.72.1v-3.2a19.045,19.045,0,0,1-2.72.128h-2.464c.512-.7.576-.8,1.024-1.5l-2.528-.7h3.584a21.853,21.853,0,0,1,2.816.1,20.5,20.5,0,0,1-.1-2.752V-23.36a26.186,26.186,0,0,1,.1-2.656,17.915,17.915,0,0,1-2.624.1h-3.392a17.812,17.812,0,0,1-2.624-.128v3.136c.7-.064,1.312-.1,2.176-.1h2.848v1.056h-2.144a18.611,18.611,0,0,1-2.528-.128v2.688c.832-.064,1.568-.1,2.528-.1h2.144v1.12h-2.848a12.778,12.778,0,0,1-2.208-.1v2.912c.512-.032.768-.064,1.248-.064a9.178,9.178,0,0,1-1.28,2.208h-3.712a13.59,13.59,0,0,0,.928-1.472l-2.464-.736h1.952c1.44,0,1.664,0,2.592.064a24.373,24.373,0,0,1-.064-2.688v-5.152a19.616,19.616,0,0,1,.064-2.624,23.5,23.5,0,0,1-2.592.1H324a16.893,16.893,0,0,1-2.528-.128v3.136a20.216,20.216,0,0,1,2.08-.1h2.72v1.056h-2.016a17.03,17.03,0,0,1-2.464-.128v2.688c.736-.064,1.472-.1,2.464-.1h2.016v1.12h-2.72a11.927,11.927,0,0,1-2.112-.1v2.944a20,20,0,0,1,2.112-.1h.512a14.265,14.265,0,0,1-2.976,4.64V-12.1a13.243,13.243,0,0,1-1.92.1h-.7v-3.328a17.383,17.383,0,0,1,2.176.1,6.3,6.3,0,0,1-.032-.672v-.544l-.032-1.536v-4.96c0-1.44.032-2.4.1-3.264a24.36,24.36,0,0,1-2.976.128h-3.968a23.035,23.035,0,0,1-2.752-.128,24.907,24.907,0,0,1,.128,3.168v4.608a28.98,28.98,0,0,1-.128,3.2c.9-.064,1.536-.1,2.368-.1h1.6Zm11.264-6.432v-1.184h3.776v1.184Zm0,2.688h3.776v1.248h-3.776Zm0,3.968h3.776v1.216h-3.776ZM314.624-22.464h2.592v3.648h-2.592Zm29.984,4.512c2.752-.384,6.912-.608,14.528-.832v1.952a4.717,4.717,0,0,1,.032.512,5.806,5.806,0,0,0-3.008-.7c-3.968,0-6.784,2.5-6.784,5.984a5.253,5.253,0,0,0,2.144,4.384,6.3,6.3,0,0,0,3.84,1.28,5.535,5.535,0,0,0,4.512-1.792,4.529,4.529,0,0,1-1.728,2.624c-1.6,1.376-3.84,2.24-7.232,2.816a12.117,12.117,0,0,1,2.656,4.32,21.6,21.6,0,0,0,6.08-2.624A10.105,10.105,0,0,0,364.7-8.864,9.739,9.739,0,0,0,363.52-13.7v-.736l.032-2.624v-1.056l-.032-.736c1.632-.032,1.888-.032,3.584-.032,3.424,0,4.192.032,5.568.128l-.032-4.416c-1.28.128-3.744.192-9.152.224a24.616,24.616,0,0,1,.192-3.552h-4.832a23.5,23.5,0,0,1,.224,3.648c-9.024.256-12.224.352-12.928.352a16.225,16.225,0,0,1-1.664-.064Zm12.032,4.416c1.5,0,2.5.8,2.5,1.952a2.582,2.582,0,0,1-2.784,2.4A2.219,2.219,0,0,1,353.92-11.3,2.447,2.447,0,0,1,356.64-13.536Zm25.92-6.912c.96-.128,1.248-.128,2.272-.192,4.7-.224,5.248-.256,7.872-.48C388.192-16.608,381.5-11.3,378.5-9.856l2.56,4.128A19.288,19.288,0,0,1,394.112-11.1c3.68,0,6.048,1.5,6.048,3.84,0,2.016-.928,3.232-3.2,4.16a8.163,8.163,0,0,0-1.472-2.752,7.1,7.1,0,0,0-5.632-2.592c-3.392,0-5.888,2.08-5.888,4.832a4.791,4.791,0,0,0,1.952,3.9c1.344,1.024,3.712,1.6,6.5,1.6a16.123,16.123,0,0,0,8.032-1.92A8.074,8.074,0,0,0,404.832-7.3a6.54,6.54,0,0,0-2.336-5.312,10.125,10.125,0,0,0-6.688-2.176,17.579,17.579,0,0,0-5.28.768,61.161,61.161,0,0,0,6.944-5.632c2.5-2.208,2.528-2.208,3.2-2.592L398.4-25.568a5.431,5.431,0,0,1-2.176.416c-2.976.224-6.944.384-9.7.384a28.565,28.565,0,0,1-4.16-.224Zm10.3,18.5a4.664,4.664,0,0,1-1.344.16c-2.08,0-3.3-.64-3.3-1.76,0-.768.64-1.28,1.6-1.28C391.328-4.832,392.384-3.84,392.864-1.952ZM429.024-14.4v1.184h-3.616c-1.344,0-2.016-.032-2.784-.1.064.736.1,1.568.1,2.848v4.7a7.314,7.314,0,0,1-1.056-.128v3.616A7.944,7.944,0,0,1,422.72-2.4v.928a34.377,34.377,0,0,1-.16,4.16h3.968a33.731,33.731,0,0,1-.16-4.16V-2.4h9.088v1.056c0,.576-.224.672-1.376.672a26.931,26.931,0,0,1-2.816-.192,11.007,11.007,0,0,1,.672,3.232c1.984.1,2.368.1,2.688.1a9.4,9.4,0,0,0,3.392-.48C438.784,1.6,439.1.864,439.1-.64V-2.4c.864.032,1.12.064,1.728.128V-5.92a10.973,10.973,0,0,1-1.728.16v-4.48a25.578,25.578,0,0,1,.16-3.1,23.454,23.454,0,0,1-2.944.128H432.7V-14.4h5.664a15.534,15.534,0,0,1,2.4.128v-3.2a13.781,13.781,0,0,1-2.4.128H436.16V-18.5h1.408a18.143,18.143,0,0,1,2.08.1v-2.752a17.311,17.311,0,0,1-2.016.1H436.16v-1.088h2.016a14.3,14.3,0,0,1,2.144.128v-3.1a12.932,12.932,0,0,1-2.176.128H436.16a7.482,7.482,0,0,1,.192-1.952h-3.936a6.875,6.875,0,0,1,.16,1.952h-3.52a5.95,5.95,0,0,1,.192-1.952h-3.936a7.161,7.161,0,0,1,.16,1.952h-1.216a11.62,11.62,0,0,1-2.272-.16v3.136a14.023,14.023,0,0,1,2.144-.128h1.344v1.088h-.864a17.157,17.157,0,0,1-2.048-.1V-18.4a17.533,17.533,0,0,1,2.048-.1h.864v1.152h-1.344a17.4,17.4,0,0,1-2.432-.128v3.2a17.4,17.4,0,0,1,2.432-.128Zm0,8.864h-2.656v-1.28h2.656Zm3.68,0v-1.28h2.752v1.28Zm-3.68-3.712h-2.656V-10.56h2.656Zm3.68,0V-10.56h2.752v1.312Zm-3.648-8.1V-18.5h3.52v1.152Zm0-3.712v-1.088h3.52v1.088ZM411.9-22.944c.832-.064,1.5-.1,2.752-.1h3.52c1.248,0,1.952.032,2.752.1v-3.424a20.76,20.76,0,0,1-2.752.128h-3.52a20.759,20.759,0,0,1-2.752-.128Zm-.96,4.864a19.538,19.538,0,0,1,2.528-.128h5.472a15.247,15.247,0,0,1,2.432.1v-3.744a16.893,16.893,0,0,1-2.528.128h-5.376a18.611,18.611,0,0,1-2.528-.128Zm1.088,4.48a15.632,15.632,0,0,1,1.984-.1h5.024a14.989,14.989,0,0,1,1.888.1v-3.328a13.336,13.336,0,0,1-1.888.1h-5.024a15.288,15.288,0,0,1-1.984-.1Zm0,4.512a15.2,15.2,0,0,1,1.92-.1h4.992a13.99,13.99,0,0,1,1.984.1V-12.48a13.55,13.55,0,0,1-1.92.1h-4.992a15.288,15.288,0,0,1-1.984-.1Zm3.232,11.776V1.28H417.7v.928h3.424q-.048-.432-.1-2.112V-5.5a20.747,20.747,0,0,1,.064-2.3,13.461,13.461,0,0,1-1.952.1h-5.152a18.243,18.243,0,0,1-2.272-.1,21.065,21.065,0,0,1,.128,2.56v4.8c0,1.088-.064,2.176-.16,3.136Zm-.1-7.328h2.56v2.624h-2.56Zm32.224-18.432a20.878,20.878,0,0,1-2.176-.1,23.635,23.635,0,0,1,.16,2.752V-1.024a31.413,31.413,0,0,1-.192,3.488h4.1V.448h3.52V1.7h4a16.837,16.837,0,0,1-.128-2.56V-8.256c0-1.024.032-1.632.1-2.368a18.1,18.1,0,0,1-2.176.1h-5.344v-2.208h5.344c.832,0,1.344.032,1.984.064a22.453,22.453,0,0,1-.064-2.4v-6.144c0-.672.032-1.248.064-1.952a20.429,20.429,0,0,1-2.112.1H452.7a22.321,22.321,0,0,0,1.536-3.776l-4.224-.48a15.207,15.207,0,0,1-1.376,4.256Zm1.856,3.616h3.424v3.072h-3.424Zm0,12.64H452.8v3.552h-3.552Zm14.4-15.3V-19.3h-3.072a25.03,25.03,0,0,1-2.624-.1,27.1,27.1,0,0,1,.1,2.752V-3.712a23.252,23.252,0,0,1-.128,3.648h3.968a22.511,22.511,0,0,1-.128-3.1V-15.712h1.888V-.64a26.986,26.986,0,0,1-.192,3.392h4.224a26.632,26.632,0,0,1-.192-3.392V-15.712H469.7V-4.64c0,.416-.128.512-.608.512a3.409,3.409,0,0,1-.736-.1c-.1,0-.288-.032-.512-.064a9.536,9.536,0,0,1,.832,3.872h1.152c1.5,0,2.208-.16,2.752-.672a3.173,3.173,0,0,0,.832-2.464v-13.28a21.948,21.948,0,0,1,.1-2.592,17.944,17.944,0,0,1-2.56.128h-3.456v-2.816h3.424a25.139,25.139,0,0,1,3.328.16v-4.16a25.619,25.619,0,0,1-3.456.192H460.512a26.857,26.857,0,0,1-3.552-.192v4.16a25.436,25.436,0,0,1,3.328-.16ZM483.168,2.72c-.1-.992-.16-2.208-.16-4.224v-6.72a7.463,7.463,0,0,1,.672,3.68,7.3,7.3,0,0,0,3.136-.7c1.344-.736,1.952-2.016,1.952-4.192a12.67,12.67,0,0,0-1.888-6.688,40.472,40.472,0,0,0,2.08-4.96h6.848v1.6h-3.456a29.593,29.593,0,0,1-3.136-.128c.064.768.1,1.536.1,2.5v8.032a25.211,25.211,0,0,1-.1,2.688,23.946,23.946,0,0,1,3.072-.1h3.52v1.664h-6.176A16.893,16.893,0,0,1,487.1-4.96v3.936a29.152,29.152,0,0,1,3.808-.192h4.9v.928a22.093,22.093,0,0,1-.192,3.04h4.128a20.347,20.347,0,0,1-.192-3.008v-.96h4.576a32.59,32.59,0,0,1,3.84.192V-4.992a21.494,21.494,0,0,1-3.2.16h-5.216V-6.5h4.064c1.44,0,2.3.032,2.976.1a32.621,32.621,0,0,1-.128-3.488v-6.56a21.8,21.8,0,0,1,.1-3.168,26.21,26.21,0,0,1-2.944.128h-4.064v-1.6h4.768a23.618,23.618,0,0,1,3.232.16v-3.936a27.855,27.855,0,0,1-3.712.192h-4.288a12.964,12.964,0,0,1,.192-2.4h-4.128a14.453,14.453,0,0,1,.192,2.4h-6.56l-1.056-1.6a17.448,17.448,0,0,1-2.528.128h-3.9a19.855,19.855,0,0,1-2.752-.128c.1,1.6.128,2.24.128,3.3V-1.6a35.226,35.226,0,0,1-.192,4.32Zm-.16-25.152h2.5a35.752,35.752,0,0,1-2.4,6.528,10.123,10.123,0,0,1,1.92,5.664c0,1.536-.256,1.856-1.5,1.856-.1,0-.352-.032-.512-.032Zm16.544,12.8v-1.952h3.264v1.952Zm0-4.9v-1.824h3.264v1.824Zm-3.744-1.824v1.824h-2.88v-1.824Zm0,4.768v1.952h-2.88v-1.952ZM530.72-23.84a20.5,20.5,0,0,1,2.976,4.32l2.784-1.408a18.121,18.121,0,0,0-2.944-4.224Zm3.936-1.7a23.1,23.1,0,0,1,2.912,4.192l2.752-1.44a18.866,18.866,0,0,0-2.944-4.064Zm-1.92,7.456a20.926,20.926,0,0,1,2.24,4.1,30.842,30.842,0,0,1,2.368,7.232L541.76-8.9a32.228,32.228,0,0,0-5.088-11.04Zm-20.16,3.936c.928-.256,3.1-.64,5.376-.96-1.344,5.344-4.064,11.776-6.24,14.624l4.448,2.4c.192-.416.224-.48.512-1.088a70.721,70.721,0,0,0,5.856-16.288,15.688,15.688,0,0,1,1.6-.1c1.152,0,1.664.128,2.08.544.576.512.8,1.344.8,2.88a30.8,30.8,0,0,1-.864,7.3c-.384,1.28-.864,1.792-1.664,1.792a13.8,13.8,0,0,1-4.544-1.216,14.544,14.544,0,0,1,.416,3.424,12.666,12.666,0,0,1-.064,1.44,16.788,16.788,0,0,0,4.9.9,4.435,4.435,0,0,0,3.744-1.44c1.632-1.76,2.592-6.208,2.592-11.936,0-3.008-.416-4.576-1.5-5.888-1.056-1.248-2.72-1.856-4.992-1.856-.48,0-.928.032-1.7.064.1-.384.1-.416.224-1.088.448-2.624.7-4,.736-4.128a7.863,7.863,0,0,1,.224-.928l-4.96-.48a3.166,3.166,0,0,1,.032.48,43,43,0,0,1-.8,6.464c-1.632.256-5.472.608-6.432.608h-.192Z" transform="translate(-23575 -21870)"></path><path id="&#x30D1;&#x30B9;_36600" data-name="&#x30D1;&#x30B9; 36600" d="M3.68-18.752a5.1,5.1,0,0,1,.864-.064H5.12c.608.032,1.12.032,1.536.064,1.728.064,1.952.064,2.56.064h.9q-.1,2.016-.1,3.36a12.452,12.452,0,0,0-4.384,2.88,10.187,10.187,0,0,0-3.2,7.3C2.432-1.568,4.64.864,7.9.864c2.72,0,5.44-1.44,8.448-4.48A26.7,26.7,0,0,0,22.08-12.1c1.952.9,2.816,2.048,2.816,3.808,0,2.112-1.376,3.84-3.84,4.832a14.63,14.63,0,0,1-5.7.928,16.163,16.163,0,0,1,1.92,4.48,22.007,22.007,0,0,0,6.5-1.568c3.712-1.728,5.76-4.7,5.76-8.384a7.325,7.325,0,0,0-2.848-6.016,8.522,8.522,0,0,0-3.3-1.7,5.5,5.5,0,0,0,.352-.9c.32-.8.32-.8.416-1.024l-4.32-1.216a12.313,12.313,0,0,1-.544,2.24,8.748,8.748,0,0,0-1.12-.1,16.329,16.329,0,0,0-4,.384c0-.608,0-.928.032-1.312a9.919,9.919,0,0,0,.064-1.184c2.752-.064,7.872-.544,11.2-1.024.7-.1.864-.128,1.344-.16l-.224-4.384A56.957,56.957,0,0,1,14.56-22.72a15.247,15.247,0,0,1,.512-3.648L10.4-26.592a5.945,5.945,0,0,1,.032.832c0,.9,0,.96-.032,1.5-.1,1.184-.1,1.184-.128,1.664h-.7a31.858,31.858,0,0,1-5.92-.448Zm6.4,7.776a41.42,41.42,0,0,0,.544,6.624,3.689,3.689,0,0,1-2.3.928c-1.024,0-1.6-.8-1.6-2.144C6.72-7.616,7.936-9.536,10.08-10.976Zm4.032-1.6a8.667,8.667,0,0,1,3.04-.512,3.15,3.15,0,0,1,.9.064,21.887,21.887,0,0,1-3.68,5.792C14.208-8.9,14.144-10.144,14.112-12.576Zm28.8-14.048a25.615,25.615,0,0,1-.864,5.344c-.608.032-1.216.064-1.408.064a23.85,23.85,0,0,1-4.48-.32v4.352h1.216c1.088.064,1.088.064,1.44.064H39.2c.768-.032.768-.032,1.728-.032A42.536,42.536,0,0,1,34.912-4.768L39.3-2.336c.192-.416.192-.416.608-1.216,1.216-2.3,1.5-2.88,2.24-4.448a63.683,63.683,0,0,0,3.488-9.28c2.56-.224,3.872-.352,4.992-.512a7.642,7.642,0,0,1,.992-.128l-.1-4.416a22.761,22.761,0,0,1-4.832.832c.064-.32.064-.32.192-.8.224-1.12.384-1.824.448-2.112a9.6,9.6,0,0,1,.448-1.728ZM64.224-18.56a49.5,49.5,0,0,0-9.312-4.288L52.64-19.136a41.774,41.774,0,0,1,9.536,4.544ZM64.032-4.032c-.256-.192-.256-.192-.544-.416-.544-.448-.832-.672-1.248-.96a21.972,21.972,0,0,0-4.832-2.784,30.834,30.834,0,0,1-.288-4.32,9.7,9.7,0,0,1,.416-3.168L53.088-15.9a20.127,20.127,0,0,0-.256,3.552,29.153,29.153,0,0,0,.16,3.1,13.809,13.809,0,0,0-2.336-.192,9.481,9.481,0,0,0-3.424.48,5.692,5.692,0,0,0-4.064,5.376c0,3.424,2.88,5.7,7.264,5.7,2.624,0,4.8-.8,5.92-2.176A5.112,5.112,0,0,0,57.44-3.488,18.927,18.927,0,0,1,61.984.256ZM53.088-5.184a4.85,4.85,0,0,1,.064.9c0,1.568-.928,2.368-2.848,2.368-1.7,0-2.688-.7-2.688-1.856,0-1.12,1.184-1.888,2.944-1.888A6.778,6.778,0,0,1,53.088-5.184ZM69.92-17.12c.288,0,.384-.032.608-.032l3.424.1h.9a70.5,70.5,0,0,1-5.6,16.928L74.176,1.7c.16-.576.416-1.312.736-2.208,1.472-4.224,1.824-5.28,2.784-8.768a77.209,77.209,0,0,0,1.856-7.936,36.167,36.167,0,0,0,4.512-.48c1.152-.192,1.152-.192,1.76-.256l-.16-4.384a33.607,33.607,0,0,1-5.344.9c.1-.64.128-.7.256-1.568a22.454,22.454,0,0,1,.64-3.1l-5.056-.416v.544a36.362,36.362,0,0,1-.544,4.736c-.8.032-.832.032-1.056.032a25.225,25.225,0,0,1-4.576-.32Zm25.92.064c-2.016-.032-2.144-.032-2.944-.032a45.272,45.272,0,0,0-10.08,1.024l.32,4.192a38.907,38.907,0,0,1,8.672-.864,34.19,34.19,0,0,1,4.128.224ZM82.816-10.144c-1.792,2.464-2.464,4.1-2.464,5.824A4.757,4.757,0,0,0,82.72-.16c1.6.96,3.68,1.376,6.624,1.376A36.231,36.231,0,0,0,95.456.672c.8-.1,1.056-.128,1.632-.192l-.32-4.736A23.362,23.362,0,0,1,89.6-3.008c-3.1,0-4.576-.736-4.576-2.24,0-1.056.352-1.824,1.632-3.52ZM119.68-20.192a6.224,6.224,0,0,1,2.976,1.024,7.777,7.777,0,0,1,3.424,6.688,8.789,8.789,0,0,1-4.416,7.872,16.043,16.043,0,0,1-6.336,1.536A13.121,13.121,0,0,1,117.7,1.472,22.843,22.843,0,0,0,122.784.16c5.12-2.016,8.032-6.528,8.032-12.352,0-7.488-5.12-12.288-13.152-12.288A14.845,14.845,0,0,0,106.4-19.872a13.805,13.805,0,0,0-3.584,9.5c0,5.5,2.816,9.376,6.784,9.376,2.752,0,4.864-1.888,6.656-5.952A45.148,45.148,0,0,0,119.68-20.192Zm-4.672.064a41.2,41.2,0,0,1-2.56,10.3c-1.024,2.592-2.016,3.84-2.944,3.84-1.248,0-2.272-1.952-2.272-4.352a10.491,10.491,0,0,1,3.936-8.192A7.191,7.191,0,0,1,115.008-20.128Zm34.144-5.216h-5.536v5.536h3.168c-.032,1.184-.224,1.728-.736,2.176a4.178,4.178,0,0,1-2.176.96l1.28,2.048a5.8,5.8,0,0,0,2.88-1.664,5.113,5.113,0,0,0,1.12-3.52Zm-7.392,0h-5.536v5.536h3.168c-.032,1.184-.224,1.728-.736,2.176a4.178,4.178,0,0,1-2.176.96l1.28,2.048a5.8,5.8,0,0,0,2.88-1.664,5.113,5.113,0,0,0,1.12-3.52Zm37.984,12.352a17.151,17.151,0,0,0-2.688-4.32l-2.72,1.216a20.465,20.465,0,0,1,2.656,4.448Zm3.712-1.76a16.478,16.478,0,0,0-2.656-4.1L178.144-17.7a21.231,21.231,0,0,1,2.592,4.288Zm-28.512-3.1a46.089,46.089,0,0,1,4.7-.576c7.136-.544,7.264-.576,10.464-.928-4.448,2.56-6.752,6.08-6.752,10.4A8.718,8.718,0,0,0,168.416-.8c1.92,1.024,4.16,1.568,7.744,1.984a7.785,7.785,0,0,1,1.12.16l.672-5.184c-.384.032-.608.032-.8.032a20.88,20.88,0,0,1-4.736-.736c-2.688-.768-4.16-2.5-4.16-4.864,0-2.912,2.176-5.888,5.792-7.936a14.744,14.744,0,0,1,6.816-1.952,6.982,6.982,0,0,1,.768.032l-.256-4.9a18.86,18.86,0,0,1-3.584.288c-8.8.384-14.3.64-16.512.8-4.544.288-4.736.288-5.344.288-.128,0-.512,0-1.248-.032Zm35.648-.448c.544-.032.8-.032,1.28-.032a87.469,87.469,0,0,0,9.472-.416c.16.384.224.48.512,1.12.224.48.32.672.512,1.024a65.364,65.364,0,0,1-9.152.576,18.188,18.188,0,0,1-3.072-.16l.16,4.1c.576-.064.832-.064,1.408-.1a111.849,111.849,0,0,0,12.352-.8c.192.288.192.288.416.672.512.832.544.9.928,1.44a7.966,7.966,0,0,0,.64.832,23.128,23.128,0,0,0-5.184-.512,15.5,15.5,0,0,0-6.528,1.152,5.694,5.694,0,0,0-3.68,5.056,5.452,5.452,0,0,0,1.216,3.424c1.5,1.888,4.64,2.848,9.152,2.848A36.465,36.465,0,0,0,209.76.864a22.1,22.1,0,0,1,2.176-.48l-.672-4.64a26.407,26.407,0,0,1-10.048,2.048,19.429,19.429,0,0,1-3.3-.288c-1.44-.352-2.176-.96-2.176-1.888,0-1.6,2.176-2.5,6.176-2.5A15.2,15.2,0,0,1,208.96-5.5L212.7-7.712A33.01,33.01,0,0,1,208.48-13.6c.64-.128.768-.16,2.24-.448,2.176-.48,3.456-.736,3.872-.8l-.384-4.1a43.439,43.439,0,0,1-7.488,1.792c-.512-1.056-.544-1.12-.992-2.144,1.024-.128,3.84-.7,7.616-1.5l-.384-4a52.175,52.175,0,0,1-8.64,1.856,15.724,15.724,0,0,1-1.152-3.616l-4.768.64a9.683,9.683,0,0,1,.672,1.472,10.31,10.31,0,0,0,.416.96c.32.768.32.768.416,1.024-1.28.16-4.256.288-6.112.288-1.344,0-2.432-.032-3.424-.128Zm31.9,1.184c.288,0,.384-.032.608-.032l3.424.1h.9a70.5,70.5,0,0,1-5.6,16.928L226.752,1.7c.16-.576.416-1.312.736-2.208,1.472-4.224,1.824-5.28,2.784-8.768a77.211,77.211,0,0,0,1.856-7.936,36.167,36.167,0,0,0,4.512-.48c1.152-.192,1.152-.192,1.76-.256l-.16-4.384a33.607,33.607,0,0,1-5.344.9c.1-.64.128-.7.256-1.568a22.449,22.449,0,0,1,.64-3.1l-5.056-.416v.544a36.364,36.364,0,0,1-.544,4.736c-.8.032-.832.032-1.056.032a25.225,25.225,0,0,1-4.576-.32Zm25.92.064c-2.016-.032-2.144-.032-2.944-.032a45.272,45.272,0,0,0-10.08,1.024l.32,4.192a38.907,38.907,0,0,1,8.672-.864,34.189,34.189,0,0,1,4.128.224Zm-13.024,6.912c-1.792,2.464-2.464,4.1-2.464,5.824A4.757,4.757,0,0,0,235.3-.16c1.6.96,3.68,1.376,6.624,1.376a36.231,36.231,0,0,0,6.112-.544c.8-.1,1.056-.128,1.632-.192l-.32-4.736a23.362,23.362,0,0,1-7.168,1.248c-3.1,0-4.576-.736-4.576-2.24,0-1.056.352-1.824,1.632-3.52Zm26.656-12.384a61.968,61.968,0,0,0,13.12,4.1l1.536-4.416c-3.712-.512-10.112-2.368-12.416-3.616ZM259.584-20.1c-.064.736-.1,1.152-.192,1.92-.64,4.224-1.184,8.256-1.472,10.624-.064.416-.064.448-.128.864l4.64.16a6.148,6.148,0,0,1,1.632-1.44,14.256,14.256,0,0,1,7.584-2.144c3.072,0,4.9,1.152,4.9,3.1,0,2.528-3.008,4.224-7.488,4.224A27.366,27.366,0,0,1,260.64-4.32a18.92,18.92,0,0,1,.576,4.864,33.144,33.144,0,0,0,8.128,1.024c3.712,0,6.464-.7,8.736-2.272a7.863,7.863,0,0,0,3.456-6.464c0-4.32-3.648-7.1-9.344-7.1a14.916,14.916,0,0,0-9.344,2.784c.384-2.912,1.12-7.072,1.472-8.32ZM289.952-23.9a17.007,17.007,0,0,1,.128,2.144c.192,9.7.64,13.76,1.952,17.024C293.376-1.408,295.264.288,297.6.288c2.944,0,5.024-2.848,6.72-9.12a15.742,15.742,0,0,1-3.776-3.456,26.767,26.767,0,0,1-1.7,5.7c-.352.864-.736,1.312-1.152,1.312-1.632,0-2.816-5.664-2.816-13.312a37.557,37.557,0,0,1,.288-5.28Zm16.064,3.232a28.306,28.306,0,0,1,4.608,8.192,32.667,32.667,0,0,1,1.952,9.568L317.408-4.7c-.864-7.264-3.2-12.96-7.3-17.888ZM323.552-23.9a17.007,17.007,0,0,1,.128,2.144c.192,9.7.64,13.76,1.952,17.024C326.976-1.408,328.864.288,331.2.288c2.944,0,5.024-2.848,6.72-9.12a15.742,15.742,0,0,1-3.776-3.456,26.767,26.767,0,0,1-1.7,5.7c-.352.864-.736,1.312-1.152,1.312-1.632,0-2.816-5.664-2.816-13.312a37.557,37.557,0,0,1,.288-5.28Zm16.064,3.232a28.306,28.306,0,0,1,4.608,8.192,32.667,32.667,0,0,1,1.952,9.568L351.008-4.7c-.864-7.264-3.2-12.96-7.3-17.888Zm23.872-5.952a25.617,25.617,0,0,1-.864,5.344c-.608.032-1.216.064-1.408.064a23.85,23.85,0,0,1-4.48-.32v4.352h1.216c1.088.064,1.088.064,1.44.064h.384c.768-.032.768-.032,1.728-.032a42.536,42.536,0,0,1-6.016,12.384l4.384,2.432c.192-.416.192-.416.608-1.216,1.216-2.3,1.5-2.88,2.24-4.448a63.687,63.687,0,0,0,3.488-9.28c2.56-.224,3.872-.352,4.992-.512a7.643,7.643,0,0,1,.992-.128l-.1-4.416a22.761,22.761,0,0,1-4.832.832c.064-.32.064-.32.192-.8.224-1.12.384-1.824.448-2.112a9.6,9.6,0,0,1,.448-1.728ZM384.8-18.56a49.5,49.5,0,0,0-9.312-4.288l-2.272,3.712a41.773,41.773,0,0,1,9.536,4.544Zm-.192,14.528c-.256-.192-.256-.192-.544-.416-.544-.448-.832-.672-1.248-.96a21.972,21.972,0,0,0-4.832-2.784,30.835,30.835,0,0,1-.288-4.32,9.7,9.7,0,0,1,.416-3.168l-4.448-.224a20.125,20.125,0,0,0-.256,3.552,29.156,29.156,0,0,0,.16,3.1,13.809,13.809,0,0,0-2.336-.192,9.482,9.482,0,0,0-3.424.48,5.692,5.692,0,0,0-4.064,5.376c0,3.424,2.88,5.7,7.264,5.7,2.624,0,4.8-.8,5.92-2.176a5.112,5.112,0,0,0,1.088-3.424A18.927,18.927,0,0,1,382.56.256ZM373.664-5.184a4.852,4.852,0,0,1,.064.9c0,1.568-.928,2.368-2.848,2.368-1.7,0-2.688-.7-2.688-1.856,0-1.12,1.184-1.888,2.944-1.888A6.778,6.778,0,0,1,373.664-5.184Zm28.864-20.16h-5.536v5.536h3.168c-.032,1.184-.224,1.728-.736,2.176a4.178,4.178,0,0,1-2.176.96l1.28,2.048a5.8,5.8,0,0,0,2.88-1.664,5.113,5.113,0,0,0,1.12-3.52Zm-7.392,0H389.6v5.536h3.168c-.032,1.184-.224,1.728-.736,2.176a4.178,4.178,0,0,1-2.176.96l1.28,2.048a5.8,5.8,0,0,0,2.88-1.664,5.113,5.113,0,0,0,1.12-3.52Z" transform="translate(-23635 -21822)" fill="#533afc"></path><path id="&#x30D1;&#x30B9;_36601" data-name="&#x30D1;&#x30B9; 36601" d="M3.232-19.04a2.764,2.764,0,0,1,.48-.032H4.16a2,2,0,0,0,.544.032c.1,0,.608,0,1.216.032.928.032,1.184.032,2.976.032a4.9,4.9,0,0,0-.48.8,29.275,29.275,0,0,1-6.24,7.488L5.632-7.264a19.5,19.5,0,0,1,2.912-3.072c2.4-2.08,4.576-3.168,6.3-3.168a1.459,1.459,0,0,1,1.632,1.28A24.746,24.746,0,0,0,11.808-9.76C9.376-8,8.1-6.016,8.1-4.032A5.2,5.2,0,0,0,9.344-.576c1.472,1.664,4.128,2.368,8.832,2.368A59.214,59.214,0,0,0,26.4,1.216a12.13,12.13,0,0,1,1.6-.16l-.352-4.9A29.36,29.36,0,0,1,17.824-2.4c-3.488,0-4.864-.576-4.864-2.048a2.983,2.983,0,0,1,1.5-2.3,16.6,16.6,0,0,1,2.56-1.376,1.029,1.029,0,0,1,.032.256,23.874,23.874,0,0,1-.192,3.712l4.448-.128a19.4,19.4,0,0,1-.1-2.144V-8.608l-.032-1.056c3.872-1.312,3.872-1.312,4.64-1.5A24.227,24.227,0,0,1,29.44-12l-1.7-4.352a10.891,10.891,0,0,1-2.5.96c-1.44.48-1.6.544-2.848.992-.832.288-1.408.48-1.7.576-.576-2.144-2.176-3.232-4.768-3.232a8.161,8.161,0,0,0-4.416,1.248,22.964,22.964,0,0,0,2.08-3.168c3.232-.1,7.392-.352,9.728-.64,1.536-.16,1.536-.16,2.528-.256l-.192-4.32a44.38,44.38,0,0,1-8.256,1.056,19.374,19.374,0,0,0-1.984.128c.128-.256.128-.288.256-.576a16.407,16.407,0,0,1,1.184-2.656l-4.96-.448a12.749,12.749,0,0,1-1.152,3.744h-1.6A28.622,28.622,0,0,1,3.3-23.36ZM54.88-7.712v7.52c0,2.208.736,2.656,4.352,2.656,2.592,0,3.712-.224,4.416-.928.672-.672.9-1.728,1.216-5.312a15.956,15.956,0,0,1-3.488-1.5,14.017,14.017,0,0,1-.32,3.744c-.128.192-.48.288-1.216.288-.768,0-.928-.1-.928-.48V-7.744h1.952c1.248.1,1.92.128,2.048.128a30.278,30.278,0,0,1-.16-3.52V-23.008a27.456,27.456,0,0,1,.128-3.232,25.454,25.454,0,0,1-3.072.128H49.76a24.647,24.647,0,0,1-3.136-.128,28.143,28.143,0,0,1,.1,3.232v12.16c0,1.216-.032,2.176-.064,3.232,1.888-.1,1.888-.1,2.912-.1A7.233,7.233,0,0,1,47.616-3.52a11.458,11.458,0,0,1-6.048,3.2,11.161,11.161,0,0,1,2.3,3.488c3.52-1.152,5.664-2.56,7.3-4.832C52.48-3.456,52.96-4.736,53.6-7.712ZM50.688-22.624h8.064v1.7H50.688Zm0,4.9h8.064v1.7H50.688Zm0,4.9h8.064v1.76H50.688Zm-12.1-8.992v5.7H37.76a15.76,15.76,0,0,1-2.3-.128v3.84a15.205,15.205,0,0,1,2.208-.128h.928v6.432a28.937,28.937,0,0,1-4,1.024l.992,4.352c.384-.16.8-.288,1.184-.448a57.423,57.423,0,0,0,9.152-3.84L45.856-8.9c-1.536.736-2.016.928-3.232,1.44v-5.088h.8c.672,0,1.312.032,2.016.1v-3.808a11.817,11.817,0,0,1-2.016.128h-.8v-5.7h.64a20.6,20.6,0,0,1,2.592.128v-4a19.406,19.406,0,0,1-2.912.16H38.112a20.321,20.321,0,0,1-2.976-.16v4a25.213,25.213,0,0,1,2.752-.128Zm42.336,5.888c0,.8,0,.8-.032,1.568H75.1A20.1,20.1,0,0,1,72.16-14.5v3.584A20.682,20.682,0,0,1,75.1-11.04h5.568a13.369,13.369,0,0,1-.256,1.568H72.288a22.538,22.538,0,0,1-3.392-.16v3.84a33.492,33.492,0,0,1,3.648-.192h6.528a9.188,9.188,0,0,1-3.808,3.168,18.156,18.156,0,0,1-6.912,1.76A11.47,11.47,0,0,1,70.3,2.912,21.183,21.183,0,0,0,78.208.16a12.811,12.811,0,0,0,4.608-4.64A16.165,16.165,0,0,0,88.48.32a28.1,28.1,0,0,0,7.808,2.592,16.561,16.561,0,0,1,1.92-4.1c-4.416-.7-6.784-1.376-8.832-2.464a8.827,8.827,0,0,1-2.944-2.336H93.92a33.236,33.236,0,0,1,3.68.192v-3.84a23.747,23.747,0,0,1-3.488.16H84.576c.128-.7.16-.96.224-1.568h6.368a20.734,20.734,0,0,1,2.912.128V-14.5a19.583,19.583,0,0,1-2.912.128H84.992c0-.576,0-.576.032-1.568H91.36a23.057,23.057,0,0,1,2.976.128V-17.12h3.008a19.263,19.263,0,0,1-.128-2.432V-22.24a20.642,20.642,0,0,1,.128-2.432c-1.12.1-1.984.128-3.68.128H85.12v-.512a11.964,11.964,0,0,1,.16-2.016H80.672a10.039,10.039,0,0,1,.16,2.048v.48H72.768c-1.7,0-2.592-.032-3.68-.128a22.887,22.887,0,0,1,.128,2.5v2.624a13.22,13.22,0,0,1-.16,2.432h3.008v1.312a21.464,21.464,0,0,1,3.008-.128Zm12.32-5.024v1.632c-.672.032-.992.032-1.888.032h-6.3a16.553,16.553,0,0,1,.032-1.664Zm-12.288,0V-19.3H75.072c-.9,0-1.376,0-1.856-.032V-20.96Zm24.8-4.832a27.918,27.918,0,0,1-.512,3.2A66.726,66.726,0,0,0,104-10.08a60.743,60.743,0,0,0,.832,9.76c.1.736.128.992.16,1.568l4.64-.224C109.6.576,109.6.416,109.6.1a24.968,24.968,0,0,1,2.624-9.632l-2.816-1.152L108.8-9.152c-.16.384-.16.384-.576,1.632.1-6.784,1.12-13.984,2.528-17.792Zm7.9,7.744c.48.032.736.032.9.064a45.908,45.908,0,0,0,5.152.256,68.214,68.214,0,0,0,8.48-.576,5.2,5.2,0,0,1,.672-.032l-.224-4.64a37.321,37.321,0,0,1-8.768.864,23.305,23.305,0,0,1-6.144-.544Zm2.112,4.768c-1.984,2.528-2.976,4.832-2.976,6.848a5.85,5.85,0,0,0,.96,3.264c1.44,2.016,4.1,2.976,8.16,2.976A38.649,38.649,0,0,0,128.64-.8c.7-.1.9-.128,1.408-.192l-.32-4.832a23.587,23.587,0,0,1-7.776,1.248c-2.944,0-4.576-.9-4.576-2.5,0-1.184.736-2.624,2.24-4.512ZM140.448-25.7a18.424,18.424,0,0,1,.128,2.4c0,.96-.032,2.912-.128,7.328-.1,4.224-.128,6.3-.128,7.744a18.471,18.471,0,0,0,.48,4.576A7.339,7.339,0,0,0,143.68.224a11.173,11.173,0,0,0,5.92,1.44,12.54,12.54,0,0,0,9.792-4.1c1.664-1.856,2.656-4.032,3.936-8.608a17.5,17.5,0,0,1-4.672-2.912,20.586,20.586,0,0,1-1.344,5.568c-1.44,3.52-4.064,5.44-7.456,5.44-1.888,0-3.328-.576-4-1.6-.608-.9-.768-1.984-.768-5.088,0-5.536.384-14.08.7-15.968Zm56.7,21.984c-.48-.288-.672-.416-1.184-.768A28.655,28.655,0,0,0,187.2-8.928c0-.48-.064-1.6-.1-3.328,1.28-.064,3.36-.224,4.9-.384,1.92-.192,1.92-.192,2.368-.256.288,0,.48-.032.544-.032a3.033,3.033,0,0,1,.672-.064l-.128-4.192A44.044,44.044,0,0,1,187.04-16.1c0-.512,0-1.376-.032-2.624,2.176-.1,4.192-.288,6.688-.608a20.978,20.978,0,0,1,2.656-.288l-.128-4.192a45.485,45.485,0,0,1-9.184,1.152,16.526,16.526,0,0,1,.256-3.616h-4.832a19.9,19.9,0,0,1,.192,3.776c-.832.032-1.824.064-2.208.064a41.771,41.771,0,0,1-8.768-.7l-.064,4.256a3.535,3.535,0,0,1,.512-.032c.128,0,.416,0,.8.032,4.16.224,6.88.32,8.1.32.48,0,.864,0,1.7-.032v.8l.032,1.856c-.864.032-1.984.032-2.656.032a42.258,42.258,0,0,1-7.424-.512l-.032,4.1c.544,0,.832,0,1.28.032,2.912.16,4,.192,6.08.192.672,0,1.92-.032,2.816-.032l.064,2.56c-.672-.032-1.056-.064-1.6-.064-5.7,0-9.12,2.144-9.12,5.728,0,3.456,2.752,5.408,7.616,5.408,5.12,0,7.552-1.76,7.552-5.44a3.536,3.536,0,0,0-.032-.512,24.136,24.136,0,0,1,5.76,3.68A13.042,13.042,0,0,1,194.56.7ZM182.912-5.5s.032.384.032.64c0,1.856-.8,2.528-2.976,2.528-1.888,0-3.008-.608-3.008-1.6,0-1.152,1.376-1.856,3.616-1.856A8.493,8.493,0,0,1,182.912-5.5ZM203.68-17.952c2.752-.384,6.912-.608,14.528-.832v1.952a4.719,4.719,0,0,1,.032.512,5.806,5.806,0,0,0-3.008-.7c-3.968,0-6.784,2.5-6.784,5.984a5.253,5.253,0,0,0,2.144,4.384,6.3,6.3,0,0,0,3.84,1.28,5.535,5.535,0,0,0,4.512-1.792,4.529,4.529,0,0,1-1.728,2.624c-1.6,1.376-3.84,2.24-7.232,2.816a12.116,12.116,0,0,1,2.656,4.32,21.6,21.6,0,0,0,6.08-2.624,10.105,10.105,0,0,0,5.056-8.832,9.739,9.739,0,0,0-1.184-4.832v-.736l.032-2.624v-1.056l-.032-.736c1.632-.032,1.888-.032,3.584-.032,3.424,0,4.192.032,5.568.128l-.032-4.416c-1.28.128-3.744.192-9.152.224a24.616,24.616,0,0,1,.192-3.552H217.92a23.5,23.5,0,0,1,.224,3.648c-9.024.256-12.224.352-12.928.352a16.224,16.224,0,0,1-1.664-.064Zm12.032,4.416c1.5,0,2.5.8,2.5,1.952a2.582,2.582,0,0,1-2.784,2.4,2.219,2.219,0,0,1-2.432-2.112A2.447,2.447,0,0,1,215.712-13.536ZM253.44-6.752c-.032-.8-.064-1.12-.064-1.472,0-.384,0-.384.1-2.336l.544-10.528c.064-1.664.192-3.168.32-4.1H248.1c.128,1.088.256,2.656.32,4.1l.544,10.528c.1,1.888.1,1.888.1,2.3,0,.352-.032.7-.064,1.5Zm.512,7.616V-4.32H248.48V.864Z" transform="translate(-23229 -21822)"></path></g></svg>