<svg xmlns="http://www.w3.org/2000/svg" width="553.564" height="198.556" viewBox="0 0 553.564 198.556"><g id="&#x30B0;&#x30EB;&#x30FC;&#x30D7;_16112" data-name="&#x30B0;&#x30EB;&#x30FC;&#x30D7; 16112" transform="translate(-147.847 -112.5)"><g id="&#x30B0;&#x30EB;&#x30FC;&#x30D7;_6482" data-name="&#x30B0;&#x30EB;&#x30FC;&#x30D7; 6482" transform="translate(147.847 112.5)"><g id="&#x30B0;&#x30EB;&#x30FC;&#x30D7;_6475" data-name="&#x30B0;&#x30EB;&#x30FC;&#x30D7; 6475" transform="translate(0 0)"><g id="&#x30B0;&#x30EB;&#x30FC;&#x30D7;_6474" data-name="&#x30B0;&#x30EB;&#x30FC;&#x30D7; 6474" transform="translate(0 0)"><g id="&#x30B0;&#x30EB;&#x30FC;&#x30D7;_68" data-name="&#x30B0;&#x30EB;&#x30FC;&#x30D7; 68" transform="translate(0 0)"><g id="&#x30B0;&#x30EB;&#x30FC;&#x30D7;_65" data-name="&#x30B0;&#x30EB;&#x30FC;&#x30D7; 65" transform="translate(0 21.85)"><g id="&#x30B0;&#x30EB;&#x30FC;&#x30D7;_6320" data-name="&#x30B0;&#x30EB;&#x30FC;&#x30D7; 6320" transform="translate(386.836 25.701)"><path id="&#x30D1;&#x30B9;_685" data-name="&#x30D1;&#x30B9; 685" d="M0,0V57.354" transform="translate(6.652 0)" fill="#fff"></path><path id="&#x30D1;&#x30B9;_685_-_&#x30A2;&#x30A6;&#x30C8;&#x30E9;&#x30A4;&#x30F3;" data-name="&#x30D1;&#x30B9; 685 - &#x30A2;&#x30A6;&#x30C8;&#x30E9;&#x30A4;&#x30F3;" d="M-4.2,57.354H-17.5V0H-4.2Z" transform="translate(17.5 0)" fill="#fff"></path><path id="&#x7DDA;_38" data-name="&#x7DDA; 38" d="M13.3,40.679H0V0H13.3Z" transform="translate(41.364 11.808) rotate(90)" fill="#fff"></path></g><path id="&#x30D1;&#x30B9;_47" data-name="&#x30D1;&#x30B9; 47" d="M222.722-109.8,208.145-64.988,188.411-109.8H173.088l19.735,44.822h15.319L195.5-26.128h15.324l27.241-83.678Z" transform="translate(-109.636 121.515)" fill="#fff"></path><g id="&#x30B0;&#x30EB;&#x30FC;&#x30D7;_437" data-name="&#x30B0;&#x30EB;&#x30FC;&#x30D7; 437" transform="translate(0 0)"><path id="&#x7DDA;_37" data-name="&#x7DDA; 37" d="M-4.2,81.725H-17.5V0H-4.2Z" transform="translate(17.5 0)" fill="#fff"></path><path id="&#x9577;&#x65B9;&#x5F62;_222" data-name="&#x9577;&#x65B9;&#x5F62; 222" d="M13.3,13.3V37.631H37.631V13.3H13.3M0,0H50.935V50.935H0Z" transform="translate(0 30.979)" fill="#fff"></path></g><g id="&#x30B0;&#x30EB;&#x30FC;&#x30D7;_438" data-name="&#x30B0;&#x30EB;&#x30FC;&#x30D7; 438" transform="translate(325.257 24.561)"><path id="&#x7DDA;_38-2" data-name="&#x7DDA; 38" d="M-4.2,57.354H-17.5V0H-4.2Z" transform="translate(17.5 0)" fill="#fff"></path><path id="&#x30D1;&#x30B9;_11923" data-name="&#x30D1;&#x30B9; 11923" transform="translate(45.545 6.358) rotate(180)" fill="#fff"></path></g></g><path id="&#x30D1;&#x30B9;_44" data-name="&#x30D1;&#x30B9; 44" d="M59.131,34.574V20.958H10.35V34.574Z" transform="translate(494.434 96.764)" fill="#2a63b4"></path><g id="&#x30B0;&#x30EB;&#x30FC;&#x30D7;_69" data-name="&#x30B0;&#x30EB;&#x30FC;&#x30D7; 69" transform="translate(145.878)"><path id="&#x30D1;&#x30B9;_46" data-name="&#x30D1;&#x30B9; 46" d="M24.418-83.618h13.3v-64.087H63.069V-161H-.69v13.3H24.418Z" transform="translate(48.392 187.87)" fill="#fff"></path><path id="&#x9577;&#x65B9;&#x5F62;_22" data-name="&#x9577;&#x65B9;&#x5F62; 22" d="M11.4,11.4v108.53H332.679V11.4H11.4M0,0H344.082V131.337H0Z" transform="translate(0)" fill="#fff"></path></g></g></g></g><g id="&#x30B0;&#x30EB;&#x30FC;&#x30D7;_6478" data-name="&#x30B0;&#x30EB;&#x30FC;&#x30D7; 6478" transform="translate(386.577 28.607)"><rect id="&#x9577;&#x65B9;&#x5F62;_3359" data-name="&#x9577;&#x65B9;&#x5F62; 3359" width="13.684" height="76.403" fill="#fff"></rect><rect id="&#x9577;&#x65B9;&#x5F62;_3360" data-name="&#x9577;&#x65B9;&#x5F62; 3360" width="13.684" height="46.428" transform="translate(47.378 30.599) rotate(90)" fill="#fff"></rect><rect id="&#x9577;&#x65B9;&#x5F62;_3361" data-name="&#x9577;&#x65B9;&#x5F62; 3361" width="13.684" height="45.804" transform="translate(33.694 30.599)" fill="#fff"></rect></g><g id="&#x30B0;&#x30EB;&#x30FC;&#x30D7;_6479" data-name="&#x30B0;&#x30EB;&#x30FC;&#x30D7; 6479" transform="translate(324.808 46.283)"><rect id="&#x9577;&#x65B9;&#x5F62;_3362" data-name="&#x9577;&#x65B9;&#x5F62; 3362" width="13.684" height="46.428" transform="translate(46.428) rotate(90)" fill="#fff"></rect><rect id="&#x9577;&#x65B9;&#x5F62;_3363" data-name="&#x9577;&#x65B9;&#x5F62; 3363" width="13.684" height="46.428" transform="translate(13.684 57.805) rotate(180)" fill="#fff"></rect><rect id="&#x9577;&#x65B9;&#x5F62;_3364" data-name="&#x9577;&#x65B9;&#x5F62; 3364" width="13.684" height="46.428" transform="translate(0 57.805) rotate(-90)" fill="#fff"></rect></g><g id="&#x30B0;&#x30EB;&#x30FC;&#x30D7;_6481" data-name="&#x30B0;&#x30EB;&#x30FC;&#x30D7; 6481" transform="translate(263.229 46.283)"><rect id="&#x9577;&#x65B9;&#x5F62;_3366" data-name="&#x9577;&#x65B9;&#x5F62; 3366" width="13.684" height="57.804" transform="translate(13.684 57.805) rotate(180)" fill="#fff"></rect><g id="&#x30B0;&#x30EB;&#x30FC;&#x30D7;_6480" data-name="&#x30B0;&#x30EB;&#x30FC;&#x30D7; 6480" transform="translate(0)"><rect id="&#x9577;&#x65B9;&#x5F62;_3367" data-name="&#x9577;&#x65B9;&#x5F62; 3367" width="13.684" height="47.541" transform="translate(47.541) rotate(90)" fill="#fff"></rect><rect id="&#x9577;&#x65B9;&#x5F62;_3368" data-name="&#x9577;&#x65B9;&#x5F62; 3368" width="13.684" height="47.541" transform="translate(47.541 20.906) rotate(90)" fill="#fff"></rect><rect id="&#x9577;&#x65B9;&#x5F62;_3370" data-name="&#x9577;&#x65B9;&#x5F62; 3370" width="13.684" height="47.541" transform="translate(47.541 44.12) rotate(90)" fill="#fff"></rect><rect id="&#x9577;&#x65B9;&#x5F62;_3369" data-name="&#x9577;&#x65B9;&#x5F62; 3369" width="13.684" height="34.59" transform="translate(47.541 34.59) rotate(180)" fill="#fff"></rect></g></g></g><path id="&#x30D1;&#x30B9;_2" data-name="&#x30D1;&#x30B9; 2" d="M5.149,0V-42.973h6.457a28.27,28.27,0,0,1,6.875.668,10.329,10.329,0,0,1,4.37,2.254,11.7,11.7,0,0,1,2.867,4.091,12.379,12.379,0,0,1,1.085,5.01,10.153,10.153,0,0,1-3.535,7.821,10.385,10.385,0,0,1,5.4,4.091,11.539,11.539,0,0,1,2,6.735,11.446,11.446,0,0,1-3.562,8.517A11.693,11.693,0,0,1,22.293-.807,28.006,28.006,0,0,1,14.974,0Zm6.485-24.52h2.032q3.618,0,5.3-1.6a6.207,6.207,0,0,0,1.684-4.718,5.918,5.918,0,0,0-1.726-4.606,7.193,7.193,0,0,0-5.01-1.573H11.634Zm0,18.425h4.008q4.4,0,6.457-1.726a5.966,5.966,0,0,0,2.171-4.731,6.061,6.061,0,0,0-2.087-4.676q-2.032-1.865-7.264-1.865H11.634Zm73.6-36.877v25.884q0,5.539,1.809,8.1a8.857,8.857,0,0,0,7.6,3.7,8.885,8.885,0,0,0,7.626-3.7q1.809-2.477,1.809-8.1V-42.973h6.485v27.665a15.48,15.48,0,0,1-4.23,11.188A15.663,15.663,0,0,1,94.646.779a15.573,15.573,0,0,1-11.662-4.9,15.48,15.48,0,0,1-4.23-11.188V-42.973Zm99.822,6.4-5.26,3.117a9.041,9.041,0,0,0-2.811-3.34,6.558,6.558,0,0,0-3.59-.891,6.632,6.632,0,0,0-4.481,1.531,4.745,4.745,0,0,0-1.781,3.785q0,3.145,4.676,5.065L176.1-25.55a18.3,18.3,0,0,1,7.654,5.163,11.637,11.637,0,0,1,2.421,7.473,13.129,13.129,0,0,1-3.952,9.8,13.566,13.566,0,0,1-9.88,3.9,13.217,13.217,0,0,1-9.24-3.312,15.25,15.25,0,0,1-4.481-9.324l6.568-1.447q.445,3.785,1.559,5.232a6.75,6.75,0,0,0,5.845,2.783A6.782,6.782,0,0,0,177.63-7.32a7.029,7.029,0,0,0,2-5.149,7.225,7.225,0,0,0-.348-2.3,5.826,5.826,0,0,0-1.085-1.92,8.676,8.676,0,0,0-1.906-1.642,18.367,18.367,0,0,0-2.783-1.461l-4.147-1.726q-8.823-3.729-8.823-10.91a10.351,10.351,0,0,1,3.7-8.1,13.374,13.374,0,0,1,9.212-3.284Q180.886-43.808,185.061-36.571Zm55.319-6.4V0h-6.485V-42.973ZM290.605,0V-45.9l31.339,32.786V-42.973h6.485V2.616l-31.339-32.7V0ZM402.34-36.877H385.112v10.326h16.727v6.1H385.112V-6.1H402.34V0H378.627V-42.973H402.34Zm72.714.306-5.26,3.117a9.041,9.041,0,0,0-2.811-3.34,6.558,6.558,0,0,0-3.59-.891,6.632,6.632,0,0,0-4.481,1.531,4.745,4.745,0,0,0-1.781,3.785q0,3.145,4.676,5.065l4.286,1.753a18.3,18.3,0,0,1,7.654,5.163,11.637,11.637,0,0,1,2.421,7.473,13.129,13.129,0,0,1-3.952,9.8,13.566,13.566,0,0,1-9.88,3.9,13.217,13.217,0,0,1-9.24-3.312,15.25,15.25,0,0,1-4.481-9.324l6.568-1.447q.445,3.785,1.559,5.232a6.75,6.75,0,0,0,5.845,2.783,6.782,6.782,0,0,0,5.038-2.032,7.029,7.029,0,0,0,2-5.149,7.225,7.225,0,0,0-.348-2.3,5.826,5.826,0,0,0-1.085-1.92,8.676,8.676,0,0,0-1.906-1.642,18.367,18.367,0,0,0-2.783-1.461l-4.147-1.726q-8.823-3.729-8.823-10.91a10.351,10.351,0,0,1,3.7-8.1,13.374,13.374,0,0,1,9.212-3.284Q470.879-43.808,475.054-36.571Zm73.131,0-5.26,3.117a9.041,9.041,0,0,0-2.811-3.34,6.558,6.558,0,0,0-3.59-.891,6.632,6.632,0,0,0-4.481,1.531,4.745,4.745,0,0,0-1.781,3.785q0,3.145,4.676,5.065l4.286,1.753a18.3,18.3,0,0,1,7.654,5.163,11.637,11.637,0,0,1,2.421,7.473,13.129,13.129,0,0,1-3.952,9.8,13.566,13.566,0,0,1-9.88,3.9,13.217,13.217,0,0,1-9.24-3.312,15.25,15.25,0,0,1-4.481-9.324l6.568-1.447q.445,3.785,1.559,5.232a6.75,6.75,0,0,0,5.845,2.783,6.782,6.782,0,0,0,5.038-2.032,7.029,7.029,0,0,0,2-5.149,7.225,7.225,0,0,0-.348-2.3,5.826,5.826,0,0,0-1.085-1.92,8.676,8.676,0,0,0-1.906-1.642,18.367,18.367,0,0,0-2.783-1.461l-4.147-1.726q-8.823-3.729-8.823-10.91a10.351,10.351,0,0,1,3.7-8.1,13.374,13.374,0,0,1,9.212-3.284Q544.01-43.808,548.185-36.571Z" transform="translate(147.847 308.439)" fill="#fff"></path></g></svg>