<svg xmlns="http://www.w3.org/2000/svg" width="1456.307" height="517.487" viewBox="0 0 1456.307 517.487"><g id="&#x30B0;&#x30EB;&#x30FC;&#x30D7;_16110" data-name="&#x30B0;&#x30EB;&#x30FC;&#x30D7; 16110" transform="translate(-147.847 -112.5)"><g id="&#x30B0;&#x30EB;&#x30FC;&#x30D7;_6482" data-name="&#x30B0;&#x30EB;&#x30FC;&#x30D7; 6482" transform="translate(-7975.153 -643.24)"><g id="&#x30B0;&#x30EB;&#x30FC;&#x30D7;_6475" data-name="&#x30B0;&#x30EB;&#x30FC;&#x30D7; 6475"><g id="&#x30B0;&#x30EB;&#x30FC;&#x30D7;_6474" data-name="&#x30B0;&#x30EB;&#x30FC;&#x30D7; 6474" transform="translate(7806 664.26)"><g id="&#x30B0;&#x30EB;&#x30FC;&#x30D7;_68" data-name="&#x30B0;&#x30EB;&#x30FC;&#x30D7; 68" transform="translate(7028.84 -139.52)"><g id="&#x30B0;&#x30EB;&#x30FC;&#x30D7;_65" data-name="&#x30B0;&#x30EB;&#x30FC;&#x30D7; 65" transform="translate(-6708.34 268.092)"><g id="&#x30B0;&#x30EB;&#x30FC;&#x30D7;_6320" data-name="&#x30B0;&#x30EB;&#x30FC;&#x30D7; 6320"><path id="&#x30D1;&#x30B9;_685" data-name="&#x30D1;&#x30B9; 685" d="M0,0V150.885" transform="translate(1031.68 88.005)" fill="rgba(0,0,0,0)" stroke="#1a2e50" stroke-width="35"></path><line id="&#x7DDA;_38" data-name="&#x7DDA; 38" y2="107.018" transform="translate(1123 136.569) rotate(90)" fill="rgba(0,0,0,0)" stroke="#1a2e50" stroke-width="35"></line></g><path id="&#x30D1;&#x30B9;_47" data-name="&#x30D1;&#x30B9; 47" d="M303.663-109.8,265.315,8.1,213.4-109.8H173.088L225.006,8.116h40.3L232.061,110.332h40.313l71.665-220.138Z" transform="translate(-9.66 161)" fill="#1a2e50"></path><g id="&#x30B0;&#x30EB;&#x30FC;&#x30D7;_437" data-name="&#x30B0;&#x30EB;&#x30FC;&#x30D7; 437" transform="translate(0 20.462)"><line id="&#x7DDA;_37" data-name="&#x7DDA; 37" y2="215" transform="translate(14 -0.072)" fill="none" stroke="#1a2e50" stroke-width="35"></line><g id="&#x9577;&#x65B9;&#x5F62;_222" data-name="&#x9577;&#x65B9;&#x5F62; 222" transform="translate(-3.5 81.428)" fill="none" stroke="#1a2e50" stroke-width="35"><rect width="134" height="134" stroke="none"></rect><rect x="17.5" y="17.5" width="99" height="99" fill="none"></rect></g></g><g id="&#x30B0;&#x30EB;&#x30FC;&#x30D7;_438" data-name="&#x30B0;&#x30EB;&#x30FC;&#x30D7; 438"><line id="&#x7DDA;_38-2" data-name="&#x7DDA; 38" y2="150.885" transform="translate(869.68 85.005)" fill="none" stroke="#1a2e50" stroke-width="35"></line><path id="&#x30D1;&#x30B9;_11923" data-name="&#x30D1;&#x30B9; 11923" d="M0,0" transform="translate(972 101.732) rotate(180)" fill="none" stroke="#1a2e50" stroke-width="35"></path></g></g><path id="&#x30D1;&#x30B9;_44" data-name="&#x30D1;&#x30B9; 44" d="M138.681,56.778V20.958H10.35v35.82Z" transform="translate(-5394.214 519.742)" fill="#1a2e50"></path><g id="&#x30B0;&#x30EB;&#x30FC;&#x30D7;_69" data-name="&#x30B0;&#x30EB;&#x30FC;&#x30D7; 69" transform="translate(-6328.068 231)"><path id="&#x30D1;&#x30B9;_46" data-name="&#x30D1;&#x30B9; 46" d="M65.364,42.576h34.995v-168.6h66.688V-161H-.69v34.98H65.364Z" transform="translate(126.184 231.689)" fill="#1a2e50"></path><g id="&#x9577;&#x65B9;&#x5F62;_22" data-name="&#x9577;&#x65B9;&#x5F62; 22" fill="none" stroke="#1a2e50" stroke-width="30"><rect width="905.205" height="345.52" stroke="none"></rect><rect x="15" y="15" width="875.205" height="315.52" fill="none"></rect></g></g></g></g></g><g id="&#x30B0;&#x30EB;&#x30FC;&#x30D7;_6478" data-name="&#x30B0;&#x30EB;&#x30FC;&#x30D7; 6478"><rect id="&#x9577;&#x65B9;&#x5F62;_3359" data-name="&#x9577;&#x65B9;&#x5F62; 3359" width="36" height="201" transform="translate(9140 831)" fill="#1a2e50"></rect><rect id="&#x9577;&#x65B9;&#x5F62;_3360" data-name="&#x9577;&#x65B9;&#x5F62; 3360" width="36" height="122.142" transform="translate(9264.642 911.5) rotate(90)" fill="#1a2e50"></rect><rect id="&#x9577;&#x65B9;&#x5F62;_3361" data-name="&#x9577;&#x65B9;&#x5F62; 3361" width="36" height="120.5" transform="translate(9228.642 911.5)" fill="#1a2e50"></rect></g><g id="&#x30B0;&#x30EB;&#x30FC;&#x30D7;_6479" data-name="&#x30B0;&#x30EB;&#x30FC;&#x30D7; 6479"><rect id="&#x9577;&#x65B9;&#x5F62;_3362" data-name="&#x9577;&#x65B9;&#x5F62; 3362" width="36" height="122.142" transform="translate(9099.642 877.5) rotate(90)" fill="#1a2e50"></rect><rect id="&#x9577;&#x65B9;&#x5F62;_3363" data-name="&#x9577;&#x65B9;&#x5F62; 3363" width="36" height="122.142" transform="translate(9013.5 1029.571) rotate(180)" fill="#1a2e50"></rect><rect id="&#x9577;&#x65B9;&#x5F62;_3364" data-name="&#x9577;&#x65B9;&#x5F62; 3364" width="36" height="122.142" transform="translate(8977.5 1029.571) rotate(-90)" fill="#1a2e50"></rect></g><g id="&#x30B0;&#x30EB;&#x30FC;&#x30D7;_6481" data-name="&#x30B0;&#x30EB;&#x30FC;&#x30D7; 6481" transform="translate(1)"><rect id="&#x9577;&#x65B9;&#x5F62;_3366" data-name="&#x9577;&#x65B9;&#x5F62; 3366" width="36" height="152.071" transform="translate(8850.5 1029.571) rotate(180)" fill="#1a2e50"></rect><g id="&#x30B0;&#x30EB;&#x30FC;&#x30D7;_6480" data-name="&#x30B0;&#x30EB;&#x30FC;&#x30D7; 6480"><rect id="&#x9577;&#x65B9;&#x5F62;_3367" data-name="&#x9577;&#x65B9;&#x5F62; 3367" width="36" height="125.071" transform="translate(8939.57 877.5) rotate(90)" fill="#1a2e50"></rect><rect id="&#x9577;&#x65B9;&#x5F62;_3368" data-name="&#x9577;&#x65B9;&#x5F62; 3368" width="36" height="125.071" transform="translate(8939.57 932.5) rotate(90)" fill="#1a2e50"></rect><rect id="&#x9577;&#x65B9;&#x5F62;_3370" data-name="&#x9577;&#x65B9;&#x5F62; 3370" width="36" height="125.071" transform="translate(8939.57 993.571) rotate(90)" fill="#1a2e50"></rect><rect id="&#x9577;&#x65B9;&#x5F62;_3369" data-name="&#x9577;&#x65B9;&#x5F62; 3369" width="36" height="91" transform="translate(8939.57 968.5) rotate(180)" fill="#1a2e50"></rect></g></g></g><path id="&#x30D1;&#x30B9;_24130" data-name="&#x30D1;&#x30B9; 24130" d="M11.743,0V-98.008H26.47a64.476,64.476,0,0,1,15.679,1.523,23.557,23.557,0,0,1,9.966,5.142,26.68,26.68,0,0,1,6.538,9.331,28.233,28.233,0,0,1,2.476,11.426,23.155,23.155,0,0,1-8.062,17.837,23.685,23.685,0,0,1,12.314,9.331,26.317,26.317,0,0,1,4.57,15.361A26.1,26.1,0,0,1,61.826-8.633,26.668,26.668,0,0,1,50.845-1.841,63.874,63.874,0,0,1,34.15,0Zm14.79-55.923h4.634q8.252,0,12.092-3.65T47.1-70.332q0-6.919-3.936-10.505T31.738-84.424H26.533Zm0,42.021h9.141Q45.7-13.9,50.4-17.837a13.606,13.606,0,0,0,4.951-10.791,13.824,13.824,0,0,0-4.761-10.664q-4.634-4.253-16.567-4.253h-7.49ZM221.7-98.008v59.033q0,12.632,4.126,18.472,6.157,8.442,17.329,8.442,11.235,0,17.393-8.442,4.126-5.649,4.126-18.472V-98.008h14.79v63.1q0,15.488-9.648,25.518a35.723,35.723,0,0,1-26.66,11.172,35.518,35.518,0,0,1-26.6-11.172q-9.648-10.029-9.648-25.518v-63.1Zm254.965,14.6-12,7.109q-3.364-5.84-6.411-7.617a14.956,14.956,0,0,0-8.188-2.031,15.125,15.125,0,0,0-10.22,3.491,10.822,10.822,0,0,0-4.062,8.633q0,7.173,10.664,11.553l9.775,4q11.934,4.824,17.456,11.775t5.522,17.043q0,13.521-9.014,22.344-9.077,8.887-22.534,8.887-12.759,0-21.074-7.554-8.188-7.554-10.22-21.265l14.98-3.3q1.016,8.633,3.555,11.934,4.57,6.348,13.33,6.348a15.468,15.468,0,0,0,11.489-4.634,16.031,16.031,0,0,0,4.57-11.743,16.479,16.479,0,0,0-.793-5.237,13.287,13.287,0,0,0-2.476-4.38,19.787,19.787,0,0,0-4.348-3.745,41.888,41.888,0,0,0-6.348-3.333l-9.458-3.936q-20.122-8.506-20.122-24.883a23.607,23.607,0,0,1,8.442-18.472q8.442-7.49,21.011-7.49Q467.147-99.912,476.668-83.408Zm153.466-14.6V0h-14.79V-98.008ZM771.984,0V-104.673L843.459-29.9v-68.11h14.79V5.967L786.774-68.618V0Zm282.133-84.106h-39.292v23.55h38.149v13.9h-38.149V-13.9h39.292V0h-54.082V-98.008h54.082Zm193.139.7-12,7.109q-3.364-5.84-6.411-7.617a14.956,14.956,0,0,0-8.188-2.031,15.125,15.125,0,0,0-10.22,3.491,10.822,10.822,0,0,0-4.062,8.633q0,7.173,10.664,11.553l9.775,4q11.934,4.824,17.456,11.775t5.522,17.043q0,13.521-9.014,22.344-9.077,8.887-22.534,8.887-12.759,0-21.074-7.554-8.188-7.554-10.22-21.265l14.98-3.3q1.016,8.633,3.555,11.934,4.57,6.348,13.33,6.348a15.468,15.468,0,0,0,11.489-4.634,16.031,16.031,0,0,0,4.57-11.743,16.48,16.48,0,0,0-.793-5.237,13.286,13.286,0,0,0-2.476-4.38,19.788,19.788,0,0,0-4.348-3.745,41.887,41.887,0,0,0-6.348-3.333l-9.458-3.936q-20.122-8.506-20.122-24.883a23.607,23.607,0,0,1,8.442-18.472q8.442-7.49,21.011-7.49Q1237.735-99.912,1247.256-83.408Zm194.091,0-12,7.109q-3.364-5.84-6.411-7.617a14.956,14.956,0,0,0-8.188-2.031,15.125,15.125,0,0,0-10.22,3.491,10.822,10.822,0,0,0-4.062,8.633q0,7.173,10.664,11.553l9.775,4q11.934,4.824,17.456,11.775t5.522,17.043q0,13.521-9.014,22.344-9.077,8.887-22.534,8.887-12.759,0-21.074-7.554-8.188-7.554-10.22-21.265l14.98-3.3q1.016,8.633,3.555,11.934,4.57,6.348,13.33,6.348a15.468,15.468,0,0,0,11.489-4.634,16.031,16.031,0,0,0,4.57-11.743,16.48,16.48,0,0,0-.793-5.237,13.286,13.286,0,0,0-2.476-4.38,19.788,19.788,0,0,0-4.348-3.745A41.887,41.887,0,0,0,1415-45.132l-9.458-3.936q-20.122-8.506-20.122-24.883a23.607,23.607,0,0,1,8.442-18.472q8.442-7.49,21.011-7.49Q1431.826-99.912,1441.347-83.408Z" transform="translate(147.847 624.02)" fill="#1a2e50"></path></g></svg>