<svg xmlns="http://www.w3.org/2000/svg" width="80.469" height="78.174" viewBox="0 0 80.469 78.174"><path id="&#x30D1;&#x30B9;_26635" data-name="&#x30D1;&#x30B9; 26635" d="M41.064,1.367H26.758L20.85-4.687a38.028,38.028,0,0,1-21,6.055A39.281,39.281,0,0,1-26.758-8.789Q-39.4-19.971-39.4-37.354q0-17.041,11.963-28.418A38.527,38.527,0,0,1,0-76.807a38.673,38.673,0,0,1,25.732,9.668Q39.4-55.518,39.4-36.816q0,14.648-10.791,26.025Zm-31.3-31.2L20.7-18.945a25.808,25.808,0,0,0,7.227-18.6A27.909,27.909,0,0,0,19.873-57.91a26.929,26.929,0,0,0-20.02-8.2q-12.109,0-19.922,8.2-7.861,8.154-7.861,20.654,0,12.207,8.105,19.971Q-11.377-9.277-.537-9.277a26.6,26.6,0,0,0,13.33-3.369L-4.932-29.834Z" transform="translate(39.404 76.807)" fill="#3a82ca"></path></svg>